<?xml version="1.0" encoding="utf-8" standalone="no"?>
<!DOCTYPE svg PUBLIC "-//W3C//DTD SVG 1.1//EN"
  "http://www.w3.org/Graphics/SVG/1.1/DTD/svg11.dtd">
<!-- Created with matplotlib (http://matplotlib.org/) -->
<svg height="345.6pt" version="1.1" viewBox="0 0 460.8 345.6" width="460.8pt" xmlns="http://www.w3.org/2000/svg" xmlns:xlink="http://www.w3.org/1999/xlink">
 <defs>
  <style type="text/css">
*{stroke-linecap:butt;stroke-linejoin:round;}
  </style>
 </defs>
 <g id="figure_1">
  <g id="patch_1">
   <path d="M 0 345.6 
L 460.8 345.6 
L 460.8 0 
L 0 0 
z
" style="fill:#ffffff;"/>
  </g>
  <g id="axes_1">
   <g id="patch_2">
    <path d="M 56.84 294.16 
L 399.984 294.16 
L 399.984 6.125228 
L 56.84 6.125228 
z
" style="fill:#ffffff;"/>
   </g>
   <g id="matplotlib.axis_1">
    <g id="xtick_1">
     <g id="line2d_1">
      <path clip-path="url(#p996f1a8241)" d="M 56.84 294.16 
L 56.84 6.125228 
" style="fill:none;stroke:#b0b0b0;stroke-linecap:square;stroke-width:0.8;"/>
     </g>
     <g id="line2d_2">
      <defs>
       <path d="M 0 0 
L 0 3.5 
" id="mfbf44fbd31" style="stroke:#000000;stroke-width:0.8;"/>
      </defs>
      <g>
       <use style="stroke:#000000;stroke-width:0.8;" x="56.84" xlink:href="#mfbf44fbd31" y="294.16"/>
      </g>
     </g>
     <g id="text_1">
      <!-- 0 -->
      <defs>
       <path d="M 31.78125 66.40625 
Q 24.171875 66.40625 20.328125 58.90625 
Q 16.5 51.421875 16.5 36.375 
Q 16.5 21.390625 20.328125 13.890625 
Q 24.171875 6.390625 31.78125 6.390625 
Q 39.453125 6.390625 43.28125 13.890625 
Q 47.125 21.390625 47.125 36.375 
Q 47.125 51.421875 43.28125 58.90625 
Q 39.453125 66.40625 31.78125 66.40625 
z
M 31.78125 74.21875 
Q 44.046875 74.21875 50.515625 64.515625 
Q 56.984375 54.828125 56.984375 36.375 
Q 56.984375 17.96875 50.515625 8.265625 
Q 44.046875 -1.421875 31.78125 -1.421875 
Q 19.53125 -1.421875 13.0625 8.265625 
Q 6.59375 17.96875 6.59375 36.375 
Q 6.59375 54.828125 13.0625 64.515625 
Q 19.53125 74.21875 31.78125 74.21875 
z
" id="DejaVuSans-30"/>
      </defs>
      <g transform="translate(50.4775 316.356875)scale(0.2 -0.2)">
       <use xlink:href="#DejaVuSans-30"/>
      </g>
     </g>
    </g>
    <g id="xtick_2">
     <g id="line2d_3">
      <path clip-path="url(#p996f1a8241)" d="M 135.905438 294.16 
L 135.905438 6.125228 
" style="fill:none;stroke:#b0b0b0;stroke-linecap:square;stroke-width:0.8;"/>
     </g>
     <g id="line2d_4">
      <g>
       <use style="stroke:#000000;stroke-width:0.8;" x="135.905438" xlink:href="#mfbf44fbd31" y="294.16"/>
      </g>
     </g>
     <g id="text_2">
      <!-- 2 -->
      <defs>
       <path d="M 19.1875 8.296875 
L 53.609375 8.296875 
L 53.609375 0 
L 7.328125 0 
L 7.328125 8.296875 
Q 12.9375 14.109375 22.625 23.890625 
Q 32.328125 33.6875 34.8125 36.53125 
Q 39.546875 41.84375 41.421875 45.53125 
Q 43.3125 49.21875 43.3125 52.78125 
Q 43.3125 58.59375 39.234375 62.25 
Q 35.15625 65.921875 28.609375 65.921875 
Q 23.96875 65.921875 18.8125 64.3125 
Q 13.671875 62.703125 7.8125 59.421875 
L 7.8125 69.390625 
Q 13.765625 71.78125 18.9375 73 
Q 24.125 74.21875 28.421875 74.21875 
Q 39.75 74.21875 46.484375 68.546875 
Q 53.21875 62.890625 53.21875 53.421875 
Q 53.21875 48.921875 51.53125 44.890625 
Q 49.859375 40.875 45.40625 35.40625 
Q 44.1875 33.984375 37.640625 27.21875 
Q 31.109375 20.453125 19.1875 8.296875 
z
" id="DejaVuSans-32"/>
      </defs>
      <g transform="translate(129.542938 316.356875)scale(0.2 -0.2)">
       <use xlink:href="#DejaVuSans-32"/>
      </g>
     </g>
    </g>
    <g id="xtick_3">
     <g id="line2d_5">
      <path clip-path="url(#p996f1a8241)" d="M 214.970876 294.16 
L 214.970876 6.125228 
" style="fill:none;stroke:#b0b0b0;stroke-linecap:square;stroke-width:0.8;"/>
     </g>
     <g id="line2d_6">
      <g>
       <use style="stroke:#000000;stroke-width:0.8;" x="214.970876" xlink:href="#mfbf44fbd31" y="294.16"/>
      </g>
     </g>
     <g id="text_3">
      <!-- 4 -->
      <defs>
       <path d="M 37.796875 64.3125 
L 12.890625 25.390625 
L 37.796875 25.390625 
z
M 35.203125 72.90625 
L 47.609375 72.90625 
L 47.609375 25.390625 
L 58.015625 25.390625 
L 58.015625 17.1875 
L 47.609375 17.1875 
L 47.609375 0 
L 37.796875 0 
L 37.796875 17.1875 
L 4.890625 17.1875 
L 4.890625 26.703125 
z
" id="DejaVuSans-34"/>
      </defs>
      <g transform="translate(208.608376 316.356875)scale(0.2 -0.2)">
       <use xlink:href="#DejaVuSans-34"/>
      </g>
     </g>
    </g>
    <g id="xtick_4">
     <g id="line2d_7">
      <path clip-path="url(#p996f1a8241)" d="M 294.036313 294.16 
L 294.036313 6.125228 
" style="fill:none;stroke:#b0b0b0;stroke-linecap:square;stroke-width:0.8;"/>
     </g>
     <g id="line2d_8">
      <g>
       <use style="stroke:#000000;stroke-width:0.8;" x="294.036313" xlink:href="#mfbf44fbd31" y="294.16"/>
      </g>
     </g>
     <g id="text_4">
      <!-- 6 -->
      <defs>
       <path d="M 33.015625 40.375 
Q 26.375 40.375 22.484375 35.828125 
Q 18.609375 31.296875 18.609375 23.390625 
Q 18.609375 15.53125 22.484375 10.953125 
Q 26.375 6.390625 33.015625 6.390625 
Q 39.65625 6.390625 43.53125 10.953125 
Q 47.40625 15.53125 47.40625 23.390625 
Q 47.40625 31.296875 43.53125 35.828125 
Q 39.65625 40.375 33.015625 40.375 
z
M 52.59375 71.296875 
L 52.59375 62.3125 
Q 48.875 64.0625 45.09375 64.984375 
Q 41.3125 65.921875 37.59375 65.921875 
Q 27.828125 65.921875 22.671875 59.328125 
Q 17.53125 52.734375 16.796875 39.40625 
Q 19.671875 43.65625 24.015625 45.921875 
Q 28.375 48.1875 33.59375 48.1875 
Q 44.578125 48.1875 50.953125 41.515625 
Q 57.328125 34.859375 57.328125 23.390625 
Q 57.328125 12.15625 50.6875 5.359375 
Q 44.046875 -1.421875 33.015625 -1.421875 
Q 20.359375 -1.421875 13.671875 8.265625 
Q 6.984375 17.96875 6.984375 36.375 
Q 6.984375 53.65625 15.1875 63.9375 
Q 23.390625 74.21875 37.203125 74.21875 
Q 40.921875 74.21875 44.703125 73.484375 
Q 48.484375 72.75 52.59375 71.296875 
z
" id="DejaVuSans-36"/>
      </defs>
      <g transform="translate(287.673813 316.356875)scale(0.2 -0.2)">
       <use xlink:href="#DejaVuSans-36"/>
      </g>
     </g>
    </g>
    <g id="xtick_5">
     <g id="line2d_9">
      <path clip-path="url(#p996f1a8241)" d="M 373.101751 294.16 
L 373.101751 6.125228 
" style="fill:none;stroke:#b0b0b0;stroke-linecap:square;stroke-width:0.8;"/>
     </g>
     <g id="line2d_10">
      <g>
       <use style="stroke:#000000;stroke-width:0.8;" x="373.101751" xlink:href="#mfbf44fbd31" y="294.16"/>
      </g>
     </g>
     <g id="text_5">
      <!-- 8 -->
      <defs>
       <path d="M 31.78125 34.625 
Q 24.75 34.625 20.71875 30.859375 
Q 16.703125 27.09375 16.703125 20.515625 
Q 16.703125 13.921875 20.71875 10.15625 
Q 24.75 6.390625 31.78125 6.390625 
Q 38.8125 6.390625 42.859375 10.171875 
Q 46.921875 13.96875 46.921875 20.515625 
Q 46.921875 27.09375 42.890625 30.859375 
Q 38.875 34.625 31.78125 34.625 
z
M 21.921875 38.8125 
Q 15.578125 40.375 12.03125 44.71875 
Q 8.5 49.078125 8.5 55.328125 
Q 8.5 64.0625 14.71875 69.140625 
Q 20.953125 74.21875 31.78125 74.21875 
Q 42.671875 74.21875 48.875 69.140625 
Q 55.078125 64.0625 55.078125 55.328125 
Q 55.078125 49.078125 51.53125 44.71875 
Q 48 40.375 41.703125 38.8125 
Q 48.828125 37.15625 52.796875 32.3125 
Q 56.78125 27.484375 56.78125 20.515625 
Q 56.78125 9.90625 50.3125 4.234375 
Q 43.84375 -1.421875 31.78125 -1.421875 
Q 19.734375 -1.421875 13.25 4.234375 
Q 6.78125 9.90625 6.78125 20.515625 
Q 6.78125 27.484375 10.78125 32.3125 
Q 14.796875 37.15625 21.921875 38.8125 
z
M 18.3125 54.390625 
Q 18.3125 48.734375 21.84375 45.5625 
Q 25.390625 42.390625 31.78125 42.390625 
Q 38.140625 42.390625 41.71875 45.5625 
Q 45.3125 48.734375 45.3125 54.390625 
Q 45.3125 60.0625 41.71875 63.234375 
Q 38.140625 66.40625 31.78125 66.40625 
Q 25.390625 66.40625 21.84375 63.234375 
Q 18.3125 60.0625 18.3125 54.390625 
z
" id="DejaVuSans-38"/>
      </defs>
      <g transform="translate(366.739251 316.356875)scale(0.2 -0.2)">
       <use xlink:href="#DejaVuSans-38"/>
      </g>
     </g>
    </g>
    <g id="text_6">
     <!-- log10(# f-evals / dimension) -->
     <defs>
      <path d="M 9.421875 75.984375 
L 18.40625 75.984375 
L 18.40625 0 
L 9.421875 0 
z
" id="DejaVuSans-6c"/>
      <path d="M 30.609375 48.390625 
Q 23.390625 48.390625 19.1875 42.75 
Q 14.984375 37.109375 14.984375 27.296875 
Q 14.984375 17.484375 19.15625 11.84375 
Q 23.34375 6.203125 30.609375 6.203125 
Q 37.796875 6.203125 41.984375 11.859375 
Q 46.1875 17.53125 46.1875 27.296875 
Q 46.1875 37.015625 41.984375 42.703125 
Q 37.796875 48.390625 30.609375 48.390625 
z
M 30.609375 56 
Q 42.328125 56 49.015625 48.375 
Q 55.71875 40.765625 55.71875 27.296875 
Q 55.71875 13.875 49.015625 6.21875 
Q 42.328125 -1.421875 30.609375 -1.421875 
Q 18.84375 -1.421875 12.171875 6.21875 
Q 5.515625 13.875 5.515625 27.296875 
Q 5.515625 40.765625 12.171875 48.375 
Q 18.84375 56 30.609375 56 
z
" id="DejaVuSans-6f"/>
      <path d="M 45.40625 27.984375 
Q 45.40625 37.75 41.375 43.109375 
Q 37.359375 48.484375 30.078125 48.484375 
Q 22.859375 48.484375 18.828125 43.109375 
Q 14.796875 37.75 14.796875 27.984375 
Q 14.796875 18.265625 18.828125 12.890625 
Q 22.859375 7.515625 30.078125 7.515625 
Q 37.359375 7.515625 41.375 12.890625 
Q 45.40625 18.265625 45.40625 27.984375 
z
M 54.390625 6.78125 
Q 54.390625 -7.171875 48.1875 -13.984375 
Q 42 -20.796875 29.203125 -20.796875 
Q 24.46875 -20.796875 20.265625 -20.09375 
Q 16.0625 -19.390625 12.109375 -17.921875 
L 12.109375 -9.1875 
Q 16.0625 -11.328125 19.921875 -12.34375 
Q 23.78125 -13.375 27.78125 -13.375 
Q 36.625 -13.375 41.015625 -8.765625 
Q 45.40625 -4.15625 45.40625 5.171875 
L 45.40625 9.625 
Q 42.625 4.78125 38.28125 2.390625 
Q 33.9375 0 27.875 0 
Q 17.828125 0 11.671875 7.65625 
Q 5.515625 15.328125 5.515625 27.984375 
Q 5.515625 40.671875 11.671875 48.328125 
Q 17.828125 56 27.875 56 
Q 33.9375 56 38.28125 53.609375 
Q 42.625 51.21875 45.40625 46.390625 
L 45.40625 54.6875 
L 54.390625 54.6875 
z
" id="DejaVuSans-67"/>
      <path d="M 12.40625 8.296875 
L 28.515625 8.296875 
L 28.515625 63.921875 
L 10.984375 60.40625 
L 10.984375 69.390625 
L 28.421875 72.90625 
L 38.28125 72.90625 
L 38.28125 8.296875 
L 54.390625 8.296875 
L 54.390625 0 
L 12.40625 0 
z
" id="DejaVuSans-31"/>
      <path d="M 31 75.875 
Q 24.46875 64.65625 21.28125 53.65625 
Q 18.109375 42.671875 18.109375 31.390625 
Q 18.109375 20.125 21.3125 9.0625 
Q 24.515625 -2 31 -13.1875 
L 23.1875 -13.1875 
Q 15.875 -1.703125 12.234375 9.375 
Q 8.59375 20.453125 8.59375 31.390625 
Q 8.59375 42.28125 12.203125 53.3125 
Q 15.828125 64.359375 23.1875 75.875 
z
" id="DejaVuSans-28"/>
      <path d="M 51.125 44 
L 36.921875 44 
L 32.8125 27.6875 
L 47.125 27.6875 
z
M 43.796875 71.78125 
L 38.71875 51.515625 
L 52.984375 51.515625 
L 58.109375 71.78125 
L 65.921875 71.78125 
L 60.890625 51.515625 
L 76.125 51.515625 
L 76.125 44 
L 58.984375 44 
L 54.984375 27.6875 
L 70.515625 27.6875 
L 70.515625 20.21875 
L 53.078125 20.21875 
L 48 0 
L 40.1875 0 
L 45.21875 20.21875 
L 30.90625 20.21875 
L 25.875 0 
L 18.015625 0 
L 23.09375 20.21875 
L 7.71875 20.21875 
L 7.71875 27.6875 
L 24.90625 27.6875 
L 29 44 
L 13.28125 44 
L 13.28125 51.515625 
L 30.90625 51.515625 
L 35.890625 71.78125 
z
" id="DejaVuSans-23"/>
      <path id="DejaVuSans-20"/>
      <path d="M 37.109375 75.984375 
L 37.109375 68.5 
L 28.515625 68.5 
Q 23.6875 68.5 21.796875 66.546875 
Q 19.921875 64.59375 19.921875 59.515625 
L 19.921875 54.6875 
L 34.71875 54.6875 
L 34.71875 47.703125 
L 19.921875 47.703125 
L 19.921875 0 
L 10.890625 0 
L 10.890625 47.703125 
L 2.296875 47.703125 
L 2.296875 54.6875 
L 10.890625 54.6875 
L 10.890625 58.5 
Q 10.890625 67.625 15.140625 71.796875 
Q 19.390625 75.984375 28.609375 75.984375 
z
" id="DejaVuSans-66"/>
      <path d="M 4.890625 31.390625 
L 31.203125 31.390625 
L 31.203125 23.390625 
L 4.890625 23.390625 
z
" id="DejaVuSans-2d"/>
      <path d="M 56.203125 29.59375 
L 56.203125 25.203125 
L 14.890625 25.203125 
Q 15.484375 15.921875 20.484375 11.0625 
Q 25.484375 6.203125 34.421875 6.203125 
Q 39.59375 6.203125 44.453125 7.46875 
Q 49.3125 8.734375 54.109375 11.28125 
L 54.109375 2.78125 
Q 49.265625 0.734375 44.1875 -0.34375 
Q 39.109375 -1.421875 33.890625 -1.421875 
Q 20.796875 -1.421875 13.15625 6.1875 
Q 5.515625 13.8125 5.515625 26.8125 
Q 5.515625 40.234375 12.765625 48.109375 
Q 20.015625 56 32.328125 56 
Q 43.359375 56 49.78125 48.890625 
Q 56.203125 41.796875 56.203125 29.59375 
z
M 47.21875 32.234375 
Q 47.125 39.59375 43.09375 43.984375 
Q 39.0625 48.390625 32.421875 48.390625 
Q 24.90625 48.390625 20.390625 44.140625 
Q 15.875 39.890625 15.1875 32.171875 
z
" id="DejaVuSans-65"/>
      <path d="M 2.984375 54.6875 
L 12.5 54.6875 
L 29.59375 8.796875 
L 46.6875 54.6875 
L 56.203125 54.6875 
L 35.6875 0 
L 23.484375 0 
z
" id="DejaVuSans-76"/>
      <path d="M 34.28125 27.484375 
Q 23.390625 27.484375 19.1875 25 
Q 14.984375 22.515625 14.984375 16.5 
Q 14.984375 11.71875 18.140625 8.90625 
Q 21.296875 6.109375 26.703125 6.109375 
Q 34.1875 6.109375 38.703125 11.40625 
Q 43.21875 16.703125 43.21875 25.484375 
L 43.21875 27.484375 
z
M 52.203125 31.203125 
L 52.203125 0 
L 43.21875 0 
L 43.21875 8.296875 
Q 40.140625 3.328125 35.546875 0.953125 
Q 30.953125 -1.421875 24.3125 -1.421875 
Q 15.921875 -1.421875 10.953125 3.296875 
Q 6 8.015625 6 15.921875 
Q 6 25.140625 12.171875 29.828125 
Q 18.359375 34.515625 30.609375 34.515625 
L 43.21875 34.515625 
L 43.21875 35.40625 
Q 43.21875 41.609375 39.140625 45 
Q 35.0625 48.390625 27.6875 48.390625 
Q 23 48.390625 18.546875 47.265625 
Q 14.109375 46.140625 10.015625 43.890625 
L 10.015625 52.203125 
Q 14.9375 54.109375 19.578125 55.046875 
Q 24.21875 56 28.609375 56 
Q 40.484375 56 46.34375 49.84375 
Q 52.203125 43.703125 52.203125 31.203125 
z
" id="DejaVuSans-61"/>
      <path d="M 44.28125 53.078125 
L 44.28125 44.578125 
Q 40.484375 46.53125 36.375 47.5 
Q 32.28125 48.484375 27.875 48.484375 
Q 21.1875 48.484375 17.84375 46.4375 
Q 14.5 44.390625 14.5 40.28125 
Q 14.5 37.15625 16.890625 35.375 
Q 19.28125 33.59375 26.515625 31.984375 
L 29.59375 31.296875 
Q 39.15625 29.25 43.1875 25.515625 
Q 47.21875 21.78125 47.21875 15.09375 
Q 47.21875 7.46875 41.1875 3.015625 
Q 35.15625 -1.421875 24.609375 -1.421875 
Q 20.21875 -1.421875 15.453125 -0.5625 
Q 10.6875 0.296875 5.421875 2 
L 5.421875 11.28125 
Q 10.40625 8.6875 15.234375 7.390625 
Q 20.0625 6.109375 24.8125 6.109375 
Q 31.15625 6.109375 34.5625 8.28125 
Q 37.984375 10.453125 37.984375 14.40625 
Q 37.984375 18.0625 35.515625 20.015625 
Q 33.0625 21.96875 24.703125 23.78125 
L 21.578125 24.515625 
Q 13.234375 26.265625 9.515625 29.90625 
Q 5.8125 33.546875 5.8125 39.890625 
Q 5.8125 47.609375 11.28125 51.796875 
Q 16.75 56 26.8125 56 
Q 31.78125 56 36.171875 55.265625 
Q 40.578125 54.546875 44.28125 53.078125 
z
" id="DejaVuSans-73"/>
      <path d="M 25.390625 72.90625 
L 33.6875 72.90625 
L 8.296875 -9.28125 
L 0 -9.28125 
z
" id="DejaVuSans-2f"/>
      <path d="M 45.40625 46.390625 
L 45.40625 75.984375 
L 54.390625 75.984375 
L 54.390625 0 
L 45.40625 0 
L 45.40625 8.203125 
Q 42.578125 3.328125 38.25 0.953125 
Q 33.9375 -1.421875 27.875 -1.421875 
Q 17.96875 -1.421875 11.734375 6.484375 
Q 5.515625 14.40625 5.515625 27.296875 
Q 5.515625 40.1875 11.734375 48.09375 
Q 17.96875 56 27.875 56 
Q 33.9375 56 38.25 53.625 
Q 42.578125 51.265625 45.40625 46.390625 
z
M 14.796875 27.296875 
Q 14.796875 17.390625 18.875 11.75 
Q 22.953125 6.109375 30.078125 6.109375 
Q 37.203125 6.109375 41.296875 11.75 
Q 45.40625 17.390625 45.40625 27.296875 
Q 45.40625 37.203125 41.296875 42.84375 
Q 37.203125 48.484375 30.078125 48.484375 
Q 22.953125 48.484375 18.875 42.84375 
Q 14.796875 37.203125 14.796875 27.296875 
z
" id="DejaVuSans-64"/>
      <path d="M 9.421875 54.6875 
L 18.40625 54.6875 
L 18.40625 0 
L 9.421875 0 
z
M 9.421875 75.984375 
L 18.40625 75.984375 
L 18.40625 64.59375 
L 9.421875 64.59375 
z
" id="DejaVuSans-69"/>
      <path d="M 52 44.1875 
Q 55.375 50.25 60.0625 53.125 
Q 64.75 56 71.09375 56 
Q 79.640625 56 84.28125 50.015625 
Q 88.921875 44.046875 88.921875 33.015625 
L 88.921875 0 
L 79.890625 0 
L 79.890625 32.71875 
Q 79.890625 40.578125 77.09375 44.375 
Q 74.3125 48.1875 68.609375 48.1875 
Q 61.625 48.1875 57.5625 43.546875 
Q 53.515625 38.921875 53.515625 30.90625 
L 53.515625 0 
L 44.484375 0 
L 44.484375 32.71875 
Q 44.484375 40.625 41.703125 44.40625 
Q 38.921875 48.1875 33.109375 48.1875 
Q 26.21875 48.1875 22.15625 43.53125 
Q 18.109375 38.875 18.109375 30.90625 
L 18.109375 0 
L 9.078125 0 
L 9.078125 54.6875 
L 18.109375 54.6875 
L 18.109375 46.1875 
Q 21.1875 51.21875 25.484375 53.609375 
Q 29.78125 56 35.6875 56 
Q 41.65625 56 45.828125 52.96875 
Q 50 49.953125 52 44.1875 
z
" id="DejaVuSans-6d"/>
      <path d="M 54.890625 33.015625 
L 54.890625 0 
L 45.90625 0 
L 45.90625 32.71875 
Q 45.90625 40.484375 42.875 44.328125 
Q 39.84375 48.1875 33.796875 48.1875 
Q 26.515625 48.1875 22.3125 43.546875 
Q 18.109375 38.921875 18.109375 30.90625 
L 18.109375 0 
L 9.078125 0 
L 9.078125 54.6875 
L 18.109375 54.6875 
L 18.109375 46.1875 
Q 21.34375 51.125 25.703125 53.5625 
Q 30.078125 56 35.796875 56 
Q 45.21875 56 50.046875 50.171875 
Q 54.890625 44.34375 54.890625 33.015625 
z
" id="DejaVuSans-6e"/>
      <path d="M 8.015625 75.875 
L 15.828125 75.875 
Q 23.140625 64.359375 26.78125 53.3125 
Q 30.421875 42.28125 30.421875 31.390625 
Q 30.421875 20.453125 26.78125 9.375 
Q 23.140625 -1.703125 15.828125 -13.1875 
L 8.015625 -13.1875 
Q 14.5 -2 17.703125 9.0625 
Q 20.90625 20.125 20.90625 31.390625 
Q 20.90625 42.671875 17.703125 53.65625 
Q 14.5 64.65625 8.015625 75.875 
z
" id="DejaVuSans-29"/>
     </defs>
     <g transform="translate(107.571219 337.433594)scale(0.17 -0.17)">
      <use xlink:href="#DejaVuSans-6c"/>
      <use x="27.783203" xlink:href="#DejaVuSans-6f"/>
      <use x="88.964844" xlink:href="#DejaVuSans-67"/>
      <use x="152.441406" xlink:href="#DejaVuSans-31"/>
      <use x="216.064453" xlink:href="#DejaVuSans-30"/>
      <use x="279.6875" xlink:href="#DejaVuSans-28"/>
      <use x="318.701172" xlink:href="#DejaVuSans-23"/>
      <use x="402.490234" xlink:href="#DejaVuSans-20"/>
      <use x="434.277344" xlink:href="#DejaVuSans-66"/>
      <use x="469.404297" xlink:href="#DejaVuSans-2d"/>
      <use x="505.488281" xlink:href="#DejaVuSans-65"/>
      <use x="567.011719" xlink:href="#DejaVuSans-76"/>
      <use x="626.191406" xlink:href="#DejaVuSans-61"/>
      <use x="687.470703" xlink:href="#DejaVuSans-6c"/>
      <use x="715.253906" xlink:href="#DejaVuSans-73"/>
      <use x="767.353516" xlink:href="#DejaVuSans-20"/>
      <use x="799.140625" xlink:href="#DejaVuSans-2f"/>
      <use x="832.832031" xlink:href="#DejaVuSans-20"/>
      <use x="864.619141" xlink:href="#DejaVuSans-64"/>
      <use x="928.095703" xlink:href="#DejaVuSans-69"/>
      <use x="955.878906" xlink:href="#DejaVuSans-6d"/>
      <use x="1053.291016" xlink:href="#DejaVuSans-65"/>
      <use x="1114.814453" xlink:href="#DejaVuSans-6e"/>
      <use x="1178.193359" xlink:href="#DejaVuSans-73"/>
      <use x="1230.292969" xlink:href="#DejaVuSans-69"/>
      <use x="1258.076172" xlink:href="#DejaVuSans-6f"/>
      <use x="1319.257812" xlink:href="#DejaVuSans-6e"/>
      <use x="1382.636719" xlink:href="#DejaVuSans-29"/>
     </g>
    </g>
   </g>
   <g id="matplotlib.axis_2">
    <g id="ytick_1">
     <g id="line2d_11">
      <path clip-path="url(#p996f1a8241)" d="M 56.84 294.16 
L 399.984 294.16 
" style="fill:none;stroke:#b0b0b0;stroke-linecap:square;stroke-width:0.8;"/>
     </g>
     <g id="line2d_12">
      <defs>
       <path d="M 0 0 
L -3.5 0 
" id="m7def05db88" style="stroke:#000000;stroke-width:0.8;"/>
      </defs>
      <g>
       <use style="stroke:#000000;stroke-width:0.8;" x="56.84" xlink:href="#m7def05db88" y="294.16"/>
      </g>
     </g>
     <g id="text_7">
      <!-- 0.0 -->
      <defs>
       <path d="M 10.6875 12.40625 
L 21 12.40625 
L 21 0 
L 10.6875 0 
z
" id="DejaVuSans-2e"/>
      </defs>
      <g transform="translate(24.395 300.23875)scale(0.16 -0.16)">
       <use xlink:href="#DejaVuSans-30"/>
       <use x="63.623047" xlink:href="#DejaVuSans-2e"/>
       <use x="95.410156" xlink:href="#DejaVuSans-30"/>
      </g>
     </g>
    </g>
    <g id="ytick_2">
     <g id="line2d_13">
      <path clip-path="url(#p996f1a8241)" d="M 56.84 237.123411 
L 399.984 237.123411 
" style="fill:none;stroke:#b0b0b0;stroke-linecap:square;stroke-width:0.8;"/>
     </g>
     <g id="line2d_14">
      <g>
       <use style="stroke:#000000;stroke-width:0.8;" x="56.84" xlink:href="#m7def05db88" y="237.123411"/>
      </g>
     </g>
     <g id="text_8">
      <!-- 0.2 -->
      <g transform="translate(24.395 243.202161)scale(0.16 -0.16)">
       <use xlink:href="#DejaVuSans-30"/>
       <use x="63.623047" xlink:href="#DejaVuSans-2e"/>
       <use x="95.410156" xlink:href="#DejaVuSans-32"/>
      </g>
     </g>
    </g>
    <g id="ytick_3">
     <g id="line2d_15">
      <path clip-path="url(#p996f1a8241)" d="M 56.84 180.086823 
L 399.984 180.086823 
" style="fill:none;stroke:#b0b0b0;stroke-linecap:square;stroke-width:0.8;"/>
     </g>
     <g id="line2d_16">
      <g>
       <use style="stroke:#000000;stroke-width:0.8;" x="56.84" xlink:href="#m7def05db88" y="180.086823"/>
      </g>
     </g>
     <g id="text_9">
      <!-- 0.4 -->
      <g transform="translate(24.395 186.165573)scale(0.16 -0.16)">
       <use xlink:href="#DejaVuSans-30"/>
       <use x="63.623047" xlink:href="#DejaVuSans-2e"/>
       <use x="95.410156" xlink:href="#DejaVuSans-34"/>
      </g>
     </g>
    </g>
    <g id="ytick_4">
     <g id="line2d_17">
      <path clip-path="url(#p996f1a8241)" d="M 56.84 123.050234 
L 399.984 123.050234 
" style="fill:none;stroke:#b0b0b0;stroke-linecap:square;stroke-width:0.8;"/>
     </g>
     <g id="line2d_18">
      <g>
       <use style="stroke:#000000;stroke-width:0.8;" x="56.84" xlink:href="#m7def05db88" y="123.050234"/>
      </g>
     </g>
     <g id="text_10">
      <!-- 0.6 -->
      <g transform="translate(24.395 129.128984)scale(0.16 -0.16)">
       <use xlink:href="#DejaVuSans-30"/>
       <use x="63.623047" xlink:href="#DejaVuSans-2e"/>
       <use x="95.410156" xlink:href="#DejaVuSans-36"/>
      </g>
     </g>
    </g>
    <g id="ytick_5">
     <g id="line2d_19">
      <path clip-path="url(#p996f1a8241)" d="M 56.84 66.013646 
L 399.984 66.013646 
" style="fill:none;stroke:#b0b0b0;stroke-linecap:square;stroke-width:0.8;"/>
     </g>
     <g id="line2d_20">
      <g>
       <use style="stroke:#000000;stroke-width:0.8;" x="56.84" xlink:href="#m7def05db88" y="66.013646"/>
      </g>
     </g>
     <g id="text_11">
      <!-- 0.8 -->
      <g transform="translate(24.395 72.092396)scale(0.16 -0.16)">
       <use xlink:href="#DejaVuSans-30"/>
       <use x="63.623047" xlink:href="#DejaVuSans-2e"/>
       <use x="95.410156" xlink:href="#DejaVuSans-38"/>
      </g>
     </g>
    </g>
    <g id="ytick_6">
     <g id="line2d_21">
      <path clip-path="url(#p996f1a8241)" d="M 56.84 8.977057 
L 399.984 8.977057 
" style="fill:none;stroke:#b0b0b0;stroke-linecap:square;stroke-width:0.8;"/>
     </g>
     <g id="line2d_22">
      <g>
       <use style="stroke:#000000;stroke-width:0.8;" x="56.84" xlink:href="#m7def05db88" y="8.977057"/>
      </g>
     </g>
     <g id="text_12">
      <!-- 1.0 -->
      <g transform="translate(24.395 15.055807)scale(0.16 -0.16)">
       <use xlink:href="#DejaVuSans-31"/>
       <use x="63.623047" xlink:href="#DejaVuSans-2e"/>
       <use x="95.410156" xlink:href="#DejaVuSans-30"/>
      </g>
     </g>
    </g>
    <g id="text_13">
     <!-- Fraction of function,target pairs -->
     <defs>
      <path d="M 9.8125 72.90625 
L 51.703125 72.90625 
L 51.703125 64.59375 
L 19.671875 64.59375 
L 19.671875 43.109375 
L 48.578125 43.109375 
L 48.578125 34.8125 
L 19.671875 34.8125 
L 19.671875 0 
L 9.8125 0 
z
" id="DejaVuSans-46"/>
      <path d="M 41.109375 46.296875 
Q 39.59375 47.171875 37.8125 47.578125 
Q 36.03125 48 33.890625 48 
Q 26.265625 48 22.1875 43.046875 
Q 18.109375 38.09375 18.109375 28.8125 
L 18.109375 0 
L 9.078125 0 
L 9.078125 54.6875 
L 18.109375 54.6875 
L 18.109375 46.1875 
Q 20.953125 51.171875 25.484375 53.578125 
Q 30.03125 56 36.53125 56 
Q 37.453125 56 38.578125 55.875 
Q 39.703125 55.765625 41.0625 55.515625 
z
" id="DejaVuSans-72"/>
      <path d="M 48.78125 52.59375 
L 48.78125 44.1875 
Q 44.96875 46.296875 41.140625 47.34375 
Q 37.3125 48.390625 33.40625 48.390625 
Q 24.65625 48.390625 19.8125 42.84375 
Q 14.984375 37.3125 14.984375 27.296875 
Q 14.984375 17.28125 19.8125 11.734375 
Q 24.65625 6.203125 33.40625 6.203125 
Q 37.3125 6.203125 41.140625 7.25 
Q 44.96875 8.296875 48.78125 10.40625 
L 48.78125 2.09375 
Q 45.015625 0.34375 40.984375 -0.53125 
Q 36.96875 -1.421875 32.421875 -1.421875 
Q 20.0625 -1.421875 12.78125 6.34375 
Q 5.515625 14.109375 5.515625 27.296875 
Q 5.515625 40.671875 12.859375 48.328125 
Q 20.21875 56 33.015625 56 
Q 37.15625 56 41.109375 55.140625 
Q 45.0625 54.296875 48.78125 52.59375 
z
" id="DejaVuSans-63"/>
      <path d="M 18.3125 70.21875 
L 18.3125 54.6875 
L 36.8125 54.6875 
L 36.8125 47.703125 
L 18.3125 47.703125 
L 18.3125 18.015625 
Q 18.3125 11.328125 20.140625 9.421875 
Q 21.96875 7.515625 27.59375 7.515625 
L 36.8125 7.515625 
L 36.8125 0 
L 27.59375 0 
Q 17.1875 0 13.234375 3.875 
Q 9.28125 7.765625 9.28125 18.015625 
L 9.28125 47.703125 
L 2.6875 47.703125 
L 2.6875 54.6875 
L 9.28125 54.6875 
L 9.28125 70.21875 
z
" id="DejaVuSans-74"/>
      <path d="M 8.5 21.578125 
L 8.5 54.6875 
L 17.484375 54.6875 
L 17.484375 21.921875 
Q 17.484375 14.15625 20.5 10.265625 
Q 23.53125 6.390625 29.59375 6.390625 
Q 36.859375 6.390625 41.078125 11.03125 
Q 45.3125 15.671875 45.3125 23.6875 
L 45.3125 54.6875 
L 54.296875 54.6875 
L 54.296875 0 
L 45.3125 0 
L 45.3125 8.40625 
Q 42.046875 3.421875 37.71875 1 
Q 33.40625 -1.421875 27.6875 -1.421875 
Q 18.265625 -1.421875 13.375 4.4375 
Q 8.5 10.296875 8.5 21.578125 
z
M 31.109375 56 
z
" id="DejaVuSans-75"/>
      <path d="M 11.71875 12.40625 
L 22.015625 12.40625 
L 22.015625 4 
L 14.015625 -11.625 
L 7.71875 -11.625 
L 11.71875 4 
z
" id="DejaVuSans-2c"/>
      <path d="M 18.109375 8.203125 
L 18.109375 -20.796875 
L 9.078125 -20.796875 
L 9.078125 54.6875 
L 18.109375 54.6875 
L 18.109375 46.390625 
Q 20.953125 51.265625 25.265625 53.625 
Q 29.59375 56 35.59375 56 
Q 45.5625 56 51.78125 48.09375 
Q 58.015625 40.1875 58.015625 27.296875 
Q 58.015625 14.40625 51.78125 6.484375 
Q 45.5625 -1.421875 35.59375 -1.421875 
Q 29.59375 -1.421875 25.265625 0.953125 
Q 20.953125 3.328125 18.109375 8.203125 
z
M 48.6875 27.296875 
Q 48.6875 37.203125 44.609375 42.84375 
Q 40.53125 48.484375 33.40625 48.484375 
Q 26.265625 48.484375 22.1875 42.84375 
Q 18.109375 37.203125 18.109375 27.296875 
Q 18.109375 17.390625 22.1875 11.75 
Q 26.265625 6.109375 33.40625 6.109375 
Q 40.53125 6.109375 44.609375 11.75 
Q 48.6875 17.390625 48.6875 27.296875 
z
" id="DejaVuSans-70"/>
     </defs>
     <g transform="translate(16.859531 285.281989)rotate(-90)scale(0.17 -0.17)">
      <use xlink:href="#DejaVuSans-46"/>
      <use x="57.410156" xlink:href="#DejaVuSans-72"/>
      <use x="98.523438" xlink:href="#DejaVuSans-61"/>
      <use x="159.802734" xlink:href="#DejaVuSans-63"/>
      <use x="214.783203" xlink:href="#DejaVuSans-74"/>
      <use x="253.992188" xlink:href="#DejaVuSans-69"/>
      <use x="281.775391" xlink:href="#DejaVuSans-6f"/>
      <use x="342.957031" xlink:href="#DejaVuSans-6e"/>
      <use x="406.335938" xlink:href="#DejaVuSans-20"/>
      <use x="438.123047" xlink:href="#DejaVuSans-6f"/>
      <use x="499.304688" xlink:href="#DejaVuSans-66"/>
      <use x="534.509766" xlink:href="#DejaVuSans-20"/>
      <use x="566.296875" xlink:href="#DejaVuSans-66"/>
      <use x="601.501953" xlink:href="#DejaVuSans-75"/>
      <use x="664.880859" xlink:href="#DejaVuSans-6e"/>
      <use x="728.259766" xlink:href="#DejaVuSans-63"/>
      <use x="783.240234" xlink:href="#DejaVuSans-74"/>
      <use x="822.449219" xlink:href="#DejaVuSans-69"/>
      <use x="850.232422" xlink:href="#DejaVuSans-6f"/>
      <use x="911.414062" xlink:href="#DejaVuSans-6e"/>
      <use x="974.792969" xlink:href="#DejaVuSans-2c"/>
      <use x="1006.580078" xlink:href="#DejaVuSans-74"/>
      <use x="1045.789062" xlink:href="#DejaVuSans-61"/>
      <use x="1107.068359" xlink:href="#DejaVuSans-72"/>
      <use x="1148.166016" xlink:href="#DejaVuSans-67"/>
      <use x="1211.642578" xlink:href="#DejaVuSans-65"/>
      <use x="1273.166016" xlink:href="#DejaVuSans-74"/>
      <use x="1312.375" xlink:href="#DejaVuSans-20"/>
      <use x="1344.162109" xlink:href="#DejaVuSans-70"/>
      <use x="1407.638672" xlink:href="#DejaVuSans-61"/>
      <use x="1468.917969" xlink:href="#DejaVuSans-69"/>
      <use x="1496.701172" xlink:href="#DejaVuSans-72"/>
      <use x="1537.814453" xlink:href="#DejaVuSans-73"/>
     </g>
    </g>
   </g>
   <g id="line2d_23">
    <defs>
     <path d="M 0 1.5 
C 0.397805 1.5 0.77937 1.341951 1.06066 1.06066 
C 1.341951 0.77937 1.5 0.397805 1.5 0 
C 1.5 -0.397805 1.341951 -0.77937 1.06066 -1.06066 
C 0.77937 -1.341951 0.397805 -1.5 0 -1.5 
C -0.397805 -1.5 -0.77937 -1.341951 -1.06066 -1.06066 
C -1.341951 -0.77937 -1.5 -0.397805 -1.5 0 
C -1.5 0.397805 -1.341951 0.77937 -1.06066 1.06066 
C -0.77937 1.341951 -0.397805 1.5 0 1.5 
z
" id="mc26c885a02" style="stroke:#000080;"/>
    </defs>
    <g>
     <use style="fill:#000080;stroke:#000080;" x="253.020726" xlink:href="#mc26c885a02" y="104.038038"/>
     <use style="fill:#000080;stroke:#000080;" x="253.020726" xlink:href="#mc26c885a02" y="104.038038"/>
    </g>
   </g>
   <g id="line2d_24">
    <path d="M 44.939466 294.16 
L 44.939466 291.364089 
L 56.84 291.364089 
L 56.84 285.213084 
L 68.740534 285.213084 
L 68.740534 283.535537 
L 75.7019 283.535537 
L 75.7019 277.943715 
L 78.348489 277.943715 
L 78.348489 277.384533 
L 80.641068 277.384533 
L 80.641068 275.147804 
L 87.602435 275.147804 
L 87.602435 271.79271 
L 88.976675 271.79271 
L 88.976675 270.674346 
L 90.249023 270.674346 
L 90.249023 267.319252 
L 91.433551 267.319252 
L 91.433551 265.082523 
L 95.492072 265.082523 
L 95.492072 263.404977 
L 97.210389 263.404977 
L 97.210389 262.286612 
L 98.009084 262.286612 
L 98.009084 261.168248 
L 98.77227 261.168248 
L 98.77227 260.049883 
L 99.502969 260.049883 
L 99.502969 257.253972 
L 100.203835 257.253972 
L 100.203835 256.135608 
L 101.525167 256.135608 
L 101.525167 254.458061 
L 106.464335 254.458061 
L 106.464335 249.984603 
L 108.697197 249.984603 
L 108.697197 246.070327 
L 110.295451 246.070327 
L 110.295451 244.951963 
L 111.403503 244.951963 
L 111.403503 244.392781 
L 111.757512 244.392781 
L 111.757512 243.833598 
L 112.777744 243.833598 
L 112.777744 243.274416 
L 113.425701 243.274416 
L 113.425701 242.156052 
L 114.353973 242.156052 
L 114.353973 241.596869 
L 116.60886 241.596869 
L 116.60886 241.037687 
L 116.870985 241.037687 
L 116.870985 240.478505 
L 118.601685 240.478505 
L 118.601685 239.919323 
L 119.065736 239.919323 
L 119.065736 235.445865 
L 119.517573 235.445865 
L 119.517573 232.090771 
L 119.73911 232.090771 
L 119.73911 227.617313 
L 120.597731 227.617313 
L 120.597731 227.058131 
L 122.004153 227.058131 
L 122.004153 225.380584 
L 124.344892 225.380584 
L 124.344892 223.703038 
L 124.842574 223.703038 
L 124.842574 223.143855 
L 126.553103 223.143855 
L 126.553103 219.788762 
L 127.135154 219.788762 
L 127.135154 219.22958 
L 128.243205 219.22958 
L 128.243205 217.552033 
L 135.991068 217.552033 
L 135.991068 210.282664 
L 136.161058 210.282664 
L 136.161058 209.723482 
L 136.743108 209.723482 
L 136.743108 209.164299 
L 137.067058 209.164299 
L 137.1471 207.486753 
L 137.22677 207.486753 
L 137.22677 204.131659 
L 137.541803 204.131659 
L 137.541803 203.572477 
L 139.873358 203.572477 
L 139.941354 200.776566 
L 140.009081 200.776566 
L 140.009081 200.217384 
L 142.165938 200.217384 
L 142.165938 199.658201 
L 144.555118 199.658201 
L 144.606909 197.980655 
L 144.965139 197.980655 
L 144.965139 197.421472 
L 145.266355 197.421472 
L 145.266355 194.066379 
L 145.997054 194.066379 
L 145.997054 190.152103 
L 148.438025 190.152103 
L 148.438025 189.592921 
L 148.725205 189.592921 
L 148.725205 189.033739 
L 150.936222 189.033739 
L 150.936222 188.474556 
L 152.044274 188.474556 
L 152.044274 187.915374 
L 153.148133 187.915374 
L 153.148133 187.356192 
L 155.848543 187.356192 
L 155.902195 185.119463 
L 156.840332 185.119463 
L 156.840332 184.560281 
L 157.092079 184.560281 
L 157.092079 184.001099 
L 159.00564 184.001099 
L 159.00564 183.441916 
L 159.85608 183.441916 
L 159.85608 182.882734 
L 163.2607 182.882734 
L 163.2607 178.409276 
L 163.417018 178.409276 
L 163.417018 177.290912 
L 163.606161 177.290912 
L 163.606161 176.731729 
L 164.63494 176.731729 
L 164.63494 176.172547 
L 165.391122 176.172547 
L 165.391122 175.613365 
L 166.203821 175.613365 
L 166.203821 175.054183 
L 172.352488 175.054183 
L 172.352488 172.817454 
L 172.838718 172.817454 
L 172.848702 171.699089 
L 173.610152 171.699089 
L 173.610152 169.46236 
L 174.136729 169.46236 
L 174.136729 168.343996 
L 177.467984 168.343996 
L 177.467984 167.784814 
L 179.337811 167.784814 
L 179.337811 166.666449 
L 179.575564 166.666449 
L 179.575564 166.107267 
L 180.243748 166.107267 
L 180.243748 165.548085 
L 180.411628 165.548085 
L 180.411628 164.42972 
L 182.717053 164.42972 
L 182.717053 163.870538 
L 182.951406 163.870538 
L 182.951406 162.192991 
L 183.160717 162.192991 
L 183.160717 161.633809 
L 183.625206 161.633809 
L 183.720855 160.515444 
L 183.900083 160.515444 
L 183.900083 159.956262 
L 184.370775 159.956262 
L 184.447138 157.719533 
L 185.80887 157.719533 
L 185.80887 157.160351 
L 187.394399 157.160351 
L 187.394399 156.601169 
L 187.904423 156.601169 
L 187.904423 156.041987 
L 190.249355 156.041987 
L 190.249355 155.482804 
L 192.076016 155.482804 
L 192.076016 151.568529 
L 193.007887 151.568529 
L 193.103262 150.450164 
L 194.634434 150.450164 
L 194.740743 149.3318 
L 195.408109 149.3318 
L 195.408109 147.095071 
L 197.00541 147.095071 
L 197.00541 145.976706 
L 197.353831 145.976706 
L 197.353831 145.417524 
L 198.607521 145.417524 
L 198.714063 143.739977 
L 199.852651 143.739977 
L 199.852651 142.06243 
L 200.37676 142.06243 
L 200.450915 140.944066 
L 200.512799 140.944066 
L 200.512799 137.588973 
L 200.651723 137.588973 
L 200.651723 137.02979 
L 201.522681 137.02979 
L 201.522681 136.470608 
L 202.044503 136.470608 
L 202.044503 135.911426 
L 203.145719 135.911426 
L 203.145719 135.352244 
L 205.185381 135.352244 
L 205.185381 134.793061 
L 205.574081 134.793061 
L 205.671741 133.674697 
L 206.425172 133.674697 
L 206.425172 133.115515 
L 206.818849 133.115515 
L 206.818849 131.99715 
L 208.539072 131.99715 
L 208.539072 131.437968 
L 209.248376 131.437968 
L 209.248376 130.319603 
L 212.53149 130.319603 
L 212.560162 129.201239 
L 212.850103 129.201239 
L 212.850103 126.96451 
L 213.988724 126.96451 
L 213.988724 126.405328 
L 217.659843 126.405328 
L 217.659843 124.168599 
L 217.896749 124.168599 
L 217.896749 123.609417 
L 218.469144 123.609417 
L 218.469144 122.491052 
L 219.395278 122.491052 
L 219.395278 121.93187 
L 219.744643 121.93187 
L 219.744643 120.813505 
L 219.954625 120.813505 
L 219.954625 119.135959 
L 221.603478 119.135959 
L 221.603478 117.458412 
L 221.792031 117.458412 
L 221.792031 116.89923 
L 224.808333 116.89923 
L 224.808333 115.780865 
L 224.964925 115.780865 
L 224.964925 114.662501 
L 226.211182 114.662501 
L 226.211182 113.544136 
L 227.508013 113.544136 
L 227.508013 112.984954 
L 228.713732 112.984954 
L 228.713732 111.307407 
L 230.897483 111.307407 
L 231.007468 109.629861 
L 231.893325 109.629861 
L 231.893325 108.511496 
L 234.575072 108.511496 
L 234.575072 107.952314 
L 236.155267 107.952314 
L 236.155267 107.393132 
L 236.435159 107.393132 
L 236.435159 106.833949 
L 238.282371 106.833949 
L 238.282371 105.715585 
L 241.879108 105.715585 
L 241.879108 105.156403 
L 243.916601 105.156403 
L 243.916601 104.59722 
L 253.020726 104.59722 
L 253.020726 104.038038 
L 333.569032 104.038038 
L 333.569032 104.038038 
" style="fill:none;stroke:#000080;stroke-linecap:square;stroke-width:1.5;"/>
   </g>
   <g id="line2d_25">
    <defs>
     <path d="M 0 6 
C 1.591219 6 3.117479 5.367802 4.242641 4.242641 
C 5.367802 3.117479 6 1.591219 6 0 
C 6 -1.591219 5.367802 -3.117479 4.242641 -4.242641 
C 3.117479 -5.367802 1.591219 -6 0 -6 
C -1.591219 -6 -3.117479 -5.367802 -4.242641 -4.242641 
C -5.367802 -3.117479 -6 -1.591219 -6 0 
C -6 1.591219 -5.367802 3.117479 -4.242641 4.242641 
C -3.117479 5.367802 -1.591219 6 0 6 
z
" id="m4910d7c79b" style="stroke:#000080;stroke-width:1.5;"/>
    </defs>
    <g>
     <use style="fill-opacity:0;stroke:#000080;stroke-width:1.5;" x="110.295451" xlink:href="#m4910d7c79b" y="246.070327"/>
     <use style="fill-opacity:0;stroke:#000080;stroke-width:1.5;" x="145.997054" xlink:href="#m4910d7c79b" y="194.066379"/>
     <use style="fill-opacity:0;stroke:#000080;stroke-width:1.5;" x="195.408109" xlink:href="#m4910d7c79b" y="149.3318"/>
     <use style="fill-opacity:0;stroke:#000080;stroke-width:1.5;" x="253.020726" xlink:href="#m4910d7c79b" y="104.59722"/>
     <use style="fill-opacity:0;stroke:#000080;stroke-width:1.5;" x="253.020726" xlink:href="#m4910d7c79b" y="104.038038"/>
     <use style="fill-opacity:0;stroke:#000080;stroke-width:1.5;" x="333.569032" xlink:href="#m4910d7c79b" y="104.038038"/>
    </g>
   </g>
   <g id="line2d_26">
    <path style="fill:none;stroke:#000080;stroke-linecap:square;stroke-width:1.5;"/>
    <g/>
   </g>
   <g id="line2d_27">
    <path clip-path="url(#p996f1a8241)" d="M 182.513602 164.42972 
" style="fill:none;stroke:#000080;stroke-linecap:square;stroke-width:1.5;"/>
    <defs>
     <path d="M -12 12 
L 12 -12 
M -12 -12 
L 12 12 
" id="m6cd97dffea" style="stroke:#000080;stroke-width:3;"/>
    </defs>
    <g clip-path="url(#p996f1a8241)">
     <use style="fill:#000080;stroke:#000080;stroke-width:3;" x="182.513602" xlink:href="#m6cd97dffea" y="164.42972"/>
    </g>
   </g>
   <g id="line2d_28">
    <defs>
     <path d="M 0 1.5 
C 0.397805 1.5 0.77937 1.341951 1.06066 1.06066 
C 1.341951 0.77937 1.5 0.397805 1.5 0 
C 1.5 -0.397805 1.341951 -0.77937 1.06066 -1.06066 
C 0.77937 -1.341951 0.397805 -1.5 0 -1.5 
C -0.397805 -1.5 -0.77937 -1.341951 -1.06066 -1.06066 
C -1.341951 -0.77937 -1.5 -0.397805 -1.5 0 
C -1.5 0.397805 -1.341951 0.77937 -1.06066 1.06066 
C -0.77937 1.341951 -0.397805 1.5 0 1.5 
z
" id="mfbfbbd8358" style="stroke:#ff00ff;"/>
    </defs>
    <g>
     <use style="fill:#ff00ff;stroke:#ff00ff;" x="244.889372" xlink:href="#mfbfbbd8358" y="109.629861"/>
     <use style="fill:#ff00ff;stroke:#ff00ff;" x="244.889372" xlink:href="#mfbfbbd8358" y="109.629861"/>
    </g>
   </g>
   <g id="line2d_29">
    <path d="M 44.939466 294.16 
L 44.939466 293.041636 
L 56.84 293.041636 
L 56.84 290.804907 
L 63.801366 290.804907 
L 63.801366 284.653902 
L 72.57165 284.653902 
L 72.57165 280.739626 
L 82.663267 280.739626 
L 82.663267 279.621262 
L 84.472185 279.621262 
L 84.472185 276.266168 
L 88.976675 276.266168 
L 88.976675 271.233528 
L 91.433551 271.233528 
L 91.433551 268.996799 
L 92.541603 268.996799 
L 92.541603 267.878435 
L 93.582457 267.878435 
L 93.582457 266.200888 
L 94.563801 266.200888 
L 94.563801 260.609066 
L 98.009084 260.609066 
L 98.009084 257.813154 
L 98.77227 257.813154 
L 98.77227 256.69479 
L 99.502969 256.69479 
L 99.502969 255.576425 
L 100.877209 255.576425 
L 100.877209 253.898879 
L 102.149557 253.898879 
L 102.149557 249.984603 
L 103.334085 249.984603 
L 103.334085 249.425421 
L 103.897048 249.425421 
L 103.897048 248.307056 
L 105.980674 248.307056 
L 105.980674 247.747874 
L 109.909618 247.747874 
L 109.909618 246.070327 
L 114.050092 246.070327 
L 114.050092 244.951963 
L 116.07229 244.951963 
L 116.07229 243.833598 
L 117.383526 243.833598 
L 117.383526 242.156052 
L 117.881208 242.156052 
L 117.881208 241.596869 
L 118.364869 241.596869 
L 118.364869 238.241776 
L 118.835278 238.241776 
L 118.835278 237.123411 
L 119.517573 237.123411 
L 119.517573 236.564229 
L 119.73911 236.564229 
L 119.73911 234.886682 
L 120.173787 234.886682 
L 120.173787 234.3275 
L 120.387068 234.3275 
L 120.387068 233.209136 
L 123.304037 233.209136 
L 123.304037 231.531589 
L 123.832351 231.531589 
L 123.832351 230.413225 
L 125.005313 230.413225 
L 125.005313 225.380584 
L 128.108547 225.380584 
L 128.108547 224.26222 
L 131.418108 224.26222 
L 131.418108 222.584673 
L 131.749349 222.584673 
L 131.858358 219.788762 
L 133.115176 219.788762 
L 133.115176 218.670397 
L 136.076273 218.670397 
L 136.076273 218.111215 
L 136.329381 218.111215 
L 136.329381 217.552033 
L 137.1471 217.552033 
L 137.1471 216.433669 
L 137.306072 216.433669 
L 137.306072 215.874486 
L 139.459631 215.874486 
L 139.529282 211.401028 
L 142.578245 211.401028 
L 142.578245 210.282664 
L 144.555118 210.282664 
L 144.555118 209.164299 
L 148.438025 209.164299 
L 148.438025 208.605117 
L 154.594786 208.605117 
L 154.594786 207.486753 
L 155.821653 207.486753 
L 155.928959 205.250024 
L 156.890978 205.250024 
L 156.890978 204.690841 
L 158.460551 204.690841 
L 158.460551 204.131659 
L 159.072575 204.131659 
L 159.072575 203.013295 
L 159.271829 203.013295 
L 159.271829 202.454112 
L 159.877342 202.454112 
L 159.877342 201.89493 
L 163.606161 201.89493 
L 163.606161 201.335748 
L 164.061774 201.335748 
L 164.061774 200.217384 
L 165.344824 200.217384 
L 165.36027 198.539837 
L 166.041362 198.539837 
L 166.041362 197.980655 
L 167.922838 197.980655 
L 167.922838 196.86229 
L 172.321636 196.86229 
L 172.352488 194.625561 
L 172.808728 194.625561 
L 172.908489 192.388832 
L 172.968069 192.388832 
L 172.968069 191.270468 
L 175.308905 191.270468 
L 175.308905 190.152103 
L 175.987269 190.152103 
L 175.987269 189.592921 
L 176.406142 189.592921 
L 176.406142 189.033739 
L 178.654037 189.033739 
L 178.654037 188.474556 
L 179.296721 188.474556 
L 179.296721 182.882734 
L 179.548558 182.882734 
L 179.562066 181.205187 
L 179.830021 181.205187 
L 179.830021 180.646005 
L 180.936826 180.646005 
L 181.00524 177.850094 
L 181.208862 177.850094 
L 181.251746 176.172547 
L 183.625206 176.172547 
L 183.625206 175.613365 
L 183.863336 175.613365 
L 183.863336 174.495 
L 184.538327 174.495 
L 184.593816 173.376636 
L 185.197509 173.376636 
L 185.197509 172.817454 
L 185.342762 172.817454 
L 185.342762 172.258271 
L 186.890802 172.258271 
L 186.890802 171.699089 
L 187.441396 171.699089 
L 187.441396 171.139907 
L 188.082083 171.139907 
L 188.082083 170.580725 
L 190.063587 170.580725 
L 190.063587 169.46236 
L 190.274697 169.46236 
L 190.296388 168.343996 
L 190.689285 168.343996 
L 190.689285 167.784814 
L 191.186967 167.784814 
L 191.186967 167.225631 
L 191.41866 167.225631 
L 191.459224 166.107267 
L 191.630561 166.107267 
L 191.630561 164.988902 
L 192.880928 164.988902 
L 192.899566 162.752173 
L 193.676515 162.752173 
L 193.774158 161.074627 
L 196.024641 161.074627 
L 196.024641 159.956262 
L 196.499386 159.956262 
L 196.499386 159.39708 
L 197.313064 159.39708 
L 197.423152 157.719533 
L 197.739877 157.719533 
L 197.739877 157.160351 
L 198.60084 157.160351 
L 198.707424 156.041987 
L 198.729546 156.041987 
L 198.742805 154.923622 
L 199.560267 154.923622 
L 199.640122 153.805258 
L 200.368724 153.805258 
L 200.380777 151.568529 
L 201.837305 151.568529 
L 201.837305 151.009346 
L 202.465779 151.009346 
L 202.465779 150.450164 
L 203.43892 150.450164 
L 203.43892 149.3318 
L 204.276831 149.3318 
L 204.276831 148.772617 
L 204.425025 148.772617 
L 204.425025 148.213435 
L 204.7768 148.213435 
L 204.7768 147.654253 
L 204.979234 147.654253 
L 204.979234 146.535888 
L 205.565175 146.535888 
L 205.565175 142.621613 
L 208.615065 142.621613 
L 208.615065 142.06243 
L 209.079829 142.06243 
L 209.079829 141.503248 
L 209.548831 141.503248 
L 209.548831 139.266519 
L 211.365753 139.266519 
L 211.365753 138.707337 
L 211.944696 138.707337 
L 211.944696 138.148155 
L 212.392398 138.148155 
L 212.397385 137.02979 
L 212.780026 137.02979 
L 212.780026 136.470608 
L 213.033667 136.470608 
L 213.033667 134.233879 
L 213.829828 134.233879 
L 213.829828 133.674697 
L 215.172282 133.674697 
L 215.172282 133.115515 
L 215.498357 133.115515 
L 215.498357 131.437968 
L 217.560467 131.437968 
L 217.560467 130.319603 
L 217.969711 130.319603 
L 218.033749 128.642057 
L 218.632214 128.642057 
L 218.632214 128.082874 
L 219.908327 128.082874 
L 219.908327 127.523692 
L 220.069188 127.523692 
L 220.069188 126.96451 
L 221.750437 126.96451 
L 221.750437 125.286963 
L 221.90131 125.286963 
L 221.90131 124.727781 
L 223.209004 124.727781 
L 223.209004 124.168599 
L 223.413913 124.168599 
L 223.413913 123.050234 
L 223.550909 123.050234 
L 223.550909 121.93187 
L 224.930357 121.93187 
L 224.930357 120.254323 
L 226.439373 120.254323 
L 226.439373 119.135959 
L 227.612336 119.135959 
L 227.612336 118.017594 
L 229.93141 118.017594 
L 229.93141 116.89923 
L 230.983162 116.89923 
L 230.983162 115.780865 
L 231.974187 115.780865 
L 231.974187 114.662501 
L 232.911116 114.662501 
L 232.911116 114.103318 
L 236.218387 114.103318 
L 236.218387 113.544136 
L 237.660229 113.544136 
L 237.660229 112.984954 
L 238.338147 112.984954 
L 238.338147 112.425772 
L 238.990311 112.425772 
L 238.990311 111.866589 
L 240.224717 111.866589 
L 240.224717 111.307407 
L 242.455462 111.307407 
L 242.455462 110.748225 
L 244.889372 110.748225 
L 244.889372 109.629861 
L 333.569032 109.629861 
L 333.569032 109.629861 
" style="fill:none;stroke:#ff00ff;stroke-linecap:square;stroke-width:1.5;"/>
   </g>
   <g id="line2d_30">
    <defs>
     <path d="M -0 8.485281 
L 5.091169 0 
L 0 -8.485281 
L -5.091169 -0 
z
" id="mf3b732fda9" style="stroke:#ff00ff;stroke-linejoin:miter;stroke-width:1.5;"/>
    </defs>
    <g>
     <use style="fill-opacity:0;stroke:#ff00ff;stroke-linejoin:miter;stroke-width:1.5;" x="137.306072" xlink:href="#mf3b732fda9" y="215.874486"/>
     <use style="fill-opacity:0;stroke:#ff00ff;stroke-linejoin:miter;stroke-width:1.5;" x="179.296721" xlink:href="#mf3b732fda9" y="188.474556"/>
     <use style="fill-opacity:0;stroke:#ff00ff;stroke-linejoin:miter;stroke-width:1.5;" x="238.990311" xlink:href="#mf3b732fda9" y="111.866589"/>
     <use style="fill-opacity:0;stroke:#ff00ff;stroke-linejoin:miter;stroke-width:1.5;" x="244.889372" xlink:href="#mf3b732fda9" y="109.629861"/>
     <use style="fill-opacity:0;stroke:#ff00ff;stroke-linejoin:miter;stroke-width:1.5;" x="244.889372" xlink:href="#mf3b732fda9" y="109.629861"/>
     <use style="fill-opacity:0;stroke:#ff00ff;stroke-linejoin:miter;stroke-width:1.5;" x="333.569032" xlink:href="#mf3b732fda9" y="109.629861"/>
    </g>
   </g>
   <g id="line2d_31">
    <path style="fill:none;stroke:#ff00ff;stroke-linecap:square;stroke-width:1.5;"/>
    <g/>
   </g>
   <g id="line2d_32">
    <path clip-path="url(#p996f1a8241)" d="M 182.513602 176.172547 
" style="fill:none;stroke:#ff00ff;stroke-linecap:square;stroke-width:1.5;"/>
    <defs>
     <path d="M -12 12 
L 12 -12 
M -12 -12 
L 12 12 
" id="m749d427d33" style="stroke:#ff00ff;stroke-width:3;"/>
    </defs>
    <g clip-path="url(#p996f1a8241)">
     <use style="fill:#ff00ff;stroke:#ff00ff;stroke-width:3;" x="182.513602" xlink:href="#m749d427d33" y="176.172547"/>
    </g>
   </g>
   <g id="line2d_33">
    <defs>
     <path d="M 0 1.5 
C 0.397805 1.5 0.77937 1.341951 1.06066 1.06066 
C 1.341951 0.77937 1.5 0.397805 1.5 0 
C 1.5 -0.397805 1.341951 -0.77937 1.06066 -1.06066 
C 0.77937 -1.341951 0.397805 -1.5 0 -1.5 
C -0.397805 -1.5 -0.77937 -1.341951 -1.06066 -1.06066 
C -1.341951 -0.77937 -1.5 -0.397805 -1.5 0 
C -1.5 0.397805 -1.341951 0.77937 -1.06066 1.06066 
C -0.77937 1.341951 -0.397805 1.5 0 1.5 
z
" id="m4ec93ec595" style="stroke:#ffa500;"/>
    </defs>
    <g>
     <use style="fill:#ffa500;stroke:#ffa500;" x="259.356099" xlink:href="#m4ec93ec595" y="104.038038"/>
     <use style="fill:#ffa500;stroke:#ffa500;" x="259.356099" xlink:href="#m4ec93ec595" y="104.038038"/>
    </g>
   </g>
   <g id="line2d_34">
    <path d="M 44.939466 294.16 
L 44.939466 286.890631 
L 56.84 286.890631 
L 56.84 285.213084 
L 63.801366 285.213084 
L 63.801366 282.417173 
L 68.740534 282.417173 
L 68.740534 281.298808 
L 78.348489 281.298808 
L 78.348489 278.502897 
L 82.663267 278.502897 
L 82.663267 273.470257 
L 84.472185 273.470257 
L 84.472185 272.351893 
L 86.10855 272.351893 
L 86.10855 267.319252 
L 87.602435 267.319252 
L 87.602435 261.72743 
L 92.541603 261.72743 
L 92.541603 259.490701 
L 95.492072 259.490701 
L 95.492072 255.017243 
L 96.372719 255.017243 
L 96.372719 254.458061 
L 97.210389 254.458061 
L 97.210389 253.898879 
L 98.009084 253.898879 
L 98.009084 252.221332 
L 100.203835 252.221332 
L 100.203835 251.66215 
L 101.525167 251.66215 
L 101.525167 249.984603 
L 103.334085 249.984603 
L 103.334085 248.866238 
L 104.970451 248.866238 
L 104.970451 247.747874 
L 111.403503 247.747874 
L 111.403503 247.188692 
L 113.104779 247.188692 
L 113.104779 243.833598 
L 116.07229 243.833598 
L 116.07229 242.156052 
L 117.881208 242.156052 
L 117.881208 238.800958 
L 118.124742 238.800958 
L 118.124742 238.241776 
L 118.364869 238.241776 
L 118.364869 237.682594 
L 118.601685 237.682594 
L 118.601685 237.123411 
L 122.573338 237.123411 
L 122.573338 235.445865 
L 123.124257 235.445865 
L 123.124257 234.3275 
L 131.306258 234.3275 
L 131.306258 233.209136 
L 136.161058 233.209136 
L 136.161058 231.531589 
L 136.578812 231.531589 
L 136.578812 230.972407 
L 139.529282 230.972407 
L 139.529282 229.29486 
L 141.743484 229.29486 
L 141.743484 228.735678 
L 142.10622 228.735678 
L 142.10622 228.176496 
L 145.116408 228.176496 
L 145.116408 227.617313 
L 145.464269 227.617313 
L 145.464269 227.058131 
L 148.27174 227.058131 
L 148.27174 226.498949 
L 148.479346 226.498949 
L 148.479346 225.939767 
L 150.280008 225.939767 
L 150.280008 225.380584 
L 150.428016 225.380584 
L 150.428016 224.26222 
L 151.078703 224.26222 
L 151.078703 223.143855 
L 152.177884 223.143855 
L 152.177884 222.025491 
L 152.990185 222.025491 
L 153.053539 216.992851 
L 153.11666 216.992851 
L 153.11666 216.433669 
L 153.335773 216.433669 
L 153.335773 215.874486 
L 153.459736 215.874486 
L 153.459736 215.315304 
L 154.594786 215.315304 
L 154.594786 214.756122 
L 154.710013 214.756122 
L 154.710013 213.637757 
L 154.909819 213.637757 
L 154.909819 213.078575 
L 155.848543 213.078575 
L 155.928959 211.401028 
L 156.687493 211.401028 
L 156.73859 210.282664 
L 156.840332 210.282664 
L 156.916244 206.92757 
L 158.228223 206.92757 
L 158.228223 204.690841 
L 159.727954 204.690841 
L 159.834792 201.89493 
L 159.962126 201.89493 
L 159.962126 201.335748 
L 160.988049 201.335748 
L 161.067535 198.539837 
L 162.32855 198.539837 
L 162.438725 195.184743 
L 164.554222 195.184743 
L 164.570396 192.948014 
L 164.715281 192.948014 
L 164.715281 192.388832 
L 165.344824 192.388832 
L 165.421918 189.033739 
L 165.513976 189.033739 
L 165.513976 187.915374 
L 165.726878 187.915374 
L 165.726878 187.356192 
L 166.567428 187.356192 
L 166.624897 181.205187 
L 166.796158 181.205187 
L 166.796158 176.731729 
L 167.31371 176.731729 
L 167.31371 175.054183 
L 170.98424 175.054183 
L 170.995363 172.817454 
L 172.249433 172.817454 
L 172.280415 169.46236 
L 173.552763 169.46236 
L 173.552763 168.903178 
L 174.182969 168.903178 
L 174.256695 167.225631 
L 174.826479 167.225631 
L 174.897498 165.548085 
L 175.265604 165.548085 
L 175.326195 161.633809 
L 176.020493 161.633809 
L 176.020493 161.074627 
L 177.337829 161.074627 
L 177.337829 159.39708 
L 177.72537 159.39708 
L 177.72537 158.837898 
L 178.682486 158.837898 
L 178.682486 158.278715 
L 179.575564 158.278715 
L 179.575564 156.601169 
L 179.836666 156.601169 
L 179.836666 153.805258 
L 180.087311 153.805258 
L 180.087311 152.686893 
L 180.405201 152.686893 
L 180.418052 151.009346 
L 180.704684 151.009346 
L 180.704684 148.213435 
L 185.347583 148.213435 
L 185.347583 147.654253 
L 186.000182 147.654253 
L 186.000182 147.095071 
L 186.248943 147.095071 
L 186.248943 146.535888 
L 187.891959 146.535888 
L 187.995549 144.858342 
L 188.245714 144.858342 
L 188.294501 142.621613 
L 190.037932 142.621613 
L 190.037932 142.06243 
L 190.749211 142.06243 
L 190.749211 141.503248 
L 190.997255 141.503248 
L 190.997255 140.944066 
L 191.186967 140.944066 
L 191.186967 140.384884 
L 191.670629 140.384884 
L 191.670629 139.266519 
L 192.020554 139.266519 
L 192.020554 138.707337 
L 193.007887 138.707337 
L 193.007887 138.148155 
L 193.127789 138.148155 
L 193.127789 134.793061 
L 193.53349 134.793061 
L 193.53349 133.115515 
L 199.292794 133.115515 
L 199.292794 131.99715 
L 199.471571 131.99715 
L 199.471571 131.437968 
L 200.528733 131.437968 
L 200.528733 129.201239 
L 203.506006 129.201239 
L 203.506006 128.082874 
L 204.7768 128.082874 
L 204.7768 127.523692 
L 204.997659 127.523692 
L 204.997659 126.96451 
L 205.683541 126.96451 
L 205.683541 125.846145 
L 205.879993 125.846145 
L 205.879993 124.168599 
L 209.642753 124.168599 
L 209.642753 123.609417 
L 211.455534 123.609417 
L 211.455534 123.050234 
L 212.857872 123.050234 
L 212.857872 121.372688 
L 215.056506 121.372688 
L 215.056506 120.813505 
L 215.564826 120.813505 
L 215.564826 118.576776 
L 217.463483 118.576776 
L 217.463483 118.017594 
L 217.90254 118.017594 
L 217.90254 115.780865 
L 219.959761 115.780865 
L 219.959761 114.662501 
L 221.796646 114.662501 
L 221.873768 111.866589 
L 223.525892 111.866589 
L 223.525892 111.307407 
L 224.968762 111.307407 
L 225.032898 109.629861 
L 227.645192 109.629861 
L 227.645192 109.070678 
L 231.999677 109.070678 
L 231.999677 108.511496 
L 233.822472 108.511496 
L 233.822472 107.952314 
L 234.666086 107.952314 
L 234.666086 107.393132 
L 236.238297 107.393132 
L 236.238297 106.833949 
L 239.63494 106.833949 
L 239.63494 106.274767 
L 240.825399 106.274767 
L 240.825399 105.715585 
L 241.39104 105.715585 
L 241.39104 105.156403 
L 247.031311 105.156403 
L 247.031311 104.59722 
L 259.356099 104.59722 
L 259.356099 104.038038 
L 333.569032 104.038038 
L 333.569032 104.038038 
" style="fill:none;stroke:#ffa500;stroke-linecap:square;stroke-width:1.5;"/>
   </g>
   <g id="line2d_35">
    <defs>
     <path d="M 0 -6 
L -1.347084 -1.854102 
L -5.706339 -1.854102 
L -2.179628 0.708204 
L -3.526712 4.854102 
L -0 2.291796 
L 3.526712 4.854102 
L 2.179628 0.708204 
L 5.706339 -1.854102 
L 1.347084 -1.854102 
z
" id="mbbb218beed" style="stroke:#ffa500;stroke-linejoin:bevel;stroke-width:1.5;"/>
    </defs>
    <g>
     <use style="fill-opacity:0;stroke:#ffa500;stroke-linejoin:bevel;stroke-width:1.5;" x="87.602435" xlink:href="#mbbb218beed" y="267.319252"/>
     <use style="fill-opacity:0;stroke:#ffa500;stroke-linejoin:bevel;stroke-width:1.5;" x="131.306258" xlink:href="#mbbb218beed" y="233.209136"/>
     <use style="fill-opacity:0;stroke:#ffa500;stroke-linejoin:bevel;stroke-width:1.5;" x="190.749211" xlink:href="#mbbb218beed" y="141.503248"/>
     <use style="fill-opacity:0;stroke:#ffa500;stroke-linejoin:bevel;stroke-width:1.5;" x="247.031311" xlink:href="#mbbb218beed" y="104.59722"/>
     <use style="fill-opacity:0;stroke:#ffa500;stroke-linejoin:bevel;stroke-width:1.5;" x="259.356099" xlink:href="#mbbb218beed" y="104.038038"/>
     <use style="fill-opacity:0;stroke:#ffa500;stroke-linejoin:bevel;stroke-width:1.5;" x="333.569032" xlink:href="#mbbb218beed" y="104.038038"/>
    </g>
   </g>
   <g id="line2d_36">
    <path style="fill:none;stroke:#ffa500;stroke-linecap:square;stroke-width:1.5;"/>
    <g/>
   </g>
   <g id="line2d_37">
    <path clip-path="url(#p996f1a8241)" d="M 182.513602 148.213435 
" style="fill:none;stroke:#ffa500;stroke-linecap:square;stroke-width:1.5;"/>
    <defs>
     <path d="M -12 12 
L 12 -12 
M -12 -12 
L 12 12 
" id="m80e31bb63f" style="stroke:#ffa500;stroke-width:3;"/>
    </defs>
    <g clip-path="url(#p996f1a8241)">
     <use style="fill:#ffa500;stroke:#ffa500;stroke-width:3;" x="182.513602" xlink:href="#m80e31bb63f" y="148.213435"/>
    </g>
   </g>
   <g id="line2d_38">
    <defs>
     <path d="M 0 1.5 
C 0.397805 1.5 0.77937 1.341951 1.06066 1.06066 
C 1.341951 0.77937 1.5 0.397805 1.5 0 
C 1.5 -0.397805 1.341951 -0.77937 1.06066 -1.06066 
C 0.77937 -1.341951 0.397805 -1.5 0 -1.5 
C -0.397805 -1.5 -0.77937 -1.341951 -1.06066 -1.06066 
C -1.341951 -0.77937 -1.5 -0.397805 -1.5 0 
C -1.5 0.397805 -1.341951 0.77937 -1.06066 1.06066 
C -0.77937 1.341951 -0.397805 1.5 0 1.5 
z
" id="m5db6dac0ea" style="stroke:#6495ed;"/>
    </defs>
    <g>
     <use style="fill:#6495ed;stroke:#6495ed;" x="237.828834" xlink:href="#m5db6dac0ea" y="8.977057"/>
     <use style="fill:#6495ed;stroke:#6495ed;" x="237.828834" xlink:href="#m5db6dac0ea" y="8.977057"/>
    </g>
   </g>
   <g id="line2d_39">
    <path d="M 44.939466 294.16 
L 44.939466 286.331449 
L 56.84 286.331449 
L 56.84 281.857991 
L 63.801366 281.857991 
L 63.801366 279.062079 
L 68.740534 279.062079 
L 68.740534 276.825351 
L 72.57165 276.825351 
L 72.57165 275.706986 
L 75.7019 275.706986 
L 75.7019 274.029439 
L 78.348489 274.029439 
L 78.348489 273.470257 
L 80.641068 273.470257 
L 80.641068 271.79271 
L 82.663267 271.79271 
L 82.663267 270.674346 
L 84.472185 270.674346 
L 84.472185 262.845795 
L 86.10855 262.845795 
L 86.10855 262.286612 
L 90.249023 262.286612 
L 90.249023 260.609066 
L 91.433551 260.609066 
L 91.433551 260.049883 
L 92.541603 260.049883 
L 92.541603 258.931519 
L 93.582457 258.931519 
L 93.582457 258.372337 
L 95.492072 258.372337 
L 95.492072 257.253972 
L 97.210389 257.253972 
L 97.210389 254.458061 
L 98.009084 254.458061 
L 98.009084 253.339696 
L 98.77227 253.339696 
L 98.77227 252.780514 
L 99.502969 252.780514 
L 99.502969 252.221332 
L 100.877209 252.221332 
L 100.877209 251.66215 
L 101.525167 251.66215 
L 101.525167 250.543785 
L 105.482991 250.543785 
L 105.482991 246.070327 
L 105.980674 246.070327 
L 105.980674 245.511145 
L 106.464335 245.511145 
L 106.464335 244.392781 
L 108.273253 244.392781 
L 108.273253 241.037687 
L 109.110924 241.037687 
L 109.110924 238.241776 
L 111.04204 238.241776 
L 111.04204 232.090771 
L 112.444358 232.090771 
L 112.444358 231.531589 
L 112.777744 231.531589 
L 112.777744 230.972407 
L 116.342671 230.972407 
L 116.342671 230.413225 
L 117.881208 230.413225 
L 117.881208 229.29486 
L 118.601685 229.29486 
L 118.601685 227.058131 
L 123.124257 227.058131 
L 123.124257 226.498949 
L 123.658047 226.498949 
L 123.658047 224.821402 
L 125.950626 224.821402 
L 125.950626 224.26222 
L 126.553103 224.26222 
L 126.553103 223.703038 
L 126.700476 223.703038 
L 126.700476 223.143855 
L 127.135154 223.143855 
L 127.135154 222.584673 
L 127.698117 222.584673 
L 127.698117 220.907126 
L 127.83602 220.907126 
L 127.83602 220.347944 
L 128.509394 220.347944 
L 128.509394 215.315304 
L 131.193675 215.315304 
L 131.193675 214.756122 
L 135.991068 214.756122 
L 135.991068 213.637757 
L 136.49607 213.637757 
L 136.49607 212.519393 
L 136.661157 212.519393 
L 136.661157 210.282664 
L 136.824671 210.282664 
L 136.824671 209.164299 
L 136.986642 209.164299 
L 136.986642 208.605117 
L 137.85116 208.605117 
L 137.85116 198.539837 
L 139.873358 198.539837 
L 139.873358 197.421472 
L 144.606909 197.421472 
L 144.658545 196.303108 
L 145.997054 196.303108 
L 145.997054 195.743926 
L 147.327215 195.743926 
L 147.327215 195.184743 
L 148.355084 195.184743 
L 148.355084 194.625561 
L 148.684472 194.625561 
L 148.684472 194.066379 
L 153.366847 194.066379 
L 153.428829 184.001099 
L 154.507855 184.001099 
L 154.565857 181.76437 
L 154.623665 181.76437 
L 154.623665 175.054183 
L 154.938174 175.054183 
L 154.938174 173.376636 
L 156.141579 173.376636 
L 156.141579 164.988902 
L 158.204816 164.988902 
L 158.204816 163.870538 
L 158.367997 163.870538 
L 158.367997 163.311356 
L 159.205667 163.311356 
L 159.249803 162.192991 
L 160.908194 162.192991 
L 160.908194 161.633809 
L 161.027838 161.633809 
L 161.027838 159.956262 
L 161.766815 159.956262 
L 161.766815 159.39708 
L 162.438725 159.39708 
L 162.438725 158.278715 
L 163.417018 158.278715 
L 163.50325 148.213435 
L 163.623253 148.213435 
L 163.623253 147.095071 
L 165.711758 147.095071 
L 165.711758 137.02979 
L 167.856215 137.02979 
L 167.856215 130.319603 
L 171.006479 130.319603 
L 171.006479 129.201239 
L 172.987883 129.201239 
L 172.987883 128.082874 
L 175.887207 128.082874 
L 175.887207 127.523692 
L 176.316657 127.523692 
L 176.316657 126.96451 
L 176.454756 126.96451 
L 176.454756 118.017594 
L 177.521291 118.017594 
L 177.521291 117.458412 
L 178.710887 117.458412 
L 178.710887 115.780865 
L 179.351486 115.780865 
L 179.351486 114.662501 
L 179.830021 114.662501 
L 179.830021 113.544136 
L 180.961736 113.544136 
L 180.961736 111.866589 
L 183.061888 111.866589 
L 183.061888 111.307407 
L 183.20992 111.307407 
L 183.237194 107.952314 
L 183.378323 107.952314 
L 183.378323 107.393132 
L 183.662466 107.393132 
L 183.742038 101.242127 
L 184.309439 101.242127 
L 184.309439 100.682945 
L 184.714264 100.682945 
L 184.754227 99.005398 
L 185.080415 99.005398 
L 185.080415 98.446216 
L 185.400521 98.446216 
L 185.400521 95.650304 
L 185.586907 95.650304 
L 185.653324 88.940118 
L 185.860407 88.940118 
L 185.860407 85.025842 
L 186.189384 85.025842 
L 186.276362 82.789113 
L 186.444485 82.789113 
L 186.444485 81.670748 
L 187.415777 81.670748 
L 187.415777 76.638108 
L 187.991417 76.638108 
L 187.991417 74.401379 
L 188.604293 74.401379 
L 188.604293 73.283015 
L 190.303613 73.283015 
L 190.303613 72.16465 
L 191.41866 72.16465 
L 191.41866 71.605468 
L 191.650607 71.605468 
L 191.650607 64.336099 
L 192.893356 64.336099 
L 192.893356 63.217735 
L 193.655731 63.217735 
L 193.655731 62.658552 
L 194.779744 62.658552 
L 194.779744 59.303459 
L 195.00367 59.303459 
L 195.039339 54.830001 
L 195.115912 54.830001 
L 195.115912 53.152454 
L 195.570974 53.152454 
L 195.570974 52.593272 
L 195.918203 52.593272 
L 196.027229 48.678996 
L 196.055669 48.678996 
L 196.055669 48.119814 
L 196.168961 48.119814 
L 196.168961 46.442267 
L 196.350211 46.442267 
L 196.418639 45.323903 
L 196.496868 45.323903 
L 196.496868 44.764721 
L 197.039596 44.764721 
L 197.039596 41.968809 
L 197.728163 41.968809 
L 197.728163 40.291263 
L 198.747223 40.291263 
L 198.747223 39.172898 
L 199.583421 39.172898 
L 199.583421 38.613716 
L 201.620104 38.613716 
L 201.620104 36.936169 
L 201.794823 36.936169 
L 201.794823 36.376987 
L 202.392709 36.376987 
L 202.467557 35.258622 
L 203.169633 35.258622 
L 203.181578 34.140258 
L 203.401911 34.140258 
L 203.401911 33.581076 
L 204.382132 33.581076 
L 204.382132 31.903529 
L 205.196003 31.903529 
L 205.196003 31.344347 
L 206.630117 31.344347 
L 206.630117 30.225982 
L 207.140154 30.225982 
L 207.140154 29.6668 
L 207.677537 29.6668 
L 207.677537 28.548436 
L 208.617551 28.548436 
L 208.617551 27.989253 
L 209.482779 27.989253 
L 209.482779 27.430071 
L 210.398606 27.430071 
L 210.398606 26.311707 
L 210.975876 26.311707 
L 210.975876 25.752524 
L 211.54904 25.752524 
L 211.54904 24.63416 
L 212.012141 24.63416 
L 212.012141 24.074978 
L 212.538415 24.074978 
L 212.538415 23.515795 
L 212.783927 23.515795 
L 212.783927 22.956613 
L 215.292338 22.956613 
L 215.292338 22.397431 
L 216.027881 22.397431 
L 216.10359 20.719884 
L 218.373653 20.719884 
L 218.373653 19.60152 
L 219.405227 19.60152 
L 219.405227 17.923973 
L 220.378318 17.923973 
L 220.378318 17.364791 
L 220.856513 17.364791 
L 220.856513 16.805609 
L 221.299201 16.805609 
L 221.299201 16.246426 
L 222.173196 16.246426 
L 222.173196 15.128062 
L 223.004846 15.128062 
L 223.004846 14.009697 
L 223.798066 14.009697 
L 223.798066 13.450515 
L 225.282365 13.450515 
L 225.282365 12.891333 
L 227.292841 12.891333 
L 227.292841 12.332151 
L 227.61398 12.332151 
L 227.61398 11.772968 
L 227.91388 11.772968 
L 227.91388 11.213786 
L 229.652613 11.213786 
L 229.652613 10.654604 
L 234.845059 10.654604 
L 234.845059 10.095422 
L 237.483013 10.095422 
L 237.483013 9.536239 
L 237.828834 9.536239 
L 237.828834 8.977057 
L 333.569032 8.977057 
L 333.569032 8.977057 
" style="fill:none;stroke:#6495ed;stroke-linecap:square;stroke-width:1.5;"/>
   </g>
   <g id="line2d_40">
    <defs>
     <path d="M -0 6 
L 6 -6 
L -6 -6 
z
" id="mccd4eda7a0" style="stroke:#6495ed;stroke-linejoin:miter;stroke-width:1.5;"/>
    </defs>
    <g>
     <use style="fill-opacity:0;stroke:#6495ed;stroke-linejoin:miter;stroke-width:1.5;" x="131.193675" xlink:href="#mccd4eda7a0" y="215.315304"/>
     <use style="fill-opacity:0;stroke:#6495ed;stroke-linejoin:miter;stroke-width:1.5;" x="167.856215" xlink:href="#mccd4eda7a0" y="137.02979"/>
     <use style="fill-opacity:0;stroke:#6495ed;stroke-linejoin:miter;stroke-width:1.5;" x="216.10359" xlink:href="#mccd4eda7a0" y="20.719884"/>
     <use style="fill-opacity:0;stroke:#6495ed;stroke-linejoin:miter;stroke-width:1.5;" x="237.828834" xlink:href="#mccd4eda7a0" y="8.977057"/>
     <use style="fill-opacity:0;stroke:#6495ed;stroke-linejoin:miter;stroke-width:1.5;" x="237.828834" xlink:href="#mccd4eda7a0" y="8.977057"/>
     <use style="fill-opacity:0;stroke:#6495ed;stroke-linejoin:miter;stroke-width:1.5;" x="333.569032" xlink:href="#mccd4eda7a0" y="8.977057"/>
    </g>
   </g>
   <g id="line2d_41">
    <path style="fill:none;stroke:#6495ed;stroke-linecap:square;stroke-width:1.5;"/>
    <g/>
   </g>
   <g id="line2d_42">
    <path clip-path="url(#p996f1a8241)" d="M 182.513602 111.866589 
" style="fill:none;stroke:#6495ed;stroke-linecap:square;stroke-width:1.5;"/>
    <defs>
     <path d="M -12 12 
L 12 -12 
M -12 -12 
L 12 12 
" id="m8460c79380" style="stroke:#6495ed;stroke-width:3;"/>
    </defs>
    <g clip-path="url(#p996f1a8241)">
     <use style="fill:#6495ed;stroke:#6495ed;stroke-width:3;" x="182.513602" xlink:href="#m8460c79380" y="111.866589"/>
    </g>
   </g>
   <g id="line2d_43">
    <path d="M 333.569032 109.629861 
L 364.009226 288.456341 
" style="fill:none;stroke:#ff00ff;stroke-linecap:square;stroke-width:1.5;"/>
    <g>
     <use style="fill-opacity:0;stroke:#ff00ff;stroke-linejoin:miter;stroke-width:1.5;" x="333.569032" xlink:href="#mf3b732fda9" y="109.629861"/>
     <use style="fill-opacity:0;stroke:#ff00ff;stroke-linejoin:miter;stroke-width:1.5;" x="364.009226" xlink:href="#mf3b732fda9" y="288.456341"/>
    </g>
   </g>
   <g id="line2d_44">
    <path d="M 333.569032 104.038038 
L 364.009226 197.197799 
" style="fill:none;stroke:#ffa500;stroke-linecap:square;stroke-width:1.5;"/>
    <g>
     <use style="fill-opacity:0;stroke:#ffa500;stroke-linejoin:bevel;stroke-width:1.5;" x="333.569032" xlink:href="#mbbb218beed" y="104.038038"/>
     <use style="fill-opacity:0;stroke:#ffa500;stroke-linejoin:bevel;stroke-width:1.5;" x="364.009226" xlink:href="#mbbb218beed" y="197.197799"/>
    </g>
   </g>
   <g id="line2d_45">
    <path d="M 333.569032 104.038038 
L 364.009226 105.939258 
" style="fill:none;stroke:#000080;stroke-linecap:square;stroke-width:1.5;"/>
    <g>
     <use style="fill-opacity:0;stroke:#000080;stroke-width:1.5;" x="333.569032" xlink:href="#m4910d7c79b" y="104.038038"/>
     <use style="fill-opacity:0;stroke:#000080;stroke-width:1.5;" x="364.009226" xlink:href="#m4910d7c79b" y="105.939258"/>
    </g>
   </g>
   <g id="line2d_46">
    <path d="M 333.569032 8.977057 
L 364.009226 14.680716 
" style="fill:none;stroke:#6495ed;stroke-linecap:square;stroke-width:1.5;"/>
    <g>
     <use style="fill-opacity:0;stroke:#6495ed;stroke-linejoin:miter;stroke-width:1.5;" x="333.569032" xlink:href="#mccd4eda7a0" y="8.977057"/>
     <use style="fill-opacity:0;stroke:#6495ed;stroke-linejoin:miter;stroke-width:1.5;" x="364.009226" xlink:href="#mccd4eda7a0" y="14.680716"/>
    </g>
   </g>
   <g id="line2d_47">
    <path d="M 333.569032 294.16 
L 333.569032 8.977057 
" style="fill:none;stroke:#000000;stroke-linecap:square;stroke-width:1.5;"/>
   </g>
   <g id="patch_3">
    <path d="M 56.84 294.16 
L 56.84 6.125228 
" style="fill:none;stroke:#000000;stroke-linecap:square;stroke-linejoin:miter;stroke-width:0.8;"/>
   </g>
   <g id="patch_4">
    <path d="M 399.984 294.16 
L 399.984 6.125228 
" style="fill:none;stroke:#000000;stroke-linecap:square;stroke-linejoin:miter;stroke-width:0.8;"/>
   </g>
   <g id="patch_5">
    <path d="M 56.84 294.16 
L 399.984 294.16 
" style="fill:none;stroke:#000000;stroke-linecap:square;stroke-linejoin:miter;stroke-width:0.8;"/>
   </g>
   <g id="patch_6">
    <path d="M 56.84 6.125228 
L 399.984 6.125228 
" style="fill:none;stroke:#000000;stroke-linecap:square;stroke-linejoin:miter;stroke-width:0.8;"/>
   </g>
   <g id="text_14">
    <!-- f9 -->
    <defs>
     <path d="M 10.984375 1.515625 
L 10.984375 10.5 
Q 14.703125 8.734375 18.5 7.8125 
Q 22.3125 6.890625 25.984375 6.890625 
Q 35.75 6.890625 40.890625 13.453125 
Q 46.046875 20.015625 46.78125 33.40625 
Q 43.953125 29.203125 39.59375 26.953125 
Q 35.25 24.703125 29.984375 24.703125 
Q 19.046875 24.703125 12.671875 31.3125 
Q 6.296875 37.9375 6.296875 49.421875 
Q 6.296875 60.640625 12.9375 67.421875 
Q 19.578125 74.21875 30.609375 74.21875 
Q 43.265625 74.21875 49.921875 64.515625 
Q 56.59375 54.828125 56.59375 36.375 
Q 56.59375 19.140625 48.40625 8.859375 
Q 40.234375 -1.421875 26.421875 -1.421875 
Q 22.703125 -1.421875 18.890625 -0.6875 
Q 15.09375 0.046875 10.984375 1.515625 
z
M 30.609375 32.421875 
Q 37.25 32.421875 41.125 36.953125 
Q 45.015625 41.5 45.015625 49.421875 
Q 45.015625 57.28125 41.125 61.84375 
Q 37.25 66.40625 30.609375 66.40625 
Q 23.96875 66.40625 20.09375 61.84375 
Q 16.21875 57.28125 16.21875 49.421875 
Q 16.21875 41.5 20.09375 36.953125 
Q 23.96875 32.421875 30.609375 32.421875 
z
" id="DejaVuSans-39"/>
    </defs>
    <g transform="translate(369.543806 293.147279)scale(0.17 -0.17)">
     <use xlink:href="#DejaVuSans-66"/>
     <use x="35.205078" xlink:href="#DejaVuSans-39"/>
    </g>
   </g>
   <g id="text_15">
    <!-- f6 -->
    <g transform="translate(369.543806 201.888737)scale(0.17 -0.17)">
     <use xlink:href="#DejaVuSans-66"/>
     <use x="35.205078" xlink:href="#DejaVuSans-36"/>
    </g>
   </g>
   <g id="text_16">
    <!-- f8 -->
    <g transform="translate(369.543806 110.630195)scale(0.17 -0.17)">
     <use xlink:href="#DejaVuSans-66"/>
     <use x="35.205078" xlink:href="#DejaVuSans-38"/>
    </g>
   </g>
   <g id="text_17">
    <!-- f7 -->
    <defs>
     <path d="M 8.203125 72.90625 
L 55.078125 72.90625 
L 55.078125 68.703125 
L 28.609375 0 
L 18.3125 0 
L 43.21875 64.59375 
L 8.203125 64.59375 
z
" id="DejaVuSans-37"/>
    </defs>
    <g transform="translate(369.543806 19.371654)scale(0.17 -0.17)">
     <use xlink:href="#DejaVuSans-66"/>
     <use x="35.205078" xlink:href="#DejaVuSans-37"/>
    </g>
   </g>
   <g id="text_18">
    <!-- bbob -->
    <defs>
     <path d="M 48.6875 27.296875 
Q 48.6875 37.203125 44.609375 42.84375 
Q 40.53125 48.484375 33.40625 48.484375 
Q 26.265625 48.484375 22.1875 42.84375 
Q 18.109375 37.203125 18.109375 27.296875 
Q 18.109375 17.390625 22.1875 11.75 
Q 26.265625 6.109375 33.40625 6.109375 
Q 40.53125 6.109375 44.609375 11.75 
Q 48.6875 17.390625 48.6875 27.296875 
z
M 18.109375 46.390625 
Q 20.953125 51.265625 25.265625 53.625 
Q 29.59375 56 35.59375 56 
Q 45.5625 56 51.78125 48.09375 
Q 58.015625 40.1875 58.015625 27.296875 
Q 58.015625 14.40625 51.78125 6.484375 
Q 45.5625 -1.421875 35.59375 -1.421875 
Q 29.59375 -1.421875 25.265625 0.953125 
Q 20.953125 3.328125 18.109375 8.203125 
L 18.109375 0 
L 9.078125 0 
L 9.078125 75.984375 
L 18.109375 75.984375 
z
" id="DejaVuSans-62"/>
    </defs>
    <g transform="translate(60.27144 16.755982)scale(0.102 -0.102)">
     <use xlink:href="#DejaVuSans-62"/>
     <use x="63.476562" xlink:href="#DejaVuSans-62"/>
     <use x="126.953125" xlink:href="#DejaVuSans-6f"/>
     <use x="188.134766" xlink:href="#DejaVuSans-62"/>
    </g>
    <!-- Misc. moderate functions, 2-D -->
    <defs>
     <path d="M 9.8125 72.90625 
L 24.515625 72.90625 
L 43.109375 23.296875 
L 61.8125 72.90625 
L 76.515625 72.90625 
L 76.515625 0 
L 66.890625 0 
L 66.890625 64.015625 
L 48.09375 14.015625 
L 38.1875 14.015625 
L 19.390625 64.015625 
L 19.390625 0 
L 9.8125 0 
z
" id="DejaVuSans-4d"/>
     <path d="M 19.671875 64.796875 
L 19.671875 8.109375 
L 31.59375 8.109375 
Q 46.6875 8.109375 53.6875 14.9375 
Q 60.6875 21.78125 60.6875 36.53125 
Q 60.6875 51.171875 53.6875 57.984375 
Q 46.6875 64.796875 31.59375 64.796875 
z
M 9.8125 72.90625 
L 30.078125 72.90625 
Q 51.265625 72.90625 61.171875 64.09375 
Q 71.09375 55.28125 71.09375 36.53125 
Q 71.09375 17.671875 61.125 8.828125 
Q 51.171875 0 30.078125 0 
L 9.8125 0 
z
" id="DejaVuSans-44"/>
    </defs>
    <g transform="translate(60.27144 28.17775)scale(0.102 -0.102)">
     <use xlink:href="#DejaVuSans-4d"/>
     <use x="86.279297" xlink:href="#DejaVuSans-69"/>
     <use x="114.0625" xlink:href="#DejaVuSans-73"/>
     <use x="166.162109" xlink:href="#DejaVuSans-63"/>
     <use x="221.142578" xlink:href="#DejaVuSans-2e"/>
     <use x="252.929688" xlink:href="#DejaVuSans-20"/>
     <use x="284.716797" xlink:href="#DejaVuSans-6d"/>
     <use x="382.128906" xlink:href="#DejaVuSans-6f"/>
     <use x="443.310547" xlink:href="#DejaVuSans-64"/>
     <use x="506.787109" xlink:href="#DejaVuSans-65"/>
     <use x="568.310547" xlink:href="#DejaVuSans-72"/>
     <use x="609.423828" xlink:href="#DejaVuSans-61"/>
     <use x="670.703125" xlink:href="#DejaVuSans-74"/>
     <use x="709.912109" xlink:href="#DejaVuSans-65"/>
     <use x="771.435547" xlink:href="#DejaVuSans-20"/>
     <use x="803.222656" xlink:href="#DejaVuSans-66"/>
     <use x="838.427734" xlink:href="#DejaVuSans-75"/>
     <use x="901.806641" xlink:href="#DejaVuSans-6e"/>
     <use x="965.185547" xlink:href="#DejaVuSans-63"/>
     <use x="1020.166016" xlink:href="#DejaVuSans-74"/>
     <use x="1059.375" xlink:href="#DejaVuSans-69"/>
     <use x="1087.158203" xlink:href="#DejaVuSans-6f"/>
     <use x="1148.339844" xlink:href="#DejaVuSans-6e"/>
     <use x="1211.71875" xlink:href="#DejaVuSans-73"/>
     <use x="1263.818359" xlink:href="#DejaVuSans-2c"/>
     <use x="1295.605469" xlink:href="#DejaVuSans-20"/>
     <use x="1327.392578" xlink:href="#DejaVuSans-32"/>
     <use x="1391.015625" xlink:href="#DejaVuSans-2d"/>
     <use x="1427.099609" xlink:href="#DejaVuSans-44"/>
    </g>
    <!-- 51 targets: 100..1e-08 -->
    <defs>
     <path d="M 10.796875 72.90625 
L 49.515625 72.90625 
L 49.515625 64.59375 
L 19.828125 64.59375 
L 19.828125 46.734375 
Q 21.96875 47.46875 24.109375 47.828125 
Q 26.265625 48.1875 28.421875 48.1875 
Q 40.625 48.1875 47.75 41.5 
Q 54.890625 34.8125 54.890625 23.390625 
Q 54.890625 11.625 47.5625 5.09375 
Q 40.234375 -1.421875 26.90625 -1.421875 
Q 22.3125 -1.421875 17.546875 -0.640625 
Q 12.796875 0.140625 7.71875 1.703125 
L 7.71875 11.625 
Q 12.109375 9.234375 16.796875 8.0625 
Q 21.484375 6.890625 26.703125 6.890625 
Q 35.15625 6.890625 40.078125 11.328125 
Q 45.015625 15.765625 45.015625 23.390625 
Q 45.015625 31 40.078125 35.4375 
Q 35.15625 39.890625 26.703125 39.890625 
Q 22.75 39.890625 18.8125 39.015625 
Q 14.890625 38.140625 10.796875 36.28125 
z
" id="DejaVuSans-35"/>
     <path d="M 11.71875 12.40625 
L 22.015625 12.40625 
L 22.015625 0 
L 11.71875 0 
z
M 11.71875 51.703125 
L 22.015625 51.703125 
L 22.015625 39.3125 
L 11.71875 39.3125 
z
" id="DejaVuSans-3a"/>
    </defs>
    <g transform="translate(60.27144 39.599519)scale(0.102 -0.102)">
     <use xlink:href="#DejaVuSans-35"/>
     <use x="63.623047" xlink:href="#DejaVuSans-31"/>
     <use x="127.246094" xlink:href="#DejaVuSans-20"/>
     <use x="159.033203" xlink:href="#DejaVuSans-74"/>
     <use x="198.242188" xlink:href="#DejaVuSans-61"/>
     <use x="259.521484" xlink:href="#DejaVuSans-72"/>
     <use x="300.619141" xlink:href="#DejaVuSans-67"/>
     <use x="364.095703" xlink:href="#DejaVuSans-65"/>
     <use x="425.619141" xlink:href="#DejaVuSans-74"/>
     <use x="464.828125" xlink:href="#DejaVuSans-73"/>
     <use x="516.927734" xlink:href="#DejaVuSans-3a"/>
     <use x="550.619141" xlink:href="#DejaVuSans-20"/>
     <use x="582.40625" xlink:href="#DejaVuSans-31"/>
     <use x="646.029297" xlink:href="#DejaVuSans-30"/>
     <use x="709.652344" xlink:href="#DejaVuSans-30"/>
     <use x="773.275391" xlink:href="#DejaVuSans-2e"/>
     <use x="805.0625" xlink:href="#DejaVuSans-2e"/>
     <use x="836.849609" xlink:href="#DejaVuSans-31"/>
     <use x="900.472656" xlink:href="#DejaVuSans-65"/>
     <use x="961.996094" xlink:href="#DejaVuSans-2d"/>
     <use x="998.080078" xlink:href="#DejaVuSans-30"/>
     <use x="1061.703125" xlink:href="#DejaVuSans-38"/>
    </g>
    <!-- 15 instances -->
    <g transform="translate(60.27144 51.021288)scale(0.102 -0.102)">
     <use xlink:href="#DejaVuSans-31"/>
     <use x="63.623047" xlink:href="#DejaVuSans-35"/>
     <use x="127.246094" xlink:href="#DejaVuSans-20"/>
     <use x="159.033203" xlink:href="#DejaVuSans-69"/>
     <use x="186.816406" xlink:href="#DejaVuSans-6e"/>
     <use x="250.195312" xlink:href="#DejaVuSans-73"/>
     <use x="302.294922" xlink:href="#DejaVuSans-74"/>
     <use x="341.503906" xlink:href="#DejaVuSans-61"/>
     <use x="402.783203" xlink:href="#DejaVuSans-6e"/>
     <use x="466.162109" xlink:href="#DejaVuSans-63"/>
     <use x="521.142578" xlink:href="#DejaVuSans-65"/>
     <use x="582.666016" xlink:href="#DejaVuSans-73"/>
    </g>
   </g>
   <g id="text_19">
    <!-- v2.2.1.10 -->
    <g style="fill:#808080;" transform="translate(204.779188 289.199965)scale(0.1 -0.1)">
     <use xlink:href="#DejaVuSans-76"/>
     <use x="59.179688" xlink:href="#DejaVuSans-32"/>
     <use x="122.802734" xlink:href="#DejaVuSans-2e"/>
     <use x="154.589844" xlink:href="#DejaVuSans-32"/>
     <use x="218.212891" xlink:href="#DejaVuSans-2e"/>
     <use x="250" xlink:href="#DejaVuSans-31"/>
     <use x="313.623047" xlink:href="#DejaVuSans-2e"/>
     <use x="345.410156" xlink:href="#DejaVuSans-31"/>
     <use x="409.033203" xlink:href="#DejaVuSans-30"/>
    </g>
   </g>
  </g>
 </g>
 <defs>
  <clipPath id="p996f1a8241">
   <rect height="288.034772" width="343.144" x="56.84" y="6.125228"/>
  </clipPath>
 </defs>
</svg>
