<?xml version="1.0" encoding="utf-8" standalone="no"?>
<!DOCTYPE svg PUBLIC "-//W3C//DTD SVG 1.1//EN"
  "http://www.w3.org/Graphics/SVG/1.1/DTD/svg11.dtd">
<!-- Created with matplotlib (http://matplotlib.org/) -->
<svg height="345.6pt" version="1.1" viewBox="0 0 460.8 345.6" width="460.8pt" xmlns="http://www.w3.org/2000/svg" xmlns:xlink="http://www.w3.org/1999/xlink">
 <defs>
  <style type="text/css">
*{stroke-linecap:butt;stroke-linejoin:round;}
  </style>
 </defs>
 <g id="figure_1">
  <g id="patch_1">
   <path d="M 0 345.6 
L 460.8 345.6 
L 460.8 0 
L 0 0 
z
" style="fill:#ffffff;"/>
  </g>
  <g id="axes_1">
   <g id="patch_2">
    <path d="M 56.84 294.16 
L 399.984 294.16 
L 399.984 24.84 
L 56.84 24.84 
z
" style="fill:#ffffff;"/>
   </g>
   <g id="matplotlib.axis_1">
    <g id="xtick_1">
     <g id="line2d_1">
      <path clip-path="url(#p169823919d)" d="M 56.84 294.16 
L 56.84 24.84 
" style="fill:none;stroke:#b0b0b0;stroke-linecap:square;stroke-width:0.8;"/>
     </g>
     <g id="line2d_2">
      <defs>
       <path d="M 0 0 
L 0 3.5 
" id="mcff3730387" style="stroke:#000000;stroke-width:0.8;"/>
      </defs>
      <g>
       <use style="stroke:#000000;stroke-width:0.8;" x="56.84" xlink:href="#mcff3730387" y="294.16"/>
      </g>
     </g>
     <g id="text_1">
      <!-- 0 -->
      <defs>
       <path d="M 31.78125 66.40625 
Q 24.171875 66.40625 20.328125 58.90625 
Q 16.5 51.421875 16.5 36.375 
Q 16.5 21.390625 20.328125 13.890625 
Q 24.171875 6.390625 31.78125 6.390625 
Q 39.453125 6.390625 43.28125 13.890625 
Q 47.125 21.390625 47.125 36.375 
Q 47.125 51.421875 43.28125 58.90625 
Q 39.453125 66.40625 31.78125 66.40625 
z
M 31.78125 74.21875 
Q 44.046875 74.21875 50.515625 64.515625 
Q 56.984375 54.828125 56.984375 36.375 
Q 56.984375 17.96875 50.515625 8.265625 
Q 44.046875 -1.421875 31.78125 -1.421875 
Q 19.53125 -1.421875 13.0625 8.265625 
Q 6.59375 17.96875 6.59375 36.375 
Q 6.59375 54.828125 13.0625 64.515625 
Q 19.53125 74.21875 31.78125 74.21875 
z
" id="DejaVuSans-30"/>
      </defs>
      <g transform="translate(50.4775 316.356875)scale(0.2 -0.2)">
       <use xlink:href="#DejaVuSans-30"/>
      </g>
     </g>
    </g>
    <g id="xtick_2">
     <g id="line2d_3">
      <path clip-path="url(#p169823919d)" d="M 135.905438 294.16 
L 135.905438 24.84 
" style="fill:none;stroke:#b0b0b0;stroke-linecap:square;stroke-width:0.8;"/>
     </g>
     <g id="line2d_4">
      <g>
       <use style="stroke:#000000;stroke-width:0.8;" x="135.905438" xlink:href="#mcff3730387" y="294.16"/>
      </g>
     </g>
     <g id="text_2">
      <!-- 2 -->
      <defs>
       <path d="M 19.1875 8.296875 
L 53.609375 8.296875 
L 53.609375 0 
L 7.328125 0 
L 7.328125 8.296875 
Q 12.9375 14.109375 22.625 23.890625 
Q 32.328125 33.6875 34.8125 36.53125 
Q 39.546875 41.84375 41.421875 45.53125 
Q 43.3125 49.21875 43.3125 52.78125 
Q 43.3125 58.59375 39.234375 62.25 
Q 35.15625 65.921875 28.609375 65.921875 
Q 23.96875 65.921875 18.8125 64.3125 
Q 13.671875 62.703125 7.8125 59.421875 
L 7.8125 69.390625 
Q 13.765625 71.78125 18.9375 73 
Q 24.125 74.21875 28.421875 74.21875 
Q 39.75 74.21875 46.484375 68.546875 
Q 53.21875 62.890625 53.21875 53.421875 
Q 53.21875 48.921875 51.53125 44.890625 
Q 49.859375 40.875 45.40625 35.40625 
Q 44.1875 33.984375 37.640625 27.21875 
Q 31.109375 20.453125 19.1875 8.296875 
z
" id="DejaVuSans-32"/>
      </defs>
      <g transform="translate(129.542938 316.356875)scale(0.2 -0.2)">
       <use xlink:href="#DejaVuSans-32"/>
      </g>
     </g>
    </g>
    <g id="xtick_3">
     <g id="line2d_5">
      <path clip-path="url(#p169823919d)" d="M 214.970876 294.16 
L 214.970876 24.84 
" style="fill:none;stroke:#b0b0b0;stroke-linecap:square;stroke-width:0.8;"/>
     </g>
     <g id="line2d_6">
      <g>
       <use style="stroke:#000000;stroke-width:0.8;" x="214.970876" xlink:href="#mcff3730387" y="294.16"/>
      </g>
     </g>
     <g id="text_3">
      <!-- 4 -->
      <defs>
       <path d="M 37.796875 64.3125 
L 12.890625 25.390625 
L 37.796875 25.390625 
z
M 35.203125 72.90625 
L 47.609375 72.90625 
L 47.609375 25.390625 
L 58.015625 25.390625 
L 58.015625 17.1875 
L 47.609375 17.1875 
L 47.609375 0 
L 37.796875 0 
L 37.796875 17.1875 
L 4.890625 17.1875 
L 4.890625 26.703125 
z
" id="DejaVuSans-34"/>
      </defs>
      <g transform="translate(208.608376 316.356875)scale(0.2 -0.2)">
       <use xlink:href="#DejaVuSans-34"/>
      </g>
     </g>
    </g>
    <g id="xtick_4">
     <g id="line2d_7">
      <path clip-path="url(#p169823919d)" d="M 294.036313 294.16 
L 294.036313 24.84 
" style="fill:none;stroke:#b0b0b0;stroke-linecap:square;stroke-width:0.8;"/>
     </g>
     <g id="line2d_8">
      <g>
       <use style="stroke:#000000;stroke-width:0.8;" x="294.036313" xlink:href="#mcff3730387" y="294.16"/>
      </g>
     </g>
     <g id="text_4">
      <!-- 6 -->
      <defs>
       <path d="M 33.015625 40.375 
Q 26.375 40.375 22.484375 35.828125 
Q 18.609375 31.296875 18.609375 23.390625 
Q 18.609375 15.53125 22.484375 10.953125 
Q 26.375 6.390625 33.015625 6.390625 
Q 39.65625 6.390625 43.53125 10.953125 
Q 47.40625 15.53125 47.40625 23.390625 
Q 47.40625 31.296875 43.53125 35.828125 
Q 39.65625 40.375 33.015625 40.375 
z
M 52.59375 71.296875 
L 52.59375 62.3125 
Q 48.875 64.0625 45.09375 64.984375 
Q 41.3125 65.921875 37.59375 65.921875 
Q 27.828125 65.921875 22.671875 59.328125 
Q 17.53125 52.734375 16.796875 39.40625 
Q 19.671875 43.65625 24.015625 45.921875 
Q 28.375 48.1875 33.59375 48.1875 
Q 44.578125 48.1875 50.953125 41.515625 
Q 57.328125 34.859375 57.328125 23.390625 
Q 57.328125 12.15625 50.6875 5.359375 
Q 44.046875 -1.421875 33.015625 -1.421875 
Q 20.359375 -1.421875 13.671875 8.265625 
Q 6.984375 17.96875 6.984375 36.375 
Q 6.984375 53.65625 15.1875 63.9375 
Q 23.390625 74.21875 37.203125 74.21875 
Q 40.921875 74.21875 44.703125 73.484375 
Q 48.484375 72.75 52.59375 71.296875 
z
" id="DejaVuSans-36"/>
      </defs>
      <g transform="translate(287.673813 316.356875)scale(0.2 -0.2)">
       <use xlink:href="#DejaVuSans-36"/>
      </g>
     </g>
    </g>
    <g id="xtick_5">
     <g id="line2d_9">
      <path clip-path="url(#p169823919d)" d="M 373.101751 294.16 
L 373.101751 24.84 
" style="fill:none;stroke:#b0b0b0;stroke-linecap:square;stroke-width:0.8;"/>
     </g>
     <g id="line2d_10">
      <g>
       <use style="stroke:#000000;stroke-width:0.8;" x="373.101751" xlink:href="#mcff3730387" y="294.16"/>
      </g>
     </g>
     <g id="text_5">
      <!-- 8 -->
      <defs>
       <path d="M 31.78125 34.625 
Q 24.75 34.625 20.71875 30.859375 
Q 16.703125 27.09375 16.703125 20.515625 
Q 16.703125 13.921875 20.71875 10.15625 
Q 24.75 6.390625 31.78125 6.390625 
Q 38.8125 6.390625 42.859375 10.171875 
Q 46.921875 13.96875 46.921875 20.515625 
Q 46.921875 27.09375 42.890625 30.859375 
Q 38.875 34.625 31.78125 34.625 
z
M 21.921875 38.8125 
Q 15.578125 40.375 12.03125 44.71875 
Q 8.5 49.078125 8.5 55.328125 
Q 8.5 64.0625 14.71875 69.140625 
Q 20.953125 74.21875 31.78125 74.21875 
Q 42.671875 74.21875 48.875 69.140625 
Q 55.078125 64.0625 55.078125 55.328125 
Q 55.078125 49.078125 51.53125 44.71875 
Q 48 40.375 41.703125 38.8125 
Q 48.828125 37.15625 52.796875 32.3125 
Q 56.78125 27.484375 56.78125 20.515625 
Q 56.78125 9.90625 50.3125 4.234375 
Q 43.84375 -1.421875 31.78125 -1.421875 
Q 19.734375 -1.421875 13.25 4.234375 
Q 6.78125 9.90625 6.78125 20.515625 
Q 6.78125 27.484375 10.78125 32.3125 
Q 14.796875 37.15625 21.921875 38.8125 
z
M 18.3125 54.390625 
Q 18.3125 48.734375 21.84375 45.5625 
Q 25.390625 42.390625 31.78125 42.390625 
Q 38.140625 42.390625 41.71875 45.5625 
Q 45.3125 48.734375 45.3125 54.390625 
Q 45.3125 60.0625 41.71875 63.234375 
Q 38.140625 66.40625 31.78125 66.40625 
Q 25.390625 66.40625 21.84375 63.234375 
Q 18.3125 60.0625 18.3125 54.390625 
z
" id="DejaVuSans-38"/>
      </defs>
      <g transform="translate(366.739251 316.356875)scale(0.2 -0.2)">
       <use xlink:href="#DejaVuSans-38"/>
      </g>
     </g>
    </g>
    <g id="text_6">
     <!-- log10(# f-evals / dimension) -->
     <defs>
      <path d="M 9.421875 75.984375 
L 18.40625 75.984375 
L 18.40625 0 
L 9.421875 0 
z
" id="DejaVuSans-6c"/>
      <path d="M 30.609375 48.390625 
Q 23.390625 48.390625 19.1875 42.75 
Q 14.984375 37.109375 14.984375 27.296875 
Q 14.984375 17.484375 19.15625 11.84375 
Q 23.34375 6.203125 30.609375 6.203125 
Q 37.796875 6.203125 41.984375 11.859375 
Q 46.1875 17.53125 46.1875 27.296875 
Q 46.1875 37.015625 41.984375 42.703125 
Q 37.796875 48.390625 30.609375 48.390625 
z
M 30.609375 56 
Q 42.328125 56 49.015625 48.375 
Q 55.71875 40.765625 55.71875 27.296875 
Q 55.71875 13.875 49.015625 6.21875 
Q 42.328125 -1.421875 30.609375 -1.421875 
Q 18.84375 -1.421875 12.171875 6.21875 
Q 5.515625 13.875 5.515625 27.296875 
Q 5.515625 40.765625 12.171875 48.375 
Q 18.84375 56 30.609375 56 
z
" id="DejaVuSans-6f"/>
      <path d="M 45.40625 27.984375 
Q 45.40625 37.75 41.375 43.109375 
Q 37.359375 48.484375 30.078125 48.484375 
Q 22.859375 48.484375 18.828125 43.109375 
Q 14.796875 37.75 14.796875 27.984375 
Q 14.796875 18.265625 18.828125 12.890625 
Q 22.859375 7.515625 30.078125 7.515625 
Q 37.359375 7.515625 41.375 12.890625 
Q 45.40625 18.265625 45.40625 27.984375 
z
M 54.390625 6.78125 
Q 54.390625 -7.171875 48.1875 -13.984375 
Q 42 -20.796875 29.203125 -20.796875 
Q 24.46875 -20.796875 20.265625 -20.09375 
Q 16.0625 -19.390625 12.109375 -17.921875 
L 12.109375 -9.1875 
Q 16.0625 -11.328125 19.921875 -12.34375 
Q 23.78125 -13.375 27.78125 -13.375 
Q 36.625 -13.375 41.015625 -8.765625 
Q 45.40625 -4.15625 45.40625 5.171875 
L 45.40625 9.625 
Q 42.625 4.78125 38.28125 2.390625 
Q 33.9375 0 27.875 0 
Q 17.828125 0 11.671875 7.65625 
Q 5.515625 15.328125 5.515625 27.984375 
Q 5.515625 40.671875 11.671875 48.328125 
Q 17.828125 56 27.875 56 
Q 33.9375 56 38.28125 53.609375 
Q 42.625 51.21875 45.40625 46.390625 
L 45.40625 54.6875 
L 54.390625 54.6875 
z
" id="DejaVuSans-67"/>
      <path d="M 12.40625 8.296875 
L 28.515625 8.296875 
L 28.515625 63.921875 
L 10.984375 60.40625 
L 10.984375 69.390625 
L 28.421875 72.90625 
L 38.28125 72.90625 
L 38.28125 8.296875 
L 54.390625 8.296875 
L 54.390625 0 
L 12.40625 0 
z
" id="DejaVuSans-31"/>
      <path d="M 31 75.875 
Q 24.46875 64.65625 21.28125 53.65625 
Q 18.109375 42.671875 18.109375 31.390625 
Q 18.109375 20.125 21.3125 9.0625 
Q 24.515625 -2 31 -13.1875 
L 23.1875 -13.1875 
Q 15.875 -1.703125 12.234375 9.375 
Q 8.59375 20.453125 8.59375 31.390625 
Q 8.59375 42.28125 12.203125 53.3125 
Q 15.828125 64.359375 23.1875 75.875 
z
" id="DejaVuSans-28"/>
      <path d="M 51.125 44 
L 36.921875 44 
L 32.8125 27.6875 
L 47.125 27.6875 
z
M 43.796875 71.78125 
L 38.71875 51.515625 
L 52.984375 51.515625 
L 58.109375 71.78125 
L 65.921875 71.78125 
L 60.890625 51.515625 
L 76.125 51.515625 
L 76.125 44 
L 58.984375 44 
L 54.984375 27.6875 
L 70.515625 27.6875 
L 70.515625 20.21875 
L 53.078125 20.21875 
L 48 0 
L 40.1875 0 
L 45.21875 20.21875 
L 30.90625 20.21875 
L 25.875 0 
L 18.015625 0 
L 23.09375 20.21875 
L 7.71875 20.21875 
L 7.71875 27.6875 
L 24.90625 27.6875 
L 29 44 
L 13.28125 44 
L 13.28125 51.515625 
L 30.90625 51.515625 
L 35.890625 71.78125 
z
" id="DejaVuSans-23"/>
      <path id="DejaVuSans-20"/>
      <path d="M 37.109375 75.984375 
L 37.109375 68.5 
L 28.515625 68.5 
Q 23.6875 68.5 21.796875 66.546875 
Q 19.921875 64.59375 19.921875 59.515625 
L 19.921875 54.6875 
L 34.71875 54.6875 
L 34.71875 47.703125 
L 19.921875 47.703125 
L 19.921875 0 
L 10.890625 0 
L 10.890625 47.703125 
L 2.296875 47.703125 
L 2.296875 54.6875 
L 10.890625 54.6875 
L 10.890625 58.5 
Q 10.890625 67.625 15.140625 71.796875 
Q 19.390625 75.984375 28.609375 75.984375 
z
" id="DejaVuSans-66"/>
      <path d="M 4.890625 31.390625 
L 31.203125 31.390625 
L 31.203125 23.390625 
L 4.890625 23.390625 
z
" id="DejaVuSans-2d"/>
      <path d="M 56.203125 29.59375 
L 56.203125 25.203125 
L 14.890625 25.203125 
Q 15.484375 15.921875 20.484375 11.0625 
Q 25.484375 6.203125 34.421875 6.203125 
Q 39.59375 6.203125 44.453125 7.46875 
Q 49.3125 8.734375 54.109375 11.28125 
L 54.109375 2.78125 
Q 49.265625 0.734375 44.1875 -0.34375 
Q 39.109375 -1.421875 33.890625 -1.421875 
Q 20.796875 -1.421875 13.15625 6.1875 
Q 5.515625 13.8125 5.515625 26.8125 
Q 5.515625 40.234375 12.765625 48.109375 
Q 20.015625 56 32.328125 56 
Q 43.359375 56 49.78125 48.890625 
Q 56.203125 41.796875 56.203125 29.59375 
z
M 47.21875 32.234375 
Q 47.125 39.59375 43.09375 43.984375 
Q 39.0625 48.390625 32.421875 48.390625 
Q 24.90625 48.390625 20.390625 44.140625 
Q 15.875 39.890625 15.1875 32.171875 
z
" id="DejaVuSans-65"/>
      <path d="M 2.984375 54.6875 
L 12.5 54.6875 
L 29.59375 8.796875 
L 46.6875 54.6875 
L 56.203125 54.6875 
L 35.6875 0 
L 23.484375 0 
z
" id="DejaVuSans-76"/>
      <path d="M 34.28125 27.484375 
Q 23.390625 27.484375 19.1875 25 
Q 14.984375 22.515625 14.984375 16.5 
Q 14.984375 11.71875 18.140625 8.90625 
Q 21.296875 6.109375 26.703125 6.109375 
Q 34.1875 6.109375 38.703125 11.40625 
Q 43.21875 16.703125 43.21875 25.484375 
L 43.21875 27.484375 
z
M 52.203125 31.203125 
L 52.203125 0 
L 43.21875 0 
L 43.21875 8.296875 
Q 40.140625 3.328125 35.546875 0.953125 
Q 30.953125 -1.421875 24.3125 -1.421875 
Q 15.921875 -1.421875 10.953125 3.296875 
Q 6 8.015625 6 15.921875 
Q 6 25.140625 12.171875 29.828125 
Q 18.359375 34.515625 30.609375 34.515625 
L 43.21875 34.515625 
L 43.21875 35.40625 
Q 43.21875 41.609375 39.140625 45 
Q 35.0625 48.390625 27.6875 48.390625 
Q 23 48.390625 18.546875 47.265625 
Q 14.109375 46.140625 10.015625 43.890625 
L 10.015625 52.203125 
Q 14.9375 54.109375 19.578125 55.046875 
Q 24.21875 56 28.609375 56 
Q 40.484375 56 46.34375 49.84375 
Q 52.203125 43.703125 52.203125 31.203125 
z
" id="DejaVuSans-61"/>
      <path d="M 44.28125 53.078125 
L 44.28125 44.578125 
Q 40.484375 46.53125 36.375 47.5 
Q 32.28125 48.484375 27.875 48.484375 
Q 21.1875 48.484375 17.84375 46.4375 
Q 14.5 44.390625 14.5 40.28125 
Q 14.5 37.15625 16.890625 35.375 
Q 19.28125 33.59375 26.515625 31.984375 
L 29.59375 31.296875 
Q 39.15625 29.25 43.1875 25.515625 
Q 47.21875 21.78125 47.21875 15.09375 
Q 47.21875 7.46875 41.1875 3.015625 
Q 35.15625 -1.421875 24.609375 -1.421875 
Q 20.21875 -1.421875 15.453125 -0.5625 
Q 10.6875 0.296875 5.421875 2 
L 5.421875 11.28125 
Q 10.40625 8.6875 15.234375 7.390625 
Q 20.0625 6.109375 24.8125 6.109375 
Q 31.15625 6.109375 34.5625 8.28125 
Q 37.984375 10.453125 37.984375 14.40625 
Q 37.984375 18.0625 35.515625 20.015625 
Q 33.0625 21.96875 24.703125 23.78125 
L 21.578125 24.515625 
Q 13.234375 26.265625 9.515625 29.90625 
Q 5.8125 33.546875 5.8125 39.890625 
Q 5.8125 47.609375 11.28125 51.796875 
Q 16.75 56 26.8125 56 
Q 31.78125 56 36.171875 55.265625 
Q 40.578125 54.546875 44.28125 53.078125 
z
" id="DejaVuSans-73"/>
      <path d="M 25.390625 72.90625 
L 33.6875 72.90625 
L 8.296875 -9.28125 
L 0 -9.28125 
z
" id="DejaVuSans-2f"/>
      <path d="M 45.40625 46.390625 
L 45.40625 75.984375 
L 54.390625 75.984375 
L 54.390625 0 
L 45.40625 0 
L 45.40625 8.203125 
Q 42.578125 3.328125 38.25 0.953125 
Q 33.9375 -1.421875 27.875 -1.421875 
Q 17.96875 -1.421875 11.734375 6.484375 
Q 5.515625 14.40625 5.515625 27.296875 
Q 5.515625 40.1875 11.734375 48.09375 
Q 17.96875 56 27.875 56 
Q 33.9375 56 38.25 53.625 
Q 42.578125 51.265625 45.40625 46.390625 
z
M 14.796875 27.296875 
Q 14.796875 17.390625 18.875 11.75 
Q 22.953125 6.109375 30.078125 6.109375 
Q 37.203125 6.109375 41.296875 11.75 
Q 45.40625 17.390625 45.40625 27.296875 
Q 45.40625 37.203125 41.296875 42.84375 
Q 37.203125 48.484375 30.078125 48.484375 
Q 22.953125 48.484375 18.875 42.84375 
Q 14.796875 37.203125 14.796875 27.296875 
z
" id="DejaVuSans-64"/>
      <path d="M 9.421875 54.6875 
L 18.40625 54.6875 
L 18.40625 0 
L 9.421875 0 
z
M 9.421875 75.984375 
L 18.40625 75.984375 
L 18.40625 64.59375 
L 9.421875 64.59375 
z
" id="DejaVuSans-69"/>
      <path d="M 52 44.1875 
Q 55.375 50.25 60.0625 53.125 
Q 64.75 56 71.09375 56 
Q 79.640625 56 84.28125 50.015625 
Q 88.921875 44.046875 88.921875 33.015625 
L 88.921875 0 
L 79.890625 0 
L 79.890625 32.71875 
Q 79.890625 40.578125 77.09375 44.375 
Q 74.3125 48.1875 68.609375 48.1875 
Q 61.625 48.1875 57.5625 43.546875 
Q 53.515625 38.921875 53.515625 30.90625 
L 53.515625 0 
L 44.484375 0 
L 44.484375 32.71875 
Q 44.484375 40.625 41.703125 44.40625 
Q 38.921875 48.1875 33.109375 48.1875 
Q 26.21875 48.1875 22.15625 43.53125 
Q 18.109375 38.875 18.109375 30.90625 
L 18.109375 0 
L 9.078125 0 
L 9.078125 54.6875 
L 18.109375 54.6875 
L 18.109375 46.1875 
Q 21.1875 51.21875 25.484375 53.609375 
Q 29.78125 56 35.6875 56 
Q 41.65625 56 45.828125 52.96875 
Q 50 49.953125 52 44.1875 
z
" id="DejaVuSans-6d"/>
      <path d="M 54.890625 33.015625 
L 54.890625 0 
L 45.90625 0 
L 45.90625 32.71875 
Q 45.90625 40.484375 42.875 44.328125 
Q 39.84375 48.1875 33.796875 48.1875 
Q 26.515625 48.1875 22.3125 43.546875 
Q 18.109375 38.921875 18.109375 30.90625 
L 18.109375 0 
L 9.078125 0 
L 9.078125 54.6875 
L 18.109375 54.6875 
L 18.109375 46.1875 
Q 21.34375 51.125 25.703125 53.5625 
Q 30.078125 56 35.796875 56 
Q 45.21875 56 50.046875 50.171875 
Q 54.890625 44.34375 54.890625 33.015625 
z
" id="DejaVuSans-6e"/>
      <path d="M 8.015625 75.875 
L 15.828125 75.875 
Q 23.140625 64.359375 26.78125 53.3125 
Q 30.421875 42.28125 30.421875 31.390625 
Q 30.421875 20.453125 26.78125 9.375 
Q 23.140625 -1.703125 15.828125 -13.1875 
L 8.015625 -13.1875 
Q 14.5 -2 17.703125 9.0625 
Q 20.90625 20.125 20.90625 31.390625 
Q 20.90625 42.671875 17.703125 53.65625 
Q 14.5 64.65625 8.015625 75.875 
z
" id="DejaVuSans-29"/>
     </defs>
     <g transform="translate(107.571219 337.433594)scale(0.17 -0.17)">
      <use xlink:href="#DejaVuSans-6c"/>
      <use x="27.783203" xlink:href="#DejaVuSans-6f"/>
      <use x="88.964844" xlink:href="#DejaVuSans-67"/>
      <use x="152.441406" xlink:href="#DejaVuSans-31"/>
      <use x="216.064453" xlink:href="#DejaVuSans-30"/>
      <use x="279.6875" xlink:href="#DejaVuSans-28"/>
      <use x="318.701172" xlink:href="#DejaVuSans-23"/>
      <use x="402.490234" xlink:href="#DejaVuSans-20"/>
      <use x="434.277344" xlink:href="#DejaVuSans-66"/>
      <use x="469.404297" xlink:href="#DejaVuSans-2d"/>
      <use x="505.488281" xlink:href="#DejaVuSans-65"/>
      <use x="567.011719" xlink:href="#DejaVuSans-76"/>
      <use x="626.191406" xlink:href="#DejaVuSans-61"/>
      <use x="687.470703" xlink:href="#DejaVuSans-6c"/>
      <use x="715.253906" xlink:href="#DejaVuSans-73"/>
      <use x="767.353516" xlink:href="#DejaVuSans-20"/>
      <use x="799.140625" xlink:href="#DejaVuSans-2f"/>
      <use x="832.832031" xlink:href="#DejaVuSans-20"/>
      <use x="864.619141" xlink:href="#DejaVuSans-64"/>
      <use x="928.095703" xlink:href="#DejaVuSans-69"/>
      <use x="955.878906" xlink:href="#DejaVuSans-6d"/>
      <use x="1053.291016" xlink:href="#DejaVuSans-65"/>
      <use x="1114.814453" xlink:href="#DejaVuSans-6e"/>
      <use x="1178.193359" xlink:href="#DejaVuSans-73"/>
      <use x="1230.292969" xlink:href="#DejaVuSans-69"/>
      <use x="1258.076172" xlink:href="#DejaVuSans-6f"/>
      <use x="1319.257812" xlink:href="#DejaVuSans-6e"/>
      <use x="1382.636719" xlink:href="#DejaVuSans-29"/>
     </g>
    </g>
   </g>
   <g id="matplotlib.axis_2">
    <g id="ytick_1">
     <g id="line2d_11">
      <path clip-path="url(#p169823919d)" d="M 56.84 294.16 
L 399.984 294.16 
" style="fill:none;stroke:#b0b0b0;stroke-linecap:square;stroke-width:0.8;"/>
     </g>
     <g id="line2d_12">
      <defs>
       <path d="M 0 0 
L -3.5 0 
" id="m3d242d029b" style="stroke:#000000;stroke-width:0.8;"/>
      </defs>
      <g>
       <use style="stroke:#000000;stroke-width:0.8;" x="56.84" xlink:href="#m3d242d029b" y="294.16"/>
      </g>
     </g>
     <g id="text_7">
      <!-- 0.0 -->
      <defs>
       <path d="M 10.6875 12.40625 
L 21 12.40625 
L 21 0 
L 10.6875 0 
z
" id="DejaVuSans-2e"/>
      </defs>
      <g transform="translate(24.395 300.23875)scale(0.16 -0.16)">
       <use xlink:href="#DejaVuSans-30"/>
       <use x="63.623047" xlink:href="#DejaVuSans-2e"/>
       <use x="95.410156" xlink:href="#DejaVuSans-30"/>
      </g>
     </g>
    </g>
    <g id="ytick_2">
     <g id="line2d_13">
      <path clip-path="url(#p169823919d)" d="M 56.84 240.829307 
L 399.984 240.829307 
" style="fill:none;stroke:#b0b0b0;stroke-linecap:square;stroke-width:0.8;"/>
     </g>
     <g id="line2d_14">
      <g>
       <use style="stroke:#000000;stroke-width:0.8;" x="56.84" xlink:href="#m3d242d029b" y="240.829307"/>
      </g>
     </g>
     <g id="text_8">
      <!-- 0.2 -->
      <g transform="translate(24.395 246.908057)scale(0.16 -0.16)">
       <use xlink:href="#DejaVuSans-30"/>
       <use x="63.623047" xlink:href="#DejaVuSans-2e"/>
       <use x="95.410156" xlink:href="#DejaVuSans-32"/>
      </g>
     </g>
    </g>
    <g id="ytick_3">
     <g id="line2d_15">
      <path clip-path="url(#p169823919d)" d="M 56.84 187.498614 
L 399.984 187.498614 
" style="fill:none;stroke:#b0b0b0;stroke-linecap:square;stroke-width:0.8;"/>
     </g>
     <g id="line2d_16">
      <g>
       <use style="stroke:#000000;stroke-width:0.8;" x="56.84" xlink:href="#m3d242d029b" y="187.498614"/>
      </g>
     </g>
     <g id="text_9">
      <!-- 0.4 -->
      <g transform="translate(24.395 193.577364)scale(0.16 -0.16)">
       <use xlink:href="#DejaVuSans-30"/>
       <use x="63.623047" xlink:href="#DejaVuSans-2e"/>
       <use x="95.410156" xlink:href="#DejaVuSans-34"/>
      </g>
     </g>
    </g>
    <g id="ytick_4">
     <g id="line2d_17">
      <path clip-path="url(#p169823919d)" d="M 56.84 134.167921 
L 399.984 134.167921 
" style="fill:none;stroke:#b0b0b0;stroke-linecap:square;stroke-width:0.8;"/>
     </g>
     <g id="line2d_18">
      <g>
       <use style="stroke:#000000;stroke-width:0.8;" x="56.84" xlink:href="#m3d242d029b" y="134.167921"/>
      </g>
     </g>
     <g id="text_10">
      <!-- 0.6 -->
      <g transform="translate(24.395 140.246671)scale(0.16 -0.16)">
       <use xlink:href="#DejaVuSans-30"/>
       <use x="63.623047" xlink:href="#DejaVuSans-2e"/>
       <use x="95.410156" xlink:href="#DejaVuSans-36"/>
      </g>
     </g>
    </g>
    <g id="ytick_5">
     <g id="line2d_19">
      <path clip-path="url(#p169823919d)" d="M 56.84 80.837228 
L 399.984 80.837228 
" style="fill:none;stroke:#b0b0b0;stroke-linecap:square;stroke-width:0.8;"/>
     </g>
     <g id="line2d_20">
      <g>
       <use style="stroke:#000000;stroke-width:0.8;" x="56.84" xlink:href="#m3d242d029b" y="80.837228"/>
      </g>
     </g>
     <g id="text_11">
      <!-- 0.8 -->
      <g transform="translate(24.395 86.915978)scale(0.16 -0.16)">
       <use xlink:href="#DejaVuSans-30"/>
       <use x="63.623047" xlink:href="#DejaVuSans-2e"/>
       <use x="95.410156" xlink:href="#DejaVuSans-38"/>
      </g>
     </g>
    </g>
    <g id="ytick_6">
     <g id="line2d_21">
      <path clip-path="url(#p169823919d)" d="M 56.84 27.506535 
L 399.984 27.506535 
" style="fill:none;stroke:#b0b0b0;stroke-linecap:square;stroke-width:0.8;"/>
     </g>
     <g id="line2d_22">
      <g>
       <use style="stroke:#000000;stroke-width:0.8;" x="56.84" xlink:href="#m3d242d029b" y="27.506535"/>
      </g>
     </g>
     <g id="text_12">
      <!-- 1.0 -->
      <g transform="translate(24.395 33.585285)scale(0.16 -0.16)">
       <use xlink:href="#DejaVuSans-31"/>
       <use x="63.623047" xlink:href="#DejaVuSans-2e"/>
       <use x="95.410156" xlink:href="#DejaVuSans-30"/>
      </g>
     </g>
    </g>
    <g id="text_13">
     <!-- Fraction of function,target pairs -->
     <defs>
      <path d="M 9.8125 72.90625 
L 51.703125 72.90625 
L 51.703125 64.59375 
L 19.671875 64.59375 
L 19.671875 43.109375 
L 48.578125 43.109375 
L 48.578125 34.8125 
L 19.671875 34.8125 
L 19.671875 0 
L 9.8125 0 
z
" id="DejaVuSans-46"/>
      <path d="M 41.109375 46.296875 
Q 39.59375 47.171875 37.8125 47.578125 
Q 36.03125 48 33.890625 48 
Q 26.265625 48 22.1875 43.046875 
Q 18.109375 38.09375 18.109375 28.8125 
L 18.109375 0 
L 9.078125 0 
L 9.078125 54.6875 
L 18.109375 54.6875 
L 18.109375 46.1875 
Q 20.953125 51.171875 25.484375 53.578125 
Q 30.03125 56 36.53125 56 
Q 37.453125 56 38.578125 55.875 
Q 39.703125 55.765625 41.0625 55.515625 
z
" id="DejaVuSans-72"/>
      <path d="M 48.78125 52.59375 
L 48.78125 44.1875 
Q 44.96875 46.296875 41.140625 47.34375 
Q 37.3125 48.390625 33.40625 48.390625 
Q 24.65625 48.390625 19.8125 42.84375 
Q 14.984375 37.3125 14.984375 27.296875 
Q 14.984375 17.28125 19.8125 11.734375 
Q 24.65625 6.203125 33.40625 6.203125 
Q 37.3125 6.203125 41.140625 7.25 
Q 44.96875 8.296875 48.78125 10.40625 
L 48.78125 2.09375 
Q 45.015625 0.34375 40.984375 -0.53125 
Q 36.96875 -1.421875 32.421875 -1.421875 
Q 20.0625 -1.421875 12.78125 6.34375 
Q 5.515625 14.109375 5.515625 27.296875 
Q 5.515625 40.671875 12.859375 48.328125 
Q 20.21875 56 33.015625 56 
Q 37.15625 56 41.109375 55.140625 
Q 45.0625 54.296875 48.78125 52.59375 
z
" id="DejaVuSans-63"/>
      <path d="M 18.3125 70.21875 
L 18.3125 54.6875 
L 36.8125 54.6875 
L 36.8125 47.703125 
L 18.3125 47.703125 
L 18.3125 18.015625 
Q 18.3125 11.328125 20.140625 9.421875 
Q 21.96875 7.515625 27.59375 7.515625 
L 36.8125 7.515625 
L 36.8125 0 
L 27.59375 0 
Q 17.1875 0 13.234375 3.875 
Q 9.28125 7.765625 9.28125 18.015625 
L 9.28125 47.703125 
L 2.6875 47.703125 
L 2.6875 54.6875 
L 9.28125 54.6875 
L 9.28125 70.21875 
z
" id="DejaVuSans-74"/>
      <path d="M 8.5 21.578125 
L 8.5 54.6875 
L 17.484375 54.6875 
L 17.484375 21.921875 
Q 17.484375 14.15625 20.5 10.265625 
Q 23.53125 6.390625 29.59375 6.390625 
Q 36.859375 6.390625 41.078125 11.03125 
Q 45.3125 15.671875 45.3125 23.6875 
L 45.3125 54.6875 
L 54.296875 54.6875 
L 54.296875 0 
L 45.3125 0 
L 45.3125 8.40625 
Q 42.046875 3.421875 37.71875 1 
Q 33.40625 -1.421875 27.6875 -1.421875 
Q 18.265625 -1.421875 13.375 4.4375 
Q 8.5 10.296875 8.5 21.578125 
z
M 31.109375 56 
z
" id="DejaVuSans-75"/>
      <path d="M 11.71875 12.40625 
L 22.015625 12.40625 
L 22.015625 4 
L 14.015625 -11.625 
L 7.71875 -11.625 
L 11.71875 4 
z
" id="DejaVuSans-2c"/>
      <path d="M 18.109375 8.203125 
L 18.109375 -20.796875 
L 9.078125 -20.796875 
L 9.078125 54.6875 
L 18.109375 54.6875 
L 18.109375 46.390625 
Q 20.953125 51.265625 25.265625 53.625 
Q 29.59375 56 35.59375 56 
Q 45.5625 56 51.78125 48.09375 
Q 58.015625 40.1875 58.015625 27.296875 
Q 58.015625 14.40625 51.78125 6.484375 
Q 45.5625 -1.421875 35.59375 -1.421875 
Q 29.59375 -1.421875 25.265625 0.953125 
Q 20.953125 3.328125 18.109375 8.203125 
z
M 48.6875 27.296875 
Q 48.6875 37.203125 44.609375 42.84375 
Q 40.53125 48.484375 33.40625 48.484375 
Q 26.265625 48.484375 22.1875 42.84375 
Q 18.109375 37.203125 18.109375 27.296875 
Q 18.109375 17.390625 22.1875 11.75 
Q 26.265625 6.109375 33.40625 6.109375 
Q 40.53125 6.109375 44.609375 11.75 
Q 48.6875 17.390625 48.6875 27.296875 
z
" id="DejaVuSans-70"/>
     </defs>
     <g transform="translate(16.859531 294.639375)rotate(-90)scale(0.17 -0.17)">
      <use xlink:href="#DejaVuSans-46"/>
      <use x="57.410156" xlink:href="#DejaVuSans-72"/>
      <use x="98.523438" xlink:href="#DejaVuSans-61"/>
      <use x="159.802734" xlink:href="#DejaVuSans-63"/>
      <use x="214.783203" xlink:href="#DejaVuSans-74"/>
      <use x="253.992188" xlink:href="#DejaVuSans-69"/>
      <use x="281.775391" xlink:href="#DejaVuSans-6f"/>
      <use x="342.957031" xlink:href="#DejaVuSans-6e"/>
      <use x="406.335938" xlink:href="#DejaVuSans-20"/>
      <use x="438.123047" xlink:href="#DejaVuSans-6f"/>
      <use x="499.304688" xlink:href="#DejaVuSans-66"/>
      <use x="534.509766" xlink:href="#DejaVuSans-20"/>
      <use x="566.296875" xlink:href="#DejaVuSans-66"/>
      <use x="601.501953" xlink:href="#DejaVuSans-75"/>
      <use x="664.880859" xlink:href="#DejaVuSans-6e"/>
      <use x="728.259766" xlink:href="#DejaVuSans-63"/>
      <use x="783.240234" xlink:href="#DejaVuSans-74"/>
      <use x="822.449219" xlink:href="#DejaVuSans-69"/>
      <use x="850.232422" xlink:href="#DejaVuSans-6f"/>
      <use x="911.414062" xlink:href="#DejaVuSans-6e"/>
      <use x="974.792969" xlink:href="#DejaVuSans-2c"/>
      <use x="1006.580078" xlink:href="#DejaVuSans-74"/>
      <use x="1045.789062" xlink:href="#DejaVuSans-61"/>
      <use x="1107.068359" xlink:href="#DejaVuSans-72"/>
      <use x="1148.166016" xlink:href="#DejaVuSans-67"/>
      <use x="1211.642578" xlink:href="#DejaVuSans-65"/>
      <use x="1273.166016" xlink:href="#DejaVuSans-74"/>
      <use x="1312.375" xlink:href="#DejaVuSans-20"/>
      <use x="1344.162109" xlink:href="#DejaVuSans-70"/>
      <use x="1407.638672" xlink:href="#DejaVuSans-61"/>
      <use x="1468.917969" xlink:href="#DejaVuSans-69"/>
      <use x="1496.701172" xlink:href="#DejaVuSans-72"/>
      <use x="1537.814453" xlink:href="#DejaVuSans-73"/>
     </g>
    </g>
   </g>
   <g id="line2d_23">
    <defs>
     <path d="M 0 1.5 
C 0.397805 1.5 0.77937 1.341951 1.06066 1.06066 
C 1.341951 0.77937 1.5 0.397805 1.5 0 
C 1.5 -0.397805 1.341951 -0.77937 1.06066 -1.06066 
C 0.77937 -1.341951 0.397805 -1.5 0 -1.5 
C -0.397805 -1.5 -0.77937 -1.341951 -1.06066 -1.06066 
C -1.341951 -0.77937 -1.5 -0.397805 -1.5 0 
C -1.5 0.397805 -1.341951 0.77937 -1.06066 1.06066 
C -0.77937 1.341951 -0.397805 1.5 0 1.5 
z
" id="mc059a6604e" style="stroke:#00bfbf;"/>
    </defs>
    <g>
     <use style="fill:#00bfbf;stroke:#00bfbf;" x="248.650977" xlink:href="#mc059a6604e" y="64.10603"/>
     <use style="fill:#00bfbf;stroke:#00bfbf;" x="248.650977" xlink:href="#mc059a6604e" y="64.10603"/>
    </g>
   </g>
   <g id="line2d_24">
    <path d="M 44.939466 294.16 
L 44.939466 274.814553 
L 56.84 274.814553 
L 56.84 265.403254 
L 63.801366 265.403254 
L 63.801366 263.311854 
L 68.740534 263.311854 
L 68.740534 260.174754 
L 72.57165 260.174754 
L 72.57165 259.651904 
L 75.7019 259.651904 
L 75.7019 257.037655 
L 78.348489 257.037655 
L 78.348489 254.946255 
L 80.641068 254.946255 
L 80.641068 253.900555 
L 82.663267 253.900555 
L 82.663267 252.854855 
L 84.472185 252.854855 
L 84.472185 250.240606 
L 86.10855 250.240606 
L 86.10855 246.580656 
L 88.976675 246.580656 
L 88.976675 243.966407 
L 91.433551 243.966407 
L 91.433551 241.875007 
L 92.541603 241.875007 
L 92.541603 240.829307 
L 93.582457 240.829307 
L 93.582457 239.260757 
L 94.563801 239.260757 
L 94.563801 238.737907 
L 96.372719 238.737907 
L 96.372719 238.215057 
L 98.009084 238.215057 
L 98.009084 236.646507 
L 98.77227 236.646507 
L 98.77227 235.077958 
L 101.525167 235.077958 
L 101.525167 234.032258 
L 102.149557 234.032258 
L 102.149557 233.509408 
L 103.897048 233.509408 
L 103.897048 232.986558 
L 104.442137 232.986558 
L 104.442137 232.463708 
L 106.934744 232.463708 
L 106.934744 231.940858 
L 109.110924 231.940858 
L 109.110924 230.895158 
L 109.514915 230.895158 
L 109.514915 230.372308 
L 110.672804 230.372308 
L 110.672804 229.326608 
L 111.04204 229.326608 
L 111.04204 225.666659 
L 112.444358 225.666659 
L 112.444358 225.143809 
L 114.652569 225.143809 
L 114.652569 223.052409 
L 115.234619 223.052409 
L 115.234619 221.483859 
L 117.383526 221.483859 
L 117.383526 219.91531 
L 118.364869 219.91531 
L 118.364869 219.39246 
L 118.601685 219.39246 
L 118.601685 217.30106 
L 118.835278 217.30106 
L 118.835278 216.25536 
L 119.73911 216.25536 
L 119.73911 215.73251 
L 119.957824 215.73251 
L 119.957824 215.20966 
L 120.173787 215.20966 
L 120.173787 214.68681 
L 120.597731 214.68681 
L 120.597731 214.16396 
L 123.481954 214.16396 
L 123.481954 213.64111 
L 124.175739 213.64111 
L 124.175739 213.118261 
L 125.005313 213.118261 
L 125.005313 212.595411 
L 125.326236 212.595411 
L 125.326236 211.549711 
L 125.950626 211.549711 
L 125.950626 210.504011 
L 128.376816 210.504011 
L 128.376816 209.981161 
L 131.080349 209.981161 
L 131.080349 209.458311 
L 131.749349 209.458311 
L 131.749349 208.935461 
L 132.181293 208.935461 
L 132.181293 208.412611 
L 132.809491 208.412611 
L 132.809491 207.889761 
L 133.013885 207.889761 
L 133.013885 206.844061 
L 136.161058 206.844061 
L 136.245426 204.229812 
L 136.743108 204.229812 
L 136.743108 203.184112 
L 137.067058 203.184112 
L 137.067058 202.661262 
L 137.85116 202.661262 
L 137.85116 201.615562 
L 138.304988 201.615562 
L 138.304988 200.569862 
L 139.459631 200.569862 
L 139.459631 199.524162 
L 140.143739 199.524162 
L 140.143739 197.955613 
L 141.804475 197.955613 
L 141.804475 197.432763 
L 144.555118 197.432763 
L 144.555118 195.864213 
L 144.710025 195.864213 
L 144.710025 193.249963 
L 144.863548 193.249963 
L 144.914419 191.158563 
L 145.116408 191.158563 
L 145.216518 186.975764 
L 145.316047 186.975764 
L 145.365597 185.930064 
L 145.611221 185.930064 
L 145.611221 184.884364 
L 145.805221 184.884364 
L 145.805221 183.838664 
L 146.834725 183.838664 
L 146.925326 180.701565 
L 147.149758 180.701565 
L 147.149758 180.178715 
L 148.887176 180.178715 
L 148.887176 179.655865 
L 150.242806 179.655865 
L 150.242806 179.133015 
L 150.391134 179.133015 
L 150.501544 175.473065 
L 150.538191 175.473065 
L 150.61125 170.767416 
L 150.720259 170.767416 
L 150.720259 170.244566 
L 150.864536 170.244566 
L 150.864536 169.721716 
L 151.184793 169.721716 
L 151.255157 168.676016 
L 153.021891 168.676016 
L 153.021891 168.153166 
L 153.148133 168.153166 
L 153.210908 166.584617 
L 154.565857 166.584617 
L 154.594786 163.970367 
L 154.681279 163.970367 
L 154.681279 161.878967 
L 155.07925 161.878967 
L 155.107326 159.264718 
L 155.191282 159.264718 
L 155.191282 158.741868 
L 155.330302 158.741868 
L 155.330302 158.219018 
L 155.767748 158.219018 
L 155.767748 157.696168 
L 155.982361 157.696168 
L 155.982361 156.650468 
L 156.115145 156.650468 
L 156.115145 156.127618 
L 156.865673 156.127618 
L 156.916244 153.513368 
L 158.040069 153.513368 
L 158.063701 152.467668 
L 158.460551 152.467668 
L 158.460551 151.944818 
L 158.598455 151.944818 
L 158.598455 151.421969 
L 158.960871 151.421969 
L 158.98327 150.376269 
L 160.13045 150.376269 
L 160.13045 149.853419 
L 160.787711 149.853419 
L 160.827966 148.284869 
L 160.948168 148.284869 
L 160.948168 146.716319 
L 161.342872 146.716319 
L 161.342872 145.670619 
L 161.880642 145.670619 
L 161.880642 145.147769 
L 162.365354 145.147769 
L 162.457019 144.10207 
L 162.511784 144.10207 
L 162.548197 142.01067 
L 163.278139 142.01067 
L 163.36507 140.44212 
L 163.417018 140.44212 
L 163.520445 138.87357 
L 163.640328 138.87357 
L 163.640328 138.35072 
L 163.978308 138.35072 
L 163.978308 137.82787 
L 164.1614 137.82787 
L 164.1614 137.30502 
L 165.498667 137.30502 
L 165.575075 135.736471 
L 165.696625 135.736471 
L 165.696625 135.213621 
L 166.041362 135.213621 
L 166.085822 133.645071 
L 166.203821 133.645071 
L 166.203821 133.122221 
L 166.55303 133.122221 
L 166.55303 132.076521 
L 167.341247 132.076521 
L 167.450952 126.848022 
L 167.856215 126.848022 
L 167.936132 124.756622 
L 168.498238 124.756622 
L 168.498238 124.233772 
L 170.023174 124.233772 
L 170.023174 123.710922 
L 170.961971 123.710922 
L 170.961971 123.188072 
L 171.128284 123.188072 
L 171.128284 120.573823 
L 172.010034 120.573823 
L 172.010034 118.482423 
L 172.414025 118.482423 
L 172.414025 117.959573 
L 172.75863 117.959573 
L 172.788706 116.391023 
L 172.918434 116.391023 
L 172.928372 114.299623 
L 173.223885 114.299623 
L 173.282382 113.253924 
L 173.427758 113.253924 
L 173.427758 111.162524 
L 174.118198 111.162524 
L 174.118198 110.639674 
L 174.466909 110.639674 
L 174.466909 110.116824 
L 177.934475 110.116824 
L 177.934475 108.025424 
L 178.104356 108.025424 
L 178.104356 107.502574 
L 178.359686 107.502574 
L 178.359686 106.456874 
L 180.943057 106.456874 
L 180.943057 105.934024 
L 186.868759 105.934024 
L 186.868759 105.411175 
L 187.039944 105.411175 
L 187.039944 104.888325 
L 187.381559 104.888325 
L 187.381559 104.365475 
L 187.611218 104.365475 
L 187.619665 103.319775 
L 188.456129 103.319775 
L 188.456129 102.796925 
L 188.841873 102.796925 
L 188.841873 102.274075 
L 189.161338 102.274075 
L 189.161338 101.751225 
L 190.465364 101.751225 
L 190.465364 101.228375 
L 191.964912 101.228375 
L 191.964912 100.705525 
L 192.462501 100.705525 
L 192.462501 100.182675 
L 192.639925 100.182675 
L 192.639925 99.659825 
L 193.670579 99.659825 
L 193.670579 99.136975 
L 193.941517 99.136975 
L 193.941517 98.614125 
L 196.840855 98.614125 
L 196.840855 98.091275 
L 197.139323 98.091275 
L 197.156292 95.999876 
L 197.568058 95.999876 
L 197.641232 94.431326 
L 198.057763 94.431326 
L 198.15405 93.385626 
L 198.378898 93.385626 
L 198.464427 92.339926 
L 198.533887 92.339926 
L 198.533887 91.817076 
L 202.080916 91.817076 
L 202.080916 91.294226 
L 203.046288 91.294226 
L 203.046288 90.771376 
L 203.251373 90.771376 
L 203.251373 90.248526 
L 203.775053 90.248526 
L 203.775053 89.725677 
L 204.669207 89.725677 
L 204.669207 89.202827 
L 205.328979 89.202827 
L 205.328979 88.679977 
L 205.693859 88.679977 
L 205.693859 88.157127 
L 206.75386 88.157127 
L 206.75386 87.634277 
L 207.582754 87.634277 
L 207.69066 86.588577 
L 208.12842 86.588577 
L 208.12842 86.065727 
L 209.361813 86.065727 
L 209.361813 85.542877 
L 209.810528 85.542877 
L 209.810528 85.020027 
L 210.610171 85.020027 
L 210.612384 83.974327 
L 210.841013 83.974327 
L 210.841013 82.928627 
L 211.068791 82.928627 
L 211.068791 82.405778 
L 212.204835 82.405778 
L 212.204835 81.882928 
L 213.663891 81.882928 
L 213.663891 81.360078 
L 214.205505 81.360078 
L 214.205505 80.837228 
L 215.683825 80.837228 
L 215.683825 80.314378 
L 217.573751 80.314378 
L 217.573751 79.791528 
L 218.27621 79.791528 
L 218.27621 79.268678 
L 218.481743 79.268678 
L 218.481743 78.745828 
L 218.89582 78.745828 
L 218.89582 78.222978 
L 219.059642 78.222978 
L 219.059642 77.700128 
L 219.391961 77.700128 
L 219.391961 77.177278 
L 219.668417 77.177278 
L 219.668417 76.654428 
L 222.259882 76.654428 
L 222.259882 76.131578 
L 223.199438 76.131578 
L 223.199438 75.085878 
L 225.173728 75.085878 
L 225.173728 74.563029 
L 225.354722 74.563029 
L 225.354722 74.040179 
L 226.048498 74.040179 
L 226.048498 73.517329 
L 226.456091 73.517329 
L 226.456091 72.994479 
L 227.322969 72.994479 
L 227.322969 72.471629 
L 227.531572 72.471629 
L 227.562934 71.425929 
L 227.806096 71.425929 
L 227.806096 70.903079 
L 232.990641 70.903079 
L 232.990641 70.380229 
L 234.428384 70.380229 
L 234.428384 69.857379 
L 235.065918 69.857379 
L 235.065918 69.334529 
L 236.397742 69.334529 
L 236.397742 68.811679 
L 237.984569 68.811679 
L 238.01465 67.765979 
L 239.290682 67.765979 
L 239.290682 67.243129 
L 241.316073 67.243129 
L 241.316073 66.72028 
L 241.477419 66.72028 
L 241.477419 66.19743 
L 242.362391 66.19743 
L 242.362391 65.67458 
L 243.656514 65.67458 
L 243.656514 65.15173 
L 247.692313 65.15173 
L 247.692313 64.62888 
L 248.650977 64.62888 
L 248.650977 64.10603 
L 333.569032 64.10603 
L 333.569032 64.10603 
" style="fill:none;stroke:#00bfbf;stroke-linecap:square;stroke-width:1.5;"/>
   </g>
   <g id="line2d_25">
    <defs>
     <path d="M -6 0 
L 6 0 
M 0 6 
L 0 -6 
" id="mb99da2b602" style="stroke:#00bfbf;stroke-width:1.5;"/>
    </defs>
    <g>
     <use style="fill-opacity:0;stroke:#00bfbf;stroke-width:1.5;" x="102.149557" xlink:href="#mb99da2b602" y="234.032258"/>
     <use style="fill-opacity:0;stroke:#00bfbf;stroke-width:1.5;" x="151.255157" xlink:href="#mb99da2b602" y="168.676016"/>
     <use style="fill-opacity:0;stroke:#00bfbf;stroke-width:1.5;" x="197.139323" xlink:href="#mb99da2b602" y="98.091275"/>
     <use style="fill-opacity:0;stroke:#00bfbf;stroke-width:1.5;" x="248.650977" xlink:href="#mb99da2b602" y="64.62888"/>
     <use style="fill-opacity:0;stroke:#00bfbf;stroke-width:1.5;" x="248.650977" xlink:href="#mb99da2b602" y="64.10603"/>
     <use style="fill-opacity:0;stroke:#00bfbf;stroke-width:1.5;" x="333.569032" xlink:href="#mb99da2b602" y="64.10603"/>
    </g>
   </g>
   <g id="line2d_26">
    <path style="fill:none;stroke:#00bfbf;stroke-linecap:square;stroke-width:1.5;"/>
    <g/>
   </g>
   <g id="line2d_27">
    <path clip-path="url(#p169823919d)" d="M 181.276203 105.934024 
" style="fill:none;stroke:#00bfbf;stroke-linecap:square;stroke-width:1.5;"/>
    <defs>
     <path d="M -12 12 
L 12 -12 
M -12 -12 
L 12 12 
" id="m8cfb32aa0b" style="stroke:#00bfbf;stroke-width:3;"/>
    </defs>
    <g clip-path="url(#p169823919d)">
     <use style="fill:#00bfbf;stroke:#00bfbf;stroke-width:3;" x="181.276203" xlink:href="#m8cfb32aa0b" y="105.934024"/>
    </g>
   </g>
   <g id="line2d_28">
    <defs>
     <path d="M 0 1.5 
C 0.397805 1.5 0.77937 1.341951 1.06066 1.06066 
C 1.341951 0.77937 1.5 0.397805 1.5 0 
C 1.5 -0.397805 1.341951 -0.77937 1.06066 -1.06066 
C 0.77937 -1.341951 0.397805 -1.5 0 -1.5 
C -0.397805 -1.5 -0.77937 -1.341951 -1.06066 -1.06066 
C -1.341951 -0.77937 -1.5 -0.397805 -1.5 0 
C -1.5 0.397805 -1.341951 0.77937 -1.06066 1.06066 
C -0.77937 1.341951 -0.397805 1.5 0 1.5 
z
" id="m8e4f239562" style="stroke:#008000;"/>
    </defs>
    <g>
     <use style="fill:#008000;stroke:#008000;" x="249.284324" xlink:href="#m8e4f239562" y="105.934024"/>
     <use style="fill:#008000;stroke:#008000;" x="249.284324" xlink:href="#m8e4f239562" y="105.934024"/>
    </g>
   </g>
   <g id="line2d_29">
    <path d="M 37.9781 294.16 
L 37.9781 273.768853 
L 49.878634 273.768853 
L 49.878634 270.108903 
L 56.84 270.108903 
L 56.84 263.311854 
L 61.779168 263.311854 
L 61.779168 262.266154 
L 65.610284 262.266154 
L 65.610284 261.220454 
L 68.740534 261.220454 
L 68.740534 260.697604 
L 73.679702 260.697604 
L 73.679702 259.651904 
L 79.147184 259.651904 
L 79.147184 253.377705 
L 84.472185 253.377705 
L 84.472185 249.194906 
L 92.541603 249.194906 
L 92.541603 248.149206 
L 93.242469 248.149206 
L 93.242469 245.012106 
L 96.935682 245.012106 
L 96.935682 244.489256 
L 99.019308 244.489256 
L 99.019308 240.306457 
L 104.080674 240.306457 
L 104.080674 237.692207 
L 106.143413 237.692207 
L 106.143413 236.646507 
L 110.919842 236.646507 
L 110.919842 236.123658 
L 111.873912 236.123658 
L 111.873912 235.077958 
L 112.996458 235.077958 
L 112.996458 232.463708 
L 115.042787 232.463708 
L 115.042787 231.940858 
L 117.716912 231.940858 
L 117.716912 230.895158 
L 118.523109 230.895158 
L 118.523109 229.849458 
L 120.457576 229.849458 
L 120.457576 228.803758 
L 121.281839 228.803758 
L 121.281839 228.280909 
L 124.232309 228.280909 
L 124.232309 227.758059 
L 125.641269 227.758059 
L 125.641269 226.189509 
L 132.706375 226.189509 
L 132.706375 225.666659 
L 134.843109 225.666659 
L 134.843109 225.143809 
L 135.732885 225.143809 
L 135.732885 224.620959 
L 135.848113 224.620959 
L 135.848113 224.098109 
L 137.697178 224.098109 
L 137.697178 223.052409 
L 138.054344 223.052409 
L 138.054344 222.529559 
L 140.009081 222.529559 
L 140.009081 222.006709 
L 141.88546 222.006709 
L 141.88546 221.483859 
L 142.046294 221.483859 
L 142.046294 220.96101 
L 143.281439 220.96101 
L 143.281439 220.43816 
L 143.429767 220.43816 
L 143.429767 219.91531 
L 144.081827 219.91531 
L 144.081827 219.39246 
L 144.914419 219.39246 
L 144.914419 218.86961 
L 146.155293 218.86961 
L 146.218183 217.30106 
L 147.777333 217.30106 
L 147.777333 216.25536 
L 148.313462 216.25536 
L 148.341221 214.16396 
L 149.726126 214.16396 
L 149.726126 213.64111 
L 149.929611 213.64111 
L 149.929611 213.118261 
L 150.105704 213.118261 
L 150.105704 212.595411 
L 150.983847 212.595411 
L 150.983847 212.072561 
L 152.021904 212.072561 
L 152.021904 211.549711 
L 152.310463 211.549711 
L 152.310463 211.026861 
L 152.766588 211.026861 
L 152.852111 208.935461 
L 153.042996 208.935461 
L 153.042996 208.412611 
L 154.710013 208.412611 
L 154.710013 207.889761 
L 154.957051 207.889761 
L 154.957051 207.366911 
L 155.513927 207.366911 
L 155.550418 206.321211 
L 155.641307 206.321211 
L 155.641307 204.752662 
L 156.264402 204.752662 
L 156.264402 203.706962 
L 157.24963 203.706962 
L 157.24963 203.184112 
L 157.865765 203.184112 
L 157.865765 202.661262 
L 158.383457 202.661262 
L 158.460551 201.092712 
L 158.795713 201.092712 
L 158.795713 200.569862 
L 159.065151 200.569862 
L 159.065151 199.001312 
L 159.706506 199.001312 
L 159.706506 198.478462 
L 160.297139 198.478462 
L 160.297139 197.432763 
L 164.440574 197.432763 
L 164.548827 194.295663 
L 164.656401 194.295663 
L 164.731304 191.681413 
L 164.954073 191.681413 
L 164.964609 190.635713 
L 165.797263 190.635713 
L 165.797263 188.544314 
L 165.976939 188.544314 
L 165.976939 186.452914 
L 166.252749 186.452914 
L 166.252749 185.407214 
L 166.581813 185.407214 
L 166.658332 183.838664 
L 167.063876 183.838664 
L 167.138281 179.655865 
L 167.276927 179.655865 
L 167.276927 179.133015 
L 167.469168 179.133015 
L 167.487365 177.564465 
L 167.829493 177.564465 
L 167.829493 176.518765 
L 168.22602 176.518765 
L 168.260827 174.427366 
L 168.425206 174.427366 
L 168.425206 173.904516 
L 168.613595 173.904516 
L 168.630619 172.858816 
L 169.444775 172.858816 
L 169.4691 170.767416 
L 169.726436 170.767416 
L 169.726436 169.198866 
L 170.034938 169.198866 
L 170.034938 168.676016 
L 170.414846 168.676016 
L 170.414846 168.153166 
L 170.696247 168.153166 
L 170.711327 166.584617 
L 171.325755 166.584617 
L 171.39832 163.970367 
L 171.441712 163.970367 
L 171.499398 161.356117 
L 171.649909 161.356117 
L 171.671303 155.081918 
L 172.301038 155.081918 
L 172.376445 149.853419 
L 172.6007 149.853419 
L 172.6007 149.330569 
L 173.210858 149.330569 
L 173.262905 147.239169 
L 173.469527 147.239169 
L 173.469527 141.48782 
L 174.074882 141.48782 
L 174.074882 140.96497 
L 174.229085 140.96497 
L 174.229085 139.91927 
L 176.901969 139.91927 
L 176.901969 138.87357 
L 179.465022 138.87357 
L 179.465022 138.35072 
L 179.872066 138.35072 
L 179.872066 137.82787 
L 180.07421 137.82787 
L 180.07421 137.30502 
L 180.471495 137.30502 
L 180.471495 136.78217 
L 180.594844 136.78217 
L 180.594844 136.259321 
L 181.128936 136.259321 
L 181.128936 134.690771 
L 181.280276 134.690771 
L 181.280276 133.645071 
L 181.490741 133.645071 
L 181.490741 133.122221 
L 189.83501 133.122221 
L 189.83501 131.553671 
L 190.083108 131.553671 
L 190.083108 131.030821 
L 190.480859 131.030821 
L 190.480859 128.939421 
L 193.14412 128.939421 
L 193.14412 128.416572 
L 197.412811 128.416572 
L 197.412811 127.893722 
L 198.855831 127.893722 
L 198.855831 126.325172 
L 200.974158 126.325172 
L 200.974158 125.802322 
L 202.475261 125.802322 
L 202.475261 125.279472 
L 203.509911 125.279472 
L 203.509911 124.756622 
L 204.17732 124.756622 
L 204.285364 123.188072 
L 204.460423 123.188072 
L 204.460423 122.142372 
L 208.457723 122.142372 
L 208.457723 121.619522 
L 208.703507 121.619522 
L 208.703507 121.096672 
L 210.814058 121.096672 
L 210.814058 120.573823 
L 212.062382 120.573823 
L 212.082708 119.528123 
L 214.734036 119.528123 
L 214.734036 119.005273 
L 214.887692 119.005273 
L 214.887692 118.482423 
L 217.179768 118.482423 
L 217.179768 117.959573 
L 217.328074 117.959573 
L 217.328074 117.436723 
L 218.635912 117.436723 
L 218.635912 116.913873 
L 219.320147 116.913873 
L 219.320147 115.868173 
L 221.32847 115.868173 
L 221.340321 114.822473 
L 223.989674 114.822473 
L 223.989674 114.299623 
L 224.493264 114.299623 
L 224.493264 113.776773 
L 225.458185 113.776773 
L 225.458185 113.253924 
L 225.921043 113.253924 
L 225.921043 112.731074 
L 228.463235 112.731074 
L 228.463235 112.208224 
L 229.233347 112.208224 
L 229.233347 111.685374 
L 229.970394 111.685374 
L 229.970394 111.162524 
L 230.327381 111.162524 
L 230.327381 110.639674 
L 231.685434 110.639674 
L 231.685434 110.116824 
L 234.116377 110.116824 
L 234.116377 109.593974 
L 234.946013 109.593974 
L 234.946013 109.071124 
L 235.737401 109.071124 
L 235.737401 108.548274 
L 236.493911 108.548274 
L 236.493911 107.502574 
L 236.738851 107.502574 
L 236.738851 106.979724 
L 241.209895 106.979724 
L 241.209895 106.456874 
L 249.284324 106.456874 
L 249.284324 105.934024 
L 333.569032 105.934024 
L 333.569032 105.934024 
" style="fill:none;stroke:#008000;stroke-linecap:square;stroke-width:1.5;"/>
   </g>
   <g id="line2d_30">
    <defs>
     <path d="M -0 6 
L 6 -6 
L -6 -6 
z
" id="mc013615c77" style="stroke:#008000;stroke-linejoin:miter;stroke-width:1.5;"/>
    </defs>
    <g>
     <use style="fill-opacity:0;stroke:#008000;stroke-linejoin:miter;stroke-width:1.5;" x="121.281839" xlink:href="#mc013615c77" y="228.280909"/>
     <use style="fill-opacity:0;stroke:#008000;stroke-linejoin:miter;stroke-width:1.5;" x="171.499398" xlink:href="#mc013615c77" y="161.356117"/>
     <use style="fill-opacity:0;stroke:#008000;stroke-linejoin:miter;stroke-width:1.5;" x="241.209895" xlink:href="#mc013615c77" y="106.456874"/>
     <use style="fill-opacity:0;stroke:#008000;stroke-linejoin:miter;stroke-width:1.5;" x="249.284324" xlink:href="#mc013615c77" y="105.934024"/>
     <use style="fill-opacity:0;stroke:#008000;stroke-linejoin:miter;stroke-width:1.5;" x="249.284324" xlink:href="#mc013615c77" y="105.934024"/>
     <use style="fill-opacity:0;stroke:#008000;stroke-linejoin:miter;stroke-width:1.5;" x="333.569032" xlink:href="#mc013615c77" y="105.934024"/>
    </g>
   </g>
   <g id="line2d_31">
    <path style="fill:none;stroke:#008000;stroke-linecap:square;stroke-width:1.5;"/>
    <g/>
   </g>
   <g id="line2d_32">
    <path clip-path="url(#p169823919d)" d="M 182.513602 133.122221 
" style="fill:none;stroke:#008000;stroke-linecap:square;stroke-width:1.5;"/>
    <defs>
     <path d="M -12 12 
L 12 -12 
M -12 -12 
L 12 12 
" id="m7a485638b6" style="stroke:#008000;stroke-width:3;"/>
    </defs>
    <g clip-path="url(#p169823919d)">
     <use style="fill:#008000;stroke:#008000;stroke-width:3;" x="182.513602" xlink:href="#m7a485638b6" y="133.122221"/>
    </g>
   </g>
   <g id="line2d_33">
    <defs>
     <path d="M 0 1.5 
C 0.397805 1.5 0.77937 1.341951 1.06066 1.06066 
C 1.341951 0.77937 1.5 0.397805 1.5 0 
C 1.5 -0.397805 1.341951 -0.77937 1.06066 -1.06066 
C 0.77937 -1.341951 0.397805 -1.5 0 -1.5 
C -0.397805 -1.5 -0.77937 -1.341951 -1.06066 -1.06066 
C -1.341951 -0.77937 -1.5 -0.397805 -1.5 0 
C -1.5 0.397805 -1.341951 0.77937 -1.06066 1.06066 
C -0.77937 1.341951 -0.397805 1.5 0 1.5 
z
" id="m04e3bf9c36" style="stroke:#0000ff;"/>
    </defs>
    <g>
     <use style="fill:#0000ff;stroke:#0000ff;" x="246.227961" xlink:href="#m04e3bf9c36" y="152.990518"/>
     <use style="fill:#0000ff;stroke:#0000ff;" x="246.227961" xlink:href="#m04e3bf9c36" y="152.990518"/>
    </g>
   </g>
   <g id="line2d_34">
    <path d="M 29.207815 294.16 
L 29.207815 279.520202 
L 41.10835 279.520202 
L 41.10835 274.814553 
L 48.069716 274.814553 
L 48.069716 272.200303 
L 64.909418 272.200303 
L 64.909418 271.154603 
L 66.931616 271.154603 
L 66.931616 270.631753 
L 68.740534 270.631753 
L 68.740534 269.063203 
L 80.641068 269.063203 
L 80.641068 268.540353 
L 85.145559 268.540353 
L 85.145559 265.926104 
L 85.793517 265.926104 
L 85.793517 264.880404 
L 87.602435 264.880404 
L 87.602435 263.834704 
L 89.751341 263.834704 
L 89.751341 263.311854 
L 92.541603 263.311854 
L 92.541603 262.266154 
L 95.671853 262.266154 
L 95.671853 259.651904 
L 99.502969 259.651904 
L 99.502969 258.606205 
L 100.065932 258.606205 
L 100.065932 258.083355 
L 102.633219 258.083355 
L 102.633219 256.514805 
L 115.348698 256.514805 
L 115.348698 255.991955 
L 115.797583 255.991955 
L 115.797583 254.946255 
L 120.681278 254.946255 
L 120.681278 254.423405 
L 121.011458 254.423405 
L 121.011458 252.854855 
L 129.879571 252.854855 
L 129.879571 251.809156 
L 132.540089 251.809156 
L 132.540089 251.286306 
L 132.83004 251.286306 
L 132.83004 250.763456 
L 132.952822 250.763456 
L 132.952822 250.240606 
L 135.27596 250.240606 
L 135.27596 249.194906 
L 137.290241 249.194906 
L 137.290241 248.672056 
L 137.447899 248.672056 
L 137.447899 248.149206 
L 138.978363 248.149206 
L 138.978363 247.103506 
L 141.00694 247.103506 
L 141.00694 246.580656 
L 144.188136 246.580656 
L 144.188136 246.057806 
L 145.116408 246.057806 
L 145.156522 244.489256 
L 149.62862 244.489256 
L 149.674876 242.920707 
L 150.010335 242.920707 
L 150.010335 242.397857 
L 150.850162 242.397857 
L 150.850162 241.875007 
L 150.993356 241.875007 
L 150.993356 241.352157 
L 151.554479 241.352157 
L 151.554479 240.829307 
L 151.691941 240.829307 
L 151.691941 239.783607 
L 152.151245 239.783607 
L 152.151245 239.260757 
L 155.118544 239.260757 
L 155.152154 238.215057 
L 155.95034 238.215057 
L 155.95034 237.692207 
L 156.538443 237.692207 
L 156.538443 237.169357 
L 157.256233 237.169357 
L 157.256233 236.123658 
L 157.472691 236.123658 
L 157.472691 235.077958 
L 157.907124 235.077958 
L 157.907124 234.032258 
L 158.349426 234.032258 
L 158.367997 232.463708 
L 159.023515 232.463708 
L 159.032445 230.895158 
L 159.637693 230.895158 
L 159.637693 230.372308 
L 160.138823 230.372308 
L 160.138823 229.849458 
L 160.26393 229.849458 
L 160.26393 229.326608 
L 160.609458 229.326608 
L 160.609458 228.280909 
L 160.747361 228.280909 
L 160.747361 227.758059 
L 161.217551 227.758059 
L 161.217551 227.235209 
L 161.590801 227.235209 
L 161.590801 226.189509 
L 161.941043 226.189509 
L 161.941043 225.666659 
L 162.262105 225.666659 
L 162.32118 224.098109 
L 162.562741 224.098109 
L 162.599047 223.052409 
L 162.707505 223.052409 
L 162.707505 222.529559 
L 163.148668 222.529559 
L 163.204775 220.43816 
L 163.489482 220.43816 
L 163.489482 219.91531 
L 163.626669 219.91531 
L 163.626669 219.39246 
L 164.018422 219.39246 
L 164.025099 218.34676 
L 164.486123 218.34676 
L 164.486123 217.30106 
L 164.865312 217.30106 
L 164.871667 215.20966 
L 165.279796 215.20966 
L 165.279796 214.68681 
L 166.900924 214.68681 
L 166.900924 213.118261 
L 167.264034 213.118261 
L 167.264034 212.072561 
L 167.619622 212.072561 
L 167.684471 209.458311 
L 167.898884 209.458311 
L 167.930816 207.889761 
L 168.142192 207.889761 
L 168.142192 207.366911 
L 168.598259 207.366911 
L 168.664617 205.275512 
L 168.836965 205.275512 
L 168.836965 204.752662 
L 168.982614 204.752662 
L 168.982614 204.229812 
L 169.255495 204.229812 
L 169.363445 202.661262 
L 169.635202 202.661262 
L 169.644828 201.092712 
L 169.855257 201.092712 
L 169.893241 196.387063 
L 170.067833 196.387063 
L 170.067833 195.864213 
L 170.226718 195.864213 
L 170.226718 195.341363 
L 170.48983 195.341363 
L 170.48983 193.772813 
L 170.838977 193.772813 
L 170.838977 192.727113 
L 171.066382 192.727113 
L 171.145929 190.635713 
L 171.299556 190.635713 
L 171.404112 186.975764 
L 171.421476 186.975764 
L 171.421476 184.361514 
L 171.709746 184.361514 
L 171.709746 183.838664 
L 171.955443 183.838664 
L 172.018417 181.224415 
L 172.214253 181.224415 
L 172.214253 180.701565 
L 172.530341 180.701565 
L 172.530341 178.610165 
L 172.73252 178.610165 
L 172.73252 178.087315 
L 173.826497 178.087315 
L 173.894254 175.473065 
L 174.499581 175.473065 
L 174.575573 174.427366 
L 174.701485 174.427366 
L 174.701485 173.381666 
L 174.964696 173.381666 
L 174.964696 172.858816 
L 175.248253 172.858816 
L 175.248253 172.335966 
L 175.707304 172.335966 
L 175.707304 171.290266 
L 175.908937 171.290266 
L 175.908937 170.767416 
L 176.328072 170.767416 
L 176.354135 169.721716 
L 176.708542 169.721716 
L 176.708542 169.198866 
L 177.002575 169.198866 
L 177.002575 166.061767 
L 177.189635 166.061767 
L 177.189635 165.016067 
L 179.815391 165.016067 
L 179.815391 163.970367 
L 180.326602 163.970367 
L 180.326602 163.447517 
L 180.638864 163.447517 
L 180.638864 162.924667 
L 181.636546 162.924667 
L 181.636546 161.878967 
L 189.748689 161.878967 
L 189.748689 161.356117 
L 192.708501 161.356117 
L 192.708501 160.310417 
L 193.355436 160.310417 
L 193.355436 159.787567 
L 198.353156 159.787567 
L 198.353156 159.264718 
L 200.773052 159.264718 
L 200.773052 158.741868 
L 205.093761 158.741868 
L 205.093761 158.219018 
L 205.678822 158.219018 
L 205.678822 157.696168 
L 205.864826 157.696168 
L 205.864826 157.173318 
L 209.483724 157.173318 
L 209.483724 156.650468 
L 209.786859 156.650468 
L 209.786859 155.604768 
L 212.977454 155.604768 
L 212.977454 155.081918 
L 225.027929 155.081918 
L 225.027929 154.559068 
L 227.695831 154.559068 
L 227.695831 154.036218 
L 232.972479 154.036218 
L 232.972479 153.513368 
L 246.227961 153.513368 
L 246.227961 152.990518 
L 333.569032 152.990518 
L 333.569032 152.990518 
" style="fill:none;stroke:#0000ff;stroke-linecap:square;stroke-width:1.5;"/>
   </g>
   <g id="line2d_35">
    <defs>
     <path d="M 0 -6 
L -1.347084 -1.854102 
L -5.706339 -1.854102 
L -2.179628 0.708204 
L -3.526712 4.854102 
L -0 2.291796 
L 3.526712 4.854102 
L 2.179628 0.708204 
L 5.706339 -1.854102 
L 1.347084 -1.854102 
z
" id="m01e8d5358d" style="stroke:#0000ff;stroke-linejoin:bevel;stroke-width:1.5;"/>
    </defs>
    <g>
     <use style="fill-opacity:0;stroke:#0000ff;stroke-linejoin:bevel;stroke-width:1.5;" x="121.011458" xlink:href="#m01e8d5358d" y="254.423405"/>
     <use style="fill-opacity:0;stroke:#0000ff;stroke-linejoin:bevel;stroke-width:1.5;" x="172.214253" xlink:href="#m01e8d5358d" y="180.701565"/>
     <use style="fill-opacity:0;stroke:#0000ff;stroke-linejoin:bevel;stroke-width:1.5;" x="246.227961" xlink:href="#m01e8d5358d" y="153.513368"/>
     <use style="fill-opacity:0;stroke:#0000ff;stroke-linejoin:bevel;stroke-width:1.5;" x="246.227961" xlink:href="#m01e8d5358d" y="152.990518"/>
     <use style="fill-opacity:0;stroke:#0000ff;stroke-linejoin:bevel;stroke-width:1.5;" x="246.227961" xlink:href="#m01e8d5358d" y="152.990518"/>
     <use style="fill-opacity:0;stroke:#0000ff;stroke-linejoin:bevel;stroke-width:1.5;" x="333.569032" xlink:href="#m01e8d5358d" y="152.990518"/>
    </g>
   </g>
   <g id="line2d_36">
    <path style="fill:none;stroke:#0000ff;stroke-linecap:square;stroke-width:1.5;"/>
    <g/>
   </g>
   <g id="line2d_37">
    <path clip-path="url(#p169823919d)" d="M 182.513602 161.878967 
" style="fill:none;stroke:#0000ff;stroke-linecap:square;stroke-width:1.5;"/>
    <defs>
     <path d="M -12 12 
L 12 -12 
M -12 -12 
L 12 12 
" id="m779f7dc970" style="stroke:#0000ff;stroke-width:3;"/>
    </defs>
    <g clip-path="url(#p169823919d)">
     <use style="fill:#0000ff;stroke:#0000ff;stroke-width:3;" x="182.513602" xlink:href="#m779f7dc970" y="161.878967"/>
    </g>
   </g>
   <g id="line2d_38">
    <defs>
     <path d="M 0 1.5 
C 0.397805 1.5 0.77937 1.341951 1.06066 1.06066 
C 1.341951 0.77937 1.5 0.397805 1.5 0 
C 1.5 -0.397805 1.341951 -0.77937 1.06066 -1.06066 
C 0.77937 -1.341951 0.397805 -1.5 0 -1.5 
C -0.397805 -1.5 -0.77937 -1.341951 -1.06066 -1.06066 
C -1.341951 -0.77937 -1.5 -0.397805 -1.5 0 
C -1.5 0.397805 -1.341951 0.77937 -1.06066 1.06066 
C -0.77937 1.341951 -0.397805 1.5 0 1.5 
z
" id="m60ca80be23" style="stroke:#000000;"/>
    </defs>
    <g>
     <use style="stroke:#000000;" x="221.748471" xlink:href="#m60ca80be23" y="179.133015"/>
     <use style="stroke:#000000;" x="221.748471" xlink:href="#m60ca80be23" y="179.133015"/>
    </g>
   </g>
   <g id="line2d_39">
    <path d="M 17.307281 294.16 
L 17.307281 293.1143 
L 36.169182 293.1143 
L 36.169182 289.454351 
L 41.10835 289.454351 
L 41.10835 287.362951 
L 44.939466 287.362951 
L 44.939466 286.317251 
L 48.069716 286.317251 
L 48.069716 285.794401 
L 53.008884 285.794401 
L 53.008884 284.748701 
L 56.84 284.748701 
L 56.84 284.225851 
L 59.97025 284.225851 
L 59.97025 283.703001 
L 61.344491 283.703001 
L 61.344491 283.180151 
L 69.578205 283.180151 
L 69.578205 282.134452 
L 74.517373 282.134452 
L 74.517373 281.088752 
L 77.850807 281.088752 
L 77.850807 280.565902 
L 79.760422 280.565902 
L 79.760422 278.997352 
L 81.88273 278.997352 
L 81.88273 278.474502 
L 87.313876 278.474502 
L 87.313876 277.951652 
L 90.492557 277.951652 
L 90.492557 277.428802 
L 91.433551 277.428802 
L 91.433551 276.383102 
L 92.325639 276.383102 
L 92.325639 275.337402 
L 104.226174 275.337402 
L 104.226174 274.814553 
L 112.57849 274.814553 
L 112.57849 274.291703 
L 132.11719 274.291703 
L 132.11719 273.768853 
L 136.562296 273.768853 
L 136.562296 272.723153 
L 137.80511 272.723153 
L 137.80511 272.200303 
L 143.769755 272.200303 
L 143.769755 271.677453 
L 144.617249 271.677453 
L 144.617249 270.631753 
L 145.30612 270.631753 
L 145.335884 269.586053 
L 145.977967 269.586053 
L 145.977967 269.063203 
L 147.650753 269.063203 
L 147.650753 267.494653 
L 151.575169 267.494653 
L 151.609596 264.880404 
L 152.211125 264.880404 
L 152.211125 264.357554 
L 152.455126 264.357554 
L 152.455126 263.834704 
L 156.019644 263.834704 
L 156.019644 263.311854 
L 156.419305 263.311854 
L 156.419305 262.789004 
L 156.667011 262.789004 
L 156.702838 261.220454 
L 157.097076 261.220454 
L 157.097076 260.697604 
L 157.320471 260.697604 
L 157.340188 259.129055 
L 157.570186 259.129055 
L 157.570186 258.083355 
L 157.959475 258.083355 
L 157.959475 257.560505 
L 158.200131 257.560505 
L 158.200131 256.514805 
L 159.148121 256.514805 
L 159.192405 255.469105 
L 159.719378 255.469105 
L 159.719378 254.946255 
L 160.26393 254.946255 
L 160.26393 253.900555 
L 160.795769 253.900555 
L 160.799797 252.854855 
L 161.007955 252.854855 
L 161.007955 251.809156 
L 161.933504 251.809156 
L 161.95611 250.763456 
L 162.606298 250.763456 
L 162.613547 249.717756 
L 163.064161 249.717756 
L 163.064161 249.194906 
L 163.211776 249.194906 
L 163.211776 248.672056 
L 163.340774 248.672056 
L 163.340774 248.149206 
L 163.506691 248.149206 
L 163.537622 247.103506 
L 163.800007 247.103506 
L 163.800007 246.057806 
L 163.948161 246.057806 
L 163.948161 245.534956 
L 164.108338 245.534956 
L 164.108338 245.012106 
L 164.220899 245.012106 
L 164.227497 243.966407 
L 164.424277 243.966407 
L 164.424277 242.920707 
L 164.641381 242.920707 
L 164.641381 242.397857 
L 164.798439 242.397857 
L 164.86849 240.829307 
L 165.067524 240.829307 
L 165.067524 240.306457 
L 165.507854 240.306457 
L 165.617716 238.737907 
L 165.651145 238.737907 
L 165.745005 237.692207 
L 165.850363 237.692207 
L 165.850363 236.646507 
L 166.002737 236.646507 
L 166.05916 235.077958 
L 166.847205 235.077958 
L 166.847205 234.555108 
L 166.982594 234.555108 
L 166.982594 233.509408 
L 167.230836 233.509408 
L 167.230836 232.986558 
L 167.357747 232.986558 
L 167.409895 229.326608 
L 167.568109 229.326608 
L 167.568109 228.280909 
L 167.700646 228.280909 
L 167.730259 226.189509 
L 167.848203 226.189509 
L 167.848203 225.666659 
L 168.163188 225.666659 
L 168.163188 224.098109 
L 168.278205 224.098109 
L 168.278205 223.575259 
L 168.730719 223.575259 
L 168.783924 222.529559 
L 169.054977 222.529559 
L 169.097256 221.483859 
L 169.243185 221.483859 
L 169.243185 220.96101 
L 169.373225 220.96101 
L 169.380556 219.91531 
L 169.69048 219.91531 
L 169.788581 217.30106 
L 170.00198 217.30106 
L 170.100665 212.072561 
L 170.816519 212.072561 
L 170.894993 209.458311 
L 170.957514 209.458311 
L 170.957514 208.935461 
L 171.354092 208.935461 
L 171.354092 208.412611 
L 171.466974 208.412611 
L 171.542536 206.321211 
L 171.667026 206.321211 
L 171.667026 205.798361 
L 172.195599 205.798361 
L 172.278351 204.229812 
L 172.348377 204.229812 
L 172.348377 203.706962 
L 172.637793 203.706962 
L 172.637793 202.661262 
L 172.908489 202.661262 
L 173.009652 201.092712 
L 173.137727 201.092712 
L 173.137727 200.569862 
L 173.327095 200.569862 
L 173.327095 199.524162 
L 174.120052 199.524162 
L 174.2254 198.478462 
L 174.366693 198.478462 
L 174.366693 197.432763 
L 174.611642 197.432763 
L 174.611642 195.341363 
L 174.828258 195.341363 
L 174.828258 194.295663 
L 175.545981 194.295663 
L 175.59879 193.249963 
L 175.947314 193.249963 
L 175.947314 192.727113 
L 176.718106 192.727113 
L 176.718106 192.204263 
L 176.958632 192.204263 
L 177.007276 191.158563 
L 177.343976 191.158563 
L 177.343976 190.112864 
L 177.527373 190.112864 
L 177.527373 189.590014 
L 177.735886 189.590014 
L 177.735886 189.067164 
L 177.927051 189.067164 
L 177.927051 188.544314 
L 178.123454 188.544314 
L 178.123454 188.021464 
L 178.375609 188.021464 
L 178.375609 187.498614 
L 179.273393 187.498614 
L 179.273393 186.975764 
L 180.370456 186.975764 
L 180.370456 185.930064 
L 182.077175 185.930064 
L 182.077175 183.838664 
L 189.175228 183.838664 
L 189.175228 183.315814 
L 190.274697 183.315814 
L 190.274697 182.792964 
L 194.19731 182.792964 
L 194.19731 181.747265 
L 199.028912 181.747265 
L 199.028912 181.224415 
L 199.714598 181.224415 
L 199.714598 180.178715 
L 205.084297 180.178715 
L 205.084297 179.655865 
L 221.748471 179.655865 
L 221.748471 179.133015 
L 333.569032 179.133015 
L 333.569032 179.133015 
" style="fill:none;stroke:#000000;stroke-linecap:square;stroke-width:1.5;"/>
   </g>
   <g id="line2d_40">
    <defs>
     <path d="M 0 6 
C 1.591219 6 3.117479 5.367802 4.242641 4.242641 
C 5.367802 3.117479 6 1.591219 6 0 
C 6 -1.591219 5.367802 -3.117479 4.242641 -4.242641 
C 3.117479 -5.367802 1.591219 -6 0 -6 
C -1.591219 -6 -3.117479 -5.367802 -4.242641 -4.242641 
C -5.367802 -3.117479 -6 -1.591219 -6 0 
C -6 1.591219 -5.367802 3.117479 -4.242641 4.242641 
C -3.117479 5.367802 -1.591219 6 0 6 
z
" id="m6a6d3b6cc1" style="stroke:#000000;stroke-width:1.5;"/>
    </defs>
    <g>
     <use style="fill-opacity:0;stroke:#000000;stroke-width:1.5;" x="92.325639" xlink:href="#m6a6d3b6cc1" y="276.383102"/>
     <use style="fill-opacity:0;stroke:#000000;stroke-width:1.5;" x="164.641381" xlink:href="#m6a6d3b6cc1" y="242.397857"/>
     <use style="fill-opacity:0;stroke:#000000;stroke-width:1.5;" x="205.084297" xlink:href="#m6a6d3b6cc1" y="179.655865"/>
     <use style="fill-opacity:0;stroke:#000000;stroke-width:1.5;" x="221.748471" xlink:href="#m6a6d3b6cc1" y="179.133015"/>
     <use style="fill-opacity:0;stroke:#000000;stroke-width:1.5;" x="221.748471" xlink:href="#m6a6d3b6cc1" y="179.133015"/>
     <use style="fill-opacity:0;stroke:#000000;stroke-width:1.5;" x="333.569032" xlink:href="#m6a6d3b6cc1" y="179.133015"/>
    </g>
   </g>
   <g id="line2d_41">
    <path style="fill:none;stroke:#000000;stroke-linecap:square;stroke-width:1.5;"/>
    <g/>
   </g>
   <g id="line2d_42">
    <path clip-path="url(#p169823919d)" d="M 182.513602 183.838664 
" style="fill:none;stroke:#000000;stroke-linecap:square;stroke-width:1.5;"/>
    <defs>
     <path d="M -12 12 
L 12 -12 
M -12 -12 
L 12 12 
" id="m7bda6c24fe" style="stroke:#000000;stroke-width:3;"/>
    </defs>
    <g clip-path="url(#p169823919d)">
     <use style="stroke:#000000;stroke-width:3;" x="182.513602" xlink:href="#m7bda6c24fe" y="183.838664"/>
    </g>
   </g>
   <g id="line2d_43">
    <defs>
     <path d="M 0 1.5 
C 0.397805 1.5 0.77937 1.341951 1.06066 1.06066 
C 1.341951 0.77937 1.5 0.397805 1.5 0 
C 1.5 -0.397805 1.341951 -0.77937 1.06066 -1.06066 
C 0.77937 -1.341951 0.397805 -1.5 0 -1.5 
C -0.397805 -1.5 -0.77937 -1.341951 -1.06066 -1.06066 
C -1.341951 -0.77937 -1.5 -0.397805 -1.5 0 
C -1.5 0.397805 -1.341951 0.77937 -1.06066 1.06066 
C -0.77937 1.341951 -0.397805 1.5 0 1.5 
z
" id="m35b860facd" style="stroke:#ff0000;"/>
    </defs>
    <g>
     <use style="fill:#ff0000;stroke:#ff0000;" x="212.926376" xlink:href="#m35b860facd" y="200.047012"/>
     <use style="fill:#ff0000;stroke:#ff0000;" x="212.926376" xlink:href="#m35b860facd" y="200.047012"/>
    </g>
   </g>
   <g id="line2d_44">
    <path d="M 29.207815 294.16 
L 29.207815 293.1143 
L 33.038932 293.1143 
L 33.038932 292.0686 
L 55.031082 292.0686 
L 55.031082 291.54575 
L 61.344491 291.54575 
L 61.344491 291.0229 
L 67.859888 291.0229 
L 67.859888 289.454351 
L 70.762732 289.454351 
L 70.762732 288.931501 
L 74.517373 288.931501 
L 74.517373 287.885801 
L 78.592023 287.885801 
L 78.592023 286.840101 
L 81.681923 286.840101 
L 81.681923 286.317251 
L 92.754883 286.317251 
L 92.754883 285.794401 
L 117.231363 285.794401 
L 117.231363 284.225851 
L 120.302073 284.225851 
L 120.302073 283.703001 
L 123.884299 283.703001 
L 123.884299 283.180151 
L 131.339889 283.180151 
L 131.339889 282.657301 
L 138.913642 282.657301 
L 138.913642 280.043052 
L 139.750284 280.043052 
L 139.750284 279.520202 
L 141.385401 279.520202 
L 141.385401 278.997352 
L 143.139331 278.997352 
L 143.139331 278.474502 
L 145.882212 278.474502 
L 145.882212 277.428802 
L 146.444246 277.428802 
L 146.444246 276.905952 
L 150.235356 276.905952 
L 150.235356 276.383102 
L 150.687629 276.383102 
L 150.687629 275.860252 
L 151.160097 275.860252 
L 151.195366 274.814553 
L 151.661108 274.814553 
L 151.661108 273.768853 
L 152.064382 273.768853 
L 152.064382 273.246003 
L 152.737627 273.246003 
L 152.737627 272.723153 
L 153.582811 272.723153 
L 153.582811 272.200303 
L 153.95283 272.200303 
L 153.95283 271.677453 
L 154.099228 271.677453 
L 154.099228 271.154603 
L 155.448965 271.154603 
L 155.50936 269.063203 
L 155.566813 269.063203 
L 155.566813 268.540353 
L 156.489334 268.540353 
L 156.489334 268.017503 
L 157.174352 268.017503 
L 157.174352 267.494653 
L 157.345114 267.494653 
L 157.369722 265.926104 
L 158.106158 265.926104 
L 158.106158 265.403254 
L 158.879992 265.403254 
L 158.897998 264.357554 
L 159.50792 264.357554 
L 159.553453 262.789004 
L 159.73224 262.789004 
L 159.73224 262.266154 
L 159.904943 262.266154 
L 160.014905 261.220454 
L 160.278467 261.220454 
L 160.37988 259.129055 
L 160.447843 259.129055 
L 160.462225 257.037655 
L 160.717036 257.037655 
L 160.813887 255.991955 
L 161.079426 255.991955 
L 161.079426 255.469105 
L 161.414907 255.469105 
L 161.414907 254.946255 
L 161.986204 254.946255 
L 161.986204 254.423405 
L 162.154509 254.423405 
L 162.23249 252.854855 
L 162.931282 252.854855 
L 162.977463 251.809156 
L 163.069455 251.809156 
L 163.160957 250.240606 
L 163.187261 250.240606 
L 163.187261 249.717756 
L 163.307745 249.717756 
L 163.397989 248.672056 
L 163.613 248.672056 
L 163.618127 245.012106 
L 163.745815 245.012106 
L 163.745815 243.966407 
L 164.678371 243.966407 
L 164.732906 242.920707 
L 164.827131 242.920707 
L 164.846232 241.875007 
L 165.026642 241.875007 
L 165.091065 240.829307 
L 165.225417 240.829307 
L 165.254958 239.783607 
L 165.361814 239.783607 
L 165.449587 236.646507 
L 165.642034 236.646507 
L 165.642034 236.123658 
L 165.944636 236.123658 
L 166.033941 235.077958 
L 166.150822 235.077958 
L 166.21117 234.032258 
L 166.433064 234.032258 
L 166.433064 233.509408 
L 166.811772 233.509408 
L 166.916443 230.895158 
L 167.003652 230.895158 
L 167.097398 229.326608 
L 167.247443 229.326608 
L 167.247443 227.758059 
L 167.365992 227.758059 
L 167.461884 226.189509 
L 167.641266 226.189509 
L 167.735637 225.143809 
L 167.792012 225.143809 
L 167.894888 223.575259 
L 168.069825 223.575259 
L 168.130371 222.529559 
L 168.244303 222.529559 
L 168.244303 222.006709 
L 168.47121 222.006709 
L 168.472498 219.91531 
L 169.000109 219.91531 
L 169.081103 218.34676 
L 169.165428 218.34676 
L 169.165428 217.82391 
L 169.32672 217.82391 
L 169.380556 216.25536 
L 169.63159 216.25536 
L 169.716855 213.118261 
L 169.807658 213.118261 
L 169.875446 212.072561 
L 170.255766 212.072561 
L 170.255766 211.549711 
L 170.644875 211.549711 
L 170.644875 211.026861 
L 171.005368 211.026861 
L 171.005368 209.458311 
L 171.2766 209.458311 
L 171.2766 208.935461 
L 172.411977 208.935461 
L 172.411977 207.889761 
L 173.128891 207.889761 
L 173.128891 206.321211 
L 173.534549 206.321211 
L 173.534549 205.798361 
L 173.772665 205.798361 
L 173.772665 204.752662 
L 178.79793 204.752662 
L 178.79793 204.229812 
L 179.280944 204.229812 
L 179.280944 203.706962 
L 181.245627 203.706962 
L 181.245627 203.184112 
L 193.343035 203.184112 
L 193.343035 202.661262 
L 193.733097 202.661262 
L 193.791851 201.615562 
L 200.668911 201.615562 
L 200.668911 201.092712 
L 208.687134 201.092712 
L 208.687134 200.569862 
L 212.926376 200.569862 
L 212.926376 200.047012 
L 333.569032 200.047012 
L 333.569032 200.047012 
" style="fill:none;stroke:#ff0000;stroke-linecap:square;stroke-width:1.5;"/>
   </g>
   <g id="line2d_45">
    <defs>
     <path d="M -6 6 
L 6 6 
L 6 -6 
L -6 -6 
z
" id="m195c940ee1" style="stroke:#ff0000;stroke-linejoin:miter;stroke-width:1.5;"/>
    </defs>
    <g>
     <use style="fill-opacity:0;stroke:#ff0000;stroke-linejoin:miter;stroke-width:1.5;" x="74.517373" xlink:href="#m195c940ee1" y="288.931501"/>
     <use style="fill-opacity:0;stroke:#ff0000;stroke-linejoin:miter;stroke-width:1.5;" x="152.064382" xlink:href="#m195c940ee1" y="273.768853"/>
     <use style="fill-opacity:0;stroke:#ff0000;stroke-linejoin:miter;stroke-width:1.5;" x="200.668911" xlink:href="#m195c940ee1" y="201.092712"/>
     <use style="fill-opacity:0;stroke:#ff0000;stroke-linejoin:miter;stroke-width:1.5;" x="212.926376" xlink:href="#m195c940ee1" y="200.047012"/>
     <use style="fill-opacity:0;stroke:#ff0000;stroke-linejoin:miter;stroke-width:1.5;" x="212.926376" xlink:href="#m195c940ee1" y="200.047012"/>
     <use style="fill-opacity:0;stroke:#ff0000;stroke-linejoin:miter;stroke-width:1.5;" x="333.569032" xlink:href="#m195c940ee1" y="200.047012"/>
    </g>
   </g>
   <g id="line2d_46">
    <path style="fill:none;stroke:#ff0000;stroke-linecap:square;stroke-width:1.5;"/>
    <g/>
   </g>
   <g id="line2d_47">
    <path clip-path="url(#p169823919d)" d="M 182.513602 203.184112 
" style="fill:none;stroke:#ff0000;stroke-linecap:square;stroke-width:1.5;"/>
    <defs>
     <path d="M -12 12 
L 12 -12 
M -12 -12 
L 12 12 
" id="mb9ae1401a6" style="stroke:#ff0000;stroke-width:3;"/>
    </defs>
    <g clip-path="url(#p169823919d)">
     <use style="fill:#ff0000;stroke:#ff0000;stroke-width:3;" x="182.513602" xlink:href="#mb9ae1401a6" y="203.184112"/>
    </g>
   </g>
   <g id="line2d_48">
    <path d="M 333.569032 200.047012 
L 364.009226 288.826931 
" style="fill:none;stroke:#ff0000;stroke-linecap:square;stroke-width:1.5;"/>
    <g>
     <use style="fill-opacity:0;stroke:#ff0000;stroke-linejoin:miter;stroke-width:1.5;" x="333.569032" xlink:href="#m195c940ee1" y="200.047012"/>
     <use style="fill-opacity:0;stroke:#ff0000;stroke-linejoin:miter;stroke-width:1.5;" x="364.009226" xlink:href="#m195c940ee1" y="288.826931"/>
    </g>
   </g>
   <g id="line2d_49">
    <path d="M 333.569032 179.133015 
L 364.009226 224.830099 
" style="fill:none;stroke:#000000;stroke-linecap:square;stroke-width:1.5;"/>
    <g>
     <use style="fill-opacity:0;stroke:#000000;stroke-width:1.5;" x="333.569032" xlink:href="#m6a6d3b6cc1" y="179.133015"/>
     <use style="fill-opacity:0;stroke:#000000;stroke-width:1.5;" x="364.009226" xlink:href="#m6a6d3b6cc1" y="224.830099"/>
    </g>
   </g>
   <g id="line2d_50">
    <path d="M 333.569032 152.990518 
L 364.009226 160.833267 
" style="fill:none;stroke:#0000ff;stroke-linecap:square;stroke-width:1.5;"/>
    <g>
     <use style="fill-opacity:0;stroke:#0000ff;stroke-linejoin:bevel;stroke-width:1.5;" x="333.569032" xlink:href="#m01e8d5358d" y="152.990518"/>
     <use style="fill-opacity:0;stroke:#0000ff;stroke-linejoin:bevel;stroke-width:1.5;" x="364.009226" xlink:href="#m01e8d5358d" y="160.833267"/>
    </g>
   </g>
   <g id="line2d_51">
    <path d="M 333.569032 105.934024 
L 364.009226 96.836436 
" style="fill:none;stroke:#008000;stroke-linecap:square;stroke-width:1.5;"/>
    <g>
     <use style="fill-opacity:0;stroke:#008000;stroke-linejoin:miter;stroke-width:1.5;" x="333.569032" xlink:href="#mc013615c77" y="105.934024"/>
     <use style="fill-opacity:0;stroke:#008000;stroke-linejoin:miter;stroke-width:1.5;" x="364.009226" xlink:href="#mc013615c77" y="96.836436"/>
    </g>
   </g>
   <g id="line2d_52">
    <path d="M 333.569032 64.10603 
L 364.009226 32.839604 
" style="fill:none;stroke:#00bfbf;stroke-linecap:square;stroke-width:1.5;"/>
    <g>
     <use style="fill-opacity:0;stroke:#00bfbf;stroke-width:1.5;" x="333.569032" xlink:href="#mb99da2b602" y="64.10603"/>
     <use style="fill-opacity:0;stroke:#00bfbf;stroke-width:1.5;" x="364.009226" xlink:href="#mb99da2b602" y="32.839604"/>
    </g>
   </g>
   <g id="line2d_53">
    <path d="M 333.569032 294.16 
L 333.569032 27.506535 
" style="fill:none;stroke:#000000;stroke-linecap:square;stroke-width:1.5;"/>
   </g>
   <g id="patch_3">
    <path d="M 56.84 294.16 
L 56.84 24.84 
" style="fill:none;stroke:#000000;stroke-linecap:square;stroke-linejoin:miter;stroke-width:0.8;"/>
   </g>
   <g id="patch_4">
    <path d="M 399.984 294.16 
L 399.984 24.84 
" style="fill:none;stroke:#000000;stroke-linecap:square;stroke-linejoin:miter;stroke-width:0.8;"/>
   </g>
   <g id="patch_5">
    <path d="M 56.84 294.16 
L 399.984 294.16 
" style="fill:none;stroke:#000000;stroke-linecap:square;stroke-linejoin:miter;stroke-width:0.8;"/>
   </g>
   <g id="patch_6">
    <path d="M 56.84 24.84 
L 399.984 24.84 
" style="fill:none;stroke:#000000;stroke-linecap:square;stroke-linejoin:miter;stroke-width:0.8;"/>
   </g>
   <g id="text_14">
    <!-- 20-D -->
    <defs>
     <path d="M 19.671875 64.796875 
L 19.671875 8.109375 
L 31.59375 8.109375 
Q 46.6875 8.109375 53.6875 14.9375 
Q 60.6875 21.78125 60.6875 36.53125 
Q 60.6875 51.171875 53.6875 57.984375 
Q 46.6875 64.796875 31.59375 64.796875 
z
M 9.8125 72.90625 
L 30.078125 72.90625 
Q 51.265625 72.90625 61.171875 64.09375 
Q 71.09375 55.28125 71.09375 36.53125 
Q 71.09375 17.671875 61.125 8.828125 
Q 51.171875 0 30.078125 0 
L 9.8125 0 
z
" id="DejaVuSans-44"/>
    </defs>
    <g transform="translate(369.543806 293.517868)scale(0.17 -0.17)">
     <use xlink:href="#DejaVuSans-32"/>
     <use x="63.623047" xlink:href="#DejaVuSans-30"/>
     <use x="127.246094" xlink:href="#DejaVuSans-2d"/>
     <use x="163.330078" xlink:href="#DejaVuSans-44"/>
    </g>
   </g>
   <g id="text_15">
    <!-- 10-D -->
    <g transform="translate(369.543806 229.521037)scale(0.17 -0.17)">
     <use xlink:href="#DejaVuSans-31"/>
     <use x="63.623047" xlink:href="#DejaVuSans-30"/>
     <use x="127.246094" xlink:href="#DejaVuSans-2d"/>
     <use x="163.330078" xlink:href="#DejaVuSans-44"/>
    </g>
   </g>
   <g id="text_16">
    <!-- 5-D -->
    <defs>
     <path d="M 10.796875 72.90625 
L 49.515625 72.90625 
L 49.515625 64.59375 
L 19.828125 64.59375 
L 19.828125 46.734375 
Q 21.96875 47.46875 24.109375 47.828125 
Q 26.265625 48.1875 28.421875 48.1875 
Q 40.625 48.1875 47.75 41.5 
Q 54.890625 34.8125 54.890625 23.390625 
Q 54.890625 11.625 47.5625 5.09375 
Q 40.234375 -1.421875 26.90625 -1.421875 
Q 22.3125 -1.421875 17.546875 -0.640625 
Q 12.796875 0.140625 7.71875 1.703125 
L 7.71875 11.625 
Q 12.109375 9.234375 16.796875 8.0625 
Q 21.484375 6.890625 26.703125 6.890625 
Q 35.15625 6.890625 40.078125 11.328125 
Q 45.015625 15.765625 45.015625 23.390625 
Q 45.015625 31 40.078125 35.4375 
Q 35.15625 39.890625 26.703125 39.890625 
Q 22.75 39.890625 18.8125 39.015625 
Q 14.890625 38.140625 10.796875 36.28125 
z
" id="DejaVuSans-35"/>
    </defs>
    <g transform="translate(369.543806 165.524205)scale(0.17 -0.17)">
     <use xlink:href="#DejaVuSans-35"/>
     <use x="63.623047" xlink:href="#DejaVuSans-2d"/>
     <use x="99.707031" xlink:href="#DejaVuSans-44"/>
    </g>
   </g>
   <g id="text_17">
    <!-- 3-D -->
    <defs>
     <path d="M 40.578125 39.3125 
Q 47.65625 37.796875 51.625 33 
Q 55.609375 28.21875 55.609375 21.1875 
Q 55.609375 10.40625 48.1875 4.484375 
Q 40.765625 -1.421875 27.09375 -1.421875 
Q 22.515625 -1.421875 17.65625 -0.515625 
Q 12.796875 0.390625 7.625 2.203125 
L 7.625 11.71875 
Q 11.71875 9.328125 16.59375 8.109375 
Q 21.484375 6.890625 26.8125 6.890625 
Q 36.078125 6.890625 40.9375 10.546875 
Q 45.796875 14.203125 45.796875 21.1875 
Q 45.796875 27.640625 41.28125 31.265625 
Q 36.765625 34.90625 28.71875 34.90625 
L 20.21875 34.90625 
L 20.21875 43.015625 
L 29.109375 43.015625 
Q 36.375 43.015625 40.234375 45.921875 
Q 44.09375 48.828125 44.09375 54.296875 
Q 44.09375 59.90625 40.109375 62.90625 
Q 36.140625 65.921875 28.71875 65.921875 
Q 24.65625 65.921875 20.015625 65.03125 
Q 15.375 64.15625 9.8125 62.3125 
L 9.8125 71.09375 
Q 15.4375 72.65625 20.34375 73.4375 
Q 25.25 74.21875 29.59375 74.21875 
Q 40.828125 74.21875 47.359375 69.109375 
Q 53.90625 64.015625 53.90625 55.328125 
Q 53.90625 49.265625 50.4375 45.09375 
Q 46.96875 40.921875 40.578125 39.3125 
z
" id="DejaVuSans-33"/>
    </defs>
    <g transform="translate(369.543806 101.527373)scale(0.17 -0.17)">
     <use xlink:href="#DejaVuSans-33"/>
     <use x="63.623047" xlink:href="#DejaVuSans-2d"/>
     <use x="99.707031" xlink:href="#DejaVuSans-44"/>
    </g>
   </g>
   <g id="text_18">
    <!-- 2-D -->
    <g transform="translate(369.543806 37.530541)scale(0.17 -0.17)">
     <use xlink:href="#DejaVuSans-32"/>
     <use x="63.623047" xlink:href="#DejaVuSans-2d"/>
     <use x="99.707031" xlink:href="#DejaVuSans-44"/>
    </g>
   </g>
   <g id="text_19">
    <!-- bbob f1 -->
    <defs>
     <path d="M 48.6875 27.296875 
Q 48.6875 37.203125 44.609375 42.84375 
Q 40.53125 48.484375 33.40625 48.484375 
Q 26.265625 48.484375 22.1875 42.84375 
Q 18.109375 37.203125 18.109375 27.296875 
Q 18.109375 17.390625 22.1875 11.75 
Q 26.265625 6.109375 33.40625 6.109375 
Q 40.53125 6.109375 44.609375 11.75 
Q 48.6875 17.390625 48.6875 27.296875 
z
M 18.109375 46.390625 
Q 20.953125 51.265625 25.265625 53.625 
Q 29.59375 56 35.59375 56 
Q 45.5625 56 51.78125 48.09375 
Q 58.015625 40.1875 58.015625 27.296875 
Q 58.015625 14.40625 51.78125 6.484375 
Q 45.5625 -1.421875 35.59375 -1.421875 
Q 29.59375 -1.421875 25.265625 0.953125 
Q 20.953125 3.328125 18.109375 8.203125 
L 18.109375 0 
L 9.078125 0 
L 9.078125 75.984375 
L 18.109375 75.984375 
z
" id="DejaVuSans-62"/>
    </defs>
    <g transform="translate(60.27144 35.283606)scale(0.102 -0.102)">
     <use xlink:href="#DejaVuSans-62"/>
     <use x="63.476562" xlink:href="#DejaVuSans-62"/>
     <use x="126.953125" xlink:href="#DejaVuSans-6f"/>
     <use x="188.134766" xlink:href="#DejaVuSans-62"/>
     <use x="251.611328" xlink:href="#DejaVuSans-20"/>
     <use x="283.398438" xlink:href="#DejaVuSans-66"/>
     <use x="318.603516" xlink:href="#DejaVuSans-31"/>
    </g>
    <!-- 51 targets: 100..1e-08 -->
    <defs>
     <path d="M 11.71875 12.40625 
L 22.015625 12.40625 
L 22.015625 0 
L 11.71875 0 
z
M 11.71875 51.703125 
L 22.015625 51.703125 
L 22.015625 39.3125 
L 11.71875 39.3125 
z
" id="DejaVuSans-3a"/>
    </defs>
    <g transform="translate(60.27144 46.705375)scale(0.102 -0.102)">
     <use xlink:href="#DejaVuSans-35"/>
     <use x="63.623047" xlink:href="#DejaVuSans-31"/>
     <use x="127.246094" xlink:href="#DejaVuSans-20"/>
     <use x="159.033203" xlink:href="#DejaVuSans-74"/>
     <use x="198.242188" xlink:href="#DejaVuSans-61"/>
     <use x="259.521484" xlink:href="#DejaVuSans-72"/>
     <use x="300.619141" xlink:href="#DejaVuSans-67"/>
     <use x="364.095703" xlink:href="#DejaVuSans-65"/>
     <use x="425.619141" xlink:href="#DejaVuSans-74"/>
     <use x="464.828125" xlink:href="#DejaVuSans-73"/>
     <use x="516.927734" xlink:href="#DejaVuSans-3a"/>
     <use x="550.619141" xlink:href="#DejaVuSans-20"/>
     <use x="582.40625" xlink:href="#DejaVuSans-31"/>
     <use x="646.029297" xlink:href="#DejaVuSans-30"/>
     <use x="709.652344" xlink:href="#DejaVuSans-30"/>
     <use x="773.275391" xlink:href="#DejaVuSans-2e"/>
     <use x="805.0625" xlink:href="#DejaVuSans-2e"/>
     <use x="836.849609" xlink:href="#DejaVuSans-31"/>
     <use x="900.472656" xlink:href="#DejaVuSans-65"/>
     <use x="961.996094" xlink:href="#DejaVuSans-2d"/>
     <use x="998.080078" xlink:href="#DejaVuSans-30"/>
     <use x="1061.703125" xlink:href="#DejaVuSans-38"/>
    </g>
    <!-- 15 instances -->
    <g transform="translate(60.27144 58.127144)scale(0.102 -0.102)">
     <use xlink:href="#DejaVuSans-31"/>
     <use x="63.623047" xlink:href="#DejaVuSans-35"/>
     <use x="127.246094" xlink:href="#DejaVuSans-20"/>
     <use x="159.033203" xlink:href="#DejaVuSans-69"/>
     <use x="186.816406" xlink:href="#DejaVuSans-6e"/>
     <use x="250.195312" xlink:href="#DejaVuSans-73"/>
     <use x="302.294922" xlink:href="#DejaVuSans-74"/>
     <use x="341.503906" xlink:href="#DejaVuSans-61"/>
     <use x="402.783203" xlink:href="#DejaVuSans-6e"/>
     <use x="466.162109" xlink:href="#DejaVuSans-63"/>
     <use x="521.142578" xlink:href="#DejaVuSans-65"/>
     <use x="582.666016" xlink:href="#DejaVuSans-73"/>
    </g>
   </g>
   <g id="text_20">
    <!-- v2.2.1.10 -->
    <g style="fill:#808080;" transform="translate(204.779188 289.387113)scale(0.1 -0.1)">
     <use xlink:href="#DejaVuSans-76"/>
     <use x="59.179688" xlink:href="#DejaVuSans-32"/>
     <use x="122.802734" xlink:href="#DejaVuSans-2e"/>
     <use x="154.589844" xlink:href="#DejaVuSans-32"/>
     <use x="218.212891" xlink:href="#DejaVuSans-2e"/>
     <use x="250" xlink:href="#DejaVuSans-31"/>
     <use x="313.623047" xlink:href="#DejaVuSans-2e"/>
     <use x="345.410156" xlink:href="#DejaVuSans-31"/>
     <use x="409.033203" xlink:href="#DejaVuSans-30"/>
    </g>
   </g>
   <g id="text_21">
    <!-- 1 Sphere -->
    <defs>
     <path d="M 53.515625 70.515625 
L 53.515625 60.890625 
Q 47.90625 63.578125 42.921875 64.890625 
Q 37.9375 66.21875 33.296875 66.21875 
Q 25.25 66.21875 20.875 63.09375 
Q 16.5 59.96875 16.5 54.203125 
Q 16.5 49.359375 19.40625 46.890625 
Q 22.3125 44.4375 30.421875 42.921875 
L 36.375 41.703125 
Q 47.40625 39.59375 52.65625 34.296875 
Q 57.90625 29 57.90625 20.125 
Q 57.90625 9.515625 50.796875 4.046875 
Q 43.703125 -1.421875 29.984375 -1.421875 
Q 24.8125 -1.421875 18.96875 -0.25 
Q 13.140625 0.921875 6.890625 3.21875 
L 6.890625 13.375 
Q 12.890625 10.015625 18.65625 8.296875 
Q 24.421875 6.59375 29.984375 6.59375 
Q 38.421875 6.59375 43.015625 9.90625 
Q 47.609375 13.234375 47.609375 19.390625 
Q 47.609375 24.75 44.3125 27.78125 
Q 41.015625 30.8125 33.5 32.328125 
L 27.484375 33.5 
Q 16.453125 35.6875 11.515625 40.375 
Q 6.59375 45.0625 6.59375 53.421875 
Q 6.59375 63.09375 13.40625 68.65625 
Q 20.21875 74.21875 32.171875 74.21875 
Q 37.3125 74.21875 42.625 73.28125 
Q 47.953125 72.359375 53.515625 70.515625 
z
" id="DejaVuSans-53"/>
     <path d="M 54.890625 33.015625 
L 54.890625 0 
L 45.90625 0 
L 45.90625 32.71875 
Q 45.90625 40.484375 42.875 44.328125 
Q 39.84375 48.1875 33.796875 48.1875 
Q 26.515625 48.1875 22.3125 43.546875 
Q 18.109375 38.921875 18.109375 30.90625 
L 18.109375 0 
L 9.078125 0 
L 9.078125 75.984375 
L 18.109375 75.984375 
L 18.109375 46.1875 
Q 21.34375 51.125 25.703125 53.5625 
Q 30.078125 56 35.796875 56 
Q 45.21875 56 50.046875 50.171875 
Q 54.890625 44.34375 54.890625 33.015625 
z
" id="DejaVuSans-68"/>
    </defs>
    <g transform="translate(183.422938 18.84)scale(0.2 -0.2)">
     <use xlink:href="#DejaVuSans-31"/>
     <use x="63.623047" xlink:href="#DejaVuSans-20"/>
     <use x="95.410156" xlink:href="#DejaVuSans-53"/>
     <use x="158.886719" xlink:href="#DejaVuSans-70"/>
     <use x="222.363281" xlink:href="#DejaVuSans-68"/>
     <use x="285.742188" xlink:href="#DejaVuSans-65"/>
     <use x="347.265625" xlink:href="#DejaVuSans-72"/>
     <use x="388.347656" xlink:href="#DejaVuSans-65"/>
    </g>
   </g>
  </g>
 </g>
 <defs>
  <clipPath id="p169823919d">
   <rect height="269.32" width="343.144" x="56.84" y="24.84"/>
  </clipPath>
 </defs>
</svg>
