<?xml version="1.0" encoding="utf-8" standalone="no"?>
<!DOCTYPE svg PUBLIC "-//W3C//DTD SVG 1.1//EN"
  "http://www.w3.org/Graphics/SVG/1.1/DTD/svg11.dtd">
<!-- Created with matplotlib (http://matplotlib.org/) -->
<svg height="345.6pt" version="1.1" viewBox="0 0 460.8 345.6" width="460.8pt" xmlns="http://www.w3.org/2000/svg" xmlns:xlink="http://www.w3.org/1999/xlink">
 <defs>
  <style type="text/css">
*{stroke-linecap:butt;stroke-linejoin:round;}
  </style>
 </defs>
 <g id="figure_1">
  <g id="patch_1">
   <path d="M 0 345.6 
L 460.8 345.6 
L 460.8 0 
L 0 0 
z
" style="fill:#ffffff;"/>
  </g>
  <g id="axes_1">
   <g id="patch_2">
    <path d="M 56.84 294.16 
L 399.984 294.16 
L 399.984 6.125228 
L 56.84 6.125228 
z
" style="fill:#ffffff;"/>
   </g>
   <g id="matplotlib.axis_1">
    <g id="xtick_1">
     <g id="line2d_1">
      <path clip-path="url(#p107706cdc8)" d="M 56.84 294.16 
L 56.84 6.125228 
" style="fill:none;stroke:#b0b0b0;stroke-linecap:square;stroke-width:0.8;"/>
     </g>
     <g id="line2d_2">
      <defs>
       <path d="M 0 0 
L 0 3.5 
" id="m4fc46e1237" style="stroke:#000000;stroke-width:0.8;"/>
      </defs>
      <g>
       <use style="stroke:#000000;stroke-width:0.8;" x="56.84" xlink:href="#m4fc46e1237" y="294.16"/>
      </g>
     </g>
     <g id="text_1">
      <!-- 0 -->
      <defs>
       <path d="M 31.78125 66.40625 
Q 24.171875 66.40625 20.328125 58.90625 
Q 16.5 51.421875 16.5 36.375 
Q 16.5 21.390625 20.328125 13.890625 
Q 24.171875 6.390625 31.78125 6.390625 
Q 39.453125 6.390625 43.28125 13.890625 
Q 47.125 21.390625 47.125 36.375 
Q 47.125 51.421875 43.28125 58.90625 
Q 39.453125 66.40625 31.78125 66.40625 
z
M 31.78125 74.21875 
Q 44.046875 74.21875 50.515625 64.515625 
Q 56.984375 54.828125 56.984375 36.375 
Q 56.984375 17.96875 50.515625 8.265625 
Q 44.046875 -1.421875 31.78125 -1.421875 
Q 19.53125 -1.421875 13.0625 8.265625 
Q 6.59375 17.96875 6.59375 36.375 
Q 6.59375 54.828125 13.0625 64.515625 
Q 19.53125 74.21875 31.78125 74.21875 
z
" id="DejaVuSans-30"/>
      </defs>
      <g transform="translate(50.4775 316.356875)scale(0.2 -0.2)">
       <use xlink:href="#DejaVuSans-30"/>
      </g>
     </g>
    </g>
    <g id="xtick_2">
     <g id="line2d_3">
      <path clip-path="url(#p107706cdc8)" d="M 135.905438 294.16 
L 135.905438 6.125228 
" style="fill:none;stroke:#b0b0b0;stroke-linecap:square;stroke-width:0.8;"/>
     </g>
     <g id="line2d_4">
      <g>
       <use style="stroke:#000000;stroke-width:0.8;" x="135.905438" xlink:href="#m4fc46e1237" y="294.16"/>
      </g>
     </g>
     <g id="text_2">
      <!-- 2 -->
      <defs>
       <path d="M 19.1875 8.296875 
L 53.609375 8.296875 
L 53.609375 0 
L 7.328125 0 
L 7.328125 8.296875 
Q 12.9375 14.109375 22.625 23.890625 
Q 32.328125 33.6875 34.8125 36.53125 
Q 39.546875 41.84375 41.421875 45.53125 
Q 43.3125 49.21875 43.3125 52.78125 
Q 43.3125 58.59375 39.234375 62.25 
Q 35.15625 65.921875 28.609375 65.921875 
Q 23.96875 65.921875 18.8125 64.3125 
Q 13.671875 62.703125 7.8125 59.421875 
L 7.8125 69.390625 
Q 13.765625 71.78125 18.9375 73 
Q 24.125 74.21875 28.421875 74.21875 
Q 39.75 74.21875 46.484375 68.546875 
Q 53.21875 62.890625 53.21875 53.421875 
Q 53.21875 48.921875 51.53125 44.890625 
Q 49.859375 40.875 45.40625 35.40625 
Q 44.1875 33.984375 37.640625 27.21875 
Q 31.109375 20.453125 19.1875 8.296875 
z
" id="DejaVuSans-32"/>
      </defs>
      <g transform="translate(129.542938 316.356875)scale(0.2 -0.2)">
       <use xlink:href="#DejaVuSans-32"/>
      </g>
     </g>
    </g>
    <g id="xtick_3">
     <g id="line2d_5">
      <path clip-path="url(#p107706cdc8)" d="M 214.970876 294.16 
L 214.970876 6.125228 
" style="fill:none;stroke:#b0b0b0;stroke-linecap:square;stroke-width:0.8;"/>
     </g>
     <g id="line2d_6">
      <g>
       <use style="stroke:#000000;stroke-width:0.8;" x="214.970876" xlink:href="#m4fc46e1237" y="294.16"/>
      </g>
     </g>
     <g id="text_3">
      <!-- 4 -->
      <defs>
       <path d="M 37.796875 64.3125 
L 12.890625 25.390625 
L 37.796875 25.390625 
z
M 35.203125 72.90625 
L 47.609375 72.90625 
L 47.609375 25.390625 
L 58.015625 25.390625 
L 58.015625 17.1875 
L 47.609375 17.1875 
L 47.609375 0 
L 37.796875 0 
L 37.796875 17.1875 
L 4.890625 17.1875 
L 4.890625 26.703125 
z
" id="DejaVuSans-34"/>
      </defs>
      <g transform="translate(208.608376 316.356875)scale(0.2 -0.2)">
       <use xlink:href="#DejaVuSans-34"/>
      </g>
     </g>
    </g>
    <g id="xtick_4">
     <g id="line2d_7">
      <path clip-path="url(#p107706cdc8)" d="M 294.036313 294.16 
L 294.036313 6.125228 
" style="fill:none;stroke:#b0b0b0;stroke-linecap:square;stroke-width:0.8;"/>
     </g>
     <g id="line2d_8">
      <g>
       <use style="stroke:#000000;stroke-width:0.8;" x="294.036313" xlink:href="#m4fc46e1237" y="294.16"/>
      </g>
     </g>
     <g id="text_4">
      <!-- 6 -->
      <defs>
       <path d="M 33.015625 40.375 
Q 26.375 40.375 22.484375 35.828125 
Q 18.609375 31.296875 18.609375 23.390625 
Q 18.609375 15.53125 22.484375 10.953125 
Q 26.375 6.390625 33.015625 6.390625 
Q 39.65625 6.390625 43.53125 10.953125 
Q 47.40625 15.53125 47.40625 23.390625 
Q 47.40625 31.296875 43.53125 35.828125 
Q 39.65625 40.375 33.015625 40.375 
z
M 52.59375 71.296875 
L 52.59375 62.3125 
Q 48.875 64.0625 45.09375 64.984375 
Q 41.3125 65.921875 37.59375 65.921875 
Q 27.828125 65.921875 22.671875 59.328125 
Q 17.53125 52.734375 16.796875 39.40625 
Q 19.671875 43.65625 24.015625 45.921875 
Q 28.375 48.1875 33.59375 48.1875 
Q 44.578125 48.1875 50.953125 41.515625 
Q 57.328125 34.859375 57.328125 23.390625 
Q 57.328125 12.15625 50.6875 5.359375 
Q 44.046875 -1.421875 33.015625 -1.421875 
Q 20.359375 -1.421875 13.671875 8.265625 
Q 6.984375 17.96875 6.984375 36.375 
Q 6.984375 53.65625 15.1875 63.9375 
Q 23.390625 74.21875 37.203125 74.21875 
Q 40.921875 74.21875 44.703125 73.484375 
Q 48.484375 72.75 52.59375 71.296875 
z
" id="DejaVuSans-36"/>
      </defs>
      <g transform="translate(287.673813 316.356875)scale(0.2 -0.2)">
       <use xlink:href="#DejaVuSans-36"/>
      </g>
     </g>
    </g>
    <g id="xtick_5">
     <g id="line2d_9">
      <path clip-path="url(#p107706cdc8)" d="M 373.101751 294.16 
L 373.101751 6.125228 
" style="fill:none;stroke:#b0b0b0;stroke-linecap:square;stroke-width:0.8;"/>
     </g>
     <g id="line2d_10">
      <g>
       <use style="stroke:#000000;stroke-width:0.8;" x="373.101751" xlink:href="#m4fc46e1237" y="294.16"/>
      </g>
     </g>
     <g id="text_5">
      <!-- 8 -->
      <defs>
       <path d="M 31.78125 34.625 
Q 24.75 34.625 20.71875 30.859375 
Q 16.703125 27.09375 16.703125 20.515625 
Q 16.703125 13.921875 20.71875 10.15625 
Q 24.75 6.390625 31.78125 6.390625 
Q 38.8125 6.390625 42.859375 10.171875 
Q 46.921875 13.96875 46.921875 20.515625 
Q 46.921875 27.09375 42.890625 30.859375 
Q 38.875 34.625 31.78125 34.625 
z
M 21.921875 38.8125 
Q 15.578125 40.375 12.03125 44.71875 
Q 8.5 49.078125 8.5 55.328125 
Q 8.5 64.0625 14.71875 69.140625 
Q 20.953125 74.21875 31.78125 74.21875 
Q 42.671875 74.21875 48.875 69.140625 
Q 55.078125 64.0625 55.078125 55.328125 
Q 55.078125 49.078125 51.53125 44.71875 
Q 48 40.375 41.703125 38.8125 
Q 48.828125 37.15625 52.796875 32.3125 
Q 56.78125 27.484375 56.78125 20.515625 
Q 56.78125 9.90625 50.3125 4.234375 
Q 43.84375 -1.421875 31.78125 -1.421875 
Q 19.734375 -1.421875 13.25 4.234375 
Q 6.78125 9.90625 6.78125 20.515625 
Q 6.78125 27.484375 10.78125 32.3125 
Q 14.796875 37.15625 21.921875 38.8125 
z
M 18.3125 54.390625 
Q 18.3125 48.734375 21.84375 45.5625 
Q 25.390625 42.390625 31.78125 42.390625 
Q 38.140625 42.390625 41.71875 45.5625 
Q 45.3125 48.734375 45.3125 54.390625 
Q 45.3125 60.0625 41.71875 63.234375 
Q 38.140625 66.40625 31.78125 66.40625 
Q 25.390625 66.40625 21.84375 63.234375 
Q 18.3125 60.0625 18.3125 54.390625 
z
" id="DejaVuSans-38"/>
      </defs>
      <g transform="translate(366.739251 316.356875)scale(0.2 -0.2)">
       <use xlink:href="#DejaVuSans-38"/>
      </g>
     </g>
    </g>
    <g id="text_6">
     <!-- log10(# f-evals / dimension) -->
     <defs>
      <path d="M 9.421875 75.984375 
L 18.40625 75.984375 
L 18.40625 0 
L 9.421875 0 
z
" id="DejaVuSans-6c"/>
      <path d="M 30.609375 48.390625 
Q 23.390625 48.390625 19.1875 42.75 
Q 14.984375 37.109375 14.984375 27.296875 
Q 14.984375 17.484375 19.15625 11.84375 
Q 23.34375 6.203125 30.609375 6.203125 
Q 37.796875 6.203125 41.984375 11.859375 
Q 46.1875 17.53125 46.1875 27.296875 
Q 46.1875 37.015625 41.984375 42.703125 
Q 37.796875 48.390625 30.609375 48.390625 
z
M 30.609375 56 
Q 42.328125 56 49.015625 48.375 
Q 55.71875 40.765625 55.71875 27.296875 
Q 55.71875 13.875 49.015625 6.21875 
Q 42.328125 -1.421875 30.609375 -1.421875 
Q 18.84375 -1.421875 12.171875 6.21875 
Q 5.515625 13.875 5.515625 27.296875 
Q 5.515625 40.765625 12.171875 48.375 
Q 18.84375 56 30.609375 56 
z
" id="DejaVuSans-6f"/>
      <path d="M 45.40625 27.984375 
Q 45.40625 37.75 41.375 43.109375 
Q 37.359375 48.484375 30.078125 48.484375 
Q 22.859375 48.484375 18.828125 43.109375 
Q 14.796875 37.75 14.796875 27.984375 
Q 14.796875 18.265625 18.828125 12.890625 
Q 22.859375 7.515625 30.078125 7.515625 
Q 37.359375 7.515625 41.375 12.890625 
Q 45.40625 18.265625 45.40625 27.984375 
z
M 54.390625 6.78125 
Q 54.390625 -7.171875 48.1875 -13.984375 
Q 42 -20.796875 29.203125 -20.796875 
Q 24.46875 -20.796875 20.265625 -20.09375 
Q 16.0625 -19.390625 12.109375 -17.921875 
L 12.109375 -9.1875 
Q 16.0625 -11.328125 19.921875 -12.34375 
Q 23.78125 -13.375 27.78125 -13.375 
Q 36.625 -13.375 41.015625 -8.765625 
Q 45.40625 -4.15625 45.40625 5.171875 
L 45.40625 9.625 
Q 42.625 4.78125 38.28125 2.390625 
Q 33.9375 0 27.875 0 
Q 17.828125 0 11.671875 7.65625 
Q 5.515625 15.328125 5.515625 27.984375 
Q 5.515625 40.671875 11.671875 48.328125 
Q 17.828125 56 27.875 56 
Q 33.9375 56 38.28125 53.609375 
Q 42.625 51.21875 45.40625 46.390625 
L 45.40625 54.6875 
L 54.390625 54.6875 
z
" id="DejaVuSans-67"/>
      <path d="M 12.40625 8.296875 
L 28.515625 8.296875 
L 28.515625 63.921875 
L 10.984375 60.40625 
L 10.984375 69.390625 
L 28.421875 72.90625 
L 38.28125 72.90625 
L 38.28125 8.296875 
L 54.390625 8.296875 
L 54.390625 0 
L 12.40625 0 
z
" id="DejaVuSans-31"/>
      <path d="M 31 75.875 
Q 24.46875 64.65625 21.28125 53.65625 
Q 18.109375 42.671875 18.109375 31.390625 
Q 18.109375 20.125 21.3125 9.0625 
Q 24.515625 -2 31 -13.1875 
L 23.1875 -13.1875 
Q 15.875 -1.703125 12.234375 9.375 
Q 8.59375 20.453125 8.59375 31.390625 
Q 8.59375 42.28125 12.203125 53.3125 
Q 15.828125 64.359375 23.1875 75.875 
z
" id="DejaVuSans-28"/>
      <path d="M 51.125 44 
L 36.921875 44 
L 32.8125 27.6875 
L 47.125 27.6875 
z
M 43.796875 71.78125 
L 38.71875 51.515625 
L 52.984375 51.515625 
L 58.109375 71.78125 
L 65.921875 71.78125 
L 60.890625 51.515625 
L 76.125 51.515625 
L 76.125 44 
L 58.984375 44 
L 54.984375 27.6875 
L 70.515625 27.6875 
L 70.515625 20.21875 
L 53.078125 20.21875 
L 48 0 
L 40.1875 0 
L 45.21875 20.21875 
L 30.90625 20.21875 
L 25.875 0 
L 18.015625 0 
L 23.09375 20.21875 
L 7.71875 20.21875 
L 7.71875 27.6875 
L 24.90625 27.6875 
L 29 44 
L 13.28125 44 
L 13.28125 51.515625 
L 30.90625 51.515625 
L 35.890625 71.78125 
z
" id="DejaVuSans-23"/>
      <path id="DejaVuSans-20"/>
      <path d="M 37.109375 75.984375 
L 37.109375 68.5 
L 28.515625 68.5 
Q 23.6875 68.5 21.796875 66.546875 
Q 19.921875 64.59375 19.921875 59.515625 
L 19.921875 54.6875 
L 34.71875 54.6875 
L 34.71875 47.703125 
L 19.921875 47.703125 
L 19.921875 0 
L 10.890625 0 
L 10.890625 47.703125 
L 2.296875 47.703125 
L 2.296875 54.6875 
L 10.890625 54.6875 
L 10.890625 58.5 
Q 10.890625 67.625 15.140625 71.796875 
Q 19.390625 75.984375 28.609375 75.984375 
z
" id="DejaVuSans-66"/>
      <path d="M 4.890625 31.390625 
L 31.203125 31.390625 
L 31.203125 23.390625 
L 4.890625 23.390625 
z
" id="DejaVuSans-2d"/>
      <path d="M 56.203125 29.59375 
L 56.203125 25.203125 
L 14.890625 25.203125 
Q 15.484375 15.921875 20.484375 11.0625 
Q 25.484375 6.203125 34.421875 6.203125 
Q 39.59375 6.203125 44.453125 7.46875 
Q 49.3125 8.734375 54.109375 11.28125 
L 54.109375 2.78125 
Q 49.265625 0.734375 44.1875 -0.34375 
Q 39.109375 -1.421875 33.890625 -1.421875 
Q 20.796875 -1.421875 13.15625 6.1875 
Q 5.515625 13.8125 5.515625 26.8125 
Q 5.515625 40.234375 12.765625 48.109375 
Q 20.015625 56 32.328125 56 
Q 43.359375 56 49.78125 48.890625 
Q 56.203125 41.796875 56.203125 29.59375 
z
M 47.21875 32.234375 
Q 47.125 39.59375 43.09375 43.984375 
Q 39.0625 48.390625 32.421875 48.390625 
Q 24.90625 48.390625 20.390625 44.140625 
Q 15.875 39.890625 15.1875 32.171875 
z
" id="DejaVuSans-65"/>
      <path d="M 2.984375 54.6875 
L 12.5 54.6875 
L 29.59375 8.796875 
L 46.6875 54.6875 
L 56.203125 54.6875 
L 35.6875 0 
L 23.484375 0 
z
" id="DejaVuSans-76"/>
      <path d="M 34.28125 27.484375 
Q 23.390625 27.484375 19.1875 25 
Q 14.984375 22.515625 14.984375 16.5 
Q 14.984375 11.71875 18.140625 8.90625 
Q 21.296875 6.109375 26.703125 6.109375 
Q 34.1875 6.109375 38.703125 11.40625 
Q 43.21875 16.703125 43.21875 25.484375 
L 43.21875 27.484375 
z
M 52.203125 31.203125 
L 52.203125 0 
L 43.21875 0 
L 43.21875 8.296875 
Q 40.140625 3.328125 35.546875 0.953125 
Q 30.953125 -1.421875 24.3125 -1.421875 
Q 15.921875 -1.421875 10.953125 3.296875 
Q 6 8.015625 6 15.921875 
Q 6 25.140625 12.171875 29.828125 
Q 18.359375 34.515625 30.609375 34.515625 
L 43.21875 34.515625 
L 43.21875 35.40625 
Q 43.21875 41.609375 39.140625 45 
Q 35.0625 48.390625 27.6875 48.390625 
Q 23 48.390625 18.546875 47.265625 
Q 14.109375 46.140625 10.015625 43.890625 
L 10.015625 52.203125 
Q 14.9375 54.109375 19.578125 55.046875 
Q 24.21875 56 28.609375 56 
Q 40.484375 56 46.34375 49.84375 
Q 52.203125 43.703125 52.203125 31.203125 
z
" id="DejaVuSans-61"/>
      <path d="M 44.28125 53.078125 
L 44.28125 44.578125 
Q 40.484375 46.53125 36.375 47.5 
Q 32.28125 48.484375 27.875 48.484375 
Q 21.1875 48.484375 17.84375 46.4375 
Q 14.5 44.390625 14.5 40.28125 
Q 14.5 37.15625 16.890625 35.375 
Q 19.28125 33.59375 26.515625 31.984375 
L 29.59375 31.296875 
Q 39.15625 29.25 43.1875 25.515625 
Q 47.21875 21.78125 47.21875 15.09375 
Q 47.21875 7.46875 41.1875 3.015625 
Q 35.15625 -1.421875 24.609375 -1.421875 
Q 20.21875 -1.421875 15.453125 -0.5625 
Q 10.6875 0.296875 5.421875 2 
L 5.421875 11.28125 
Q 10.40625 8.6875 15.234375 7.390625 
Q 20.0625 6.109375 24.8125 6.109375 
Q 31.15625 6.109375 34.5625 8.28125 
Q 37.984375 10.453125 37.984375 14.40625 
Q 37.984375 18.0625 35.515625 20.015625 
Q 33.0625 21.96875 24.703125 23.78125 
L 21.578125 24.515625 
Q 13.234375 26.265625 9.515625 29.90625 
Q 5.8125 33.546875 5.8125 39.890625 
Q 5.8125 47.609375 11.28125 51.796875 
Q 16.75 56 26.8125 56 
Q 31.78125 56 36.171875 55.265625 
Q 40.578125 54.546875 44.28125 53.078125 
z
" id="DejaVuSans-73"/>
      <path d="M 25.390625 72.90625 
L 33.6875 72.90625 
L 8.296875 -9.28125 
L 0 -9.28125 
z
" id="DejaVuSans-2f"/>
      <path d="M 45.40625 46.390625 
L 45.40625 75.984375 
L 54.390625 75.984375 
L 54.390625 0 
L 45.40625 0 
L 45.40625 8.203125 
Q 42.578125 3.328125 38.25 0.953125 
Q 33.9375 -1.421875 27.875 -1.421875 
Q 17.96875 -1.421875 11.734375 6.484375 
Q 5.515625 14.40625 5.515625 27.296875 
Q 5.515625 40.1875 11.734375 48.09375 
Q 17.96875 56 27.875 56 
Q 33.9375 56 38.25 53.625 
Q 42.578125 51.265625 45.40625 46.390625 
z
M 14.796875 27.296875 
Q 14.796875 17.390625 18.875 11.75 
Q 22.953125 6.109375 30.078125 6.109375 
Q 37.203125 6.109375 41.296875 11.75 
Q 45.40625 17.390625 45.40625 27.296875 
Q 45.40625 37.203125 41.296875 42.84375 
Q 37.203125 48.484375 30.078125 48.484375 
Q 22.953125 48.484375 18.875 42.84375 
Q 14.796875 37.203125 14.796875 27.296875 
z
" id="DejaVuSans-64"/>
      <path d="M 9.421875 54.6875 
L 18.40625 54.6875 
L 18.40625 0 
L 9.421875 0 
z
M 9.421875 75.984375 
L 18.40625 75.984375 
L 18.40625 64.59375 
L 9.421875 64.59375 
z
" id="DejaVuSans-69"/>
      <path d="M 52 44.1875 
Q 55.375 50.25 60.0625 53.125 
Q 64.75 56 71.09375 56 
Q 79.640625 56 84.28125 50.015625 
Q 88.921875 44.046875 88.921875 33.015625 
L 88.921875 0 
L 79.890625 0 
L 79.890625 32.71875 
Q 79.890625 40.578125 77.09375 44.375 
Q 74.3125 48.1875 68.609375 48.1875 
Q 61.625 48.1875 57.5625 43.546875 
Q 53.515625 38.921875 53.515625 30.90625 
L 53.515625 0 
L 44.484375 0 
L 44.484375 32.71875 
Q 44.484375 40.625 41.703125 44.40625 
Q 38.921875 48.1875 33.109375 48.1875 
Q 26.21875 48.1875 22.15625 43.53125 
Q 18.109375 38.875 18.109375 30.90625 
L 18.109375 0 
L 9.078125 0 
L 9.078125 54.6875 
L 18.109375 54.6875 
L 18.109375 46.1875 
Q 21.1875 51.21875 25.484375 53.609375 
Q 29.78125 56 35.6875 56 
Q 41.65625 56 45.828125 52.96875 
Q 50 49.953125 52 44.1875 
z
" id="DejaVuSans-6d"/>
      <path d="M 54.890625 33.015625 
L 54.890625 0 
L 45.90625 0 
L 45.90625 32.71875 
Q 45.90625 40.484375 42.875 44.328125 
Q 39.84375 48.1875 33.796875 48.1875 
Q 26.515625 48.1875 22.3125 43.546875 
Q 18.109375 38.921875 18.109375 30.90625 
L 18.109375 0 
L 9.078125 0 
L 9.078125 54.6875 
L 18.109375 54.6875 
L 18.109375 46.1875 
Q 21.34375 51.125 25.703125 53.5625 
Q 30.078125 56 35.796875 56 
Q 45.21875 56 50.046875 50.171875 
Q 54.890625 44.34375 54.890625 33.015625 
z
" id="DejaVuSans-6e"/>
      <path d="M 8.015625 75.875 
L 15.828125 75.875 
Q 23.140625 64.359375 26.78125 53.3125 
Q 30.421875 42.28125 30.421875 31.390625 
Q 30.421875 20.453125 26.78125 9.375 
Q 23.140625 -1.703125 15.828125 -13.1875 
L 8.015625 -13.1875 
Q 14.5 -2 17.703125 9.0625 
Q 20.90625 20.125 20.90625 31.390625 
Q 20.90625 42.671875 17.703125 53.65625 
Q 14.5 64.65625 8.015625 75.875 
z
" id="DejaVuSans-29"/>
     </defs>
     <g transform="translate(107.571219 337.433594)scale(0.17 -0.17)">
      <use xlink:href="#DejaVuSans-6c"/>
      <use x="27.783203" xlink:href="#DejaVuSans-6f"/>
      <use x="88.964844" xlink:href="#DejaVuSans-67"/>
      <use x="152.441406" xlink:href="#DejaVuSans-31"/>
      <use x="216.064453" xlink:href="#DejaVuSans-30"/>
      <use x="279.6875" xlink:href="#DejaVuSans-28"/>
      <use x="318.701172" xlink:href="#DejaVuSans-23"/>
      <use x="402.490234" xlink:href="#DejaVuSans-20"/>
      <use x="434.277344" xlink:href="#DejaVuSans-66"/>
      <use x="469.404297" xlink:href="#DejaVuSans-2d"/>
      <use x="505.488281" xlink:href="#DejaVuSans-65"/>
      <use x="567.011719" xlink:href="#DejaVuSans-76"/>
      <use x="626.191406" xlink:href="#DejaVuSans-61"/>
      <use x="687.470703" xlink:href="#DejaVuSans-6c"/>
      <use x="715.253906" xlink:href="#DejaVuSans-73"/>
      <use x="767.353516" xlink:href="#DejaVuSans-20"/>
      <use x="799.140625" xlink:href="#DejaVuSans-2f"/>
      <use x="832.832031" xlink:href="#DejaVuSans-20"/>
      <use x="864.619141" xlink:href="#DejaVuSans-64"/>
      <use x="928.095703" xlink:href="#DejaVuSans-69"/>
      <use x="955.878906" xlink:href="#DejaVuSans-6d"/>
      <use x="1053.291016" xlink:href="#DejaVuSans-65"/>
      <use x="1114.814453" xlink:href="#DejaVuSans-6e"/>
      <use x="1178.193359" xlink:href="#DejaVuSans-73"/>
      <use x="1230.292969" xlink:href="#DejaVuSans-69"/>
      <use x="1258.076172" xlink:href="#DejaVuSans-6f"/>
      <use x="1319.257812" xlink:href="#DejaVuSans-6e"/>
      <use x="1382.636719" xlink:href="#DejaVuSans-29"/>
     </g>
    </g>
   </g>
   <g id="matplotlib.axis_2">
    <g id="ytick_1">
     <g id="line2d_11">
      <path clip-path="url(#p107706cdc8)" d="M 56.84 294.16 
L 399.984 294.16 
" style="fill:none;stroke:#b0b0b0;stroke-linecap:square;stroke-width:0.8;"/>
     </g>
     <g id="line2d_12">
      <defs>
       <path d="M 0 0 
L -3.5 0 
" id="m7ede052966" style="stroke:#000000;stroke-width:0.8;"/>
      </defs>
      <g>
       <use style="stroke:#000000;stroke-width:0.8;" x="56.84" xlink:href="#m7ede052966" y="294.16"/>
      </g>
     </g>
     <g id="text_7">
      <!-- 0.0 -->
      <defs>
       <path d="M 10.6875 12.40625 
L 21 12.40625 
L 21 0 
L 10.6875 0 
z
" id="DejaVuSans-2e"/>
      </defs>
      <g transform="translate(24.395 300.23875)scale(0.16 -0.16)">
       <use xlink:href="#DejaVuSans-30"/>
       <use x="63.623047" xlink:href="#DejaVuSans-2e"/>
       <use x="95.410156" xlink:href="#DejaVuSans-30"/>
      </g>
     </g>
    </g>
    <g id="ytick_2">
     <g id="line2d_13">
      <path clip-path="url(#p107706cdc8)" d="M 56.84 237.123411 
L 399.984 237.123411 
" style="fill:none;stroke:#b0b0b0;stroke-linecap:square;stroke-width:0.8;"/>
     </g>
     <g id="line2d_14">
      <g>
       <use style="stroke:#000000;stroke-width:0.8;" x="56.84" xlink:href="#m7ede052966" y="237.123411"/>
      </g>
     </g>
     <g id="text_8">
      <!-- 0.2 -->
      <g transform="translate(24.395 243.202161)scale(0.16 -0.16)">
       <use xlink:href="#DejaVuSans-30"/>
       <use x="63.623047" xlink:href="#DejaVuSans-2e"/>
       <use x="95.410156" xlink:href="#DejaVuSans-32"/>
      </g>
     </g>
    </g>
    <g id="ytick_3">
     <g id="line2d_15">
      <path clip-path="url(#p107706cdc8)" d="M 56.84 180.086823 
L 399.984 180.086823 
" style="fill:none;stroke:#b0b0b0;stroke-linecap:square;stroke-width:0.8;"/>
     </g>
     <g id="line2d_16">
      <g>
       <use style="stroke:#000000;stroke-width:0.8;" x="56.84" xlink:href="#m7ede052966" y="180.086823"/>
      </g>
     </g>
     <g id="text_9">
      <!-- 0.4 -->
      <g transform="translate(24.395 186.165573)scale(0.16 -0.16)">
       <use xlink:href="#DejaVuSans-30"/>
       <use x="63.623047" xlink:href="#DejaVuSans-2e"/>
       <use x="95.410156" xlink:href="#DejaVuSans-34"/>
      </g>
     </g>
    </g>
    <g id="ytick_4">
     <g id="line2d_17">
      <path clip-path="url(#p107706cdc8)" d="M 56.84 123.050234 
L 399.984 123.050234 
" style="fill:none;stroke:#b0b0b0;stroke-linecap:square;stroke-width:0.8;"/>
     </g>
     <g id="line2d_18">
      <g>
       <use style="stroke:#000000;stroke-width:0.8;" x="56.84" xlink:href="#m7ede052966" y="123.050234"/>
      </g>
     </g>
     <g id="text_10">
      <!-- 0.6 -->
      <g transform="translate(24.395 129.128984)scale(0.16 -0.16)">
       <use xlink:href="#DejaVuSans-30"/>
       <use x="63.623047" xlink:href="#DejaVuSans-2e"/>
       <use x="95.410156" xlink:href="#DejaVuSans-36"/>
      </g>
     </g>
    </g>
    <g id="ytick_5">
     <g id="line2d_19">
      <path clip-path="url(#p107706cdc8)" d="M 56.84 66.013646 
L 399.984 66.013646 
" style="fill:none;stroke:#b0b0b0;stroke-linecap:square;stroke-width:0.8;"/>
     </g>
     <g id="line2d_20">
      <g>
       <use style="stroke:#000000;stroke-width:0.8;" x="56.84" xlink:href="#m7ede052966" y="66.013646"/>
      </g>
     </g>
     <g id="text_11">
      <!-- 0.8 -->
      <g transform="translate(24.395 72.092396)scale(0.16 -0.16)">
       <use xlink:href="#DejaVuSans-30"/>
       <use x="63.623047" xlink:href="#DejaVuSans-2e"/>
       <use x="95.410156" xlink:href="#DejaVuSans-38"/>
      </g>
     </g>
    </g>
    <g id="ytick_6">
     <g id="line2d_21">
      <path clip-path="url(#p107706cdc8)" d="M 56.84 8.977057 
L 399.984 8.977057 
" style="fill:none;stroke:#b0b0b0;stroke-linecap:square;stroke-width:0.8;"/>
     </g>
     <g id="line2d_22">
      <g>
       <use style="stroke:#000000;stroke-width:0.8;" x="56.84" xlink:href="#m7ede052966" y="8.977057"/>
      </g>
     </g>
     <g id="text_12">
      <!-- 1.0 -->
      <g transform="translate(24.395 15.055807)scale(0.16 -0.16)">
       <use xlink:href="#DejaVuSans-31"/>
       <use x="63.623047" xlink:href="#DejaVuSans-2e"/>
       <use x="95.410156" xlink:href="#DejaVuSans-30"/>
      </g>
     </g>
    </g>
    <g id="text_13">
     <!-- Fraction of function,target pairs -->
     <defs>
      <path d="M 9.8125 72.90625 
L 51.703125 72.90625 
L 51.703125 64.59375 
L 19.671875 64.59375 
L 19.671875 43.109375 
L 48.578125 43.109375 
L 48.578125 34.8125 
L 19.671875 34.8125 
L 19.671875 0 
L 9.8125 0 
z
" id="DejaVuSans-46"/>
      <path d="M 41.109375 46.296875 
Q 39.59375 47.171875 37.8125 47.578125 
Q 36.03125 48 33.890625 48 
Q 26.265625 48 22.1875 43.046875 
Q 18.109375 38.09375 18.109375 28.8125 
L 18.109375 0 
L 9.078125 0 
L 9.078125 54.6875 
L 18.109375 54.6875 
L 18.109375 46.1875 
Q 20.953125 51.171875 25.484375 53.578125 
Q 30.03125 56 36.53125 56 
Q 37.453125 56 38.578125 55.875 
Q 39.703125 55.765625 41.0625 55.515625 
z
" id="DejaVuSans-72"/>
      <path d="M 48.78125 52.59375 
L 48.78125 44.1875 
Q 44.96875 46.296875 41.140625 47.34375 
Q 37.3125 48.390625 33.40625 48.390625 
Q 24.65625 48.390625 19.8125 42.84375 
Q 14.984375 37.3125 14.984375 27.296875 
Q 14.984375 17.28125 19.8125 11.734375 
Q 24.65625 6.203125 33.40625 6.203125 
Q 37.3125 6.203125 41.140625 7.25 
Q 44.96875 8.296875 48.78125 10.40625 
L 48.78125 2.09375 
Q 45.015625 0.34375 40.984375 -0.53125 
Q 36.96875 -1.421875 32.421875 -1.421875 
Q 20.0625 -1.421875 12.78125 6.34375 
Q 5.515625 14.109375 5.515625 27.296875 
Q 5.515625 40.671875 12.859375 48.328125 
Q 20.21875 56 33.015625 56 
Q 37.15625 56 41.109375 55.140625 
Q 45.0625 54.296875 48.78125 52.59375 
z
" id="DejaVuSans-63"/>
      <path d="M 18.3125 70.21875 
L 18.3125 54.6875 
L 36.8125 54.6875 
L 36.8125 47.703125 
L 18.3125 47.703125 
L 18.3125 18.015625 
Q 18.3125 11.328125 20.140625 9.421875 
Q 21.96875 7.515625 27.59375 7.515625 
L 36.8125 7.515625 
L 36.8125 0 
L 27.59375 0 
Q 17.1875 0 13.234375 3.875 
Q 9.28125 7.765625 9.28125 18.015625 
L 9.28125 47.703125 
L 2.6875 47.703125 
L 2.6875 54.6875 
L 9.28125 54.6875 
L 9.28125 70.21875 
z
" id="DejaVuSans-74"/>
      <path d="M 8.5 21.578125 
L 8.5 54.6875 
L 17.484375 54.6875 
L 17.484375 21.921875 
Q 17.484375 14.15625 20.5 10.265625 
Q 23.53125 6.390625 29.59375 6.390625 
Q 36.859375 6.390625 41.078125 11.03125 
Q 45.3125 15.671875 45.3125 23.6875 
L 45.3125 54.6875 
L 54.296875 54.6875 
L 54.296875 0 
L 45.3125 0 
L 45.3125 8.40625 
Q 42.046875 3.421875 37.71875 1 
Q 33.40625 -1.421875 27.6875 -1.421875 
Q 18.265625 -1.421875 13.375 4.4375 
Q 8.5 10.296875 8.5 21.578125 
z
M 31.109375 56 
z
" id="DejaVuSans-75"/>
      <path d="M 11.71875 12.40625 
L 22.015625 12.40625 
L 22.015625 4 
L 14.015625 -11.625 
L 7.71875 -11.625 
L 11.71875 4 
z
" id="DejaVuSans-2c"/>
      <path d="M 18.109375 8.203125 
L 18.109375 -20.796875 
L 9.078125 -20.796875 
L 9.078125 54.6875 
L 18.109375 54.6875 
L 18.109375 46.390625 
Q 20.953125 51.265625 25.265625 53.625 
Q 29.59375 56 35.59375 56 
Q 45.5625 56 51.78125 48.09375 
Q 58.015625 40.1875 58.015625 27.296875 
Q 58.015625 14.40625 51.78125 6.484375 
Q 45.5625 -1.421875 35.59375 -1.421875 
Q 29.59375 -1.421875 25.265625 0.953125 
Q 20.953125 3.328125 18.109375 8.203125 
z
M 48.6875 27.296875 
Q 48.6875 37.203125 44.609375 42.84375 
Q 40.53125 48.484375 33.40625 48.484375 
Q 26.265625 48.484375 22.1875 42.84375 
Q 18.109375 37.203125 18.109375 27.296875 
Q 18.109375 17.390625 22.1875 11.75 
Q 26.265625 6.109375 33.40625 6.109375 
Q 40.53125 6.109375 44.609375 11.75 
Q 48.6875 17.390625 48.6875 27.296875 
z
" id="DejaVuSans-70"/>
     </defs>
     <g transform="translate(16.859531 285.281989)rotate(-90)scale(0.17 -0.17)">
      <use xlink:href="#DejaVuSans-46"/>
      <use x="57.410156" xlink:href="#DejaVuSans-72"/>
      <use x="98.523438" xlink:href="#DejaVuSans-61"/>
      <use x="159.802734" xlink:href="#DejaVuSans-63"/>
      <use x="214.783203" xlink:href="#DejaVuSans-74"/>
      <use x="253.992188" xlink:href="#DejaVuSans-69"/>
      <use x="281.775391" xlink:href="#DejaVuSans-6f"/>
      <use x="342.957031" xlink:href="#DejaVuSans-6e"/>
      <use x="406.335938" xlink:href="#DejaVuSans-20"/>
      <use x="438.123047" xlink:href="#DejaVuSans-6f"/>
      <use x="499.304688" xlink:href="#DejaVuSans-66"/>
      <use x="534.509766" xlink:href="#DejaVuSans-20"/>
      <use x="566.296875" xlink:href="#DejaVuSans-66"/>
      <use x="601.501953" xlink:href="#DejaVuSans-75"/>
      <use x="664.880859" xlink:href="#DejaVuSans-6e"/>
      <use x="728.259766" xlink:href="#DejaVuSans-63"/>
      <use x="783.240234" xlink:href="#DejaVuSans-74"/>
      <use x="822.449219" xlink:href="#DejaVuSans-69"/>
      <use x="850.232422" xlink:href="#DejaVuSans-6f"/>
      <use x="911.414062" xlink:href="#DejaVuSans-6e"/>
      <use x="974.792969" xlink:href="#DejaVuSans-2c"/>
      <use x="1006.580078" xlink:href="#DejaVuSans-74"/>
      <use x="1045.789062" xlink:href="#DejaVuSans-61"/>
      <use x="1107.068359" xlink:href="#DejaVuSans-72"/>
      <use x="1148.166016" xlink:href="#DejaVuSans-67"/>
      <use x="1211.642578" xlink:href="#DejaVuSans-65"/>
      <use x="1273.166016" xlink:href="#DejaVuSans-74"/>
      <use x="1312.375" xlink:href="#DejaVuSans-20"/>
      <use x="1344.162109" xlink:href="#DejaVuSans-70"/>
      <use x="1407.638672" xlink:href="#DejaVuSans-61"/>
      <use x="1468.917969" xlink:href="#DejaVuSans-69"/>
      <use x="1496.701172" xlink:href="#DejaVuSans-72"/>
      <use x="1537.814453" xlink:href="#DejaVuSans-73"/>
     </g>
    </g>
   </g>
   <g id="line2d_23">
    <defs>
     <path d="M 0 1.5 
C 0.397805 1.5 0.77937 1.341951 1.06066 1.06066 
C 1.341951 0.77937 1.5 0.397805 1.5 0 
C 1.5 -0.397805 1.341951 -0.77937 1.06066 -1.06066 
C 0.77937 -1.341951 0.397805 -1.5 0 -1.5 
C -0.397805 -1.5 -0.77937 -1.341951 -1.06066 -1.06066 
C -1.341951 -0.77937 -1.5 -0.397805 -1.5 0 
C -1.5 0.397805 -1.341951 0.77937 -1.06066 1.06066 
C -0.77937 1.341951 -0.397805 1.5 0 1.5 
z
" id="mbf0448d1f4" style="stroke:#000080;"/>
    </defs>
    <g>
     <use style="fill:#000080;stroke:#000080;" x="265.315875" xlink:href="#mbf0448d1f4" y="199.099019"/>
     <use style="fill:#000080;stroke:#000080;" x="265.315875" xlink:href="#mbf0448d1f4" y="199.099019"/>
    </g>
   </g>
   <g id="line2d_24">
    <path d="M 129.28406 294.16 
L 129.28406 293.041636 
L 129.781742 293.041636 
L 129.781742 292.482453 
L 135.204571 292.482453 
L 135.204571 291.923271 
L 136.019517 291.923271 
L 136.019517 291.364089 
L 141.600325 291.364089 
L 141.600325 290.804907 
L 145.049342 290.804907 
L 145.049342 290.245724 
L 147.948453 290.245724 
L 147.948453 289.12736 
L 151.841888 289.12736 
L 151.841888 288.568178 
L 153.085128 288.568178 
L 153.085128 288.008995 
L 154.575506 288.008995 
L 154.575506 287.449813 
L 154.805449 287.449813 
L 154.805449 286.890631 
L 160.297139 286.890631 
L 160.297139 286.331449 
L 160.516903 286.331449 
L 160.516903 285.772266 
L 161.10714 285.772266 
L 161.146654 284.653902 
L 161.57541 284.653902 
L 161.664998 283.535537 
L 161.893243 283.535537 
L 161.893243 282.976355 
L 162.180542 282.976355 
L 162.267035 281.857991 
L 162.511784 281.857991 
L 162.511784 281.298808 
L 163.214108 281.298808 
L 163.214108 280.739626 
L 163.866386 280.739626 
L 163.866386 280.180444 
L 164.975139 280.180444 
L 165.048667 279.062079 
L 165.153165 279.062079 
L 165.153165 278.502897 
L 167.026553 278.502897 
L 167.11971 276.825351 
L 167.193874 276.825351 
L 167.193874 276.266168 
L 167.396187 276.266168 
L 167.396187 275.706986 
L 169.100568 275.706986 
L 169.100568 275.147804 
L 169.240722 275.147804 
L 169.240722 274.588622 
L 169.42854 274.588622 
L 169.42854 274.029439 
L 170.846456 274.029439 
L 170.846456 273.470257 
L 171.578402 273.470257 
L 171.578402 272.911075 
L 175.10881 272.911075 
L 175.10881 272.351893 
L 175.392312 272.351893 
L 175.392312 271.79271 
L 177.404306 271.79271 
L 177.404306 271.233528 
L 177.531427 271.233528 
L 177.531427 270.674346 
L 177.707829 270.674346 
L 177.707829 270.115164 
L 177.936949 270.115164 
L 177.936949 269.555981 
L 178.635045 269.555981 
L 178.663525 268.437617 
L 178.838117 268.437617 
L 178.838117 267.878435 
L 179.559816 267.878435 
L 179.559816 267.319252 
L 182.169065 267.319252 
L 182.276997 265.641706 
L 182.468061 265.641706 
L 182.479458 264.523341 
L 182.884774 264.523341 
L 182.977249 263.404977 
L 184.335023 263.404977 
L 184.352057 262.286612 
L 184.895017 262.286612 
L 184.904912 261.168248 
L 185.318639 261.168248 
L 185.318639 260.609066 
L 185.904015 260.609066 
L 185.904015 260.049883 
L 187.287107 260.049883 
L 187.295715 258.931519 
L 187.518024 258.931519 
L 187.61685 257.813154 
L 187.675873 257.813154 
L 187.675873 257.253972 
L 188.143628 257.253972 
L 188.143628 256.69479 
L 188.66797 256.69479 
L 188.763044 255.576425 
L 188.7841 255.576425 
L 188.7841 255.017243 
L 189.447152 255.017243 
L 189.447152 254.458061 
L 189.847376 254.458061 
L 189.847376 253.898879 
L 190.131814 253.898879 
L 190.187655 252.780514 
L 191.036519 252.780514 
L 191.036519 252.221332 
L 191.333842 252.221332 
L 191.376869 251.102967 
L 192.299306 251.102967 
L 192.348535 249.984603 
L 193.047948 249.984603 
L 193.047948 249.425421 
L 193.336883 249.425421 
L 193.336883 248.866238 
L 194.453886 248.866238 
L 194.453886 248.307056 
L 194.783453 248.307056 
L 194.783453 247.747874 
L 194.940383 247.747874 
L 194.940383 247.188692 
L 195.097711 247.188692 
L 195.097711 246.62951 
L 195.651391 246.62951 
L 195.651391 246.070327 
L 196.038438 246.070327 
L 196.038438 245.511145 
L 196.158693 245.511145 
L 196.266206 244.392781 
L 197.468418 244.392781 
L 197.468418 243.833598 
L 198.323905 243.833598 
L 198.323905 243.274416 
L 198.459188 243.274416 
L 198.529414 241.596869 
L 198.876301 241.596869 
L 198.876301 241.037687 
L 199.82571 241.037687 
L 199.82571 240.478505 
L 200.482218 240.478505 
L 200.482218 239.919323 
L 201.590186 239.919323 
L 201.590186 239.36014 
L 202.623921 239.36014 
L 202.623921 238.800958 
L 204.313068 238.800958 
L 204.39909 237.123411 
L 204.534154 237.123411 
L 204.534154 236.564229 
L 205.988491 236.564229 
L 206.08959 234.886682 
L 207.030084 234.886682 
L 207.030084 234.3275 
L 207.270149 234.3275 
L 207.270149 233.768318 
L 207.547516 233.768318 
L 207.547516 233.209136 
L 208.046383 233.209136 
L 208.046383 232.649954 
L 208.166741 232.649954 
L 208.166741 232.090771 
L 208.534493 232.090771 
L 208.534493 231.531589 
L 208.821817 231.531589 
L 208.821817 230.972407 
L 210.000394 230.972407 
L 210.000394 230.413225 
L 210.889714 230.413225 
L 210.889714 229.854042 
L 211.09248 229.854042 
L 211.199745 228.735678 
L 211.979474 228.735678 
L 211.979474 228.176496 
L 212.693333 228.176496 
L 212.746183 227.058131 
L 212.965623 227.058131 
L 212.965623 226.498949 
L 213.590243 226.498949 
L 213.590243 225.939767 
L 215.158136 225.939767 
L 215.17511 224.821402 
L 216.142655 224.821402 
L 216.142655 224.26222 
L 217.562928 224.26222 
L 217.638544 221.466309 
L 218.515295 221.466309 
L 218.515295 220.907126 
L 219.049717 220.907126 
L 219.105584 219.788762 
L 219.701468 219.788762 
L 219.776034 218.111215 
L 220.010615 218.111215 
L 220.010615 217.552033 
L 221.447403 217.552033 
L 221.541336 216.433669 
L 222.816722 216.433669 
L 222.816722 215.874486 
L 223.904854 215.874486 
L 223.904854 215.315304 
L 224.519537 215.315304 
L 224.519537 214.756122 
L 224.94861 214.756122 
L 224.94861 214.19694 
L 226.69799 214.19694 
L 226.69799 213.637757 
L 226.833883 213.637757 
L 226.902572 211.960211 
L 227.742568 211.960211 
L 227.742568 211.401028 
L 228.131429 211.401028 
L 228.131429 210.841846 
L 231.119545 210.841846 
L 231.119545 210.282664 
L 231.472259 210.282664 
L 231.472259 209.723482 
L 233.442846 209.723482 
L 233.442846 209.164299 
L 235.152165 209.164299 
L 235.152165 208.605117 
L 237.738358 208.605117 
L 237.845906 206.92757 
L 241.20915 206.92757 
L 241.20915 206.368388 
L 241.892534 206.368388 
L 241.892534 205.809206 
L 243.329071 205.809206 
L 243.329071 205.250024 
L 243.672761 205.250024 
L 243.672761 204.690841 
L 245.10215 204.690841 
L 245.10215 204.131659 
L 245.854873 204.131659 
L 245.854873 203.572477 
L 246.181338 203.572477 
L 246.181338 203.013295 
L 247.569591 203.013295 
L 247.569591 202.454112 
L 247.79861 202.454112 
L 247.79861 201.89493 
L 248.459264 201.89493 
L 248.459264 201.335748 
L 255.282792 201.335748 
L 255.282792 200.776566 
L 257.882838 200.776566 
L 257.882838 200.217384 
L 258.065835 200.217384 
L 258.065835 199.658201 
L 265.315875 199.658201 
L 265.315875 199.099019 
L 333.569032 199.099019 
L 333.569032 199.099019 
" style="fill:none;stroke:#000080;stroke-linecap:square;stroke-width:1.5;"/>
   </g>
   <g id="line2d_25">
    <defs>
     <path d="M 0 6 
C 1.591219 6 3.117479 5.367802 4.242641 4.242641 
C 5.367802 3.117479 6 1.591219 6 0 
C 6 -1.591219 5.367802 -3.117479 4.242641 -4.242641 
C 3.117479 -5.367802 1.591219 -6 0 -6 
C -1.591219 -6 -3.117479 -5.367802 -4.242641 -4.242641 
C -5.367802 -3.117479 -6 -1.591219 -6 0 
C -6 1.591219 -5.367802 3.117479 -4.242641 4.242641 
C -3.117479 5.367802 -1.591219 6 0 6 
z
" id="m58d41b6678" style="stroke:#000080;stroke-width:1.5;"/>
    </defs>
    <g>
     <use style="fill-opacity:0;stroke:#000080;stroke-width:1.5;" x="184.904912" xlink:href="#m58d41b6678" y="261.72743"/>
     <use style="fill-opacity:0;stroke:#000080;stroke-width:1.5;" x="217.638544" xlink:href="#m58d41b6678" y="221.466309"/>
     <use style="fill-opacity:0;stroke:#000080;stroke-width:1.5;" x="265.315875" xlink:href="#m58d41b6678" y="199.658201"/>
     <use style="fill-opacity:0;stroke:#000080;stroke-width:1.5;" x="265.315875" xlink:href="#m58d41b6678" y="199.099019"/>
     <use style="fill-opacity:0;stroke:#000080;stroke-width:1.5;" x="333.569032" xlink:href="#m58d41b6678" y="199.099019"/>
    </g>
   </g>
   <g id="line2d_26">
    <path style="fill:none;stroke:#000080;stroke-linecap:square;stroke-width:1.5;"/>
    <g/>
   </g>
   <g id="line2d_27">
    <path clip-path="url(#p107706cdc8)" d="M 164.100586 280.180444 
" style="fill:none;stroke:#000080;stroke-linecap:square;stroke-width:1.5;"/>
    <defs>
     <path d="M -12 12 
L 12 -12 
M -12 -12 
L 12 12 
" id="m797f6578e6" style="stroke:#000080;stroke-width:3;"/>
    </defs>
    <g clip-path="url(#p107706cdc8)">
     <use style="fill:#000080;stroke:#000080;stroke-width:3;" x="164.100586" xlink:href="#m797f6578e6" y="280.180444"/>
    </g>
   </g>
   <g id="line2d_28">
    <defs>
     <path d="M 0 1.5 
C 0.397805 1.5 0.77937 1.341951 1.06066 1.06066 
C 1.341951 0.77937 1.5 0.397805 1.5 0 
C 1.5 -0.397805 1.341951 -0.77937 1.06066 -1.06066 
C 0.77937 -1.341951 0.397805 -1.5 0 -1.5 
C -0.397805 -1.5 -0.77937 -1.341951 -1.06066 -1.06066 
C -1.341951 -0.77937 -1.5 -0.397805 -1.5 0 
C -1.5 0.397805 -1.341951 0.77937 -1.06066 1.06066 
C -0.77937 1.341951 -0.397805 1.5 0 1.5 
z
" id="mbdb571a7c2" style="stroke:#ff00ff;"/>
    </defs>
    <g>
     <use style="fill:#ff00ff;stroke:#ff00ff;" x="253.979229" xlink:href="#mbdb571a7c2" y="232.649954"/>
     <use style="fill:#ff00ff;stroke:#ff00ff;" x="253.979229" xlink:href="#mbdb571a7c2" y="232.649954"/>
    </g>
   </g>
   <g id="line2d_29">
    <path d="M 79.147184 294.16 
L 79.147184 293.600818 
L 82.015309 293.600818 
L 82.015309 293.041636 
L 83.287657 293.041636 
L 83.287657 292.482453 
L 99.973377 292.482453 
L 99.973377 291.923271 
L 102.553549 291.923271 
L 102.553549 291.364089 
L 105.482991 291.364089 
L 105.482991 290.804907 
L 106.779369 290.804907 
L 106.779369 290.245724 
L 114.253276 290.245724 
L 114.253276 289.12736 
L 117.043537 289.12736 
L 117.043537 288.568178 
L 117.551028 288.568178 
L 117.551028 288.008995 
L 117.881208 288.008995 
L 117.881208 287.449813 
L 119.443088 287.449813 
L 119.443088 286.890631 
L 125.112955 286.890631 
L 125.112955 286.331449 
L 126.651492 286.331449 
L 126.651492 285.772266 
L 127.418943 285.772266 
L 127.418943 285.213084 
L 129.781742 285.213084 
L 129.781742 284.653902 
L 133.249308 284.653902 
L 133.249308 284.09472 
L 138.054344 284.09472 
L 138.054344 283.535537 
L 139.598651 283.535537 
L 139.598651 282.417173 
L 142.674971 282.417173 
L 142.674971 281.857991 
L 146.155293 281.857991 
L 146.155293 281.298808 
L 146.529221 281.298808 
L 146.529221 280.739626 
L 148.14596 280.739626 
L 148.14596 280.180444 
L 148.752307 280.180444 
L 148.752307 279.621262 
L 150.960051 279.621262 
L 150.960051 279.062079 
L 152.177884 279.062079 
L 152.177884 277.943715 
L 155.013559 277.943715 
L 155.088614 276.825351 
L 155.641307 276.825351 
L 155.641307 276.266168 
L 161.212309 276.266168 
L 161.212309 275.706986 
L 163.606161 275.706986 
L 163.606161 275.147804 
L 164.342559 275.147804 
L 164.342559 274.588622 
L 166.427745 274.588622 
L 166.427745 274.029439 
L 166.800891 274.029439 
L 166.800891 273.470257 
L 167.793799 273.470257 
L 167.793799 272.911075 
L 168.407977 272.911075 
L 168.407977 272.351893 
L 171.975059 272.351893 
L 171.975059 271.79271 
L 173.718032 271.79271 
L 173.718032 271.233528 
L 174.641642 271.233528 
L 174.641642 270.674346 
L 175.282938 270.674346 
L 175.282938 270.115164 
L 175.789363 270.115164 
L 175.789363 269.555981 
L 175.923408 269.555981 
L 175.923408 268.996799 
L 176.171956 268.996799 
L 176.171956 268.437617 
L 177.521291 268.437617 
L 177.521291 267.878435 
L 177.772891 267.878435 
L 177.772891 267.319252 
L 177.996221 267.319252 
L 178.074932 266.200888 
L 178.781687 266.200888 
L 178.781687 265.641706 
L 179.947049 265.641706 
L 179.977829 264.523341 
L 180.72152 264.523341 
L 180.72152 263.964159 
L 181.219083 263.964159 
L 181.219083 263.404977 
L 181.845078 263.404977 
L 181.845078 262.845795 
L 182.095437 262.845795 
L 182.095437 262.286612 
L 182.280839 262.286612 
L 182.280839 261.72743 
L 182.641982 261.72743 
L 182.641982 261.168248 
L 182.754467 261.168248 
L 182.754467 260.609066 
L 185.33794 260.609066 
L 185.33794 260.049883 
L 188.915121 260.049883 
L 188.915121 259.490701 
L 190.221557 259.490701 
L 190.221557 258.931519 
L 190.356499 258.931519 
L 190.356499 258.372337 
L 193.021251 258.372337 
L 193.037685 257.253972 
L 193.168589 257.253972 
L 193.168589 256.69479 
L 193.555418 256.69479 
L 193.555418 256.135608 
L 194.703516 256.135608 
L 194.703516 255.576425 
L 196.706242 255.576425 
L 196.706242 255.017243 
L 197.534908 255.017243 
L 197.534908 254.458061 
L 198.439713 254.458061 
L 198.439713 253.898879 
L 198.791336 253.898879 
L 198.791336 253.339696 
L 199.766151 253.339696 
L 199.8492 252.221332 
L 200.012733 252.221332 
L 200.012733 251.66215 
L 200.154389 251.66215 
L 200.154389 251.102967 
L 200.697782 251.102967 
L 200.697782 250.543785 
L 200.902883 250.543785 
L 200.902883 249.984603 
L 201.757798 249.984603 
L 201.757798 249.425421 
L 202.595704 249.425421 
L 202.595704 248.866238 
L 203.750318 248.866238 
L 203.750318 248.307056 
L 205.25859 248.307056 
L 205.315928 247.188692 
L 205.406075 247.188692 
L 205.406075 246.62951 
L 206.178639 246.62951 
L 206.289069 244.951963 
L 206.725668 244.951963 
L 206.725668 244.392781 
L 207.442253 244.392781 
L 207.442253 243.833598 
L 209.065708 243.833598 
L 209.065708 243.274416 
L 211.401722 243.274416 
L 211.401722 242.715234 
L 214.732296 242.715234 
L 214.732296 242.156052 
L 216.406287 242.156052 
L 216.406287 241.596869 
L 217.173225 241.596869 
L 217.173225 241.037687 
L 218.699129 241.037687 
L 218.699129 240.478505 
L 219.385324 240.478505 
L 219.385324 239.919323 
L 221.39985 239.919323 
L 221.39985 239.36014 
L 223.149397 239.36014 
L 223.149397 238.800958 
L 223.660621 238.800958 
L 223.660621 238.241776 
L 224.177159 238.241776 
L 224.177159 237.682594 
L 224.507719 237.682594 
L 224.507719 237.123411 
L 225.483643 237.123411 
L 225.483643 236.564229 
L 225.759084 236.564229 
L 225.759084 236.005047 
L 227.538179 236.005047 
L 227.538179 235.445865 
L 232.02513 235.445865 
L 232.02513 234.886682 
L 237.367727 234.886682 
L 237.367727 234.3275 
L 241.410682 234.3275 
L 241.410682 233.768318 
L 243.065597 233.768318 
L 243.065597 233.209136 
L 253.979229 233.209136 
L 253.979229 232.649954 
L 333.569032 232.649954 
L 333.569032 232.649954 
" style="fill:none;stroke:#ff00ff;stroke-linecap:square;stroke-width:1.5;"/>
   </g>
   <g id="line2d_30">
    <defs>
     <path d="M -0 8.485281 
L 5.091169 0 
L 0 -8.485281 
L -5.091169 -0 
z
" id="m1587026617" style="stroke:#ff00ff;stroke-linejoin:miter;stroke-width:1.5;"/>
    </defs>
    <g>
     <use style="fill-opacity:0;stroke:#ff00ff;stroke-linejoin:miter;stroke-width:1.5;" x="175.282938" xlink:href="#m1587026617" y="270.674346"/>
     <use style="fill-opacity:0;stroke:#ff00ff;stroke-linejoin:miter;stroke-width:1.5;" x="221.39985" xlink:href="#m1587026617" y="239.36014"/>
     <use style="fill-opacity:0;stroke:#ff00ff;stroke-linejoin:miter;stroke-width:1.5;" x="253.979229" xlink:href="#m1587026617" y="232.649954"/>
     <use style="fill-opacity:0;stroke:#ff00ff;stroke-linejoin:miter;stroke-width:1.5;" x="253.979229" xlink:href="#m1587026617" y="232.649954"/>
     <use style="fill-opacity:0;stroke:#ff00ff;stroke-linejoin:miter;stroke-width:1.5;" x="333.569032" xlink:href="#m1587026617" y="232.649954"/>
    </g>
   </g>
   <g id="line2d_31">
    <path style="fill:none;stroke:#ff00ff;stroke-linecap:square;stroke-width:1.5;"/>
    <g/>
   </g>
   <g id="line2d_32">
    <path clip-path="url(#p107706cdc8)" d="M 164.100586 275.147804 
" style="fill:none;stroke:#ff00ff;stroke-linecap:square;stroke-width:1.5;"/>
    <defs>
     <path d="M -12 12 
L 12 -12 
M -12 -12 
L 12 12 
" id="m8d40b4cd8f" style="stroke:#ff00ff;stroke-width:3;"/>
    </defs>
    <g clip-path="url(#p107706cdc8)">
     <use style="fill:#ff00ff;stroke:#ff00ff;stroke-width:3;" x="164.100586" xlink:href="#m8d40b4cd8f" y="275.147804"/>
    </g>
   </g>
   <g id="line2d_33">
    <defs>
     <path d="M 0 1.5 
C 0.397805 1.5 0.77937 1.341951 1.06066 1.06066 
C 1.341951 0.77937 1.5 0.397805 1.5 0 
C 1.5 -0.397805 1.341951 -0.77937 1.06066 -1.06066 
C 0.77937 -1.341951 0.397805 -1.5 0 -1.5 
C -0.397805 -1.5 -0.77937 -1.341951 -1.06066 -1.06066 
C -1.341951 -0.77937 -1.5 -0.397805 -1.5 0 
C -1.5 0.397805 -1.341951 0.77937 -1.06066 1.06066 
C -0.77937 1.341951 -0.397805 1.5 0 1.5 
z
" id="mdc559395f3" style="stroke:#ffa500;"/>
    </defs>
    <g>
     <use style="fill:#ffa500;stroke:#ffa500;" x="251.74226" xlink:href="#mdc559395f3" y="227.058131"/>
     <use style="fill:#ffa500;stroke:#ffa500;" x="251.74226" xlink:href="#mdc559395f3" y="227.058131"/>
    </g>
   </g>
   <g id="line2d_34">
    <path d="M 130.105692 294.16 
L 130.105692 293.600818 
L 132.074321 293.600818 
L 132.074321 293.041636 
L 133.840264 293.041636 
L 133.840264 292.482453 
L 139.035688 292.482453 
L 139.035688 291.923271 
L 139.225401 291.923271 
L 139.225401 291.364089 
L 142.205634 291.364089 
L 142.205634 290.804907 
L 150.47707 290.804907 
L 150.47707 290.245724 
L 151.568275 290.245724 
L 151.568275 289.686542 
L 155.31183 289.686542 
L 155.31183 289.12736 
L 156.017871 289.12736 
L 156.08867 288.008995 
L 156.627686 288.008995 
L 156.627686 286.890631 
L 164.100586 286.890631 
L 164.100586 286.331449 
L 166.81981 286.331449 
L 166.895278 285.213084 
L 167.240064 285.213084 
L 167.322894 284.09472 
L 167.596144 284.09472 
L 167.596144 283.535537 
L 170.361086 283.535537 
L 170.361086 282.976355 
L 172.533053 282.976355 
L 172.533053 282.417173 
L 172.668082 282.417173 
L 172.668082 281.857991 
L 172.862006 281.857991 
L 172.862006 281.298808 
L 173.398781 281.298808 
L 173.398781 280.739626 
L 176.281277 280.739626 
L 176.281277 280.180444 
L 179.103656 280.180444 
L 179.103656 279.062079 
L 179.419698 279.062079 
L 179.419698 278.502897 
L 181.104268 278.502897 
L 181.104268 277.943715 
L 184.105118 277.943715 
L 184.105118 277.384533 
L 186.129619 277.384533 
L 186.129619 276.825351 
L 186.312853 276.825351 
L 186.312853 276.266168 
L 186.715148 276.266168 
L 186.715148 275.706986 
L 188.317491 275.706986 
L 188.317491 275.147804 
L 188.820887 275.147804 
L 188.820887 274.588622 
L 190.618515 274.588622 
L 190.618515 274.029439 
L 190.785535 274.029439 
L 190.785535 273.470257 
L 191.911281 273.470257 
L 191.911281 272.911075 
L 192.412534 272.911075 
L 192.412534 272.351893 
L 193.694309 272.351893 
L 193.694309 271.79271 
L 194.956915 271.79271 
L 194.956915 271.233528 
L 195.361547 271.233528 
L 195.361547 270.674346 
L 195.960685 270.674346 
L 196.052224 269.555981 
L 197.143365 269.555981 
L 197.143365 268.996799 
L 198.053164 268.996799 
L 198.05623 267.878435 
L 198.69266 267.878435 
L 198.69266 267.319252 
L 199.885063 267.319252 
L 199.885063 266.76007 
L 200.177434 266.76007 
L 200.177434 266.200888 
L 200.471568 266.200888 
L 200.471568 265.641706 
L 200.583063 265.641706 
L 200.662261 264.523341 
L 201.265238 264.523341 
L 201.304609 262.845795 
L 202.241425 262.845795 
L 202.241425 262.286612 
L 203.112639 262.286612 
L 203.112639 261.72743 
L 203.666503 261.72743 
L 203.666503 261.168248 
L 204.006924 261.168248 
L 204.015593 260.049883 
L 204.243725 260.049883 
L 204.292827 258.931519 
L 204.4562 258.931519 
L 204.533103 257.253972 
L 204.663992 257.253972 
L 204.663992 256.69479 
L 205.729679 256.69479 
L 205.729679 256.135608 
L 205.899418 256.135608 
L 205.899418 255.576425 
L 207.03917 255.576425 
L 207.03917 255.017243 
L 207.584514 255.017243 
L 207.584514 254.458061 
L 208.163338 254.458061 
L 208.257516 253.339696 
L 208.427589 253.339696 
L 208.427589 252.780514 
L 208.577733 252.780514 
L 208.577733 252.221332 
L 210.331251 252.221332 
L 210.331251 251.66215 
L 210.98093 251.66215 
L 210.98093 251.102967 
L 211.80763 251.102967 
L 211.80763 250.543785 
L 212.926988 250.543785 
L 212.983623 249.425421 
L 213.543042 249.425421 
L 213.543042 248.866238 
L 213.657714 248.866238 
L 213.676238 247.747874 
L 213.965681 247.747874 
L 213.965681 247.188692 
L 214.671255 247.188692 
L 214.740418 246.070327 
L 215.456683 246.070327 
L 215.456683 245.511145 
L 215.755595 245.511145 
L 215.755595 244.951963 
L 217.880815 244.951963 
L 217.880815 244.392781 
L 218.541811 244.392781 
L 218.627589 243.274416 
L 219.623085 243.274416 
L 219.623085 242.715234 
L 220.114843 242.715234 
L 220.114843 242.156052 
L 220.678491 242.156052 
L 220.678491 241.596869 
L 221.114933 241.596869 
L 221.114933 241.037687 
L 222.261753 241.037687 
L 222.261753 240.478505 
L 223.596679 240.478505 
L 223.596679 239.919323 
L 224.046439 239.919323 
L 224.046439 239.36014 
L 225.45197 239.36014 
L 225.45197 238.800958 
L 225.64575 238.800958 
L 225.665715 237.682594 
L 225.89774 237.682594 
L 225.89774 237.123411 
L 226.158616 237.123411 
L 226.158616 236.564229 
L 226.462247 236.564229 
L 226.462247 236.005047 
L 227.773547 236.005047 
L 227.773547 235.445865 
L 227.923034 235.445865 
L 227.923034 234.886682 
L 228.221068 234.886682 
L 228.221068 234.3275 
L 228.709747 234.3275 
L 228.760832 233.209136 
L 230.234006 233.209136 
L 230.262213 232.090771 
L 233.899414 232.090771 
L 233.899414 231.531589 
L 234.542248 231.531589 
L 234.542248 230.972407 
L 236.351513 230.972407 
L 236.351513 230.413225 
L 237.60427 230.413225 
L 237.60427 229.854042 
L 238.701838 229.854042 
L 238.701838 229.29486 
L 241.80007 229.29486 
L 241.80007 228.735678 
L 248.634794 228.735678 
L 248.634794 228.176496 
L 249.126697 228.176496 
L 249.126697 227.617313 
L 251.74226 227.617313 
L 251.74226 227.058131 
L 333.569032 227.058131 
L 333.569032 227.058131 
" style="fill:none;stroke:#ffa500;stroke-linecap:square;stroke-width:1.5;"/>
   </g>
   <g id="line2d_35">
    <defs>
     <path d="M 0 -6 
L -1.347084 -1.854102 
L -5.706339 -1.854102 
L -2.179628 0.708204 
L -3.526712 4.854102 
L -0 2.291796 
L 3.526712 4.854102 
L 2.179628 0.708204 
L 5.706339 -1.854102 
L 1.347084 -1.854102 
z
" id="mfa249b1b4b" style="stroke:#ffa500;stroke-linejoin:bevel;stroke-width:1.5;"/>
    </defs>
    <g>
     <use style="fill-opacity:0;stroke:#ffa500;stroke-linejoin:bevel;stroke-width:1.5;" x="156.017871" xlink:href="#mfa249b1b4b" y="288.568178"/>
     <use style="fill-opacity:0;stroke:#ffa500;stroke-linejoin:bevel;stroke-width:1.5;" x="217.880815" xlink:href="#mfa249b1b4b" y="244.951963"/>
     <use style="fill-opacity:0;stroke:#ffa500;stroke-linejoin:bevel;stroke-width:1.5;" x="251.74226" xlink:href="#mfa249b1b4b" y="227.617313"/>
     <use style="fill-opacity:0;stroke:#ffa500;stroke-linejoin:bevel;stroke-width:1.5;" x="251.74226" xlink:href="#mfa249b1b4b" y="227.058131"/>
     <use style="fill-opacity:0;stroke:#ffa500;stroke-linejoin:bevel;stroke-width:1.5;" x="333.569032" xlink:href="#mfa249b1b4b" y="227.058131"/>
    </g>
   </g>
   <g id="line2d_36">
    <path style="fill:none;stroke:#ffa500;stroke-linecap:square;stroke-width:1.5;"/>
    <g/>
   </g>
   <g id="line2d_37">
    <path clip-path="url(#p107706cdc8)" d="M 164.100586 286.890631 
" style="fill:none;stroke:#ffa500;stroke-linecap:square;stroke-width:1.5;"/>
    <defs>
     <path d="M -12 12 
L 12 -12 
M -12 -12 
L 12 12 
" id="m497ddd5848" style="stroke:#ffa500;stroke-width:3;"/>
    </defs>
    <g clip-path="url(#p107706cdc8)">
     <use style="fill:#ffa500;stroke:#ffa500;stroke-width:3;" x="164.100586" xlink:href="#m497ddd5848" y="286.890631"/>
    </g>
   </g>
   <g id="line2d_38">
    <defs>
     <path d="M 0 1.5 
C 0.397805 1.5 0.77937 1.341951 1.06066 1.06066 
C 1.341951 0.77937 1.5 0.397805 1.5 0 
C 1.5 -0.397805 1.341951 -0.77937 1.06066 -1.06066 
C 0.77937 -1.341951 0.397805 -1.5 0 -1.5 
C -0.397805 -1.5 -0.77937 -1.341951 -1.06066 -1.06066 
C -1.341951 -0.77937 -1.5 -0.397805 -1.5 0 
C -1.5 0.397805 -1.341951 0.77937 -1.06066 1.06066 
C -0.77937 1.341951 -0.397805 1.5 0 1.5 
z
" id="m6b9662c850" style="stroke:#6495ed;"/>
    </defs>
    <g>
     <use style="fill:#6495ed;stroke:#6495ed;" x="252.961507" xlink:href="#m6b9662c850" y="215.874486"/>
     <use style="fill:#6495ed;stroke:#6495ed;" x="252.961507" xlink:href="#m6b9662c850" y="215.874486"/>
    </g>
   </g>
   <g id="line2d_39">
    <path d="M 96.935682 294.16 
L 96.935682 293.600818 
L 115.611972 293.600818 
L 115.611972 293.041636 
L 117.551028 293.041636 
L 117.551028 292.482453 
L 118.043947 292.482453 
L 118.043947 291.364089 
L 120.457576 291.364089 
L 120.457576 290.245724 
L 120.736751 290.245724 
L 120.736751 289.686542 
L 120.874654 289.686542 
L 120.874654 289.12736 
L 123.774446 289.12736 
L 123.774446 288.568178 
L 124.232309 288.568178 
L 124.232309 288.008995 
L 124.344892 288.008995 
L 124.344892 287.449813 
L 125.43189 287.449813 
L 125.43189 286.890631 
L 125.745009 286.890631 
L 125.848125 285.213084 
L 126.15381 285.213084 
L 126.15381 284.09472 
L 126.454147 284.09472 
L 126.454147 283.535537 
L 127.972824 283.535537 
L 127.972824 282.417173 
L 129.029702 282.417173 
L 129.029702 281.298808 
L 129.28406 281.298808 
L 129.28406 280.180444 
L 129.617446 280.180444 
L 129.617446 279.062079 
L 130.265403 279.062079 
L 130.265403 278.502897 
L 131.042407 278.502897 
L 131.042407 277.943715 
L 131.930648 277.943715 
L 131.930648 276.825351 
L 132.287602 276.825351 
L 132.287602 276.266168 
L 132.706375 276.266168 
L 132.706375 275.706986 
L 132.843726 275.706986 
L 132.843726 275.147804 
L 133.249308 275.147804 
L 133.249308 274.588622 
L 134.473872 274.588622 
L 134.473872 274.029439 
L 134.843109 274.029439 
L 134.843109 273.470257 
L 136.189227 273.470257 
L 136.245426 271.233528 
L 136.633752 271.233528 
L 136.633752 270.674346 
L 136.905847 270.674346 
L 136.905847 270.115164 
L 137.593751 270.115164 
L 137.593751 269.555981 
L 138.453637 269.555981 
L 138.453637 268.996799 
L 138.940039 268.996799 
L 138.940039 267.878435 
L 140.098971 267.878435 
L 140.098971 267.319252 
L 140.365849 267.319252 
L 140.365849 266.76007 
L 141.641349 266.76007 
L 141.641349 266.200888 
L 143.094209 266.200888 
L 143.094209 265.641706 
L 151.24345 265.641706 
L 151.24345 265.082523 
L 154.67169 265.082523 
L 154.67169 264.523341 
L 155.237747 264.523341 
L 155.237747 263.964159 
L 165.236307 263.964159 
L 165.236307 263.404977 
L 165.37056 263.404977 
L 165.401393 261.72743 
L 165.7168 261.72743 
L 165.736951 260.609066 
L 165.857364 260.609066 
L 165.887336 259.490701 
L 166.233195 259.490701 
L 166.262518 258.372337 
L 166.41807 258.372337 
L 166.41807 257.813154 
L 167.1661 257.813154 
L 167.1661 257.253972 
L 167.695256 257.253972 
L 167.695256 256.69479 
L 167.89178 256.69479 
L 167.98037 255.576425 
L 168.199868 255.576425 
L 168.199868 255.017243 
L 176.503232 255.017243 
L 176.57837 253.898879 
L 177.131656 253.898879 
L 177.131656 253.339696 
L 177.358311 253.339696 
L 177.358311 252.780514 
L 177.677717 252.780514 
L 177.677717 252.221332 
L 183.338635 252.221332 
L 183.349468 251.102967 
L 183.539736 251.102967 
L 183.539736 250.543785 
L 183.657149 250.543785 
L 183.657149 249.984603 
L 183.983783 249.984603 
L 183.983783 249.425421 
L 184.149967 249.425421 
L 184.235889 248.307056 
L 184.321383 248.307056 
L 184.321383 247.747874 
L 184.440364 247.747874 
L 184.440364 247.188692 
L 185.497949 247.188692 
L 185.497949 246.62951 
L 188.46015 246.62951 
L 188.46015 246.070327 
L 188.588337 246.070327 
L 188.588337 245.511145 
L 192.565166 245.511145 
L 192.5989 244.392781 
L 195.141361 244.392781 
L 195.141361 243.833598 
L 195.552363 243.833598 
L 195.617856 242.715234 
L 197.748462 242.715234 
L 197.748462 242.156052 
L 197.886789 242.156052 
L 197.886789 241.596869 
L 200.093239 241.596869 
L 200.157102 239.919323 
L 202.155926 239.919323 
L 202.155926 239.36014 
L 202.406396 239.36014 
L 202.406396 238.800958 
L 204.015593 238.800958 
L 204.104192 237.123411 
L 204.13972 237.123411 
L 204.13972 236.564229 
L 205.634321 236.564229 
L 205.744378 235.445865 
L 207.172182 235.445865 
L 207.172182 234.886682 
L 208.394045 234.886682 
L 208.432615 233.768318 
L 209.680957 233.768318 
L 209.777259 232.649954 
L 210.859928 232.649954 
L 210.859928 232.090771 
L 211.987646 232.090771 
L 211.987646 231.531589 
L 213.027259 231.531589 
L 213.027259 230.972407 
L 213.897584 230.972407 
L 213.897584 230.413225 
L 214.778657 230.413225 
L 214.778657 229.854042 
L 215.718926 229.854042 
L 215.718926 229.29486 
L 216.608281 229.29486 
L 216.608281 228.735678 
L 217.327575 228.735678 
L 217.327575 228.176496 
L 217.468679 228.176496 
L 217.468679 227.617313 
L 218.165863 227.617313 
L 218.165863 227.058131 
L 218.838123 227.058131 
L 218.838123 226.498949 
L 219.588571 226.498949 
L 219.652739 225.380584 
L 221.424626 225.380584 
L 221.424626 224.821402 
L 226.714747 224.821402 
L 226.714747 224.26222 
L 228.068561 224.26222 
L 228.068561 223.703038 
L 232.141727 223.703038 
L 232.141727 223.143855 
L 232.75786 223.143855 
L 232.75786 222.584673 
L 234.169397 222.584673 
L 234.169397 222.025491 
L 234.829406 222.025491 
L 234.829406 221.466309 
L 235.859891 221.466309 
L 235.882592 220.347944 
L 236.637406 220.347944 
L 236.674306 219.22958 
L 237.576989 219.22958 
L 237.576989 218.670397 
L 238.570318 218.670397 
L 238.570318 218.111215 
L 242.404127 218.111215 
L 242.404127 217.552033 
L 244.116096 217.552033 
L 244.116096 216.992851 
L 244.271548 216.992851 
L 244.271548 216.433669 
L 252.961507 216.433669 
L 252.961507 215.874486 
L 333.569032 215.874486 
L 333.569032 215.874486 
" style="fill:none;stroke:#6495ed;stroke-linecap:square;stroke-width:1.5;"/>
   </g>
   <g id="line2d_40">
    <defs>
     <path d="M -0 6 
L 6 -6 
L -6 -6 
z
" id="mddc8f3d602" style="stroke:#6495ed;stroke-linejoin:miter;stroke-width:1.5;"/>
    </defs>
    <g>
     <use style="fill-opacity:0;stroke:#6495ed;stroke-linejoin:miter;stroke-width:1.5;" x="151.24345" xlink:href="#mddc8f3d602" y="265.641706"/>
     <use style="fill-opacity:0;stroke:#6495ed;stroke-linejoin:miter;stroke-width:1.5;" x="204.13972" xlink:href="#mddc8f3d602" y="236.564229"/>
     <use style="fill-opacity:0;stroke:#6495ed;stroke-linejoin:miter;stroke-width:1.5;" x="252.961507" xlink:href="#mddc8f3d602" y="216.433669"/>
     <use style="fill-opacity:0;stroke:#6495ed;stroke-linejoin:miter;stroke-width:1.5;" x="252.961507" xlink:href="#mddc8f3d602" y="215.874486"/>
     <use style="fill-opacity:0;stroke:#6495ed;stroke-linejoin:miter;stroke-width:1.5;" x="333.569032" xlink:href="#mddc8f3d602" y="215.874486"/>
    </g>
   </g>
   <g id="line2d_41">
    <path style="fill:none;stroke:#6495ed;stroke-linecap:square;stroke-width:1.5;"/>
    <g/>
   </g>
   <g id="line2d_42">
    <path clip-path="url(#p107706cdc8)" d="M 164.100586 263.964159 
" style="fill:none;stroke:#6495ed;stroke-linecap:square;stroke-width:1.5;"/>
    <defs>
     <path d="M -12 12 
L 12 -12 
M -12 -12 
L 12 12 
" id="m54473b4068" style="stroke:#6495ed;stroke-width:3;"/>
    </defs>
    <g clip-path="url(#p107706cdc8)">
     <use style="fill:#6495ed;stroke:#6495ed;stroke-width:3;" x="164.100586" xlink:href="#m54473b4068" y="263.964159"/>
    </g>
   </g>
   <g id="line2d_43">
    <defs>
     <path d="M 0 1.5 
C 0.397805 1.5 0.77937 1.341951 1.06066 1.06066 
C 1.341951 0.77937 1.5 0.397805 1.5 0 
C 1.5 -0.397805 1.341951 -0.77937 1.06066 -1.06066 
C 0.77937 -1.341951 0.397805 -1.5 0 -1.5 
C -0.397805 -1.5 -0.77937 -1.341951 -1.06066 -1.06066 
C -1.341951 -0.77937 -1.5 -0.397805 -1.5 0 
C -1.5 0.397805 -1.341951 0.77937 -1.06066 1.06066 
C -0.77937 1.341951 -0.397805 1.5 0 1.5 
z
" id="m0d675ab446" style="stroke:#ff0000;"/>
    </defs>
    <g>
     <use style="fill:#ff0000;stroke:#ff0000;" x="249.331571" xlink:href="#m0d675ab446" y="109.629861"/>
     <use style="fill:#ff0000;stroke:#ff0000;" x="249.331571" xlink:href="#m0d675ab446" y="109.629861"/>
    </g>
   </g>
   <g id="line2d_44">
    <path d="M 37.9781 294.16 
L 37.9781 272.911075 
L 49.878634 272.911075 
L 49.878634 265.082523 
L 56.84 265.082523 
L 56.84 258.372337 
L 65.610284 258.372337 
L 65.610284 257.253972 
L 68.740534 257.253972 
L 68.740534 255.576425 
L 71.387123 255.576425 
L 71.387123 253.339696 
L 73.679702 253.339696 
L 73.679702 252.780514 
L 75.7019 252.780514 
L 75.7019 249.425421 
L 77.510818 249.425421 
L 77.510818 248.866238 
L 79.147184 248.866238 
L 79.147184 247.747874 
L 80.641068 247.747874 
L 80.641068 246.070327 
L 84.472185 246.070327 
L 84.472185 245.511145 
L 85.580236 245.511145 
L 85.580236 244.951963 
L 86.621091 244.951963 
L 86.621091 244.392781 
L 89.411353 244.392781 
L 89.411353 243.833598 
L 93.915843 243.833598 
L 93.915843 243.274416 
L 95.790669 243.274416 
L 95.790669 242.715234 
L 99.973377 242.715234 
L 99.973377 241.596869 
L 100.43124 241.596869 
L 100.43124 239.919323 
L 101.73583 239.919323 
L 101.73583 239.36014 
L 103.711438 239.36014 
L 103.711438 238.800958 
L 104.080674 238.800958 
L 104.080674 238.241776 
L 104.442137 238.241776 
L 104.442137 237.682594 
L 105.143003 237.682594 
L 105.143003 237.123411 
L 107.691203 237.123411 
L 107.691203 236.564229 
L 109.909618 236.564229 
L 109.909618 236.005047 
L 110.167801 236.005047 
L 110.167801 235.445865 
L 112.104369 235.445865 
L 112.104369 234.886682 
L 112.777744 234.886682 
L 112.777744 234.3275 
L 112.996458 234.3275 
L 112.996458 233.768318 
L 113.212421 233.768318 
L 113.212421 233.209136 
L 113.844474 233.209136 
L 113.844474 232.090771 
L 114.050092 232.090771 
L 114.050092 231.531589 
L 115.234619 231.531589 
L 115.234619 230.972407 
L 115.981208 230.972407 
L 115.981208 230.413225 
L 117.716912 230.413225 
L 117.716912 229.29486 
L 118.679903 229.29486 
L 118.679903 228.735678 
L 119.73911 228.735678 
L 119.73911 228.176496 
L 120.316268 228.176496 
L 120.316268 227.058131 
L 122.068336 227.058131 
L 122.068336 225.939767 
L 123.422853 225.939767 
L 123.422853 225.380584 
L 125.219927 225.380584 
L 125.219927 224.821402 
L 125.536899 224.821402 
L 125.536899 224.26222 
L 126.651492 224.26222 
L 126.651492 223.703038 
L 128.15355 223.703038 
L 128.15355 223.143855 
L 128.332394 223.143855 
L 128.421122 221.466309 
L 128.771519 221.466309 
L 128.771519 220.907126 
L 128.944072 220.907126 
L 128.944072 220.347944 
L 129.863304 220.347944 
L 129.863304 219.788762 
L 131.193675 219.788762 
L 131.193675 218.670397 
L 131.639644 218.670397 
L 131.639644 218.111215 
L 133.64553 218.111215 
L 133.64553 217.552033 
L 133.904687 217.552033 
L 133.904687 216.992851 
L 136.076273 216.992851 
L 136.076273 216.433669 
L 137.385009 216.433669 
L 137.489697 215.315304 
L 138.404231 215.315304 
L 138.404231 214.756122 
L 138.79556 214.756122 
L 138.79556 214.19694 
L 140.930236 214.19694 
L 140.930236 213.637757 
L 141.51798 213.637757 
L 141.51798 213.078575 
L 141.682276 213.078575 
L 141.682276 211.960211 
L 142.866804 211.960211 
L 142.866804 211.401028 
L 144.846558 211.401028 
L 144.846558 210.841846 
L 146.343275 210.841846 
L 146.343275 210.282664 
L 147.69113 210.282664 
L 147.69113 209.723482 
L 147.891602 209.723482 
L 147.891602 209.164299 
L 148.033377 209.164299 
L 148.089761 208.045935 
L 148.967593 208.045935 
L 149.074232 206.92757 
L 149.259271 206.92757 
L 149.259271 206.368388 
L 149.494285 206.368388 
L 149.494285 205.250024 
L 149.70052 205.250024 
L 149.70052 204.690841 
L 150.768486 204.690841 
L 150.768486 204.131659 
L 153.106155 204.131659 
L 153.106155 203.572477 
L 153.725291 203.572477 
L 153.725291 203.013295 
L 153.846484 203.013295 
L 153.846484 202.454112 
L 154.710013 202.454112 
L 154.710013 201.89493 
L 154.938174 201.89493 
L 154.938174 201.335748 
L 155.513927 201.335748 
L 155.513927 200.776566 
L 155.767748 200.776566 
L 155.767748 200.217384 
L 157.183469 200.217384 
L 157.183469 199.658201 
L 158.414337 199.658201 
L 158.414337 199.099019 
L 158.795713 199.099019 
L 158.795713 198.539837 
L 159.735097 198.539837 
L 159.735097 197.980655 
L 160.032462 197.980655 
L 160.032462 197.421472 
L 161.014585 197.421472 
L 161.014585 196.86229 
L 162.106057 196.86229 
L 162.106057 196.303108 
L 162.475293 196.303108 
L 162.584534 195.184743 
L 163.038257 195.184743 
L 163.038257 194.625561 
L 163.594757 194.625561 
L 163.594757 194.066379 
L 164.320702 194.066379 
L 164.320702 193.507197 
L 164.911863 193.507197 
L 164.911863 192.948014 
L 165.194786 192.948014 
L 165.194786 192.388832 
L 165.646084 192.388832 
L 165.696625 191.270468 
L 166.164578 191.270468 
L 166.164578 190.711285 
L 166.572224 190.711285 
L 166.600975 189.592921 
L 166.753503 189.592921 
L 166.838708 187.915374 
L 167.1661 187.915374 
L 167.1661 187.356192 
L 167.623231 187.356192 
L 167.623231 186.79701 
L 167.749077 186.79701 
L 167.749077 186.237828 
L 169.009266 186.237828 
L 169.009266 185.678645 
L 169.829887 185.678645 
L 169.829887 185.119463 
L 170.081911 185.119463 
L 170.081911 184.560281 
L 171.434488 184.560281 
L 171.434488 184.001099 
L 172.7352 184.001099 
L 172.7352 183.441916 
L 173.552763 183.441916 
L 173.552763 182.882734 
L 173.875459 182.882734 
L 173.875459 182.323552 
L 175.363597 182.323552 
L 175.363597 181.76437 
L 175.7332 181.76437 
L 175.7332 181.205187 
L 176.567656 181.205187 
L 176.658511 180.086823 
L 177.245358 180.086823 
L 177.348073 178.968458 
L 178.241004 178.968458 
L 178.241004 178.409276 
L 178.739242 178.409276 
L 178.739242 177.850094 
L 179.05273 177.850094 
L 179.05273 177.290912 
L 179.591297 177.290912 
L 179.591297 176.731729 
L 179.743393 176.731729 
L 179.743393 176.172547 
L 180.252397 176.172547 
L 180.252397 175.613365 
L 181.165871 175.613365 
L 181.165871 175.054183 
L 181.454498 175.054183 
L 181.490741 173.935818 
L 181.642926 173.935818 
L 181.742318 172.817454 
L 181.994169 172.817454 
L 181.994169 172.258271 
L 183.248091 172.258271 
L 183.248091 171.699089 
L 183.489681 171.699089 
L 183.546875 170.580725 
L 183.787845 170.580725 
L 183.872092 169.46236 
L 184.745909 169.46236 
L 184.745909 168.903178 
L 184.895017 168.903178 
L 184.895017 168.343996 
L 185.11465 168.343996 
L 185.11465 167.784814 
L 185.31542 167.784814 
L 185.31542 167.225631 
L 185.482015 167.225631 
L 185.482015 166.666449 
L 186.049606 166.666449 
L 186.120406 165.548085 
L 188.398387 165.548085 
L 188.398387 164.988902 
L 188.614922 164.988902 
L 188.614922 164.42972 
L 189.343075 164.42972 
L 189.343075 163.870538 
L 189.49517 163.870538 
L 189.49517 163.311356 
L 189.785453 163.311356 
L 189.785453 162.752173 
L 190.468941 162.752173 
L 190.468941 162.192991 
L 191.144608 162.192991 
L 191.144608 161.633809 
L 192.361354 161.633809 
L 192.361354 161.074627 
L 193.403339 161.074627 
L 193.403339 160.515444 
L 193.755461 160.515444 
L 193.755461 159.956262 
L 194.374295 159.956262 
L 194.374295 159.39708 
L 194.559436 159.39708 
L 194.559436 158.837898 
L 194.67181 158.837898 
L 194.731444 157.719533 
L 195.60902 157.719533 
L 195.60902 157.160351 
L 195.998741 157.160351 
L 195.998741 156.601169 
L 196.146705 156.601169 
L 196.146705 156.041987 
L 197.530168 156.041987 
L 197.550702 154.923622 
L 198.155574 154.923622 
L 198.155574 154.36444 
L 198.345019 154.36444 
L 198.345019 153.805258 
L 198.599355 153.805258 
L 198.599355 153.246075 
L 199.468042 153.246075 
L 199.468042 152.686893 
L 199.7036 152.686893 
L 199.796649 151.568529 
L 200.488871 151.568529 
L 200.488871 151.009346 
L 201.094008 151.009346 
L 201.094008 150.450164 
L 201.225777 150.450164 
L 201.326161 149.3318 
L 201.414622 149.3318 
L 201.423443 148.213435 
L 202.513138 148.213435 
L 202.513138 147.654253 
L 202.750326 147.654253 
L 202.750326 147.095071 
L 202.908191 147.095071 
L 202.908191 146.535888 
L 203.334981 146.535888 
L 203.382253 145.417524 
L 203.613355 145.417524 
L 203.613355 144.858342 
L 203.833726 144.858342 
L 203.856701 143.739977 
L 204.453032 143.739977 
L 204.453032 143.180795 
L 204.706707 143.180795 
L 204.706707 142.621613 
L 206.435525 142.621613 
L 206.435525 142.06243 
L 206.668216 142.06243 
L 206.668216 141.503248 
L 207.522806 141.503248 
L 207.522806 140.944066 
L 207.861219 140.944066 
L 207.861219 139.825702 
L 208.109654 139.825702 
L 208.109654 139.266519 
L 208.808711 139.266519 
L 208.808711 138.707337 
L 209.041474 138.707337 
L 209.041474 138.148155 
L 209.197585 138.148155 
L 209.197585 137.588973 
L 211.332538 137.588973 
L 211.332538 137.02979 
L 211.695106 137.02979 
L 211.695106 136.470608 
L 212.295362 136.470608 
L 212.295362 135.911426 
L 212.552257 135.911426 
L 212.552257 135.352244 
L 213.325866 135.352244 
L 213.344751 134.233879 
L 213.49571 134.233879 
L 213.49571 133.674697 
L 214.216871 133.674697 
L 214.216871 133.115515 
L 214.382312 133.115515 
L 214.382312 132.556332 
L 214.532089 132.556332 
L 214.553798 131.437968 
L 215.471697 131.437968 
L 215.471697 130.878786 
L 215.614509 130.878786 
L 215.713446 129.760421 
L 215.780726 129.760421 
L 215.780726 129.201239 
L 216.26463 129.201239 
L 216.26463 128.642057 
L 216.997652 128.642057 
L 216.997652 128.082874 
L 218.338882 128.082874 
L 218.408353 126.405328 
L 218.616023 126.405328 
L 218.616023 125.846145 
L 219.356092 125.846145 
L 219.356092 125.286963 
L 219.646638 125.286963 
L 219.646638 124.727781 
L 221.103725 124.727781 
L 221.112132 123.609417 
L 221.828918 123.609417 
L 221.828918 123.050234 
L 222.335328 123.050234 
L 222.335328 122.491052 
L 222.792063 122.491052 
L 222.792063 121.93187 
L 224.135933 121.93187 
L 224.135933 121.372688 
L 226.950775 121.372688 
L 226.950775 120.813505 
L 227.314605 120.813505 
L 227.322969 119.695141 
L 227.844262 119.695141 
L 227.844262 119.135959 
L 229.072752 119.135959 
L 229.072752 118.576776 
L 230.839557 118.576776 
L 230.839557 118.017594 
L 232.875452 118.017594 
L 232.875452 117.458412 
L 233.788653 117.458412 
L 233.788653 116.89923 
L 235.178819 116.89923 
L 235.178819 116.340047 
L 236.562392 116.340047 
L 236.562392 115.780865 
L 237.454921 115.780865 
L 237.454921 115.221683 
L 239.291931 115.221683 
L 239.291931 114.662501 
L 240.366507 114.662501 
L 240.366507 114.103318 
L 240.773655 114.103318 
L 240.773655 113.544136 
L 243.334775 113.544136 
L 243.345521 112.425772 
L 244.498531 112.425772 
L 244.498531 111.866589 
L 245.60502 111.866589 
L 245.60502 111.307407 
L 245.911605 111.307407 
L 245.911605 110.748225 
L 248.972822 110.748225 
L 248.972822 110.189043 
L 249.331571 110.189043 
L 249.331571 109.629861 
L 333.569032 109.629861 
L 333.569032 109.629861 
" style="fill:none;stroke:#ff0000;stroke-linecap:square;stroke-width:1.5;"/>
   </g>
   <g id="line2d_45">
    <defs>
     <path d="M 0 -6 
L -5.196152 -3 
L -5.196152 3 
L -0 6 
L 5.196152 3 
L 5.196152 -3 
z
" id="m09d271cd17" style="stroke:#ff0000;stroke-linejoin:miter;stroke-width:1.5;"/>
    </defs>
    <g>
     <use style="fill-opacity:0;stroke:#ff0000;stroke-linejoin:miter;stroke-width:1.5;" x="86.621091" xlink:href="#m09d271cd17" y="244.951963"/>
     <use style="fill-opacity:0;stroke:#ff0000;stroke-linejoin:miter;stroke-width:1.5;" x="161.014585" xlink:href="#m09d271cd17" y="196.86229"/>
     <use style="fill-opacity:0;stroke:#ff0000;stroke-linejoin:miter;stroke-width:1.5;" x="201.225777" xlink:href="#m09d271cd17" y="149.890982"/>
     <use style="fill-opacity:0;stroke:#ff0000;stroke-linejoin:miter;stroke-width:1.5;" x="249.331571" xlink:href="#m09d271cd17" y="110.189043"/>
     <use style="fill-opacity:0;stroke:#ff0000;stroke-linejoin:miter;stroke-width:1.5;" x="249.331571" xlink:href="#m09d271cd17" y="109.629861"/>
     <use style="fill-opacity:0;stroke:#ff0000;stroke-linejoin:miter;stroke-width:1.5;" x="333.569032" xlink:href="#m09d271cd17" y="109.629861"/>
    </g>
   </g>
   <g id="line2d_46">
    <path style="fill:none;stroke:#ff0000;stroke-linecap:square;stroke-width:1.5;"/>
    <g/>
   </g>
   <g id="line2d_47">
    <path clip-path="url(#p107706cdc8)" d="M 164.100586 194.066379 
" style="fill:none;stroke:#ff0000;stroke-linecap:square;stroke-width:1.5;"/>
    <defs>
     <path d="M -12 12 
L 12 -12 
M -12 -12 
L 12 12 
" id="m3936fd2443" style="stroke:#ff0000;stroke-width:3;"/>
    </defs>
    <g clip-path="url(#p107706cdc8)">
     <use style="fill:#ff0000;stroke:#ff0000;stroke-width:3;" x="164.100586" xlink:href="#m3936fd2443" y="194.066379"/>
    </g>
   </g>
   <g id="line2d_48">
    <path d="M 333.569032 232.649954 
L 364.009226 288.456341 
" style="fill:none;stroke:#ff00ff;stroke-linecap:square;stroke-width:1.5;"/>
    <g>
     <use style="fill-opacity:0;stroke:#ff00ff;stroke-linejoin:miter;stroke-width:1.5;" x="333.569032" xlink:href="#m1587026617" y="232.649954"/>
     <use style="fill-opacity:0;stroke:#ff00ff;stroke-linejoin:miter;stroke-width:1.5;" x="364.009226" xlink:href="#m1587026617" y="288.456341"/>
    </g>
   </g>
   <g id="line2d_49">
    <path d="M 333.569032 227.058131 
L 364.009226 220.012435 
" style="fill:none;stroke:#ffa500;stroke-linecap:square;stroke-width:1.5;"/>
    <g>
     <use style="fill-opacity:0;stroke:#ffa500;stroke-linejoin:bevel;stroke-width:1.5;" x="333.569032" xlink:href="#mfa249b1b4b" y="227.058131"/>
     <use style="fill-opacity:0;stroke:#ffa500;stroke-linejoin:bevel;stroke-width:1.5;" x="364.009226" xlink:href="#mfa249b1b4b" y="220.012435"/>
    </g>
   </g>
   <g id="line2d_50">
    <path d="M 333.569032 215.874486 
L 364.009226 151.568529 
" style="fill:none;stroke:#6495ed;stroke-linecap:square;stroke-width:1.5;"/>
    <g>
     <use style="fill-opacity:0;stroke:#6495ed;stroke-linejoin:miter;stroke-width:1.5;" x="333.569032" xlink:href="#mddc8f3d602" y="215.874486"/>
     <use style="fill-opacity:0;stroke:#6495ed;stroke-linejoin:miter;stroke-width:1.5;" x="364.009226" xlink:href="#mddc8f3d602" y="151.568529"/>
    </g>
   </g>
   <g id="line2d_51">
    <path d="M 333.569032 199.099019 
L 364.009226 83.124622 
" style="fill:none;stroke:#000080;stroke-linecap:square;stroke-width:1.5;"/>
    <g>
     <use style="fill-opacity:0;stroke:#000080;stroke-width:1.5;" x="333.569032" xlink:href="#m58d41b6678" y="199.099019"/>
     <use style="fill-opacity:0;stroke:#000080;stroke-width:1.5;" x="364.009226" xlink:href="#m58d41b6678" y="83.124622"/>
    </g>
   </g>
   <g id="line2d_52">
    <path d="M 333.569032 109.629861 
L 364.009226 14.680716 
" style="fill:none;stroke:#ff0000;stroke-linecap:square;stroke-width:1.5;"/>
    <g>
     <use style="fill-opacity:0;stroke:#ff0000;stroke-linejoin:miter;stroke-width:1.5;" x="333.569032" xlink:href="#m09d271cd17" y="109.629861"/>
     <use style="fill-opacity:0;stroke:#ff0000;stroke-linejoin:miter;stroke-width:1.5;" x="364.009226" xlink:href="#m09d271cd17" y="14.680716"/>
    </g>
   </g>
   <g id="line2d_53">
    <path d="M 333.569032 294.16 
L 333.569032 8.977057 
" style="fill:none;stroke:#000000;stroke-linecap:square;stroke-width:1.5;"/>
   </g>
   <g id="patch_3">
    <path d="M 56.84 294.16 
L 56.84 6.125228 
" style="fill:none;stroke:#000000;stroke-linecap:square;stroke-linejoin:miter;stroke-width:0.8;"/>
   </g>
   <g id="patch_4">
    <path d="M 399.984 294.16 
L 399.984 6.125228 
" style="fill:none;stroke:#000000;stroke-linecap:square;stroke-linejoin:miter;stroke-width:0.8;"/>
   </g>
   <g id="patch_5">
    <path d="M 56.84 294.16 
L 399.984 294.16 
" style="fill:none;stroke:#000000;stroke-linecap:square;stroke-linejoin:miter;stroke-width:0.8;"/>
   </g>
   <g id="patch_6">
    <path d="M 56.84 6.125228 
L 399.984 6.125228 
" style="fill:none;stroke:#000000;stroke-linecap:square;stroke-linejoin:miter;stroke-width:0.8;"/>
   </g>
   <g id="text_14">
    <!-- f13 -->
    <defs>
     <path d="M 40.578125 39.3125 
Q 47.65625 37.796875 51.625 33 
Q 55.609375 28.21875 55.609375 21.1875 
Q 55.609375 10.40625 48.1875 4.484375 
Q 40.765625 -1.421875 27.09375 -1.421875 
Q 22.515625 -1.421875 17.65625 -0.515625 
Q 12.796875 0.390625 7.625 2.203125 
L 7.625 11.71875 
Q 11.71875 9.328125 16.59375 8.109375 
Q 21.484375 6.890625 26.8125 6.890625 
Q 36.078125 6.890625 40.9375 10.546875 
Q 45.796875 14.203125 45.796875 21.1875 
Q 45.796875 27.640625 41.28125 31.265625 
Q 36.765625 34.90625 28.71875 34.90625 
L 20.21875 34.90625 
L 20.21875 43.015625 
L 29.109375 43.015625 
Q 36.375 43.015625 40.234375 45.921875 
Q 44.09375 48.828125 44.09375 54.296875 
Q 44.09375 59.90625 40.109375 62.90625 
Q 36.140625 65.921875 28.71875 65.921875 
Q 24.65625 65.921875 20.015625 65.03125 
Q 15.375 64.15625 9.8125 62.3125 
L 9.8125 71.09375 
Q 15.4375 72.65625 20.34375 73.4375 
Q 25.25 74.21875 29.59375 74.21875 
Q 40.828125 74.21875 47.359375 69.109375 
Q 53.90625 64.015625 53.90625 55.328125 
Q 53.90625 49.265625 50.4375 45.09375 
Q 46.96875 40.921875 40.578125 39.3125 
z
" id="DejaVuSans-33"/>
    </defs>
    <g transform="translate(369.543806 293.147279)scale(0.17 -0.17)">
     <use xlink:href="#DejaVuSans-66"/>
     <use x="35.205078" xlink:href="#DejaVuSans-31"/>
     <use x="98.828125" xlink:href="#DejaVuSans-33"/>
    </g>
   </g>
   <g id="text_15">
    <!-- f10 -->
    <g transform="translate(369.543806 224.703372)scale(0.17 -0.17)">
     <use xlink:href="#DejaVuSans-66"/>
     <use x="35.205078" xlink:href="#DejaVuSans-31"/>
     <use x="98.828125" xlink:href="#DejaVuSans-30"/>
    </g>
   </g>
   <g id="text_16">
    <!-- f11 -->
    <g transform="translate(369.543806 156.259466)scale(0.17 -0.17)">
     <use xlink:href="#DejaVuSans-66"/>
     <use x="35.205078" xlink:href="#DejaVuSans-31"/>
     <use x="98.828125" xlink:href="#DejaVuSans-31"/>
    </g>
   </g>
   <g id="text_17">
    <!-- f12 -->
    <g transform="translate(369.543806 87.81556)scale(0.17 -0.17)">
     <use xlink:href="#DejaVuSans-66"/>
     <use x="35.205078" xlink:href="#DejaVuSans-31"/>
     <use x="98.828125" xlink:href="#DejaVuSans-32"/>
    </g>
   </g>
   <g id="text_18">
    <!-- f14 -->
    <g transform="translate(369.543806 19.371654)scale(0.17 -0.17)">
     <use xlink:href="#DejaVuSans-66"/>
     <use x="35.205078" xlink:href="#DejaVuSans-31"/>
     <use x="98.828125" xlink:href="#DejaVuSans-34"/>
    </g>
   </g>
   <g id="text_19">
    <!-- bbob -->
    <defs>
     <path d="M 48.6875 27.296875 
Q 48.6875 37.203125 44.609375 42.84375 
Q 40.53125 48.484375 33.40625 48.484375 
Q 26.265625 48.484375 22.1875 42.84375 
Q 18.109375 37.203125 18.109375 27.296875 
Q 18.109375 17.390625 22.1875 11.75 
Q 26.265625 6.109375 33.40625 6.109375 
Q 40.53125 6.109375 44.609375 11.75 
Q 48.6875 17.390625 48.6875 27.296875 
z
M 18.109375 46.390625 
Q 20.953125 51.265625 25.265625 53.625 
Q 29.59375 56 35.59375 56 
Q 45.5625 56 51.78125 48.09375 
Q 58.015625 40.1875 58.015625 27.296875 
Q 58.015625 14.40625 51.78125 6.484375 
Q 45.5625 -1.421875 35.59375 -1.421875 
Q 29.59375 -1.421875 25.265625 0.953125 
Q 20.953125 3.328125 18.109375 8.203125 
L 18.109375 0 
L 9.078125 0 
L 9.078125 75.984375 
L 18.109375 75.984375 
z
" id="DejaVuSans-62"/>
    </defs>
    <g transform="translate(60.27144 16.755982)scale(0.102 -0.102)">
     <use xlink:href="#DejaVuSans-62"/>
     <use x="63.476562" xlink:href="#DejaVuSans-62"/>
     <use x="126.953125" xlink:href="#DejaVuSans-6f"/>
     <use x="188.134766" xlink:href="#DejaVuSans-62"/>
    </g>
    <!-- Ill-conditioned functions, 3-D -->
    <defs>
     <path d="M 9.8125 72.90625 
L 19.671875 72.90625 
L 19.671875 0 
L 9.8125 0 
z
" id="DejaVuSans-49"/>
     <path d="M 19.671875 64.796875 
L 19.671875 8.109375 
L 31.59375 8.109375 
Q 46.6875 8.109375 53.6875 14.9375 
Q 60.6875 21.78125 60.6875 36.53125 
Q 60.6875 51.171875 53.6875 57.984375 
Q 46.6875 64.796875 31.59375 64.796875 
z
M 9.8125 72.90625 
L 30.078125 72.90625 
Q 51.265625 72.90625 61.171875 64.09375 
Q 71.09375 55.28125 71.09375 36.53125 
Q 71.09375 17.671875 61.125 8.828125 
Q 51.171875 0 30.078125 0 
L 9.8125 0 
z
" id="DejaVuSans-44"/>
    </defs>
    <g transform="translate(60.27144 28.17775)scale(0.102 -0.102)">
     <use xlink:href="#DejaVuSans-49"/>
     <use x="29.492188" xlink:href="#DejaVuSans-6c"/>
     <use x="57.275391" xlink:href="#DejaVuSans-6c"/>
     <use x="85.058594" xlink:href="#DejaVuSans-2d"/>
     <use x="121.142578" xlink:href="#DejaVuSans-63"/>
     <use x="176.123047" xlink:href="#DejaVuSans-6f"/>
     <use x="237.304688" xlink:href="#DejaVuSans-6e"/>
     <use x="300.683594" xlink:href="#DejaVuSans-64"/>
     <use x="364.160156" xlink:href="#DejaVuSans-69"/>
     <use x="391.943359" xlink:href="#DejaVuSans-74"/>
     <use x="431.152344" xlink:href="#DejaVuSans-69"/>
     <use x="458.935547" xlink:href="#DejaVuSans-6f"/>
     <use x="520.117188" xlink:href="#DejaVuSans-6e"/>
     <use x="583.496094" xlink:href="#DejaVuSans-65"/>
     <use x="645.019531" xlink:href="#DejaVuSans-64"/>
     <use x="708.496094" xlink:href="#DejaVuSans-20"/>
     <use x="740.283203" xlink:href="#DejaVuSans-66"/>
     <use x="775.488281" xlink:href="#DejaVuSans-75"/>
     <use x="838.867188" xlink:href="#DejaVuSans-6e"/>
     <use x="902.246094" xlink:href="#DejaVuSans-63"/>
     <use x="957.226562" xlink:href="#DejaVuSans-74"/>
     <use x="996.435547" xlink:href="#DejaVuSans-69"/>
     <use x="1024.21875" xlink:href="#DejaVuSans-6f"/>
     <use x="1085.400391" xlink:href="#DejaVuSans-6e"/>
     <use x="1148.779297" xlink:href="#DejaVuSans-73"/>
     <use x="1200.878906" xlink:href="#DejaVuSans-2c"/>
     <use x="1232.666016" xlink:href="#DejaVuSans-20"/>
     <use x="1264.453125" xlink:href="#DejaVuSans-33"/>
     <use x="1328.076172" xlink:href="#DejaVuSans-2d"/>
     <use x="1364.160156" xlink:href="#DejaVuSans-44"/>
    </g>
    <!-- 51 targets: 100..1e-08 -->
    <defs>
     <path d="M 10.796875 72.90625 
L 49.515625 72.90625 
L 49.515625 64.59375 
L 19.828125 64.59375 
L 19.828125 46.734375 
Q 21.96875 47.46875 24.109375 47.828125 
Q 26.265625 48.1875 28.421875 48.1875 
Q 40.625 48.1875 47.75 41.5 
Q 54.890625 34.8125 54.890625 23.390625 
Q 54.890625 11.625 47.5625 5.09375 
Q 40.234375 -1.421875 26.90625 -1.421875 
Q 22.3125 -1.421875 17.546875 -0.640625 
Q 12.796875 0.140625 7.71875 1.703125 
L 7.71875 11.625 
Q 12.109375 9.234375 16.796875 8.0625 
Q 21.484375 6.890625 26.703125 6.890625 
Q 35.15625 6.890625 40.078125 11.328125 
Q 45.015625 15.765625 45.015625 23.390625 
Q 45.015625 31 40.078125 35.4375 
Q 35.15625 39.890625 26.703125 39.890625 
Q 22.75 39.890625 18.8125 39.015625 
Q 14.890625 38.140625 10.796875 36.28125 
z
" id="DejaVuSans-35"/>
     <path d="M 11.71875 12.40625 
L 22.015625 12.40625 
L 22.015625 0 
L 11.71875 0 
z
M 11.71875 51.703125 
L 22.015625 51.703125 
L 22.015625 39.3125 
L 11.71875 39.3125 
z
" id="DejaVuSans-3a"/>
    </defs>
    <g transform="translate(60.27144 39.599519)scale(0.102 -0.102)">
     <use xlink:href="#DejaVuSans-35"/>
     <use x="63.623047" xlink:href="#DejaVuSans-31"/>
     <use x="127.246094" xlink:href="#DejaVuSans-20"/>
     <use x="159.033203" xlink:href="#DejaVuSans-74"/>
     <use x="198.242188" xlink:href="#DejaVuSans-61"/>
     <use x="259.521484" xlink:href="#DejaVuSans-72"/>
     <use x="300.619141" xlink:href="#DejaVuSans-67"/>
     <use x="364.095703" xlink:href="#DejaVuSans-65"/>
     <use x="425.619141" xlink:href="#DejaVuSans-74"/>
     <use x="464.828125" xlink:href="#DejaVuSans-73"/>
     <use x="516.927734" xlink:href="#DejaVuSans-3a"/>
     <use x="550.619141" xlink:href="#DejaVuSans-20"/>
     <use x="582.40625" xlink:href="#DejaVuSans-31"/>
     <use x="646.029297" xlink:href="#DejaVuSans-30"/>
     <use x="709.652344" xlink:href="#DejaVuSans-30"/>
     <use x="773.275391" xlink:href="#DejaVuSans-2e"/>
     <use x="805.0625" xlink:href="#DejaVuSans-2e"/>
     <use x="836.849609" xlink:href="#DejaVuSans-31"/>
     <use x="900.472656" xlink:href="#DejaVuSans-65"/>
     <use x="961.996094" xlink:href="#DejaVuSans-2d"/>
     <use x="998.080078" xlink:href="#DejaVuSans-30"/>
     <use x="1061.703125" xlink:href="#DejaVuSans-38"/>
    </g>
    <!-- 60 instances -->
    <g transform="translate(60.27144 51.021288)scale(0.102 -0.102)">
     <use xlink:href="#DejaVuSans-36"/>
     <use x="63.623047" xlink:href="#DejaVuSans-30"/>
     <use x="127.246094" xlink:href="#DejaVuSans-20"/>
     <use x="159.033203" xlink:href="#DejaVuSans-69"/>
     <use x="186.816406" xlink:href="#DejaVuSans-6e"/>
     <use x="250.195312" xlink:href="#DejaVuSans-73"/>
     <use x="302.294922" xlink:href="#DejaVuSans-74"/>
     <use x="341.503906" xlink:href="#DejaVuSans-61"/>
     <use x="402.783203" xlink:href="#DejaVuSans-6e"/>
     <use x="466.162109" xlink:href="#DejaVuSans-63"/>
     <use x="521.142578" xlink:href="#DejaVuSans-65"/>
     <use x="582.666016" xlink:href="#DejaVuSans-73"/>
    </g>
   </g>
   <g id="text_20">
    <!-- v2.2.1.10 -->
    <g style="fill:#808080;" transform="translate(204.779188 289.199965)scale(0.1 -0.1)">
     <use xlink:href="#DejaVuSans-76"/>
     <use x="59.179688" xlink:href="#DejaVuSans-32"/>
     <use x="122.802734" xlink:href="#DejaVuSans-2e"/>
     <use x="154.589844" xlink:href="#DejaVuSans-32"/>
     <use x="218.212891" xlink:href="#DejaVuSans-2e"/>
     <use x="250" xlink:href="#DejaVuSans-31"/>
     <use x="313.623047" xlink:href="#DejaVuSans-2e"/>
     <use x="345.410156" xlink:href="#DejaVuSans-31"/>
     <use x="409.033203" xlink:href="#DejaVuSans-30"/>
    </g>
   </g>
  </g>
 </g>
 <defs>
  <clipPath id="p107706cdc8">
   <rect height="288.034772" width="343.144" x="56.84" y="6.125228"/>
  </clipPath>
 </defs>
</svg>
