<?xml version="1.0" encoding="utf-8" standalone="no"?>
<!DOCTYPE svg PUBLIC "-//W3C//DTD SVG 1.1//EN"
  "http://www.w3.org/Graphics/SVG/1.1/DTD/svg11.dtd">
<!-- Created with matplotlib (http://matplotlib.org/) -->
<svg height="345.6pt" version="1.1" viewBox="0 0 460.8 345.6" width="460.8pt" xmlns="http://www.w3.org/2000/svg" xmlns:xlink="http://www.w3.org/1999/xlink">
 <defs>
  <style type="text/css">
*{stroke-linecap:butt;stroke-linejoin:round;}
  </style>
 </defs>
 <g id="figure_1">
  <g id="patch_1">
   <path d="M 0 345.6 
L 460.8 345.6 
L 460.8 0 
L 0 0 
z
" style="fill:#ffffff;"/>
  </g>
  <g id="axes_1">
   <g id="patch_2">
    <path d="M 56.84 294.16 
L 399.984 294.16 
L 399.984 24.84 
L 56.84 24.84 
z
" style="fill:#ffffff;"/>
   </g>
   <g id="matplotlib.axis_1">
    <g id="xtick_1">
     <g id="line2d_1">
      <path clip-path="url(#p1b2f650844)" d="M 56.84 294.16 
L 56.84 24.84 
" style="fill:none;stroke:#b0b0b0;stroke-linecap:square;stroke-width:0.8;"/>
     </g>
     <g id="line2d_2">
      <defs>
       <path d="M 0 0 
L 0 3.5 
" id="m4589935c9a" style="stroke:#000000;stroke-width:0.8;"/>
      </defs>
      <g>
       <use style="stroke:#000000;stroke-width:0.8;" x="56.84" xlink:href="#m4589935c9a" y="294.16"/>
      </g>
     </g>
     <g id="text_1">
      <!-- 0 -->
      <defs>
       <path d="M 31.78125 66.40625 
Q 24.171875 66.40625 20.328125 58.90625 
Q 16.5 51.421875 16.5 36.375 
Q 16.5 21.390625 20.328125 13.890625 
Q 24.171875 6.390625 31.78125 6.390625 
Q 39.453125 6.390625 43.28125 13.890625 
Q 47.125 21.390625 47.125 36.375 
Q 47.125 51.421875 43.28125 58.90625 
Q 39.453125 66.40625 31.78125 66.40625 
z
M 31.78125 74.21875 
Q 44.046875 74.21875 50.515625 64.515625 
Q 56.984375 54.828125 56.984375 36.375 
Q 56.984375 17.96875 50.515625 8.265625 
Q 44.046875 -1.421875 31.78125 -1.421875 
Q 19.53125 -1.421875 13.0625 8.265625 
Q 6.59375 17.96875 6.59375 36.375 
Q 6.59375 54.828125 13.0625 64.515625 
Q 19.53125 74.21875 31.78125 74.21875 
z
" id="DejaVuSans-30"/>
      </defs>
      <g transform="translate(50.4775 316.356875)scale(0.2 -0.2)">
       <use xlink:href="#DejaVuSans-30"/>
      </g>
     </g>
    </g>
    <g id="xtick_2">
     <g id="line2d_3">
      <path clip-path="url(#p1b2f650844)" d="M 135.905438 294.16 
L 135.905438 24.84 
" style="fill:none;stroke:#b0b0b0;stroke-linecap:square;stroke-width:0.8;"/>
     </g>
     <g id="line2d_4">
      <g>
       <use style="stroke:#000000;stroke-width:0.8;" x="135.905438" xlink:href="#m4589935c9a" y="294.16"/>
      </g>
     </g>
     <g id="text_2">
      <!-- 2 -->
      <defs>
       <path d="M 19.1875 8.296875 
L 53.609375 8.296875 
L 53.609375 0 
L 7.328125 0 
L 7.328125 8.296875 
Q 12.9375 14.109375 22.625 23.890625 
Q 32.328125 33.6875 34.8125 36.53125 
Q 39.546875 41.84375 41.421875 45.53125 
Q 43.3125 49.21875 43.3125 52.78125 
Q 43.3125 58.59375 39.234375 62.25 
Q 35.15625 65.921875 28.609375 65.921875 
Q 23.96875 65.921875 18.8125 64.3125 
Q 13.671875 62.703125 7.8125 59.421875 
L 7.8125 69.390625 
Q 13.765625 71.78125 18.9375 73 
Q 24.125 74.21875 28.421875 74.21875 
Q 39.75 74.21875 46.484375 68.546875 
Q 53.21875 62.890625 53.21875 53.421875 
Q 53.21875 48.921875 51.53125 44.890625 
Q 49.859375 40.875 45.40625 35.40625 
Q 44.1875 33.984375 37.640625 27.21875 
Q 31.109375 20.453125 19.1875 8.296875 
z
" id="DejaVuSans-32"/>
      </defs>
      <g transform="translate(129.542938 316.356875)scale(0.2 -0.2)">
       <use xlink:href="#DejaVuSans-32"/>
      </g>
     </g>
    </g>
    <g id="xtick_3">
     <g id="line2d_5">
      <path clip-path="url(#p1b2f650844)" d="M 214.970876 294.16 
L 214.970876 24.84 
" style="fill:none;stroke:#b0b0b0;stroke-linecap:square;stroke-width:0.8;"/>
     </g>
     <g id="line2d_6">
      <g>
       <use style="stroke:#000000;stroke-width:0.8;" x="214.970876" xlink:href="#m4589935c9a" y="294.16"/>
      </g>
     </g>
     <g id="text_3">
      <!-- 4 -->
      <defs>
       <path d="M 37.796875 64.3125 
L 12.890625 25.390625 
L 37.796875 25.390625 
z
M 35.203125 72.90625 
L 47.609375 72.90625 
L 47.609375 25.390625 
L 58.015625 25.390625 
L 58.015625 17.1875 
L 47.609375 17.1875 
L 47.609375 0 
L 37.796875 0 
L 37.796875 17.1875 
L 4.890625 17.1875 
L 4.890625 26.703125 
z
" id="DejaVuSans-34"/>
      </defs>
      <g transform="translate(208.608376 316.356875)scale(0.2 -0.2)">
       <use xlink:href="#DejaVuSans-34"/>
      </g>
     </g>
    </g>
    <g id="xtick_4">
     <g id="line2d_7">
      <path clip-path="url(#p1b2f650844)" d="M 294.036313 294.16 
L 294.036313 24.84 
" style="fill:none;stroke:#b0b0b0;stroke-linecap:square;stroke-width:0.8;"/>
     </g>
     <g id="line2d_8">
      <g>
       <use style="stroke:#000000;stroke-width:0.8;" x="294.036313" xlink:href="#m4589935c9a" y="294.16"/>
      </g>
     </g>
     <g id="text_4">
      <!-- 6 -->
      <defs>
       <path d="M 33.015625 40.375 
Q 26.375 40.375 22.484375 35.828125 
Q 18.609375 31.296875 18.609375 23.390625 
Q 18.609375 15.53125 22.484375 10.953125 
Q 26.375 6.390625 33.015625 6.390625 
Q 39.65625 6.390625 43.53125 10.953125 
Q 47.40625 15.53125 47.40625 23.390625 
Q 47.40625 31.296875 43.53125 35.828125 
Q 39.65625 40.375 33.015625 40.375 
z
M 52.59375 71.296875 
L 52.59375 62.3125 
Q 48.875 64.0625 45.09375 64.984375 
Q 41.3125 65.921875 37.59375 65.921875 
Q 27.828125 65.921875 22.671875 59.328125 
Q 17.53125 52.734375 16.796875 39.40625 
Q 19.671875 43.65625 24.015625 45.921875 
Q 28.375 48.1875 33.59375 48.1875 
Q 44.578125 48.1875 50.953125 41.515625 
Q 57.328125 34.859375 57.328125 23.390625 
Q 57.328125 12.15625 50.6875 5.359375 
Q 44.046875 -1.421875 33.015625 -1.421875 
Q 20.359375 -1.421875 13.671875 8.265625 
Q 6.984375 17.96875 6.984375 36.375 
Q 6.984375 53.65625 15.1875 63.9375 
Q 23.390625 74.21875 37.203125 74.21875 
Q 40.921875 74.21875 44.703125 73.484375 
Q 48.484375 72.75 52.59375 71.296875 
z
" id="DejaVuSans-36"/>
      </defs>
      <g transform="translate(287.673813 316.356875)scale(0.2 -0.2)">
       <use xlink:href="#DejaVuSans-36"/>
      </g>
     </g>
    </g>
    <g id="xtick_5">
     <g id="line2d_9">
      <path clip-path="url(#p1b2f650844)" d="M 373.101751 294.16 
L 373.101751 24.84 
" style="fill:none;stroke:#b0b0b0;stroke-linecap:square;stroke-width:0.8;"/>
     </g>
     <g id="line2d_10">
      <g>
       <use style="stroke:#000000;stroke-width:0.8;" x="373.101751" xlink:href="#m4589935c9a" y="294.16"/>
      </g>
     </g>
     <g id="text_5">
      <!-- 8 -->
      <defs>
       <path d="M 31.78125 34.625 
Q 24.75 34.625 20.71875 30.859375 
Q 16.703125 27.09375 16.703125 20.515625 
Q 16.703125 13.921875 20.71875 10.15625 
Q 24.75 6.390625 31.78125 6.390625 
Q 38.8125 6.390625 42.859375 10.171875 
Q 46.921875 13.96875 46.921875 20.515625 
Q 46.921875 27.09375 42.890625 30.859375 
Q 38.875 34.625 31.78125 34.625 
z
M 21.921875 38.8125 
Q 15.578125 40.375 12.03125 44.71875 
Q 8.5 49.078125 8.5 55.328125 
Q 8.5 64.0625 14.71875 69.140625 
Q 20.953125 74.21875 31.78125 74.21875 
Q 42.671875 74.21875 48.875 69.140625 
Q 55.078125 64.0625 55.078125 55.328125 
Q 55.078125 49.078125 51.53125 44.71875 
Q 48 40.375 41.703125 38.8125 
Q 48.828125 37.15625 52.796875 32.3125 
Q 56.78125 27.484375 56.78125 20.515625 
Q 56.78125 9.90625 50.3125 4.234375 
Q 43.84375 -1.421875 31.78125 -1.421875 
Q 19.734375 -1.421875 13.25 4.234375 
Q 6.78125 9.90625 6.78125 20.515625 
Q 6.78125 27.484375 10.78125 32.3125 
Q 14.796875 37.15625 21.921875 38.8125 
z
M 18.3125 54.390625 
Q 18.3125 48.734375 21.84375 45.5625 
Q 25.390625 42.390625 31.78125 42.390625 
Q 38.140625 42.390625 41.71875 45.5625 
Q 45.3125 48.734375 45.3125 54.390625 
Q 45.3125 60.0625 41.71875 63.234375 
Q 38.140625 66.40625 31.78125 66.40625 
Q 25.390625 66.40625 21.84375 63.234375 
Q 18.3125 60.0625 18.3125 54.390625 
z
" id="DejaVuSans-38"/>
      </defs>
      <g transform="translate(366.739251 316.356875)scale(0.2 -0.2)">
       <use xlink:href="#DejaVuSans-38"/>
      </g>
     </g>
    </g>
    <g id="text_6">
     <!-- log10(# f-evals / dimension) -->
     <defs>
      <path d="M 9.421875 75.984375 
L 18.40625 75.984375 
L 18.40625 0 
L 9.421875 0 
z
" id="DejaVuSans-6c"/>
      <path d="M 30.609375 48.390625 
Q 23.390625 48.390625 19.1875 42.75 
Q 14.984375 37.109375 14.984375 27.296875 
Q 14.984375 17.484375 19.15625 11.84375 
Q 23.34375 6.203125 30.609375 6.203125 
Q 37.796875 6.203125 41.984375 11.859375 
Q 46.1875 17.53125 46.1875 27.296875 
Q 46.1875 37.015625 41.984375 42.703125 
Q 37.796875 48.390625 30.609375 48.390625 
z
M 30.609375 56 
Q 42.328125 56 49.015625 48.375 
Q 55.71875 40.765625 55.71875 27.296875 
Q 55.71875 13.875 49.015625 6.21875 
Q 42.328125 -1.421875 30.609375 -1.421875 
Q 18.84375 -1.421875 12.171875 6.21875 
Q 5.515625 13.875 5.515625 27.296875 
Q 5.515625 40.765625 12.171875 48.375 
Q 18.84375 56 30.609375 56 
z
" id="DejaVuSans-6f"/>
      <path d="M 45.40625 27.984375 
Q 45.40625 37.75 41.375 43.109375 
Q 37.359375 48.484375 30.078125 48.484375 
Q 22.859375 48.484375 18.828125 43.109375 
Q 14.796875 37.75 14.796875 27.984375 
Q 14.796875 18.265625 18.828125 12.890625 
Q 22.859375 7.515625 30.078125 7.515625 
Q 37.359375 7.515625 41.375 12.890625 
Q 45.40625 18.265625 45.40625 27.984375 
z
M 54.390625 6.78125 
Q 54.390625 -7.171875 48.1875 -13.984375 
Q 42 -20.796875 29.203125 -20.796875 
Q 24.46875 -20.796875 20.265625 -20.09375 
Q 16.0625 -19.390625 12.109375 -17.921875 
L 12.109375 -9.1875 
Q 16.0625 -11.328125 19.921875 -12.34375 
Q 23.78125 -13.375 27.78125 -13.375 
Q 36.625 -13.375 41.015625 -8.765625 
Q 45.40625 -4.15625 45.40625 5.171875 
L 45.40625 9.625 
Q 42.625 4.78125 38.28125 2.390625 
Q 33.9375 0 27.875 0 
Q 17.828125 0 11.671875 7.65625 
Q 5.515625 15.328125 5.515625 27.984375 
Q 5.515625 40.671875 11.671875 48.328125 
Q 17.828125 56 27.875 56 
Q 33.9375 56 38.28125 53.609375 
Q 42.625 51.21875 45.40625 46.390625 
L 45.40625 54.6875 
L 54.390625 54.6875 
z
" id="DejaVuSans-67"/>
      <path d="M 12.40625 8.296875 
L 28.515625 8.296875 
L 28.515625 63.921875 
L 10.984375 60.40625 
L 10.984375 69.390625 
L 28.421875 72.90625 
L 38.28125 72.90625 
L 38.28125 8.296875 
L 54.390625 8.296875 
L 54.390625 0 
L 12.40625 0 
z
" id="DejaVuSans-31"/>
      <path d="M 31 75.875 
Q 24.46875 64.65625 21.28125 53.65625 
Q 18.109375 42.671875 18.109375 31.390625 
Q 18.109375 20.125 21.3125 9.0625 
Q 24.515625 -2 31 -13.1875 
L 23.1875 -13.1875 
Q 15.875 -1.703125 12.234375 9.375 
Q 8.59375 20.453125 8.59375 31.390625 
Q 8.59375 42.28125 12.203125 53.3125 
Q 15.828125 64.359375 23.1875 75.875 
z
" id="DejaVuSans-28"/>
      <path d="M 51.125 44 
L 36.921875 44 
L 32.8125 27.6875 
L 47.125 27.6875 
z
M 43.796875 71.78125 
L 38.71875 51.515625 
L 52.984375 51.515625 
L 58.109375 71.78125 
L 65.921875 71.78125 
L 60.890625 51.515625 
L 76.125 51.515625 
L 76.125 44 
L 58.984375 44 
L 54.984375 27.6875 
L 70.515625 27.6875 
L 70.515625 20.21875 
L 53.078125 20.21875 
L 48 0 
L 40.1875 0 
L 45.21875 20.21875 
L 30.90625 20.21875 
L 25.875 0 
L 18.015625 0 
L 23.09375 20.21875 
L 7.71875 20.21875 
L 7.71875 27.6875 
L 24.90625 27.6875 
L 29 44 
L 13.28125 44 
L 13.28125 51.515625 
L 30.90625 51.515625 
L 35.890625 71.78125 
z
" id="DejaVuSans-23"/>
      <path id="DejaVuSans-20"/>
      <path d="M 37.109375 75.984375 
L 37.109375 68.5 
L 28.515625 68.5 
Q 23.6875 68.5 21.796875 66.546875 
Q 19.921875 64.59375 19.921875 59.515625 
L 19.921875 54.6875 
L 34.71875 54.6875 
L 34.71875 47.703125 
L 19.921875 47.703125 
L 19.921875 0 
L 10.890625 0 
L 10.890625 47.703125 
L 2.296875 47.703125 
L 2.296875 54.6875 
L 10.890625 54.6875 
L 10.890625 58.5 
Q 10.890625 67.625 15.140625 71.796875 
Q 19.390625 75.984375 28.609375 75.984375 
z
" id="DejaVuSans-66"/>
      <path d="M 4.890625 31.390625 
L 31.203125 31.390625 
L 31.203125 23.390625 
L 4.890625 23.390625 
z
" id="DejaVuSans-2d"/>
      <path d="M 56.203125 29.59375 
L 56.203125 25.203125 
L 14.890625 25.203125 
Q 15.484375 15.921875 20.484375 11.0625 
Q 25.484375 6.203125 34.421875 6.203125 
Q 39.59375 6.203125 44.453125 7.46875 
Q 49.3125 8.734375 54.109375 11.28125 
L 54.109375 2.78125 
Q 49.265625 0.734375 44.1875 -0.34375 
Q 39.109375 -1.421875 33.890625 -1.421875 
Q 20.796875 -1.421875 13.15625 6.1875 
Q 5.515625 13.8125 5.515625 26.8125 
Q 5.515625 40.234375 12.765625 48.109375 
Q 20.015625 56 32.328125 56 
Q 43.359375 56 49.78125 48.890625 
Q 56.203125 41.796875 56.203125 29.59375 
z
M 47.21875 32.234375 
Q 47.125 39.59375 43.09375 43.984375 
Q 39.0625 48.390625 32.421875 48.390625 
Q 24.90625 48.390625 20.390625 44.140625 
Q 15.875 39.890625 15.1875 32.171875 
z
" id="DejaVuSans-65"/>
      <path d="M 2.984375 54.6875 
L 12.5 54.6875 
L 29.59375 8.796875 
L 46.6875 54.6875 
L 56.203125 54.6875 
L 35.6875 0 
L 23.484375 0 
z
" id="DejaVuSans-76"/>
      <path d="M 34.28125 27.484375 
Q 23.390625 27.484375 19.1875 25 
Q 14.984375 22.515625 14.984375 16.5 
Q 14.984375 11.71875 18.140625 8.90625 
Q 21.296875 6.109375 26.703125 6.109375 
Q 34.1875 6.109375 38.703125 11.40625 
Q 43.21875 16.703125 43.21875 25.484375 
L 43.21875 27.484375 
z
M 52.203125 31.203125 
L 52.203125 0 
L 43.21875 0 
L 43.21875 8.296875 
Q 40.140625 3.328125 35.546875 0.953125 
Q 30.953125 -1.421875 24.3125 -1.421875 
Q 15.921875 -1.421875 10.953125 3.296875 
Q 6 8.015625 6 15.921875 
Q 6 25.140625 12.171875 29.828125 
Q 18.359375 34.515625 30.609375 34.515625 
L 43.21875 34.515625 
L 43.21875 35.40625 
Q 43.21875 41.609375 39.140625 45 
Q 35.0625 48.390625 27.6875 48.390625 
Q 23 48.390625 18.546875 47.265625 
Q 14.109375 46.140625 10.015625 43.890625 
L 10.015625 52.203125 
Q 14.9375 54.109375 19.578125 55.046875 
Q 24.21875 56 28.609375 56 
Q 40.484375 56 46.34375 49.84375 
Q 52.203125 43.703125 52.203125 31.203125 
z
" id="DejaVuSans-61"/>
      <path d="M 44.28125 53.078125 
L 44.28125 44.578125 
Q 40.484375 46.53125 36.375 47.5 
Q 32.28125 48.484375 27.875 48.484375 
Q 21.1875 48.484375 17.84375 46.4375 
Q 14.5 44.390625 14.5 40.28125 
Q 14.5 37.15625 16.890625 35.375 
Q 19.28125 33.59375 26.515625 31.984375 
L 29.59375 31.296875 
Q 39.15625 29.25 43.1875 25.515625 
Q 47.21875 21.78125 47.21875 15.09375 
Q 47.21875 7.46875 41.1875 3.015625 
Q 35.15625 -1.421875 24.609375 -1.421875 
Q 20.21875 -1.421875 15.453125 -0.5625 
Q 10.6875 0.296875 5.421875 2 
L 5.421875 11.28125 
Q 10.40625 8.6875 15.234375 7.390625 
Q 20.0625 6.109375 24.8125 6.109375 
Q 31.15625 6.109375 34.5625 8.28125 
Q 37.984375 10.453125 37.984375 14.40625 
Q 37.984375 18.0625 35.515625 20.015625 
Q 33.0625 21.96875 24.703125 23.78125 
L 21.578125 24.515625 
Q 13.234375 26.265625 9.515625 29.90625 
Q 5.8125 33.546875 5.8125 39.890625 
Q 5.8125 47.609375 11.28125 51.796875 
Q 16.75 56 26.8125 56 
Q 31.78125 56 36.171875 55.265625 
Q 40.578125 54.546875 44.28125 53.078125 
z
" id="DejaVuSans-73"/>
      <path d="M 25.390625 72.90625 
L 33.6875 72.90625 
L 8.296875 -9.28125 
L 0 -9.28125 
z
" id="DejaVuSans-2f"/>
      <path d="M 45.40625 46.390625 
L 45.40625 75.984375 
L 54.390625 75.984375 
L 54.390625 0 
L 45.40625 0 
L 45.40625 8.203125 
Q 42.578125 3.328125 38.25 0.953125 
Q 33.9375 -1.421875 27.875 -1.421875 
Q 17.96875 -1.421875 11.734375 6.484375 
Q 5.515625 14.40625 5.515625 27.296875 
Q 5.515625 40.1875 11.734375 48.09375 
Q 17.96875 56 27.875 56 
Q 33.9375 56 38.25 53.625 
Q 42.578125 51.265625 45.40625 46.390625 
z
M 14.796875 27.296875 
Q 14.796875 17.390625 18.875 11.75 
Q 22.953125 6.109375 30.078125 6.109375 
Q 37.203125 6.109375 41.296875 11.75 
Q 45.40625 17.390625 45.40625 27.296875 
Q 45.40625 37.203125 41.296875 42.84375 
Q 37.203125 48.484375 30.078125 48.484375 
Q 22.953125 48.484375 18.875 42.84375 
Q 14.796875 37.203125 14.796875 27.296875 
z
" id="DejaVuSans-64"/>
      <path d="M 9.421875 54.6875 
L 18.40625 54.6875 
L 18.40625 0 
L 9.421875 0 
z
M 9.421875 75.984375 
L 18.40625 75.984375 
L 18.40625 64.59375 
L 9.421875 64.59375 
z
" id="DejaVuSans-69"/>
      <path d="M 52 44.1875 
Q 55.375 50.25 60.0625 53.125 
Q 64.75 56 71.09375 56 
Q 79.640625 56 84.28125 50.015625 
Q 88.921875 44.046875 88.921875 33.015625 
L 88.921875 0 
L 79.890625 0 
L 79.890625 32.71875 
Q 79.890625 40.578125 77.09375 44.375 
Q 74.3125 48.1875 68.609375 48.1875 
Q 61.625 48.1875 57.5625 43.546875 
Q 53.515625 38.921875 53.515625 30.90625 
L 53.515625 0 
L 44.484375 0 
L 44.484375 32.71875 
Q 44.484375 40.625 41.703125 44.40625 
Q 38.921875 48.1875 33.109375 48.1875 
Q 26.21875 48.1875 22.15625 43.53125 
Q 18.109375 38.875 18.109375 30.90625 
L 18.109375 0 
L 9.078125 0 
L 9.078125 54.6875 
L 18.109375 54.6875 
L 18.109375 46.1875 
Q 21.1875 51.21875 25.484375 53.609375 
Q 29.78125 56 35.6875 56 
Q 41.65625 56 45.828125 52.96875 
Q 50 49.953125 52 44.1875 
z
" id="DejaVuSans-6d"/>
      <path d="M 54.890625 33.015625 
L 54.890625 0 
L 45.90625 0 
L 45.90625 32.71875 
Q 45.90625 40.484375 42.875 44.328125 
Q 39.84375 48.1875 33.796875 48.1875 
Q 26.515625 48.1875 22.3125 43.546875 
Q 18.109375 38.921875 18.109375 30.90625 
L 18.109375 0 
L 9.078125 0 
L 9.078125 54.6875 
L 18.109375 54.6875 
L 18.109375 46.1875 
Q 21.34375 51.125 25.703125 53.5625 
Q 30.078125 56 35.796875 56 
Q 45.21875 56 50.046875 50.171875 
Q 54.890625 44.34375 54.890625 33.015625 
z
" id="DejaVuSans-6e"/>
      <path d="M 8.015625 75.875 
L 15.828125 75.875 
Q 23.140625 64.359375 26.78125 53.3125 
Q 30.421875 42.28125 30.421875 31.390625 
Q 30.421875 20.453125 26.78125 9.375 
Q 23.140625 -1.703125 15.828125 -13.1875 
L 8.015625 -13.1875 
Q 14.5 -2 17.703125 9.0625 
Q 20.90625 20.125 20.90625 31.390625 
Q 20.90625 42.671875 17.703125 53.65625 
Q 14.5 64.65625 8.015625 75.875 
z
" id="DejaVuSans-29"/>
     </defs>
     <g transform="translate(107.571219 337.433594)scale(0.17 -0.17)">
      <use xlink:href="#DejaVuSans-6c"/>
      <use x="27.783203" xlink:href="#DejaVuSans-6f"/>
      <use x="88.964844" xlink:href="#DejaVuSans-67"/>
      <use x="152.441406" xlink:href="#DejaVuSans-31"/>
      <use x="216.064453" xlink:href="#DejaVuSans-30"/>
      <use x="279.6875" xlink:href="#DejaVuSans-28"/>
      <use x="318.701172" xlink:href="#DejaVuSans-23"/>
      <use x="402.490234" xlink:href="#DejaVuSans-20"/>
      <use x="434.277344" xlink:href="#DejaVuSans-66"/>
      <use x="469.404297" xlink:href="#DejaVuSans-2d"/>
      <use x="505.488281" xlink:href="#DejaVuSans-65"/>
      <use x="567.011719" xlink:href="#DejaVuSans-76"/>
      <use x="626.191406" xlink:href="#DejaVuSans-61"/>
      <use x="687.470703" xlink:href="#DejaVuSans-6c"/>
      <use x="715.253906" xlink:href="#DejaVuSans-73"/>
      <use x="767.353516" xlink:href="#DejaVuSans-20"/>
      <use x="799.140625" xlink:href="#DejaVuSans-2f"/>
      <use x="832.832031" xlink:href="#DejaVuSans-20"/>
      <use x="864.619141" xlink:href="#DejaVuSans-64"/>
      <use x="928.095703" xlink:href="#DejaVuSans-69"/>
      <use x="955.878906" xlink:href="#DejaVuSans-6d"/>
      <use x="1053.291016" xlink:href="#DejaVuSans-65"/>
      <use x="1114.814453" xlink:href="#DejaVuSans-6e"/>
      <use x="1178.193359" xlink:href="#DejaVuSans-73"/>
      <use x="1230.292969" xlink:href="#DejaVuSans-69"/>
      <use x="1258.076172" xlink:href="#DejaVuSans-6f"/>
      <use x="1319.257812" xlink:href="#DejaVuSans-6e"/>
      <use x="1382.636719" xlink:href="#DejaVuSans-29"/>
     </g>
    </g>
   </g>
   <g id="matplotlib.axis_2">
    <g id="ytick_1">
     <g id="line2d_11">
      <path clip-path="url(#p1b2f650844)" d="M 56.84 294.16 
L 399.984 294.16 
" style="fill:none;stroke:#b0b0b0;stroke-linecap:square;stroke-width:0.8;"/>
     </g>
     <g id="line2d_12">
      <defs>
       <path d="M 0 0 
L -3.5 0 
" id="m5448a50c13" style="stroke:#000000;stroke-width:0.8;"/>
      </defs>
      <g>
       <use style="stroke:#000000;stroke-width:0.8;" x="56.84" xlink:href="#m5448a50c13" y="294.16"/>
      </g>
     </g>
     <g id="text_7">
      <!-- 0.0 -->
      <defs>
       <path d="M 10.6875 12.40625 
L 21 12.40625 
L 21 0 
L 10.6875 0 
z
" id="DejaVuSans-2e"/>
      </defs>
      <g transform="translate(24.395 300.23875)scale(0.16 -0.16)">
       <use xlink:href="#DejaVuSans-30"/>
       <use x="63.623047" xlink:href="#DejaVuSans-2e"/>
       <use x="95.410156" xlink:href="#DejaVuSans-30"/>
      </g>
     </g>
    </g>
    <g id="ytick_2">
     <g id="line2d_13">
      <path clip-path="url(#p1b2f650844)" d="M 56.84 240.829307 
L 399.984 240.829307 
" style="fill:none;stroke:#b0b0b0;stroke-linecap:square;stroke-width:0.8;"/>
     </g>
     <g id="line2d_14">
      <g>
       <use style="stroke:#000000;stroke-width:0.8;" x="56.84" xlink:href="#m5448a50c13" y="240.829307"/>
      </g>
     </g>
     <g id="text_8">
      <!-- 0.2 -->
      <g transform="translate(24.395 246.908057)scale(0.16 -0.16)">
       <use xlink:href="#DejaVuSans-30"/>
       <use x="63.623047" xlink:href="#DejaVuSans-2e"/>
       <use x="95.410156" xlink:href="#DejaVuSans-32"/>
      </g>
     </g>
    </g>
    <g id="ytick_3">
     <g id="line2d_15">
      <path clip-path="url(#p1b2f650844)" d="M 56.84 187.498614 
L 399.984 187.498614 
" style="fill:none;stroke:#b0b0b0;stroke-linecap:square;stroke-width:0.8;"/>
     </g>
     <g id="line2d_16">
      <g>
       <use style="stroke:#000000;stroke-width:0.8;" x="56.84" xlink:href="#m5448a50c13" y="187.498614"/>
      </g>
     </g>
     <g id="text_9">
      <!-- 0.4 -->
      <g transform="translate(24.395 193.577364)scale(0.16 -0.16)">
       <use xlink:href="#DejaVuSans-30"/>
       <use x="63.623047" xlink:href="#DejaVuSans-2e"/>
       <use x="95.410156" xlink:href="#DejaVuSans-34"/>
      </g>
     </g>
    </g>
    <g id="ytick_4">
     <g id="line2d_17">
      <path clip-path="url(#p1b2f650844)" d="M 56.84 134.167921 
L 399.984 134.167921 
" style="fill:none;stroke:#b0b0b0;stroke-linecap:square;stroke-width:0.8;"/>
     </g>
     <g id="line2d_18">
      <g>
       <use style="stroke:#000000;stroke-width:0.8;" x="56.84" xlink:href="#m5448a50c13" y="134.167921"/>
      </g>
     </g>
     <g id="text_10">
      <!-- 0.6 -->
      <g transform="translate(24.395 140.246671)scale(0.16 -0.16)">
       <use xlink:href="#DejaVuSans-30"/>
       <use x="63.623047" xlink:href="#DejaVuSans-2e"/>
       <use x="95.410156" xlink:href="#DejaVuSans-36"/>
      </g>
     </g>
    </g>
    <g id="ytick_5">
     <g id="line2d_19">
      <path clip-path="url(#p1b2f650844)" d="M 56.84 80.837228 
L 399.984 80.837228 
" style="fill:none;stroke:#b0b0b0;stroke-linecap:square;stroke-width:0.8;"/>
     </g>
     <g id="line2d_20">
      <g>
       <use style="stroke:#000000;stroke-width:0.8;" x="56.84" xlink:href="#m5448a50c13" y="80.837228"/>
      </g>
     </g>
     <g id="text_11">
      <!-- 0.8 -->
      <g transform="translate(24.395 86.915978)scale(0.16 -0.16)">
       <use xlink:href="#DejaVuSans-30"/>
       <use x="63.623047" xlink:href="#DejaVuSans-2e"/>
       <use x="95.410156" xlink:href="#DejaVuSans-38"/>
      </g>
     </g>
    </g>
    <g id="ytick_6">
     <g id="line2d_21">
      <path clip-path="url(#p1b2f650844)" d="M 56.84 27.506535 
L 399.984 27.506535 
" style="fill:none;stroke:#b0b0b0;stroke-linecap:square;stroke-width:0.8;"/>
     </g>
     <g id="line2d_22">
      <g>
       <use style="stroke:#000000;stroke-width:0.8;" x="56.84" xlink:href="#m5448a50c13" y="27.506535"/>
      </g>
     </g>
     <g id="text_12">
      <!-- 1.0 -->
      <g transform="translate(24.395 33.585285)scale(0.16 -0.16)">
       <use xlink:href="#DejaVuSans-31"/>
       <use x="63.623047" xlink:href="#DejaVuSans-2e"/>
       <use x="95.410156" xlink:href="#DejaVuSans-30"/>
      </g>
     </g>
    </g>
    <g id="text_13">
     <!-- Fraction of function,target pairs -->
     <defs>
      <path d="M 9.8125 72.90625 
L 51.703125 72.90625 
L 51.703125 64.59375 
L 19.671875 64.59375 
L 19.671875 43.109375 
L 48.578125 43.109375 
L 48.578125 34.8125 
L 19.671875 34.8125 
L 19.671875 0 
L 9.8125 0 
z
" id="DejaVuSans-46"/>
      <path d="M 41.109375 46.296875 
Q 39.59375 47.171875 37.8125 47.578125 
Q 36.03125 48 33.890625 48 
Q 26.265625 48 22.1875 43.046875 
Q 18.109375 38.09375 18.109375 28.8125 
L 18.109375 0 
L 9.078125 0 
L 9.078125 54.6875 
L 18.109375 54.6875 
L 18.109375 46.1875 
Q 20.953125 51.171875 25.484375 53.578125 
Q 30.03125 56 36.53125 56 
Q 37.453125 56 38.578125 55.875 
Q 39.703125 55.765625 41.0625 55.515625 
z
" id="DejaVuSans-72"/>
      <path d="M 48.78125 52.59375 
L 48.78125 44.1875 
Q 44.96875 46.296875 41.140625 47.34375 
Q 37.3125 48.390625 33.40625 48.390625 
Q 24.65625 48.390625 19.8125 42.84375 
Q 14.984375 37.3125 14.984375 27.296875 
Q 14.984375 17.28125 19.8125 11.734375 
Q 24.65625 6.203125 33.40625 6.203125 
Q 37.3125 6.203125 41.140625 7.25 
Q 44.96875 8.296875 48.78125 10.40625 
L 48.78125 2.09375 
Q 45.015625 0.34375 40.984375 -0.53125 
Q 36.96875 -1.421875 32.421875 -1.421875 
Q 20.0625 -1.421875 12.78125 6.34375 
Q 5.515625 14.109375 5.515625 27.296875 
Q 5.515625 40.671875 12.859375 48.328125 
Q 20.21875 56 33.015625 56 
Q 37.15625 56 41.109375 55.140625 
Q 45.0625 54.296875 48.78125 52.59375 
z
" id="DejaVuSans-63"/>
      <path d="M 18.3125 70.21875 
L 18.3125 54.6875 
L 36.8125 54.6875 
L 36.8125 47.703125 
L 18.3125 47.703125 
L 18.3125 18.015625 
Q 18.3125 11.328125 20.140625 9.421875 
Q 21.96875 7.515625 27.59375 7.515625 
L 36.8125 7.515625 
L 36.8125 0 
L 27.59375 0 
Q 17.1875 0 13.234375 3.875 
Q 9.28125 7.765625 9.28125 18.015625 
L 9.28125 47.703125 
L 2.6875 47.703125 
L 2.6875 54.6875 
L 9.28125 54.6875 
L 9.28125 70.21875 
z
" id="DejaVuSans-74"/>
      <path d="M 8.5 21.578125 
L 8.5 54.6875 
L 17.484375 54.6875 
L 17.484375 21.921875 
Q 17.484375 14.15625 20.5 10.265625 
Q 23.53125 6.390625 29.59375 6.390625 
Q 36.859375 6.390625 41.078125 11.03125 
Q 45.3125 15.671875 45.3125 23.6875 
L 45.3125 54.6875 
L 54.296875 54.6875 
L 54.296875 0 
L 45.3125 0 
L 45.3125 8.40625 
Q 42.046875 3.421875 37.71875 1 
Q 33.40625 -1.421875 27.6875 -1.421875 
Q 18.265625 -1.421875 13.375 4.4375 
Q 8.5 10.296875 8.5 21.578125 
z
M 31.109375 56 
z
" id="DejaVuSans-75"/>
      <path d="M 11.71875 12.40625 
L 22.015625 12.40625 
L 22.015625 4 
L 14.015625 -11.625 
L 7.71875 -11.625 
L 11.71875 4 
z
" id="DejaVuSans-2c"/>
      <path d="M 18.109375 8.203125 
L 18.109375 -20.796875 
L 9.078125 -20.796875 
L 9.078125 54.6875 
L 18.109375 54.6875 
L 18.109375 46.390625 
Q 20.953125 51.265625 25.265625 53.625 
Q 29.59375 56 35.59375 56 
Q 45.5625 56 51.78125 48.09375 
Q 58.015625 40.1875 58.015625 27.296875 
Q 58.015625 14.40625 51.78125 6.484375 
Q 45.5625 -1.421875 35.59375 -1.421875 
Q 29.59375 -1.421875 25.265625 0.953125 
Q 20.953125 3.328125 18.109375 8.203125 
z
M 48.6875 27.296875 
Q 48.6875 37.203125 44.609375 42.84375 
Q 40.53125 48.484375 33.40625 48.484375 
Q 26.265625 48.484375 22.1875 42.84375 
Q 18.109375 37.203125 18.109375 27.296875 
Q 18.109375 17.390625 22.1875 11.75 
Q 26.265625 6.109375 33.40625 6.109375 
Q 40.53125 6.109375 44.609375 11.75 
Q 48.6875 17.390625 48.6875 27.296875 
z
" id="DejaVuSans-70"/>
     </defs>
     <g transform="translate(16.859531 294.639375)rotate(-90)scale(0.17 -0.17)">
      <use xlink:href="#DejaVuSans-46"/>
      <use x="57.410156" xlink:href="#DejaVuSans-72"/>
      <use x="98.523438" xlink:href="#DejaVuSans-61"/>
      <use x="159.802734" xlink:href="#DejaVuSans-63"/>
      <use x="214.783203" xlink:href="#DejaVuSans-74"/>
      <use x="253.992188" xlink:href="#DejaVuSans-69"/>
      <use x="281.775391" xlink:href="#DejaVuSans-6f"/>
      <use x="342.957031" xlink:href="#DejaVuSans-6e"/>
      <use x="406.335938" xlink:href="#DejaVuSans-20"/>
      <use x="438.123047" xlink:href="#DejaVuSans-6f"/>
      <use x="499.304688" xlink:href="#DejaVuSans-66"/>
      <use x="534.509766" xlink:href="#DejaVuSans-20"/>
      <use x="566.296875" xlink:href="#DejaVuSans-66"/>
      <use x="601.501953" xlink:href="#DejaVuSans-75"/>
      <use x="664.880859" xlink:href="#DejaVuSans-6e"/>
      <use x="728.259766" xlink:href="#DejaVuSans-63"/>
      <use x="783.240234" xlink:href="#DejaVuSans-74"/>
      <use x="822.449219" xlink:href="#DejaVuSans-69"/>
      <use x="850.232422" xlink:href="#DejaVuSans-6f"/>
      <use x="911.414062" xlink:href="#DejaVuSans-6e"/>
      <use x="974.792969" xlink:href="#DejaVuSans-2c"/>
      <use x="1006.580078" xlink:href="#DejaVuSans-74"/>
      <use x="1045.789062" xlink:href="#DejaVuSans-61"/>
      <use x="1107.068359" xlink:href="#DejaVuSans-72"/>
      <use x="1148.166016" xlink:href="#DejaVuSans-67"/>
      <use x="1211.642578" xlink:href="#DejaVuSans-65"/>
      <use x="1273.166016" xlink:href="#DejaVuSans-74"/>
      <use x="1312.375" xlink:href="#DejaVuSans-20"/>
      <use x="1344.162109" xlink:href="#DejaVuSans-70"/>
      <use x="1407.638672" xlink:href="#DejaVuSans-61"/>
      <use x="1468.917969" xlink:href="#DejaVuSans-69"/>
      <use x="1496.701172" xlink:href="#DejaVuSans-72"/>
      <use x="1537.814453" xlink:href="#DejaVuSans-73"/>
     </g>
    </g>
   </g>
   <g id="line2d_23">
    <defs>
     <path d="M 0 1.5 
C 0.397805 1.5 0.77937 1.341951 1.06066 1.06066 
C 1.341951 0.77937 1.5 0.397805 1.5 0 
C 1.5 -0.397805 1.341951 -0.77937 1.06066 -1.06066 
C 0.77937 -1.341951 0.397805 -1.5 0 -1.5 
C -0.397805 -1.5 -0.77937 -1.341951 -1.06066 -1.06066 
C -1.341951 -0.77937 -1.5 -0.397805 -1.5 0 
C -1.5 0.397805 -1.341951 0.77937 -1.06066 1.06066 
C -0.77937 1.341951 -0.397805 1.5 0 1.5 
z
" id="m96c868be53" style="stroke:#00bfbf;"/>
    </defs>
    <g>
     <use style="fill:#00bfbf;stroke:#00bfbf;" x="244.95971" xlink:href="#m96c868be53" y="132.076521"/>
     <use style="fill:#00bfbf;stroke:#00bfbf;" x="244.95971" xlink:href="#m96c868be53" y="132.076521"/>
    </g>
   </g>
   <g id="line2d_24">
    <path d="M 44.939466 294.16 
L 44.939466 287.362951 
L 56.84 287.362951 
L 56.84 284.748701 
L 63.801366 284.748701 
L 63.801366 278.474502 
L 68.740534 278.474502 
L 68.740534 276.383102 
L 72.57165 276.383102 
L 72.57165 275.337402 
L 75.7019 275.337402 
L 75.7019 274.814553 
L 78.348489 274.814553 
L 78.348489 269.586053 
L 80.641068 269.586053 
L 80.641068 266.971804 
L 82.663267 266.971804 
L 82.663267 264.880404 
L 86.10855 264.880404 
L 86.10855 263.311854 
L 87.602435 263.311854 
L 87.602435 262.789004 
L 88.976675 262.789004 
L 88.976675 260.697604 
L 90.249023 260.697604 
L 90.249023 259.129055 
L 91.433551 259.129055 
L 91.433551 257.037655 
L 93.582457 257.037655 
L 93.582457 256.514805 
L 94.563801 256.514805 
L 94.563801 255.991955 
L 96.372719 255.991955 
L 96.372719 255.469105 
L 97.210389 255.469105 
L 97.210389 254.946255 
L 101.525167 254.946255 
L 101.525167 254.423405 
L 102.149557 254.423405 
L 102.149557 253.377705 
L 102.752035 253.377705 
L 102.752035 252.854855 
L 105.482991 252.854855 
L 105.482991 252.332005 
L 107.838576 252.332005 
L 107.838576 251.809156 
L 108.273253 251.809156 
L 108.273253 250.763456 
L 109.110924 250.763456 
L 109.110924 250.240606 
L 110.295451 250.240606 
L 110.295451 249.717756 
L 111.757512 249.717756 
L 111.757512 249.194906 
L 112.777744 249.194906 
L 112.777744 248.672056 
L 113.740735 248.672056 
L 113.740735 248.149206 
L 114.946061 248.149206 
L 114.946061 247.626356 
L 116.60886 247.626356 
L 116.60886 247.103506 
L 117.63417 247.103506 
L 117.63417 246.580656 
L 119.293141 246.580656 
L 119.293141 246.057806 
L 122.573338 246.057806 
L 122.573338 245.534956 
L 129.157352 245.534956 
L 129.157352 245.012106 
L 132.706375 245.012106 
L 132.706375 243.966407 
L 133.612858 243.966407 
L 133.612858 243.443557 
L 135.382488 243.443557 
L 135.382488 242.920707 
L 136.076273 242.920707 
L 136.076273 242.397857 
L 137.697178 242.397857 
L 137.697178 241.875007 
L 138.079574 241.875007 
L 138.079574 241.352157 
L 139.107076 241.352157 
L 139.107076 240.829307 
L 139.873358 240.829307 
L 139.941354 239.783607 
L 142.980883 239.783607 
L 142.980883 239.260757 
L 145.464269 239.260757 
L 145.464269 238.215057 
L 146.092172 238.215057 
L 146.092172 237.692207 
L 151.671392 237.692207 
L 151.671392 237.169357 
L 153.582811 237.169357 
L 153.582811 236.646507 
L 153.976817 236.646507 
L 153.976817 236.123658 
L 154.909819 236.123658 
L 154.909819 235.600808 
L 155.247025 235.600808 
L 155.357971 234.555108 
L 155.605009 234.555108 
L 155.605009 234.032258 
L 156.73859 234.032258 
L 156.73859 232.986558 
L 157.241374 232.986558 
L 157.241374 232.463708 
L 157.609029 232.463708 
L 157.609029 231.940858 
L 157.729852 231.940858 
L 157.729852 230.895158 
L 158.204816 230.895158 
L 158.204816 230.372308 
L 158.644177 230.372308 
L 158.644177 229.849458 
L 167.063876 229.849458 
L 167.063876 229.326608 
L 168.081688 229.326608 
L 168.081688 228.803758 
L 168.816779 228.803758 
L 168.816779 228.280909 
L 169.786195 228.280909 
L 169.786195 227.758059 
L 171.456152 227.758059 
L 171.456152 227.235209 
L 171.639202 227.235209 
L 171.639202 226.712359 
L 171.852085 226.712359 
L 171.883791 225.666659 
L 172.145756 225.666659 
L 172.145756 225.143809 
L 172.516099 225.143809 
L 172.516099 224.620959 
L 172.878622 224.620959 
L 172.878622 224.098109 
L 173.145577 224.098109 
L 173.145577 223.575259 
L 173.73384 223.575259 
L 173.73384 222.529559 
L 176.020493 222.529559 
L 176.020493 222.006709 
L 176.711731 222.006709 
L 176.711731 221.483859 
L 177.043278 221.483859 
L 177.043278 220.96101 
L 177.650068 220.96101 
L 177.650068 220.43816 
L 177.785375 220.43816 
L 177.785375 219.91531 
L 178.074932 219.91531 
L 178.074932 219.39246 
L 179.296721 219.39246 
L 179.296721 218.86961 
L 180.05454 218.86961 
L 180.05454 218.34676 
L 180.178739 218.34676 
L 180.185251 217.30106 
L 181.128936 217.30106 
L 181.128936 216.77821 
L 183.646508 216.77821 
L 183.646508 216.25536 
L 186.134223 216.25536 
L 186.235217 215.20966 
L 186.530183 215.20966 
L 186.561648 214.16396 
L 186.709213 214.16396 
L 186.709213 213.64111 
L 188.395697 213.64111 
L 188.395697 213.118261 
L 189.111086 213.118261 
L 189.111086 212.595411 
L 189.284413 212.595411 
L 189.284413 212.072561 
L 190.600777 212.072561 
L 190.67162 211.026861 
L 190.742172 211.026861 
L 190.82295 209.981161 
L 192.312162 209.981161 
L 192.312162 209.458311 
L 192.774928 209.458311 
L 192.774928 208.935461 
L 193.337891 208.935461 
L 193.337891 208.412611 
L 193.679482 208.412611 
L 193.735758 207.366911 
L 193.800691 207.366911 
L 193.800691 206.844061 
L 194.069599 206.844061 
L 194.069599 206.321211 
L 194.956915 206.321211 
L 195.053038 205.275512 
L 195.653154 205.275512 
L 195.653154 204.752662 
L 195.954622 204.752662 
L 195.954622 204.229812 
L 196.539617 204.229812 
L 196.647275 201.615562 
L 196.739374 201.615562 
L 196.826041 199.524162 
L 196.880295 199.524162 
L 196.880295 199.001312 
L 197.482687 199.001312 
L 197.482687 198.478462 
L 198.39694 198.478462 
L 198.39694 197.955613 
L 199.159635 197.955613 
L 199.159635 197.432763 
L 199.305626 197.432763 
L 199.401559 195.864213 
L 199.673634 195.864213 
L 199.673634 195.341363 
L 200.007262 195.341363 
L 200.007262 194.818513 
L 201.050289 194.818513 
L 201.050289 194.295663 
L 201.329962 194.295663 
L 201.329962 193.772813 
L 201.663019 193.772813 
L 201.663019 193.249963 
L 201.989738 193.249963 
L 201.989738 192.727113 
L 202.380202 192.727113 
L 202.380202 192.204263 
L 203.268354 192.204263 
L 203.339488 190.635713 
L 203.449 190.635713 
L 203.449 190.112864 
L 203.624441 190.112864 
L 203.624441 189.590014 
L 203.955365 189.590014 
L 203.955365 189.067164 
L 204.161216 189.067164 
L 204.161216 188.544314 
L 204.82492 188.544314 
L 204.92384 187.498614 
L 204.940785 187.498614 
L 205.03598 185.930064 
L 205.083381 185.930064 
L 205.083381 185.407214 
L 205.505685 185.407214 
L 205.505685 184.884364 
L 205.948369 184.884364 
L 205.965783 183.838664 
L 206.475935 183.838664 
L 206.475935 183.315814 
L 207.523248 183.315814 
L 207.523248 182.792964 
L 207.805712 182.792964 
L 207.910935 181.224415 
L 207.929057 181.224415 
L 208.00908 179.655865 
L 208.188418 179.655865 
L 208.188418 179.133015 
L 208.897387 179.133015 
L 208.897387 178.610165 
L 209.122121 178.610165 
L 209.122121 178.087315 
L 209.638069 178.087315 
L 209.638069 177.564465 
L 209.992747 177.564465 
L 209.992747 177.041615 
L 210.417642 177.041615 
L 210.417642 176.518765 
L 210.631185 176.518765 
L 210.631185 175.995915 
L 210.765507 175.995915 
L 210.765507 175.473065 
L 210.934659 175.473065 
L 210.934659 174.950215 
L 211.552183 174.950215 
L 211.661829 173.381666 
L 211.849208 173.381666 
L 211.849208 172.858816 
L 212.158381 172.858816 
L 212.158381 172.335966 
L 212.559174 172.335966 
L 212.623268 171.290266 
L 212.696927 171.290266 
L 212.786852 169.721716 
L 213.236195 169.721716 
L 213.236195 169.198866 
L 213.378064 169.198866 
L 213.378064 168.676016 
L 213.86374 168.676016 
L 213.86374 168.153166 
L 214.617886 168.153166 
L 214.681735 166.061767 
L 214.880502 166.061767 
L 214.970017 164.493217 
L 215.189242 164.493217 
L 215.189242 163.970367 
L 215.454179 163.970367 
L 215.562338 161.878967 
L 216.221319 161.878967 
L 216.221319 161.356117 
L 216.390488 161.356117 
L 216.396019 160.310417 
L 217.088951 160.310417 
L 217.185805 158.741868 
L 217.221232 158.741868 
L 217.221232 158.219018 
L 217.898197 158.219018 
L 217.898197 157.696168 
L 218.076786 157.696168 
L 218.076786 157.173318 
L 218.189603 157.173318 
L 218.274794 155.604768 
L 218.580812 155.604768 
L 218.580812 155.081918 
L 218.762802 155.081918 
L 218.81778 154.036218 
L 220.174119 154.036218 
L 220.174119 153.513368 
L 220.762424 153.513368 
L 220.853467 151.944818 
L 220.905188 151.944818 
L 220.905188 151.421969 
L 221.350783 151.421969 
L 221.422857 148.284869 
L 221.493455 148.284869 
L 221.505193 147.239169 
L 222.133083 147.239169 
L 222.195754 146.193469 
L 222.409146 146.193469 
L 222.409146 145.670619 
L 222.647387 145.670619 
L 222.706024 144.624919 
L 223.147798 144.624919 
L 223.23926 143.57922 
L 223.388696 143.57922 
L 223.392901 142.53352 
L 225.757405 142.53352 
L 225.757405 142.01067 
L 227.630004 142.01067 
L 227.70213 140.44212 
L 227.753172 140.44212 
L 227.753172 139.91927 
L 228.050672 139.91927 
L 228.050672 139.39642 
L 228.498408 139.39642 
L 228.498408 138.87357 
L 228.860383 138.87357 
L 228.860383 137.82787 
L 229.287002 137.82787 
L 229.287002 137.30502 
L 230.074116 137.30502 
L 230.074116 136.78217 
L 230.260451 136.78217 
L 230.260451 136.259321 
L 230.74608 136.259321 
L 230.74608 135.736471 
L 232.510654 135.736471 
L 232.510654 135.213621 
L 232.748211 135.213621 
L 232.748211 134.690771 
L 233.083255 134.690771 
L 233.083255 134.167921 
L 234.846408 134.167921 
L 234.846408 133.645071 
L 239.024181 133.645071 
L 239.024181 133.122221 
L 243.524571 133.122221 
L 243.524571 132.599371 
L 244.95971 132.599371 
L 244.95971 132.076521 
L 333.569032 132.076521 
L 333.569032 132.076521 
" style="fill:none;stroke:#00bfbf;stroke-linecap:square;stroke-width:1.5;"/>
   </g>
   <g id="line2d_25">
    <defs>
     <path d="M -6 0 
L 6 0 
M 0 6 
L 0 -6 
" id="ma4e313a2d2" style="stroke:#00bfbf;stroke-width:1.5;"/>
    </defs>
    <g>
     <use style="fill-opacity:0;stroke:#00bfbf;stroke-width:1.5;" x="90.249023" xlink:href="#ma4e313a2d2" y="259.129055"/>
     <use style="fill-opacity:0;stroke:#00bfbf;stroke-width:1.5;" x="158.644177" xlink:href="#ma4e313a2d2" y="230.372308"/>
     <use style="fill-opacity:0;stroke:#00bfbf;stroke-width:1.5;" x="214.681735" xlink:href="#ma4e313a2d2" y="166.061767"/>
     <use style="fill-opacity:0;stroke:#00bfbf;stroke-width:1.5;" x="244.95971" xlink:href="#ma4e313a2d2" y="132.599371"/>
     <use style="fill-opacity:0;stroke:#00bfbf;stroke-width:1.5;" x="244.95971" xlink:href="#ma4e313a2d2" y="132.076521"/>
     <use style="fill-opacity:0;stroke:#00bfbf;stroke-width:1.5;" x="333.569032" xlink:href="#ma4e313a2d2" y="132.076521"/>
    </g>
   </g>
   <g id="line2d_26">
    <path style="fill:none;stroke:#00bfbf;stroke-linecap:square;stroke-width:1.5;"/>
    <g/>
   </g>
   <g id="line2d_27">
    <path clip-path="url(#p1b2f650844)" d="M 164.375293 229.849458 
" style="fill:none;stroke:#00bfbf;stroke-linecap:square;stroke-width:1.5;"/>
    <defs>
     <path d="M -12 12 
L 12 -12 
M -12 -12 
L 12 12 
" id="m7c0e7dd2dc" style="stroke:#00bfbf;stroke-width:3;"/>
    </defs>
    <g clip-path="url(#p1b2f650844)">
     <use style="fill:#00bfbf;stroke:#00bfbf;stroke-width:3;" x="164.375293" xlink:href="#m7c0e7dd2dc" y="229.849458"/>
    </g>
   </g>
   <g id="line2d_28">
    <defs>
     <path d="M 0 1.5 
C 0.397805 1.5 0.77937 1.341951 1.06066 1.06066 
C 1.341951 0.77937 1.5 0.397805 1.5 0 
C 1.5 -0.397805 1.341951 -0.77937 1.06066 -1.06066 
C 0.77937 -1.341951 0.397805 -1.5 0 -1.5 
C -0.397805 -1.5 -0.77937 -1.341951 -1.06066 -1.06066 
C -1.341951 -0.77937 -1.5 -0.397805 -1.5 0 
C -1.5 0.397805 -1.341951 0.77937 -1.06066 1.06066 
C -0.77937 1.341951 -0.397805 1.5 0 1.5 
z
" id="m70c6357da8" style="stroke:#008000;"/>
    </defs>
    <g>
     <use style="fill:#008000;stroke:#008000;" x="260.986871" xlink:href="#m70c6357da8" y="142.53352"/>
     <use style="fill:#008000;stroke:#008000;" x="260.986871" xlink:href="#m70c6357da8" y="142.53352"/>
    </g>
   </g>
   <g id="line2d_29">
    <path d="M 37.9781 294.16 
L 37.9781 293.63715 
L 49.878634 293.63715 
L 49.878634 290.50005 
L 56.84 290.50005 
L 56.84 288.408651 
L 61.779168 288.408651 
L 61.779168 286.317251 
L 65.610284 286.317251 
L 65.610284 284.225851 
L 68.740534 284.225851 
L 68.740534 281.611602 
L 73.679702 281.611602 
L 73.679702 280.565902 
L 77.510818 280.565902 
L 77.510818 277.951652 
L 80.641068 277.951652 
L 80.641068 276.383102 
L 83.287657 276.383102 
L 83.287657 274.814553 
L 85.580236 274.814553 
L 85.580236 274.291703 
L 87.602435 274.291703 
L 87.602435 273.768853 
L 88.530706 273.768853 
L 88.530706 272.723153 
L 90.249023 272.723153 
L 90.249023 271.154603 
L 91.047718 271.154603 
L 91.047718 269.063203 
L 91.810903 269.063203 
L 91.810903 268.540353 
L 92.541603 268.540353 
L 92.541603 268.017503 
L 93.915843 268.017503 
L 93.915843 267.494653 
L 94.563801 267.494653 
L 94.563801 266.448954 
L 95.790669 266.448954 
L 95.790669 265.403254 
L 97.480771 265.403254 
L 97.480771 264.357554 
L 98.521625 264.357554 
L 98.521625 263.834704 
L 99.019308 263.834704 
L 99.019308 262.266154 
L 99.973377 262.266154 
L 99.973377 261.743304 
L 101.311887 261.743304 
L 101.311887 261.220454 
L 102.149557 261.220454 
L 102.149557 260.697604 
L 102.948252 260.697604 
L 102.948252 259.651904 
L 103.711438 259.651904 
L 103.711438 259.129055 
L 106.464335 259.129055 
L 106.464335 258.606205 
L 106.779369 258.606205 
L 106.779369 258.083355 
L 110.167801 258.083355 
L 110.167801 257.560505 
L 111.640318 257.560505 
L 111.640318 257.037655 
L 112.331775 257.037655 
L 112.331775 256.514805 
L 112.556207 256.514805 
L 112.556207 254.946255 
L 113.636365 254.946255 
L 113.636365 253.377705 
L 116.520588 253.377705 
L 116.520588 252.332005 
L 118.043947 252.332005 
L 118.043947 251.809156 
L 121.281839 251.809156 
L 121.281839 251.286306 
L 124.232309 251.286306 
L 124.232309 250.763456 
L 124.344892 250.763456 
L 124.344892 250.240606 
L 124.896992 250.240606 
L 124.896992 249.717756 
L 125.745009 249.717756 
L 125.745009 249.194906 
L 133.710687 249.194906 
L 133.710687 248.672056 
L 134.223228 248.672056 
L 134.223228 248.149206 
L 136.019517 248.149206 
L 136.019517 247.626356 
L 137.953053 247.626356 
L 137.953053 247.103506 
L 139.319477 247.103506 
L 139.319477 246.580656 
L 140.585122 246.580656 
L 140.585122 246.057806 
L 146.249541 246.057806 
L 146.249541 245.534956 
L 149.777224 245.534956 
L 149.777224 245.012106 
L 153.397866 245.012106 
L 153.397866 244.489256 
L 157.945213 244.489256 
L 157.945213 243.966407 
L 158.274941 243.966407 
L 158.274941 243.443557 
L 160.801139 243.443557 
L 160.801139 242.920707 
L 161.754121 242.920707 
L 161.754121 242.397857 
L 162.608715 242.397857 
L 162.608715 241.875007 
L 163.307165 241.875007 
L 163.307165 241.352157 
L 170.00355 241.352157 
L 170.00355 240.829307 
L 170.283991 240.829307 
L 170.283991 240.306457 
L 170.597901 240.306457 
L 170.597901 239.783607 
L 172.349063 239.783607 
L 172.349063 239.260757 
L 173.546374 239.260757 
L 173.546374 238.737907 
L 174.909306 238.737907 
L 174.909306 238.215057 
L 175.178673 238.215057 
L 175.178673 237.692207 
L 175.608992 237.692207 
L 175.608992 237.169357 
L 175.789363 237.169357 
L 175.789363 236.646507 
L 176.975385 236.646507 
L 176.975385 236.123658 
L 177.429805 236.123658 
L 177.429805 235.600808 
L 180.742543 235.600808 
L 180.742543 235.077958 
L 181.538945 235.077958 
L 181.538945 234.555108 
L 182.025392 234.555108 
L 182.025392 234.032258 
L 182.479458 234.032258 
L 182.479458 232.986558 
L 184.39287 232.986558 
L 184.39287 232.463708 
L 186.012551 232.463708 
L 186.080424 231.418008 
L 186.349266 231.418008 
L 186.349266 230.895158 
L 186.906948 230.895158 
L 186.906948 230.372308 
L 187.430015 230.372308 
L 187.449927 229.326608 
L 187.549145 229.326608 
L 187.549145 228.803758 
L 187.871166 228.803758 
L 187.871166 228.280909 
L 189.593314 228.280909 
L 189.593314 227.758059 
L 191.011123 227.758059 
L 191.011123 227.235209 
L 191.258854 227.235209 
L 191.365556 226.189509 
L 191.444587 226.189509 
L 191.444587 225.666659 
L 191.623874 225.666659 
L 191.623874 225.143809 
L 193.342935 225.143809 
L 193.342935 224.620959 
L 194.077331 224.620959 
L 194.077331 224.098109 
L 194.206327 224.098109 
L 194.206327 223.575259 
L 194.35529 223.575259 
L 194.35529 223.052409 
L 194.606348 223.052409 
L 194.606348 222.529559 
L 196.163828 222.529559 
L 196.163828 222.006709 
L 196.962989 222.006709 
L 196.962989 221.483859 
L 197.793657 221.483859 
L 197.793657 220.96101 
L 199.297785 220.96101 
L 199.297785 220.43816 
L 201.342624 220.43816 
L 201.342624 219.91531 
L 201.664882 219.91531 
L 201.664882 219.39246 
L 203.286448 219.39246 
L 203.301135 218.34676 
L 203.521064 218.34676 
L 203.521064 217.82391 
L 203.754718 217.82391 
L 203.754718 217.30106 
L 204.97821 217.30106 
L 204.97821 216.77821 
L 205.170702 216.77821 
L 205.170702 216.25536 
L 205.746337 216.25536 
L 205.746337 215.73251 
L 206.562074 215.73251 
L 206.562074 215.20966 
L 206.697892 215.20966 
L 206.782928 213.64111 
L 208.132682 213.64111 
L 208.181195 212.072561 
L 208.641563 212.072561 
L 208.641563 211.549711 
L 209.907645 211.549711 
L 209.907645 211.026861 
L 210.440383 211.026861 
L 210.461978 209.981161 
L 210.580635 209.981161 
L 210.588024 207.889761 
L 211.218982 207.889761 
L 211.218982 207.366911 
L 211.576958 207.366911 
L 211.576958 206.844061 
L 211.717946 206.844061 
L 211.717946 206.321211 
L 212.262559 206.321211 
L 212.262559 205.798361 
L 212.554233 205.798361 
L 212.566088 204.752662 
L 212.865637 204.752662 
L 212.951467 203.706962 
L 213.411938 203.706962 
L 213.411938 203.184112 
L 213.551747 203.184112 
L 213.551747 202.661262 
L 214.374611 202.661262 
L 214.374611 202.138412 
L 214.612919 202.138412 
L 214.646778 201.092712 
L 215.132643 201.092712 
L 215.132643 200.569862 
L 215.341135 200.569862 
L 215.389793 199.001312 
L 215.478922 199.001312 
L 215.478922 198.478462 
L 216.397336 198.478462 
L 216.430484 197.432763 
L 217.074275 197.432763 
L 217.145516 195.864213 
L 217.866801 195.864213 
L 217.948794 194.295663 
L 218.363323 194.295663 
L 218.363323 193.772813 
L 218.651161 193.772813 
L 218.715242 192.204263 
L 219.374257 192.204263 
L 219.374257 191.681413 
L 219.738358 191.681413 
L 219.738358 191.158563 
L 219.873951 191.158563 
L 219.873951 190.635713 
L 220.476191 190.635713 
L 220.476191 190.112864 
L 220.662476 190.112864 
L 220.750984 188.544314 
L 221.104526 188.544314 
L 221.104526 188.021464 
L 221.318983 188.021464 
L 221.341901 186.975764 
L 222.340917 186.975764 
L 222.340917 186.452914 
L 222.478952 186.452914 
L 222.569259 185.407214 
L 223.030275 185.407214 
L 223.104913 183.838664 
L 224.107722 183.838664 
L 224.178833 182.792964 
L 224.567053 182.792964 
L 224.615745 181.747265 
L 225.602671 181.747265 
L 225.677375 180.701565 
L 226.078491 180.701565 
L 226.095564 179.655865 
L 226.594778 179.655865 
L 226.594778 179.133015 
L 226.957894 179.133015 
L 227.054141 178.087315 
L 227.363058 178.087315 
L 227.464807 176.518765 
L 227.498222 176.518765 
L 227.49905 174.950215 
L 227.858587 174.950215 
L 227.858587 174.427366 
L 228.15667 174.427366 
L 228.15667 173.904516 
L 228.293393 173.904516 
L 228.309189 172.858816 
L 228.707947 172.858816 
L 228.707947 172.335966 
L 229.505976 172.335966 
L 229.505976 171.813116 
L 229.755244 171.813116 
L 229.769027 170.767416 
L 229.884897 170.767416 
L 229.901455 169.721716 
L 230.536678 169.721716 
L 230.536678 169.198866 
L 230.942126 169.198866 
L 230.942126 168.676016 
L 231.974187 168.676016 
L 231.974187 168.153166 
L 232.30577 168.153166 
L 232.326817 167.107467 
L 232.552737 167.107467 
L 232.656626 166.061767 
L 233.44187 166.061767 
L 233.443431 165.016067 
L 233.565738 165.016067 
L 233.565738 164.493217 
L 233.886488 164.493217 
L 233.886488 163.970367 
L 234.143002 163.970367 
L 234.143002 163.447517 
L 234.392601 163.447517 
L 234.392601 162.924667 
L 234.714176 162.924667 
L 234.714176 162.401817 
L 235.342249 162.401817 
L 235.342773 161.356117 
L 237.149751 161.356117 
L 237.149751 160.833267 
L 237.331512 160.833267 
L 237.363845 159.787567 
L 238.936262 159.787567 
L 239.005137 158.741868 
L 239.403859 158.741868 
L 239.403859 158.219018 
L 239.783688 158.219018 
L 239.783688 157.696168 
L 239.983101 157.696168 
L 240.005752 156.650468 
L 240.214197 156.650468 
L 240.250334 155.604768 
L 240.810921 155.604768 
L 240.810921 155.081918 
L 241.422334 155.081918 
L 241.446471 154.036218 
L 241.721329 154.036218 
L 241.819849 152.990518 
L 242.164978 152.990518 
L 242.164978 152.467668 
L 242.517921 152.467668 
L 242.517921 151.944818 
L 242.889213 151.944818 
L 242.889213 151.421969 
L 244.059514 151.421969 
L 244.072233 150.376269 
L 245.043469 150.376269 
L 245.043469 149.853419 
L 245.169899 149.853419 
L 245.169899 149.330569 
L 246.252002 149.330569 
L 246.252002 148.807719 
L 248.259459 148.807719 
L 248.259459 148.284869 
L 249.375757 148.284869 
L 249.375757 147.762019 
L 249.863295 147.762019 
L 249.950063 146.716319 
L 250.76245 146.716319 
L 250.76245 146.193469 
L 254.965574 146.193469 
L 254.965574 145.670619 
L 255.7272 145.670619 
L 255.7272 145.147769 
L 257.008571 145.147769 
L 257.008571 144.624919 
L 257.620533 144.624919 
L 257.620533 144.10207 
L 257.911112 144.10207 
L 257.911112 143.57922 
L 259.855857 143.57922 
L 259.855857 143.05637 
L 260.986871 143.05637 
L 260.986871 142.53352 
L 333.569032 142.53352 
L 333.569032 142.53352 
" style="fill:none;stroke:#008000;stroke-linecap:square;stroke-width:1.5;"/>
   </g>
   <g id="line2d_30">
    <defs>
     <path d="M -0 6 
L 6 -6 
L -6 -6 
z
" id="m2150e21ae2" style="stroke:#008000;stroke-linejoin:miter;stroke-width:1.5;"/>
    </defs>
    <g>
     <use style="fill-opacity:0;stroke:#008000;stroke-linejoin:miter;stroke-width:1.5;" x="125.745009" xlink:href="#m2150e21ae2" y="249.194906"/>
     <use style="fill-opacity:0;stroke:#008000;stroke-linejoin:miter;stroke-width:1.5;" x="206.697892" xlink:href="#m2150e21ae2" y="215.20966"/>
     <use style="fill-opacity:0;stroke:#008000;stroke-linejoin:miter;stroke-width:1.5;" x="246.252002" xlink:href="#m2150e21ae2" y="148.807719"/>
     <use style="fill-opacity:0;stroke:#008000;stroke-linejoin:miter;stroke-width:1.5;" x="260.986871" xlink:href="#m2150e21ae2" y="142.53352"/>
     <use style="fill-opacity:0;stroke:#008000;stroke-linejoin:miter;stroke-width:1.5;" x="260.986871" xlink:href="#m2150e21ae2" y="142.53352"/>
     <use style="fill-opacity:0;stroke:#008000;stroke-linejoin:miter;stroke-width:1.5;" x="333.569032" xlink:href="#m2150e21ae2" y="142.53352"/>
    </g>
   </g>
   <g id="line2d_31">
    <path style="fill:none;stroke:#008000;stroke-linecap:square;stroke-width:1.5;"/>
    <g/>
   </g>
   <g id="line2d_32">
    <path clip-path="url(#p1b2f650844)" d="M 164.100586 241.352157 
" style="fill:none;stroke:#008000;stroke-linecap:square;stroke-width:1.5;"/>
    <defs>
     <path d="M -12 12 
L 12 -12 
M -12 -12 
L 12 12 
" id="m6a8fd714b4" style="stroke:#008000;stroke-width:3;"/>
    </defs>
    <g clip-path="url(#p1b2f650844)">
     <use style="fill:#008000;stroke:#008000;stroke-width:3;" x="164.100586" xlink:href="#m6a8fd714b4" y="241.352157"/>
    </g>
   </g>
   <g id="line2d_33">
    <defs>
     <path d="M 0 1.5 
C 0.397805 1.5 0.77937 1.341951 1.06066 1.06066 
C 1.341951 0.77937 1.5 0.397805 1.5 0 
C 1.5 -0.397805 1.341951 -0.77937 1.06066 -1.06066 
C 0.77937 -1.341951 0.397805 -1.5 0 -1.5 
C -0.397805 -1.5 -0.77937 -1.341951 -1.06066 -1.06066 
C -1.341951 -0.77937 -1.5 -0.397805 -1.5 0 
C -1.5 0.397805 -1.341951 0.77937 -1.06066 1.06066 
C -0.77937 1.341951 -0.397805 1.5 0 1.5 
z
" id="m28c3f1c833" style="stroke:#0000ff;"/>
    </defs>
    <g>
     <use style="fill:#0000ff;stroke:#0000ff;" x="252.199277" xlink:href="#m28c3f1c833" y="231.418008"/>
     <use style="fill:#0000ff;stroke:#0000ff;" x="252.199277" xlink:href="#m28c3f1c833" y="231.418008"/>
    </g>
   </g>
   <g id="line2d_34">
    <path d="M 41.10835 294.16 
L 41.10835 293.63715 
L 48.069716 293.63715 
L 48.069716 292.0686 
L 64.909418 292.0686 
L 64.909418 291.54575 
L 66.931616 291.54575 
L 66.931616 291.0229 
L 71.870784 291.0229 
L 71.870784 290.50005 
L 81.478739 290.50005 
L 81.478739 289.454351 
L 85.145559 289.454351 
L 85.145559 288.931501 
L 86.417907 288.931501 
L 86.417907 288.408651 
L 87.602435 288.408651 
L 87.602435 287.362951 
L 94.177968 287.362951 
L 94.177968 285.794401 
L 95.671853 285.794401 
L 95.671853 285.271551 
L 96.712707 285.271551 
L 96.712707 284.748701 
L 97.046093 284.748701 
L 97.046093 284.225851 
L 97.373129 284.225851 
L 97.373129 283.703001 
L 97.694051 283.703001 
L 97.694051 283.180151 
L 98.622322 283.180151 
L 98.622322 282.657301 
L 98.920918 282.657301 
L 98.920918 282.134452 
L 99.502969 282.134452 
L 99.502969 281.611602 
L 100.065932 281.611602 
L 100.065932 281.088752 
L 100.877209 281.088752 
L 100.877209 278.997352 
L 101.139334 278.997352 
L 101.139334 278.474502 
L 101.397517 278.474502 
L 101.397517 275.860252 
L 102.149557 275.860252 
L 102.149557 275.337402 
L 103.103627 275.337402 
L 103.103627 274.291703 
L 104.226174 274.291703 
L 104.226174 273.246003 
L 104.655417 273.246003 
L 104.655417 272.723153 
L 105.07419 272.723153 
L 105.07419 272.200303 
L 105.279807 272.200303 
L 105.279807 271.677453 
L 105.482991 271.677453 
L 105.482991 271.154603 
L 106.272502 271.154603 
L 106.272502 270.631753 
L 107.572387 270.631753 
L 107.572387 270.108903 
L 108.444089 270.108903 
L 108.444089 269.586053 
L 108.613241 269.586053 
L 108.613241 266.448954 
L 109.273663 266.448954 
L 109.273663 264.880404 
L 110.064994 264.880404 
L 110.064994 263.834704 
L 111.403503 263.834704 
L 111.403503 261.743304 
L 112.511555 261.743304 
L 112.511555 261.220454 
L 113.039868 261.220454 
L 113.039868 260.697604 
L 113.298051 260.697604 
L 113.298051 258.606205 
L 115.348698 258.606205 
L 115.348698 257.037655 
L 115.907994 257.037655 
L 115.907994 255.991955 
L 117.077841 255.991955 
L 117.077841 255.469105 
L 117.383526 255.469105 
L 117.383526 254.423405 
L 118.173037 254.423405 
L 118.173037 253.900555 
L 119.82693 253.900555 
L 119.82693 253.377705 
L 120.847162 253.377705 
L 120.847162 252.854855 
L 122.498528 252.854855 
L 122.498528 252.332005 
L 123.658047 252.332005 
L 123.658047 251.809156 
L 127.249233 251.809156 
L 127.249233 251.286306 
L 127.362559 251.286306 
L 127.362559 250.240606 
L 130.549192 250.240606 
L 130.549192 249.717756 
L 131.011992 249.717756 
L 131.011992 249.194906 
L 132.031346 249.194906 
L 132.031346 248.672056 
L 136.545763 248.672056 
L 136.545763 248.149206 
L 137.572991 248.149206 
L 137.572991 247.626356 
L 140.462674 247.626356 
L 140.462674 247.103506 
L 147.122981 247.103506 
L 147.122981 246.580656 
L 150.220446 246.580656 
L 150.220446 246.057806 
L 150.398516 246.057806 
L 150.398516 245.534956 
L 152.546554 245.534956 
L 152.546554 245.012106 
L 157.589619 245.012106 
L 157.589619 244.489256 
L 166.091741 244.489256 
L 166.091741 243.966407 
L 169.769484 243.966407 
L 169.769484 243.443557 
L 173.247307 243.443557 
L 173.247307 242.920707 
L 176.279097 242.920707 
L 176.279097 242.397857 
L 178.136664 242.397857 
L 178.136664 241.875007 
L 179.408802 241.875007 
L 179.408802 241.352157 
L 188.261178 241.352157 
L 188.261178 240.829307 
L 190.104556 240.829307 
L 190.104556 240.306457 
L 191.245184 240.306457 
L 191.245184 239.783607 
L 194.41982 239.783607 
L 194.41982 239.260757 
L 198.449603 239.260757 
L 198.449603 238.737907 
L 200.167406 238.737907 
L 200.167406 238.215057 
L 202.512665 238.215057 
L 202.512665 237.692207 
L 204.422169 237.692207 
L 204.422169 237.169357 
L 205.825096 237.169357 
L 205.825096 236.646507 
L 206.084597 236.646507 
L 206.084597 236.123658 
L 207.717924 236.123658 
L 207.717924 235.600808 
L 208.43161 235.600808 
L 208.43161 235.077958 
L 210.306488 235.077958 
L 210.306488 234.555108 
L 221.400086 234.555108 
L 221.400086 234.032258 
L 228.732767 234.032258 
L 228.732767 233.509408 
L 235.222963 233.509408 
L 235.222963 232.986558 
L 236.523554 232.986558 
L 236.523554 232.463708 
L 246.36266 232.463708 
L 246.36266 231.940858 
L 252.199277 231.940858 
L 252.199277 231.418008 
L 333.569032 231.418008 
L 333.569032 231.418008 
" style="fill:none;stroke:#0000ff;stroke-linecap:square;stroke-width:1.5;"/>
   </g>
   <g id="line2d_35">
    <defs>
     <path d="M 0 -6 
L -1.347084 -1.854102 
L -5.706339 -1.854102 
L -2.179628 0.708204 
L -3.526712 4.854102 
L -0 2.291796 
L 3.526712 4.854102 
L 2.179628 0.708204 
L 5.706339 -1.854102 
L 1.347084 -1.854102 
z
" id="mb3b4f142b0" style="stroke:#0000ff;stroke-linejoin:bevel;stroke-width:1.5;"/>
    </defs>
    <g>
     <use style="fill-opacity:0;stroke:#0000ff;stroke-linejoin:bevel;stroke-width:1.5;" x="97.373129" xlink:href="#mb3b4f142b0" y="283.703001"/>
     <use style="fill-opacity:0;stroke:#0000ff;stroke-linejoin:bevel;stroke-width:1.5;" x="137.572991" xlink:href="#mb3b4f142b0" y="247.626356"/>
     <use style="fill-opacity:0;stroke:#0000ff;stroke-linejoin:bevel;stroke-width:1.5;" x="204.422169" xlink:href="#mb3b4f142b0" y="237.692207"/>
     <use style="fill-opacity:0;stroke:#0000ff;stroke-linejoin:bevel;stroke-width:1.5;" x="252.199277" xlink:href="#mb3b4f142b0" y="231.940858"/>
     <use style="fill-opacity:0;stroke:#0000ff;stroke-linejoin:bevel;stroke-width:1.5;" x="252.199277" xlink:href="#mb3b4f142b0" y="231.418008"/>
     <use style="fill-opacity:0;stroke:#0000ff;stroke-linejoin:bevel;stroke-width:1.5;" x="333.569032" xlink:href="#mb3b4f142b0" y="231.418008"/>
    </g>
   </g>
   <g id="line2d_36">
    <path style="fill:none;stroke:#0000ff;stroke-linecap:square;stroke-width:1.5;"/>
    <g/>
   </g>
   <g id="line2d_37">
    <path clip-path="url(#p1b2f650844)" d="M 163.877611 244.489256 
" style="fill:none;stroke:#0000ff;stroke-linecap:square;stroke-width:1.5;"/>
    <defs>
     <path d="M -12 12 
L 12 -12 
M -12 -12 
L 12 12 
" id="m079a7186f6" style="stroke:#0000ff;stroke-width:3;"/>
    </defs>
    <g clip-path="url(#p1b2f650844)">
     <use style="fill:#0000ff;stroke:#0000ff;stroke-width:3;" x="163.877611" xlink:href="#m079a7186f6" y="244.489256"/>
    </g>
   </g>
   <g id="line2d_38">
    <defs>
     <path d="M 0 1.5 
C 0.397805 1.5 0.77937 1.341951 1.06066 1.06066 
C 1.341951 0.77937 1.5 0.397805 1.5 0 
C 1.5 -0.397805 1.341951 -0.77937 1.06066 -1.06066 
C 0.77937 -1.341951 0.397805 -1.5 0 -1.5 
C -0.397805 -1.5 -0.77937 -1.341951 -1.06066 -1.06066 
C -1.341951 -0.77937 -1.5 -0.397805 -1.5 0 
C -1.5 0.397805 -1.341951 0.77937 -1.06066 1.06066 
C -0.77937 1.341951 -0.397805 1.5 0 1.5 
z
" id="m9de654398a" style="stroke:#000000;"/>
    </defs>
    <g>
     <use style="stroke:#000000;" x="222.174889" xlink:href="#m9de654398a" y="241.875007"/>
     <use style="stroke:#000000;" x="222.174889" xlink:href="#m9de654398a" y="241.875007"/>
    </g>
   </g>
   <g id="line2d_39">
    <path d="M 93.582457 294.16 
L 93.582457 293.63715 
L 96.372719 293.63715 
L 96.372719 292.59145 
L 97.046093 292.59145 
L 97.046093 289.977201 
L 97.694051 289.977201 
L 97.694051 289.454351 
L 100.340639 289.454351 
L 100.340639 287.362951 
L 101.777655 287.362951 
L 101.777655 286.840101 
L 102.026483 286.840101 
L 102.026483 286.317251 
L 104.334495 286.317251 
L 104.334495 285.794401 
L 104.655417 285.794401 
L 104.655417 284.748701 
L 106.175776 284.748701 
L 106.175776 284.225851 
L 106.464335 284.225851 
L 106.464335 283.180151 
L 106.841687 283.180151 
L 106.841687 282.657301 
L 109.673887 282.657301 
L 109.673887 281.611602 
L 109.909618 281.611602 
L 109.909618 281.088752 
L 110.747289 281.088752 
L 110.747289 280.565902 
L 111.18754 280.565902 
L 111.18754 280.043052 
L 111.897097 280.043052 
L 111.897097 279.520202 
L 112.645165 279.520202 
L 112.645165 278.997352 
L 112.777744 278.997352 
L 112.843651 277.428802 
L 113.298051 277.428802 
L 113.361995 274.814553 
L 114.770568 274.814553 
L 114.770568 274.291703 
L 115.348698 274.291703 
L 115.348698 271.677453 
L 115.686457 271.677453 
L 115.686457 271.154603 
L 115.907994 271.154603 
L 115.907994 270.631753 
L 116.180954 270.631753 
L 116.288934 269.586053 
L 116.60886 269.586053 
L 116.60886 269.063203 
L 118.027742 269.063203 
L 118.027742 268.540353 
L 118.317112 268.540353 
L 118.412494 267.494653 
L 118.459988 267.494653 
L 118.459988 266.971804 
L 118.648658 266.971804 
L 118.648658 266.448954 
L 119.428152 266.448954 
L 119.428152 265.926104 
L 120.259418 265.926104 
L 120.259418 265.403254 
L 121.692691 265.403254 
L 121.692691 264.880404 
L 122.647823 264.880404 
L 122.647823 264.357554 
L 124.744185 264.357554 
L 124.744185 263.834704 
L 127.390774 263.834704 
L 127.390774 263.311854 
L 127.531158 263.311854 
L 127.531158 262.789004 
L 134.13463 262.789004 
L 134.13463 262.266154 
L 135.078923 262.266154 
L 135.078923 261.743304 
L 137.572991 261.743304 
L 137.572991 261.220454 
L 141.083303 261.220454 
L 141.083303 260.697604 
L 142.923938 260.697604 
L 142.923938 260.174754 
L 145.679371 260.174754 
L 145.679371 259.651904 
L 146.569245 259.651904 
L 146.569245 259.129055 
L 147.476625 259.129055 
L 147.476625 258.606205 
L 149.489098 258.606205 
L 149.527968 257.560505 
L 150.428016 257.560505 
L 150.428016 257.037655 
L 151.457597 257.037655 
L 151.457597 256.514805 
L 152.37637 256.514805 
L 152.37637 255.991955 
L 153.009216 255.991955 
L 153.009216 255.469105 
L 153.588941 255.469105 
L 153.588941 254.946255 
L 154.20304 254.946255 
L 154.20304 254.423405 
L 154.813061 254.423405 
L 154.813061 253.900555 
L 157.511755 253.900555 
L 157.511755 253.377705 
L 159.924025 253.377705 
L 159.924025 252.854855 
L 162.904582 252.854855 
L 162.904582 252.332005 
L 164.168021 252.332005 
L 164.168021 251.809156 
L 164.502362 251.809156 
L 164.502362 251.286306 
L 164.70566 251.286306 
L 164.70566 250.763456 
L 164.922425 250.763456 
L 164.922425 250.240606 
L 171.163556 250.240606 
L 171.163556 249.717756 
L 173.223885 249.717756 
L 173.223885 249.194906 
L 173.830268 249.194906 
L 173.830268 248.672056 
L 176.422362 248.672056 
L 176.422362 248.149206 
L 177.257716 248.149206 
L 177.257716 247.626356 
L 179.085618 247.626356 
L 179.085618 247.103506 
L 181.01765 247.103506 
L 181.01765 246.580656 
L 185.583104 246.580656 
L 185.583104 246.057806 
L 186.663737 246.057806 
L 186.663737 245.534956 
L 203.184989 245.534956 
L 203.184989 245.012106 
L 204.888356 245.012106 
L 204.888356 244.489256 
L 205.664657 244.489256 
L 205.664657 243.966407 
L 206.918481 243.966407 
L 206.918481 243.443557 
L 208.225842 243.443557 
L 208.225842 242.920707 
L 219.716016 242.920707 
L 219.716016 242.397857 
L 222.174889 242.397857 
L 222.174889 241.875007 
L 333.569032 241.875007 
L 333.569032 241.875007 
" style="fill:none;stroke:#000000;stroke-linecap:square;stroke-width:1.5;"/>
   </g>
   <g id="line2d_40">
    <defs>
     <path d="M 0 6 
C 1.591219 6 3.117479 5.367802 4.242641 4.242641 
C 5.367802 3.117479 6 1.591219 6 0 
C 6 -1.591219 5.367802 -3.117479 4.242641 -4.242641 
C 3.117479 -5.367802 1.591219 -6 0 -6 
C -1.591219 -6 -3.117479 -5.367802 -4.242641 -4.242641 
C -5.367802 -3.117479 -6 -1.591219 -6 0 
C -6 1.591219 -5.367802 3.117479 -4.242641 4.242641 
C -3.117479 5.367802 -1.591219 6 0 6 
z
" id="m025ff35f47" style="stroke:#000000;stroke-width:1.5;"/>
    </defs>
    <g>
     <use style="fill-opacity:0;stroke:#000000;stroke-width:1.5;" x="150.428016" xlink:href="#m025ff35f47" y="257.037655"/>
     <use style="fill-opacity:0;stroke:#000000;stroke-width:1.5;" x="222.174889" xlink:href="#m025ff35f47" y="242.397857"/>
     <use style="fill-opacity:0;stroke:#000000;stroke-width:1.5;" x="222.174889" xlink:href="#m025ff35f47" y="241.875007"/>
     <use style="fill-opacity:0;stroke:#000000;stroke-width:1.5;" x="222.174889" xlink:href="#m025ff35f47" y="241.875007"/>
     <use style="fill-opacity:0;stroke:#000000;stroke-width:1.5;" x="333.569032" xlink:href="#m025ff35f47" y="241.875007"/>
    </g>
   </g>
   <g id="line2d_41">
    <path style="fill:none;stroke:#000000;stroke-linecap:square;stroke-width:1.5;"/>
    <g/>
   </g>
   <g id="line2d_42">
    <path clip-path="url(#p1b2f650844)" d="M 163.708458 252.332005 
" style="fill:none;stroke:#000000;stroke-linecap:square;stroke-width:1.5;"/>
    <defs>
     <path d="M -12 12 
L 12 -12 
M -12 -12 
L 12 12 
" id="m7140c39495" style="stroke:#000000;stroke-width:3;"/>
    </defs>
    <g clip-path="url(#p1b2f650844)">
     <use style="stroke:#000000;stroke-width:3;" x="163.708458" xlink:href="#m7140c39495" y="252.332005"/>
    </g>
   </g>
   <g id="line2d_43">
    <defs>
     <path d="M 0 1.5 
C 0.397805 1.5 0.77937 1.341951 1.06066 1.06066 
C 1.341951 0.77937 1.5 0.397805 1.5 0 
C 1.5 -0.397805 1.341951 -0.77937 1.06066 -1.06066 
C 0.77937 -1.341951 0.397805 -1.5 0 -1.5 
C -0.397805 -1.5 -0.77937 -1.341951 -1.06066 -1.06066 
C -1.341951 -0.77937 -1.5 -0.397805 -1.5 0 
C -1.5 0.397805 -1.341951 0.77937 -1.06066 1.06066 
C -0.77937 1.341951 -0.397805 1.5 0 1.5 
z
" id="m1643169cdf" style="stroke:#ff0000;"/>
    </defs>
    <g>
     <use style="fill:#ff0000;stroke:#ff0000;" x="208.763092" xlink:href="#m1643169cdf" y="247.103506"/>
     <use style="fill:#ff0000;stroke:#ff0000;" x="208.763092" xlink:href="#m1643169cdf" y="247.103506"/>
    </g>
   </g>
   <g id="line2d_44">
    <path d="M 111.078531 294.16 
L 111.078531 293.63715 
L 112.645165 293.63715 
L 112.645165 293.1143 
L 115.74211 293.1143 
L 115.74211 292.59145 
L 116.342671 292.59145 
L 116.342671 292.0686 
L 116.922933 292.0686 
L 116.922933 291.54575 
L 117.256818 291.54575 
L 117.256818 291.0229 
L 117.433948 291.0229 
L 117.433948 290.50005 
L 120.555804 290.50005 
L 120.555804 289.977201 
L 122.234096 289.977201 
L 122.234096 289.454351 
L 124.260524 289.454351 
L 124.260524 288.931501 
L 132.633823 288.931501 
L 132.633823 288.408651 
L 135.611058 288.408651 
L 135.611058 287.885801 
L 141.712908 287.885801 
L 141.712908 287.362951 
L 141.853112 287.362951 
L 141.853112 286.840101 
L 148.023491 286.840101 
L 148.023491 286.317251 
L 149.644052 286.317251 
L 149.644052 285.794401 
L 150.814177 285.794401 
L 150.814177 285.271551 
L 150.961242 285.271551 
L 150.961242 284.748701 
L 151.13183 284.748701 
L 151.13183 284.225851 
L 153.289055 284.225851 
L 153.289055 283.703001 
L 154.320917 283.703001 
L 154.320917 283.180151 
L 154.77306 283.180151 
L 154.833026 282.134452 
L 155.388356 282.134452 
L 155.388356 281.611602 
L 155.615906 281.611602 
L 155.615906 281.088752 
L 155.896838 281.088752 
L 155.896838 280.565902 
L 156.52295 280.565902 
L 156.620837 278.997352 
L 157.054551 278.997352 
L 157.054551 278.474502 
L 157.243852 278.474502 
L 157.243852 277.951652 
L 157.450678 277.951652 
L 157.558029 276.905952 
L 157.899973 276.905952 
L 157.899973 276.383102 
L 158.499737 276.383102 
L 158.499737 275.860252 
L 158.726172 275.860252 
L 158.753417 274.814553 
L 158.868728 274.814553 
L 158.868728 274.291703 
L 159.052522 274.291703 
L 159.052522 273.768853 
L 159.368406 273.768853 
L 159.46009 271.677453 
L 159.494889 271.677453 
L 159.494889 271.154603 
L 160.55235 271.154603 
L 160.55235 270.631753 
L 161.85415 270.631753 
L 161.880642 269.586053 
L 162.29536 269.586053 
L 162.29536 269.063203 
L 163.113507 269.063203 
L 163.113507 268.540353 
L 163.430844 268.540353 
L 163.430844 268.017503 
L 164.215949 268.017503 
L 164.215949 267.494653 
L 164.468243 267.494653 
L 164.468243 266.971804 
L 164.64782 266.971804 
L 164.64782 266.448954 
L 164.804819 266.448954 
L 164.804819 265.926104 
L 167.792012 265.926104 
L 167.792012 265.403254 
L 169.686881 265.403254 
L 169.686881 264.880404 
L 171.519902 264.880404 
L 171.519902 264.357554 
L 172.6034 264.357554 
L 172.6034 263.834704 
L 172.82173 263.834704 
L 172.82173 263.311854 
L 173.758471 263.311854 
L 173.758471 262.789004 
L 174.014987 262.789004 
L 174.014987 262.266154 
L 174.247496 262.266154 
L 174.247496 261.743304 
L 175.292464 261.743304 
L 175.292464 261.220454 
L 176.061934 261.220454 
L 176.061934 260.697604 
L 177.628924 260.697604 
L 177.628924 260.174754 
L 178.749863 260.174754 
L 178.749863 259.651904 
L 179.683834 259.651904 
L 179.683834 259.129055 
L 179.906952 259.129055 
L 179.906952 258.606205 
L 180.053884 258.606205 
L 180.077486 257.560505 
L 180.373032 257.560505 
L 180.373032 257.037655 
L 180.733086 257.037655 
L 180.733086 256.514805 
L 180.893772 256.514805 
L 180.937449 255.469105 
L 181.092538 255.469105 
L 181.092538 254.946255 
L 181.371254 254.946255 
L 181.371254 254.423405 
L 181.623378 254.423405 
L 181.623378 253.900555 
L 182.123763 253.900555 
L 182.123763 253.377705 
L 182.374323 253.377705 
L 182.374323 252.854855 
L 186.004357 252.854855 
L 186.004357 252.332005 
L 187.124901 252.332005 
L 187.124901 251.809156 
L 188.998452 251.809156 
L 189.073882 250.763456 
L 195.662407 250.763456 
L 195.662407 250.240606 
L 196.641284 250.240606 
L 196.641284 249.717756 
L 196.788456 249.717756 
L 196.788456 249.194906 
L 202.899349 249.194906 
L 202.899349 248.672056 
L 207.004846 248.672056 
L 207.004846 248.149206 
L 207.609926 248.149206 
L 207.609926 247.626356 
L 208.763092 247.626356 
L 208.763092 247.103506 
L 333.569032 247.103506 
L 333.569032 247.103506 
" style="fill:none;stroke:#ff0000;stroke-linecap:square;stroke-width:1.5;"/>
   </g>
   <g id="line2d_45">
    <defs>
     <path d="M -6 6 
L 6 6 
L 6 -6 
L -6 -6 
z
" id="m3ed8e1c7d1" style="stroke:#ff0000;stroke-linejoin:miter;stroke-width:1.5;"/>
    </defs>
    <g>
     <use style="fill-opacity:0;stroke:#ff0000;stroke-linejoin:miter;stroke-width:1.5;" x="151.13183" xlink:href="#m3ed8e1c7d1" y="284.225851"/>
     <use style="fill-opacity:0;stroke:#ff0000;stroke-linejoin:miter;stroke-width:1.5;" x="208.763092" xlink:href="#m3ed8e1c7d1" y="247.626356"/>
     <use style="fill-opacity:0;stroke:#ff0000;stroke-linejoin:miter;stroke-width:1.5;" x="208.763092" xlink:href="#m3ed8e1c7d1" y="247.103506"/>
     <use style="fill-opacity:0;stroke:#ff0000;stroke-linejoin:miter;stroke-width:1.5;" x="208.763092" xlink:href="#m3ed8e1c7d1" y="247.103506"/>
     <use style="fill-opacity:0;stroke:#ff0000;stroke-linejoin:miter;stroke-width:1.5;" x="333.569032" xlink:href="#m3ed8e1c7d1" y="247.103506"/>
    </g>
   </g>
   <g id="line2d_46">
    <path style="fill:none;stroke:#ff0000;stroke-linecap:square;stroke-width:1.5;"/>
    <g/>
   </g>
   <g id="line2d_47">
    <path clip-path="url(#p1b2f650844)" d="M 163.623253 268.017503 
" style="fill:none;stroke:#ff0000;stroke-linecap:square;stroke-width:1.5;"/>
    <defs>
     <path d="M -12 12 
L 12 -12 
M -12 -12 
L 12 12 
" id="md12b0b4060" style="stroke:#ff0000;stroke-width:3;"/>
    </defs>
    <g clip-path="url(#p1b2f650844)">
     <use style="fill:#ff0000;stroke:#ff0000;stroke-width:3;" x="163.623253" xlink:href="#md12b0b4060" y="268.017503"/>
    </g>
   </g>
   <g id="line2d_48">
    <path clip-path="url(#p1b2f650844)" d="M 56.84 294.16 
L 56.84 294.16 
L 56.84 294.16 
L 56.84 294.16 
L 399.984 294.16 
" style="fill:none;stroke:#bf00bf;stroke-linecap:square;stroke-width:1.5;"/>
   </g>
   <g id="line2d_49">
    <defs>
     <path d="M -0 8.485281 
L 8.485281 0 
L 0 -8.485281 
L -8.485281 -0 
z
" id="m7cd0b96cec" style="stroke:#bf00bf;stroke-linejoin:miter;stroke-width:1.5;"/>
    </defs>
    <g clip-path="url(#p1b2f650844)">
     <use style="fill-opacity:0;stroke:#bf00bf;stroke-linejoin:miter;stroke-width:1.5;" x="56.84" xlink:href="#m7cd0b96cec" y="294.16"/>
    </g>
   </g>
   <g id="line2d_50">
    <path clip-path="url(#p1b2f650844)" style="fill:none;stroke:#bf00bf;stroke-linecap:square;stroke-width:1.5;"/>
    <g clip-path="url(#p1b2f650844)">
     <use style="fill-opacity:0;stroke:#bf00bf;stroke-linejoin:miter;stroke-width:1.5;" x="-1" xlink:href="#m7cd0b96cec" y="560.813465"/>
     <use style="fill-opacity:0;stroke:#bf00bf;stroke-linejoin:miter;stroke-width:1.5;" x="399.984" xlink:href="#m7cd0b96cec" y="560.813465"/>
    </g>
   </g>
   <g id="line2d_51">
    <path d="M 333.569032 294.16 
L 364.009226 288.826931 
" style="fill:none;stroke:#bf00bf;stroke-linecap:square;stroke-width:1.5;"/>
    <g>
     <use style="fill-opacity:0;stroke:#bf00bf;stroke-linejoin:miter;stroke-width:1.5;" x="333.569032" xlink:href="#m7cd0b96cec" y="294.16"/>
     <use style="fill-opacity:0;stroke:#bf00bf;stroke-linejoin:miter;stroke-width:1.5;" x="364.009226" xlink:href="#m7cd0b96cec" y="288.826931"/>
    </g>
   </g>
   <g id="line2d_52">
    <path d="M 333.569032 247.103506 
L 364.009226 237.629465 
" style="fill:none;stroke:#ff0000;stroke-linecap:square;stroke-width:1.5;"/>
    <g>
     <use style="fill-opacity:0;stroke:#ff0000;stroke-linejoin:miter;stroke-width:1.5;" x="333.569032" xlink:href="#m3ed8e1c7d1" y="247.103506"/>
     <use style="fill-opacity:0;stroke:#ff0000;stroke-linejoin:miter;stroke-width:1.5;" x="364.009226" xlink:href="#m3ed8e1c7d1" y="237.629465"/>
    </g>
   </g>
   <g id="line2d_53">
    <path d="M 333.569032 241.875007 
L 364.009226 186.432 
" style="fill:none;stroke:#000000;stroke-linecap:square;stroke-width:1.5;"/>
    <g>
     <use style="fill-opacity:0;stroke:#000000;stroke-width:1.5;" x="333.569032" xlink:href="#m025ff35f47" y="241.875007"/>
     <use style="fill-opacity:0;stroke:#000000;stroke-width:1.5;" x="364.009226" xlink:href="#m025ff35f47" y="186.432"/>
    </g>
   </g>
   <g id="line2d_54">
    <path d="M 333.569032 231.418008 
L 364.009226 135.234535 
" style="fill:none;stroke:#0000ff;stroke-linecap:square;stroke-width:1.5;"/>
    <g>
     <use style="fill-opacity:0;stroke:#0000ff;stroke-linejoin:bevel;stroke-width:1.5;" x="333.569032" xlink:href="#mb3b4f142b0" y="231.418008"/>
     <use style="fill-opacity:0;stroke:#0000ff;stroke-linejoin:bevel;stroke-width:1.5;" x="364.009226" xlink:href="#mb3b4f142b0" y="135.234535"/>
    </g>
   </g>
   <g id="line2d_55">
    <path d="M 333.569032 142.53352 
L 364.009226 84.037069 
" style="fill:none;stroke:#008000;stroke-linecap:square;stroke-width:1.5;"/>
    <g>
     <use style="fill-opacity:0;stroke:#008000;stroke-linejoin:miter;stroke-width:1.5;" x="333.569032" xlink:href="#m2150e21ae2" y="142.53352"/>
     <use style="fill-opacity:0;stroke:#008000;stroke-linejoin:miter;stroke-width:1.5;" x="364.009226" xlink:href="#m2150e21ae2" y="84.037069"/>
    </g>
   </g>
   <g id="line2d_56">
    <path d="M 333.569032 132.076521 
L 364.009226 32.839604 
" style="fill:none;stroke:#00bfbf;stroke-linecap:square;stroke-width:1.5;"/>
    <g>
     <use style="fill-opacity:0;stroke:#00bfbf;stroke-width:1.5;" x="333.569032" xlink:href="#ma4e313a2d2" y="132.076521"/>
     <use style="fill-opacity:0;stroke:#00bfbf;stroke-width:1.5;" x="364.009226" xlink:href="#ma4e313a2d2" y="32.839604"/>
    </g>
   </g>
   <g id="line2d_57">
    <path d="M 333.569032 294.16 
L 333.569032 27.506535 
" style="fill:none;stroke:#000000;stroke-linecap:square;stroke-width:1.5;"/>
   </g>
   <g id="patch_3">
    <path d="M 56.84 294.16 
L 56.84 24.84 
" style="fill:none;stroke:#000000;stroke-linecap:square;stroke-linejoin:miter;stroke-width:0.8;"/>
   </g>
   <g id="patch_4">
    <path d="M 399.984 294.16 
L 399.984 24.84 
" style="fill:none;stroke:#000000;stroke-linecap:square;stroke-linejoin:miter;stroke-width:0.8;"/>
   </g>
   <g id="patch_5">
    <path d="M 56.84 294.16 
L 399.984 294.16 
" style="fill:none;stroke:#000000;stroke-linecap:square;stroke-linejoin:miter;stroke-width:0.8;"/>
   </g>
   <g id="patch_6">
    <path d="M 56.84 24.84 
L 399.984 24.84 
" style="fill:none;stroke:#000000;stroke-linecap:square;stroke-linejoin:miter;stroke-width:0.8;"/>
   </g>
   <g id="text_14">
    <!-- 40-D -->
    <defs>
     <path d="M 19.671875 64.796875 
L 19.671875 8.109375 
L 31.59375 8.109375 
Q 46.6875 8.109375 53.6875 14.9375 
Q 60.6875 21.78125 60.6875 36.53125 
Q 60.6875 51.171875 53.6875 57.984375 
Q 46.6875 64.796875 31.59375 64.796875 
z
M 9.8125 72.90625 
L 30.078125 72.90625 
Q 51.265625 72.90625 61.171875 64.09375 
Q 71.09375 55.28125 71.09375 36.53125 
Q 71.09375 17.671875 61.125 8.828125 
Q 51.171875 0 30.078125 0 
L 9.8125 0 
z
" id="DejaVuSans-44"/>
    </defs>
    <g transform="translate(369.543806 293.517868)scale(0.17 -0.17)">
     <use xlink:href="#DejaVuSans-34"/>
     <use x="63.623047" xlink:href="#DejaVuSans-30"/>
     <use x="127.246094" xlink:href="#DejaVuSans-2d"/>
     <use x="163.330078" xlink:href="#DejaVuSans-44"/>
    </g>
   </g>
   <g id="text_15">
    <!-- 20-D -->
    <g transform="translate(369.543806 242.320403)scale(0.17 -0.17)">
     <use xlink:href="#DejaVuSans-32"/>
     <use x="63.623047" xlink:href="#DejaVuSans-30"/>
     <use x="127.246094" xlink:href="#DejaVuSans-2d"/>
     <use x="163.330078" xlink:href="#DejaVuSans-44"/>
    </g>
   </g>
   <g id="text_16">
    <!-- 10-D -->
    <g transform="translate(369.543806 191.122937)scale(0.17 -0.17)">
     <use xlink:href="#DejaVuSans-31"/>
     <use x="63.623047" xlink:href="#DejaVuSans-30"/>
     <use x="127.246094" xlink:href="#DejaVuSans-2d"/>
     <use x="163.330078" xlink:href="#DejaVuSans-44"/>
    </g>
   </g>
   <g id="text_17">
    <!-- 5-D -->
    <defs>
     <path d="M 10.796875 72.90625 
L 49.515625 72.90625 
L 49.515625 64.59375 
L 19.828125 64.59375 
L 19.828125 46.734375 
Q 21.96875 47.46875 24.109375 47.828125 
Q 26.265625 48.1875 28.421875 48.1875 
Q 40.625 48.1875 47.75 41.5 
Q 54.890625 34.8125 54.890625 23.390625 
Q 54.890625 11.625 47.5625 5.09375 
Q 40.234375 -1.421875 26.90625 -1.421875 
Q 22.3125 -1.421875 17.546875 -0.640625 
Q 12.796875 0.140625 7.71875 1.703125 
L 7.71875 11.625 
Q 12.109375 9.234375 16.796875 8.0625 
Q 21.484375 6.890625 26.703125 6.890625 
Q 35.15625 6.890625 40.078125 11.328125 
Q 45.015625 15.765625 45.015625 23.390625 
Q 45.015625 31 40.078125 35.4375 
Q 35.15625 39.890625 26.703125 39.890625 
Q 22.75 39.890625 18.8125 39.015625 
Q 14.890625 38.140625 10.796875 36.28125 
z
" id="DejaVuSans-35"/>
    </defs>
    <g transform="translate(369.543806 139.925472)scale(0.17 -0.17)">
     <use xlink:href="#DejaVuSans-35"/>
     <use x="63.623047" xlink:href="#DejaVuSans-2d"/>
     <use x="99.707031" xlink:href="#DejaVuSans-44"/>
    </g>
   </g>
   <g id="text_18">
    <!-- 3-D -->
    <defs>
     <path d="M 40.578125 39.3125 
Q 47.65625 37.796875 51.625 33 
Q 55.609375 28.21875 55.609375 21.1875 
Q 55.609375 10.40625 48.1875 4.484375 
Q 40.765625 -1.421875 27.09375 -1.421875 
Q 22.515625 -1.421875 17.65625 -0.515625 
Q 12.796875 0.390625 7.625 2.203125 
L 7.625 11.71875 
Q 11.71875 9.328125 16.59375 8.109375 
Q 21.484375 6.890625 26.8125 6.890625 
Q 36.078125 6.890625 40.9375 10.546875 
Q 45.796875 14.203125 45.796875 21.1875 
Q 45.796875 27.640625 41.28125 31.265625 
Q 36.765625 34.90625 28.71875 34.90625 
L 20.21875 34.90625 
L 20.21875 43.015625 
L 29.109375 43.015625 
Q 36.375 43.015625 40.234375 45.921875 
Q 44.09375 48.828125 44.09375 54.296875 
Q 44.09375 59.90625 40.109375 62.90625 
Q 36.140625 65.921875 28.71875 65.921875 
Q 24.65625 65.921875 20.015625 65.03125 
Q 15.375 64.15625 9.8125 62.3125 
L 9.8125 71.09375 
Q 15.4375 72.65625 20.34375 73.4375 
Q 25.25 74.21875 29.59375 74.21875 
Q 40.828125 74.21875 47.359375 69.109375 
Q 53.90625 64.015625 53.90625 55.328125 
Q 53.90625 49.265625 50.4375 45.09375 
Q 46.96875 40.921875 40.578125 39.3125 
z
" id="DejaVuSans-33"/>
    </defs>
    <g transform="translate(369.543806 88.728007)scale(0.17 -0.17)">
     <use xlink:href="#DejaVuSans-33"/>
     <use x="63.623047" xlink:href="#DejaVuSans-2d"/>
     <use x="99.707031" xlink:href="#DejaVuSans-44"/>
    </g>
   </g>
   <g id="text_19">
    <!-- 2-D -->
    <g transform="translate(369.543806 37.530541)scale(0.17 -0.17)">
     <use xlink:href="#DejaVuSans-32"/>
     <use x="63.623047" xlink:href="#DejaVuSans-2d"/>
     <use x="99.707031" xlink:href="#DejaVuSans-44"/>
    </g>
   </g>
   <g id="text_20">
    <!-- bbob f20 -->
    <defs>
     <path d="M 48.6875 27.296875 
Q 48.6875 37.203125 44.609375 42.84375 
Q 40.53125 48.484375 33.40625 48.484375 
Q 26.265625 48.484375 22.1875 42.84375 
Q 18.109375 37.203125 18.109375 27.296875 
Q 18.109375 17.390625 22.1875 11.75 
Q 26.265625 6.109375 33.40625 6.109375 
Q 40.53125 6.109375 44.609375 11.75 
Q 48.6875 17.390625 48.6875 27.296875 
z
M 18.109375 46.390625 
Q 20.953125 51.265625 25.265625 53.625 
Q 29.59375 56 35.59375 56 
Q 45.5625 56 51.78125 48.09375 
Q 58.015625 40.1875 58.015625 27.296875 
Q 58.015625 14.40625 51.78125 6.484375 
Q 45.5625 -1.421875 35.59375 -1.421875 
Q 29.59375 -1.421875 25.265625 0.953125 
Q 20.953125 3.328125 18.109375 8.203125 
L 18.109375 0 
L 9.078125 0 
L 9.078125 75.984375 
L 18.109375 75.984375 
z
" id="DejaVuSans-62"/>
    </defs>
    <g transform="translate(60.27144 35.283606)scale(0.102 -0.102)">
     <use xlink:href="#DejaVuSans-62"/>
     <use x="63.476562" xlink:href="#DejaVuSans-62"/>
     <use x="126.953125" xlink:href="#DejaVuSans-6f"/>
     <use x="188.134766" xlink:href="#DejaVuSans-62"/>
     <use x="251.611328" xlink:href="#DejaVuSans-20"/>
     <use x="283.398438" xlink:href="#DejaVuSans-66"/>
     <use x="318.603516" xlink:href="#DejaVuSans-32"/>
     <use x="382.226562" xlink:href="#DejaVuSans-30"/>
    </g>
    <!-- 51 targets: 100..1e-08 -->
    <defs>
     <path d="M 11.71875 12.40625 
L 22.015625 12.40625 
L 22.015625 0 
L 11.71875 0 
z
M 11.71875 51.703125 
L 22.015625 51.703125 
L 22.015625 39.3125 
L 11.71875 39.3125 
z
" id="DejaVuSans-3a"/>
    </defs>
    <g transform="translate(60.27144 46.705375)scale(0.102 -0.102)">
     <use xlink:href="#DejaVuSans-35"/>
     <use x="63.623047" xlink:href="#DejaVuSans-31"/>
     <use x="127.246094" xlink:href="#DejaVuSans-20"/>
     <use x="159.033203" xlink:href="#DejaVuSans-74"/>
     <use x="198.242188" xlink:href="#DejaVuSans-61"/>
     <use x="259.521484" xlink:href="#DejaVuSans-72"/>
     <use x="300.619141" xlink:href="#DejaVuSans-67"/>
     <use x="364.095703" xlink:href="#DejaVuSans-65"/>
     <use x="425.619141" xlink:href="#DejaVuSans-74"/>
     <use x="464.828125" xlink:href="#DejaVuSans-73"/>
     <use x="516.927734" xlink:href="#DejaVuSans-3a"/>
     <use x="550.619141" xlink:href="#DejaVuSans-20"/>
     <use x="582.40625" xlink:href="#DejaVuSans-31"/>
     <use x="646.029297" xlink:href="#DejaVuSans-30"/>
     <use x="709.652344" xlink:href="#DejaVuSans-30"/>
     <use x="773.275391" xlink:href="#DejaVuSans-2e"/>
     <use x="805.0625" xlink:href="#DejaVuSans-2e"/>
     <use x="836.849609" xlink:href="#DejaVuSans-31"/>
     <use x="900.472656" xlink:href="#DejaVuSans-65"/>
     <use x="961.996094" xlink:href="#DejaVuSans-2d"/>
     <use x="998.080078" xlink:href="#DejaVuSans-30"/>
     <use x="1061.703125" xlink:href="#DejaVuSans-38"/>
    </g>
    <!-- 15 instances -->
    <g transform="translate(60.27144 58.127144)scale(0.102 -0.102)">
     <use xlink:href="#DejaVuSans-31"/>
     <use x="63.623047" xlink:href="#DejaVuSans-35"/>
     <use x="127.246094" xlink:href="#DejaVuSans-20"/>
     <use x="159.033203" xlink:href="#DejaVuSans-69"/>
     <use x="186.816406" xlink:href="#DejaVuSans-6e"/>
     <use x="250.195312" xlink:href="#DejaVuSans-73"/>
     <use x="302.294922" xlink:href="#DejaVuSans-74"/>
     <use x="341.503906" xlink:href="#DejaVuSans-61"/>
     <use x="402.783203" xlink:href="#DejaVuSans-6e"/>
     <use x="466.162109" xlink:href="#DejaVuSans-63"/>
     <use x="521.142578" xlink:href="#DejaVuSans-65"/>
     <use x="582.666016" xlink:href="#DejaVuSans-73"/>
    </g>
   </g>
   <g id="text_21">
    <!-- v2.2.1.10 -->
    <g style="fill:#808080;" transform="translate(204.779188 289.387113)scale(0.1 -0.1)">
     <use xlink:href="#DejaVuSans-76"/>
     <use x="59.179688" xlink:href="#DejaVuSans-32"/>
     <use x="122.802734" xlink:href="#DejaVuSans-2e"/>
     <use x="154.589844" xlink:href="#DejaVuSans-32"/>
     <use x="218.212891" xlink:href="#DejaVuSans-2e"/>
     <use x="250" xlink:href="#DejaVuSans-31"/>
     <use x="313.623047" xlink:href="#DejaVuSans-2e"/>
     <use x="345.410156" xlink:href="#DejaVuSans-31"/>
     <use x="409.033203" xlink:href="#DejaVuSans-30"/>
    </g>
   </g>
   <g id="text_22">
    <!-- 20 Schwefel x*sin(x) -->
    <defs>
     <path d="M 53.515625 70.515625 
L 53.515625 60.890625 
Q 47.90625 63.578125 42.921875 64.890625 
Q 37.9375 66.21875 33.296875 66.21875 
Q 25.25 66.21875 20.875 63.09375 
Q 16.5 59.96875 16.5 54.203125 
Q 16.5 49.359375 19.40625 46.890625 
Q 22.3125 44.4375 30.421875 42.921875 
L 36.375 41.703125 
Q 47.40625 39.59375 52.65625 34.296875 
Q 57.90625 29 57.90625 20.125 
Q 57.90625 9.515625 50.796875 4.046875 
Q 43.703125 -1.421875 29.984375 -1.421875 
Q 24.8125 -1.421875 18.96875 -0.25 
Q 13.140625 0.921875 6.890625 3.21875 
L 6.890625 13.375 
Q 12.890625 10.015625 18.65625 8.296875 
Q 24.421875 6.59375 29.984375 6.59375 
Q 38.421875 6.59375 43.015625 9.90625 
Q 47.609375 13.234375 47.609375 19.390625 
Q 47.609375 24.75 44.3125 27.78125 
Q 41.015625 30.8125 33.5 32.328125 
L 27.484375 33.5 
Q 16.453125 35.6875 11.515625 40.375 
Q 6.59375 45.0625 6.59375 53.421875 
Q 6.59375 63.09375 13.40625 68.65625 
Q 20.21875 74.21875 32.171875 74.21875 
Q 37.3125 74.21875 42.625 73.28125 
Q 47.953125 72.359375 53.515625 70.515625 
z
" id="DejaVuSans-53"/>
     <path d="M 54.890625 33.015625 
L 54.890625 0 
L 45.90625 0 
L 45.90625 32.71875 
Q 45.90625 40.484375 42.875 44.328125 
Q 39.84375 48.1875 33.796875 48.1875 
Q 26.515625 48.1875 22.3125 43.546875 
Q 18.109375 38.921875 18.109375 30.90625 
L 18.109375 0 
L 9.078125 0 
L 9.078125 75.984375 
L 18.109375 75.984375 
L 18.109375 46.1875 
Q 21.34375 51.125 25.703125 53.5625 
Q 30.078125 56 35.796875 56 
Q 45.21875 56 50.046875 50.171875 
Q 54.890625 44.34375 54.890625 33.015625 
z
" id="DejaVuSans-68"/>
     <path d="M 4.203125 54.6875 
L 13.1875 54.6875 
L 24.421875 12.015625 
L 35.59375 54.6875 
L 46.1875 54.6875 
L 57.421875 12.015625 
L 68.609375 54.6875 
L 77.59375 54.6875 
L 63.28125 0 
L 52.6875 0 
L 40.921875 44.828125 
L 29.109375 0 
L 18.5 0 
z
" id="DejaVuSans-77"/>
     <path d="M 54.890625 54.6875 
L 35.109375 28.078125 
L 55.90625 0 
L 45.3125 0 
L 29.390625 21.484375 
L 13.484375 0 
L 2.875 0 
L 24.125 28.609375 
L 4.6875 54.6875 
L 15.28125 54.6875 
L 29.78125 35.203125 
L 44.28125 54.6875 
z
" id="DejaVuSans-78"/>
     <path d="M 47.015625 60.890625 
L 29.5 51.421875 
L 47.015625 41.890625 
L 44.1875 37.109375 
L 27.78125 47.015625 
L 27.78125 28.609375 
L 22.21875 28.609375 
L 22.21875 47.015625 
L 5.8125 37.109375 
L 2.984375 41.890625 
L 20.515625 51.421875 
L 2.984375 60.890625 
L 5.8125 65.71875 
L 22.21875 55.8125 
L 22.21875 74.21875 
L 27.78125 74.21875 
L 27.78125 55.8125 
L 44.1875 65.71875 
z
" id="DejaVuSans-2a"/>
    </defs>
    <g transform="translate(125.397938 18.84)scale(0.2 -0.2)">
     <use xlink:href="#DejaVuSans-32"/>
     <use x="63.623047" xlink:href="#DejaVuSans-30"/>
     <use x="127.246094" xlink:href="#DejaVuSans-20"/>
     <use x="159.033203" xlink:href="#DejaVuSans-53"/>
     <use x="222.509766" xlink:href="#DejaVuSans-63"/>
     <use x="277.490234" xlink:href="#DejaVuSans-68"/>
     <use x="340.869141" xlink:href="#DejaVuSans-77"/>
     <use x="422.65625" xlink:href="#DejaVuSans-65"/>
     <use x="484.179688" xlink:href="#DejaVuSans-66"/>
     <use x="519.384766" xlink:href="#DejaVuSans-65"/>
     <use x="580.908203" xlink:href="#DejaVuSans-6c"/>
     <use x="608.691406" xlink:href="#DejaVuSans-20"/>
     <use x="640.478516" xlink:href="#DejaVuSans-78"/>
     <use x="699.658203" xlink:href="#DejaVuSans-2a"/>
     <use x="749.658203" xlink:href="#DejaVuSans-73"/>
     <use x="801.757812" xlink:href="#DejaVuSans-69"/>
     <use x="829.541016" xlink:href="#DejaVuSans-6e"/>
     <use x="892.919922" xlink:href="#DejaVuSans-28"/>
     <use x="931.933594" xlink:href="#DejaVuSans-78"/>
     <use x="991.113281" xlink:href="#DejaVuSans-29"/>
    </g>
   </g>
  </g>
 </g>
 <defs>
  <clipPath id="p1b2f650844">
   <rect height="269.32" width="343.144" x="56.84" y="24.84"/>
  </clipPath>
 </defs>
</svg>
