<?xml version="1.0" encoding="utf-8" standalone="no"?>
<!DOCTYPE svg PUBLIC "-//W3C//DTD SVG 1.1//EN"
  "http://www.w3.org/Graphics/SVG/1.1/DTD/svg11.dtd">
<!-- Created with matplotlib (http://matplotlib.org/) -->
<svg height="345.6pt" version="1.1" viewBox="0 0 460.8 345.6" width="460.8pt" xmlns="http://www.w3.org/2000/svg" xmlns:xlink="http://www.w3.org/1999/xlink">
 <defs>
  <style type="text/css">
*{stroke-linecap:butt;stroke-linejoin:round;}
  </style>
 </defs>
 <g id="figure_1">
  <g id="patch_1">
   <path d="M 0 345.6 
L 460.8 345.6 
L 460.8 0 
L 0 0 
z
" style="fill:#ffffff;"/>
  </g>
  <g id="axes_1">
   <g id="patch_2">
    <path d="M 56.84 294.16 
L 399.984 294.16 
L 399.984 6.125228 
L 56.84 6.125228 
z
" style="fill:#ffffff;"/>
   </g>
   <g id="matplotlib.axis_1">
    <g id="xtick_1">
     <g id="line2d_1">
      <path clip-path="url(#pa35d4be10e)" d="M 56.84 294.16 
L 56.84 6.125228 
" style="fill:none;stroke:#b0b0b0;stroke-linecap:square;stroke-width:0.8;"/>
     </g>
     <g id="line2d_2">
      <defs>
       <path d="M 0 0 
L 0 3.5 
" id="mc23dc0c888" style="stroke:#000000;stroke-width:0.8;"/>
      </defs>
      <g>
       <use style="stroke:#000000;stroke-width:0.8;" x="56.84" xlink:href="#mc23dc0c888" y="294.16"/>
      </g>
     </g>
     <g id="text_1">
      <!-- 0 -->
      <defs>
       <path d="M 31.78125 66.40625 
Q 24.171875 66.40625 20.328125 58.90625 
Q 16.5 51.421875 16.5 36.375 
Q 16.5 21.390625 20.328125 13.890625 
Q 24.171875 6.390625 31.78125 6.390625 
Q 39.453125 6.390625 43.28125 13.890625 
Q 47.125 21.390625 47.125 36.375 
Q 47.125 51.421875 43.28125 58.90625 
Q 39.453125 66.40625 31.78125 66.40625 
z
M 31.78125 74.21875 
Q 44.046875 74.21875 50.515625 64.515625 
Q 56.984375 54.828125 56.984375 36.375 
Q 56.984375 17.96875 50.515625 8.265625 
Q 44.046875 -1.421875 31.78125 -1.421875 
Q 19.53125 -1.421875 13.0625 8.265625 
Q 6.59375 17.96875 6.59375 36.375 
Q 6.59375 54.828125 13.0625 64.515625 
Q 19.53125 74.21875 31.78125 74.21875 
z
" id="DejaVuSans-30"/>
      </defs>
      <g transform="translate(50.4775 316.356875)scale(0.2 -0.2)">
       <use xlink:href="#DejaVuSans-30"/>
      </g>
     </g>
    </g>
    <g id="xtick_2">
     <g id="line2d_3">
      <path clip-path="url(#pa35d4be10e)" d="M 135.905438 294.16 
L 135.905438 6.125228 
" style="fill:none;stroke:#b0b0b0;stroke-linecap:square;stroke-width:0.8;"/>
     </g>
     <g id="line2d_4">
      <g>
       <use style="stroke:#000000;stroke-width:0.8;" x="135.905438" xlink:href="#mc23dc0c888" y="294.16"/>
      </g>
     </g>
     <g id="text_2">
      <!-- 2 -->
      <defs>
       <path d="M 19.1875 8.296875 
L 53.609375 8.296875 
L 53.609375 0 
L 7.328125 0 
L 7.328125 8.296875 
Q 12.9375 14.109375 22.625 23.890625 
Q 32.328125 33.6875 34.8125 36.53125 
Q 39.546875 41.84375 41.421875 45.53125 
Q 43.3125 49.21875 43.3125 52.78125 
Q 43.3125 58.59375 39.234375 62.25 
Q 35.15625 65.921875 28.609375 65.921875 
Q 23.96875 65.921875 18.8125 64.3125 
Q 13.671875 62.703125 7.8125 59.421875 
L 7.8125 69.390625 
Q 13.765625 71.78125 18.9375 73 
Q 24.125 74.21875 28.421875 74.21875 
Q 39.75 74.21875 46.484375 68.546875 
Q 53.21875 62.890625 53.21875 53.421875 
Q 53.21875 48.921875 51.53125 44.890625 
Q 49.859375 40.875 45.40625 35.40625 
Q 44.1875 33.984375 37.640625 27.21875 
Q 31.109375 20.453125 19.1875 8.296875 
z
" id="DejaVuSans-32"/>
      </defs>
      <g transform="translate(129.542938 316.356875)scale(0.2 -0.2)">
       <use xlink:href="#DejaVuSans-32"/>
      </g>
     </g>
    </g>
    <g id="xtick_3">
     <g id="line2d_5">
      <path clip-path="url(#pa35d4be10e)" d="M 214.970876 294.16 
L 214.970876 6.125228 
" style="fill:none;stroke:#b0b0b0;stroke-linecap:square;stroke-width:0.8;"/>
     </g>
     <g id="line2d_6">
      <g>
       <use style="stroke:#000000;stroke-width:0.8;" x="214.970876" xlink:href="#mc23dc0c888" y="294.16"/>
      </g>
     </g>
     <g id="text_3">
      <!-- 4 -->
      <defs>
       <path d="M 37.796875 64.3125 
L 12.890625 25.390625 
L 37.796875 25.390625 
z
M 35.203125 72.90625 
L 47.609375 72.90625 
L 47.609375 25.390625 
L 58.015625 25.390625 
L 58.015625 17.1875 
L 47.609375 17.1875 
L 47.609375 0 
L 37.796875 0 
L 37.796875 17.1875 
L 4.890625 17.1875 
L 4.890625 26.703125 
z
" id="DejaVuSans-34"/>
      </defs>
      <g transform="translate(208.608376 316.356875)scale(0.2 -0.2)">
       <use xlink:href="#DejaVuSans-34"/>
      </g>
     </g>
    </g>
    <g id="xtick_4">
     <g id="line2d_7">
      <path clip-path="url(#pa35d4be10e)" d="M 294.036313 294.16 
L 294.036313 6.125228 
" style="fill:none;stroke:#b0b0b0;stroke-linecap:square;stroke-width:0.8;"/>
     </g>
     <g id="line2d_8">
      <g>
       <use style="stroke:#000000;stroke-width:0.8;" x="294.036313" xlink:href="#mc23dc0c888" y="294.16"/>
      </g>
     </g>
     <g id="text_4">
      <!-- 6 -->
      <defs>
       <path d="M 33.015625 40.375 
Q 26.375 40.375 22.484375 35.828125 
Q 18.609375 31.296875 18.609375 23.390625 
Q 18.609375 15.53125 22.484375 10.953125 
Q 26.375 6.390625 33.015625 6.390625 
Q 39.65625 6.390625 43.53125 10.953125 
Q 47.40625 15.53125 47.40625 23.390625 
Q 47.40625 31.296875 43.53125 35.828125 
Q 39.65625 40.375 33.015625 40.375 
z
M 52.59375 71.296875 
L 52.59375 62.3125 
Q 48.875 64.0625 45.09375 64.984375 
Q 41.3125 65.921875 37.59375 65.921875 
Q 27.828125 65.921875 22.671875 59.328125 
Q 17.53125 52.734375 16.796875 39.40625 
Q 19.671875 43.65625 24.015625 45.921875 
Q 28.375 48.1875 33.59375 48.1875 
Q 44.578125 48.1875 50.953125 41.515625 
Q 57.328125 34.859375 57.328125 23.390625 
Q 57.328125 12.15625 50.6875 5.359375 
Q 44.046875 -1.421875 33.015625 -1.421875 
Q 20.359375 -1.421875 13.671875 8.265625 
Q 6.984375 17.96875 6.984375 36.375 
Q 6.984375 53.65625 15.1875 63.9375 
Q 23.390625 74.21875 37.203125 74.21875 
Q 40.921875 74.21875 44.703125 73.484375 
Q 48.484375 72.75 52.59375 71.296875 
z
" id="DejaVuSans-36"/>
      </defs>
      <g transform="translate(287.673813 316.356875)scale(0.2 -0.2)">
       <use xlink:href="#DejaVuSans-36"/>
      </g>
     </g>
    </g>
    <g id="xtick_5">
     <g id="line2d_9">
      <path clip-path="url(#pa35d4be10e)" d="M 373.101751 294.16 
L 373.101751 6.125228 
" style="fill:none;stroke:#b0b0b0;stroke-linecap:square;stroke-width:0.8;"/>
     </g>
     <g id="line2d_10">
      <g>
       <use style="stroke:#000000;stroke-width:0.8;" x="373.101751" xlink:href="#mc23dc0c888" y="294.16"/>
      </g>
     </g>
     <g id="text_5">
      <!-- 8 -->
      <defs>
       <path d="M 31.78125 34.625 
Q 24.75 34.625 20.71875 30.859375 
Q 16.703125 27.09375 16.703125 20.515625 
Q 16.703125 13.921875 20.71875 10.15625 
Q 24.75 6.390625 31.78125 6.390625 
Q 38.8125 6.390625 42.859375 10.171875 
Q 46.921875 13.96875 46.921875 20.515625 
Q 46.921875 27.09375 42.890625 30.859375 
Q 38.875 34.625 31.78125 34.625 
z
M 21.921875 38.8125 
Q 15.578125 40.375 12.03125 44.71875 
Q 8.5 49.078125 8.5 55.328125 
Q 8.5 64.0625 14.71875 69.140625 
Q 20.953125 74.21875 31.78125 74.21875 
Q 42.671875 74.21875 48.875 69.140625 
Q 55.078125 64.0625 55.078125 55.328125 
Q 55.078125 49.078125 51.53125 44.71875 
Q 48 40.375 41.703125 38.8125 
Q 48.828125 37.15625 52.796875 32.3125 
Q 56.78125 27.484375 56.78125 20.515625 
Q 56.78125 9.90625 50.3125 4.234375 
Q 43.84375 -1.421875 31.78125 -1.421875 
Q 19.734375 -1.421875 13.25 4.234375 
Q 6.78125 9.90625 6.78125 20.515625 
Q 6.78125 27.484375 10.78125 32.3125 
Q 14.796875 37.15625 21.921875 38.8125 
z
M 18.3125 54.390625 
Q 18.3125 48.734375 21.84375 45.5625 
Q 25.390625 42.390625 31.78125 42.390625 
Q 38.140625 42.390625 41.71875 45.5625 
Q 45.3125 48.734375 45.3125 54.390625 
Q 45.3125 60.0625 41.71875 63.234375 
Q 38.140625 66.40625 31.78125 66.40625 
Q 25.390625 66.40625 21.84375 63.234375 
Q 18.3125 60.0625 18.3125 54.390625 
z
" id="DejaVuSans-38"/>
      </defs>
      <g transform="translate(366.739251 316.356875)scale(0.2 -0.2)">
       <use xlink:href="#DejaVuSans-38"/>
      </g>
     </g>
    </g>
    <g id="text_6">
     <!-- log10(# f-evals / dimension) -->
     <defs>
      <path d="M 9.421875 75.984375 
L 18.40625 75.984375 
L 18.40625 0 
L 9.421875 0 
z
" id="DejaVuSans-6c"/>
      <path d="M 30.609375 48.390625 
Q 23.390625 48.390625 19.1875 42.75 
Q 14.984375 37.109375 14.984375 27.296875 
Q 14.984375 17.484375 19.15625 11.84375 
Q 23.34375 6.203125 30.609375 6.203125 
Q 37.796875 6.203125 41.984375 11.859375 
Q 46.1875 17.53125 46.1875 27.296875 
Q 46.1875 37.015625 41.984375 42.703125 
Q 37.796875 48.390625 30.609375 48.390625 
z
M 30.609375 56 
Q 42.328125 56 49.015625 48.375 
Q 55.71875 40.765625 55.71875 27.296875 
Q 55.71875 13.875 49.015625 6.21875 
Q 42.328125 -1.421875 30.609375 -1.421875 
Q 18.84375 -1.421875 12.171875 6.21875 
Q 5.515625 13.875 5.515625 27.296875 
Q 5.515625 40.765625 12.171875 48.375 
Q 18.84375 56 30.609375 56 
z
" id="DejaVuSans-6f"/>
      <path d="M 45.40625 27.984375 
Q 45.40625 37.75 41.375 43.109375 
Q 37.359375 48.484375 30.078125 48.484375 
Q 22.859375 48.484375 18.828125 43.109375 
Q 14.796875 37.75 14.796875 27.984375 
Q 14.796875 18.265625 18.828125 12.890625 
Q 22.859375 7.515625 30.078125 7.515625 
Q 37.359375 7.515625 41.375 12.890625 
Q 45.40625 18.265625 45.40625 27.984375 
z
M 54.390625 6.78125 
Q 54.390625 -7.171875 48.1875 -13.984375 
Q 42 -20.796875 29.203125 -20.796875 
Q 24.46875 -20.796875 20.265625 -20.09375 
Q 16.0625 -19.390625 12.109375 -17.921875 
L 12.109375 -9.1875 
Q 16.0625 -11.328125 19.921875 -12.34375 
Q 23.78125 -13.375 27.78125 -13.375 
Q 36.625 -13.375 41.015625 -8.765625 
Q 45.40625 -4.15625 45.40625 5.171875 
L 45.40625 9.625 
Q 42.625 4.78125 38.28125 2.390625 
Q 33.9375 0 27.875 0 
Q 17.828125 0 11.671875 7.65625 
Q 5.515625 15.328125 5.515625 27.984375 
Q 5.515625 40.671875 11.671875 48.328125 
Q 17.828125 56 27.875 56 
Q 33.9375 56 38.28125 53.609375 
Q 42.625 51.21875 45.40625 46.390625 
L 45.40625 54.6875 
L 54.390625 54.6875 
z
" id="DejaVuSans-67"/>
      <path d="M 12.40625 8.296875 
L 28.515625 8.296875 
L 28.515625 63.921875 
L 10.984375 60.40625 
L 10.984375 69.390625 
L 28.421875 72.90625 
L 38.28125 72.90625 
L 38.28125 8.296875 
L 54.390625 8.296875 
L 54.390625 0 
L 12.40625 0 
z
" id="DejaVuSans-31"/>
      <path d="M 31 75.875 
Q 24.46875 64.65625 21.28125 53.65625 
Q 18.109375 42.671875 18.109375 31.390625 
Q 18.109375 20.125 21.3125 9.0625 
Q 24.515625 -2 31 -13.1875 
L 23.1875 -13.1875 
Q 15.875 -1.703125 12.234375 9.375 
Q 8.59375 20.453125 8.59375 31.390625 
Q 8.59375 42.28125 12.203125 53.3125 
Q 15.828125 64.359375 23.1875 75.875 
z
" id="DejaVuSans-28"/>
      <path d="M 51.125 44 
L 36.921875 44 
L 32.8125 27.6875 
L 47.125 27.6875 
z
M 43.796875 71.78125 
L 38.71875 51.515625 
L 52.984375 51.515625 
L 58.109375 71.78125 
L 65.921875 71.78125 
L 60.890625 51.515625 
L 76.125 51.515625 
L 76.125 44 
L 58.984375 44 
L 54.984375 27.6875 
L 70.515625 27.6875 
L 70.515625 20.21875 
L 53.078125 20.21875 
L 48 0 
L 40.1875 0 
L 45.21875 20.21875 
L 30.90625 20.21875 
L 25.875 0 
L 18.015625 0 
L 23.09375 20.21875 
L 7.71875 20.21875 
L 7.71875 27.6875 
L 24.90625 27.6875 
L 29 44 
L 13.28125 44 
L 13.28125 51.515625 
L 30.90625 51.515625 
L 35.890625 71.78125 
z
" id="DejaVuSans-23"/>
      <path id="DejaVuSans-20"/>
      <path d="M 37.109375 75.984375 
L 37.109375 68.5 
L 28.515625 68.5 
Q 23.6875 68.5 21.796875 66.546875 
Q 19.921875 64.59375 19.921875 59.515625 
L 19.921875 54.6875 
L 34.71875 54.6875 
L 34.71875 47.703125 
L 19.921875 47.703125 
L 19.921875 0 
L 10.890625 0 
L 10.890625 47.703125 
L 2.296875 47.703125 
L 2.296875 54.6875 
L 10.890625 54.6875 
L 10.890625 58.5 
Q 10.890625 67.625 15.140625 71.796875 
Q 19.390625 75.984375 28.609375 75.984375 
z
" id="DejaVuSans-66"/>
      <path d="M 4.890625 31.390625 
L 31.203125 31.390625 
L 31.203125 23.390625 
L 4.890625 23.390625 
z
" id="DejaVuSans-2d"/>
      <path d="M 56.203125 29.59375 
L 56.203125 25.203125 
L 14.890625 25.203125 
Q 15.484375 15.921875 20.484375 11.0625 
Q 25.484375 6.203125 34.421875 6.203125 
Q 39.59375 6.203125 44.453125 7.46875 
Q 49.3125 8.734375 54.109375 11.28125 
L 54.109375 2.78125 
Q 49.265625 0.734375 44.1875 -0.34375 
Q 39.109375 -1.421875 33.890625 -1.421875 
Q 20.796875 -1.421875 13.15625 6.1875 
Q 5.515625 13.8125 5.515625 26.8125 
Q 5.515625 40.234375 12.765625 48.109375 
Q 20.015625 56 32.328125 56 
Q 43.359375 56 49.78125 48.890625 
Q 56.203125 41.796875 56.203125 29.59375 
z
M 47.21875 32.234375 
Q 47.125 39.59375 43.09375 43.984375 
Q 39.0625 48.390625 32.421875 48.390625 
Q 24.90625 48.390625 20.390625 44.140625 
Q 15.875 39.890625 15.1875 32.171875 
z
" id="DejaVuSans-65"/>
      <path d="M 2.984375 54.6875 
L 12.5 54.6875 
L 29.59375 8.796875 
L 46.6875 54.6875 
L 56.203125 54.6875 
L 35.6875 0 
L 23.484375 0 
z
" id="DejaVuSans-76"/>
      <path d="M 34.28125 27.484375 
Q 23.390625 27.484375 19.1875 25 
Q 14.984375 22.515625 14.984375 16.5 
Q 14.984375 11.71875 18.140625 8.90625 
Q 21.296875 6.109375 26.703125 6.109375 
Q 34.1875 6.109375 38.703125 11.40625 
Q 43.21875 16.703125 43.21875 25.484375 
L 43.21875 27.484375 
z
M 52.203125 31.203125 
L 52.203125 0 
L 43.21875 0 
L 43.21875 8.296875 
Q 40.140625 3.328125 35.546875 0.953125 
Q 30.953125 -1.421875 24.3125 -1.421875 
Q 15.921875 -1.421875 10.953125 3.296875 
Q 6 8.015625 6 15.921875 
Q 6 25.140625 12.171875 29.828125 
Q 18.359375 34.515625 30.609375 34.515625 
L 43.21875 34.515625 
L 43.21875 35.40625 
Q 43.21875 41.609375 39.140625 45 
Q 35.0625 48.390625 27.6875 48.390625 
Q 23 48.390625 18.546875 47.265625 
Q 14.109375 46.140625 10.015625 43.890625 
L 10.015625 52.203125 
Q 14.9375 54.109375 19.578125 55.046875 
Q 24.21875 56 28.609375 56 
Q 40.484375 56 46.34375 49.84375 
Q 52.203125 43.703125 52.203125 31.203125 
z
" id="DejaVuSans-61"/>
      <path d="M 44.28125 53.078125 
L 44.28125 44.578125 
Q 40.484375 46.53125 36.375 47.5 
Q 32.28125 48.484375 27.875 48.484375 
Q 21.1875 48.484375 17.84375 46.4375 
Q 14.5 44.390625 14.5 40.28125 
Q 14.5 37.15625 16.890625 35.375 
Q 19.28125 33.59375 26.515625 31.984375 
L 29.59375 31.296875 
Q 39.15625 29.25 43.1875 25.515625 
Q 47.21875 21.78125 47.21875 15.09375 
Q 47.21875 7.46875 41.1875 3.015625 
Q 35.15625 -1.421875 24.609375 -1.421875 
Q 20.21875 -1.421875 15.453125 -0.5625 
Q 10.6875 0.296875 5.421875 2 
L 5.421875 11.28125 
Q 10.40625 8.6875 15.234375 7.390625 
Q 20.0625 6.109375 24.8125 6.109375 
Q 31.15625 6.109375 34.5625 8.28125 
Q 37.984375 10.453125 37.984375 14.40625 
Q 37.984375 18.0625 35.515625 20.015625 
Q 33.0625 21.96875 24.703125 23.78125 
L 21.578125 24.515625 
Q 13.234375 26.265625 9.515625 29.90625 
Q 5.8125 33.546875 5.8125 39.890625 
Q 5.8125 47.609375 11.28125 51.796875 
Q 16.75 56 26.8125 56 
Q 31.78125 56 36.171875 55.265625 
Q 40.578125 54.546875 44.28125 53.078125 
z
" id="DejaVuSans-73"/>
      <path d="M 25.390625 72.90625 
L 33.6875 72.90625 
L 8.296875 -9.28125 
L 0 -9.28125 
z
" id="DejaVuSans-2f"/>
      <path d="M 45.40625 46.390625 
L 45.40625 75.984375 
L 54.390625 75.984375 
L 54.390625 0 
L 45.40625 0 
L 45.40625 8.203125 
Q 42.578125 3.328125 38.25 0.953125 
Q 33.9375 -1.421875 27.875 -1.421875 
Q 17.96875 -1.421875 11.734375 6.484375 
Q 5.515625 14.40625 5.515625 27.296875 
Q 5.515625 40.1875 11.734375 48.09375 
Q 17.96875 56 27.875 56 
Q 33.9375 56 38.25 53.625 
Q 42.578125 51.265625 45.40625 46.390625 
z
M 14.796875 27.296875 
Q 14.796875 17.390625 18.875 11.75 
Q 22.953125 6.109375 30.078125 6.109375 
Q 37.203125 6.109375 41.296875 11.75 
Q 45.40625 17.390625 45.40625 27.296875 
Q 45.40625 37.203125 41.296875 42.84375 
Q 37.203125 48.484375 30.078125 48.484375 
Q 22.953125 48.484375 18.875 42.84375 
Q 14.796875 37.203125 14.796875 27.296875 
z
" id="DejaVuSans-64"/>
      <path d="M 9.421875 54.6875 
L 18.40625 54.6875 
L 18.40625 0 
L 9.421875 0 
z
M 9.421875 75.984375 
L 18.40625 75.984375 
L 18.40625 64.59375 
L 9.421875 64.59375 
z
" id="DejaVuSans-69"/>
      <path d="M 52 44.1875 
Q 55.375 50.25 60.0625 53.125 
Q 64.75 56 71.09375 56 
Q 79.640625 56 84.28125 50.015625 
Q 88.921875 44.046875 88.921875 33.015625 
L 88.921875 0 
L 79.890625 0 
L 79.890625 32.71875 
Q 79.890625 40.578125 77.09375 44.375 
Q 74.3125 48.1875 68.609375 48.1875 
Q 61.625 48.1875 57.5625 43.546875 
Q 53.515625 38.921875 53.515625 30.90625 
L 53.515625 0 
L 44.484375 0 
L 44.484375 32.71875 
Q 44.484375 40.625 41.703125 44.40625 
Q 38.921875 48.1875 33.109375 48.1875 
Q 26.21875 48.1875 22.15625 43.53125 
Q 18.109375 38.875 18.109375 30.90625 
L 18.109375 0 
L 9.078125 0 
L 9.078125 54.6875 
L 18.109375 54.6875 
L 18.109375 46.1875 
Q 21.1875 51.21875 25.484375 53.609375 
Q 29.78125 56 35.6875 56 
Q 41.65625 56 45.828125 52.96875 
Q 50 49.953125 52 44.1875 
z
" id="DejaVuSans-6d"/>
      <path d="M 54.890625 33.015625 
L 54.890625 0 
L 45.90625 0 
L 45.90625 32.71875 
Q 45.90625 40.484375 42.875 44.328125 
Q 39.84375 48.1875 33.796875 48.1875 
Q 26.515625 48.1875 22.3125 43.546875 
Q 18.109375 38.921875 18.109375 30.90625 
L 18.109375 0 
L 9.078125 0 
L 9.078125 54.6875 
L 18.109375 54.6875 
L 18.109375 46.1875 
Q 21.34375 51.125 25.703125 53.5625 
Q 30.078125 56 35.796875 56 
Q 45.21875 56 50.046875 50.171875 
Q 54.890625 44.34375 54.890625 33.015625 
z
" id="DejaVuSans-6e"/>
      <path d="M 8.015625 75.875 
L 15.828125 75.875 
Q 23.140625 64.359375 26.78125 53.3125 
Q 30.421875 42.28125 30.421875 31.390625 
Q 30.421875 20.453125 26.78125 9.375 
Q 23.140625 -1.703125 15.828125 -13.1875 
L 8.015625 -13.1875 
Q 14.5 -2 17.703125 9.0625 
Q 20.90625 20.125 20.90625 31.390625 
Q 20.90625 42.671875 17.703125 53.65625 
Q 14.5 64.65625 8.015625 75.875 
z
" id="DejaVuSans-29"/>
     </defs>
     <g transform="translate(107.571219 337.433594)scale(0.17 -0.17)">
      <use xlink:href="#DejaVuSans-6c"/>
      <use x="27.783203" xlink:href="#DejaVuSans-6f"/>
      <use x="88.964844" xlink:href="#DejaVuSans-67"/>
      <use x="152.441406" xlink:href="#DejaVuSans-31"/>
      <use x="216.064453" xlink:href="#DejaVuSans-30"/>
      <use x="279.6875" xlink:href="#DejaVuSans-28"/>
      <use x="318.701172" xlink:href="#DejaVuSans-23"/>
      <use x="402.490234" xlink:href="#DejaVuSans-20"/>
      <use x="434.277344" xlink:href="#DejaVuSans-66"/>
      <use x="469.404297" xlink:href="#DejaVuSans-2d"/>
      <use x="505.488281" xlink:href="#DejaVuSans-65"/>
      <use x="567.011719" xlink:href="#DejaVuSans-76"/>
      <use x="626.191406" xlink:href="#DejaVuSans-61"/>
      <use x="687.470703" xlink:href="#DejaVuSans-6c"/>
      <use x="715.253906" xlink:href="#DejaVuSans-73"/>
      <use x="767.353516" xlink:href="#DejaVuSans-20"/>
      <use x="799.140625" xlink:href="#DejaVuSans-2f"/>
      <use x="832.832031" xlink:href="#DejaVuSans-20"/>
      <use x="864.619141" xlink:href="#DejaVuSans-64"/>
      <use x="928.095703" xlink:href="#DejaVuSans-69"/>
      <use x="955.878906" xlink:href="#DejaVuSans-6d"/>
      <use x="1053.291016" xlink:href="#DejaVuSans-65"/>
      <use x="1114.814453" xlink:href="#DejaVuSans-6e"/>
      <use x="1178.193359" xlink:href="#DejaVuSans-73"/>
      <use x="1230.292969" xlink:href="#DejaVuSans-69"/>
      <use x="1258.076172" xlink:href="#DejaVuSans-6f"/>
      <use x="1319.257812" xlink:href="#DejaVuSans-6e"/>
      <use x="1382.636719" xlink:href="#DejaVuSans-29"/>
     </g>
    </g>
   </g>
   <g id="matplotlib.axis_2">
    <g id="ytick_1">
     <g id="line2d_11">
      <path clip-path="url(#pa35d4be10e)" d="M 56.84 294.16 
L 399.984 294.16 
" style="fill:none;stroke:#b0b0b0;stroke-linecap:square;stroke-width:0.8;"/>
     </g>
     <g id="line2d_12">
      <defs>
       <path d="M 0 0 
L -3.5 0 
" id="m222b367367" style="stroke:#000000;stroke-width:0.8;"/>
      </defs>
      <g>
       <use style="stroke:#000000;stroke-width:0.8;" x="56.84" xlink:href="#m222b367367" y="294.16"/>
      </g>
     </g>
     <g id="text_7">
      <!-- 0.0 -->
      <defs>
       <path d="M 10.6875 12.40625 
L 21 12.40625 
L 21 0 
L 10.6875 0 
z
" id="DejaVuSans-2e"/>
      </defs>
      <g transform="translate(24.395 300.23875)scale(0.16 -0.16)">
       <use xlink:href="#DejaVuSans-30"/>
       <use x="63.623047" xlink:href="#DejaVuSans-2e"/>
       <use x="95.410156" xlink:href="#DejaVuSans-30"/>
      </g>
     </g>
    </g>
    <g id="ytick_2">
     <g id="line2d_13">
      <path clip-path="url(#pa35d4be10e)" d="M 56.84 237.123411 
L 399.984 237.123411 
" style="fill:none;stroke:#b0b0b0;stroke-linecap:square;stroke-width:0.8;"/>
     </g>
     <g id="line2d_14">
      <g>
       <use style="stroke:#000000;stroke-width:0.8;" x="56.84" xlink:href="#m222b367367" y="237.123411"/>
      </g>
     </g>
     <g id="text_8">
      <!-- 0.2 -->
      <g transform="translate(24.395 243.202161)scale(0.16 -0.16)">
       <use xlink:href="#DejaVuSans-30"/>
       <use x="63.623047" xlink:href="#DejaVuSans-2e"/>
       <use x="95.410156" xlink:href="#DejaVuSans-32"/>
      </g>
     </g>
    </g>
    <g id="ytick_3">
     <g id="line2d_15">
      <path clip-path="url(#pa35d4be10e)" d="M 56.84 180.086823 
L 399.984 180.086823 
" style="fill:none;stroke:#b0b0b0;stroke-linecap:square;stroke-width:0.8;"/>
     </g>
     <g id="line2d_16">
      <g>
       <use style="stroke:#000000;stroke-width:0.8;" x="56.84" xlink:href="#m222b367367" y="180.086823"/>
      </g>
     </g>
     <g id="text_9">
      <!-- 0.4 -->
      <g transform="translate(24.395 186.165573)scale(0.16 -0.16)">
       <use xlink:href="#DejaVuSans-30"/>
       <use x="63.623047" xlink:href="#DejaVuSans-2e"/>
       <use x="95.410156" xlink:href="#DejaVuSans-34"/>
      </g>
     </g>
    </g>
    <g id="ytick_4">
     <g id="line2d_17">
      <path clip-path="url(#pa35d4be10e)" d="M 56.84 123.050234 
L 399.984 123.050234 
" style="fill:none;stroke:#b0b0b0;stroke-linecap:square;stroke-width:0.8;"/>
     </g>
     <g id="line2d_18">
      <g>
       <use style="stroke:#000000;stroke-width:0.8;" x="56.84" xlink:href="#m222b367367" y="123.050234"/>
      </g>
     </g>
     <g id="text_10">
      <!-- 0.6 -->
      <g transform="translate(24.395 129.128984)scale(0.16 -0.16)">
       <use xlink:href="#DejaVuSans-30"/>
       <use x="63.623047" xlink:href="#DejaVuSans-2e"/>
       <use x="95.410156" xlink:href="#DejaVuSans-36"/>
      </g>
     </g>
    </g>
    <g id="ytick_5">
     <g id="line2d_19">
      <path clip-path="url(#pa35d4be10e)" d="M 56.84 66.013646 
L 399.984 66.013646 
" style="fill:none;stroke:#b0b0b0;stroke-linecap:square;stroke-width:0.8;"/>
     </g>
     <g id="line2d_20">
      <g>
       <use style="stroke:#000000;stroke-width:0.8;" x="56.84" xlink:href="#m222b367367" y="66.013646"/>
      </g>
     </g>
     <g id="text_11">
      <!-- 0.8 -->
      <g transform="translate(24.395 72.092396)scale(0.16 -0.16)">
       <use xlink:href="#DejaVuSans-30"/>
       <use x="63.623047" xlink:href="#DejaVuSans-2e"/>
       <use x="95.410156" xlink:href="#DejaVuSans-38"/>
      </g>
     </g>
    </g>
    <g id="ytick_6">
     <g id="line2d_21">
      <path clip-path="url(#pa35d4be10e)" d="M 56.84 8.977057 
L 399.984 8.977057 
" style="fill:none;stroke:#b0b0b0;stroke-linecap:square;stroke-width:0.8;"/>
     </g>
     <g id="line2d_22">
      <g>
       <use style="stroke:#000000;stroke-width:0.8;" x="56.84" xlink:href="#m222b367367" y="8.977057"/>
      </g>
     </g>
     <g id="text_12">
      <!-- 1.0 -->
      <g transform="translate(24.395 15.055807)scale(0.16 -0.16)">
       <use xlink:href="#DejaVuSans-31"/>
       <use x="63.623047" xlink:href="#DejaVuSans-2e"/>
       <use x="95.410156" xlink:href="#DejaVuSans-30"/>
      </g>
     </g>
    </g>
    <g id="text_13">
     <!-- Fraction of function,target pairs -->
     <defs>
      <path d="M 9.8125 72.90625 
L 51.703125 72.90625 
L 51.703125 64.59375 
L 19.671875 64.59375 
L 19.671875 43.109375 
L 48.578125 43.109375 
L 48.578125 34.8125 
L 19.671875 34.8125 
L 19.671875 0 
L 9.8125 0 
z
" id="DejaVuSans-46"/>
      <path d="M 41.109375 46.296875 
Q 39.59375 47.171875 37.8125 47.578125 
Q 36.03125 48 33.890625 48 
Q 26.265625 48 22.1875 43.046875 
Q 18.109375 38.09375 18.109375 28.8125 
L 18.109375 0 
L 9.078125 0 
L 9.078125 54.6875 
L 18.109375 54.6875 
L 18.109375 46.1875 
Q 20.953125 51.171875 25.484375 53.578125 
Q 30.03125 56 36.53125 56 
Q 37.453125 56 38.578125 55.875 
Q 39.703125 55.765625 41.0625 55.515625 
z
" id="DejaVuSans-72"/>
      <path d="M 48.78125 52.59375 
L 48.78125 44.1875 
Q 44.96875 46.296875 41.140625 47.34375 
Q 37.3125 48.390625 33.40625 48.390625 
Q 24.65625 48.390625 19.8125 42.84375 
Q 14.984375 37.3125 14.984375 27.296875 
Q 14.984375 17.28125 19.8125 11.734375 
Q 24.65625 6.203125 33.40625 6.203125 
Q 37.3125 6.203125 41.140625 7.25 
Q 44.96875 8.296875 48.78125 10.40625 
L 48.78125 2.09375 
Q 45.015625 0.34375 40.984375 -0.53125 
Q 36.96875 -1.421875 32.421875 -1.421875 
Q 20.0625 -1.421875 12.78125 6.34375 
Q 5.515625 14.109375 5.515625 27.296875 
Q 5.515625 40.671875 12.859375 48.328125 
Q 20.21875 56 33.015625 56 
Q 37.15625 56 41.109375 55.140625 
Q 45.0625 54.296875 48.78125 52.59375 
z
" id="DejaVuSans-63"/>
      <path d="M 18.3125 70.21875 
L 18.3125 54.6875 
L 36.8125 54.6875 
L 36.8125 47.703125 
L 18.3125 47.703125 
L 18.3125 18.015625 
Q 18.3125 11.328125 20.140625 9.421875 
Q 21.96875 7.515625 27.59375 7.515625 
L 36.8125 7.515625 
L 36.8125 0 
L 27.59375 0 
Q 17.1875 0 13.234375 3.875 
Q 9.28125 7.765625 9.28125 18.015625 
L 9.28125 47.703125 
L 2.6875 47.703125 
L 2.6875 54.6875 
L 9.28125 54.6875 
L 9.28125 70.21875 
z
" id="DejaVuSans-74"/>
      <path d="M 8.5 21.578125 
L 8.5 54.6875 
L 17.484375 54.6875 
L 17.484375 21.921875 
Q 17.484375 14.15625 20.5 10.265625 
Q 23.53125 6.390625 29.59375 6.390625 
Q 36.859375 6.390625 41.078125 11.03125 
Q 45.3125 15.671875 45.3125 23.6875 
L 45.3125 54.6875 
L 54.296875 54.6875 
L 54.296875 0 
L 45.3125 0 
L 45.3125 8.40625 
Q 42.046875 3.421875 37.71875 1 
Q 33.40625 -1.421875 27.6875 -1.421875 
Q 18.265625 -1.421875 13.375 4.4375 
Q 8.5 10.296875 8.5 21.578125 
z
M 31.109375 56 
z
" id="DejaVuSans-75"/>
      <path d="M 11.71875 12.40625 
L 22.015625 12.40625 
L 22.015625 4 
L 14.015625 -11.625 
L 7.71875 -11.625 
L 11.71875 4 
z
" id="DejaVuSans-2c"/>
      <path d="M 18.109375 8.203125 
L 18.109375 -20.796875 
L 9.078125 -20.796875 
L 9.078125 54.6875 
L 18.109375 54.6875 
L 18.109375 46.390625 
Q 20.953125 51.265625 25.265625 53.625 
Q 29.59375 56 35.59375 56 
Q 45.5625 56 51.78125 48.09375 
Q 58.015625 40.1875 58.015625 27.296875 
Q 58.015625 14.40625 51.78125 6.484375 
Q 45.5625 -1.421875 35.59375 -1.421875 
Q 29.59375 -1.421875 25.265625 0.953125 
Q 20.953125 3.328125 18.109375 8.203125 
z
M 48.6875 27.296875 
Q 48.6875 37.203125 44.609375 42.84375 
Q 40.53125 48.484375 33.40625 48.484375 
Q 26.265625 48.484375 22.1875 42.84375 
Q 18.109375 37.203125 18.109375 27.296875 
Q 18.109375 17.390625 22.1875 11.75 
Q 26.265625 6.109375 33.40625 6.109375 
Q 40.53125 6.109375 44.609375 11.75 
Q 48.6875 17.390625 48.6875 27.296875 
z
" id="DejaVuSans-70"/>
     </defs>
     <g transform="translate(16.859531 285.281989)rotate(-90)scale(0.17 -0.17)">
      <use xlink:href="#DejaVuSans-46"/>
      <use x="57.410156" xlink:href="#DejaVuSans-72"/>
      <use x="98.523438" xlink:href="#DejaVuSans-61"/>
      <use x="159.802734" xlink:href="#DejaVuSans-63"/>
      <use x="214.783203" xlink:href="#DejaVuSans-74"/>
      <use x="253.992188" xlink:href="#DejaVuSans-69"/>
      <use x="281.775391" xlink:href="#DejaVuSans-6f"/>
      <use x="342.957031" xlink:href="#DejaVuSans-6e"/>
      <use x="406.335938" xlink:href="#DejaVuSans-20"/>
      <use x="438.123047" xlink:href="#DejaVuSans-6f"/>
      <use x="499.304688" xlink:href="#DejaVuSans-66"/>
      <use x="534.509766" xlink:href="#DejaVuSans-20"/>
      <use x="566.296875" xlink:href="#DejaVuSans-66"/>
      <use x="601.501953" xlink:href="#DejaVuSans-75"/>
      <use x="664.880859" xlink:href="#DejaVuSans-6e"/>
      <use x="728.259766" xlink:href="#DejaVuSans-63"/>
      <use x="783.240234" xlink:href="#DejaVuSans-74"/>
      <use x="822.449219" xlink:href="#DejaVuSans-69"/>
      <use x="850.232422" xlink:href="#DejaVuSans-6f"/>
      <use x="911.414062" xlink:href="#DejaVuSans-6e"/>
      <use x="974.792969" xlink:href="#DejaVuSans-2c"/>
      <use x="1006.580078" xlink:href="#DejaVuSans-74"/>
      <use x="1045.789062" xlink:href="#DejaVuSans-61"/>
      <use x="1107.068359" xlink:href="#DejaVuSans-72"/>
      <use x="1148.166016" xlink:href="#DejaVuSans-67"/>
      <use x="1211.642578" xlink:href="#DejaVuSans-65"/>
      <use x="1273.166016" xlink:href="#DejaVuSans-74"/>
      <use x="1312.375" xlink:href="#DejaVuSans-20"/>
      <use x="1344.162109" xlink:href="#DejaVuSans-70"/>
      <use x="1407.638672" xlink:href="#DejaVuSans-61"/>
      <use x="1468.917969" xlink:href="#DejaVuSans-69"/>
      <use x="1496.701172" xlink:href="#DejaVuSans-72"/>
      <use x="1537.814453" xlink:href="#DejaVuSans-73"/>
     </g>
    </g>
   </g>
   <g id="line2d_23">
    <defs>
     <path d="M 0 1.5 
C 0.397805 1.5 0.77937 1.341951 1.06066 1.06066 
C 1.341951 0.77937 1.5 0.397805 1.5 0 
C 1.5 -0.397805 1.341951 -0.77937 1.06066 -1.06066 
C 0.77937 -1.341951 0.397805 -1.5 0 -1.5 
C -0.397805 -1.5 -0.77937 -1.341951 -1.06066 -1.06066 
C -1.341951 -0.77937 -1.5 -0.397805 -1.5 0 
C -1.5 0.397805 -1.341951 0.77937 -1.06066 1.06066 
C -0.77937 1.341951 -0.397805 1.5 0 1.5 
z
" id="m056ecc1e42" style="stroke:#000080;"/>
    </defs>
    <g>
     <use style="fill:#000080;stroke:#000080;" x="249.692826" xlink:href="#m056ecc1e42" y="204.690841"/>
     <use style="fill:#000080;stroke:#000080;" x="249.692826" xlink:href="#m056ecc1e42" y="204.690841"/>
    </g>
   </g>
   <g id="line2d_24">
    <path d="M 37.9781 294.16 
L 37.9781 291.364089 
L 49.878634 291.364089 
L 49.878634 289.12736 
L 56.84 289.12736 
L 56.84 287.449813 
L 61.779168 287.449813 
L 61.779168 285.772266 
L 65.610284 285.772266 
L 65.610284 282.976355 
L 68.740534 282.976355 
L 68.740534 281.857991 
L 71.387123 281.857991 
L 71.387123 279.062079 
L 73.679702 279.062079 
L 73.679702 276.825351 
L 75.7019 276.825351 
L 75.7019 276.266168 
L 79.147184 276.266168 
L 79.147184 275.706986 
L 83.287657 275.706986 
L 83.287657 274.029439 
L 84.472185 274.029439 
L 84.472185 273.470257 
L 90.249023 273.470257 
L 90.249023 272.911075 
L 94.563801 272.911075 
L 94.563801 271.79271 
L 95.790669 271.79271 
L 95.790669 271.233528 
L 96.935682 271.233528 
L 96.935682 270.674346 
L 99.502969 270.674346 
L 99.502969 270.115164 
L 101.311887 270.115164 
L 101.311887 269.555981 
L 101.73583 269.555981 
L 101.73583 268.996799 
L 102.149557 268.996799 
L 102.149557 268.437617 
L 102.553549 268.437617 
L 102.553549 267.878435 
L 105.482991 267.878435 
L 105.482991 266.76007 
L 106.143413 266.76007 
L 106.143413 266.200888 
L 106.779369 266.200888 
L 106.779369 265.641706 
L 109.909618 265.641706 
L 109.909618 265.082523 
L 110.919842 265.082523 
L 110.919842 264.523341 
L 113.844474 264.523341 
L 113.844474 263.964159 
L 114.652569 263.964159 
L 114.652569 263.404977 
L 118.364869 263.404977 
L 118.364869 262.845795 
L 119.443088 262.845795 
L 119.443088 262.286612 
L 120.316268 262.286612 
L 120.316268 261.72743 
L 121.147181 261.72743 
L 121.147181 261.168248 
L 124.232309 261.168248 
L 124.232309 260.049883 
L 124.456741 260.049883 
L 124.456741 259.490701 
L 124.678278 259.490701 
L 124.678278 258.931519 
L 126.651492 258.931519 
L 126.651492 258.372337 
L 126.846595 258.372337 
L 126.846595 257.813154 
L 128.063425 257.813154 
L 128.15355 256.69479 
L 129.28406 256.69479 
L 129.28406 255.576425 
L 129.863304 255.576425 
L 129.863304 255.017243 
L 130.344705 255.017243 
L 130.344705 253.898879 
L 131.418108 253.898879 
L 131.418108 253.339696 
L 131.639644 253.339696 
L 131.639644 252.780514 
L 132.911992 252.780514 
L 132.911992 252.221332 
L 133.249308 252.221332 
L 133.249308 251.66215 
L 134.843109 251.66215 
L 134.843109 251.102967 
L 135.084927 251.102967 
L 135.084927 250.543785 
L 138.940039 250.543785 
L 138.940039 249.984603 
L 139.506096 249.984603 
L 139.506096 249.425421 
L 139.918719 249.425421 
L 139.918719 248.866238 
L 146.155293 248.866238 
L 146.155293 248.307056 
L 147.920051 248.307056 
L 147.920051 247.747874 
L 152.852111 247.747874 
L 152.937211 246.62951 
L 153.397866 246.62951 
L 153.397866 246.070327 
L 154.066472 246.070327 
L 154.066472 245.511145 
L 158.765512 245.511145 
L 158.765512 244.951963 
L 164.699243 244.951963 
L 164.699243 244.392781 
L 165.36027 244.392781 
L 165.36027 243.833598 
L 165.706715 243.833598 
L 165.706715 243.274416 
L 166.056195 243.274416 
L 166.056195 242.715234 
L 166.369611 242.715234 
L 166.369611 242.156052 
L 166.639234 242.156052 
L 166.639234 241.596869 
L 166.838708 241.596869 
L 166.838708 241.037687 
L 166.970415 241.037687 
L 166.970415 240.478505 
L 167.523702 240.478505 
L 167.523702 239.919323 
L 168.562421 239.919323 
L 168.562421 239.36014 
L 172.795383 239.36014 
L 172.795383 238.800958 
L 177.576961 238.800958 
L 177.576961 238.241776 
L 181.124827 238.241776 
L 181.124827 237.682594 
L 181.239505 237.682594 
L 181.239505 237.123411 
L 183.794881 237.123411 
L 183.794881 236.564229 
L 183.907074 236.564229 
L 183.907074 236.005047 
L 184.06015 236.005047 
L 184.06015 235.445865 
L 185.888453 235.445865 
L 185.888453 234.886682 
L 189.179342 234.886682 
L 189.179342 234.3275 
L 193.437474 234.3275 
L 193.467536 233.209136 
L 195.322049 233.209136 
L 195.322049 232.649954 
L 196.16725 232.649954 
L 196.16725 232.090771 
L 198.176896 232.090771 
L 198.176896 231.531589 
L 199.307763 231.531589 
L 199.307763 230.972407 
L 200.347277 230.972407 
L 200.348618 229.854042 
L 201.309683 229.854042 
L 201.309683 229.29486 
L 202.254633 229.29486 
L 202.254633 228.735678 
L 202.430174 228.735678 
L 202.437301 227.617313 
L 203.988489 227.617313 
L 204.090176 226.498949 
L 204.312003 226.498949 
L 204.312003 225.939767 
L 204.849704 225.939767 
L 204.849704 225.380584 
L 206.137523 225.380584 
L 206.137523 224.821402 
L 207.602983 224.821402 
L 207.602983 224.26222 
L 208.361276 224.26222 
L 208.361276 223.703038 
L 209.707416 223.703038 
L 209.707416 223.143855 
L 212.010101 223.143855 
L 212.044747 222.025491 
L 213.985694 222.025491 
L 214.060685 220.907126 
L 216.621802 220.907126 
L 216.710463 219.788762 
L 218.137809 219.788762 
L 218.137809 219.22958 
L 218.360974 219.22958 
L 218.360974 218.670397 
L 219.101085 218.670397 
L 219.101085 218.111215 
L 221.720721 218.111215 
L 221.720721 217.552033 
L 222.286812 217.552033 
L 222.286812 216.992851 
L 222.728803 216.992851 
L 222.728803 216.433669 
L 223.962577 216.433669 
L 223.962577 215.874486 
L 224.308221 215.874486 
L 224.389753 214.19694 
L 226.315684 214.19694 
L 226.315684 213.637757 
L 226.985205 213.637757 
L 226.985205 213.078575 
L 230.018105 213.078575 
L 230.018105 212.519393 
L 230.724717 212.519393 
L 230.724717 211.960211 
L 232.456898 211.960211 
L 232.456898 211.401028 
L 233.352646 211.401028 
L 233.435038 209.723482 
L 235.324069 209.723482 
L 235.324069 209.164299 
L 235.649761 209.164299 
L 235.649761 208.605117 
L 239.237294 208.605117 
L 239.237294 208.045935 
L 241.277786 208.045935 
L 241.277786 207.486753 
L 244.278401 207.486753 
L 244.278401 206.92757 
L 245.073925 206.92757 
L 245.073925 206.368388 
L 246.288795 206.368388 
L 246.288795 205.809206 
L 246.593585 205.809206 
L 246.593585 205.250024 
L 249.692826 205.250024 
L 249.692826 204.690841 
L 333.569032 204.690841 
L 333.569032 204.690841 
" style="fill:none;stroke:#000080;stroke-linecap:square;stroke-width:1.5;"/>
   </g>
   <g id="line2d_25">
    <defs>
     <path d="M 0 6 
C 1.591219 6 3.117479 5.367802 4.242641 4.242641 
C 5.367802 3.117479 6 1.591219 6 0 
C 6 -1.591219 5.367802 -3.117479 4.242641 -4.242641 
C 3.117479 -5.367802 1.591219 -6 0 -6 
C -1.591219 -6 -3.117479 -5.367802 -4.242641 -4.242641 
C -5.367802 -3.117479 -6 -1.591219 -6 0 
C -6 1.591219 -5.367802 3.117479 -4.242641 4.242641 
C -3.117479 5.367802 -1.591219 6 0 6 
z
" id="m01e3e01c7f" style="stroke:#000080;stroke-width:1.5;"/>
    </defs>
    <g>
     <use style="fill-opacity:0;stroke:#000080;stroke-width:1.5;" x="113.844474" xlink:href="#m01e3e01c7f" y="264.523341"/>
     <use style="fill-opacity:0;stroke:#000080;stroke-width:1.5;" x="158.765512" xlink:href="#m01e3e01c7f" y="244.951963"/>
     <use style="fill-opacity:0;stroke:#000080;stroke-width:1.5;" x="226.985205" xlink:href="#m01e3e01c7f" y="213.078575"/>
     <use style="fill-opacity:0;stroke:#000080;stroke-width:1.5;" x="249.692826" xlink:href="#m01e3e01c7f" y="204.690841"/>
     <use style="fill-opacity:0;stroke:#000080;stroke-width:1.5;" x="249.692826" xlink:href="#m01e3e01c7f" y="204.690841"/>
     <use style="fill-opacity:0;stroke:#000080;stroke-width:1.5;" x="333.569032" xlink:href="#m01e3e01c7f" y="204.690841"/>
    </g>
   </g>
   <g id="line2d_26">
    <path style="fill:none;stroke:#000080;stroke-linecap:square;stroke-width:1.5;"/>
    <g/>
   </g>
   <g id="line2d_27">
    <path clip-path="url(#pa35d4be10e)" d="M 164.100586 244.951963 
" style="fill:none;stroke:#000080;stroke-linecap:square;stroke-width:1.5;"/>
    <defs>
     <path d="M -12 12 
L 12 -12 
M -12 -12 
L 12 12 
" id="m9f5c39fdb2" style="stroke:#000080;stroke-width:3;"/>
    </defs>
    <g clip-path="url(#pa35d4be10e)">
     <use style="fill:#000080;stroke:#000080;stroke-width:3;" x="164.100586" xlink:href="#m9f5c39fdb2" y="244.951963"/>
    </g>
   </g>
   <g id="line2d_28">
    <defs>
     <path d="M 0 1.5 
C 0.397805 1.5 0.77937 1.341951 1.06066 1.06066 
C 1.341951 0.77937 1.5 0.397805 1.5 0 
C 1.5 -0.397805 1.341951 -0.77937 1.06066 -1.06066 
C 0.77937 -1.341951 0.397805 -1.5 0 -1.5 
C -0.397805 -1.5 -0.77937 -1.341951 -1.06066 -1.06066 
C -1.341951 -0.77937 -1.5 -0.397805 -1.5 0 
C -1.5 0.397805 -1.341951 0.77937 -1.06066 1.06066 
C -0.77937 1.341951 -0.397805 1.5 0 1.5 
z
" id="m606715f8ca" style="stroke:#ff00ff;"/>
    </defs>
    <g>
     <use style="fill:#ff00ff;stroke:#ff00ff;" x="236.410387" xlink:href="#m606715f8ca" y="187.915374"/>
     <use style="fill:#ff00ff;stroke:#ff00ff;" x="236.410387" xlink:href="#m606715f8ca" y="187.915374"/>
    </g>
   </g>
   <g id="line2d_29">
    <path d="M 37.9781 294.16 
L 37.9781 272.911075 
L 49.878634 272.911075 
L 49.878634 265.641706 
L 56.84 265.641706 
L 56.84 264.523341 
L 61.779168 264.523341 
L 61.779168 262.286612 
L 65.610284 262.286612 
L 65.610284 258.931519 
L 68.740534 258.931519 
L 68.740534 258.372337 
L 71.387123 258.372337 
L 71.387123 256.135608 
L 75.7019 256.135608 
L 75.7019 255.017243 
L 79.147184 255.017243 
L 79.147184 254.458061 
L 87.602435 254.458061 
L 87.602435 253.898879 
L 94.563801 253.898879 
L 94.563801 251.66215 
L 97.480771 251.66215 
L 97.480771 249.984603 
L 99.502969 249.984603 
L 99.502969 249.425421 
L 99.973377 249.425421 
L 99.973377 248.866238 
L 100.877209 248.866238 
L 100.877209 247.747874 
L 101.73583 247.747874 
L 101.73583 246.62951 
L 102.149557 246.62951 
L 102.149557 246.070327 
L 105.482991 246.070327 
L 105.482991 245.511145 
L 106.779369 245.511145 
L 106.779369 244.392781 
L 107.984694 244.392781 
L 107.984694 243.833598 
L 109.110924 243.833598 
L 109.110924 242.156052 
L 109.381305 242.156052 
L 109.381305 241.037687 
L 111.163375 241.037687 
L 111.163375 240.478505 
L 111.403503 240.478505 
L 111.403503 239.919323 
L 111.873912 239.919323 
L 111.873912 239.36014 
L 112.556207 239.36014 
L 112.556207 238.800958 
L 113.844474 238.800958 
L 113.844474 238.241776 
L 114.253276 238.241776 
L 114.253276 237.682594 
L 118.043947 237.682594 
L 118.043947 237.123411 
L 118.523109 237.123411 
L 118.523109 236.564229 
L 118.835278 236.564229 
L 118.835278 236.005047 
L 119.141873 236.005047 
L 119.141873 235.445865 
L 119.293141 235.445865 
L 119.293141 234.886682 
L 120.173787 234.886682 
L 120.173787 233.768318 
L 121.415449 233.768318 
L 121.415449 232.649954 
L 122.322693 232.649954 
L 122.322693 232.090771 
L 122.942575 232.090771 
L 122.942575 231.531589 
L 123.422853 231.531589 
L 123.422853 230.972407 
L 124.118983 230.972407 
L 124.118983 229.854042 
L 124.232309 229.854042 
L 124.232309 229.29486 
L 124.344892 229.29486 
L 124.344892 228.735678 
L 124.896992 228.735678 
L 124.896992 228.176496 
L 125.219927 228.176496 
L 125.219927 227.617313 
L 126.052518 227.617313 
L 126.052518 227.058131 
L 127.230272 227.058131 
L 127.230272 226.498949 
L 127.512506 226.498949 
L 127.512506 225.939767 
L 129.944481 225.939767 
L 129.944481 225.380584 
L 131.042407 225.380584 
L 131.042407 224.26222 
L 131.639644 224.26222 
L 131.639644 223.703038 
L 131.858358 223.703038 
L 131.858358 222.584673 
L 132.498265 222.584673 
L 132.498265 222.025491 
L 133.115176 222.025491 
L 133.115176 221.466309 
L 134.159991 221.466309 
L 134.159991 220.907126 
L 134.411553 220.907126 
L 134.411553 220.347944 
L 134.72091 220.347944 
L 134.72091 219.788762 
L 136.523695 219.788762 
L 136.523695 219.22958 
L 138.054344 219.22958 
L 138.054344 218.670397 
L 138.892015 218.670397 
L 138.892015 218.111215 
L 143.206792 218.111215 
L 143.206792 217.552033 
L 143.355764 217.552033 
L 143.355764 216.433669 
L 144.293791 216.433669 
L 144.293791 215.874486 
L 146.374406 215.874486 
L 146.374406 215.315304 
L 146.895178 215.315304 
L 146.895178 214.756122 
L 151.999505 214.756122 
L 151.999505 214.19694 
L 166.369611 214.19694 
L 166.369611 213.637757 
L 166.591396 213.637757 
L 166.591396 213.078575 
L 167.110417 213.078575 
L 167.110417 212.519393 
L 167.240064 212.519393 
L 167.240064 211.960211 
L 168.373467 211.960211 
L 168.373467 211.401028 
L 168.519659 211.401028 
L 168.519659 210.841846 
L 168.900734 210.841846 
L 168.900734 210.282664 
L 171.918952 210.282664 
L 171.918952 209.723482 
L 176.443964 209.723482 
L 176.443964 209.164299 
L 177.173089 209.164299 
L 177.173089 208.605117 
L 177.742893 208.605117 
L 177.742893 208.045935 
L 177.966611 208.045935 
L 177.966611 207.486753 
L 178.206944 207.486753 
L 178.294392 205.809206 
L 178.639795 205.809206 
L 178.639795 205.250024 
L 180.48003 205.250024 
L 180.48003 204.690841 
L 183.586085 204.690841 
L 183.586085 204.131659 
L 183.75262 204.131659 
L 183.75262 203.572477 
L 185.888453 203.572477 
L 185.888453 203.013295 
L 188.371464 203.013295 
L 188.470869 201.89493 
L 192.303593 201.89493 
L 192.303593 201.335748 
L 194.177531 201.335748 
L 194.177531 200.776566 
L 195.370511 200.776566 
L 195.370511 200.217384 
L 196.38826 200.217384 
L 196.38826 199.658201 
L 198.219461 199.658201 
L 198.219461 199.099019 
L 202.200535 199.099019 
L 202.200535 198.539837 
L 205.53149 198.539837 
L 205.53149 197.980655 
L 205.833283 197.980655 
L 205.833283 197.421472 
L 207.180292 197.421472 
L 207.180292 196.86229 
L 208.591016 196.86229 
L 208.591016 196.303108 
L 211.22183 196.303108 
L 211.22183 195.743926 
L 212.358114 195.743926 
L 212.358114 195.184743 
L 215.033143 195.184743 
L 215.033143 194.625561 
L 215.217472 194.625561 
L 215.217472 194.066379 
L 216.898193 194.066379 
L 216.898193 193.507197 
L 217.369929 193.507197 
L 217.369929 192.948014 
L 218.11638 192.948014 
L 218.11638 192.388832 
L 219.606492 192.388832 
L 219.606492 191.82965 
L 225.472471 191.82965 
L 225.472471 191.270468 
L 226.414413 191.270468 
L 226.414413 190.711285 
L 228.101089 190.711285 
L 228.101089 190.152103 
L 231.168851 190.152103 
L 231.168851 189.592921 
L 232.534435 189.592921 
L 232.534435 189.033739 
L 235.624345 189.033739 
L 235.624345 188.474556 
L 236.410387 188.474556 
L 236.410387 187.915374 
L 333.569032 187.915374 
L 333.569032 187.915374 
" style="fill:none;stroke:#ff00ff;stroke-linecap:square;stroke-width:1.5;"/>
   </g>
   <g id="line2d_30">
    <defs>
     <path d="M -0 8.485281 
L 5.091169 0 
L 0 -8.485281 
L -5.091169 -0 
z
" id="mc03e9d33a4" style="stroke:#ff00ff;stroke-linejoin:miter;stroke-width:1.5;"/>
    </defs>
    <g>
     <use style="fill-opacity:0;stroke:#ff00ff;stroke-linejoin:miter;stroke-width:1.5;" x="87.602435" xlink:href="#mc03e9d33a4" y="253.898879"/>
     <use style="fill-opacity:0;stroke:#ff00ff;stroke-linejoin:miter;stroke-width:1.5;" x="151.999505" xlink:href="#mc03e9d33a4" y="214.756122"/>
     <use style="fill-opacity:0;stroke:#ff00ff;stroke-linejoin:miter;stroke-width:1.5;" x="228.101089" xlink:href="#mc03e9d33a4" y="190.152103"/>
     <use style="fill-opacity:0;stroke:#ff00ff;stroke-linejoin:miter;stroke-width:1.5;" x="236.410387" xlink:href="#mc03e9d33a4" y="187.915374"/>
     <use style="fill-opacity:0;stroke:#ff00ff;stroke-linejoin:miter;stroke-width:1.5;" x="236.410387" xlink:href="#mc03e9d33a4" y="187.915374"/>
     <use style="fill-opacity:0;stroke:#ff00ff;stroke-linejoin:miter;stroke-width:1.5;" x="333.569032" xlink:href="#mc03e9d33a4" y="187.915374"/>
    </g>
   </g>
   <g id="line2d_31">
    <path style="fill:none;stroke:#ff00ff;stroke-linecap:square;stroke-width:1.5;"/>
    <g/>
   </g>
   <g id="line2d_32">
    <path clip-path="url(#pa35d4be10e)" d="M 164.100586 214.19694 
" style="fill:none;stroke:#ff00ff;stroke-linecap:square;stroke-width:1.5;"/>
    <defs>
     <path d="M -12 12 
L 12 -12 
M -12 -12 
L 12 12 
" id="mbc236056a7" style="stroke:#ff00ff;stroke-width:3;"/>
    </defs>
    <g clip-path="url(#pa35d4be10e)">
     <use style="fill:#ff00ff;stroke:#ff00ff;stroke-width:3;" x="164.100586" xlink:href="#mbc236056a7" y="214.19694"/>
    </g>
   </g>
   <g id="line2d_33">
    <defs>
     <path d="M 0 1.5 
C 0.397805 1.5 0.77937 1.341951 1.06066 1.06066 
C 1.341951 0.77937 1.5 0.397805 1.5 0 
C 1.5 -0.397805 1.341951 -0.77937 1.06066 -1.06066 
C 0.77937 -1.341951 0.397805 -1.5 0 -1.5 
C -0.397805 -1.5 -0.77937 -1.341951 -1.06066 -1.06066 
C -1.341951 -0.77937 -1.5 -0.397805 -1.5 0 
C -1.5 0.397805 -1.341951 0.77937 -1.06066 1.06066 
C -0.77937 1.341951 -0.397805 1.5 0 1.5 
z
" id="mf530f7bc07" style="stroke:#ffa500;"/>
    </defs>
    <g>
     <use style="fill:#ffa500;stroke:#ffa500;" x="255.020084" xlink:href="#mf530f7bc07" y="199.099019"/>
     <use style="fill:#ffa500;stroke:#ffa500;" x="255.020084" xlink:href="#mf530f7bc07" y="199.099019"/>
    </g>
   </g>
   <g id="line2d_34">
    <path d="M 37.9781 294.16 
L 37.9781 288.568178 
L 49.878634 288.568178 
L 49.878634 284.09472 
L 56.84 284.09472 
L 56.84 281.298808 
L 61.779168 281.298808 
L 61.779168 280.180444 
L 65.610284 280.180444 
L 65.610284 279.621262 
L 68.740534 279.621262 
L 68.740534 276.825351 
L 71.387123 276.825351 
L 71.387123 275.147804 
L 73.679702 275.147804 
L 73.679702 274.029439 
L 77.510818 274.029439 
L 77.510818 272.911075 
L 79.147184 272.911075 
L 79.147184 271.79271 
L 80.641068 271.79271 
L 80.641068 270.674346 
L 82.015309 270.674346 
L 82.015309 270.115164 
L 83.287657 270.115164 
L 83.287657 269.555981 
L 84.472185 269.555981 
L 84.472185 268.996799 
L 85.580236 268.996799 
L 85.580236 268.437617 
L 87.602435 268.437617 
L 87.602435 267.878435 
L 88.530706 267.878435 
L 88.530706 266.76007 
L 89.411353 266.76007 
L 89.411353 266.200888 
L 90.249023 266.200888 
L 90.249023 265.082523 
L 91.047718 265.082523 
L 91.047718 263.964159 
L 93.242469 263.964159 
L 93.242469 263.404977 
L 95.790669 263.404977 
L 95.790669 262.845795 
L 96.935682 262.845795 
L 96.935682 262.286612 
L 97.480771 262.286612 
L 97.480771 261.72743 
L 98.009084 261.72743 
L 98.009084 260.609066 
L 99.973377 260.609066 
L 99.973377 260.049883 
L 101.73583 260.049883 
L 101.73583 259.490701 
L 102.553549 259.490701 
L 102.553549 258.931519 
L 105.816377 258.931519 
L 105.816377 258.372337 
L 107.691203 258.372337 
L 107.691203 257.813154 
L 108.557042 257.813154 
L 108.557042 257.253972 
L 109.110924 257.253972 
L 109.110924 256.69479 
L 111.403503 256.69479 
L 111.403503 256.135608 
L 112.777744 256.135608 
L 112.777744 255.017243 
L 112.996458 255.017243 
L 112.996458 254.458061 
L 114.454083 254.458061 
L 114.454083 253.898879 
L 116.520588 253.898879 
L 116.520588 253.339696 
L 117.716912 253.339696 
L 117.716912 252.780514 
L 117.881208 252.780514 
L 117.881208 252.221332 
L 125.112955 252.221332 
L 125.112955 251.66215 
L 125.43189 251.66215 
L 125.43189 251.102967 
L 129.534704 251.102967 
L 129.534704 250.543785 
L 129.944481 250.543785 
L 130.025276 248.866238 
L 130.344705 248.866238 
L 130.344705 248.307056 
L 131.418108 248.307056 
L 131.418108 247.747874 
L 136.076273 247.747874 
L 136.076273 247.188692 
L 137.385009 247.188692 
L 137.385009 246.62951 
L 137.593751 246.62951 
L 137.593751 246.070327 
L 138.354681 246.070327 
L 138.354681 245.511145 
L 139.963959 245.511145 
L 139.963959 244.951963 
L 141.352096 244.951963 
L 141.352096 244.392781 
L 148.967593 244.392781 
L 148.967593 243.833598 
L 150.105704 243.833598 
L 150.105704 243.274416 
L 158.810793 243.274416 
L 158.810793 242.715234 
L 160.421102 242.715234 
L 160.448528 241.596869 
L 160.639295 241.596869 
L 160.639295 241.037687 
L 163.594757 241.037687 
L 163.594757 240.478505 
L 164.827131 240.478505 
L 164.827131 239.919323 
L 165.452659 239.919323 
L 165.452659 239.36014 
L 166.125245 239.36014 
L 166.125245 238.241776 
L 167.110417 238.241776 
L 167.110417 237.682594 
L 167.441837 237.682594 
L 167.441837 237.123411 
L 167.659281 237.123411 
L 167.659281 236.564229 
L 167.927271 236.564229 
L 167.927271 236.005047 
L 168.191141 236.005047 
L 168.191141 235.445865 
L 169.017586 235.445865 
L 169.017586 234.886682 
L 170.741448 234.886682 
L 170.741448 234.3275 
L 173.230394 234.3275 
L 173.230394 233.768318 
L 176.7011 233.768318 
L 176.7011 233.209136 
L 177.121282 233.209136 
L 177.121282 232.649954 
L 177.657613 232.649954 
L 177.657613 232.090771 
L 178.333115 232.090771 
L 178.434349 230.413225 
L 179.640653 230.413225 
L 179.640653 229.854042 
L 179.774541 229.854042 
L 179.774541 229.29486 
L 183.2081 229.29486 
L 183.2081 228.735678 
L 183.928028 228.735678 
L 183.928028 228.176496 
L 184.129282 228.176496 
L 184.129282 227.617313 
L 184.382676 227.617313 
L 184.382676 227.058131 
L 188.470869 227.058131 
L 188.470869 226.498949 
L 188.630853 226.498949 
L 188.734049 225.380584 
L 188.907288 225.380584 
L 188.907288 224.821402 
L 190.67751 224.821402 
L 190.67751 224.26222 
L 192.442319 224.26222 
L 192.442319 223.703038 
L 193.09917 223.703038 
L 193.09917 223.143855 
L 195.392005 223.143855 
L 195.392005 222.584673 
L 195.539944 222.584673 
L 195.539944 222.025491 
L 195.790126 222.025491 
L 195.790126 221.466309 
L 196.472512 221.466309 
L 196.472512 220.907126 
L 197.542807 220.907126 
L 197.542807 220.347944 
L 198.331449 220.347944 
L 198.331449 219.788762 
L 200.388807 219.788762 
L 200.388807 219.22958 
L 200.786916 219.22958 
L 200.786916 218.670397 
L 203.806334 218.670397 
L 203.806334 218.111215 
L 206.935304 218.111215 
L 206.935304 217.552033 
L 207.062771 217.552033 
L 207.173083 216.433669 
L 208.389008 216.433669 
L 208.389008 215.874486 
L 208.64239 215.874486 
L 208.668019 214.756122 
L 210.385156 214.756122 
L 210.385156 214.19694 
L 210.835916 214.19694 
L 210.835916 213.637757 
L 211.578353 213.637757 
L 211.578353 213.078575 
L 211.955614 213.078575 
L 211.955614 212.519393 
L 212.222307 212.519393 
L 212.222307 211.960211 
L 215.210701 211.960211 
L 215.210701 211.401028 
L 216.743013 211.401028 
L 216.743013 210.841846 
L 219.588133 210.841846 
L 219.588133 210.282664 
L 220.857326 210.282664 
L 220.857326 209.723482 
L 221.816631 209.723482 
L 221.816631 209.164299 
L 224.311543 209.164299 
L 224.311543 208.605117 
L 226.194075 208.605117 
L 226.194075 208.045935 
L 227.186412 208.045935 
L 227.256785 206.92757 
L 230.015008 206.92757 
L 230.015008 206.368388 
L 231.430182 206.368388 
L 231.430182 205.809206 
L 232.26966 205.809206 
L 232.26966 205.250024 
L 233.944391 205.250024 
L 233.944391 204.690841 
L 234.529613 204.690841 
L 234.529613 204.131659 
L 235.162231 204.131659 
L 235.162231 203.572477 
L 236.648257 203.572477 
L 236.648257 203.013295 
L 237.141258 203.013295 
L 237.141258 202.454112 
L 238.58609 202.454112 
L 238.58609 201.89493 
L 239.04954 201.89493 
L 239.04954 201.335748 
L 240.529106 201.335748 
L 240.529106 200.776566 
L 242.418711 200.776566 
L 242.418711 200.217384 
L 243.812324 200.217384 
L 243.812324 199.658201 
L 255.020084 199.658201 
L 255.020084 199.099019 
L 333.569032 199.099019 
L 333.569032 199.099019 
" style="fill:none;stroke:#ffa500;stroke-linecap:square;stroke-width:1.5;"/>
   </g>
   <g id="line2d_35">
    <defs>
     <path d="M 0 -6 
L -1.347084 -1.854102 
L -5.706339 -1.854102 
L -2.179628 0.708204 
L -3.526712 4.854102 
L -0 2.291796 
L 3.526712 4.854102 
L 2.179628 0.708204 
L 5.706339 -1.854102 
L 1.347084 -1.854102 
z
" id="m081b31aea6" style="stroke:#ffa500;stroke-linejoin:bevel;stroke-width:1.5;"/>
    </defs>
    <g>
     <use style="fill-opacity:0;stroke:#ffa500;stroke-linejoin:bevel;stroke-width:1.5;" x="93.242469" xlink:href="#m081b31aea6" y="263.964159"/>
     <use style="fill-opacity:0;stroke:#ffa500;stroke-linejoin:bevel;stroke-width:1.5;" x="160.639295" xlink:href="#m081b31aea6" y="241.596869"/>
     <use style="fill-opacity:0;stroke:#ffa500;stroke-linejoin:bevel;stroke-width:1.5;" x="226.194075" xlink:href="#m081b31aea6" y="208.605117"/>
     <use style="fill-opacity:0;stroke:#ffa500;stroke-linejoin:bevel;stroke-width:1.5;" x="255.020084" xlink:href="#m081b31aea6" y="199.658201"/>
     <use style="fill-opacity:0;stroke:#ffa500;stroke-linejoin:bevel;stroke-width:1.5;" x="255.020084" xlink:href="#m081b31aea6" y="199.099019"/>
     <use style="fill-opacity:0;stroke:#ffa500;stroke-linejoin:bevel;stroke-width:1.5;" x="333.569032" xlink:href="#m081b31aea6" y="199.099019"/>
    </g>
   </g>
   <g id="line2d_36">
    <path style="fill:none;stroke:#ffa500;stroke-linecap:square;stroke-width:1.5;"/>
    <g/>
   </g>
   <g id="line2d_37">
    <path clip-path="url(#pa35d4be10e)" d="M 164.100586 240.478505 
" style="fill:none;stroke:#ffa500;stroke-linecap:square;stroke-width:1.5;"/>
    <defs>
     <path d="M -12 12 
L 12 -12 
M -12 -12 
L 12 12 
" id="md41259c869" style="stroke:#ffa500;stroke-width:3;"/>
    </defs>
    <g clip-path="url(#pa35d4be10e)">
     <use style="fill:#ffa500;stroke:#ffa500;stroke-width:3;" x="164.100586" xlink:href="#md41259c869" y="240.478505"/>
    </g>
   </g>
   <g id="line2d_38">
    <defs>
     <path d="M 0 1.5 
C 0.397805 1.5 0.77937 1.341951 1.06066 1.06066 
C 1.341951 0.77937 1.5 0.397805 1.5 0 
C 1.5 -0.397805 1.341951 -0.77937 1.06066 -1.06066 
C 0.77937 -1.341951 0.397805 -1.5 0 -1.5 
C -0.397805 -1.5 -0.77937 -1.341951 -1.06066 -1.06066 
C -1.341951 -0.77937 -1.5 -0.397805 -1.5 0 
C -1.5 0.397805 -1.341951 0.77937 -1.06066 1.06066 
C -0.77937 1.341951 -0.397805 1.5 0 1.5 
z
" id="m9949991b64" style="stroke:#6495ed;"/>
    </defs>
    <g>
     <use style="fill:#6495ed;stroke:#6495ed;" x="235.113611" xlink:href="#m9949991b64" y="204.690841"/>
     <use style="fill:#6495ed;stroke:#6495ed;" x="235.113611" xlink:href="#m9949991b64" y="204.690841"/>
    </g>
   </g>
   <g id="line2d_39">
    <path d="M 37.9781 294.16 
L 37.9781 275.706986 
L 49.878634 275.706986 
L 49.878634 269.555981 
L 56.84 269.555981 
L 56.84 266.76007 
L 61.779168 266.76007 
L 61.779168 265.641706 
L 65.610284 265.641706 
L 65.610284 264.523341 
L 68.740534 264.523341 
L 68.740534 263.404977 
L 71.387123 263.404977 
L 71.387123 262.845795 
L 73.679702 262.845795 
L 73.679702 261.72743 
L 75.7019 261.72743 
L 75.7019 260.609066 
L 79.147184 260.609066 
L 79.147184 260.049883 
L 80.641068 260.049883 
L 80.641068 257.253972 
L 83.287657 257.253972 
L 83.287657 256.69479 
L 85.580236 256.69479 
L 85.580236 256.135608 
L 87.602435 256.135608 
L 87.602435 255.576425 
L 91.047718 255.576425 
L 91.047718 255.017243 
L 92.541603 255.017243 
L 92.541603 253.339696 
L 95.188191 253.339696 
L 95.188191 252.221332 
L 95.790669 252.221332 
L 95.790669 251.66215 
L 98.009084 251.66215 
L 98.009084 251.102967 
L 99.019308 251.102967 
L 99.019308 250.543785 
L 102.149557 250.543785 
L 102.149557 249.425421 
L 105.816377 249.425421 
L 105.816377 248.866238 
L 106.464335 248.866238 
L 106.464335 248.307056 
L 107.088725 248.307056 
L 107.088725 247.747874 
L 107.691203 247.747874 
L 107.691203 246.62951 
L 108.273253 246.62951 
L 108.273253 245.511145 
L 111.403503 245.511145 
L 111.403503 244.951963 
L 115.234619 244.951963 
L 115.234619 244.392781 
L 115.797583 244.392781 
L 115.797583 243.833598 
L 115.981208 243.833598 
L 115.981208 243.274416 
L 118.205158 243.274416 
L 118.205158 242.715234 
L 118.835278 242.715234 
L 118.835278 242.156052 
L 119.141873 242.156052 
L 119.141873 241.596869 
L 121.679591 241.596869 
L 121.679591 241.037687 
L 123.06391 241.037687 
L 123.06391 240.478505 
L 124.232309 240.478505 
L 124.232309 239.919323 
L 125.641269 239.919323 
L 125.641269 239.36014 
L 127.039505 239.36014 
L 127.039505 238.800958 
L 129.451562 238.800958 
L 129.451562 238.241776 
L 131.566116 238.241776 
L 131.566116 237.682594 
L 132.287602 237.682594 
L 132.287602 237.123411 
L 133.775598 237.123411 
L 133.775598 236.564229 
L 134.964444 236.564229 
L 135.024791 235.445865 
L 136.245426 235.445865 
L 136.245426 234.886682 
L 141.268549 234.886682 
L 141.268549 234.3275 
L 143.169347 234.3275 
L 143.169347 233.768318 
L 146.186767 233.768318 
L 146.186767 233.209136 
L 147.948453 233.209136 
L 147.948453 232.649954 
L 164.298817 232.649954 
L 164.298817 232.090771 
L 164.77396 232.090771 
L 164.77396 231.531589 
L 165.605543 231.531589 
L 165.605543 230.972407 
L 165.937173 230.972407 
L 165.937173 230.413225 
L 166.56263 230.413225 
L 166.581813 229.29486 
L 167.230836 229.29486 
L 167.230836 228.735678 
L 167.605178 228.735678 
L 167.605178 228.176496 
L 169.009266 228.176496 
L 169.009266 227.617313 
L 176.182919 227.617313 
L 176.182919 227.058131 
L 177.842683 227.058131 
L 177.882437 225.939767 
L 178.011006 225.939767 
L 178.011006 225.380584 
L 183.2081 225.380584 
L 183.2081 224.821402 
L 183.478936 224.821402 
L 183.478936 224.26222 
L 183.928028 224.26222 
L 183.928028 223.703038 
L 184.046291 223.703038 
L 184.046291 223.143855 
L 184.855381 223.143855 
L 184.855381 222.584673 
L 188.371464 222.584673 
L 188.371464 222.025491 
L 188.831383 222.025491 
L 188.831383 221.466309 
L 192.489019 221.466309 
L 192.489019 220.907126 
L 193.080748 220.907126 
L 193.080748 220.347944 
L 196.864694 220.347944 
L 196.864694 219.788762 
L 202.008012 219.788762 
L 202.008012 219.22958 
L 202.242626 219.22958 
L 202.242626 218.670397 
L 202.500128 218.670397 
L 202.532045 217.552033 
L 203.047434 217.552033 
L 203.047434 216.992851 
L 205.629391 216.992851 
L 205.629391 216.433669 
L 211.055856 216.433669 
L 211.055856 215.874486 
L 212.106392 215.874486 
L 212.106392 215.315304 
L 214.382904 215.315304 
L 214.382904 214.756122 
L 216.497636 214.756122 
L 216.497636 214.19694 
L 217.53732 214.19694 
L 217.53732 213.637757 
L 218.055281 213.637757 
L 218.055281 213.078575 
L 218.975547 213.078575 
L 218.975547 212.519393 
L 222.701099 212.519393 
L 222.701099 211.960211 
L 225.383767 211.960211 
L 225.383767 211.401028 
L 226.194372 211.401028 
L 226.194372 210.841846 
L 227.249789 210.841846 
L 227.249789 210.282664 
L 228.457496 210.282664 
L 228.457496 209.723482 
L 230.047145 209.723482 
L 230.047145 209.164299 
L 230.534597 209.164299 
L 230.534597 208.605117 
L 230.72083 208.605117 
L 230.72083 208.045935 
L 231.46175 208.045935 
L 231.46175 207.486753 
L 232.051391 207.486753 
L 232.051391 206.92757 
L 232.388557 206.92757 
L 232.388557 206.368388 
L 233.767793 206.368388 
L 233.767793 205.809206 
L 233.977149 205.809206 
L 233.977149 205.250024 
L 235.113611 205.250024 
L 235.113611 204.690841 
L 333.569032 204.690841 
L 333.569032 204.690841 
" style="fill:none;stroke:#6495ed;stroke-linecap:square;stroke-width:1.5;"/>
   </g>
   <g id="line2d_40">
    <defs>
     <path d="M -0 6 
L 6 -6 
L -6 -6 
z
" id="m70d9e55fc6" style="stroke:#6495ed;stroke-linejoin:miter;stroke-width:1.5;"/>
    </defs>
    <g>
     <use style="fill-opacity:0;stroke:#6495ed;stroke-linejoin:miter;stroke-width:1.5;" x="95.790669" xlink:href="#m70d9e55fc6" y="251.66215"/>
     <use style="fill-opacity:0;stroke:#6495ed;stroke-linejoin:miter;stroke-width:1.5;" x="178.011006" xlink:href="#m70d9e55fc6" y="225.380584"/>
     <use style="fill-opacity:0;stroke:#6495ed;stroke-linejoin:miter;stroke-width:1.5;" x="235.113611" xlink:href="#m70d9e55fc6" y="205.250024"/>
     <use style="fill-opacity:0;stroke:#6495ed;stroke-linejoin:miter;stroke-width:1.5;" x="235.113611" xlink:href="#m70d9e55fc6" y="204.690841"/>
     <use style="fill-opacity:0;stroke:#6495ed;stroke-linejoin:miter;stroke-width:1.5;" x="235.113611" xlink:href="#m70d9e55fc6" y="204.690841"/>
     <use style="fill-opacity:0;stroke:#6495ed;stroke-linejoin:miter;stroke-width:1.5;" x="333.569032" xlink:href="#m70d9e55fc6" y="204.690841"/>
    </g>
   </g>
   <g id="line2d_41">
    <path style="fill:none;stroke:#6495ed;stroke-linecap:square;stroke-width:1.5;"/>
    <g/>
   </g>
   <g id="line2d_42">
    <path clip-path="url(#pa35d4be10e)" d="M 164.100586 232.649954 
" style="fill:none;stroke:#6495ed;stroke-linecap:square;stroke-width:1.5;"/>
    <defs>
     <path d="M -12 12 
L 12 -12 
M -12 -12 
L 12 12 
" id="mcd3c151453" style="stroke:#6495ed;stroke-width:3;"/>
    </defs>
    <g clip-path="url(#pa35d4be10e)">
     <use style="fill:#6495ed;stroke:#6495ed;stroke-width:3;" x="164.100586" xlink:href="#mcd3c151453" y="232.649954"/>
    </g>
   </g>
   <g id="line2d_43">
    <defs>
     <path d="M 0 1.5 
C 0.397805 1.5 0.77937 1.341951 1.06066 1.06066 
C 1.341951 0.77937 1.5 0.397805 1.5 0 
C 1.5 -0.397805 1.341951 -0.77937 1.06066 -1.06066 
C 0.77937 -1.341951 0.397805 -1.5 0 -1.5 
C -0.397805 -1.5 -0.77937 -1.341951 -1.06066 -1.06066 
C -1.341951 -0.77937 -1.5 -0.397805 -1.5 0 
C -1.5 0.397805 -1.341951 0.77937 -1.06066 1.06066 
C -0.77937 1.341951 -0.397805 1.5 0 1.5 
z
" id="m4dd063f38b" style="stroke:#ff0000;"/>
    </defs>
    <g>
     <use style="fill:#ff0000;stroke:#ff0000;" x="253.322562" xlink:href="#m4dd063f38b" y="232.649954"/>
     <use style="fill:#ff0000;stroke:#ff0000;" x="253.322562" xlink:href="#m4dd063f38b" y="232.649954"/>
    </g>
   </g>
   <g id="line2d_44">
    <path d="M 37.9781 294.16 
L 37.9781 290.804907 
L 49.878634 290.804907 
L 49.878634 288.568178 
L 56.84 288.568178 
L 56.84 288.008995 
L 61.779168 288.008995 
L 61.779168 286.890631 
L 71.387123 286.890631 
L 71.387123 285.213084 
L 73.679702 285.213084 
L 73.679702 283.535537 
L 79.147184 283.535537 
L 79.147184 282.976355 
L 80.641068 282.976355 
L 80.641068 281.298808 
L 82.015309 281.298808 
L 82.015309 280.180444 
L 85.580236 280.180444 
L 85.580236 277.943715 
L 91.810903 277.943715 
L 91.810903 277.384533 
L 94.563801 277.384533 
L 94.563801 276.825351 
L 95.188191 276.825351 
L 95.188191 276.266168 
L 99.973377 276.266168 
L 99.973377 275.706986 
L 100.43124 275.706986 
L 100.43124 275.147804 
L 103.334085 275.147804 
L 103.334085 274.588622 
L 104.442137 274.588622 
L 104.442137 274.029439 
L 107.691203 274.029439 
L 107.691203 273.470257 
L 108.273253 273.470257 
L 108.273253 272.911075 
L 108.836216 272.911075 
L 108.836216 272.351893 
L 111.873912 272.351893 
L 111.873912 271.79271 
L 112.777744 271.79271 
L 112.777744 271.233528 
L 117.716912 271.233528 
L 117.716912 270.674346 
L 121.281839 270.674346 
L 121.281839 270.115164 
L 121.679591 270.115164 
L 121.679591 269.555981 
L 124.456741 269.555981 
L 124.456741 268.996799 
L 124.678278 268.996799 
L 124.678278 268.437617 
L 126.254507 268.437617 
L 126.254507 267.878435 
L 128.243205 267.878435 
L 128.243205 267.319252 
L 130.423643 267.319252 
L 130.423643 266.76007 
L 131.118207 266.76007 
L 131.118207 266.200888 
L 131.418108 266.200888 
L 131.418108 265.641706 
L 133.382401 265.641706 
L 133.382401 265.082523 
L 137.541803 265.082523 
L 137.541803 264.523341 
L 138.649855 264.523341 
L 138.649855 263.964159 
L 139.272503 263.964159 
L 139.272503 263.404977 
L 140.930236 263.404977 
L 140.930236 262.845795 
L 141.100226 262.845795 
L 141.184594 261.72743 
L 141.559202 261.72743 
L 141.559202 261.168248 
L 143.867214 261.168248 
L 143.867214 260.049883 
L 149.494285 260.049883 
L 149.520201 258.931519 
L 153.397866 258.931519 
L 153.397866 258.372337 
L 154.975908 258.372337 
L 154.975908 257.813154 
L 155.42236 257.813154 
L 155.42236 257.253972 
L 155.857496 257.253972 
L 155.857496 256.69479 
L 156.831876 256.69479 
L 156.831876 256.135608 
L 159.050292 256.135608 
L 159.050292 255.576425 
L 159.877342 255.576425 
L 159.877342 255.017243 
L 162.931875 255.017243 
L 162.931875 254.458061 
L 163.33035 254.458061 
L 163.33035 253.898879 
L 163.832666 253.898879 
L 163.832666 252.780514 
L 169.485297 252.780514 
L 169.485297 252.221332 
L 170.136552 252.221332 
L 170.136552 251.66215 
L 170.995363 251.66215 
L 170.995363 251.102967 
L 174.897498 251.102967 
L 174.897498 250.543785 
L 179.889739 250.543785 
L 179.889739 249.984603 
L 181.284348 249.984603 
L 181.284348 249.425421 
L 181.397969 249.425421 
L 181.397969 248.866238 
L 185.785393 248.866238 
L 185.785393 248.307056 
L 190.061145 248.307056 
L 190.061145 247.747874 
L 190.904512 247.747874 
L 190.904512 247.188692 
L 191.639473 247.188692 
L 191.639473 246.62951 
L 192.342122 246.62951 
L 192.342122 246.070327 
L 193.052051 246.070327 
L 193.052051 245.511145 
L 194.08506 245.511145 
L 194.08506 244.951963 
L 196.014286 244.951963 
L 196.014286 244.392781 
L 196.558025 244.392781 
L 196.558025 243.833598 
L 200.909375 243.833598 
L 200.909375 243.274416 
L 201.346421 243.274416 
L 201.346421 242.715234 
L 201.497612 242.715234 
L 201.497612 242.156052 
L 209.60681 242.156052 
L 209.60681 241.596869 
L 210.170783 241.596869 
L 210.170783 241.037687 
L 211.519677 241.037687 
L 211.519677 240.478505 
L 213.467624 240.478505 
L 213.467624 239.919323 
L 216.23116 239.919323 
L 216.278955 238.241776 
L 221.082091 238.241776 
L 221.082091 237.682594 
L 221.193578 237.682594 
L 221.193578 237.123411 
L 222.464532 237.123411 
L 222.464532 236.564229 
L 223.564098 236.564229 
L 223.564098 236.005047 
L 224.008955 236.005047 
L 224.008955 235.445865 
L 231.803279 235.445865 
L 231.803279 234.886682 
L 236.08857 234.886682 
L 236.08857 234.3275 
L 245.159842 234.3275 
L 245.159842 233.768318 
L 250.431649 233.768318 
L 250.431649 233.209136 
L 253.322562 233.209136 
L 253.322562 232.649954 
L 333.569032 232.649954 
L 333.569032 232.649954 
" style="fill:none;stroke:#ff0000;stroke-linecap:square;stroke-width:1.5;"/>
   </g>
   <g id="line2d_45">
    <defs>
     <path d="M 0 -6 
L -5.196152 -3 
L -5.196152 3 
L -0 6 
L 5.196152 3 
L 5.196152 -3 
z
" id="m37a5c533be" style="stroke:#ff0000;stroke-linejoin:miter;stroke-width:1.5;"/>
    </defs>
    <g>
     <use style="fill-opacity:0;stroke:#ff0000;stroke-linejoin:miter;stroke-width:1.5;" x="108.836216" xlink:href="#m37a5c533be" y="272.911075"/>
     <use style="fill-opacity:0;stroke:#ff0000;stroke-linejoin:miter;stroke-width:1.5;" x="163.832666" xlink:href="#m37a5c533be" y="252.780514"/>
     <use style="fill-opacity:0;stroke:#ff0000;stroke-linejoin:miter;stroke-width:1.5;" x="224.008955" xlink:href="#m37a5c533be" y="235.445865"/>
     <use style="fill-opacity:0;stroke:#ff0000;stroke-linejoin:miter;stroke-width:1.5;" x="253.322562" xlink:href="#m37a5c533be" y="232.649954"/>
     <use style="fill-opacity:0;stroke:#ff0000;stroke-linejoin:miter;stroke-width:1.5;" x="253.322562" xlink:href="#m37a5c533be" y="232.649954"/>
     <use style="fill-opacity:0;stroke:#ff0000;stroke-linejoin:miter;stroke-width:1.5;" x="333.569032" xlink:href="#m37a5c533be" y="232.649954"/>
    </g>
   </g>
   <g id="line2d_46">
    <path style="fill:none;stroke:#ff0000;stroke-linecap:square;stroke-width:1.5;"/>
    <g/>
   </g>
   <g id="line2d_47">
    <path clip-path="url(#pa35d4be10e)" d="M 164.100586 252.780514 
" style="fill:none;stroke:#ff0000;stroke-linecap:square;stroke-width:1.5;"/>
    <defs>
     <path d="M -12 12 
L 12 -12 
M -12 -12 
L 12 12 
" id="me2e15f9c4f" style="stroke:#ff0000;stroke-width:3;"/>
    </defs>
    <g clip-path="url(#pa35d4be10e)">
     <use style="fill:#ff0000;stroke:#ff0000;stroke-width:3;" x="164.100586" xlink:href="#me2e15f9c4f" y="252.780514"/>
    </g>
   </g>
   <g id="line2d_48">
    <path d="M 333.569032 232.649954 
L 364.009226 288.456341 
" style="fill:none;stroke:#ff0000;stroke-linecap:square;stroke-width:1.5;"/>
    <g>
     <use style="fill-opacity:0;stroke:#ff0000;stroke-linejoin:miter;stroke-width:1.5;" x="333.569032" xlink:href="#m37a5c533be" y="232.649954"/>
     <use style="fill-opacity:0;stroke:#ff0000;stroke-linejoin:miter;stroke-width:1.5;" x="364.009226" xlink:href="#m37a5c533be" y="288.456341"/>
    </g>
   </g>
   <g id="line2d_49">
    <path d="M 333.569032 204.690841 
L 364.009226 220.012435 
" style="fill:none;stroke:#000080;stroke-linecap:square;stroke-width:1.5;"/>
    <g>
     <use style="fill-opacity:0;stroke:#000080;stroke-width:1.5;" x="333.569032" xlink:href="#m01e3e01c7f" y="204.690841"/>
     <use style="fill-opacity:0;stroke:#000080;stroke-width:1.5;" x="364.009226" xlink:href="#m01e3e01c7f" y="220.012435"/>
    </g>
   </g>
   <g id="line2d_50">
    <path d="M 333.569032 204.690841 
L 364.009226 151.568529 
" style="fill:none;stroke:#6495ed;stroke-linecap:square;stroke-width:1.5;"/>
    <g>
     <use style="fill-opacity:0;stroke:#6495ed;stroke-linejoin:miter;stroke-width:1.5;" x="333.569032" xlink:href="#m70d9e55fc6" y="204.690841"/>
     <use style="fill-opacity:0;stroke:#6495ed;stroke-linejoin:miter;stroke-width:1.5;" x="364.009226" xlink:href="#m70d9e55fc6" y="151.568529"/>
    </g>
   </g>
   <g id="line2d_51">
    <path d="M 333.569032 199.099019 
L 364.009226 83.124622 
" style="fill:none;stroke:#ffa500;stroke-linecap:square;stroke-width:1.5;"/>
    <g>
     <use style="fill-opacity:0;stroke:#ffa500;stroke-linejoin:bevel;stroke-width:1.5;" x="333.569032" xlink:href="#m081b31aea6" y="199.099019"/>
     <use style="fill-opacity:0;stroke:#ffa500;stroke-linejoin:bevel;stroke-width:1.5;" x="364.009226" xlink:href="#m081b31aea6" y="83.124622"/>
    </g>
   </g>
   <g id="line2d_52">
    <path d="M 333.569032 187.915374 
L 364.009226 14.680716 
" style="fill:none;stroke:#ff00ff;stroke-linecap:square;stroke-width:1.5;"/>
    <g>
     <use style="fill-opacity:0;stroke:#ff00ff;stroke-linejoin:miter;stroke-width:1.5;" x="333.569032" xlink:href="#mc03e9d33a4" y="187.915374"/>
     <use style="fill-opacity:0;stroke:#ff00ff;stroke-linejoin:miter;stroke-width:1.5;" x="364.009226" xlink:href="#mc03e9d33a4" y="14.680716"/>
    </g>
   </g>
   <g id="line2d_53">
    <path d="M 333.569032 294.16 
L 333.569032 8.977057 
" style="fill:none;stroke:#000000;stroke-linecap:square;stroke-width:1.5;"/>
   </g>
   <g id="patch_3">
    <path d="M 56.84 294.16 
L 56.84 6.125228 
" style="fill:none;stroke:#000000;stroke-linecap:square;stroke-linejoin:miter;stroke-width:0.8;"/>
   </g>
   <g id="patch_4">
    <path d="M 399.984 294.16 
L 399.984 6.125228 
" style="fill:none;stroke:#000000;stroke-linecap:square;stroke-linejoin:miter;stroke-width:0.8;"/>
   </g>
   <g id="patch_5">
    <path d="M 56.84 294.16 
L 399.984 294.16 
" style="fill:none;stroke:#000000;stroke-linecap:square;stroke-linejoin:miter;stroke-width:0.8;"/>
   </g>
   <g id="patch_6">
    <path d="M 56.84 6.125228 
L 399.984 6.125228 
" style="fill:none;stroke:#000000;stroke-linecap:square;stroke-linejoin:miter;stroke-width:0.8;"/>
   </g>
   <g id="text_14">
    <!-- f15 -->
    <defs>
     <path d="M 10.796875 72.90625 
L 49.515625 72.90625 
L 49.515625 64.59375 
L 19.828125 64.59375 
L 19.828125 46.734375 
Q 21.96875 47.46875 24.109375 47.828125 
Q 26.265625 48.1875 28.421875 48.1875 
Q 40.625 48.1875 47.75 41.5 
Q 54.890625 34.8125 54.890625 23.390625 
Q 54.890625 11.625 47.5625 5.09375 
Q 40.234375 -1.421875 26.90625 -1.421875 
Q 22.3125 -1.421875 17.546875 -0.640625 
Q 12.796875 0.140625 7.71875 1.703125 
L 7.71875 11.625 
Q 12.109375 9.234375 16.796875 8.0625 
Q 21.484375 6.890625 26.703125 6.890625 
Q 35.15625 6.890625 40.078125 11.328125 
Q 45.015625 15.765625 45.015625 23.390625 
Q 45.015625 31 40.078125 35.4375 
Q 35.15625 39.890625 26.703125 39.890625 
Q 22.75 39.890625 18.8125 39.015625 
Q 14.890625 38.140625 10.796875 36.28125 
z
" id="DejaVuSans-35"/>
    </defs>
    <g transform="translate(369.543806 293.147279)scale(0.17 -0.17)">
     <use xlink:href="#DejaVuSans-66"/>
     <use x="35.205078" xlink:href="#DejaVuSans-31"/>
     <use x="98.828125" xlink:href="#DejaVuSans-35"/>
    </g>
   </g>
   <g id="text_15">
    <!-- f18 -->
    <g transform="translate(369.543806 224.703372)scale(0.17 -0.17)">
     <use xlink:href="#DejaVuSans-66"/>
     <use x="35.205078" xlink:href="#DejaVuSans-31"/>
     <use x="98.828125" xlink:href="#DejaVuSans-38"/>
    </g>
   </g>
   <g id="text_16">
    <!-- f17 -->
    <defs>
     <path d="M 8.203125 72.90625 
L 55.078125 72.90625 
L 55.078125 68.703125 
L 28.609375 0 
L 18.3125 0 
L 43.21875 64.59375 
L 8.203125 64.59375 
z
" id="DejaVuSans-37"/>
    </defs>
    <g transform="translate(369.543806 156.259466)scale(0.17 -0.17)">
     <use xlink:href="#DejaVuSans-66"/>
     <use x="35.205078" xlink:href="#DejaVuSans-31"/>
     <use x="98.828125" xlink:href="#DejaVuSans-37"/>
    </g>
   </g>
   <g id="text_17">
    <!-- f16 -->
    <g transform="translate(369.543806 87.81556)scale(0.17 -0.17)">
     <use xlink:href="#DejaVuSans-66"/>
     <use x="35.205078" xlink:href="#DejaVuSans-31"/>
     <use x="98.828125" xlink:href="#DejaVuSans-36"/>
    </g>
   </g>
   <g id="text_18">
    <!-- f19 -->
    <defs>
     <path d="M 10.984375 1.515625 
L 10.984375 10.5 
Q 14.703125 8.734375 18.5 7.8125 
Q 22.3125 6.890625 25.984375 6.890625 
Q 35.75 6.890625 40.890625 13.453125 
Q 46.046875 20.015625 46.78125 33.40625 
Q 43.953125 29.203125 39.59375 26.953125 
Q 35.25 24.703125 29.984375 24.703125 
Q 19.046875 24.703125 12.671875 31.3125 
Q 6.296875 37.9375 6.296875 49.421875 
Q 6.296875 60.640625 12.9375 67.421875 
Q 19.578125 74.21875 30.609375 74.21875 
Q 43.265625 74.21875 49.921875 64.515625 
Q 56.59375 54.828125 56.59375 36.375 
Q 56.59375 19.140625 48.40625 8.859375 
Q 40.234375 -1.421875 26.421875 -1.421875 
Q 22.703125 -1.421875 18.890625 -0.6875 
Q 15.09375 0.046875 10.984375 1.515625 
z
M 30.609375 32.421875 
Q 37.25 32.421875 41.125 36.953125 
Q 45.015625 41.5 45.015625 49.421875 
Q 45.015625 57.28125 41.125 61.84375 
Q 37.25 66.40625 30.609375 66.40625 
Q 23.96875 66.40625 20.09375 61.84375 
Q 16.21875 57.28125 16.21875 49.421875 
Q 16.21875 41.5 20.09375 36.953125 
Q 23.96875 32.421875 30.609375 32.421875 
z
" id="DejaVuSans-39"/>
    </defs>
    <g transform="translate(369.543806 19.371654)scale(0.17 -0.17)">
     <use xlink:href="#DejaVuSans-66"/>
     <use x="35.205078" xlink:href="#DejaVuSans-31"/>
     <use x="98.828125" xlink:href="#DejaVuSans-39"/>
    </g>
   </g>
   <g id="text_19">
    <!-- bbob -->
    <defs>
     <path d="M 48.6875 27.296875 
Q 48.6875 37.203125 44.609375 42.84375 
Q 40.53125 48.484375 33.40625 48.484375 
Q 26.265625 48.484375 22.1875 42.84375 
Q 18.109375 37.203125 18.109375 27.296875 
Q 18.109375 17.390625 22.1875 11.75 
Q 26.265625 6.109375 33.40625 6.109375 
Q 40.53125 6.109375 44.609375 11.75 
Q 48.6875 17.390625 48.6875 27.296875 
z
M 18.109375 46.390625 
Q 20.953125 51.265625 25.265625 53.625 
Q 29.59375 56 35.59375 56 
Q 45.5625 56 51.78125 48.09375 
Q 58.015625 40.1875 58.015625 27.296875 
Q 58.015625 14.40625 51.78125 6.484375 
Q 45.5625 -1.421875 35.59375 -1.421875 
Q 29.59375 -1.421875 25.265625 0.953125 
Q 20.953125 3.328125 18.109375 8.203125 
L 18.109375 0 
L 9.078125 0 
L 9.078125 75.984375 
L 18.109375 75.984375 
z
" id="DejaVuSans-62"/>
    </defs>
    <g transform="translate(60.27144 16.755982)scale(0.102 -0.102)">
     <use xlink:href="#DejaVuSans-62"/>
     <use x="63.476562" xlink:href="#DejaVuSans-62"/>
     <use x="126.953125" xlink:href="#DejaVuSans-6f"/>
     <use x="188.134766" xlink:href="#DejaVuSans-62"/>
    </g>
    <!-- Multi-modal functions, 3-D -->
    <defs>
     <path d="M 9.8125 72.90625 
L 24.515625 72.90625 
L 43.109375 23.296875 
L 61.8125 72.90625 
L 76.515625 72.90625 
L 76.515625 0 
L 66.890625 0 
L 66.890625 64.015625 
L 48.09375 14.015625 
L 38.1875 14.015625 
L 19.390625 64.015625 
L 19.390625 0 
L 9.8125 0 
z
" id="DejaVuSans-4d"/>
     <path d="M 40.578125 39.3125 
Q 47.65625 37.796875 51.625 33 
Q 55.609375 28.21875 55.609375 21.1875 
Q 55.609375 10.40625 48.1875 4.484375 
Q 40.765625 -1.421875 27.09375 -1.421875 
Q 22.515625 -1.421875 17.65625 -0.515625 
Q 12.796875 0.390625 7.625 2.203125 
L 7.625 11.71875 
Q 11.71875 9.328125 16.59375 8.109375 
Q 21.484375 6.890625 26.8125 6.890625 
Q 36.078125 6.890625 40.9375 10.546875 
Q 45.796875 14.203125 45.796875 21.1875 
Q 45.796875 27.640625 41.28125 31.265625 
Q 36.765625 34.90625 28.71875 34.90625 
L 20.21875 34.90625 
L 20.21875 43.015625 
L 29.109375 43.015625 
Q 36.375 43.015625 40.234375 45.921875 
Q 44.09375 48.828125 44.09375 54.296875 
Q 44.09375 59.90625 40.109375 62.90625 
Q 36.140625 65.921875 28.71875 65.921875 
Q 24.65625 65.921875 20.015625 65.03125 
Q 15.375 64.15625 9.8125 62.3125 
L 9.8125 71.09375 
Q 15.4375 72.65625 20.34375 73.4375 
Q 25.25 74.21875 29.59375 74.21875 
Q 40.828125 74.21875 47.359375 69.109375 
Q 53.90625 64.015625 53.90625 55.328125 
Q 53.90625 49.265625 50.4375 45.09375 
Q 46.96875 40.921875 40.578125 39.3125 
z
" id="DejaVuSans-33"/>
     <path d="M 19.671875 64.796875 
L 19.671875 8.109375 
L 31.59375 8.109375 
Q 46.6875 8.109375 53.6875 14.9375 
Q 60.6875 21.78125 60.6875 36.53125 
Q 60.6875 51.171875 53.6875 57.984375 
Q 46.6875 64.796875 31.59375 64.796875 
z
M 9.8125 72.90625 
L 30.078125 72.90625 
Q 51.265625 72.90625 61.171875 64.09375 
Q 71.09375 55.28125 71.09375 36.53125 
Q 71.09375 17.671875 61.125 8.828125 
Q 51.171875 0 30.078125 0 
L 9.8125 0 
z
" id="DejaVuSans-44"/>
    </defs>
    <g transform="translate(60.27144 28.17775)scale(0.102 -0.102)">
     <use xlink:href="#DejaVuSans-4d"/>
     <use x="86.279297" xlink:href="#DejaVuSans-75"/>
     <use x="149.658203" xlink:href="#DejaVuSans-6c"/>
     <use x="177.441406" xlink:href="#DejaVuSans-74"/>
     <use x="216.650391" xlink:href="#DejaVuSans-69"/>
     <use x="244.433594" xlink:href="#DejaVuSans-2d"/>
     <use x="280.517578" xlink:href="#DejaVuSans-6d"/>
     <use x="377.929688" xlink:href="#DejaVuSans-6f"/>
     <use x="439.111328" xlink:href="#DejaVuSans-64"/>
     <use x="502.587891" xlink:href="#DejaVuSans-61"/>
     <use x="563.867188" xlink:href="#DejaVuSans-6c"/>
     <use x="591.650391" xlink:href="#DejaVuSans-20"/>
     <use x="623.4375" xlink:href="#DejaVuSans-66"/>
     <use x="658.642578" xlink:href="#DejaVuSans-75"/>
     <use x="722.021484" xlink:href="#DejaVuSans-6e"/>
     <use x="785.400391" xlink:href="#DejaVuSans-63"/>
     <use x="840.380859" xlink:href="#DejaVuSans-74"/>
     <use x="879.589844" xlink:href="#DejaVuSans-69"/>
     <use x="907.373047" xlink:href="#DejaVuSans-6f"/>
     <use x="968.554688" xlink:href="#DejaVuSans-6e"/>
     <use x="1031.933594" xlink:href="#DejaVuSans-73"/>
     <use x="1084.033203" xlink:href="#DejaVuSans-2c"/>
     <use x="1115.820312" xlink:href="#DejaVuSans-20"/>
     <use x="1147.607422" xlink:href="#DejaVuSans-33"/>
     <use x="1211.230469" xlink:href="#DejaVuSans-2d"/>
     <use x="1247.314453" xlink:href="#DejaVuSans-44"/>
    </g>
    <!-- 51 targets: 100..1e-08 -->
    <defs>
     <path d="M 11.71875 12.40625 
L 22.015625 12.40625 
L 22.015625 0 
L 11.71875 0 
z
M 11.71875 51.703125 
L 22.015625 51.703125 
L 22.015625 39.3125 
L 11.71875 39.3125 
z
" id="DejaVuSans-3a"/>
    </defs>
    <g transform="translate(60.27144 39.599519)scale(0.102 -0.102)">
     <use xlink:href="#DejaVuSans-35"/>
     <use x="63.623047" xlink:href="#DejaVuSans-31"/>
     <use x="127.246094" xlink:href="#DejaVuSans-20"/>
     <use x="159.033203" xlink:href="#DejaVuSans-74"/>
     <use x="198.242188" xlink:href="#DejaVuSans-61"/>
     <use x="259.521484" xlink:href="#DejaVuSans-72"/>
     <use x="300.619141" xlink:href="#DejaVuSans-67"/>
     <use x="364.095703" xlink:href="#DejaVuSans-65"/>
     <use x="425.619141" xlink:href="#DejaVuSans-74"/>
     <use x="464.828125" xlink:href="#DejaVuSans-73"/>
     <use x="516.927734" xlink:href="#DejaVuSans-3a"/>
     <use x="550.619141" xlink:href="#DejaVuSans-20"/>
     <use x="582.40625" xlink:href="#DejaVuSans-31"/>
     <use x="646.029297" xlink:href="#DejaVuSans-30"/>
     <use x="709.652344" xlink:href="#DejaVuSans-30"/>
     <use x="773.275391" xlink:href="#DejaVuSans-2e"/>
     <use x="805.0625" xlink:href="#DejaVuSans-2e"/>
     <use x="836.849609" xlink:href="#DejaVuSans-31"/>
     <use x="900.472656" xlink:href="#DejaVuSans-65"/>
     <use x="961.996094" xlink:href="#DejaVuSans-2d"/>
     <use x="998.080078" xlink:href="#DejaVuSans-30"/>
     <use x="1061.703125" xlink:href="#DejaVuSans-38"/>
    </g>
    <!-- 60 instances -->
    <g transform="translate(60.27144 51.021288)scale(0.102 -0.102)">
     <use xlink:href="#DejaVuSans-36"/>
     <use x="63.623047" xlink:href="#DejaVuSans-30"/>
     <use x="127.246094" xlink:href="#DejaVuSans-20"/>
     <use x="159.033203" xlink:href="#DejaVuSans-69"/>
     <use x="186.816406" xlink:href="#DejaVuSans-6e"/>
     <use x="250.195312" xlink:href="#DejaVuSans-73"/>
     <use x="302.294922" xlink:href="#DejaVuSans-74"/>
     <use x="341.503906" xlink:href="#DejaVuSans-61"/>
     <use x="402.783203" xlink:href="#DejaVuSans-6e"/>
     <use x="466.162109" xlink:href="#DejaVuSans-63"/>
     <use x="521.142578" xlink:href="#DejaVuSans-65"/>
     <use x="582.666016" xlink:href="#DejaVuSans-73"/>
    </g>
   </g>
   <g id="text_20">
    <!-- v2.2.1.10 -->
    <g style="fill:#808080;" transform="translate(204.779188 289.199965)scale(0.1 -0.1)">
     <use xlink:href="#DejaVuSans-76"/>
     <use x="59.179688" xlink:href="#DejaVuSans-32"/>
     <use x="122.802734" xlink:href="#DejaVuSans-2e"/>
     <use x="154.589844" xlink:href="#DejaVuSans-32"/>
     <use x="218.212891" xlink:href="#DejaVuSans-2e"/>
     <use x="250" xlink:href="#DejaVuSans-31"/>
     <use x="313.623047" xlink:href="#DejaVuSans-2e"/>
     <use x="345.410156" xlink:href="#DejaVuSans-31"/>
     <use x="409.033203" xlink:href="#DejaVuSans-30"/>
    </g>
   </g>
  </g>
 </g>
 <defs>
  <clipPath id="pa35d4be10e">
   <rect height="288.034772" width="343.144" x="56.84" y="6.125228"/>
  </clipPath>
 </defs>
</svg>
