<?xml version="1.0" encoding="utf-8" standalone="no"?>
<!DOCTYPE svg PUBLIC "-//W3C//DTD SVG 1.1//EN"
  "http://www.w3.org/Graphics/SVG/1.1/DTD/svg11.dtd">
<!-- Created with matplotlib (http://matplotlib.org/) -->
<svg height="345.6pt" version="1.1" viewBox="0 0 460.8 345.6" width="460.8pt" xmlns="http://www.w3.org/2000/svg" xmlns:xlink="http://www.w3.org/1999/xlink">
 <defs>
  <style type="text/css">
*{stroke-linecap:butt;stroke-linejoin:round;}
  </style>
 </defs>
 <g id="figure_1">
  <g id="patch_1">
   <path d="M 0 345.6 
L 460.8 345.6 
L 460.8 0 
L 0 0 
z
" style="fill:#ffffff;"/>
  </g>
  <g id="axes_1">
   <g id="patch_2">
    <path d="M 56.84 294.16 
L 399.984 294.16 
L 399.984 6.125228 
L 56.84 6.125228 
z
" style="fill:#ffffff;"/>
   </g>
   <g id="matplotlib.axis_1">
    <g id="xtick_1">
     <g id="line2d_1">
      <path clip-path="url(#p597c7bbed1)" d="M 56.84 294.16 
L 56.84 6.125228 
" style="fill:none;stroke:#b0b0b0;stroke-linecap:square;stroke-width:0.8;"/>
     </g>
     <g id="line2d_2">
      <defs>
       <path d="M 0 0 
L 0 3.5 
" id="m2fa55d6db5" style="stroke:#000000;stroke-width:0.8;"/>
      </defs>
      <g>
       <use style="stroke:#000000;stroke-width:0.8;" x="56.84" xlink:href="#m2fa55d6db5" y="294.16"/>
      </g>
     </g>
     <g id="text_1">
      <!-- 0 -->
      <defs>
       <path d="M 31.78125 66.40625 
Q 24.171875 66.40625 20.328125 58.90625 
Q 16.5 51.421875 16.5 36.375 
Q 16.5 21.390625 20.328125 13.890625 
Q 24.171875 6.390625 31.78125 6.390625 
Q 39.453125 6.390625 43.28125 13.890625 
Q 47.125 21.390625 47.125 36.375 
Q 47.125 51.421875 43.28125 58.90625 
Q 39.453125 66.40625 31.78125 66.40625 
z
M 31.78125 74.21875 
Q 44.046875 74.21875 50.515625 64.515625 
Q 56.984375 54.828125 56.984375 36.375 
Q 56.984375 17.96875 50.515625 8.265625 
Q 44.046875 -1.421875 31.78125 -1.421875 
Q 19.53125 -1.421875 13.0625 8.265625 
Q 6.59375 17.96875 6.59375 36.375 
Q 6.59375 54.828125 13.0625 64.515625 
Q 19.53125 74.21875 31.78125 74.21875 
z
" id="DejaVuSans-30"/>
      </defs>
      <g transform="translate(50.4775 316.356875)scale(0.2 -0.2)">
       <use xlink:href="#DejaVuSans-30"/>
      </g>
     </g>
    </g>
    <g id="xtick_2">
     <g id="line2d_3">
      <path clip-path="url(#p597c7bbed1)" d="M 135.905438 294.16 
L 135.905438 6.125228 
" style="fill:none;stroke:#b0b0b0;stroke-linecap:square;stroke-width:0.8;"/>
     </g>
     <g id="line2d_4">
      <g>
       <use style="stroke:#000000;stroke-width:0.8;" x="135.905438" xlink:href="#m2fa55d6db5" y="294.16"/>
      </g>
     </g>
     <g id="text_2">
      <!-- 2 -->
      <defs>
       <path d="M 19.1875 8.296875 
L 53.609375 8.296875 
L 53.609375 0 
L 7.328125 0 
L 7.328125 8.296875 
Q 12.9375 14.109375 22.625 23.890625 
Q 32.328125 33.6875 34.8125 36.53125 
Q 39.546875 41.84375 41.421875 45.53125 
Q 43.3125 49.21875 43.3125 52.78125 
Q 43.3125 58.59375 39.234375 62.25 
Q 35.15625 65.921875 28.609375 65.921875 
Q 23.96875 65.921875 18.8125 64.3125 
Q 13.671875 62.703125 7.8125 59.421875 
L 7.8125 69.390625 
Q 13.765625 71.78125 18.9375 73 
Q 24.125 74.21875 28.421875 74.21875 
Q 39.75 74.21875 46.484375 68.546875 
Q 53.21875 62.890625 53.21875 53.421875 
Q 53.21875 48.921875 51.53125 44.890625 
Q 49.859375 40.875 45.40625 35.40625 
Q 44.1875 33.984375 37.640625 27.21875 
Q 31.109375 20.453125 19.1875 8.296875 
z
" id="DejaVuSans-32"/>
      </defs>
      <g transform="translate(129.542938 316.356875)scale(0.2 -0.2)">
       <use xlink:href="#DejaVuSans-32"/>
      </g>
     </g>
    </g>
    <g id="xtick_3">
     <g id="line2d_5">
      <path clip-path="url(#p597c7bbed1)" d="M 214.970876 294.16 
L 214.970876 6.125228 
" style="fill:none;stroke:#b0b0b0;stroke-linecap:square;stroke-width:0.8;"/>
     </g>
     <g id="line2d_6">
      <g>
       <use style="stroke:#000000;stroke-width:0.8;" x="214.970876" xlink:href="#m2fa55d6db5" y="294.16"/>
      </g>
     </g>
     <g id="text_3">
      <!-- 4 -->
      <defs>
       <path d="M 37.796875 64.3125 
L 12.890625 25.390625 
L 37.796875 25.390625 
z
M 35.203125 72.90625 
L 47.609375 72.90625 
L 47.609375 25.390625 
L 58.015625 25.390625 
L 58.015625 17.1875 
L 47.609375 17.1875 
L 47.609375 0 
L 37.796875 0 
L 37.796875 17.1875 
L 4.890625 17.1875 
L 4.890625 26.703125 
z
" id="DejaVuSans-34"/>
      </defs>
      <g transform="translate(208.608376 316.356875)scale(0.2 -0.2)">
       <use xlink:href="#DejaVuSans-34"/>
      </g>
     </g>
    </g>
    <g id="xtick_4">
     <g id="line2d_7">
      <path clip-path="url(#p597c7bbed1)" d="M 294.036313 294.16 
L 294.036313 6.125228 
" style="fill:none;stroke:#b0b0b0;stroke-linecap:square;stroke-width:0.8;"/>
     </g>
     <g id="line2d_8">
      <g>
       <use style="stroke:#000000;stroke-width:0.8;" x="294.036313" xlink:href="#m2fa55d6db5" y="294.16"/>
      </g>
     </g>
     <g id="text_4">
      <!-- 6 -->
      <defs>
       <path d="M 33.015625 40.375 
Q 26.375 40.375 22.484375 35.828125 
Q 18.609375 31.296875 18.609375 23.390625 
Q 18.609375 15.53125 22.484375 10.953125 
Q 26.375 6.390625 33.015625 6.390625 
Q 39.65625 6.390625 43.53125 10.953125 
Q 47.40625 15.53125 47.40625 23.390625 
Q 47.40625 31.296875 43.53125 35.828125 
Q 39.65625 40.375 33.015625 40.375 
z
M 52.59375 71.296875 
L 52.59375 62.3125 
Q 48.875 64.0625 45.09375 64.984375 
Q 41.3125 65.921875 37.59375 65.921875 
Q 27.828125 65.921875 22.671875 59.328125 
Q 17.53125 52.734375 16.796875 39.40625 
Q 19.671875 43.65625 24.015625 45.921875 
Q 28.375 48.1875 33.59375 48.1875 
Q 44.578125 48.1875 50.953125 41.515625 
Q 57.328125 34.859375 57.328125 23.390625 
Q 57.328125 12.15625 50.6875 5.359375 
Q 44.046875 -1.421875 33.015625 -1.421875 
Q 20.359375 -1.421875 13.671875 8.265625 
Q 6.984375 17.96875 6.984375 36.375 
Q 6.984375 53.65625 15.1875 63.9375 
Q 23.390625 74.21875 37.203125 74.21875 
Q 40.921875 74.21875 44.703125 73.484375 
Q 48.484375 72.75 52.59375 71.296875 
z
" id="DejaVuSans-36"/>
      </defs>
      <g transform="translate(287.673813 316.356875)scale(0.2 -0.2)">
       <use xlink:href="#DejaVuSans-36"/>
      </g>
     </g>
    </g>
    <g id="xtick_5">
     <g id="line2d_9">
      <path clip-path="url(#p597c7bbed1)" d="M 373.101751 294.16 
L 373.101751 6.125228 
" style="fill:none;stroke:#b0b0b0;stroke-linecap:square;stroke-width:0.8;"/>
     </g>
     <g id="line2d_10">
      <g>
       <use style="stroke:#000000;stroke-width:0.8;" x="373.101751" xlink:href="#m2fa55d6db5" y="294.16"/>
      </g>
     </g>
     <g id="text_5">
      <!-- 8 -->
      <defs>
       <path d="M 31.78125 34.625 
Q 24.75 34.625 20.71875 30.859375 
Q 16.703125 27.09375 16.703125 20.515625 
Q 16.703125 13.921875 20.71875 10.15625 
Q 24.75 6.390625 31.78125 6.390625 
Q 38.8125 6.390625 42.859375 10.171875 
Q 46.921875 13.96875 46.921875 20.515625 
Q 46.921875 27.09375 42.890625 30.859375 
Q 38.875 34.625 31.78125 34.625 
z
M 21.921875 38.8125 
Q 15.578125 40.375 12.03125 44.71875 
Q 8.5 49.078125 8.5 55.328125 
Q 8.5 64.0625 14.71875 69.140625 
Q 20.953125 74.21875 31.78125 74.21875 
Q 42.671875 74.21875 48.875 69.140625 
Q 55.078125 64.0625 55.078125 55.328125 
Q 55.078125 49.078125 51.53125 44.71875 
Q 48 40.375 41.703125 38.8125 
Q 48.828125 37.15625 52.796875 32.3125 
Q 56.78125 27.484375 56.78125 20.515625 
Q 56.78125 9.90625 50.3125 4.234375 
Q 43.84375 -1.421875 31.78125 -1.421875 
Q 19.734375 -1.421875 13.25 4.234375 
Q 6.78125 9.90625 6.78125 20.515625 
Q 6.78125 27.484375 10.78125 32.3125 
Q 14.796875 37.15625 21.921875 38.8125 
z
M 18.3125 54.390625 
Q 18.3125 48.734375 21.84375 45.5625 
Q 25.390625 42.390625 31.78125 42.390625 
Q 38.140625 42.390625 41.71875 45.5625 
Q 45.3125 48.734375 45.3125 54.390625 
Q 45.3125 60.0625 41.71875 63.234375 
Q 38.140625 66.40625 31.78125 66.40625 
Q 25.390625 66.40625 21.84375 63.234375 
Q 18.3125 60.0625 18.3125 54.390625 
z
" id="DejaVuSans-38"/>
      </defs>
      <g transform="translate(366.739251 316.356875)scale(0.2 -0.2)">
       <use xlink:href="#DejaVuSans-38"/>
      </g>
     </g>
    </g>
    <g id="text_6">
     <!-- log10(# f-evals / dimension) -->
     <defs>
      <path d="M 9.421875 75.984375 
L 18.40625 75.984375 
L 18.40625 0 
L 9.421875 0 
z
" id="DejaVuSans-6c"/>
      <path d="M 30.609375 48.390625 
Q 23.390625 48.390625 19.1875 42.75 
Q 14.984375 37.109375 14.984375 27.296875 
Q 14.984375 17.484375 19.15625 11.84375 
Q 23.34375 6.203125 30.609375 6.203125 
Q 37.796875 6.203125 41.984375 11.859375 
Q 46.1875 17.53125 46.1875 27.296875 
Q 46.1875 37.015625 41.984375 42.703125 
Q 37.796875 48.390625 30.609375 48.390625 
z
M 30.609375 56 
Q 42.328125 56 49.015625 48.375 
Q 55.71875 40.765625 55.71875 27.296875 
Q 55.71875 13.875 49.015625 6.21875 
Q 42.328125 -1.421875 30.609375 -1.421875 
Q 18.84375 -1.421875 12.171875 6.21875 
Q 5.515625 13.875 5.515625 27.296875 
Q 5.515625 40.765625 12.171875 48.375 
Q 18.84375 56 30.609375 56 
z
" id="DejaVuSans-6f"/>
      <path d="M 45.40625 27.984375 
Q 45.40625 37.75 41.375 43.109375 
Q 37.359375 48.484375 30.078125 48.484375 
Q 22.859375 48.484375 18.828125 43.109375 
Q 14.796875 37.75 14.796875 27.984375 
Q 14.796875 18.265625 18.828125 12.890625 
Q 22.859375 7.515625 30.078125 7.515625 
Q 37.359375 7.515625 41.375 12.890625 
Q 45.40625 18.265625 45.40625 27.984375 
z
M 54.390625 6.78125 
Q 54.390625 -7.171875 48.1875 -13.984375 
Q 42 -20.796875 29.203125 -20.796875 
Q 24.46875 -20.796875 20.265625 -20.09375 
Q 16.0625 -19.390625 12.109375 -17.921875 
L 12.109375 -9.1875 
Q 16.0625 -11.328125 19.921875 -12.34375 
Q 23.78125 -13.375 27.78125 -13.375 
Q 36.625 -13.375 41.015625 -8.765625 
Q 45.40625 -4.15625 45.40625 5.171875 
L 45.40625 9.625 
Q 42.625 4.78125 38.28125 2.390625 
Q 33.9375 0 27.875 0 
Q 17.828125 0 11.671875 7.65625 
Q 5.515625 15.328125 5.515625 27.984375 
Q 5.515625 40.671875 11.671875 48.328125 
Q 17.828125 56 27.875 56 
Q 33.9375 56 38.28125 53.609375 
Q 42.625 51.21875 45.40625 46.390625 
L 45.40625 54.6875 
L 54.390625 54.6875 
z
" id="DejaVuSans-67"/>
      <path d="M 12.40625 8.296875 
L 28.515625 8.296875 
L 28.515625 63.921875 
L 10.984375 60.40625 
L 10.984375 69.390625 
L 28.421875 72.90625 
L 38.28125 72.90625 
L 38.28125 8.296875 
L 54.390625 8.296875 
L 54.390625 0 
L 12.40625 0 
z
" id="DejaVuSans-31"/>
      <path d="M 31 75.875 
Q 24.46875 64.65625 21.28125 53.65625 
Q 18.109375 42.671875 18.109375 31.390625 
Q 18.109375 20.125 21.3125 9.0625 
Q 24.515625 -2 31 -13.1875 
L 23.1875 -13.1875 
Q 15.875 -1.703125 12.234375 9.375 
Q 8.59375 20.453125 8.59375 31.390625 
Q 8.59375 42.28125 12.203125 53.3125 
Q 15.828125 64.359375 23.1875 75.875 
z
" id="DejaVuSans-28"/>
      <path d="M 51.125 44 
L 36.921875 44 
L 32.8125 27.6875 
L 47.125 27.6875 
z
M 43.796875 71.78125 
L 38.71875 51.515625 
L 52.984375 51.515625 
L 58.109375 71.78125 
L 65.921875 71.78125 
L 60.890625 51.515625 
L 76.125 51.515625 
L 76.125 44 
L 58.984375 44 
L 54.984375 27.6875 
L 70.515625 27.6875 
L 70.515625 20.21875 
L 53.078125 20.21875 
L 48 0 
L 40.1875 0 
L 45.21875 20.21875 
L 30.90625 20.21875 
L 25.875 0 
L 18.015625 0 
L 23.09375 20.21875 
L 7.71875 20.21875 
L 7.71875 27.6875 
L 24.90625 27.6875 
L 29 44 
L 13.28125 44 
L 13.28125 51.515625 
L 30.90625 51.515625 
L 35.890625 71.78125 
z
" id="DejaVuSans-23"/>
      <path id="DejaVuSans-20"/>
      <path d="M 37.109375 75.984375 
L 37.109375 68.5 
L 28.515625 68.5 
Q 23.6875 68.5 21.796875 66.546875 
Q 19.921875 64.59375 19.921875 59.515625 
L 19.921875 54.6875 
L 34.71875 54.6875 
L 34.71875 47.703125 
L 19.921875 47.703125 
L 19.921875 0 
L 10.890625 0 
L 10.890625 47.703125 
L 2.296875 47.703125 
L 2.296875 54.6875 
L 10.890625 54.6875 
L 10.890625 58.5 
Q 10.890625 67.625 15.140625 71.796875 
Q 19.390625 75.984375 28.609375 75.984375 
z
" id="DejaVuSans-66"/>
      <path d="M 4.890625 31.390625 
L 31.203125 31.390625 
L 31.203125 23.390625 
L 4.890625 23.390625 
z
" id="DejaVuSans-2d"/>
      <path d="M 56.203125 29.59375 
L 56.203125 25.203125 
L 14.890625 25.203125 
Q 15.484375 15.921875 20.484375 11.0625 
Q 25.484375 6.203125 34.421875 6.203125 
Q 39.59375 6.203125 44.453125 7.46875 
Q 49.3125 8.734375 54.109375 11.28125 
L 54.109375 2.78125 
Q 49.265625 0.734375 44.1875 -0.34375 
Q 39.109375 -1.421875 33.890625 -1.421875 
Q 20.796875 -1.421875 13.15625 6.1875 
Q 5.515625 13.8125 5.515625 26.8125 
Q 5.515625 40.234375 12.765625 48.109375 
Q 20.015625 56 32.328125 56 
Q 43.359375 56 49.78125 48.890625 
Q 56.203125 41.796875 56.203125 29.59375 
z
M 47.21875 32.234375 
Q 47.125 39.59375 43.09375 43.984375 
Q 39.0625 48.390625 32.421875 48.390625 
Q 24.90625 48.390625 20.390625 44.140625 
Q 15.875 39.890625 15.1875 32.171875 
z
" id="DejaVuSans-65"/>
      <path d="M 2.984375 54.6875 
L 12.5 54.6875 
L 29.59375 8.796875 
L 46.6875 54.6875 
L 56.203125 54.6875 
L 35.6875 0 
L 23.484375 0 
z
" id="DejaVuSans-76"/>
      <path d="M 34.28125 27.484375 
Q 23.390625 27.484375 19.1875 25 
Q 14.984375 22.515625 14.984375 16.5 
Q 14.984375 11.71875 18.140625 8.90625 
Q 21.296875 6.109375 26.703125 6.109375 
Q 34.1875 6.109375 38.703125 11.40625 
Q 43.21875 16.703125 43.21875 25.484375 
L 43.21875 27.484375 
z
M 52.203125 31.203125 
L 52.203125 0 
L 43.21875 0 
L 43.21875 8.296875 
Q 40.140625 3.328125 35.546875 0.953125 
Q 30.953125 -1.421875 24.3125 -1.421875 
Q 15.921875 -1.421875 10.953125 3.296875 
Q 6 8.015625 6 15.921875 
Q 6 25.140625 12.171875 29.828125 
Q 18.359375 34.515625 30.609375 34.515625 
L 43.21875 34.515625 
L 43.21875 35.40625 
Q 43.21875 41.609375 39.140625 45 
Q 35.0625 48.390625 27.6875 48.390625 
Q 23 48.390625 18.546875 47.265625 
Q 14.109375 46.140625 10.015625 43.890625 
L 10.015625 52.203125 
Q 14.9375 54.109375 19.578125 55.046875 
Q 24.21875 56 28.609375 56 
Q 40.484375 56 46.34375 49.84375 
Q 52.203125 43.703125 52.203125 31.203125 
z
" id="DejaVuSans-61"/>
      <path d="M 44.28125 53.078125 
L 44.28125 44.578125 
Q 40.484375 46.53125 36.375 47.5 
Q 32.28125 48.484375 27.875 48.484375 
Q 21.1875 48.484375 17.84375 46.4375 
Q 14.5 44.390625 14.5 40.28125 
Q 14.5 37.15625 16.890625 35.375 
Q 19.28125 33.59375 26.515625 31.984375 
L 29.59375 31.296875 
Q 39.15625 29.25 43.1875 25.515625 
Q 47.21875 21.78125 47.21875 15.09375 
Q 47.21875 7.46875 41.1875 3.015625 
Q 35.15625 -1.421875 24.609375 -1.421875 
Q 20.21875 -1.421875 15.453125 -0.5625 
Q 10.6875 0.296875 5.421875 2 
L 5.421875 11.28125 
Q 10.40625 8.6875 15.234375 7.390625 
Q 20.0625 6.109375 24.8125 6.109375 
Q 31.15625 6.109375 34.5625 8.28125 
Q 37.984375 10.453125 37.984375 14.40625 
Q 37.984375 18.0625 35.515625 20.015625 
Q 33.0625 21.96875 24.703125 23.78125 
L 21.578125 24.515625 
Q 13.234375 26.265625 9.515625 29.90625 
Q 5.8125 33.546875 5.8125 39.890625 
Q 5.8125 47.609375 11.28125 51.796875 
Q 16.75 56 26.8125 56 
Q 31.78125 56 36.171875 55.265625 
Q 40.578125 54.546875 44.28125 53.078125 
z
" id="DejaVuSans-73"/>
      <path d="M 25.390625 72.90625 
L 33.6875 72.90625 
L 8.296875 -9.28125 
L 0 -9.28125 
z
" id="DejaVuSans-2f"/>
      <path d="M 45.40625 46.390625 
L 45.40625 75.984375 
L 54.390625 75.984375 
L 54.390625 0 
L 45.40625 0 
L 45.40625 8.203125 
Q 42.578125 3.328125 38.25 0.953125 
Q 33.9375 -1.421875 27.875 -1.421875 
Q 17.96875 -1.421875 11.734375 6.484375 
Q 5.515625 14.40625 5.515625 27.296875 
Q 5.515625 40.1875 11.734375 48.09375 
Q 17.96875 56 27.875 56 
Q 33.9375 56 38.25 53.625 
Q 42.578125 51.265625 45.40625 46.390625 
z
M 14.796875 27.296875 
Q 14.796875 17.390625 18.875 11.75 
Q 22.953125 6.109375 30.078125 6.109375 
Q 37.203125 6.109375 41.296875 11.75 
Q 45.40625 17.390625 45.40625 27.296875 
Q 45.40625 37.203125 41.296875 42.84375 
Q 37.203125 48.484375 30.078125 48.484375 
Q 22.953125 48.484375 18.875 42.84375 
Q 14.796875 37.203125 14.796875 27.296875 
z
" id="DejaVuSans-64"/>
      <path d="M 9.421875 54.6875 
L 18.40625 54.6875 
L 18.40625 0 
L 9.421875 0 
z
M 9.421875 75.984375 
L 18.40625 75.984375 
L 18.40625 64.59375 
L 9.421875 64.59375 
z
" id="DejaVuSans-69"/>
      <path d="M 52 44.1875 
Q 55.375 50.25 60.0625 53.125 
Q 64.75 56 71.09375 56 
Q 79.640625 56 84.28125 50.015625 
Q 88.921875 44.046875 88.921875 33.015625 
L 88.921875 0 
L 79.890625 0 
L 79.890625 32.71875 
Q 79.890625 40.578125 77.09375 44.375 
Q 74.3125 48.1875 68.609375 48.1875 
Q 61.625 48.1875 57.5625 43.546875 
Q 53.515625 38.921875 53.515625 30.90625 
L 53.515625 0 
L 44.484375 0 
L 44.484375 32.71875 
Q 44.484375 40.625 41.703125 44.40625 
Q 38.921875 48.1875 33.109375 48.1875 
Q 26.21875 48.1875 22.15625 43.53125 
Q 18.109375 38.875 18.109375 30.90625 
L 18.109375 0 
L 9.078125 0 
L 9.078125 54.6875 
L 18.109375 54.6875 
L 18.109375 46.1875 
Q 21.1875 51.21875 25.484375 53.609375 
Q 29.78125 56 35.6875 56 
Q 41.65625 56 45.828125 52.96875 
Q 50 49.953125 52 44.1875 
z
" id="DejaVuSans-6d"/>
      <path d="M 54.890625 33.015625 
L 54.890625 0 
L 45.90625 0 
L 45.90625 32.71875 
Q 45.90625 40.484375 42.875 44.328125 
Q 39.84375 48.1875 33.796875 48.1875 
Q 26.515625 48.1875 22.3125 43.546875 
Q 18.109375 38.921875 18.109375 30.90625 
L 18.109375 0 
L 9.078125 0 
L 9.078125 54.6875 
L 18.109375 54.6875 
L 18.109375 46.1875 
Q 21.34375 51.125 25.703125 53.5625 
Q 30.078125 56 35.796875 56 
Q 45.21875 56 50.046875 50.171875 
Q 54.890625 44.34375 54.890625 33.015625 
z
" id="DejaVuSans-6e"/>
      <path d="M 8.015625 75.875 
L 15.828125 75.875 
Q 23.140625 64.359375 26.78125 53.3125 
Q 30.421875 42.28125 30.421875 31.390625 
Q 30.421875 20.453125 26.78125 9.375 
Q 23.140625 -1.703125 15.828125 -13.1875 
L 8.015625 -13.1875 
Q 14.5 -2 17.703125 9.0625 
Q 20.90625 20.125 20.90625 31.390625 
Q 20.90625 42.671875 17.703125 53.65625 
Q 14.5 64.65625 8.015625 75.875 
z
" id="DejaVuSans-29"/>
     </defs>
     <g transform="translate(107.571219 337.433594)scale(0.17 -0.17)">
      <use xlink:href="#DejaVuSans-6c"/>
      <use x="27.783203" xlink:href="#DejaVuSans-6f"/>
      <use x="88.964844" xlink:href="#DejaVuSans-67"/>
      <use x="152.441406" xlink:href="#DejaVuSans-31"/>
      <use x="216.064453" xlink:href="#DejaVuSans-30"/>
      <use x="279.6875" xlink:href="#DejaVuSans-28"/>
      <use x="318.701172" xlink:href="#DejaVuSans-23"/>
      <use x="402.490234" xlink:href="#DejaVuSans-20"/>
      <use x="434.277344" xlink:href="#DejaVuSans-66"/>
      <use x="469.404297" xlink:href="#DejaVuSans-2d"/>
      <use x="505.488281" xlink:href="#DejaVuSans-65"/>
      <use x="567.011719" xlink:href="#DejaVuSans-76"/>
      <use x="626.191406" xlink:href="#DejaVuSans-61"/>
      <use x="687.470703" xlink:href="#DejaVuSans-6c"/>
      <use x="715.253906" xlink:href="#DejaVuSans-73"/>
      <use x="767.353516" xlink:href="#DejaVuSans-20"/>
      <use x="799.140625" xlink:href="#DejaVuSans-2f"/>
      <use x="832.832031" xlink:href="#DejaVuSans-20"/>
      <use x="864.619141" xlink:href="#DejaVuSans-64"/>
      <use x="928.095703" xlink:href="#DejaVuSans-69"/>
      <use x="955.878906" xlink:href="#DejaVuSans-6d"/>
      <use x="1053.291016" xlink:href="#DejaVuSans-65"/>
      <use x="1114.814453" xlink:href="#DejaVuSans-6e"/>
      <use x="1178.193359" xlink:href="#DejaVuSans-73"/>
      <use x="1230.292969" xlink:href="#DejaVuSans-69"/>
      <use x="1258.076172" xlink:href="#DejaVuSans-6f"/>
      <use x="1319.257812" xlink:href="#DejaVuSans-6e"/>
      <use x="1382.636719" xlink:href="#DejaVuSans-29"/>
     </g>
    </g>
   </g>
   <g id="matplotlib.axis_2">
    <g id="ytick_1">
     <g id="line2d_11">
      <path clip-path="url(#p597c7bbed1)" d="M 56.84 294.16 
L 399.984 294.16 
" style="fill:none;stroke:#b0b0b0;stroke-linecap:square;stroke-width:0.8;"/>
     </g>
     <g id="line2d_12">
      <defs>
       <path d="M 0 0 
L -3.5 0 
" id="m708a3bbbf9" style="stroke:#000000;stroke-width:0.8;"/>
      </defs>
      <g>
       <use style="stroke:#000000;stroke-width:0.8;" x="56.84" xlink:href="#m708a3bbbf9" y="294.16"/>
      </g>
     </g>
     <g id="text_7">
      <!-- 0.0 -->
      <defs>
       <path d="M 10.6875 12.40625 
L 21 12.40625 
L 21 0 
L 10.6875 0 
z
" id="DejaVuSans-2e"/>
      </defs>
      <g transform="translate(24.395 300.23875)scale(0.16 -0.16)">
       <use xlink:href="#DejaVuSans-30"/>
       <use x="63.623047" xlink:href="#DejaVuSans-2e"/>
       <use x="95.410156" xlink:href="#DejaVuSans-30"/>
      </g>
     </g>
    </g>
    <g id="ytick_2">
     <g id="line2d_13">
      <path clip-path="url(#p597c7bbed1)" d="M 56.84 237.123411 
L 399.984 237.123411 
" style="fill:none;stroke:#b0b0b0;stroke-linecap:square;stroke-width:0.8;"/>
     </g>
     <g id="line2d_14">
      <g>
       <use style="stroke:#000000;stroke-width:0.8;" x="56.84" xlink:href="#m708a3bbbf9" y="237.123411"/>
      </g>
     </g>
     <g id="text_8">
      <!-- 0.2 -->
      <g transform="translate(24.395 243.202161)scale(0.16 -0.16)">
       <use xlink:href="#DejaVuSans-30"/>
       <use x="63.623047" xlink:href="#DejaVuSans-2e"/>
       <use x="95.410156" xlink:href="#DejaVuSans-32"/>
      </g>
     </g>
    </g>
    <g id="ytick_3">
     <g id="line2d_15">
      <path clip-path="url(#p597c7bbed1)" d="M 56.84 180.086823 
L 399.984 180.086823 
" style="fill:none;stroke:#b0b0b0;stroke-linecap:square;stroke-width:0.8;"/>
     </g>
     <g id="line2d_16">
      <g>
       <use style="stroke:#000000;stroke-width:0.8;" x="56.84" xlink:href="#m708a3bbbf9" y="180.086823"/>
      </g>
     </g>
     <g id="text_9">
      <!-- 0.4 -->
      <g transform="translate(24.395 186.165573)scale(0.16 -0.16)">
       <use xlink:href="#DejaVuSans-30"/>
       <use x="63.623047" xlink:href="#DejaVuSans-2e"/>
       <use x="95.410156" xlink:href="#DejaVuSans-34"/>
      </g>
     </g>
    </g>
    <g id="ytick_4">
     <g id="line2d_17">
      <path clip-path="url(#p597c7bbed1)" d="M 56.84 123.050234 
L 399.984 123.050234 
" style="fill:none;stroke:#b0b0b0;stroke-linecap:square;stroke-width:0.8;"/>
     </g>
     <g id="line2d_18">
      <g>
       <use style="stroke:#000000;stroke-width:0.8;" x="56.84" xlink:href="#m708a3bbbf9" y="123.050234"/>
      </g>
     </g>
     <g id="text_10">
      <!-- 0.6 -->
      <g transform="translate(24.395 129.128984)scale(0.16 -0.16)">
       <use xlink:href="#DejaVuSans-30"/>
       <use x="63.623047" xlink:href="#DejaVuSans-2e"/>
       <use x="95.410156" xlink:href="#DejaVuSans-36"/>
      </g>
     </g>
    </g>
    <g id="ytick_5">
     <g id="line2d_19">
      <path clip-path="url(#p597c7bbed1)" d="M 56.84 66.013646 
L 399.984 66.013646 
" style="fill:none;stroke:#b0b0b0;stroke-linecap:square;stroke-width:0.8;"/>
     </g>
     <g id="line2d_20">
      <g>
       <use style="stroke:#000000;stroke-width:0.8;" x="56.84" xlink:href="#m708a3bbbf9" y="66.013646"/>
      </g>
     </g>
     <g id="text_11">
      <!-- 0.8 -->
      <g transform="translate(24.395 72.092396)scale(0.16 -0.16)">
       <use xlink:href="#DejaVuSans-30"/>
       <use x="63.623047" xlink:href="#DejaVuSans-2e"/>
       <use x="95.410156" xlink:href="#DejaVuSans-38"/>
      </g>
     </g>
    </g>
    <g id="ytick_6">
     <g id="line2d_21">
      <path clip-path="url(#p597c7bbed1)" d="M 56.84 8.977057 
L 399.984 8.977057 
" style="fill:none;stroke:#b0b0b0;stroke-linecap:square;stroke-width:0.8;"/>
     </g>
     <g id="line2d_22">
      <g>
       <use style="stroke:#000000;stroke-width:0.8;" x="56.84" xlink:href="#m708a3bbbf9" y="8.977057"/>
      </g>
     </g>
     <g id="text_12">
      <!-- 1.0 -->
      <g transform="translate(24.395 15.055807)scale(0.16 -0.16)">
       <use xlink:href="#DejaVuSans-31"/>
       <use x="63.623047" xlink:href="#DejaVuSans-2e"/>
       <use x="95.410156" xlink:href="#DejaVuSans-30"/>
      </g>
     </g>
    </g>
    <g id="text_13">
     <!-- Fraction of function,target pairs -->
     <defs>
      <path d="M 9.8125 72.90625 
L 51.703125 72.90625 
L 51.703125 64.59375 
L 19.671875 64.59375 
L 19.671875 43.109375 
L 48.578125 43.109375 
L 48.578125 34.8125 
L 19.671875 34.8125 
L 19.671875 0 
L 9.8125 0 
z
" id="DejaVuSans-46"/>
      <path d="M 41.109375 46.296875 
Q 39.59375 47.171875 37.8125 47.578125 
Q 36.03125 48 33.890625 48 
Q 26.265625 48 22.1875 43.046875 
Q 18.109375 38.09375 18.109375 28.8125 
L 18.109375 0 
L 9.078125 0 
L 9.078125 54.6875 
L 18.109375 54.6875 
L 18.109375 46.1875 
Q 20.953125 51.171875 25.484375 53.578125 
Q 30.03125 56 36.53125 56 
Q 37.453125 56 38.578125 55.875 
Q 39.703125 55.765625 41.0625 55.515625 
z
" id="DejaVuSans-72"/>
      <path d="M 48.78125 52.59375 
L 48.78125 44.1875 
Q 44.96875 46.296875 41.140625 47.34375 
Q 37.3125 48.390625 33.40625 48.390625 
Q 24.65625 48.390625 19.8125 42.84375 
Q 14.984375 37.3125 14.984375 27.296875 
Q 14.984375 17.28125 19.8125 11.734375 
Q 24.65625 6.203125 33.40625 6.203125 
Q 37.3125 6.203125 41.140625 7.25 
Q 44.96875 8.296875 48.78125 10.40625 
L 48.78125 2.09375 
Q 45.015625 0.34375 40.984375 -0.53125 
Q 36.96875 -1.421875 32.421875 -1.421875 
Q 20.0625 -1.421875 12.78125 6.34375 
Q 5.515625 14.109375 5.515625 27.296875 
Q 5.515625 40.671875 12.859375 48.328125 
Q 20.21875 56 33.015625 56 
Q 37.15625 56 41.109375 55.140625 
Q 45.0625 54.296875 48.78125 52.59375 
z
" id="DejaVuSans-63"/>
      <path d="M 18.3125 70.21875 
L 18.3125 54.6875 
L 36.8125 54.6875 
L 36.8125 47.703125 
L 18.3125 47.703125 
L 18.3125 18.015625 
Q 18.3125 11.328125 20.140625 9.421875 
Q 21.96875 7.515625 27.59375 7.515625 
L 36.8125 7.515625 
L 36.8125 0 
L 27.59375 0 
Q 17.1875 0 13.234375 3.875 
Q 9.28125 7.765625 9.28125 18.015625 
L 9.28125 47.703125 
L 2.6875 47.703125 
L 2.6875 54.6875 
L 9.28125 54.6875 
L 9.28125 70.21875 
z
" id="DejaVuSans-74"/>
      <path d="M 8.5 21.578125 
L 8.5 54.6875 
L 17.484375 54.6875 
L 17.484375 21.921875 
Q 17.484375 14.15625 20.5 10.265625 
Q 23.53125 6.390625 29.59375 6.390625 
Q 36.859375 6.390625 41.078125 11.03125 
Q 45.3125 15.671875 45.3125 23.6875 
L 45.3125 54.6875 
L 54.296875 54.6875 
L 54.296875 0 
L 45.3125 0 
L 45.3125 8.40625 
Q 42.046875 3.421875 37.71875 1 
Q 33.40625 -1.421875 27.6875 -1.421875 
Q 18.265625 -1.421875 13.375 4.4375 
Q 8.5 10.296875 8.5 21.578125 
z
M 31.109375 56 
z
" id="DejaVuSans-75"/>
      <path d="M 11.71875 12.40625 
L 22.015625 12.40625 
L 22.015625 4 
L 14.015625 -11.625 
L 7.71875 -11.625 
L 11.71875 4 
z
" id="DejaVuSans-2c"/>
      <path d="M 18.109375 8.203125 
L 18.109375 -20.796875 
L 9.078125 -20.796875 
L 9.078125 54.6875 
L 18.109375 54.6875 
L 18.109375 46.390625 
Q 20.953125 51.265625 25.265625 53.625 
Q 29.59375 56 35.59375 56 
Q 45.5625 56 51.78125 48.09375 
Q 58.015625 40.1875 58.015625 27.296875 
Q 58.015625 14.40625 51.78125 6.484375 
Q 45.5625 -1.421875 35.59375 -1.421875 
Q 29.59375 -1.421875 25.265625 0.953125 
Q 20.953125 3.328125 18.109375 8.203125 
z
M 48.6875 27.296875 
Q 48.6875 37.203125 44.609375 42.84375 
Q 40.53125 48.484375 33.40625 48.484375 
Q 26.265625 48.484375 22.1875 42.84375 
Q 18.109375 37.203125 18.109375 27.296875 
Q 18.109375 17.390625 22.1875 11.75 
Q 26.265625 6.109375 33.40625 6.109375 
Q 40.53125 6.109375 44.609375 11.75 
Q 48.6875 17.390625 48.6875 27.296875 
z
" id="DejaVuSans-70"/>
     </defs>
     <g transform="translate(16.859531 285.281989)rotate(-90)scale(0.17 -0.17)">
      <use xlink:href="#DejaVuSans-46"/>
      <use x="57.410156" xlink:href="#DejaVuSans-72"/>
      <use x="98.523438" xlink:href="#DejaVuSans-61"/>
      <use x="159.802734" xlink:href="#DejaVuSans-63"/>
      <use x="214.783203" xlink:href="#DejaVuSans-74"/>
      <use x="253.992188" xlink:href="#DejaVuSans-69"/>
      <use x="281.775391" xlink:href="#DejaVuSans-6f"/>
      <use x="342.957031" xlink:href="#DejaVuSans-6e"/>
      <use x="406.335938" xlink:href="#DejaVuSans-20"/>
      <use x="438.123047" xlink:href="#DejaVuSans-6f"/>
      <use x="499.304688" xlink:href="#DejaVuSans-66"/>
      <use x="534.509766" xlink:href="#DejaVuSans-20"/>
      <use x="566.296875" xlink:href="#DejaVuSans-66"/>
      <use x="601.501953" xlink:href="#DejaVuSans-75"/>
      <use x="664.880859" xlink:href="#DejaVuSans-6e"/>
      <use x="728.259766" xlink:href="#DejaVuSans-63"/>
      <use x="783.240234" xlink:href="#DejaVuSans-74"/>
      <use x="822.449219" xlink:href="#DejaVuSans-69"/>
      <use x="850.232422" xlink:href="#DejaVuSans-6f"/>
      <use x="911.414062" xlink:href="#DejaVuSans-6e"/>
      <use x="974.792969" xlink:href="#DejaVuSans-2c"/>
      <use x="1006.580078" xlink:href="#DejaVuSans-74"/>
      <use x="1045.789062" xlink:href="#DejaVuSans-61"/>
      <use x="1107.068359" xlink:href="#DejaVuSans-72"/>
      <use x="1148.166016" xlink:href="#DejaVuSans-67"/>
      <use x="1211.642578" xlink:href="#DejaVuSans-65"/>
      <use x="1273.166016" xlink:href="#DejaVuSans-74"/>
      <use x="1312.375" xlink:href="#DejaVuSans-20"/>
      <use x="1344.162109" xlink:href="#DejaVuSans-70"/>
      <use x="1407.638672" xlink:href="#DejaVuSans-61"/>
      <use x="1468.917969" xlink:href="#DejaVuSans-69"/>
      <use x="1496.701172" xlink:href="#DejaVuSans-72"/>
      <use x="1537.814453" xlink:href="#DejaVuSans-73"/>
     </g>
    </g>
   </g>
   <g id="line2d_23">
    <defs>
     <path d="M 0 1.5 
C 0.397805 1.5 0.77937 1.341951 1.06066 1.06066 
C 1.341951 0.77937 1.5 0.397805 1.5 0 
C 1.5 -0.397805 1.341951 -0.77937 1.06066 -1.06066 
C 0.77937 -1.341951 0.397805 -1.5 0 -1.5 
C -0.397805 -1.5 -0.77937 -1.341951 -1.06066 -1.06066 
C -1.341951 -0.77937 -1.5 -0.397805 -1.5 0 
C -1.5 0.397805 -1.341951 0.77937 -1.06066 1.06066 
C -0.77937 1.341951 -0.397805 1.5 0 1.5 
z
" id="m01a631ab25" style="stroke:#000080;"/>
    </defs>
    <g>
     <use style="fill:#000080;stroke:#000080;" x="255.531463" xlink:href="#m01a631ab25" y="204.690841"/>
     <use style="fill:#000080;stroke:#000080;" x="255.531463" xlink:href="#m01a631ab25" y="204.690841"/>
    </g>
   </g>
   <g id="line2d_24">
    <path d="M 37.9781 294.16 
L 37.9781 289.686542 
L 49.878634 289.686542 
L 49.878634 288.008995 
L 56.84 288.008995 
L 56.84 286.890631 
L 61.779168 286.890631 
L 61.779168 286.331449 
L 65.610284 286.331449 
L 65.610284 284.653902 
L 68.740534 284.653902 
L 68.740534 282.976355 
L 71.387123 282.976355 
L 71.387123 281.298808 
L 77.510818 281.298808 
L 77.510818 280.180444 
L 79.147184 280.180444 
L 79.147184 279.621262 
L 82.015309 279.621262 
L 82.015309 278.502897 
L 83.287657 278.502897 
L 83.287657 277.384533 
L 84.472185 277.384533 
L 84.472185 276.825351 
L 87.602435 276.825351 
L 87.602435 276.266168 
L 89.411353 276.266168 
L 89.411353 275.706986 
L 91.810903 275.706986 
L 91.810903 275.147804 
L 93.915843 275.147804 
L 93.915843 274.588622 
L 94.563801 274.588622 
L 94.563801 274.029439 
L 95.188191 274.029439 
L 95.188191 273.470257 
L 95.790669 273.470257 
L 95.790669 271.79271 
L 98.009084 271.79271 
L 98.009084 270.115164 
L 100.43124 270.115164 
L 100.43124 269.555981 
L 101.73583 269.555981 
L 101.73583 266.200888 
L 102.553549 266.200888 
L 102.553549 265.641706 
L 105.482991 265.641706 
L 105.482991 265.082523 
L 106.779369 265.082523 
L 106.779369 263.964159 
L 114.652569 263.964159 
L 114.652569 263.404977 
L 117.551028 263.404977 
L 117.551028 262.845795 
L 119.73911 262.845795 
L 119.73911 262.286612 
L 119.885229 262.286612 
L 119.885229 261.168248 
L 123.774446 261.168248 
L 123.774446 260.609066 
L 124.456741 260.609066 
L 124.456741 260.049883 
L 124.678278 260.049883 
L 124.678278 259.490701 
L 125.326236 259.490701 
L 125.326236 258.931519 
L 127.418943 258.931519 
L 127.418943 258.372337 
L 127.790175 258.372337 
L 127.790175 257.253972 
L 129.199692 257.253972 
L 129.28406 256.135608 
L 130.105692 256.135608 
L 130.105692 255.576425 
L 130.502219 255.576425 
L 130.502219 255.017243 
L 131.639644 255.017243 
L 131.639644 254.458061 
L 132.002635 254.458061 
L 132.002635 253.898879 
L 132.567916 253.898879 
L 132.637285 252.780514 
L 132.911992 252.780514 
L 132.911992 252.221332 
L 133.64553 252.221332 
L 133.64553 251.66215 
L 133.96887 251.66215 
L 133.96887 251.102967 
L 135.084927 251.102967 
L 135.084927 250.543785 
L 136.245426 250.543785 
L 136.245426 249.984603 
L 137.902182 249.984603 
L 137.902182 249.425421 
L 138.354681 249.425421 
L 138.354681 248.866238 
L 140.844606 248.866238 
L 140.844606 248.307056 
L 142.086268 248.307056 
L 142.086268 247.747874 
L 142.980883 247.747874 
L 142.980883 247.188692 
L 144.188136 247.188692 
L 144.188136 246.62951 
L 144.64135 246.62951 
L 144.64135 246.070327 
L 144.914419 246.070327 
L 144.914419 245.511145 
L 146.155293 245.511145 
L 146.155293 244.392781 
L 148.698061 244.392781 
L 148.698061 243.833598 
L 154.066472 243.833598 
L 154.066472 243.274416 
L 158.306015 243.274416 
L 158.306015 242.715234 
L 159.66353 242.715234 
L 159.66353 242.156052 
L 166.016613 242.156052 
L 166.016613 241.596869 
L 166.970415 241.596869 
L 166.970415 241.037687 
L 167.478269 241.037687 
L 167.559961 239.919323 
L 167.802729 239.919323 
L 167.802729 239.36014 
L 169.248931 239.36014 
L 169.248931 238.800958 
L 171.975059 238.800958 
L 171.975059 238.241776 
L 177.312193 238.241776 
L 177.312193 237.682594 
L 178.23128 237.682594 
L 178.274997 236.564229 
L 178.501509 236.564229 
L 178.501509 236.005047 
L 180.767735 236.005047 
L 180.767735 235.445865 
L 183.061888 235.445865 
L 183.061888 234.886682 
L 184.115478 234.886682 
L 184.163744 233.768318 
L 184.582061 233.768318 
L 184.582061 233.209136 
L 185.478827 233.209136 
L 185.478827 232.649954 
L 188.744599 232.649954 
L 188.744599 231.531589 
L 190.080669 231.531589 
L 190.080669 230.972407 
L 190.334883 230.972407 
L 190.334883 230.413225 
L 192.96361 230.413225 
L 192.96361 229.854042 
L 195.449193 229.854042 
L 195.449193 229.29486 
L 195.812849 229.29486 
L 195.812849 228.735678 
L 195.984912 228.735678 
L 195.984912 228.176496 
L 200.431572 228.176496 
L 200.431572 227.617313 
L 202.204147 227.617313 
L 202.204147 227.058131 
L 204.603383 227.058131 
L 204.603383 226.498949 
L 207.049159 226.498949 
L 207.049159 225.939767 
L 207.265667 225.939767 
L 207.265667 225.380584 
L 207.534283 225.380584 
L 207.602983 224.26222 
L 210.835188 224.26222 
L 210.835188 223.703038 
L 210.98093 223.703038 
L 210.98093 223.143855 
L 213.096336 223.143855 
L 213.180388 222.025491 
L 213.451375 222.025491 
L 213.451375 221.466309 
L 214.826048 221.466309 
L 214.826048 220.907126 
L 215.338334 220.907126 
L 215.338334 220.347944 
L 215.768712 220.347944 
L 215.768712 219.22958 
L 215.931827 219.22958 
L 215.931827 218.670397 
L 216.673188 218.670397 
L 216.673188 218.111215 
L 219.56231 218.111215 
L 219.61872 216.992851 
L 219.939634 216.992851 
L 219.939634 216.433669 
L 220.278623 216.433669 
L 220.278623 215.874486 
L 222.787708 215.874486 
L 222.787708 215.315304 
L 224.363944 215.315304 
L 224.363944 214.756122 
L 224.854254 214.756122 
L 224.854254 214.19694 
L 226.776433 214.19694 
L 226.776433 213.637757 
L 230.385542 213.637757 
L 230.385542 213.078575 
L 232.737742 213.078575 
L 232.737742 212.519393 
L 233.057829 212.519393 
L 233.057829 211.960211 
L 234.040968 211.960211 
L 234.040968 211.401028 
L 234.564564 211.401028 
L 234.564564 210.841846 
L 235.229717 210.841846 
L 235.229717 210.282664 
L 235.937525 210.282664 
L 235.937525 209.723482 
L 237.259163 209.723482 
L 237.259163 209.164299 
L 238.844614 209.164299 
L 238.844614 208.605117 
L 239.244394 208.605117 
L 239.244394 208.045935 
L 241.591675 208.045935 
L 241.591675 207.486753 
L 246.703909 207.486753 
L 246.703909 206.92757 
L 248.434344 206.92757 
L 248.434344 206.368388 
L 249.229167 206.368388 
L 249.229167 205.809206 
L 251.722689 205.809206 
L 251.722689 205.250024 
L 255.531463 205.250024 
L 255.531463 204.690841 
L 333.569032 204.690841 
L 333.569032 204.690841 
" style="fill:none;stroke:#000080;stroke-linecap:square;stroke-width:1.5;"/>
   </g>
   <g id="line2d_25">
    <defs>
     <path d="M 0 6 
C 1.591219 6 3.117479 5.367802 4.242641 4.242641 
C 5.367802 3.117479 6 1.591219 6 0 
C 6 -1.591219 5.367802 -3.117479 4.242641 -4.242641 
C 3.117479 -5.367802 1.591219 -6 0 -6 
C -1.591219 -6 -3.117479 -5.367802 -4.242641 -4.242641 
C -5.367802 -3.117479 -6 -1.591219 -6 0 
C -6 1.591219 -5.367802 3.117479 -4.242641 4.242641 
C -3.117479 5.367802 -1.591219 6 0 6 
z
" id="mf5a28a4e8d" style="stroke:#000080;stroke-width:1.5;"/>
    </defs>
    <g>
     <use style="fill-opacity:0;stroke:#000080;stroke-width:1.5;" x="114.652569" xlink:href="#mf5a28a4e8d" y="263.964159"/>
     <use style="fill-opacity:0;stroke:#000080;stroke-width:1.5;" x="169.248931" xlink:href="#mf5a28a4e8d" y="239.36014"/>
     <use style="fill-opacity:0;stroke:#000080;stroke-width:1.5;" x="241.591675" xlink:href="#mf5a28a4e8d" y="208.045935"/>
     <use style="fill-opacity:0;stroke:#000080;stroke-width:1.5;" x="255.531463" xlink:href="#mf5a28a4e8d" y="204.690841"/>
     <use style="fill-opacity:0;stroke:#000080;stroke-width:1.5;" x="255.531463" xlink:href="#mf5a28a4e8d" y="204.690841"/>
     <use style="fill-opacity:0;stroke:#000080;stroke-width:1.5;" x="333.569032" xlink:href="#mf5a28a4e8d" y="204.690841"/>
    </g>
   </g>
   <g id="line2d_26">
    <path style="fill:none;stroke:#000080;stroke-linecap:square;stroke-width:1.5;"/>
    <g/>
   </g>
   <g id="line2d_27">
    <path clip-path="url(#p597c7bbed1)" d="M 164.100586 242.156052 
" style="fill:none;stroke:#000080;stroke-linecap:square;stroke-width:1.5;"/>
    <defs>
     <path d="M -12 12 
L 12 -12 
M -12 -12 
L 12 12 
" id="m2581205bc2" style="stroke:#000080;stroke-width:3;"/>
    </defs>
    <g clip-path="url(#p597c7bbed1)">
     <use style="fill:#000080;stroke:#000080;stroke-width:3;" x="164.100586" xlink:href="#m2581205bc2" y="242.156052"/>
    </g>
   </g>
   <g id="line2d_28">
    <defs>
     <path d="M 0 1.5 
C 0.397805 1.5 0.77937 1.341951 1.06066 1.06066 
C 1.341951 0.77937 1.5 0.397805 1.5 0 
C 1.5 -0.397805 1.341951 -0.77937 1.06066 -1.06066 
C 0.77937 -1.341951 0.397805 -1.5 0 -1.5 
C -0.397805 -1.5 -0.77937 -1.341951 -1.06066 -1.06066 
C -1.341951 -0.77937 -1.5 -0.397805 -1.5 0 
C -1.5 0.397805 -1.341951 0.77937 -1.06066 1.06066 
C -0.77937 1.341951 -0.397805 1.5 0 1.5 
z
" id="m20c64e088a" style="stroke:#ff00ff;"/>
    </defs>
    <g>
     <use style="fill:#ff00ff;stroke:#ff00ff;" x="241.793952" xlink:href="#m20c64e088a" y="187.915374"/>
     <use style="fill:#ff00ff;stroke:#ff00ff;" x="241.793952" xlink:href="#m20c64e088a" y="187.915374"/>
    </g>
   </g>
   <g id="line2d_29">
    <path d="M 37.9781 294.16 
L 37.9781 275.706986 
L 49.878634 275.706986 
L 49.878634 268.437617 
L 56.84 268.437617 
L 56.84 266.200888 
L 61.779168 266.200888 
L 61.779168 260.049883 
L 65.610284 260.049883 
L 65.610284 258.372337 
L 68.740534 258.372337 
L 68.740534 257.813154 
L 71.387123 257.813154 
L 71.387123 255.576425 
L 73.679702 255.576425 
L 73.679702 254.458061 
L 80.641068 254.458061 
L 80.641068 253.339696 
L 82.015309 253.339696 
L 82.015309 252.780514 
L 84.472185 252.780514 
L 84.472185 251.66215 
L 93.242469 251.66215 
L 93.242469 251.102967 
L 94.563801 251.102967 
L 94.563801 250.543785 
L 95.790669 250.543785 
L 95.790669 249.984603 
L 97.480771 249.984603 
L 97.480771 249.425421 
L 98.521625 249.425421 
L 98.521625 248.307056 
L 99.502969 248.307056 
L 99.502969 247.747874 
L 99.973377 247.747874 
L 99.973377 246.070327 
L 103.334085 246.070327 
L 103.334085 245.511145 
L 104.796146 245.511145 
L 104.796146 244.951963 
L 105.482991 244.951963 
L 105.482991 244.392781 
L 107.392607 244.392781 
L 107.392607 243.833598 
L 109.110924 243.833598 
L 109.110924 243.274416 
L 109.381305 243.274416 
L 109.381305 242.156052 
L 111.163375 242.156052 
L 111.163375 241.037687 
L 111.403503 241.037687 
L 111.403503 240.478505 
L 111.873912 240.478505 
L 111.873912 239.919323 
L 113.636365 239.919323 
L 113.636365 239.36014 
L 117.214373 239.36014 
L 117.214373 238.800958 
L 117.551028 238.800958 
L 117.551028 237.682594 
L 118.835278 237.682594 
L 118.835278 237.123411 
L 119.141873 237.123411 
L 119.141873 236.564229 
L 122.942575 236.564229 
L 122.942575 235.445865 
L 123.540853 235.445865 
L 123.540853 234.886682 
L 124.004904 234.886682 
L 124.004904 234.3275 
L 124.232309 234.3275 
L 124.232309 233.768318 
L 124.567867 233.768318 
L 124.567867 233.209136 
L 125.43189 233.209136 
L 125.43189 232.649954 
L 126.454147 232.649954 
L 126.454147 232.090771 
L 128.771519 232.090771 
L 128.771519 231.531589 
L 129.617446 231.531589 
L 129.617446 230.972407 
L 129.781742 230.972407 
L 129.781742 229.29486 
L 130.502219 229.29486 
L 130.502219 228.735678 
L 130.6583 228.735678 
L 130.6583 228.176496 
L 132.14571 228.176496 
L 132.216802 226.498949 
L 134.223228 226.498949 
L 134.223228 225.939767 
L 135.790596 225.939767 
L 135.790596 225.380584 
L 135.905438 225.380584 
L 135.905438 224.26222 
L 136.076273 224.26222 
L 136.076273 223.703038 
L 137.013489 223.703038 
L 137.013489 223.143855 
L 137.22677 223.143855 
L 137.22677 222.584673 
L 137.541803 222.584673 
L 137.541803 222.025491 
L 138.552026 222.025491 
L 138.552026 221.466309 
L 139.366322 221.466309 
L 139.366322 220.907126 
L 139.690709 220.907126 
L 139.690709 220.347944 
L 140.715354 220.347944 
L 140.715354 219.22958 
L 141.100226 219.22958 
L 141.100226 217.552033 
L 142.205634 217.552033 
L 142.205634 216.992851 
L 149.364119 216.992851 
L 149.364119 216.433669 
L 151.751167 216.433669 
L 151.751167 215.874486 
L 167.478269 215.874486 
L 167.478269 215.315304 
L 167.962689 215.315304 
L 167.962689 214.756122 
L 168.519659 214.756122 
L 168.519659 214.19694 
L 168.80836 214.19694 
L 168.80836 213.637757 
L 169.92483 213.637757 
L 169.92483 213.078575 
L 173.475944 213.078575 
L 173.475944 212.519393 
L 176.822959 212.519393 
L 176.917728 211.401028 
L 177.03285 211.401028 
L 177.03285 210.841846 
L 177.147206 210.841846 
L 177.240206 209.723482 
L 177.546618 209.723482 
L 177.546618 209.164299 
L 177.742893 209.164299 
L 177.742893 208.045935 
L 177.90228 208.045935 
L 177.966611 206.92757 
L 178.206944 206.92757 
L 178.206944 206.368388 
L 178.371751 206.368388 
L 178.371751 205.809206 
L 178.725071 205.809206 
L 178.725071 205.250024 
L 179.301292 205.250024 
L 179.301292 204.690841 
L 180.385907 204.690841 
L 180.385907 204.131659 
L 183.614546 204.131659 
L 183.614546 203.572477 
L 184.491104 203.572477 
L 184.491104 203.013295 
L 188.532373 203.013295 
L 188.532373 202.454112 
L 192.109641 202.454112 
L 192.109641 201.89493 
L 195.702449 201.89493 
L 195.702449 201.335748 
L 196.923739 201.335748 
L 196.923739 200.776566 
L 198.117433 200.776566 
L 198.196671 199.099019 
L 198.415713 199.099019 
L 198.415713 198.539837 
L 198.563676 198.539837 
L 198.563676 197.980655 
L 200.604218 197.980655 
L 200.604218 197.421472 
L 202.180054 197.421472 
L 202.180054 196.86229 
L 209.812847 196.86229 
L 209.812847 196.303108 
L 212.128692 196.303108 
L 212.128692 195.743926 
L 213.135867 195.743926 
L 213.135867 195.184743 
L 213.398773 195.184743 
L 213.398773 194.625561 
L 215.793824 194.625561 
L 215.793824 194.066379 
L 217.664002 194.066379 
L 217.664002 193.507197 
L 218.509242 193.507197 
L 218.509242 192.948014 
L 219.704075 192.948014 
L 219.704075 192.388832 
L 222.205895 192.388832 
L 222.205895 191.82965 
L 222.333837 191.82965 
L 222.333837 191.270468 
L 223.452019 191.270468 
L 223.452019 190.711285 
L 233.136877 190.711285 
L 233.136877 190.152103 
L 235.757194 190.152103 
L 235.757194 189.592921 
L 239.984967 189.592921 
L 239.984967 189.033739 
L 241.140987 189.033739 
L 241.140987 188.474556 
L 241.793952 188.474556 
L 241.793952 187.915374 
L 333.569032 187.915374 
L 333.569032 187.915374 
" style="fill:none;stroke:#ff00ff;stroke-linecap:square;stroke-width:1.5;"/>
   </g>
   <g id="line2d_30">
    <defs>
     <path d="M -0 8.485281 
L 5.091169 0 
L 0 -8.485281 
L -5.091169 -0 
z
" id="m0a6ec6d941" style="stroke:#ff00ff;stroke-linejoin:miter;stroke-width:1.5;"/>
    </defs>
    <g>
     <use style="fill-opacity:0;stroke:#ff00ff;stroke-linejoin:miter;stroke-width:1.5;" x="84.472185" xlink:href="#m0a6ec6d941" y="252.780514"/>
     <use style="fill-opacity:0;stroke:#ff00ff;stroke-linejoin:miter;stroke-width:1.5;" x="142.205634" xlink:href="#m0a6ec6d941" y="217.552033"/>
     <use style="fill-opacity:0;stroke:#ff00ff;stroke-linejoin:miter;stroke-width:1.5;" x="219.704075" xlink:href="#m0a6ec6d941" y="192.388832"/>
     <use style="fill-opacity:0;stroke:#ff00ff;stroke-linejoin:miter;stroke-width:1.5;" x="241.793952" xlink:href="#m0a6ec6d941" y="188.474556"/>
     <use style="fill-opacity:0;stroke:#ff00ff;stroke-linejoin:miter;stroke-width:1.5;" x="241.793952" xlink:href="#m0a6ec6d941" y="187.915374"/>
     <use style="fill-opacity:0;stroke:#ff00ff;stroke-linejoin:miter;stroke-width:1.5;" x="333.569032" xlink:href="#m0a6ec6d941" y="187.915374"/>
    </g>
   </g>
   <g id="line2d_31">
    <path style="fill:none;stroke:#ff00ff;stroke-linecap:square;stroke-width:1.5;"/>
    <g/>
   </g>
   <g id="line2d_32">
    <path clip-path="url(#p597c7bbed1)" d="M 164.100586 215.874486 
" style="fill:none;stroke:#ff00ff;stroke-linecap:square;stroke-width:1.5;"/>
    <defs>
     <path d="M -12 12 
L 12 -12 
M -12 -12 
L 12 12 
" id="m29483eae72" style="stroke:#ff00ff;stroke-width:3;"/>
    </defs>
    <g clip-path="url(#p597c7bbed1)">
     <use style="fill:#ff00ff;stroke:#ff00ff;stroke-width:3;" x="164.100586" xlink:href="#m29483eae72" y="215.874486"/>
    </g>
   </g>
   <g id="line2d_33">
    <defs>
     <path d="M 0 1.5 
C 0.397805 1.5 0.77937 1.341951 1.06066 1.06066 
C 1.341951 0.77937 1.5 0.397805 1.5 0 
C 1.5 -0.397805 1.341951 -0.77937 1.06066 -1.06066 
C 0.77937 -1.341951 0.397805 -1.5 0 -1.5 
C -0.397805 -1.5 -0.77937 -1.341951 -1.06066 -1.06066 
C -1.341951 -0.77937 -1.5 -0.397805 -1.5 0 
C -1.5 0.397805 -1.341951 0.77937 -1.06066 1.06066 
C -0.77937 1.341951 -0.397805 1.5 0 1.5 
z
" id="mbce1b3e72a" style="stroke:#ffa500;"/>
    </defs>
    <g>
     <use style="fill:#ffa500;stroke:#ffa500;" x="234.037953" xlink:href="#mbce1b3e72a" y="199.099019"/>
     <use style="fill:#ffa500;stroke:#ffa500;" x="234.037953" xlink:href="#mbce1b3e72a" y="199.099019"/>
    </g>
   </g>
   <g id="line2d_34">
    <path d="M 37.9781 294.16 
L 37.9781 286.331449 
L 49.878634 286.331449 
L 49.878634 282.976355 
L 56.84 282.976355 
L 56.84 278.502897 
L 65.610284 278.502897 
L 65.610284 277.943715 
L 68.740534 277.943715 
L 68.740534 277.384533 
L 73.679702 277.384533 
L 73.679702 276.825351 
L 79.147184 276.825351 
L 79.147184 272.911075 
L 82.015309 272.911075 
L 82.015309 271.79271 
L 85.580236 271.79271 
L 85.580236 271.233528 
L 86.621091 271.233528 
L 86.621091 270.674346 
L 87.602435 270.674346 
L 87.602435 269.555981 
L 88.530706 269.555981 
L 88.530706 268.996799 
L 90.249023 268.996799 
L 90.249023 266.76007 
L 93.242469 266.76007 
L 93.242469 266.200888 
L 94.563801 266.200888 
L 94.563801 265.641706 
L 96.372719 265.641706 
L 96.372719 265.082523 
L 96.935682 265.082523 
L 96.935682 264.523341 
L 101.73583 264.523341 
L 101.73583 263.964159 
L 107.691203 263.964159 
L 107.691203 263.404977 
L 107.984694 263.404977 
L 107.984694 262.845795 
L 109.381305 262.845795 
L 109.381305 262.286612 
L 110.167801 262.286612 
L 110.167801 261.168248 
L 110.919842 261.168248 
L 110.919842 260.609066 
L 111.403503 260.609066 
L 111.403503 260.049883 
L 112.777744 260.049883 
L 112.777744 259.490701 
L 113.212421 259.490701 
L 113.212421 258.372337 
L 113.636365 258.372337 
L 113.636365 257.253972 
L 114.454083 257.253972 
L 114.454083 256.69479 
L 117.214373 256.69479 
L 117.214373 256.135608 
L 117.383526 256.135608 
L 117.383526 255.576425 
L 117.716912 255.576425 
L 117.716912 254.458061 
L 121.415449 254.458061 
L 121.415449 253.898879 
L 123.06391 253.898879 
L 123.06391 253.339696 
L 129.199692 253.339696 
L 129.199692 252.780514 
L 130.025276 252.780514 
L 130.025276 252.221332 
L 130.344705 252.221332 
L 130.344705 251.102967 
L 132.002635 251.102967 
L 132.002635 250.543785 
L 132.287602 250.543785 
L 132.287602 249.984603 
L 136.076273 249.984603 
L 136.076273 248.866238 
L 136.578812 248.866238 
L 136.578812 248.307056 
L 138.104766 248.307056 
L 138.104766 247.747874 
L 139.552436 247.747874 
L 139.552436 246.62951 
L 140.453895 246.62951 
L 140.453895 246.070327 
L 145.116408 246.070327 
L 145.116408 245.511145 
L 148.14596 245.511145 
L 148.14596 244.951963 
L 151.220011 244.951963 
L 151.220011 244.392781 
L 152.766588 244.392781 
L 152.766588 243.833598 
L 160.421102 243.833598 
L 160.421102 243.274416 
L 161.041081 243.274416 
L 161.041081 242.715234 
L 164.265937 242.715234 
L 164.265937 242.156052 
L 165.757079 242.156052 
L 165.757079 241.596869 
L 166.125245 241.596869 
L 166.125245 241.037687 
L 166.885862 241.037687 
L 166.885862 240.478505 
L 167.659281 240.478505 
L 167.659281 239.919323 
L 173.034027 239.919323 
L 173.034027 239.36014 
L 174.006591 239.36014 
L 174.006591 238.800958 
L 175.750068 238.800958 
L 175.750068 238.241776 
L 176.237632 238.241776 
L 176.237632 237.682594 
L 176.368235 237.682594 
L 176.368235 237.123411 
L 176.647847 237.123411 
L 176.647847 236.564229 
L 177.475609 236.564229 
L 177.475609 236.005047 
L 177.722865 236.005047 
L 177.722865 235.445865 
L 177.941897 235.445865 
L 177.941897 234.886682 
L 178.167935 234.886682 
L 178.167935 234.3275 
L 178.577942 234.3275 
L 178.577942 233.768318 
L 182.795527 233.768318 
L 182.795527 233.209136 
L 183.316948 233.209136 
L 183.316948 232.649954 
L 186.724048 232.649954 
L 186.724048 232.090771 
L 187.206556 232.090771 
L 187.206556 231.531589 
L 187.99004 231.531589 
L 187.99004 230.972407 
L 188.411833 230.972407 
L 188.411833 230.413225 
L 188.625545 230.413225 
L 188.625545 229.854042 
L 188.899451 229.854042 
L 188.899451 229.29486 
L 189.653432 229.29486 
L 189.653432 228.735678 
L 189.987732 228.735678 
L 189.987732 228.176496 
L 190.9718 228.176496 
L 190.9718 227.617313 
L 192.035797 227.617313 
L 192.035797 227.058131 
L 192.382697 227.058131 
L 192.382697 226.498949 
L 192.69552 226.498949 
L 192.69552 225.939767 
L 195.475935 225.939767 
L 195.475935 225.380584 
L 197.756263 225.380584 
L 197.756263 224.821402 
L 197.973259 224.821402 
L 197.973259 224.26222 
L 198.111322 224.26222 
L 198.202752 223.143855 
L 198.224015 223.143855 
L 198.261921 222.025491 
L 198.851441 222.025491 
L 198.851441 221.466309 
L 200.048257 221.466309 
L 200.048257 220.907126 
L 200.22343 220.907126 
L 200.22343 220.347944 
L 200.370064 220.347944 
L 200.468905 218.670397 
L 200.77907 218.670397 
L 200.77907 218.111215 
L 202.365898 218.111215 
L 202.365898 217.552033 
L 202.632142 217.552033 
L 202.714138 216.433669 
L 204.21805 216.433669 
L 204.21805 215.874486 
L 205.196003 215.874486 
L 205.196003 215.315304 
L 207.117112 215.315304 
L 207.117112 214.756122 
L 209.089102 214.756122 
L 209.089102 214.19694 
L 209.510332 214.19694 
L 209.510332 213.637757 
L 211.126878 213.637757 
L 211.126878 213.078575 
L 212.137469 213.078575 
L 212.202146 211.960211 
L 212.302717 211.960211 
L 212.302717 211.401028 
L 212.937299 211.401028 
L 212.937299 210.841846 
L 214.034113 210.841846 
L 214.034113 210.282664 
L 214.187544 210.282664 
L 214.187544 209.723482 
L 215.362405 209.723482 
L 215.362405 209.164299 
L 218.204305 209.164299 
L 218.204305 208.605117 
L 218.336059 208.605117 
L 218.336059 208.045935 
L 218.791458 208.045935 
L 218.791458 207.486753 
L 219.254721 207.486753 
L 219.254721 206.92757 
L 222.269237 206.92757 
L 222.269237 206.368388 
L 223.259578 206.368388 
L 223.259578 205.809206 
L 223.822348 205.809206 
L 223.822348 205.250024 
L 224.107386 205.250024 
L 224.107386 204.690841 
L 225.295544 204.690841 
L 225.295544 204.131659 
L 229.160877 204.131659 
L 229.22312 203.013295 
L 229.670854 203.013295 
L 229.685434 201.89493 
L 232.486428 201.89493 
L 232.486428 201.335748 
L 233.041855 201.335748 
L 233.041855 200.776566 
L 233.162088 200.776566 
L 233.162088 200.217384 
L 233.676979 200.217384 
L 233.676979 199.658201 
L 234.037953 199.658201 
L 234.037953 199.099019 
L 333.569032 199.099019 
L 333.569032 199.099019 
" style="fill:none;stroke:#ffa500;stroke-linecap:square;stroke-width:1.5;"/>
   </g>
   <g id="line2d_35">
    <defs>
     <path d="M 0 -6 
L -1.347084 -1.854102 
L -5.706339 -1.854102 
L -2.179628 0.708204 
L -3.526712 4.854102 
L -0 2.291796 
L 3.526712 4.854102 
L 2.179628 0.708204 
L 5.706339 -1.854102 
L 1.347084 -1.854102 
z
" id="mdd6cf38a27" style="stroke:#ffa500;stroke-linejoin:bevel;stroke-width:1.5;"/>
    </defs>
    <g>
     <use style="fill-opacity:0;stroke:#ffa500;stroke-linejoin:bevel;stroke-width:1.5;" x="123.06391" xlink:href="#mdd6cf38a27" y="253.339696"/>
     <use style="fill-opacity:0;stroke:#ffa500;stroke-linejoin:bevel;stroke-width:1.5;" x="190.9718" xlink:href="#mdd6cf38a27" y="227.617313"/>
     <use style="fill-opacity:0;stroke:#ffa500;stroke-linejoin:bevel;stroke-width:1.5;" x="234.037953" xlink:href="#mdd6cf38a27" y="199.658201"/>
     <use style="fill-opacity:0;stroke:#ffa500;stroke-linejoin:bevel;stroke-width:1.5;" x="234.037953" xlink:href="#mdd6cf38a27" y="199.099019"/>
     <use style="fill-opacity:0;stroke:#ffa500;stroke-linejoin:bevel;stroke-width:1.5;" x="234.037953" xlink:href="#mdd6cf38a27" y="199.099019"/>
     <use style="fill-opacity:0;stroke:#ffa500;stroke-linejoin:bevel;stroke-width:1.5;" x="333.569032" xlink:href="#mdd6cf38a27" y="199.099019"/>
    </g>
   </g>
   <g id="line2d_36">
    <path style="fill:none;stroke:#ffa500;stroke-linecap:square;stroke-width:1.5;"/>
    <g/>
   </g>
   <g id="line2d_37">
    <path clip-path="url(#p597c7bbed1)" d="M 164.100586 242.715234 
" style="fill:none;stroke:#ffa500;stroke-linecap:square;stroke-width:1.5;"/>
    <defs>
     <path d="M -12 12 
L 12 -12 
M -12 -12 
L 12 12 
" id="mdc3923023e" style="stroke:#ffa500;stroke-width:3;"/>
    </defs>
    <g clip-path="url(#p597c7bbed1)">
     <use style="fill:#ffa500;stroke:#ffa500;stroke-width:3;" x="164.100586" xlink:href="#mdc3923023e" y="242.715234"/>
    </g>
   </g>
   <g id="line2d_38">
    <defs>
     <path d="M 0 1.5 
C 0.397805 1.5 0.77937 1.341951 1.06066 1.06066 
C 1.341951 0.77937 1.5 0.397805 1.5 0 
C 1.5 -0.397805 1.341951 -0.77937 1.06066 -1.06066 
C 0.77937 -1.341951 0.397805 -1.5 0 -1.5 
C -0.397805 -1.5 -0.77937 -1.341951 -1.06066 -1.06066 
C -1.341951 -0.77937 -1.5 -0.397805 -1.5 0 
C -1.5 0.397805 -1.341951 0.77937 -1.06066 1.06066 
C -0.77937 1.341951 -0.397805 1.5 0 1.5 
z
" id="m6492acad38" style="stroke:#6495ed;"/>
    </defs>
    <g>
     <use style="fill:#6495ed;stroke:#6495ed;" x="261.087359" xlink:href="#m6492acad38" y="204.690841"/>
     <use style="fill:#6495ed;stroke:#6495ed;" x="261.087359" xlink:href="#m6492acad38" y="204.690841"/>
    </g>
   </g>
   <g id="line2d_39">
    <path d="M 37.9781 294.16 
L 37.9781 277.943715 
L 49.878634 277.943715 
L 49.878634 273.470257 
L 56.84 273.470257 
L 56.84 268.996799 
L 61.779168 268.996799 
L 61.779168 265.641706 
L 65.610284 265.641706 
L 65.610284 263.404977 
L 71.387123 263.404977 
L 71.387123 262.286612 
L 73.679702 262.286612 
L 73.679702 260.609066 
L 75.7019 260.609066 
L 75.7019 258.931519 
L 77.510818 258.931519 
L 77.510818 258.372337 
L 82.015309 258.372337 
L 82.015309 257.253972 
L 91.047718 257.253972 
L 91.047718 256.69479 
L 92.541603 256.69479 
L 92.541603 256.135608 
L 93.242469 256.135608 
L 93.242469 255.576425 
L 95.188191 255.576425 
L 95.188191 254.458061 
L 96.935682 254.458061 
L 96.935682 253.898879 
L 99.502969 253.898879 
L 99.502969 252.780514 
L 99.973377 252.780514 
L 99.973377 251.102967 
L 100.877209 251.102967 
L 100.877209 249.984603 
L 101.73583 249.984603 
L 101.73583 248.866238 
L 104.080674 248.866238 
L 104.080674 248.307056 
L 105.816377 248.307056 
L 105.816377 247.747874 
L 106.464335 247.747874 
L 106.464335 247.188692 
L 107.691203 247.188692 
L 107.691203 246.070327 
L 107.984694 246.070327 
L 107.984694 245.511145 
L 108.273253 245.511145 
L 108.273253 243.833598 
L 109.110924 243.833598 
L 109.110924 242.715234 
L 111.873912 242.715234 
L 111.873912 242.156052 
L 112.331775 242.156052 
L 112.331775 241.596869 
L 115.611972 241.596869 
L 115.611972 241.037687 
L 117.043537 241.037687 
L 117.043537 240.478505 
L 118.043947 240.478505 
L 118.043947 239.919323 
L 119.141873 239.919323 
L 119.141873 239.36014 
L 122.195986 239.36014 
L 122.195986 238.800958 
L 125.43189 238.800958 
L 125.43189 238.241776 
L 128.421122 238.241776 
L 128.421122 237.682594 
L 132.775188 237.682594 
L 132.775188 237.123411 
L 132.979988 237.123411 
L 132.979988 236.564229 
L 134.535966 236.564229 
L 134.535966 236.005047 
L 136.959753 236.005047 
L 136.959753 235.445865 
L 137.489697 235.445865 
L 137.489697 234.886682 
L 142.480971 234.886682 
L 142.480971 233.768318 
L 143.169347 233.768318 
L 143.169347 233.209136 
L 143.613393 233.209136 
L 143.613393 232.649954 
L 145.116408 232.649954 
L 145.116408 232.090771 
L 152.809403 232.090771 
L 152.809403 231.531589 
L 165.194786 231.531589 
L 165.194786 230.972407 
L 165.635958 230.972407 
L 165.666318 229.854042 
L 165.82734 229.854042 
L 165.82734 229.29486 
L 166.115398 229.29486 
L 166.115398 228.735678 
L 166.504952 228.735678 
L 166.504952 228.176496 
L 166.715498 228.176496 
L 166.715498 227.617313 
L 167.258505 227.617313 
L 167.258505 227.058131 
L 167.722187 227.058131 
L 167.722187 226.498949 
L 168.545329 226.498949 
L 168.545329 225.939767 
L 168.909107 225.939767 
L 168.909107 225.380584 
L 169.034214 225.380584 
L 169.034214 224.821402 
L 169.525723 224.821402 
L 169.525723 224.26222 
L 177.582012 224.26222 
L 177.582012 223.703038 
L 177.83273 223.703038 
L 177.83273 223.143855 
L 179.062001 223.143855 
L 179.062001 222.584673 
L 184.715931 222.584673 
L 184.715931 222.025491 
L 188.379545 222.025491 
L 188.379545 221.466309 
L 189.091719 221.466309 
L 189.156191 219.788762 
L 189.419291 219.788762 
L 189.454743 218.670397 
L 192.743627 218.670397 
L 192.743627 218.111215 
L 200.190975 218.111215 
L 200.190975 217.552033 
L 201.133773 217.552033 
L 201.133773 216.992851 
L 202.572154 216.992851 
L 202.572154 216.433669 
L 208.657276 216.433669 
L 208.657276 215.874486 
L 209.937594 215.874486 
L 209.960596 214.756122 
L 211.335367 214.756122 
L 211.335367 214.19694 
L 211.465715 214.19694 
L 211.465715 213.637757 
L 212.126666 213.637757 
L 212.185326 212.519393 
L 213.190548 212.519393 
L 213.190548 211.960211 
L 214.102875 211.960211 
L 214.102875 211.401028 
L 217.509699 211.401028 
L 217.509699 210.841846 
L 218.242187 210.841846 
L 218.242187 210.282664 
L 219.002719 210.282664 
L 219.002719 209.723482 
L 221.583827 209.723482 
L 221.583827 209.164299 
L 224.903101 209.164299 
L 224.903101 208.605117 
L 225.878044 208.605117 
L 225.878044 208.045935 
L 234.592328 208.045935 
L 234.592328 207.486753 
L 235.738766 207.486753 
L 235.738766 206.92757 
L 238.618313 206.92757 
L 238.618313 206.368388 
L 240.834791 206.368388 
L 240.834791 205.809206 
L 252.913357 205.809206 
L 252.913357 205.250024 
L 261.087359 205.250024 
L 261.087359 204.690841 
L 333.569032 204.690841 
L 333.569032 204.690841 
" style="fill:none;stroke:#6495ed;stroke-linecap:square;stroke-width:1.5;"/>
   </g>
   <g id="line2d_40">
    <defs>
     <path d="M -0 6 
L 6 -6 
L -6 -6 
z
" id="mbf9828382a" style="stroke:#6495ed;stroke-linejoin:miter;stroke-width:1.5;"/>
    </defs>
    <g>
     <use style="fill-opacity:0;stroke:#6495ed;stroke-linejoin:miter;stroke-width:1.5;" x="91.047718" xlink:href="#mbf9828382a" y="256.69479"/>
     <use style="fill-opacity:0;stroke:#6495ed;stroke-linejoin:miter;stroke-width:1.5;" x="152.809403" xlink:href="#mbf9828382a" y="232.090771"/>
     <use style="fill-opacity:0;stroke:#6495ed;stroke-linejoin:miter;stroke-width:1.5;" x="225.878044" xlink:href="#mbf9828382a" y="208.605117"/>
     <use style="fill-opacity:0;stroke:#6495ed;stroke-linejoin:miter;stroke-width:1.5;" x="261.087359" xlink:href="#mbf9828382a" y="204.690841"/>
     <use style="fill-opacity:0;stroke:#6495ed;stroke-linejoin:miter;stroke-width:1.5;" x="261.087359" xlink:href="#mbf9828382a" y="204.690841"/>
     <use style="fill-opacity:0;stroke:#6495ed;stroke-linejoin:miter;stroke-width:1.5;" x="333.569032" xlink:href="#mbf9828382a" y="204.690841"/>
    </g>
   </g>
   <g id="line2d_41">
    <path style="fill:none;stroke:#6495ed;stroke-linecap:square;stroke-width:1.5;"/>
    <g/>
   </g>
   <g id="line2d_42">
    <path clip-path="url(#p597c7bbed1)" d="M 164.100586 231.531589 
" style="fill:none;stroke:#6495ed;stroke-linecap:square;stroke-width:1.5;"/>
    <defs>
     <path d="M -12 12 
L 12 -12 
M -12 -12 
L 12 12 
" id="m4ced9586d5" style="stroke:#6495ed;stroke-width:3;"/>
    </defs>
    <g clip-path="url(#p597c7bbed1)">
     <use style="fill:#6495ed;stroke:#6495ed;stroke-width:3;" x="164.100586" xlink:href="#m4ced9586d5" y="231.531589"/>
    </g>
   </g>
   <g id="line2d_43">
    <defs>
     <path d="M 0 1.5 
C 0.397805 1.5 0.77937 1.341951 1.06066 1.06066 
C 1.341951 0.77937 1.5 0.397805 1.5 0 
C 1.5 -0.397805 1.341951 -0.77937 1.06066 -1.06066 
C 0.77937 -1.341951 0.397805 -1.5 0 -1.5 
C -0.397805 -1.5 -0.77937 -1.341951 -1.06066 -1.06066 
C -1.341951 -0.77937 -1.5 -0.397805 -1.5 0 
C -1.5 0.397805 -1.341951 0.77937 -1.06066 1.06066 
C -0.77937 1.341951 -0.397805 1.5 0 1.5 
z
" id="mc29ac6e62b" style="stroke:#ff0000;"/>
    </defs>
    <g>
     <use style="fill:#ff0000;stroke:#ff0000;" x="240.564458" xlink:href="#mc29ac6e62b" y="232.649954"/>
     <use style="fill:#ff0000;stroke:#ff0000;" x="240.564458" xlink:href="#mc29ac6e62b" y="232.649954"/>
    </g>
   </g>
   <g id="line2d_44">
    <path d="M 37.9781 294.16 
L 37.9781 290.804907 
L 49.878634 290.804907 
L 49.878634 289.12736 
L 56.84 289.12736 
L 56.84 288.568178 
L 68.740534 288.568178 
L 68.740534 287.449813 
L 75.7019 287.449813 
L 75.7019 285.772266 
L 79.147184 285.772266 
L 79.147184 285.213084 
L 80.641068 285.213084 
L 80.641068 283.535537 
L 82.015309 283.535537 
L 82.015309 282.417173 
L 84.472185 282.417173 
L 84.472185 281.857991 
L 85.580236 281.857991 
L 85.580236 280.739626 
L 87.602435 280.739626 
L 87.602435 279.062079 
L 88.530706 279.062079 
L 88.530706 278.502897 
L 91.810903 278.502897 
L 91.810903 277.384533 
L 95.188191 277.384533 
L 95.188191 276.266168 
L 95.790669 276.266168 
L 95.790669 275.706986 
L 97.480771 275.706986 
L 97.480771 275.147804 
L 105.482991 275.147804 
L 105.482991 274.588622 
L 105.816377 274.588622 
L 105.816377 274.029439 
L 106.143413 274.029439 
L 106.143413 273.470257 
L 108.273253 273.470257 
L 108.273253 272.911075 
L 108.836216 272.911075 
L 108.836216 271.233528 
L 110.672804 271.233528 
L 110.672804 270.674346 
L 110.919842 270.674346 
L 110.919842 269.555981 
L 115.234619 269.555981 
L 115.234619 268.996799 
L 115.611972 268.996799 
L 115.611972 268.437617 
L 117.551028 268.437617 
L 117.551028 267.878435 
L 118.364869 267.878435 
L 118.364869 267.319252 
L 120.173787 267.319252 
L 120.173787 266.76007 
L 121.939729 266.76007 
L 121.939729 266.200888 
L 124.004904 266.200888 
L 124.004904 265.641706 
L 132.637285 265.641706 
L 132.637285 264.523341 
L 135.084927 264.523341 
L 135.084927 263.964159 
L 135.264082 263.964159 
L 135.264082 263.404977 
L 135.441387 263.404977 
L 135.441387 262.845795 
L 136.851772 262.845795 
L 136.851772 262.286612 
L 137.85116 262.286612 
L 137.85116 261.72743 
L 140.930236 261.72743 
L 141.015441 260.609066 
L 144.117337 260.609066 
L 144.117337 260.049883 
L 147.604491 260.049883 
L 147.604491 259.490701 
L 148.698061 259.490701 
L 148.698061 258.931519 
L 150.501544 258.931519 
L 150.501544 258.372337 
L 152.766588 258.372337 
L 152.766588 257.813154 
L 153.294252 257.813154 
L 153.397866 256.69479 
L 158.780619 256.69479 
L 158.780619 256.135608 
L 166.085822 256.135608 
L 166.085822 255.576425 
L 167.063876 255.576425 
L 167.063876 255.017243 
L 169.33897 255.017243 
L 169.33897 254.458061 
L 171.678429 254.458061 
L 171.678429 253.898879 
L 172.573673 253.898879 
L 172.573673 253.339696 
L 177.022416 253.339696 
L 177.022416 252.780514 
L 177.281378 252.780514 
L 177.281378 252.221332 
L 178.458365 252.221332 
L 178.458365 251.66215 
L 179.13137 251.66215 
L 179.13137 251.102967 
L 179.600282 251.102967 
L 179.600282 250.543785 
L 179.792314 250.543785 
L 179.792314 249.984603 
L 179.947049 249.984603 
L 179.947049 249.425421 
L 180.905638 249.425421 
L 180.905638 248.866238 
L 181.43433 248.866238 
L 181.43433 248.307056 
L 183.399933 248.307056 
L 183.399933 247.747874 
L 188.266059 247.747874 
L 188.312084 246.070327 
L 188.473548 246.070327 
L 188.473548 245.511145 
L 191.503061 245.511145 
L 191.503061 244.951963 
L 193.531495 244.951963 
L 193.531495 244.392781 
L 194.67181 244.392781 
L 194.67181 243.833598 
L 199.791108 243.833598 
L 199.791108 243.274416 
L 200.575123 243.274416 
L 200.575123 242.715234 
L 201.34389 242.715234 
L 201.34389 242.156052 
L 204.753467 242.156052 
L 204.753467 241.596869 
L 206.434584 241.596869 
L 206.434584 241.037687 
L 207.48302 241.037687 
L 207.48302 240.478505 
L 209.191175 240.478505 
L 209.191175 239.919323 
L 210.399353 239.919323 
L 210.399353 239.36014 
L 211.236775 239.36014 
L 211.236775 238.800958 
L 214.499179 238.800958 
L 214.499179 238.241776 
L 216.248169 238.241776 
L 216.248169 237.682594 
L 217.022046 237.682594 
L 217.022046 237.123411 
L 218.411164 237.123411 
L 218.411164 236.564229 
L 220.634929 236.564229 
L 220.634929 236.005047 
L 224.093599 236.005047 
L 224.093599 235.445865 
L 226.887427 235.445865 
L 226.887427 234.886682 
L 229.11775 234.886682 
L 229.11775 234.3275 
L 235.582704 234.3275 
L 235.582704 233.768318 
L 235.791608 233.768318 
L 235.791608 233.209136 
L 240.564458 233.209136 
L 240.564458 232.649954 
L 333.569032 232.649954 
L 333.569032 232.649954 
" style="fill:none;stroke:#ff0000;stroke-linecap:square;stroke-width:1.5;"/>
   </g>
   <g id="line2d_45">
    <defs>
     <path d="M 0 -6 
L -5.196152 -3 
L -5.196152 3 
L -0 6 
L 5.196152 3 
L 5.196152 -3 
z
" id="m37f9e91d2b" style="stroke:#ff0000;stroke-linejoin:miter;stroke-width:1.5;"/>
    </defs>
    <g>
     <use style="fill-opacity:0;stroke:#ff0000;stroke-linejoin:miter;stroke-width:1.5;" x="120.173787" xlink:href="#m37f9e91d2b" y="267.319252"/>
     <use style="fill-opacity:0;stroke:#ff0000;stroke-linejoin:miter;stroke-width:1.5;" x="188.473548" xlink:href="#m37f9e91d2b" y="245.511145"/>
     <use style="fill-opacity:0;stroke:#ff0000;stroke-linejoin:miter;stroke-width:1.5;" x="240.564458" xlink:href="#m37f9e91d2b" y="233.209136"/>
     <use style="fill-opacity:0;stroke:#ff0000;stroke-linejoin:miter;stroke-width:1.5;" x="240.564458" xlink:href="#m37f9e91d2b" y="232.649954"/>
     <use style="fill-opacity:0;stroke:#ff0000;stroke-linejoin:miter;stroke-width:1.5;" x="240.564458" xlink:href="#m37f9e91d2b" y="232.649954"/>
     <use style="fill-opacity:0;stroke:#ff0000;stroke-linejoin:miter;stroke-width:1.5;" x="333.569032" xlink:href="#m37f9e91d2b" y="232.649954"/>
    </g>
   </g>
   <g id="line2d_46">
    <path style="fill:none;stroke:#ff0000;stroke-linecap:square;stroke-width:1.5;"/>
    <g/>
   </g>
   <g id="line2d_47">
    <path clip-path="url(#p597c7bbed1)" d="M 164.100586 256.135608 
" style="fill:none;stroke:#ff0000;stroke-linecap:square;stroke-width:1.5;"/>
    <defs>
     <path d="M -12 12 
L 12 -12 
M -12 -12 
L 12 12 
" id="m8dfa0fa186" style="stroke:#ff0000;stroke-width:3;"/>
    </defs>
    <g clip-path="url(#p597c7bbed1)">
     <use style="fill:#ff0000;stroke:#ff0000;stroke-width:3;" x="164.100586" xlink:href="#m8dfa0fa186" y="256.135608"/>
    </g>
   </g>
   <g id="line2d_48">
    <path d="M 333.569032 232.649954 
L 364.009226 288.456341 
" style="fill:none;stroke:#ff0000;stroke-linecap:square;stroke-width:1.5;"/>
    <g>
     <use style="fill-opacity:0;stroke:#ff0000;stroke-linejoin:miter;stroke-width:1.5;" x="333.569032" xlink:href="#m37f9e91d2b" y="232.649954"/>
     <use style="fill-opacity:0;stroke:#ff0000;stroke-linejoin:miter;stroke-width:1.5;" x="364.009226" xlink:href="#m37f9e91d2b" y="288.456341"/>
    </g>
   </g>
   <g id="line2d_49">
    <path d="M 333.569032 204.690841 
L 364.009226 220.012435 
" style="fill:none;stroke:#6495ed;stroke-linecap:square;stroke-width:1.5;"/>
    <g>
     <use style="fill-opacity:0;stroke:#6495ed;stroke-linejoin:miter;stroke-width:1.5;" x="333.569032" xlink:href="#mbf9828382a" y="204.690841"/>
     <use style="fill-opacity:0;stroke:#6495ed;stroke-linejoin:miter;stroke-width:1.5;" x="364.009226" xlink:href="#mbf9828382a" y="220.012435"/>
    </g>
   </g>
   <g id="line2d_50">
    <path d="M 333.569032 204.690841 
L 364.009226 151.568529 
" style="fill:none;stroke:#000080;stroke-linecap:square;stroke-width:1.5;"/>
    <g>
     <use style="fill-opacity:0;stroke:#000080;stroke-width:1.5;" x="333.569032" xlink:href="#mf5a28a4e8d" y="204.690841"/>
     <use style="fill-opacity:0;stroke:#000080;stroke-width:1.5;" x="364.009226" xlink:href="#mf5a28a4e8d" y="151.568529"/>
    </g>
   </g>
   <g id="line2d_51">
    <path d="M 333.569032 199.099019 
L 364.009226 83.124622 
" style="fill:none;stroke:#ffa500;stroke-linecap:square;stroke-width:1.5;"/>
    <g>
     <use style="fill-opacity:0;stroke:#ffa500;stroke-linejoin:bevel;stroke-width:1.5;" x="333.569032" xlink:href="#mdd6cf38a27" y="199.099019"/>
     <use style="fill-opacity:0;stroke:#ffa500;stroke-linejoin:bevel;stroke-width:1.5;" x="364.009226" xlink:href="#mdd6cf38a27" y="83.124622"/>
    </g>
   </g>
   <g id="line2d_52">
    <path d="M 333.569032 187.915374 
L 364.009226 14.680716 
" style="fill:none;stroke:#ff00ff;stroke-linecap:square;stroke-width:1.5;"/>
    <g>
     <use style="fill-opacity:0;stroke:#ff00ff;stroke-linejoin:miter;stroke-width:1.5;" x="333.569032" xlink:href="#m0a6ec6d941" y="187.915374"/>
     <use style="fill-opacity:0;stroke:#ff00ff;stroke-linejoin:miter;stroke-width:1.5;" x="364.009226" xlink:href="#m0a6ec6d941" y="14.680716"/>
    </g>
   </g>
   <g id="line2d_53">
    <path d="M 333.569032 294.16 
L 333.569032 8.977057 
" style="fill:none;stroke:#000000;stroke-linecap:square;stroke-width:1.5;"/>
   </g>
   <g id="patch_3">
    <path d="M 56.84 294.16 
L 56.84 6.125228 
" style="fill:none;stroke:#000000;stroke-linecap:square;stroke-linejoin:miter;stroke-width:0.8;"/>
   </g>
   <g id="patch_4">
    <path d="M 399.984 294.16 
L 399.984 6.125228 
" style="fill:none;stroke:#000000;stroke-linecap:square;stroke-linejoin:miter;stroke-width:0.8;"/>
   </g>
   <g id="patch_5">
    <path d="M 56.84 294.16 
L 399.984 294.16 
" style="fill:none;stroke:#000000;stroke-linecap:square;stroke-linejoin:miter;stroke-width:0.8;"/>
   </g>
   <g id="patch_6">
    <path d="M 56.84 6.125228 
L 399.984 6.125228 
" style="fill:none;stroke:#000000;stroke-linecap:square;stroke-linejoin:miter;stroke-width:0.8;"/>
   </g>
   <g id="text_14">
    <!-- f15 -->
    <defs>
     <path d="M 10.796875 72.90625 
L 49.515625 72.90625 
L 49.515625 64.59375 
L 19.828125 64.59375 
L 19.828125 46.734375 
Q 21.96875 47.46875 24.109375 47.828125 
Q 26.265625 48.1875 28.421875 48.1875 
Q 40.625 48.1875 47.75 41.5 
Q 54.890625 34.8125 54.890625 23.390625 
Q 54.890625 11.625 47.5625 5.09375 
Q 40.234375 -1.421875 26.90625 -1.421875 
Q 22.3125 -1.421875 17.546875 -0.640625 
Q 12.796875 0.140625 7.71875 1.703125 
L 7.71875 11.625 
Q 12.109375 9.234375 16.796875 8.0625 
Q 21.484375 6.890625 26.703125 6.890625 
Q 35.15625 6.890625 40.078125 11.328125 
Q 45.015625 15.765625 45.015625 23.390625 
Q 45.015625 31 40.078125 35.4375 
Q 35.15625 39.890625 26.703125 39.890625 
Q 22.75 39.890625 18.8125 39.015625 
Q 14.890625 38.140625 10.796875 36.28125 
z
" id="DejaVuSans-35"/>
    </defs>
    <g transform="translate(369.543806 293.147279)scale(0.17 -0.17)">
     <use xlink:href="#DejaVuSans-66"/>
     <use x="35.205078" xlink:href="#DejaVuSans-31"/>
     <use x="98.828125" xlink:href="#DejaVuSans-35"/>
    </g>
   </g>
   <g id="text_15">
    <!-- f17 -->
    <defs>
     <path d="M 8.203125 72.90625 
L 55.078125 72.90625 
L 55.078125 68.703125 
L 28.609375 0 
L 18.3125 0 
L 43.21875 64.59375 
L 8.203125 64.59375 
z
" id="DejaVuSans-37"/>
    </defs>
    <g transform="translate(369.543806 224.703372)scale(0.17 -0.17)">
     <use xlink:href="#DejaVuSans-66"/>
     <use x="35.205078" xlink:href="#DejaVuSans-31"/>
     <use x="98.828125" xlink:href="#DejaVuSans-37"/>
    </g>
   </g>
   <g id="text_16">
    <!-- f18 -->
    <g transform="translate(369.543806 156.259466)scale(0.17 -0.17)">
     <use xlink:href="#DejaVuSans-66"/>
     <use x="35.205078" xlink:href="#DejaVuSans-31"/>
     <use x="98.828125" xlink:href="#DejaVuSans-38"/>
    </g>
   </g>
   <g id="text_17">
    <!-- f16 -->
    <g transform="translate(369.543806 87.81556)scale(0.17 -0.17)">
     <use xlink:href="#DejaVuSans-66"/>
     <use x="35.205078" xlink:href="#DejaVuSans-31"/>
     <use x="98.828125" xlink:href="#DejaVuSans-36"/>
    </g>
   </g>
   <g id="text_18">
    <!-- f19 -->
    <defs>
     <path d="M 10.984375 1.515625 
L 10.984375 10.5 
Q 14.703125 8.734375 18.5 7.8125 
Q 22.3125 6.890625 25.984375 6.890625 
Q 35.75 6.890625 40.890625 13.453125 
Q 46.046875 20.015625 46.78125 33.40625 
Q 43.953125 29.203125 39.59375 26.953125 
Q 35.25 24.703125 29.984375 24.703125 
Q 19.046875 24.703125 12.671875 31.3125 
Q 6.296875 37.9375 6.296875 49.421875 
Q 6.296875 60.640625 12.9375 67.421875 
Q 19.578125 74.21875 30.609375 74.21875 
Q 43.265625 74.21875 49.921875 64.515625 
Q 56.59375 54.828125 56.59375 36.375 
Q 56.59375 19.140625 48.40625 8.859375 
Q 40.234375 -1.421875 26.421875 -1.421875 
Q 22.703125 -1.421875 18.890625 -0.6875 
Q 15.09375 0.046875 10.984375 1.515625 
z
M 30.609375 32.421875 
Q 37.25 32.421875 41.125 36.953125 
Q 45.015625 41.5 45.015625 49.421875 
Q 45.015625 57.28125 41.125 61.84375 
Q 37.25 66.40625 30.609375 66.40625 
Q 23.96875 66.40625 20.09375 61.84375 
Q 16.21875 57.28125 16.21875 49.421875 
Q 16.21875 41.5 20.09375 36.953125 
Q 23.96875 32.421875 30.609375 32.421875 
z
" id="DejaVuSans-39"/>
    </defs>
    <g transform="translate(369.543806 19.371654)scale(0.17 -0.17)">
     <use xlink:href="#DejaVuSans-66"/>
     <use x="35.205078" xlink:href="#DejaVuSans-31"/>
     <use x="98.828125" xlink:href="#DejaVuSans-39"/>
    </g>
   </g>
   <g id="text_19">
    <!-- bbob -->
    <defs>
     <path d="M 48.6875 27.296875 
Q 48.6875 37.203125 44.609375 42.84375 
Q 40.53125 48.484375 33.40625 48.484375 
Q 26.265625 48.484375 22.1875 42.84375 
Q 18.109375 37.203125 18.109375 27.296875 
Q 18.109375 17.390625 22.1875 11.75 
Q 26.265625 6.109375 33.40625 6.109375 
Q 40.53125 6.109375 44.609375 11.75 
Q 48.6875 17.390625 48.6875 27.296875 
z
M 18.109375 46.390625 
Q 20.953125 51.265625 25.265625 53.625 
Q 29.59375 56 35.59375 56 
Q 45.5625 56 51.78125 48.09375 
Q 58.015625 40.1875 58.015625 27.296875 
Q 58.015625 14.40625 51.78125 6.484375 
Q 45.5625 -1.421875 35.59375 -1.421875 
Q 29.59375 -1.421875 25.265625 0.953125 
Q 20.953125 3.328125 18.109375 8.203125 
L 18.109375 0 
L 9.078125 0 
L 9.078125 75.984375 
L 18.109375 75.984375 
z
" id="DejaVuSans-62"/>
    </defs>
    <g transform="translate(60.27144 16.755982)scale(0.102 -0.102)">
     <use xlink:href="#DejaVuSans-62"/>
     <use x="63.476562" xlink:href="#DejaVuSans-62"/>
     <use x="126.953125" xlink:href="#DejaVuSans-6f"/>
     <use x="188.134766" xlink:href="#DejaVuSans-62"/>
    </g>
    <!-- Multi-modal functions, 3-D -->
    <defs>
     <path d="M 9.8125 72.90625 
L 24.515625 72.90625 
L 43.109375 23.296875 
L 61.8125 72.90625 
L 76.515625 72.90625 
L 76.515625 0 
L 66.890625 0 
L 66.890625 64.015625 
L 48.09375 14.015625 
L 38.1875 14.015625 
L 19.390625 64.015625 
L 19.390625 0 
L 9.8125 0 
z
" id="DejaVuSans-4d"/>
     <path d="M 40.578125 39.3125 
Q 47.65625 37.796875 51.625 33 
Q 55.609375 28.21875 55.609375 21.1875 
Q 55.609375 10.40625 48.1875 4.484375 
Q 40.765625 -1.421875 27.09375 -1.421875 
Q 22.515625 -1.421875 17.65625 -0.515625 
Q 12.796875 0.390625 7.625 2.203125 
L 7.625 11.71875 
Q 11.71875 9.328125 16.59375 8.109375 
Q 21.484375 6.890625 26.8125 6.890625 
Q 36.078125 6.890625 40.9375 10.546875 
Q 45.796875 14.203125 45.796875 21.1875 
Q 45.796875 27.640625 41.28125 31.265625 
Q 36.765625 34.90625 28.71875 34.90625 
L 20.21875 34.90625 
L 20.21875 43.015625 
L 29.109375 43.015625 
Q 36.375 43.015625 40.234375 45.921875 
Q 44.09375 48.828125 44.09375 54.296875 
Q 44.09375 59.90625 40.109375 62.90625 
Q 36.140625 65.921875 28.71875 65.921875 
Q 24.65625 65.921875 20.015625 65.03125 
Q 15.375 64.15625 9.8125 62.3125 
L 9.8125 71.09375 
Q 15.4375 72.65625 20.34375 73.4375 
Q 25.25 74.21875 29.59375 74.21875 
Q 40.828125 74.21875 47.359375 69.109375 
Q 53.90625 64.015625 53.90625 55.328125 
Q 53.90625 49.265625 50.4375 45.09375 
Q 46.96875 40.921875 40.578125 39.3125 
z
" id="DejaVuSans-33"/>
     <path d="M 19.671875 64.796875 
L 19.671875 8.109375 
L 31.59375 8.109375 
Q 46.6875 8.109375 53.6875 14.9375 
Q 60.6875 21.78125 60.6875 36.53125 
Q 60.6875 51.171875 53.6875 57.984375 
Q 46.6875 64.796875 31.59375 64.796875 
z
M 9.8125 72.90625 
L 30.078125 72.90625 
Q 51.265625 72.90625 61.171875 64.09375 
Q 71.09375 55.28125 71.09375 36.53125 
Q 71.09375 17.671875 61.125 8.828125 
Q 51.171875 0 30.078125 0 
L 9.8125 0 
z
" id="DejaVuSans-44"/>
    </defs>
    <g transform="translate(60.27144 28.17775)scale(0.102 -0.102)">
     <use xlink:href="#DejaVuSans-4d"/>
     <use x="86.279297" xlink:href="#DejaVuSans-75"/>
     <use x="149.658203" xlink:href="#DejaVuSans-6c"/>
     <use x="177.441406" xlink:href="#DejaVuSans-74"/>
     <use x="216.650391" xlink:href="#DejaVuSans-69"/>
     <use x="244.433594" xlink:href="#DejaVuSans-2d"/>
     <use x="280.517578" xlink:href="#DejaVuSans-6d"/>
     <use x="377.929688" xlink:href="#DejaVuSans-6f"/>
     <use x="439.111328" xlink:href="#DejaVuSans-64"/>
     <use x="502.587891" xlink:href="#DejaVuSans-61"/>
     <use x="563.867188" xlink:href="#DejaVuSans-6c"/>
     <use x="591.650391" xlink:href="#DejaVuSans-20"/>
     <use x="623.4375" xlink:href="#DejaVuSans-66"/>
     <use x="658.642578" xlink:href="#DejaVuSans-75"/>
     <use x="722.021484" xlink:href="#DejaVuSans-6e"/>
     <use x="785.400391" xlink:href="#DejaVuSans-63"/>
     <use x="840.380859" xlink:href="#DejaVuSans-74"/>
     <use x="879.589844" xlink:href="#DejaVuSans-69"/>
     <use x="907.373047" xlink:href="#DejaVuSans-6f"/>
     <use x="968.554688" xlink:href="#DejaVuSans-6e"/>
     <use x="1031.933594" xlink:href="#DejaVuSans-73"/>
     <use x="1084.033203" xlink:href="#DejaVuSans-2c"/>
     <use x="1115.820312" xlink:href="#DejaVuSans-20"/>
     <use x="1147.607422" xlink:href="#DejaVuSans-33"/>
     <use x="1211.230469" xlink:href="#DejaVuSans-2d"/>
     <use x="1247.314453" xlink:href="#DejaVuSans-44"/>
    </g>
    <!-- 51 targets: 100..1e-08 -->
    <defs>
     <path d="M 11.71875 12.40625 
L 22.015625 12.40625 
L 22.015625 0 
L 11.71875 0 
z
M 11.71875 51.703125 
L 22.015625 51.703125 
L 22.015625 39.3125 
L 11.71875 39.3125 
z
" id="DejaVuSans-3a"/>
    </defs>
    <g transform="translate(60.27144 39.599519)scale(0.102 -0.102)">
     <use xlink:href="#DejaVuSans-35"/>
     <use x="63.623047" xlink:href="#DejaVuSans-31"/>
     <use x="127.246094" xlink:href="#DejaVuSans-20"/>
     <use x="159.033203" xlink:href="#DejaVuSans-74"/>
     <use x="198.242188" xlink:href="#DejaVuSans-61"/>
     <use x="259.521484" xlink:href="#DejaVuSans-72"/>
     <use x="300.619141" xlink:href="#DejaVuSans-67"/>
     <use x="364.095703" xlink:href="#DejaVuSans-65"/>
     <use x="425.619141" xlink:href="#DejaVuSans-74"/>
     <use x="464.828125" xlink:href="#DejaVuSans-73"/>
     <use x="516.927734" xlink:href="#DejaVuSans-3a"/>
     <use x="550.619141" xlink:href="#DejaVuSans-20"/>
     <use x="582.40625" xlink:href="#DejaVuSans-31"/>
     <use x="646.029297" xlink:href="#DejaVuSans-30"/>
     <use x="709.652344" xlink:href="#DejaVuSans-30"/>
     <use x="773.275391" xlink:href="#DejaVuSans-2e"/>
     <use x="805.0625" xlink:href="#DejaVuSans-2e"/>
     <use x="836.849609" xlink:href="#DejaVuSans-31"/>
     <use x="900.472656" xlink:href="#DejaVuSans-65"/>
     <use x="961.996094" xlink:href="#DejaVuSans-2d"/>
     <use x="998.080078" xlink:href="#DejaVuSans-30"/>
     <use x="1061.703125" xlink:href="#DejaVuSans-38"/>
    </g>
    <!-- 45 instances -->
    <g transform="translate(60.27144 51.021288)scale(0.102 -0.102)">
     <use xlink:href="#DejaVuSans-34"/>
     <use x="63.623047" xlink:href="#DejaVuSans-35"/>
     <use x="127.246094" xlink:href="#DejaVuSans-20"/>
     <use x="159.033203" xlink:href="#DejaVuSans-69"/>
     <use x="186.816406" xlink:href="#DejaVuSans-6e"/>
     <use x="250.195312" xlink:href="#DejaVuSans-73"/>
     <use x="302.294922" xlink:href="#DejaVuSans-74"/>
     <use x="341.503906" xlink:href="#DejaVuSans-61"/>
     <use x="402.783203" xlink:href="#DejaVuSans-6e"/>
     <use x="466.162109" xlink:href="#DejaVuSans-63"/>
     <use x="521.142578" xlink:href="#DejaVuSans-65"/>
     <use x="582.666016" xlink:href="#DejaVuSans-73"/>
    </g>
   </g>
   <g id="text_20">
    <!-- v2.2.1.10 -->
    <g style="fill:#808080;" transform="translate(204.779188 289.199965)scale(0.1 -0.1)">
     <use xlink:href="#DejaVuSans-76"/>
     <use x="59.179688" xlink:href="#DejaVuSans-32"/>
     <use x="122.802734" xlink:href="#DejaVuSans-2e"/>
     <use x="154.589844" xlink:href="#DejaVuSans-32"/>
     <use x="218.212891" xlink:href="#DejaVuSans-2e"/>
     <use x="250" xlink:href="#DejaVuSans-31"/>
     <use x="313.623047" xlink:href="#DejaVuSans-2e"/>
     <use x="345.410156" xlink:href="#DejaVuSans-31"/>
     <use x="409.033203" xlink:href="#DejaVuSans-30"/>
    </g>
   </g>
  </g>
 </g>
 <defs>
  <clipPath id="p597c7bbed1">
   <rect height="288.034772" width="343.144" x="56.84" y="6.125228"/>
  </clipPath>
 </defs>
</svg>
