<?xml version="1.0" encoding="utf-8" standalone="no"?>
<!DOCTYPE svg PUBLIC "-//W3C//DTD SVG 1.1//EN"
  "http://www.w3.org/Graphics/SVG/1.1/DTD/svg11.dtd">
<!-- Created with matplotlib (http://matplotlib.org/) -->
<svg height="345.6pt" version="1.1" viewBox="0 0 460.8 345.6" width="460.8pt" xmlns="http://www.w3.org/2000/svg" xmlns:xlink="http://www.w3.org/1999/xlink">
 <defs>
  <style type="text/css">
*{stroke-linecap:butt;stroke-linejoin:round;}
  </style>
 </defs>
 <g id="figure_1">
  <g id="patch_1">
   <path d="M 0 345.6 
L 460.8 345.6 
L 460.8 0 
L 0 0 
z
" style="fill:#ffffff;"/>
  </g>
  <g id="axes_1">
   <g id="patch_2">
    <path d="M 56.84 294.16 
L 399.984 294.16 
L 399.984 6.125228 
L 56.84 6.125228 
z
" style="fill:#ffffff;"/>
   </g>
   <g id="matplotlib.axis_1">
    <g id="xtick_1">
     <g id="line2d_1">
      <path clip-path="url(#pf21362b82e)" d="M 56.84 294.16 
L 56.84 6.125228 
" style="fill:none;stroke:#b0b0b0;stroke-linecap:square;stroke-width:0.8;"/>
     </g>
     <g id="line2d_2">
      <defs>
       <path d="M 0 0 
L 0 3.5 
" id="m4dc43ccdc9" style="stroke:#000000;stroke-width:0.8;"/>
      </defs>
      <g>
       <use style="stroke:#000000;stroke-width:0.8;" x="56.84" xlink:href="#m4dc43ccdc9" y="294.16"/>
      </g>
     </g>
     <g id="text_1">
      <!-- 0 -->
      <defs>
       <path d="M 31.78125 66.40625 
Q 24.171875 66.40625 20.328125 58.90625 
Q 16.5 51.421875 16.5 36.375 
Q 16.5 21.390625 20.328125 13.890625 
Q 24.171875 6.390625 31.78125 6.390625 
Q 39.453125 6.390625 43.28125 13.890625 
Q 47.125 21.390625 47.125 36.375 
Q 47.125 51.421875 43.28125 58.90625 
Q 39.453125 66.40625 31.78125 66.40625 
z
M 31.78125 74.21875 
Q 44.046875 74.21875 50.515625 64.515625 
Q 56.984375 54.828125 56.984375 36.375 
Q 56.984375 17.96875 50.515625 8.265625 
Q 44.046875 -1.421875 31.78125 -1.421875 
Q 19.53125 -1.421875 13.0625 8.265625 
Q 6.59375 17.96875 6.59375 36.375 
Q 6.59375 54.828125 13.0625 64.515625 
Q 19.53125 74.21875 31.78125 74.21875 
z
" id="DejaVuSans-30"/>
      </defs>
      <g transform="translate(50.4775 316.356875)scale(0.2 -0.2)">
       <use xlink:href="#DejaVuSans-30"/>
      </g>
     </g>
    </g>
    <g id="xtick_2">
     <g id="line2d_3">
      <path clip-path="url(#pf21362b82e)" d="M 135.905438 294.16 
L 135.905438 6.125228 
" style="fill:none;stroke:#b0b0b0;stroke-linecap:square;stroke-width:0.8;"/>
     </g>
     <g id="line2d_4">
      <g>
       <use style="stroke:#000000;stroke-width:0.8;" x="135.905438" xlink:href="#m4dc43ccdc9" y="294.16"/>
      </g>
     </g>
     <g id="text_2">
      <!-- 2 -->
      <defs>
       <path d="M 19.1875 8.296875 
L 53.609375 8.296875 
L 53.609375 0 
L 7.328125 0 
L 7.328125 8.296875 
Q 12.9375 14.109375 22.625 23.890625 
Q 32.328125 33.6875 34.8125 36.53125 
Q 39.546875 41.84375 41.421875 45.53125 
Q 43.3125 49.21875 43.3125 52.78125 
Q 43.3125 58.59375 39.234375 62.25 
Q 35.15625 65.921875 28.609375 65.921875 
Q 23.96875 65.921875 18.8125 64.3125 
Q 13.671875 62.703125 7.8125 59.421875 
L 7.8125 69.390625 
Q 13.765625 71.78125 18.9375 73 
Q 24.125 74.21875 28.421875 74.21875 
Q 39.75 74.21875 46.484375 68.546875 
Q 53.21875 62.890625 53.21875 53.421875 
Q 53.21875 48.921875 51.53125 44.890625 
Q 49.859375 40.875 45.40625 35.40625 
Q 44.1875 33.984375 37.640625 27.21875 
Q 31.109375 20.453125 19.1875 8.296875 
z
" id="DejaVuSans-32"/>
      </defs>
      <g transform="translate(129.542938 316.356875)scale(0.2 -0.2)">
       <use xlink:href="#DejaVuSans-32"/>
      </g>
     </g>
    </g>
    <g id="xtick_3">
     <g id="line2d_5">
      <path clip-path="url(#pf21362b82e)" d="M 214.970876 294.16 
L 214.970876 6.125228 
" style="fill:none;stroke:#b0b0b0;stroke-linecap:square;stroke-width:0.8;"/>
     </g>
     <g id="line2d_6">
      <g>
       <use style="stroke:#000000;stroke-width:0.8;" x="214.970876" xlink:href="#m4dc43ccdc9" y="294.16"/>
      </g>
     </g>
     <g id="text_3">
      <!-- 4 -->
      <defs>
       <path d="M 37.796875 64.3125 
L 12.890625 25.390625 
L 37.796875 25.390625 
z
M 35.203125 72.90625 
L 47.609375 72.90625 
L 47.609375 25.390625 
L 58.015625 25.390625 
L 58.015625 17.1875 
L 47.609375 17.1875 
L 47.609375 0 
L 37.796875 0 
L 37.796875 17.1875 
L 4.890625 17.1875 
L 4.890625 26.703125 
z
" id="DejaVuSans-34"/>
      </defs>
      <g transform="translate(208.608376 316.356875)scale(0.2 -0.2)">
       <use xlink:href="#DejaVuSans-34"/>
      </g>
     </g>
    </g>
    <g id="xtick_4">
     <g id="line2d_7">
      <path clip-path="url(#pf21362b82e)" d="M 294.036313 294.16 
L 294.036313 6.125228 
" style="fill:none;stroke:#b0b0b0;stroke-linecap:square;stroke-width:0.8;"/>
     </g>
     <g id="line2d_8">
      <g>
       <use style="stroke:#000000;stroke-width:0.8;" x="294.036313" xlink:href="#m4dc43ccdc9" y="294.16"/>
      </g>
     </g>
     <g id="text_4">
      <!-- 6 -->
      <defs>
       <path d="M 33.015625 40.375 
Q 26.375 40.375 22.484375 35.828125 
Q 18.609375 31.296875 18.609375 23.390625 
Q 18.609375 15.53125 22.484375 10.953125 
Q 26.375 6.390625 33.015625 6.390625 
Q 39.65625 6.390625 43.53125 10.953125 
Q 47.40625 15.53125 47.40625 23.390625 
Q 47.40625 31.296875 43.53125 35.828125 
Q 39.65625 40.375 33.015625 40.375 
z
M 52.59375 71.296875 
L 52.59375 62.3125 
Q 48.875 64.0625 45.09375 64.984375 
Q 41.3125 65.921875 37.59375 65.921875 
Q 27.828125 65.921875 22.671875 59.328125 
Q 17.53125 52.734375 16.796875 39.40625 
Q 19.671875 43.65625 24.015625 45.921875 
Q 28.375 48.1875 33.59375 48.1875 
Q 44.578125 48.1875 50.953125 41.515625 
Q 57.328125 34.859375 57.328125 23.390625 
Q 57.328125 12.15625 50.6875 5.359375 
Q 44.046875 -1.421875 33.015625 -1.421875 
Q 20.359375 -1.421875 13.671875 8.265625 
Q 6.984375 17.96875 6.984375 36.375 
Q 6.984375 53.65625 15.1875 63.9375 
Q 23.390625 74.21875 37.203125 74.21875 
Q 40.921875 74.21875 44.703125 73.484375 
Q 48.484375 72.75 52.59375 71.296875 
z
" id="DejaVuSans-36"/>
      </defs>
      <g transform="translate(287.673813 316.356875)scale(0.2 -0.2)">
       <use xlink:href="#DejaVuSans-36"/>
      </g>
     </g>
    </g>
    <g id="xtick_5">
     <g id="line2d_9">
      <path clip-path="url(#pf21362b82e)" d="M 373.101751 294.16 
L 373.101751 6.125228 
" style="fill:none;stroke:#b0b0b0;stroke-linecap:square;stroke-width:0.8;"/>
     </g>
     <g id="line2d_10">
      <g>
       <use style="stroke:#000000;stroke-width:0.8;" x="373.101751" xlink:href="#m4dc43ccdc9" y="294.16"/>
      </g>
     </g>
     <g id="text_5">
      <!-- 8 -->
      <defs>
       <path d="M 31.78125 34.625 
Q 24.75 34.625 20.71875 30.859375 
Q 16.703125 27.09375 16.703125 20.515625 
Q 16.703125 13.921875 20.71875 10.15625 
Q 24.75 6.390625 31.78125 6.390625 
Q 38.8125 6.390625 42.859375 10.171875 
Q 46.921875 13.96875 46.921875 20.515625 
Q 46.921875 27.09375 42.890625 30.859375 
Q 38.875 34.625 31.78125 34.625 
z
M 21.921875 38.8125 
Q 15.578125 40.375 12.03125 44.71875 
Q 8.5 49.078125 8.5 55.328125 
Q 8.5 64.0625 14.71875 69.140625 
Q 20.953125 74.21875 31.78125 74.21875 
Q 42.671875 74.21875 48.875 69.140625 
Q 55.078125 64.0625 55.078125 55.328125 
Q 55.078125 49.078125 51.53125 44.71875 
Q 48 40.375 41.703125 38.8125 
Q 48.828125 37.15625 52.796875 32.3125 
Q 56.78125 27.484375 56.78125 20.515625 
Q 56.78125 9.90625 50.3125 4.234375 
Q 43.84375 -1.421875 31.78125 -1.421875 
Q 19.734375 -1.421875 13.25 4.234375 
Q 6.78125 9.90625 6.78125 20.515625 
Q 6.78125 27.484375 10.78125 32.3125 
Q 14.796875 37.15625 21.921875 38.8125 
z
M 18.3125 54.390625 
Q 18.3125 48.734375 21.84375 45.5625 
Q 25.390625 42.390625 31.78125 42.390625 
Q 38.140625 42.390625 41.71875 45.5625 
Q 45.3125 48.734375 45.3125 54.390625 
Q 45.3125 60.0625 41.71875 63.234375 
Q 38.140625 66.40625 31.78125 66.40625 
Q 25.390625 66.40625 21.84375 63.234375 
Q 18.3125 60.0625 18.3125 54.390625 
z
" id="DejaVuSans-38"/>
      </defs>
      <g transform="translate(366.739251 316.356875)scale(0.2 -0.2)">
       <use xlink:href="#DejaVuSans-38"/>
      </g>
     </g>
    </g>
    <g id="text_6">
     <!-- log10(# f-evals / dimension) -->
     <defs>
      <path d="M 9.421875 75.984375 
L 18.40625 75.984375 
L 18.40625 0 
L 9.421875 0 
z
" id="DejaVuSans-6c"/>
      <path d="M 30.609375 48.390625 
Q 23.390625 48.390625 19.1875 42.75 
Q 14.984375 37.109375 14.984375 27.296875 
Q 14.984375 17.484375 19.15625 11.84375 
Q 23.34375 6.203125 30.609375 6.203125 
Q 37.796875 6.203125 41.984375 11.859375 
Q 46.1875 17.53125 46.1875 27.296875 
Q 46.1875 37.015625 41.984375 42.703125 
Q 37.796875 48.390625 30.609375 48.390625 
z
M 30.609375 56 
Q 42.328125 56 49.015625 48.375 
Q 55.71875 40.765625 55.71875 27.296875 
Q 55.71875 13.875 49.015625 6.21875 
Q 42.328125 -1.421875 30.609375 -1.421875 
Q 18.84375 -1.421875 12.171875 6.21875 
Q 5.515625 13.875 5.515625 27.296875 
Q 5.515625 40.765625 12.171875 48.375 
Q 18.84375 56 30.609375 56 
z
" id="DejaVuSans-6f"/>
      <path d="M 45.40625 27.984375 
Q 45.40625 37.75 41.375 43.109375 
Q 37.359375 48.484375 30.078125 48.484375 
Q 22.859375 48.484375 18.828125 43.109375 
Q 14.796875 37.75 14.796875 27.984375 
Q 14.796875 18.265625 18.828125 12.890625 
Q 22.859375 7.515625 30.078125 7.515625 
Q 37.359375 7.515625 41.375 12.890625 
Q 45.40625 18.265625 45.40625 27.984375 
z
M 54.390625 6.78125 
Q 54.390625 -7.171875 48.1875 -13.984375 
Q 42 -20.796875 29.203125 -20.796875 
Q 24.46875 -20.796875 20.265625 -20.09375 
Q 16.0625 -19.390625 12.109375 -17.921875 
L 12.109375 -9.1875 
Q 16.0625 -11.328125 19.921875 -12.34375 
Q 23.78125 -13.375 27.78125 -13.375 
Q 36.625 -13.375 41.015625 -8.765625 
Q 45.40625 -4.15625 45.40625 5.171875 
L 45.40625 9.625 
Q 42.625 4.78125 38.28125 2.390625 
Q 33.9375 0 27.875 0 
Q 17.828125 0 11.671875 7.65625 
Q 5.515625 15.328125 5.515625 27.984375 
Q 5.515625 40.671875 11.671875 48.328125 
Q 17.828125 56 27.875 56 
Q 33.9375 56 38.28125 53.609375 
Q 42.625 51.21875 45.40625 46.390625 
L 45.40625 54.6875 
L 54.390625 54.6875 
z
" id="DejaVuSans-67"/>
      <path d="M 12.40625 8.296875 
L 28.515625 8.296875 
L 28.515625 63.921875 
L 10.984375 60.40625 
L 10.984375 69.390625 
L 28.421875 72.90625 
L 38.28125 72.90625 
L 38.28125 8.296875 
L 54.390625 8.296875 
L 54.390625 0 
L 12.40625 0 
z
" id="DejaVuSans-31"/>
      <path d="M 31 75.875 
Q 24.46875 64.65625 21.28125 53.65625 
Q 18.109375 42.671875 18.109375 31.390625 
Q 18.109375 20.125 21.3125 9.0625 
Q 24.515625 -2 31 -13.1875 
L 23.1875 -13.1875 
Q 15.875 -1.703125 12.234375 9.375 
Q 8.59375 20.453125 8.59375 31.390625 
Q 8.59375 42.28125 12.203125 53.3125 
Q 15.828125 64.359375 23.1875 75.875 
z
" id="DejaVuSans-28"/>
      <path d="M 51.125 44 
L 36.921875 44 
L 32.8125 27.6875 
L 47.125 27.6875 
z
M 43.796875 71.78125 
L 38.71875 51.515625 
L 52.984375 51.515625 
L 58.109375 71.78125 
L 65.921875 71.78125 
L 60.890625 51.515625 
L 76.125 51.515625 
L 76.125 44 
L 58.984375 44 
L 54.984375 27.6875 
L 70.515625 27.6875 
L 70.515625 20.21875 
L 53.078125 20.21875 
L 48 0 
L 40.1875 0 
L 45.21875 20.21875 
L 30.90625 20.21875 
L 25.875 0 
L 18.015625 0 
L 23.09375 20.21875 
L 7.71875 20.21875 
L 7.71875 27.6875 
L 24.90625 27.6875 
L 29 44 
L 13.28125 44 
L 13.28125 51.515625 
L 30.90625 51.515625 
L 35.890625 71.78125 
z
" id="DejaVuSans-23"/>
      <path id="DejaVuSans-20"/>
      <path d="M 37.109375 75.984375 
L 37.109375 68.5 
L 28.515625 68.5 
Q 23.6875 68.5 21.796875 66.546875 
Q 19.921875 64.59375 19.921875 59.515625 
L 19.921875 54.6875 
L 34.71875 54.6875 
L 34.71875 47.703125 
L 19.921875 47.703125 
L 19.921875 0 
L 10.890625 0 
L 10.890625 47.703125 
L 2.296875 47.703125 
L 2.296875 54.6875 
L 10.890625 54.6875 
L 10.890625 58.5 
Q 10.890625 67.625 15.140625 71.796875 
Q 19.390625 75.984375 28.609375 75.984375 
z
" id="DejaVuSans-66"/>
      <path d="M 4.890625 31.390625 
L 31.203125 31.390625 
L 31.203125 23.390625 
L 4.890625 23.390625 
z
" id="DejaVuSans-2d"/>
      <path d="M 56.203125 29.59375 
L 56.203125 25.203125 
L 14.890625 25.203125 
Q 15.484375 15.921875 20.484375 11.0625 
Q 25.484375 6.203125 34.421875 6.203125 
Q 39.59375 6.203125 44.453125 7.46875 
Q 49.3125 8.734375 54.109375 11.28125 
L 54.109375 2.78125 
Q 49.265625 0.734375 44.1875 -0.34375 
Q 39.109375 -1.421875 33.890625 -1.421875 
Q 20.796875 -1.421875 13.15625 6.1875 
Q 5.515625 13.8125 5.515625 26.8125 
Q 5.515625 40.234375 12.765625 48.109375 
Q 20.015625 56 32.328125 56 
Q 43.359375 56 49.78125 48.890625 
Q 56.203125 41.796875 56.203125 29.59375 
z
M 47.21875 32.234375 
Q 47.125 39.59375 43.09375 43.984375 
Q 39.0625 48.390625 32.421875 48.390625 
Q 24.90625 48.390625 20.390625 44.140625 
Q 15.875 39.890625 15.1875 32.171875 
z
" id="DejaVuSans-65"/>
      <path d="M 2.984375 54.6875 
L 12.5 54.6875 
L 29.59375 8.796875 
L 46.6875 54.6875 
L 56.203125 54.6875 
L 35.6875 0 
L 23.484375 0 
z
" id="DejaVuSans-76"/>
      <path d="M 34.28125 27.484375 
Q 23.390625 27.484375 19.1875 25 
Q 14.984375 22.515625 14.984375 16.5 
Q 14.984375 11.71875 18.140625 8.90625 
Q 21.296875 6.109375 26.703125 6.109375 
Q 34.1875 6.109375 38.703125 11.40625 
Q 43.21875 16.703125 43.21875 25.484375 
L 43.21875 27.484375 
z
M 52.203125 31.203125 
L 52.203125 0 
L 43.21875 0 
L 43.21875 8.296875 
Q 40.140625 3.328125 35.546875 0.953125 
Q 30.953125 -1.421875 24.3125 -1.421875 
Q 15.921875 -1.421875 10.953125 3.296875 
Q 6 8.015625 6 15.921875 
Q 6 25.140625 12.171875 29.828125 
Q 18.359375 34.515625 30.609375 34.515625 
L 43.21875 34.515625 
L 43.21875 35.40625 
Q 43.21875 41.609375 39.140625 45 
Q 35.0625 48.390625 27.6875 48.390625 
Q 23 48.390625 18.546875 47.265625 
Q 14.109375 46.140625 10.015625 43.890625 
L 10.015625 52.203125 
Q 14.9375 54.109375 19.578125 55.046875 
Q 24.21875 56 28.609375 56 
Q 40.484375 56 46.34375 49.84375 
Q 52.203125 43.703125 52.203125 31.203125 
z
" id="DejaVuSans-61"/>
      <path d="M 44.28125 53.078125 
L 44.28125 44.578125 
Q 40.484375 46.53125 36.375 47.5 
Q 32.28125 48.484375 27.875 48.484375 
Q 21.1875 48.484375 17.84375 46.4375 
Q 14.5 44.390625 14.5 40.28125 
Q 14.5 37.15625 16.890625 35.375 
Q 19.28125 33.59375 26.515625 31.984375 
L 29.59375 31.296875 
Q 39.15625 29.25 43.1875 25.515625 
Q 47.21875 21.78125 47.21875 15.09375 
Q 47.21875 7.46875 41.1875 3.015625 
Q 35.15625 -1.421875 24.609375 -1.421875 
Q 20.21875 -1.421875 15.453125 -0.5625 
Q 10.6875 0.296875 5.421875 2 
L 5.421875 11.28125 
Q 10.40625 8.6875 15.234375 7.390625 
Q 20.0625 6.109375 24.8125 6.109375 
Q 31.15625 6.109375 34.5625 8.28125 
Q 37.984375 10.453125 37.984375 14.40625 
Q 37.984375 18.0625 35.515625 20.015625 
Q 33.0625 21.96875 24.703125 23.78125 
L 21.578125 24.515625 
Q 13.234375 26.265625 9.515625 29.90625 
Q 5.8125 33.546875 5.8125 39.890625 
Q 5.8125 47.609375 11.28125 51.796875 
Q 16.75 56 26.8125 56 
Q 31.78125 56 36.171875 55.265625 
Q 40.578125 54.546875 44.28125 53.078125 
z
" id="DejaVuSans-73"/>
      <path d="M 25.390625 72.90625 
L 33.6875 72.90625 
L 8.296875 -9.28125 
L 0 -9.28125 
z
" id="DejaVuSans-2f"/>
      <path d="M 45.40625 46.390625 
L 45.40625 75.984375 
L 54.390625 75.984375 
L 54.390625 0 
L 45.40625 0 
L 45.40625 8.203125 
Q 42.578125 3.328125 38.25 0.953125 
Q 33.9375 -1.421875 27.875 -1.421875 
Q 17.96875 -1.421875 11.734375 6.484375 
Q 5.515625 14.40625 5.515625 27.296875 
Q 5.515625 40.1875 11.734375 48.09375 
Q 17.96875 56 27.875 56 
Q 33.9375 56 38.25 53.625 
Q 42.578125 51.265625 45.40625 46.390625 
z
M 14.796875 27.296875 
Q 14.796875 17.390625 18.875 11.75 
Q 22.953125 6.109375 30.078125 6.109375 
Q 37.203125 6.109375 41.296875 11.75 
Q 45.40625 17.390625 45.40625 27.296875 
Q 45.40625 37.203125 41.296875 42.84375 
Q 37.203125 48.484375 30.078125 48.484375 
Q 22.953125 48.484375 18.875 42.84375 
Q 14.796875 37.203125 14.796875 27.296875 
z
" id="DejaVuSans-64"/>
      <path d="M 9.421875 54.6875 
L 18.40625 54.6875 
L 18.40625 0 
L 9.421875 0 
z
M 9.421875 75.984375 
L 18.40625 75.984375 
L 18.40625 64.59375 
L 9.421875 64.59375 
z
" id="DejaVuSans-69"/>
      <path d="M 52 44.1875 
Q 55.375 50.25 60.0625 53.125 
Q 64.75 56 71.09375 56 
Q 79.640625 56 84.28125 50.015625 
Q 88.921875 44.046875 88.921875 33.015625 
L 88.921875 0 
L 79.890625 0 
L 79.890625 32.71875 
Q 79.890625 40.578125 77.09375 44.375 
Q 74.3125 48.1875 68.609375 48.1875 
Q 61.625 48.1875 57.5625 43.546875 
Q 53.515625 38.921875 53.515625 30.90625 
L 53.515625 0 
L 44.484375 0 
L 44.484375 32.71875 
Q 44.484375 40.625 41.703125 44.40625 
Q 38.921875 48.1875 33.109375 48.1875 
Q 26.21875 48.1875 22.15625 43.53125 
Q 18.109375 38.875 18.109375 30.90625 
L 18.109375 0 
L 9.078125 0 
L 9.078125 54.6875 
L 18.109375 54.6875 
L 18.109375 46.1875 
Q 21.1875 51.21875 25.484375 53.609375 
Q 29.78125 56 35.6875 56 
Q 41.65625 56 45.828125 52.96875 
Q 50 49.953125 52 44.1875 
z
" id="DejaVuSans-6d"/>
      <path d="M 54.890625 33.015625 
L 54.890625 0 
L 45.90625 0 
L 45.90625 32.71875 
Q 45.90625 40.484375 42.875 44.328125 
Q 39.84375 48.1875 33.796875 48.1875 
Q 26.515625 48.1875 22.3125 43.546875 
Q 18.109375 38.921875 18.109375 30.90625 
L 18.109375 0 
L 9.078125 0 
L 9.078125 54.6875 
L 18.109375 54.6875 
L 18.109375 46.1875 
Q 21.34375 51.125 25.703125 53.5625 
Q 30.078125 56 35.796875 56 
Q 45.21875 56 50.046875 50.171875 
Q 54.890625 44.34375 54.890625 33.015625 
z
" id="DejaVuSans-6e"/>
      <path d="M 8.015625 75.875 
L 15.828125 75.875 
Q 23.140625 64.359375 26.78125 53.3125 
Q 30.421875 42.28125 30.421875 31.390625 
Q 30.421875 20.453125 26.78125 9.375 
Q 23.140625 -1.703125 15.828125 -13.1875 
L 8.015625 -13.1875 
Q 14.5 -2 17.703125 9.0625 
Q 20.90625 20.125 20.90625 31.390625 
Q 20.90625 42.671875 17.703125 53.65625 
Q 14.5 64.65625 8.015625 75.875 
z
" id="DejaVuSans-29"/>
     </defs>
     <g transform="translate(107.571219 337.433594)scale(0.17 -0.17)">
      <use xlink:href="#DejaVuSans-6c"/>
      <use x="27.783203" xlink:href="#DejaVuSans-6f"/>
      <use x="88.964844" xlink:href="#DejaVuSans-67"/>
      <use x="152.441406" xlink:href="#DejaVuSans-31"/>
      <use x="216.064453" xlink:href="#DejaVuSans-30"/>
      <use x="279.6875" xlink:href="#DejaVuSans-28"/>
      <use x="318.701172" xlink:href="#DejaVuSans-23"/>
      <use x="402.490234" xlink:href="#DejaVuSans-20"/>
      <use x="434.277344" xlink:href="#DejaVuSans-66"/>
      <use x="469.404297" xlink:href="#DejaVuSans-2d"/>
      <use x="505.488281" xlink:href="#DejaVuSans-65"/>
      <use x="567.011719" xlink:href="#DejaVuSans-76"/>
      <use x="626.191406" xlink:href="#DejaVuSans-61"/>
      <use x="687.470703" xlink:href="#DejaVuSans-6c"/>
      <use x="715.253906" xlink:href="#DejaVuSans-73"/>
      <use x="767.353516" xlink:href="#DejaVuSans-20"/>
      <use x="799.140625" xlink:href="#DejaVuSans-2f"/>
      <use x="832.832031" xlink:href="#DejaVuSans-20"/>
      <use x="864.619141" xlink:href="#DejaVuSans-64"/>
      <use x="928.095703" xlink:href="#DejaVuSans-69"/>
      <use x="955.878906" xlink:href="#DejaVuSans-6d"/>
      <use x="1053.291016" xlink:href="#DejaVuSans-65"/>
      <use x="1114.814453" xlink:href="#DejaVuSans-6e"/>
      <use x="1178.193359" xlink:href="#DejaVuSans-73"/>
      <use x="1230.292969" xlink:href="#DejaVuSans-69"/>
      <use x="1258.076172" xlink:href="#DejaVuSans-6f"/>
      <use x="1319.257812" xlink:href="#DejaVuSans-6e"/>
      <use x="1382.636719" xlink:href="#DejaVuSans-29"/>
     </g>
    </g>
   </g>
   <g id="matplotlib.axis_2">
    <g id="ytick_1">
     <g id="line2d_11">
      <path clip-path="url(#pf21362b82e)" d="M 56.84 294.16 
L 399.984 294.16 
" style="fill:none;stroke:#b0b0b0;stroke-linecap:square;stroke-width:0.8;"/>
     </g>
     <g id="line2d_12">
      <defs>
       <path d="M 0 0 
L -3.5 0 
" id="m8113d3c1db" style="stroke:#000000;stroke-width:0.8;"/>
      </defs>
      <g>
       <use style="stroke:#000000;stroke-width:0.8;" x="56.84" xlink:href="#m8113d3c1db" y="294.16"/>
      </g>
     </g>
     <g id="text_7">
      <!-- 0.0 -->
      <defs>
       <path d="M 10.6875 12.40625 
L 21 12.40625 
L 21 0 
L 10.6875 0 
z
" id="DejaVuSans-2e"/>
      </defs>
      <g transform="translate(24.395 300.23875)scale(0.16 -0.16)">
       <use xlink:href="#DejaVuSans-30"/>
       <use x="63.623047" xlink:href="#DejaVuSans-2e"/>
       <use x="95.410156" xlink:href="#DejaVuSans-30"/>
      </g>
     </g>
    </g>
    <g id="ytick_2">
     <g id="line2d_13">
      <path clip-path="url(#pf21362b82e)" d="M 56.84 237.123411 
L 399.984 237.123411 
" style="fill:none;stroke:#b0b0b0;stroke-linecap:square;stroke-width:0.8;"/>
     </g>
     <g id="line2d_14">
      <g>
       <use style="stroke:#000000;stroke-width:0.8;" x="56.84" xlink:href="#m8113d3c1db" y="237.123411"/>
      </g>
     </g>
     <g id="text_8">
      <!-- 0.2 -->
      <g transform="translate(24.395 243.202161)scale(0.16 -0.16)">
       <use xlink:href="#DejaVuSans-30"/>
       <use x="63.623047" xlink:href="#DejaVuSans-2e"/>
       <use x="95.410156" xlink:href="#DejaVuSans-32"/>
      </g>
     </g>
    </g>
    <g id="ytick_3">
     <g id="line2d_15">
      <path clip-path="url(#pf21362b82e)" d="M 56.84 180.086823 
L 399.984 180.086823 
" style="fill:none;stroke:#b0b0b0;stroke-linecap:square;stroke-width:0.8;"/>
     </g>
     <g id="line2d_16">
      <g>
       <use style="stroke:#000000;stroke-width:0.8;" x="56.84" xlink:href="#m8113d3c1db" y="180.086823"/>
      </g>
     </g>
     <g id="text_9">
      <!-- 0.4 -->
      <g transform="translate(24.395 186.165573)scale(0.16 -0.16)">
       <use xlink:href="#DejaVuSans-30"/>
       <use x="63.623047" xlink:href="#DejaVuSans-2e"/>
       <use x="95.410156" xlink:href="#DejaVuSans-34"/>
      </g>
     </g>
    </g>
    <g id="ytick_4">
     <g id="line2d_17">
      <path clip-path="url(#pf21362b82e)" d="M 56.84 123.050234 
L 399.984 123.050234 
" style="fill:none;stroke:#b0b0b0;stroke-linecap:square;stroke-width:0.8;"/>
     </g>
     <g id="line2d_18">
      <g>
       <use style="stroke:#000000;stroke-width:0.8;" x="56.84" xlink:href="#m8113d3c1db" y="123.050234"/>
      </g>
     </g>
     <g id="text_10">
      <!-- 0.6 -->
      <g transform="translate(24.395 129.128984)scale(0.16 -0.16)">
       <use xlink:href="#DejaVuSans-30"/>
       <use x="63.623047" xlink:href="#DejaVuSans-2e"/>
       <use x="95.410156" xlink:href="#DejaVuSans-36"/>
      </g>
     </g>
    </g>
    <g id="ytick_5">
     <g id="line2d_19">
      <path clip-path="url(#pf21362b82e)" d="M 56.84 66.013646 
L 399.984 66.013646 
" style="fill:none;stroke:#b0b0b0;stroke-linecap:square;stroke-width:0.8;"/>
     </g>
     <g id="line2d_20">
      <g>
       <use style="stroke:#000000;stroke-width:0.8;" x="56.84" xlink:href="#m8113d3c1db" y="66.013646"/>
      </g>
     </g>
     <g id="text_11">
      <!-- 0.8 -->
      <g transform="translate(24.395 72.092396)scale(0.16 -0.16)">
       <use xlink:href="#DejaVuSans-30"/>
       <use x="63.623047" xlink:href="#DejaVuSans-2e"/>
       <use x="95.410156" xlink:href="#DejaVuSans-38"/>
      </g>
     </g>
    </g>
    <g id="ytick_6">
     <g id="line2d_21">
      <path clip-path="url(#pf21362b82e)" d="M 56.84 8.977057 
L 399.984 8.977057 
" style="fill:none;stroke:#b0b0b0;stroke-linecap:square;stroke-width:0.8;"/>
     </g>
     <g id="line2d_22">
      <g>
       <use style="stroke:#000000;stroke-width:0.8;" x="56.84" xlink:href="#m8113d3c1db" y="8.977057"/>
      </g>
     </g>
     <g id="text_12">
      <!-- 1.0 -->
      <g transform="translate(24.395 15.055807)scale(0.16 -0.16)">
       <use xlink:href="#DejaVuSans-31"/>
       <use x="63.623047" xlink:href="#DejaVuSans-2e"/>
       <use x="95.410156" xlink:href="#DejaVuSans-30"/>
      </g>
     </g>
    </g>
    <g id="text_13">
     <!-- Fraction of function,target pairs -->
     <defs>
      <path d="M 9.8125 72.90625 
L 51.703125 72.90625 
L 51.703125 64.59375 
L 19.671875 64.59375 
L 19.671875 43.109375 
L 48.578125 43.109375 
L 48.578125 34.8125 
L 19.671875 34.8125 
L 19.671875 0 
L 9.8125 0 
z
" id="DejaVuSans-46"/>
      <path d="M 41.109375 46.296875 
Q 39.59375 47.171875 37.8125 47.578125 
Q 36.03125 48 33.890625 48 
Q 26.265625 48 22.1875 43.046875 
Q 18.109375 38.09375 18.109375 28.8125 
L 18.109375 0 
L 9.078125 0 
L 9.078125 54.6875 
L 18.109375 54.6875 
L 18.109375 46.1875 
Q 20.953125 51.171875 25.484375 53.578125 
Q 30.03125 56 36.53125 56 
Q 37.453125 56 38.578125 55.875 
Q 39.703125 55.765625 41.0625 55.515625 
z
" id="DejaVuSans-72"/>
      <path d="M 48.78125 52.59375 
L 48.78125 44.1875 
Q 44.96875 46.296875 41.140625 47.34375 
Q 37.3125 48.390625 33.40625 48.390625 
Q 24.65625 48.390625 19.8125 42.84375 
Q 14.984375 37.3125 14.984375 27.296875 
Q 14.984375 17.28125 19.8125 11.734375 
Q 24.65625 6.203125 33.40625 6.203125 
Q 37.3125 6.203125 41.140625 7.25 
Q 44.96875 8.296875 48.78125 10.40625 
L 48.78125 2.09375 
Q 45.015625 0.34375 40.984375 -0.53125 
Q 36.96875 -1.421875 32.421875 -1.421875 
Q 20.0625 -1.421875 12.78125 6.34375 
Q 5.515625 14.109375 5.515625 27.296875 
Q 5.515625 40.671875 12.859375 48.328125 
Q 20.21875 56 33.015625 56 
Q 37.15625 56 41.109375 55.140625 
Q 45.0625 54.296875 48.78125 52.59375 
z
" id="DejaVuSans-63"/>
      <path d="M 18.3125 70.21875 
L 18.3125 54.6875 
L 36.8125 54.6875 
L 36.8125 47.703125 
L 18.3125 47.703125 
L 18.3125 18.015625 
Q 18.3125 11.328125 20.140625 9.421875 
Q 21.96875 7.515625 27.59375 7.515625 
L 36.8125 7.515625 
L 36.8125 0 
L 27.59375 0 
Q 17.1875 0 13.234375 3.875 
Q 9.28125 7.765625 9.28125 18.015625 
L 9.28125 47.703125 
L 2.6875 47.703125 
L 2.6875 54.6875 
L 9.28125 54.6875 
L 9.28125 70.21875 
z
" id="DejaVuSans-74"/>
      <path d="M 8.5 21.578125 
L 8.5 54.6875 
L 17.484375 54.6875 
L 17.484375 21.921875 
Q 17.484375 14.15625 20.5 10.265625 
Q 23.53125 6.390625 29.59375 6.390625 
Q 36.859375 6.390625 41.078125 11.03125 
Q 45.3125 15.671875 45.3125 23.6875 
L 45.3125 54.6875 
L 54.296875 54.6875 
L 54.296875 0 
L 45.3125 0 
L 45.3125 8.40625 
Q 42.046875 3.421875 37.71875 1 
Q 33.40625 -1.421875 27.6875 -1.421875 
Q 18.265625 -1.421875 13.375 4.4375 
Q 8.5 10.296875 8.5 21.578125 
z
M 31.109375 56 
z
" id="DejaVuSans-75"/>
      <path d="M 11.71875 12.40625 
L 22.015625 12.40625 
L 22.015625 4 
L 14.015625 -11.625 
L 7.71875 -11.625 
L 11.71875 4 
z
" id="DejaVuSans-2c"/>
      <path d="M 18.109375 8.203125 
L 18.109375 -20.796875 
L 9.078125 -20.796875 
L 9.078125 54.6875 
L 18.109375 54.6875 
L 18.109375 46.390625 
Q 20.953125 51.265625 25.265625 53.625 
Q 29.59375 56 35.59375 56 
Q 45.5625 56 51.78125 48.09375 
Q 58.015625 40.1875 58.015625 27.296875 
Q 58.015625 14.40625 51.78125 6.484375 
Q 45.5625 -1.421875 35.59375 -1.421875 
Q 29.59375 -1.421875 25.265625 0.953125 
Q 20.953125 3.328125 18.109375 8.203125 
z
M 48.6875 27.296875 
Q 48.6875 37.203125 44.609375 42.84375 
Q 40.53125 48.484375 33.40625 48.484375 
Q 26.265625 48.484375 22.1875 42.84375 
Q 18.109375 37.203125 18.109375 27.296875 
Q 18.109375 17.390625 22.1875 11.75 
Q 26.265625 6.109375 33.40625 6.109375 
Q 40.53125 6.109375 44.609375 11.75 
Q 48.6875 17.390625 48.6875 27.296875 
z
" id="DejaVuSans-70"/>
     </defs>
     <g transform="translate(16.859531 285.281989)rotate(-90)scale(0.17 -0.17)">
      <use xlink:href="#DejaVuSans-46"/>
      <use x="57.410156" xlink:href="#DejaVuSans-72"/>
      <use x="98.523438" xlink:href="#DejaVuSans-61"/>
      <use x="159.802734" xlink:href="#DejaVuSans-63"/>
      <use x="214.783203" xlink:href="#DejaVuSans-74"/>
      <use x="253.992188" xlink:href="#DejaVuSans-69"/>
      <use x="281.775391" xlink:href="#DejaVuSans-6f"/>
      <use x="342.957031" xlink:href="#DejaVuSans-6e"/>
      <use x="406.335938" xlink:href="#DejaVuSans-20"/>
      <use x="438.123047" xlink:href="#DejaVuSans-6f"/>
      <use x="499.304688" xlink:href="#DejaVuSans-66"/>
      <use x="534.509766" xlink:href="#DejaVuSans-20"/>
      <use x="566.296875" xlink:href="#DejaVuSans-66"/>
      <use x="601.501953" xlink:href="#DejaVuSans-75"/>
      <use x="664.880859" xlink:href="#DejaVuSans-6e"/>
      <use x="728.259766" xlink:href="#DejaVuSans-63"/>
      <use x="783.240234" xlink:href="#DejaVuSans-74"/>
      <use x="822.449219" xlink:href="#DejaVuSans-69"/>
      <use x="850.232422" xlink:href="#DejaVuSans-6f"/>
      <use x="911.414062" xlink:href="#DejaVuSans-6e"/>
      <use x="974.792969" xlink:href="#DejaVuSans-2c"/>
      <use x="1006.580078" xlink:href="#DejaVuSans-74"/>
      <use x="1045.789062" xlink:href="#DejaVuSans-61"/>
      <use x="1107.068359" xlink:href="#DejaVuSans-72"/>
      <use x="1148.166016" xlink:href="#DejaVuSans-67"/>
      <use x="1211.642578" xlink:href="#DejaVuSans-65"/>
      <use x="1273.166016" xlink:href="#DejaVuSans-74"/>
      <use x="1312.375" xlink:href="#DejaVuSans-20"/>
      <use x="1344.162109" xlink:href="#DejaVuSans-70"/>
      <use x="1407.638672" xlink:href="#DejaVuSans-61"/>
      <use x="1468.917969" xlink:href="#DejaVuSans-69"/>
      <use x="1496.701172" xlink:href="#DejaVuSans-72"/>
      <use x="1537.814453" xlink:href="#DejaVuSans-73"/>
     </g>
    </g>
   </g>
   <g id="line2d_23">
    <defs>
     <path d="M 0 1.5 
C 0.397805 1.5 0.77937 1.341951 1.06066 1.06066 
C 1.341951 0.77937 1.5 0.397805 1.5 0 
C 1.5 -0.397805 1.341951 -0.77937 1.06066 -1.06066 
C 0.77937 -1.341951 0.397805 -1.5 0 -1.5 
C -0.397805 -1.5 -0.77937 -1.341951 -1.06066 -1.06066 
C -1.341951 -0.77937 -1.5 -0.397805 -1.5 0 
C -1.5 0.397805 -1.341951 0.77937 -1.06066 1.06066 
C -0.77937 1.341951 -0.397805 1.5 0 1.5 
z
" id="mc060badc4d" style="stroke:#000080;"/>
    </defs>
    <g>
     <use style="fill:#000080;stroke:#000080;" x="254.952255" xlink:href="#mc060badc4d" y="199.099019"/>
     <use style="fill:#000080;stroke:#000080;" x="254.952255" xlink:href="#mc060badc4d" y="199.099019"/>
    </g>
   </g>
   <g id="line2d_24">
    <path d="M 145.805221 294.16 
L 145.805221 293.600818 
L 149.468331 293.600818 
L 149.468331 291.923271 
L 150.960051 291.923271 
L 150.960051 291.364089 
L 153.085128 291.364089 
L 153.085128 290.804907 
L 153.705009 290.804907 
L 153.705009 290.245724 
L 156.848783 290.245724 
L 156.848783 289.686542 
L 160.10251 289.686542 
L 160.10251 289.12736 
L 161.804841 289.12736 
L 161.804841 288.568178 
L 162.511784 288.568178 
L 162.608715 286.890631 
L 162.824829 286.890631 
L 162.931875 285.772266 
L 166.485683 285.772266 
L 166.485683 285.213084 
L 168.511094 285.213084 
L 168.511094 284.653902 
L 169.379742 284.653902 
L 169.444775 282.976355 
L 169.622358 282.976355 
L 169.686481 281.857991 
L 170.965685 281.857991 
L 170.965685 281.298808 
L 171.742425 281.298808 
L 171.742425 280.739626 
L 173.347145 280.739626 
L 173.347145 280.180444 
L 177.837707 280.180444 
L 177.837707 279.621262 
L 178.701425 279.621262 
L 178.701425 279.062079 
L 178.842811 279.062079 
L 178.842811 278.502897 
L 179.154431 278.502897 
L 179.154431 277.943715 
L 179.283003 277.943715 
L 179.287577 276.825351 
L 182.230824 276.825351 
L 182.230824 276.266168 
L 182.365151 276.266168 
L 182.365151 275.706986 
L 183.320564 275.706986 
L 183.320564 275.147804 
L 184.990427 275.147804 
L 184.990427 274.588622 
L 185.156942 274.588622 
L 185.221803 273.470257 
L 185.564711 273.470257 
L 185.564711 272.911075 
L 185.925777 272.911075 
L 185.925777 272.351893 
L 186.34017 272.351893 
L 186.34017 271.79271 
L 186.803938 271.79271 
L 186.803938 271.233528 
L 187.197903 271.233528 
L 187.197903 270.674346 
L 187.602767 270.674346 
L 187.611218 269.555981 
L 188.686498 269.555981 
L 188.686498 268.996799 
L 189.810249 268.996799 
L 189.810249 267.319252 
L 189.958279 267.319252 
L 189.968102 266.200888 
L 192.03362 266.200888 
L 192.03362 265.641706 
L 192.337845 265.641706 
L 192.337845 265.082523 
L 192.745715 265.082523 
L 192.745715 264.523341 
L 192.975978 264.523341 
L 192.975978 263.964159 
L 193.184882 263.964159 
L 193.21539 262.845795 
L 193.397308 262.845795 
L 193.397308 262.286612 
L 193.964876 262.286612 
L 193.964876 261.72743 
L 194.839004 261.72743 
L 194.839004 261.168248 
L 194.988099 261.168248 
L 194.988099 260.609066 
L 195.291466 260.609066 
L 195.291466 260.049883 
L 195.404532 260.049883 
L 195.404532 259.490701 
L 196.031541 259.490701 
L 196.031541 258.372337 
L 196.158693 258.372337 
L 196.158693 257.813154 
L 196.684672 257.813154 
L 196.684672 257.253972 
L 197.29625 257.253972 
L 197.29625 256.69479 
L 198.06236 256.69479 
L 198.06236 256.135608 
L 198.559211 256.135608 
L 198.648292 254.458061 
L 199.075341 254.458061 
L 199.075341 253.898879 
L 199.757824 253.898879 
L 199.757824 253.339696 
L 200.601575 253.339696 
L 200.65831 252.221332 
L 201.003876 252.221332 
L 201.003876 251.66215 
L 201.161938 251.66215 
L 201.161938 251.102967 
L 201.690949 251.102967 
L 201.771383 249.425421 
L 202.042073 249.425421 
L 202.042073 248.866238 
L 202.249831 248.866238 
L 202.249831 248.307056 
L 202.445612 248.307056 
L 202.516685 246.62951 
L 202.659127 246.62951 
L 202.659127 246.070327 
L 202.838724 246.070327 
L 202.843363 244.951963 
L 203.422669 244.951963 
L 203.422669 244.392781 
L 203.614464 244.392781 
L 203.614464 243.833598 
L 206.012616 243.833598 
L 206.012616 243.274416 
L 206.230134 243.274416 
L 206.230134 242.715234 
L 206.664502 242.715234 
L 206.664502 242.156052 
L 206.981848 242.156052 
L 206.981848 241.596869 
L 207.476822 241.596869 
L 207.476822 241.037687 
L 208.045526 241.037687 
L 208.090868 239.919323 
L 208.747969 239.919323 
L 208.747969 239.36014 
L 208.936064 239.36014 
L 208.986417 237.682594 
L 209.057634 237.682594 
L 209.057634 237.123411 
L 209.919938 237.123411 
L 209.919938 236.564229 
L 210.03476 236.564229 
L 210.117718 234.886682 
L 210.220666 234.886682 
L 210.220666 234.3275 
L 211.034997 234.3275 
L 211.034997 233.768318 
L 212.310737 233.768318 
L 212.310737 233.209136 
L 213.617511 233.209136 
L 213.617511 232.649954 
L 213.998417 232.649954 
L 213.998417 232.090771 
L 214.188143 232.090771 
L 214.230619 230.972407 
L 215.240023 230.972407 
L 215.268169 229.854042 
L 215.503351 229.854042 
L 215.503351 229.29486 
L 215.670643 229.29486 
L 215.670643 228.735678 
L 215.924791 228.735678 
L 215.924791 228.176496 
L 217.614521 228.176496 
L 217.614521 227.617313 
L 217.782957 227.617313 
L 217.782957 227.058131 
L 218.295083 227.058131 
L 218.295083 226.498949 
L 219.039786 226.498949 
L 219.134348 224.26222 
L 219.199785 224.26222 
L 219.199785 223.703038 
L 220.300874 223.703038 
L 220.410448 222.025491 
L 220.640689 222.025491 
L 220.640689 221.466309 
L 221.044767 221.466309 
L 221.055209 220.347944 
L 221.207115 220.347944 
L 221.207115 219.788762 
L 221.689793 219.788762 
L 221.689793 219.22958 
L 222.019011 219.22958 
L 222.019011 218.670397 
L 222.667868 218.670397 
L 222.667868 218.111215 
L 225.232383 218.111215 
L 225.232383 217.552033 
L 225.42304 217.552033 
L 225.42304 216.992851 
L 225.94371 216.992851 
L 225.94371 216.433669 
L 226.410004 216.433669 
L 226.410004 215.874486 
L 227.823972 215.874486 
L 227.823972 215.315304 
L 227.984021 215.315304 
L 227.984021 214.756122 
L 228.354393 214.756122 
L 228.354393 214.19694 
L 228.958599 214.19694 
L 228.958599 213.637757 
L 230.78679 213.637757 
L 230.78679 213.078575 
L 231.54521 213.078575 
L 231.59005 211.960211 
L 232.194484 211.960211 
L 232.225935 210.841846 
L 233.466247 210.841846 
L 233.511011 209.164299 
L 234.022678 209.164299 
L 234.105115 208.045935 
L 234.919174 208.045935 
L 234.919174 207.486753 
L 237.471134 207.486753 
L 237.471134 206.92757 
L 239.733031 206.92757 
L 239.733031 206.368388 
L 240.190897 206.368388 
L 240.190897 205.809206 
L 240.536466 205.809206 
L 240.536466 205.250024 
L 240.898996 205.250024 
L 240.898996 204.690841 
L 241.545479 204.690841 
L 241.545479 204.131659 
L 241.734939 204.131659 
L 241.734939 203.572477 
L 242.17695 203.572477 
L 242.17695 203.013295 
L 243.37345 203.013295 
L 243.37345 202.454112 
L 244.199735 202.454112 
L 244.199735 201.89493 
L 244.523522 201.89493 
L 244.523522 201.335748 
L 244.674938 201.335748 
L 244.674938 200.776566 
L 245.589541 200.776566 
L 245.589541 200.217384 
L 248.4626 200.217384 
L 248.4626 199.658201 
L 254.952255 199.658201 
L 254.952255 199.099019 
L 333.569032 199.099019 
L 333.569032 199.099019 
" style="fill:none;stroke:#000080;stroke-linecap:square;stroke-width:1.5;"/>
   </g>
   <g id="line2d_25">
    <defs>
     <path d="M 0 6 
C 1.591219 6 3.117479 5.367802 4.242641 4.242641 
C 5.367802 3.117479 6 1.591219 6 0 
C 6 -1.591219 5.367802 -3.117479 4.242641 -4.242641 
C 3.117479 -5.367802 1.591219 -6 0 -6 
C -1.591219 -6 -3.117479 -5.367802 -4.242641 -4.242641 
C -5.367802 -3.117479 -6 -1.591219 -6 0 
C -6 1.591219 -5.367802 3.117479 -4.242641 4.242641 
C -3.117479 5.367802 -1.591219 6 0 6 
z
" id="mabd6b53a11" style="stroke:#000080;stroke-width:1.5;"/>
    </defs>
    <g>
     <use style="fill-opacity:0;stroke:#000080;stroke-width:1.5;" x="194.839004" xlink:href="#mabd6b53a11" y="261.72743"/>
     <use style="fill-opacity:0;stroke:#000080;stroke-width:1.5;" x="220.364947" xlink:href="#mabd6b53a11" y="222.584673"/>
     <use style="fill-opacity:0;stroke:#000080;stroke-width:1.5;" x="254.952255" xlink:href="#mabd6b53a11" y="199.099019"/>
     <use style="fill-opacity:0;stroke:#000080;stroke-width:1.5;" x="254.952255" xlink:href="#mabd6b53a11" y="199.099019"/>
     <use style="fill-opacity:0;stroke:#000080;stroke-width:1.5;" x="333.569032" xlink:href="#mabd6b53a11" y="199.099019"/>
    </g>
   </g>
   <g id="line2d_26">
    <path style="fill:none;stroke:#000080;stroke-linecap:square;stroke-width:1.5;"/>
    <g/>
   </g>
   <g id="line2d_27">
    <path clip-path="url(#pf21362b82e)" d="M 164.100586 285.772266 
" style="fill:none;stroke:#000080;stroke-linecap:square;stroke-width:1.5;"/>
    <defs>
     <path d="M -12 12 
L 12 -12 
M -12 -12 
L 12 12 
" id="m081caaa841" style="stroke:#000080;stroke-width:3;"/>
    </defs>
    <g clip-path="url(#pf21362b82e)">
     <use style="fill:#000080;stroke:#000080;stroke-width:3;" x="164.100586" xlink:href="#m081caaa841" y="285.772266"/>
    </g>
   </g>
   <g id="line2d_28">
    <defs>
     <path d="M 0 1.5 
C 0.397805 1.5 0.77937 1.341951 1.06066 1.06066 
C 1.341951 0.77937 1.5 0.397805 1.5 0 
C 1.5 -0.397805 1.341951 -0.77937 1.06066 -1.06066 
C 0.77937 -1.341951 0.397805 -1.5 0 -1.5 
C -0.397805 -1.5 -0.77937 -1.341951 -1.06066 -1.06066 
C -1.341951 -0.77937 -1.5 -0.397805 -1.5 0 
C -1.5 0.397805 -1.341951 0.77937 -1.06066 1.06066 
C -0.77937 1.341951 -0.397805 1.5 0 1.5 
z
" id="m6db63965e2" style="stroke:#ff00ff;"/>
    </defs>
    <g>
     <use style="fill:#ff00ff;stroke:#ff00ff;" x="254.88035" xlink:href="#m6db63965e2" y="232.649954"/>
     <use style="fill:#ff00ff;stroke:#ff00ff;" x="254.88035" xlink:href="#m6db63965e2" y="232.649954"/>
    </g>
   </g>
   <g id="line2d_29">
    <path d="M 73.679702 294.16 
L 73.679702 293.600818 
L 91.047718 293.600818 
L 91.047718 293.041636 
L 105.816377 293.041636 
L 105.816377 292.482453 
L 112.104369 292.482453 
L 112.104369 291.923271 
L 114.253276 291.923271 
L 114.253276 291.364089 
L 117.551028 291.364089 
L 117.551028 290.245724 
L 119.443088 290.245724 
L 119.443088 289.686542 
L 121.011458 289.686542 
L 121.011458 289.12736 
L 121.147181 289.12736 
L 121.147181 288.568178 
L 125.112955 288.568178 
L 125.112955 288.008995 
L 125.641269 288.008995 
L 125.641269 287.449813 
L 128.597214 287.449813 
L 128.597214 286.890631 
L 128.858012 286.890631 
L 128.858012 286.331449 
L 130.105692 286.331449 
L 130.105692 285.772266 
L 131.566116 285.772266 
L 131.566116 285.213084 
L 132.498265 285.213084 
L 132.498265 284.653902 
L 133.710687 284.653902 
L 133.710687 283.535537 
L 134.597835 283.535537 
L 134.597835 282.976355 
L 136.851772 282.976355 
L 136.851772 282.417173 
L 137.902182 282.417173 
L 137.902182 281.857991 
L 138.649855 281.857991 
L 138.649855 281.298808 
L 143.46665 281.298808 
L 143.503453 280.180444 
L 146.529221 280.180444 
L 146.529221 279.621262 
L 147.075273 279.621262 
L 147.075273 279.062079 
L 147.948453 279.062079 
L 147.948453 278.502897 
L 149.853587 278.502897 
L 149.853587 277.943715 
L 150.230387 277.943715 
L 150.230387 277.384533 
L 150.47707 277.384533 
L 150.47707 276.825351 
L 154.710013 276.825351 
L 154.710013 276.266168 
L 155.713673 276.266168 
L 155.713673 275.706986 
L 156.246909 275.706986 
L 156.246909 275.147804 
L 160.50325 275.147804 
L 160.571407 274.029439 
L 161.588237 274.029439 
L 161.588237 273.470257 
L 163.674427 273.470257 
L 163.674427 272.911075 
L 165.513976 272.911075 
L 165.513976 272.351893 
L 165.957068 272.351893 
L 165.957068 271.79271 
L 167.304522 271.79271 
L 167.304522 271.233528 
L 169.622358 271.233528 
L 169.622358 270.674346 
L 169.750365 270.674346 
L 169.750365 270.115164 
L 169.861593 270.115164 
L 169.861593 269.555981 
L 169.995695 269.555981 
L 169.995695 268.996799 
L 174.000369 268.996799 
L 174.000369 268.437617 
L 175.923408 268.437617 
L 175.923408 267.878435 
L 176.759489 267.878435 
L 176.849337 266.76007 
L 177.193769 266.76007 
L 177.193769 266.200888 
L 177.822771 266.200888 
L 177.857602 265.082523 
L 178.429542 265.082523 
L 178.530211 263.964159 
L 178.691958 263.964159 
L 178.691958 263.404977 
L 179.112899 263.404977 
L 179.112899 262.845795 
L 180.282635 262.845795 
L 180.338651 261.72743 
L 180.492825 261.72743 
L 180.492825 261.168248 
L 182.44144 261.168248 
L 182.44144 260.609066 
L 183.924538 260.609066 
L 183.924538 260.049883 
L 184.67588 260.049883 
L 184.67588 259.490701 
L 185.098356 259.490701 
L 185.098356 258.931519 
L 187.745876 258.931519 
L 187.745876 258.372337 
L 187.862842 258.372337 
L 187.945904 257.253972 
L 190.918456 257.253972 
L 190.918456 256.135608 
L 191.327038 256.135608 
L 191.327038 255.576425 
L 191.635018 255.576425 
L 191.708384 252.780514 
L 192.655678 252.780514 
L 192.655678 252.221332 
L 193.045895 252.221332 
L 193.045895 251.66215 
L 194.527462 251.66215 
L 194.527462 251.102967 
L 194.781599 251.102967 
L 194.814954 249.984603 
L 198.496578 249.984603 
L 198.496578 249.425421 
L 199.810494 249.425421 
L 199.810494 248.866238 
L 204.299222 248.866238 
L 204.299222 248.307056 
L 205.125066 248.307056 
L 205.125066 247.747874 
L 205.879021 247.747874 
L 205.879021 247.188692 
L 206.05307 247.188692 
L 206.134651 246.070327 
L 206.628257 246.070327 
L 206.722892 244.951963 
L 207.703773 244.951963 
L 207.703773 244.392781 
L 207.974277 244.392781 
L 207.974277 243.833598 
L 210.709484 243.833598 
L 210.709484 243.274416 
L 213.82677 243.274416 
L 213.82677 242.715234 
L 214.714878 242.715234 
L 214.714878 242.156052 
L 215.575879 242.156052 
L 215.575879 241.596869 
L 217.247566 241.596869 
L 217.247566 241.037687 
L 217.969952 241.037687 
L 217.969952 240.478505 
L 219.31126 240.478505 
L 219.31126 239.919323 
L 220.706377 239.919323 
L 220.706377 239.36014 
L 221.286529 239.36014 
L 221.286529 238.800958 
L 223.470168 238.800958 
L 223.470168 238.241776 
L 223.9619 238.241776 
L 223.9619 237.682594 
L 224.193889 237.682594 
L 224.193889 237.123411 
L 224.756464 237.123411 
L 224.756464 236.564229 
L 227.055273 236.564229 
L 227.055273 236.005047 
L 227.571177 236.005047 
L 227.571177 235.445865 
L 232.47487 235.445865 
L 232.47487 234.886682 
L 233.599611 234.886682 
L 233.599611 234.3275 
L 238.987485 234.3275 
L 238.987485 233.768318 
L 242.018168 233.768318 
L 242.018168 233.209136 
L 254.88035 233.209136 
L 254.88035 232.649954 
L 333.569032 232.649954 
L 333.569032 232.649954 
" style="fill:none;stroke:#ff00ff;stroke-linecap:square;stroke-width:1.5;"/>
   </g>
   <g id="line2d_30">
    <defs>
     <path d="M -0 8.485281 
L 5.091169 0 
L 0 -8.485281 
L -5.091169 -0 
z
" id="mbe10666ae0" style="stroke:#ff00ff;stroke-linejoin:miter;stroke-width:1.5;"/>
    </defs>
    <g>
     <use style="fill-opacity:0;stroke:#ff00ff;stroke-linejoin:miter;stroke-width:1.5;" x="160.50325" xlink:href="#mbe10666ae0" y="274.588622"/>
     <use style="fill-opacity:0;stroke:#ff00ff;stroke-linejoin:miter;stroke-width:1.5;" x="224.756464" xlink:href="#mbe10666ae0" y="236.564229"/>
     <use style="fill-opacity:0;stroke:#ff00ff;stroke-linejoin:miter;stroke-width:1.5;" x="254.88035" xlink:href="#mbe10666ae0" y="232.649954"/>
     <use style="fill-opacity:0;stroke:#ff00ff;stroke-linejoin:miter;stroke-width:1.5;" x="254.88035" xlink:href="#mbe10666ae0" y="232.649954"/>
     <use style="fill-opacity:0;stroke:#ff00ff;stroke-linejoin:miter;stroke-width:1.5;" x="333.569032" xlink:href="#mbe10666ae0" y="232.649954"/>
    </g>
   </g>
   <g id="line2d_31">
    <path style="fill:none;stroke:#ff00ff;stroke-linecap:square;stroke-width:1.5;"/>
    <g/>
   </g>
   <g id="line2d_32">
    <path clip-path="url(#pf21362b82e)" d="M 164.100586 272.911075 
" style="fill:none;stroke:#ff00ff;stroke-linecap:square;stroke-width:1.5;"/>
    <defs>
     <path d="M -12 12 
L 12 -12 
M -12 -12 
L 12 12 
" id="md455a54d53" style="stroke:#ff00ff;stroke-width:3;"/>
    </defs>
    <g clip-path="url(#pf21362b82e)">
     <use style="fill:#ff00ff;stroke:#ff00ff;stroke-width:3;" x="164.100586" xlink:href="#md455a54d53" y="272.911075"/>
    </g>
   </g>
   <g id="line2d_33">
    <defs>
     <path d="M 0 1.5 
C 0.397805 1.5 0.77937 1.341951 1.06066 1.06066 
C 1.341951 0.77937 1.5 0.397805 1.5 0 
C 1.5 -0.397805 1.341951 -0.77937 1.06066 -1.06066 
C 0.77937 -1.341951 0.397805 -1.5 0 -1.5 
C -0.397805 -1.5 -0.77937 -1.341951 -1.06066 -1.06066 
C -1.341951 -0.77937 -1.5 -0.397805 -1.5 0 
C -1.5 0.397805 -1.341951 0.77937 -1.06066 1.06066 
C -0.77937 1.341951 -0.397805 1.5 0 1.5 
z
" id="m1d8a5a754f" style="stroke:#ffa500;"/>
    </defs>
    <g>
     <use style="fill:#ffa500;stroke:#ffa500;" x="253.365054" xlink:href="#m1d8a5a754f" y="227.058131"/>
     <use style="fill:#ffa500;stroke:#ffa500;" x="253.365054" xlink:href="#m1d8a5a754f" y="227.058131"/>
    </g>
   </g>
   <g id="line2d_34">
    <path d="M 129.781742 294.16 
L 129.781742 293.041636 
L 130.105692 293.041636 
L 130.105692 292.482453 
L 132.074321 292.482453 
L 132.074321 291.923271 
L 144.223427 291.923271 
L 144.223427 291.364089 
L 150.055575 291.364089 
L 150.055575 290.804907 
L 150.864536 290.804907 
L 150.864536 290.245724 
L 157.80194 290.245724 
L 157.80194 289.686542 
L 164.656401 289.686542 
L 164.656401 289.12736 
L 166.857585 289.12736 
L 166.857585 288.568178 
L 167.035891 288.568178 
L 167.035891 288.008995 
L 168.094859 288.008995 
L 168.094859 287.449813 
L 168.356186 287.449813 
L 168.356186 286.890631 
L 169.289917 286.890631 
L 169.289917 286.331449 
L 170.368776 286.331449 
L 170.368776 285.772266 
L 172.458332 285.772266 
L 172.458332 285.213084 
L 173.520797 285.213084 
L 173.520797 284.653902 
L 173.711705 284.653902 
L 173.711705 284.09472 
L 177.12647 284.09472 
L 177.147206 282.976355 
L 177.455267 282.976355 
L 177.541556 281.857991 
L 177.966611 281.857991 
L 177.966611 280.739626 
L 178.856886 280.739626 
L 178.856886 280.180444 
L 181.227254 280.180444 
L 181.227254 279.621262 
L 181.595013 279.621262 
L 181.595013 279.062079 
L 182.44144 279.062079 
L 182.44144 278.502897 
L 183.82651 278.502897 
L 183.82651 277.943715 
L 184.02548 277.943715 
L 184.073999 276.825351 
L 184.143075 276.825351 
L 184.143075 276.266168 
L 184.772512 276.266168 
L 184.772512 275.706986 
L 186.560151 275.706986 
L 186.560151 275.147804 
L 187.341552 275.147804 
L 187.341552 274.588622 
L 188.537711 274.588622 
L 188.537711 274.029439 
L 188.768311 274.029439 
L 188.823512 272.911075 
L 189.037375 272.911075 
L 189.071037 271.79271 
L 189.580763 271.79271 
L 189.580763 271.233528 
L 189.842431 271.233528 
L 189.842431 270.674346 
L 190.668085 270.674346 
L 190.71281 269.555981 
L 190.860284 269.555981 
L 190.860284 268.996799 
L 192.386963 268.996799 
L 192.386963 268.437617 
L 192.535593 268.437617 
L 192.535593 267.878435 
L 193.373163 267.878435 
L 193.373163 267.319252 
L 194.096646 267.319252 
L 194.096646 266.76007 
L 194.311499 266.76007 
L 194.311499 265.641706 
L 195.598411 265.641706 
L 195.598411 265.082523 
L 195.791875 265.082523 
L 195.802365 263.964159 
L 196.129565 263.964159 
L 196.129565 263.404977 
L 196.854834 263.404977 
L 196.854834 262.845795 
L 198.030153 262.845795 
L 198.030153 262.286612 
L 198.181462 262.286612 
L 198.187547 261.168248 
L 201.042562 261.168248 
L 201.042562 260.609066 
L 201.20665 260.609066 
L 201.2843 258.931519 
L 201.7145 258.931519 
L 201.7145 258.372337 
L 202.374243 258.372337 
L 202.374243 257.813154 
L 203.202603 257.813154 
L 203.202603 257.253972 
L 203.699636 257.253972 
L 203.699636 256.69479 
L 204.06103 256.69479 
L 204.06103 256.135608 
L 204.339664 256.135608 
L 204.339664 255.576425 
L 204.765915 255.576425 
L 204.765915 255.017243 
L 205.046695 255.017243 
L 205.046695 254.458061 
L 205.691403 254.458061 
L 205.691403 253.898879 
L 207.327411 253.898879 
L 207.327411 253.339696 
L 207.716876 253.339696 
L 207.738692 252.221332 
L 208.308209 252.221332 
L 208.414179 251.102967 
L 208.833276 251.102967 
L 208.896979 249.984603 
L 209.233594 249.984603 
L 209.233594 249.425421 
L 209.489868 249.425421 
L 209.489868 248.866238 
L 210.182133 248.866238 
L 210.182133 248.307056 
L 210.749048 248.307056 
L 210.749048 247.747874 
L 211.169064 247.747874 
L 211.24602 246.62951 
L 211.909164 246.62951 
L 211.909164 246.070327 
L 212.473672 246.070327 
L 212.473672 245.511145 
L 212.937943 245.511145 
L 212.937943 244.951963 
L 213.229863 244.951963 
L 213.229863 244.392781 
L 214.591285 244.392781 
L 214.682317 243.274416 
L 214.844507 243.274416 
L 214.844507 242.715234 
L 216.450447 242.715234 
L 216.450447 242.156052 
L 216.620763 242.156052 
L 216.620763 241.596869 
L 216.951309 241.596869 
L 216.951309 241.037687 
L 217.130383 241.037687 
L 217.130383 240.478505 
L 217.416645 240.478505 
L 217.416645 239.919323 
L 217.914115 239.919323 
L 217.914115 239.36014 
L 218.315348 239.36014 
L 218.315348 238.800958 
L 220.007201 238.800958 
L 220.007201 238.241776 
L 221.376615 238.241776 
L 221.376615 237.682594 
L 221.869557 237.682594 
L 221.869557 237.123411 
L 222.565582 237.123411 
L 222.565582 236.564229 
L 224.499179 236.564229 
L 224.499179 236.005047 
L 224.790092 236.005047 
L 224.790092 235.445865 
L 225.033216 235.445865 
L 225.033216 234.886682 
L 225.343779 234.886682 
L 225.343779 234.3275 
L 226.030477 234.3275 
L 226.030477 233.768318 
L 228.374592 233.768318 
L 228.374592 233.209136 
L 229.148852 233.209136 
L 229.148852 232.649954 
L 231.973124 232.649954 
L 231.973124 232.090771 
L 232.662754 232.090771 
L 232.662754 231.531589 
L 233.592842 231.531589 
L 233.592842 230.972407 
L 235.025924 230.972407 
L 235.025924 230.413225 
L 236.619575 230.413225 
L 236.619575 229.854042 
L 240.030899 229.854042 
L 240.030899 229.29486 
L 241.467516 229.29486 
L 241.467516 228.735678 
L 244.577475 228.735678 
L 244.577475 228.176496 
L 249.517128 228.176496 
L 249.517128 227.617313 
L 253.365054 227.617313 
L 253.365054 227.058131 
L 333.569032 227.058131 
L 333.569032 227.058131 
" style="fill:none;stroke:#ffa500;stroke-linecap:square;stroke-width:1.5;"/>
   </g>
   <g id="line2d_35">
    <defs>
     <path d="M 0 -6 
L -1.347084 -1.854102 
L -5.706339 -1.854102 
L -2.179628 0.708204 
L -3.526712 4.854102 
L -0 2.291796 
L 3.526712 4.854102 
L 2.179628 0.708204 
L 5.706339 -1.854102 
L 1.347084 -1.854102 
z
" id="m898eb46d11" style="stroke:#ffa500;stroke-linejoin:bevel;stroke-width:1.5;"/>
    </defs>
    <g>
     <use style="fill-opacity:0;stroke:#ffa500;stroke-linejoin:bevel;stroke-width:1.5;" x="182.44144" xlink:href="#m898eb46d11" y="278.502897"/>
     <use style="fill-opacity:0;stroke:#ffa500;stroke-linejoin:bevel;stroke-width:1.5;" x="214.591285" xlink:href="#m898eb46d11" y="243.833598"/>
     <use style="fill-opacity:0;stroke:#ffa500;stroke-linejoin:bevel;stroke-width:1.5;" x="253.365054" xlink:href="#m898eb46d11" y="227.617313"/>
     <use style="fill-opacity:0;stroke:#ffa500;stroke-linejoin:bevel;stroke-width:1.5;" x="253.365054" xlink:href="#m898eb46d11" y="227.058131"/>
     <use style="fill-opacity:0;stroke:#ffa500;stroke-linejoin:bevel;stroke-width:1.5;" x="333.569032" xlink:href="#m898eb46d11" y="227.058131"/>
    </g>
   </g>
   <g id="line2d_36">
    <path style="fill:none;stroke:#ffa500;stroke-linecap:square;stroke-width:1.5;"/>
    <g/>
   </g>
   <g id="line2d_37">
    <path clip-path="url(#pf21362b82e)" d="M 164.100586 289.686542 
" style="fill:none;stroke:#ffa500;stroke-linecap:square;stroke-width:1.5;"/>
    <defs>
     <path d="M -12 12 
L 12 -12 
M -12 -12 
L 12 12 
" id="m6b42a33b22" style="stroke:#ffa500;stroke-width:3;"/>
    </defs>
    <g clip-path="url(#pf21362b82e)">
     <use style="fill:#ffa500;stroke:#ffa500;stroke-width:3;" x="164.100586" xlink:href="#m6b42a33b22" y="289.686542"/>
    </g>
   </g>
   <g id="line2d_38">
    <defs>
     <path d="M 0 1.5 
C 0.397805 1.5 0.77937 1.341951 1.06066 1.06066 
C 1.341951 0.77937 1.5 0.397805 1.5 0 
C 1.5 -0.397805 1.341951 -0.77937 1.06066 -1.06066 
C 0.77937 -1.341951 0.397805 -1.5 0 -1.5 
C -0.397805 -1.5 -0.77937 -1.341951 -1.06066 -1.06066 
C -1.341951 -0.77937 -1.5 -0.397805 -1.5 0 
C -1.5 0.397805 -1.341951 0.77937 -1.06066 1.06066 
C -0.77937 1.341951 -0.397805 1.5 0 1.5 
z
" id="mf3da0ac9b3" style="stroke:#6495ed;"/>
    </defs>
    <g>
     <use style="fill:#6495ed;stroke:#6495ed;" x="256.254504" xlink:href="#mf3da0ac9b3" y="215.874486"/>
     <use style="fill:#6495ed;stroke:#6495ed;" x="256.254504" xlink:href="#mf3da0ac9b3" y="215.874486"/>
    </g>
   </g>
   <g id="line2d_39">
    <path d="M 101.311887 294.16 
L 101.311887 293.041636 
L 110.919842 293.041636 
L 110.919842 292.482453 
L 112.104369 292.482453 
L 112.104369 291.923271 
L 112.777744 291.923271 
L 112.777744 291.364089 
L 115.611972 291.364089 
L 115.611972 290.804907 
L 117.551028 290.804907 
L 117.551028 289.686542 
L 118.043947 289.686542 
L 118.043947 288.008995 
L 120.457576 288.008995 
L 120.457576 286.331449 
L 120.736751 286.331449 
L 120.736751 285.772266 
L 120.874654 285.772266 
L 120.874654 285.213084 
L 122.322693 285.213084 
L 122.322693 284.09472 
L 124.456741 284.09472 
L 124.456741 283.535537 
L 124.567867 283.535537 
L 124.678278 282.417173 
L 125.219927 282.417173 
L 125.219927 281.298808 
L 125.43189 281.298808 
L 125.43189 280.180444 
L 125.641269 280.180444 
L 125.641269 279.621262 
L 126.15381 279.621262 
L 126.15381 277.943715 
L 126.354617 277.943715 
L 126.354617 277.384533 
L 127.324866 277.384533 
L 127.324866 276.825351 
L 128.684588 276.825351 
L 128.684588 276.266168 
L 129.199692 276.266168 
L 129.199692 275.706986 
L 129.368015 275.706986 
L 129.368015 275.147804 
L 130.025276 275.147804 
L 130.025276 274.588622 
L 131.042407 274.588622 
L 131.042407 274.029439 
L 131.492271 274.029439 
L 131.492271 273.470257 
L 131.930648 273.470257 
L 131.930648 272.911075 
L 132.979988 272.911075 
L 132.979988 272.351893 
L 133.182373 272.351893 
L 133.249308 271.233528 
L 133.382401 271.233528 
L 133.382401 270.674346 
L 133.710687 270.674346 
L 133.710687 270.115164 
L 135.500084 270.115164 
L 135.500084 269.555981 
L 135.962572 269.555981 
L 135.962572 268.996799 
L 136.076273 268.996799 
L 136.076273 268.437617 
L 136.797526 268.437617 
L 136.797526 267.878435 
L 137.22677 267.878435 
L 137.22677 267.319252 
L 137.593751 267.319252 
L 137.593751 266.76007 
L 138.354681 266.76007 
L 138.354681 266.200888 
L 141.226623 266.200888 
L 141.226623 265.641706 
L 159.777894 265.641706 
L 159.777894 265.082523 
L 161.511131 265.082523 
L 161.511131 264.523341 
L 165.947123 264.523341 
L 165.947123 263.964159 
L 166.369611 263.964159 
L 166.369611 263.404977 
L 166.715498 263.404977 
L 166.781952 262.286612 
L 167.240064 262.286612 
L 167.276927 260.609066 
L 168.050915 260.609066 
L 168.050915 260.049883 
L 176.807114 260.049883 
L 176.859876 258.372337 
L 176.938717 258.372337 
L 176.980618 257.253972 
L 177.079724 257.253972 
L 177.152385 255.576425 
L 177.193769 255.576425 
L 177.193769 255.017243 
L 177.424709 255.017243 
L 177.424709 254.458061 
L 177.792861 254.458061 
L 177.792861 253.898879 
L 183.586085 253.898879 
L 183.689031 252.221332 
L 183.713788 252.221332 
L 183.75262 250.543785 
L 183.875594 250.543785 
L 183.980303 249.425421 
L 184.056686 249.425421 
L 184.056686 248.866238 
L 184.191264 248.866238 
L 184.191264 248.307056 
L 188.718213 248.307056 
L 188.786731 247.188692 
L 188.985458 247.188692 
L 188.985458 246.62951 
L 192.325008 246.62951 
L 192.427433 245.511145 
L 192.455068 245.511145 
L 192.489019 244.392781 
L 195.1849 244.392781 
L 195.1849 243.833598 
L 195.449193 243.833598 
L 195.495519 242.715234 
L 195.776128 242.715234 
L 195.776128 242.156052 
L 197.899169 242.156052 
L 197.899169 241.596869 
L 198.059296 241.596869 
L 198.059296 241.037687 
L 198.246768 241.037687 
L 198.246768 240.478505 
L 200.238285 240.478505 
L 200.238285 239.919323 
L 200.371403 239.919323 
L 200.371403 239.36014 
L 202.111202 239.36014 
L 202.111202 238.800958 
L 202.255833 238.800958 
L 202.346807 237.682594 
L 202.36709 237.682594 
L 202.36709 237.123411 
L 205.571113 237.123411 
L 205.571113 236.564229 
L 206.985493 236.564229 
L 206.985493 236.005047 
L 208.457723 236.005047 
L 208.529497 234.886682 
L 208.582715 234.886682 
L 208.600971 233.768318 
L 209.69497 233.768318 
L 209.777259 232.090771 
L 210.859928 232.090771 
L 210.891166 230.972407 
L 211.998537 230.972407 
L 212.030489 229.29486 
L 213.031104 229.29486 
L 213.031104 228.735678 
L 214.067925 228.735678 
L 214.070941 227.617313 
L 214.800057 227.617313 
L 214.800057 227.058131 
L 216.623881 227.058131 
L 216.682515 225.380584 
L 218.172039 225.380584 
L 218.172039 224.821402 
L 218.761655 224.821402 
L 218.761655 224.26222 
L 218.879192 224.26222 
L 218.879192 223.703038 
L 219.549165 223.703038 
L 219.549165 223.143855 
L 220.834158 223.143855 
L 220.875594 222.025491 
L 222.661288 222.025491 
L 222.661288 221.466309 
L 224.820107 221.466309 
L 224.820107 220.907126 
L 225.350033 220.907126 
L 225.350033 220.347944 
L 229.281657 220.347944 
L 229.281657 219.788762 
L 230.737515 219.788762 
L 230.737515 219.22958 
L 233.663884 219.22958 
L 233.663884 218.670397 
L 239.111231 218.670397 
L 239.111231 218.111215 
L 240.496916 218.111215 
L 240.496916 217.552033 
L 242.423454 217.552033 
L 242.423454 216.992851 
L 245.303328 216.992851 
L 245.303328 216.433669 
L 256.254504 216.433669 
L 256.254504 215.874486 
L 333.569032 215.874486 
L 333.569032 215.874486 
" style="fill:none;stroke:#6495ed;stroke-linecap:square;stroke-width:1.5;"/>
   </g>
   <g id="line2d_40">
    <defs>
     <path d="M -0 6 
L 6 -6 
L -6 -6 
z
" id="m5a39efbc39" style="stroke:#6495ed;stroke-linejoin:miter;stroke-width:1.5;"/>
    </defs>
    <g>
     <use style="fill-opacity:0;stroke:#6495ed;stroke-linejoin:miter;stroke-width:1.5;" x="168.050915" xlink:href="#m5a39efbc39" y="260.609066"/>
     <use style="fill-opacity:0;stroke:#6495ed;stroke-linejoin:miter;stroke-width:1.5;" x="233.663884" xlink:href="#m5a39efbc39" y="219.22958"/>
     <use style="fill-opacity:0;stroke:#6495ed;stroke-linejoin:miter;stroke-width:1.5;" x="256.254504" xlink:href="#m5a39efbc39" y="215.874486"/>
     <use style="fill-opacity:0;stroke:#6495ed;stroke-linejoin:miter;stroke-width:1.5;" x="256.254504" xlink:href="#m5a39efbc39" y="215.874486"/>
     <use style="fill-opacity:0;stroke:#6495ed;stroke-linejoin:miter;stroke-width:1.5;" x="333.569032" xlink:href="#m5a39efbc39" y="215.874486"/>
    </g>
   </g>
   <g id="line2d_41">
    <path style="fill:none;stroke:#6495ed;stroke-linecap:square;stroke-width:1.5;"/>
    <g/>
   </g>
   <g id="line2d_42">
    <path clip-path="url(#pf21362b82e)" d="M 164.100586 264.523341 
" style="fill:none;stroke:#6495ed;stroke-linecap:square;stroke-width:1.5;"/>
    <defs>
     <path d="M -12 12 
L 12 -12 
M -12 -12 
L 12 12 
" id="m5f73fc43c8" style="stroke:#6495ed;stroke-width:3;"/>
    </defs>
    <g clip-path="url(#pf21362b82e)">
     <use style="fill:#6495ed;stroke:#6495ed;stroke-width:3;" x="164.100586" xlink:href="#m5f73fc43c8" y="264.523341"/>
    </g>
   </g>
   <g id="line2d_43">
    <defs>
     <path d="M 0 1.5 
C 0.397805 1.5 0.77937 1.341951 1.06066 1.06066 
C 1.341951 0.77937 1.5 0.397805 1.5 0 
C 1.5 -0.397805 1.341951 -0.77937 1.06066 -1.06066 
C 0.77937 -1.341951 0.397805 -1.5 0 -1.5 
C -0.397805 -1.5 -0.77937 -1.341951 -1.06066 -1.06066 
C -1.341951 -0.77937 -1.5 -0.397805 -1.5 0 
C -1.5 0.397805 -1.341951 0.77937 -1.06066 1.06066 
C -0.77937 1.341951 -0.397805 1.5 0 1.5 
z
" id="m92ffed8026" style="stroke:#ff0000;"/>
    </defs>
    <g>
     <use style="fill:#ff0000;stroke:#ff0000;" x="249.222941" xlink:href="#m92ffed8026" y="109.629861"/>
     <use style="fill:#ff0000;stroke:#ff0000;" x="249.222941" xlink:href="#m92ffed8026" y="109.629861"/>
    </g>
   </g>
   <g id="line2d_44">
    <path d="M 37.9781 294.16 
L 37.9781 274.588622 
L 49.878634 274.588622 
L 49.878634 263.964159 
L 56.84 263.964159 
L 56.84 260.049883 
L 61.779168 260.049883 
L 61.779168 258.931519 
L 65.610284 258.931519 
L 65.610284 256.69479 
L 68.740534 256.69479 
L 68.740534 255.576425 
L 71.387123 255.576425 
L 71.387123 254.458061 
L 75.7019 254.458061 
L 75.7019 253.339696 
L 77.510818 253.339696 
L 77.510818 251.66215 
L 79.147184 251.66215 
L 79.147184 251.102967 
L 82.015309 251.102967 
L 82.015309 250.543785 
L 83.287657 250.543785 
L 83.287657 248.307056 
L 85.580236 248.307056 
L 85.580236 247.747874 
L 86.621091 247.747874 
L 86.621091 247.188692 
L 91.810903 247.188692 
L 91.810903 246.62951 
L 92.541603 246.62951 
L 92.541603 246.070327 
L 94.563801 246.070327 
L 94.563801 245.511145 
L 95.790669 245.511145 
L 95.790669 243.274416 
L 98.521625 243.274416 
L 98.521625 242.715234 
L 99.019308 242.715234 
L 99.019308 242.156052 
L 99.973377 242.156052 
L 99.973377 241.596869 
L 100.43124 241.596869 
L 100.43124 240.478505 
L 101.311887 240.478505 
L 101.311887 239.919323 
L 101.73583 239.919323 
L 101.73583 238.241776 
L 103.711438 238.241776 
L 103.711438 237.682594 
L 104.796146 237.682594 
L 104.796146 237.123411 
L 110.422159 237.123411 
L 110.422159 236.564229 
L 112.556207 236.564229 
L 112.556207 236.005047 
L 112.777744 236.005047 
L 112.777744 234.3275 
L 113.636365 234.3275 
L 113.636365 233.768318 
L 114.253276 233.768318 
L 114.253276 233.209136 
L 117.383526 233.209136 
L 117.383526 232.649954 
L 118.205158 232.649954 
L 118.205158 232.090771 
L 118.364869 232.090771 
L 118.364869 231.531589 
L 118.98926 231.531589 
L 118.98926 230.972407 
L 120.173787 230.972407 
L 120.173787 230.413225 
L 120.316268 230.413225 
L 120.316268 229.29486 
L 120.597731 229.29486 
L 120.597731 228.735678 
L 121.415449 228.735678 
L 121.415449 227.617313 
L 122.068336 227.617313 
L 122.068336 226.498949 
L 122.697301 226.498949 
L 122.697301 225.939767 
L 124.118983 225.939767 
L 124.118983 225.380584 
L 124.344892 225.380584 
L 124.344892 223.703038 
L 125.536899 223.703038 
L 125.536899 223.143855 
L 127.418943 223.143855 
L 127.418943 222.025491 
L 127.881743 222.025491 
L 127.881743 221.466309 
L 128.15355 221.466309 
L 128.15355 220.907126 
L 128.332394 220.907126 
L 128.421122 219.22958 
L 129.029702 219.22958 
L 129.114907 218.111215 
L 129.199692 218.111215 
L 129.199692 216.433669 
L 130.6583 216.433669 
L 130.6583 215.874486 
L 131.193675 215.874486 
L 131.268812 214.19694 
L 131.639644 214.19694 
L 131.639644 213.637757 
L 132.074321 213.637757 
L 132.074321 213.078575 
L 132.979988 213.078575 
L 132.979988 211.960211 
L 139.035688 211.960211 
L 139.035688 211.401028 
L 139.963959 211.401028 
L 139.963959 210.841846 
L 140.232928 210.841846 
L 140.321656 209.164299 
L 140.887474 209.164299 
L 140.930236 207.486753 
L 142.597634 207.486753 
L 142.597634 206.92757 
L 142.866804 206.92757 
L 142.904915 205.809206 
L 143.318642 205.809206 
L 143.318642 205.250024 
L 145.116408 205.250024 
L 145.116408 204.690841 
L 146.092172 204.690841 
L 146.092172 204.131659 
L 146.4365 204.131659 
L 146.4365 203.572477 
L 148.089761 203.572477 
L 148.089761 203.013295 
L 148.201976 203.013295 
L 148.201976 202.454112 
L 149.074232 202.454112 
L 149.074232 201.89493 
L 149.468331 201.89493 
L 149.468331 200.776566 
L 154.439936 200.776566 
L 154.439936 200.217384 
L 154.786404 200.217384 
L 154.786404 199.658201 
L 154.938174 199.658201 
L 154.938174 199.099019 
L 155.495653 199.099019 
L 155.495653 198.539837 
L 158.765512 198.539837 
L 158.795713 197.421472 
L 159.242455 197.421472 
L 159.242455 196.86229 
L 161.792175 196.86229 
L 161.792175 196.303108 
L 163.571926 196.303108 
L 163.571926 195.743926 
L 164.418841 195.743926 
L 164.418841 195.184743 
L 165.329363 195.184743 
L 165.329363 194.625561 
L 165.937173 194.625561 
L 165.937173 194.066379 
L 166.075952 194.066379 
L 166.075952 192.948014 
L 166.233195 192.948014 
L 166.330745 191.82965 
L 166.389011 191.82965 
L 166.389011 191.270468 
L 167.918405 191.270468 
L 167.918405 190.711285 
L 168.050915 190.711285 
L 168.059713 189.592921 
L 168.622109 189.592921 
L 168.622109 189.033739 
L 169.075715 189.033739 
L 169.075715 188.474556 
L 169.257136 188.474556 
L 169.257136 187.915374 
L 169.742392 187.915374 
L 169.742392 187.356192 
L 170.268531 187.356192 
L 170.314871 186.237828 
L 170.430176 186.237828 
L 170.430176 185.678645 
L 171.535354 185.678645 
L 171.535354 185.119463 
L 171.749521 185.119463 
L 171.749521 184.560281 
L 172.928372 184.560281 
L 172.928372 184.001099 
L 173.539983 184.001099 
L 173.539983 183.441916 
L 175.155417 183.441916 
L 175.259822 182.323552 
L 175.380832 182.323552 
L 175.380832 181.76437 
L 175.591985 181.76437 
L 175.591985 181.205187 
L 176.94396 181.205187 
L 176.94396 180.646005 
L 177.100516 180.646005 
L 177.198935 179.527641 
L 178.950424 179.527641 
L 178.950424 178.968458 
L 179.075897 178.968458 
L 179.075897 178.409276 
L 179.273851 178.409276 
L 179.273851 177.850094 
L 179.3879 177.850094 
L 179.3879 177.290912 
L 180.043602 177.290912 
L 180.043602 176.731729 
L 180.415911 176.731729 
L 180.415911 176.172547 
L 181.490741 176.172547 
L 181.490741 175.613365 
L 182.855076 175.613365 
L 182.855076 175.054183 
L 183.727919 175.054183 
L 183.727919 174.495 
L 184.338431 174.495 
L 184.338431 173.935818 
L 184.518104 173.935818 
L 184.518104 172.817454 
L 184.732592 172.817454 
L 184.732592 172.258271 
L 184.848766 172.258271 
L 184.855381 171.139907 
L 186.031089 171.139907 
L 186.031089 170.021543 
L 187.535006 170.021543 
L 187.535006 169.46236 
L 188.379545 169.46236 
L 188.379545 168.903178 
L 188.789361 168.903178 
L 188.789361 168.343996 
L 189.490122 168.343996 
L 189.588294 166.666449 
L 189.640925 166.666449 
L 189.720815 164.988902 
L 189.933696 164.988902 
L 189.933696 164.42972 
L 190.60196 164.42972 
L 190.60196 163.870538 
L 190.988003 163.870538 
L 190.988003 163.311356 
L 191.734986 163.311356 
L 191.734986 162.752173 
L 192.1313 162.752173 
L 192.1313 162.192991 
L 192.446569 162.192991 
L 192.514439 161.074627 
L 193.090985 161.074627 
L 193.090985 160.515444 
L 193.696285 160.515444 
L 193.696285 159.956262 
L 194.08506 159.956262 
L 194.08506 159.39708 
L 194.855634 159.39708 
L 194.855634 158.837898 
L 194.986266 158.837898 
L 194.986266 158.278715 
L 195.195767 158.278715 
L 195.195767 157.719533 
L 195.411685 157.719533 
L 195.411685 157.160351 
L 195.614322 157.160351 
L 195.614322 156.601169 
L 195.894751 156.601169 
L 195.929484 155.482804 
L 196.198022 155.482804 
L 196.233852 154.36444 
L 196.418639 154.36444 
L 196.46915 153.246075 
L 196.616466 153.246075 
L 196.616466 152.686893 
L 196.91555 152.686893 
L 196.91555 152.127711 
L 197.2722 152.127711 
L 197.2722 151.568529 
L 197.530168 151.568529 
L 197.530168 151.009346 
L 197.79677 151.009346 
L 197.79677 150.450164 
L 198.723649 150.450164 
L 198.723649 149.890982 
L 198.84705 149.890982 
L 198.84705 149.3318 
L 198.978289 149.3318 
L 199.021813 148.213435 
L 199.253526 148.213435 
L 199.253526 147.654253 
L 199.778634 147.654253 
L 199.845057 146.535888 
L 200.042797 146.535888 
L 200.042797 145.976706 
L 200.448915 145.976706 
L 200.448915 145.417524 
L 200.660944 145.417524 
L 200.660944 144.858342 
L 201.160659 144.858342 
L 201.160659 144.299159 
L 202.400446 144.299159 
L 202.400446 143.739977 
L 202.876965 143.739977 
L 202.977378 142.621613 
L 203.687495 142.621613 
L 203.687495 142.06243 
L 204.416032 142.06243 
L 204.416032 141.503248 
L 204.89093 141.503248 
L 204.89093 140.944066 
L 206.097268 140.944066 
L 206.097268 140.384884 
L 207.575712 140.384884 
L 207.635476 139.266519 
L 207.688036 139.266519 
L 207.688036 138.707337 
L 207.803975 138.707337 
L 207.803975 138.148155 
L 207.991473 138.148155 
L 207.991473 137.588973 
L 208.919789 137.588973 
L 208.919789 137.02979 
L 209.177547 137.02979 
L 209.177547 136.470608 
L 209.944498 136.470608 
L 209.944498 135.911426 
L 210.160183 135.911426 
L 210.160183 135.352244 
L 210.319249 135.352244 
L 210.319249 134.793061 
L 210.505086 134.793061 
L 210.505086 134.233879 
L 211.338196 134.233879 
L 211.359397 133.115515 
L 211.464311 133.115515 
L 211.562307 131.437968 
L 212.461091 131.437968 
L 212.461091 130.878786 
L 212.838444 130.878786 
L 212.925054 129.760421 
L 213.401281 129.760421 
L 213.458251 128.642057 
L 214.41781 128.642057 
L 214.488588 127.523692 
L 214.727072 127.523692 
L 214.727072 126.96451 
L 216.73217 126.96451 
L 216.73217 126.405328 
L 216.917109 126.405328 
L 217.007312 125.286963 
L 217.573751 125.286963 
L 217.573751 124.727781 
L 217.716268 124.727781 
L 217.716268 124.168599 
L 217.937242 124.168599 
L 217.937242 123.609417 
L 218.277154 123.609417 
L 218.277154 123.050234 
L 218.73134 123.050234 
L 218.73134 122.491052 
L 219.892436 122.491052 
L 219.892436 121.93187 
L 220.051531 121.93187 
L 220.051531 121.372688 
L 221.138924 121.372688 
L 221.164478 120.254323 
L 221.266313 120.254323 
L 221.266313 119.695141 
L 222.935891 119.695141 
L 222.935891 119.135959 
L 223.135531 119.135959 
L 223.135531 118.576776 
L 224.995594 118.576776 
L 225.100285 117.458412 
L 226.945362 117.458412 
L 226.962734 116.340047 
L 227.811786 116.340047 
L 227.811786 115.780865 
L 228.221597 115.780865 
L 228.22953 114.662501 
L 229.831275 114.662501 
L 229.831275 114.103318 
L 231.216461 114.103318 
L 231.216461 113.544136 
L 232.523115 113.544136 
L 232.523115 112.984954 
L 232.857895 112.984954 
L 232.857895 112.425772 
L 233.849555 112.425772 
L 233.849555 111.866589 
L 235.496693 111.866589 
L 235.496693 111.307407 
L 237.519834 111.307407 
L 237.519834 110.748225 
L 242.710202 110.748225 
L 242.710202 110.189043 
L 249.222941 110.189043 
L 249.222941 109.629861 
L 333.569032 109.629861 
L 333.569032 109.629861 
" style="fill:none;stroke:#ff0000;stroke-linecap:square;stroke-width:1.5;"/>
   </g>
   <g id="line2d_45">
    <defs>
     <path d="M 0 -6 
L -5.196152 -3 
L -5.196152 3 
L -0 6 
L 5.196152 3 
L 5.196152 -3 
z
" id="mf02ea447b0" style="stroke:#ff0000;stroke-linejoin:miter;stroke-width:1.5;"/>
    </defs>
    <g>
     <use style="fill-opacity:0;stroke:#ff0000;stroke-linejoin:miter;stroke-width:1.5;" x="117.383526" xlink:href="#mf02ea447b0" y="232.649954"/>
     <use style="fill-opacity:0;stroke:#ff0000;stroke-linejoin:miter;stroke-width:1.5;" x="175.259822" xlink:href="#mf02ea447b0" y="182.882734"/>
     <use style="fill-opacity:0;stroke:#ff0000;stroke-linejoin:miter;stroke-width:1.5;" x="242.710202" xlink:href="#mf02ea447b0" y="110.189043"/>
     <use style="fill-opacity:0;stroke:#ff0000;stroke-linejoin:miter;stroke-width:1.5;" x="249.222941" xlink:href="#mf02ea447b0" y="109.629861"/>
     <use style="fill-opacity:0;stroke:#ff0000;stroke-linejoin:miter;stroke-width:1.5;" x="249.222941" xlink:href="#mf02ea447b0" y="109.629861"/>
     <use style="fill-opacity:0;stroke:#ff0000;stroke-linejoin:miter;stroke-width:1.5;" x="333.569032" xlink:href="#mf02ea447b0" y="109.629861"/>
    </g>
   </g>
   <g id="line2d_46">
    <path style="fill:none;stroke:#ff0000;stroke-linecap:square;stroke-width:1.5;"/>
    <g/>
   </g>
   <g id="line2d_47">
    <path clip-path="url(#pf21362b82e)" d="M 164.100586 195.743926 
" style="fill:none;stroke:#ff0000;stroke-linecap:square;stroke-width:1.5;"/>
    <defs>
     <path d="M -12 12 
L 12 -12 
M -12 -12 
L 12 12 
" id="me63ed8592f" style="stroke:#ff0000;stroke-width:3;"/>
    </defs>
    <g clip-path="url(#pf21362b82e)">
     <use style="fill:#ff0000;stroke:#ff0000;stroke-width:3;" x="164.100586" xlink:href="#me63ed8592f" y="195.743926"/>
    </g>
   </g>
   <g id="line2d_48">
    <path d="M 333.569032 232.649954 
L 364.009226 288.456341 
" style="fill:none;stroke:#ff00ff;stroke-linecap:square;stroke-width:1.5;"/>
    <g>
     <use style="fill-opacity:0;stroke:#ff00ff;stroke-linejoin:miter;stroke-width:1.5;" x="333.569032" xlink:href="#mbe10666ae0" y="232.649954"/>
     <use style="fill-opacity:0;stroke:#ff00ff;stroke-linejoin:miter;stroke-width:1.5;" x="364.009226" xlink:href="#mbe10666ae0" y="288.456341"/>
    </g>
   </g>
   <g id="line2d_49">
    <path d="M 333.569032 227.058131 
L 364.009226 220.012435 
" style="fill:none;stroke:#ffa500;stroke-linecap:square;stroke-width:1.5;"/>
    <g>
     <use style="fill-opacity:0;stroke:#ffa500;stroke-linejoin:bevel;stroke-width:1.5;" x="333.569032" xlink:href="#m898eb46d11" y="227.058131"/>
     <use style="fill-opacity:0;stroke:#ffa500;stroke-linejoin:bevel;stroke-width:1.5;" x="364.009226" xlink:href="#m898eb46d11" y="220.012435"/>
    </g>
   </g>
   <g id="line2d_50">
    <path d="M 333.569032 215.874486 
L 364.009226 151.568529 
" style="fill:none;stroke:#6495ed;stroke-linecap:square;stroke-width:1.5;"/>
    <g>
     <use style="fill-opacity:0;stroke:#6495ed;stroke-linejoin:miter;stroke-width:1.5;" x="333.569032" xlink:href="#m5a39efbc39" y="215.874486"/>
     <use style="fill-opacity:0;stroke:#6495ed;stroke-linejoin:miter;stroke-width:1.5;" x="364.009226" xlink:href="#m5a39efbc39" y="151.568529"/>
    </g>
   </g>
   <g id="line2d_51">
    <path d="M 333.569032 199.099019 
L 364.009226 83.124622 
" style="fill:none;stroke:#000080;stroke-linecap:square;stroke-width:1.5;"/>
    <g>
     <use style="fill-opacity:0;stroke:#000080;stroke-width:1.5;" x="333.569032" xlink:href="#mabd6b53a11" y="199.099019"/>
     <use style="fill-opacity:0;stroke:#000080;stroke-width:1.5;" x="364.009226" xlink:href="#mabd6b53a11" y="83.124622"/>
    </g>
   </g>
   <g id="line2d_52">
    <path d="M 333.569032 109.629861 
L 364.009226 14.680716 
" style="fill:none;stroke:#ff0000;stroke-linecap:square;stroke-width:1.5;"/>
    <g>
     <use style="fill-opacity:0;stroke:#ff0000;stroke-linejoin:miter;stroke-width:1.5;" x="333.569032" xlink:href="#mf02ea447b0" y="109.629861"/>
     <use style="fill-opacity:0;stroke:#ff0000;stroke-linejoin:miter;stroke-width:1.5;" x="364.009226" xlink:href="#mf02ea447b0" y="14.680716"/>
    </g>
   </g>
   <g id="line2d_53">
    <path d="M 333.569032 294.16 
L 333.569032 8.977057 
" style="fill:none;stroke:#000000;stroke-linecap:square;stroke-width:1.5;"/>
   </g>
   <g id="patch_3">
    <path d="M 56.84 294.16 
L 56.84 6.125228 
" style="fill:none;stroke:#000000;stroke-linecap:square;stroke-linejoin:miter;stroke-width:0.8;"/>
   </g>
   <g id="patch_4">
    <path d="M 399.984 294.16 
L 399.984 6.125228 
" style="fill:none;stroke:#000000;stroke-linecap:square;stroke-linejoin:miter;stroke-width:0.8;"/>
   </g>
   <g id="patch_5">
    <path d="M 56.84 294.16 
L 399.984 294.16 
" style="fill:none;stroke:#000000;stroke-linecap:square;stroke-linejoin:miter;stroke-width:0.8;"/>
   </g>
   <g id="patch_6">
    <path d="M 56.84 6.125228 
L 399.984 6.125228 
" style="fill:none;stroke:#000000;stroke-linecap:square;stroke-linejoin:miter;stroke-width:0.8;"/>
   </g>
   <g id="text_14">
    <!-- f13 -->
    <defs>
     <path d="M 40.578125 39.3125 
Q 47.65625 37.796875 51.625 33 
Q 55.609375 28.21875 55.609375 21.1875 
Q 55.609375 10.40625 48.1875 4.484375 
Q 40.765625 -1.421875 27.09375 -1.421875 
Q 22.515625 -1.421875 17.65625 -0.515625 
Q 12.796875 0.390625 7.625 2.203125 
L 7.625 11.71875 
Q 11.71875 9.328125 16.59375 8.109375 
Q 21.484375 6.890625 26.8125 6.890625 
Q 36.078125 6.890625 40.9375 10.546875 
Q 45.796875 14.203125 45.796875 21.1875 
Q 45.796875 27.640625 41.28125 31.265625 
Q 36.765625 34.90625 28.71875 34.90625 
L 20.21875 34.90625 
L 20.21875 43.015625 
L 29.109375 43.015625 
Q 36.375 43.015625 40.234375 45.921875 
Q 44.09375 48.828125 44.09375 54.296875 
Q 44.09375 59.90625 40.109375 62.90625 
Q 36.140625 65.921875 28.71875 65.921875 
Q 24.65625 65.921875 20.015625 65.03125 
Q 15.375 64.15625 9.8125 62.3125 
L 9.8125 71.09375 
Q 15.4375 72.65625 20.34375 73.4375 
Q 25.25 74.21875 29.59375 74.21875 
Q 40.828125 74.21875 47.359375 69.109375 
Q 53.90625 64.015625 53.90625 55.328125 
Q 53.90625 49.265625 50.4375 45.09375 
Q 46.96875 40.921875 40.578125 39.3125 
z
" id="DejaVuSans-33"/>
    </defs>
    <g transform="translate(369.543806 293.147279)scale(0.17 -0.17)">
     <use xlink:href="#DejaVuSans-66"/>
     <use x="35.205078" xlink:href="#DejaVuSans-31"/>
     <use x="98.828125" xlink:href="#DejaVuSans-33"/>
    </g>
   </g>
   <g id="text_15">
    <!-- f10 -->
    <g transform="translate(369.543806 224.703372)scale(0.17 -0.17)">
     <use xlink:href="#DejaVuSans-66"/>
     <use x="35.205078" xlink:href="#DejaVuSans-31"/>
     <use x="98.828125" xlink:href="#DejaVuSans-30"/>
    </g>
   </g>
   <g id="text_16">
    <!-- f11 -->
    <g transform="translate(369.543806 156.259466)scale(0.17 -0.17)">
     <use xlink:href="#DejaVuSans-66"/>
     <use x="35.205078" xlink:href="#DejaVuSans-31"/>
     <use x="98.828125" xlink:href="#DejaVuSans-31"/>
    </g>
   </g>
   <g id="text_17">
    <!-- f12 -->
    <g transform="translate(369.543806 87.81556)scale(0.17 -0.17)">
     <use xlink:href="#DejaVuSans-66"/>
     <use x="35.205078" xlink:href="#DejaVuSans-31"/>
     <use x="98.828125" xlink:href="#DejaVuSans-32"/>
    </g>
   </g>
   <g id="text_18">
    <!-- f14 -->
    <g transform="translate(369.543806 19.371654)scale(0.17 -0.17)">
     <use xlink:href="#DejaVuSans-66"/>
     <use x="35.205078" xlink:href="#DejaVuSans-31"/>
     <use x="98.828125" xlink:href="#DejaVuSans-34"/>
    </g>
   </g>
   <g id="text_19">
    <!-- bbob -->
    <defs>
     <path d="M 48.6875 27.296875 
Q 48.6875 37.203125 44.609375 42.84375 
Q 40.53125 48.484375 33.40625 48.484375 
Q 26.265625 48.484375 22.1875 42.84375 
Q 18.109375 37.203125 18.109375 27.296875 
Q 18.109375 17.390625 22.1875 11.75 
Q 26.265625 6.109375 33.40625 6.109375 
Q 40.53125 6.109375 44.609375 11.75 
Q 48.6875 17.390625 48.6875 27.296875 
z
M 18.109375 46.390625 
Q 20.953125 51.265625 25.265625 53.625 
Q 29.59375 56 35.59375 56 
Q 45.5625 56 51.78125 48.09375 
Q 58.015625 40.1875 58.015625 27.296875 
Q 58.015625 14.40625 51.78125 6.484375 
Q 45.5625 -1.421875 35.59375 -1.421875 
Q 29.59375 -1.421875 25.265625 0.953125 
Q 20.953125 3.328125 18.109375 8.203125 
L 18.109375 0 
L 9.078125 0 
L 9.078125 75.984375 
L 18.109375 75.984375 
z
" id="DejaVuSans-62"/>
    </defs>
    <g transform="translate(60.27144 16.755982)scale(0.102 -0.102)">
     <use xlink:href="#DejaVuSans-62"/>
     <use x="63.476562" xlink:href="#DejaVuSans-62"/>
     <use x="126.953125" xlink:href="#DejaVuSans-6f"/>
     <use x="188.134766" xlink:href="#DejaVuSans-62"/>
    </g>
    <!-- Ill-conditioned functions, 3-D -->
    <defs>
     <path d="M 9.8125 72.90625 
L 19.671875 72.90625 
L 19.671875 0 
L 9.8125 0 
z
" id="DejaVuSans-49"/>
     <path d="M 19.671875 64.796875 
L 19.671875 8.109375 
L 31.59375 8.109375 
Q 46.6875 8.109375 53.6875 14.9375 
Q 60.6875 21.78125 60.6875 36.53125 
Q 60.6875 51.171875 53.6875 57.984375 
Q 46.6875 64.796875 31.59375 64.796875 
z
M 9.8125 72.90625 
L 30.078125 72.90625 
Q 51.265625 72.90625 61.171875 64.09375 
Q 71.09375 55.28125 71.09375 36.53125 
Q 71.09375 17.671875 61.125 8.828125 
Q 51.171875 0 30.078125 0 
L 9.8125 0 
z
" id="DejaVuSans-44"/>
    </defs>
    <g transform="translate(60.27144 28.17775)scale(0.102 -0.102)">
     <use xlink:href="#DejaVuSans-49"/>
     <use x="29.492188" xlink:href="#DejaVuSans-6c"/>
     <use x="57.275391" xlink:href="#DejaVuSans-6c"/>
     <use x="85.058594" xlink:href="#DejaVuSans-2d"/>
     <use x="121.142578" xlink:href="#DejaVuSans-63"/>
     <use x="176.123047" xlink:href="#DejaVuSans-6f"/>
     <use x="237.304688" xlink:href="#DejaVuSans-6e"/>
     <use x="300.683594" xlink:href="#DejaVuSans-64"/>
     <use x="364.160156" xlink:href="#DejaVuSans-69"/>
     <use x="391.943359" xlink:href="#DejaVuSans-74"/>
     <use x="431.152344" xlink:href="#DejaVuSans-69"/>
     <use x="458.935547" xlink:href="#DejaVuSans-6f"/>
     <use x="520.117188" xlink:href="#DejaVuSans-6e"/>
     <use x="583.496094" xlink:href="#DejaVuSans-65"/>
     <use x="645.019531" xlink:href="#DejaVuSans-64"/>
     <use x="708.496094" xlink:href="#DejaVuSans-20"/>
     <use x="740.283203" xlink:href="#DejaVuSans-66"/>
     <use x="775.488281" xlink:href="#DejaVuSans-75"/>
     <use x="838.867188" xlink:href="#DejaVuSans-6e"/>
     <use x="902.246094" xlink:href="#DejaVuSans-63"/>
     <use x="957.226562" xlink:href="#DejaVuSans-74"/>
     <use x="996.435547" xlink:href="#DejaVuSans-69"/>
     <use x="1024.21875" xlink:href="#DejaVuSans-6f"/>
     <use x="1085.400391" xlink:href="#DejaVuSans-6e"/>
     <use x="1148.779297" xlink:href="#DejaVuSans-73"/>
     <use x="1200.878906" xlink:href="#DejaVuSans-2c"/>
     <use x="1232.666016" xlink:href="#DejaVuSans-20"/>
     <use x="1264.453125" xlink:href="#DejaVuSans-33"/>
     <use x="1328.076172" xlink:href="#DejaVuSans-2d"/>
     <use x="1364.160156" xlink:href="#DejaVuSans-44"/>
    </g>
    <!-- 51 targets: 100..1e-08 -->
    <defs>
     <path d="M 10.796875 72.90625 
L 49.515625 72.90625 
L 49.515625 64.59375 
L 19.828125 64.59375 
L 19.828125 46.734375 
Q 21.96875 47.46875 24.109375 47.828125 
Q 26.265625 48.1875 28.421875 48.1875 
Q 40.625 48.1875 47.75 41.5 
Q 54.890625 34.8125 54.890625 23.390625 
Q 54.890625 11.625 47.5625 5.09375 
Q 40.234375 -1.421875 26.90625 -1.421875 
Q 22.3125 -1.421875 17.546875 -0.640625 
Q 12.796875 0.140625 7.71875 1.703125 
L 7.71875 11.625 
Q 12.109375 9.234375 16.796875 8.0625 
Q 21.484375 6.890625 26.703125 6.890625 
Q 35.15625 6.890625 40.078125 11.328125 
Q 45.015625 15.765625 45.015625 23.390625 
Q 45.015625 31 40.078125 35.4375 
Q 35.15625 39.890625 26.703125 39.890625 
Q 22.75 39.890625 18.8125 39.015625 
Q 14.890625 38.140625 10.796875 36.28125 
z
" id="DejaVuSans-35"/>
     <path d="M 11.71875 12.40625 
L 22.015625 12.40625 
L 22.015625 0 
L 11.71875 0 
z
M 11.71875 51.703125 
L 22.015625 51.703125 
L 22.015625 39.3125 
L 11.71875 39.3125 
z
" id="DejaVuSans-3a"/>
    </defs>
    <g transform="translate(60.27144 39.599519)scale(0.102 -0.102)">
     <use xlink:href="#DejaVuSans-35"/>
     <use x="63.623047" xlink:href="#DejaVuSans-31"/>
     <use x="127.246094" xlink:href="#DejaVuSans-20"/>
     <use x="159.033203" xlink:href="#DejaVuSans-74"/>
     <use x="198.242188" xlink:href="#DejaVuSans-61"/>
     <use x="259.521484" xlink:href="#DejaVuSans-72"/>
     <use x="300.619141" xlink:href="#DejaVuSans-67"/>
     <use x="364.095703" xlink:href="#DejaVuSans-65"/>
     <use x="425.619141" xlink:href="#DejaVuSans-74"/>
     <use x="464.828125" xlink:href="#DejaVuSans-73"/>
     <use x="516.927734" xlink:href="#DejaVuSans-3a"/>
     <use x="550.619141" xlink:href="#DejaVuSans-20"/>
     <use x="582.40625" xlink:href="#DejaVuSans-31"/>
     <use x="646.029297" xlink:href="#DejaVuSans-30"/>
     <use x="709.652344" xlink:href="#DejaVuSans-30"/>
     <use x="773.275391" xlink:href="#DejaVuSans-2e"/>
     <use x="805.0625" xlink:href="#DejaVuSans-2e"/>
     <use x="836.849609" xlink:href="#DejaVuSans-31"/>
     <use x="900.472656" xlink:href="#DejaVuSans-65"/>
     <use x="961.996094" xlink:href="#DejaVuSans-2d"/>
     <use x="998.080078" xlink:href="#DejaVuSans-30"/>
     <use x="1061.703125" xlink:href="#DejaVuSans-38"/>
    </g>
    <!-- 45 instances -->
    <g transform="translate(60.27144 51.021288)scale(0.102 -0.102)">
     <use xlink:href="#DejaVuSans-34"/>
     <use x="63.623047" xlink:href="#DejaVuSans-35"/>
     <use x="127.246094" xlink:href="#DejaVuSans-20"/>
     <use x="159.033203" xlink:href="#DejaVuSans-69"/>
     <use x="186.816406" xlink:href="#DejaVuSans-6e"/>
     <use x="250.195312" xlink:href="#DejaVuSans-73"/>
     <use x="302.294922" xlink:href="#DejaVuSans-74"/>
     <use x="341.503906" xlink:href="#DejaVuSans-61"/>
     <use x="402.783203" xlink:href="#DejaVuSans-6e"/>
     <use x="466.162109" xlink:href="#DejaVuSans-63"/>
     <use x="521.142578" xlink:href="#DejaVuSans-65"/>
     <use x="582.666016" xlink:href="#DejaVuSans-73"/>
    </g>
   </g>
   <g id="text_20">
    <!-- v2.2.1.10 -->
    <g style="fill:#808080;" transform="translate(204.779188 289.199965)scale(0.1 -0.1)">
     <use xlink:href="#DejaVuSans-76"/>
     <use x="59.179688" xlink:href="#DejaVuSans-32"/>
     <use x="122.802734" xlink:href="#DejaVuSans-2e"/>
     <use x="154.589844" xlink:href="#DejaVuSans-32"/>
     <use x="218.212891" xlink:href="#DejaVuSans-2e"/>
     <use x="250" xlink:href="#DejaVuSans-31"/>
     <use x="313.623047" xlink:href="#DejaVuSans-2e"/>
     <use x="345.410156" xlink:href="#DejaVuSans-31"/>
     <use x="409.033203" xlink:href="#DejaVuSans-30"/>
    </g>
   </g>
  </g>
 </g>
 <defs>
  <clipPath id="pf21362b82e">
   <rect height="288.034772" width="343.144" x="56.84" y="6.125228"/>
  </clipPath>
 </defs>
</svg>
