<?xml version="1.0" encoding="utf-8" standalone="no"?>
<!DOCTYPE svg PUBLIC "-//W3C//DTD SVG 1.1//EN"
  "http://www.w3.org/Graphics/SVG/1.1/DTD/svg11.dtd">
<!-- Created with matplotlib (http://matplotlib.org/) -->
<svg height="345.6pt" version="1.1" viewBox="0 0 460.8 345.6" width="460.8pt" xmlns="http://www.w3.org/2000/svg" xmlns:xlink="http://www.w3.org/1999/xlink">
 <defs>
  <style type="text/css">
*{stroke-linecap:butt;stroke-linejoin:round;}
  </style>
 </defs>
 <g id="figure_1">
  <g id="patch_1">
   <path d="M 0 345.6 
L 460.8 345.6 
L 460.8 0 
L 0 0 
z
" style="fill:#ffffff;"/>
  </g>
  <g id="axes_1">
   <g id="patch_2">
    <path d="M 56.84 294.16 
L 399.984 294.16 
L 399.984 24.84 
L 56.84 24.84 
z
" style="fill:#ffffff;"/>
   </g>
   <g id="matplotlib.axis_1">
    <g id="xtick_1">
     <g id="line2d_1">
      <path clip-path="url(#pc8634e3b15)" d="M 56.84 294.16 
L 56.84 24.84 
" style="fill:none;stroke:#b0b0b0;stroke-linecap:square;stroke-width:0.8;"/>
     </g>
     <g id="line2d_2">
      <defs>
       <path d="M 0 0 
L 0 3.5 
" id="m42f34225bb" style="stroke:#000000;stroke-width:0.8;"/>
      </defs>
      <g>
       <use style="stroke:#000000;stroke-width:0.8;" x="56.84" xlink:href="#m42f34225bb" y="294.16"/>
      </g>
     </g>
     <g id="text_1">
      <!-- 0 -->
      <defs>
       <path d="M 31.78125 66.40625 
Q 24.171875 66.40625 20.328125 58.90625 
Q 16.5 51.421875 16.5 36.375 
Q 16.5 21.390625 20.328125 13.890625 
Q 24.171875 6.390625 31.78125 6.390625 
Q 39.453125 6.390625 43.28125 13.890625 
Q 47.125 21.390625 47.125 36.375 
Q 47.125 51.421875 43.28125 58.90625 
Q 39.453125 66.40625 31.78125 66.40625 
z
M 31.78125 74.21875 
Q 44.046875 74.21875 50.515625 64.515625 
Q 56.984375 54.828125 56.984375 36.375 
Q 56.984375 17.96875 50.515625 8.265625 
Q 44.046875 -1.421875 31.78125 -1.421875 
Q 19.53125 -1.421875 13.0625 8.265625 
Q 6.59375 17.96875 6.59375 36.375 
Q 6.59375 54.828125 13.0625 64.515625 
Q 19.53125 74.21875 31.78125 74.21875 
z
" id="DejaVuSans-30"/>
      </defs>
      <g transform="translate(50.4775 316.356875)scale(0.2 -0.2)">
       <use xlink:href="#DejaVuSans-30"/>
      </g>
     </g>
    </g>
    <g id="xtick_2">
     <g id="line2d_3">
      <path clip-path="url(#pc8634e3b15)" d="M 135.905438 294.16 
L 135.905438 24.84 
" style="fill:none;stroke:#b0b0b0;stroke-linecap:square;stroke-width:0.8;"/>
     </g>
     <g id="line2d_4">
      <g>
       <use style="stroke:#000000;stroke-width:0.8;" x="135.905438" xlink:href="#m42f34225bb" y="294.16"/>
      </g>
     </g>
     <g id="text_2">
      <!-- 2 -->
      <defs>
       <path d="M 19.1875 8.296875 
L 53.609375 8.296875 
L 53.609375 0 
L 7.328125 0 
L 7.328125 8.296875 
Q 12.9375 14.109375 22.625 23.890625 
Q 32.328125 33.6875 34.8125 36.53125 
Q 39.546875 41.84375 41.421875 45.53125 
Q 43.3125 49.21875 43.3125 52.78125 
Q 43.3125 58.59375 39.234375 62.25 
Q 35.15625 65.921875 28.609375 65.921875 
Q 23.96875 65.921875 18.8125 64.3125 
Q 13.671875 62.703125 7.8125 59.421875 
L 7.8125 69.390625 
Q 13.765625 71.78125 18.9375 73 
Q 24.125 74.21875 28.421875 74.21875 
Q 39.75 74.21875 46.484375 68.546875 
Q 53.21875 62.890625 53.21875 53.421875 
Q 53.21875 48.921875 51.53125 44.890625 
Q 49.859375 40.875 45.40625 35.40625 
Q 44.1875 33.984375 37.640625 27.21875 
Q 31.109375 20.453125 19.1875 8.296875 
z
" id="DejaVuSans-32"/>
      </defs>
      <g transform="translate(129.542938 316.356875)scale(0.2 -0.2)">
       <use xlink:href="#DejaVuSans-32"/>
      </g>
     </g>
    </g>
    <g id="xtick_3">
     <g id="line2d_5">
      <path clip-path="url(#pc8634e3b15)" d="M 214.970876 294.16 
L 214.970876 24.84 
" style="fill:none;stroke:#b0b0b0;stroke-linecap:square;stroke-width:0.8;"/>
     </g>
     <g id="line2d_6">
      <g>
       <use style="stroke:#000000;stroke-width:0.8;" x="214.970876" xlink:href="#m42f34225bb" y="294.16"/>
      </g>
     </g>
     <g id="text_3">
      <!-- 4 -->
      <defs>
       <path d="M 37.796875 64.3125 
L 12.890625 25.390625 
L 37.796875 25.390625 
z
M 35.203125 72.90625 
L 47.609375 72.90625 
L 47.609375 25.390625 
L 58.015625 25.390625 
L 58.015625 17.1875 
L 47.609375 17.1875 
L 47.609375 0 
L 37.796875 0 
L 37.796875 17.1875 
L 4.890625 17.1875 
L 4.890625 26.703125 
z
" id="DejaVuSans-34"/>
      </defs>
      <g transform="translate(208.608376 316.356875)scale(0.2 -0.2)">
       <use xlink:href="#DejaVuSans-34"/>
      </g>
     </g>
    </g>
    <g id="xtick_4">
     <g id="line2d_7">
      <path clip-path="url(#pc8634e3b15)" d="M 294.036313 294.16 
L 294.036313 24.84 
" style="fill:none;stroke:#b0b0b0;stroke-linecap:square;stroke-width:0.8;"/>
     </g>
     <g id="line2d_8">
      <g>
       <use style="stroke:#000000;stroke-width:0.8;" x="294.036313" xlink:href="#m42f34225bb" y="294.16"/>
      </g>
     </g>
     <g id="text_4">
      <!-- 6 -->
      <defs>
       <path d="M 33.015625 40.375 
Q 26.375 40.375 22.484375 35.828125 
Q 18.609375 31.296875 18.609375 23.390625 
Q 18.609375 15.53125 22.484375 10.953125 
Q 26.375 6.390625 33.015625 6.390625 
Q 39.65625 6.390625 43.53125 10.953125 
Q 47.40625 15.53125 47.40625 23.390625 
Q 47.40625 31.296875 43.53125 35.828125 
Q 39.65625 40.375 33.015625 40.375 
z
M 52.59375 71.296875 
L 52.59375 62.3125 
Q 48.875 64.0625 45.09375 64.984375 
Q 41.3125 65.921875 37.59375 65.921875 
Q 27.828125 65.921875 22.671875 59.328125 
Q 17.53125 52.734375 16.796875 39.40625 
Q 19.671875 43.65625 24.015625 45.921875 
Q 28.375 48.1875 33.59375 48.1875 
Q 44.578125 48.1875 50.953125 41.515625 
Q 57.328125 34.859375 57.328125 23.390625 
Q 57.328125 12.15625 50.6875 5.359375 
Q 44.046875 -1.421875 33.015625 -1.421875 
Q 20.359375 -1.421875 13.671875 8.265625 
Q 6.984375 17.96875 6.984375 36.375 
Q 6.984375 53.65625 15.1875 63.9375 
Q 23.390625 74.21875 37.203125 74.21875 
Q 40.921875 74.21875 44.703125 73.484375 
Q 48.484375 72.75 52.59375 71.296875 
z
" id="DejaVuSans-36"/>
      </defs>
      <g transform="translate(287.673813 316.356875)scale(0.2 -0.2)">
       <use xlink:href="#DejaVuSans-36"/>
      </g>
     </g>
    </g>
    <g id="xtick_5">
     <g id="line2d_9">
      <path clip-path="url(#pc8634e3b15)" d="M 373.101751 294.16 
L 373.101751 24.84 
" style="fill:none;stroke:#b0b0b0;stroke-linecap:square;stroke-width:0.8;"/>
     </g>
     <g id="line2d_10">
      <g>
       <use style="stroke:#000000;stroke-width:0.8;" x="373.101751" xlink:href="#m42f34225bb" y="294.16"/>
      </g>
     </g>
     <g id="text_5">
      <!-- 8 -->
      <defs>
       <path d="M 31.78125 34.625 
Q 24.75 34.625 20.71875 30.859375 
Q 16.703125 27.09375 16.703125 20.515625 
Q 16.703125 13.921875 20.71875 10.15625 
Q 24.75 6.390625 31.78125 6.390625 
Q 38.8125 6.390625 42.859375 10.171875 
Q 46.921875 13.96875 46.921875 20.515625 
Q 46.921875 27.09375 42.890625 30.859375 
Q 38.875 34.625 31.78125 34.625 
z
M 21.921875 38.8125 
Q 15.578125 40.375 12.03125 44.71875 
Q 8.5 49.078125 8.5 55.328125 
Q 8.5 64.0625 14.71875 69.140625 
Q 20.953125 74.21875 31.78125 74.21875 
Q 42.671875 74.21875 48.875 69.140625 
Q 55.078125 64.0625 55.078125 55.328125 
Q 55.078125 49.078125 51.53125 44.71875 
Q 48 40.375 41.703125 38.8125 
Q 48.828125 37.15625 52.796875 32.3125 
Q 56.78125 27.484375 56.78125 20.515625 
Q 56.78125 9.90625 50.3125 4.234375 
Q 43.84375 -1.421875 31.78125 -1.421875 
Q 19.734375 -1.421875 13.25 4.234375 
Q 6.78125 9.90625 6.78125 20.515625 
Q 6.78125 27.484375 10.78125 32.3125 
Q 14.796875 37.15625 21.921875 38.8125 
z
M 18.3125 54.390625 
Q 18.3125 48.734375 21.84375 45.5625 
Q 25.390625 42.390625 31.78125 42.390625 
Q 38.140625 42.390625 41.71875 45.5625 
Q 45.3125 48.734375 45.3125 54.390625 
Q 45.3125 60.0625 41.71875 63.234375 
Q 38.140625 66.40625 31.78125 66.40625 
Q 25.390625 66.40625 21.84375 63.234375 
Q 18.3125 60.0625 18.3125 54.390625 
z
" id="DejaVuSans-38"/>
      </defs>
      <g transform="translate(366.739251 316.356875)scale(0.2 -0.2)">
       <use xlink:href="#DejaVuSans-38"/>
      </g>
     </g>
    </g>
    <g id="text_6">
     <!-- log10(# f-evals / dimension) -->
     <defs>
      <path d="M 9.421875 75.984375 
L 18.40625 75.984375 
L 18.40625 0 
L 9.421875 0 
z
" id="DejaVuSans-6c"/>
      <path d="M 30.609375 48.390625 
Q 23.390625 48.390625 19.1875 42.75 
Q 14.984375 37.109375 14.984375 27.296875 
Q 14.984375 17.484375 19.15625 11.84375 
Q 23.34375 6.203125 30.609375 6.203125 
Q 37.796875 6.203125 41.984375 11.859375 
Q 46.1875 17.53125 46.1875 27.296875 
Q 46.1875 37.015625 41.984375 42.703125 
Q 37.796875 48.390625 30.609375 48.390625 
z
M 30.609375 56 
Q 42.328125 56 49.015625 48.375 
Q 55.71875 40.765625 55.71875 27.296875 
Q 55.71875 13.875 49.015625 6.21875 
Q 42.328125 -1.421875 30.609375 -1.421875 
Q 18.84375 -1.421875 12.171875 6.21875 
Q 5.515625 13.875 5.515625 27.296875 
Q 5.515625 40.765625 12.171875 48.375 
Q 18.84375 56 30.609375 56 
z
" id="DejaVuSans-6f"/>
      <path d="M 45.40625 27.984375 
Q 45.40625 37.75 41.375 43.109375 
Q 37.359375 48.484375 30.078125 48.484375 
Q 22.859375 48.484375 18.828125 43.109375 
Q 14.796875 37.75 14.796875 27.984375 
Q 14.796875 18.265625 18.828125 12.890625 
Q 22.859375 7.515625 30.078125 7.515625 
Q 37.359375 7.515625 41.375 12.890625 
Q 45.40625 18.265625 45.40625 27.984375 
z
M 54.390625 6.78125 
Q 54.390625 -7.171875 48.1875 -13.984375 
Q 42 -20.796875 29.203125 -20.796875 
Q 24.46875 -20.796875 20.265625 -20.09375 
Q 16.0625 -19.390625 12.109375 -17.921875 
L 12.109375 -9.1875 
Q 16.0625 -11.328125 19.921875 -12.34375 
Q 23.78125 -13.375 27.78125 -13.375 
Q 36.625 -13.375 41.015625 -8.765625 
Q 45.40625 -4.15625 45.40625 5.171875 
L 45.40625 9.625 
Q 42.625 4.78125 38.28125 2.390625 
Q 33.9375 0 27.875 0 
Q 17.828125 0 11.671875 7.65625 
Q 5.515625 15.328125 5.515625 27.984375 
Q 5.515625 40.671875 11.671875 48.328125 
Q 17.828125 56 27.875 56 
Q 33.9375 56 38.28125 53.609375 
Q 42.625 51.21875 45.40625 46.390625 
L 45.40625 54.6875 
L 54.390625 54.6875 
z
" id="DejaVuSans-67"/>
      <path d="M 12.40625 8.296875 
L 28.515625 8.296875 
L 28.515625 63.921875 
L 10.984375 60.40625 
L 10.984375 69.390625 
L 28.421875 72.90625 
L 38.28125 72.90625 
L 38.28125 8.296875 
L 54.390625 8.296875 
L 54.390625 0 
L 12.40625 0 
z
" id="DejaVuSans-31"/>
      <path d="M 31 75.875 
Q 24.46875 64.65625 21.28125 53.65625 
Q 18.109375 42.671875 18.109375 31.390625 
Q 18.109375 20.125 21.3125 9.0625 
Q 24.515625 -2 31 -13.1875 
L 23.1875 -13.1875 
Q 15.875 -1.703125 12.234375 9.375 
Q 8.59375 20.453125 8.59375 31.390625 
Q 8.59375 42.28125 12.203125 53.3125 
Q 15.828125 64.359375 23.1875 75.875 
z
" id="DejaVuSans-28"/>
      <path d="M 51.125 44 
L 36.921875 44 
L 32.8125 27.6875 
L 47.125 27.6875 
z
M 43.796875 71.78125 
L 38.71875 51.515625 
L 52.984375 51.515625 
L 58.109375 71.78125 
L 65.921875 71.78125 
L 60.890625 51.515625 
L 76.125 51.515625 
L 76.125 44 
L 58.984375 44 
L 54.984375 27.6875 
L 70.515625 27.6875 
L 70.515625 20.21875 
L 53.078125 20.21875 
L 48 0 
L 40.1875 0 
L 45.21875 20.21875 
L 30.90625 20.21875 
L 25.875 0 
L 18.015625 0 
L 23.09375 20.21875 
L 7.71875 20.21875 
L 7.71875 27.6875 
L 24.90625 27.6875 
L 29 44 
L 13.28125 44 
L 13.28125 51.515625 
L 30.90625 51.515625 
L 35.890625 71.78125 
z
" id="DejaVuSans-23"/>
      <path id="DejaVuSans-20"/>
      <path d="M 37.109375 75.984375 
L 37.109375 68.5 
L 28.515625 68.5 
Q 23.6875 68.5 21.796875 66.546875 
Q 19.921875 64.59375 19.921875 59.515625 
L 19.921875 54.6875 
L 34.71875 54.6875 
L 34.71875 47.703125 
L 19.921875 47.703125 
L 19.921875 0 
L 10.890625 0 
L 10.890625 47.703125 
L 2.296875 47.703125 
L 2.296875 54.6875 
L 10.890625 54.6875 
L 10.890625 58.5 
Q 10.890625 67.625 15.140625 71.796875 
Q 19.390625 75.984375 28.609375 75.984375 
z
" id="DejaVuSans-66"/>
      <path d="M 4.890625 31.390625 
L 31.203125 31.390625 
L 31.203125 23.390625 
L 4.890625 23.390625 
z
" id="DejaVuSans-2d"/>
      <path d="M 56.203125 29.59375 
L 56.203125 25.203125 
L 14.890625 25.203125 
Q 15.484375 15.921875 20.484375 11.0625 
Q 25.484375 6.203125 34.421875 6.203125 
Q 39.59375 6.203125 44.453125 7.46875 
Q 49.3125 8.734375 54.109375 11.28125 
L 54.109375 2.78125 
Q 49.265625 0.734375 44.1875 -0.34375 
Q 39.109375 -1.421875 33.890625 -1.421875 
Q 20.796875 -1.421875 13.15625 6.1875 
Q 5.515625 13.8125 5.515625 26.8125 
Q 5.515625 40.234375 12.765625 48.109375 
Q 20.015625 56 32.328125 56 
Q 43.359375 56 49.78125 48.890625 
Q 56.203125 41.796875 56.203125 29.59375 
z
M 47.21875 32.234375 
Q 47.125 39.59375 43.09375 43.984375 
Q 39.0625 48.390625 32.421875 48.390625 
Q 24.90625 48.390625 20.390625 44.140625 
Q 15.875 39.890625 15.1875 32.171875 
z
" id="DejaVuSans-65"/>
      <path d="M 2.984375 54.6875 
L 12.5 54.6875 
L 29.59375 8.796875 
L 46.6875 54.6875 
L 56.203125 54.6875 
L 35.6875 0 
L 23.484375 0 
z
" id="DejaVuSans-76"/>
      <path d="M 34.28125 27.484375 
Q 23.390625 27.484375 19.1875 25 
Q 14.984375 22.515625 14.984375 16.5 
Q 14.984375 11.71875 18.140625 8.90625 
Q 21.296875 6.109375 26.703125 6.109375 
Q 34.1875 6.109375 38.703125 11.40625 
Q 43.21875 16.703125 43.21875 25.484375 
L 43.21875 27.484375 
z
M 52.203125 31.203125 
L 52.203125 0 
L 43.21875 0 
L 43.21875 8.296875 
Q 40.140625 3.328125 35.546875 0.953125 
Q 30.953125 -1.421875 24.3125 -1.421875 
Q 15.921875 -1.421875 10.953125 3.296875 
Q 6 8.015625 6 15.921875 
Q 6 25.140625 12.171875 29.828125 
Q 18.359375 34.515625 30.609375 34.515625 
L 43.21875 34.515625 
L 43.21875 35.40625 
Q 43.21875 41.609375 39.140625 45 
Q 35.0625 48.390625 27.6875 48.390625 
Q 23 48.390625 18.546875 47.265625 
Q 14.109375 46.140625 10.015625 43.890625 
L 10.015625 52.203125 
Q 14.9375 54.109375 19.578125 55.046875 
Q 24.21875 56 28.609375 56 
Q 40.484375 56 46.34375 49.84375 
Q 52.203125 43.703125 52.203125 31.203125 
z
" id="DejaVuSans-61"/>
      <path d="M 44.28125 53.078125 
L 44.28125 44.578125 
Q 40.484375 46.53125 36.375 47.5 
Q 32.28125 48.484375 27.875 48.484375 
Q 21.1875 48.484375 17.84375 46.4375 
Q 14.5 44.390625 14.5 40.28125 
Q 14.5 37.15625 16.890625 35.375 
Q 19.28125 33.59375 26.515625 31.984375 
L 29.59375 31.296875 
Q 39.15625 29.25 43.1875 25.515625 
Q 47.21875 21.78125 47.21875 15.09375 
Q 47.21875 7.46875 41.1875 3.015625 
Q 35.15625 -1.421875 24.609375 -1.421875 
Q 20.21875 -1.421875 15.453125 -0.5625 
Q 10.6875 0.296875 5.421875 2 
L 5.421875 11.28125 
Q 10.40625 8.6875 15.234375 7.390625 
Q 20.0625 6.109375 24.8125 6.109375 
Q 31.15625 6.109375 34.5625 8.28125 
Q 37.984375 10.453125 37.984375 14.40625 
Q 37.984375 18.0625 35.515625 20.015625 
Q 33.0625 21.96875 24.703125 23.78125 
L 21.578125 24.515625 
Q 13.234375 26.265625 9.515625 29.90625 
Q 5.8125 33.546875 5.8125 39.890625 
Q 5.8125 47.609375 11.28125 51.796875 
Q 16.75 56 26.8125 56 
Q 31.78125 56 36.171875 55.265625 
Q 40.578125 54.546875 44.28125 53.078125 
z
" id="DejaVuSans-73"/>
      <path d="M 25.390625 72.90625 
L 33.6875 72.90625 
L 8.296875 -9.28125 
L 0 -9.28125 
z
" id="DejaVuSans-2f"/>
      <path d="M 45.40625 46.390625 
L 45.40625 75.984375 
L 54.390625 75.984375 
L 54.390625 0 
L 45.40625 0 
L 45.40625 8.203125 
Q 42.578125 3.328125 38.25 0.953125 
Q 33.9375 -1.421875 27.875 -1.421875 
Q 17.96875 -1.421875 11.734375 6.484375 
Q 5.515625 14.40625 5.515625 27.296875 
Q 5.515625 40.1875 11.734375 48.09375 
Q 17.96875 56 27.875 56 
Q 33.9375 56 38.25 53.625 
Q 42.578125 51.265625 45.40625 46.390625 
z
M 14.796875 27.296875 
Q 14.796875 17.390625 18.875 11.75 
Q 22.953125 6.109375 30.078125 6.109375 
Q 37.203125 6.109375 41.296875 11.75 
Q 45.40625 17.390625 45.40625 27.296875 
Q 45.40625 37.203125 41.296875 42.84375 
Q 37.203125 48.484375 30.078125 48.484375 
Q 22.953125 48.484375 18.875 42.84375 
Q 14.796875 37.203125 14.796875 27.296875 
z
" id="DejaVuSans-64"/>
      <path d="M 9.421875 54.6875 
L 18.40625 54.6875 
L 18.40625 0 
L 9.421875 0 
z
M 9.421875 75.984375 
L 18.40625 75.984375 
L 18.40625 64.59375 
L 9.421875 64.59375 
z
" id="DejaVuSans-69"/>
      <path d="M 52 44.1875 
Q 55.375 50.25 60.0625 53.125 
Q 64.75 56 71.09375 56 
Q 79.640625 56 84.28125 50.015625 
Q 88.921875 44.046875 88.921875 33.015625 
L 88.921875 0 
L 79.890625 0 
L 79.890625 32.71875 
Q 79.890625 40.578125 77.09375 44.375 
Q 74.3125 48.1875 68.609375 48.1875 
Q 61.625 48.1875 57.5625 43.546875 
Q 53.515625 38.921875 53.515625 30.90625 
L 53.515625 0 
L 44.484375 0 
L 44.484375 32.71875 
Q 44.484375 40.625 41.703125 44.40625 
Q 38.921875 48.1875 33.109375 48.1875 
Q 26.21875 48.1875 22.15625 43.53125 
Q 18.109375 38.875 18.109375 30.90625 
L 18.109375 0 
L 9.078125 0 
L 9.078125 54.6875 
L 18.109375 54.6875 
L 18.109375 46.1875 
Q 21.1875 51.21875 25.484375 53.609375 
Q 29.78125 56 35.6875 56 
Q 41.65625 56 45.828125 52.96875 
Q 50 49.953125 52 44.1875 
z
" id="DejaVuSans-6d"/>
      <path d="M 54.890625 33.015625 
L 54.890625 0 
L 45.90625 0 
L 45.90625 32.71875 
Q 45.90625 40.484375 42.875 44.328125 
Q 39.84375 48.1875 33.796875 48.1875 
Q 26.515625 48.1875 22.3125 43.546875 
Q 18.109375 38.921875 18.109375 30.90625 
L 18.109375 0 
L 9.078125 0 
L 9.078125 54.6875 
L 18.109375 54.6875 
L 18.109375 46.1875 
Q 21.34375 51.125 25.703125 53.5625 
Q 30.078125 56 35.796875 56 
Q 45.21875 56 50.046875 50.171875 
Q 54.890625 44.34375 54.890625 33.015625 
z
" id="DejaVuSans-6e"/>
      <path d="M 8.015625 75.875 
L 15.828125 75.875 
Q 23.140625 64.359375 26.78125 53.3125 
Q 30.421875 42.28125 30.421875 31.390625 
Q 30.421875 20.453125 26.78125 9.375 
Q 23.140625 -1.703125 15.828125 -13.1875 
L 8.015625 -13.1875 
Q 14.5 -2 17.703125 9.0625 
Q 20.90625 20.125 20.90625 31.390625 
Q 20.90625 42.671875 17.703125 53.65625 
Q 14.5 64.65625 8.015625 75.875 
z
" id="DejaVuSans-29"/>
     </defs>
     <g transform="translate(107.571219 337.433594)scale(0.17 -0.17)">
      <use xlink:href="#DejaVuSans-6c"/>
      <use x="27.783203" xlink:href="#DejaVuSans-6f"/>
      <use x="88.964844" xlink:href="#DejaVuSans-67"/>
      <use x="152.441406" xlink:href="#DejaVuSans-31"/>
      <use x="216.064453" xlink:href="#DejaVuSans-30"/>
      <use x="279.6875" xlink:href="#DejaVuSans-28"/>
      <use x="318.701172" xlink:href="#DejaVuSans-23"/>
      <use x="402.490234" xlink:href="#DejaVuSans-20"/>
      <use x="434.277344" xlink:href="#DejaVuSans-66"/>
      <use x="469.404297" xlink:href="#DejaVuSans-2d"/>
      <use x="505.488281" xlink:href="#DejaVuSans-65"/>
      <use x="567.011719" xlink:href="#DejaVuSans-76"/>
      <use x="626.191406" xlink:href="#DejaVuSans-61"/>
      <use x="687.470703" xlink:href="#DejaVuSans-6c"/>
      <use x="715.253906" xlink:href="#DejaVuSans-73"/>
      <use x="767.353516" xlink:href="#DejaVuSans-20"/>
      <use x="799.140625" xlink:href="#DejaVuSans-2f"/>
      <use x="832.832031" xlink:href="#DejaVuSans-20"/>
      <use x="864.619141" xlink:href="#DejaVuSans-64"/>
      <use x="928.095703" xlink:href="#DejaVuSans-69"/>
      <use x="955.878906" xlink:href="#DejaVuSans-6d"/>
      <use x="1053.291016" xlink:href="#DejaVuSans-65"/>
      <use x="1114.814453" xlink:href="#DejaVuSans-6e"/>
      <use x="1178.193359" xlink:href="#DejaVuSans-73"/>
      <use x="1230.292969" xlink:href="#DejaVuSans-69"/>
      <use x="1258.076172" xlink:href="#DejaVuSans-6f"/>
      <use x="1319.257812" xlink:href="#DejaVuSans-6e"/>
      <use x="1382.636719" xlink:href="#DejaVuSans-29"/>
     </g>
    </g>
   </g>
   <g id="matplotlib.axis_2">
    <g id="ytick_1">
     <g id="line2d_11">
      <path clip-path="url(#pc8634e3b15)" d="M 56.84 294.16 
L 399.984 294.16 
" style="fill:none;stroke:#b0b0b0;stroke-linecap:square;stroke-width:0.8;"/>
     </g>
     <g id="line2d_12">
      <defs>
       <path d="M 0 0 
L -3.5 0 
" id="m837586ebb9" style="stroke:#000000;stroke-width:0.8;"/>
      </defs>
      <g>
       <use style="stroke:#000000;stroke-width:0.8;" x="56.84" xlink:href="#m837586ebb9" y="294.16"/>
      </g>
     </g>
     <g id="text_7">
      <!-- 0.0 -->
      <defs>
       <path d="M 10.6875 12.40625 
L 21 12.40625 
L 21 0 
L 10.6875 0 
z
" id="DejaVuSans-2e"/>
      </defs>
      <g transform="translate(24.395 300.23875)scale(0.16 -0.16)">
       <use xlink:href="#DejaVuSans-30"/>
       <use x="63.623047" xlink:href="#DejaVuSans-2e"/>
       <use x="95.410156" xlink:href="#DejaVuSans-30"/>
      </g>
     </g>
    </g>
    <g id="ytick_2">
     <g id="line2d_13">
      <path clip-path="url(#pc8634e3b15)" d="M 56.84 240.829307 
L 399.984 240.829307 
" style="fill:none;stroke:#b0b0b0;stroke-linecap:square;stroke-width:0.8;"/>
     </g>
     <g id="line2d_14">
      <g>
       <use style="stroke:#000000;stroke-width:0.8;" x="56.84" xlink:href="#m837586ebb9" y="240.829307"/>
      </g>
     </g>
     <g id="text_8">
      <!-- 0.2 -->
      <g transform="translate(24.395 246.908057)scale(0.16 -0.16)">
       <use xlink:href="#DejaVuSans-30"/>
       <use x="63.623047" xlink:href="#DejaVuSans-2e"/>
       <use x="95.410156" xlink:href="#DejaVuSans-32"/>
      </g>
     </g>
    </g>
    <g id="ytick_3">
     <g id="line2d_15">
      <path clip-path="url(#pc8634e3b15)" d="M 56.84 187.498614 
L 399.984 187.498614 
" style="fill:none;stroke:#b0b0b0;stroke-linecap:square;stroke-width:0.8;"/>
     </g>
     <g id="line2d_16">
      <g>
       <use style="stroke:#000000;stroke-width:0.8;" x="56.84" xlink:href="#m837586ebb9" y="187.498614"/>
      </g>
     </g>
     <g id="text_9">
      <!-- 0.4 -->
      <g transform="translate(24.395 193.577364)scale(0.16 -0.16)">
       <use xlink:href="#DejaVuSans-30"/>
       <use x="63.623047" xlink:href="#DejaVuSans-2e"/>
       <use x="95.410156" xlink:href="#DejaVuSans-34"/>
      </g>
     </g>
    </g>
    <g id="ytick_4">
     <g id="line2d_17">
      <path clip-path="url(#pc8634e3b15)" d="M 56.84 134.167921 
L 399.984 134.167921 
" style="fill:none;stroke:#b0b0b0;stroke-linecap:square;stroke-width:0.8;"/>
     </g>
     <g id="line2d_18">
      <g>
       <use style="stroke:#000000;stroke-width:0.8;" x="56.84" xlink:href="#m837586ebb9" y="134.167921"/>
      </g>
     </g>
     <g id="text_10">
      <!-- 0.6 -->
      <g transform="translate(24.395 140.246671)scale(0.16 -0.16)">
       <use xlink:href="#DejaVuSans-30"/>
       <use x="63.623047" xlink:href="#DejaVuSans-2e"/>
       <use x="95.410156" xlink:href="#DejaVuSans-36"/>
      </g>
     </g>
    </g>
    <g id="ytick_5">
     <g id="line2d_19">
      <path clip-path="url(#pc8634e3b15)" d="M 56.84 80.837228 
L 399.984 80.837228 
" style="fill:none;stroke:#b0b0b0;stroke-linecap:square;stroke-width:0.8;"/>
     </g>
     <g id="line2d_20">
      <g>
       <use style="stroke:#000000;stroke-width:0.8;" x="56.84" xlink:href="#m837586ebb9" y="80.837228"/>
      </g>
     </g>
     <g id="text_11">
      <!-- 0.8 -->
      <g transform="translate(24.395 86.915978)scale(0.16 -0.16)">
       <use xlink:href="#DejaVuSans-30"/>
       <use x="63.623047" xlink:href="#DejaVuSans-2e"/>
       <use x="95.410156" xlink:href="#DejaVuSans-38"/>
      </g>
     </g>
    </g>
    <g id="ytick_6">
     <g id="line2d_21">
      <path clip-path="url(#pc8634e3b15)" d="M 56.84 27.506535 
L 399.984 27.506535 
" style="fill:none;stroke:#b0b0b0;stroke-linecap:square;stroke-width:0.8;"/>
     </g>
     <g id="line2d_22">
      <g>
       <use style="stroke:#000000;stroke-width:0.8;" x="56.84" xlink:href="#m837586ebb9" y="27.506535"/>
      </g>
     </g>
     <g id="text_12">
      <!-- 1.0 -->
      <g transform="translate(24.395 33.585285)scale(0.16 -0.16)">
       <use xlink:href="#DejaVuSans-31"/>
       <use x="63.623047" xlink:href="#DejaVuSans-2e"/>
       <use x="95.410156" xlink:href="#DejaVuSans-30"/>
      </g>
     </g>
    </g>
    <g id="text_13">
     <!-- Fraction of function,target pairs -->
     <defs>
      <path d="M 9.8125 72.90625 
L 51.703125 72.90625 
L 51.703125 64.59375 
L 19.671875 64.59375 
L 19.671875 43.109375 
L 48.578125 43.109375 
L 48.578125 34.8125 
L 19.671875 34.8125 
L 19.671875 0 
L 9.8125 0 
z
" id="DejaVuSans-46"/>
      <path d="M 41.109375 46.296875 
Q 39.59375 47.171875 37.8125 47.578125 
Q 36.03125 48 33.890625 48 
Q 26.265625 48 22.1875 43.046875 
Q 18.109375 38.09375 18.109375 28.8125 
L 18.109375 0 
L 9.078125 0 
L 9.078125 54.6875 
L 18.109375 54.6875 
L 18.109375 46.1875 
Q 20.953125 51.171875 25.484375 53.578125 
Q 30.03125 56 36.53125 56 
Q 37.453125 56 38.578125 55.875 
Q 39.703125 55.765625 41.0625 55.515625 
z
" id="DejaVuSans-72"/>
      <path d="M 48.78125 52.59375 
L 48.78125 44.1875 
Q 44.96875 46.296875 41.140625 47.34375 
Q 37.3125 48.390625 33.40625 48.390625 
Q 24.65625 48.390625 19.8125 42.84375 
Q 14.984375 37.3125 14.984375 27.296875 
Q 14.984375 17.28125 19.8125 11.734375 
Q 24.65625 6.203125 33.40625 6.203125 
Q 37.3125 6.203125 41.140625 7.25 
Q 44.96875 8.296875 48.78125 10.40625 
L 48.78125 2.09375 
Q 45.015625 0.34375 40.984375 -0.53125 
Q 36.96875 -1.421875 32.421875 -1.421875 
Q 20.0625 -1.421875 12.78125 6.34375 
Q 5.515625 14.109375 5.515625 27.296875 
Q 5.515625 40.671875 12.859375 48.328125 
Q 20.21875 56 33.015625 56 
Q 37.15625 56 41.109375 55.140625 
Q 45.0625 54.296875 48.78125 52.59375 
z
" id="DejaVuSans-63"/>
      <path d="M 18.3125 70.21875 
L 18.3125 54.6875 
L 36.8125 54.6875 
L 36.8125 47.703125 
L 18.3125 47.703125 
L 18.3125 18.015625 
Q 18.3125 11.328125 20.140625 9.421875 
Q 21.96875 7.515625 27.59375 7.515625 
L 36.8125 7.515625 
L 36.8125 0 
L 27.59375 0 
Q 17.1875 0 13.234375 3.875 
Q 9.28125 7.765625 9.28125 18.015625 
L 9.28125 47.703125 
L 2.6875 47.703125 
L 2.6875 54.6875 
L 9.28125 54.6875 
L 9.28125 70.21875 
z
" id="DejaVuSans-74"/>
      <path d="M 8.5 21.578125 
L 8.5 54.6875 
L 17.484375 54.6875 
L 17.484375 21.921875 
Q 17.484375 14.15625 20.5 10.265625 
Q 23.53125 6.390625 29.59375 6.390625 
Q 36.859375 6.390625 41.078125 11.03125 
Q 45.3125 15.671875 45.3125 23.6875 
L 45.3125 54.6875 
L 54.296875 54.6875 
L 54.296875 0 
L 45.3125 0 
L 45.3125 8.40625 
Q 42.046875 3.421875 37.71875 1 
Q 33.40625 -1.421875 27.6875 -1.421875 
Q 18.265625 -1.421875 13.375 4.4375 
Q 8.5 10.296875 8.5 21.578125 
z
M 31.109375 56 
z
" id="DejaVuSans-75"/>
      <path d="M 11.71875 12.40625 
L 22.015625 12.40625 
L 22.015625 4 
L 14.015625 -11.625 
L 7.71875 -11.625 
L 11.71875 4 
z
" id="DejaVuSans-2c"/>
      <path d="M 18.109375 8.203125 
L 18.109375 -20.796875 
L 9.078125 -20.796875 
L 9.078125 54.6875 
L 18.109375 54.6875 
L 18.109375 46.390625 
Q 20.953125 51.265625 25.265625 53.625 
Q 29.59375 56 35.59375 56 
Q 45.5625 56 51.78125 48.09375 
Q 58.015625 40.1875 58.015625 27.296875 
Q 58.015625 14.40625 51.78125 6.484375 
Q 45.5625 -1.421875 35.59375 -1.421875 
Q 29.59375 -1.421875 25.265625 0.953125 
Q 20.953125 3.328125 18.109375 8.203125 
z
M 48.6875 27.296875 
Q 48.6875 37.203125 44.609375 42.84375 
Q 40.53125 48.484375 33.40625 48.484375 
Q 26.265625 48.484375 22.1875 42.84375 
Q 18.109375 37.203125 18.109375 27.296875 
Q 18.109375 17.390625 22.1875 11.75 
Q 26.265625 6.109375 33.40625 6.109375 
Q 40.53125 6.109375 44.609375 11.75 
Q 48.6875 17.390625 48.6875 27.296875 
z
" id="DejaVuSans-70"/>
     </defs>
     <g transform="translate(16.859531 294.639375)rotate(-90)scale(0.17 -0.17)">
      <use xlink:href="#DejaVuSans-46"/>
      <use x="57.410156" xlink:href="#DejaVuSans-72"/>
      <use x="98.523438" xlink:href="#DejaVuSans-61"/>
      <use x="159.802734" xlink:href="#DejaVuSans-63"/>
      <use x="214.783203" xlink:href="#DejaVuSans-74"/>
      <use x="253.992188" xlink:href="#DejaVuSans-69"/>
      <use x="281.775391" xlink:href="#DejaVuSans-6f"/>
      <use x="342.957031" xlink:href="#DejaVuSans-6e"/>
      <use x="406.335938" xlink:href="#DejaVuSans-20"/>
      <use x="438.123047" xlink:href="#DejaVuSans-6f"/>
      <use x="499.304688" xlink:href="#DejaVuSans-66"/>
      <use x="534.509766" xlink:href="#DejaVuSans-20"/>
      <use x="566.296875" xlink:href="#DejaVuSans-66"/>
      <use x="601.501953" xlink:href="#DejaVuSans-75"/>
      <use x="664.880859" xlink:href="#DejaVuSans-6e"/>
      <use x="728.259766" xlink:href="#DejaVuSans-63"/>
      <use x="783.240234" xlink:href="#DejaVuSans-74"/>
      <use x="822.449219" xlink:href="#DejaVuSans-69"/>
      <use x="850.232422" xlink:href="#DejaVuSans-6f"/>
      <use x="911.414062" xlink:href="#DejaVuSans-6e"/>
      <use x="974.792969" xlink:href="#DejaVuSans-2c"/>
      <use x="1006.580078" xlink:href="#DejaVuSans-74"/>
      <use x="1045.789062" xlink:href="#DejaVuSans-61"/>
      <use x="1107.068359" xlink:href="#DejaVuSans-72"/>
      <use x="1148.166016" xlink:href="#DejaVuSans-67"/>
      <use x="1211.642578" xlink:href="#DejaVuSans-65"/>
      <use x="1273.166016" xlink:href="#DejaVuSans-74"/>
      <use x="1312.375" xlink:href="#DejaVuSans-20"/>
      <use x="1344.162109" xlink:href="#DejaVuSans-70"/>
      <use x="1407.638672" xlink:href="#DejaVuSans-61"/>
      <use x="1468.917969" xlink:href="#DejaVuSans-69"/>
      <use x="1496.701172" xlink:href="#DejaVuSans-72"/>
      <use x="1537.814453" xlink:href="#DejaVuSans-73"/>
     </g>
    </g>
   </g>
   <g id="line2d_23">
    <defs>
     <path d="M 0 1.5 
C 0.397805 1.5 0.77937 1.341951 1.06066 1.06066 
C 1.341951 0.77937 1.5 0.397805 1.5 0 
C 1.5 -0.397805 1.341951 -0.77937 1.06066 -1.06066 
C 0.77937 -1.341951 0.397805 -1.5 0 -1.5 
C -0.397805 -1.5 -0.77937 -1.341951 -1.06066 -1.06066 
C -1.341951 -0.77937 -1.5 -0.397805 -1.5 0 
C -1.5 0.397805 -1.341951 0.77937 -1.06066 1.06066 
C -0.77937 1.341951 -0.397805 1.5 0 1.5 
z
" id="mb6a30f152d" style="stroke:#00bfbf;"/>
    </defs>
    <g>
     <use style="fill:#00bfbf;stroke:#00bfbf;" x="282.297501" xlink:href="#mb6a30f152d" y="111.162524"/>
     <use style="fill:#00bfbf;stroke:#00bfbf;" x="282.297501" xlink:href="#mb6a30f152d" y="111.162524"/>
    </g>
   </g>
   <g id="line2d_24">
    <path d="M 44.939466 294.16 
L 44.939466 287.885801 
L 56.84 287.885801 
L 56.84 283.703001 
L 63.801366 283.703001 
L 63.801366 283.180151 
L 68.740534 283.180151 
L 68.740534 280.565902 
L 72.57165 280.565902 
L 72.57165 279.520202 
L 75.7019 279.520202 
L 75.7019 277.428802 
L 78.348489 277.428802 
L 78.348489 276.383102 
L 82.663267 276.383102 
L 82.663267 275.860252 
L 86.10855 275.860252 
L 86.10855 275.337402 
L 88.976675 275.337402 
L 88.976675 274.814553 
L 90.249023 274.814553 
L 90.249023 273.246003 
L 92.541603 273.246003 
L 92.541603 272.723153 
L 100.203835 272.723153 
L 100.203835 271.677453 
L 100.877209 271.677453 
L 100.877209 270.631753 
L 101.525167 270.631753 
L 101.525167 269.586053 
L 102.149557 269.586053 
L 102.149557 269.063203 
L 102.752035 269.063203 
L 102.752035 268.540353 
L 104.442137 268.540353 
L 104.442137 268.017503 
L 105.980674 268.017503 
L 105.980674 267.494653 
L 106.464335 267.494653 
L 106.464335 266.971804 
L 108.273253 266.971804 
L 108.273253 266.448954 
L 117.63417 266.448954 
L 117.63417 264.880404 
L 119.293141 264.880404 
L 119.293141 264.357554 
L 120.173787 264.357554 
L 120.173787 263.834704 
L 123.304037 263.834704 
L 123.304037 263.311854 
L 123.832351 263.311854 
L 123.832351 262.789004 
L 125.796644 262.789004 
L 125.796644 262.266154 
L 125.950626 262.266154 
L 125.950626 261.743304 
L 126.404454 261.743304 
L 126.404454 261.220454 
L 126.846595 261.220454 
L 126.846595 260.697604 
L 126.99148 260.697604 
L 126.99148 260.174754 
L 127.559097 260.174754 
L 127.559097 259.651904 
L 128.243205 259.651904 
L 128.243205 258.606205 
L 128.376816 258.606205 
L 128.376816 258.083355 
L 128.509394 258.083355 
L 128.509394 257.560505 
L 129.28406 257.560505 
L 129.28406 256.514805 
L 130.145759 256.514805 
L 130.145759 255.991955 
L 130.384219 255.991955 
L 130.384219 255.469105 
L 131.418108 255.469105 
L 131.418108 254.946255 
L 131.749349 254.946255 
L 131.749349 254.423405 
L 133.415513 254.423405 
L 133.415513 253.900555 
L 134.659483 253.900555 
L 134.751541 252.854855 
L 135.819378 252.854855 
L 135.819378 252.332005 
L 136.329381 252.332005 
L 136.329381 251.809156 
L 137.85116 251.809156 
L 137.927636 250.763456 
L 138.453637 250.763456 
L 138.453637 250.240606 
L 139.736554 250.240606 
L 139.736554 249.717756 
L 140.672053 249.717756 
L 140.672053 248.672056 
L 141.121357 248.672056 
L 141.121357 248.149206 
L 142.923938 248.149206 
L 142.980883 247.103506 
L 143.094209 247.103506 
L 143.094209 246.580656 
L 144.761352 246.580656 
L 144.761352 246.057806 
L 144.914419 246.057806 
L 144.914419 245.534956 
L 145.365597 245.534956 
L 145.365597 244.489256 
L 145.997054 244.489256 
L 145.997054 243.966407 
L 146.513802 243.966407 
L 146.513802 243.443557 
L 147.015451 243.443557 
L 147.015451 242.920707 
L 147.371295 242.920707 
L 147.371295 242.397857 
L 148.561691 242.397857 
L 148.561691 241.875007 
L 149.285543 241.875007 
L 149.285543 241.352157 
L 150.017883 241.352157 
L 150.017883 240.829307 
L 150.538191 240.829307 
L 150.574759 239.783607 
L 151.184793 239.783607 
L 151.184793 239.260757 
L 152.244301 239.260757 
L 152.244301 238.737907 
L 154.006754 238.737907 
L 154.036639 236.646507 
L 154.273863 236.646507 
L 154.273863 236.123658 
L 154.966482 236.123658 
L 155.051127 235.077958 
L 158.063701 235.077958 
L 158.063701 234.555108 
L 158.780619 234.555108 
L 158.780619 234.032258 
L 160.046494 234.032258 
L 160.046494 232.986558 
L 161.842784 232.986558 
L 161.842784 232.463708 
L 164.19448 232.463708 
L 164.19448 231.940858 
L 164.827131 231.940858 
L 164.827131 231.418008 
L 165.344824 231.418008 
L 165.344824 230.372308 
L 166.596186 230.372308 
L 166.596186 229.849458 
L 166.725007 229.849458 
L 166.725007 229.326608 
L 167.882895 229.326608 
L 167.882895 228.803758 
L 168.395044 228.803758 
L 168.395044 228.280909 
L 169.277631 228.280909 
L 169.314461 227.235209 
L 169.845747 227.235209 
L 169.845747 226.712359 
L 170.034938 226.712359 
L 170.034938 226.189509 
L 170.222066 226.189509 
L 170.314871 225.143809 
L 170.544711 225.143809 
L 170.601694 223.575259 
L 170.771516 223.575259 
L 170.838977 222.529559 
L 170.883804 222.529559 
L 170.894993 221.483859 
L 172.249433 221.483859 
L 172.249433 220.43816 
L 174.348409 220.43816 
L 174.457823 219.39246 
L 175.012282 219.39246 
L 175.012282 218.86961 
L 176.503232 218.86961 
L 176.503232 218.34676 
L 178.185012 218.34676 
L 178.185012 217.82391 
L 178.582708 217.82391 
L 178.689591 216.77821 
L 178.936426 216.77821 
L 178.936426 216.25536 
L 179.14521 216.25536 
L 179.14521 215.73251 
L 179.351486 215.73251 
L 179.399263 214.68681 
L 179.676458 214.68681 
L 179.696566 213.64111 
L 179.955849 213.64111 
L 179.955849 213.118261 
L 180.430894 213.118261 
L 180.430894 212.595411 
L 180.767735 212.595411 
L 180.767735 212.072561 
L 181.573008 212.072561 
L 181.573008 211.549711 
L 182.093495 211.549711 
L 182.093495 211.026861 
L 182.473761 211.026861 
L 182.473761 210.504011 
L 182.63822 210.504011 
L 182.63822 209.981161 
L 183.566491 209.981161 
L 183.566491 209.458311 
L 183.931518 209.458311 
L 183.931518 208.935461 
L 184.201572 208.935461 
L 184.201572 208.412611 
L 184.46237 208.412611 
L 184.46237 207.889761 
L 184.903263 207.889761 
L 184.903263 207.366911 
L 185.453297 207.366911 
L 185.453297 206.844061 
L 185.695886 206.844061 
L 185.775993 205.275512 
L 186.115797 205.275512 
L 186.207732 203.184112 
L 186.412804 203.184112 
L 186.412804 202.661262 
L 187.222408 202.661262 
L 187.222408 202.138412 
L 187.640765 202.138412 
L 187.640765 201.615562 
L 189.060687 201.615562 
L 189.060687 201.092712 
L 189.554375 201.092712 
L 189.629661 200.047012 
L 189.842431 200.047012 
L 189.842431 199.524162 
L 190.13303 199.524162 
L 190.13303 199.001312 
L 190.408027 199.001312 
L 190.408027 198.478462 
L 191.786961 198.478462 
L 191.839879 197.432763 
L 192.433814 197.432763 
L 192.433814 196.909913 
L 192.765544 196.909913 
L 192.765544 196.387063 
L 193.133915 196.387063 
L 193.133915 195.864213 
L 193.37115 195.864213 
L 193.479547 194.295663 
L 193.891773 194.295663 
L 193.991116 192.204263 
L 194.701653 192.204263 
L 194.701653 191.681413 
L 195.629336 191.681413 
L 195.629336 191.158563 
L 196.253442 191.158563 
L 196.253442 190.635713 
L 196.454012 190.635713 
L 196.454012 190.112864 
L 196.838387 190.112864 
L 196.838387 189.590014 
L 197.365803 189.590014 
L 197.365803 189.067164 
L 198.158622 189.067164 
L 198.158622 188.544314 
L 198.387921 188.544314 
L 198.387921 188.021464 
L 198.70521 188.021464 
L 198.716276 186.975764 
L 199.446145 186.975764 
L 199.446145 186.452914 
L 199.640122 186.452914 
L 199.640122 185.930064 
L 200.990316 185.930064 
L 200.990316 185.407214 
L 201.267145 185.407214 
L 201.267145 184.884364 
L 201.987909 184.884364 
L 202.097277 183.838664 
L 202.639185 183.838664 
L 202.639185 183.315814 
L 202.788183 183.315814 
L 202.870019 182.270115 
L 203.109784 182.270115 
L 203.109784 181.747265 
L 204.230357 181.747265 
L 204.230357 181.224415 
L 204.521537 181.224415 
L 204.521537 180.701565 
L 206.23775 180.701565 
L 206.23775 180.178715 
L 206.611968 180.178715 
L 206.611968 179.655865 
L 206.954941 179.655865 
L 206.954941 179.133015 
L 207.308643 179.133015 
L 207.343482 178.087315 
L 207.655205 178.087315 
L 207.6841 177.041615 
L 208.328023 177.041615 
L 208.363378 175.995915 
L 208.45145 175.995915 
L 208.45145 175.473065 
L 208.662236 175.473065 
L 208.662236 174.950215 
L 209.249574 174.950215 
L 209.284279 173.904516 
L 210.415404 173.904516 
L 210.415404 173.381666 
L 210.57583 173.381666 
L 210.57583 172.858816 
L 211.154775 172.858816 
L 211.154775 172.335966 
L 211.59717 172.335966 
L 211.59717 171.813116 
L 212.095569 171.813116 
L 212.095569 171.290266 
L 212.487897 171.290266 
L 212.541382 170.244566 
L 213.042314 170.244566 
L 213.042314 169.721716 
L 213.209583 169.721716 
L 213.209583 169.198866 
L 214.081191 169.198866 
L 214.081191 168.676016 
L 214.501826 168.676016 
L 214.519461 167.630316 
L 215.503351 167.630316 
L 215.503351 167.107467 
L 215.686295 167.107467 
L 215.725773 166.061767 
L 215.807729 166.061767 
L 215.807729 165.538917 
L 216.085096 165.538917 
L 216.085096 165.016067 
L 216.956408 165.016067 
L 216.956408 164.493217 
L 217.607651 164.493217 
L 217.607651 163.970367 
L 217.920623 163.970367 
L 217.920623 163.447517 
L 218.481743 163.447517 
L 218.481743 162.924667 
L 218.696596 162.924667 
L 218.696596 162.401817 
L 220.011682 162.401817 
L 220.011682 161.878967 
L 220.879651 161.878967 
L 220.912478 160.833267 
L 221.012997 160.833267 
L 221.067853 159.787567 
L 221.295638 159.787567 
L 221.295638 159.264718 
L 221.584801 159.264718 
L 221.584801 158.741868 
L 221.704104 158.741868 
L 221.704104 158.219018 
L 222.27223 158.219018 
L 222.27223 157.696168 
L 222.800952 157.696168 
L 222.800952 157.173318 
L 223.020431 157.173318 
L 223.020431 156.650468 
L 223.201033 156.650468 
L 223.201033 156.127618 
L 224.032096 156.127618 
L 224.032096 155.604768 
L 224.392398 155.604768 
L 224.392398 155.081918 
L 224.581773 155.081918 
L 224.606279 154.036218 
L 224.70736 154.036218 
L 224.765686 152.990518 
L 225.102982 152.990518 
L 225.126279 151.944818 
L 227.783725 151.944818 
L 227.816661 150.899119 
L 227.930837 150.899119 
L 227.930837 150.376269 
L 228.061488 150.376269 
L 228.061488 149.853419 
L 228.643805 149.853419 
L 228.643805 149.330569 
L 229.300793 149.330569 
L 229.300793 148.807719 
L 229.713101 148.807719 
L 229.720374 147.762019 
L 229.85979 147.762019 
L 229.85979 147.239169 
L 230.094051 147.239169 
L 230.094051 146.716319 
L 230.349711 146.716319 
L 230.349711 146.193469 
L 230.564969 146.193469 
L 230.564969 145.670619 
L 231.661096 145.670619 
L 231.661096 145.147769 
L 231.909336 145.147769 
L 231.909336 144.624919 
L 233.015567 144.624919 
L 233.077874 143.57922 
L 233.390466 143.57922 
L 233.390466 143.05637 
L 234.161539 143.05637 
L 234.161539 142.53352 
L 234.314132 142.53352 
L 234.314132 142.01067 
L 234.693595 142.01067 
L 234.693595 141.48782 
L 234.849645 141.48782 
L 234.93412 139.91927 
L 235.956162 139.91927 
L 235.956162 139.39642 
L 236.159766 139.39642 
L 236.159766 138.87357 
L 236.981854 138.87357 
L 236.981854 138.35072 
L 237.357399 138.35072 
L 237.357399 137.82787 
L 239.113826 137.82787 
L 239.11614 136.78217 
L 240.382928 136.78217 
L 240.382928 136.259321 
L 241.05089 136.259321 
L 241.05089 135.736471 
L 241.329392 135.736471 
L 241.329392 135.213621 
L 241.938996 135.213621 
L 241.938996 134.690771 
L 243.1922 134.690771 
L 243.1922 134.167921 
L 243.375857 134.167921 
L 243.375857 133.645071 
L 243.576724 133.645071 
L 243.576724 133.122221 
L 244.192538 133.122221 
L 244.192538 132.599371 
L 244.778709 132.599371 
L 244.778709 132.076521 
L 244.936646 132.076521 
L 244.936646 131.553671 
L 245.13349 131.553671 
L 245.176994 130.507971 
L 245.381635 130.507971 
L 245.381635 129.985121 
L 247.578973 129.985121 
L 247.599648 128.939421 
L 247.810868 128.939421 
L 247.810868 128.416572 
L 247.927603 128.416572 
L 247.927603 127.893722 
L 248.092504 127.893722 
L 248.092504 127.370872 
L 248.652547 127.370872 
L 248.652547 126.848022 
L 249.288667 126.848022 
L 249.288667 126.325172 
L 250.889361 126.325172 
L 250.889361 125.802322 
L 251.003417 125.802322 
L 251.104795 124.756622 
L 251.186114 124.756622 
L 251.186114 124.233772 
L 251.401478 124.233772 
L 251.401478 123.710922 
L 252.092485 123.710922 
L 252.092485 123.188072 
L 252.945503 123.188072 
L 252.945503 122.665222 
L 253.133874 122.665222 
L 253.174734 121.619522 
L 254.152707 121.619522 
L 254.152707 121.096672 
L 254.358248 121.096672 
L 254.358248 120.573823 
L 255.752921 120.573823 
L 255.752921 120.050973 
L 256.030354 120.050973 
L 256.030354 119.528123 
L 256.564665 119.528123 
L 256.564665 119.005273 
L 258.684122 119.005273 
L 258.684122 118.482423 
L 259.382609 118.482423 
L 259.382609 117.959573 
L 260.076512 117.959573 
L 260.076512 117.436723 
L 260.425083 117.436723 
L 260.425083 116.913873 
L 262.143067 116.913873 
L 262.143067 116.391023 
L 263.322775 116.391023 
L 263.322775 115.868173 
L 263.971965 115.868173 
L 263.971965 115.345323 
L 265.58905 115.345323 
L 265.58905 114.822473 
L 267.916117 114.822473 
L 267.916117 114.299623 
L 268.280499 114.299623 
L 268.280499 113.776773 
L 269.966137 113.776773 
L 269.966137 113.253924 
L 270.196744 113.253924 
L 270.196744 112.731074 
L 273.127901 112.731074 
L 273.127901 112.208224 
L 281.956288 112.208224 
L 281.956288 111.685374 
L 282.297501 111.685374 
L 282.297501 111.162524 
L 333.569032 111.162524 
L 333.569032 111.162524 
" style="fill:none;stroke:#00bfbf;stroke-linecap:square;stroke-width:1.5;"/>
   </g>
   <g id="line2d_25">
    <defs>
     <path d="M -6 0 
L 6 0 
M 0 6 
L 0 -6 
" id="mfaec072c25" style="stroke:#00bfbf;stroke-width:1.5;"/>
    </defs>
    <g>
     <use style="fill-opacity:0;stroke:#00bfbf;stroke-width:1.5;" x="92.541603" xlink:href="#mfaec072c25" y="272.723153"/>
     <use style="fill-opacity:0;stroke:#00bfbf;stroke-width:1.5;" x="165.344824" xlink:href="#mfaec072c25" y="230.372308"/>
     <use style="fill-opacity:0;stroke:#00bfbf;stroke-width:1.5;" x="202.870019" xlink:href="#mfaec072c25" y="182.792964"/>
     <use style="fill-opacity:0;stroke:#00bfbf;stroke-width:1.5;" x="251.401478" xlink:href="#mfaec072c25" y="124.233772"/>
     <use style="fill-opacity:0;stroke:#00bfbf;stroke-width:1.5;" x="282.297501" xlink:href="#mfaec072c25" y="111.162524"/>
     <use style="fill-opacity:0;stroke:#00bfbf;stroke-width:1.5;" x="333.569032" xlink:href="#mfaec072c25" y="111.162524"/>
    </g>
   </g>
   <g id="line2d_26">
    <path style="fill:none;stroke:#00bfbf;stroke-linecap:square;stroke-width:1.5;"/>
    <g/>
   </g>
   <g id="line2d_27">
    <path clip-path="url(#pc8634e3b15)" d="M 176.275827 218.86961 
" style="fill:none;stroke:#00bfbf;stroke-linecap:square;stroke-width:1.5;"/>
    <defs>
     <path d="M -12 12 
L 12 -12 
M -12 -12 
L 12 12 
" id="mb8e2a30cc1" style="stroke:#00bfbf;stroke-width:3;"/>
    </defs>
    <g clip-path="url(#pc8634e3b15)">
     <use style="fill:#00bfbf;stroke:#00bfbf;stroke-width:3;" x="176.275827" xlink:href="#mb8e2a30cc1" y="218.86961"/>
    </g>
   </g>
   <g id="line2d_28">
    <defs>
     <path d="M 0 1.5 
C 0.397805 1.5 0.77937 1.341951 1.06066 1.06066 
C 1.341951 0.77937 1.5 0.397805 1.5 0 
C 1.5 -0.397805 1.341951 -0.77937 1.06066 -1.06066 
C 0.77937 -1.341951 0.397805 -1.5 0 -1.5 
C -0.397805 -1.5 -0.77937 -1.341951 -1.06066 -1.06066 
C -1.341951 -0.77937 -1.5 -0.397805 -1.5 0 
C -1.5 0.397805 -1.341951 0.77937 -1.06066 1.06066 
C -0.77937 1.341951 -0.397805 1.5 0 1.5 
z
" id="mfdfb5666c6" style="stroke:#008000;"/>
    </defs>
    <g>
     <use style="fill:#008000;stroke:#008000;" x="205.71693" xlink:href="#mfdfb5666c6" y="247.103506"/>
     <use style="fill:#008000;stroke:#008000;" x="205.71693" xlink:href="#mfdfb5666c6" y="247.103506"/>
    </g>
   </g>
   <g id="line2d_29">
    <path d="M 37.9781 294.16 
L 37.9781 292.59145 
L 56.84 292.59145 
L 56.84 291.0229 
L 61.779168 291.0229 
L 61.779168 289.454351 
L 68.740534 289.454351 
L 68.740534 288.408651 
L 71.387123 288.408651 
L 71.387123 286.840101 
L 75.7019 286.840101 
L 75.7019 285.271551 
L 80.641068 285.271551 
L 80.641068 284.225851 
L 82.015309 284.225851 
L 82.015309 283.703001 
L 83.287657 283.703001 
L 83.287657 283.180151 
L 85.580236 283.180151 
L 85.580236 282.134452 
L 88.530706 282.134452 
L 88.530706 281.611602 
L 90.249023 281.611602 
L 90.249023 281.088752 
L 93.915843 281.088752 
L 93.915843 280.565902 
L 95.790669 280.565902 
L 95.790669 280.043052 
L 100.877209 280.043052 
L 100.877209 278.997352 
L 106.779369 278.997352 
L 106.779369 278.474502 
L 107.088725 278.474502 
L 107.088725 277.951652 
L 108.557042 277.951652 
L 108.557042 277.428802 
L 109.909618 277.428802 
L 109.909618 276.383102 
L 111.163375 276.383102 
L 111.163375 275.860252 
L 116.520588 275.860252 
L 116.520588 275.337402 
L 117.551028 275.337402 
L 117.551028 273.768853 
L 118.364869 273.768853 
L 118.364869 273.246003 
L 118.98926 273.246003 
L 118.98926 272.723153 
L 124.344892 272.723153 
L 124.344892 272.200303 
L 124.456741 272.200303 
L 124.456741 271.677453 
L 126.15381 271.677453 
L 126.15381 270.631753 
L 128.509394 270.631753 
L 128.509394 270.108903 
L 129.944481 270.108903 
L 129.944481 269.586053 
L 130.580437 269.586053 
L 130.580437 269.063203 
L 131.193675 269.063203 
L 131.193675 268.540353 
L 131.785763 268.540353 
L 131.785763 268.017503 
L 132.216802 268.017503 
L 132.216802 266.448954 
L 134.09652 266.448954 
L 134.09652 265.926104 
L 136.189227 265.926104 
L 136.189227 265.403254 
L 136.357275 265.403254 
L 136.357275 264.880404 
L 137.437433 264.880404 
L 137.437433 264.357554 
L 137.953053 264.357554 
L 137.953053 263.834704 
L 141.184594 263.834704 
L 141.184594 262.789004 
L 141.393718 262.789004 
L 141.393718 262.266154 
L 142.597634 262.266154 
L 142.597634 261.743304 
L 142.904915 261.743304 
L 142.904915 261.220454 
L 143.318642 261.220454 
L 143.318642 260.697604 
L 143.722633 260.697604 
L 143.722633 259.651904 
L 144.914419 259.651904 
L 144.914419 259.129055 
L 147.891602 259.129055 
L 147.891602 258.606205 
L 148.14596 258.606205 
L 148.14596 258.083355 
L 149.929611 258.083355 
L 149.929611 257.037655 
L 166.389011 257.037655 
L 166.389011 256.514805 
L 166.734511 256.514805 
L 166.734511 255.991955 
L 167.605178 255.991955 
L 167.605178 255.469105 
L 168.673105 255.469105 
L 168.740866 254.423405 
L 171.614193 254.423405 
L 171.614193 253.900555 
L 177.116093 253.900555 
L 177.116093 253.377705 
L 180.18308 253.377705 
L 180.18308 252.854855 
L 180.458684 252.854855 
L 180.458684 252.332005 
L 181.198636 252.332005 
L 181.198636 251.809156 
L 183.628759 251.809156 
L 183.628759 251.286306 
L 183.83353 251.286306 
L 183.83353 250.763456 
L 183.990739 250.763456 
L 183.990739 250.240606 
L 184.868603 250.240606 
L 184.868603 249.717756 
L 185.023204 249.717756 
L 185.05592 248.672056 
L 189.760621 248.672056 
L 189.760621 248.149206 
L 198.423216 248.149206 
L 198.423216 247.626356 
L 205.71693 247.626356 
L 205.71693 247.103506 
L 333.569032 247.103506 
L 333.569032 247.103506 
" style="fill:none;stroke:#008000;stroke-linecap:square;stroke-width:1.5;"/>
   </g>
   <g id="line2d_30">
    <defs>
     <path d="M -0 6 
L 6 -6 
L -6 -6 
z
" id="m22646ef02e" style="stroke:#008000;stroke-linejoin:miter;stroke-width:1.5;"/>
    </defs>
    <g>
     <use style="fill-opacity:0;stroke:#008000;stroke-linejoin:miter;stroke-width:1.5;" x="111.163375" xlink:href="#m22646ef02e" y="276.383102"/>
     <use style="fill-opacity:0;stroke:#008000;stroke-linejoin:miter;stroke-width:1.5;" x="168.740866" xlink:href="#m22646ef02e" y="254.423405"/>
     <use style="fill-opacity:0;stroke:#008000;stroke-linejoin:miter;stroke-width:1.5;" x="205.71693" xlink:href="#m22646ef02e" y="247.626356"/>
     <use style="fill-opacity:0;stroke:#008000;stroke-linejoin:miter;stroke-width:1.5;" x="205.71693" xlink:href="#m22646ef02e" y="247.103506"/>
     <use style="fill-opacity:0;stroke:#008000;stroke-linejoin:miter;stroke-width:1.5;" x="205.71693" xlink:href="#m22646ef02e" y="247.103506"/>
     <use style="fill-opacity:0;stroke:#008000;stroke-linejoin:miter;stroke-width:1.5;" x="333.569032" xlink:href="#m22646ef02e" y="247.103506"/>
    </g>
   </g>
   <g id="line2d_31">
    <path style="fill:none;stroke:#008000;stroke-linecap:square;stroke-width:1.5;"/>
    <g/>
   </g>
   <g id="line2d_32">
    <path clip-path="url(#pc8634e3b15)" d="M 164.100586 257.037655 
" style="fill:none;stroke:#008000;stroke-linecap:square;stroke-width:1.5;"/>
    <defs>
     <path d="M -12 12 
L 12 -12 
M -12 -12 
L 12 12 
" id="m1a0088f26c" style="stroke:#008000;stroke-width:3;"/>
    </defs>
    <g clip-path="url(#pc8634e3b15)">
     <use style="fill:#008000;stroke:#008000;stroke-width:3;" x="164.100586" xlink:href="#m1a0088f26c" y="257.037655"/>
    </g>
   </g>
   <g id="line2d_33">
    <defs>
     <path d="M 0 1.5 
C 0.397805 1.5 0.77937 1.341951 1.06066 1.06066 
C 1.341951 0.77937 1.5 0.397805 1.5 0 
C 1.5 -0.397805 1.341951 -0.77937 1.06066 -1.06066 
C 0.77937 -1.341951 0.397805 -1.5 0 -1.5 
C -0.397805 -1.5 -0.77937 -1.341951 -1.06066 -1.06066 
C -1.341951 -0.77937 -1.5 -0.397805 -1.5 0 
C -1.5 0.397805 -1.341951 0.77937 -1.06066 1.06066 
C -0.77937 1.341951 -0.397805 1.5 0 1.5 
z
" id="m04171c8b11" style="stroke:#0000ff;"/>
    </defs>
    <g>
     <use style="fill:#0000ff;stroke:#0000ff;" x="254.194642" xlink:href="#m04171c8b11" y="241.875007"/>
     <use style="fill:#0000ff;stroke:#0000ff;" x="254.194642" xlink:href="#m04171c8b11" y="241.875007"/>
    </g>
   </g>
   <g id="line2d_34">
    <path d="M 29.207815 294.16 
L 29.207815 293.1143 
L 56.84 293.1143 
L 56.84 292.59145 
L 74.517373 292.59145 
L 74.517373 292.0686 
L 81.478739 292.0686 
L 81.478739 291.54575 
L 92.541603 291.54575 
L 92.541603 291.0229 
L 93.783265 291.0229 
L 93.783265 290.50005 
L 100.340639 290.50005 
L 100.340639 289.454351 
L 101.397517 289.454351 
L 101.397517 288.408651 
L 104.007459 288.408651 
L 104.007459 287.885801 
L 104.655417 287.885801 
L 104.655417 287.362951 
L 109.909618 287.362951 
L 109.909618 286.317251 
L 110.672804 286.317251 
L 110.672804 285.271551 
L 115.004162 285.271551 
L 115.004162 284.748701 
L 116.235029 284.748701 
L 116.235029 284.225851 
L 116.661606 284.225851 
L 116.661606 283.703001 
L 117.180342 283.703001 
L 117.180342 283.180151 
L 118.076311 283.180151 
L 118.076311 282.657301 
L 120.001235 282.657301 
L 120.001235 282.134452 
L 121.810153 282.134452 
L 121.888016 280.043052 
L 122.721987 280.043052 
L 122.721987 278.997352 
L 124.940403 278.997352 
L 124.940403 278.474502 
L 125.069979 278.474502 
L 125.069979 277.951652 
L 126.072825 277.951652 
L 126.072825 277.428802 
L 129.182768 277.428802 
L 129.182768 276.905952 
L 135.663376 276.905952 
L 135.663376 276.383102 
L 135.973976 276.383102 
L 135.973976 275.337402 
L 139.178169 275.337402 
L 139.178169 274.814553 
L 140.541491 274.814553 
L 140.541491 274.291703 
L 142.237326 274.291703 
L 142.237326 273.768853 
L 142.659532 273.768853 
L 142.659532 273.246003 
L 147.511592 273.246003 
L 147.511592 272.723153 
L 150.398516 272.723153 
L 150.398516 272.200303 
L 152.971133 272.200303 
L 152.971133 271.677453 
L 156.497097 271.677453 
L 156.497097 271.154603 
L 157.276024 271.154603 
L 157.276024 270.631753 
L 161.736333 270.631753 
L 161.736333 270.108903 
L 167.532774 270.108903 
L 167.532774 269.586053 
L 168.168432 269.586053 
L 168.168432 269.063203 
L 169.954786 269.063203 
L 169.954786 268.540353 
L 170.374926 268.540353 
L 170.374926 268.017503 
L 173.188691 268.017503 
L 173.188691 267.494653 
L 176.845119 267.494653 
L 176.845119 266.971804 
L 179.003513 266.971804 
L 179.003513 266.448954 
L 179.304947 266.448954 
L 179.332338 265.403254 
L 180.33693 265.403254 
L 180.33693 264.880404 
L 181.497176 264.880404 
L 181.497176 264.357554 
L 184.428842 264.357554 
L 184.428842 263.834704 
L 185.53168 263.834704 
L 185.53168 263.311854 
L 186.250772 263.311854 
L 186.250772 262.789004 
L 189.116505 262.789004 
L 189.116505 262.266154 
L 191.886709 262.266154 
L 191.886709 261.743304 
L 192.017939 261.743304 
L 192.017939 261.220454 
L 192.732344 261.220454 
L 192.732344 260.697604 
L 193.606343 260.697604 
L 193.606343 260.174754 
L 196.29782 260.174754 
L 196.29782 259.651904 
L 201.23546 259.651904 
L 201.23546 259.129055 
L 202.134667 259.129055 
L 202.134667 258.606205 
L 202.989803 258.606205 
L 202.989803 258.083355 
L 206.266849 258.083355 
L 206.266849 257.560505 
L 209.488923 257.560505 
L 209.488923 257.037655 
L 210.115288 257.037655 
L 210.115288 256.514805 
L 214.388707 256.514805 
L 214.388707 255.991955 
L 214.722892 255.991955 
L 214.722892 255.469105 
L 214.982203 255.469105 
L 214.988379 254.423405 
L 216.648708 254.423405 
L 216.648708 253.900555 
L 218.124859 253.900555 
L 218.127145 252.854855 
L 218.726006 252.854855 
L 218.726006 252.332005 
L 219.076141 252.332005 
L 219.076141 251.809156 
L 221.115573 251.809156 
L 221.115573 251.286306 
L 221.635766 251.286306 
L 221.635766 250.763456 
L 223.761681 250.763456 
L 223.761681 250.240606 
L 224.298517 250.240606 
L 224.298517 249.717756 
L 224.912277 249.717756 
L 224.912277 249.194906 
L 226.194313 249.194906 
L 226.194313 248.672056 
L 226.565324 248.672056 
L 226.565324 248.149206 
L 227.804145 248.149206 
L 227.804145 247.626356 
L 230.292624 247.626356 
L 230.292624 247.103506 
L 230.541485 247.103506 
L 230.541485 246.580656 
L 230.766413 246.580656 
L 230.766413 246.057806 
L 232.192553 246.057806 
L 232.192553 245.534956 
L 234.518912 245.534956 
L 234.518912 245.012106 
L 238.602253 245.012106 
L 238.602253 244.489256 
L 240.962409 244.489256 
L 240.962409 243.966407 
L 246.29716 243.966407 
L 246.29716 243.443557 
L 247.46995 243.443557 
L 247.46995 242.920707 
L 248.052202 242.920707 
L 248.052202 242.397857 
L 254.194642 242.397857 
L 254.194642 241.875007 
L 333.569032 241.875007 
L 333.569032 241.875007 
" style="fill:none;stroke:#0000ff;stroke-linecap:square;stroke-width:1.5;"/>
   </g>
   <g id="line2d_35">
    <defs>
     <path d="M 0 -6 
L -1.347084 -1.854102 
L -5.706339 -1.854102 
L -2.179628 0.708204 
L -3.526712 4.854102 
L -0 2.291796 
L 3.526712 4.854102 
L 2.179628 0.708204 
L 5.706339 -1.854102 
L 1.347084 -1.854102 
z
" id="mdbc2e75ea0" style="stroke:#0000ff;stroke-linejoin:bevel;stroke-width:1.5;"/>
    </defs>
    <g>
     <use style="fill-opacity:0;stroke:#0000ff;stroke-linejoin:bevel;stroke-width:1.5;" x="93.783265" xlink:href="#mdbc2e75ea0" y="290.50005"/>
     <use style="fill-opacity:0;stroke:#0000ff;stroke-linejoin:bevel;stroke-width:1.5;" x="180.33693" xlink:href="#mdbc2e75ea0" y="265.403254"/>
     <use style="fill-opacity:0;stroke:#0000ff;stroke-linejoin:bevel;stroke-width:1.5;" x="240.962409" xlink:href="#mdbc2e75ea0" y="243.966407"/>
     <use style="fill-opacity:0;stroke:#0000ff;stroke-linejoin:bevel;stroke-width:1.5;" x="254.194642" xlink:href="#mdbc2e75ea0" y="241.875007"/>
     <use style="fill-opacity:0;stroke:#0000ff;stroke-linejoin:bevel;stroke-width:1.5;" x="254.194642" xlink:href="#mdbc2e75ea0" y="241.875007"/>
     <use style="fill-opacity:0;stroke:#0000ff;stroke-linejoin:bevel;stroke-width:1.5;" x="333.569032" xlink:href="#mdbc2e75ea0" y="241.875007"/>
    </g>
   </g>
   <g id="line2d_36">
    <path style="fill:none;stroke:#0000ff;stroke-linecap:square;stroke-width:1.5;"/>
    <g/>
   </g>
   <g id="line2d_37">
    <path clip-path="url(#pc8634e3b15)" d="M 163.877611 270.108903 
" style="fill:none;stroke:#0000ff;stroke-linecap:square;stroke-width:1.5;"/>
    <defs>
     <path d="M -12 12 
L 12 -12 
M -12 -12 
L 12 12 
" id="me4d0e2a809" style="stroke:#0000ff;stroke-width:3;"/>
    </defs>
    <g clip-path="url(#pc8634e3b15)">
     <use style="fill:#0000ff;stroke:#0000ff;stroke-width:3;" x="163.877611" xlink:href="#me4d0e2a809" y="270.108903"/>
    </g>
   </g>
   <g id="line2d_38">
    <defs>
     <path d="M 0 1.5 
C 0.397805 1.5 0.77937 1.341951 1.06066 1.06066 
C 1.341951 0.77937 1.5 0.397805 1.5 0 
C 1.5 -0.397805 1.341951 -0.77937 1.06066 -1.06066 
C 0.77937 -1.341951 0.397805 -1.5 0 -1.5 
C -0.397805 -1.5 -0.77937 -1.341951 -1.06066 -1.06066 
C -1.341951 -0.77937 -1.5 -0.397805 -1.5 0 
C -1.5 0.397805 -1.341951 0.77937 -1.06066 1.06066 
C -0.77937 1.341951 -0.397805 1.5 0 1.5 
z
" id="m299c54d6fc" style="stroke:#000000;"/>
    </defs>
    <g>
     <use style="stroke:#000000;" x="234.048995" xlink:href="#m299c54d6fc" y="273.246003"/>
     <use style="stroke:#000000;" x="234.048995" xlink:href="#m299c54d6fc" y="273.246003"/>
    </g>
   </g>
   <g id="line2d_39">
    <path d="M 108.444089 294.16 
L 108.444089 293.63715 
L 116.288934 293.63715 
L 116.288934 293.1143 
L 117.584333 293.1143 
L 117.584333 292.59145 
L 131.148434 292.59145 
L 131.148434 292.0686 
L 145.872607 292.0686 
L 145.872607 291.54575 
L 148.659986 291.54575 
L 148.659986 291.0229 
L 148.879114 291.0229 
L 148.879114 290.50005 
L 158.367997 290.50005 
L 158.367997 289.454351 
L 159.928263 289.454351 
L 159.928263 288.408651 
L 160.755438 288.408651 
L 160.755438 287.885801 
L 164.881196 287.885801 
L 164.881196 287.362951 
L 165.507854 287.362951 
L 165.507854 286.317251 
L 174.561124 286.317251 
L 174.561124 285.794401 
L 176.700568 285.794401 
L 176.700568 285.271551 
L 177.391542 285.271551 
L 177.391542 284.748701 
L 177.39767 284.748701 
L 177.39767 284.225851 
L 183.314416 284.225851 
L 183.314416 283.703001 
L 189.292842 283.703001 
L 189.292842 283.180151 
L 190.540329 283.180151 
L 190.540329 282.657301 
L 191.848463 282.657301 
L 191.848463 282.134452 
L 197.739877 282.134452 
L 197.739877 281.611602 
L 199.154028 281.611602 
L 199.154028 281.088752 
L 201.108514 281.088752 
L 201.108514 280.565902 
L 201.862743 280.565902 
L 201.862743 280.043052 
L 202.190056 280.043052 
L 202.190056 279.520202 
L 202.262193 279.520202 
L 202.262193 278.997352 
L 204.581701 278.997352 
L 204.581701 278.474502 
L 206.129192 278.474502 
L 206.129192 277.951652 
L 206.792606 277.951652 
L 206.792606 277.428802 
L 207.641265 277.428802 
L 207.641265 276.905952 
L 208.122537 276.905952 
L 208.122537 276.383102 
L 215.26063 276.383102 
L 215.26063 275.860252 
L 215.387615 275.860252 
L 215.387615 275.337402 
L 222.879335 275.337402 
L 222.879335 274.814553 
L 232.463986 274.814553 
L 232.463986 274.291703 
L 233.54154 274.291703 
L 233.54154 273.768853 
L 234.048995 273.768853 
L 234.048995 273.246003 
L 333.569032 273.246003 
" style="fill:none;stroke:#000000;stroke-linecap:square;stroke-width:1.5;"/>
   </g>
   <g id="line2d_40">
    <defs>
     <path d="M 0 6 
C 1.591219 6 3.117479 5.367802 4.242641 4.242641 
C 5.367802 3.117479 6 1.591219 6 0 
C 6 -1.591219 5.367802 -3.117479 4.242641 -4.242641 
C 3.117479 -5.367802 1.591219 -6 0 -6 
C -1.591219 -6 -3.117479 -5.367802 -4.242641 -4.242641 
C -5.367802 -3.117479 -6 -1.591219 -6 0 
C -6 1.591219 -5.367802 3.117479 -4.242641 4.242641 
C -3.117479 5.367802 -1.591219 6 0 6 
z
" id="m32a525bb01" style="stroke:#000000;stroke-width:1.5;"/>
    </defs>
    <g>
     <use style="fill-opacity:0;stroke:#000000;stroke-width:1.5;" x="145.872607" xlink:href="#m32a525bb01" y="292.0686"/>
     <use style="fill-opacity:0;stroke:#000000;stroke-width:1.5;" x="202.262193" xlink:href="#m32a525bb01" y="279.520202"/>
     <use style="fill-opacity:0;stroke:#000000;stroke-width:1.5;" x="234.048995" xlink:href="#m32a525bb01" y="273.768853"/>
     <use style="fill-opacity:0;stroke:#000000;stroke-width:1.5;" x="234.048995" xlink:href="#m32a525bb01" y="273.246003"/>
     <use style="fill-opacity:0;stroke:#000000;stroke-width:1.5;" x="333.569032" xlink:href="#m32a525bb01" y="273.246003"/>
    </g>
   </g>
   <g id="line2d_41">
    <path style="fill:none;stroke:#000000;stroke-linecap:square;stroke-width:1.5;"/>
    <g/>
   </g>
   <g id="line2d_42">
    <path clip-path="url(#pc8634e3b15)" d="M 163.708458 287.885801 
" style="fill:none;stroke:#000000;stroke-linecap:square;stroke-width:1.5;"/>
    <defs>
     <path d="M -12 12 
L 12 -12 
M -12 -12 
L 12 12 
" id="m4622414d8f" style="stroke:#000000;stroke-width:3;"/>
    </defs>
    <g clip-path="url(#pc8634e3b15)">
     <use style="stroke:#000000;stroke-width:3;" x="163.708458" xlink:href="#m4622414d8f" y="287.885801"/>
    </g>
   </g>
   <g id="line2d_43">
    <path clip-path="url(#pc8634e3b15)" d="M 56.84 294.16 
L 56.84 294.16 
L 56.84 294.16 
L 56.84 294.16 
L 399.984 294.16 
" style="fill:none;stroke:#ff0000;stroke-linecap:square;stroke-width:1.5;"/>
   </g>
   <g id="line2d_44">
    <defs>
     <path d="M -6 6 
L 6 6 
L 6 -6 
L -6 -6 
z
" id="m991f9e3cb6" style="stroke:#ff0000;stroke-linejoin:miter;stroke-width:1.5;"/>
    </defs>
    <g clip-path="url(#pc8634e3b15)">
     <use style="fill-opacity:0;stroke:#ff0000;stroke-linejoin:miter;stroke-width:1.5;" x="56.84" xlink:href="#m991f9e3cb6" y="294.16"/>
    </g>
   </g>
   <g id="line2d_45">
    <path clip-path="url(#pc8634e3b15)" style="fill:none;stroke:#ff0000;stroke-linecap:square;stroke-width:1.5;"/>
    <g clip-path="url(#pc8634e3b15)">
     <use style="fill-opacity:0;stroke:#ff0000;stroke-linejoin:miter;stroke-width:1.5;" x="-1" xlink:href="#m991f9e3cb6" y="560.813465"/>
     <use style="fill-opacity:0;stroke:#ff0000;stroke-linejoin:miter;stroke-width:1.5;" x="399.984" xlink:href="#m991f9e3cb6" y="560.813465"/>
    </g>
   </g>
   <g id="line2d_46">
    <path clip-path="url(#pc8634e3b15)" d="M 56.84 294.16 
L 56.84 294.16 
L 56.84 294.16 
L 56.84 294.16 
L 399.984 294.16 
" style="fill:none;stroke:#bf00bf;stroke-linecap:square;stroke-width:1.5;"/>
   </g>
   <g id="line2d_47">
    <defs>
     <path d="M -0 8.485281 
L 8.485281 0 
L 0 -8.485281 
L -8.485281 -0 
z
" id="mcd53b028a4" style="stroke:#bf00bf;stroke-linejoin:miter;stroke-width:1.5;"/>
    </defs>
    <g clip-path="url(#pc8634e3b15)">
     <use style="fill-opacity:0;stroke:#bf00bf;stroke-linejoin:miter;stroke-width:1.5;" x="56.84" xlink:href="#mcd53b028a4" y="294.16"/>
    </g>
   </g>
   <g id="line2d_48">
    <path clip-path="url(#pc8634e3b15)" style="fill:none;stroke:#bf00bf;stroke-linecap:square;stroke-width:1.5;"/>
    <g clip-path="url(#pc8634e3b15)">
     <use style="fill-opacity:0;stroke:#bf00bf;stroke-linejoin:miter;stroke-width:1.5;" x="-1" xlink:href="#mcd53b028a4" y="560.813465"/>
     <use style="fill-opacity:0;stroke:#bf00bf;stroke-linejoin:miter;stroke-width:1.5;" x="399.984" xlink:href="#mcd53b028a4" y="560.813465"/>
    </g>
   </g>
   <g id="line2d_49">
    <path d="M 333.569032 294.16 
L 364.009226 288.826931 
" style="fill:none;stroke:#bf00bf;stroke-linecap:square;stroke-width:1.5;"/>
    <g>
     <use style="fill-opacity:0;stroke:#bf00bf;stroke-linejoin:miter;stroke-width:1.5;" x="333.569032" xlink:href="#mcd53b028a4" y="294.16"/>
     <use style="fill-opacity:0;stroke:#bf00bf;stroke-linejoin:miter;stroke-width:1.5;" x="364.009226" xlink:href="#mcd53b028a4" y="288.826931"/>
    </g>
   </g>
   <g id="line2d_50">
    <path d="M 333.569032 294.16 
L 364.009226 237.629465 
" style="fill:none;stroke:#ff0000;stroke-linecap:square;stroke-width:1.5;"/>
    <g>
     <use style="fill-opacity:0;stroke:#ff0000;stroke-linejoin:miter;stroke-width:1.5;" x="333.569032" xlink:href="#m991f9e3cb6" y="294.16"/>
     <use style="fill-opacity:0;stroke:#ff0000;stroke-linejoin:miter;stroke-width:1.5;" x="364.009226" xlink:href="#m991f9e3cb6" y="237.629465"/>
    </g>
   </g>
   <g id="line2d_51">
    <path d="M 333.569032 273.246003 
L 364.009226 186.432 
" style="fill:none;stroke:#000000;stroke-linecap:square;stroke-width:1.5;"/>
    <g>
     <use style="fill-opacity:0;stroke:#000000;stroke-width:1.5;" x="333.569032" xlink:href="#m32a525bb01" y="273.246003"/>
     <use style="fill-opacity:0;stroke:#000000;stroke-width:1.5;" x="364.009226" xlink:href="#m32a525bb01" y="186.432"/>
    </g>
   </g>
   <g id="line2d_52">
    <path d="M 333.569032 247.103506 
L 364.009226 135.234535 
" style="fill:none;stroke:#008000;stroke-linecap:square;stroke-width:1.5;"/>
    <g>
     <use style="fill-opacity:0;stroke:#008000;stroke-linejoin:miter;stroke-width:1.5;" x="333.569032" xlink:href="#m22646ef02e" y="247.103506"/>
     <use style="fill-opacity:0;stroke:#008000;stroke-linejoin:miter;stroke-width:1.5;" x="364.009226" xlink:href="#m22646ef02e" y="135.234535"/>
    </g>
   </g>
   <g id="line2d_53">
    <path d="M 333.569032 241.875007 
L 364.009226 84.037069 
" style="fill:none;stroke:#0000ff;stroke-linecap:square;stroke-width:1.5;"/>
    <g>
     <use style="fill-opacity:0;stroke:#0000ff;stroke-linejoin:bevel;stroke-width:1.5;" x="333.569032" xlink:href="#mdbc2e75ea0" y="241.875007"/>
     <use style="fill-opacity:0;stroke:#0000ff;stroke-linejoin:bevel;stroke-width:1.5;" x="364.009226" xlink:href="#mdbc2e75ea0" y="84.037069"/>
    </g>
   </g>
   <g id="line2d_54">
    <path d="M 333.569032 111.162524 
L 364.009226 32.839604 
" style="fill:none;stroke:#00bfbf;stroke-linecap:square;stroke-width:1.5;"/>
    <g>
     <use style="fill-opacity:0;stroke:#00bfbf;stroke-width:1.5;" x="333.569032" xlink:href="#mfaec072c25" y="111.162524"/>
     <use style="fill-opacity:0;stroke:#00bfbf;stroke-width:1.5;" x="364.009226" xlink:href="#mfaec072c25" y="32.839604"/>
    </g>
   </g>
   <g id="line2d_55">
    <path d="M 333.569032 294.16 
L 333.569032 27.506535 
" style="fill:none;stroke:#000000;stroke-linecap:square;stroke-width:1.5;"/>
   </g>
   <g id="patch_3">
    <path d="M 56.84 294.16 
L 56.84 24.84 
" style="fill:none;stroke:#000000;stroke-linecap:square;stroke-linejoin:miter;stroke-width:0.8;"/>
   </g>
   <g id="patch_4">
    <path d="M 399.984 294.16 
L 399.984 24.84 
" style="fill:none;stroke:#000000;stroke-linecap:square;stroke-linejoin:miter;stroke-width:0.8;"/>
   </g>
   <g id="patch_5">
    <path d="M 56.84 294.16 
L 399.984 294.16 
" style="fill:none;stroke:#000000;stroke-linecap:square;stroke-linejoin:miter;stroke-width:0.8;"/>
   </g>
   <g id="patch_6">
    <path d="M 56.84 24.84 
L 399.984 24.84 
" style="fill:none;stroke:#000000;stroke-linecap:square;stroke-linejoin:miter;stroke-width:0.8;"/>
   </g>
   <g id="text_14">
    <!-- 40-D -->
    <defs>
     <path d="M 19.671875 64.796875 
L 19.671875 8.109375 
L 31.59375 8.109375 
Q 46.6875 8.109375 53.6875 14.9375 
Q 60.6875 21.78125 60.6875 36.53125 
Q 60.6875 51.171875 53.6875 57.984375 
Q 46.6875 64.796875 31.59375 64.796875 
z
M 9.8125 72.90625 
L 30.078125 72.90625 
Q 51.265625 72.90625 61.171875 64.09375 
Q 71.09375 55.28125 71.09375 36.53125 
Q 71.09375 17.671875 61.125 8.828125 
Q 51.171875 0 30.078125 0 
L 9.8125 0 
z
" id="DejaVuSans-44"/>
    </defs>
    <g transform="translate(369.543806 293.517868)scale(0.17 -0.17)">
     <use xlink:href="#DejaVuSans-34"/>
     <use x="63.623047" xlink:href="#DejaVuSans-30"/>
     <use x="127.246094" xlink:href="#DejaVuSans-2d"/>
     <use x="163.330078" xlink:href="#DejaVuSans-44"/>
    </g>
   </g>
   <g id="text_15">
    <!-- 20-D -->
    <g transform="translate(369.543806 242.320403)scale(0.17 -0.17)">
     <use xlink:href="#DejaVuSans-32"/>
     <use x="63.623047" xlink:href="#DejaVuSans-30"/>
     <use x="127.246094" xlink:href="#DejaVuSans-2d"/>
     <use x="163.330078" xlink:href="#DejaVuSans-44"/>
    </g>
   </g>
   <g id="text_16">
    <!-- 10-D -->
    <g transform="translate(369.543806 191.122937)scale(0.17 -0.17)">
     <use xlink:href="#DejaVuSans-31"/>
     <use x="63.623047" xlink:href="#DejaVuSans-30"/>
     <use x="127.246094" xlink:href="#DejaVuSans-2d"/>
     <use x="163.330078" xlink:href="#DejaVuSans-44"/>
    </g>
   </g>
   <g id="text_17">
    <!-- 3-D -->
    <defs>
     <path d="M 40.578125 39.3125 
Q 47.65625 37.796875 51.625 33 
Q 55.609375 28.21875 55.609375 21.1875 
Q 55.609375 10.40625 48.1875 4.484375 
Q 40.765625 -1.421875 27.09375 -1.421875 
Q 22.515625 -1.421875 17.65625 -0.515625 
Q 12.796875 0.390625 7.625 2.203125 
L 7.625 11.71875 
Q 11.71875 9.328125 16.59375 8.109375 
Q 21.484375 6.890625 26.8125 6.890625 
Q 36.078125 6.890625 40.9375 10.546875 
Q 45.796875 14.203125 45.796875 21.1875 
Q 45.796875 27.640625 41.28125 31.265625 
Q 36.765625 34.90625 28.71875 34.90625 
L 20.21875 34.90625 
L 20.21875 43.015625 
L 29.109375 43.015625 
Q 36.375 43.015625 40.234375 45.921875 
Q 44.09375 48.828125 44.09375 54.296875 
Q 44.09375 59.90625 40.109375 62.90625 
Q 36.140625 65.921875 28.71875 65.921875 
Q 24.65625 65.921875 20.015625 65.03125 
Q 15.375 64.15625 9.8125 62.3125 
L 9.8125 71.09375 
Q 15.4375 72.65625 20.34375 73.4375 
Q 25.25 74.21875 29.59375 74.21875 
Q 40.828125 74.21875 47.359375 69.109375 
Q 53.90625 64.015625 53.90625 55.328125 
Q 53.90625 49.265625 50.4375 45.09375 
Q 46.96875 40.921875 40.578125 39.3125 
z
" id="DejaVuSans-33"/>
    </defs>
    <g transform="translate(369.543806 139.925472)scale(0.17 -0.17)">
     <use xlink:href="#DejaVuSans-33"/>
     <use x="63.623047" xlink:href="#DejaVuSans-2d"/>
     <use x="99.707031" xlink:href="#DejaVuSans-44"/>
    </g>
   </g>
   <g id="text_18">
    <!-- 5-D -->
    <defs>
     <path d="M 10.796875 72.90625 
L 49.515625 72.90625 
L 49.515625 64.59375 
L 19.828125 64.59375 
L 19.828125 46.734375 
Q 21.96875 47.46875 24.109375 47.828125 
Q 26.265625 48.1875 28.421875 48.1875 
Q 40.625 48.1875 47.75 41.5 
Q 54.890625 34.8125 54.890625 23.390625 
Q 54.890625 11.625 47.5625 5.09375 
Q 40.234375 -1.421875 26.90625 -1.421875 
Q 22.3125 -1.421875 17.546875 -0.640625 
Q 12.796875 0.140625 7.71875 1.703125 
L 7.71875 11.625 
Q 12.109375 9.234375 16.796875 8.0625 
Q 21.484375 6.890625 26.703125 6.890625 
Q 35.15625 6.890625 40.078125 11.328125 
Q 45.015625 15.765625 45.015625 23.390625 
Q 45.015625 31 40.078125 35.4375 
Q 35.15625 39.890625 26.703125 39.890625 
Q 22.75 39.890625 18.8125 39.015625 
Q 14.890625 38.140625 10.796875 36.28125 
z
" id="DejaVuSans-35"/>
    </defs>
    <g transform="translate(369.543806 88.728007)scale(0.17 -0.17)">
     <use xlink:href="#DejaVuSans-35"/>
     <use x="63.623047" xlink:href="#DejaVuSans-2d"/>
     <use x="99.707031" xlink:href="#DejaVuSans-44"/>
    </g>
   </g>
   <g id="text_19">
    <!-- 2-D -->
    <g transform="translate(369.543806 37.530541)scale(0.17 -0.17)">
     <use xlink:href="#DejaVuSans-32"/>
     <use x="63.623047" xlink:href="#DejaVuSans-2d"/>
     <use x="99.707031" xlink:href="#DejaVuSans-44"/>
    </g>
   </g>
   <g id="text_20">
    <!-- bbob f3 -->
    <defs>
     <path d="M 48.6875 27.296875 
Q 48.6875 37.203125 44.609375 42.84375 
Q 40.53125 48.484375 33.40625 48.484375 
Q 26.265625 48.484375 22.1875 42.84375 
Q 18.109375 37.203125 18.109375 27.296875 
Q 18.109375 17.390625 22.1875 11.75 
Q 26.265625 6.109375 33.40625 6.109375 
Q 40.53125 6.109375 44.609375 11.75 
Q 48.6875 17.390625 48.6875 27.296875 
z
M 18.109375 46.390625 
Q 20.953125 51.265625 25.265625 53.625 
Q 29.59375 56 35.59375 56 
Q 45.5625 56 51.78125 48.09375 
Q 58.015625 40.1875 58.015625 27.296875 
Q 58.015625 14.40625 51.78125 6.484375 
Q 45.5625 -1.421875 35.59375 -1.421875 
Q 29.59375 -1.421875 25.265625 0.953125 
Q 20.953125 3.328125 18.109375 8.203125 
L 18.109375 0 
L 9.078125 0 
L 9.078125 75.984375 
L 18.109375 75.984375 
z
" id="DejaVuSans-62"/>
    </defs>
    <g transform="translate(60.27144 35.283606)scale(0.102 -0.102)">
     <use xlink:href="#DejaVuSans-62"/>
     <use x="63.476562" xlink:href="#DejaVuSans-62"/>
     <use x="126.953125" xlink:href="#DejaVuSans-6f"/>
     <use x="188.134766" xlink:href="#DejaVuSans-62"/>
     <use x="251.611328" xlink:href="#DejaVuSans-20"/>
     <use x="283.398438" xlink:href="#DejaVuSans-66"/>
     <use x="318.603516" xlink:href="#DejaVuSans-33"/>
    </g>
    <!-- 51 targets: 100..1e-08 -->
    <defs>
     <path d="M 11.71875 12.40625 
L 22.015625 12.40625 
L 22.015625 0 
L 11.71875 0 
z
M 11.71875 51.703125 
L 22.015625 51.703125 
L 22.015625 39.3125 
L 11.71875 39.3125 
z
" id="DejaVuSans-3a"/>
    </defs>
    <g transform="translate(60.27144 46.705375)scale(0.102 -0.102)">
     <use xlink:href="#DejaVuSans-35"/>
     <use x="63.623047" xlink:href="#DejaVuSans-31"/>
     <use x="127.246094" xlink:href="#DejaVuSans-20"/>
     <use x="159.033203" xlink:href="#DejaVuSans-74"/>
     <use x="198.242188" xlink:href="#DejaVuSans-61"/>
     <use x="259.521484" xlink:href="#DejaVuSans-72"/>
     <use x="300.619141" xlink:href="#DejaVuSans-67"/>
     <use x="364.095703" xlink:href="#DejaVuSans-65"/>
     <use x="425.619141" xlink:href="#DejaVuSans-74"/>
     <use x="464.828125" xlink:href="#DejaVuSans-73"/>
     <use x="516.927734" xlink:href="#DejaVuSans-3a"/>
     <use x="550.619141" xlink:href="#DejaVuSans-20"/>
     <use x="582.40625" xlink:href="#DejaVuSans-31"/>
     <use x="646.029297" xlink:href="#DejaVuSans-30"/>
     <use x="709.652344" xlink:href="#DejaVuSans-30"/>
     <use x="773.275391" xlink:href="#DejaVuSans-2e"/>
     <use x="805.0625" xlink:href="#DejaVuSans-2e"/>
     <use x="836.849609" xlink:href="#DejaVuSans-31"/>
     <use x="900.472656" xlink:href="#DejaVuSans-65"/>
     <use x="961.996094" xlink:href="#DejaVuSans-2d"/>
     <use x="998.080078" xlink:href="#DejaVuSans-30"/>
     <use x="1061.703125" xlink:href="#DejaVuSans-38"/>
    </g>
    <!-- 15 instances -->
    <g transform="translate(60.27144 58.127144)scale(0.102 -0.102)">
     <use xlink:href="#DejaVuSans-31"/>
     <use x="63.623047" xlink:href="#DejaVuSans-35"/>
     <use x="127.246094" xlink:href="#DejaVuSans-20"/>
     <use x="159.033203" xlink:href="#DejaVuSans-69"/>
     <use x="186.816406" xlink:href="#DejaVuSans-6e"/>
     <use x="250.195312" xlink:href="#DejaVuSans-73"/>
     <use x="302.294922" xlink:href="#DejaVuSans-74"/>
     <use x="341.503906" xlink:href="#DejaVuSans-61"/>
     <use x="402.783203" xlink:href="#DejaVuSans-6e"/>
     <use x="466.162109" xlink:href="#DejaVuSans-63"/>
     <use x="521.142578" xlink:href="#DejaVuSans-65"/>
     <use x="582.666016" xlink:href="#DejaVuSans-73"/>
    </g>
   </g>
   <g id="text_21">
    <!-- v2.2.1.10 -->
    <g style="fill:#808080;" transform="translate(204.779188 289.387113)scale(0.1 -0.1)">
     <use xlink:href="#DejaVuSans-76"/>
     <use x="59.179688" xlink:href="#DejaVuSans-32"/>
     <use x="122.802734" xlink:href="#DejaVuSans-2e"/>
     <use x="154.589844" xlink:href="#DejaVuSans-32"/>
     <use x="218.212891" xlink:href="#DejaVuSans-2e"/>
     <use x="250" xlink:href="#DejaVuSans-31"/>
     <use x="313.623047" xlink:href="#DejaVuSans-2e"/>
     <use x="345.410156" xlink:href="#DejaVuSans-31"/>
     <use x="409.033203" xlink:href="#DejaVuSans-30"/>
    </g>
   </g>
   <g id="text_22">
    <!-- 3 Rastrigin separable -->
    <defs>
     <path d="M 44.390625 34.1875 
Q 47.5625 33.109375 50.5625 29.59375 
Q 53.5625 26.078125 56.59375 19.921875 
L 66.609375 0 
L 56 0 
L 46.6875 18.703125 
Q 43.0625 26.03125 39.671875 28.421875 
Q 36.28125 30.8125 30.421875 30.8125 
L 19.671875 30.8125 
L 19.671875 0 
L 9.8125 0 
L 9.8125 72.90625 
L 32.078125 72.90625 
Q 44.578125 72.90625 50.734375 67.671875 
Q 56.890625 62.453125 56.890625 51.90625 
Q 56.890625 45.015625 53.6875 40.46875 
Q 50.484375 35.9375 44.390625 34.1875 
z
M 19.671875 64.796875 
L 19.671875 38.921875 
L 32.078125 38.921875 
Q 39.203125 38.921875 42.84375 42.21875 
Q 46.484375 45.515625 46.484375 51.90625 
Q 46.484375 58.296875 42.84375 61.546875 
Q 39.203125 64.796875 32.078125 64.796875 
z
" id="DejaVuSans-52"/>
    </defs>
    <g transform="translate(121.779188 18.84)scale(0.2 -0.2)">
     <use xlink:href="#DejaVuSans-33"/>
     <use x="63.623047" xlink:href="#DejaVuSans-20"/>
     <use x="95.410156" xlink:href="#DejaVuSans-52"/>
     <use x="164.861328" xlink:href="#DejaVuSans-61"/>
     <use x="226.140625" xlink:href="#DejaVuSans-73"/>
     <use x="278.240234" xlink:href="#DejaVuSans-74"/>
     <use x="317.449219" xlink:href="#DejaVuSans-72"/>
     <use x="358.5625" xlink:href="#DejaVuSans-69"/>
     <use x="386.345703" xlink:href="#DejaVuSans-67"/>
     <use x="449.822266" xlink:href="#DejaVuSans-69"/>
     <use x="477.605469" xlink:href="#DejaVuSans-6e"/>
     <use x="540.984375" xlink:href="#DejaVuSans-20"/>
     <use x="572.771484" xlink:href="#DejaVuSans-73"/>
     <use x="624.871094" xlink:href="#DejaVuSans-65"/>
     <use x="686.394531" xlink:href="#DejaVuSans-70"/>
     <use x="749.871094" xlink:href="#DejaVuSans-61"/>
     <use x="811.150391" xlink:href="#DejaVuSans-72"/>
     <use x="852.263672" xlink:href="#DejaVuSans-61"/>
     <use x="913.542969" xlink:href="#DejaVuSans-62"/>
     <use x="977.019531" xlink:href="#DejaVuSans-6c"/>
     <use x="1004.802734" xlink:href="#DejaVuSans-65"/>
    </g>
   </g>
  </g>
 </g>
 <defs>
  <clipPath id="pc8634e3b15">
   <rect height="269.32" width="343.144" x="56.84" y="24.84"/>
  </clipPath>
 </defs>
</svg>
