<?xml version="1.0" encoding="utf-8" standalone="no"?>
<!DOCTYPE svg PUBLIC "-//W3C//DTD SVG 1.1//EN"
  "http://www.w3.org/Graphics/SVG/1.1/DTD/svg11.dtd">
<!-- Created with matplotlib (http://matplotlib.org/) -->
<svg height="345.6pt" version="1.1" viewBox="0 0 460.8 345.6" width="460.8pt" xmlns="http://www.w3.org/2000/svg" xmlns:xlink="http://www.w3.org/1999/xlink">
 <defs>
  <style type="text/css">
*{stroke-linecap:butt;stroke-linejoin:round;}
  </style>
 </defs>
 <g id="figure_1">
  <g id="patch_1">
   <path d="M 0 345.6 
L 460.8 345.6 
L 460.8 0 
L 0 0 
z
" style="fill:#ffffff;"/>
  </g>
  <g id="axes_1">
   <g id="patch_2">
    <path d="M 56.84 294.16 
L 399.984 294.16 
L 399.984 24.84 
L 56.84 24.84 
z
" style="fill:#ffffff;"/>
   </g>
   <g id="matplotlib.axis_1">
    <g id="xtick_1">
     <g id="line2d_1">
      <path clip-path="url(#pac2f77e0e7)" d="M 56.84 294.16 
L 56.84 24.84 
" style="fill:none;stroke:#b0b0b0;stroke-linecap:square;stroke-width:0.8;"/>
     </g>
     <g id="line2d_2">
      <defs>
       <path d="M 0 0 
L 0 3.5 
" id="me8eabcdc0a" style="stroke:#000000;stroke-width:0.8;"/>
      </defs>
      <g>
       <use style="stroke:#000000;stroke-width:0.8;" x="56.84" xlink:href="#me8eabcdc0a" y="294.16"/>
      </g>
     </g>
     <g id="text_1">
      <!-- 0 -->
      <defs>
       <path d="M 31.78125 66.40625 
Q 24.171875 66.40625 20.328125 58.90625 
Q 16.5 51.421875 16.5 36.375 
Q 16.5 21.390625 20.328125 13.890625 
Q 24.171875 6.390625 31.78125 6.390625 
Q 39.453125 6.390625 43.28125 13.890625 
Q 47.125 21.390625 47.125 36.375 
Q 47.125 51.421875 43.28125 58.90625 
Q 39.453125 66.40625 31.78125 66.40625 
z
M 31.78125 74.21875 
Q 44.046875 74.21875 50.515625 64.515625 
Q 56.984375 54.828125 56.984375 36.375 
Q 56.984375 17.96875 50.515625 8.265625 
Q 44.046875 -1.421875 31.78125 -1.421875 
Q 19.53125 -1.421875 13.0625 8.265625 
Q 6.59375 17.96875 6.59375 36.375 
Q 6.59375 54.828125 13.0625 64.515625 
Q 19.53125 74.21875 31.78125 74.21875 
z
" id="DejaVuSans-30"/>
      </defs>
      <g transform="translate(50.4775 316.356875)scale(0.2 -0.2)">
       <use xlink:href="#DejaVuSans-30"/>
      </g>
     </g>
    </g>
    <g id="xtick_2">
     <g id="line2d_3">
      <path clip-path="url(#pac2f77e0e7)" d="M 135.905438 294.16 
L 135.905438 24.84 
" style="fill:none;stroke:#b0b0b0;stroke-linecap:square;stroke-width:0.8;"/>
     </g>
     <g id="line2d_4">
      <g>
       <use style="stroke:#000000;stroke-width:0.8;" x="135.905438" xlink:href="#me8eabcdc0a" y="294.16"/>
      </g>
     </g>
     <g id="text_2">
      <!-- 2 -->
      <defs>
       <path d="M 19.1875 8.296875 
L 53.609375 8.296875 
L 53.609375 0 
L 7.328125 0 
L 7.328125 8.296875 
Q 12.9375 14.109375 22.625 23.890625 
Q 32.328125 33.6875 34.8125 36.53125 
Q 39.546875 41.84375 41.421875 45.53125 
Q 43.3125 49.21875 43.3125 52.78125 
Q 43.3125 58.59375 39.234375 62.25 
Q 35.15625 65.921875 28.609375 65.921875 
Q 23.96875 65.921875 18.8125 64.3125 
Q 13.671875 62.703125 7.8125 59.421875 
L 7.8125 69.390625 
Q 13.765625 71.78125 18.9375 73 
Q 24.125 74.21875 28.421875 74.21875 
Q 39.75 74.21875 46.484375 68.546875 
Q 53.21875 62.890625 53.21875 53.421875 
Q 53.21875 48.921875 51.53125 44.890625 
Q 49.859375 40.875 45.40625 35.40625 
Q 44.1875 33.984375 37.640625 27.21875 
Q 31.109375 20.453125 19.1875 8.296875 
z
" id="DejaVuSans-32"/>
      </defs>
      <g transform="translate(129.542938 316.356875)scale(0.2 -0.2)">
       <use xlink:href="#DejaVuSans-32"/>
      </g>
     </g>
    </g>
    <g id="xtick_3">
     <g id="line2d_5">
      <path clip-path="url(#pac2f77e0e7)" d="M 214.970876 294.16 
L 214.970876 24.84 
" style="fill:none;stroke:#b0b0b0;stroke-linecap:square;stroke-width:0.8;"/>
     </g>
     <g id="line2d_6">
      <g>
       <use style="stroke:#000000;stroke-width:0.8;" x="214.970876" xlink:href="#me8eabcdc0a" y="294.16"/>
      </g>
     </g>
     <g id="text_3">
      <!-- 4 -->
      <defs>
       <path d="M 37.796875 64.3125 
L 12.890625 25.390625 
L 37.796875 25.390625 
z
M 35.203125 72.90625 
L 47.609375 72.90625 
L 47.609375 25.390625 
L 58.015625 25.390625 
L 58.015625 17.1875 
L 47.609375 17.1875 
L 47.609375 0 
L 37.796875 0 
L 37.796875 17.1875 
L 4.890625 17.1875 
L 4.890625 26.703125 
z
" id="DejaVuSans-34"/>
      </defs>
      <g transform="translate(208.608376 316.356875)scale(0.2 -0.2)">
       <use xlink:href="#DejaVuSans-34"/>
      </g>
     </g>
    </g>
    <g id="xtick_4">
     <g id="line2d_7">
      <path clip-path="url(#pac2f77e0e7)" d="M 294.036313 294.16 
L 294.036313 24.84 
" style="fill:none;stroke:#b0b0b0;stroke-linecap:square;stroke-width:0.8;"/>
     </g>
     <g id="line2d_8">
      <g>
       <use style="stroke:#000000;stroke-width:0.8;" x="294.036313" xlink:href="#me8eabcdc0a" y="294.16"/>
      </g>
     </g>
     <g id="text_4">
      <!-- 6 -->
      <defs>
       <path d="M 33.015625 40.375 
Q 26.375 40.375 22.484375 35.828125 
Q 18.609375 31.296875 18.609375 23.390625 
Q 18.609375 15.53125 22.484375 10.953125 
Q 26.375 6.390625 33.015625 6.390625 
Q 39.65625 6.390625 43.53125 10.953125 
Q 47.40625 15.53125 47.40625 23.390625 
Q 47.40625 31.296875 43.53125 35.828125 
Q 39.65625 40.375 33.015625 40.375 
z
M 52.59375 71.296875 
L 52.59375 62.3125 
Q 48.875 64.0625 45.09375 64.984375 
Q 41.3125 65.921875 37.59375 65.921875 
Q 27.828125 65.921875 22.671875 59.328125 
Q 17.53125 52.734375 16.796875 39.40625 
Q 19.671875 43.65625 24.015625 45.921875 
Q 28.375 48.1875 33.59375 48.1875 
Q 44.578125 48.1875 50.953125 41.515625 
Q 57.328125 34.859375 57.328125 23.390625 
Q 57.328125 12.15625 50.6875 5.359375 
Q 44.046875 -1.421875 33.015625 -1.421875 
Q 20.359375 -1.421875 13.671875 8.265625 
Q 6.984375 17.96875 6.984375 36.375 
Q 6.984375 53.65625 15.1875 63.9375 
Q 23.390625 74.21875 37.203125 74.21875 
Q 40.921875 74.21875 44.703125 73.484375 
Q 48.484375 72.75 52.59375 71.296875 
z
" id="DejaVuSans-36"/>
      </defs>
      <g transform="translate(287.673813 316.356875)scale(0.2 -0.2)">
       <use xlink:href="#DejaVuSans-36"/>
      </g>
     </g>
    </g>
    <g id="xtick_5">
     <g id="line2d_9">
      <path clip-path="url(#pac2f77e0e7)" d="M 373.101751 294.16 
L 373.101751 24.84 
" style="fill:none;stroke:#b0b0b0;stroke-linecap:square;stroke-width:0.8;"/>
     </g>
     <g id="line2d_10">
      <g>
       <use style="stroke:#000000;stroke-width:0.8;" x="373.101751" xlink:href="#me8eabcdc0a" y="294.16"/>
      </g>
     </g>
     <g id="text_5">
      <!-- 8 -->
      <defs>
       <path d="M 31.78125 34.625 
Q 24.75 34.625 20.71875 30.859375 
Q 16.703125 27.09375 16.703125 20.515625 
Q 16.703125 13.921875 20.71875 10.15625 
Q 24.75 6.390625 31.78125 6.390625 
Q 38.8125 6.390625 42.859375 10.171875 
Q 46.921875 13.96875 46.921875 20.515625 
Q 46.921875 27.09375 42.890625 30.859375 
Q 38.875 34.625 31.78125 34.625 
z
M 21.921875 38.8125 
Q 15.578125 40.375 12.03125 44.71875 
Q 8.5 49.078125 8.5 55.328125 
Q 8.5 64.0625 14.71875 69.140625 
Q 20.953125 74.21875 31.78125 74.21875 
Q 42.671875 74.21875 48.875 69.140625 
Q 55.078125 64.0625 55.078125 55.328125 
Q 55.078125 49.078125 51.53125 44.71875 
Q 48 40.375 41.703125 38.8125 
Q 48.828125 37.15625 52.796875 32.3125 
Q 56.78125 27.484375 56.78125 20.515625 
Q 56.78125 9.90625 50.3125 4.234375 
Q 43.84375 -1.421875 31.78125 -1.421875 
Q 19.734375 -1.421875 13.25 4.234375 
Q 6.78125 9.90625 6.78125 20.515625 
Q 6.78125 27.484375 10.78125 32.3125 
Q 14.796875 37.15625 21.921875 38.8125 
z
M 18.3125 54.390625 
Q 18.3125 48.734375 21.84375 45.5625 
Q 25.390625 42.390625 31.78125 42.390625 
Q 38.140625 42.390625 41.71875 45.5625 
Q 45.3125 48.734375 45.3125 54.390625 
Q 45.3125 60.0625 41.71875 63.234375 
Q 38.140625 66.40625 31.78125 66.40625 
Q 25.390625 66.40625 21.84375 63.234375 
Q 18.3125 60.0625 18.3125 54.390625 
z
" id="DejaVuSans-38"/>
      </defs>
      <g transform="translate(366.739251 316.356875)scale(0.2 -0.2)">
       <use xlink:href="#DejaVuSans-38"/>
      </g>
     </g>
    </g>
    <g id="text_6">
     <!-- log10(# f-evals / dimension) -->
     <defs>
      <path d="M 9.421875 75.984375 
L 18.40625 75.984375 
L 18.40625 0 
L 9.421875 0 
z
" id="DejaVuSans-6c"/>
      <path d="M 30.609375 48.390625 
Q 23.390625 48.390625 19.1875 42.75 
Q 14.984375 37.109375 14.984375 27.296875 
Q 14.984375 17.484375 19.15625 11.84375 
Q 23.34375 6.203125 30.609375 6.203125 
Q 37.796875 6.203125 41.984375 11.859375 
Q 46.1875 17.53125 46.1875 27.296875 
Q 46.1875 37.015625 41.984375 42.703125 
Q 37.796875 48.390625 30.609375 48.390625 
z
M 30.609375 56 
Q 42.328125 56 49.015625 48.375 
Q 55.71875 40.765625 55.71875 27.296875 
Q 55.71875 13.875 49.015625 6.21875 
Q 42.328125 -1.421875 30.609375 -1.421875 
Q 18.84375 -1.421875 12.171875 6.21875 
Q 5.515625 13.875 5.515625 27.296875 
Q 5.515625 40.765625 12.171875 48.375 
Q 18.84375 56 30.609375 56 
z
" id="DejaVuSans-6f"/>
      <path d="M 45.40625 27.984375 
Q 45.40625 37.75 41.375 43.109375 
Q 37.359375 48.484375 30.078125 48.484375 
Q 22.859375 48.484375 18.828125 43.109375 
Q 14.796875 37.75 14.796875 27.984375 
Q 14.796875 18.265625 18.828125 12.890625 
Q 22.859375 7.515625 30.078125 7.515625 
Q 37.359375 7.515625 41.375 12.890625 
Q 45.40625 18.265625 45.40625 27.984375 
z
M 54.390625 6.78125 
Q 54.390625 -7.171875 48.1875 -13.984375 
Q 42 -20.796875 29.203125 -20.796875 
Q 24.46875 -20.796875 20.265625 -20.09375 
Q 16.0625 -19.390625 12.109375 -17.921875 
L 12.109375 -9.1875 
Q 16.0625 -11.328125 19.921875 -12.34375 
Q 23.78125 -13.375 27.78125 -13.375 
Q 36.625 -13.375 41.015625 -8.765625 
Q 45.40625 -4.15625 45.40625 5.171875 
L 45.40625 9.625 
Q 42.625 4.78125 38.28125 2.390625 
Q 33.9375 0 27.875 0 
Q 17.828125 0 11.671875 7.65625 
Q 5.515625 15.328125 5.515625 27.984375 
Q 5.515625 40.671875 11.671875 48.328125 
Q 17.828125 56 27.875 56 
Q 33.9375 56 38.28125 53.609375 
Q 42.625 51.21875 45.40625 46.390625 
L 45.40625 54.6875 
L 54.390625 54.6875 
z
" id="DejaVuSans-67"/>
      <path d="M 12.40625 8.296875 
L 28.515625 8.296875 
L 28.515625 63.921875 
L 10.984375 60.40625 
L 10.984375 69.390625 
L 28.421875 72.90625 
L 38.28125 72.90625 
L 38.28125 8.296875 
L 54.390625 8.296875 
L 54.390625 0 
L 12.40625 0 
z
" id="DejaVuSans-31"/>
      <path d="M 31 75.875 
Q 24.46875 64.65625 21.28125 53.65625 
Q 18.109375 42.671875 18.109375 31.390625 
Q 18.109375 20.125 21.3125 9.0625 
Q 24.515625 -2 31 -13.1875 
L 23.1875 -13.1875 
Q 15.875 -1.703125 12.234375 9.375 
Q 8.59375 20.453125 8.59375 31.390625 
Q 8.59375 42.28125 12.203125 53.3125 
Q 15.828125 64.359375 23.1875 75.875 
z
" id="DejaVuSans-28"/>
      <path d="M 51.125 44 
L 36.921875 44 
L 32.8125 27.6875 
L 47.125 27.6875 
z
M 43.796875 71.78125 
L 38.71875 51.515625 
L 52.984375 51.515625 
L 58.109375 71.78125 
L 65.921875 71.78125 
L 60.890625 51.515625 
L 76.125 51.515625 
L 76.125 44 
L 58.984375 44 
L 54.984375 27.6875 
L 70.515625 27.6875 
L 70.515625 20.21875 
L 53.078125 20.21875 
L 48 0 
L 40.1875 0 
L 45.21875 20.21875 
L 30.90625 20.21875 
L 25.875 0 
L 18.015625 0 
L 23.09375 20.21875 
L 7.71875 20.21875 
L 7.71875 27.6875 
L 24.90625 27.6875 
L 29 44 
L 13.28125 44 
L 13.28125 51.515625 
L 30.90625 51.515625 
L 35.890625 71.78125 
z
" id="DejaVuSans-23"/>
      <path id="DejaVuSans-20"/>
      <path d="M 37.109375 75.984375 
L 37.109375 68.5 
L 28.515625 68.5 
Q 23.6875 68.5 21.796875 66.546875 
Q 19.921875 64.59375 19.921875 59.515625 
L 19.921875 54.6875 
L 34.71875 54.6875 
L 34.71875 47.703125 
L 19.921875 47.703125 
L 19.921875 0 
L 10.890625 0 
L 10.890625 47.703125 
L 2.296875 47.703125 
L 2.296875 54.6875 
L 10.890625 54.6875 
L 10.890625 58.5 
Q 10.890625 67.625 15.140625 71.796875 
Q 19.390625 75.984375 28.609375 75.984375 
z
" id="DejaVuSans-66"/>
      <path d="M 4.890625 31.390625 
L 31.203125 31.390625 
L 31.203125 23.390625 
L 4.890625 23.390625 
z
" id="DejaVuSans-2d"/>
      <path d="M 56.203125 29.59375 
L 56.203125 25.203125 
L 14.890625 25.203125 
Q 15.484375 15.921875 20.484375 11.0625 
Q 25.484375 6.203125 34.421875 6.203125 
Q 39.59375 6.203125 44.453125 7.46875 
Q 49.3125 8.734375 54.109375 11.28125 
L 54.109375 2.78125 
Q 49.265625 0.734375 44.1875 -0.34375 
Q 39.109375 -1.421875 33.890625 -1.421875 
Q 20.796875 -1.421875 13.15625 6.1875 
Q 5.515625 13.8125 5.515625 26.8125 
Q 5.515625 40.234375 12.765625 48.109375 
Q 20.015625 56 32.328125 56 
Q 43.359375 56 49.78125 48.890625 
Q 56.203125 41.796875 56.203125 29.59375 
z
M 47.21875 32.234375 
Q 47.125 39.59375 43.09375 43.984375 
Q 39.0625 48.390625 32.421875 48.390625 
Q 24.90625 48.390625 20.390625 44.140625 
Q 15.875 39.890625 15.1875 32.171875 
z
" id="DejaVuSans-65"/>
      <path d="M 2.984375 54.6875 
L 12.5 54.6875 
L 29.59375 8.796875 
L 46.6875 54.6875 
L 56.203125 54.6875 
L 35.6875 0 
L 23.484375 0 
z
" id="DejaVuSans-76"/>
      <path d="M 34.28125 27.484375 
Q 23.390625 27.484375 19.1875 25 
Q 14.984375 22.515625 14.984375 16.5 
Q 14.984375 11.71875 18.140625 8.90625 
Q 21.296875 6.109375 26.703125 6.109375 
Q 34.1875 6.109375 38.703125 11.40625 
Q 43.21875 16.703125 43.21875 25.484375 
L 43.21875 27.484375 
z
M 52.203125 31.203125 
L 52.203125 0 
L 43.21875 0 
L 43.21875 8.296875 
Q 40.140625 3.328125 35.546875 0.953125 
Q 30.953125 -1.421875 24.3125 -1.421875 
Q 15.921875 -1.421875 10.953125 3.296875 
Q 6 8.015625 6 15.921875 
Q 6 25.140625 12.171875 29.828125 
Q 18.359375 34.515625 30.609375 34.515625 
L 43.21875 34.515625 
L 43.21875 35.40625 
Q 43.21875 41.609375 39.140625 45 
Q 35.0625 48.390625 27.6875 48.390625 
Q 23 48.390625 18.546875 47.265625 
Q 14.109375 46.140625 10.015625 43.890625 
L 10.015625 52.203125 
Q 14.9375 54.109375 19.578125 55.046875 
Q 24.21875 56 28.609375 56 
Q 40.484375 56 46.34375 49.84375 
Q 52.203125 43.703125 52.203125 31.203125 
z
" id="DejaVuSans-61"/>
      <path d="M 44.28125 53.078125 
L 44.28125 44.578125 
Q 40.484375 46.53125 36.375 47.5 
Q 32.28125 48.484375 27.875 48.484375 
Q 21.1875 48.484375 17.84375 46.4375 
Q 14.5 44.390625 14.5 40.28125 
Q 14.5 37.15625 16.890625 35.375 
Q 19.28125 33.59375 26.515625 31.984375 
L 29.59375 31.296875 
Q 39.15625 29.25 43.1875 25.515625 
Q 47.21875 21.78125 47.21875 15.09375 
Q 47.21875 7.46875 41.1875 3.015625 
Q 35.15625 -1.421875 24.609375 -1.421875 
Q 20.21875 -1.421875 15.453125 -0.5625 
Q 10.6875 0.296875 5.421875 2 
L 5.421875 11.28125 
Q 10.40625 8.6875 15.234375 7.390625 
Q 20.0625 6.109375 24.8125 6.109375 
Q 31.15625 6.109375 34.5625 8.28125 
Q 37.984375 10.453125 37.984375 14.40625 
Q 37.984375 18.0625 35.515625 20.015625 
Q 33.0625 21.96875 24.703125 23.78125 
L 21.578125 24.515625 
Q 13.234375 26.265625 9.515625 29.90625 
Q 5.8125 33.546875 5.8125 39.890625 
Q 5.8125 47.609375 11.28125 51.796875 
Q 16.75 56 26.8125 56 
Q 31.78125 56 36.171875 55.265625 
Q 40.578125 54.546875 44.28125 53.078125 
z
" id="DejaVuSans-73"/>
      <path d="M 25.390625 72.90625 
L 33.6875 72.90625 
L 8.296875 -9.28125 
L 0 -9.28125 
z
" id="DejaVuSans-2f"/>
      <path d="M 45.40625 46.390625 
L 45.40625 75.984375 
L 54.390625 75.984375 
L 54.390625 0 
L 45.40625 0 
L 45.40625 8.203125 
Q 42.578125 3.328125 38.25 0.953125 
Q 33.9375 -1.421875 27.875 -1.421875 
Q 17.96875 -1.421875 11.734375 6.484375 
Q 5.515625 14.40625 5.515625 27.296875 
Q 5.515625 40.1875 11.734375 48.09375 
Q 17.96875 56 27.875 56 
Q 33.9375 56 38.25 53.625 
Q 42.578125 51.265625 45.40625 46.390625 
z
M 14.796875 27.296875 
Q 14.796875 17.390625 18.875 11.75 
Q 22.953125 6.109375 30.078125 6.109375 
Q 37.203125 6.109375 41.296875 11.75 
Q 45.40625 17.390625 45.40625 27.296875 
Q 45.40625 37.203125 41.296875 42.84375 
Q 37.203125 48.484375 30.078125 48.484375 
Q 22.953125 48.484375 18.875 42.84375 
Q 14.796875 37.203125 14.796875 27.296875 
z
" id="DejaVuSans-64"/>
      <path d="M 9.421875 54.6875 
L 18.40625 54.6875 
L 18.40625 0 
L 9.421875 0 
z
M 9.421875 75.984375 
L 18.40625 75.984375 
L 18.40625 64.59375 
L 9.421875 64.59375 
z
" id="DejaVuSans-69"/>
      <path d="M 52 44.1875 
Q 55.375 50.25 60.0625 53.125 
Q 64.75 56 71.09375 56 
Q 79.640625 56 84.28125 50.015625 
Q 88.921875 44.046875 88.921875 33.015625 
L 88.921875 0 
L 79.890625 0 
L 79.890625 32.71875 
Q 79.890625 40.578125 77.09375 44.375 
Q 74.3125 48.1875 68.609375 48.1875 
Q 61.625 48.1875 57.5625 43.546875 
Q 53.515625 38.921875 53.515625 30.90625 
L 53.515625 0 
L 44.484375 0 
L 44.484375 32.71875 
Q 44.484375 40.625 41.703125 44.40625 
Q 38.921875 48.1875 33.109375 48.1875 
Q 26.21875 48.1875 22.15625 43.53125 
Q 18.109375 38.875 18.109375 30.90625 
L 18.109375 0 
L 9.078125 0 
L 9.078125 54.6875 
L 18.109375 54.6875 
L 18.109375 46.1875 
Q 21.1875 51.21875 25.484375 53.609375 
Q 29.78125 56 35.6875 56 
Q 41.65625 56 45.828125 52.96875 
Q 50 49.953125 52 44.1875 
z
" id="DejaVuSans-6d"/>
      <path d="M 54.890625 33.015625 
L 54.890625 0 
L 45.90625 0 
L 45.90625 32.71875 
Q 45.90625 40.484375 42.875 44.328125 
Q 39.84375 48.1875 33.796875 48.1875 
Q 26.515625 48.1875 22.3125 43.546875 
Q 18.109375 38.921875 18.109375 30.90625 
L 18.109375 0 
L 9.078125 0 
L 9.078125 54.6875 
L 18.109375 54.6875 
L 18.109375 46.1875 
Q 21.34375 51.125 25.703125 53.5625 
Q 30.078125 56 35.796875 56 
Q 45.21875 56 50.046875 50.171875 
Q 54.890625 44.34375 54.890625 33.015625 
z
" id="DejaVuSans-6e"/>
      <path d="M 8.015625 75.875 
L 15.828125 75.875 
Q 23.140625 64.359375 26.78125 53.3125 
Q 30.421875 42.28125 30.421875 31.390625 
Q 30.421875 20.453125 26.78125 9.375 
Q 23.140625 -1.703125 15.828125 -13.1875 
L 8.015625 -13.1875 
Q 14.5 -2 17.703125 9.0625 
Q 20.90625 20.125 20.90625 31.390625 
Q 20.90625 42.671875 17.703125 53.65625 
Q 14.5 64.65625 8.015625 75.875 
z
" id="DejaVuSans-29"/>
     </defs>
     <g transform="translate(107.571219 337.433594)scale(0.17 -0.17)">
      <use xlink:href="#DejaVuSans-6c"/>
      <use x="27.783203" xlink:href="#DejaVuSans-6f"/>
      <use x="88.964844" xlink:href="#DejaVuSans-67"/>
      <use x="152.441406" xlink:href="#DejaVuSans-31"/>
      <use x="216.064453" xlink:href="#DejaVuSans-30"/>
      <use x="279.6875" xlink:href="#DejaVuSans-28"/>
      <use x="318.701172" xlink:href="#DejaVuSans-23"/>
      <use x="402.490234" xlink:href="#DejaVuSans-20"/>
      <use x="434.277344" xlink:href="#DejaVuSans-66"/>
      <use x="469.404297" xlink:href="#DejaVuSans-2d"/>
      <use x="505.488281" xlink:href="#DejaVuSans-65"/>
      <use x="567.011719" xlink:href="#DejaVuSans-76"/>
      <use x="626.191406" xlink:href="#DejaVuSans-61"/>
      <use x="687.470703" xlink:href="#DejaVuSans-6c"/>
      <use x="715.253906" xlink:href="#DejaVuSans-73"/>
      <use x="767.353516" xlink:href="#DejaVuSans-20"/>
      <use x="799.140625" xlink:href="#DejaVuSans-2f"/>
      <use x="832.832031" xlink:href="#DejaVuSans-20"/>
      <use x="864.619141" xlink:href="#DejaVuSans-64"/>
      <use x="928.095703" xlink:href="#DejaVuSans-69"/>
      <use x="955.878906" xlink:href="#DejaVuSans-6d"/>
      <use x="1053.291016" xlink:href="#DejaVuSans-65"/>
      <use x="1114.814453" xlink:href="#DejaVuSans-6e"/>
      <use x="1178.193359" xlink:href="#DejaVuSans-73"/>
      <use x="1230.292969" xlink:href="#DejaVuSans-69"/>
      <use x="1258.076172" xlink:href="#DejaVuSans-6f"/>
      <use x="1319.257812" xlink:href="#DejaVuSans-6e"/>
      <use x="1382.636719" xlink:href="#DejaVuSans-29"/>
     </g>
    </g>
   </g>
   <g id="matplotlib.axis_2">
    <g id="ytick_1">
     <g id="line2d_11">
      <path clip-path="url(#pac2f77e0e7)" d="M 56.84 294.16 
L 399.984 294.16 
" style="fill:none;stroke:#b0b0b0;stroke-linecap:square;stroke-width:0.8;"/>
     </g>
     <g id="line2d_12">
      <defs>
       <path d="M 0 0 
L -3.5 0 
" id="m1b927da5bd" style="stroke:#000000;stroke-width:0.8;"/>
      </defs>
      <g>
       <use style="stroke:#000000;stroke-width:0.8;" x="56.84" xlink:href="#m1b927da5bd" y="294.16"/>
      </g>
     </g>
     <g id="text_7">
      <!-- 0.0 -->
      <defs>
       <path d="M 10.6875 12.40625 
L 21 12.40625 
L 21 0 
L 10.6875 0 
z
" id="DejaVuSans-2e"/>
      </defs>
      <g transform="translate(24.395 300.23875)scale(0.16 -0.16)">
       <use xlink:href="#DejaVuSans-30"/>
       <use x="63.623047" xlink:href="#DejaVuSans-2e"/>
       <use x="95.410156" xlink:href="#DejaVuSans-30"/>
      </g>
     </g>
    </g>
    <g id="ytick_2">
     <g id="line2d_13">
      <path clip-path="url(#pac2f77e0e7)" d="M 56.84 240.829307 
L 399.984 240.829307 
" style="fill:none;stroke:#b0b0b0;stroke-linecap:square;stroke-width:0.8;"/>
     </g>
     <g id="line2d_14">
      <g>
       <use style="stroke:#000000;stroke-width:0.8;" x="56.84" xlink:href="#m1b927da5bd" y="240.829307"/>
      </g>
     </g>
     <g id="text_8">
      <!-- 0.2 -->
      <g transform="translate(24.395 246.908057)scale(0.16 -0.16)">
       <use xlink:href="#DejaVuSans-30"/>
       <use x="63.623047" xlink:href="#DejaVuSans-2e"/>
       <use x="95.410156" xlink:href="#DejaVuSans-32"/>
      </g>
     </g>
    </g>
    <g id="ytick_3">
     <g id="line2d_15">
      <path clip-path="url(#pac2f77e0e7)" d="M 56.84 187.498614 
L 399.984 187.498614 
" style="fill:none;stroke:#b0b0b0;stroke-linecap:square;stroke-width:0.8;"/>
     </g>
     <g id="line2d_16">
      <g>
       <use style="stroke:#000000;stroke-width:0.8;" x="56.84" xlink:href="#m1b927da5bd" y="187.498614"/>
      </g>
     </g>
     <g id="text_9">
      <!-- 0.4 -->
      <g transform="translate(24.395 193.577364)scale(0.16 -0.16)">
       <use xlink:href="#DejaVuSans-30"/>
       <use x="63.623047" xlink:href="#DejaVuSans-2e"/>
       <use x="95.410156" xlink:href="#DejaVuSans-34"/>
      </g>
     </g>
    </g>
    <g id="ytick_4">
     <g id="line2d_17">
      <path clip-path="url(#pac2f77e0e7)" d="M 56.84 134.167921 
L 399.984 134.167921 
" style="fill:none;stroke:#b0b0b0;stroke-linecap:square;stroke-width:0.8;"/>
     </g>
     <g id="line2d_18">
      <g>
       <use style="stroke:#000000;stroke-width:0.8;" x="56.84" xlink:href="#m1b927da5bd" y="134.167921"/>
      </g>
     </g>
     <g id="text_10">
      <!-- 0.6 -->
      <g transform="translate(24.395 140.246671)scale(0.16 -0.16)">
       <use xlink:href="#DejaVuSans-30"/>
       <use x="63.623047" xlink:href="#DejaVuSans-2e"/>
       <use x="95.410156" xlink:href="#DejaVuSans-36"/>
      </g>
     </g>
    </g>
    <g id="ytick_5">
     <g id="line2d_19">
      <path clip-path="url(#pac2f77e0e7)" d="M 56.84 80.837228 
L 399.984 80.837228 
" style="fill:none;stroke:#b0b0b0;stroke-linecap:square;stroke-width:0.8;"/>
     </g>
     <g id="line2d_20">
      <g>
       <use style="stroke:#000000;stroke-width:0.8;" x="56.84" xlink:href="#m1b927da5bd" y="80.837228"/>
      </g>
     </g>
     <g id="text_11">
      <!-- 0.8 -->
      <g transform="translate(24.395 86.915978)scale(0.16 -0.16)">
       <use xlink:href="#DejaVuSans-30"/>
       <use x="63.623047" xlink:href="#DejaVuSans-2e"/>
       <use x="95.410156" xlink:href="#DejaVuSans-38"/>
      </g>
     </g>
    </g>
    <g id="ytick_6">
     <g id="line2d_21">
      <path clip-path="url(#pac2f77e0e7)" d="M 56.84 27.506535 
L 399.984 27.506535 
" style="fill:none;stroke:#b0b0b0;stroke-linecap:square;stroke-width:0.8;"/>
     </g>
     <g id="line2d_22">
      <g>
       <use style="stroke:#000000;stroke-width:0.8;" x="56.84" xlink:href="#m1b927da5bd" y="27.506535"/>
      </g>
     </g>
     <g id="text_12">
      <!-- 1.0 -->
      <g transform="translate(24.395 33.585285)scale(0.16 -0.16)">
       <use xlink:href="#DejaVuSans-31"/>
       <use x="63.623047" xlink:href="#DejaVuSans-2e"/>
       <use x="95.410156" xlink:href="#DejaVuSans-30"/>
      </g>
     </g>
    </g>
    <g id="text_13">
     <!-- Fraction of function,target pairs -->
     <defs>
      <path d="M 9.8125 72.90625 
L 51.703125 72.90625 
L 51.703125 64.59375 
L 19.671875 64.59375 
L 19.671875 43.109375 
L 48.578125 43.109375 
L 48.578125 34.8125 
L 19.671875 34.8125 
L 19.671875 0 
L 9.8125 0 
z
" id="DejaVuSans-46"/>
      <path d="M 41.109375 46.296875 
Q 39.59375 47.171875 37.8125 47.578125 
Q 36.03125 48 33.890625 48 
Q 26.265625 48 22.1875 43.046875 
Q 18.109375 38.09375 18.109375 28.8125 
L 18.109375 0 
L 9.078125 0 
L 9.078125 54.6875 
L 18.109375 54.6875 
L 18.109375 46.1875 
Q 20.953125 51.171875 25.484375 53.578125 
Q 30.03125 56 36.53125 56 
Q 37.453125 56 38.578125 55.875 
Q 39.703125 55.765625 41.0625 55.515625 
z
" id="DejaVuSans-72"/>
      <path d="M 48.78125 52.59375 
L 48.78125 44.1875 
Q 44.96875 46.296875 41.140625 47.34375 
Q 37.3125 48.390625 33.40625 48.390625 
Q 24.65625 48.390625 19.8125 42.84375 
Q 14.984375 37.3125 14.984375 27.296875 
Q 14.984375 17.28125 19.8125 11.734375 
Q 24.65625 6.203125 33.40625 6.203125 
Q 37.3125 6.203125 41.140625 7.25 
Q 44.96875 8.296875 48.78125 10.40625 
L 48.78125 2.09375 
Q 45.015625 0.34375 40.984375 -0.53125 
Q 36.96875 -1.421875 32.421875 -1.421875 
Q 20.0625 -1.421875 12.78125 6.34375 
Q 5.515625 14.109375 5.515625 27.296875 
Q 5.515625 40.671875 12.859375 48.328125 
Q 20.21875 56 33.015625 56 
Q 37.15625 56 41.109375 55.140625 
Q 45.0625 54.296875 48.78125 52.59375 
z
" id="DejaVuSans-63"/>
      <path d="M 18.3125 70.21875 
L 18.3125 54.6875 
L 36.8125 54.6875 
L 36.8125 47.703125 
L 18.3125 47.703125 
L 18.3125 18.015625 
Q 18.3125 11.328125 20.140625 9.421875 
Q 21.96875 7.515625 27.59375 7.515625 
L 36.8125 7.515625 
L 36.8125 0 
L 27.59375 0 
Q 17.1875 0 13.234375 3.875 
Q 9.28125 7.765625 9.28125 18.015625 
L 9.28125 47.703125 
L 2.6875 47.703125 
L 2.6875 54.6875 
L 9.28125 54.6875 
L 9.28125 70.21875 
z
" id="DejaVuSans-74"/>
      <path d="M 8.5 21.578125 
L 8.5 54.6875 
L 17.484375 54.6875 
L 17.484375 21.921875 
Q 17.484375 14.15625 20.5 10.265625 
Q 23.53125 6.390625 29.59375 6.390625 
Q 36.859375 6.390625 41.078125 11.03125 
Q 45.3125 15.671875 45.3125 23.6875 
L 45.3125 54.6875 
L 54.296875 54.6875 
L 54.296875 0 
L 45.3125 0 
L 45.3125 8.40625 
Q 42.046875 3.421875 37.71875 1 
Q 33.40625 -1.421875 27.6875 -1.421875 
Q 18.265625 -1.421875 13.375 4.4375 
Q 8.5 10.296875 8.5 21.578125 
z
M 31.109375 56 
z
" id="DejaVuSans-75"/>
      <path d="M 11.71875 12.40625 
L 22.015625 12.40625 
L 22.015625 4 
L 14.015625 -11.625 
L 7.71875 -11.625 
L 11.71875 4 
z
" id="DejaVuSans-2c"/>
      <path d="M 18.109375 8.203125 
L 18.109375 -20.796875 
L 9.078125 -20.796875 
L 9.078125 54.6875 
L 18.109375 54.6875 
L 18.109375 46.390625 
Q 20.953125 51.265625 25.265625 53.625 
Q 29.59375 56 35.59375 56 
Q 45.5625 56 51.78125 48.09375 
Q 58.015625 40.1875 58.015625 27.296875 
Q 58.015625 14.40625 51.78125 6.484375 
Q 45.5625 -1.421875 35.59375 -1.421875 
Q 29.59375 -1.421875 25.265625 0.953125 
Q 20.953125 3.328125 18.109375 8.203125 
z
M 48.6875 27.296875 
Q 48.6875 37.203125 44.609375 42.84375 
Q 40.53125 48.484375 33.40625 48.484375 
Q 26.265625 48.484375 22.1875 42.84375 
Q 18.109375 37.203125 18.109375 27.296875 
Q 18.109375 17.390625 22.1875 11.75 
Q 26.265625 6.109375 33.40625 6.109375 
Q 40.53125 6.109375 44.609375 11.75 
Q 48.6875 17.390625 48.6875 27.296875 
z
" id="DejaVuSans-70"/>
     </defs>
     <g transform="translate(16.859531 294.639375)rotate(-90)scale(0.17 -0.17)">
      <use xlink:href="#DejaVuSans-46"/>
      <use x="57.410156" xlink:href="#DejaVuSans-72"/>
      <use x="98.523438" xlink:href="#DejaVuSans-61"/>
      <use x="159.802734" xlink:href="#DejaVuSans-63"/>
      <use x="214.783203" xlink:href="#DejaVuSans-74"/>
      <use x="253.992188" xlink:href="#DejaVuSans-69"/>
      <use x="281.775391" xlink:href="#DejaVuSans-6f"/>
      <use x="342.957031" xlink:href="#DejaVuSans-6e"/>
      <use x="406.335938" xlink:href="#DejaVuSans-20"/>
      <use x="438.123047" xlink:href="#DejaVuSans-6f"/>
      <use x="499.304688" xlink:href="#DejaVuSans-66"/>
      <use x="534.509766" xlink:href="#DejaVuSans-20"/>
      <use x="566.296875" xlink:href="#DejaVuSans-66"/>
      <use x="601.501953" xlink:href="#DejaVuSans-75"/>
      <use x="664.880859" xlink:href="#DejaVuSans-6e"/>
      <use x="728.259766" xlink:href="#DejaVuSans-63"/>
      <use x="783.240234" xlink:href="#DejaVuSans-74"/>
      <use x="822.449219" xlink:href="#DejaVuSans-69"/>
      <use x="850.232422" xlink:href="#DejaVuSans-6f"/>
      <use x="911.414062" xlink:href="#DejaVuSans-6e"/>
      <use x="974.792969" xlink:href="#DejaVuSans-2c"/>
      <use x="1006.580078" xlink:href="#DejaVuSans-74"/>
      <use x="1045.789062" xlink:href="#DejaVuSans-61"/>
      <use x="1107.068359" xlink:href="#DejaVuSans-72"/>
      <use x="1148.166016" xlink:href="#DejaVuSans-67"/>
      <use x="1211.642578" xlink:href="#DejaVuSans-65"/>
      <use x="1273.166016" xlink:href="#DejaVuSans-74"/>
      <use x="1312.375" xlink:href="#DejaVuSans-20"/>
      <use x="1344.162109" xlink:href="#DejaVuSans-70"/>
      <use x="1407.638672" xlink:href="#DejaVuSans-61"/>
      <use x="1468.917969" xlink:href="#DejaVuSans-69"/>
      <use x="1496.701172" xlink:href="#DejaVuSans-72"/>
      <use x="1537.814453" xlink:href="#DejaVuSans-73"/>
     </g>
    </g>
   </g>
   <g id="line2d_23">
    <defs>
     <path d="M 0 1.5 
C 0.397805 1.5 0.77937 1.341951 1.06066 1.06066 
C 1.341951 0.77937 1.5 0.397805 1.5 0 
C 1.5 -0.397805 1.341951 -0.77937 1.06066 -1.06066 
C 0.77937 -1.341951 0.397805 -1.5 0 -1.5 
C -0.397805 -1.5 -0.77937 -1.341951 -1.06066 -1.06066 
C -1.341951 -0.77937 -1.5 -0.397805 -1.5 0 
C -1.5 0.397805 -1.341951 0.77937 -1.06066 1.06066 
C -0.77937 1.341951 -0.397805 1.5 0 1.5 
z
" id="maf6be94578" style="stroke:#00bfbf;"/>
    </defs>
    <g>
     <use style="fill:#00bfbf;stroke:#00bfbf;" x="290.192466" xlink:href="#maf6be94578" y="111.162524"/>
     <use style="fill:#00bfbf;stroke:#00bfbf;" x="290.192466" xlink:href="#maf6be94578" y="111.162524"/>
    </g>
   </g>
   <g id="line2d_24">
    <path d="M 44.939466 294.16 
L 44.939466 289.454351 
L 56.84 289.454351 
L 56.84 284.225851 
L 63.801366 284.225851 
L 63.801366 282.657301 
L 68.740534 282.657301 
L 68.740534 279.520202 
L 72.57165 279.520202 
L 72.57165 276.905952 
L 75.7019 276.905952 
L 75.7019 276.383102 
L 78.348489 276.383102 
L 78.348489 275.860252 
L 80.641068 275.860252 
L 80.641068 275.337402 
L 82.663267 275.337402 
L 82.663267 274.814553 
L 84.472185 274.814553 
L 84.472185 274.291703 
L 86.10855 274.291703 
L 86.10855 273.768853 
L 87.602435 273.768853 
L 87.602435 273.246003 
L 90.249023 273.246003 
L 90.249023 272.723153 
L 92.541603 272.723153 
L 92.541603 272.200303 
L 93.582457 272.200303 
L 93.582457 271.677453 
L 94.563801 271.677453 
L 94.563801 271.154603 
L 98.009084 271.154603 
L 98.009084 270.631753 
L 99.502969 270.631753 
L 99.502969 270.108903 
L 100.203835 270.108903 
L 100.203835 269.586053 
L 102.149557 269.586053 
L 102.149557 268.540353 
L 103.897048 268.540353 
L 103.897048 268.017503 
L 106.464335 268.017503 
L 106.464335 267.494653 
L 109.909618 267.494653 
L 109.909618 266.971804 
L 112.104369 266.971804 
L 112.104369 266.448954 
L 112.777744 266.448954 
L 112.777744 265.926104 
L 113.104779 265.926104 
L 113.104779 264.880404 
L 114.652569 264.880404 
L 114.652569 264.357554 
L 115.234619 264.357554 
L 115.234619 263.834704 
L 115.518408 263.834704 
L 115.518408 263.311854 
L 116.342671 263.311854 
L 116.342671 262.789004 
L 118.124742 262.789004 
L 118.124742 262.266154 
L 118.364869 262.266154 
L 118.364869 261.743304 
L 124.175739 261.743304 
L 124.175739 261.220454 
L 124.344892 261.220454 
L 124.344892 260.697604 
L 124.512394 260.697604 
L 124.512394 260.174754 
L 125.484475 260.174754 
L 125.484475 259.651904 
L 125.950626 259.651904 
L 125.950626 259.129055 
L 126.700476 259.129055 
L 126.700476 258.606205 
L 126.846595 258.606205 
L 126.846595 258.083355 
L 126.99148 258.083355 
L 126.99148 257.560505 
L 127.972824 257.560505 
L 127.972824 257.037655 
L 128.509394 257.037655 
L 128.509394 256.514805 
L 129.534704 256.514805 
L 129.534704 255.991955 
L 131.080349 255.991955 
L 131.080349 255.469105 
L 132.602635 255.469105 
L 132.602635 254.946255 
L 133.415513 254.946255 
L 133.415513 254.423405 
L 134.380309 254.423405 
L 134.473872 253.377705 
L 137.22677 253.377705 
L 137.22677 252.854855 
L 137.85116 252.854855 
L 137.85116 252.332005 
L 138.079574 252.332005 
L 138.079574 251.809156 
L 139.667741 251.809156 
L 139.667741 251.286306 
L 140.80163 251.286306 
L 140.80163 250.763456 
L 141.121357 250.763456 
L 141.121357 250.240606 
L 142.751962 250.240606 
L 142.751962 249.717756 
L 143.094209 249.717756 
L 143.094209 249.194906 
L 143.867214 249.194906 
L 143.974856 247.103506 
L 144.188136 247.103506 
L 144.188136 246.580656 
L 144.451064 246.580656 
L 144.555118 245.012106 
L 145.116408 245.012106 
L 145.116408 244.489256 
L 145.365597 244.489256 
L 145.365597 243.966407 
L 145.562377 243.966407 
L 145.562377 242.920707 
L 147.105106 242.920707 
L 147.105106 242.397857 
L 147.590009 242.397857 
L 147.590009 241.875007 
L 147.848841 241.875007 
L 147.848841 241.352157 
L 148.602716 241.352157 
L 148.602716 240.829307 
L 149.597713 240.829307 
L 149.597713 239.783607 
L 149.942249 239.783607 
L 149.942249 239.260757 
L 150.093185 239.260757 
L 150.093185 238.737907 
L 150.864536 238.737907 
L 150.864536 238.215057 
L 151.290231 238.215057 
L 151.290231 237.692207 
L 151.637088 237.692207 
L 151.705627 236.646507 
L 153.582811 236.646507 
L 153.582811 236.123658 
L 153.916786 236.123658 
L 153.916786 235.600808 
L 156.966667 235.600808 
L 156.966667 235.077958 
L 160.046494 235.077958 
L 160.046494 234.555108 
L 161.974925 234.555108 
L 161.974925 234.032258 
L 163.050036 234.032258 
L 163.050036 233.509408 
L 164.19448 233.509408 
L 164.227497 232.463708 
L 165.329363 232.463708 
L 165.344824 231.418008 
L 166.203821 231.418008 
L 166.218514 230.372308 
L 166.509766 230.372308 
L 166.509766 229.849458 
L 167.86956 229.849458 
L 167.86956 228.803758 
L 168.081688 228.803758 
L 168.081688 228.280909 
L 169.166665 228.280909 
L 169.166665 227.758059 
L 169.32672 227.758059 
L 169.32672 227.235209 
L 170.034938 227.235209 
L 170.034938 226.712359 
L 170.314871 226.712359 
L 170.314871 225.666659 
L 170.430176 225.666659 
L 170.430176 225.143809 
L 170.601694 225.143809 
L 170.658488 224.098109 
L 170.726394 224.098109 
L 170.737686 223.052409 
L 170.894993 223.052409 
L 170.894993 222.529559 
L 171.873229 222.529559 
L 171.873229 222.006709 
L 172.228748 222.006709 
L 172.290729 220.43816 
L 175.012282 220.43816 
L 175.012282 219.91531 
L 175.727574 219.91531 
L 175.794969 218.86961 
L 177.20668 218.86961 
L 177.20668 218.34676 
L 177.445087 218.34676 
L 177.445087 217.82391 
L 177.566852 217.82391 
L 177.566852 217.30106 
L 177.800343 217.30106 
L 177.882437 215.73251 
L 178.001151 215.73251 
L 178.001151 215.20966 
L 178.119049 215.20966 
L 178.119049 214.68681 
L 178.575559 214.68681 
L 178.575559 213.64111 
L 179.06895 213.64111 
L 179.075897 212.595411 
L 179.186664 212.595411 
L 179.186664 212.072561 
L 181.085744 212.072561 
L 181.085744 211.026861 
L 182.116783 211.026861 
L 182.116783 210.504011 
L 182.439537 210.504011 
L 182.439537 209.981161 
L 182.873643 209.981161 
L 182.873643 209.458311 
L 183.149764 209.458311 
L 183.149764 208.935461 
L 185.148817 208.935461 
L 185.148817 208.412611 
L 185.33794 208.412611 
L 185.33794 207.889761 
L 185.462875 207.889761 
L 185.558364 205.798361 
L 187.496773 205.798361 
L 187.496773 205.275512 
L 188.423925 205.275512 
L 188.423925 204.752662 
L 189.402806 204.752662 
L 189.406612 203.706962 
L 189.764348 203.706962 
L 189.84614 202.661262 
L 189.964419 202.661262 
L 190.059924 201.615562 
L 190.411616 201.615562 
L 190.411616 201.092712 
L 190.611422 201.092712 
L 190.611422 200.569862 
L 191.398342 200.569862 
L 191.398342 200.047012 
L 191.513161 200.047012 
L 191.513161 199.524162 
L 191.677298 199.524162 
L 191.677298 199.001312 
L 191.843181 199.001312 
L 191.856383 197.955613 
L 191.971467 197.955613 
L 191.971467 197.432763 
L 192.765544 197.432763 
L 192.765544 196.909913 
L 193.521517 196.909913 
L 193.521517 196.387063 
L 193.768256 196.387063 
L 193.833066 195.341363 
L 193.991116 195.341363 
L 193.991116 194.818513 
L 194.518989 194.818513 
L 194.518989 194.295663 
L 195.50708 194.295663 
L 195.50708 193.772813 
L 196.120131 193.772813 
L 196.120131 193.249963 
L 196.286609 193.249963 
L 196.332427 192.204263 
L 196.840855 192.204263 
L 196.840855 191.681413 
L 197.029835 191.681413 
L 197.029835 191.158563 
L 197.245707 191.158563 
L 197.245707 190.635713 
L 197.41122 190.635713 
L 197.508818 188.021464 
L 197.80066 188.021464 
L 197.80066 187.498614 
L 197.984037 187.498614 
L 197.984037 186.975764 
L 198.387921 186.975764 
L 198.471162 185.930064 
L 199.077508 185.930064 
L 199.077508 185.407214 
L 199.215602 185.407214 
L 199.309901 184.361514 
L 199.76962 184.361514 
L 199.780021 182.792964 
L 200.478891 182.792964 
L 200.478891 182.270115 
L 201.000003 182.270115 
L 201.000003 181.747265 
L 201.163857 181.747265 
L 201.163857 181.224415 
L 202.084553 181.224415 
L 202.084553 180.701565 
L 203.258167 180.701565 
L 203.258167 180.178715 
L 203.521064 180.178715 
L 203.521064 179.655865 
L 203.925989 179.655865 
L 203.925989 179.133015 
L 204.557786 179.133015 
L 204.557786 178.610165 
L 204.691092 178.610165 
L 204.691092 178.087315 
L 204.891445 178.087315 
L 204.977697 177.041615 
L 205.395082 177.041615 
L 205.395082 176.518765 
L 205.597807 176.518765 
L 205.609658 175.473065 
L 206.229182 175.473065 
L 206.229182 174.950215 
L 206.681669 174.950215 
L 206.681669 174.427366 
L 207.223931 174.427366 
L 207.308643 172.335966 
L 207.82785 172.335966 
L 207.82785 171.813116 
L 207.983307 171.813116 
L 208.090014 169.721716 
L 208.150145 169.721716 
L 208.150145 169.198866 
L 208.505328 169.198866 
L 208.505328 168.676016 
L 208.910832 168.676016 
L 208.986417 167.107467 
L 209.154675 167.107467 
L 209.154675 166.584617 
L 209.29623 166.584617 
L 209.29623 166.061767 
L 209.547654 166.061767 
L 209.547654 165.538917 
L 209.747804 165.538917 
L 209.747804 165.016067 
L 209.939895 165.016067 
L 209.939895 164.493217 
L 210.327876 164.493217 
L 210.327876 163.970367 
L 210.493576 163.970367 
L 210.597994 162.924667 
L 210.781949 162.924667 
L 210.863927 161.878967 
L 211.556373 161.878967 
L 211.556373 161.356117 
L 211.736611 161.356117 
L 211.736611 160.833267 
L 212.594702 160.833267 
L 212.594702 160.310417 
L 213.228596 160.310417 
L 213.228596 159.787567 
L 213.411938 159.787567 
L 213.442932 158.741868 
L 213.604502 158.741868 
L 213.604502 158.219018 
L 214.022323 158.219018 
L 214.077574 157.173318 
L 214.306633 157.173318 
L 214.306633 156.650468 
L 214.609121 156.650468 
L 214.609121 156.127618 
L 214.875323 156.127618 
L 214.875323 155.604768 
L 215.499189 155.604768 
L 215.499189 155.081918 
L 216.230097 155.081918 
L 216.330318 154.036218 
L 216.568176 154.036218 
L 216.568176 153.513368 
L 216.945699 153.513368 
L 216.945699 152.990518 
L 217.340541 152.990518 
L 217.36968 151.944818 
L 217.473873 151.944818 
L 217.473873 151.421969 
L 217.59292 151.421969 
L 217.59292 150.899119 
L 218.246444 150.899119 
L 218.246444 150.376269 
L 219.332137 150.376269 
L 219.332137 149.853419 
L 219.510987 149.853419 
L 219.510987 149.330569 
L 220.010402 149.330569 
L 220.010402 148.807719 
L 220.442727 148.807719 
L 220.442727 148.284869 
L 220.962811 148.284869 
L 220.979758 147.239169 
L 222.044047 147.239169 
L 222.044047 146.716319 
L 222.227848 146.716319 
L 222.227848 146.193469 
L 222.525086 146.193469 
L 222.525086 145.670619 
L 222.810198 145.670619 
L 222.810198 145.147769 
L 223.27264 145.147769 
L 223.27264 144.624919 
L 223.546742 144.624919 
L 223.546742 144.10207 
L 224.829134 144.10207 
L 224.829134 143.57922 
L 225.557476 143.57922 
L 225.557476 143.05637 
L 226.289507 143.05637 
L 226.289507 142.53352 
L 226.649795 142.53352 
L 226.649795 142.01067 
L 227.395977 142.01067 
L 227.395977 141.48782 
L 227.948987 141.48782 
L 227.948987 140.96497 
L 229.695268 140.96497 
L 229.695268 140.44212 
L 230.469516 140.44212 
L 230.469516 139.91927 
L 230.789523 139.91927 
L 230.789523 139.39642 
L 231.024326 139.39642 
L 231.024326 138.87357 
L 231.312722 138.87357 
L 231.312722 138.35072 
L 231.541505 138.35072 
L 231.541505 137.82787 
L 232.548009 137.82787 
L 232.548009 137.30502 
L 232.974104 137.30502 
L 233.03746 136.259321 
L 234.200515 136.259321 
L 234.200515 135.736471 
L 235.223913 135.736471 
L 235.244219 134.690771 
L 235.462377 134.690771 
L 235.462377 134.167921 
L 236.037139 134.167921 
L 236.085893 133.122221 
L 236.46366 133.122221 
L 236.557672 132.076521 
L 239.172841 132.076521 
L 239.172841 131.553671 
L 239.611863 131.553671 
L 239.611863 131.030821 
L 239.74074 131.030821 
L 239.74074 130.507971 
L 240.26903 130.507971 
L 240.26903 129.985121 
L 241.545297 129.985121 
L 241.611634 128.939421 
L 242.873897 128.939421 
L 242.873897 128.416572 
L 243.848874 128.416572 
L 243.923438 127.370872 
L 244.082947 127.370872 
L 244.082947 126.848022 
L 244.280893 126.848022 
L 244.280893 126.325172 
L 246.46519 126.325172 
L 246.46519 125.802322 
L 247.008213 125.802322 
L 247.008213 125.279472 
L 247.244486 125.279472 
L 247.244486 124.756622 
L 248.584699 124.756622 
L 248.584699 124.233772 
L 248.868329 124.233772 
L 248.868329 123.710922 
L 249.725513 123.710922 
L 249.725513 123.188072 
L 251.722319 123.188072 
L 251.722319 122.665222 
L 253.475933 122.665222 
L 253.475933 122.142372 
L 253.813187 122.142372 
L 253.813187 121.619522 
L 254.186931 121.619522 
L 254.186931 121.096672 
L 256.613321 121.096672 
L 256.613321 120.573823 
L 257.175966 120.573823 
L 257.175966 120.050973 
L 258.35969 120.050973 
L 258.35969 119.528123 
L 259.931323 119.528123 
L 259.931323 119.005273 
L 261.518102 119.005273 
L 261.518102 118.482423 
L 262.061398 118.482423 
L 262.061398 117.959573 
L 265.515845 117.959573 
L 265.515845 117.436723 
L 265.712828 117.436723 
L 265.712828 116.913873 
L 268.281769 116.913873 
L 268.281769 116.391023 
L 268.748501 116.391023 
L 268.748501 115.868173 
L 269.785206 115.868173 
L 269.785206 115.345323 
L 271.46828 115.345323 
L 271.46828 114.822473 
L 272.191511 114.822473 
L 272.191511 114.299623 
L 272.968342 114.299623 
L 272.968342 113.776773 
L 274.944379 113.776773 
L 274.944379 113.253924 
L 275.907033 113.253924 
L 275.907033 112.731074 
L 276.498368 112.731074 
L 276.498368 112.208224 
L 279.758304 112.208224 
L 279.758304 111.685374 
L 290.192466 111.685374 
L 290.192466 111.162524 
L 333.569032 111.162524 
L 333.569032 111.162524 
" style="fill:none;stroke:#00bfbf;stroke-linecap:square;stroke-width:1.5;"/>
   </g>
   <g id="line2d_25">
    <defs>
     <path d="M -6 0 
L 6 0 
M 0 6 
L 0 -6 
" id="mf6799f7ed3" style="stroke:#00bfbf;stroke-width:1.5;"/>
    </defs>
    <g>
     <use style="fill-opacity:0;stroke:#00bfbf;stroke-width:1.5;" x="80.641068" xlink:href="#mf6799f7ed3" y="275.860252"/>
     <use style="fill-opacity:0;stroke:#00bfbf;stroke-width:1.5;" x="151.705627" xlink:href="#mf6799f7ed3" y="236.646507"/>
     <use style="fill-opacity:0;stroke:#00bfbf;stroke-width:1.5;" x="209.547654" xlink:href="#mf6799f7ed3" y="166.061767"/>
     <use style="fill-opacity:0;stroke:#00bfbf;stroke-width:1.5;" x="247.244486" xlink:href="#mf6799f7ed3" y="124.756622"/>
     <use style="fill-opacity:0;stroke:#00bfbf;stroke-width:1.5;" x="290.192466" xlink:href="#mf6799f7ed3" y="111.162524"/>
     <use style="fill-opacity:0;stroke:#00bfbf;stroke-width:1.5;" x="333.569032" xlink:href="#mf6799f7ed3" y="111.162524"/>
    </g>
   </g>
   <g id="line2d_26">
    <path style="fill:none;stroke:#00bfbf;stroke-linecap:square;stroke-width:1.5;"/>
    <g/>
   </g>
   <g id="line2d_27">
    <path clip-path="url(#pac2f77e0e7)" d="M 176.275827 218.86961 
" style="fill:none;stroke:#00bfbf;stroke-linecap:square;stroke-width:1.5;"/>
    <defs>
     <path d="M -12 12 
L 12 -12 
M -12 -12 
L 12 12 
" id="m4553521cdb" style="stroke:#00bfbf;stroke-width:3;"/>
    </defs>
    <g clip-path="url(#pac2f77e0e7)">
     <use style="fill:#00bfbf;stroke:#00bfbf;stroke-width:3;" x="176.275827" xlink:href="#m4553521cdb" y="218.86961"/>
    </g>
   </g>
   <g id="line2d_28">
    <defs>
     <path d="M 0 1.5 
C 0.397805 1.5 0.77937 1.341951 1.06066 1.06066 
C 1.341951 0.77937 1.5 0.397805 1.5 0 
C 1.5 -0.397805 1.341951 -0.77937 1.06066 -1.06066 
C 0.77937 -1.341951 0.397805 -1.5 0 -1.5 
C -0.397805 -1.5 -0.77937 -1.341951 -1.06066 -1.06066 
C -1.341951 -0.77937 -1.5 -0.397805 -1.5 0 
C -1.5 0.397805 -1.341951 0.77937 -1.06066 1.06066 
C -0.77937 1.341951 -0.397805 1.5 0 1.5 
z
" id="m6ebdd2c94f" style="stroke:#008000;"/>
    </defs>
    <g>
     <use style="fill:#008000;stroke:#008000;" x="267.244824" xlink:href="#m6ebdd2c94f" y="236.646507"/>
     <use style="fill:#008000;stroke:#008000;" x="267.244824" xlink:href="#m6ebdd2c94f" y="236.646507"/>
    </g>
   </g>
   <g id="line2d_29">
    <path d="M 37.9781 294.16 
L 37.9781 292.59145 
L 49.878634 292.59145 
L 49.878634 292.0686 
L 56.84 292.0686 
L 56.84 291.0229 
L 61.779168 291.0229 
L 61.779168 289.454351 
L 65.610284 289.454351 
L 65.610284 288.931501 
L 68.740534 288.931501 
L 68.740534 287.885801 
L 71.387123 287.885801 
L 71.387123 286.317251 
L 73.679702 286.317251 
L 73.679702 285.794401 
L 75.7019 285.794401 
L 75.7019 284.225851 
L 77.510818 284.225851 
L 77.510818 283.703001 
L 80.641068 283.703001 
L 80.641068 283.180151 
L 82.015309 283.180151 
L 82.015309 282.134452 
L 83.287657 282.134452 
L 83.287657 281.611602 
L 84.472185 281.611602 
L 84.472185 281.088752 
L 85.580236 281.088752 
L 85.580236 280.565902 
L 87.602435 280.565902 
L 87.602435 280.043052 
L 90.249023 280.043052 
L 90.249023 279.520202 
L 93.242469 279.520202 
L 93.242469 278.997352 
L 95.790669 278.997352 
L 95.790669 277.951652 
L 97.480771 277.951652 
L 97.480771 277.428802 
L 98.521625 277.428802 
L 98.521625 276.905952 
L 101.73583 276.905952 
L 101.73583 276.383102 
L 105.143003 276.383102 
L 105.143003 275.860252 
L 107.088725 275.860252 
L 107.088725 275.337402 
L 107.984694 275.337402 
L 107.984694 274.814553 
L 111.403503 274.814553 
L 111.403503 274.291703 
L 114.652569 274.291703 
L 114.652569 273.768853 
L 116.520588 273.768853 
L 116.520588 273.246003 
L 117.214373 273.246003 
L 117.214373 272.723153 
L 118.679903 272.723153 
L 118.679903 272.200303 
L 119.73911 272.200303 
L 119.73911 271.677453 
L 124.896992 271.677453 
L 124.896992 271.154603 
L 126.15381 271.154603 
L 126.15381 270.631753 
L 129.944481 270.631753 
L 130.025276 268.540353 
L 130.265403 268.540353 
L 130.265403 268.017503 
L 130.580437 268.017503 
L 130.580437 267.494653 
L 131.566116 267.494653 
L 131.566116 266.971804 
L 132.216802 266.971804 
L 132.216802 266.448954 
L 133.96887 266.448954 
L 133.96887 265.926104 
L 134.659483 265.926104 
L 134.659483 265.403254 
L 136.189227 265.403254 
L 136.189227 264.880404 
L 136.357275 264.880404 
L 136.357275 264.357554 
L 137.489697 264.357554 
L 137.489697 263.834704 
L 138.60101 263.834704 
L 138.60101 262.266154 
L 138.747129 262.266154 
L 138.747129 261.743304 
L 143.281439 261.743304 
L 143.281439 261.220454 
L 150.768486 261.220454 
L 150.768486 260.697604 
L 153.273454 260.697604 
L 153.273454 260.174754 
L 155.163342 260.174754 
L 155.163342 259.651904 
L 164.848353 259.651904 
L 164.848353 259.129055 
L 165.111442 259.129055 
L 165.111442 258.606205 
L 165.726878 258.606205 
L 165.726878 258.083355 
L 166.629677 258.083355 
L 166.734511 257.037655 
L 167.713215 257.037655 
L 167.713215 256.514805 
L 168.519659 256.514805 
L 168.519659 255.991955 
L 170.861405 255.991955 
L 170.958257 254.946255 
L 174.485068 254.946255 
L 174.485068 254.423405 
L 178.729796 254.423405 
L 178.729796 253.900555 
L 179.232607 253.900555 
L 179.232607 253.377705 
L 179.577812 253.377705 
L 179.577812 252.854855 
L 179.770095 252.854855 
L 179.770095 252.332005 
L 184.669195 252.332005 
L 184.669195 251.809156 
L 185.036298 251.809156 
L 185.05592 250.763456 
L 185.618566 250.763456 
L 185.618566 250.240606 
L 189.401538 250.240606 
L 189.480021 249.194906 
L 192.260681 249.194906 
L 192.260681 248.672056 
L 193.14208 248.672056 
L 193.14208 248.149206 
L 193.401329 248.149206 
L 193.401329 247.626356 
L 195.411685 247.626356 
L 195.411685 247.103506 
L 198.305786 247.103506 
L 198.305786 246.580656 
L 200.86388 246.580656 
L 200.86388 246.057806 
L 202.174025 246.057806 
L 202.174025 245.534956 
L 202.613345 245.534956 
L 202.613345 245.012106 
L 204.249069 245.012106 
L 204.249069 244.489256 
L 206.22061 244.489256 
L 206.22061 243.966407 
L 208.571088 243.966407 
L 208.571088 243.443557 
L 211.919421 243.443557 
L 211.919421 242.920707 
L 217.397775 242.920707 
L 217.397775 242.397857 
L 220.956957 242.397857 
L 220.969067 241.352157 
L 221.09211 241.352157 
L 221.09211 240.829307 
L 223.401659 240.829307 
L 223.401659 240.306457 
L 226.860246 240.306457 
L 226.860246 239.783607 
L 228.892336 239.783607 
L 228.892336 239.260757 
L 229.237336 239.260757 
L 229.237336 238.737907 
L 232.523321 238.737907 
L 232.523321 238.215057 
L 233.377542 238.215057 
L 233.377542 237.692207 
L 248.934553 237.692207 
L 248.934553 237.169357 
L 267.244824 237.169357 
L 267.244824 236.646507 
L 333.569032 236.646507 
L 333.569032 236.646507 
" style="fill:none;stroke:#008000;stroke-linecap:square;stroke-width:1.5;"/>
   </g>
   <g id="line2d_30">
    <defs>
     <path d="M -0 6 
L 6 -6 
L -6 -6 
z
" id="m3bf224ca12" style="stroke:#008000;stroke-linejoin:miter;stroke-width:1.5;"/>
    </defs>
    <g>
     <use style="fill-opacity:0;stroke:#008000;stroke-linejoin:miter;stroke-width:1.5;" x="71.387123" xlink:href="#m3bf224ca12" y="287.885801"/>
     <use style="fill-opacity:0;stroke:#008000;stroke-linejoin:miter;stroke-width:1.5;" x="126.15381" xlink:href="#m3bf224ca12" y="271.154603"/>
     <use style="fill-opacity:0;stroke:#008000;stroke-linejoin:miter;stroke-width:1.5;" x="206.22061" xlink:href="#m3bf224ca12" y="243.966407"/>
     <use style="fill-opacity:0;stroke:#008000;stroke-linejoin:miter;stroke-width:1.5;" x="267.244824" xlink:href="#m3bf224ca12" y="237.169357"/>
     <use style="fill-opacity:0;stroke:#008000;stroke-linejoin:miter;stroke-width:1.5;" x="267.244824" xlink:href="#m3bf224ca12" y="236.646507"/>
     <use style="fill-opacity:0;stroke:#008000;stroke-linejoin:miter;stroke-width:1.5;" x="333.569032" xlink:href="#m3bf224ca12" y="236.646507"/>
    </g>
   </g>
   <g id="line2d_31">
    <path style="fill:none;stroke:#008000;stroke-linecap:square;stroke-width:1.5;"/>
    <g/>
   </g>
   <g id="line2d_32">
    <path clip-path="url(#pac2f77e0e7)" d="M 164.100586 259.651904 
" style="fill:none;stroke:#008000;stroke-linecap:square;stroke-width:1.5;"/>
    <defs>
     <path d="M -12 12 
L 12 -12 
M -12 -12 
L 12 12 
" id="m516835d8e7" style="stroke:#008000;stroke-width:3;"/>
    </defs>
    <g clip-path="url(#pac2f77e0e7)">
     <use style="fill:#008000;stroke:#008000;stroke-width:3;" x="164.100586" xlink:href="#m516835d8e7" y="259.651904"/>
    </g>
   </g>
   <g id="line2d_33">
    <defs>
     <path d="M 0 1.5 
C 0.397805 1.5 0.77937 1.341951 1.06066 1.06066 
C 1.341951 0.77937 1.5 0.397805 1.5 0 
C 1.5 -0.397805 1.341951 -0.77937 1.06066 -1.06066 
C 0.77937 -1.341951 0.397805 -1.5 0 -1.5 
C -0.397805 -1.5 -0.77937 -1.341951 -1.06066 -1.06066 
C -1.341951 -0.77937 -1.5 -0.397805 -1.5 0 
C -1.5 0.397805 -1.341951 0.77937 -1.06066 1.06066 
C -0.77937 1.341951 -0.397805 1.5 0 1.5 
z
" id="m7999835b79" style="stroke:#0000ff;"/>
    </defs>
    <g>
     <use style="fill:#0000ff;stroke:#0000ff;" x="249.766195" xlink:href="#m7999835b79" y="241.875007"/>
     <use style="fill:#0000ff;stroke:#0000ff;" x="249.766195" xlink:href="#m7999835b79" y="241.875007"/>
    </g>
   </g>
   <g id="line2d_34">
    <path d="M 29.207815 294.16 
L 29.207815 293.63715 
L 41.10835 293.63715 
L 41.10835 293.1143 
L 56.84 293.1143 
L 56.84 292.59145 
L 71.870784 292.59145 
L 71.870784 292.0686 
L 73.245025 292.0686 
L 73.245025 291.54575 
L 74.517373 291.54575 
L 74.517373 291.0229 
L 80.641068 291.0229 
L 80.641068 290.50005 
L 83.040619 290.50005 
L 83.040619 289.977201 
L 85.145559 289.977201 
L 85.145559 289.454351 
L 88.165398 289.454351 
L 88.165398 288.931501 
L 88.710486 288.931501 
L 88.710486 288.408651 
L 89.2388 288.408651 
L 89.2388 287.885801 
L 94.177968 287.885801 
L 94.177968 287.362951 
L 98.009084 287.362951 
L 98.009084 286.840101 
L 102.633219 286.840101 
L 102.633219 286.317251 
L 103.56149 286.317251 
L 103.56149 285.794401 
L 104.007459 285.794401 
L 104.007459 284.748701 
L 106.464335 284.748701 
L 106.464335 284.225851 
L 108.780743 284.225851 
L 108.780743 283.703001 
L 109.273663 283.703001 
L 109.273663 283.180151 
L 112.104369 283.180151 
L 112.104369 282.657301 
L 114.050092 282.657301 
L 114.050092 282.134452 
L 115.004162 282.134452 
L 115.004162 281.088752 
L 118.076311 281.088752 
L 118.076311 280.565902 
L 118.459988 280.565902 
L 118.459988 280.043052 
L 120.929506 280.043052 
L 120.929506 279.520202 
L 122.11951 279.520202 
L 122.11951 278.997352 
L 122.347923 278.997352 
L 122.347923 278.474502 
L 123.517318 278.474502 
L 123.517318 277.951652 
L 131.901769 277.951652 
L 131.901769 276.905952 
L 137.881791 276.905952 
L 137.881791 276.383102 
L 139.178169 276.383102 
L 139.178169 275.337402 
L 139.459631 275.337402 
L 139.459631 274.814553 
L 139.709062 274.814553 
L 139.709062 274.291703 
L 143.780612 274.291703 
L 143.780612 273.768853 
L 150.950523 273.768853 
L 150.950523 273.246003 
L 152.971133 273.246003 
L 152.971133 272.723153 
L 153.223435 272.723153 
L 153.223435 272.200303 
L 157.077078 272.200303 
L 157.077078 271.677453 
L 163.323398 271.677453 
L 163.323398 271.154603 
L 164.622051 271.154603 
L 164.622051 270.631753 
L 165.304597 270.631753 
L 165.304597 270.108903 
L 167.635857 270.108903 
L 167.635857 269.586053 
L 172.672116 269.586053 
L 172.672116 269.063203 
L 172.872642 269.063203 
L 172.872642 268.540353 
L 173.398781 268.540353 
L 173.398781 268.017503 
L 180.076831 268.017503 
L 180.076831 267.494653 
L 180.807967 267.494653 
L 180.858124 266.448954 
L 187.08095 266.448954 
L 187.08095 265.926104 
L 188.230236 265.926104 
L 188.230236 265.403254 
L 189.03893 265.403254 
L 189.03893 264.880404 
L 189.467387 264.880404 
L 189.467387 264.357554 
L 190.348336 264.357554 
L 190.348336 263.834704 
L 194.203641 263.834704 
L 194.203641 263.311854 
L 195.065631 263.311854 
L 195.065631 262.789004 
L 202.357309 262.789004 
L 202.357309 261.743304 
L 203.149821 261.743304 
L 203.149821 261.220454 
L 203.986319 261.220454 
L 203.986319 260.697604 
L 207.540989 260.697604 
L 207.540989 260.174754 
L 208.336363 260.174754 
L 208.336363 259.651904 
L 210.947251 259.651904 
L 210.947251 259.129055 
L 213.376557 259.129055 
L 213.376557 258.606205 
L 214.329282 258.606205 
L 214.329282 258.083355 
L 215.022647 258.083355 
L 215.022647 257.560505 
L 215.198055 257.560505 
L 215.198055 257.037655 
L 215.753846 257.037655 
L 215.753846 256.514805 
L 216.508 256.514805 
L 216.508 255.991955 
L 217.217768 255.991955 
L 217.217768 255.469105 
L 217.646773 255.469105 
L 217.646773 254.946255 
L 218.087958 254.946255 
L 218.087958 254.423405 
L 219.5368 254.423405 
L 219.5368 253.900555 
L 219.707028 253.900555 
L 219.707028 253.377705 
L 220.570949 253.377705 
L 220.60808 252.332005 
L 220.720959 252.332005 
L 220.720959 251.809156 
L 225.76171 251.809156 
L 225.76171 251.286306 
L 226.050839 251.286306 
L 226.050839 250.763456 
L 226.556583 250.763456 
L 226.556583 250.240606 
L 226.894229 250.240606 
L 226.894229 249.717756 
L 227.50065 249.717756 
L 227.50065 249.194906 
L 230.385916 249.194906 
L 230.385916 248.672056 
L 233.014187 248.672056 
L 233.014187 248.149206 
L 233.401972 248.149206 
L 233.401972 247.626356 
L 234.018677 247.626356 
L 234.018677 247.103506 
L 234.707034 247.103506 
L 234.707034 246.580656 
L 235.303524 246.580656 
L 235.303524 246.057806 
L 235.705067 246.057806 
L 235.705067 245.534956 
L 236.240586 245.534956 
L 236.240586 245.012106 
L 238.33577 245.012106 
L 238.33577 244.489256 
L 238.927134 244.489256 
L 238.927134 243.966407 
L 240.603544 243.966407 
L 240.603544 243.443557 
L 241.586915 243.443557 
L 241.586915 242.920707 
L 246.654333 242.920707 
L 246.654333 242.397857 
L 249.766195 242.397857 
L 249.766195 241.875007 
L 333.569032 241.875007 
L 333.569032 241.875007 
" style="fill:none;stroke:#0000ff;stroke-linecap:square;stroke-width:1.5;"/>
   </g>
   <g id="line2d_35">
    <defs>
     <path d="M 0 -6 
L -1.347084 -1.854102 
L -5.706339 -1.854102 
L -2.179628 0.708204 
L -3.526712 4.854102 
L -0 2.291796 
L 3.526712 4.854102 
L 2.179628 0.708204 
L 5.706339 -1.854102 
L 1.347084 -1.854102 
z
" id="maf9e2d1471" style="stroke:#0000ff;stroke-linejoin:bevel;stroke-width:1.5;"/>
    </defs>
    <g>
     <use style="fill-opacity:0;stroke:#0000ff;stroke-linejoin:bevel;stroke-width:1.5;" x="137.881791" xlink:href="#maf9e2d1471" y="276.383102"/>
     <use style="fill-opacity:0;stroke:#0000ff;stroke-linejoin:bevel;stroke-width:1.5;" x="202.357309" xlink:href="#maf9e2d1471" y="261.743304"/>
     <use style="fill-opacity:0;stroke:#0000ff;stroke-linejoin:bevel;stroke-width:1.5;" x="249.766195" xlink:href="#maf9e2d1471" y="241.875007"/>
     <use style="fill-opacity:0;stroke:#0000ff;stroke-linejoin:bevel;stroke-width:1.5;" x="249.766195" xlink:href="#maf9e2d1471" y="241.875007"/>
     <use style="fill-opacity:0;stroke:#0000ff;stroke-linejoin:bevel;stroke-width:1.5;" x="333.569032" xlink:href="#maf9e2d1471" y="241.875007"/>
    </g>
   </g>
   <g id="line2d_36">
    <path style="fill:none;stroke:#0000ff;stroke-linecap:square;stroke-width:1.5;"/>
    <g/>
   </g>
   <g id="line2d_37">
    <path clip-path="url(#pac2f77e0e7)" d="M 163.877611 271.154603 
" style="fill:none;stroke:#0000ff;stroke-linecap:square;stroke-width:1.5;"/>
    <defs>
     <path d="M -12 12 
L 12 -12 
M -12 -12 
L 12 12 
" id="m79a15eb52a" style="stroke:#0000ff;stroke-width:3;"/>
    </defs>
    <g clip-path="url(#pac2f77e0e7)">
     <use style="fill:#0000ff;stroke:#0000ff;stroke-width:3;" x="163.877611" xlink:href="#m79a15eb52a" y="271.154603"/>
    </g>
   </g>
   <g id="line2d_38">
    <defs>
     <path d="M 0 1.5 
C 0.397805 1.5 0.77937 1.341951 1.06066 1.06066 
C 1.341951 0.77937 1.5 0.397805 1.5 0 
C 1.5 -0.397805 1.341951 -0.77937 1.06066 -1.06066 
C 0.77937 -1.341951 0.397805 -1.5 0 -1.5 
C -0.397805 -1.5 -0.77937 -1.341951 -1.06066 -1.06066 
C -1.341951 -0.77937 -1.5 -0.397805 -1.5 0 
C -1.5 0.397805 -1.341951 0.77937 -1.06066 1.06066 
C -0.77937 1.341951 -0.397805 1.5 0 1.5 
z
" id="m434000751a" style="stroke:#000000;"/>
    </defs>
    <g>
     <use style="stroke:#000000;" x="227.283624" xlink:href="#m434000751a" y="273.246003"/>
     <use style="stroke:#000000;" x="227.283624" xlink:href="#m434000751a" y="273.246003"/>
    </g>
   </g>
   <g id="line2d_39">
    <path d="M 108.358883 294.16 
L 108.358883 293.63715 
L 122.461001 293.63715 
L 122.461001 293.1143 
L 141.335419 293.1143 
L 141.335419 292.59145 
L 146.346391 292.59145 
L 146.346391 292.0686 
L 148.879114 292.0686 
L 148.879114 291.54575 
L 149.143194 291.54575 
L 149.143194 291.0229 
L 149.527968 291.0229 
L 149.527968 290.50005 
L 151.691941 290.50005 
L 151.691941 289.977201 
L 159.928263 289.977201 
L 159.928263 289.454351 
L 164.560693 289.454351 
L 164.560693 288.931501 
L 164.769699 288.931501 
L 164.769699 288.408651 
L 165.826338 288.408651 
L 165.826338 287.885801 
L 166.716449 287.885801 
L 166.716449 287.362951 
L 168.374331 287.362951 
L 168.374331 286.840101 
L 168.783924 286.840101 
L 168.783924 286.317251 
L 177.111941 286.317251 
L 177.111941 285.794401 
L 177.178779 285.794401 
L 177.178779 285.271551 
L 178.22155 285.271551 
L 178.22155 284.748701 
L 178.784513 284.748701 
L 178.784513 284.225851 
L 181.878933 284.225851 
L 181.878933 283.703001 
L 184.663177 283.703001 
L 184.663177 283.180151 
L 189.196813 283.180151 
L 189.196813 282.657301 
L 192.441468 282.657301 
L 192.441468 282.134452 
L 193.116143 282.134452 
L 193.116143 281.611602 
L 196.749797 281.611602 
L 196.749797 281.088752 
L 198.182375 281.088752 
L 198.182375 280.565902 
L 199.95588 280.565902 
L 199.95588 280.043052 
L 200.024492 280.043052 
L 200.024492 279.520202 
L 202.23013 279.520202 
L 202.23013 278.997352 
L 202.262193 278.997352 
L 202.262193 278.474502 
L 204.675775 278.474502 
L 204.675775 277.951652 
L 205.5628 277.951652 
L 205.5628 277.428802 
L 208.383801 277.428802 
L 208.383801 276.905952 
L 213.190739 276.905952 
L 213.190739 276.383102 
L 218.476705 276.383102 
L 218.476705 275.860252 
L 218.546552 275.860252 
L 218.546552 275.337402 
L 219.324278 275.337402 
L 219.324278 274.814553 
L 222.644312 274.814553 
L 222.644312 274.291703 
L 226.335535 274.291703 
L 226.335535 273.768853 
L 227.283624 273.768853 
L 227.283624 273.246003 
L 333.569032 273.246003 
" style="fill:none;stroke:#000000;stroke-linecap:square;stroke-width:1.5;"/>
   </g>
   <g id="line2d_40">
    <defs>
     <path d="M 0 6 
C 1.591219 6 3.117479 5.367802 4.242641 4.242641 
C 5.367802 3.117479 6 1.591219 6 0 
C 6 -1.591219 5.367802 -3.117479 4.242641 -4.242641 
C 3.117479 -5.367802 1.591219 -6 0 -6 
C -1.591219 -6 -3.117479 -5.367802 -4.242641 -4.242641 
C -5.367802 -3.117479 -6 -1.591219 -6 0 
C -6 1.591219 -5.367802 3.117479 -4.242641 4.242641 
C -3.117479 5.367802 -1.591219 6 0 6 
z
" id="m74577a8e6c" style="stroke:#000000;stroke-width:1.5;"/>
    </defs>
    <g>
     <use style="fill-opacity:0;stroke:#000000;stroke-width:1.5;" x="149.527968" xlink:href="#m74577a8e6c" y="291.0229"/>
     <use style="fill-opacity:0;stroke:#000000;stroke-width:1.5;" x="205.5628" xlink:href="#m74577a8e6c" y="277.428802"/>
     <use style="fill-opacity:0;stroke:#000000;stroke-width:1.5;" x="227.283624" xlink:href="#m74577a8e6c" y="273.768853"/>
     <use style="fill-opacity:0;stroke:#000000;stroke-width:1.5;" x="227.283624" xlink:href="#m74577a8e6c" y="273.246003"/>
     <use style="fill-opacity:0;stroke:#000000;stroke-width:1.5;" x="333.569032" xlink:href="#m74577a8e6c" y="273.246003"/>
    </g>
   </g>
   <g id="line2d_41">
    <path style="fill:none;stroke:#000000;stroke-linecap:square;stroke-width:1.5;"/>
    <g/>
   </g>
   <g id="line2d_42">
    <path clip-path="url(#pac2f77e0e7)" d="M 163.708458 289.454351 
" style="fill:none;stroke:#000000;stroke-linecap:square;stroke-width:1.5;"/>
    <defs>
     <path d="M -12 12 
L 12 -12 
M -12 -12 
L 12 12 
" id="m05cd836686" style="stroke:#000000;stroke-width:3;"/>
    </defs>
    <g clip-path="url(#pac2f77e0e7)">
     <use style="stroke:#000000;stroke-width:3;" x="163.708458" xlink:href="#m05cd836686" y="289.454351"/>
    </g>
   </g>
   <g id="line2d_43">
    <path clip-path="url(#pac2f77e0e7)" d="M 56.84 294.16 
L 56.84 294.16 
L 56.84 294.16 
L 56.84 294.16 
L 399.984 294.16 
" style="fill:none;stroke:#ff0000;stroke-linecap:square;stroke-width:1.5;"/>
   </g>
   <g id="line2d_44">
    <defs>
     <path d="M -6 6 
L 6 6 
L 6 -6 
L -6 -6 
z
" id="meac770d717" style="stroke:#ff0000;stroke-linejoin:miter;stroke-width:1.5;"/>
    </defs>
    <g clip-path="url(#pac2f77e0e7)">
     <use style="fill-opacity:0;stroke:#ff0000;stroke-linejoin:miter;stroke-width:1.5;" x="56.84" xlink:href="#meac770d717" y="294.16"/>
    </g>
   </g>
   <g id="line2d_45">
    <path clip-path="url(#pac2f77e0e7)" style="fill:none;stroke:#ff0000;stroke-linecap:square;stroke-width:1.5;"/>
    <g clip-path="url(#pac2f77e0e7)">
     <use style="fill-opacity:0;stroke:#ff0000;stroke-linejoin:miter;stroke-width:1.5;" x="-1" xlink:href="#meac770d717" y="560.813465"/>
     <use style="fill-opacity:0;stroke:#ff0000;stroke-linejoin:miter;stroke-width:1.5;" x="399.984" xlink:href="#meac770d717" y="560.813465"/>
    </g>
   </g>
   <g id="line2d_46">
    <path clip-path="url(#pac2f77e0e7)" d="M 56.84 294.16 
L 56.84 294.16 
L 56.84 294.16 
L 56.84 294.16 
L 399.984 294.16 
" style="fill:none;stroke:#bf00bf;stroke-linecap:square;stroke-width:1.5;"/>
   </g>
   <g id="line2d_47">
    <defs>
     <path d="M -0 8.485281 
L 8.485281 0 
L 0 -8.485281 
L -8.485281 -0 
z
" id="m0eef68a5ff" style="stroke:#bf00bf;stroke-linejoin:miter;stroke-width:1.5;"/>
    </defs>
    <g clip-path="url(#pac2f77e0e7)">
     <use style="fill-opacity:0;stroke:#bf00bf;stroke-linejoin:miter;stroke-width:1.5;" x="56.84" xlink:href="#m0eef68a5ff" y="294.16"/>
    </g>
   </g>
   <g id="line2d_48">
    <path clip-path="url(#pac2f77e0e7)" style="fill:none;stroke:#bf00bf;stroke-linecap:square;stroke-width:1.5;"/>
    <g clip-path="url(#pac2f77e0e7)">
     <use style="fill-opacity:0;stroke:#bf00bf;stroke-linejoin:miter;stroke-width:1.5;" x="-1" xlink:href="#m0eef68a5ff" y="560.813465"/>
     <use style="fill-opacity:0;stroke:#bf00bf;stroke-linejoin:miter;stroke-width:1.5;" x="399.984" xlink:href="#m0eef68a5ff" y="560.813465"/>
    </g>
   </g>
   <g id="line2d_49">
    <path d="M 333.569032 294.16 
L 364.009226 288.826931 
" style="fill:none;stroke:#bf00bf;stroke-linecap:square;stroke-width:1.5;"/>
    <g>
     <use style="fill-opacity:0;stroke:#bf00bf;stroke-linejoin:miter;stroke-width:1.5;" x="333.569032" xlink:href="#m0eef68a5ff" y="294.16"/>
     <use style="fill-opacity:0;stroke:#bf00bf;stroke-linejoin:miter;stroke-width:1.5;" x="364.009226" xlink:href="#m0eef68a5ff" y="288.826931"/>
    </g>
   </g>
   <g id="line2d_50">
    <path d="M 333.569032 294.16 
L 364.009226 237.629465 
" style="fill:none;stroke:#ff0000;stroke-linecap:square;stroke-width:1.5;"/>
    <g>
     <use style="fill-opacity:0;stroke:#ff0000;stroke-linejoin:miter;stroke-width:1.5;" x="333.569032" xlink:href="#meac770d717" y="294.16"/>
     <use style="fill-opacity:0;stroke:#ff0000;stroke-linejoin:miter;stroke-width:1.5;" x="364.009226" xlink:href="#meac770d717" y="237.629465"/>
    </g>
   </g>
   <g id="line2d_51">
    <path d="M 333.569032 273.246003 
L 364.009226 186.432 
" style="fill:none;stroke:#000000;stroke-linecap:square;stroke-width:1.5;"/>
    <g>
     <use style="fill-opacity:0;stroke:#000000;stroke-width:1.5;" x="333.569032" xlink:href="#m74577a8e6c" y="273.246003"/>
     <use style="fill-opacity:0;stroke:#000000;stroke-width:1.5;" x="364.009226" xlink:href="#m74577a8e6c" y="186.432"/>
    </g>
   </g>
   <g id="line2d_52">
    <path d="M 333.569032 241.875007 
L 364.009226 135.234535 
" style="fill:none;stroke:#0000ff;stroke-linecap:square;stroke-width:1.5;"/>
    <g>
     <use style="fill-opacity:0;stroke:#0000ff;stroke-linejoin:bevel;stroke-width:1.5;" x="333.569032" xlink:href="#maf9e2d1471" y="241.875007"/>
     <use style="fill-opacity:0;stroke:#0000ff;stroke-linejoin:bevel;stroke-width:1.5;" x="364.009226" xlink:href="#maf9e2d1471" y="135.234535"/>
    </g>
   </g>
   <g id="line2d_53">
    <path d="M 333.569032 236.646507 
L 364.009226 84.037069 
" style="fill:none;stroke:#008000;stroke-linecap:square;stroke-width:1.5;"/>
    <g>
     <use style="fill-opacity:0;stroke:#008000;stroke-linejoin:miter;stroke-width:1.5;" x="333.569032" xlink:href="#m3bf224ca12" y="236.646507"/>
     <use style="fill-opacity:0;stroke:#008000;stroke-linejoin:miter;stroke-width:1.5;" x="364.009226" xlink:href="#m3bf224ca12" y="84.037069"/>
    </g>
   </g>
   <g id="line2d_54">
    <path d="M 333.569032 111.162524 
L 364.009226 32.839604 
" style="fill:none;stroke:#00bfbf;stroke-linecap:square;stroke-width:1.5;"/>
    <g>
     <use style="fill-opacity:0;stroke:#00bfbf;stroke-width:1.5;" x="333.569032" xlink:href="#mf6799f7ed3" y="111.162524"/>
     <use style="fill-opacity:0;stroke:#00bfbf;stroke-width:1.5;" x="364.009226" xlink:href="#mf6799f7ed3" y="32.839604"/>
    </g>
   </g>
   <g id="line2d_55">
    <path d="M 333.569032 294.16 
L 333.569032 27.506535 
" style="fill:none;stroke:#000000;stroke-linecap:square;stroke-width:1.5;"/>
   </g>
   <g id="patch_3">
    <path d="M 56.84 294.16 
L 56.84 24.84 
" style="fill:none;stroke:#000000;stroke-linecap:square;stroke-linejoin:miter;stroke-width:0.8;"/>
   </g>
   <g id="patch_4">
    <path d="M 399.984 294.16 
L 399.984 24.84 
" style="fill:none;stroke:#000000;stroke-linecap:square;stroke-linejoin:miter;stroke-width:0.8;"/>
   </g>
   <g id="patch_5">
    <path d="M 56.84 294.16 
L 399.984 294.16 
" style="fill:none;stroke:#000000;stroke-linecap:square;stroke-linejoin:miter;stroke-width:0.8;"/>
   </g>
   <g id="patch_6">
    <path d="M 56.84 24.84 
L 399.984 24.84 
" style="fill:none;stroke:#000000;stroke-linecap:square;stroke-linejoin:miter;stroke-width:0.8;"/>
   </g>
   <g id="text_14">
    <!-- 40-D -->
    <defs>
     <path d="M 19.671875 64.796875 
L 19.671875 8.109375 
L 31.59375 8.109375 
Q 46.6875 8.109375 53.6875 14.9375 
Q 60.6875 21.78125 60.6875 36.53125 
Q 60.6875 51.171875 53.6875 57.984375 
Q 46.6875 64.796875 31.59375 64.796875 
z
M 9.8125 72.90625 
L 30.078125 72.90625 
Q 51.265625 72.90625 61.171875 64.09375 
Q 71.09375 55.28125 71.09375 36.53125 
Q 71.09375 17.671875 61.125 8.828125 
Q 51.171875 0 30.078125 0 
L 9.8125 0 
z
" id="DejaVuSans-44"/>
    </defs>
    <g transform="translate(369.543806 293.517868)scale(0.17 -0.17)">
     <use xlink:href="#DejaVuSans-34"/>
     <use x="63.623047" xlink:href="#DejaVuSans-30"/>
     <use x="127.246094" xlink:href="#DejaVuSans-2d"/>
     <use x="163.330078" xlink:href="#DejaVuSans-44"/>
    </g>
   </g>
   <g id="text_15">
    <!-- 20-D -->
    <g transform="translate(369.543806 242.320403)scale(0.17 -0.17)">
     <use xlink:href="#DejaVuSans-32"/>
     <use x="63.623047" xlink:href="#DejaVuSans-30"/>
     <use x="127.246094" xlink:href="#DejaVuSans-2d"/>
     <use x="163.330078" xlink:href="#DejaVuSans-44"/>
    </g>
   </g>
   <g id="text_16">
    <!-- 10-D -->
    <g transform="translate(369.543806 191.122937)scale(0.17 -0.17)">
     <use xlink:href="#DejaVuSans-31"/>
     <use x="63.623047" xlink:href="#DejaVuSans-30"/>
     <use x="127.246094" xlink:href="#DejaVuSans-2d"/>
     <use x="163.330078" xlink:href="#DejaVuSans-44"/>
    </g>
   </g>
   <g id="text_17">
    <!-- 5-D -->
    <defs>
     <path d="M 10.796875 72.90625 
L 49.515625 72.90625 
L 49.515625 64.59375 
L 19.828125 64.59375 
L 19.828125 46.734375 
Q 21.96875 47.46875 24.109375 47.828125 
Q 26.265625 48.1875 28.421875 48.1875 
Q 40.625 48.1875 47.75 41.5 
Q 54.890625 34.8125 54.890625 23.390625 
Q 54.890625 11.625 47.5625 5.09375 
Q 40.234375 -1.421875 26.90625 -1.421875 
Q 22.3125 -1.421875 17.546875 -0.640625 
Q 12.796875 0.140625 7.71875 1.703125 
L 7.71875 11.625 
Q 12.109375 9.234375 16.796875 8.0625 
Q 21.484375 6.890625 26.703125 6.890625 
Q 35.15625 6.890625 40.078125 11.328125 
Q 45.015625 15.765625 45.015625 23.390625 
Q 45.015625 31 40.078125 35.4375 
Q 35.15625 39.890625 26.703125 39.890625 
Q 22.75 39.890625 18.8125 39.015625 
Q 14.890625 38.140625 10.796875 36.28125 
z
" id="DejaVuSans-35"/>
    </defs>
    <g transform="translate(369.543806 139.925472)scale(0.17 -0.17)">
     <use xlink:href="#DejaVuSans-35"/>
     <use x="63.623047" xlink:href="#DejaVuSans-2d"/>
     <use x="99.707031" xlink:href="#DejaVuSans-44"/>
    </g>
   </g>
   <g id="text_18">
    <!-- 3-D -->
    <defs>
     <path d="M 40.578125 39.3125 
Q 47.65625 37.796875 51.625 33 
Q 55.609375 28.21875 55.609375 21.1875 
Q 55.609375 10.40625 48.1875 4.484375 
Q 40.765625 -1.421875 27.09375 -1.421875 
Q 22.515625 -1.421875 17.65625 -0.515625 
Q 12.796875 0.390625 7.625 2.203125 
L 7.625 11.71875 
Q 11.71875 9.328125 16.59375 8.109375 
Q 21.484375 6.890625 26.8125 6.890625 
Q 36.078125 6.890625 40.9375 10.546875 
Q 45.796875 14.203125 45.796875 21.1875 
Q 45.796875 27.640625 41.28125 31.265625 
Q 36.765625 34.90625 28.71875 34.90625 
L 20.21875 34.90625 
L 20.21875 43.015625 
L 29.109375 43.015625 
Q 36.375 43.015625 40.234375 45.921875 
Q 44.09375 48.828125 44.09375 54.296875 
Q 44.09375 59.90625 40.109375 62.90625 
Q 36.140625 65.921875 28.71875 65.921875 
Q 24.65625 65.921875 20.015625 65.03125 
Q 15.375 64.15625 9.8125 62.3125 
L 9.8125 71.09375 
Q 15.4375 72.65625 20.34375 73.4375 
Q 25.25 74.21875 29.59375 74.21875 
Q 40.828125 74.21875 47.359375 69.109375 
Q 53.90625 64.015625 53.90625 55.328125 
Q 53.90625 49.265625 50.4375 45.09375 
Q 46.96875 40.921875 40.578125 39.3125 
z
" id="DejaVuSans-33"/>
    </defs>
    <g transform="translate(369.543806 88.728007)scale(0.17 -0.17)">
     <use xlink:href="#DejaVuSans-33"/>
     <use x="63.623047" xlink:href="#DejaVuSans-2d"/>
     <use x="99.707031" xlink:href="#DejaVuSans-44"/>
    </g>
   </g>
   <g id="text_19">
    <!-- 2-D -->
    <g transform="translate(369.543806 37.530541)scale(0.17 -0.17)">
     <use xlink:href="#DejaVuSans-32"/>
     <use x="63.623047" xlink:href="#DejaVuSans-2d"/>
     <use x="99.707031" xlink:href="#DejaVuSans-44"/>
    </g>
   </g>
   <g id="text_20">
    <!-- bbob f3 -->
    <defs>
     <path d="M 48.6875 27.296875 
Q 48.6875 37.203125 44.609375 42.84375 
Q 40.53125 48.484375 33.40625 48.484375 
Q 26.265625 48.484375 22.1875 42.84375 
Q 18.109375 37.203125 18.109375 27.296875 
Q 18.109375 17.390625 22.1875 11.75 
Q 26.265625 6.109375 33.40625 6.109375 
Q 40.53125 6.109375 44.609375 11.75 
Q 48.6875 17.390625 48.6875 27.296875 
z
M 18.109375 46.390625 
Q 20.953125 51.265625 25.265625 53.625 
Q 29.59375 56 35.59375 56 
Q 45.5625 56 51.78125 48.09375 
Q 58.015625 40.1875 58.015625 27.296875 
Q 58.015625 14.40625 51.78125 6.484375 
Q 45.5625 -1.421875 35.59375 -1.421875 
Q 29.59375 -1.421875 25.265625 0.953125 
Q 20.953125 3.328125 18.109375 8.203125 
L 18.109375 0 
L 9.078125 0 
L 9.078125 75.984375 
L 18.109375 75.984375 
z
" id="DejaVuSans-62"/>
    </defs>
    <g transform="translate(60.27144 35.283606)scale(0.102 -0.102)">
     <use xlink:href="#DejaVuSans-62"/>
     <use x="63.476562" xlink:href="#DejaVuSans-62"/>
     <use x="126.953125" xlink:href="#DejaVuSans-6f"/>
     <use x="188.134766" xlink:href="#DejaVuSans-62"/>
     <use x="251.611328" xlink:href="#DejaVuSans-20"/>
     <use x="283.398438" xlink:href="#DejaVuSans-66"/>
     <use x="318.603516" xlink:href="#DejaVuSans-33"/>
    </g>
    <!-- 51 targets: 100..1e-08 -->
    <defs>
     <path d="M 11.71875 12.40625 
L 22.015625 12.40625 
L 22.015625 0 
L 11.71875 0 
z
M 11.71875 51.703125 
L 22.015625 51.703125 
L 22.015625 39.3125 
L 11.71875 39.3125 
z
" id="DejaVuSans-3a"/>
    </defs>
    <g transform="translate(60.27144 46.705375)scale(0.102 -0.102)">
     <use xlink:href="#DejaVuSans-35"/>
     <use x="63.623047" xlink:href="#DejaVuSans-31"/>
     <use x="127.246094" xlink:href="#DejaVuSans-20"/>
     <use x="159.033203" xlink:href="#DejaVuSans-74"/>
     <use x="198.242188" xlink:href="#DejaVuSans-61"/>
     <use x="259.521484" xlink:href="#DejaVuSans-72"/>
     <use x="300.619141" xlink:href="#DejaVuSans-67"/>
     <use x="364.095703" xlink:href="#DejaVuSans-65"/>
     <use x="425.619141" xlink:href="#DejaVuSans-74"/>
     <use x="464.828125" xlink:href="#DejaVuSans-73"/>
     <use x="516.927734" xlink:href="#DejaVuSans-3a"/>
     <use x="550.619141" xlink:href="#DejaVuSans-20"/>
     <use x="582.40625" xlink:href="#DejaVuSans-31"/>
     <use x="646.029297" xlink:href="#DejaVuSans-30"/>
     <use x="709.652344" xlink:href="#DejaVuSans-30"/>
     <use x="773.275391" xlink:href="#DejaVuSans-2e"/>
     <use x="805.0625" xlink:href="#DejaVuSans-2e"/>
     <use x="836.849609" xlink:href="#DejaVuSans-31"/>
     <use x="900.472656" xlink:href="#DejaVuSans-65"/>
     <use x="961.996094" xlink:href="#DejaVuSans-2d"/>
     <use x="998.080078" xlink:href="#DejaVuSans-30"/>
     <use x="1061.703125" xlink:href="#DejaVuSans-38"/>
    </g>
    <!-- 15 instances -->
    <g transform="translate(60.27144 58.127144)scale(0.102 -0.102)">
     <use xlink:href="#DejaVuSans-31"/>
     <use x="63.623047" xlink:href="#DejaVuSans-35"/>
     <use x="127.246094" xlink:href="#DejaVuSans-20"/>
     <use x="159.033203" xlink:href="#DejaVuSans-69"/>
     <use x="186.816406" xlink:href="#DejaVuSans-6e"/>
     <use x="250.195312" xlink:href="#DejaVuSans-73"/>
     <use x="302.294922" xlink:href="#DejaVuSans-74"/>
     <use x="341.503906" xlink:href="#DejaVuSans-61"/>
     <use x="402.783203" xlink:href="#DejaVuSans-6e"/>
     <use x="466.162109" xlink:href="#DejaVuSans-63"/>
     <use x="521.142578" xlink:href="#DejaVuSans-65"/>
     <use x="582.666016" xlink:href="#DejaVuSans-73"/>
    </g>
   </g>
   <g id="text_21">
    <!-- v2.2.1.10 -->
    <g style="fill:#808080;" transform="translate(204.779188 289.387113)scale(0.1 -0.1)">
     <use xlink:href="#DejaVuSans-76"/>
     <use x="59.179688" xlink:href="#DejaVuSans-32"/>
     <use x="122.802734" xlink:href="#DejaVuSans-2e"/>
     <use x="154.589844" xlink:href="#DejaVuSans-32"/>
     <use x="218.212891" xlink:href="#DejaVuSans-2e"/>
     <use x="250" xlink:href="#DejaVuSans-31"/>
     <use x="313.623047" xlink:href="#DejaVuSans-2e"/>
     <use x="345.410156" xlink:href="#DejaVuSans-31"/>
     <use x="409.033203" xlink:href="#DejaVuSans-30"/>
    </g>
   </g>
   <g id="text_22">
    <!-- 3 Rastrigin separable -->
    <defs>
     <path d="M 44.390625 34.1875 
Q 47.5625 33.109375 50.5625 29.59375 
Q 53.5625 26.078125 56.59375 19.921875 
L 66.609375 0 
L 56 0 
L 46.6875 18.703125 
Q 43.0625 26.03125 39.671875 28.421875 
Q 36.28125 30.8125 30.421875 30.8125 
L 19.671875 30.8125 
L 19.671875 0 
L 9.8125 0 
L 9.8125 72.90625 
L 32.078125 72.90625 
Q 44.578125 72.90625 50.734375 67.671875 
Q 56.890625 62.453125 56.890625 51.90625 
Q 56.890625 45.015625 53.6875 40.46875 
Q 50.484375 35.9375 44.390625 34.1875 
z
M 19.671875 64.796875 
L 19.671875 38.921875 
L 32.078125 38.921875 
Q 39.203125 38.921875 42.84375 42.21875 
Q 46.484375 45.515625 46.484375 51.90625 
Q 46.484375 58.296875 42.84375 61.546875 
Q 39.203125 64.796875 32.078125 64.796875 
z
" id="DejaVuSans-52"/>
    </defs>
    <g transform="translate(121.779188 18.84)scale(0.2 -0.2)">
     <use xlink:href="#DejaVuSans-33"/>
     <use x="63.623047" xlink:href="#DejaVuSans-20"/>
     <use x="95.410156" xlink:href="#DejaVuSans-52"/>
     <use x="164.861328" xlink:href="#DejaVuSans-61"/>
     <use x="226.140625" xlink:href="#DejaVuSans-73"/>
     <use x="278.240234" xlink:href="#DejaVuSans-74"/>
     <use x="317.449219" xlink:href="#DejaVuSans-72"/>
     <use x="358.5625" xlink:href="#DejaVuSans-69"/>
     <use x="386.345703" xlink:href="#DejaVuSans-67"/>
     <use x="449.822266" xlink:href="#DejaVuSans-69"/>
     <use x="477.605469" xlink:href="#DejaVuSans-6e"/>
     <use x="540.984375" xlink:href="#DejaVuSans-20"/>
     <use x="572.771484" xlink:href="#DejaVuSans-73"/>
     <use x="624.871094" xlink:href="#DejaVuSans-65"/>
     <use x="686.394531" xlink:href="#DejaVuSans-70"/>
     <use x="749.871094" xlink:href="#DejaVuSans-61"/>
     <use x="811.150391" xlink:href="#DejaVuSans-72"/>
     <use x="852.263672" xlink:href="#DejaVuSans-61"/>
     <use x="913.542969" xlink:href="#DejaVuSans-62"/>
     <use x="977.019531" xlink:href="#DejaVuSans-6c"/>
     <use x="1004.802734" xlink:href="#DejaVuSans-65"/>
    </g>
   </g>
  </g>
 </g>
 <defs>
  <clipPath id="pac2f77e0e7">
   <rect height="269.32" width="343.144" x="56.84" y="24.84"/>
  </clipPath>
 </defs>
</svg>
