<?xml version="1.0" encoding="utf-8" standalone="no"?>
<!DOCTYPE svg PUBLIC "-//W3C//DTD SVG 1.1//EN"
  "http://www.w3.org/Graphics/SVG/1.1/DTD/svg11.dtd">
<!-- Created with matplotlib (http://matplotlib.org/) -->
<svg height="345.6pt" version="1.1" viewBox="0 0 460.8 345.6" width="460.8pt" xmlns="http://www.w3.org/2000/svg" xmlns:xlink="http://www.w3.org/1999/xlink">
 <defs>
  <style type="text/css">
*{stroke-linecap:butt;stroke-linejoin:round;}
  </style>
 </defs>
 <g id="figure_1">
  <g id="patch_1">
   <path d="M 0 345.6 
L 460.8 345.6 
L 460.8 0 
L 0 0 
z
" style="fill:#ffffff;"/>
  </g>
  <g id="axes_1">
   <g id="patch_2">
    <path d="M 56.84 294.16 
L 399.984 294.16 
L 399.984 24.84 
L 56.84 24.84 
z
" style="fill:#ffffff;"/>
   </g>
   <g id="matplotlib.axis_1">
    <g id="xtick_1">
     <g id="line2d_1">
      <path clip-path="url(#pf13a28ef68)" d="M 56.84 294.16 
L 56.84 24.84 
" style="fill:none;stroke:#b0b0b0;stroke-linecap:square;stroke-width:0.8;"/>
     </g>
     <g id="line2d_2">
      <defs>
       <path d="M 0 0 
L 0 3.5 
" id="m5224ddd242" style="stroke:#000000;stroke-width:0.8;"/>
      </defs>
      <g>
       <use style="stroke:#000000;stroke-width:0.8;" x="56.84" xlink:href="#m5224ddd242" y="294.16"/>
      </g>
     </g>
     <g id="text_1">
      <!-- 0 -->
      <defs>
       <path d="M 31.78125 66.40625 
Q 24.171875 66.40625 20.328125 58.90625 
Q 16.5 51.421875 16.5 36.375 
Q 16.5 21.390625 20.328125 13.890625 
Q 24.171875 6.390625 31.78125 6.390625 
Q 39.453125 6.390625 43.28125 13.890625 
Q 47.125 21.390625 47.125 36.375 
Q 47.125 51.421875 43.28125 58.90625 
Q 39.453125 66.40625 31.78125 66.40625 
z
M 31.78125 74.21875 
Q 44.046875 74.21875 50.515625 64.515625 
Q 56.984375 54.828125 56.984375 36.375 
Q 56.984375 17.96875 50.515625 8.265625 
Q 44.046875 -1.421875 31.78125 -1.421875 
Q 19.53125 -1.421875 13.0625 8.265625 
Q 6.59375 17.96875 6.59375 36.375 
Q 6.59375 54.828125 13.0625 64.515625 
Q 19.53125 74.21875 31.78125 74.21875 
z
" id="DejaVuSans-30"/>
      </defs>
      <g transform="translate(50.4775 316.356875)scale(0.2 -0.2)">
       <use xlink:href="#DejaVuSans-30"/>
      </g>
     </g>
    </g>
    <g id="xtick_2">
     <g id="line2d_3">
      <path clip-path="url(#pf13a28ef68)" d="M 135.905438 294.16 
L 135.905438 24.84 
" style="fill:none;stroke:#b0b0b0;stroke-linecap:square;stroke-width:0.8;"/>
     </g>
     <g id="line2d_4">
      <g>
       <use style="stroke:#000000;stroke-width:0.8;" x="135.905438" xlink:href="#m5224ddd242" y="294.16"/>
      </g>
     </g>
     <g id="text_2">
      <!-- 2 -->
      <defs>
       <path d="M 19.1875 8.296875 
L 53.609375 8.296875 
L 53.609375 0 
L 7.328125 0 
L 7.328125 8.296875 
Q 12.9375 14.109375 22.625 23.890625 
Q 32.328125 33.6875 34.8125 36.53125 
Q 39.546875 41.84375 41.421875 45.53125 
Q 43.3125 49.21875 43.3125 52.78125 
Q 43.3125 58.59375 39.234375 62.25 
Q 35.15625 65.921875 28.609375 65.921875 
Q 23.96875 65.921875 18.8125 64.3125 
Q 13.671875 62.703125 7.8125 59.421875 
L 7.8125 69.390625 
Q 13.765625 71.78125 18.9375 73 
Q 24.125 74.21875 28.421875 74.21875 
Q 39.75 74.21875 46.484375 68.546875 
Q 53.21875 62.890625 53.21875 53.421875 
Q 53.21875 48.921875 51.53125 44.890625 
Q 49.859375 40.875 45.40625 35.40625 
Q 44.1875 33.984375 37.640625 27.21875 
Q 31.109375 20.453125 19.1875 8.296875 
z
" id="DejaVuSans-32"/>
      </defs>
      <g transform="translate(129.542938 316.356875)scale(0.2 -0.2)">
       <use xlink:href="#DejaVuSans-32"/>
      </g>
     </g>
    </g>
    <g id="xtick_3">
     <g id="line2d_5">
      <path clip-path="url(#pf13a28ef68)" d="M 214.970876 294.16 
L 214.970876 24.84 
" style="fill:none;stroke:#b0b0b0;stroke-linecap:square;stroke-width:0.8;"/>
     </g>
     <g id="line2d_6">
      <g>
       <use style="stroke:#000000;stroke-width:0.8;" x="214.970876" xlink:href="#m5224ddd242" y="294.16"/>
      </g>
     </g>
     <g id="text_3">
      <!-- 4 -->
      <defs>
       <path d="M 37.796875 64.3125 
L 12.890625 25.390625 
L 37.796875 25.390625 
z
M 35.203125 72.90625 
L 47.609375 72.90625 
L 47.609375 25.390625 
L 58.015625 25.390625 
L 58.015625 17.1875 
L 47.609375 17.1875 
L 47.609375 0 
L 37.796875 0 
L 37.796875 17.1875 
L 4.890625 17.1875 
L 4.890625 26.703125 
z
" id="DejaVuSans-34"/>
      </defs>
      <g transform="translate(208.608376 316.356875)scale(0.2 -0.2)">
       <use xlink:href="#DejaVuSans-34"/>
      </g>
     </g>
    </g>
    <g id="xtick_4">
     <g id="line2d_7">
      <path clip-path="url(#pf13a28ef68)" d="M 294.036313 294.16 
L 294.036313 24.84 
" style="fill:none;stroke:#b0b0b0;stroke-linecap:square;stroke-width:0.8;"/>
     </g>
     <g id="line2d_8">
      <g>
       <use style="stroke:#000000;stroke-width:0.8;" x="294.036313" xlink:href="#m5224ddd242" y="294.16"/>
      </g>
     </g>
     <g id="text_4">
      <!-- 6 -->
      <defs>
       <path d="M 33.015625 40.375 
Q 26.375 40.375 22.484375 35.828125 
Q 18.609375 31.296875 18.609375 23.390625 
Q 18.609375 15.53125 22.484375 10.953125 
Q 26.375 6.390625 33.015625 6.390625 
Q 39.65625 6.390625 43.53125 10.953125 
Q 47.40625 15.53125 47.40625 23.390625 
Q 47.40625 31.296875 43.53125 35.828125 
Q 39.65625 40.375 33.015625 40.375 
z
M 52.59375 71.296875 
L 52.59375 62.3125 
Q 48.875 64.0625 45.09375 64.984375 
Q 41.3125 65.921875 37.59375 65.921875 
Q 27.828125 65.921875 22.671875 59.328125 
Q 17.53125 52.734375 16.796875 39.40625 
Q 19.671875 43.65625 24.015625 45.921875 
Q 28.375 48.1875 33.59375 48.1875 
Q 44.578125 48.1875 50.953125 41.515625 
Q 57.328125 34.859375 57.328125 23.390625 
Q 57.328125 12.15625 50.6875 5.359375 
Q 44.046875 -1.421875 33.015625 -1.421875 
Q 20.359375 -1.421875 13.671875 8.265625 
Q 6.984375 17.96875 6.984375 36.375 
Q 6.984375 53.65625 15.1875 63.9375 
Q 23.390625 74.21875 37.203125 74.21875 
Q 40.921875 74.21875 44.703125 73.484375 
Q 48.484375 72.75 52.59375 71.296875 
z
" id="DejaVuSans-36"/>
      </defs>
      <g transform="translate(287.673813 316.356875)scale(0.2 -0.2)">
       <use xlink:href="#DejaVuSans-36"/>
      </g>
     </g>
    </g>
    <g id="xtick_5">
     <g id="line2d_9">
      <path clip-path="url(#pf13a28ef68)" d="M 373.101751 294.16 
L 373.101751 24.84 
" style="fill:none;stroke:#b0b0b0;stroke-linecap:square;stroke-width:0.8;"/>
     </g>
     <g id="line2d_10">
      <g>
       <use style="stroke:#000000;stroke-width:0.8;" x="373.101751" xlink:href="#m5224ddd242" y="294.16"/>
      </g>
     </g>
     <g id="text_5">
      <!-- 8 -->
      <defs>
       <path d="M 31.78125 34.625 
Q 24.75 34.625 20.71875 30.859375 
Q 16.703125 27.09375 16.703125 20.515625 
Q 16.703125 13.921875 20.71875 10.15625 
Q 24.75 6.390625 31.78125 6.390625 
Q 38.8125 6.390625 42.859375 10.171875 
Q 46.921875 13.96875 46.921875 20.515625 
Q 46.921875 27.09375 42.890625 30.859375 
Q 38.875 34.625 31.78125 34.625 
z
M 21.921875 38.8125 
Q 15.578125 40.375 12.03125 44.71875 
Q 8.5 49.078125 8.5 55.328125 
Q 8.5 64.0625 14.71875 69.140625 
Q 20.953125 74.21875 31.78125 74.21875 
Q 42.671875 74.21875 48.875 69.140625 
Q 55.078125 64.0625 55.078125 55.328125 
Q 55.078125 49.078125 51.53125 44.71875 
Q 48 40.375 41.703125 38.8125 
Q 48.828125 37.15625 52.796875 32.3125 
Q 56.78125 27.484375 56.78125 20.515625 
Q 56.78125 9.90625 50.3125 4.234375 
Q 43.84375 -1.421875 31.78125 -1.421875 
Q 19.734375 -1.421875 13.25 4.234375 
Q 6.78125 9.90625 6.78125 20.515625 
Q 6.78125 27.484375 10.78125 32.3125 
Q 14.796875 37.15625 21.921875 38.8125 
z
M 18.3125 54.390625 
Q 18.3125 48.734375 21.84375 45.5625 
Q 25.390625 42.390625 31.78125 42.390625 
Q 38.140625 42.390625 41.71875 45.5625 
Q 45.3125 48.734375 45.3125 54.390625 
Q 45.3125 60.0625 41.71875 63.234375 
Q 38.140625 66.40625 31.78125 66.40625 
Q 25.390625 66.40625 21.84375 63.234375 
Q 18.3125 60.0625 18.3125 54.390625 
z
" id="DejaVuSans-38"/>
      </defs>
      <g transform="translate(366.739251 316.356875)scale(0.2 -0.2)">
       <use xlink:href="#DejaVuSans-38"/>
      </g>
     </g>
    </g>
    <g id="text_6">
     <!-- log10(# f-evals / dimension) -->
     <defs>
      <path d="M 9.421875 75.984375 
L 18.40625 75.984375 
L 18.40625 0 
L 9.421875 0 
z
" id="DejaVuSans-6c"/>
      <path d="M 30.609375 48.390625 
Q 23.390625 48.390625 19.1875 42.75 
Q 14.984375 37.109375 14.984375 27.296875 
Q 14.984375 17.484375 19.15625 11.84375 
Q 23.34375 6.203125 30.609375 6.203125 
Q 37.796875 6.203125 41.984375 11.859375 
Q 46.1875 17.53125 46.1875 27.296875 
Q 46.1875 37.015625 41.984375 42.703125 
Q 37.796875 48.390625 30.609375 48.390625 
z
M 30.609375 56 
Q 42.328125 56 49.015625 48.375 
Q 55.71875 40.765625 55.71875 27.296875 
Q 55.71875 13.875 49.015625 6.21875 
Q 42.328125 -1.421875 30.609375 -1.421875 
Q 18.84375 -1.421875 12.171875 6.21875 
Q 5.515625 13.875 5.515625 27.296875 
Q 5.515625 40.765625 12.171875 48.375 
Q 18.84375 56 30.609375 56 
z
" id="DejaVuSans-6f"/>
      <path d="M 45.40625 27.984375 
Q 45.40625 37.75 41.375 43.109375 
Q 37.359375 48.484375 30.078125 48.484375 
Q 22.859375 48.484375 18.828125 43.109375 
Q 14.796875 37.75 14.796875 27.984375 
Q 14.796875 18.265625 18.828125 12.890625 
Q 22.859375 7.515625 30.078125 7.515625 
Q 37.359375 7.515625 41.375 12.890625 
Q 45.40625 18.265625 45.40625 27.984375 
z
M 54.390625 6.78125 
Q 54.390625 -7.171875 48.1875 -13.984375 
Q 42 -20.796875 29.203125 -20.796875 
Q 24.46875 -20.796875 20.265625 -20.09375 
Q 16.0625 -19.390625 12.109375 -17.921875 
L 12.109375 -9.1875 
Q 16.0625 -11.328125 19.921875 -12.34375 
Q 23.78125 -13.375 27.78125 -13.375 
Q 36.625 -13.375 41.015625 -8.765625 
Q 45.40625 -4.15625 45.40625 5.171875 
L 45.40625 9.625 
Q 42.625 4.78125 38.28125 2.390625 
Q 33.9375 0 27.875 0 
Q 17.828125 0 11.671875 7.65625 
Q 5.515625 15.328125 5.515625 27.984375 
Q 5.515625 40.671875 11.671875 48.328125 
Q 17.828125 56 27.875 56 
Q 33.9375 56 38.28125 53.609375 
Q 42.625 51.21875 45.40625 46.390625 
L 45.40625 54.6875 
L 54.390625 54.6875 
z
" id="DejaVuSans-67"/>
      <path d="M 12.40625 8.296875 
L 28.515625 8.296875 
L 28.515625 63.921875 
L 10.984375 60.40625 
L 10.984375 69.390625 
L 28.421875 72.90625 
L 38.28125 72.90625 
L 38.28125 8.296875 
L 54.390625 8.296875 
L 54.390625 0 
L 12.40625 0 
z
" id="DejaVuSans-31"/>
      <path d="M 31 75.875 
Q 24.46875 64.65625 21.28125 53.65625 
Q 18.109375 42.671875 18.109375 31.390625 
Q 18.109375 20.125 21.3125 9.0625 
Q 24.515625 -2 31 -13.1875 
L 23.1875 -13.1875 
Q 15.875 -1.703125 12.234375 9.375 
Q 8.59375 20.453125 8.59375 31.390625 
Q 8.59375 42.28125 12.203125 53.3125 
Q 15.828125 64.359375 23.1875 75.875 
z
" id="DejaVuSans-28"/>
      <path d="M 51.125 44 
L 36.921875 44 
L 32.8125 27.6875 
L 47.125 27.6875 
z
M 43.796875 71.78125 
L 38.71875 51.515625 
L 52.984375 51.515625 
L 58.109375 71.78125 
L 65.921875 71.78125 
L 60.890625 51.515625 
L 76.125 51.515625 
L 76.125 44 
L 58.984375 44 
L 54.984375 27.6875 
L 70.515625 27.6875 
L 70.515625 20.21875 
L 53.078125 20.21875 
L 48 0 
L 40.1875 0 
L 45.21875 20.21875 
L 30.90625 20.21875 
L 25.875 0 
L 18.015625 0 
L 23.09375 20.21875 
L 7.71875 20.21875 
L 7.71875 27.6875 
L 24.90625 27.6875 
L 29 44 
L 13.28125 44 
L 13.28125 51.515625 
L 30.90625 51.515625 
L 35.890625 71.78125 
z
" id="DejaVuSans-23"/>
      <path id="DejaVuSans-20"/>
      <path d="M 37.109375 75.984375 
L 37.109375 68.5 
L 28.515625 68.5 
Q 23.6875 68.5 21.796875 66.546875 
Q 19.921875 64.59375 19.921875 59.515625 
L 19.921875 54.6875 
L 34.71875 54.6875 
L 34.71875 47.703125 
L 19.921875 47.703125 
L 19.921875 0 
L 10.890625 0 
L 10.890625 47.703125 
L 2.296875 47.703125 
L 2.296875 54.6875 
L 10.890625 54.6875 
L 10.890625 58.5 
Q 10.890625 67.625 15.140625 71.796875 
Q 19.390625 75.984375 28.609375 75.984375 
z
" id="DejaVuSans-66"/>
      <path d="M 4.890625 31.390625 
L 31.203125 31.390625 
L 31.203125 23.390625 
L 4.890625 23.390625 
z
" id="DejaVuSans-2d"/>
      <path d="M 56.203125 29.59375 
L 56.203125 25.203125 
L 14.890625 25.203125 
Q 15.484375 15.921875 20.484375 11.0625 
Q 25.484375 6.203125 34.421875 6.203125 
Q 39.59375 6.203125 44.453125 7.46875 
Q 49.3125 8.734375 54.109375 11.28125 
L 54.109375 2.78125 
Q 49.265625 0.734375 44.1875 -0.34375 
Q 39.109375 -1.421875 33.890625 -1.421875 
Q 20.796875 -1.421875 13.15625 6.1875 
Q 5.515625 13.8125 5.515625 26.8125 
Q 5.515625 40.234375 12.765625 48.109375 
Q 20.015625 56 32.328125 56 
Q 43.359375 56 49.78125 48.890625 
Q 56.203125 41.796875 56.203125 29.59375 
z
M 47.21875 32.234375 
Q 47.125 39.59375 43.09375 43.984375 
Q 39.0625 48.390625 32.421875 48.390625 
Q 24.90625 48.390625 20.390625 44.140625 
Q 15.875 39.890625 15.1875 32.171875 
z
" id="DejaVuSans-65"/>
      <path d="M 2.984375 54.6875 
L 12.5 54.6875 
L 29.59375 8.796875 
L 46.6875 54.6875 
L 56.203125 54.6875 
L 35.6875 0 
L 23.484375 0 
z
" id="DejaVuSans-76"/>
      <path d="M 34.28125 27.484375 
Q 23.390625 27.484375 19.1875 25 
Q 14.984375 22.515625 14.984375 16.5 
Q 14.984375 11.71875 18.140625 8.90625 
Q 21.296875 6.109375 26.703125 6.109375 
Q 34.1875 6.109375 38.703125 11.40625 
Q 43.21875 16.703125 43.21875 25.484375 
L 43.21875 27.484375 
z
M 52.203125 31.203125 
L 52.203125 0 
L 43.21875 0 
L 43.21875 8.296875 
Q 40.140625 3.328125 35.546875 0.953125 
Q 30.953125 -1.421875 24.3125 -1.421875 
Q 15.921875 -1.421875 10.953125 3.296875 
Q 6 8.015625 6 15.921875 
Q 6 25.140625 12.171875 29.828125 
Q 18.359375 34.515625 30.609375 34.515625 
L 43.21875 34.515625 
L 43.21875 35.40625 
Q 43.21875 41.609375 39.140625 45 
Q 35.0625 48.390625 27.6875 48.390625 
Q 23 48.390625 18.546875 47.265625 
Q 14.109375 46.140625 10.015625 43.890625 
L 10.015625 52.203125 
Q 14.9375 54.109375 19.578125 55.046875 
Q 24.21875 56 28.609375 56 
Q 40.484375 56 46.34375 49.84375 
Q 52.203125 43.703125 52.203125 31.203125 
z
" id="DejaVuSans-61"/>
      <path d="M 44.28125 53.078125 
L 44.28125 44.578125 
Q 40.484375 46.53125 36.375 47.5 
Q 32.28125 48.484375 27.875 48.484375 
Q 21.1875 48.484375 17.84375 46.4375 
Q 14.5 44.390625 14.5 40.28125 
Q 14.5 37.15625 16.890625 35.375 
Q 19.28125 33.59375 26.515625 31.984375 
L 29.59375 31.296875 
Q 39.15625 29.25 43.1875 25.515625 
Q 47.21875 21.78125 47.21875 15.09375 
Q 47.21875 7.46875 41.1875 3.015625 
Q 35.15625 -1.421875 24.609375 -1.421875 
Q 20.21875 -1.421875 15.453125 -0.5625 
Q 10.6875 0.296875 5.421875 2 
L 5.421875 11.28125 
Q 10.40625 8.6875 15.234375 7.390625 
Q 20.0625 6.109375 24.8125 6.109375 
Q 31.15625 6.109375 34.5625 8.28125 
Q 37.984375 10.453125 37.984375 14.40625 
Q 37.984375 18.0625 35.515625 20.015625 
Q 33.0625 21.96875 24.703125 23.78125 
L 21.578125 24.515625 
Q 13.234375 26.265625 9.515625 29.90625 
Q 5.8125 33.546875 5.8125 39.890625 
Q 5.8125 47.609375 11.28125 51.796875 
Q 16.75 56 26.8125 56 
Q 31.78125 56 36.171875 55.265625 
Q 40.578125 54.546875 44.28125 53.078125 
z
" id="DejaVuSans-73"/>
      <path d="M 25.390625 72.90625 
L 33.6875 72.90625 
L 8.296875 -9.28125 
L 0 -9.28125 
z
" id="DejaVuSans-2f"/>
      <path d="M 45.40625 46.390625 
L 45.40625 75.984375 
L 54.390625 75.984375 
L 54.390625 0 
L 45.40625 0 
L 45.40625 8.203125 
Q 42.578125 3.328125 38.25 0.953125 
Q 33.9375 -1.421875 27.875 -1.421875 
Q 17.96875 -1.421875 11.734375 6.484375 
Q 5.515625 14.40625 5.515625 27.296875 
Q 5.515625 40.1875 11.734375 48.09375 
Q 17.96875 56 27.875 56 
Q 33.9375 56 38.25 53.625 
Q 42.578125 51.265625 45.40625 46.390625 
z
M 14.796875 27.296875 
Q 14.796875 17.390625 18.875 11.75 
Q 22.953125 6.109375 30.078125 6.109375 
Q 37.203125 6.109375 41.296875 11.75 
Q 45.40625 17.390625 45.40625 27.296875 
Q 45.40625 37.203125 41.296875 42.84375 
Q 37.203125 48.484375 30.078125 48.484375 
Q 22.953125 48.484375 18.875 42.84375 
Q 14.796875 37.203125 14.796875 27.296875 
z
" id="DejaVuSans-64"/>
      <path d="M 9.421875 54.6875 
L 18.40625 54.6875 
L 18.40625 0 
L 9.421875 0 
z
M 9.421875 75.984375 
L 18.40625 75.984375 
L 18.40625 64.59375 
L 9.421875 64.59375 
z
" id="DejaVuSans-69"/>
      <path d="M 52 44.1875 
Q 55.375 50.25 60.0625 53.125 
Q 64.75 56 71.09375 56 
Q 79.640625 56 84.28125 50.015625 
Q 88.921875 44.046875 88.921875 33.015625 
L 88.921875 0 
L 79.890625 0 
L 79.890625 32.71875 
Q 79.890625 40.578125 77.09375 44.375 
Q 74.3125 48.1875 68.609375 48.1875 
Q 61.625 48.1875 57.5625 43.546875 
Q 53.515625 38.921875 53.515625 30.90625 
L 53.515625 0 
L 44.484375 0 
L 44.484375 32.71875 
Q 44.484375 40.625 41.703125 44.40625 
Q 38.921875 48.1875 33.109375 48.1875 
Q 26.21875 48.1875 22.15625 43.53125 
Q 18.109375 38.875 18.109375 30.90625 
L 18.109375 0 
L 9.078125 0 
L 9.078125 54.6875 
L 18.109375 54.6875 
L 18.109375 46.1875 
Q 21.1875 51.21875 25.484375 53.609375 
Q 29.78125 56 35.6875 56 
Q 41.65625 56 45.828125 52.96875 
Q 50 49.953125 52 44.1875 
z
" id="DejaVuSans-6d"/>
      <path d="M 54.890625 33.015625 
L 54.890625 0 
L 45.90625 0 
L 45.90625 32.71875 
Q 45.90625 40.484375 42.875 44.328125 
Q 39.84375 48.1875 33.796875 48.1875 
Q 26.515625 48.1875 22.3125 43.546875 
Q 18.109375 38.921875 18.109375 30.90625 
L 18.109375 0 
L 9.078125 0 
L 9.078125 54.6875 
L 18.109375 54.6875 
L 18.109375 46.1875 
Q 21.34375 51.125 25.703125 53.5625 
Q 30.078125 56 35.796875 56 
Q 45.21875 56 50.046875 50.171875 
Q 54.890625 44.34375 54.890625 33.015625 
z
" id="DejaVuSans-6e"/>
      <path d="M 8.015625 75.875 
L 15.828125 75.875 
Q 23.140625 64.359375 26.78125 53.3125 
Q 30.421875 42.28125 30.421875 31.390625 
Q 30.421875 20.453125 26.78125 9.375 
Q 23.140625 -1.703125 15.828125 -13.1875 
L 8.015625 -13.1875 
Q 14.5 -2 17.703125 9.0625 
Q 20.90625 20.125 20.90625 31.390625 
Q 20.90625 42.671875 17.703125 53.65625 
Q 14.5 64.65625 8.015625 75.875 
z
" id="DejaVuSans-29"/>
     </defs>
     <g transform="translate(107.571219 337.433594)scale(0.17 -0.17)">
      <use xlink:href="#DejaVuSans-6c"/>
      <use x="27.783203" xlink:href="#DejaVuSans-6f"/>
      <use x="88.964844" xlink:href="#DejaVuSans-67"/>
      <use x="152.441406" xlink:href="#DejaVuSans-31"/>
      <use x="216.064453" xlink:href="#DejaVuSans-30"/>
      <use x="279.6875" xlink:href="#DejaVuSans-28"/>
      <use x="318.701172" xlink:href="#DejaVuSans-23"/>
      <use x="402.490234" xlink:href="#DejaVuSans-20"/>
      <use x="434.277344" xlink:href="#DejaVuSans-66"/>
      <use x="469.404297" xlink:href="#DejaVuSans-2d"/>
      <use x="505.488281" xlink:href="#DejaVuSans-65"/>
      <use x="567.011719" xlink:href="#DejaVuSans-76"/>
      <use x="626.191406" xlink:href="#DejaVuSans-61"/>
      <use x="687.470703" xlink:href="#DejaVuSans-6c"/>
      <use x="715.253906" xlink:href="#DejaVuSans-73"/>
      <use x="767.353516" xlink:href="#DejaVuSans-20"/>
      <use x="799.140625" xlink:href="#DejaVuSans-2f"/>
      <use x="832.832031" xlink:href="#DejaVuSans-20"/>
      <use x="864.619141" xlink:href="#DejaVuSans-64"/>
      <use x="928.095703" xlink:href="#DejaVuSans-69"/>
      <use x="955.878906" xlink:href="#DejaVuSans-6d"/>
      <use x="1053.291016" xlink:href="#DejaVuSans-65"/>
      <use x="1114.814453" xlink:href="#DejaVuSans-6e"/>
      <use x="1178.193359" xlink:href="#DejaVuSans-73"/>
      <use x="1230.292969" xlink:href="#DejaVuSans-69"/>
      <use x="1258.076172" xlink:href="#DejaVuSans-6f"/>
      <use x="1319.257812" xlink:href="#DejaVuSans-6e"/>
      <use x="1382.636719" xlink:href="#DejaVuSans-29"/>
     </g>
    </g>
   </g>
   <g id="matplotlib.axis_2">
    <g id="ytick_1">
     <g id="line2d_11">
      <path clip-path="url(#pf13a28ef68)" d="M 56.84 294.16 
L 399.984 294.16 
" style="fill:none;stroke:#b0b0b0;stroke-linecap:square;stroke-width:0.8;"/>
     </g>
     <g id="line2d_12">
      <defs>
       <path d="M 0 0 
L -3.5 0 
" id="m82467b0cea" style="stroke:#000000;stroke-width:0.8;"/>
      </defs>
      <g>
       <use style="stroke:#000000;stroke-width:0.8;" x="56.84" xlink:href="#m82467b0cea" y="294.16"/>
      </g>
     </g>
     <g id="text_7">
      <!-- 0.0 -->
      <defs>
       <path d="M 10.6875 12.40625 
L 21 12.40625 
L 21 0 
L 10.6875 0 
z
" id="DejaVuSans-2e"/>
      </defs>
      <g transform="translate(24.395 300.23875)scale(0.16 -0.16)">
       <use xlink:href="#DejaVuSans-30"/>
       <use x="63.623047" xlink:href="#DejaVuSans-2e"/>
       <use x="95.410156" xlink:href="#DejaVuSans-30"/>
      </g>
     </g>
    </g>
    <g id="ytick_2">
     <g id="line2d_13">
      <path clip-path="url(#pf13a28ef68)" d="M 56.84 240.829307 
L 399.984 240.829307 
" style="fill:none;stroke:#b0b0b0;stroke-linecap:square;stroke-width:0.8;"/>
     </g>
     <g id="line2d_14">
      <g>
       <use style="stroke:#000000;stroke-width:0.8;" x="56.84" xlink:href="#m82467b0cea" y="240.829307"/>
      </g>
     </g>
     <g id="text_8">
      <!-- 0.2 -->
      <g transform="translate(24.395 246.908057)scale(0.16 -0.16)">
       <use xlink:href="#DejaVuSans-30"/>
       <use x="63.623047" xlink:href="#DejaVuSans-2e"/>
       <use x="95.410156" xlink:href="#DejaVuSans-32"/>
      </g>
     </g>
    </g>
    <g id="ytick_3">
     <g id="line2d_15">
      <path clip-path="url(#pf13a28ef68)" d="M 56.84 187.498614 
L 399.984 187.498614 
" style="fill:none;stroke:#b0b0b0;stroke-linecap:square;stroke-width:0.8;"/>
     </g>
     <g id="line2d_16">
      <g>
       <use style="stroke:#000000;stroke-width:0.8;" x="56.84" xlink:href="#m82467b0cea" y="187.498614"/>
      </g>
     </g>
     <g id="text_9">
      <!-- 0.4 -->
      <g transform="translate(24.395 193.577364)scale(0.16 -0.16)">
       <use xlink:href="#DejaVuSans-30"/>
       <use x="63.623047" xlink:href="#DejaVuSans-2e"/>
       <use x="95.410156" xlink:href="#DejaVuSans-34"/>
      </g>
     </g>
    </g>
    <g id="ytick_4">
     <g id="line2d_17">
      <path clip-path="url(#pf13a28ef68)" d="M 56.84 134.167921 
L 399.984 134.167921 
" style="fill:none;stroke:#b0b0b0;stroke-linecap:square;stroke-width:0.8;"/>
     </g>
     <g id="line2d_18">
      <g>
       <use style="stroke:#000000;stroke-width:0.8;" x="56.84" xlink:href="#m82467b0cea" y="134.167921"/>
      </g>
     </g>
     <g id="text_10">
      <!-- 0.6 -->
      <g transform="translate(24.395 140.246671)scale(0.16 -0.16)">
       <use xlink:href="#DejaVuSans-30"/>
       <use x="63.623047" xlink:href="#DejaVuSans-2e"/>
       <use x="95.410156" xlink:href="#DejaVuSans-36"/>
      </g>
     </g>
    </g>
    <g id="ytick_5">
     <g id="line2d_19">
      <path clip-path="url(#pf13a28ef68)" d="M 56.84 80.837228 
L 399.984 80.837228 
" style="fill:none;stroke:#b0b0b0;stroke-linecap:square;stroke-width:0.8;"/>
     </g>
     <g id="line2d_20">
      <g>
       <use style="stroke:#000000;stroke-width:0.8;" x="56.84" xlink:href="#m82467b0cea" y="80.837228"/>
      </g>
     </g>
     <g id="text_11">
      <!-- 0.8 -->
      <g transform="translate(24.395 86.915978)scale(0.16 -0.16)">
       <use xlink:href="#DejaVuSans-30"/>
       <use x="63.623047" xlink:href="#DejaVuSans-2e"/>
       <use x="95.410156" xlink:href="#DejaVuSans-38"/>
      </g>
     </g>
    </g>
    <g id="ytick_6">
     <g id="line2d_21">
      <path clip-path="url(#pf13a28ef68)" d="M 56.84 27.506535 
L 399.984 27.506535 
" style="fill:none;stroke:#b0b0b0;stroke-linecap:square;stroke-width:0.8;"/>
     </g>
     <g id="line2d_22">
      <g>
       <use style="stroke:#000000;stroke-width:0.8;" x="56.84" xlink:href="#m82467b0cea" y="27.506535"/>
      </g>
     </g>
     <g id="text_12">
      <!-- 1.0 -->
      <g transform="translate(24.395 33.585285)scale(0.16 -0.16)">
       <use xlink:href="#DejaVuSans-31"/>
       <use x="63.623047" xlink:href="#DejaVuSans-2e"/>
       <use x="95.410156" xlink:href="#DejaVuSans-30"/>
      </g>
     </g>
    </g>
    <g id="text_13">
     <!-- Fraction of function,target pairs -->
     <defs>
      <path d="M 9.8125 72.90625 
L 51.703125 72.90625 
L 51.703125 64.59375 
L 19.671875 64.59375 
L 19.671875 43.109375 
L 48.578125 43.109375 
L 48.578125 34.8125 
L 19.671875 34.8125 
L 19.671875 0 
L 9.8125 0 
z
" id="DejaVuSans-46"/>
      <path d="M 41.109375 46.296875 
Q 39.59375 47.171875 37.8125 47.578125 
Q 36.03125 48 33.890625 48 
Q 26.265625 48 22.1875 43.046875 
Q 18.109375 38.09375 18.109375 28.8125 
L 18.109375 0 
L 9.078125 0 
L 9.078125 54.6875 
L 18.109375 54.6875 
L 18.109375 46.1875 
Q 20.953125 51.171875 25.484375 53.578125 
Q 30.03125 56 36.53125 56 
Q 37.453125 56 38.578125 55.875 
Q 39.703125 55.765625 41.0625 55.515625 
z
" id="DejaVuSans-72"/>
      <path d="M 48.78125 52.59375 
L 48.78125 44.1875 
Q 44.96875 46.296875 41.140625 47.34375 
Q 37.3125 48.390625 33.40625 48.390625 
Q 24.65625 48.390625 19.8125 42.84375 
Q 14.984375 37.3125 14.984375 27.296875 
Q 14.984375 17.28125 19.8125 11.734375 
Q 24.65625 6.203125 33.40625 6.203125 
Q 37.3125 6.203125 41.140625 7.25 
Q 44.96875 8.296875 48.78125 10.40625 
L 48.78125 2.09375 
Q 45.015625 0.34375 40.984375 -0.53125 
Q 36.96875 -1.421875 32.421875 -1.421875 
Q 20.0625 -1.421875 12.78125 6.34375 
Q 5.515625 14.109375 5.515625 27.296875 
Q 5.515625 40.671875 12.859375 48.328125 
Q 20.21875 56 33.015625 56 
Q 37.15625 56 41.109375 55.140625 
Q 45.0625 54.296875 48.78125 52.59375 
z
" id="DejaVuSans-63"/>
      <path d="M 18.3125 70.21875 
L 18.3125 54.6875 
L 36.8125 54.6875 
L 36.8125 47.703125 
L 18.3125 47.703125 
L 18.3125 18.015625 
Q 18.3125 11.328125 20.140625 9.421875 
Q 21.96875 7.515625 27.59375 7.515625 
L 36.8125 7.515625 
L 36.8125 0 
L 27.59375 0 
Q 17.1875 0 13.234375 3.875 
Q 9.28125 7.765625 9.28125 18.015625 
L 9.28125 47.703125 
L 2.6875 47.703125 
L 2.6875 54.6875 
L 9.28125 54.6875 
L 9.28125 70.21875 
z
" id="DejaVuSans-74"/>
      <path d="M 8.5 21.578125 
L 8.5 54.6875 
L 17.484375 54.6875 
L 17.484375 21.921875 
Q 17.484375 14.15625 20.5 10.265625 
Q 23.53125 6.390625 29.59375 6.390625 
Q 36.859375 6.390625 41.078125 11.03125 
Q 45.3125 15.671875 45.3125 23.6875 
L 45.3125 54.6875 
L 54.296875 54.6875 
L 54.296875 0 
L 45.3125 0 
L 45.3125 8.40625 
Q 42.046875 3.421875 37.71875 1 
Q 33.40625 -1.421875 27.6875 -1.421875 
Q 18.265625 -1.421875 13.375 4.4375 
Q 8.5 10.296875 8.5 21.578125 
z
M 31.109375 56 
z
" id="DejaVuSans-75"/>
      <path d="M 11.71875 12.40625 
L 22.015625 12.40625 
L 22.015625 4 
L 14.015625 -11.625 
L 7.71875 -11.625 
L 11.71875 4 
z
" id="DejaVuSans-2c"/>
      <path d="M 18.109375 8.203125 
L 18.109375 -20.796875 
L 9.078125 -20.796875 
L 9.078125 54.6875 
L 18.109375 54.6875 
L 18.109375 46.390625 
Q 20.953125 51.265625 25.265625 53.625 
Q 29.59375 56 35.59375 56 
Q 45.5625 56 51.78125 48.09375 
Q 58.015625 40.1875 58.015625 27.296875 
Q 58.015625 14.40625 51.78125 6.484375 
Q 45.5625 -1.421875 35.59375 -1.421875 
Q 29.59375 -1.421875 25.265625 0.953125 
Q 20.953125 3.328125 18.109375 8.203125 
z
M 48.6875 27.296875 
Q 48.6875 37.203125 44.609375 42.84375 
Q 40.53125 48.484375 33.40625 48.484375 
Q 26.265625 48.484375 22.1875 42.84375 
Q 18.109375 37.203125 18.109375 27.296875 
Q 18.109375 17.390625 22.1875 11.75 
Q 26.265625 6.109375 33.40625 6.109375 
Q 40.53125 6.109375 44.609375 11.75 
Q 48.6875 17.390625 48.6875 27.296875 
z
" id="DejaVuSans-70"/>
     </defs>
     <g transform="translate(16.859531 294.639375)rotate(-90)scale(0.17 -0.17)">
      <use xlink:href="#DejaVuSans-46"/>
      <use x="57.410156" xlink:href="#DejaVuSans-72"/>
      <use x="98.523438" xlink:href="#DejaVuSans-61"/>
      <use x="159.802734" xlink:href="#DejaVuSans-63"/>
      <use x="214.783203" xlink:href="#DejaVuSans-74"/>
      <use x="253.992188" xlink:href="#DejaVuSans-69"/>
      <use x="281.775391" xlink:href="#DejaVuSans-6f"/>
      <use x="342.957031" xlink:href="#DejaVuSans-6e"/>
      <use x="406.335938" xlink:href="#DejaVuSans-20"/>
      <use x="438.123047" xlink:href="#DejaVuSans-6f"/>
      <use x="499.304688" xlink:href="#DejaVuSans-66"/>
      <use x="534.509766" xlink:href="#DejaVuSans-20"/>
      <use x="566.296875" xlink:href="#DejaVuSans-66"/>
      <use x="601.501953" xlink:href="#DejaVuSans-75"/>
      <use x="664.880859" xlink:href="#DejaVuSans-6e"/>
      <use x="728.259766" xlink:href="#DejaVuSans-63"/>
      <use x="783.240234" xlink:href="#DejaVuSans-74"/>
      <use x="822.449219" xlink:href="#DejaVuSans-69"/>
      <use x="850.232422" xlink:href="#DejaVuSans-6f"/>
      <use x="911.414062" xlink:href="#DejaVuSans-6e"/>
      <use x="974.792969" xlink:href="#DejaVuSans-2c"/>
      <use x="1006.580078" xlink:href="#DejaVuSans-74"/>
      <use x="1045.789062" xlink:href="#DejaVuSans-61"/>
      <use x="1107.068359" xlink:href="#DejaVuSans-72"/>
      <use x="1148.166016" xlink:href="#DejaVuSans-67"/>
      <use x="1211.642578" xlink:href="#DejaVuSans-65"/>
      <use x="1273.166016" xlink:href="#DejaVuSans-74"/>
      <use x="1312.375" xlink:href="#DejaVuSans-20"/>
      <use x="1344.162109" xlink:href="#DejaVuSans-70"/>
      <use x="1407.638672" xlink:href="#DejaVuSans-61"/>
      <use x="1468.917969" xlink:href="#DejaVuSans-69"/>
      <use x="1496.701172" xlink:href="#DejaVuSans-72"/>
      <use x="1537.814453" xlink:href="#DejaVuSans-73"/>
     </g>
    </g>
   </g>
   <g id="line2d_23">
    <defs>
     <path d="M 0 1.5 
C 0.397805 1.5 0.77937 1.341951 1.06066 1.06066 
C 1.341951 0.77937 1.5 0.397805 1.5 0 
C 1.5 -0.397805 1.341951 -0.77937 1.06066 -1.06066 
C 0.77937 -1.341951 0.397805 -1.5 0 -1.5 
C -0.397805 -1.5 -0.77937 -1.341951 -1.06066 -1.06066 
C -1.341951 -0.77937 -1.5 -0.397805 -1.5 0 
C -1.5 0.397805 -1.341951 0.77937 -1.06066 1.06066 
C -0.77937 1.341951 -0.397805 1.5 0 1.5 
z
" id="mcdff9b18e6" style="stroke:#00bfbf;"/>
    </defs>
    <g>
     <use style="fill:#00bfbf;stroke:#00bfbf;" x="247.701373" xlink:href="#mcdff9b18e6" y="126.848022"/>
     <use style="fill:#00bfbf;stroke:#00bfbf;" x="247.701373" xlink:href="#mcdff9b18e6" y="126.848022"/>
    </g>
   </g>
   <g id="line2d_24">
    <path d="M 44.939466 294.16 
L 44.939466 291.0229 
L 56.84 291.0229 
L 56.84 288.931501 
L 63.801366 288.931501 
L 63.801366 285.271551 
L 68.740534 285.271551 
L 68.740534 284.225851 
L 72.57165 284.225851 
L 72.57165 283.180151 
L 75.7019 283.180151 
L 75.7019 276.905952 
L 78.348489 276.905952 
L 78.348489 276.383102 
L 80.641068 276.383102 
L 80.641068 274.814553 
L 82.663267 274.814553 
L 82.663267 273.246003 
L 84.472185 273.246003 
L 84.472185 272.723153 
L 86.10855 272.723153 
L 86.10855 272.200303 
L 87.602435 272.200303 
L 87.602435 270.631753 
L 90.249023 270.631753 
L 90.249023 270.108903 
L 91.433551 270.108903 
L 91.433551 269.063203 
L 92.541603 269.063203 
L 92.541603 266.971804 
L 95.492072 266.971804 
L 95.492072 266.448954 
L 97.210389 266.448954 
L 97.210389 263.834704 
L 98.009084 263.834704 
L 98.009084 262.789004 
L 98.77227 262.789004 
L 98.77227 261.220454 
L 99.502969 261.220454 
L 99.502969 260.697604 
L 100.203835 260.697604 
L 100.203835 259.129055 
L 100.877209 259.129055 
L 100.877209 257.560505 
L 101.525167 257.560505 
L 101.525167 257.037655 
L 102.149557 257.037655 
L 102.149557 255.991955 
L 103.334085 255.991955 
L 103.334085 255.469105 
L 103.897048 255.469105 
L 103.897048 253.900555 
L 104.442137 253.900555 
L 104.442137 251.809156 
L 109.909618 251.809156 
L 109.909618 251.286306 
L 110.672804 251.286306 
L 110.672804 250.763456 
L 111.04204 250.763456 
L 111.04204 249.194906 
L 111.403503 249.194906 
L 111.403503 248.672056 
L 112.444358 248.672056 
L 112.444358 247.626356 
L 112.777744 247.626356 
L 112.777744 246.580656 
L 114.050092 246.580656 
L 114.050092 246.057806 
L 114.946061 246.057806 
L 114.946061 245.534956 
L 115.518408 245.534956 
L 115.518408 245.012106 
L 116.07229 245.012106 
L 116.07229 244.489256 
L 117.129168 244.489256 
L 117.129168 243.966407 
L 117.383526 243.966407 
L 117.383526 243.443557 
L 118.364869 243.443557 
L 118.364869 242.920707 
L 120.173787 242.920707 
L 120.173787 242.397857 
L 120.805841 242.397857 
L 120.805841 240.306457 
L 122.758949 240.306457 
L 122.758949 239.783607 
L 122.942575 239.783607 
L 122.942575 239.260757 
L 123.304037 239.260757 
L 123.304037 238.737907 
L 124.004904 238.737907 
L 124.004904 238.215057 
L 126.700476 238.215057 
L 126.700476 237.692207 
L 126.846595 237.692207 
L 126.846595 237.169357 
L 128.901096 237.169357 
L 128.901096 236.646507 
L 129.28406 236.646507 
L 129.28406 236.123658 
L 129.409839 236.123658 
L 129.409839 235.600808 
L 129.781742 235.600808 
L 129.781742 234.032258 
L 130.619413 234.032258 
L 130.619413 233.509408 
L 131.529233 233.509408 
L 131.529233 232.463708 
L 132.074321 232.463708 
L 132.074321 230.372308 
L 132.602635 230.372308 
L 132.602635 229.849458 
L 132.911992 229.849458 
L 132.911992 228.280909 
L 133.710687 228.280909 
L 133.710687 226.712359 
L 134.566928 226.712359 
L 134.566928 226.189509 
L 134.843109 226.189509 
L 134.843109 225.666659 
L 135.382488 225.666659 
L 135.382488 225.143809 
L 135.558581 225.143809 
L 135.558581 224.620959 
L 135.991068 224.620959 
L 135.991068 224.098109 
L 136.329381 224.098109 
L 136.329381 223.575259 
L 136.49607 223.575259 
L 136.49607 223.052409 
L 136.661157 223.052409 
L 136.661157 222.529559 
L 137.067058 222.529559 
L 137.067058 222.006709 
L 137.697178 222.006709 
L 137.774342 220.96101 
L 137.85116 220.96101 
L 137.85116 220.43816 
L 138.079574 220.43816 
L 138.079574 219.91531 
L 139.248968 219.91531 
L 139.248968 219.39246 
L 139.805092 219.39246 
L 139.805092 218.86961 
L 140.541491 218.86961 
L 140.541491 218.34676 
L 141.620849 218.34676 
L 141.620849 217.82391 
L 142.809479 217.82391 
L 142.809479 217.30106 
L 143.429767 217.30106 
L 143.429767 216.77821 
L 144.451064 216.77821 
L 144.451064 216.25536 
L 145.708495 216.25536 
L 145.708495 215.73251 
L 146.834725 215.73251 
L 146.834725 215.20966 
L 147.502857 215.20966 
L 147.502857 214.68681 
L 148.187989 214.68681 
L 148.187989 213.64111 
L 148.355084 213.64111 
L 148.355084 213.118261 
L 149.167001 213.118261 
L 149.167001 212.595411 
L 149.789975 212.595411 
L 149.789975 212.072561 
L 150.205523 212.072561 
L 150.205523 211.549711 
L 150.501544 211.549711 
L 150.501544 211.026861 
L 151.739794 211.026861 
L 151.773893 209.981161 
L 152.211125 209.981161 
L 152.211125 209.458311 
L 152.54004 209.458311 
L 152.54004 208.935461 
L 153.490587 208.935461 
L 153.490587 208.412611 
L 154.273863 208.412611 
L 154.273863 207.889761 
L 154.909819 207.889761 
L 154.909819 206.844061 
L 155.468205 206.844061 
L 155.468205 206.321211 
L 156.814953 206.321211 
L 156.814953 205.798361 
L 160.025441 205.798361 
L 160.025441 205.275512 
L 164.938256 205.275512 
L 164.938256 204.752662 
L 165.282898 204.752662 
L 165.282898 204.229812 
L 165.847362 204.229812 
L 165.847362 203.706962 
L 165.981903 203.706962 
L 165.981903 203.184112 
L 167.035891 203.184112 
L 167.091816 202.138412 
L 167.161467 202.138412 
L 167.161467 201.615562 
L 167.382468 201.615562 
L 167.409895 200.569862 
L 167.654779 200.569862 
L 167.695256 199.524162 
L 168.677348 199.524162 
L 168.677348 199.001312 
L 169.363445 199.001312 
L 169.363445 198.478462 
L 171.050872 198.478462 
L 171.150337 196.909913 
L 172.718445 196.909913 
L 172.718445 196.387063 
L 174.28426 196.387063 
L 174.28426 195.864213 
L 176.655845 195.864213 
L 176.655845 195.341363 
L 176.964917 195.341363 
L 176.980618 194.295663 
L 177.121282 194.295663 
L 177.121282 193.772813 
L 177.383879 193.772813 
L 177.475609 192.727113 
L 177.597159 192.727113 
L 177.627413 191.681413 
L 177.792861 191.681413 
L 177.792861 191.158563 
L 177.956729 191.158563 
L 177.993755 190.112864 
L 178.177696 190.112864 
L 178.177696 189.590014 
L 178.431946 189.590014 
L 178.431946 189.067164 
L 178.568407 189.067164 
L 178.568407 188.544314 
L 178.710887 188.544314 
L 178.710887 188.021464 
L 178.852196 188.021464 
L 178.852196 187.498614 
L 179.082841 187.498614 
L 179.082841 186.975764 
L 179.59579 186.975764 
L 179.59579 186.452914 
L 180.360147 186.452914 
L 180.360147 185.930064 
L 180.666742 185.930064 
L 180.666742 185.407214 
L 180.874394 185.407214 
L 180.874394 184.884364 
L 181.122772 184.884364 
L 181.190451 183.838664 
L 183.842302 183.838664 
L 183.842302 183.315814 
L 184.299196 183.315814 
L 184.319677 182.270115 
L 184.962517 182.270115 
L 184.962517 181.747265 
L 185.804177 181.747265 
L 185.893123 180.701565 
L 185.967669 180.701565 
L 186.060399 179.655865 
L 186.198561 179.655865 
L 186.198561 179.133015 
L 186.435439 179.133015 
L 186.435439 178.610165 
L 186.575115 178.610165 
L 186.575115 178.087315 
L 186.864347 178.087315 
L 186.864347 177.564465 
L 188.881152 177.564465 
L 188.881152 177.041615 
L 190.629149 177.041615 
L 190.728085 175.473065 
L 191.104441 175.473065 
L 191.104441 174.950215 
L 192.636773 174.950215 
L 192.73109 173.904516 
L 193.572343 173.904516 
L 193.572343 173.381666 
L 194.20249 173.381666 
L 194.20249 172.858816 
L 194.499201 172.858816 
L 194.499201 172.335966 
L 195.634632 172.335966 
L 195.634632 171.813116 
L 195.782253 171.813116 
L 195.782253 171.290266 
L 196.46915 171.290266 
L 196.516999 170.244566 
L 196.958905 170.244566 
L 197.034716 169.198866 
L 198.190589 169.198866 
L 198.190589 168.676016 
L 199.245662 168.676016 
L 199.252097 167.630316 
L 199.380287 167.630316 
L 199.380287 167.107467 
L 200.52276 167.107467 
L 200.572476 166.061767 
L 200.758129 166.061767 
L 200.861928 165.016067 
L 201.384975 165.016067 
L 201.422813 163.970367 
L 201.498239 163.970367 
L 201.498239 163.447517 
L 201.677921 163.447517 
L 201.713261 162.401817 
L 201.813306 162.401817 
L 201.813306 161.878967 
L 202.53854 161.878967 
L 202.621571 160.833267 
L 203.761865 160.833267 
L 203.761865 160.310417 
L 204.394852 160.310417 
L 204.429784 159.264718 
L 204.993054 159.264718 
L 205.054344 158.219018 
L 206.094389 158.219018 
L 206.094389 157.696168 
L 206.784311 157.696168 
L 206.805042 156.650468 
L 207.36756 156.650468 
L 207.36756 156.127618 
L 207.947159 156.127618 
L 208.024525 154.559068 
L 209.514657 154.559068 
L 209.514657 154.036218 
L 210.394124 154.036218 
L 210.489119 152.990518 
L 211.725207 152.990518 
L 211.725207 152.467668 
L 212.265239 152.467668 
L 212.265239 151.944818 
L 213.305384 151.944818 
L 213.305384 151.421969 
L 213.592414 151.421969 
L 213.592414 150.899119 
L 213.893929 150.899119 
L 213.893929 150.376269 
L 214.595965 150.376269 
L 214.595965 149.853419 
L 214.715749 149.853419 
L 214.715749 149.330569 
L 215.524144 149.330569 
L 215.573945 148.284869 
L 216.454384 148.284869 
L 216.532942 147.239169 
L 217.079843 147.239169 
L 217.079843 146.716319 
L 217.231771 146.716319 
L 217.246815 145.670619 
L 218.155408 145.670619 
L 218.155408 145.147769 
L 218.798558 145.147769 
L 218.798558 144.624919 
L 219.478667 144.624919 
L 219.485928 143.57922 
L 220.787524 143.57922 
L 220.787524 143.05637 
L 221.394536 143.05637 
L 221.453485 142.01067 
L 222.00363 142.01067 
L 222.00363 141.48782 
L 222.679744 141.48782 
L 222.679744 140.96497 
L 223.54049 140.96497 
L 223.54049 140.44212 
L 223.842158 140.44212 
L 223.842158 139.91927 
L 224.7846 139.91927 
L 224.813657 138.87357 
L 225.274359 138.87357 
L 225.34675 137.30502 
L 226.755559 137.30502 
L 226.755559 136.78217 
L 227.625075 136.78217 
L 227.625075 136.259321 
L 228.455408 136.259321 
L 228.455408 135.736471 
L 229.241823 135.736471 
L 229.241823 135.213621 
L 229.685798 135.213621 
L 229.685798 134.690771 
L 230.789865 134.690771 
L 230.789865 134.167921 
L 231.138191 134.167921 
L 231.151576 133.122221 
L 231.49927 133.122221 
L 231.551639 132.076521 
L 232.799342 132.076521 
L 232.799342 131.553671 
L 235.247909 131.553671 
L 235.247909 131.030821 
L 236.631978 131.030821 
L 236.631978 130.507971 
L 236.98233 130.507971 
L 236.98233 129.985121 
L 238.483021 129.985121 
L 238.483021 129.462271 
L 240.280041 129.462271 
L 240.280041 128.939421 
L 240.676419 128.939421 
L 240.676419 128.416572 
L 242.253575 128.416572 
L 242.253575 127.893722 
L 246.742491 127.893722 
L 246.742491 127.370872 
L 247.701373 127.370872 
L 247.701373 126.848022 
L 333.569032 126.848022 
L 333.569032 126.848022 
" style="fill:none;stroke:#00bfbf;stroke-linecap:square;stroke-width:1.5;"/>
   </g>
   <g id="line2d_25">
    <defs>
     <path d="M -6 0 
L 6 0 
M 0 6 
L 0 -6 
" id="m33c6cd04cc" style="stroke:#00bfbf;stroke-width:1.5;"/>
    </defs>
    <g>
     <use style="fill-opacity:0;stroke:#00bfbf;stroke-width:1.5;" x="86.10855" xlink:href="#m33c6cd04cc" y="272.723153"/>
     <use style="fill-opacity:0;stroke:#00bfbf;stroke-width:1.5;" x="143.429767" xlink:href="#m33c6cd04cc" y="217.30106"/>
     <use style="fill-opacity:0;stroke:#00bfbf;stroke-width:1.5;" x="186.864347" xlink:href="#m33c6cd04cc" y="177.564465"/>
     <use style="fill-opacity:0;stroke:#00bfbf;stroke-width:1.5;" x="247.701373" xlink:href="#m33c6cd04cc" y="127.370872"/>
     <use style="fill-opacity:0;stroke:#00bfbf;stroke-width:1.5;" x="247.701373" xlink:href="#m33c6cd04cc" y="126.848022"/>
     <use style="fill-opacity:0;stroke:#00bfbf;stroke-width:1.5;" x="333.569032" xlink:href="#m33c6cd04cc" y="126.848022"/>
    </g>
   </g>
   <g id="line2d_26">
    <path style="fill:none;stroke:#00bfbf;stroke-linecap:square;stroke-width:1.5;"/>
    <g/>
   </g>
   <g id="line2d_27">
    <path clip-path="url(#pf13a28ef68)" d="M 164.375293 205.275512 
" style="fill:none;stroke:#00bfbf;stroke-linecap:square;stroke-width:1.5;"/>
    <defs>
     <path d="M -12 12 
L 12 -12 
M -12 -12 
L 12 12 
" id="m493601888e" style="stroke:#00bfbf;stroke-width:3;"/>
    </defs>
    <g clip-path="url(#pf13a28ef68)">
     <use style="fill:#00bfbf;stroke:#00bfbf;stroke-width:3;" x="164.375293" xlink:href="#m493601888e" y="205.275512"/>
    </g>
   </g>
   <g id="line2d_28">
    <defs>
     <path d="M 0 1.5 
C 0.397805 1.5 0.77937 1.341951 1.06066 1.06066 
C 1.341951 0.77937 1.5 0.397805 1.5 0 
C 1.5 -0.397805 1.341951 -0.77937 1.06066 -1.06066 
C 0.77937 -1.341951 0.397805 -1.5 0 -1.5 
C -0.397805 -1.5 -0.77937 -1.341951 -1.06066 -1.06066 
C -1.341951 -0.77937 -1.5 -0.397805 -1.5 0 
C -1.5 0.397805 -1.341951 0.77937 -1.06066 1.06066 
C -0.77937 1.341951 -0.397805 1.5 0 1.5 
z
" id="m897fd2ecd9" style="stroke:#008000;"/>
    </defs>
    <g>
     <use style="fill:#008000;stroke:#008000;" x="250.429618" xlink:href="#m897fd2ecd9" y="194.818513"/>
     <use style="fill:#008000;stroke:#008000;" x="250.429618" xlink:href="#m897fd2ecd9" y="194.818513"/>
    </g>
   </g>
   <g id="line2d_29">
    <path d="M 80.641068 294.16 
L 80.641068 293.63715 
L 82.015309 293.63715 
L 82.015309 293.1143 
L 86.621091 293.1143 
L 86.621091 291.54575 
L 93.915843 291.54575 
L 93.915843 291.0229 
L 96.372719 291.0229 
L 96.372719 290.50005 
L 97.480771 290.50005 
L 97.480771 289.977201 
L 99.019308 289.977201 
L 99.019308 289.454351 
L 101.73583 289.454351 
L 101.73583 288.931501 
L 102.553549 288.931501 
L 102.553549 288.408651 
L 104.080674 288.408651 
L 104.080674 287.362951 
L 104.796146 287.362951 
L 104.796146 286.840101 
L 105.482991 286.840101 
L 105.482991 286.317251 
L 106.143413 286.317251 
L 106.143413 285.794401 
L 107.088725 285.794401 
L 107.088725 285.271551 
L 108.273253 285.271551 
L 108.273253 284.748701 
L 109.110924 284.748701 
L 109.110924 284.225851 
L 110.672804 284.225851 
L 110.672804 283.180151 
L 111.640318 283.180151 
L 111.640318 282.657301 
L 114.253276 282.657301 
L 114.253276 281.611602 
L 116.162891 281.611602 
L 116.162891 281.088752 
L 116.870985 281.088752 
L 116.870985 280.565902 
L 119.141873 280.565902 
L 119.141873 280.043052 
L 119.293141 280.043052 
L 119.293141 279.520202 
L 119.443088 279.520202 
L 119.443088 278.997352 
L 119.885229 278.997352 
L 119.885229 278.474502 
L 120.457576 278.474502 
L 120.457576 277.428802 
L 121.011458 277.428802 
L 121.011458 276.905952 
L 121.147181 276.905952 
L 121.147181 275.860252 
L 122.448473 275.860252 
L 122.448473 273.768853 
L 123.540853 273.768853 
L 123.540853 273.246003 
L 124.004904 273.246003 
L 124.004904 272.723153 
L 125.536899 272.723153 
L 125.536899 272.200303 
L 125.848125 272.200303 
L 125.848125 271.677453 
L 127.135154 271.677453 
L 127.135154 271.154603 
L 128.684588 271.154603 
L 128.684588 270.631753 
L 129.781742 270.631753 
L 129.781742 270.108903 
L 130.025276 270.108903 
L 130.025276 269.586053 
L 131.268812 269.586053 
L 131.268812 269.063203 
L 131.492271 269.063203 
L 131.492271 268.540353 
L 132.216802 268.540353 
L 132.216802 268.017503 
L 132.498265 268.017503 
L 132.498265 267.494653 
L 132.843726 267.494653 
L 132.843726 266.971804 
L 133.382401 266.971804 
L 133.448562 265.926104 
L 135.441387 265.926104 
L 135.441387 265.403254 
L 136.245426 265.403254 
L 136.245426 264.880404 
L 137.013489 264.880404 
L 137.013489 263.834704 
L 138.003773 263.834704 
L 138.003773 263.311854 
L 141.641349 263.311854 
L 141.641349 262.266154 
L 144.258645 262.266154 
L 144.258645 261.743304 
L 146.343275 261.743304 
L 146.343275 261.220454 
L 147.164616 261.220454 
L 147.164616 260.697604 
L 150.080658 260.697604 
L 150.080658 260.174754 
L 150.768486 260.174754 
L 150.768486 259.651904 
L 152.50743 259.651904 
L 152.50743 259.129055 
L 153.62364 259.129055 
L 153.62364 258.606205 
L 156.644795 258.606205 
L 156.644795 257.560505 
L 156.865673 257.560505 
L 156.865673 257.037655 
L 157.100407 257.037655 
L 157.100407 256.514805 
L 157.849831 256.514805 
L 157.849831 255.991955 
L 160.241755 255.991955 
L 160.241755 255.469105 
L 161.626661 255.469105 
L 161.626661 254.946255 
L 161.880642 254.946255 
L 161.880642 253.900555 
L 162.812894 253.900555 
L 162.812894 253.377705 
L 164.656401 253.377705 
L 164.656401 252.854855 
L 164.848353 252.854855 
L 164.848353 252.332005 
L 165.121882 252.332005 
L 165.121882 251.809156 
L 165.887336 251.809156 
L 165.887336 251.286306 
L 166.330745 251.286306 
L 166.330745 250.763456 
L 166.620115 250.763456 
L 166.620115 250.240606 
L 166.867016 250.240606 
L 166.867016 249.717756 
L 167.193874 249.717756 
L 167.193874 249.194906 
L 169.347132 249.194906 
L 169.347132 248.672056 
L 170.33029 248.672056 
L 170.33029 248.149206 
L 171.51379 248.149206 
L 171.51379 247.626356 
L 172.8753 247.626356 
L 172.8753 247.103506 
L 173.837808 247.103506 
L 173.837808 246.580656 
L 174.025243 246.580656 
L 174.025243 246.057806 
L 176.204825 246.057806 
L 176.204825 245.534956 
L 176.791253 245.534956 
L 176.791253 245.012106 
L 177.531427 245.012106 
L 177.531427 244.489256 
L 177.682739 244.489256 
L 177.707829 243.443557 
L 178.49672 243.443557 
L 178.49672 242.920707 
L 178.950424 242.920707 
L 178.950424 242.397857 
L 179.283003 242.397857 
L 179.283003 241.875007 
L 179.969041 241.875007 
L 180.021706 240.829307 
L 180.654076 240.829307 
L 180.654076 240.306457 
L 181.083684 240.306457 
L 181.083684 239.783607 
L 181.970714 239.783607 
L 181.970714 239.260757 
L 183.75967 239.260757 
L 183.75967 238.737907 
L 183.914061 238.737907 
L 183.914061 238.215057 
L 184.160301 238.215057 
L 184.160301 237.692207 
L 186.34017 237.692207 
L 186.376525 236.646507 
L 186.851105 236.646507 
L 186.921613 235.600808 
L 188.920341 235.600808 
L 188.920341 235.077958 
L 189.695889 235.077958 
L 189.695889 234.555108 
L 190.080669 234.555108 
L 190.139108 233.509408 
L 190.257807 233.509408 
L 190.320458 232.463708 
L 190.39486 232.463708 
L 190.39486 231.940858 
L 190.813604 231.940858 
L 190.897537 230.895158 
L 191.172096 230.895158 
L 191.172096 230.372308 
L 191.44684 230.372308 
L 191.44684 229.849458 
L 192.901636 229.849458 
L 192.901636 229.326608 
L 193.282317 229.326608 
L 193.282317 228.803758 
L 193.798727 228.803758 
L 193.822281 227.758059 
L 195.271648 227.758059 
L 195.271648 227.235209 
L 196.122705 227.235209 
L 196.122705 226.712359 
L 196.863051 226.712359 
L 196.863051 226.189509 
L 197.091559 226.189509 
L 197.091559 225.666659 
L 198.823614 225.666659 
L 198.933198 224.620959 
L 198.982646 224.620959 
L 199.013117 223.575259 
L 199.242086 223.575259 
L 199.242086 223.052409 
L 199.580616 223.052409 
L 199.580616 222.529559 
L 199.731429 222.529559 
L 199.731429 222.006709 
L 200.004525 222.006709 
L 200.004525 221.483859 
L 200.261217 221.483859 
L 200.261217 220.96101 
L 201.270323 220.96101 
L 201.28176 219.91531 
L 201.403274 219.91531 
L 201.403274 219.39246 
L 202.233014 219.39246 
L 202.233014 218.86961 
L 202.520231 218.86961 
L 202.520231 218.34676 
L 202.996931 218.34676 
L 203.060037 216.77821 
L 203.657656 216.77821 
L 203.657656 216.25536 
L 204.736856 216.25536 
L 204.736856 215.73251 
L 206.131778 215.73251 
L 206.131778 215.20966 
L 208.916533 215.20966 
L 208.918975 214.16396 
L 209.16471 214.16396 
L 209.16471 213.64111 
L 210.185158 213.64111 
L 210.246307 212.595411 
L 210.43293 212.595411 
L 210.43293 212.072561 
L 211.335367 212.072561 
L 211.338196 211.026861 
L 212.476319 211.026861 
L 212.48492 209.981161 
L 213.515655 209.981161 
L 213.515655 209.458311 
L 214.419583 209.458311 
L 214.419583 208.935461 
L 215.216908 208.935461 
L 215.216908 208.412611 
L 216.312861 208.412611 
L 216.312861 207.889761 
L 217.064652 207.889761 
L 217.064652 207.366911 
L 217.736253 207.366911 
L 217.736253 206.844061 
L 218.391949 206.844061 
L 218.391949 206.321211 
L 219.156786 206.321211 
L 219.243124 205.275512 
L 219.272104 205.275512 
L 219.332137 204.229812 
L 219.96618 204.229812 
L 219.96618 203.706962 
L 220.49072 203.706962 
L 220.49072 203.184112 
L 220.640689 203.184112 
L 220.640689 202.661262 
L 221.911627 202.661262 
L 221.911627 202.138412 
L 222.383336 202.138412 
L 222.383336 201.615562 
L 226.347575 201.615562 
L 226.347575 201.092712 
L 227.061783 201.092712 
L 227.061783 200.569862 
L 229.419856 200.569862 
L 229.419856 200.047012 
L 229.844756 200.047012 
L 229.844756 199.524162 
L 230.926994 199.524162 
L 230.926994 199.001312 
L 233.496816 199.001312 
L 233.543441 197.955613 
L 235.237981 197.955613 
L 235.237981 197.432763 
L 235.644956 197.432763 
L 235.644956 196.909913 
L 236.03932 196.909913 
L 236.03932 196.387063 
L 238.551489 196.387063 
L 238.551489 195.864213 
L 244.070972 195.864213 
L 244.070972 195.341363 
L 250.429618 195.341363 
L 250.429618 194.818513 
L 333.569032 194.818513 
L 333.569032 194.818513 
" style="fill:none;stroke:#008000;stroke-linecap:square;stroke-width:1.5;"/>
   </g>
   <g id="line2d_30">
    <defs>
     <path d="M -0 6 
L 6 -6 
L -6 -6 
z
" id="mb16309b7a9" style="stroke:#008000;stroke-linejoin:miter;stroke-width:1.5;"/>
    </defs>
    <g>
     <use style="fill-opacity:0;stroke:#008000;stroke-linejoin:miter;stroke-width:1.5;" x="165.121882" xlink:href="#mb16309b7a9" y="251.809156"/>
     <use style="fill-opacity:0;stroke:#008000;stroke-linejoin:miter;stroke-width:1.5;" x="229.844756" xlink:href="#mb16309b7a9" y="199.524162"/>
     <use style="fill-opacity:0;stroke:#008000;stroke-linejoin:miter;stroke-width:1.5;" x="250.429618" xlink:href="#mb16309b7a9" y="194.818513"/>
     <use style="fill-opacity:0;stroke:#008000;stroke-linejoin:miter;stroke-width:1.5;" x="250.429618" xlink:href="#mb16309b7a9" y="194.818513"/>
     <use style="fill-opacity:0;stroke:#008000;stroke-linejoin:miter;stroke-width:1.5;" x="333.569032" xlink:href="#mb16309b7a9" y="194.818513"/>
    </g>
   </g>
   <g id="line2d_31">
    <path style="fill:none;stroke:#008000;stroke-linecap:square;stroke-width:1.5;"/>
    <g/>
   </g>
   <g id="line2d_32">
    <path clip-path="url(#pf13a28ef68)" d="M 164.100586 253.377705 
" style="fill:none;stroke:#008000;stroke-linecap:square;stroke-width:1.5;"/>
    <defs>
     <path d="M -12 12 
L 12 -12 
M -12 -12 
L 12 12 
" id="m6c7b5613fd" style="stroke:#008000;stroke-width:3;"/>
    </defs>
    <g clip-path="url(#pf13a28ef68)">
     <use style="fill:#008000;stroke:#008000;stroke-width:3;" x="164.100586" xlink:href="#m6c7b5613fd" y="253.377705"/>
    </g>
   </g>
   <g id="line2d_33">
    <defs>
     <path d="M 0 1.5 
C 0.397805 1.5 0.77937 1.341951 1.06066 1.06066 
C 1.341951 0.77937 1.5 0.397805 1.5 0 
C 1.5 -0.397805 1.341951 -0.77937 1.06066 -1.06066 
C 0.77937 -1.341951 0.397805 -1.5 0 -1.5 
C -0.397805 -1.5 -0.77937 -1.341951 -1.06066 -1.06066 
C -1.341951 -0.77937 -1.5 -0.397805 -1.5 0 
C -1.5 0.397805 -1.341951 0.77937 -1.06066 1.06066 
C -0.77937 1.341951 -0.397805 1.5 0 1.5 
z
" id="m99087f78b6" style="stroke:#0000ff;"/>
    </defs>
    <g>
     <use style="fill:#0000ff;stroke:#0000ff;" x="246.141222" xlink:href="#m99087f78b6" y="220.96101"/>
     <use style="fill:#0000ff;stroke:#0000ff;" x="246.141222" xlink:href="#m99087f78b6" y="220.96101"/>
    </g>
   </g>
   <g id="line2d_34">
    <path d="M 100.065932 294.16 
L 100.065932 293.63715 
L 112.511555 293.63715 
L 112.511555 293.1143 
L 113.552409 293.1143 
L 113.552409 292.59145 
L 116.555951 292.59145 
L 116.555951 292.0686 
L 117.584333 292.0686 
L 117.584333 291.0229 
L 119.650838 291.0229 
L 119.650838 290.50005 
L 120.597731 290.50005 
L 120.597731 289.977201 
L 120.76442 289.977201 
L 120.76442 289.454351 
L 122.195986 289.454351 
L 122.195986 288.931501 
L 123.446518 288.931501 
L 123.446518 288.408651 
L 125.069979 288.408651 
L 125.069979 287.885801 
L 127.418943 287.885801 
L 127.418943 286.840101 
L 127.586991 286.840101 
L 127.586991 286.317251 
L 128.027242 286.317251 
L 128.027242 285.794401 
L 129.233489 285.794401 
L 129.334482 284.748701 
L 132.202607 284.748701 
L 132.202607 284.225851 
L 133.866062 284.225851 
L 133.904687 283.180151 
L 141.159327 283.180151 
L 141.159327 282.657301 
L 141.949975 282.657301 
L 141.949975 282.134452 
L 143.139331 282.134452 
L 143.139331 281.611602 
L 149.520201 281.611602 
L 149.520201 281.088752 
L 149.674876 281.088752 
L 149.674876 280.565902 
L 152.044274 280.565902 
L 152.044274 280.043052 
L 154.04261 280.043052 
L 154.04261 279.520202 
L 154.208953 279.520202 
L 154.208953 278.997352 
L 154.790215 278.997352 
L 154.790215 278.474502 
L 154.904142 278.474502 
L 154.904142 277.951652 
L 155.330302 277.951652 
L 155.330302 277.428802 
L 157.628418 277.428802 
L 157.628418 276.905952 
L 159.289429 276.905952 
L 159.289429 276.383102 
L 159.885839 276.383102 
L 159.885839 275.337402 
L 161.389632 275.337402 
L 161.389632 274.814553 
L 161.835202 274.814553 
L 161.835202 274.291703 
L 162.929503 274.291703 
L 162.929503 273.768853 
L 163.281625 273.768853 
L 163.281625 273.246003 
L 164.87802 273.246003 
L 164.87802 272.723153 
L 165.205176 272.723153 
L 165.205176 272.200303 
L 166.256658 272.200303 
L 166.256658 271.677453 
L 168.047395 271.677453 
L 168.047395 271.154603 
L 168.173676 271.154603 
L 168.173676 270.631753 
L 168.567545 270.631753 
L 168.567545 270.108903 
L 171.615623 270.108903 
L 171.615623 269.586053 
L 174.943504 269.586053 
L 174.968225 268.540353 
L 175.220455 268.540353 
L 175.220455 268.017503 
L 175.952313 268.017503 
L 175.952313 267.494653 
L 176.612609 267.494653 
L 176.612609 266.971804 
L 176.933472 266.971804 
L 176.933472 266.448954 
L 177.356264 266.448954 
L 177.356264 265.926104 
L 177.545606 265.926104 
L 177.545606 265.403254 
L 178.282758 265.403254 
L 178.288576 264.357554 
L 178.713725 264.357554 
L 178.713725 263.834704 
L 179.889739 263.834704 
L 179.889739 263.311854 
L 180.727409 263.311854 
L 180.727409 262.789004 
L 182.286985 262.789004 
L 182.286985 262.266154 
L 182.543139 262.266154 
L 182.543139 261.743304 
L 182.966916 261.743304 
L 182.966916 261.220454 
L 183.59534 261.220454 
L 183.6316 260.174754 
L 183.76108 260.174754 
L 183.76108 259.651904 
L 185.05592 259.651904 
L 185.05592 259.129055 
L 185.821066 259.129055 
L 185.821066 258.606205 
L 186.188467 258.606205 
L 186.188467 258.083355 
L 186.316497 258.083355 
L 186.316497 257.560505 
L 186.821051 257.560505 
L 186.821051 257.037655 
L 187.004093 257.037655 
L 187.004093 256.514805 
L 187.531611 256.514805 
L 187.531611 255.991955 
L 187.965779 255.991955 
L 187.965779 255.469105 
L 188.664791 255.469105 
L 188.664791 254.946255 
L 189.642426 254.946255 
L 189.642426 254.423405 
L 190.252978 254.423405 
L 190.252978 253.900555 
L 190.403 253.900555 
L 190.474663 252.854855 
L 190.622769 252.854855 
L 190.622769 252.332005 
L 190.952801 252.332005 
L 190.952801 251.809156 
L 191.154692 251.809156 
L 191.154692 250.763456 
L 191.529982 250.763456 
L 191.529982 249.717756 
L 192.43509 249.717756 
L 192.43509 249.194906 
L 193.720375 249.194906 
L 193.797156 248.149206 
L 193.868901 248.149206 
L 193.868901 247.626356 
L 194.344638 247.626356 
L 194.406175 246.580656 
L 196.174093 246.580656 
L 196.248845 245.534956 
L 197.051301 245.534956 
L 197.051301 245.012106 
L 198.982356 245.012106 
L 198.982356 244.489256 
L 199.632153 244.489256 
L 199.632153 243.966407 
L 200.703038 243.966407 
L 200.703038 243.443557 
L 201.498615 243.443557 
L 201.498615 242.920707 
L 203.163487 242.920707 
L 203.245936 241.875007 
L 204.751599 241.875007 
L 204.751599 241.352157 
L 205.068716 241.352157 
L 205.068716 240.829307 
L 206.159337 240.829307 
L 206.159337 240.306457 
L 206.298745 240.306457 
L 206.298745 239.783607 
L 206.519807 239.783607 
L 206.547872 238.215057 
L 207.274271 238.215057 
L 207.274271 237.692207 
L 207.807276 237.692207 
L 207.807276 237.169357 
L 208.046383 237.169357 
L 208.046383 236.646507 
L 210.124398 236.646507 
L 210.124398 236.123658 
L 210.310092 236.123658 
L 210.342945 235.077958 
L 211.411864 235.077958 
L 211.516318 234.032258 
L 211.840351 234.032258 
L 211.840351 233.509408 
L 212.521394 233.509408 
L 212.549094 232.463708 
L 215.279527 232.463708 
L 215.332732 231.418008 
L 216.63874 231.418008 
L 216.63874 230.895158 
L 218.24389 230.895158 
L 218.24389 230.372308 
L 219.769198 230.372308 
L 219.769198 229.849458 
L 220.464559 229.849458 
L 220.464559 229.326608 
L 221.670434 229.326608 
L 221.670434 228.803758 
L 222.186509 228.803758 
L 222.186509 228.280909 
L 223.931635 228.280909 
L 223.931635 227.758059 
L 225.911604 227.758059 
L 225.911604 227.235209 
L 226.296521 227.235209 
L 226.296521 226.712359 
L 231.191738 226.712359 
L 231.205082 225.666659 
L 233.340832 225.666659 
L 233.340832 225.143809 
L 233.676055 225.143809 
L 233.676055 224.620959 
L 235.864027 224.620959 
L 235.864027 224.098109 
L 238.081179 224.098109 
L 238.081179 223.575259 
L 238.52457 223.575259 
L 238.52457 223.052409 
L 243.031224 223.052409 
L 243.031224 222.529559 
L 244.534244 222.529559 
L 244.534244 222.006709 
L 245.01831 222.006709 
L 245.01831 221.483859 
L 246.141222 221.483859 
L 246.141222 220.96101 
L 333.569032 220.96101 
L 333.569032 220.96101 
" style="fill:none;stroke:#0000ff;stroke-linecap:square;stroke-width:1.5;"/>
   </g>
   <g id="line2d_35">
    <defs>
     <path d="M 0 -6 
L -1.347084 -1.854102 
L -5.706339 -1.854102 
L -2.179628 0.708204 
L -3.526712 4.854102 
L -0 2.291796 
L 3.526712 4.854102 
L 2.179628 0.708204 
L 5.706339 -1.854102 
L 1.347084 -1.854102 
z
" id="m83384692b8" style="stroke:#0000ff;stroke-linejoin:bevel;stroke-width:1.5;"/>
    </defs>
    <g>
     <use style="fill-opacity:0;stroke:#0000ff;stroke-linejoin:bevel;stroke-width:1.5;" x="129.334482" xlink:href="#m83384692b8" y="284.748701"/>
     <use style="fill-opacity:0;stroke:#0000ff;stroke-linejoin:bevel;stroke-width:1.5;" x="205.068716" xlink:href="#m83384692b8" y="241.352157"/>
     <use style="fill-opacity:0;stroke:#0000ff;stroke-linejoin:bevel;stroke-width:1.5;" x="246.141222" xlink:href="#m83384692b8" y="221.483859"/>
     <use style="fill-opacity:0;stroke:#0000ff;stroke-linejoin:bevel;stroke-width:1.5;" x="246.141222" xlink:href="#m83384692b8" y="220.96101"/>
     <use style="fill-opacity:0;stroke:#0000ff;stroke-linejoin:bevel;stroke-width:1.5;" x="333.569032" xlink:href="#m83384692b8" y="220.96101"/>
    </g>
   </g>
   <g id="line2d_36">
    <path style="fill:none;stroke:#0000ff;stroke-linecap:square;stroke-width:1.5;"/>
    <g/>
   </g>
   <g id="line2d_37">
    <path clip-path="url(#pf13a28ef68)" d="M 163.877611 273.246003 
" style="fill:none;stroke:#0000ff;stroke-linecap:square;stroke-width:1.5;"/>
    <defs>
     <path d="M -12 12 
L 12 -12 
M -12 -12 
L 12 12 
" id="mf25687dc5e" style="stroke:#0000ff;stroke-width:3;"/>
    </defs>
    <g clip-path="url(#pf13a28ef68)">
     <use style="fill:#0000ff;stroke:#0000ff;stroke-width:3;" x="163.877611" xlink:href="#mf25687dc5e" y="273.246003"/>
    </g>
   </g>
   <g id="line2d_38">
    <defs>
     <path d="M 0 1.5 
C 0.397805 1.5 0.77937 1.341951 1.06066 1.06066 
C 1.341951 0.77937 1.5 0.397805 1.5 0 
C 1.5 -0.397805 1.341951 -0.77937 1.06066 -1.06066 
C 0.77937 -1.341951 0.397805 -1.5 0 -1.5 
C -0.397805 -1.5 -0.77937 -1.341951 -1.06066 -1.06066 
C -1.341951 -0.77937 -1.5 -0.397805 -1.5 0 
C -1.5 0.397805 -1.341951 0.77937 -1.06066 1.06066 
C -0.77937 1.341951 -0.397805 1.5 0 1.5 
z
" id="m7e8b50fe48" style="stroke:#000000;"/>
    </defs>
    <g>
     <use style="stroke:#000000;" x="237.020588" xlink:href="#m7e8b50fe48" y="273.246003"/>
     <use style="stroke:#000000;" x="237.020588" xlink:href="#m7e8b50fe48" y="273.246003"/>
    </g>
   </g>
   <g id="line2d_39">
    <path d="M 127.559097 294.16 
L 127.559097 293.1143 
L 149.167001 293.1143 
L 149.167001 292.59145 
L 151.395026 292.59145 
L 151.395026 292.0686 
L 163.0571 292.0686 
L 163.0571 291.54575 
L 171.288628 291.54575 
L 171.288628 291.0229 
L 176.63344 291.0229 
L 176.63344 290.50005 
L 181.095626 290.50005 
L 181.095626 289.977201 
L 183.692216 289.977201 
L 183.692216 289.454351 
L 185.580251 289.454351 
L 185.580251 288.931501 
L 186.23247 288.931501 
L 186.23247 288.408651 
L 191.957042 288.408651 
L 191.957042 287.885801 
L 193.514329 287.885801 
L 193.514329 287.362951 
L 198.697681 287.362951 
L 198.697681 286.840101 
L 198.851587 286.840101 
L 198.851587 286.317251 
L 199.392628 286.317251 
L 199.392628 285.794401 
L 199.909297 285.794401 
L 199.909297 285.271551 
L 199.94888 285.271551 
L 199.94888 284.748701 
L 200.031051 284.748701 
L 200.031051 284.225851 
L 203.019791 284.225851 
L 203.019791 283.703001 
L 204.988142 283.703001 
L 204.988142 283.180151 
L 205.189024 283.180151 
L 205.189024 282.657301 
L 206.158476 282.657301 
L 206.158476 282.134452 
L 206.704748 282.134452 
L 206.704748 281.611602 
L 207.509201 281.611602 
L 207.509201 281.088752 
L 209.424063 281.088752 
L 209.424063 280.565902 
L 210.033539 280.565902 
L 210.033539 280.043052 
L 211.568518 280.043052 
L 211.568518 279.520202 
L 212.16101 279.520202 
L 212.16101 278.997352 
L 212.221568 278.997352 
L 212.221568 278.474502 
L 214.171723 278.474502 
L 214.171723 277.951652 
L 214.40841 277.951652 
L 214.40841 277.428802 
L 214.454651 277.428802 
L 214.454651 276.905952 
L 214.543592 276.905952 
L 214.543592 276.383102 
L 218.523394 276.383102 
L 218.523394 275.860252 
L 221.80276 275.860252 
L 221.80276 275.337402 
L 225.238332 275.337402 
L 225.238332 274.814553 
L 227.196832 274.814553 
L 227.196832 274.291703 
L 231.256825 274.291703 
L 231.256825 273.768853 
L 237.020588 273.768853 
L 237.020588 273.246003 
L 333.569032 273.246003 
" style="fill:none;stroke:#000000;stroke-linecap:square;stroke-width:1.5;"/>
   </g>
   <g id="line2d_40">
    <defs>
     <path d="M 0 6 
C 1.591219 6 3.117479 5.367802 4.242641 4.242641 
C 5.367802 3.117479 6 1.591219 6 0 
C 6 -1.591219 5.367802 -3.117479 4.242641 -4.242641 
C 3.117479 -5.367802 1.591219 -6 0 -6 
C -1.591219 -6 -3.117479 -5.367802 -4.242641 -4.242641 
C -5.367802 -3.117479 -6 -1.591219 -6 0 
C -6 1.591219 -5.367802 3.117479 -4.242641 4.242641 
C -3.117479 5.367802 -1.591219 6 0 6 
z
" id="m33c2ce0b41" style="stroke:#000000;stroke-width:1.5;"/>
    </defs>
    <g>
     <use style="fill-opacity:0;stroke:#000000;stroke-width:1.5;" x="186.23247" xlink:href="#m33c2ce0b41" y="288.931501"/>
     <use style="fill-opacity:0;stroke:#000000;stroke-width:1.5;" x="237.020588" xlink:href="#m33c2ce0b41" y="273.768853"/>
     <use style="fill-opacity:0;stroke:#000000;stroke-width:1.5;" x="237.020588" xlink:href="#m33c2ce0b41" y="273.246003"/>
     <use style="fill-opacity:0;stroke:#000000;stroke-width:1.5;" x="237.020588" xlink:href="#m33c2ce0b41" y="273.246003"/>
     <use style="fill-opacity:0;stroke:#000000;stroke-width:1.5;" x="333.569032" xlink:href="#m33c2ce0b41" y="273.246003"/>
    </g>
   </g>
   <g id="line2d_41">
    <path style="fill:none;stroke:#000000;stroke-linecap:square;stroke-width:1.5;"/>
    <g/>
   </g>
   <g id="line2d_42">
    <path clip-path="url(#pf13a28ef68)" d="M 163.708458 291.54575 
" style="fill:none;stroke:#000000;stroke-linecap:square;stroke-width:1.5;"/>
    <defs>
     <path d="M -12 12 
L 12 -12 
M -12 -12 
L 12 12 
" id="m396b1fd84d" style="stroke:#000000;stroke-width:3;"/>
    </defs>
    <g clip-path="url(#pf13a28ef68)">
     <use style="stroke:#000000;stroke-width:3;" x="163.708458" xlink:href="#m396b1fd84d" y="291.54575"/>
    </g>
   </g>
   <g id="line2d_43">
    <defs>
     <path d="M 0 1.5 
C 0.397805 1.5 0.77937 1.341951 1.06066 1.06066 
C 1.341951 0.77937 1.5 0.397805 1.5 0 
C 1.5 -0.397805 1.341951 -0.77937 1.06066 -1.06066 
C 0.77937 -1.341951 0.397805 -1.5 0 -1.5 
C -0.397805 -1.5 -0.77937 -1.341951 -1.06066 -1.06066 
C -1.341951 -0.77937 -1.5 -0.397805 -1.5 0 
C -1.5 0.397805 -1.341951 0.77937 -1.06066 1.06066 
C -0.77937 1.341951 -0.397805 1.5 0 1.5 
z
" id="ma663245489" style="stroke:#ff0000;"/>
    </defs>
    <g>
     <use style="fill:#ff0000;stroke:#ff0000;" x="222.586621" xlink:href="#ma663245489" y="288.931501"/>
     <use style="fill:#ff0000;stroke:#ff0000;" x="222.586621" xlink:href="#ma663245489" y="288.931501"/>
    </g>
   </g>
   <g id="line2d_44">
    <path d="M 181.64492 294.16 
L 181.64492 293.63715 
L 182.413253 293.63715 
L 182.413253 293.1143 
L 199.218825 293.1143 
L 199.218825 292.59145 
L 201.110054 292.59145 
L 201.110054 292.0686 
L 201.176322 292.0686 
L 201.176322 291.54575 
L 202.977378 291.54575 
L 202.977378 291.0229 
L 212.216429 291.0229 
L 212.216429 290.50005 
L 216.705291 290.50005 
L 216.705291 289.977201 
L 221.409882 289.977201 
L 221.409882 289.454351 
L 222.586621 289.454351 
L 222.586621 288.931501 
L 333.569032 288.931501 
" style="fill:none;stroke:#ff0000;stroke-linecap:square;stroke-width:1.5;"/>
   </g>
   <g id="line2d_45">
    <defs>
     <path d="M -6 6 
L 6 6 
L 6 -6 
L -6 -6 
z
" id="m6bbeb35bb6" style="stroke:#ff0000;stroke-linejoin:miter;stroke-width:1.5;"/>
    </defs>
    <g>
     <use style="fill-opacity:0;stroke:#ff0000;stroke-linejoin:miter;stroke-width:1.5;" x="202.977378" xlink:href="#m6bbeb35bb6" y="291.54575"/>
     <use style="fill-opacity:0;stroke:#ff0000;stroke-linejoin:miter;stroke-width:1.5;" x="222.586621" xlink:href="#m6bbeb35bb6" y="289.454351"/>
     <use style="fill-opacity:0;stroke:#ff0000;stroke-linejoin:miter;stroke-width:1.5;" x="222.586621" xlink:href="#m6bbeb35bb6" y="288.931501"/>
     <use style="fill-opacity:0;stroke:#ff0000;stroke-linejoin:miter;stroke-width:1.5;" x="333.569032" xlink:href="#m6bbeb35bb6" y="288.931501"/>
    </g>
   </g>
   <g id="line2d_46">
    <path style="fill:none;stroke:#ff0000;stroke-linecap:square;stroke-width:1.5;"/>
    <g/>
   </g>
   <g id="line2d_47">
    <path clip-path="url(#pf13a28ef68)" d="M 163.623253 294.16 
" style="fill:none;stroke:#ff0000;stroke-linecap:square;stroke-width:1.5;"/>
    <defs>
     <path d="M -12 12 
L 12 -12 
M -12 -12 
L 12 12 
" id="m38cd863633" style="stroke:#ff0000;stroke-width:3;"/>
    </defs>
    <g clip-path="url(#pf13a28ef68)">
     <use style="fill:#ff0000;stroke:#ff0000;stroke-width:3;" x="163.623253" xlink:href="#m38cd863633" y="294.16"/>
    </g>
   </g>
   <g id="line2d_48">
    <path clip-path="url(#pf13a28ef68)" d="M 56.84 294.16 
L 56.84 294.16 
L 56.84 294.16 
L 56.84 294.16 
L 399.984 294.16 
" style="fill:none;stroke:#bf00bf;stroke-linecap:square;stroke-width:1.5;"/>
   </g>
   <g id="line2d_49">
    <defs>
     <path d="M -0 8.485281 
L 8.485281 0 
L 0 -8.485281 
L -8.485281 -0 
z
" id="m478b8c38be" style="stroke:#bf00bf;stroke-linejoin:miter;stroke-width:1.5;"/>
    </defs>
    <g clip-path="url(#pf13a28ef68)">
     <use style="fill-opacity:0;stroke:#bf00bf;stroke-linejoin:miter;stroke-width:1.5;" x="56.84" xlink:href="#m478b8c38be" y="294.16"/>
    </g>
   </g>
   <g id="line2d_50">
    <path clip-path="url(#pf13a28ef68)" style="fill:none;stroke:#bf00bf;stroke-linecap:square;stroke-width:1.5;"/>
    <g clip-path="url(#pf13a28ef68)">
     <use style="fill-opacity:0;stroke:#bf00bf;stroke-linejoin:miter;stroke-width:1.5;" x="-1" xlink:href="#m478b8c38be" y="560.813465"/>
     <use style="fill-opacity:0;stroke:#bf00bf;stroke-linejoin:miter;stroke-width:1.5;" x="399.984" xlink:href="#m478b8c38be" y="560.813465"/>
    </g>
   </g>
   <g id="line2d_51">
    <path d="M 333.569032 294.16 
L 364.009226 288.826931 
" style="fill:none;stroke:#bf00bf;stroke-linecap:square;stroke-width:1.5;"/>
    <g>
     <use style="fill-opacity:0;stroke:#bf00bf;stroke-linejoin:miter;stroke-width:1.5;" x="333.569032" xlink:href="#m478b8c38be" y="294.16"/>
     <use style="fill-opacity:0;stroke:#bf00bf;stroke-linejoin:miter;stroke-width:1.5;" x="364.009226" xlink:href="#m478b8c38be" y="288.826931"/>
    </g>
   </g>
   <g id="line2d_52">
    <path d="M 333.569032 288.931501 
L 364.009226 237.629465 
" style="fill:none;stroke:#ff0000;stroke-linecap:square;stroke-width:1.5;"/>
    <g>
     <use style="fill-opacity:0;stroke:#ff0000;stroke-linejoin:miter;stroke-width:1.5;" x="333.569032" xlink:href="#m6bbeb35bb6" y="288.931501"/>
     <use style="fill-opacity:0;stroke:#ff0000;stroke-linejoin:miter;stroke-width:1.5;" x="364.009226" xlink:href="#m6bbeb35bb6" y="237.629465"/>
    </g>
   </g>
   <g id="line2d_53">
    <path d="M 333.569032 273.246003 
L 364.009226 186.432 
" style="fill:none;stroke:#000000;stroke-linecap:square;stroke-width:1.5;"/>
    <g>
     <use style="fill-opacity:0;stroke:#000000;stroke-width:1.5;" x="333.569032" xlink:href="#m33c2ce0b41" y="273.246003"/>
     <use style="fill-opacity:0;stroke:#000000;stroke-width:1.5;" x="364.009226" xlink:href="#m33c2ce0b41" y="186.432"/>
    </g>
   </g>
   <g id="line2d_54">
    <path d="M 333.569032 220.96101 
L 364.009226 135.234535 
" style="fill:none;stroke:#0000ff;stroke-linecap:square;stroke-width:1.5;"/>
    <g>
     <use style="fill-opacity:0;stroke:#0000ff;stroke-linejoin:bevel;stroke-width:1.5;" x="333.569032" xlink:href="#m83384692b8" y="220.96101"/>
     <use style="fill-opacity:0;stroke:#0000ff;stroke-linejoin:bevel;stroke-width:1.5;" x="364.009226" xlink:href="#m83384692b8" y="135.234535"/>
    </g>
   </g>
   <g id="line2d_55">
    <path d="M 333.569032 194.818513 
L 364.009226 84.037069 
" style="fill:none;stroke:#008000;stroke-linecap:square;stroke-width:1.5;"/>
    <g>
     <use style="fill-opacity:0;stroke:#008000;stroke-linejoin:miter;stroke-width:1.5;" x="333.569032" xlink:href="#mb16309b7a9" y="194.818513"/>
     <use style="fill-opacity:0;stroke:#008000;stroke-linejoin:miter;stroke-width:1.5;" x="364.009226" xlink:href="#mb16309b7a9" y="84.037069"/>
    </g>
   </g>
   <g id="line2d_56">
    <path d="M 333.569032 126.848022 
L 364.009226 32.839604 
" style="fill:none;stroke:#00bfbf;stroke-linecap:square;stroke-width:1.5;"/>
    <g>
     <use style="fill-opacity:0;stroke:#00bfbf;stroke-width:1.5;" x="333.569032" xlink:href="#m33c6cd04cc" y="126.848022"/>
     <use style="fill-opacity:0;stroke:#00bfbf;stroke-width:1.5;" x="364.009226" xlink:href="#m33c6cd04cc" y="32.839604"/>
    </g>
   </g>
   <g id="line2d_57">
    <path d="M 333.569032 294.16 
L 333.569032 27.506535 
" style="fill:none;stroke:#000000;stroke-linecap:square;stroke-width:1.5;"/>
   </g>
   <g id="patch_3">
    <path d="M 56.84 294.16 
L 56.84 24.84 
" style="fill:none;stroke:#000000;stroke-linecap:square;stroke-linejoin:miter;stroke-width:0.8;"/>
   </g>
   <g id="patch_4">
    <path d="M 399.984 294.16 
L 399.984 24.84 
" style="fill:none;stroke:#000000;stroke-linecap:square;stroke-linejoin:miter;stroke-width:0.8;"/>
   </g>
   <g id="patch_5">
    <path d="M 56.84 294.16 
L 399.984 294.16 
" style="fill:none;stroke:#000000;stroke-linecap:square;stroke-linejoin:miter;stroke-width:0.8;"/>
   </g>
   <g id="patch_6">
    <path d="M 56.84 24.84 
L 399.984 24.84 
" style="fill:none;stroke:#000000;stroke-linecap:square;stroke-linejoin:miter;stroke-width:0.8;"/>
   </g>
   <g id="text_14">
    <!-- 40-D -->
    <defs>
     <path d="M 19.671875 64.796875 
L 19.671875 8.109375 
L 31.59375 8.109375 
Q 46.6875 8.109375 53.6875 14.9375 
Q 60.6875 21.78125 60.6875 36.53125 
Q 60.6875 51.171875 53.6875 57.984375 
Q 46.6875 64.796875 31.59375 64.796875 
z
M 9.8125 72.90625 
L 30.078125 72.90625 
Q 51.265625 72.90625 61.171875 64.09375 
Q 71.09375 55.28125 71.09375 36.53125 
Q 71.09375 17.671875 61.125 8.828125 
Q 51.171875 0 30.078125 0 
L 9.8125 0 
z
" id="DejaVuSans-44"/>
    </defs>
    <g transform="translate(369.543806 293.517868)scale(0.17 -0.17)">
     <use xlink:href="#DejaVuSans-34"/>
     <use x="63.623047" xlink:href="#DejaVuSans-30"/>
     <use x="127.246094" xlink:href="#DejaVuSans-2d"/>
     <use x="163.330078" xlink:href="#DejaVuSans-44"/>
    </g>
   </g>
   <g id="text_15">
    <!-- 20-D -->
    <g transform="translate(369.543806 242.320403)scale(0.17 -0.17)">
     <use xlink:href="#DejaVuSans-32"/>
     <use x="63.623047" xlink:href="#DejaVuSans-30"/>
     <use x="127.246094" xlink:href="#DejaVuSans-2d"/>
     <use x="163.330078" xlink:href="#DejaVuSans-44"/>
    </g>
   </g>
   <g id="text_16">
    <!-- 10-D -->
    <g transform="translate(369.543806 191.122937)scale(0.17 -0.17)">
     <use xlink:href="#DejaVuSans-31"/>
     <use x="63.623047" xlink:href="#DejaVuSans-30"/>
     <use x="127.246094" xlink:href="#DejaVuSans-2d"/>
     <use x="163.330078" xlink:href="#DejaVuSans-44"/>
    </g>
   </g>
   <g id="text_17">
    <!-- 5-D -->
    <defs>
     <path d="M 10.796875 72.90625 
L 49.515625 72.90625 
L 49.515625 64.59375 
L 19.828125 64.59375 
L 19.828125 46.734375 
Q 21.96875 47.46875 24.109375 47.828125 
Q 26.265625 48.1875 28.421875 48.1875 
Q 40.625 48.1875 47.75 41.5 
Q 54.890625 34.8125 54.890625 23.390625 
Q 54.890625 11.625 47.5625 5.09375 
Q 40.234375 -1.421875 26.90625 -1.421875 
Q 22.3125 -1.421875 17.546875 -0.640625 
Q 12.796875 0.140625 7.71875 1.703125 
L 7.71875 11.625 
Q 12.109375 9.234375 16.796875 8.0625 
Q 21.484375 6.890625 26.703125 6.890625 
Q 35.15625 6.890625 40.078125 11.328125 
Q 45.015625 15.765625 45.015625 23.390625 
Q 45.015625 31 40.078125 35.4375 
Q 35.15625 39.890625 26.703125 39.890625 
Q 22.75 39.890625 18.8125 39.015625 
Q 14.890625 38.140625 10.796875 36.28125 
z
" id="DejaVuSans-35"/>
    </defs>
    <g transform="translate(369.543806 139.925472)scale(0.17 -0.17)">
     <use xlink:href="#DejaVuSans-35"/>
     <use x="63.623047" xlink:href="#DejaVuSans-2d"/>
     <use x="99.707031" xlink:href="#DejaVuSans-44"/>
    </g>
   </g>
   <g id="text_18">
    <!-- 3-D -->
    <defs>
     <path d="M 40.578125 39.3125 
Q 47.65625 37.796875 51.625 33 
Q 55.609375 28.21875 55.609375 21.1875 
Q 55.609375 10.40625 48.1875 4.484375 
Q 40.765625 -1.421875 27.09375 -1.421875 
Q 22.515625 -1.421875 17.65625 -0.515625 
Q 12.796875 0.390625 7.625 2.203125 
L 7.625 11.71875 
Q 11.71875 9.328125 16.59375 8.109375 
Q 21.484375 6.890625 26.8125 6.890625 
Q 36.078125 6.890625 40.9375 10.546875 
Q 45.796875 14.203125 45.796875 21.1875 
Q 45.796875 27.640625 41.28125 31.265625 
Q 36.765625 34.90625 28.71875 34.90625 
L 20.21875 34.90625 
L 20.21875 43.015625 
L 29.109375 43.015625 
Q 36.375 43.015625 40.234375 45.921875 
Q 44.09375 48.828125 44.09375 54.296875 
Q 44.09375 59.90625 40.109375 62.90625 
Q 36.140625 65.921875 28.71875 65.921875 
Q 24.65625 65.921875 20.015625 65.03125 
Q 15.375 64.15625 9.8125 62.3125 
L 9.8125 71.09375 
Q 15.4375 72.65625 20.34375 73.4375 
Q 25.25 74.21875 29.59375 74.21875 
Q 40.828125 74.21875 47.359375 69.109375 
Q 53.90625 64.015625 53.90625 55.328125 
Q 53.90625 49.265625 50.4375 45.09375 
Q 46.96875 40.921875 40.578125 39.3125 
z
" id="DejaVuSans-33"/>
    </defs>
    <g transform="translate(369.543806 88.728007)scale(0.17 -0.17)">
     <use xlink:href="#DejaVuSans-33"/>
     <use x="63.623047" xlink:href="#DejaVuSans-2d"/>
     <use x="99.707031" xlink:href="#DejaVuSans-44"/>
    </g>
   </g>
   <g id="text_19">
    <!-- 2-D -->
    <g transform="translate(369.543806 37.530541)scale(0.17 -0.17)">
     <use xlink:href="#DejaVuSans-32"/>
     <use x="63.623047" xlink:href="#DejaVuSans-2d"/>
     <use x="99.707031" xlink:href="#DejaVuSans-44"/>
    </g>
   </g>
   <g id="text_20">
    <!-- bbob f9 -->
    <defs>
     <path d="M 48.6875 27.296875 
Q 48.6875 37.203125 44.609375 42.84375 
Q 40.53125 48.484375 33.40625 48.484375 
Q 26.265625 48.484375 22.1875 42.84375 
Q 18.109375 37.203125 18.109375 27.296875 
Q 18.109375 17.390625 22.1875 11.75 
Q 26.265625 6.109375 33.40625 6.109375 
Q 40.53125 6.109375 44.609375 11.75 
Q 48.6875 17.390625 48.6875 27.296875 
z
M 18.109375 46.390625 
Q 20.953125 51.265625 25.265625 53.625 
Q 29.59375 56 35.59375 56 
Q 45.5625 56 51.78125 48.09375 
Q 58.015625 40.1875 58.015625 27.296875 
Q 58.015625 14.40625 51.78125 6.484375 
Q 45.5625 -1.421875 35.59375 -1.421875 
Q 29.59375 -1.421875 25.265625 0.953125 
Q 20.953125 3.328125 18.109375 8.203125 
L 18.109375 0 
L 9.078125 0 
L 9.078125 75.984375 
L 18.109375 75.984375 
z
" id="DejaVuSans-62"/>
     <path d="M 10.984375 1.515625 
L 10.984375 10.5 
Q 14.703125 8.734375 18.5 7.8125 
Q 22.3125 6.890625 25.984375 6.890625 
Q 35.75 6.890625 40.890625 13.453125 
Q 46.046875 20.015625 46.78125 33.40625 
Q 43.953125 29.203125 39.59375 26.953125 
Q 35.25 24.703125 29.984375 24.703125 
Q 19.046875 24.703125 12.671875 31.3125 
Q 6.296875 37.9375 6.296875 49.421875 
Q 6.296875 60.640625 12.9375 67.421875 
Q 19.578125 74.21875 30.609375 74.21875 
Q 43.265625 74.21875 49.921875 64.515625 
Q 56.59375 54.828125 56.59375 36.375 
Q 56.59375 19.140625 48.40625 8.859375 
Q 40.234375 -1.421875 26.421875 -1.421875 
Q 22.703125 -1.421875 18.890625 -0.6875 
Q 15.09375 0.046875 10.984375 1.515625 
z
M 30.609375 32.421875 
Q 37.25 32.421875 41.125 36.953125 
Q 45.015625 41.5 45.015625 49.421875 
Q 45.015625 57.28125 41.125 61.84375 
Q 37.25 66.40625 30.609375 66.40625 
Q 23.96875 66.40625 20.09375 61.84375 
Q 16.21875 57.28125 16.21875 49.421875 
Q 16.21875 41.5 20.09375 36.953125 
Q 23.96875 32.421875 30.609375 32.421875 
z
" id="DejaVuSans-39"/>
    </defs>
    <g transform="translate(60.27144 35.283606)scale(0.102 -0.102)">
     <use xlink:href="#DejaVuSans-62"/>
     <use x="63.476562" xlink:href="#DejaVuSans-62"/>
     <use x="126.953125" xlink:href="#DejaVuSans-6f"/>
     <use x="188.134766" xlink:href="#DejaVuSans-62"/>
     <use x="251.611328" xlink:href="#DejaVuSans-20"/>
     <use x="283.398438" xlink:href="#DejaVuSans-66"/>
     <use x="318.603516" xlink:href="#DejaVuSans-39"/>
    </g>
    <!-- 51 targets: 100..1e-08 -->
    <defs>
     <path d="M 11.71875 12.40625 
L 22.015625 12.40625 
L 22.015625 0 
L 11.71875 0 
z
M 11.71875 51.703125 
L 22.015625 51.703125 
L 22.015625 39.3125 
L 11.71875 39.3125 
z
" id="DejaVuSans-3a"/>
    </defs>
    <g transform="translate(60.27144 46.705375)scale(0.102 -0.102)">
     <use xlink:href="#DejaVuSans-35"/>
     <use x="63.623047" xlink:href="#DejaVuSans-31"/>
     <use x="127.246094" xlink:href="#DejaVuSans-20"/>
     <use x="159.033203" xlink:href="#DejaVuSans-74"/>
     <use x="198.242188" xlink:href="#DejaVuSans-61"/>
     <use x="259.521484" xlink:href="#DejaVuSans-72"/>
     <use x="300.619141" xlink:href="#DejaVuSans-67"/>
     <use x="364.095703" xlink:href="#DejaVuSans-65"/>
     <use x="425.619141" xlink:href="#DejaVuSans-74"/>
     <use x="464.828125" xlink:href="#DejaVuSans-73"/>
     <use x="516.927734" xlink:href="#DejaVuSans-3a"/>
     <use x="550.619141" xlink:href="#DejaVuSans-20"/>
     <use x="582.40625" xlink:href="#DejaVuSans-31"/>
     <use x="646.029297" xlink:href="#DejaVuSans-30"/>
     <use x="709.652344" xlink:href="#DejaVuSans-30"/>
     <use x="773.275391" xlink:href="#DejaVuSans-2e"/>
     <use x="805.0625" xlink:href="#DejaVuSans-2e"/>
     <use x="836.849609" xlink:href="#DejaVuSans-31"/>
     <use x="900.472656" xlink:href="#DejaVuSans-65"/>
     <use x="961.996094" xlink:href="#DejaVuSans-2d"/>
     <use x="998.080078" xlink:href="#DejaVuSans-30"/>
     <use x="1061.703125" xlink:href="#DejaVuSans-38"/>
    </g>
    <!-- 15 instances -->
    <g transform="translate(60.27144 58.127144)scale(0.102 -0.102)">
     <use xlink:href="#DejaVuSans-31"/>
     <use x="63.623047" xlink:href="#DejaVuSans-35"/>
     <use x="127.246094" xlink:href="#DejaVuSans-20"/>
     <use x="159.033203" xlink:href="#DejaVuSans-69"/>
     <use x="186.816406" xlink:href="#DejaVuSans-6e"/>
     <use x="250.195312" xlink:href="#DejaVuSans-73"/>
     <use x="302.294922" xlink:href="#DejaVuSans-74"/>
     <use x="341.503906" xlink:href="#DejaVuSans-61"/>
     <use x="402.783203" xlink:href="#DejaVuSans-6e"/>
     <use x="466.162109" xlink:href="#DejaVuSans-63"/>
     <use x="521.142578" xlink:href="#DejaVuSans-65"/>
     <use x="582.666016" xlink:href="#DejaVuSans-73"/>
    </g>
   </g>
   <g id="text_21">
    <!-- v2.2.1.10 -->
    <g style="fill:#808080;" transform="translate(204.779188 289.387113)scale(0.1 -0.1)">
     <use xlink:href="#DejaVuSans-76"/>
     <use x="59.179688" xlink:href="#DejaVuSans-32"/>
     <use x="122.802734" xlink:href="#DejaVuSans-2e"/>
     <use x="154.589844" xlink:href="#DejaVuSans-32"/>
     <use x="218.212891" xlink:href="#DejaVuSans-2e"/>
     <use x="250" xlink:href="#DejaVuSans-31"/>
     <use x="313.623047" xlink:href="#DejaVuSans-2e"/>
     <use x="345.410156" xlink:href="#DejaVuSans-31"/>
     <use x="409.033203" xlink:href="#DejaVuSans-30"/>
    </g>
   </g>
   <g id="text_22">
    <!-- 9 Rosenbrock rotated -->
    <defs>
     <path d="M 44.390625 34.1875 
Q 47.5625 33.109375 50.5625 29.59375 
Q 53.5625 26.078125 56.59375 19.921875 
L 66.609375 0 
L 56 0 
L 46.6875 18.703125 
Q 43.0625 26.03125 39.671875 28.421875 
Q 36.28125 30.8125 30.421875 30.8125 
L 19.671875 30.8125 
L 19.671875 0 
L 9.8125 0 
L 9.8125 72.90625 
L 32.078125 72.90625 
Q 44.578125 72.90625 50.734375 67.671875 
Q 56.890625 62.453125 56.890625 51.90625 
Q 56.890625 45.015625 53.6875 40.46875 
Q 50.484375 35.9375 44.390625 34.1875 
z
M 19.671875 64.796875 
L 19.671875 38.921875 
L 32.078125 38.921875 
Q 39.203125 38.921875 42.84375 42.21875 
Q 46.484375 45.515625 46.484375 51.90625 
Q 46.484375 58.296875 42.84375 61.546875 
Q 39.203125 64.796875 32.078125 64.796875 
z
" id="DejaVuSans-52"/>
     <path d="M 9.078125 75.984375 
L 18.109375 75.984375 
L 18.109375 31.109375 
L 44.921875 54.6875 
L 56.390625 54.6875 
L 27.390625 29.109375 
L 57.625 0 
L 45.90625 0 
L 18.109375 26.703125 
L 18.109375 0 
L 9.078125 0 
z
" id="DejaVuSans-6b"/>
    </defs>
    <g transform="translate(120.371375 18.84)scale(0.2 -0.2)">
     <use xlink:href="#DejaVuSans-39"/>
     <use x="63.623047" xlink:href="#DejaVuSans-20"/>
     <use x="95.410156" xlink:href="#DejaVuSans-52"/>
     <use x="164.830078" xlink:href="#DejaVuSans-6f"/>
     <use x="226.011719" xlink:href="#DejaVuSans-73"/>
     <use x="278.111328" xlink:href="#DejaVuSans-65"/>
     <use x="339.634766" xlink:href="#DejaVuSans-6e"/>
     <use x="403.013672" xlink:href="#DejaVuSans-62"/>
     <use x="466.490234" xlink:href="#DejaVuSans-72"/>
     <use x="507.572266" xlink:href="#DejaVuSans-6f"/>
     <use x="568.753906" xlink:href="#DejaVuSans-63"/>
     <use x="623.734375" xlink:href="#DejaVuSans-6b"/>
     <use x="681.644531" xlink:href="#DejaVuSans-20"/>
     <use x="713.431641" xlink:href="#DejaVuSans-72"/>
     <use x="754.513672" xlink:href="#DejaVuSans-6f"/>
     <use x="815.695312" xlink:href="#DejaVuSans-74"/>
     <use x="854.904297" xlink:href="#DejaVuSans-61"/>
     <use x="916.183594" xlink:href="#DejaVuSans-74"/>
     <use x="955.392578" xlink:href="#DejaVuSans-65"/>
     <use x="1016.916016" xlink:href="#DejaVuSans-64"/>
    </g>
   </g>
  </g>
 </g>
 <defs>
  <clipPath id="pf13a28ef68">
   <rect height="269.32" width="343.144" x="56.84" y="24.84"/>
  </clipPath>
 </defs>
</svg>
