<?xml version="1.0" encoding="utf-8" standalone="no"?>
<!DOCTYPE svg PUBLIC "-//W3C//DTD SVG 1.1//EN"
  "http://www.w3.org/Graphics/SVG/1.1/DTD/svg11.dtd">
<!-- Created with matplotlib (http://matplotlib.org/) -->
<svg height="345.6pt" version="1.1" viewBox="0 0 460.8 345.6" width="460.8pt" xmlns="http://www.w3.org/2000/svg" xmlns:xlink="http://www.w3.org/1999/xlink">
 <defs>
  <style type="text/css">
*{stroke-linecap:butt;stroke-linejoin:round;}
  </style>
 </defs>
 <g id="figure_1">
  <g id="patch_1">
   <path d="M 0 345.6 
L 460.8 345.6 
L 460.8 0 
L 0 0 
z
" style="fill:#ffffff;"/>
  </g>
  <g id="axes_1">
   <g id="patch_2">
    <path d="M 56.84 294.16 
L 399.984 294.16 
L 399.984 24.84 
L 56.84 24.84 
z
" style="fill:#ffffff;"/>
   </g>
   <g id="matplotlib.axis_1">
    <g id="xtick_1">
     <g id="line2d_1">
      <path clip-path="url(#p3a70e0d823)" d="M 56.84 294.16 
L 56.84 24.84 
" style="fill:none;stroke:#b0b0b0;stroke-linecap:square;stroke-width:0.8;"/>
     </g>
     <g id="line2d_2">
      <defs>
       <path d="M 0 0 
L 0 3.5 
" id="m0a9dc25291" style="stroke:#000000;stroke-width:0.8;"/>
      </defs>
      <g>
       <use style="stroke:#000000;stroke-width:0.8;" x="56.84" xlink:href="#m0a9dc25291" y="294.16"/>
      </g>
     </g>
     <g id="text_1">
      <!-- 0 -->
      <defs>
       <path d="M 31.78125 66.40625 
Q 24.171875 66.40625 20.328125 58.90625 
Q 16.5 51.421875 16.5 36.375 
Q 16.5 21.390625 20.328125 13.890625 
Q 24.171875 6.390625 31.78125 6.390625 
Q 39.453125 6.390625 43.28125 13.890625 
Q 47.125 21.390625 47.125 36.375 
Q 47.125 51.421875 43.28125 58.90625 
Q 39.453125 66.40625 31.78125 66.40625 
z
M 31.78125 74.21875 
Q 44.046875 74.21875 50.515625 64.515625 
Q 56.984375 54.828125 56.984375 36.375 
Q 56.984375 17.96875 50.515625 8.265625 
Q 44.046875 -1.421875 31.78125 -1.421875 
Q 19.53125 -1.421875 13.0625 8.265625 
Q 6.59375 17.96875 6.59375 36.375 
Q 6.59375 54.828125 13.0625 64.515625 
Q 19.53125 74.21875 31.78125 74.21875 
z
" id="DejaVuSans-30"/>
      </defs>
      <g transform="translate(50.4775 316.356875)scale(0.2 -0.2)">
       <use xlink:href="#DejaVuSans-30"/>
      </g>
     </g>
    </g>
    <g id="xtick_2">
     <g id="line2d_3">
      <path clip-path="url(#p3a70e0d823)" d="M 135.905438 294.16 
L 135.905438 24.84 
" style="fill:none;stroke:#b0b0b0;stroke-linecap:square;stroke-width:0.8;"/>
     </g>
     <g id="line2d_4">
      <g>
       <use style="stroke:#000000;stroke-width:0.8;" x="135.905438" xlink:href="#m0a9dc25291" y="294.16"/>
      </g>
     </g>
     <g id="text_2">
      <!-- 2 -->
      <defs>
       <path d="M 19.1875 8.296875 
L 53.609375 8.296875 
L 53.609375 0 
L 7.328125 0 
L 7.328125 8.296875 
Q 12.9375 14.109375 22.625 23.890625 
Q 32.328125 33.6875 34.8125 36.53125 
Q 39.546875 41.84375 41.421875 45.53125 
Q 43.3125 49.21875 43.3125 52.78125 
Q 43.3125 58.59375 39.234375 62.25 
Q 35.15625 65.921875 28.609375 65.921875 
Q 23.96875 65.921875 18.8125 64.3125 
Q 13.671875 62.703125 7.8125 59.421875 
L 7.8125 69.390625 
Q 13.765625 71.78125 18.9375 73 
Q 24.125 74.21875 28.421875 74.21875 
Q 39.75 74.21875 46.484375 68.546875 
Q 53.21875 62.890625 53.21875 53.421875 
Q 53.21875 48.921875 51.53125 44.890625 
Q 49.859375 40.875 45.40625 35.40625 
Q 44.1875 33.984375 37.640625 27.21875 
Q 31.109375 20.453125 19.1875 8.296875 
z
" id="DejaVuSans-32"/>
      </defs>
      <g transform="translate(129.542938 316.356875)scale(0.2 -0.2)">
       <use xlink:href="#DejaVuSans-32"/>
      </g>
     </g>
    </g>
    <g id="xtick_3">
     <g id="line2d_5">
      <path clip-path="url(#p3a70e0d823)" d="M 214.970876 294.16 
L 214.970876 24.84 
" style="fill:none;stroke:#b0b0b0;stroke-linecap:square;stroke-width:0.8;"/>
     </g>
     <g id="line2d_6">
      <g>
       <use style="stroke:#000000;stroke-width:0.8;" x="214.970876" xlink:href="#m0a9dc25291" y="294.16"/>
      </g>
     </g>
     <g id="text_3">
      <!-- 4 -->
      <defs>
       <path d="M 37.796875 64.3125 
L 12.890625 25.390625 
L 37.796875 25.390625 
z
M 35.203125 72.90625 
L 47.609375 72.90625 
L 47.609375 25.390625 
L 58.015625 25.390625 
L 58.015625 17.1875 
L 47.609375 17.1875 
L 47.609375 0 
L 37.796875 0 
L 37.796875 17.1875 
L 4.890625 17.1875 
L 4.890625 26.703125 
z
" id="DejaVuSans-34"/>
      </defs>
      <g transform="translate(208.608376 316.356875)scale(0.2 -0.2)">
       <use xlink:href="#DejaVuSans-34"/>
      </g>
     </g>
    </g>
    <g id="xtick_4">
     <g id="line2d_7">
      <path clip-path="url(#p3a70e0d823)" d="M 294.036313 294.16 
L 294.036313 24.84 
" style="fill:none;stroke:#b0b0b0;stroke-linecap:square;stroke-width:0.8;"/>
     </g>
     <g id="line2d_8">
      <g>
       <use style="stroke:#000000;stroke-width:0.8;" x="294.036313" xlink:href="#m0a9dc25291" y="294.16"/>
      </g>
     </g>
     <g id="text_4">
      <!-- 6 -->
      <defs>
       <path d="M 33.015625 40.375 
Q 26.375 40.375 22.484375 35.828125 
Q 18.609375 31.296875 18.609375 23.390625 
Q 18.609375 15.53125 22.484375 10.953125 
Q 26.375 6.390625 33.015625 6.390625 
Q 39.65625 6.390625 43.53125 10.953125 
Q 47.40625 15.53125 47.40625 23.390625 
Q 47.40625 31.296875 43.53125 35.828125 
Q 39.65625 40.375 33.015625 40.375 
z
M 52.59375 71.296875 
L 52.59375 62.3125 
Q 48.875 64.0625 45.09375 64.984375 
Q 41.3125 65.921875 37.59375 65.921875 
Q 27.828125 65.921875 22.671875 59.328125 
Q 17.53125 52.734375 16.796875 39.40625 
Q 19.671875 43.65625 24.015625 45.921875 
Q 28.375 48.1875 33.59375 48.1875 
Q 44.578125 48.1875 50.953125 41.515625 
Q 57.328125 34.859375 57.328125 23.390625 
Q 57.328125 12.15625 50.6875 5.359375 
Q 44.046875 -1.421875 33.015625 -1.421875 
Q 20.359375 -1.421875 13.671875 8.265625 
Q 6.984375 17.96875 6.984375 36.375 
Q 6.984375 53.65625 15.1875 63.9375 
Q 23.390625 74.21875 37.203125 74.21875 
Q 40.921875 74.21875 44.703125 73.484375 
Q 48.484375 72.75 52.59375 71.296875 
z
" id="DejaVuSans-36"/>
      </defs>
      <g transform="translate(287.673813 316.356875)scale(0.2 -0.2)">
       <use xlink:href="#DejaVuSans-36"/>
      </g>
     </g>
    </g>
    <g id="xtick_5">
     <g id="line2d_9">
      <path clip-path="url(#p3a70e0d823)" d="M 373.101751 294.16 
L 373.101751 24.84 
" style="fill:none;stroke:#b0b0b0;stroke-linecap:square;stroke-width:0.8;"/>
     </g>
     <g id="line2d_10">
      <g>
       <use style="stroke:#000000;stroke-width:0.8;" x="373.101751" xlink:href="#m0a9dc25291" y="294.16"/>
      </g>
     </g>
     <g id="text_5">
      <!-- 8 -->
      <defs>
       <path d="M 31.78125 34.625 
Q 24.75 34.625 20.71875 30.859375 
Q 16.703125 27.09375 16.703125 20.515625 
Q 16.703125 13.921875 20.71875 10.15625 
Q 24.75 6.390625 31.78125 6.390625 
Q 38.8125 6.390625 42.859375 10.171875 
Q 46.921875 13.96875 46.921875 20.515625 
Q 46.921875 27.09375 42.890625 30.859375 
Q 38.875 34.625 31.78125 34.625 
z
M 21.921875 38.8125 
Q 15.578125 40.375 12.03125 44.71875 
Q 8.5 49.078125 8.5 55.328125 
Q 8.5 64.0625 14.71875 69.140625 
Q 20.953125 74.21875 31.78125 74.21875 
Q 42.671875 74.21875 48.875 69.140625 
Q 55.078125 64.0625 55.078125 55.328125 
Q 55.078125 49.078125 51.53125 44.71875 
Q 48 40.375 41.703125 38.8125 
Q 48.828125 37.15625 52.796875 32.3125 
Q 56.78125 27.484375 56.78125 20.515625 
Q 56.78125 9.90625 50.3125 4.234375 
Q 43.84375 -1.421875 31.78125 -1.421875 
Q 19.734375 -1.421875 13.25 4.234375 
Q 6.78125 9.90625 6.78125 20.515625 
Q 6.78125 27.484375 10.78125 32.3125 
Q 14.796875 37.15625 21.921875 38.8125 
z
M 18.3125 54.390625 
Q 18.3125 48.734375 21.84375 45.5625 
Q 25.390625 42.390625 31.78125 42.390625 
Q 38.140625 42.390625 41.71875 45.5625 
Q 45.3125 48.734375 45.3125 54.390625 
Q 45.3125 60.0625 41.71875 63.234375 
Q 38.140625 66.40625 31.78125 66.40625 
Q 25.390625 66.40625 21.84375 63.234375 
Q 18.3125 60.0625 18.3125 54.390625 
z
" id="DejaVuSans-38"/>
      </defs>
      <g transform="translate(366.739251 316.356875)scale(0.2 -0.2)">
       <use xlink:href="#DejaVuSans-38"/>
      </g>
     </g>
    </g>
    <g id="text_6">
     <!-- log10(# f-evals / dimension) -->
     <defs>
      <path d="M 9.421875 75.984375 
L 18.40625 75.984375 
L 18.40625 0 
L 9.421875 0 
z
" id="DejaVuSans-6c"/>
      <path d="M 30.609375 48.390625 
Q 23.390625 48.390625 19.1875 42.75 
Q 14.984375 37.109375 14.984375 27.296875 
Q 14.984375 17.484375 19.15625 11.84375 
Q 23.34375 6.203125 30.609375 6.203125 
Q 37.796875 6.203125 41.984375 11.859375 
Q 46.1875 17.53125 46.1875 27.296875 
Q 46.1875 37.015625 41.984375 42.703125 
Q 37.796875 48.390625 30.609375 48.390625 
z
M 30.609375 56 
Q 42.328125 56 49.015625 48.375 
Q 55.71875 40.765625 55.71875 27.296875 
Q 55.71875 13.875 49.015625 6.21875 
Q 42.328125 -1.421875 30.609375 -1.421875 
Q 18.84375 -1.421875 12.171875 6.21875 
Q 5.515625 13.875 5.515625 27.296875 
Q 5.515625 40.765625 12.171875 48.375 
Q 18.84375 56 30.609375 56 
z
" id="DejaVuSans-6f"/>
      <path d="M 45.40625 27.984375 
Q 45.40625 37.75 41.375 43.109375 
Q 37.359375 48.484375 30.078125 48.484375 
Q 22.859375 48.484375 18.828125 43.109375 
Q 14.796875 37.75 14.796875 27.984375 
Q 14.796875 18.265625 18.828125 12.890625 
Q 22.859375 7.515625 30.078125 7.515625 
Q 37.359375 7.515625 41.375 12.890625 
Q 45.40625 18.265625 45.40625 27.984375 
z
M 54.390625 6.78125 
Q 54.390625 -7.171875 48.1875 -13.984375 
Q 42 -20.796875 29.203125 -20.796875 
Q 24.46875 -20.796875 20.265625 -20.09375 
Q 16.0625 -19.390625 12.109375 -17.921875 
L 12.109375 -9.1875 
Q 16.0625 -11.328125 19.921875 -12.34375 
Q 23.78125 -13.375 27.78125 -13.375 
Q 36.625 -13.375 41.015625 -8.765625 
Q 45.40625 -4.15625 45.40625 5.171875 
L 45.40625 9.625 
Q 42.625 4.78125 38.28125 2.390625 
Q 33.9375 0 27.875 0 
Q 17.828125 0 11.671875 7.65625 
Q 5.515625 15.328125 5.515625 27.984375 
Q 5.515625 40.671875 11.671875 48.328125 
Q 17.828125 56 27.875 56 
Q 33.9375 56 38.28125 53.609375 
Q 42.625 51.21875 45.40625 46.390625 
L 45.40625 54.6875 
L 54.390625 54.6875 
z
" id="DejaVuSans-67"/>
      <path d="M 12.40625 8.296875 
L 28.515625 8.296875 
L 28.515625 63.921875 
L 10.984375 60.40625 
L 10.984375 69.390625 
L 28.421875 72.90625 
L 38.28125 72.90625 
L 38.28125 8.296875 
L 54.390625 8.296875 
L 54.390625 0 
L 12.40625 0 
z
" id="DejaVuSans-31"/>
      <path d="M 31 75.875 
Q 24.46875 64.65625 21.28125 53.65625 
Q 18.109375 42.671875 18.109375 31.390625 
Q 18.109375 20.125 21.3125 9.0625 
Q 24.515625 -2 31 -13.1875 
L 23.1875 -13.1875 
Q 15.875 -1.703125 12.234375 9.375 
Q 8.59375 20.453125 8.59375 31.390625 
Q 8.59375 42.28125 12.203125 53.3125 
Q 15.828125 64.359375 23.1875 75.875 
z
" id="DejaVuSans-28"/>
      <path d="M 51.125 44 
L 36.921875 44 
L 32.8125 27.6875 
L 47.125 27.6875 
z
M 43.796875 71.78125 
L 38.71875 51.515625 
L 52.984375 51.515625 
L 58.109375 71.78125 
L 65.921875 71.78125 
L 60.890625 51.515625 
L 76.125 51.515625 
L 76.125 44 
L 58.984375 44 
L 54.984375 27.6875 
L 70.515625 27.6875 
L 70.515625 20.21875 
L 53.078125 20.21875 
L 48 0 
L 40.1875 0 
L 45.21875 20.21875 
L 30.90625 20.21875 
L 25.875 0 
L 18.015625 0 
L 23.09375 20.21875 
L 7.71875 20.21875 
L 7.71875 27.6875 
L 24.90625 27.6875 
L 29 44 
L 13.28125 44 
L 13.28125 51.515625 
L 30.90625 51.515625 
L 35.890625 71.78125 
z
" id="DejaVuSans-23"/>
      <path id="DejaVuSans-20"/>
      <path d="M 37.109375 75.984375 
L 37.109375 68.5 
L 28.515625 68.5 
Q 23.6875 68.5 21.796875 66.546875 
Q 19.921875 64.59375 19.921875 59.515625 
L 19.921875 54.6875 
L 34.71875 54.6875 
L 34.71875 47.703125 
L 19.921875 47.703125 
L 19.921875 0 
L 10.890625 0 
L 10.890625 47.703125 
L 2.296875 47.703125 
L 2.296875 54.6875 
L 10.890625 54.6875 
L 10.890625 58.5 
Q 10.890625 67.625 15.140625 71.796875 
Q 19.390625 75.984375 28.609375 75.984375 
z
" id="DejaVuSans-66"/>
      <path d="M 4.890625 31.390625 
L 31.203125 31.390625 
L 31.203125 23.390625 
L 4.890625 23.390625 
z
" id="DejaVuSans-2d"/>
      <path d="M 56.203125 29.59375 
L 56.203125 25.203125 
L 14.890625 25.203125 
Q 15.484375 15.921875 20.484375 11.0625 
Q 25.484375 6.203125 34.421875 6.203125 
Q 39.59375 6.203125 44.453125 7.46875 
Q 49.3125 8.734375 54.109375 11.28125 
L 54.109375 2.78125 
Q 49.265625 0.734375 44.1875 -0.34375 
Q 39.109375 -1.421875 33.890625 -1.421875 
Q 20.796875 -1.421875 13.15625 6.1875 
Q 5.515625 13.8125 5.515625 26.8125 
Q 5.515625 40.234375 12.765625 48.109375 
Q 20.015625 56 32.328125 56 
Q 43.359375 56 49.78125 48.890625 
Q 56.203125 41.796875 56.203125 29.59375 
z
M 47.21875 32.234375 
Q 47.125 39.59375 43.09375 43.984375 
Q 39.0625 48.390625 32.421875 48.390625 
Q 24.90625 48.390625 20.390625 44.140625 
Q 15.875 39.890625 15.1875 32.171875 
z
" id="DejaVuSans-65"/>
      <path d="M 2.984375 54.6875 
L 12.5 54.6875 
L 29.59375 8.796875 
L 46.6875 54.6875 
L 56.203125 54.6875 
L 35.6875 0 
L 23.484375 0 
z
" id="DejaVuSans-76"/>
      <path d="M 34.28125 27.484375 
Q 23.390625 27.484375 19.1875 25 
Q 14.984375 22.515625 14.984375 16.5 
Q 14.984375 11.71875 18.140625 8.90625 
Q 21.296875 6.109375 26.703125 6.109375 
Q 34.1875 6.109375 38.703125 11.40625 
Q 43.21875 16.703125 43.21875 25.484375 
L 43.21875 27.484375 
z
M 52.203125 31.203125 
L 52.203125 0 
L 43.21875 0 
L 43.21875 8.296875 
Q 40.140625 3.328125 35.546875 0.953125 
Q 30.953125 -1.421875 24.3125 -1.421875 
Q 15.921875 -1.421875 10.953125 3.296875 
Q 6 8.015625 6 15.921875 
Q 6 25.140625 12.171875 29.828125 
Q 18.359375 34.515625 30.609375 34.515625 
L 43.21875 34.515625 
L 43.21875 35.40625 
Q 43.21875 41.609375 39.140625 45 
Q 35.0625 48.390625 27.6875 48.390625 
Q 23 48.390625 18.546875 47.265625 
Q 14.109375 46.140625 10.015625 43.890625 
L 10.015625 52.203125 
Q 14.9375 54.109375 19.578125 55.046875 
Q 24.21875 56 28.609375 56 
Q 40.484375 56 46.34375 49.84375 
Q 52.203125 43.703125 52.203125 31.203125 
z
" id="DejaVuSans-61"/>
      <path d="M 44.28125 53.078125 
L 44.28125 44.578125 
Q 40.484375 46.53125 36.375 47.5 
Q 32.28125 48.484375 27.875 48.484375 
Q 21.1875 48.484375 17.84375 46.4375 
Q 14.5 44.390625 14.5 40.28125 
Q 14.5 37.15625 16.890625 35.375 
Q 19.28125 33.59375 26.515625 31.984375 
L 29.59375 31.296875 
Q 39.15625 29.25 43.1875 25.515625 
Q 47.21875 21.78125 47.21875 15.09375 
Q 47.21875 7.46875 41.1875 3.015625 
Q 35.15625 -1.421875 24.609375 -1.421875 
Q 20.21875 -1.421875 15.453125 -0.5625 
Q 10.6875 0.296875 5.421875 2 
L 5.421875 11.28125 
Q 10.40625 8.6875 15.234375 7.390625 
Q 20.0625 6.109375 24.8125 6.109375 
Q 31.15625 6.109375 34.5625 8.28125 
Q 37.984375 10.453125 37.984375 14.40625 
Q 37.984375 18.0625 35.515625 20.015625 
Q 33.0625 21.96875 24.703125 23.78125 
L 21.578125 24.515625 
Q 13.234375 26.265625 9.515625 29.90625 
Q 5.8125 33.546875 5.8125 39.890625 
Q 5.8125 47.609375 11.28125 51.796875 
Q 16.75 56 26.8125 56 
Q 31.78125 56 36.171875 55.265625 
Q 40.578125 54.546875 44.28125 53.078125 
z
" id="DejaVuSans-73"/>
      <path d="M 25.390625 72.90625 
L 33.6875 72.90625 
L 8.296875 -9.28125 
L 0 -9.28125 
z
" id="DejaVuSans-2f"/>
      <path d="M 45.40625 46.390625 
L 45.40625 75.984375 
L 54.390625 75.984375 
L 54.390625 0 
L 45.40625 0 
L 45.40625 8.203125 
Q 42.578125 3.328125 38.25 0.953125 
Q 33.9375 -1.421875 27.875 -1.421875 
Q 17.96875 -1.421875 11.734375 6.484375 
Q 5.515625 14.40625 5.515625 27.296875 
Q 5.515625 40.1875 11.734375 48.09375 
Q 17.96875 56 27.875 56 
Q 33.9375 56 38.25 53.625 
Q 42.578125 51.265625 45.40625 46.390625 
z
M 14.796875 27.296875 
Q 14.796875 17.390625 18.875 11.75 
Q 22.953125 6.109375 30.078125 6.109375 
Q 37.203125 6.109375 41.296875 11.75 
Q 45.40625 17.390625 45.40625 27.296875 
Q 45.40625 37.203125 41.296875 42.84375 
Q 37.203125 48.484375 30.078125 48.484375 
Q 22.953125 48.484375 18.875 42.84375 
Q 14.796875 37.203125 14.796875 27.296875 
z
" id="DejaVuSans-64"/>
      <path d="M 9.421875 54.6875 
L 18.40625 54.6875 
L 18.40625 0 
L 9.421875 0 
z
M 9.421875 75.984375 
L 18.40625 75.984375 
L 18.40625 64.59375 
L 9.421875 64.59375 
z
" id="DejaVuSans-69"/>
      <path d="M 52 44.1875 
Q 55.375 50.25 60.0625 53.125 
Q 64.75 56 71.09375 56 
Q 79.640625 56 84.28125 50.015625 
Q 88.921875 44.046875 88.921875 33.015625 
L 88.921875 0 
L 79.890625 0 
L 79.890625 32.71875 
Q 79.890625 40.578125 77.09375 44.375 
Q 74.3125 48.1875 68.609375 48.1875 
Q 61.625 48.1875 57.5625 43.546875 
Q 53.515625 38.921875 53.515625 30.90625 
L 53.515625 0 
L 44.484375 0 
L 44.484375 32.71875 
Q 44.484375 40.625 41.703125 44.40625 
Q 38.921875 48.1875 33.109375 48.1875 
Q 26.21875 48.1875 22.15625 43.53125 
Q 18.109375 38.875 18.109375 30.90625 
L 18.109375 0 
L 9.078125 0 
L 9.078125 54.6875 
L 18.109375 54.6875 
L 18.109375 46.1875 
Q 21.1875 51.21875 25.484375 53.609375 
Q 29.78125 56 35.6875 56 
Q 41.65625 56 45.828125 52.96875 
Q 50 49.953125 52 44.1875 
z
" id="DejaVuSans-6d"/>
      <path d="M 54.890625 33.015625 
L 54.890625 0 
L 45.90625 0 
L 45.90625 32.71875 
Q 45.90625 40.484375 42.875 44.328125 
Q 39.84375 48.1875 33.796875 48.1875 
Q 26.515625 48.1875 22.3125 43.546875 
Q 18.109375 38.921875 18.109375 30.90625 
L 18.109375 0 
L 9.078125 0 
L 9.078125 54.6875 
L 18.109375 54.6875 
L 18.109375 46.1875 
Q 21.34375 51.125 25.703125 53.5625 
Q 30.078125 56 35.796875 56 
Q 45.21875 56 50.046875 50.171875 
Q 54.890625 44.34375 54.890625 33.015625 
z
" id="DejaVuSans-6e"/>
      <path d="M 8.015625 75.875 
L 15.828125 75.875 
Q 23.140625 64.359375 26.78125 53.3125 
Q 30.421875 42.28125 30.421875 31.390625 
Q 30.421875 20.453125 26.78125 9.375 
Q 23.140625 -1.703125 15.828125 -13.1875 
L 8.015625 -13.1875 
Q 14.5 -2 17.703125 9.0625 
Q 20.90625 20.125 20.90625 31.390625 
Q 20.90625 42.671875 17.703125 53.65625 
Q 14.5 64.65625 8.015625 75.875 
z
" id="DejaVuSans-29"/>
     </defs>
     <g transform="translate(107.571219 337.433594)scale(0.17 -0.17)">
      <use xlink:href="#DejaVuSans-6c"/>
      <use x="27.783203" xlink:href="#DejaVuSans-6f"/>
      <use x="88.964844" xlink:href="#DejaVuSans-67"/>
      <use x="152.441406" xlink:href="#DejaVuSans-31"/>
      <use x="216.064453" xlink:href="#DejaVuSans-30"/>
      <use x="279.6875" xlink:href="#DejaVuSans-28"/>
      <use x="318.701172" xlink:href="#DejaVuSans-23"/>
      <use x="402.490234" xlink:href="#DejaVuSans-20"/>
      <use x="434.277344" xlink:href="#DejaVuSans-66"/>
      <use x="469.404297" xlink:href="#DejaVuSans-2d"/>
      <use x="505.488281" xlink:href="#DejaVuSans-65"/>
      <use x="567.011719" xlink:href="#DejaVuSans-76"/>
      <use x="626.191406" xlink:href="#DejaVuSans-61"/>
      <use x="687.470703" xlink:href="#DejaVuSans-6c"/>
      <use x="715.253906" xlink:href="#DejaVuSans-73"/>
      <use x="767.353516" xlink:href="#DejaVuSans-20"/>
      <use x="799.140625" xlink:href="#DejaVuSans-2f"/>
      <use x="832.832031" xlink:href="#DejaVuSans-20"/>
      <use x="864.619141" xlink:href="#DejaVuSans-64"/>
      <use x="928.095703" xlink:href="#DejaVuSans-69"/>
      <use x="955.878906" xlink:href="#DejaVuSans-6d"/>
      <use x="1053.291016" xlink:href="#DejaVuSans-65"/>
      <use x="1114.814453" xlink:href="#DejaVuSans-6e"/>
      <use x="1178.193359" xlink:href="#DejaVuSans-73"/>
      <use x="1230.292969" xlink:href="#DejaVuSans-69"/>
      <use x="1258.076172" xlink:href="#DejaVuSans-6f"/>
      <use x="1319.257812" xlink:href="#DejaVuSans-6e"/>
      <use x="1382.636719" xlink:href="#DejaVuSans-29"/>
     </g>
    </g>
   </g>
   <g id="matplotlib.axis_2">
    <g id="ytick_1">
     <g id="line2d_11">
      <path clip-path="url(#p3a70e0d823)" d="M 56.84 294.16 
L 399.984 294.16 
" style="fill:none;stroke:#b0b0b0;stroke-linecap:square;stroke-width:0.8;"/>
     </g>
     <g id="line2d_12">
      <defs>
       <path d="M 0 0 
L -3.5 0 
" id="m0c18dc9493" style="stroke:#000000;stroke-width:0.8;"/>
      </defs>
      <g>
       <use style="stroke:#000000;stroke-width:0.8;" x="56.84" xlink:href="#m0c18dc9493" y="294.16"/>
      </g>
     </g>
     <g id="text_7">
      <!-- 0.0 -->
      <defs>
       <path d="M 10.6875 12.40625 
L 21 12.40625 
L 21 0 
L 10.6875 0 
z
" id="DejaVuSans-2e"/>
      </defs>
      <g transform="translate(24.395 300.23875)scale(0.16 -0.16)">
       <use xlink:href="#DejaVuSans-30"/>
       <use x="63.623047" xlink:href="#DejaVuSans-2e"/>
       <use x="95.410156" xlink:href="#DejaVuSans-30"/>
      </g>
     </g>
    </g>
    <g id="ytick_2">
     <g id="line2d_13">
      <path clip-path="url(#p3a70e0d823)" d="M 56.84 240.829307 
L 399.984 240.829307 
" style="fill:none;stroke:#b0b0b0;stroke-linecap:square;stroke-width:0.8;"/>
     </g>
     <g id="line2d_14">
      <g>
       <use style="stroke:#000000;stroke-width:0.8;" x="56.84" xlink:href="#m0c18dc9493" y="240.829307"/>
      </g>
     </g>
     <g id="text_8">
      <!-- 0.2 -->
      <g transform="translate(24.395 246.908057)scale(0.16 -0.16)">
       <use xlink:href="#DejaVuSans-30"/>
       <use x="63.623047" xlink:href="#DejaVuSans-2e"/>
       <use x="95.410156" xlink:href="#DejaVuSans-32"/>
      </g>
     </g>
    </g>
    <g id="ytick_3">
     <g id="line2d_15">
      <path clip-path="url(#p3a70e0d823)" d="M 56.84 187.498614 
L 399.984 187.498614 
" style="fill:none;stroke:#b0b0b0;stroke-linecap:square;stroke-width:0.8;"/>
     </g>
     <g id="line2d_16">
      <g>
       <use style="stroke:#000000;stroke-width:0.8;" x="56.84" xlink:href="#m0c18dc9493" y="187.498614"/>
      </g>
     </g>
     <g id="text_9">
      <!-- 0.4 -->
      <g transform="translate(24.395 193.577364)scale(0.16 -0.16)">
       <use xlink:href="#DejaVuSans-30"/>
       <use x="63.623047" xlink:href="#DejaVuSans-2e"/>
       <use x="95.410156" xlink:href="#DejaVuSans-34"/>
      </g>
     </g>
    </g>
    <g id="ytick_4">
     <g id="line2d_17">
      <path clip-path="url(#p3a70e0d823)" d="M 56.84 134.167921 
L 399.984 134.167921 
" style="fill:none;stroke:#b0b0b0;stroke-linecap:square;stroke-width:0.8;"/>
     </g>
     <g id="line2d_18">
      <g>
       <use style="stroke:#000000;stroke-width:0.8;" x="56.84" xlink:href="#m0c18dc9493" y="134.167921"/>
      </g>
     </g>
     <g id="text_10">
      <!-- 0.6 -->
      <g transform="translate(24.395 140.246671)scale(0.16 -0.16)">
       <use xlink:href="#DejaVuSans-30"/>
       <use x="63.623047" xlink:href="#DejaVuSans-2e"/>
       <use x="95.410156" xlink:href="#DejaVuSans-36"/>
      </g>
     </g>
    </g>
    <g id="ytick_5">
     <g id="line2d_19">
      <path clip-path="url(#p3a70e0d823)" d="M 56.84 80.837228 
L 399.984 80.837228 
" style="fill:none;stroke:#b0b0b0;stroke-linecap:square;stroke-width:0.8;"/>
     </g>
     <g id="line2d_20">
      <g>
       <use style="stroke:#000000;stroke-width:0.8;" x="56.84" xlink:href="#m0c18dc9493" y="80.837228"/>
      </g>
     </g>
     <g id="text_11">
      <!-- 0.8 -->
      <g transform="translate(24.395 86.915978)scale(0.16 -0.16)">
       <use xlink:href="#DejaVuSans-30"/>
       <use x="63.623047" xlink:href="#DejaVuSans-2e"/>
       <use x="95.410156" xlink:href="#DejaVuSans-38"/>
      </g>
     </g>
    </g>
    <g id="ytick_6">
     <g id="line2d_21">
      <path clip-path="url(#p3a70e0d823)" d="M 56.84 27.506535 
L 399.984 27.506535 
" style="fill:none;stroke:#b0b0b0;stroke-linecap:square;stroke-width:0.8;"/>
     </g>
     <g id="line2d_22">
      <g>
       <use style="stroke:#000000;stroke-width:0.8;" x="56.84" xlink:href="#m0c18dc9493" y="27.506535"/>
      </g>
     </g>
     <g id="text_12">
      <!-- 1.0 -->
      <g transform="translate(24.395 33.585285)scale(0.16 -0.16)">
       <use xlink:href="#DejaVuSans-31"/>
       <use x="63.623047" xlink:href="#DejaVuSans-2e"/>
       <use x="95.410156" xlink:href="#DejaVuSans-30"/>
      </g>
     </g>
    </g>
    <g id="text_13">
     <!-- Fraction of function,target pairs -->
     <defs>
      <path d="M 9.8125 72.90625 
L 51.703125 72.90625 
L 51.703125 64.59375 
L 19.671875 64.59375 
L 19.671875 43.109375 
L 48.578125 43.109375 
L 48.578125 34.8125 
L 19.671875 34.8125 
L 19.671875 0 
L 9.8125 0 
z
" id="DejaVuSans-46"/>
      <path d="M 41.109375 46.296875 
Q 39.59375 47.171875 37.8125 47.578125 
Q 36.03125 48 33.890625 48 
Q 26.265625 48 22.1875 43.046875 
Q 18.109375 38.09375 18.109375 28.8125 
L 18.109375 0 
L 9.078125 0 
L 9.078125 54.6875 
L 18.109375 54.6875 
L 18.109375 46.1875 
Q 20.953125 51.171875 25.484375 53.578125 
Q 30.03125 56 36.53125 56 
Q 37.453125 56 38.578125 55.875 
Q 39.703125 55.765625 41.0625 55.515625 
z
" id="DejaVuSans-72"/>
      <path d="M 48.78125 52.59375 
L 48.78125 44.1875 
Q 44.96875 46.296875 41.140625 47.34375 
Q 37.3125 48.390625 33.40625 48.390625 
Q 24.65625 48.390625 19.8125 42.84375 
Q 14.984375 37.3125 14.984375 27.296875 
Q 14.984375 17.28125 19.8125 11.734375 
Q 24.65625 6.203125 33.40625 6.203125 
Q 37.3125 6.203125 41.140625 7.25 
Q 44.96875 8.296875 48.78125 10.40625 
L 48.78125 2.09375 
Q 45.015625 0.34375 40.984375 -0.53125 
Q 36.96875 -1.421875 32.421875 -1.421875 
Q 20.0625 -1.421875 12.78125 6.34375 
Q 5.515625 14.109375 5.515625 27.296875 
Q 5.515625 40.671875 12.859375 48.328125 
Q 20.21875 56 33.015625 56 
Q 37.15625 56 41.109375 55.140625 
Q 45.0625 54.296875 48.78125 52.59375 
z
" id="DejaVuSans-63"/>
      <path d="M 18.3125 70.21875 
L 18.3125 54.6875 
L 36.8125 54.6875 
L 36.8125 47.703125 
L 18.3125 47.703125 
L 18.3125 18.015625 
Q 18.3125 11.328125 20.140625 9.421875 
Q 21.96875 7.515625 27.59375 7.515625 
L 36.8125 7.515625 
L 36.8125 0 
L 27.59375 0 
Q 17.1875 0 13.234375 3.875 
Q 9.28125 7.765625 9.28125 18.015625 
L 9.28125 47.703125 
L 2.6875 47.703125 
L 2.6875 54.6875 
L 9.28125 54.6875 
L 9.28125 70.21875 
z
" id="DejaVuSans-74"/>
      <path d="M 8.5 21.578125 
L 8.5 54.6875 
L 17.484375 54.6875 
L 17.484375 21.921875 
Q 17.484375 14.15625 20.5 10.265625 
Q 23.53125 6.390625 29.59375 6.390625 
Q 36.859375 6.390625 41.078125 11.03125 
Q 45.3125 15.671875 45.3125 23.6875 
L 45.3125 54.6875 
L 54.296875 54.6875 
L 54.296875 0 
L 45.3125 0 
L 45.3125 8.40625 
Q 42.046875 3.421875 37.71875 1 
Q 33.40625 -1.421875 27.6875 -1.421875 
Q 18.265625 -1.421875 13.375 4.4375 
Q 8.5 10.296875 8.5 21.578125 
z
M 31.109375 56 
z
" id="DejaVuSans-75"/>
      <path d="M 11.71875 12.40625 
L 22.015625 12.40625 
L 22.015625 4 
L 14.015625 -11.625 
L 7.71875 -11.625 
L 11.71875 4 
z
" id="DejaVuSans-2c"/>
      <path d="M 18.109375 8.203125 
L 18.109375 -20.796875 
L 9.078125 -20.796875 
L 9.078125 54.6875 
L 18.109375 54.6875 
L 18.109375 46.390625 
Q 20.953125 51.265625 25.265625 53.625 
Q 29.59375 56 35.59375 56 
Q 45.5625 56 51.78125 48.09375 
Q 58.015625 40.1875 58.015625 27.296875 
Q 58.015625 14.40625 51.78125 6.484375 
Q 45.5625 -1.421875 35.59375 -1.421875 
Q 29.59375 -1.421875 25.265625 0.953125 
Q 20.953125 3.328125 18.109375 8.203125 
z
M 48.6875 27.296875 
Q 48.6875 37.203125 44.609375 42.84375 
Q 40.53125 48.484375 33.40625 48.484375 
Q 26.265625 48.484375 22.1875 42.84375 
Q 18.109375 37.203125 18.109375 27.296875 
Q 18.109375 17.390625 22.1875 11.75 
Q 26.265625 6.109375 33.40625 6.109375 
Q 40.53125 6.109375 44.609375 11.75 
Q 48.6875 17.390625 48.6875 27.296875 
z
" id="DejaVuSans-70"/>
     </defs>
     <g transform="translate(16.859531 294.639375)rotate(-90)scale(0.17 -0.17)">
      <use xlink:href="#DejaVuSans-46"/>
      <use x="57.410156" xlink:href="#DejaVuSans-72"/>
      <use x="98.523438" xlink:href="#DejaVuSans-61"/>
      <use x="159.802734" xlink:href="#DejaVuSans-63"/>
      <use x="214.783203" xlink:href="#DejaVuSans-74"/>
      <use x="253.992188" xlink:href="#DejaVuSans-69"/>
      <use x="281.775391" xlink:href="#DejaVuSans-6f"/>
      <use x="342.957031" xlink:href="#DejaVuSans-6e"/>
      <use x="406.335938" xlink:href="#DejaVuSans-20"/>
      <use x="438.123047" xlink:href="#DejaVuSans-6f"/>
      <use x="499.304688" xlink:href="#DejaVuSans-66"/>
      <use x="534.509766" xlink:href="#DejaVuSans-20"/>
      <use x="566.296875" xlink:href="#DejaVuSans-66"/>
      <use x="601.501953" xlink:href="#DejaVuSans-75"/>
      <use x="664.880859" xlink:href="#DejaVuSans-6e"/>
      <use x="728.259766" xlink:href="#DejaVuSans-63"/>
      <use x="783.240234" xlink:href="#DejaVuSans-74"/>
      <use x="822.449219" xlink:href="#DejaVuSans-69"/>
      <use x="850.232422" xlink:href="#DejaVuSans-6f"/>
      <use x="911.414062" xlink:href="#DejaVuSans-6e"/>
      <use x="974.792969" xlink:href="#DejaVuSans-2c"/>
      <use x="1006.580078" xlink:href="#DejaVuSans-74"/>
      <use x="1045.789062" xlink:href="#DejaVuSans-61"/>
      <use x="1107.068359" xlink:href="#DejaVuSans-72"/>
      <use x="1148.166016" xlink:href="#DejaVuSans-67"/>
      <use x="1211.642578" xlink:href="#DejaVuSans-65"/>
      <use x="1273.166016" xlink:href="#DejaVuSans-74"/>
      <use x="1312.375" xlink:href="#DejaVuSans-20"/>
      <use x="1344.162109" xlink:href="#DejaVuSans-70"/>
      <use x="1407.638672" xlink:href="#DejaVuSans-61"/>
      <use x="1468.917969" xlink:href="#DejaVuSans-69"/>
      <use x="1496.701172" xlink:href="#DejaVuSans-72"/>
      <use x="1537.814453" xlink:href="#DejaVuSans-73"/>
     </g>
    </g>
   </g>
   <g id="line2d_23">
    <defs>
     <path d="M 0 1.5 
C 0.397805 1.5 0.77937 1.341951 1.06066 1.06066 
C 1.341951 0.77937 1.5 0.397805 1.5 0 
C 1.5 -0.397805 1.341951 -0.77937 1.06066 -1.06066 
C 0.77937 -1.341951 0.397805 -1.5 0 -1.5 
C -0.397805 -1.5 -0.77937 -1.341951 -1.06066 -1.06066 
C -1.341951 -0.77937 -1.5 -0.397805 -1.5 0 
C -1.5 0.397805 -1.341951 0.77937 -1.06066 1.06066 
C -0.77937 1.341951 -0.397805 1.5 0 1.5 
z
" id="me8ba410783" style="stroke:#00bfbf;"/>
    </defs>
    <g>
     <use style="fill:#00bfbf;stroke:#00bfbf;" x="247.041787" xlink:href="#me8ba410783" y="90.248526"/>
     <use style="fill:#00bfbf;stroke:#00bfbf;" x="247.041787" xlink:href="#me8ba410783" y="90.248526"/>
    </g>
   </g>
   <g id="line2d_24">
    <path d="M 44.939466 294.16 
L 44.939466 269.586053 
L 56.84 269.586053 
L 56.84 259.129055 
L 63.801366 259.129055 
L 63.801366 258.083355 
L 68.740534 258.083355 
L 68.740534 257.037655 
L 72.57165 257.037655 
L 72.57165 254.946255 
L 75.7019 254.946255 
L 75.7019 254.423405 
L 78.348489 254.423405 
L 78.348489 250.763456 
L 80.641068 250.763456 
L 80.641068 248.672056 
L 82.663267 248.672056 
L 82.663267 247.626356 
L 84.472185 247.626356 
L 84.472185 247.103506 
L 86.10855 247.103506 
L 86.10855 246.580656 
L 87.602435 246.580656 
L 87.602435 246.057806 
L 88.976675 246.057806 
L 88.976675 243.966407 
L 90.249023 243.966407 
L 90.249023 242.397857 
L 93.582457 242.397857 
L 93.582457 241.875007 
L 95.492072 241.875007 
L 95.492072 240.829307 
L 96.372719 240.829307 
L 96.372719 240.306457 
L 97.210389 240.306457 
L 97.210389 239.260757 
L 98.009084 239.260757 
L 98.009084 238.737907 
L 99.502969 238.737907 
L 99.502969 238.215057 
L 100.203835 238.215057 
L 100.203835 237.692207 
L 100.877209 237.692207 
L 100.877209 237.169357 
L 101.525167 237.169357 
L 101.525167 235.600808 
L 102.149557 235.600808 
L 102.149557 234.032258 
L 102.752035 234.032258 
L 102.752035 233.509408 
L 103.897048 233.509408 
L 103.897048 232.986558 
L 104.442137 232.986558 
L 104.442137 232.463708 
L 105.482991 232.463708 
L 105.482991 231.940858 
L 105.980674 231.940858 
L 105.980674 229.326608 
L 106.464335 229.326608 
L 106.464335 228.280909 
L 107.838576 228.280909 
L 107.838576 227.758059 
L 109.110924 227.758059 
L 109.110924 226.712359 
L 110.295451 226.712359 
L 110.295451 226.189509 
L 110.672804 226.189509 
L 110.672804 225.666659 
L 112.777744 225.666659 
L 112.777744 225.143809 
L 114.050092 225.143809 
L 114.050092 224.620959 
L 114.353973 224.620959 
L 114.353973 224.098109 
L 116.342671 224.098109 
L 116.342671 223.052409 
L 116.870985 223.052409 
L 116.870985 221.483859 
L 117.63417 221.483859 
L 117.63417 220.43816 
L 118.364869 220.43816 
L 118.364869 219.39246 
L 118.835278 219.39246 
L 118.835278 218.86961 
L 119.065736 218.86961 
L 119.065736 218.34676 
L 119.293141 218.34676 
L 119.293141 217.82391 
L 119.517573 217.82391 
L 119.517573 217.30106 
L 120.173787 217.30106 
L 120.173787 216.77821 
L 121.415449 216.77821 
L 121.415449 215.73251 
L 122.195986 215.73251 
L 122.195986 215.20966 
L 122.385698 215.20966 
L 122.385698 213.64111 
L 124.344892 213.64111 
L 124.344892 213.118261 
L 124.512394 213.118261 
L 124.512394 211.549711 
L 125.641269 211.549711 
L 125.641269 211.026861 
L 126.553103 211.026861 
L 126.553103 209.981161 
L 126.99148 209.981161 
L 126.99148 209.458311 
L 127.135154 209.458311 
L 127.135154 208.935461 
L 127.418943 208.935461 
L 127.418943 208.412611 
L 127.559097 208.412611 
L 127.559097 207.889761 
L 128.901096 207.889761 
L 128.901096 206.844061 
L 129.029702 206.844061 
L 129.029702 205.798361 
L 129.157352 205.798361 
L 129.157352 205.275512 
L 129.534704 205.275512 
L 129.534704 204.752662 
L 130.025276 204.752662 
L 130.025276 204.229812 
L 131.306258 204.229812 
L 131.306258 203.706962 
L 131.529233 203.706962 
L 131.529233 203.184112 
L 134.380309 203.184112 
L 134.380309 202.138412 
L 134.843109 202.138412 
L 134.843109 201.615562 
L 135.645954 201.615562 
L 135.645954 200.569862 
L 136.824671 200.569862 
L 136.824671 200.047012 
L 137.306072 200.047012 
L 137.306072 199.001312 
L 138.003773 199.001312 
L 138.003773 198.478462 
L 140.27735 198.478462 
L 140.27735 197.955613 
L 140.409928 197.955613 
L 140.409928 197.432763 
L 141.057886 197.432763 
L 141.057886 196.909913 
L 141.559202 196.909913 
L 141.559202 196.387063 
L 142.923938 196.387063 
L 142.923938 195.864213 
L 143.03764 195.864213 
L 143.03764 195.341363 
L 143.649884 195.341363 
L 143.649884 194.818513 
L 143.867214 194.818513 
L 143.867214 193.772813 
L 144.451064 193.772813 
L 144.451064 193.249963 
L 144.710025 193.249963 
L 144.710025 192.204263 
L 144.914419 192.204263 
L 144.914419 191.158563 
L 146.880085 191.158563 
L 146.880085 190.635713 
L 147.546488 190.635713 
L 147.546488 190.112864 
L 147.762996 190.112864 
L 147.762996 189.590014 
L 147.934258 189.590014 
L 147.934258 189.067164 
L 158.735259 189.067164 
L 158.735259 188.544314 
L 162.124708 188.544314 
L 162.124708 188.021464 
L 164.293341 188.021464 
L 164.391637 186.975764 
L 165.726878 186.975764 
L 165.726878 186.452914 
L 166.100616 186.452914 
L 166.100616 184.884364 
L 166.277161 184.884364 
L 166.277161 183.315814 
L 166.451909 183.315814 
L 166.451909 182.792964 
L 166.567428 182.792964 
L 166.567428 182.270115 
L 167.775924 182.270115 
L 167.775924 181.747265 
L 176.559616 181.747265 
L 176.559616 181.224415 
L 176.727665 181.224415 
L 176.727665 180.701565 
L 176.854607 180.701565 
L 176.854607 180.178715 
L 177.004142 180.178715 
L 177.004142 179.133015 
L 177.253083 179.133015 
L 177.345513 177.564465 
L 177.406858 177.564465 
L 177.406858 175.473065 
L 177.559267 175.473065 
L 177.559267 174.950215 
L 178.008543 174.950215 
L 178.008543 174.427366 
L 178.978386 174.427366 
L 178.978386 173.904516 
L 179.124446 173.904516 
L 179.124446 173.381666 
L 180.230766 173.381666 
L 180.230766 172.858816 
L 181.793775 172.858816 
L 181.793775 172.335966 
L 182.519286 172.335966 
L 182.519286 171.813116 
L 183.726153 171.813116 
L 183.789604 170.767416 
L 183.894838 170.767416 
L 183.999431 169.721716 
L 184.629034 169.721716 
L 184.629034 169.198866 
L 185.08531 169.198866 
L 185.182916 168.153166 
L 186.784739 168.153166 
L 186.784739 167.630316 
L 188.588337 167.630316 
L 188.588337 167.107467 
L 188.826136 167.107467 
L 188.908594 165.016067 
L 190.668085 165.016067 
L 190.668085 164.493217 
L 192.302521 164.493217 
L 192.302521 163.970367 
L 192.494318 163.970367 
L 192.570441 162.401817 
L 192.621003 162.401817 
L 192.621003 161.878967 
L 193.01714 161.878967 
L 193.01714 161.356117 
L 193.20116 161.356117 
L 193.20116 160.833267 
L 194.325791 160.833267 
L 194.325791 160.310417 
L 195.316656 160.310417 
L 195.424197 157.696168 
L 195.437592 157.696168 
L 195.544381 156.650468 
L 195.713872 156.650468 
L 195.713872 156.127618 
L 196.291706 156.127618 
L 196.291706 155.604768 
L 197.575153 155.604768 
L 197.575153 155.081918 
L 198.041663 155.081918 
L 198.14719 153.513368 
L 198.160907 153.513368 
L 198.206551 151.421969 
L 198.538359 151.421969 
L 198.538359 150.899119 
L 198.986277 150.899119 
L 198.986277 150.376269 
L 200.422894 150.376269 
L 200.46291 149.330569 
L 200.6062 149.330569 
L 200.6062 148.807719 
L 200.871688 148.807719 
L 200.949569 147.239169 
L 201.381187 147.239169 
L 201.381187 146.716319 
L 202.32112 146.716319 
L 202.406991 145.147769 
L 202.442644 145.147769 
L 202.442644 144.624919 
L 202.723484 144.624919 
L 202.737494 143.57922 
L 202.878702 143.57922 
L 202.878702 143.05637 
L 202.991183 143.05637 
L 203.03769 142.01067 
L 204.17249 142.01067 
L 204.191801 140.96497 
L 204.299222 140.96497 
L 204.299222 140.44212 
L 205.62594 140.44212 
L 205.62594 139.91927 
L 205.767381 139.91927 
L 205.767381 139.39642 
L 205.94256 139.39642 
L 205.945465 138.35072 
L 206.995969 138.35072 
L 206.995969 137.82787 
L 207.232017 137.82787 
L 207.323391 136.259321 
L 207.628895 136.259321 
L 207.628895 135.736471 
L 207.799196 135.736471 
L 207.799196 135.213621 
L 208.551553 135.213621 
L 208.616308 134.167921 
L 208.969379 134.167921 
L 208.969379 133.645071 
L 209.814006 133.645071 
L 209.883417 132.599371 
L 209.952549 132.599371 
L 210.025984 131.553671 
L 210.097966 131.553671 
L 210.097966 131.030821 
L 210.501374 131.030821 
L 210.501374 130.507971 
L 211.089252 130.507971 
L 211.199745 128.416572 
L 211.25526 128.416572 
L 211.25526 127.893722 
L 211.396437 127.893722 
L 211.396437 127.370872 
L 211.514429 127.370872 
L 211.514429 126.848022 
L 212.131056 126.848022 
L 212.163436 125.802322 
L 212.379425 125.802322 
L 212.472017 124.756622 
L 212.700846 124.756622 
L 212.700846 124.233772 
L 213.211485 124.233772 
L 213.239044 123.188072 
L 213.389363 123.188072 
L 213.389363 122.665222 
L 214.136252 122.665222 
L 214.165067 121.619522 
L 214.535318 121.619522 
L 214.535318 121.096672 
L 215.179916 121.096672 
L 215.179916 120.573823 
L 215.529131 120.573823 
L 215.529131 120.050973 
L 215.915314 120.050973 
L 215.915314 119.528123 
L 216.150939 119.528123 
L 216.150939 119.005273 
L 216.66256 119.005273 
L 216.66256 118.482423 
L 216.81898 118.482423 
L 216.857478 116.391023 
L 217.094262 116.391023 
L 217.094262 115.868173 
L 217.30536 115.868173 
L 217.30536 115.345323 
L 217.586287 115.345323 
L 217.586287 114.822473 
L 219.162839 114.822473 
L 219.162839 114.299623 
L 219.582666 114.299623 
L 219.582666 113.776773 
L 219.896088 113.776773 
L 219.896088 113.253924 
L 220.864433 113.253924 
L 220.864433 112.731074 
L 221.112332 112.731074 
L 221.112332 112.208224 
L 221.231972 112.208224 
L 221.338347 110.639674 
L 221.350783 110.639674 
L 221.350783 110.116824 
L 221.722073 110.116824 
L 221.722073 109.593974 
L 222.324331 109.593974 
L 222.324331 109.071124 
L 222.451396 109.071124 
L 222.451396 108.548274 
L 222.683031 108.548274 
L 222.683031 108.025424 
L 223.067635 108.025424 
L 223.067635 107.502574 
L 223.259402 107.502574 
L 223.259402 106.979724 
L 224.015884 106.979724 
L 224.015884 106.456874 
L 224.506569 106.456874 
L 224.506569 105.934024 
L 224.755979 105.934024 
L 224.755979 105.411175 
L 225.030509 105.411175 
L 225.030509 104.888325 
L 225.640679 104.888325 
L 225.653124 103.842625 
L 225.877892 103.842625 
L 225.877892 103.319775 
L 226.019204 103.319775 
L 226.055251 102.274075 
L 226.983925 102.274075 
L 226.983925 101.751225 
L 227.408462 101.751225 
L 227.484008 100.705525 
L 227.69804 100.705525 
L 227.69804 100.182675 
L 229.128918 100.182675 
L 229.128918 99.659825 
L 229.590079 99.659825 
L 229.590079 99.136975 
L 230.324105 99.136975 
L 230.324105 98.614125 
L 230.533788 98.614125 
L 230.533788 98.091275 
L 233.369019 98.091275 
L 233.369019 97.568426 
L 233.486211 97.568426 
L 233.533447 96.522726 
L 233.675536 96.522726 
L 233.759078 95.477026 
L 234.083603 95.477026 
L 234.083603 94.954176 
L 234.66036 94.954176 
L 234.66036 94.431326 
L 236.694583 94.431326 
L 236.742957 93.385626 
L 237.774105 93.385626 
L 237.774105 92.862776 
L 238.350688 92.862776 
L 238.350688 92.339926 
L 241.123467 92.339926 
L 241.123467 91.817076 
L 243.421589 91.817076 
L 243.421589 91.294226 
L 243.970908 91.294226 
L 243.970908 90.771376 
L 247.041787 90.771376 
L 247.041787 90.248526 
L 333.569032 90.248526 
L 333.569032 90.248526 
" style="fill:none;stroke:#00bfbf;stroke-linecap:square;stroke-width:1.5;"/>
   </g>
   <g id="line2d_25">
    <defs>
     <path d="M -6 0 
L 6 0 
M 0 6 
L 0 -6 
" id="m89fc7d659d" style="stroke:#00bfbf;stroke-width:1.5;"/>
    </defs>
    <g>
     <use style="fill-opacity:0;stroke:#00bfbf;stroke-width:1.5;" x="119.065736" xlink:href="#m89fc7d659d" y="218.86961"/>
     <use style="fill-opacity:0;stroke:#00bfbf;stroke-width:1.5;" x="188.908594" xlink:href="#m89fc7d659d" y="165.016067"/>
     <use style="fill-opacity:0;stroke:#00bfbf;stroke-width:1.5;" x="219.896088" xlink:href="#m89fc7d659d" y="113.253924"/>
     <use style="fill-opacity:0;stroke:#00bfbf;stroke-width:1.5;" x="247.041787" xlink:href="#m89fc7d659d" y="90.248526"/>
     <use style="fill-opacity:0;stroke:#00bfbf;stroke-width:1.5;" x="247.041787" xlink:href="#m89fc7d659d" y="90.248526"/>
     <use style="fill-opacity:0;stroke:#00bfbf;stroke-width:1.5;" x="333.569032" xlink:href="#m89fc7d659d" y="90.248526"/>
    </g>
   </g>
   <g id="line2d_26">
    <path style="fill:none;stroke:#00bfbf;stroke-linecap:square;stroke-width:1.5;"/>
    <g/>
   </g>
   <g id="line2d_27">
    <path clip-path="url(#p3a70e0d823)" d="M 164.375293 187.498614 
" style="fill:none;stroke:#00bfbf;stroke-linecap:square;stroke-width:1.5;"/>
    <defs>
     <path d="M -12 12 
L 12 -12 
M -12 -12 
L 12 12 
" id="me625f99509" style="stroke:#00bfbf;stroke-width:3;"/>
    </defs>
    <g clip-path="url(#p3a70e0d823)">
     <use style="fill:#00bfbf;stroke:#00bfbf;stroke-width:3;" x="164.375293" xlink:href="#me625f99509" y="187.498614"/>
    </g>
   </g>
   <g id="line2d_28">
    <defs>
     <path d="M 0 1.5 
C 0.397805 1.5 0.77937 1.341951 1.06066 1.06066 
C 1.341951 0.77937 1.5 0.397805 1.5 0 
C 1.5 -0.397805 1.341951 -0.77937 1.06066 -1.06066 
C 0.77937 -1.341951 0.397805 -1.5 0 -1.5 
C -0.397805 -1.5 -0.77937 -1.341951 -1.06066 -1.06066 
C -1.341951 -0.77937 -1.5 -0.397805 -1.5 0 
C -1.5 0.397805 -1.341951 0.77937 -1.06066 1.06066 
C -0.77937 1.341951 -0.397805 1.5 0 1.5 
z
" id="mbb7de2528b" style="stroke:#008000;"/>
    </defs>
    <g>
     <use style="fill:#008000;stroke:#008000;" x="242.891915" xlink:href="#mbb7de2528b" y="194.818513"/>
     <use style="fill:#008000;stroke:#008000;" x="242.891915" xlink:href="#mbb7de2528b" y="194.818513"/>
    </g>
   </g>
   <g id="line2d_29">
    <path d="M 37.9781 294.16 
L 37.9781 275.860252 
L 49.878634 275.860252 
L 49.878634 266.971804 
L 56.84 266.971804 
L 56.84 265.926104 
L 61.779168 265.926104 
L 61.779168 263.311854 
L 65.610284 263.311854 
L 65.610284 261.743304 
L 68.740534 261.743304 
L 68.740534 261.220454 
L 71.387123 261.220454 
L 71.387123 259.651904 
L 73.679702 259.651904 
L 73.679702 258.606205 
L 75.7019 258.606205 
L 75.7019 257.560505 
L 80.641068 257.560505 
L 80.641068 257.037655 
L 82.015309 257.037655 
L 82.015309 256.514805 
L 83.287657 256.514805 
L 83.287657 255.991955 
L 84.472185 255.991955 
L 84.472185 254.423405 
L 94.563801 254.423405 
L 94.563801 253.900555 
L 97.480771 253.900555 
L 97.480771 252.854855 
L 99.502969 252.854855 
L 99.502969 251.286306 
L 99.973377 251.286306 
L 99.973377 250.240606 
L 101.73583 250.240606 
L 101.73583 249.717756 
L 109.381305 249.717756 
L 109.381305 249.194906 
L 109.909618 249.194906 
L 109.909618 248.672056 
L 111.403503 248.672056 
L 111.403503 248.149206 
L 111.873912 248.149206 
L 111.873912 247.626356 
L 112.104369 247.626356 
L 112.104369 247.103506 
L 113.425701 247.103506 
L 113.425701 246.580656 
L 114.253276 246.580656 
L 114.253276 246.057806 
L 114.454083 246.057806 
L 114.454083 245.012106 
L 117.043537 245.012106 
L 117.043537 244.489256 
L 117.881208 244.489256 
L 117.881208 243.966407 
L 118.835278 243.966407 
L 118.835278 243.443557 
L 120.874654 243.443557 
L 120.874654 242.920707 
L 121.679591 242.920707 
L 121.679591 241.875007 
L 124.787983 241.875007 
L 124.787983 241.352157 
L 125.219927 241.352157 
L 125.219927 240.829307 
L 125.641269 240.829307 
L 125.641269 240.306457 
L 125.950626 240.306457 
L 126.052518 239.260757 
L 126.254507 239.260757 
L 126.254507 238.737907 
L 126.454147 238.737907 
L 126.454147 238.215057 
L 127.512506 238.215057 
L 127.512506 237.692207 
L 128.509394 237.692207 
L 128.509394 237.169357 
L 129.114907 237.169357 
L 129.114907 236.646507 
L 129.617446 236.646507 
L 129.617446 236.123658 
L 129.944481 236.123658 
L 129.944481 235.600808 
L 131.268812 235.600808 
L 131.268812 234.555108 
L 131.492271 234.555108 
L 131.492271 234.032258 
L 133.115176 234.032258 
L 133.115176 232.986558 
L 133.775598 232.986558 
L 133.775598 231.940858 
L 133.96887 231.940858 
L 133.96887 231.418008 
L 134.72091 231.418008 
L 134.72091 230.372308 
L 135.905438 230.372308 
L 135.962572 228.803758 
L 136.076273 228.803758 
L 136.076273 228.280909 
L 136.357275 228.280909 
L 136.357275 226.712359 
L 136.468401 226.712359 
L 136.468401 226.189509 
L 137.22677 226.189509 
L 137.22677 225.666659 
L 141.184594 225.666659 
L 141.184594 225.143809 
L 142.205634 225.143809 
L 142.205634 224.620959 
L 143.169347 224.620959 
L 143.206792 223.575259 
L 143.355764 223.575259 
L 143.355764 222.529559 
L 144.43366 222.529559 
L 144.43366 222.006709 
L 146.405481 222.006709 
L 146.405481 221.483859 
L 147.075273 221.483859 
L 147.075273 220.96101 
L 149.364119 220.96101 
L 149.364119 219.91531 
L 153.725291 219.91531 
L 153.725291 219.39246 
L 154.224711 219.39246 
L 154.224711 218.86961 
L 154.994743 218.86961 
L 154.994743 218.34676 
L 159.345044 218.34676 
L 159.345044 217.82391 
L 164.795248 217.82391 
L 164.795248 217.30106 
L 165.986866 217.30106 
L 165.986866 216.77821 
L 168.330232 216.77821 
L 168.330232 216.25536 
L 169.686481 216.25536 
L 169.686481 215.73251 
L 170.245314 215.73251 
L 170.245314 215.20966 
L 179.159039 215.20966 
L 179.159039 214.68681 
L 181.320951 214.68681 
L 181.320951 214.16396 
L 184.143075 214.16396 
L 184.143075 213.64111 
L 184.692579 213.64111 
L 184.779156 212.595411 
L 185.42453 212.595411 
L 185.42453 212.072561 
L 188.452107 212.072561 
L 188.452107 211.549711 
L 190.022031 211.549711 
L 190.087985 210.504011 
L 192.174536 210.504011 
L 192.196113 209.458311 
L 192.653578 209.458311 
L 192.653578 208.935461 
L 195.6831 208.935461 
L 195.690139 207.889761 
L 198.025547 207.889761 
L 198.025547 207.366911 
L 198.460685 207.366911 
L 198.460685 206.844061 
L 200.253127 206.844061 
L 200.253127 206.321211 
L 202.46815 206.321211 
L 202.46815 205.798361 
L 205.975933 205.798361 
L 205.975933 205.275512 
L 207.248626 205.275512 
L 207.355971 204.229812 
L 207.47328 204.229812 
L 207.47328 203.706962 
L 208.521166 203.706962 
L 208.521166 203.184112 
L 208.68536 203.184112 
L 208.68536 202.661262 
L 210.195742 202.661262 
L 210.195742 202.138412 
L 219.696254 202.138412 
L 219.696254 201.615562 
L 224.329138 201.615562 
L 224.329138 201.092712 
L 225.825207 201.092712 
L 225.825207 200.569862 
L 227.683171 200.569862 
L 227.683171 200.047012 
L 228.656704 200.047012 
L 228.656704 199.524162 
L 228.919786 199.524162 
L 229.006424 198.478462 
L 231.429305 198.478462 
L 231.429305 197.955613 
L 234.559628 197.955613 
L 234.559628 197.432763 
L 234.913085 197.432763 
L 234.961382 196.387063 
L 235.787864 196.387063 
L 235.787864 195.864213 
L 236.742716 195.864213 
L 236.742716 195.341363 
L 242.891915 195.341363 
L 242.891915 194.818513 
L 333.569032 194.818513 
L 333.569032 194.818513 
" style="fill:none;stroke:#008000;stroke-linecap:square;stroke-width:1.5;"/>
   </g>
   <g id="line2d_30">
    <defs>
     <path d="M -0 6 
L 6 -6 
L -6 -6 
z
" id="ma4349dd2f0" style="stroke:#008000;stroke-linejoin:miter;stroke-width:1.5;"/>
    </defs>
    <g>
     <use style="fill-opacity:0;stroke:#008000;stroke-linejoin:miter;stroke-width:1.5;" x="112.104369" xlink:href="#ma4349dd2f0" y="247.626356"/>
     <use style="fill-opacity:0;stroke:#008000;stroke-linejoin:miter;stroke-width:1.5;" x="170.245314" xlink:href="#ma4349dd2f0" y="215.20966"/>
     <use style="fill-opacity:0;stroke:#008000;stroke-linejoin:miter;stroke-width:1.5;" x="242.891915" xlink:href="#ma4349dd2f0" y="195.341363"/>
     <use style="fill-opacity:0;stroke:#008000;stroke-linejoin:miter;stroke-width:1.5;" x="242.891915" xlink:href="#ma4349dd2f0" y="194.818513"/>
     <use style="fill-opacity:0;stroke:#008000;stroke-linejoin:miter;stroke-width:1.5;" x="242.891915" xlink:href="#ma4349dd2f0" y="194.818513"/>
     <use style="fill-opacity:0;stroke:#008000;stroke-linejoin:miter;stroke-width:1.5;" x="333.569032" xlink:href="#ma4349dd2f0" y="194.818513"/>
    </g>
   </g>
   <g id="line2d_31">
    <path style="fill:none;stroke:#008000;stroke-linecap:square;stroke-width:1.5;"/>
    <g/>
   </g>
   <g id="line2d_32">
    <path clip-path="url(#p3a70e0d823)" d="M 164.100586 217.82391 
" style="fill:none;stroke:#008000;stroke-linecap:square;stroke-width:1.5;"/>
    <defs>
     <path d="M -12 12 
L 12 -12 
M -12 -12 
L 12 12 
" id="m9eae4fd1ed" style="stroke:#008000;stroke-width:3;"/>
    </defs>
    <g clip-path="url(#p3a70e0d823)">
     <use style="fill:#008000;stroke:#008000;stroke-width:3;" x="164.100586" xlink:href="#m9eae4fd1ed" y="217.82391"/>
    </g>
   </g>
   <g id="line2d_33">
    <defs>
     <path d="M 0 1.5 
C 0.397805 1.5 0.77937 1.341951 1.06066 1.06066 
C 1.341951 0.77937 1.5 0.397805 1.5 0 
C 1.5 -0.397805 1.341951 -0.77937 1.06066 -1.06066 
C 0.77937 -1.341951 0.397805 -1.5 0 -1.5 
C -0.397805 -1.5 -0.77937 -1.341951 -1.06066 -1.06066 
C -1.341951 -0.77937 -1.5 -0.397805 -1.5 0 
C -1.5 0.397805 -1.341951 0.77937 -1.06066 1.06066 
C -0.77937 1.341951 -0.397805 1.5 0 1.5 
z
" id="me45f716d5c" style="stroke:#0000ff;"/>
    </defs>
    <g>
     <use style="fill:#0000ff;stroke:#0000ff;" x="229.030867" xlink:href="#me45f716d5c" y="226.189509"/>
     <use style="fill:#0000ff;stroke:#0000ff;" x="229.030867" xlink:href="#me45f716d5c" y="226.189509"/>
    </g>
   </g>
   <g id="line2d_34">
    <path d="M 29.207815 294.16 
L 29.207815 280.043052 
L 41.10835 280.043052 
L 41.10835 273.246003 
L 48.069716 273.246003 
L 48.069716 269.063203 
L 53.008884 269.063203 
L 53.008884 268.540353 
L 59.97025 268.540353 
L 59.97025 266.971804 
L 62.616839 266.971804 
L 62.616839 266.448954 
L 64.909418 266.448954 
L 64.909418 265.926104 
L 66.931616 265.926104 
L 66.931616 264.880404 
L 70.3769 264.880404 
L 70.3769 263.834704 
L 82.277434 263.834704 
L 82.277434 263.311854 
L 87.020384 263.311854 
L 87.020384 262.789004 
L 87.602435 262.789004 
L 87.602435 262.266154 
L 88.710486 262.266154 
L 88.710486 261.743304 
L 89.2388 261.743304 
L 89.2388 261.220454 
L 91.660956 261.220454 
L 91.660956 260.174754 
L 98.318441 260.174754 
L 98.318441 259.651904 
L 101.651875 259.651904 
L 101.651875 259.129055 
L 105.683799 259.129055 
L 105.683799 258.606205 
L 106.654048 258.606205 
L 106.654048 257.560505 
L 107.392607 257.560505 
L 107.392607 257.037655 
L 110.522857 257.037655 
L 110.522857 255.991955 
L 110.821453 255.991955 
L 110.821453 255.469105 
L 111.25983 255.469105 
L 111.25983 254.946255 
L 112.376896 254.946255 
L 112.376896 254.423405 
L 114.533753 254.423405 
L 114.533753 253.900555 
L 114.652569 253.900555 
L 114.652569 253.377705 
L 117.282234 253.377705 
L 117.282234 252.854855 
L 120.259418 252.854855 
L 120.259418 252.332005 
L 121.810153 252.332005 
L 121.810153 251.809156 
L 123.446518 251.809156 
L 123.446518 251.286306 
L 123.936091 251.286306 
L 123.936091 250.240606 
L 125.889199 250.240606 
L 125.889199 249.717756 
L 126.788296 249.717756 
L 126.788296 249.194906 
L 127.249233 249.194906 
L 127.249233 248.672056 
L 127.972824 248.672056 
L 127.972824 247.626356 
L 128.189469 247.626356 
L 128.189469 247.103506 
L 129.334482 247.103506 
L 129.334482 246.580656 
L 130.12173 246.580656 
L 130.12173 246.057806 
L 131.373455 246.057806 
L 131.373455 245.534956 
L 131.68361 245.534956 
L 131.68361 245.012106 
L 132.329942 245.012106 
L 132.329942 244.489256 
L 133.632469 244.489256 
L 133.632469 243.966407 
L 136.77578 243.966407 
L 136.77578 243.443557 
L 137.258534 243.443557 
L 137.258534 242.920707 
L 138.034133 242.920707 
L 138.034133 242.397857 
L 138.630334 242.397857 
L 138.630334 241.875007 
L 140.98141 241.875007 
L 141.083303 240.829307 
L 141.901612 240.829307 
L 141.901612 240.306457 
L 143.22922 240.306457 
L 143.22922 239.783607 
L 147.823132 239.783607 
L 147.823132 239.260757 
L 149.332732 239.260757 
L 149.332732 238.737907 
L 150.100697 238.737907 
L 150.100697 238.215057 
L 151.092886 238.215057 
L 151.092886 237.692207 
L 152.753722 237.692207 
L 152.753722 236.646507 
L 154.58322 236.646507 
L 154.58322 236.123658 
L 157.097076 236.123658 
L 157.097076 235.077958 
L 161.099226 235.077958 
L 161.099226 234.032258 
L 169.072399 234.032258 
L 169.072399 233.509408 
L 177.093242 233.509408 
L 177.093242 232.986558 
L 177.554715 232.986558 
L 177.554715 232.463708 
L 179.65767 232.463708 
L 179.65767 231.940858 
L 184.04213 231.940858 
L 184.04213 231.418008 
L 188.664791 231.418008 
L 188.664791 230.895158 
L 200.279272 230.895158 
L 200.279272 230.372308 
L 200.956561 230.372308 
L 200.956561 229.849458 
L 202.010204 229.849458 
L 202.010204 229.326608 
L 205.830944 229.326608 
L 205.830944 228.803758 
L 207.233903 228.803758 
L 207.233903 228.280909 
L 210.750365 228.280909 
L 210.750365 227.758059 
L 219.383465 227.758059 
L 219.383465 227.235209 
L 219.557317 227.235209 
L 219.557317 226.712359 
L 229.030867 226.712359 
L 229.030867 226.189509 
L 333.569032 226.189509 
L 333.569032 226.189509 
" style="fill:none;stroke:#0000ff;stroke-linecap:square;stroke-width:1.5;"/>
   </g>
   <g id="line2d_35">
    <defs>
     <path d="M 0 -6 
L -1.347084 -1.854102 
L -5.706339 -1.854102 
L -2.179628 0.708204 
L -3.526712 4.854102 
L -0 2.291796 
L 3.526712 4.854102 
L 2.179628 0.708204 
L 5.706339 -1.854102 
L 1.347084 -1.854102 
z
" id="m8c2e9f9dd5" style="stroke:#0000ff;stroke-linejoin:bevel;stroke-width:1.5;"/>
    </defs>
    <g>
     <use style="fill-opacity:0;stroke:#0000ff;stroke-linejoin:bevel;stroke-width:1.5;" x="70.3769" xlink:href="#m8c2e9f9dd5" y="263.834704"/>
     <use style="fill-opacity:0;stroke:#0000ff;stroke-linejoin:bevel;stroke-width:1.5;" x="157.097076" xlink:href="#m8c2e9f9dd5" y="235.077958"/>
     <use style="fill-opacity:0;stroke:#0000ff;stroke-linejoin:bevel;stroke-width:1.5;" x="219.557317" xlink:href="#m8c2e9f9dd5" y="226.712359"/>
     <use style="fill-opacity:0;stroke:#0000ff;stroke-linejoin:bevel;stroke-width:1.5;" x="229.030867" xlink:href="#m8c2e9f9dd5" y="226.712359"/>
     <use style="fill-opacity:0;stroke:#0000ff;stroke-linejoin:bevel;stroke-width:1.5;" x="229.030867" xlink:href="#m8c2e9f9dd5" y="226.189509"/>
     <use style="fill-opacity:0;stroke:#0000ff;stroke-linejoin:bevel;stroke-width:1.5;" x="333.569032" xlink:href="#m8c2e9f9dd5" y="226.189509"/>
    </g>
   </g>
   <g id="line2d_36">
    <path style="fill:none;stroke:#0000ff;stroke-linecap:square;stroke-width:1.5;"/>
    <g/>
   </g>
   <g id="line2d_37">
    <path clip-path="url(#p3a70e0d823)" d="M 163.877611 234.032258 
" style="fill:none;stroke:#0000ff;stroke-linecap:square;stroke-width:1.5;"/>
    <defs>
     <path d="M -12 12 
L 12 -12 
M -12 -12 
L 12 12 
" id="m7bca26d33c" style="stroke:#0000ff;stroke-width:3;"/>
    </defs>
    <g clip-path="url(#p3a70e0d823)">
     <use style="fill:#0000ff;stroke:#0000ff;stroke-width:3;" x="163.877611" xlink:href="#m7bca26d33c" y="234.032258"/>
    </g>
   </g>
   <g id="line2d_38">
    <defs>
     <path d="M 0 1.5 
C 0.397805 1.5 0.77937 1.341951 1.06066 1.06066 
C 1.341951 0.77937 1.5 0.397805 1.5 0 
C 1.5 -0.397805 1.341951 -0.77937 1.06066 -1.06066 
C 0.77937 -1.341951 0.397805 -1.5 0 -1.5 
C -0.397805 -1.5 -0.77937 -1.341951 -1.06066 -1.06066 
C -1.341951 -0.77937 -1.5 -0.397805 -1.5 0 
C -1.5 0.397805 -1.341951 0.77937 -1.06066 1.06066 
C -0.77937 1.341951 -0.397805 1.5 0 1.5 
z
" id="m520474fad4" style="stroke:#000000;"/>
    </defs>
    <g>
     <use style="stroke:#000000;" x="249.019444" xlink:href="#m520474fad4" y="226.189509"/>
     <use style="stroke:#000000;" x="249.019444" xlink:href="#m520474fad4" y="226.189509"/>
    </g>
   </g>
   <g id="line2d_39">
    <path d="M 17.307281 294.16 
L 17.307281 278.474502 
L 29.207815 278.474502 
L 29.207815 276.905952 
L 41.10835 276.905952 
L 41.10835 275.860252 
L 48.069716 275.860252 
L 48.069716 275.337402 
L 55.031082 275.337402 
L 55.031082 273.768853 
L 56.84 273.768853 
L 56.84 272.723153 
L 58.476365 272.723153 
L 58.476365 271.154603 
L 59.97025 271.154603 
L 59.97025 270.108903 
L 61.344491 270.108903 
L 61.344491 269.586053 
L 63.801366 269.586053 
L 63.801366 269.063203 
L 64.909418 269.063203 
L 64.909418 268.540353 
L 67.859888 268.540353 
L 67.859888 268.017503 
L 82.277434 268.017503 
L 82.277434 267.494653 
L 86.10855 267.494653 
L 86.10855 266.971804 
L 90.249023 266.971804 
L 90.249023 266.448954 
L 97.210389 266.448954 
L 97.210389 265.926104 
L 97.85229 265.926104 
L 97.85229 265.403254 
L 98.318441 265.403254 
L 98.318441 264.880404 
L 99.068291 264.880404 
L 99.068291 264.357554 
L 100.61102 264.357554 
L 100.61102 263.834704 
L 102.513575 263.834704 
L 102.513575 262.789004 
L 104.761072 262.789004 
L 104.761072 262.266154 
L 108.697197 262.266154 
L 108.697197 261.743304 
L 113.489172 261.743304 
L 113.489172 261.220454 
L 115.348698 261.220454 
L 115.348698 260.697604 
L 118.648658 260.697604 
L 118.648658 260.174754 
L 118.788813 260.174754 
L 118.881618 258.083355 
L 120.429408 258.083355 
L 120.429408 257.560505 
L 123.552608 257.560505 
L 123.552608 257.037655 
L 124.744185 257.037655 
L 124.777044 255.991955 
L 127.305989 255.991955 
L 127.362559 254.946255 
L 127.559097 254.946255 
L 127.559097 254.423405 
L 127.780992 254.423405 
L 127.780992 253.900555 
L 128.693301 253.900555 
L 128.693301 253.377705 
L 131.529233 253.377705 
L 131.529233 252.854855 
L 132.308785 252.854855 
L 132.308785 252.332005 
L 135.593583 252.332005 
L 135.593583 251.809156 
L 135.991068 251.809156 
L 135.991068 251.286306 
L 138.892015 251.286306 
L 138.892015 250.763456 
L 141.792294 250.763456 
L 141.792294 250.240606 
L 142.820959 250.240606 
L 142.820959 249.194906 
L 144.904257 249.194906 
L 144.904257 248.672056 
L 147.934258 248.672056 
L 147.934258 248.149206 
L 148.765841 248.149206 
L 148.765841 247.626356 
L 151.685094 247.626356 
L 151.685094 246.580656 
L 152.624535 246.580656 
L 152.624535 246.057806 
L 153.002874 246.057806 
L 153.002874 245.534956 
L 158.630473 245.534956 
L 158.630473 245.012106 
L 159.059209 245.012106 
L 159.059209 244.489256 
L 161.409078 244.489256 
L 161.409078 243.966407 
L 161.793442 243.966407 
L 161.793442 243.443557 
L 168.015679 243.443557 
L 168.015679 242.920707 
L 168.603372 242.920707 
L 168.603372 242.397857 
L 168.914966 242.397857 
L 168.914966 241.875007 
L 177.237629 241.875007 
L 177.237629 241.352157 
L 184.385055 241.352157 
L 184.385055 240.829307 
L 184.913153 240.829307 
L 184.913153 240.306457 
L 187.086178 240.306457 
L 187.086178 239.783607 
L 188.989098 239.783607 
L 188.989098 239.260757 
L 189.21914 239.260757 
L 189.21914 238.737907 
L 189.51812 238.737907 
L 189.51812 238.215057 
L 190.029861 238.215057 
L 190.029861 237.692207 
L 190.580888 237.692207 
L 190.580888 237.169357 
L 191.140939 237.169357 
L 191.209593 236.123658 
L 192.421049 236.123658 
L 192.421049 235.600808 
L 201.299153 235.600808 
L 201.299153 235.077958 
L 204.789852 235.077958 
L 204.789852 234.555108 
L 206.148433 234.555108 
L 206.148433 234.032258 
L 206.316944 234.032258 
L 206.319502 232.986558 
L 212.200599 232.986558 
L 212.200599 232.463708 
L 213.181405 232.463708 
L 213.181405 231.940858 
L 215.093707 231.940858 
L 215.093707 231.418008 
L 215.982134 231.418008 
L 215.982134 230.895158 
L 217.660284 230.895158 
L 217.660284 230.372308 
L 223.276556 230.372308 
L 223.276556 229.849458 
L 229.163656 229.849458 
L 229.163656 229.326608 
L 229.86217 229.326608 
L 229.86217 228.803758 
L 235.229031 228.803758 
L 235.229031 228.280909 
L 235.46222 228.280909 
L 235.46222 227.758059 
L 237.710391 227.758059 
L 237.710391 227.235209 
L 237.975444 227.235209 
L 237.975444 226.712359 
L 249.019444 226.712359 
L 249.019444 226.189509 
L 333.569032 226.189509 
L 333.569032 226.189509 
" style="fill:none;stroke:#000000;stroke-linecap:square;stroke-width:1.5;"/>
   </g>
   <g id="line2d_40">
    <defs>
     <path d="M 0 6 
C 1.591219 6 3.117479 5.367802 4.242641 4.242641 
C 5.367802 3.117479 6 1.591219 6 0 
C 6 -1.591219 5.367802 -3.117479 4.242641 -4.242641 
C 3.117479 -5.367802 1.591219 -6 0 -6 
C -1.591219 -6 -3.117479 -5.367802 -4.242641 -4.242641 
C -5.367802 -3.117479 -6 -1.591219 -6 0 
C -6 1.591219 -5.367802 3.117479 -4.242641 4.242641 
C -3.117479 5.367802 -1.591219 6 0 6 
z
" id="m7f73c22955" style="stroke:#000000;stroke-width:1.5;"/>
    </defs>
    <g>
     <use style="fill-opacity:0;stroke:#000000;stroke-width:1.5;" x="90.249023" xlink:href="#m7f73c22955" y="266.448954"/>
     <use style="fill-opacity:0;stroke:#000000;stroke-width:1.5;" x="161.793442" xlink:href="#m7f73c22955" y="243.966407"/>
     <use style="fill-opacity:0;stroke:#000000;stroke-width:1.5;" x="249.019444" xlink:href="#m7f73c22955" y="226.712359"/>
     <use style="fill-opacity:0;stroke:#000000;stroke-width:1.5;" x="249.019444" xlink:href="#m7f73c22955" y="226.189509"/>
     <use style="fill-opacity:0;stroke:#000000;stroke-width:1.5;" x="249.019444" xlink:href="#m7f73c22955" y="226.189509"/>
     <use style="fill-opacity:0;stroke:#000000;stroke-width:1.5;" x="333.569032" xlink:href="#m7f73c22955" y="226.189509"/>
    </g>
   </g>
   <g id="line2d_41">
    <path style="fill:none;stroke:#000000;stroke-linecap:square;stroke-width:1.5;"/>
    <g/>
   </g>
   <g id="line2d_42">
    <path clip-path="url(#p3a70e0d823)" d="M 163.708458 243.443557 
" style="fill:none;stroke:#000000;stroke-linecap:square;stroke-width:1.5;"/>
    <defs>
     <path d="M -12 12 
L 12 -12 
M -12 -12 
L 12 12 
" id="m9e064f33aa" style="stroke:#000000;stroke-width:3;"/>
    </defs>
    <g clip-path="url(#p3a70e0d823)">
     <use style="stroke:#000000;stroke-width:3;" x="163.708458" xlink:href="#m9e064f33aa" y="243.443557"/>
    </g>
   </g>
   <g id="line2d_43">
    <defs>
     <path d="M 0 1.5 
C 0.397805 1.5 0.77937 1.341951 1.06066 1.06066 
C 1.341951 0.77937 1.5 0.397805 1.5 0 
C 1.5 -0.397805 1.341951 -0.77937 1.06066 -1.06066 
C 0.77937 -1.341951 0.397805 -1.5 0 -1.5 
C -0.397805 -1.5 -0.77937 -1.341951 -1.06066 -1.06066 
C -1.341951 -0.77937 -1.5 -0.397805 -1.5 0 
C -1.5 0.397805 -1.341951 0.77937 -1.06066 1.06066 
C -0.77937 1.341951 -0.397805 1.5 0 1.5 
z
" id="m9406131d3c" style="stroke:#ff0000;"/>
    </defs>
    <g>
     <use style="fill:#ff0000;stroke:#ff0000;" x="242.11316" xlink:href="#m9406131d3c" y="231.418008"/>
     <use style="fill:#ff0000;stroke:#ff0000;" x="242.11316" xlink:href="#m9406131d3c" y="231.418008"/>
    </g>
   </g>
   <g id="line2d_44">
    <path d="M 5.406747 294.16 
L 5.406747 277.428802 
L 17.307281 277.428802 
L 17.307281 276.383102 
L 29.207815 276.383102 
L 29.207815 275.337402 
L 33.038932 275.337402 
L 33.038932 274.814553 
L 36.169182 274.814553 
L 36.169182 274.291703 
L 38.81577 274.291703 
L 38.81577 273.768853 
L 43.130548 273.768853 
L 43.130548 273.246003 
L 54.049738 273.246003 
L 54.049738 272.723153 
L 61.992448 272.723153 
L 61.992448 272.200303 
L 63.801366 272.200303 
L 63.801366 271.677453 
L 68.305857 271.677453 
L 68.305857 271.154603 
L 72.911639 271.154603 
L 72.911639 270.631753 
L 73.245025 270.631753 
L 73.245025 270.108903 
L 74.517373 270.108903 
L 74.517373 269.586053 
L 74.821254 269.586053 
L 74.821254 269.063203 
L 84.125328 269.063203 
L 84.125328 268.540353 
L 84.812173 268.540353 
L 84.812173 268.017503 
L 86.57052 268.017503 
L 86.57052 267.494653 
L 86.871735 267.494653 
L 86.871735 266.971804 
L 89.2388 266.971804 
L 89.2388 266.448954 
L 96.712707 266.448954 
L 96.796662 265.403254 
L 98.086948 265.403254 
L 98.086948 264.880404 
L 99.068291 264.880404 
L 99.068291 264.357554 
L 103.391219 264.357554 
L 103.391219 263.834704 
L 105.07419 263.834704 
L 105.07419 263.311854 
L 106.464335 263.311854 
L 106.464335 262.789004 
L 109.673887 262.789004 
L 109.673887 262.266154 
L 110.932101 262.266154 
L 110.932101 261.743304 
L 111.114944 261.743304 
L 111.114944 261.220454 
L 112.207075 261.220454 
L 112.207075 260.697604 
L 114.770568 260.697604 
L 114.770568 260.174754 
L 117.954631 260.174754 
L 117.954631 259.651904 
L 122.629232 259.651904 
L 122.629232 259.129055 
L 123.124257 259.129055 
L 123.124257 258.606205 
L 123.658047 258.606205 
L 123.658047 258.083355 
L 124.361716 258.083355 
L 124.361716 257.560505 
L 126.597448 257.560505 
L 126.597448 257.037655 
L 129.903941 257.037655 
L 129.903941 256.514805 
L 130.816825 256.514805 
L 130.816825 255.991955 
L 131.672629 255.991955 
L 131.672629 254.946255 
L 133.553893 254.946255 
L 133.553893 254.423405 
L 133.739927 254.423405 
L 133.739927 253.900555 
L 144.12443 253.900555 
L 144.12443 253.377705 
L 149.119354 253.377705 
L 149.119354 252.854855 
L 156.416705 252.854855 
L 156.416705 252.332005 
L 160.476595 252.332005 
L 160.476595 251.809156 
L 163.04827 251.809156 
L 163.04827 251.286306 
L 165.672384 251.286306 
L 165.672384 250.763456 
L 167.411265 250.763456 
L 167.411265 250.240606 
L 167.782629 250.240606 
L 167.782629 249.717756 
L 168.405391 249.717756 
L 168.405391 249.194906 
L 168.836965 249.194906 
L 168.836965 248.672056 
L 168.955086 248.672056 
L 168.955086 248.149206 
L 172.034124 248.149206 
L 172.034124 247.626356 
L 176.099145 247.626356 
L 176.099145 247.103506 
L 176.809492 247.103506 
L 176.809492 246.580656 
L 177.303211 246.580656 
L 177.303211 246.057806 
L 177.578224 246.057806 
L 177.578224 245.534956 
L 179.28163 245.534956 
L 179.28163 245.012106 
L 179.623394 245.012106 
L 179.623394 244.489256 
L 181.633554 244.489256 
L 181.633554 243.966407 
L 182.759137 243.966407 
L 182.759137 243.443557 
L 187.798192 243.443557 
L 187.798192 242.920707 
L 191.4879 242.920707 
L 191.4879 242.397857 
L 196.14405 242.397857 
L 196.14405 241.875007 
L 196.272585 241.875007 
L 196.310297 240.829307 
L 196.87069 240.829307 
L 196.87069 240.306457 
L 197.146355 240.306457 
L 197.146355 239.783607 
L 198.750535 239.783607 
L 198.750535 239.260757 
L 200.962191 239.260757 
L 200.962191 238.737907 
L 206.496338 238.737907 
L 206.496338 238.215057 
L 207.27548 238.215057 
L 207.27548 237.692207 
L 210.820582 237.692207 
L 210.820582 237.169357 
L 211.763329 237.169357 
L 211.763329 236.646507 
L 212.373334 236.646507 
L 212.373334 236.123658 
L 214.289581 236.123658 
L 214.289581 235.600808 
L 218.051192 235.600808 
L 218.051192 235.077958 
L 220.315238 235.077958 
L 220.315238 234.555108 
L 221.54557 234.555108 
L 221.54557 234.032258 
L 223.740422 234.032258 
L 223.740422 233.509408 
L 225.768806 233.509408 
L 225.768806 232.986558 
L 230.499389 232.986558 
L 230.499389 232.463708 
L 239.638593 232.463708 
L 239.638593 231.940858 
L 242.11316 231.940858 
L 242.11316 231.418008 
L 333.569032 231.418008 
L 333.569032 231.418008 
" style="fill:none;stroke:#ff0000;stroke-linecap:square;stroke-width:1.5;"/>
   </g>
   <g id="line2d_45">
    <defs>
     <path d="M -6 6 
L 6 6 
L 6 -6 
L -6 -6 
z
" id="m8dd550428b" style="stroke:#ff0000;stroke-linejoin:miter;stroke-width:1.5;"/>
    </defs>
    <g>
     <use style="fill-opacity:0;stroke:#ff0000;stroke-linejoin:miter;stroke-width:1.5;" x="63.801366" xlink:href="#m8dd550428b" y="271.677453"/>
     <use style="fill-opacity:0;stroke:#ff0000;stroke-linejoin:miter;stroke-width:1.5;" x="163.04827" xlink:href="#m8dd550428b" y="251.286306"/>
     <use style="fill-opacity:0;stroke:#ff0000;stroke-linejoin:miter;stroke-width:1.5;" x="218.051192" xlink:href="#m8dd550428b" y="235.077958"/>
     <use style="fill-opacity:0;stroke:#ff0000;stroke-linejoin:miter;stroke-width:1.5;" x="242.11316" xlink:href="#m8dd550428b" y="231.418008"/>
     <use style="fill-opacity:0;stroke:#ff0000;stroke-linejoin:miter;stroke-width:1.5;" x="242.11316" xlink:href="#m8dd550428b" y="231.418008"/>
     <use style="fill-opacity:0;stroke:#ff0000;stroke-linejoin:miter;stroke-width:1.5;" x="333.569032" xlink:href="#m8dd550428b" y="231.418008"/>
    </g>
   </g>
   <g id="line2d_46">
    <path style="fill:none;stroke:#ff0000;stroke-linecap:square;stroke-width:1.5;"/>
    <g/>
   </g>
   <g id="line2d_47">
    <path clip-path="url(#p3a70e0d823)" d="M 163.623253 251.286306 
" style="fill:none;stroke:#ff0000;stroke-linecap:square;stroke-width:1.5;"/>
    <defs>
     <path d="M -12 12 
L 12 -12 
M -12 -12 
L 12 12 
" id="m0760b4a797" style="stroke:#ff0000;stroke-width:3;"/>
    </defs>
    <g clip-path="url(#p3a70e0d823)">
     <use style="fill:#ff0000;stroke:#ff0000;stroke-width:3;" x="163.623253" xlink:href="#m0760b4a797" y="251.286306"/>
    </g>
   </g>
   <g id="line2d_48">
    <defs>
     <path d="M 0 1.5 
C 0.397805 1.5 0.77937 1.341951 1.06066 1.06066 
C 1.341951 0.77937 1.5 0.397805 1.5 0 
C 1.5 -0.397805 1.341951 -0.77937 1.06066 -1.06066 
C 0.77937 -1.341951 0.397805 -1.5 0 -1.5 
C -0.397805 -1.5 -0.77937 -1.341951 -1.06066 -1.06066 
C -1.341951 -0.77937 -1.5 -0.397805 -1.5 0 
C -1.5 0.397805 -1.341951 0.77937 -1.06066 1.06066 
C -0.77937 1.341951 -0.397805 1.5 0 1.5 
z
" id="mde2b2a608d" style="stroke:#bf00bf;"/>
    </defs>
    <g>
     <use style="fill:#bf00bf;stroke:#bf00bf;" x="133.301004" xlink:href="#mde2b2a608d" y="273.246003"/>
     <use style="fill:#bf00bf;stroke:#bf00bf;" x="133.301004" xlink:href="#mde2b2a608d" y="273.246003"/>
    </g>
   </g>
   <g id="line2d_49">
    <path d="M -1 283.703001 
L 5.406747 283.703001 
L 5.406747 283.180151 
L 12.368113 283.180151 
L 12.368113 282.657301 
L 17.307281 282.657301 
L 17.307281 282.134452 
L 26.915236 282.134452 
L 26.915236 280.565902 
L 31.230014 280.565902 
L 31.230014 279.520202 
L 38.81577 279.520202 
L 38.81577 278.997352 
L 61.344491 278.997352 
L 61.344491 278.474502 
L 96.069604 278.474502 
L 96.069604 277.428802 
L 104.361469 277.428802 
L 104.361469 276.905952 
L 108.122365 276.905952 
L 108.122365 275.860252 
L 111.827447 275.860252 
L 111.827447 275.337402 
L 122.042691 275.337402 
L 122.042691 274.814553 
L 127.085005 274.814553 
L 127.085005 274.291703 
L 129.738766 274.291703 
L 129.738766 273.768853 
L 133.301004 273.768853 
L 133.301004 273.246003 
L 333.569032 273.246003 
" style="fill:none;stroke:#bf00bf;stroke-linecap:square;stroke-width:1.5;"/>
   </g>
   <g id="line2d_50">
    <defs>
     <path d="M -0 8.485281 
L 8.485281 0 
L 0 -8.485281 
L -8.485281 -0 
z
" id="md579d5b6cf" style="stroke:#bf00bf;stroke-linejoin:miter;stroke-width:1.5;"/>
    </defs>
    <g>
     <use style="fill-opacity:0;stroke:#bf00bf;stroke-linejoin:miter;stroke-width:1.5;" x="61.344491" xlink:href="#md579d5b6cf" y="278.474502"/>
     <use style="fill-opacity:0;stroke:#bf00bf;stroke-linejoin:miter;stroke-width:1.5;" x="133.301004" xlink:href="#md579d5b6cf" y="273.768853"/>
     <use style="fill-opacity:0;stroke:#bf00bf;stroke-linejoin:miter;stroke-width:1.5;" x="133.301004" xlink:href="#md579d5b6cf" y="273.246003"/>
     <use style="fill-opacity:0;stroke:#bf00bf;stroke-linejoin:miter;stroke-width:1.5;" x="133.301004" xlink:href="#md579d5b6cf" y="273.246003"/>
     <use style="fill-opacity:0;stroke:#bf00bf;stroke-linejoin:miter;stroke-width:1.5;" x="133.301004" xlink:href="#md579d5b6cf" y="273.246003"/>
     <use style="fill-opacity:0;stroke:#bf00bf;stroke-linejoin:miter;stroke-width:1.5;" x="333.569032" xlink:href="#md579d5b6cf" y="273.246003"/>
    </g>
   </g>
   <g id="line2d_51">
    <path style="fill:none;stroke:#bf00bf;stroke-linecap:square;stroke-width:1.5;"/>
    <g/>
   </g>
   <g id="line2d_52">
    <path clip-path="url(#p3a70e0d823)" d="M 96.372719 277.428802 
" style="fill:none;stroke:#bf00bf;stroke-linecap:square;stroke-width:1.5;"/>
    <defs>
     <path d="M -12 12 
L 12 -12 
M -12 -12 
L 12 12 
" id="m0875d4ccff" style="stroke:#bf00bf;stroke-width:3;"/>
    </defs>
    <g clip-path="url(#p3a70e0d823)">
     <use style="fill:#bf00bf;stroke:#bf00bf;stroke-width:3;" x="96.372719" xlink:href="#m0875d4ccff" y="277.428802"/>
    </g>
   </g>
   <g id="line2d_53">
    <path d="M 333.569032 273.246003 
L 364.009226 288.826931 
" style="fill:none;stroke:#bf00bf;stroke-linecap:square;stroke-width:1.5;"/>
    <g>
     <use style="fill-opacity:0;stroke:#bf00bf;stroke-linejoin:miter;stroke-width:1.5;" x="333.569032" xlink:href="#md579d5b6cf" y="273.246003"/>
     <use style="fill-opacity:0;stroke:#bf00bf;stroke-linejoin:miter;stroke-width:1.5;" x="364.009226" xlink:href="#md579d5b6cf" y="288.826931"/>
    </g>
   </g>
   <g id="line2d_54">
    <path d="M 333.569032 231.418008 
L 364.009226 237.629465 
" style="fill:none;stroke:#ff0000;stroke-linecap:square;stroke-width:1.5;"/>
    <g>
     <use style="fill-opacity:0;stroke:#ff0000;stroke-linejoin:miter;stroke-width:1.5;" x="333.569032" xlink:href="#m8dd550428b" y="231.418008"/>
     <use style="fill-opacity:0;stroke:#ff0000;stroke-linejoin:miter;stroke-width:1.5;" x="364.009226" xlink:href="#m8dd550428b" y="237.629465"/>
    </g>
   </g>
   <g id="line2d_55">
    <path d="M 333.569032 226.189509 
L 364.009226 186.432 
" style="fill:none;stroke:#000000;stroke-linecap:square;stroke-width:1.5;"/>
    <g>
     <use style="fill-opacity:0;stroke:#000000;stroke-width:1.5;" x="333.569032" xlink:href="#m7f73c22955" y="226.189509"/>
     <use style="fill-opacity:0;stroke:#000000;stroke-width:1.5;" x="364.009226" xlink:href="#m7f73c22955" y="186.432"/>
    </g>
   </g>
   <g id="line2d_56">
    <path d="M 333.569032 226.189509 
L 364.009226 135.234535 
" style="fill:none;stroke:#0000ff;stroke-linecap:square;stroke-width:1.5;"/>
    <g>
     <use style="fill-opacity:0;stroke:#0000ff;stroke-linejoin:bevel;stroke-width:1.5;" x="333.569032" xlink:href="#m8c2e9f9dd5" y="226.189509"/>
     <use style="fill-opacity:0;stroke:#0000ff;stroke-linejoin:bevel;stroke-width:1.5;" x="364.009226" xlink:href="#m8c2e9f9dd5" y="135.234535"/>
    </g>
   </g>
   <g id="line2d_57">
    <path d="M 333.569032 194.818513 
L 364.009226 84.037069 
" style="fill:none;stroke:#008000;stroke-linecap:square;stroke-width:1.5;"/>
    <g>
     <use style="fill-opacity:0;stroke:#008000;stroke-linejoin:miter;stroke-width:1.5;" x="333.569032" xlink:href="#ma4349dd2f0" y="194.818513"/>
     <use style="fill-opacity:0;stroke:#008000;stroke-linejoin:miter;stroke-width:1.5;" x="364.009226" xlink:href="#ma4349dd2f0" y="84.037069"/>
    </g>
   </g>
   <g id="line2d_58">
    <path d="M 333.569032 90.248526 
L 364.009226 32.839604 
" style="fill:none;stroke:#00bfbf;stroke-linecap:square;stroke-width:1.5;"/>
    <g>
     <use style="fill-opacity:0;stroke:#00bfbf;stroke-width:1.5;" x="333.569032" xlink:href="#m89fc7d659d" y="90.248526"/>
     <use style="fill-opacity:0;stroke:#00bfbf;stroke-width:1.5;" x="364.009226" xlink:href="#m89fc7d659d" y="32.839604"/>
    </g>
   </g>
   <g id="line2d_59">
    <path d="M 333.569032 294.16 
L 333.569032 27.506535 
" style="fill:none;stroke:#000000;stroke-linecap:square;stroke-width:1.5;"/>
   </g>
   <g id="patch_3">
    <path d="M 56.84 294.16 
L 56.84 24.84 
" style="fill:none;stroke:#000000;stroke-linecap:square;stroke-linejoin:miter;stroke-width:0.8;"/>
   </g>
   <g id="patch_4">
    <path d="M 399.984 294.16 
L 399.984 24.84 
" style="fill:none;stroke:#000000;stroke-linecap:square;stroke-linejoin:miter;stroke-width:0.8;"/>
   </g>
   <g id="patch_5">
    <path d="M 56.84 294.16 
L 399.984 294.16 
" style="fill:none;stroke:#000000;stroke-linecap:square;stroke-linejoin:miter;stroke-width:0.8;"/>
   </g>
   <g id="patch_6">
    <path d="M 56.84 24.84 
L 399.984 24.84 
" style="fill:none;stroke:#000000;stroke-linecap:square;stroke-linejoin:miter;stroke-width:0.8;"/>
   </g>
   <g id="text_14">
    <!-- 40-D -->
    <defs>
     <path d="M 19.671875 64.796875 
L 19.671875 8.109375 
L 31.59375 8.109375 
Q 46.6875 8.109375 53.6875 14.9375 
Q 60.6875 21.78125 60.6875 36.53125 
Q 60.6875 51.171875 53.6875 57.984375 
Q 46.6875 64.796875 31.59375 64.796875 
z
M 9.8125 72.90625 
L 30.078125 72.90625 
Q 51.265625 72.90625 61.171875 64.09375 
Q 71.09375 55.28125 71.09375 36.53125 
Q 71.09375 17.671875 61.125 8.828125 
Q 51.171875 0 30.078125 0 
L 9.8125 0 
z
" id="DejaVuSans-44"/>
    </defs>
    <g transform="translate(369.543806 293.517868)scale(0.17 -0.17)">
     <use xlink:href="#DejaVuSans-34"/>
     <use x="63.623047" xlink:href="#DejaVuSans-30"/>
     <use x="127.246094" xlink:href="#DejaVuSans-2d"/>
     <use x="163.330078" xlink:href="#DejaVuSans-44"/>
    </g>
   </g>
   <g id="text_15">
    <!-- 20-D -->
    <g transform="translate(369.543806 242.320403)scale(0.17 -0.17)">
     <use xlink:href="#DejaVuSans-32"/>
     <use x="63.623047" xlink:href="#DejaVuSans-30"/>
     <use x="127.246094" xlink:href="#DejaVuSans-2d"/>
     <use x="163.330078" xlink:href="#DejaVuSans-44"/>
    </g>
   </g>
   <g id="text_16">
    <!-- 10-D -->
    <g transform="translate(369.543806 191.122937)scale(0.17 -0.17)">
     <use xlink:href="#DejaVuSans-31"/>
     <use x="63.623047" xlink:href="#DejaVuSans-30"/>
     <use x="127.246094" xlink:href="#DejaVuSans-2d"/>
     <use x="163.330078" xlink:href="#DejaVuSans-44"/>
    </g>
   </g>
   <g id="text_17">
    <!-- 5-D -->
    <defs>
     <path d="M 10.796875 72.90625 
L 49.515625 72.90625 
L 49.515625 64.59375 
L 19.828125 64.59375 
L 19.828125 46.734375 
Q 21.96875 47.46875 24.109375 47.828125 
Q 26.265625 48.1875 28.421875 48.1875 
Q 40.625 48.1875 47.75 41.5 
Q 54.890625 34.8125 54.890625 23.390625 
Q 54.890625 11.625 47.5625 5.09375 
Q 40.234375 -1.421875 26.90625 -1.421875 
Q 22.3125 -1.421875 17.546875 -0.640625 
Q 12.796875 0.140625 7.71875 1.703125 
L 7.71875 11.625 
Q 12.109375 9.234375 16.796875 8.0625 
Q 21.484375 6.890625 26.703125 6.890625 
Q 35.15625 6.890625 40.078125 11.328125 
Q 45.015625 15.765625 45.015625 23.390625 
Q 45.015625 31 40.078125 35.4375 
Q 35.15625 39.890625 26.703125 39.890625 
Q 22.75 39.890625 18.8125 39.015625 
Q 14.890625 38.140625 10.796875 36.28125 
z
" id="DejaVuSans-35"/>
    </defs>
    <g transform="translate(369.543806 139.925472)scale(0.17 -0.17)">
     <use xlink:href="#DejaVuSans-35"/>
     <use x="63.623047" xlink:href="#DejaVuSans-2d"/>
     <use x="99.707031" xlink:href="#DejaVuSans-44"/>
    </g>
   </g>
   <g id="text_18">
    <!-- 3-D -->
    <defs>
     <path d="M 40.578125 39.3125 
Q 47.65625 37.796875 51.625 33 
Q 55.609375 28.21875 55.609375 21.1875 
Q 55.609375 10.40625 48.1875 4.484375 
Q 40.765625 -1.421875 27.09375 -1.421875 
Q 22.515625 -1.421875 17.65625 -0.515625 
Q 12.796875 0.390625 7.625 2.203125 
L 7.625 11.71875 
Q 11.71875 9.328125 16.59375 8.109375 
Q 21.484375 6.890625 26.8125 6.890625 
Q 36.078125 6.890625 40.9375 10.546875 
Q 45.796875 14.203125 45.796875 21.1875 
Q 45.796875 27.640625 41.28125 31.265625 
Q 36.765625 34.90625 28.71875 34.90625 
L 20.21875 34.90625 
L 20.21875 43.015625 
L 29.109375 43.015625 
Q 36.375 43.015625 40.234375 45.921875 
Q 44.09375 48.828125 44.09375 54.296875 
Q 44.09375 59.90625 40.109375 62.90625 
Q 36.140625 65.921875 28.71875 65.921875 
Q 24.65625 65.921875 20.015625 65.03125 
Q 15.375 64.15625 9.8125 62.3125 
L 9.8125 71.09375 
Q 15.4375 72.65625 20.34375 73.4375 
Q 25.25 74.21875 29.59375 74.21875 
Q 40.828125 74.21875 47.359375 69.109375 
Q 53.90625 64.015625 53.90625 55.328125 
Q 53.90625 49.265625 50.4375 45.09375 
Q 46.96875 40.921875 40.578125 39.3125 
z
" id="DejaVuSans-33"/>
    </defs>
    <g transform="translate(369.543806 88.728007)scale(0.17 -0.17)">
     <use xlink:href="#DejaVuSans-33"/>
     <use x="63.623047" xlink:href="#DejaVuSans-2d"/>
     <use x="99.707031" xlink:href="#DejaVuSans-44"/>
    </g>
   </g>
   <g id="text_19">
    <!-- 2-D -->
    <g transform="translate(369.543806 37.530541)scale(0.17 -0.17)">
     <use xlink:href="#DejaVuSans-32"/>
     <use x="63.623047" xlink:href="#DejaVuSans-2d"/>
     <use x="99.707031" xlink:href="#DejaVuSans-44"/>
    </g>
   </g>
   <g id="text_20">
    <!-- bbob f19 -->
    <defs>
     <path d="M 48.6875 27.296875 
Q 48.6875 37.203125 44.609375 42.84375 
Q 40.53125 48.484375 33.40625 48.484375 
Q 26.265625 48.484375 22.1875 42.84375 
Q 18.109375 37.203125 18.109375 27.296875 
Q 18.109375 17.390625 22.1875 11.75 
Q 26.265625 6.109375 33.40625 6.109375 
Q 40.53125 6.109375 44.609375 11.75 
Q 48.6875 17.390625 48.6875 27.296875 
z
M 18.109375 46.390625 
Q 20.953125 51.265625 25.265625 53.625 
Q 29.59375 56 35.59375 56 
Q 45.5625 56 51.78125 48.09375 
Q 58.015625 40.1875 58.015625 27.296875 
Q 58.015625 14.40625 51.78125 6.484375 
Q 45.5625 -1.421875 35.59375 -1.421875 
Q 29.59375 -1.421875 25.265625 0.953125 
Q 20.953125 3.328125 18.109375 8.203125 
L 18.109375 0 
L 9.078125 0 
L 9.078125 75.984375 
L 18.109375 75.984375 
z
" id="DejaVuSans-62"/>
     <path d="M 10.984375 1.515625 
L 10.984375 10.5 
Q 14.703125 8.734375 18.5 7.8125 
Q 22.3125 6.890625 25.984375 6.890625 
Q 35.75 6.890625 40.890625 13.453125 
Q 46.046875 20.015625 46.78125 33.40625 
Q 43.953125 29.203125 39.59375 26.953125 
Q 35.25 24.703125 29.984375 24.703125 
Q 19.046875 24.703125 12.671875 31.3125 
Q 6.296875 37.9375 6.296875 49.421875 
Q 6.296875 60.640625 12.9375 67.421875 
Q 19.578125 74.21875 30.609375 74.21875 
Q 43.265625 74.21875 49.921875 64.515625 
Q 56.59375 54.828125 56.59375 36.375 
Q 56.59375 19.140625 48.40625 8.859375 
Q 40.234375 -1.421875 26.421875 -1.421875 
Q 22.703125 -1.421875 18.890625 -0.6875 
Q 15.09375 0.046875 10.984375 1.515625 
z
M 30.609375 32.421875 
Q 37.25 32.421875 41.125 36.953125 
Q 45.015625 41.5 45.015625 49.421875 
Q 45.015625 57.28125 41.125 61.84375 
Q 37.25 66.40625 30.609375 66.40625 
Q 23.96875 66.40625 20.09375 61.84375 
Q 16.21875 57.28125 16.21875 49.421875 
Q 16.21875 41.5 20.09375 36.953125 
Q 23.96875 32.421875 30.609375 32.421875 
z
" id="DejaVuSans-39"/>
    </defs>
    <g transform="translate(60.27144 35.283606)scale(0.102 -0.102)">
     <use xlink:href="#DejaVuSans-62"/>
     <use x="63.476562" xlink:href="#DejaVuSans-62"/>
     <use x="126.953125" xlink:href="#DejaVuSans-6f"/>
     <use x="188.134766" xlink:href="#DejaVuSans-62"/>
     <use x="251.611328" xlink:href="#DejaVuSans-20"/>
     <use x="283.398438" xlink:href="#DejaVuSans-66"/>
     <use x="318.603516" xlink:href="#DejaVuSans-31"/>
     <use x="382.226562" xlink:href="#DejaVuSans-39"/>
    </g>
    <!-- 51 targets: 100..1e-08 -->
    <defs>
     <path d="M 11.71875 12.40625 
L 22.015625 12.40625 
L 22.015625 0 
L 11.71875 0 
z
M 11.71875 51.703125 
L 22.015625 51.703125 
L 22.015625 39.3125 
L 11.71875 39.3125 
z
" id="DejaVuSans-3a"/>
    </defs>
    <g transform="translate(60.27144 46.705375)scale(0.102 -0.102)">
     <use xlink:href="#DejaVuSans-35"/>
     <use x="63.623047" xlink:href="#DejaVuSans-31"/>
     <use x="127.246094" xlink:href="#DejaVuSans-20"/>
     <use x="159.033203" xlink:href="#DejaVuSans-74"/>
     <use x="198.242188" xlink:href="#DejaVuSans-61"/>
     <use x="259.521484" xlink:href="#DejaVuSans-72"/>
     <use x="300.619141" xlink:href="#DejaVuSans-67"/>
     <use x="364.095703" xlink:href="#DejaVuSans-65"/>
     <use x="425.619141" xlink:href="#DejaVuSans-74"/>
     <use x="464.828125" xlink:href="#DejaVuSans-73"/>
     <use x="516.927734" xlink:href="#DejaVuSans-3a"/>
     <use x="550.619141" xlink:href="#DejaVuSans-20"/>
     <use x="582.40625" xlink:href="#DejaVuSans-31"/>
     <use x="646.029297" xlink:href="#DejaVuSans-30"/>
     <use x="709.652344" xlink:href="#DejaVuSans-30"/>
     <use x="773.275391" xlink:href="#DejaVuSans-2e"/>
     <use x="805.0625" xlink:href="#DejaVuSans-2e"/>
     <use x="836.849609" xlink:href="#DejaVuSans-31"/>
     <use x="900.472656" xlink:href="#DejaVuSans-65"/>
     <use x="961.996094" xlink:href="#DejaVuSans-2d"/>
     <use x="998.080078" xlink:href="#DejaVuSans-30"/>
     <use x="1061.703125" xlink:href="#DejaVuSans-38"/>
    </g>
    <!-- 15 instances -->
    <g transform="translate(60.27144 58.127144)scale(0.102 -0.102)">
     <use xlink:href="#DejaVuSans-31"/>
     <use x="63.623047" xlink:href="#DejaVuSans-35"/>
     <use x="127.246094" xlink:href="#DejaVuSans-20"/>
     <use x="159.033203" xlink:href="#DejaVuSans-69"/>
     <use x="186.816406" xlink:href="#DejaVuSans-6e"/>
     <use x="250.195312" xlink:href="#DejaVuSans-73"/>
     <use x="302.294922" xlink:href="#DejaVuSans-74"/>
     <use x="341.503906" xlink:href="#DejaVuSans-61"/>
     <use x="402.783203" xlink:href="#DejaVuSans-6e"/>
     <use x="466.162109" xlink:href="#DejaVuSans-63"/>
     <use x="521.142578" xlink:href="#DejaVuSans-65"/>
     <use x="582.666016" xlink:href="#DejaVuSans-73"/>
    </g>
   </g>
   <g id="text_21">
    <!-- v2.2.1.10 -->
    <g style="fill:#808080;" transform="translate(204.779188 289.387113)scale(0.1 -0.1)">
     <use xlink:href="#DejaVuSans-76"/>
     <use x="59.179688" xlink:href="#DejaVuSans-32"/>
     <use x="122.802734" xlink:href="#DejaVuSans-2e"/>
     <use x="154.589844" xlink:href="#DejaVuSans-32"/>
     <use x="218.212891" xlink:href="#DejaVuSans-2e"/>
     <use x="250" xlink:href="#DejaVuSans-31"/>
     <use x="313.623047" xlink:href="#DejaVuSans-2e"/>
     <use x="345.410156" xlink:href="#DejaVuSans-31"/>
     <use x="409.033203" xlink:href="#DejaVuSans-30"/>
    </g>
   </g>
   <g id="text_22">
    <!-- 19 Griewank-Rosenbrock F8F2 -->
    <defs>
     <path d="M 59.515625 10.40625 
L 59.515625 29.984375 
L 43.40625 29.984375 
L 43.40625 38.09375 
L 69.28125 38.09375 
L 69.28125 6.78125 
Q 63.578125 2.734375 56.6875 0.65625 
Q 49.8125 -1.421875 42 -1.421875 
Q 24.90625 -1.421875 15.25 8.5625 
Q 5.609375 18.5625 5.609375 36.375 
Q 5.609375 54.25 15.25 64.234375 
Q 24.90625 74.21875 42 74.21875 
Q 49.125 74.21875 55.546875 72.453125 
Q 61.96875 70.703125 67.390625 67.28125 
L 67.390625 56.78125 
Q 61.921875 61.421875 55.765625 63.765625 
Q 49.609375 66.109375 42.828125 66.109375 
Q 29.4375 66.109375 22.71875 58.640625 
Q 16.015625 51.171875 16.015625 36.375 
Q 16.015625 21.625 22.71875 14.15625 
Q 29.4375 6.6875 42.828125 6.6875 
Q 48.046875 6.6875 52.140625 7.59375 
Q 56.25 8.5 59.515625 10.40625 
z
" id="DejaVuSans-47"/>
     <path d="M 4.203125 54.6875 
L 13.1875 54.6875 
L 24.421875 12.015625 
L 35.59375 54.6875 
L 46.1875 54.6875 
L 57.421875 12.015625 
L 68.609375 54.6875 
L 77.59375 54.6875 
L 63.28125 0 
L 52.6875 0 
L 40.921875 44.828125 
L 29.109375 0 
L 18.5 0 
z
" id="DejaVuSans-77"/>
     <path d="M 9.078125 75.984375 
L 18.109375 75.984375 
L 18.109375 31.109375 
L 44.921875 54.6875 
L 56.390625 54.6875 
L 27.390625 29.109375 
L 57.625 0 
L 45.90625 0 
L 18.109375 26.703125 
L 18.109375 0 
L 9.078125 0 
z
" id="DejaVuSans-6b"/>
     <path d="M 44.390625 34.1875 
Q 47.5625 33.109375 50.5625 29.59375 
Q 53.5625 26.078125 56.59375 19.921875 
L 66.609375 0 
L 56 0 
L 46.6875 18.703125 
Q 43.0625 26.03125 39.671875 28.421875 
Q 36.28125 30.8125 30.421875 30.8125 
L 19.671875 30.8125 
L 19.671875 0 
L 9.8125 0 
L 9.8125 72.90625 
L 32.078125 72.90625 
Q 44.578125 72.90625 50.734375 67.671875 
Q 56.890625 62.453125 56.890625 51.90625 
Q 56.890625 45.015625 53.6875 40.46875 
Q 50.484375 35.9375 44.390625 34.1875 
z
M 19.671875 64.796875 
L 19.671875 38.921875 
L 32.078125 38.921875 
Q 39.203125 38.921875 42.84375 42.21875 
Q 46.484375 45.515625 46.484375 51.90625 
Q 46.484375 58.296875 42.84375 61.546875 
Q 39.203125 64.796875 32.078125 64.796875 
z
" id="DejaVuSans-52"/>
    </defs>
    <g transform="translate(75.644813 18.84)scale(0.2 -0.2)">
     <use xlink:href="#DejaVuSans-31"/>
     <use x="63.623047" xlink:href="#DejaVuSans-39"/>
     <use x="127.246094" xlink:href="#DejaVuSans-20"/>
     <use x="159.033203" xlink:href="#DejaVuSans-47"/>
     <use x="236.523438" xlink:href="#DejaVuSans-72"/>
     <use x="277.636719" xlink:href="#DejaVuSans-69"/>
     <use x="305.419922" xlink:href="#DejaVuSans-65"/>
     <use x="366.943359" xlink:href="#DejaVuSans-77"/>
     <use x="448.730469" xlink:href="#DejaVuSans-61"/>
     <use x="510.009766" xlink:href="#DejaVuSans-6e"/>
     <use x="573.388672" xlink:href="#DejaVuSans-6b"/>
     <use x="631.298828" xlink:href="#DejaVuSans-2d"/>
     <use x="667.382812" xlink:href="#DejaVuSans-52"/>
     <use x="736.802734" xlink:href="#DejaVuSans-6f"/>
     <use x="797.984375" xlink:href="#DejaVuSans-73"/>
     <use x="850.083984" xlink:href="#DejaVuSans-65"/>
     <use x="911.607422" xlink:href="#DejaVuSans-6e"/>
     <use x="974.986328" xlink:href="#DejaVuSans-62"/>
     <use x="1038.462891" xlink:href="#DejaVuSans-72"/>
     <use x="1079.544922" xlink:href="#DejaVuSans-6f"/>
     <use x="1140.726562" xlink:href="#DejaVuSans-63"/>
     <use x="1195.707031" xlink:href="#DejaVuSans-6b"/>
     <use x="1253.617188" xlink:href="#DejaVuSans-20"/>
     <use x="1285.404297" xlink:href="#DejaVuSans-46"/>
     <use x="1342.923828" xlink:href="#DejaVuSans-38"/>
     <use x="1406.546875" xlink:href="#DejaVuSans-46"/>
     <use x="1464.066406" xlink:href="#DejaVuSans-32"/>
    </g>
   </g>
  </g>
 </g>
 <defs>
  <clipPath id="p3a70e0d823">
   <rect height="269.32" width="343.144" x="56.84" y="24.84"/>
  </clipPath>
 </defs>
</svg>
