<?xml version="1.0" encoding="utf-8" standalone="no"?>
<!DOCTYPE svg PUBLIC "-//W3C//DTD SVG 1.1//EN"
  "http://www.w3.org/Graphics/SVG/1.1/DTD/svg11.dtd">
<!-- Created with matplotlib (http://matplotlib.org/) -->
<svg height="345.6pt" version="1.1" viewBox="0 0 460.8 345.6" width="460.8pt" xmlns="http://www.w3.org/2000/svg" xmlns:xlink="http://www.w3.org/1999/xlink">
 <defs>
  <style type="text/css">
*{stroke-linecap:butt;stroke-linejoin:round;}
  </style>
 </defs>
 <g id="figure_1">
  <g id="patch_1">
   <path d="M 0 345.6 
L 460.8 345.6 
L 460.8 0 
L 0 0 
z
" style="fill:#ffffff;"/>
  </g>
  <g id="axes_1">
   <g id="patch_2">
    <path d="M 56.84 294.16 
L 399.984 294.16 
L 399.984 24.84 
L 56.84 24.84 
z
" style="fill:#ffffff;"/>
   </g>
   <g id="matplotlib.axis_1">
    <g id="xtick_1">
     <g id="line2d_1">
      <path clip-path="url(#pb457865c67)" d="M 56.84 294.16 
L 56.84 24.84 
" style="fill:none;stroke:#b0b0b0;stroke-linecap:square;stroke-width:0.8;"/>
     </g>
     <g id="line2d_2">
      <defs>
       <path d="M 0 0 
L 0 3.5 
" id="m05be4657e2" style="stroke:#000000;stroke-width:0.8;"/>
      </defs>
      <g>
       <use style="stroke:#000000;stroke-width:0.8;" x="56.84" xlink:href="#m05be4657e2" y="294.16"/>
      </g>
     </g>
     <g id="text_1">
      <!-- 0 -->
      <defs>
       <path d="M 31.78125 66.40625 
Q 24.171875 66.40625 20.328125 58.90625 
Q 16.5 51.421875 16.5 36.375 
Q 16.5 21.390625 20.328125 13.890625 
Q 24.171875 6.390625 31.78125 6.390625 
Q 39.453125 6.390625 43.28125 13.890625 
Q 47.125 21.390625 47.125 36.375 
Q 47.125 51.421875 43.28125 58.90625 
Q 39.453125 66.40625 31.78125 66.40625 
z
M 31.78125 74.21875 
Q 44.046875 74.21875 50.515625 64.515625 
Q 56.984375 54.828125 56.984375 36.375 
Q 56.984375 17.96875 50.515625 8.265625 
Q 44.046875 -1.421875 31.78125 -1.421875 
Q 19.53125 -1.421875 13.0625 8.265625 
Q 6.59375 17.96875 6.59375 36.375 
Q 6.59375 54.828125 13.0625 64.515625 
Q 19.53125 74.21875 31.78125 74.21875 
z
" id="DejaVuSans-30"/>
      </defs>
      <g transform="translate(50.4775 316.356875)scale(0.2 -0.2)">
       <use xlink:href="#DejaVuSans-30"/>
      </g>
     </g>
    </g>
    <g id="xtick_2">
     <g id="line2d_3">
      <path clip-path="url(#pb457865c67)" d="M 135.905438 294.16 
L 135.905438 24.84 
" style="fill:none;stroke:#b0b0b0;stroke-linecap:square;stroke-width:0.8;"/>
     </g>
     <g id="line2d_4">
      <g>
       <use style="stroke:#000000;stroke-width:0.8;" x="135.905438" xlink:href="#m05be4657e2" y="294.16"/>
      </g>
     </g>
     <g id="text_2">
      <!-- 2 -->
      <defs>
       <path d="M 19.1875 8.296875 
L 53.609375 8.296875 
L 53.609375 0 
L 7.328125 0 
L 7.328125 8.296875 
Q 12.9375 14.109375 22.625 23.890625 
Q 32.328125 33.6875 34.8125 36.53125 
Q 39.546875 41.84375 41.421875 45.53125 
Q 43.3125 49.21875 43.3125 52.78125 
Q 43.3125 58.59375 39.234375 62.25 
Q 35.15625 65.921875 28.609375 65.921875 
Q 23.96875 65.921875 18.8125 64.3125 
Q 13.671875 62.703125 7.8125 59.421875 
L 7.8125 69.390625 
Q 13.765625 71.78125 18.9375 73 
Q 24.125 74.21875 28.421875 74.21875 
Q 39.75 74.21875 46.484375 68.546875 
Q 53.21875 62.890625 53.21875 53.421875 
Q 53.21875 48.921875 51.53125 44.890625 
Q 49.859375 40.875 45.40625 35.40625 
Q 44.1875 33.984375 37.640625 27.21875 
Q 31.109375 20.453125 19.1875 8.296875 
z
" id="DejaVuSans-32"/>
      </defs>
      <g transform="translate(129.542938 316.356875)scale(0.2 -0.2)">
       <use xlink:href="#DejaVuSans-32"/>
      </g>
     </g>
    </g>
    <g id="xtick_3">
     <g id="line2d_5">
      <path clip-path="url(#pb457865c67)" d="M 214.970876 294.16 
L 214.970876 24.84 
" style="fill:none;stroke:#b0b0b0;stroke-linecap:square;stroke-width:0.8;"/>
     </g>
     <g id="line2d_6">
      <g>
       <use style="stroke:#000000;stroke-width:0.8;" x="214.970876" xlink:href="#m05be4657e2" y="294.16"/>
      </g>
     </g>
     <g id="text_3">
      <!-- 4 -->
      <defs>
       <path d="M 37.796875 64.3125 
L 12.890625 25.390625 
L 37.796875 25.390625 
z
M 35.203125 72.90625 
L 47.609375 72.90625 
L 47.609375 25.390625 
L 58.015625 25.390625 
L 58.015625 17.1875 
L 47.609375 17.1875 
L 47.609375 0 
L 37.796875 0 
L 37.796875 17.1875 
L 4.890625 17.1875 
L 4.890625 26.703125 
z
" id="DejaVuSans-34"/>
      </defs>
      <g transform="translate(208.608376 316.356875)scale(0.2 -0.2)">
       <use xlink:href="#DejaVuSans-34"/>
      </g>
     </g>
    </g>
    <g id="xtick_4">
     <g id="line2d_7">
      <path clip-path="url(#pb457865c67)" d="M 294.036313 294.16 
L 294.036313 24.84 
" style="fill:none;stroke:#b0b0b0;stroke-linecap:square;stroke-width:0.8;"/>
     </g>
     <g id="line2d_8">
      <g>
       <use style="stroke:#000000;stroke-width:0.8;" x="294.036313" xlink:href="#m05be4657e2" y="294.16"/>
      </g>
     </g>
     <g id="text_4">
      <!-- 6 -->
      <defs>
       <path d="M 33.015625 40.375 
Q 26.375 40.375 22.484375 35.828125 
Q 18.609375 31.296875 18.609375 23.390625 
Q 18.609375 15.53125 22.484375 10.953125 
Q 26.375 6.390625 33.015625 6.390625 
Q 39.65625 6.390625 43.53125 10.953125 
Q 47.40625 15.53125 47.40625 23.390625 
Q 47.40625 31.296875 43.53125 35.828125 
Q 39.65625 40.375 33.015625 40.375 
z
M 52.59375 71.296875 
L 52.59375 62.3125 
Q 48.875 64.0625 45.09375 64.984375 
Q 41.3125 65.921875 37.59375 65.921875 
Q 27.828125 65.921875 22.671875 59.328125 
Q 17.53125 52.734375 16.796875 39.40625 
Q 19.671875 43.65625 24.015625 45.921875 
Q 28.375 48.1875 33.59375 48.1875 
Q 44.578125 48.1875 50.953125 41.515625 
Q 57.328125 34.859375 57.328125 23.390625 
Q 57.328125 12.15625 50.6875 5.359375 
Q 44.046875 -1.421875 33.015625 -1.421875 
Q 20.359375 -1.421875 13.671875 8.265625 
Q 6.984375 17.96875 6.984375 36.375 
Q 6.984375 53.65625 15.1875 63.9375 
Q 23.390625 74.21875 37.203125 74.21875 
Q 40.921875 74.21875 44.703125 73.484375 
Q 48.484375 72.75 52.59375 71.296875 
z
" id="DejaVuSans-36"/>
      </defs>
      <g transform="translate(287.673813 316.356875)scale(0.2 -0.2)">
       <use xlink:href="#DejaVuSans-36"/>
      </g>
     </g>
    </g>
    <g id="xtick_5">
     <g id="line2d_9">
      <path clip-path="url(#pb457865c67)" d="M 373.101751 294.16 
L 373.101751 24.84 
" style="fill:none;stroke:#b0b0b0;stroke-linecap:square;stroke-width:0.8;"/>
     </g>
     <g id="line2d_10">
      <g>
       <use style="stroke:#000000;stroke-width:0.8;" x="373.101751" xlink:href="#m05be4657e2" y="294.16"/>
      </g>
     </g>
     <g id="text_5">
      <!-- 8 -->
      <defs>
       <path d="M 31.78125 34.625 
Q 24.75 34.625 20.71875 30.859375 
Q 16.703125 27.09375 16.703125 20.515625 
Q 16.703125 13.921875 20.71875 10.15625 
Q 24.75 6.390625 31.78125 6.390625 
Q 38.8125 6.390625 42.859375 10.171875 
Q 46.921875 13.96875 46.921875 20.515625 
Q 46.921875 27.09375 42.890625 30.859375 
Q 38.875 34.625 31.78125 34.625 
z
M 21.921875 38.8125 
Q 15.578125 40.375 12.03125 44.71875 
Q 8.5 49.078125 8.5 55.328125 
Q 8.5 64.0625 14.71875 69.140625 
Q 20.953125 74.21875 31.78125 74.21875 
Q 42.671875 74.21875 48.875 69.140625 
Q 55.078125 64.0625 55.078125 55.328125 
Q 55.078125 49.078125 51.53125 44.71875 
Q 48 40.375 41.703125 38.8125 
Q 48.828125 37.15625 52.796875 32.3125 
Q 56.78125 27.484375 56.78125 20.515625 
Q 56.78125 9.90625 50.3125 4.234375 
Q 43.84375 -1.421875 31.78125 -1.421875 
Q 19.734375 -1.421875 13.25 4.234375 
Q 6.78125 9.90625 6.78125 20.515625 
Q 6.78125 27.484375 10.78125 32.3125 
Q 14.796875 37.15625 21.921875 38.8125 
z
M 18.3125 54.390625 
Q 18.3125 48.734375 21.84375 45.5625 
Q 25.390625 42.390625 31.78125 42.390625 
Q 38.140625 42.390625 41.71875 45.5625 
Q 45.3125 48.734375 45.3125 54.390625 
Q 45.3125 60.0625 41.71875 63.234375 
Q 38.140625 66.40625 31.78125 66.40625 
Q 25.390625 66.40625 21.84375 63.234375 
Q 18.3125 60.0625 18.3125 54.390625 
z
" id="DejaVuSans-38"/>
      </defs>
      <g transform="translate(366.739251 316.356875)scale(0.2 -0.2)">
       <use xlink:href="#DejaVuSans-38"/>
      </g>
     </g>
    </g>
    <g id="text_6">
     <!-- log10(# f-evals / dimension) -->
     <defs>
      <path d="M 9.421875 75.984375 
L 18.40625 75.984375 
L 18.40625 0 
L 9.421875 0 
z
" id="DejaVuSans-6c"/>
      <path d="M 30.609375 48.390625 
Q 23.390625 48.390625 19.1875 42.75 
Q 14.984375 37.109375 14.984375 27.296875 
Q 14.984375 17.484375 19.15625 11.84375 
Q 23.34375 6.203125 30.609375 6.203125 
Q 37.796875 6.203125 41.984375 11.859375 
Q 46.1875 17.53125 46.1875 27.296875 
Q 46.1875 37.015625 41.984375 42.703125 
Q 37.796875 48.390625 30.609375 48.390625 
z
M 30.609375 56 
Q 42.328125 56 49.015625 48.375 
Q 55.71875 40.765625 55.71875 27.296875 
Q 55.71875 13.875 49.015625 6.21875 
Q 42.328125 -1.421875 30.609375 -1.421875 
Q 18.84375 -1.421875 12.171875 6.21875 
Q 5.515625 13.875 5.515625 27.296875 
Q 5.515625 40.765625 12.171875 48.375 
Q 18.84375 56 30.609375 56 
z
" id="DejaVuSans-6f"/>
      <path d="M 45.40625 27.984375 
Q 45.40625 37.75 41.375 43.109375 
Q 37.359375 48.484375 30.078125 48.484375 
Q 22.859375 48.484375 18.828125 43.109375 
Q 14.796875 37.75 14.796875 27.984375 
Q 14.796875 18.265625 18.828125 12.890625 
Q 22.859375 7.515625 30.078125 7.515625 
Q 37.359375 7.515625 41.375 12.890625 
Q 45.40625 18.265625 45.40625 27.984375 
z
M 54.390625 6.78125 
Q 54.390625 -7.171875 48.1875 -13.984375 
Q 42 -20.796875 29.203125 -20.796875 
Q 24.46875 -20.796875 20.265625 -20.09375 
Q 16.0625 -19.390625 12.109375 -17.921875 
L 12.109375 -9.1875 
Q 16.0625 -11.328125 19.921875 -12.34375 
Q 23.78125 -13.375 27.78125 -13.375 
Q 36.625 -13.375 41.015625 -8.765625 
Q 45.40625 -4.15625 45.40625 5.171875 
L 45.40625 9.625 
Q 42.625 4.78125 38.28125 2.390625 
Q 33.9375 0 27.875 0 
Q 17.828125 0 11.671875 7.65625 
Q 5.515625 15.328125 5.515625 27.984375 
Q 5.515625 40.671875 11.671875 48.328125 
Q 17.828125 56 27.875 56 
Q 33.9375 56 38.28125 53.609375 
Q 42.625 51.21875 45.40625 46.390625 
L 45.40625 54.6875 
L 54.390625 54.6875 
z
" id="DejaVuSans-67"/>
      <path d="M 12.40625 8.296875 
L 28.515625 8.296875 
L 28.515625 63.921875 
L 10.984375 60.40625 
L 10.984375 69.390625 
L 28.421875 72.90625 
L 38.28125 72.90625 
L 38.28125 8.296875 
L 54.390625 8.296875 
L 54.390625 0 
L 12.40625 0 
z
" id="DejaVuSans-31"/>
      <path d="M 31 75.875 
Q 24.46875 64.65625 21.28125 53.65625 
Q 18.109375 42.671875 18.109375 31.390625 
Q 18.109375 20.125 21.3125 9.0625 
Q 24.515625 -2 31 -13.1875 
L 23.1875 -13.1875 
Q 15.875 -1.703125 12.234375 9.375 
Q 8.59375 20.453125 8.59375 31.390625 
Q 8.59375 42.28125 12.203125 53.3125 
Q 15.828125 64.359375 23.1875 75.875 
z
" id="DejaVuSans-28"/>
      <path d="M 51.125 44 
L 36.921875 44 
L 32.8125 27.6875 
L 47.125 27.6875 
z
M 43.796875 71.78125 
L 38.71875 51.515625 
L 52.984375 51.515625 
L 58.109375 71.78125 
L 65.921875 71.78125 
L 60.890625 51.515625 
L 76.125 51.515625 
L 76.125 44 
L 58.984375 44 
L 54.984375 27.6875 
L 70.515625 27.6875 
L 70.515625 20.21875 
L 53.078125 20.21875 
L 48 0 
L 40.1875 0 
L 45.21875 20.21875 
L 30.90625 20.21875 
L 25.875 0 
L 18.015625 0 
L 23.09375 20.21875 
L 7.71875 20.21875 
L 7.71875 27.6875 
L 24.90625 27.6875 
L 29 44 
L 13.28125 44 
L 13.28125 51.515625 
L 30.90625 51.515625 
L 35.890625 71.78125 
z
" id="DejaVuSans-23"/>
      <path id="DejaVuSans-20"/>
      <path d="M 37.109375 75.984375 
L 37.109375 68.5 
L 28.515625 68.5 
Q 23.6875 68.5 21.796875 66.546875 
Q 19.921875 64.59375 19.921875 59.515625 
L 19.921875 54.6875 
L 34.71875 54.6875 
L 34.71875 47.703125 
L 19.921875 47.703125 
L 19.921875 0 
L 10.890625 0 
L 10.890625 47.703125 
L 2.296875 47.703125 
L 2.296875 54.6875 
L 10.890625 54.6875 
L 10.890625 58.5 
Q 10.890625 67.625 15.140625 71.796875 
Q 19.390625 75.984375 28.609375 75.984375 
z
" id="DejaVuSans-66"/>
      <path d="M 4.890625 31.390625 
L 31.203125 31.390625 
L 31.203125 23.390625 
L 4.890625 23.390625 
z
" id="DejaVuSans-2d"/>
      <path d="M 56.203125 29.59375 
L 56.203125 25.203125 
L 14.890625 25.203125 
Q 15.484375 15.921875 20.484375 11.0625 
Q 25.484375 6.203125 34.421875 6.203125 
Q 39.59375 6.203125 44.453125 7.46875 
Q 49.3125 8.734375 54.109375 11.28125 
L 54.109375 2.78125 
Q 49.265625 0.734375 44.1875 -0.34375 
Q 39.109375 -1.421875 33.890625 -1.421875 
Q 20.796875 -1.421875 13.15625 6.1875 
Q 5.515625 13.8125 5.515625 26.8125 
Q 5.515625 40.234375 12.765625 48.109375 
Q 20.015625 56 32.328125 56 
Q 43.359375 56 49.78125 48.890625 
Q 56.203125 41.796875 56.203125 29.59375 
z
M 47.21875 32.234375 
Q 47.125 39.59375 43.09375 43.984375 
Q 39.0625 48.390625 32.421875 48.390625 
Q 24.90625 48.390625 20.390625 44.140625 
Q 15.875 39.890625 15.1875 32.171875 
z
" id="DejaVuSans-65"/>
      <path d="M 2.984375 54.6875 
L 12.5 54.6875 
L 29.59375 8.796875 
L 46.6875 54.6875 
L 56.203125 54.6875 
L 35.6875 0 
L 23.484375 0 
z
" id="DejaVuSans-76"/>
      <path d="M 34.28125 27.484375 
Q 23.390625 27.484375 19.1875 25 
Q 14.984375 22.515625 14.984375 16.5 
Q 14.984375 11.71875 18.140625 8.90625 
Q 21.296875 6.109375 26.703125 6.109375 
Q 34.1875 6.109375 38.703125 11.40625 
Q 43.21875 16.703125 43.21875 25.484375 
L 43.21875 27.484375 
z
M 52.203125 31.203125 
L 52.203125 0 
L 43.21875 0 
L 43.21875 8.296875 
Q 40.140625 3.328125 35.546875 0.953125 
Q 30.953125 -1.421875 24.3125 -1.421875 
Q 15.921875 -1.421875 10.953125 3.296875 
Q 6 8.015625 6 15.921875 
Q 6 25.140625 12.171875 29.828125 
Q 18.359375 34.515625 30.609375 34.515625 
L 43.21875 34.515625 
L 43.21875 35.40625 
Q 43.21875 41.609375 39.140625 45 
Q 35.0625 48.390625 27.6875 48.390625 
Q 23 48.390625 18.546875 47.265625 
Q 14.109375 46.140625 10.015625 43.890625 
L 10.015625 52.203125 
Q 14.9375 54.109375 19.578125 55.046875 
Q 24.21875 56 28.609375 56 
Q 40.484375 56 46.34375 49.84375 
Q 52.203125 43.703125 52.203125 31.203125 
z
" id="DejaVuSans-61"/>
      <path d="M 44.28125 53.078125 
L 44.28125 44.578125 
Q 40.484375 46.53125 36.375 47.5 
Q 32.28125 48.484375 27.875 48.484375 
Q 21.1875 48.484375 17.84375 46.4375 
Q 14.5 44.390625 14.5 40.28125 
Q 14.5 37.15625 16.890625 35.375 
Q 19.28125 33.59375 26.515625 31.984375 
L 29.59375 31.296875 
Q 39.15625 29.25 43.1875 25.515625 
Q 47.21875 21.78125 47.21875 15.09375 
Q 47.21875 7.46875 41.1875 3.015625 
Q 35.15625 -1.421875 24.609375 -1.421875 
Q 20.21875 -1.421875 15.453125 -0.5625 
Q 10.6875 0.296875 5.421875 2 
L 5.421875 11.28125 
Q 10.40625 8.6875 15.234375 7.390625 
Q 20.0625 6.109375 24.8125 6.109375 
Q 31.15625 6.109375 34.5625 8.28125 
Q 37.984375 10.453125 37.984375 14.40625 
Q 37.984375 18.0625 35.515625 20.015625 
Q 33.0625 21.96875 24.703125 23.78125 
L 21.578125 24.515625 
Q 13.234375 26.265625 9.515625 29.90625 
Q 5.8125 33.546875 5.8125 39.890625 
Q 5.8125 47.609375 11.28125 51.796875 
Q 16.75 56 26.8125 56 
Q 31.78125 56 36.171875 55.265625 
Q 40.578125 54.546875 44.28125 53.078125 
z
" id="DejaVuSans-73"/>
      <path d="M 25.390625 72.90625 
L 33.6875 72.90625 
L 8.296875 -9.28125 
L 0 -9.28125 
z
" id="DejaVuSans-2f"/>
      <path d="M 45.40625 46.390625 
L 45.40625 75.984375 
L 54.390625 75.984375 
L 54.390625 0 
L 45.40625 0 
L 45.40625 8.203125 
Q 42.578125 3.328125 38.25 0.953125 
Q 33.9375 -1.421875 27.875 -1.421875 
Q 17.96875 -1.421875 11.734375 6.484375 
Q 5.515625 14.40625 5.515625 27.296875 
Q 5.515625 40.1875 11.734375 48.09375 
Q 17.96875 56 27.875 56 
Q 33.9375 56 38.25 53.625 
Q 42.578125 51.265625 45.40625 46.390625 
z
M 14.796875 27.296875 
Q 14.796875 17.390625 18.875 11.75 
Q 22.953125 6.109375 30.078125 6.109375 
Q 37.203125 6.109375 41.296875 11.75 
Q 45.40625 17.390625 45.40625 27.296875 
Q 45.40625 37.203125 41.296875 42.84375 
Q 37.203125 48.484375 30.078125 48.484375 
Q 22.953125 48.484375 18.875 42.84375 
Q 14.796875 37.203125 14.796875 27.296875 
z
" id="DejaVuSans-64"/>
      <path d="M 9.421875 54.6875 
L 18.40625 54.6875 
L 18.40625 0 
L 9.421875 0 
z
M 9.421875 75.984375 
L 18.40625 75.984375 
L 18.40625 64.59375 
L 9.421875 64.59375 
z
" id="DejaVuSans-69"/>
      <path d="M 52 44.1875 
Q 55.375 50.25 60.0625 53.125 
Q 64.75 56 71.09375 56 
Q 79.640625 56 84.28125 50.015625 
Q 88.921875 44.046875 88.921875 33.015625 
L 88.921875 0 
L 79.890625 0 
L 79.890625 32.71875 
Q 79.890625 40.578125 77.09375 44.375 
Q 74.3125 48.1875 68.609375 48.1875 
Q 61.625 48.1875 57.5625 43.546875 
Q 53.515625 38.921875 53.515625 30.90625 
L 53.515625 0 
L 44.484375 0 
L 44.484375 32.71875 
Q 44.484375 40.625 41.703125 44.40625 
Q 38.921875 48.1875 33.109375 48.1875 
Q 26.21875 48.1875 22.15625 43.53125 
Q 18.109375 38.875 18.109375 30.90625 
L 18.109375 0 
L 9.078125 0 
L 9.078125 54.6875 
L 18.109375 54.6875 
L 18.109375 46.1875 
Q 21.1875 51.21875 25.484375 53.609375 
Q 29.78125 56 35.6875 56 
Q 41.65625 56 45.828125 52.96875 
Q 50 49.953125 52 44.1875 
z
" id="DejaVuSans-6d"/>
      <path d="M 54.890625 33.015625 
L 54.890625 0 
L 45.90625 0 
L 45.90625 32.71875 
Q 45.90625 40.484375 42.875 44.328125 
Q 39.84375 48.1875 33.796875 48.1875 
Q 26.515625 48.1875 22.3125 43.546875 
Q 18.109375 38.921875 18.109375 30.90625 
L 18.109375 0 
L 9.078125 0 
L 9.078125 54.6875 
L 18.109375 54.6875 
L 18.109375 46.1875 
Q 21.34375 51.125 25.703125 53.5625 
Q 30.078125 56 35.796875 56 
Q 45.21875 56 50.046875 50.171875 
Q 54.890625 44.34375 54.890625 33.015625 
z
" id="DejaVuSans-6e"/>
      <path d="M 8.015625 75.875 
L 15.828125 75.875 
Q 23.140625 64.359375 26.78125 53.3125 
Q 30.421875 42.28125 30.421875 31.390625 
Q 30.421875 20.453125 26.78125 9.375 
Q 23.140625 -1.703125 15.828125 -13.1875 
L 8.015625 -13.1875 
Q 14.5 -2 17.703125 9.0625 
Q 20.90625 20.125 20.90625 31.390625 
Q 20.90625 42.671875 17.703125 53.65625 
Q 14.5 64.65625 8.015625 75.875 
z
" id="DejaVuSans-29"/>
     </defs>
     <g transform="translate(107.571219 337.433594)scale(0.17 -0.17)">
      <use xlink:href="#DejaVuSans-6c"/>
      <use x="27.783203" xlink:href="#DejaVuSans-6f"/>
      <use x="88.964844" xlink:href="#DejaVuSans-67"/>
      <use x="152.441406" xlink:href="#DejaVuSans-31"/>
      <use x="216.064453" xlink:href="#DejaVuSans-30"/>
      <use x="279.6875" xlink:href="#DejaVuSans-28"/>
      <use x="318.701172" xlink:href="#DejaVuSans-23"/>
      <use x="402.490234" xlink:href="#DejaVuSans-20"/>
      <use x="434.277344" xlink:href="#DejaVuSans-66"/>
      <use x="469.404297" xlink:href="#DejaVuSans-2d"/>
      <use x="505.488281" xlink:href="#DejaVuSans-65"/>
      <use x="567.011719" xlink:href="#DejaVuSans-76"/>
      <use x="626.191406" xlink:href="#DejaVuSans-61"/>
      <use x="687.470703" xlink:href="#DejaVuSans-6c"/>
      <use x="715.253906" xlink:href="#DejaVuSans-73"/>
      <use x="767.353516" xlink:href="#DejaVuSans-20"/>
      <use x="799.140625" xlink:href="#DejaVuSans-2f"/>
      <use x="832.832031" xlink:href="#DejaVuSans-20"/>
      <use x="864.619141" xlink:href="#DejaVuSans-64"/>
      <use x="928.095703" xlink:href="#DejaVuSans-69"/>
      <use x="955.878906" xlink:href="#DejaVuSans-6d"/>
      <use x="1053.291016" xlink:href="#DejaVuSans-65"/>
      <use x="1114.814453" xlink:href="#DejaVuSans-6e"/>
      <use x="1178.193359" xlink:href="#DejaVuSans-73"/>
      <use x="1230.292969" xlink:href="#DejaVuSans-69"/>
      <use x="1258.076172" xlink:href="#DejaVuSans-6f"/>
      <use x="1319.257812" xlink:href="#DejaVuSans-6e"/>
      <use x="1382.636719" xlink:href="#DejaVuSans-29"/>
     </g>
    </g>
   </g>
   <g id="matplotlib.axis_2">
    <g id="ytick_1">
     <g id="line2d_11">
      <path clip-path="url(#pb457865c67)" d="M 56.84 294.16 
L 399.984 294.16 
" style="fill:none;stroke:#b0b0b0;stroke-linecap:square;stroke-width:0.8;"/>
     </g>
     <g id="line2d_12">
      <defs>
       <path d="M 0 0 
L -3.5 0 
" id="md9ab4a2fdc" style="stroke:#000000;stroke-width:0.8;"/>
      </defs>
      <g>
       <use style="stroke:#000000;stroke-width:0.8;" x="56.84" xlink:href="#md9ab4a2fdc" y="294.16"/>
      </g>
     </g>
     <g id="text_7">
      <!-- 0.0 -->
      <defs>
       <path d="M 10.6875 12.40625 
L 21 12.40625 
L 21 0 
L 10.6875 0 
z
" id="DejaVuSans-2e"/>
      </defs>
      <g transform="translate(24.395 300.23875)scale(0.16 -0.16)">
       <use xlink:href="#DejaVuSans-30"/>
       <use x="63.623047" xlink:href="#DejaVuSans-2e"/>
       <use x="95.410156" xlink:href="#DejaVuSans-30"/>
      </g>
     </g>
    </g>
    <g id="ytick_2">
     <g id="line2d_13">
      <path clip-path="url(#pb457865c67)" d="M 56.84 240.829307 
L 399.984 240.829307 
" style="fill:none;stroke:#b0b0b0;stroke-linecap:square;stroke-width:0.8;"/>
     </g>
     <g id="line2d_14">
      <g>
       <use style="stroke:#000000;stroke-width:0.8;" x="56.84" xlink:href="#md9ab4a2fdc" y="240.829307"/>
      </g>
     </g>
     <g id="text_8">
      <!-- 0.2 -->
      <g transform="translate(24.395 246.908057)scale(0.16 -0.16)">
       <use xlink:href="#DejaVuSans-30"/>
       <use x="63.623047" xlink:href="#DejaVuSans-2e"/>
       <use x="95.410156" xlink:href="#DejaVuSans-32"/>
      </g>
     </g>
    </g>
    <g id="ytick_3">
     <g id="line2d_15">
      <path clip-path="url(#pb457865c67)" d="M 56.84 187.498614 
L 399.984 187.498614 
" style="fill:none;stroke:#b0b0b0;stroke-linecap:square;stroke-width:0.8;"/>
     </g>
     <g id="line2d_16">
      <g>
       <use style="stroke:#000000;stroke-width:0.8;" x="56.84" xlink:href="#md9ab4a2fdc" y="187.498614"/>
      </g>
     </g>
     <g id="text_9">
      <!-- 0.4 -->
      <g transform="translate(24.395 193.577364)scale(0.16 -0.16)">
       <use xlink:href="#DejaVuSans-30"/>
       <use x="63.623047" xlink:href="#DejaVuSans-2e"/>
       <use x="95.410156" xlink:href="#DejaVuSans-34"/>
      </g>
     </g>
    </g>
    <g id="ytick_4">
     <g id="line2d_17">
      <path clip-path="url(#pb457865c67)" d="M 56.84 134.167921 
L 399.984 134.167921 
" style="fill:none;stroke:#b0b0b0;stroke-linecap:square;stroke-width:0.8;"/>
     </g>
     <g id="line2d_18">
      <g>
       <use style="stroke:#000000;stroke-width:0.8;" x="56.84" xlink:href="#md9ab4a2fdc" y="134.167921"/>
      </g>
     </g>
     <g id="text_10">
      <!-- 0.6 -->
      <g transform="translate(24.395 140.246671)scale(0.16 -0.16)">
       <use xlink:href="#DejaVuSans-30"/>
       <use x="63.623047" xlink:href="#DejaVuSans-2e"/>
       <use x="95.410156" xlink:href="#DejaVuSans-36"/>
      </g>
     </g>
    </g>
    <g id="ytick_5">
     <g id="line2d_19">
      <path clip-path="url(#pb457865c67)" d="M 56.84 80.837228 
L 399.984 80.837228 
" style="fill:none;stroke:#b0b0b0;stroke-linecap:square;stroke-width:0.8;"/>
     </g>
     <g id="line2d_20">
      <g>
       <use style="stroke:#000000;stroke-width:0.8;" x="56.84" xlink:href="#md9ab4a2fdc" y="80.837228"/>
      </g>
     </g>
     <g id="text_11">
      <!-- 0.8 -->
      <g transform="translate(24.395 86.915978)scale(0.16 -0.16)">
       <use xlink:href="#DejaVuSans-30"/>
       <use x="63.623047" xlink:href="#DejaVuSans-2e"/>
       <use x="95.410156" xlink:href="#DejaVuSans-38"/>
      </g>
     </g>
    </g>
    <g id="ytick_6">
     <g id="line2d_21">
      <path clip-path="url(#pb457865c67)" d="M 56.84 27.506535 
L 399.984 27.506535 
" style="fill:none;stroke:#b0b0b0;stroke-linecap:square;stroke-width:0.8;"/>
     </g>
     <g id="line2d_22">
      <g>
       <use style="stroke:#000000;stroke-width:0.8;" x="56.84" xlink:href="#md9ab4a2fdc" y="27.506535"/>
      </g>
     </g>
     <g id="text_12">
      <!-- 1.0 -->
      <g transform="translate(24.395 33.585285)scale(0.16 -0.16)">
       <use xlink:href="#DejaVuSans-31"/>
       <use x="63.623047" xlink:href="#DejaVuSans-2e"/>
       <use x="95.410156" xlink:href="#DejaVuSans-30"/>
      </g>
     </g>
    </g>
    <g id="text_13">
     <!-- Fraction of function,target pairs -->
     <defs>
      <path d="M 9.8125 72.90625 
L 51.703125 72.90625 
L 51.703125 64.59375 
L 19.671875 64.59375 
L 19.671875 43.109375 
L 48.578125 43.109375 
L 48.578125 34.8125 
L 19.671875 34.8125 
L 19.671875 0 
L 9.8125 0 
z
" id="DejaVuSans-46"/>
      <path d="M 41.109375 46.296875 
Q 39.59375 47.171875 37.8125 47.578125 
Q 36.03125 48 33.890625 48 
Q 26.265625 48 22.1875 43.046875 
Q 18.109375 38.09375 18.109375 28.8125 
L 18.109375 0 
L 9.078125 0 
L 9.078125 54.6875 
L 18.109375 54.6875 
L 18.109375 46.1875 
Q 20.953125 51.171875 25.484375 53.578125 
Q 30.03125 56 36.53125 56 
Q 37.453125 56 38.578125 55.875 
Q 39.703125 55.765625 41.0625 55.515625 
z
" id="DejaVuSans-72"/>
      <path d="M 48.78125 52.59375 
L 48.78125 44.1875 
Q 44.96875 46.296875 41.140625 47.34375 
Q 37.3125 48.390625 33.40625 48.390625 
Q 24.65625 48.390625 19.8125 42.84375 
Q 14.984375 37.3125 14.984375 27.296875 
Q 14.984375 17.28125 19.8125 11.734375 
Q 24.65625 6.203125 33.40625 6.203125 
Q 37.3125 6.203125 41.140625 7.25 
Q 44.96875 8.296875 48.78125 10.40625 
L 48.78125 2.09375 
Q 45.015625 0.34375 40.984375 -0.53125 
Q 36.96875 -1.421875 32.421875 -1.421875 
Q 20.0625 -1.421875 12.78125 6.34375 
Q 5.515625 14.109375 5.515625 27.296875 
Q 5.515625 40.671875 12.859375 48.328125 
Q 20.21875 56 33.015625 56 
Q 37.15625 56 41.109375 55.140625 
Q 45.0625 54.296875 48.78125 52.59375 
z
" id="DejaVuSans-63"/>
      <path d="M 18.3125 70.21875 
L 18.3125 54.6875 
L 36.8125 54.6875 
L 36.8125 47.703125 
L 18.3125 47.703125 
L 18.3125 18.015625 
Q 18.3125 11.328125 20.140625 9.421875 
Q 21.96875 7.515625 27.59375 7.515625 
L 36.8125 7.515625 
L 36.8125 0 
L 27.59375 0 
Q 17.1875 0 13.234375 3.875 
Q 9.28125 7.765625 9.28125 18.015625 
L 9.28125 47.703125 
L 2.6875 47.703125 
L 2.6875 54.6875 
L 9.28125 54.6875 
L 9.28125 70.21875 
z
" id="DejaVuSans-74"/>
      <path d="M 8.5 21.578125 
L 8.5 54.6875 
L 17.484375 54.6875 
L 17.484375 21.921875 
Q 17.484375 14.15625 20.5 10.265625 
Q 23.53125 6.390625 29.59375 6.390625 
Q 36.859375 6.390625 41.078125 11.03125 
Q 45.3125 15.671875 45.3125 23.6875 
L 45.3125 54.6875 
L 54.296875 54.6875 
L 54.296875 0 
L 45.3125 0 
L 45.3125 8.40625 
Q 42.046875 3.421875 37.71875 1 
Q 33.40625 -1.421875 27.6875 -1.421875 
Q 18.265625 -1.421875 13.375 4.4375 
Q 8.5 10.296875 8.5 21.578125 
z
M 31.109375 56 
z
" id="DejaVuSans-75"/>
      <path d="M 11.71875 12.40625 
L 22.015625 12.40625 
L 22.015625 4 
L 14.015625 -11.625 
L 7.71875 -11.625 
L 11.71875 4 
z
" id="DejaVuSans-2c"/>
      <path d="M 18.109375 8.203125 
L 18.109375 -20.796875 
L 9.078125 -20.796875 
L 9.078125 54.6875 
L 18.109375 54.6875 
L 18.109375 46.390625 
Q 20.953125 51.265625 25.265625 53.625 
Q 29.59375 56 35.59375 56 
Q 45.5625 56 51.78125 48.09375 
Q 58.015625 40.1875 58.015625 27.296875 
Q 58.015625 14.40625 51.78125 6.484375 
Q 45.5625 -1.421875 35.59375 -1.421875 
Q 29.59375 -1.421875 25.265625 0.953125 
Q 20.953125 3.328125 18.109375 8.203125 
z
M 48.6875 27.296875 
Q 48.6875 37.203125 44.609375 42.84375 
Q 40.53125 48.484375 33.40625 48.484375 
Q 26.265625 48.484375 22.1875 42.84375 
Q 18.109375 37.203125 18.109375 27.296875 
Q 18.109375 17.390625 22.1875 11.75 
Q 26.265625 6.109375 33.40625 6.109375 
Q 40.53125 6.109375 44.609375 11.75 
Q 48.6875 17.390625 48.6875 27.296875 
z
" id="DejaVuSans-70"/>
     </defs>
     <g transform="translate(16.859531 294.639375)rotate(-90)scale(0.17 -0.17)">
      <use xlink:href="#DejaVuSans-46"/>
      <use x="57.410156" xlink:href="#DejaVuSans-72"/>
      <use x="98.523438" xlink:href="#DejaVuSans-61"/>
      <use x="159.802734" xlink:href="#DejaVuSans-63"/>
      <use x="214.783203" xlink:href="#DejaVuSans-74"/>
      <use x="253.992188" xlink:href="#DejaVuSans-69"/>
      <use x="281.775391" xlink:href="#DejaVuSans-6f"/>
      <use x="342.957031" xlink:href="#DejaVuSans-6e"/>
      <use x="406.335938" xlink:href="#DejaVuSans-20"/>
      <use x="438.123047" xlink:href="#DejaVuSans-6f"/>
      <use x="499.304688" xlink:href="#DejaVuSans-66"/>
      <use x="534.509766" xlink:href="#DejaVuSans-20"/>
      <use x="566.296875" xlink:href="#DejaVuSans-66"/>
      <use x="601.501953" xlink:href="#DejaVuSans-75"/>
      <use x="664.880859" xlink:href="#DejaVuSans-6e"/>
      <use x="728.259766" xlink:href="#DejaVuSans-63"/>
      <use x="783.240234" xlink:href="#DejaVuSans-74"/>
      <use x="822.449219" xlink:href="#DejaVuSans-69"/>
      <use x="850.232422" xlink:href="#DejaVuSans-6f"/>
      <use x="911.414062" xlink:href="#DejaVuSans-6e"/>
      <use x="974.792969" xlink:href="#DejaVuSans-2c"/>
      <use x="1006.580078" xlink:href="#DejaVuSans-74"/>
      <use x="1045.789062" xlink:href="#DejaVuSans-61"/>
      <use x="1107.068359" xlink:href="#DejaVuSans-72"/>
      <use x="1148.166016" xlink:href="#DejaVuSans-67"/>
      <use x="1211.642578" xlink:href="#DejaVuSans-65"/>
      <use x="1273.166016" xlink:href="#DejaVuSans-74"/>
      <use x="1312.375" xlink:href="#DejaVuSans-20"/>
      <use x="1344.162109" xlink:href="#DejaVuSans-70"/>
      <use x="1407.638672" xlink:href="#DejaVuSans-61"/>
      <use x="1468.917969" xlink:href="#DejaVuSans-69"/>
      <use x="1496.701172" xlink:href="#DejaVuSans-72"/>
      <use x="1537.814453" xlink:href="#DejaVuSans-73"/>
     </g>
    </g>
   </g>
   <g id="line2d_23">
    <defs>
     <path d="M 0 1.5 
C 0.397805 1.5 0.77937 1.341951 1.06066 1.06066 
C 1.341951 0.77937 1.5 0.397805 1.5 0 
C 1.5 -0.397805 1.341951 -0.77937 1.06066 -1.06066 
C 0.77937 -1.341951 0.397805 -1.5 0 -1.5 
C -0.397805 -1.5 -0.77937 -1.341951 -1.06066 -1.06066 
C -1.341951 -0.77937 -1.5 -0.397805 -1.5 0 
C -1.5 0.397805 -1.341951 0.77937 -1.06066 1.06066 
C -0.77937 1.341951 -0.397805 1.5 0 1.5 
z
" id="m3a0e457b73" style="stroke:#00bfbf;"/>
    </defs>
    <g>
     <use style="fill:#00bfbf;stroke:#00bfbf;" x="254.104451" xlink:href="#m3a0e457b73" y="105.934024"/>
     <use style="fill:#00bfbf;stroke:#00bfbf;" x="254.104451" xlink:href="#m3a0e457b73" y="105.934024"/>
    </g>
   </g>
   <g id="line2d_24">
    <path d="M 44.939466 294.16 
L 44.939466 287.362951 
L 56.84 287.362951 
L 56.84 282.657301 
L 63.801366 282.657301 
L 63.801366 281.088752 
L 68.740534 281.088752 
L 68.740534 279.520202 
L 72.57165 279.520202 
L 72.57165 278.474502 
L 75.7019 278.474502 
L 75.7019 275.337402 
L 78.348489 275.337402 
L 78.348489 273.768853 
L 80.641068 273.768853 
L 80.641068 272.200303 
L 82.663267 272.200303 
L 82.663267 270.631753 
L 84.472185 270.631753 
L 84.472185 266.971804 
L 86.10855 266.971804 
L 86.10855 265.926104 
L 90.249023 265.926104 
L 90.249023 265.403254 
L 91.433551 265.403254 
L 91.433551 264.880404 
L 92.541603 264.880404 
L 92.541603 264.357554 
L 94.563801 264.357554 
L 94.563801 262.266154 
L 95.492072 262.266154 
L 95.492072 261.743304 
L 96.372719 261.743304 
L 96.372719 261.220454 
L 97.210389 261.220454 
L 97.210389 260.174754 
L 98.009084 260.174754 
L 98.009084 258.606205 
L 98.77227 258.606205 
L 98.77227 258.083355 
L 100.203835 258.083355 
L 100.203835 255.469105 
L 102.149557 255.469105 
L 102.149557 254.946255 
L 102.752035 254.946255 
L 102.752035 254.423405 
L 103.334085 254.423405 
L 103.334085 253.900555 
L 104.970451 253.900555 
L 104.970451 252.854855 
L 105.980674 252.854855 
L 105.980674 252.332005 
L 106.934744 252.332005 
L 106.934744 251.809156 
L 107.392607 251.809156 
L 107.392607 250.240606 
L 109.110924 250.240606 
L 109.110924 249.717756 
L 109.909618 249.717756 
L 109.909618 249.194906 
L 110.295451 249.194906 
L 110.295451 248.672056 
L 111.04204 248.672056 
L 111.04204 248.149206 
L 114.652569 248.149206 
L 114.652569 247.626356 
L 118.364869 247.626356 
L 118.364869 247.103506 
L 119.065736 247.103506 
L 119.065736 246.580656 
L 119.293141 246.580656 
L 119.293141 246.057806 
L 121.415449 246.057806 
L 121.415449 245.012106 
L 123.481954 245.012106 
L 123.481954 244.489256 
L 123.832351 244.489256 
L 123.832351 243.443557 
L 124.512394 243.443557 
L 124.512394 242.920707 
L 124.678278 242.920707 
L 124.678278 242.397857 
L 126.846595 242.397857 
L 126.846595 241.875007 
L 127.277634 241.875007 
L 127.277634 239.260757 
L 127.418943 239.260757 
L 127.418943 238.737907 
L 127.559097 238.737907 
L 127.559097 238.215057 
L 127.972824 238.215057 
L 127.972824 237.692207 
L 129.029702 237.692207 
L 129.029702 237.169357 
L 129.658667 237.169357 
L 129.658667 236.646507 
L 130.025276 236.646507 
L 130.025276 236.123658 
L 130.502219 236.123658 
L 130.502219 235.077958 
L 131.080349 235.077958 
L 131.080349 234.032258 
L 133.514469 234.032258 
L 133.514469 233.509408 
L 134.286233 233.509408 
L 134.286233 232.463708 
L 134.566928 232.463708 
L 134.566928 231.940858 
L 136.076273 231.940858 
L 136.076273 231.418008 
L 137.067058 231.418008 
L 137.067058 230.372308 
L 137.85116 230.372308 
L 137.85116 229.849458 
L 138.155041 229.849458 
L 138.155041 229.326608 
L 138.304988 229.326608 
L 138.304988 228.803758 
L 139.319477 228.803758 
L 139.319477 228.280909 
L 139.873358 228.280909 
L 139.873358 227.758059 
L 140.541491 227.758059 
L 140.541491 227.235209 
L 141.682276 227.235209 
L 141.682276 226.712359 
L 143.813139 226.712359 
L 143.813139 225.143809 
L 147.805972 225.143809 
L 147.891602 224.098109 
L 148.27174 224.098109 
L 148.27174 223.575259 
L 150.017883 223.575259 
L 150.017883 223.052409 
L 150.756442 223.052409 
L 150.756442 222.529559 
L 152.144579 222.529559 
L 152.144579 222.006709 
L 155.928959 222.006709 
L 155.928959 221.483859 
L 157.241374 221.483859 
L 157.241374 220.96101 
L 157.389382 220.96101 
L 157.389382 220.43816 
L 157.873726 220.43816 
L 157.873726 219.91531 
L 161.918417 219.91531 
L 161.993719 218.34676 
L 162.365354 218.34676 
L 162.365354 217.82391 
L 164.554222 217.82391 
L 164.554222 217.30106 
L 165.282898 217.30106 
L 165.282898 216.77821 
L 166.100616 216.77821 
L 166.100616 216.25536 
L 166.321015 216.25536 
L 166.321015 215.73251 
L 166.567428 215.73251 
L 166.567428 215.20966 
L 166.810353 215.20966 
L 166.895278 214.16396 
L 167.936132 214.16396 
L 167.936132 213.64111 
L 168.459613 213.64111 
L 168.459613 213.118261 
L 168.80415 213.118261 
L 168.892357 212.072561 
L 169.141908 212.072561 
L 169.141908 211.026861 
L 169.570081 211.026861 
L 169.570081 210.504011 
L 169.738405 210.504011 
L 169.738405 209.981161 
L 171.017588 209.981161 
L 171.017588 209.458311 
L 171.347557 209.458311 
L 171.347557 208.935461 
L 172.768661 208.935461 
L 172.79872 207.889761 
L 173.360069 207.889761 
L 173.360069 207.366911 
L 174.062485 207.366911 
L 174.062485 206.844061 
L 176.365525 206.844061 
L 176.365525 206.321211 
L 177.253083 206.321211 
L 177.253083 205.798361 
L 177.506078 205.798361 
L 177.566852 204.752662 
L 177.619854 204.752662 
L 177.72537 203.706962 
L 178.439155 203.706962 
L 178.439155 203.184112 
L 178.582708 203.184112 
L 178.682486 200.569862 
L 179.406077 200.569862 
L 179.406077 200.047012 
L 179.582308 200.047012 
L 179.582308 199.524162 
L 179.909598 199.524162 
L 179.982222 198.478462 
L 180.113483 198.478462 
L 180.113483 197.955613 
L 180.25672 197.955613 
L 180.25672 197.432763 
L 182.968024 197.432763 
L 182.984625 196.387063 
L 183.248091 196.387063 
L 183.248091 195.864213 
L 183.894838 195.864213 
L 183.894838 195.341363 
L 184.309439 195.341363 
L 184.401361 194.295663 
L 184.452217 194.295663 
L 184.502922 193.249963 
L 184.608918 193.249963 
L 184.608918 192.727113 
L 184.754227 192.727113 
L 184.754227 192.204263 
L 184.918095 192.204263 
L 184.982223 190.112864 
L 185.075519 190.112864 
L 185.16831 189.067164 
L 185.888453 189.067164 
L 185.981611 188.021464 
L 188.56837 188.021464 
L 188.56837 187.498614 
L 188.916426 187.498614 
L 188.982859 185.930064 
L 189.134298 185.930064 
L 189.176771 184.884364 
L 189.360889 184.884364 
L 189.360889 184.361514 
L 189.842431 184.361514 
L 189.842431 183.838664 
L 190.056261 183.838664 
L 190.056261 183.315814 
L 190.202193 183.315814 
L 190.202193 182.792964 
L 190.418792 182.792964 
L 190.418792 182.270115 
L 191.623874 182.270115 
L 191.623874 181.747265 
L 192.382697 181.747265 
L 192.478417 179.655865 
L 192.812415 179.655865 
L 192.812415 179.133015 
L 192.99863 179.133015 
L 192.99863 178.610165 
L 193.611109 178.610165 
L 193.712085 177.041615 
L 195.50708 177.041615 
L 195.50708 176.518765 
L 195.637279 176.518765 
L 195.73231 174.427366 
L 195.784878 174.427366 
L 195.86343 173.381666 
L 196.029816 173.381666 
L 196.040162 171.813116 
L 196.95155 171.813116 
L 196.95155 171.290266 
L 197.513565 171.290266 
L 197.558593 170.244566 
L 198.47565 170.244566 
L 198.47565 169.721716 
L 198.58747 169.721716 
L 198.596384 168.676016 
L 199.43554 168.676016 
L 199.43554 168.153166 
L 200.162526 168.153166 
L 200.162526 167.630316 
L 200.492861 167.630316 
L 200.504827 166.061767 
L 200.712889 166.061767 
L 200.748304 165.016067 
L 200.924296 165.016067 
L 200.945683 163.970367 
L 201.119674 163.970367 
L 201.119674 163.447517 
L 201.464338 163.447517 
L 201.464338 162.924667 
L 202.013491 162.924667 
L 202.013491 162.401817 
L 202.371263 162.401817 
L 202.428392 161.356117 
L 203.029087 161.356117 
L 203.029087 160.833267 
L 203.261564 160.833267 
L 203.363135 159.787567 
L 204.331158 159.787567 
L 204.426611 158.219018 
L 204.532577 158.219018 
L 204.625353 157.173318 
L 205.049755 157.173318 
L 205.087961 156.127618 
L 205.796702 156.127618 
L 205.81866 155.081918 
L 206.007794 155.081918 
L 206.094389 153.513368 
L 206.294761 153.513368 
L 206.308984 152.467668 
L 206.93439 152.467668 
L 206.93439 151.944818 
L 207.232017 151.944818 
L 207.232017 151.421969 
L 207.48479 151.421969 
L 207.537813 149.853419 
L 207.620994 149.853419 
L 207.620994 149.330569 
L 207.74436 149.330569 
L 207.74436 148.807719 
L 208.72534 148.807719 
L 208.72534 148.284869 
L 208.872914 148.284869 
L 208.903499 146.716319 
L 209.206394 146.716319 
L 209.206394 146.193469 
L 209.666153 146.193469 
L 209.666153 145.670619 
L 209.964044 145.670619 
L 210.05687 142.53352 
L 210.117338 142.53352 
L 210.224062 141.48782 
L 210.265889 141.48782 
L 210.265889 140.96497 
L 210.485775 140.96497 
L 210.485775 140.44212 
L 211.253128 140.44212 
L 211.295714 139.39642 
L 211.486058 139.39642 
L 211.580445 137.82787 
L 212.001939 137.82787 
L 212.001939 137.30502 
L 212.383418 137.30502 
L 212.397385 136.259321 
L 213.20102 136.259321 
L 213.20102 135.736471 
L 213.379947 135.736471 
L 213.379947 135.213621 
L 213.535577 135.213621 
L 213.535577 134.690771 
L 214.003261 134.690771 
L 214.101069 133.645071 
L 214.35208 133.645071 
L 214.426673 132.599371 
L 214.522986 132.599371 
L 214.559075 131.553671 
L 215.261981 131.553671 
L 215.261981 131.030821 
L 215.564826 131.030821 
L 215.564826 130.507971 
L 216.388907 130.507971 
L 216.388907 129.985121 
L 216.841319 129.985121 
L 216.918131 128.939421 
L 217.1117 128.939421 
L 217.1117 128.416572 
L 217.365947 128.416572 
L 217.365947 127.893722 
L 218.016504 127.893722 
L 218.016504 127.370872 
L 218.465643 127.370872 
L 218.465643 126.848022 
L 218.866426 126.848022 
L 218.866426 126.325172 
L 219.180315 126.325172 
L 219.180315 125.802322 
L 219.966821 125.802322 
L 219.966821 125.279472 
L 220.702279 125.279472 
L 220.702279 124.756622 
L 221.113532 124.756622 
L 221.172854 123.710922 
L 221.347823 123.710922 
L 221.347823 123.188072 
L 221.523372 123.188072 
L 221.523372 122.665222 
L 222.382407 122.665222 
L 222.407476 121.619522 
L 223.084232 121.619522 
L 223.118448 120.573823 
L 224.107386 120.573823 
L 224.13157 119.528123 
L 225.168041 119.528123 
L 225.168041 119.005273 
L 225.311533 119.005273 
L 225.311533 118.482423 
L 226.747347 118.482423 
L 226.747347 117.959573 
L 226.979234 117.959573 
L 226.979234 117.436723 
L 227.255106 117.436723 
L 227.255106 116.913873 
L 228.283512 116.913873 
L 228.283512 116.391023 
L 228.396599 116.391023 
L 228.396599 115.868173 
L 229.534301 115.868173 
L 229.534301 115.345323 
L 230.055942 115.345323 
L 230.055942 114.822473 
L 231.680894 114.822473 
L 231.680894 114.299623 
L 235.189046 114.299623 
L 235.189046 113.776773 
L 235.761116 113.776773 
L 235.761116 113.253924 
L 236.383935 113.253924 
L 236.383935 112.731074 
L 237.637317 112.731074 
L 237.637317 112.208224 
L 238.046917 112.208224 
L 238.046917 111.685374 
L 238.190486 111.685374 
L 238.190486 111.162524 
L 241.231481 111.162524 
L 241.231481 110.639674 
L 242.333813 110.639674 
L 242.333813 110.116824 
L 242.634279 110.116824 
L 242.634279 109.593974 
L 244.15368 109.593974 
L 244.15368 109.071124 
L 245.025289 109.071124 
L 245.025289 108.548274 
L 245.946873 108.548274 
L 245.946873 108.025424 
L 247.646299 108.025424 
L 247.646299 107.502574 
L 252.868723 107.502574 
L 252.868723 106.979724 
L 253.048873 106.979724 
L 253.048873 106.456874 
L 254.104451 106.456874 
L 254.104451 105.934024 
L 333.569032 105.934024 
L 333.569032 105.934024 
" style="fill:none;stroke:#00bfbf;stroke-linecap:square;stroke-width:1.5;"/>
   </g>
   <g id="line2d_25">
    <defs>
     <path d="M -6 0 
L 6 0 
M 0 6 
L 0 -6 
" id="m7bbfd85b2e" style="stroke:#00bfbf;stroke-width:1.5;"/>
    </defs>
    <g>
     <use style="fill-opacity:0;stroke:#00bfbf;stroke-width:1.5;" x="100.203835" xlink:href="#m7bbfd85b2e" y="258.083355"/>
     <use style="fill-opacity:0;stroke:#00bfbf;stroke-width:1.5;" x="169.738405" xlink:href="#m7bbfd85b2e" y="209.981161"/>
     <use style="fill-opacity:0;stroke:#00bfbf;stroke-width:1.5;" x="200.492861" xlink:href="#m7bbfd85b2e" y="167.630316"/>
     <use style="fill-opacity:0;stroke:#00bfbf;stroke-width:1.5;" x="245.946873" xlink:href="#m7bbfd85b2e" y="108.548274"/>
     <use style="fill-opacity:0;stroke:#00bfbf;stroke-width:1.5;" x="254.104451" xlink:href="#m7bbfd85b2e" y="105.934024"/>
     <use style="fill-opacity:0;stroke:#00bfbf;stroke-width:1.5;" x="333.569032" xlink:href="#m7bbfd85b2e" y="105.934024"/>
    </g>
   </g>
   <g id="line2d_26">
    <path style="fill:none;stroke:#00bfbf;stroke-linecap:square;stroke-width:1.5;"/>
    <g/>
   </g>
   <g id="line2d_27">
    <path clip-path="url(#pb457865c67)" d="M 164.375293 217.82391 
" style="fill:none;stroke:#00bfbf;stroke-linecap:square;stroke-width:1.5;"/>
    <defs>
     <path d="M -12 12 
L 12 -12 
M -12 -12 
L 12 12 
" id="mc3aa6a09bc" style="stroke:#00bfbf;stroke-width:3;"/>
    </defs>
    <g clip-path="url(#pb457865c67)">
     <use style="fill:#00bfbf;stroke:#00bfbf;stroke-width:3;" x="164.375293" xlink:href="#mc3aa6a09bc" y="217.82391"/>
    </g>
   </g>
   <g id="line2d_28">
    <defs>
     <path d="M 0 1.5 
C 0.397805 1.5 0.77937 1.341951 1.06066 1.06066 
C 1.341951 0.77937 1.5 0.397805 1.5 0 
C 1.5 -0.397805 1.341951 -0.77937 1.06066 -1.06066 
C 0.77937 -1.341951 0.397805 -1.5 0 -1.5 
C -0.397805 -1.5 -0.77937 -1.341951 -1.06066 -1.06066 
C -1.341951 -0.77937 -1.5 -0.397805 -1.5 0 
C -1.5 0.397805 -1.341951 0.77937 -1.06066 1.06066 
C -0.77937 1.341951 -0.397805 1.5 0 1.5 
z
" id="m680b33245b" style="stroke:#008000;"/>
    </defs>
    <g>
     <use style="fill:#008000;stroke:#008000;" x="236.518237" xlink:href="#m680b33245b" y="205.275512"/>
     <use style="fill:#008000;stroke:#008000;" x="236.518237" xlink:href="#m680b33245b" y="205.275512"/>
    </g>
   </g>
   <g id="line2d_29">
    <path d="M 37.9781 294.16 
L 37.9781 287.362951 
L 49.878634 287.362951 
L 49.878634 284.748701 
L 56.84 284.748701 
L 56.84 281.611602 
L 61.779168 281.611602 
L 61.779168 281.088752 
L 68.740534 281.088752 
L 68.740534 278.997352 
L 73.679702 278.997352 
L 73.679702 278.474502 
L 77.510818 278.474502 
L 77.510818 277.951652 
L 79.147184 277.951652 
L 79.147184 276.905952 
L 80.641068 276.905952 
L 80.641068 276.383102 
L 82.015309 276.383102 
L 82.015309 274.291703 
L 85.580236 274.291703 
L 85.580236 272.723153 
L 87.602435 272.723153 
L 87.602435 272.200303 
L 88.530706 272.200303 
L 88.530706 270.631753 
L 90.249023 270.631753 
L 90.249023 269.586053 
L 91.047718 269.586053 
L 91.047718 269.063203 
L 91.810903 269.063203 
L 91.810903 268.017503 
L 93.242469 268.017503 
L 93.242469 266.971804 
L 95.790669 266.971804 
L 95.790669 266.448954 
L 97.480771 266.448954 
L 97.480771 265.926104 
L 98.009084 265.926104 
L 98.009084 264.357554 
L 100.877209 264.357554 
L 100.877209 263.834704 
L 102.553549 263.834704 
L 102.553549 263.311854 
L 107.088725 263.311854 
L 107.088725 262.789004 
L 110.167801 262.789004 
L 110.167801 260.697604 
L 112.556207 260.697604 
L 112.556207 260.174754 
L 113.212421 260.174754 
L 113.212421 259.129055 
L 113.636365 259.129055 
L 113.636365 258.606205 
L 114.454083 258.606205 
L 114.454083 258.083355 
L 115.042787 258.083355 
L 115.042787 257.560505 
L 115.611972 257.560505 
L 115.611972 257.037655 
L 116.520588 257.037655 
L 116.520588 256.514805 
L 120.030114 256.514805 
L 120.030114 255.469105 
L 121.415449 255.469105 
L 121.415449 254.946255 
L 122.573338 254.946255 
L 122.573338 254.423405 
L 125.745009 254.423405 
L 125.848125 253.377705 
L 129.69979 253.377705 
L 129.69979 252.854855 
L 130.025276 252.854855 
L 130.025276 252.332005 
L 132.002635 252.332005 
L 132.002635 251.809156 
L 133.115176 251.809156 
L 133.115176 251.286306 
L 133.904687 251.286306 
L 133.904687 250.763456 
L 135.024791 250.763456 
L 135.024791 250.240606 
L 135.382488 250.240606 
L 135.382488 249.717756 
L 138.104766 249.717756 
L 138.104766 248.672056 
L 139.366322 248.672056 
L 139.366322 248.149206 
L 139.963959 248.149206 
L 139.963959 247.626356 
L 141.723106 247.626356 
L 141.723106 247.103506 
L 143.686297 247.103506 
L 143.686297 246.580656 
L 144.188136 246.580656 
L 144.188136 246.057806 
L 147.400618 246.057806 
L 147.400618 245.534956 
L 158.810793 245.534956 
L 158.810793 245.012106 
L 159.257148 245.012106 
L 159.257148 244.489256 
L 163.002869 244.489256 
L 163.002869 243.966407 
L 164.570396 243.966407 
L 164.570396 243.443557 
L 166.41807 243.443557 
L 166.41807 242.920707 
L 167.423591 242.920707 
L 167.423591 242.397857 
L 167.784864 242.397857 
L 167.89178 241.352157 
L 168.147444 241.352157 
L 168.147444 240.829307 
L 169.034214 240.829307 
L 169.034214 240.306457 
L 170.514243 240.306457 
L 170.514243 239.783607 
L 176.384491 239.783607 
L 176.384491 239.260757 
L 176.589077 239.260757 
L 176.589077 238.737907 
L 177.043278 238.737907 
L 177.142024 237.692207 
L 177.506078 237.692207 
L 177.506078 237.169357 
L 177.897321 237.169357 
L 177.897321 236.646507 
L 178.187451 236.646507 
L 178.187451 236.123658 
L 178.391036 236.123658 
L 178.391036 235.600808 
L 179.094408 235.600808 
L 179.094408 235.077958 
L 179.907393 235.077958 
L 179.907393 234.555108 
L 180.308512 234.555108 
L 180.308512 234.032258 
L 181.231339 234.032258 
L 181.231339 233.509408 
L 184.494481 233.509408 
L 184.538327 232.463708 
L 186.661654 232.463708 
L 186.661654 231.940858 
L 187.776587 231.940858 
L 187.776587 231.418008 
L 188.30938 231.418008 
L 188.30938 230.895158 
L 188.689143 230.895158 
L 188.689143 230.372308 
L 188.899451 230.372308 
L 188.899451 229.849458 
L 189.41422 229.849458 
L 189.41422 229.326608 
L 191.500816 229.326608 
L 191.500816 228.803758 
L 192.893356 228.803758 
L 192.893356 228.280909 
L 193.160437 228.280909 
L 193.221485 227.235209 
L 195.081314 227.235209 
L 195.081314 226.712359 
L 196.861408 226.712359 
L 196.861408 226.189509 
L 198.132699 226.189509 
L 198.217943 225.143809 
L 198.807482 225.143809 
L 198.807482 224.620959 
L 200.370064 224.620959 
L 200.428903 223.575259 
L 200.786916 223.575259 
L 200.786916 222.529559 
L 201.527691 222.529559 
L 201.527691 222.006709 
L 202.491843 222.006709 
L 202.548572 220.96101 
L 203.95917 220.96101 
L 203.95917 220.43816 
L 204.361973 220.43816 
L 204.425554 219.39246 
L 206.408218 219.39246 
L 206.408218 218.86961 
L 207.765706 218.86961 
L 207.765706 218.34676 
L 209.73694 218.34676 
L 209.73694 217.82391 
L 210.116958 217.82391 
L 210.116958 217.30106 
L 210.250074 217.30106 
L 210.250074 216.77821 
L 210.967929 216.77821 
L 210.967929 216.25536 
L 213.175941 216.25536 
L 213.175941 215.73251 
L 213.913416 215.73251 
L 213.913416 215.20966 
L 217.099066 215.20966 
L 217.099066 214.68681 
L 217.57916 214.68681 
L 217.57916 214.16396 
L 217.926646 214.16396 
L 217.926646 213.64111 
L 218.828983 213.64111 
L 218.828983 213.118261 
L 220.232349 213.118261 
L 220.232349 212.595411 
L 220.996083 212.595411 
L 221.068455 211.549711 
L 221.632816 211.549711 
L 221.667722 210.504011 
L 222.094387 210.504011 
L 222.094387 209.981161 
L 222.828676 209.981161 
L 222.828676 209.458311 
L 223.238376 209.458311 
L 223.238376 208.935461 
L 223.916075 208.935461 
L 224.00625 207.889761 
L 226.747347 207.889761 
L 226.747347 207.366911 
L 229.47158 207.366911 
L 229.47158 206.844061 
L 234.065452 206.844061 
L 234.065452 206.321211 
L 236.293263 206.321211 
L 236.293263 205.798361 
L 236.518237 205.798361 
L 236.518237 205.275512 
L 333.569032 205.275512 
L 333.569032 205.275512 
" style="fill:none;stroke:#008000;stroke-linecap:square;stroke-width:1.5;"/>
   </g>
   <g id="line2d_30">
    <defs>
     <path d="M -0 6 
L 6 -6 
L -6 -6 
z
" id="mbd30e4adf6" style="stroke:#008000;stroke-linejoin:miter;stroke-width:1.5;"/>
    </defs>
    <g>
     <use style="fill-opacity:0;stroke:#008000;stroke-linejoin:miter;stroke-width:1.5;" x="73.679702" xlink:href="#mbd30e4adf6" y="278.997352"/>
     <use style="fill-opacity:0;stroke:#008000;stroke-linejoin:miter;stroke-width:1.5;" x="147.400618" xlink:href="#mbd30e4adf6" y="246.057806"/>
     <use style="fill-opacity:0;stroke:#008000;stroke-linejoin:miter;stroke-width:1.5;" x="201.527691" xlink:href="#mbd30e4adf6" y="222.006709"/>
     <use style="fill-opacity:0;stroke:#008000;stroke-linejoin:miter;stroke-width:1.5;" x="236.518237" xlink:href="#mbd30e4adf6" y="205.798361"/>
     <use style="fill-opacity:0;stroke:#008000;stroke-linejoin:miter;stroke-width:1.5;" x="236.518237" xlink:href="#mbd30e4adf6" y="205.275512"/>
     <use style="fill-opacity:0;stroke:#008000;stroke-linejoin:miter;stroke-width:1.5;" x="333.569032" xlink:href="#mbd30e4adf6" y="205.275512"/>
    </g>
   </g>
   <g id="line2d_31">
    <path style="fill:none;stroke:#008000;stroke-linecap:square;stroke-width:1.5;"/>
    <g/>
   </g>
   <g id="line2d_32">
    <path clip-path="url(#pb457865c67)" d="M 164.100586 243.966407 
" style="fill:none;stroke:#008000;stroke-linecap:square;stroke-width:1.5;"/>
    <defs>
     <path d="M -12 12 
L 12 -12 
M -12 -12 
L 12 12 
" id="m5b7e1bb10d" style="stroke:#008000;stroke-width:3;"/>
    </defs>
    <g clip-path="url(#pb457865c67)">
     <use style="fill:#008000;stroke:#008000;stroke-width:3;" x="164.100586" xlink:href="#m5b7e1bb10d" y="243.966407"/>
    </g>
   </g>
   <g id="line2d_33">
    <defs>
     <path d="M 0 1.5 
C 0.397805 1.5 0.77937 1.341951 1.06066 1.06066 
C 1.341951 0.77937 1.5 0.397805 1.5 0 
C 1.5 -0.397805 1.341951 -0.77937 1.06066 -1.06066 
C 0.77937 -1.341951 0.397805 -1.5 0 -1.5 
C -0.397805 -1.5 -0.77937 -1.341951 -1.06066 -1.06066 
C -1.341951 -0.77937 -1.5 -0.397805 -1.5 0 
C -1.5 0.397805 -1.341951 0.77937 -1.06066 1.06066 
C -0.77937 1.341951 -0.397805 1.5 0 1.5 
z
" id="m667029e3f3" style="stroke:#0000ff;"/>
    </defs>
    <g>
     <use style="fill:#0000ff;stroke:#0000ff;" x="247.138269" xlink:href="#m667029e3f3" y="231.418008"/>
     <use style="fill:#0000ff;stroke:#0000ff;" x="247.138269" xlink:href="#m667029e3f3" y="231.418008"/>
    </g>
   </g>
   <g id="line2d_34">
    <path d="M 29.207815 294.16 
L 29.207815 291.54575 
L 41.10835 291.54575 
L 41.10835 286.317251 
L 48.069716 286.317251 
L 48.069716 284.225851 
L 53.008884 284.225851 
L 53.008884 283.180151 
L 56.84 283.180151 
L 56.84 281.611602 
L 59.97025 281.611602 
L 59.97025 281.088752 
L 64.909418 281.088752 
L 64.909418 279.520202 
L 66.931616 279.520202 
L 66.931616 277.951652 
L 70.3769 277.951652 
L 70.3769 277.428802 
L 71.870784 277.428802 
L 71.870784 276.905952 
L 75.7019 276.905952 
L 75.7019 276.383102 
L 78.83215 276.383102 
L 78.83215 275.860252 
L 79.760422 275.860252 
L 79.760422 275.337402 
L 83.771318 275.337402 
L 83.771318 274.814553 
L 85.145559 274.814553 
L 85.145559 273.768853 
L 92.965546 273.768853 
L 92.965546 273.246003 
L 95.671853 273.246003 
L 95.671853 272.723153 
L 97.046093 272.723153 
L 97.046093 271.677453 
L 97.694051 271.677453 
L 97.694051 270.631753 
L 98.622322 270.631753 
L 98.622322 269.586053 
L 100.877209 269.586053 
L 100.877209 269.063203 
L 110.672804 269.063203 
L 110.672804 268.540353 
L 112.909306 268.540353 
L 112.909306 268.017503 
L 116.235029 268.017503 
L 116.235029 266.971804 
L 118.459988 266.971804 
L 118.554582 265.926104 
L 119.650838 265.926104 
L 119.650838 265.403254 
L 121.174197 265.403254 
L 121.174197 264.880404 
L 123.304037 264.880404 
L 123.304037 264.357554 
L 125.069979 264.357554 
L 125.069979 263.834704 
L 128.350177 263.834704 
L 128.350177 263.311854 
L 130.874458 263.311854 
L 130.874458 262.789004 
L 136.177965 262.789004 
L 136.177965 262.266154 
L 137.194946 262.266154 
L 137.194946 261.743304 
L 137.697178 261.743304 
L 137.697178 260.697604 
L 139.319477 260.697604 
L 139.319477 260.174754 
L 144.251607 260.174754 
L 144.251607 259.651904 
L 145.276305 259.651904 
L 145.276305 259.129055 
L 148.044669 259.129055 
L 148.044669 258.606205 
L 151.787513 258.606205 
L 151.787513 258.083355 
L 153.185825 258.083355 
L 153.185825 257.560505 
L 155.583193 257.560505 
L 155.583193 257.037655 
L 156.528116 257.037655 
L 156.528116 256.514805 
L 158.570962 256.514805 
L 158.570962 255.991955 
L 164.966716 255.991955 
L 164.966716 255.469105 
L 167.302684 255.469105 
L 167.302684 254.946255 
L 175.811776 254.946255 
L 175.811776 254.423405 
L 175.968968 254.423405 
L 175.968968 253.900555 
L 178.407412 253.900555 
L 178.407412 253.377705 
L 182.484014 253.377705 
L 182.484014 252.854855 
L 183.339357 252.854855 
L 183.339357 252.332005 
L 183.63799 252.332005 
L 183.63799 251.809156 
L 185.489665 251.809156 
L 185.489665 251.286306 
L 187.393543 251.286306 
L 187.478901 250.240606 
L 188.293689 250.240606 
L 188.293689 249.717756 
L 188.807233 249.717756 
L 188.807233 249.194906 
L 193.151057 249.194906 
L 193.151057 248.672056 
L 193.311844 248.672056 
L 193.311844 248.149206 
L 194.759697 248.149206 
L 194.759697 247.626356 
L 195.652096 247.626356 
L 195.652096 247.103506 
L 197.953533 247.103506 
L 197.953533 246.580656 
L 198.462182 246.580656 
L 198.462182 246.057806 
L 198.632884 246.057806 
L 198.632884 245.534956 
L 200.248541 245.534956 
L 200.248541 245.012106 
L 200.762843 245.012106 
L 200.762843 244.489256 
L 202.619456 244.489256 
L 202.619456 243.966407 
L 208.511331 243.966407 
L 208.511331 243.443557 
L 209.761763 243.443557 
L 209.761763 242.920707 
L 209.947719 242.920707 
L 209.947719 242.397857 
L 210.819598 242.397857 
L 210.819598 241.875007 
L 211.851885 241.875007 
L 211.851885 241.352157 
L 217.821876 241.352157 
L 217.821876 240.829307 
L 218.220036 240.829307 
L 218.220036 240.306457 
L 219.597752 240.306457 
L 219.597752 239.783607 
L 220.81161 239.783607 
L 220.81161 239.260757 
L 226.859731 239.260757 
L 226.859731 238.737907 
L 227.971465 238.737907 
L 227.971465 238.215057 
L 228.711804 238.215057 
L 228.711804 237.692207 
L 228.898491 237.692207 
L 228.898491 237.169357 
L 229.1828 237.169357 
L 229.1828 236.646507 
L 229.525404 236.646507 
L 229.525404 236.123658 
L 230.593122 236.123658 
L 230.593122 235.600808 
L 230.713785 235.600808 
L 230.713785 235.077958 
L 231.017854 235.077958 
L 231.017854 234.555108 
L 235.718199 234.555108 
L 235.718199 234.032258 
L 238.000918 234.032258 
L 238.000918 233.509408 
L 241.214884 233.509408 
L 241.214884 232.986558 
L 242.300435 232.986558 
L 242.300435 232.463708 
L 245.874769 232.463708 
L 245.874769 231.940858 
L 247.138269 231.940858 
L 247.138269 231.418008 
L 333.569032 231.418008 
L 333.569032 231.418008 
" style="fill:none;stroke:#0000ff;stroke-linecap:square;stroke-width:1.5;"/>
   </g>
   <g id="line2d_35">
    <defs>
     <path d="M 0 -6 
L -1.347084 -1.854102 
L -5.706339 -1.854102 
L -2.179628 0.708204 
L -3.526712 4.854102 
L -0 2.291796 
L 3.526712 4.854102 
L 2.179628 0.708204 
L 5.706339 -1.854102 
L 1.347084 -1.854102 
z
" id="mcd2230865e" style="stroke:#0000ff;stroke-linejoin:bevel;stroke-width:1.5;"/>
    </defs>
    <g>
     <use style="fill-opacity:0;stroke:#0000ff;stroke-linejoin:bevel;stroke-width:1.5;" x="66.931616" xlink:href="#mcd2230865e" y="277.951652"/>
     <use style="fill-opacity:0;stroke:#0000ff;stroke-linejoin:bevel;stroke-width:1.5;" x="137.194946" xlink:href="#mcd2230865e" y="261.743304"/>
     <use style="fill-opacity:0;stroke:#0000ff;stroke-linejoin:bevel;stroke-width:1.5;" x="209.947719" xlink:href="#mcd2230865e" y="242.397857"/>
     <use style="fill-opacity:0;stroke:#0000ff;stroke-linejoin:bevel;stroke-width:1.5;" x="247.138269" xlink:href="#mcd2230865e" y="231.940858"/>
     <use style="fill-opacity:0;stroke:#0000ff;stroke-linejoin:bevel;stroke-width:1.5;" x="247.138269" xlink:href="#mcd2230865e" y="231.418008"/>
     <use style="fill-opacity:0;stroke:#0000ff;stroke-linejoin:bevel;stroke-width:1.5;" x="333.569032" xlink:href="#mcd2230865e" y="231.418008"/>
    </g>
   </g>
   <g id="line2d_36">
    <path style="fill:none;stroke:#0000ff;stroke-linecap:square;stroke-width:1.5;"/>
    <g/>
   </g>
   <g id="line2d_37">
    <path clip-path="url(#pb457865c67)" d="M 163.877611 255.991955 
" style="fill:none;stroke:#0000ff;stroke-linecap:square;stroke-width:1.5;"/>
    <defs>
     <path d="M -12 12 
L 12 -12 
M -12 -12 
L 12 12 
" id="m9d1604db20" style="stroke:#0000ff;stroke-width:3;"/>
    </defs>
    <g clip-path="url(#pb457865c67)">
     <use style="fill:#0000ff;stroke:#0000ff;stroke-width:3;" x="163.877611" xlink:href="#m9d1604db20" y="255.991955"/>
    </g>
   </g>
   <g id="line2d_38">
    <defs>
     <path d="M 0 1.5 
C 0.397805 1.5 0.77937 1.341951 1.06066 1.06066 
C 1.341951 0.77937 1.5 0.397805 1.5 0 
C 1.5 -0.397805 1.341951 -0.77937 1.06066 -1.06066 
C 0.77937 -1.341951 0.397805 -1.5 0 -1.5 
C -0.397805 -1.5 -0.77937 -1.341951 -1.06066 -1.06066 
C -1.341951 -0.77937 -1.5 -0.397805 -1.5 0 
C -1.5 0.397805 -1.341951 0.77937 -1.06066 1.06066 
C -0.77937 1.341951 -0.397805 1.5 0 1.5 
z
" id="m0b3c71e2fd" style="stroke:#000000;"/>
    </defs>
    <g>
     <use style="stroke:#000000;" x="259.869135" xlink:href="#m0b3c71e2fd" y="247.103506"/>
     <use style="stroke:#000000;" x="259.869135" xlink:href="#m0b3c71e2fd" y="247.103506"/>
    </g>
   </g>
   <g id="line2d_39">
    <path d="M 17.307281 294.16 
L 17.307281 289.454351 
L 29.207815 289.454351 
L 29.207815 287.885801 
L 36.169182 287.885801 
L 36.169182 283.180151 
L 41.10835 283.180151 
L 41.10835 282.657301 
L 44.939466 282.657301 
L 44.939466 281.611602 
L 48.069716 281.611602 
L 48.069716 280.565902 
L 50.716304 280.565902 
L 50.716304 280.043052 
L 53.008884 280.043052 
L 53.008884 278.997352 
L 59.97025 278.997352 
L 59.97025 278.474502 
L 73.245025 278.474502 
L 73.245025 277.951652 
L 76.809952 277.951652 
L 76.809952 277.428802 
L 83.040619 277.428802 
L 83.040619 276.905952 
L 90.249023 276.905952 
L 90.249023 276.383102 
L 95.126764 276.383102 
L 95.126764 275.860252 
L 100.340639 275.860252 
L 100.340639 275.337402 
L 104.442137 275.337402 
L 104.442137 274.814553 
L 112.104369 274.814553 
L 112.104369 274.291703 
L 115.405455 274.291703 
L 115.405455 273.768853 
L 118.173037 273.768853 
L 118.173037 273.246003 
L 121.613935 273.246003 
L 121.613935 272.723153 
L 126.87567 272.723153 
L 126.87567 272.200303 
L 127.077828 272.200303 
L 127.077828 271.677453 
L 129.434885 271.677453 
L 129.434885 271.154603 
L 140.567683 271.154603 
L 140.567683 270.108903 
L 147.87451 270.108903 
L 147.87451 269.586053 
L 152.734406 269.586053 
L 152.734406 269.063203 
L 160.944175 269.063203 
L 160.944175 268.540353 
L 166.801838 268.540353 
L 166.801838 268.017503 
L 167.147559 268.017503 
L 167.147559 267.494653 
L 172.530341 267.494653 
L 172.530341 266.971804 
L 175.806736 266.971804 
L 175.900582 265.403254 
L 178.565545 265.403254 
L 178.565545 264.880404 
L 184.713264 264.880404 
L 184.713264 264.357554 
L 187.543491 264.357554 
L 187.543491 263.834704 
L 187.749229 263.834704 
L 187.749229 263.311854 
L 191.465301 263.311854 
L 191.465301 262.789004 
L 193.656325 262.789004 
L 193.656325 262.266154 
L 195.088604 262.266154 
L 195.088604 261.743304 
L 195.303706 261.743304 
L 195.303706 261.220454 
L 197.883074 261.220454 
L 197.926681 260.174754 
L 201.878577 260.174754 
L 201.878577 259.651904 
L 202.101274 259.651904 
L 202.101274 259.129055 
L 205.828897 259.129055 
L 205.828897 258.606205 
L 206.471992 258.606205 
L 206.471992 258.083355 
L 209.427383 258.083355 
L 209.427383 257.560505 
L 210.796625 257.560505 
L 210.796625 257.037655 
L 211.449423 257.037655 
L 211.449423 256.514805 
L 211.930765 256.514805 
L 211.930765 255.991955 
L 219.816649 255.991955 
L 219.816649 255.469105 
L 222.011721 255.469105 
L 222.011721 254.946255 
L 223.354593 254.946255 
L 223.354593 254.423405 
L 223.934691 254.423405 
L 223.965221 252.854855 
L 224.886085 252.854855 
L 224.886085 252.332005 
L 226.781899 252.332005 
L 226.781899 251.809156 
L 228.465269 251.809156 
L 228.465269 251.286306 
L 228.855871 251.286306 
L 228.855871 250.763456 
L 230.300219 250.763456 
L 230.300219 250.240606 
L 230.733814 250.240606 
L 230.733814 249.717756 
L 236.277553 249.717756 
L 236.277553 249.194906 
L 241.456874 249.194906 
L 241.456874 248.672056 
L 241.841639 248.672056 
L 241.841639 248.149206 
L 245.291588 248.149206 
L 245.291588 247.626356 
L 259.869135 247.626356 
L 259.869135 247.103506 
L 333.569032 247.103506 
L 333.569032 247.103506 
" style="fill:none;stroke:#000000;stroke-linecap:square;stroke-width:1.5;"/>
   </g>
   <g id="line2d_40">
    <defs>
     <path d="M 0 6 
C 1.591219 6 3.117479 5.367802 4.242641 4.242641 
C 5.367802 3.117479 6 1.591219 6 0 
C 6 -1.591219 5.367802 -3.117479 4.242641 -4.242641 
C 3.117479 -5.367802 1.591219 -6 0 -6 
C -1.591219 -6 -3.117479 -5.367802 -4.242641 -4.242641 
C -5.367802 -3.117479 -6 -1.591219 -6 0 
C -6 1.591219 -5.367802 3.117479 -4.242641 4.242641 
C -3.117479 5.367802 -1.591219 6 0 6 
z
" id="md7ae3f92c8" style="stroke:#000000;stroke-width:1.5;"/>
    </defs>
    <g>
     <use style="fill-opacity:0;stroke:#000000;stroke-width:1.5;" x="73.245025" xlink:href="#md7ae3f92c8" y="278.474502"/>
     <use style="fill-opacity:0;stroke:#000000;stroke-width:1.5;" x="167.147559" xlink:href="#md7ae3f92c8" y="268.017503"/>
     <use style="fill-opacity:0;stroke:#000000;stroke-width:1.5;" x="224.886085" xlink:href="#md7ae3f92c8" y="252.854855"/>
     <use style="fill-opacity:0;stroke:#000000;stroke-width:1.5;" x="259.869135" xlink:href="#md7ae3f92c8" y="247.103506"/>
     <use style="fill-opacity:0;stroke:#000000;stroke-width:1.5;" x="259.869135" xlink:href="#md7ae3f92c8" y="247.103506"/>
     <use style="fill-opacity:0;stroke:#000000;stroke-width:1.5;" x="333.569032" xlink:href="#md7ae3f92c8" y="247.103506"/>
    </g>
   </g>
   <g id="line2d_41">
    <path style="fill:none;stroke:#000000;stroke-linecap:square;stroke-width:1.5;"/>
    <g/>
   </g>
   <g id="line2d_42">
    <path clip-path="url(#pb457865c67)" d="M 163.708458 268.540353 
" style="fill:none;stroke:#000000;stroke-linecap:square;stroke-width:1.5;"/>
    <defs>
     <path d="M -12 12 
L 12 -12 
M -12 -12 
L 12 12 
" id="mba91ee9c07" style="stroke:#000000;stroke-width:3;"/>
    </defs>
    <g clip-path="url(#pb457865c67)">
     <use style="stroke:#000000;stroke-width:3;" x="163.708458" xlink:href="#mba91ee9c07" y="268.540353"/>
    </g>
   </g>
   <g id="line2d_43">
    <defs>
     <path d="M 0 1.5 
C 0.397805 1.5 0.77937 1.341951 1.06066 1.06066 
C 1.341951 0.77937 1.5 0.397805 1.5 0 
C 1.5 -0.397805 1.341951 -0.77937 1.06066 -1.06066 
C 0.77937 -1.341951 0.397805 -1.5 0 -1.5 
C -0.397805 -1.5 -0.77937 -1.341951 -1.06066 -1.06066 
C -1.341951 -0.77937 -1.5 -0.397805 -1.5 0 
C -1.5 0.397805 -1.341951 0.77937 -1.06066 1.06066 
C -0.77937 1.341951 -0.397805 1.5 0 1.5 
z
" id="m5f534bd45c" style="stroke:#ff0000;"/>
    </defs>
    <g>
     <use style="fill:#ff0000;stroke:#ff0000;" x="256.520069" xlink:href="#m5f534bd45c" y="257.560505"/>
     <use style="fill:#ff0000;stroke:#ff0000;" x="256.520069" xlink:href="#m5f534bd45c" y="257.560505"/>
    </g>
   </g>
   <g id="line2d_44">
    <path d="M 5.406747 294.16 
L 5.406747 286.840101 
L 17.307281 286.840101 
L 17.307281 286.317251 
L 24.268647 286.317251 
L 24.268647 285.271551 
L 33.038932 285.271551 
L 33.038932 284.748701 
L 38.81577 284.748701 
L 38.81577 284.225851 
L 46.575831 284.225851 
L 46.575831 283.703001 
L 70.762732 283.703001 
L 70.762732 283.180151 
L 73.245025 283.180151 
L 73.245025 282.657301 
L 76.264864 282.657301 
L 76.264864 282.134452 
L 76.809952 282.134452 
L 76.809952 281.611602 
L 82.663267 281.611602 
L 82.663267 281.088752 
L 91.203093 281.088752 
L 91.203093 279.520202 
L 93.783265 279.520202 
L 93.783265 278.997352 
L 95.761042 278.997352 
L 95.761042 278.474502 
L 117.205871 278.474502 
L 117.205871 277.428802 
L 121.790632 277.428802 
L 121.790632 276.905952 
L 122.004153 276.905952 
L 122.004153 276.383102 
L 124.056333 276.383102 
L 124.056333 275.860252 
L 135.680779 275.860252 
L 135.680779 275.337402 
L 137.33769 275.337402 
L 137.33769 274.814553 
L 156.697724 274.814553 
L 156.697724 273.768853 
L 157.186783 273.768853 
L 157.186783 273.246003 
L 168.348404 273.246003 
L 168.348404 272.723153 
L 175.248253 272.723153 
L 175.248253 272.200303 
L 177.009626 272.200303 
L 177.009626 271.677453 
L 179.36515 271.677453 
L 179.36515 271.154603 
L 187.254788 271.154603 
L 187.254788 270.631753 
L 188.653663 270.631753 
L 188.653663 270.108903 
L 189.08513 270.108903 
L 189.08513 269.586053 
L 191.282749 269.586053 
L 191.282749 269.063203 
L 194.690188 269.063203 
L 194.690188 268.540353 
L 196.298839 268.540353 
L 196.298839 268.017503 
L 211.676707 268.017503 
L 211.676707 267.494653 
L 216.926559 267.494653 
L 216.926559 266.971804 
L 217.785847 266.971804 
L 217.785847 266.448954 
L 219.840132 266.448954 
L 219.840132 265.926104 
L 220.202626 265.926104 
L 220.202626 265.403254 
L 222.327295 265.403254 
L 222.327295 264.880404 
L 222.586345 264.880404 
L 222.586345 264.357554 
L 226.544251 264.357554 
L 226.544251 263.834704 
L 235.342511 263.834704 
L 235.342511 263.311854 
L 235.603881 263.311854 
L 235.603881 262.789004 
L 239.436711 262.789004 
L 239.436711 262.266154 
L 239.846759 262.266154 
L 239.846759 261.743304 
L 240.459603 261.743304 
L 240.459603 261.220454 
L 240.611625 261.220454 
L 240.611625 260.697604 
L 240.743515 260.697604 
L 240.743515 260.174754 
L 242.898385 260.174754 
L 242.898385 259.651904 
L 243.745415 259.651904 
L 243.745415 259.129055 
L 244.137406 259.129055 
L 244.137406 258.606205 
L 244.552614 258.606205 
L 244.552614 258.083355 
L 256.520069 258.083355 
L 256.520069 257.560505 
L 333.569032 257.560505 
" style="fill:none;stroke:#ff0000;stroke-linecap:square;stroke-width:1.5;"/>
   </g>
   <g id="line2d_45">
    <defs>
     <path d="M -6 6 
L 6 6 
L 6 -6 
L -6 -6 
z
" id="m26c260bd19" style="stroke:#ff0000;stroke-linejoin:miter;stroke-width:1.5;"/>
    </defs>
    <g>
     <use style="fill-opacity:0;stroke:#ff0000;stroke-linejoin:miter;stroke-width:1.5;" x="95.761042" xlink:href="#m26c260bd19" y="278.474502"/>
     <use style="fill-opacity:0;stroke:#ff0000;stroke-linejoin:miter;stroke-width:1.5;" x="179.36515" xlink:href="#m26c260bd19" y="271.154603"/>
     <use style="fill-opacity:0;stroke:#ff0000;stroke-linejoin:miter;stroke-width:1.5;" x="244.552614" xlink:href="#m26c260bd19" y="258.606205"/>
     <use style="fill-opacity:0;stroke:#ff0000;stroke-linejoin:miter;stroke-width:1.5;" x="256.520069" xlink:href="#m26c260bd19" y="257.560505"/>
     <use style="fill-opacity:0;stroke:#ff0000;stroke-linejoin:miter;stroke-width:1.5;" x="256.520069" xlink:href="#m26c260bd19" y="257.560505"/>
     <use style="fill-opacity:0;stroke:#ff0000;stroke-linejoin:miter;stroke-width:1.5;" x="333.569032" xlink:href="#m26c260bd19" y="257.560505"/>
    </g>
   </g>
   <g id="line2d_46">
    <path style="fill:none;stroke:#ff0000;stroke-linecap:square;stroke-width:1.5;"/>
    <g/>
   </g>
   <g id="line2d_47">
    <path clip-path="url(#pb457865c67)" d="M 163.623253 273.246003 
" style="fill:none;stroke:#ff0000;stroke-linecap:square;stroke-width:1.5;"/>
    <defs>
     <path d="M -12 12 
L 12 -12 
M -12 -12 
L 12 12 
" id="m2404ac21b3" style="stroke:#ff0000;stroke-width:3;"/>
    </defs>
    <g clip-path="url(#pb457865c67)">
     <use style="fill:#ff0000;stroke:#ff0000;stroke-width:3;" x="163.623253" xlink:href="#m2404ac21b3" y="273.246003"/>
    </g>
   </g>
   <g id="line2d_48">
    <defs>
     <path d="M 0 1.5 
C 0.397805 1.5 0.77937 1.341951 1.06066 1.06066 
C 1.341951 0.77937 1.5 0.397805 1.5 0 
C 1.5 -0.397805 1.341951 -0.77937 1.06066 -1.06066 
C 0.77937 -1.341951 0.397805 -1.5 0 -1.5 
C -0.397805 -1.5 -0.77937 -1.341951 -1.06066 -1.06066 
C -1.341951 -0.77937 -1.5 -0.397805 -1.5 0 
C -1.5 0.397805 -1.341951 0.77937 -1.06066 1.06066 
C -0.77937 1.341951 -0.397805 1.5 0 1.5 
z
" id="m528a96c0b5" style="stroke:#bf00bf;"/>
    </defs>
    <g>
     <use style="fill:#bf00bf;stroke:#bf00bf;" x="141.235016" xlink:href="#m528a96c0b5" y="278.474502"/>
     <use style="fill:#bf00bf;stroke:#bf00bf;" x="141.235016" xlink:href="#m528a96c0b5" y="278.474502"/>
    </g>
   </g>
   <g id="line2d_49">
    <path d="M -1 290.50005 
L 5.406747 290.50005 
L 5.406747 288.931501 
L 17.307281 288.931501 
L 17.307281 287.885801 
L 24.268647 287.885801 
L 24.268647 286.840101 
L 29.207815 286.840101 
L 29.207815 285.271551 
L 33.038932 285.271551 
L 33.038932 284.225851 
L 38.81577 284.225851 
L 38.81577 283.703001 
L 104.86608 283.703001 
L 104.86608 283.180151 
L 105.783329 283.180151 
L 105.783329 282.657301 
L 113.615414 282.657301 
L 113.615414 282.134452 
L 118.554582 282.134452 
L 118.554582 281.611602 
L 118.973923 281.611602 
L 118.973923 280.565902 
L 126.344632 280.565902 
L 126.344632 280.043052 
L 133.395653 280.043052 
L 133.395653 279.520202 
L 140.04959 279.520202 
L 140.04959 278.997352 
L 141.235016 278.997352 
L 141.235016 278.474502 
L 333.569032 278.474502 
" style="fill:none;stroke:#bf00bf;stroke-linecap:square;stroke-width:1.5;"/>
   </g>
   <g id="line2d_50">
    <defs>
     <path d="M -0 8.485281 
L 8.485281 0 
L 0 -8.485281 
L -8.485281 -0 
z
" id="m7111dd7853" style="stroke:#bf00bf;stroke-linejoin:miter;stroke-width:1.5;"/>
    </defs>
    <g>
     <use style="fill-opacity:0;stroke:#bf00bf;stroke-linejoin:miter;stroke-width:1.5;" x="141.235016" xlink:href="#m7111dd7853" y="278.997352"/>
     <use style="fill-opacity:0;stroke:#bf00bf;stroke-linejoin:miter;stroke-width:1.5;" x="141.235016" xlink:href="#m7111dd7853" y="278.997352"/>
     <use style="fill-opacity:0;stroke:#bf00bf;stroke-linejoin:miter;stroke-width:1.5;" x="141.235016" xlink:href="#m7111dd7853" y="278.474502"/>
     <use style="fill-opacity:0;stroke:#bf00bf;stroke-linejoin:miter;stroke-width:1.5;" x="141.235016" xlink:href="#m7111dd7853" y="278.474502"/>
     <use style="fill-opacity:0;stroke:#bf00bf;stroke-linejoin:miter;stroke-width:1.5;" x="333.569032" xlink:href="#m7111dd7853" y="278.474502"/>
    </g>
   </g>
   <g id="line2d_51">
    <path style="fill:none;stroke:#bf00bf;stroke-linecap:square;stroke-width:1.5;"/>
    <g/>
   </g>
   <g id="line2d_52">
    <path clip-path="url(#pb457865c67)" d="M 96.372719 283.703001 
" style="fill:none;stroke:#bf00bf;stroke-linecap:square;stroke-width:1.5;"/>
    <defs>
     <path d="M -12 12 
L 12 -12 
M -12 -12 
L 12 12 
" id="m60897051db" style="stroke:#bf00bf;stroke-width:3;"/>
    </defs>
    <g clip-path="url(#pb457865c67)">
     <use style="fill:#bf00bf;stroke:#bf00bf;stroke-width:3;" x="96.372719" xlink:href="#m60897051db" y="283.703001"/>
    </g>
   </g>
   <g id="line2d_53">
    <path d="M 333.569032 278.474502 
L 364.009226 288.826931 
" style="fill:none;stroke:#bf00bf;stroke-linecap:square;stroke-width:1.5;"/>
    <g>
     <use style="fill-opacity:0;stroke:#bf00bf;stroke-linejoin:miter;stroke-width:1.5;" x="333.569032" xlink:href="#m7111dd7853" y="278.474502"/>
     <use style="fill-opacity:0;stroke:#bf00bf;stroke-linejoin:miter;stroke-width:1.5;" x="364.009226" xlink:href="#m7111dd7853" y="288.826931"/>
    </g>
   </g>
   <g id="line2d_54">
    <path d="M 333.569032 257.560505 
L 364.009226 237.629465 
" style="fill:none;stroke:#ff0000;stroke-linecap:square;stroke-width:1.5;"/>
    <g>
     <use style="fill-opacity:0;stroke:#ff0000;stroke-linejoin:miter;stroke-width:1.5;" x="333.569032" xlink:href="#m26c260bd19" y="257.560505"/>
     <use style="fill-opacity:0;stroke:#ff0000;stroke-linejoin:miter;stroke-width:1.5;" x="364.009226" xlink:href="#m26c260bd19" y="237.629465"/>
    </g>
   </g>
   <g id="line2d_55">
    <path d="M 333.569032 247.103506 
L 364.009226 186.432 
" style="fill:none;stroke:#000000;stroke-linecap:square;stroke-width:1.5;"/>
    <g>
     <use style="fill-opacity:0;stroke:#000000;stroke-width:1.5;" x="333.569032" xlink:href="#md7ae3f92c8" y="247.103506"/>
     <use style="fill-opacity:0;stroke:#000000;stroke-width:1.5;" x="364.009226" xlink:href="#md7ae3f92c8" y="186.432"/>
    </g>
   </g>
   <g id="line2d_56">
    <path d="M 333.569032 231.418008 
L 364.009226 135.234535 
" style="fill:none;stroke:#0000ff;stroke-linecap:square;stroke-width:1.5;"/>
    <g>
     <use style="fill-opacity:0;stroke:#0000ff;stroke-linejoin:bevel;stroke-width:1.5;" x="333.569032" xlink:href="#mcd2230865e" y="231.418008"/>
     <use style="fill-opacity:0;stroke:#0000ff;stroke-linejoin:bevel;stroke-width:1.5;" x="364.009226" xlink:href="#mcd2230865e" y="135.234535"/>
    </g>
   </g>
   <g id="line2d_57">
    <path d="M 333.569032 205.275512 
L 364.009226 84.037069 
" style="fill:none;stroke:#008000;stroke-linecap:square;stroke-width:1.5;"/>
    <g>
     <use style="fill-opacity:0;stroke:#008000;stroke-linejoin:miter;stroke-width:1.5;" x="333.569032" xlink:href="#mbd30e4adf6" y="205.275512"/>
     <use style="fill-opacity:0;stroke:#008000;stroke-linejoin:miter;stroke-width:1.5;" x="364.009226" xlink:href="#mbd30e4adf6" y="84.037069"/>
    </g>
   </g>
   <g id="line2d_58">
    <path d="M 333.569032 105.934024 
L 364.009226 32.839604 
" style="fill:none;stroke:#00bfbf;stroke-linecap:square;stroke-width:1.5;"/>
    <g>
     <use style="fill-opacity:0;stroke:#00bfbf;stroke-width:1.5;" x="333.569032" xlink:href="#m7bbfd85b2e" y="105.934024"/>
     <use style="fill-opacity:0;stroke:#00bfbf;stroke-width:1.5;" x="364.009226" xlink:href="#m7bbfd85b2e" y="32.839604"/>
    </g>
   </g>
   <g id="line2d_59">
    <path d="M 333.569032 294.16 
L 333.569032 27.506535 
" style="fill:none;stroke:#000000;stroke-linecap:square;stroke-width:1.5;"/>
   </g>
   <g id="patch_3">
    <path d="M 56.84 294.16 
L 56.84 24.84 
" style="fill:none;stroke:#000000;stroke-linecap:square;stroke-linejoin:miter;stroke-width:0.8;"/>
   </g>
   <g id="patch_4">
    <path d="M 399.984 294.16 
L 399.984 24.84 
" style="fill:none;stroke:#000000;stroke-linecap:square;stroke-linejoin:miter;stroke-width:0.8;"/>
   </g>
   <g id="patch_5">
    <path d="M 56.84 294.16 
L 399.984 294.16 
" style="fill:none;stroke:#000000;stroke-linecap:square;stroke-linejoin:miter;stroke-width:0.8;"/>
   </g>
   <g id="patch_6">
    <path d="M 56.84 24.84 
L 399.984 24.84 
" style="fill:none;stroke:#000000;stroke-linecap:square;stroke-linejoin:miter;stroke-width:0.8;"/>
   </g>
   <g id="text_14">
    <!-- 40-D -->
    <defs>
     <path d="M 19.671875 64.796875 
L 19.671875 8.109375 
L 31.59375 8.109375 
Q 46.6875 8.109375 53.6875 14.9375 
Q 60.6875 21.78125 60.6875 36.53125 
Q 60.6875 51.171875 53.6875 57.984375 
Q 46.6875 64.796875 31.59375 64.796875 
z
M 9.8125 72.90625 
L 30.078125 72.90625 
Q 51.265625 72.90625 61.171875 64.09375 
Q 71.09375 55.28125 71.09375 36.53125 
Q 71.09375 17.671875 61.125 8.828125 
Q 51.171875 0 30.078125 0 
L 9.8125 0 
z
" id="DejaVuSans-44"/>
    </defs>
    <g transform="translate(369.543806 293.517868)scale(0.17 -0.17)">
     <use xlink:href="#DejaVuSans-34"/>
     <use x="63.623047" xlink:href="#DejaVuSans-30"/>
     <use x="127.246094" xlink:href="#DejaVuSans-2d"/>
     <use x="163.330078" xlink:href="#DejaVuSans-44"/>
    </g>
   </g>
   <g id="text_15">
    <!-- 20-D -->
    <g transform="translate(369.543806 242.320403)scale(0.17 -0.17)">
     <use xlink:href="#DejaVuSans-32"/>
     <use x="63.623047" xlink:href="#DejaVuSans-30"/>
     <use x="127.246094" xlink:href="#DejaVuSans-2d"/>
     <use x="163.330078" xlink:href="#DejaVuSans-44"/>
    </g>
   </g>
   <g id="text_16">
    <!-- 10-D -->
    <g transform="translate(369.543806 191.122937)scale(0.17 -0.17)">
     <use xlink:href="#DejaVuSans-31"/>
     <use x="63.623047" xlink:href="#DejaVuSans-30"/>
     <use x="127.246094" xlink:href="#DejaVuSans-2d"/>
     <use x="163.330078" xlink:href="#DejaVuSans-44"/>
    </g>
   </g>
   <g id="text_17">
    <!-- 5-D -->
    <defs>
     <path d="M 10.796875 72.90625 
L 49.515625 72.90625 
L 49.515625 64.59375 
L 19.828125 64.59375 
L 19.828125 46.734375 
Q 21.96875 47.46875 24.109375 47.828125 
Q 26.265625 48.1875 28.421875 48.1875 
Q 40.625 48.1875 47.75 41.5 
Q 54.890625 34.8125 54.890625 23.390625 
Q 54.890625 11.625 47.5625 5.09375 
Q 40.234375 -1.421875 26.90625 -1.421875 
Q 22.3125 -1.421875 17.546875 -0.640625 
Q 12.796875 0.140625 7.71875 1.703125 
L 7.71875 11.625 
Q 12.109375 9.234375 16.796875 8.0625 
Q 21.484375 6.890625 26.703125 6.890625 
Q 35.15625 6.890625 40.078125 11.328125 
Q 45.015625 15.765625 45.015625 23.390625 
Q 45.015625 31 40.078125 35.4375 
Q 35.15625 39.890625 26.703125 39.890625 
Q 22.75 39.890625 18.8125 39.015625 
Q 14.890625 38.140625 10.796875 36.28125 
z
" id="DejaVuSans-35"/>
    </defs>
    <g transform="translate(369.543806 139.925472)scale(0.17 -0.17)">
     <use xlink:href="#DejaVuSans-35"/>
     <use x="63.623047" xlink:href="#DejaVuSans-2d"/>
     <use x="99.707031" xlink:href="#DejaVuSans-44"/>
    </g>
   </g>
   <g id="text_18">
    <!-- 3-D -->
    <defs>
     <path d="M 40.578125 39.3125 
Q 47.65625 37.796875 51.625 33 
Q 55.609375 28.21875 55.609375 21.1875 
Q 55.609375 10.40625 48.1875 4.484375 
Q 40.765625 -1.421875 27.09375 -1.421875 
Q 22.515625 -1.421875 17.65625 -0.515625 
Q 12.796875 0.390625 7.625 2.203125 
L 7.625 11.71875 
Q 11.71875 9.328125 16.59375 8.109375 
Q 21.484375 6.890625 26.8125 6.890625 
Q 36.078125 6.890625 40.9375 10.546875 
Q 45.796875 14.203125 45.796875 21.1875 
Q 45.796875 27.640625 41.28125 31.265625 
Q 36.765625 34.90625 28.71875 34.90625 
L 20.21875 34.90625 
L 20.21875 43.015625 
L 29.109375 43.015625 
Q 36.375 43.015625 40.234375 45.921875 
Q 44.09375 48.828125 44.09375 54.296875 
Q 44.09375 59.90625 40.109375 62.90625 
Q 36.140625 65.921875 28.71875 65.921875 
Q 24.65625 65.921875 20.015625 65.03125 
Q 15.375 64.15625 9.8125 62.3125 
L 9.8125 71.09375 
Q 15.4375 72.65625 20.34375 73.4375 
Q 25.25 74.21875 29.59375 74.21875 
Q 40.828125 74.21875 47.359375 69.109375 
Q 53.90625 64.015625 53.90625 55.328125 
Q 53.90625 49.265625 50.4375 45.09375 
Q 46.96875 40.921875 40.578125 39.3125 
z
" id="DejaVuSans-33"/>
    </defs>
    <g transform="translate(369.543806 88.728007)scale(0.17 -0.17)">
     <use xlink:href="#DejaVuSans-33"/>
     <use x="63.623047" xlink:href="#DejaVuSans-2d"/>
     <use x="99.707031" xlink:href="#DejaVuSans-44"/>
    </g>
   </g>
   <g id="text_19">
    <!-- 2-D -->
    <g transform="translate(369.543806 37.530541)scale(0.17 -0.17)">
     <use xlink:href="#DejaVuSans-32"/>
     <use x="63.623047" xlink:href="#DejaVuSans-2d"/>
     <use x="99.707031" xlink:href="#DejaVuSans-44"/>
    </g>
   </g>
   <g id="text_20">
    <!-- bbob f16 -->
    <defs>
     <path d="M 48.6875 27.296875 
Q 48.6875 37.203125 44.609375 42.84375 
Q 40.53125 48.484375 33.40625 48.484375 
Q 26.265625 48.484375 22.1875 42.84375 
Q 18.109375 37.203125 18.109375 27.296875 
Q 18.109375 17.390625 22.1875 11.75 
Q 26.265625 6.109375 33.40625 6.109375 
Q 40.53125 6.109375 44.609375 11.75 
Q 48.6875 17.390625 48.6875 27.296875 
z
M 18.109375 46.390625 
Q 20.953125 51.265625 25.265625 53.625 
Q 29.59375 56 35.59375 56 
Q 45.5625 56 51.78125 48.09375 
Q 58.015625 40.1875 58.015625 27.296875 
Q 58.015625 14.40625 51.78125 6.484375 
Q 45.5625 -1.421875 35.59375 -1.421875 
Q 29.59375 -1.421875 25.265625 0.953125 
Q 20.953125 3.328125 18.109375 8.203125 
L 18.109375 0 
L 9.078125 0 
L 9.078125 75.984375 
L 18.109375 75.984375 
z
" id="DejaVuSans-62"/>
    </defs>
    <g transform="translate(60.27144 35.283606)scale(0.102 -0.102)">
     <use xlink:href="#DejaVuSans-62"/>
     <use x="63.476562" xlink:href="#DejaVuSans-62"/>
     <use x="126.953125" xlink:href="#DejaVuSans-6f"/>
     <use x="188.134766" xlink:href="#DejaVuSans-62"/>
     <use x="251.611328" xlink:href="#DejaVuSans-20"/>
     <use x="283.398438" xlink:href="#DejaVuSans-66"/>
     <use x="318.603516" xlink:href="#DejaVuSans-31"/>
     <use x="382.226562" xlink:href="#DejaVuSans-36"/>
    </g>
    <!-- 51 targets: 100..1e-08 -->
    <defs>
     <path d="M 11.71875 12.40625 
L 22.015625 12.40625 
L 22.015625 0 
L 11.71875 0 
z
M 11.71875 51.703125 
L 22.015625 51.703125 
L 22.015625 39.3125 
L 11.71875 39.3125 
z
" id="DejaVuSans-3a"/>
    </defs>
    <g transform="translate(60.27144 46.705375)scale(0.102 -0.102)">
     <use xlink:href="#DejaVuSans-35"/>
     <use x="63.623047" xlink:href="#DejaVuSans-31"/>
     <use x="127.246094" xlink:href="#DejaVuSans-20"/>
     <use x="159.033203" xlink:href="#DejaVuSans-74"/>
     <use x="198.242188" xlink:href="#DejaVuSans-61"/>
     <use x="259.521484" xlink:href="#DejaVuSans-72"/>
     <use x="300.619141" xlink:href="#DejaVuSans-67"/>
     <use x="364.095703" xlink:href="#DejaVuSans-65"/>
     <use x="425.619141" xlink:href="#DejaVuSans-74"/>
     <use x="464.828125" xlink:href="#DejaVuSans-73"/>
     <use x="516.927734" xlink:href="#DejaVuSans-3a"/>
     <use x="550.619141" xlink:href="#DejaVuSans-20"/>
     <use x="582.40625" xlink:href="#DejaVuSans-31"/>
     <use x="646.029297" xlink:href="#DejaVuSans-30"/>
     <use x="709.652344" xlink:href="#DejaVuSans-30"/>
     <use x="773.275391" xlink:href="#DejaVuSans-2e"/>
     <use x="805.0625" xlink:href="#DejaVuSans-2e"/>
     <use x="836.849609" xlink:href="#DejaVuSans-31"/>
     <use x="900.472656" xlink:href="#DejaVuSans-65"/>
     <use x="961.996094" xlink:href="#DejaVuSans-2d"/>
     <use x="998.080078" xlink:href="#DejaVuSans-30"/>
     <use x="1061.703125" xlink:href="#DejaVuSans-38"/>
    </g>
    <!-- 15 instances -->
    <g transform="translate(60.27144 58.127144)scale(0.102 -0.102)">
     <use xlink:href="#DejaVuSans-31"/>
     <use x="63.623047" xlink:href="#DejaVuSans-35"/>
     <use x="127.246094" xlink:href="#DejaVuSans-20"/>
     <use x="159.033203" xlink:href="#DejaVuSans-69"/>
     <use x="186.816406" xlink:href="#DejaVuSans-6e"/>
     <use x="250.195312" xlink:href="#DejaVuSans-73"/>
     <use x="302.294922" xlink:href="#DejaVuSans-74"/>
     <use x="341.503906" xlink:href="#DejaVuSans-61"/>
     <use x="402.783203" xlink:href="#DejaVuSans-6e"/>
     <use x="466.162109" xlink:href="#DejaVuSans-63"/>
     <use x="521.142578" xlink:href="#DejaVuSans-65"/>
     <use x="582.666016" xlink:href="#DejaVuSans-73"/>
    </g>
   </g>
   <g id="text_21">
    <!-- v2.2.1.10 -->
    <g style="fill:#808080;" transform="translate(204.779188 289.387113)scale(0.1 -0.1)">
     <use xlink:href="#DejaVuSans-76"/>
     <use x="59.179688" xlink:href="#DejaVuSans-32"/>
     <use x="122.802734" xlink:href="#DejaVuSans-2e"/>
     <use x="154.589844" xlink:href="#DejaVuSans-32"/>
     <use x="218.212891" xlink:href="#DejaVuSans-2e"/>
     <use x="250" xlink:href="#DejaVuSans-31"/>
     <use x="313.623047" xlink:href="#DejaVuSans-2e"/>
     <use x="345.410156" xlink:href="#DejaVuSans-31"/>
     <use x="409.033203" xlink:href="#DejaVuSans-30"/>
    </g>
   </g>
   <g id="text_22">
    <!-- 16 Weierstrass -->
    <defs>
     <path d="M 3.328125 72.90625 
L 13.28125 72.90625 
L 28.609375 11.28125 
L 43.890625 72.90625 
L 54.984375 72.90625 
L 70.3125 11.28125 
L 85.59375 72.90625 
L 95.609375 72.90625 
L 77.296875 0 
L 64.890625 0 
L 49.515625 63.28125 
L 33.984375 0 
L 21.578125 0 
z
" id="DejaVuSans-57"/>
    </defs>
    <g transform="translate(153.646375 18.84)scale(0.2 -0.2)">
     <use xlink:href="#DejaVuSans-31"/>
     <use x="63.623047" xlink:href="#DejaVuSans-36"/>
     <use x="127.246094" xlink:href="#DejaVuSans-20"/>
     <use x="159.033203" xlink:href="#DejaVuSans-57"/>
     <use x="257.832031" xlink:href="#DejaVuSans-65"/>
     <use x="319.355469" xlink:href="#DejaVuSans-69"/>
     <use x="347.138672" xlink:href="#DejaVuSans-65"/>
     <use x="408.662109" xlink:href="#DejaVuSans-72"/>
     <use x="449.775391" xlink:href="#DejaVuSans-73"/>
     <use x="501.875" xlink:href="#DejaVuSans-74"/>
     <use x="541.083984" xlink:href="#DejaVuSans-72"/>
     <use x="582.197266" xlink:href="#DejaVuSans-61"/>
     <use x="643.476562" xlink:href="#DejaVuSans-73"/>
     <use x="695.576172" xlink:href="#DejaVuSans-73"/>
    </g>
   </g>
  </g>
 </g>
 <defs>
  <clipPath id="pb457865c67">
   <rect height="269.32" width="343.144" x="56.84" y="24.84"/>
  </clipPath>
 </defs>
</svg>
