<?xml version="1.0" encoding="utf-8" standalone="no"?>
<!DOCTYPE svg PUBLIC "-//W3C//DTD SVG 1.1//EN"
  "http://www.w3.org/Graphics/SVG/1.1/DTD/svg11.dtd">
<!-- Created with matplotlib (http://matplotlib.org/) -->
<svg height="345.6pt" version="1.1" viewBox="0 0 460.8 345.6" width="460.8pt" xmlns="http://www.w3.org/2000/svg" xmlns:xlink="http://www.w3.org/1999/xlink">
 <defs>
  <style type="text/css">
*{stroke-linecap:butt;stroke-linejoin:round;}
  </style>
 </defs>
 <g id="figure_1">
  <g id="patch_1">
   <path d="M 0 345.6 
L 460.8 345.6 
L 460.8 0 
L 0 0 
z
" style="fill:#ffffff;"/>
  </g>
  <g id="axes_1">
   <g id="patch_2">
    <path d="M 56.84 294.16 
L 399.984 294.16 
L 399.984 6.125228 
L 56.84 6.125228 
z
" style="fill:#ffffff;"/>
   </g>
   <g id="matplotlib.axis_1">
    <g id="xtick_1">
     <g id="line2d_1">
      <path clip-path="url(#pb925b0c423)" d="M 56.84 294.16 
L 56.84 6.125228 
" style="fill:none;stroke:#b0b0b0;stroke-linecap:square;stroke-width:0.8;"/>
     </g>
     <g id="line2d_2">
      <defs>
       <path d="M 0 0 
L 0 3.5 
" id="m32f54c84d1" style="stroke:#000000;stroke-width:0.8;"/>
      </defs>
      <g>
       <use style="stroke:#000000;stroke-width:0.8;" x="56.84" xlink:href="#m32f54c84d1" y="294.16"/>
      </g>
     </g>
     <g id="text_1">
      <!-- 0 -->
      <defs>
       <path d="M 31.78125 66.40625 
Q 24.171875 66.40625 20.328125 58.90625 
Q 16.5 51.421875 16.5 36.375 
Q 16.5 21.390625 20.328125 13.890625 
Q 24.171875 6.390625 31.78125 6.390625 
Q 39.453125 6.390625 43.28125 13.890625 
Q 47.125 21.390625 47.125 36.375 
Q 47.125 51.421875 43.28125 58.90625 
Q 39.453125 66.40625 31.78125 66.40625 
z
M 31.78125 74.21875 
Q 44.046875 74.21875 50.515625 64.515625 
Q 56.984375 54.828125 56.984375 36.375 
Q 56.984375 17.96875 50.515625 8.265625 
Q 44.046875 -1.421875 31.78125 -1.421875 
Q 19.53125 -1.421875 13.0625 8.265625 
Q 6.59375 17.96875 6.59375 36.375 
Q 6.59375 54.828125 13.0625 64.515625 
Q 19.53125 74.21875 31.78125 74.21875 
z
" id="DejaVuSans-30"/>
      </defs>
      <g transform="translate(50.4775 316.356875)scale(0.2 -0.2)">
       <use xlink:href="#DejaVuSans-30"/>
      </g>
     </g>
    </g>
    <g id="xtick_2">
     <g id="line2d_3">
      <path clip-path="url(#pb925b0c423)" d="M 135.905438 294.16 
L 135.905438 6.125228 
" style="fill:none;stroke:#b0b0b0;stroke-linecap:square;stroke-width:0.8;"/>
     </g>
     <g id="line2d_4">
      <g>
       <use style="stroke:#000000;stroke-width:0.8;" x="135.905438" xlink:href="#m32f54c84d1" y="294.16"/>
      </g>
     </g>
     <g id="text_2">
      <!-- 2 -->
      <defs>
       <path d="M 19.1875 8.296875 
L 53.609375 8.296875 
L 53.609375 0 
L 7.328125 0 
L 7.328125 8.296875 
Q 12.9375 14.109375 22.625 23.890625 
Q 32.328125 33.6875 34.8125 36.53125 
Q 39.546875 41.84375 41.421875 45.53125 
Q 43.3125 49.21875 43.3125 52.78125 
Q 43.3125 58.59375 39.234375 62.25 
Q 35.15625 65.921875 28.609375 65.921875 
Q 23.96875 65.921875 18.8125 64.3125 
Q 13.671875 62.703125 7.8125 59.421875 
L 7.8125 69.390625 
Q 13.765625 71.78125 18.9375 73 
Q 24.125 74.21875 28.421875 74.21875 
Q 39.75 74.21875 46.484375 68.546875 
Q 53.21875 62.890625 53.21875 53.421875 
Q 53.21875 48.921875 51.53125 44.890625 
Q 49.859375 40.875 45.40625 35.40625 
Q 44.1875 33.984375 37.640625 27.21875 
Q 31.109375 20.453125 19.1875 8.296875 
z
" id="DejaVuSans-32"/>
      </defs>
      <g transform="translate(129.542938 316.356875)scale(0.2 -0.2)">
       <use xlink:href="#DejaVuSans-32"/>
      </g>
     </g>
    </g>
    <g id="xtick_3">
     <g id="line2d_5">
      <path clip-path="url(#pb925b0c423)" d="M 214.970876 294.16 
L 214.970876 6.125228 
" style="fill:none;stroke:#b0b0b0;stroke-linecap:square;stroke-width:0.8;"/>
     </g>
     <g id="line2d_6">
      <g>
       <use style="stroke:#000000;stroke-width:0.8;" x="214.970876" xlink:href="#m32f54c84d1" y="294.16"/>
      </g>
     </g>
     <g id="text_3">
      <!-- 4 -->
      <defs>
       <path d="M 37.796875 64.3125 
L 12.890625 25.390625 
L 37.796875 25.390625 
z
M 35.203125 72.90625 
L 47.609375 72.90625 
L 47.609375 25.390625 
L 58.015625 25.390625 
L 58.015625 17.1875 
L 47.609375 17.1875 
L 47.609375 0 
L 37.796875 0 
L 37.796875 17.1875 
L 4.890625 17.1875 
L 4.890625 26.703125 
z
" id="DejaVuSans-34"/>
      </defs>
      <g transform="translate(208.608376 316.356875)scale(0.2 -0.2)">
       <use xlink:href="#DejaVuSans-34"/>
      </g>
     </g>
    </g>
    <g id="xtick_4">
     <g id="line2d_7">
      <path clip-path="url(#pb925b0c423)" d="M 294.036313 294.16 
L 294.036313 6.125228 
" style="fill:none;stroke:#b0b0b0;stroke-linecap:square;stroke-width:0.8;"/>
     </g>
     <g id="line2d_8">
      <g>
       <use style="stroke:#000000;stroke-width:0.8;" x="294.036313" xlink:href="#m32f54c84d1" y="294.16"/>
      </g>
     </g>
     <g id="text_4">
      <!-- 6 -->
      <defs>
       <path d="M 33.015625 40.375 
Q 26.375 40.375 22.484375 35.828125 
Q 18.609375 31.296875 18.609375 23.390625 
Q 18.609375 15.53125 22.484375 10.953125 
Q 26.375 6.390625 33.015625 6.390625 
Q 39.65625 6.390625 43.53125 10.953125 
Q 47.40625 15.53125 47.40625 23.390625 
Q 47.40625 31.296875 43.53125 35.828125 
Q 39.65625 40.375 33.015625 40.375 
z
M 52.59375 71.296875 
L 52.59375 62.3125 
Q 48.875 64.0625 45.09375 64.984375 
Q 41.3125 65.921875 37.59375 65.921875 
Q 27.828125 65.921875 22.671875 59.328125 
Q 17.53125 52.734375 16.796875 39.40625 
Q 19.671875 43.65625 24.015625 45.921875 
Q 28.375 48.1875 33.59375 48.1875 
Q 44.578125 48.1875 50.953125 41.515625 
Q 57.328125 34.859375 57.328125 23.390625 
Q 57.328125 12.15625 50.6875 5.359375 
Q 44.046875 -1.421875 33.015625 -1.421875 
Q 20.359375 -1.421875 13.671875 8.265625 
Q 6.984375 17.96875 6.984375 36.375 
Q 6.984375 53.65625 15.1875 63.9375 
Q 23.390625 74.21875 37.203125 74.21875 
Q 40.921875 74.21875 44.703125 73.484375 
Q 48.484375 72.75 52.59375 71.296875 
z
" id="DejaVuSans-36"/>
      </defs>
      <g transform="translate(287.673813 316.356875)scale(0.2 -0.2)">
       <use xlink:href="#DejaVuSans-36"/>
      </g>
     </g>
    </g>
    <g id="xtick_5">
     <g id="line2d_9">
      <path clip-path="url(#pb925b0c423)" d="M 373.101751 294.16 
L 373.101751 6.125228 
" style="fill:none;stroke:#b0b0b0;stroke-linecap:square;stroke-width:0.8;"/>
     </g>
     <g id="line2d_10">
      <g>
       <use style="stroke:#000000;stroke-width:0.8;" x="373.101751" xlink:href="#m32f54c84d1" y="294.16"/>
      </g>
     </g>
     <g id="text_5">
      <!-- 8 -->
      <defs>
       <path d="M 31.78125 34.625 
Q 24.75 34.625 20.71875 30.859375 
Q 16.703125 27.09375 16.703125 20.515625 
Q 16.703125 13.921875 20.71875 10.15625 
Q 24.75 6.390625 31.78125 6.390625 
Q 38.8125 6.390625 42.859375 10.171875 
Q 46.921875 13.96875 46.921875 20.515625 
Q 46.921875 27.09375 42.890625 30.859375 
Q 38.875 34.625 31.78125 34.625 
z
M 21.921875 38.8125 
Q 15.578125 40.375 12.03125 44.71875 
Q 8.5 49.078125 8.5 55.328125 
Q 8.5 64.0625 14.71875 69.140625 
Q 20.953125 74.21875 31.78125 74.21875 
Q 42.671875 74.21875 48.875 69.140625 
Q 55.078125 64.0625 55.078125 55.328125 
Q 55.078125 49.078125 51.53125 44.71875 
Q 48 40.375 41.703125 38.8125 
Q 48.828125 37.15625 52.796875 32.3125 
Q 56.78125 27.484375 56.78125 20.515625 
Q 56.78125 9.90625 50.3125 4.234375 
Q 43.84375 -1.421875 31.78125 -1.421875 
Q 19.734375 -1.421875 13.25 4.234375 
Q 6.78125 9.90625 6.78125 20.515625 
Q 6.78125 27.484375 10.78125 32.3125 
Q 14.796875 37.15625 21.921875 38.8125 
z
M 18.3125 54.390625 
Q 18.3125 48.734375 21.84375 45.5625 
Q 25.390625 42.390625 31.78125 42.390625 
Q 38.140625 42.390625 41.71875 45.5625 
Q 45.3125 48.734375 45.3125 54.390625 
Q 45.3125 60.0625 41.71875 63.234375 
Q 38.140625 66.40625 31.78125 66.40625 
Q 25.390625 66.40625 21.84375 63.234375 
Q 18.3125 60.0625 18.3125 54.390625 
z
" id="DejaVuSans-38"/>
      </defs>
      <g transform="translate(366.739251 316.356875)scale(0.2 -0.2)">
       <use xlink:href="#DejaVuSans-38"/>
      </g>
     </g>
    </g>
    <g id="text_6">
     <!-- log10(# f-evals / dimension) -->
     <defs>
      <path d="M 9.421875 75.984375 
L 18.40625 75.984375 
L 18.40625 0 
L 9.421875 0 
z
" id="DejaVuSans-6c"/>
      <path d="M 30.609375 48.390625 
Q 23.390625 48.390625 19.1875 42.75 
Q 14.984375 37.109375 14.984375 27.296875 
Q 14.984375 17.484375 19.15625 11.84375 
Q 23.34375 6.203125 30.609375 6.203125 
Q 37.796875 6.203125 41.984375 11.859375 
Q 46.1875 17.53125 46.1875 27.296875 
Q 46.1875 37.015625 41.984375 42.703125 
Q 37.796875 48.390625 30.609375 48.390625 
z
M 30.609375 56 
Q 42.328125 56 49.015625 48.375 
Q 55.71875 40.765625 55.71875 27.296875 
Q 55.71875 13.875 49.015625 6.21875 
Q 42.328125 -1.421875 30.609375 -1.421875 
Q 18.84375 -1.421875 12.171875 6.21875 
Q 5.515625 13.875 5.515625 27.296875 
Q 5.515625 40.765625 12.171875 48.375 
Q 18.84375 56 30.609375 56 
z
" id="DejaVuSans-6f"/>
      <path d="M 45.40625 27.984375 
Q 45.40625 37.75 41.375 43.109375 
Q 37.359375 48.484375 30.078125 48.484375 
Q 22.859375 48.484375 18.828125 43.109375 
Q 14.796875 37.75 14.796875 27.984375 
Q 14.796875 18.265625 18.828125 12.890625 
Q 22.859375 7.515625 30.078125 7.515625 
Q 37.359375 7.515625 41.375 12.890625 
Q 45.40625 18.265625 45.40625 27.984375 
z
M 54.390625 6.78125 
Q 54.390625 -7.171875 48.1875 -13.984375 
Q 42 -20.796875 29.203125 -20.796875 
Q 24.46875 -20.796875 20.265625 -20.09375 
Q 16.0625 -19.390625 12.109375 -17.921875 
L 12.109375 -9.1875 
Q 16.0625 -11.328125 19.921875 -12.34375 
Q 23.78125 -13.375 27.78125 -13.375 
Q 36.625 -13.375 41.015625 -8.765625 
Q 45.40625 -4.15625 45.40625 5.171875 
L 45.40625 9.625 
Q 42.625 4.78125 38.28125 2.390625 
Q 33.9375 0 27.875 0 
Q 17.828125 0 11.671875 7.65625 
Q 5.515625 15.328125 5.515625 27.984375 
Q 5.515625 40.671875 11.671875 48.328125 
Q 17.828125 56 27.875 56 
Q 33.9375 56 38.28125 53.609375 
Q 42.625 51.21875 45.40625 46.390625 
L 45.40625 54.6875 
L 54.390625 54.6875 
z
" id="DejaVuSans-67"/>
      <path d="M 12.40625 8.296875 
L 28.515625 8.296875 
L 28.515625 63.921875 
L 10.984375 60.40625 
L 10.984375 69.390625 
L 28.421875 72.90625 
L 38.28125 72.90625 
L 38.28125 8.296875 
L 54.390625 8.296875 
L 54.390625 0 
L 12.40625 0 
z
" id="DejaVuSans-31"/>
      <path d="M 31 75.875 
Q 24.46875 64.65625 21.28125 53.65625 
Q 18.109375 42.671875 18.109375 31.390625 
Q 18.109375 20.125 21.3125 9.0625 
Q 24.515625 -2 31 -13.1875 
L 23.1875 -13.1875 
Q 15.875 -1.703125 12.234375 9.375 
Q 8.59375 20.453125 8.59375 31.390625 
Q 8.59375 42.28125 12.203125 53.3125 
Q 15.828125 64.359375 23.1875 75.875 
z
" id="DejaVuSans-28"/>
      <path d="M 51.125 44 
L 36.921875 44 
L 32.8125 27.6875 
L 47.125 27.6875 
z
M 43.796875 71.78125 
L 38.71875 51.515625 
L 52.984375 51.515625 
L 58.109375 71.78125 
L 65.921875 71.78125 
L 60.890625 51.515625 
L 76.125 51.515625 
L 76.125 44 
L 58.984375 44 
L 54.984375 27.6875 
L 70.515625 27.6875 
L 70.515625 20.21875 
L 53.078125 20.21875 
L 48 0 
L 40.1875 0 
L 45.21875 20.21875 
L 30.90625 20.21875 
L 25.875 0 
L 18.015625 0 
L 23.09375 20.21875 
L 7.71875 20.21875 
L 7.71875 27.6875 
L 24.90625 27.6875 
L 29 44 
L 13.28125 44 
L 13.28125 51.515625 
L 30.90625 51.515625 
L 35.890625 71.78125 
z
" id="DejaVuSans-23"/>
      <path id="DejaVuSans-20"/>
      <path d="M 37.109375 75.984375 
L 37.109375 68.5 
L 28.515625 68.5 
Q 23.6875 68.5 21.796875 66.546875 
Q 19.921875 64.59375 19.921875 59.515625 
L 19.921875 54.6875 
L 34.71875 54.6875 
L 34.71875 47.703125 
L 19.921875 47.703125 
L 19.921875 0 
L 10.890625 0 
L 10.890625 47.703125 
L 2.296875 47.703125 
L 2.296875 54.6875 
L 10.890625 54.6875 
L 10.890625 58.5 
Q 10.890625 67.625 15.140625 71.796875 
Q 19.390625 75.984375 28.609375 75.984375 
z
" id="DejaVuSans-66"/>
      <path d="M 4.890625 31.390625 
L 31.203125 31.390625 
L 31.203125 23.390625 
L 4.890625 23.390625 
z
" id="DejaVuSans-2d"/>
      <path d="M 56.203125 29.59375 
L 56.203125 25.203125 
L 14.890625 25.203125 
Q 15.484375 15.921875 20.484375 11.0625 
Q 25.484375 6.203125 34.421875 6.203125 
Q 39.59375 6.203125 44.453125 7.46875 
Q 49.3125 8.734375 54.109375 11.28125 
L 54.109375 2.78125 
Q 49.265625 0.734375 44.1875 -0.34375 
Q 39.109375 -1.421875 33.890625 -1.421875 
Q 20.796875 -1.421875 13.15625 6.1875 
Q 5.515625 13.8125 5.515625 26.8125 
Q 5.515625 40.234375 12.765625 48.109375 
Q 20.015625 56 32.328125 56 
Q 43.359375 56 49.78125 48.890625 
Q 56.203125 41.796875 56.203125 29.59375 
z
M 47.21875 32.234375 
Q 47.125 39.59375 43.09375 43.984375 
Q 39.0625 48.390625 32.421875 48.390625 
Q 24.90625 48.390625 20.390625 44.140625 
Q 15.875 39.890625 15.1875 32.171875 
z
" id="DejaVuSans-65"/>
      <path d="M 2.984375 54.6875 
L 12.5 54.6875 
L 29.59375 8.796875 
L 46.6875 54.6875 
L 56.203125 54.6875 
L 35.6875 0 
L 23.484375 0 
z
" id="DejaVuSans-76"/>
      <path d="M 34.28125 27.484375 
Q 23.390625 27.484375 19.1875 25 
Q 14.984375 22.515625 14.984375 16.5 
Q 14.984375 11.71875 18.140625 8.90625 
Q 21.296875 6.109375 26.703125 6.109375 
Q 34.1875 6.109375 38.703125 11.40625 
Q 43.21875 16.703125 43.21875 25.484375 
L 43.21875 27.484375 
z
M 52.203125 31.203125 
L 52.203125 0 
L 43.21875 0 
L 43.21875 8.296875 
Q 40.140625 3.328125 35.546875 0.953125 
Q 30.953125 -1.421875 24.3125 -1.421875 
Q 15.921875 -1.421875 10.953125 3.296875 
Q 6 8.015625 6 15.921875 
Q 6 25.140625 12.171875 29.828125 
Q 18.359375 34.515625 30.609375 34.515625 
L 43.21875 34.515625 
L 43.21875 35.40625 
Q 43.21875 41.609375 39.140625 45 
Q 35.0625 48.390625 27.6875 48.390625 
Q 23 48.390625 18.546875 47.265625 
Q 14.109375 46.140625 10.015625 43.890625 
L 10.015625 52.203125 
Q 14.9375 54.109375 19.578125 55.046875 
Q 24.21875 56 28.609375 56 
Q 40.484375 56 46.34375 49.84375 
Q 52.203125 43.703125 52.203125 31.203125 
z
" id="DejaVuSans-61"/>
      <path d="M 44.28125 53.078125 
L 44.28125 44.578125 
Q 40.484375 46.53125 36.375 47.5 
Q 32.28125 48.484375 27.875 48.484375 
Q 21.1875 48.484375 17.84375 46.4375 
Q 14.5 44.390625 14.5 40.28125 
Q 14.5 37.15625 16.890625 35.375 
Q 19.28125 33.59375 26.515625 31.984375 
L 29.59375 31.296875 
Q 39.15625 29.25 43.1875 25.515625 
Q 47.21875 21.78125 47.21875 15.09375 
Q 47.21875 7.46875 41.1875 3.015625 
Q 35.15625 -1.421875 24.609375 -1.421875 
Q 20.21875 -1.421875 15.453125 -0.5625 
Q 10.6875 0.296875 5.421875 2 
L 5.421875 11.28125 
Q 10.40625 8.6875 15.234375 7.390625 
Q 20.0625 6.109375 24.8125 6.109375 
Q 31.15625 6.109375 34.5625 8.28125 
Q 37.984375 10.453125 37.984375 14.40625 
Q 37.984375 18.0625 35.515625 20.015625 
Q 33.0625 21.96875 24.703125 23.78125 
L 21.578125 24.515625 
Q 13.234375 26.265625 9.515625 29.90625 
Q 5.8125 33.546875 5.8125 39.890625 
Q 5.8125 47.609375 11.28125 51.796875 
Q 16.75 56 26.8125 56 
Q 31.78125 56 36.171875 55.265625 
Q 40.578125 54.546875 44.28125 53.078125 
z
" id="DejaVuSans-73"/>
      <path d="M 25.390625 72.90625 
L 33.6875 72.90625 
L 8.296875 -9.28125 
L 0 -9.28125 
z
" id="DejaVuSans-2f"/>
      <path d="M 45.40625 46.390625 
L 45.40625 75.984375 
L 54.390625 75.984375 
L 54.390625 0 
L 45.40625 0 
L 45.40625 8.203125 
Q 42.578125 3.328125 38.25 0.953125 
Q 33.9375 -1.421875 27.875 -1.421875 
Q 17.96875 -1.421875 11.734375 6.484375 
Q 5.515625 14.40625 5.515625 27.296875 
Q 5.515625 40.1875 11.734375 48.09375 
Q 17.96875 56 27.875 56 
Q 33.9375 56 38.25 53.625 
Q 42.578125 51.265625 45.40625 46.390625 
z
M 14.796875 27.296875 
Q 14.796875 17.390625 18.875 11.75 
Q 22.953125 6.109375 30.078125 6.109375 
Q 37.203125 6.109375 41.296875 11.75 
Q 45.40625 17.390625 45.40625 27.296875 
Q 45.40625 37.203125 41.296875 42.84375 
Q 37.203125 48.484375 30.078125 48.484375 
Q 22.953125 48.484375 18.875 42.84375 
Q 14.796875 37.203125 14.796875 27.296875 
z
" id="DejaVuSans-64"/>
      <path d="M 9.421875 54.6875 
L 18.40625 54.6875 
L 18.40625 0 
L 9.421875 0 
z
M 9.421875 75.984375 
L 18.40625 75.984375 
L 18.40625 64.59375 
L 9.421875 64.59375 
z
" id="DejaVuSans-69"/>
      <path d="M 52 44.1875 
Q 55.375 50.25 60.0625 53.125 
Q 64.75 56 71.09375 56 
Q 79.640625 56 84.28125 50.015625 
Q 88.921875 44.046875 88.921875 33.015625 
L 88.921875 0 
L 79.890625 0 
L 79.890625 32.71875 
Q 79.890625 40.578125 77.09375 44.375 
Q 74.3125 48.1875 68.609375 48.1875 
Q 61.625 48.1875 57.5625 43.546875 
Q 53.515625 38.921875 53.515625 30.90625 
L 53.515625 0 
L 44.484375 0 
L 44.484375 32.71875 
Q 44.484375 40.625 41.703125 44.40625 
Q 38.921875 48.1875 33.109375 48.1875 
Q 26.21875 48.1875 22.15625 43.53125 
Q 18.109375 38.875 18.109375 30.90625 
L 18.109375 0 
L 9.078125 0 
L 9.078125 54.6875 
L 18.109375 54.6875 
L 18.109375 46.1875 
Q 21.1875 51.21875 25.484375 53.609375 
Q 29.78125 56 35.6875 56 
Q 41.65625 56 45.828125 52.96875 
Q 50 49.953125 52 44.1875 
z
" id="DejaVuSans-6d"/>
      <path d="M 54.890625 33.015625 
L 54.890625 0 
L 45.90625 0 
L 45.90625 32.71875 
Q 45.90625 40.484375 42.875 44.328125 
Q 39.84375 48.1875 33.796875 48.1875 
Q 26.515625 48.1875 22.3125 43.546875 
Q 18.109375 38.921875 18.109375 30.90625 
L 18.109375 0 
L 9.078125 0 
L 9.078125 54.6875 
L 18.109375 54.6875 
L 18.109375 46.1875 
Q 21.34375 51.125 25.703125 53.5625 
Q 30.078125 56 35.796875 56 
Q 45.21875 56 50.046875 50.171875 
Q 54.890625 44.34375 54.890625 33.015625 
z
" id="DejaVuSans-6e"/>
      <path d="M 8.015625 75.875 
L 15.828125 75.875 
Q 23.140625 64.359375 26.78125 53.3125 
Q 30.421875 42.28125 30.421875 31.390625 
Q 30.421875 20.453125 26.78125 9.375 
Q 23.140625 -1.703125 15.828125 -13.1875 
L 8.015625 -13.1875 
Q 14.5 -2 17.703125 9.0625 
Q 20.90625 20.125 20.90625 31.390625 
Q 20.90625 42.671875 17.703125 53.65625 
Q 14.5 64.65625 8.015625 75.875 
z
" id="DejaVuSans-29"/>
     </defs>
     <g transform="translate(107.571219 337.433594)scale(0.17 -0.17)">
      <use xlink:href="#DejaVuSans-6c"/>
      <use x="27.783203" xlink:href="#DejaVuSans-6f"/>
      <use x="88.964844" xlink:href="#DejaVuSans-67"/>
      <use x="152.441406" xlink:href="#DejaVuSans-31"/>
      <use x="216.064453" xlink:href="#DejaVuSans-30"/>
      <use x="279.6875" xlink:href="#DejaVuSans-28"/>
      <use x="318.701172" xlink:href="#DejaVuSans-23"/>
      <use x="402.490234" xlink:href="#DejaVuSans-20"/>
      <use x="434.277344" xlink:href="#DejaVuSans-66"/>
      <use x="469.404297" xlink:href="#DejaVuSans-2d"/>
      <use x="505.488281" xlink:href="#DejaVuSans-65"/>
      <use x="567.011719" xlink:href="#DejaVuSans-76"/>
      <use x="626.191406" xlink:href="#DejaVuSans-61"/>
      <use x="687.470703" xlink:href="#DejaVuSans-6c"/>
      <use x="715.253906" xlink:href="#DejaVuSans-73"/>
      <use x="767.353516" xlink:href="#DejaVuSans-20"/>
      <use x="799.140625" xlink:href="#DejaVuSans-2f"/>
      <use x="832.832031" xlink:href="#DejaVuSans-20"/>
      <use x="864.619141" xlink:href="#DejaVuSans-64"/>
      <use x="928.095703" xlink:href="#DejaVuSans-69"/>
      <use x="955.878906" xlink:href="#DejaVuSans-6d"/>
      <use x="1053.291016" xlink:href="#DejaVuSans-65"/>
      <use x="1114.814453" xlink:href="#DejaVuSans-6e"/>
      <use x="1178.193359" xlink:href="#DejaVuSans-73"/>
      <use x="1230.292969" xlink:href="#DejaVuSans-69"/>
      <use x="1258.076172" xlink:href="#DejaVuSans-6f"/>
      <use x="1319.257812" xlink:href="#DejaVuSans-6e"/>
      <use x="1382.636719" xlink:href="#DejaVuSans-29"/>
     </g>
    </g>
   </g>
   <g id="matplotlib.axis_2">
    <g id="ytick_1">
     <g id="line2d_11">
      <path clip-path="url(#pb925b0c423)" d="M 56.84 294.16 
L 399.984 294.16 
" style="fill:none;stroke:#b0b0b0;stroke-linecap:square;stroke-width:0.8;"/>
     </g>
     <g id="line2d_12">
      <defs>
       <path d="M 0 0 
L -3.5 0 
" id="mac107e5538" style="stroke:#000000;stroke-width:0.8;"/>
      </defs>
      <g>
       <use style="stroke:#000000;stroke-width:0.8;" x="56.84" xlink:href="#mac107e5538" y="294.16"/>
      </g>
     </g>
     <g id="text_7">
      <!-- 0.0 -->
      <defs>
       <path d="M 10.6875 12.40625 
L 21 12.40625 
L 21 0 
L 10.6875 0 
z
" id="DejaVuSans-2e"/>
      </defs>
      <g transform="translate(24.395 300.23875)scale(0.16 -0.16)">
       <use xlink:href="#DejaVuSans-30"/>
       <use x="63.623047" xlink:href="#DejaVuSans-2e"/>
       <use x="95.410156" xlink:href="#DejaVuSans-30"/>
      </g>
     </g>
    </g>
    <g id="ytick_2">
     <g id="line2d_13">
      <path clip-path="url(#pb925b0c423)" d="M 56.84 237.123411 
L 399.984 237.123411 
" style="fill:none;stroke:#b0b0b0;stroke-linecap:square;stroke-width:0.8;"/>
     </g>
     <g id="line2d_14">
      <g>
       <use style="stroke:#000000;stroke-width:0.8;" x="56.84" xlink:href="#mac107e5538" y="237.123411"/>
      </g>
     </g>
     <g id="text_8">
      <!-- 0.2 -->
      <g transform="translate(24.395 243.202161)scale(0.16 -0.16)">
       <use xlink:href="#DejaVuSans-30"/>
       <use x="63.623047" xlink:href="#DejaVuSans-2e"/>
       <use x="95.410156" xlink:href="#DejaVuSans-32"/>
      </g>
     </g>
    </g>
    <g id="ytick_3">
     <g id="line2d_15">
      <path clip-path="url(#pb925b0c423)" d="M 56.84 180.086823 
L 399.984 180.086823 
" style="fill:none;stroke:#b0b0b0;stroke-linecap:square;stroke-width:0.8;"/>
     </g>
     <g id="line2d_16">
      <g>
       <use style="stroke:#000000;stroke-width:0.8;" x="56.84" xlink:href="#mac107e5538" y="180.086823"/>
      </g>
     </g>
     <g id="text_9">
      <!-- 0.4 -->
      <g transform="translate(24.395 186.165573)scale(0.16 -0.16)">
       <use xlink:href="#DejaVuSans-30"/>
       <use x="63.623047" xlink:href="#DejaVuSans-2e"/>
       <use x="95.410156" xlink:href="#DejaVuSans-34"/>
      </g>
     </g>
    </g>
    <g id="ytick_4">
     <g id="line2d_17">
      <path clip-path="url(#pb925b0c423)" d="M 56.84 123.050234 
L 399.984 123.050234 
" style="fill:none;stroke:#b0b0b0;stroke-linecap:square;stroke-width:0.8;"/>
     </g>
     <g id="line2d_18">
      <g>
       <use style="stroke:#000000;stroke-width:0.8;" x="56.84" xlink:href="#mac107e5538" y="123.050234"/>
      </g>
     </g>
     <g id="text_10">
      <!-- 0.6 -->
      <g transform="translate(24.395 129.128984)scale(0.16 -0.16)">
       <use xlink:href="#DejaVuSans-30"/>
       <use x="63.623047" xlink:href="#DejaVuSans-2e"/>
       <use x="95.410156" xlink:href="#DejaVuSans-36"/>
      </g>
     </g>
    </g>
    <g id="ytick_5">
     <g id="line2d_19">
      <path clip-path="url(#pb925b0c423)" d="M 56.84 66.013646 
L 399.984 66.013646 
" style="fill:none;stroke:#b0b0b0;stroke-linecap:square;stroke-width:0.8;"/>
     </g>
     <g id="line2d_20">
      <g>
       <use style="stroke:#000000;stroke-width:0.8;" x="56.84" xlink:href="#mac107e5538" y="66.013646"/>
      </g>
     </g>
     <g id="text_11">
      <!-- 0.8 -->
      <g transform="translate(24.395 72.092396)scale(0.16 -0.16)">
       <use xlink:href="#DejaVuSans-30"/>
       <use x="63.623047" xlink:href="#DejaVuSans-2e"/>
       <use x="95.410156" xlink:href="#DejaVuSans-38"/>
      </g>
     </g>
    </g>
    <g id="ytick_6">
     <g id="line2d_21">
      <path clip-path="url(#pb925b0c423)" d="M 56.84 8.977057 
L 399.984 8.977057 
" style="fill:none;stroke:#b0b0b0;stroke-linecap:square;stroke-width:0.8;"/>
     </g>
     <g id="line2d_22">
      <g>
       <use style="stroke:#000000;stroke-width:0.8;" x="56.84" xlink:href="#mac107e5538" y="8.977057"/>
      </g>
     </g>
     <g id="text_12">
      <!-- 1.0 -->
      <g transform="translate(24.395 15.055807)scale(0.16 -0.16)">
       <use xlink:href="#DejaVuSans-31"/>
       <use x="63.623047" xlink:href="#DejaVuSans-2e"/>
       <use x="95.410156" xlink:href="#DejaVuSans-30"/>
      </g>
     </g>
    </g>
    <g id="text_13">
     <!-- Fraction of function,target pairs -->
     <defs>
      <path d="M 9.8125 72.90625 
L 51.703125 72.90625 
L 51.703125 64.59375 
L 19.671875 64.59375 
L 19.671875 43.109375 
L 48.578125 43.109375 
L 48.578125 34.8125 
L 19.671875 34.8125 
L 19.671875 0 
L 9.8125 0 
z
" id="DejaVuSans-46"/>
      <path d="M 41.109375 46.296875 
Q 39.59375 47.171875 37.8125 47.578125 
Q 36.03125 48 33.890625 48 
Q 26.265625 48 22.1875 43.046875 
Q 18.109375 38.09375 18.109375 28.8125 
L 18.109375 0 
L 9.078125 0 
L 9.078125 54.6875 
L 18.109375 54.6875 
L 18.109375 46.1875 
Q 20.953125 51.171875 25.484375 53.578125 
Q 30.03125 56 36.53125 56 
Q 37.453125 56 38.578125 55.875 
Q 39.703125 55.765625 41.0625 55.515625 
z
" id="DejaVuSans-72"/>
      <path d="M 48.78125 52.59375 
L 48.78125 44.1875 
Q 44.96875 46.296875 41.140625 47.34375 
Q 37.3125 48.390625 33.40625 48.390625 
Q 24.65625 48.390625 19.8125 42.84375 
Q 14.984375 37.3125 14.984375 27.296875 
Q 14.984375 17.28125 19.8125 11.734375 
Q 24.65625 6.203125 33.40625 6.203125 
Q 37.3125 6.203125 41.140625 7.25 
Q 44.96875 8.296875 48.78125 10.40625 
L 48.78125 2.09375 
Q 45.015625 0.34375 40.984375 -0.53125 
Q 36.96875 -1.421875 32.421875 -1.421875 
Q 20.0625 -1.421875 12.78125 6.34375 
Q 5.515625 14.109375 5.515625 27.296875 
Q 5.515625 40.671875 12.859375 48.328125 
Q 20.21875 56 33.015625 56 
Q 37.15625 56 41.109375 55.140625 
Q 45.0625 54.296875 48.78125 52.59375 
z
" id="DejaVuSans-63"/>
      <path d="M 18.3125 70.21875 
L 18.3125 54.6875 
L 36.8125 54.6875 
L 36.8125 47.703125 
L 18.3125 47.703125 
L 18.3125 18.015625 
Q 18.3125 11.328125 20.140625 9.421875 
Q 21.96875 7.515625 27.59375 7.515625 
L 36.8125 7.515625 
L 36.8125 0 
L 27.59375 0 
Q 17.1875 0 13.234375 3.875 
Q 9.28125 7.765625 9.28125 18.015625 
L 9.28125 47.703125 
L 2.6875 47.703125 
L 2.6875 54.6875 
L 9.28125 54.6875 
L 9.28125 70.21875 
z
" id="DejaVuSans-74"/>
      <path d="M 8.5 21.578125 
L 8.5 54.6875 
L 17.484375 54.6875 
L 17.484375 21.921875 
Q 17.484375 14.15625 20.5 10.265625 
Q 23.53125 6.390625 29.59375 6.390625 
Q 36.859375 6.390625 41.078125 11.03125 
Q 45.3125 15.671875 45.3125 23.6875 
L 45.3125 54.6875 
L 54.296875 54.6875 
L 54.296875 0 
L 45.3125 0 
L 45.3125 8.40625 
Q 42.046875 3.421875 37.71875 1 
Q 33.40625 -1.421875 27.6875 -1.421875 
Q 18.265625 -1.421875 13.375 4.4375 
Q 8.5 10.296875 8.5 21.578125 
z
M 31.109375 56 
z
" id="DejaVuSans-75"/>
      <path d="M 11.71875 12.40625 
L 22.015625 12.40625 
L 22.015625 4 
L 14.015625 -11.625 
L 7.71875 -11.625 
L 11.71875 4 
z
" id="DejaVuSans-2c"/>
      <path d="M 18.109375 8.203125 
L 18.109375 -20.796875 
L 9.078125 -20.796875 
L 9.078125 54.6875 
L 18.109375 54.6875 
L 18.109375 46.390625 
Q 20.953125 51.265625 25.265625 53.625 
Q 29.59375 56 35.59375 56 
Q 45.5625 56 51.78125 48.09375 
Q 58.015625 40.1875 58.015625 27.296875 
Q 58.015625 14.40625 51.78125 6.484375 
Q 45.5625 -1.421875 35.59375 -1.421875 
Q 29.59375 -1.421875 25.265625 0.953125 
Q 20.953125 3.328125 18.109375 8.203125 
z
M 48.6875 27.296875 
Q 48.6875 37.203125 44.609375 42.84375 
Q 40.53125 48.484375 33.40625 48.484375 
Q 26.265625 48.484375 22.1875 42.84375 
Q 18.109375 37.203125 18.109375 27.296875 
Q 18.109375 17.390625 22.1875 11.75 
Q 26.265625 6.109375 33.40625 6.109375 
Q 40.53125 6.109375 44.609375 11.75 
Q 48.6875 17.390625 48.6875 27.296875 
z
" id="DejaVuSans-70"/>
     </defs>
     <g transform="translate(16.859531 285.281989)rotate(-90)scale(0.17 -0.17)">
      <use xlink:href="#DejaVuSans-46"/>
      <use x="57.410156" xlink:href="#DejaVuSans-72"/>
      <use x="98.523438" xlink:href="#DejaVuSans-61"/>
      <use x="159.802734" xlink:href="#DejaVuSans-63"/>
      <use x="214.783203" xlink:href="#DejaVuSans-74"/>
      <use x="253.992188" xlink:href="#DejaVuSans-69"/>
      <use x="281.775391" xlink:href="#DejaVuSans-6f"/>
      <use x="342.957031" xlink:href="#DejaVuSans-6e"/>
      <use x="406.335938" xlink:href="#DejaVuSans-20"/>
      <use x="438.123047" xlink:href="#DejaVuSans-6f"/>
      <use x="499.304688" xlink:href="#DejaVuSans-66"/>
      <use x="534.509766" xlink:href="#DejaVuSans-20"/>
      <use x="566.296875" xlink:href="#DejaVuSans-66"/>
      <use x="601.501953" xlink:href="#DejaVuSans-75"/>
      <use x="664.880859" xlink:href="#DejaVuSans-6e"/>
      <use x="728.259766" xlink:href="#DejaVuSans-63"/>
      <use x="783.240234" xlink:href="#DejaVuSans-74"/>
      <use x="822.449219" xlink:href="#DejaVuSans-69"/>
      <use x="850.232422" xlink:href="#DejaVuSans-6f"/>
      <use x="911.414062" xlink:href="#DejaVuSans-6e"/>
      <use x="974.792969" xlink:href="#DejaVuSans-2c"/>
      <use x="1006.580078" xlink:href="#DejaVuSans-74"/>
      <use x="1045.789062" xlink:href="#DejaVuSans-61"/>
      <use x="1107.068359" xlink:href="#DejaVuSans-72"/>
      <use x="1148.166016" xlink:href="#DejaVuSans-67"/>
      <use x="1211.642578" xlink:href="#DejaVuSans-65"/>
      <use x="1273.166016" xlink:href="#DejaVuSans-74"/>
      <use x="1312.375" xlink:href="#DejaVuSans-20"/>
      <use x="1344.162109" xlink:href="#DejaVuSans-70"/>
      <use x="1407.638672" xlink:href="#DejaVuSans-61"/>
      <use x="1468.917969" xlink:href="#DejaVuSans-69"/>
      <use x="1496.701172" xlink:href="#DejaVuSans-72"/>
      <use x="1537.814453" xlink:href="#DejaVuSans-73"/>
     </g>
    </g>
   </g>
   <g id="line2d_23">
    <defs>
     <path d="M 0 1.5 
C 0.397805 1.5 0.77937 1.341951 1.06066 1.06066 
C 1.341951 0.77937 1.5 0.397805 1.5 0 
C 1.5 -0.397805 1.341951 -0.77937 1.06066 -1.06066 
C 0.77937 -1.341951 0.397805 -1.5 0 -1.5 
C -0.397805 -1.5 -0.77937 -1.341951 -1.06066 -1.06066 
C -1.341951 -0.77937 -1.5 -0.397805 -1.5 0 
C -1.5 0.397805 -1.341951 0.77937 -1.06066 1.06066 
C -0.77937 1.341951 -0.397805 1.5 0 1.5 
z
" id="m8d05175970" style="stroke:#000080;"/>
    </defs>
    <g>
     <use style="fill:#000080;stroke:#000080;" x="264.713316" xlink:href="#m8d05175970" y="126.405328"/>
     <use style="fill:#000080;stroke:#000080;" x="264.713316" xlink:href="#m8d05175970" y="126.405328"/>
    </g>
   </g>
   <g id="line2d_24">
    <path d="M 106.464335 294.16 
L 106.464335 293.600818 
L 114.652569 293.600818 
L 114.652569 293.041636 
L 117.129168 293.041636 
L 117.129168 292.482453 
L 119.73911 292.482453 
L 119.73911 291.923271 
L 123.304037 291.923271 
L 123.304037 291.364089 
L 124.004904 291.364089 
L 124.004904 290.804907 
L 125.005313 290.804907 
L 125.005313 289.686542 
L 125.326236 289.686542 
L 125.326236 289.12736 
L 126.103239 289.12736 
L 126.103239 288.568178 
L 128.640957 288.568178 
L 128.640957 287.449813 
L 129.157352 287.449813 
L 129.157352 286.890631 
L 130.384219 286.890631 
L 130.384219 286.331449 
L 131.306258 286.331449 
L 131.306258 285.213084 
L 131.418108 285.213084 
L 131.418108 283.535537 
L 131.529233 283.535537 
L 131.639644 281.857991 
L 131.749349 281.857991 
L 131.749349 281.298808 
L 132.181293 281.298808 
L 132.181293 280.739626 
L 132.706375 280.739626 
L 132.706375 279.621262 
L 133.612858 279.621262 
L 133.612858 279.062079 
L 134.473872 279.062079 
L 134.473872 278.502897 
L 135.905438 278.502897 
L 135.905438 277.384533 
L 136.076273 277.384533 
L 136.076273 276.266168 
L 137.927636 276.266168 
L 137.927636 275.706986 
L 138.155041 275.706986 
L 138.155041 275.147804 
L 138.379474 275.147804 
L 138.379474 274.588622 
L 138.964001 274.588622 
L 138.964001 274.029439 
L 139.319477 274.029439 
L 139.319477 273.470257 
L 140.009081 273.470257 
L 140.009081 272.911075 
L 140.143739 272.911075 
L 140.143739 272.351893 
L 140.343767 272.351893 
L 140.343767 271.79271 
L 140.672053 271.79271 
L 140.672053 271.233528 
L 141.057886 271.233528 
L 141.121357 270.115164 
L 141.310374 270.115164 
L 141.310374 268.996799 
L 142.519947 268.996799 
L 142.519947 268.437617 
L 142.923938 268.437617 
L 142.923938 267.878435 
L 143.704475 267.878435 
L 143.704475 267.319252 
L 144.028425 267.319252 
L 144.028425 266.76007 
L 144.914419 266.76007 
L 144.914419 266.200888 
L 145.216518 266.200888 
L 145.216518 265.641706 
L 145.562377 265.641706 
L 145.659927 264.523341 
L 146.560017 264.523341 
L 146.560017 263.964159 
L 148.229916 263.964159 
L 148.229916 262.845795 
L 148.765841 262.845795 
L 148.765841 261.72743 
L 149.167001 261.72743 
L 149.167001 261.168248 
L 149.980108 261.168248 
L 149.980108 260.609066 
L 150.31713 260.609066 
L 150.31713 260.049883 
L 150.720259 260.049883 
L 150.756442 258.931519 
L 151.841888 258.931519 
L 151.841888 257.813154 
L 155.982361 257.813154 
L 155.982361 257.253972 
L 156.167972 257.253972 
L 156.167972 256.69479 
L 156.455652 256.69479 
L 156.455652 256.135608 
L 157.462911 256.135608 
L 157.48735 255.017243 
L 159.727954 255.017243 
L 159.749375 253.898879 
L 160.151375 253.898879 
L 160.172274 252.780514 
L 162.106057 252.780514 
L 162.106057 252.221332 
L 163.995034 252.221332 
L 163.995034 251.102967 
L 164.874844 251.102967 
L 164.874844 250.543785 
L 165.498667 250.543785 
L 165.498667 249.984603 
L 165.681478 249.984603 
L 165.681478 249.425421 
L 166.291792 249.425421 
L 166.291792 248.866238 
L 166.596186 248.866238 
L 166.596186 248.307056 
L 166.710741 248.307056 
L 166.710741 247.747874 
L 166.824537 247.747874 
L 166.824537 247.188692 
L 167.11971 247.188692 
L 167.11971 246.62951 
L 167.519164 246.62951 
L 167.519164 246.070327 
L 168.081688 246.070327 
L 168.094859 244.392781 
L 168.22602 244.392781 
L 168.22602 243.833598 
L 168.562421 243.833598 
L 168.562421 242.715234 
L 168.702784 242.715234 
L 168.702784 242.156052 
L 169.092287 242.156052 
L 169.129517 241.037687 
L 169.5459 241.037687 
L 169.618342 239.919323 
L 169.714459 239.919323 
L 169.714459 239.36014 
L 170.034938 239.36014 
L 170.034938 238.800958 
L 170.726394 238.800958 
L 170.726394 238.241776 
L 170.928515 238.241776 
L 170.928515 237.682594 
L 171.271129 237.682594 
L 171.271129 237.123411 
L 172.768661 237.123411 
L 172.768661 236.564229 
L 177.528893 236.564229 
L 177.528893 236.005047 
L 178.308923 236.005047 
L 178.337949 234.886682 
L 178.816977 234.886682 
L 178.816977 234.3275 
L 179.696566 234.3275 
L 179.696566 233.768318 
L 180.584245 233.768318 
L 180.584245 233.209136 
L 180.992822 233.209136 
L 180.992822 232.649954 
L 181.104268 232.649954 
L 181.104268 232.090771 
L 181.994169 232.090771 
L 182.058505 230.972407 
L 183.188069 230.972407 
L 183.188069 230.413225 
L 184.365672 230.413225 
L 184.391172 228.735678 
L 184.538327 228.735678 
L 184.538327 228.176496 
L 184.972373 228.176496 
L 184.972373 227.617313 
L 185.187782 227.617313 
L 185.284808 226.498949 
L 185.434124 226.498949 
L 185.434124 225.939767 
L 185.648589 225.939767 
L 185.648589 225.380584 
L 186.462562 225.380584 
L 186.462562 224.821402 
L 187.018093 224.821402 
L 187.018093 224.26222 
L 188.168184 224.26222 
L 188.168184 223.703038 
L 188.861523 223.703038 
L 188.861523 223.143855 
L 188.998452 223.143855 
L 188.998452 222.584673 
L 189.387576 222.584673 
L 189.387576 222.025491 
L 189.775525 222.025491 
L 189.775525 220.907126 
L 190.162185 220.907126 
L 190.249355 219.788762 
L 191.245184 219.788762 
L 191.245184 219.22958 
L 191.576992 219.22958 
L 191.576992 218.670397 
L 191.846483 218.670397 
L 191.912377 217.552033 
L 192.709129 217.552033 
L 192.709129 216.992851 
L 192.992455 216.992851 
L 193.06948 215.874486 
L 193.554422 215.874486 
L 193.554422 215.315304 
L 193.9532 215.315304 
L 193.9532 214.756122 
L 194.280015 214.756122 
L 194.280015 214.19694 
L 195.755985 214.19694 
L 195.755985 213.637757 
L 196.078903 213.637757 
L 196.078903 213.078575 
L 196.647275 213.078575 
L 196.647275 212.519393 
L 198.133462 212.519393 
L 198.133462 211.960211 
L 198.315603 211.960211 
L 198.394686 210.841846 
L 198.594156 210.841846 
L 198.683056 209.723482 
L 198.848514 209.723482 
L 198.951394 208.605117 
L 198.990632 208.605117 
L 198.990632 208.045935 
L 199.112136 208.045935 
L 199.112136 207.486753 
L 199.324855 207.486753 
L 199.324855 206.92757 
L 199.577109 206.92757 
L 199.577109 206.368388 
L 199.976451 206.368388 
L 199.976451 205.809206 
L 201.021296 205.809206 
L 201.021296 205.250024 
L 202.265432 205.250024 
L 202.265432 204.690841 
L 202.492435 204.690841 
L 202.492435 204.131659 
L 202.740995 204.131659 
L 202.740995 203.572477 
L 202.906458 203.572477 
L 202.968745 202.454112 
L 203.181578 202.454112 
L 203.181578 201.89493 
L 203.521064 201.89493 
L 203.521064 201.335748 
L 203.760216 201.335748 
L 203.760216 200.217384 
L 203.894926 200.217384 
L 203.894926 199.658201 
L 204.264023 199.658201 
L 204.264023 199.099019 
L 204.634759 199.099019 
L 204.634759 198.539837 
L 206.468893 198.539837 
L 206.468893 197.980655 
L 207.455557 197.980655 
L 207.508671 196.86229 
L 207.640739 196.86229 
L 207.726042 195.184743 
L 208.39992 195.184743 
L 208.39992 194.625561 
L 208.526582 194.625561 
L 208.526582 194.066379 
L 209.096758 194.066379 
L 209.101592 192.948014 
L 210.276047 192.948014 
L 210.348115 191.82965 
L 211.374223 191.82965 
L 211.374223 191.270468 
L 211.589855 191.270468 
L 211.635786 190.152103 
L 211.812102 190.152103 
L 211.812102 189.592921 
L 212.287334 189.592921 
L 212.311405 188.474556 
L 212.598645 188.474556 
L 212.598645 187.915374 
L 213.61844 187.915374 
L 213.61844 187.356192 
L 213.816061 187.356192 
L 213.816061 186.79701 
L 214.40362 186.79701 
L 214.496532 185.678645 
L 215.155305 185.678645 
L 215.155305 185.119463 
L 215.428287 185.119463 
L 215.495859 184.001099 
L 215.833056 184.001099 
L 215.89987 182.882734 
L 216.003649 182.882734 
L 216.096355 181.76437 
L 216.284257 181.76437 
L 216.284257 181.205187 
L 217.038797 181.205187 
L 217.069211 180.086823 
L 218.420061 180.086823 
L 218.420061 179.527641 
L 218.628746 179.527641 
L 218.739383 177.850094 
L 219.155441 177.850094 
L 219.219234 176.731729 
L 219.299478 176.731729 
L 219.312816 175.613365 
L 220.090863 175.613365 
L 220.110601 174.495 
L 220.720099 174.495 
L 220.720099 173.935818 
L 221.246273 173.935818 
L 221.341309 172.258271 
L 221.412242 172.258271 
L 221.412242 171.699089 
L 222.605616 171.699089 
L 222.621567 170.580725 
L 222.753553 170.580725 
L 222.753553 170.021543 
L 223.581609 170.021543 
L 223.581609 169.46236 
L 224.149183 169.46236 
L 224.22947 168.343996 
L 224.649812 168.343996 
L 224.649812 167.784814 
L 225.117249 167.784814 
L 225.117249 167.225631 
L 225.261164 167.225631 
L 225.261164 166.666449 
L 225.730821 166.666449 
L 225.730821 166.107267 
L 226.123533 166.107267 
L 226.123533 165.548085 
L 226.690618 165.548085 
L 226.690618 164.988902 
L 227.150273 164.988902 
L 227.150273 164.42972 
L 227.337595 164.42972 
L 227.337595 163.870538 
L 227.556748 163.870538 
L 227.556748 163.311356 
L 228.006936 163.311356 
L 228.006936 162.752173 
L 228.311558 162.752173 
L 228.39385 161.074627 
L 228.838197 161.074627 
L 228.862676 159.956262 
L 229.800541 159.956262 
L 229.800541 159.39708 
L 229.981976 159.39708 
L 229.981976 158.837898 
L 230.360924 158.837898 
L 230.463946 157.719533 
L 231.048909 157.719533 
L 231.048909 157.160351 
L 231.444768 157.160351 
L 231.444768 156.601169 
L 232.102843 156.601169 
L 232.102843 156.041987 
L 232.717092 156.041987 
L 232.717092 155.482804 
L 233.749592 155.482804 
L 233.763676 154.36444 
L 234.238564 154.36444 
L 234.316636 153.246075 
L 234.617223 153.246075 
L 234.617223 152.686893 
L 234.93412 152.686893 
L 234.93412 152.127711 
L 235.192483 152.127711 
L 235.192483 151.568529 
L 235.518236 151.568529 
L 235.518236 151.009346 
L 236.773363 151.009346 
L 236.833774 149.890982 
L 238.192484 149.890982 
L 238.275524 148.772617 
L 238.921305 148.772617 
L 238.921305 148.213435 
L 239.172631 148.213435 
L 239.172631 147.654253 
L 239.340791 147.654253 
L 239.374806 146.535888 
L 239.565614 146.535888 
L 239.565614 145.976706 
L 239.799664 145.976706 
L 239.816636 144.858342 
L 240.203209 144.858342 
L 240.229844 143.739977 
L 241.07324 143.739977 
L 241.07324 143.180795 
L 241.804447 143.180795 
L 241.804447 142.621613 
L 242.178769 142.621613 
L 242.178769 142.06243 
L 242.533385 142.06243 
L 242.533385 141.503248 
L 242.716855 141.503248 
L 242.716855 140.944066 
L 242.928735 140.944066 
L 242.928735 140.384884 
L 243.606547 140.384884 
L 243.606547 139.825702 
L 243.752642 139.825702 
L 243.752642 139.266519 
L 243.983111 139.266519 
L 243.983111 138.707337 
L 244.433272 138.707337 
L 244.463493 137.588973 
L 245.098637 137.588973 
L 245.098637 137.02979 
L 245.248521 137.02979 
L 245.257349 135.911426 
L 245.696788 135.911426 
L 245.696788 135.352244 
L 245.973277 135.352244 
L 245.973277 134.793061 
L 246.187238 134.793061 
L 246.187238 134.233879 
L 246.552576 134.233879 
L 246.552576 133.674697 
L 246.698455 133.674697 
L 246.698455 133.115515 
L 247.009408 133.115515 
L 247.009408 132.556332 
L 247.555314 132.556332 
L 247.555314 131.99715 
L 248.190615 131.99715 
L 248.200532 130.878786 
L 248.500758 130.878786 
L 248.500758 130.319603 
L 249.114364 130.319603 
L 249.114364 129.760421 
L 249.586732 129.760421 
L 249.6009 128.642057 
L 250.181028 128.642057 
L 250.181028 128.082874 
L 251.633869 128.082874 
L 251.633869 127.523692 
L 252.036976 127.523692 
L 252.036976 126.96451 
L 264.713316 126.96451 
L 264.713316 126.405328 
L 333.569032 126.405328 
L 333.569032 126.405328 
" style="fill:none;stroke:#000080;stroke-linecap:square;stroke-width:1.5;"/>
   </g>
   <g id="line2d_25">
    <defs>
     <path d="M 0 6 
C 1.591219 6 3.117479 5.367802 4.242641 4.242641 
C 5.367802 3.117479 6 1.591219 6 0 
C 6 -1.591219 5.367802 -3.117479 4.242641 -4.242641 
C 3.117479 -5.367802 1.591219 -6 0 -6 
C -1.591219 -6 -3.117479 -5.367802 -4.242641 -4.242641 
C -5.367802 -3.117479 -6 -1.591219 -6 0 
C -6 1.591219 -5.367802 3.117479 -4.242641 4.242641 
C -3.117479 5.367802 -1.591219 6 0 6 
z
" id="mb923157567" style="stroke:#000080;stroke-width:1.5;"/>
    </defs>
    <g>
     <use style="fill-opacity:0;stroke:#000080;stroke-width:1.5;" x="185.648589" xlink:href="#mb923157567" y="225.380584"/>
     <use style="fill-opacity:0;stroke:#000080;stroke-width:1.5;" x="234.316636" xlink:href="#mb923157567" y="153.246075"/>
     <use style="fill-opacity:0;stroke:#000080;stroke-width:1.5;" x="264.713316" xlink:href="#mb923157567" y="126.405328"/>
     <use style="fill-opacity:0;stroke:#000080;stroke-width:1.5;" x="264.713316" xlink:href="#mb923157567" y="126.405328"/>
     <use style="fill-opacity:0;stroke:#000080;stroke-width:1.5;" x="333.569032" xlink:href="#mb923157567" y="126.405328"/>
    </g>
   </g>
   <g id="line2d_26">
    <path style="fill:none;stroke:#000080;stroke-linecap:square;stroke-width:1.5;"/>
    <g/>
   </g>
   <g id="line2d_27">
    <path clip-path="url(#pb925b0c423)" d="M 164.375293 251.102967 
" style="fill:none;stroke:#000080;stroke-linecap:square;stroke-width:1.5;"/>
    <defs>
     <path d="M -12 12 
L 12 -12 
M -12 -12 
L 12 12 
" id="m6ef55fa56c" style="stroke:#000080;stroke-width:3;"/>
    </defs>
    <g clip-path="url(#pb925b0c423)">
     <use style="fill:#000080;stroke:#000080;stroke-width:3;" x="164.375293" xlink:href="#m6ef55fa56c" y="251.102967"/>
    </g>
   </g>
   <g id="line2d_28">
    <defs>
     <path d="M 0 1.5 
C 0.397805 1.5 0.77937 1.341951 1.06066 1.06066 
C 1.341951 0.77937 1.5 0.397805 1.5 0 
C 1.5 -0.397805 1.341951 -0.77937 1.06066 -1.06066 
C 0.77937 -1.341951 0.397805 -1.5 0 -1.5 
C -0.397805 -1.5 -0.77937 -1.341951 -1.06066 -1.06066 
C -1.341951 -0.77937 -1.5 -0.397805 -1.5 0 
C -1.5 0.397805 -1.341951 0.77937 -1.06066 1.06066 
C -0.77937 1.341951 -0.397805 1.5 0 1.5 
z
" id="m961660fae8" style="stroke:#ff00ff;"/>
    </defs>
    <g>
     <use style="fill:#ff00ff;stroke:#ff00ff;" x="251.762547" xlink:href="#m961660fae8" y="204.690841"/>
     <use style="fill:#ff00ff;stroke:#ff00ff;" x="251.762547" xlink:href="#m961660fae8" y="204.690841"/>
    </g>
   </g>
   <g id="line2d_29">
    <path d="M 44.939466 294.16 
L 44.939466 293.600818 
L 63.801366 293.600818 
L 63.801366 291.923271 
L 72.57165 291.923271 
L 72.57165 291.364089 
L 78.348489 291.364089 
L 78.348489 290.245724 
L 80.641068 290.245724 
L 80.641068 289.686542 
L 82.663267 289.686542 
L 82.663267 289.12736 
L 84.472185 289.12736 
L 84.472185 287.449813 
L 86.10855 287.449813 
L 86.10855 286.890631 
L 90.249023 286.890631 
L 90.249023 286.331449 
L 92.541603 286.331449 
L 92.541603 285.213084 
L 95.492072 285.213084 
L 95.492072 284.653902 
L 96.372719 284.653902 
L 96.372719 284.09472 
L 100.203835 284.09472 
L 100.203835 283.535537 
L 103.897048 283.535537 
L 103.897048 282.976355 
L 104.442137 282.976355 
L 104.442137 281.857991 
L 107.392607 281.857991 
L 107.392607 280.739626 
L 107.838576 280.739626 
L 107.838576 280.180444 
L 109.110924 280.180444 
L 109.110924 278.502897 
L 109.514915 278.502897 
L 109.514915 277.943715 
L 110.295451 277.943715 
L 110.295451 277.384533 
L 117.383526 277.384533 
L 117.383526 275.147804 
L 118.124742 275.147804 
L 118.124742 274.588622 
L 119.957824 274.588622 
L 119.957824 274.029439 
L 120.173787 274.029439 
L 120.173787 273.470257 
L 120.805841 273.470257 
L 120.805841 272.911075 
L 123.304037 272.911075 
L 123.304037 272.351893 
L 125.326236 272.351893 
L 125.326236 271.79271 
L 125.641269 271.79271 
L 125.641269 271.233528 
L 125.796644 271.233528 
L 125.796644 270.674346 
L 126.254507 270.674346 
L 126.254507 270.115164 
L 126.99148 270.115164 
L 126.99148 269.555981 
L 128.640957 269.555981 
L 128.640957 268.996799 
L 129.903941 268.996799 
L 129.903941 268.437617 
L 130.265403 268.437617 
L 130.265403 267.319252 
L 131.529233 267.319252 
L 131.529233 266.76007 
L 131.858358 266.76007 
L 131.858358 266.200888 
L 133.215873 266.200888 
L 133.215873 265.082523 
L 133.612858 265.082523 
L 133.710687 263.964159 
L 134.09652 263.964159 
L 134.09652 263.404977 
L 135.114917 263.404977 
L 135.114917 262.845795 
L 136.076273 262.845795 
L 136.076273 262.286612 
L 136.329381 262.286612 
L 136.329381 261.72743 
L 136.824671 261.72743 
L 136.824671 260.609066 
L 137.22677 260.609066 
L 137.22677 260.049883 
L 137.541803 260.049883 
L 137.541803 259.490701 
L 137.927636 259.490701 
L 138.003773 258.372337 
L 138.747129 258.372337 
L 138.747129 257.813154 
L 139.389697 257.813154 
L 139.389697 257.253972 
L 139.529282 257.253972 
L 139.598651 256.135608 
L 140.541491 256.135608 
L 140.606896 255.017243 
L 140.736964 255.017243 
L 140.736964 254.458061 
L 142.923938 254.458061 
L 142.923938 253.898879 
L 143.921119 253.898879 
L 143.921119 253.339696 
L 145.01571 253.339696 
L 145.01571 252.780514 
L 145.659927 252.780514 
L 145.659927 252.221332 
L 147.848841 252.221332 
L 147.848841 251.66215 
L 148.14596 251.66215 
L 148.14596 251.102967 
L 148.684472 251.102967 
L 148.684472 250.543785 
L 150.093185 250.543785 
L 150.093185 249.984603 
L 152.572587 249.984603 
L 152.605073 248.307056 
L 153.916786 248.307056 
L 153.916786 247.188692 
L 154.214864 247.188692 
L 154.214864 246.62951 
L 154.852969 246.62951 
L 154.852969 246.070327 
L 154.994743 246.070327 
L 154.994743 245.511145 
L 155.163342 245.511145 
L 155.163342 244.951963 
L 156.08867 244.951963 
L 156.08867 244.392781 
L 159.183557 244.392781 
L 159.22775 243.274416 
L 159.834792 243.274416 
L 159.834792 242.715234 
L 162.068693 242.715234 
L 162.068693 242.156052 
L 164.538032 242.156052 
L 164.538032 241.596869 
L 164.731304 241.596869 
L 164.731304 241.037687 
L 167.587105 241.037687 
L 167.587105 239.36014 
L 168.121172 239.36014 
L 168.121172 238.800958 
L 168.536776 238.800958 
L 168.536776 238.241776 
L 168.829398 238.241776 
L 168.829398 237.682594 
L 170.011403 237.682594 
L 170.011403 237.123411 
L 173.743318 237.123411 
L 173.743318 236.564229 
L 174.521327 236.564229 
L 174.521327 236.005047 
L 177.912193 236.005047 
L 177.934475 234.886682 
L 178.133729 234.886682 
L 178.170376 233.768318 
L 178.788751 233.768318 
L 178.788751 233.209136 
L 179.351486 233.209136 
L 179.351486 232.649954 
L 179.72334 232.649954 
L 179.72334 232.090771 
L 180.185251 232.090771 
L 180.185251 231.531589 
L 180.46936 231.531589 
L 180.46936 230.972407 
L 184.04109 230.972407 
L 184.04109 230.413225 
L 184.923037 230.413225 
L 184.923037 229.29486 
L 185.967669 229.29486 
L 186.060399 228.176496 
L 187.096629 228.176496 
L 187.096629 227.617313 
L 188.955535 227.617313 
L 188.955535 227.058131 
L 189.276747 227.058131 
L 189.345621 225.380584 
L 190.28193 225.380584 
L 190.28193 224.821402 
L 190.668085 224.821402 
L 190.668085 224.26222 
L 191.190397 224.26222 
L 191.190397 223.703038 
L 192.440193 223.703038 
L 192.440193 223.143855 
L 192.796805 223.143855 
L 192.859158 222.025491 
L 196.914731 222.025491 
L 196.914731 221.466309 
L 198.835336 221.466309 
L 198.835336 220.907126 
L 199.980562 220.907126 
L 199.980562 220.347944 
L 200.592322 220.347944 
L 200.592322 219.788762 
L 202.714722 219.788762 
L 202.714722 219.22958 
L 203.604481 219.22958 
L 203.604481 218.670397 
L 204.434542 218.670397 
L 204.434542 218.111215 
L 205.962882 218.111215 
L 206.010688 216.433669 
L 206.126031 216.433669 
L 206.136087 215.315304 
L 207.929057 215.315304 
L 207.929057 214.756122 
L 208.063078 214.756122 
L 208.063078 214.19694 
L 210.42883 214.19694 
L 210.51362 213.078575 
L 212.743903 213.078575 
L 212.743903 212.519393 
L 213.292137 212.519393 
L 213.292137 211.960211 
L 214.294136 211.960211 
L 214.294136 211.401028 
L 219.928276 211.401028 
L 219.928276 210.841846 
L 220.586306 210.841846 
L 220.586306 210.282664 
L 221.785683 210.282664 
L 221.785683 209.723482 
L 225.098699 209.723482 
L 225.098699 209.164299 
L 232.054671 209.164299 
L 232.054671 208.605117 
L 232.406808 208.605117 
L 232.406808 208.045935 
L 233.341068 208.045935 
L 233.341068 207.486753 
L 234.811035 207.486753 
L 234.811035 206.92757 
L 235.940731 206.92757 
L 235.940731 206.368388 
L 243.889064 206.368388 
L 243.889064 205.809206 
L 245.502562 205.809206 
L 245.502562 205.250024 
L 251.762547 205.250024 
L 251.762547 204.690841 
L 333.569032 204.690841 
L 333.569032 204.690841 
" style="fill:none;stroke:#ff00ff;stroke-linecap:square;stroke-width:1.5;"/>
   </g>
   <g id="line2d_30">
    <defs>
     <path d="M -0 8.485281 
L 5.091169 0 
L 0 -8.485281 
L -5.091169 -0 
z
" id="mf0291f9aa4" style="stroke:#ff00ff;stroke-linejoin:miter;stroke-width:1.5;"/>
    </defs>
    <g>
     <use style="fill-opacity:0;stroke:#ff00ff;stroke-linejoin:miter;stroke-width:1.5;" x="125.796644" xlink:href="#mf0291f9aa4" y="271.233528"/>
     <use style="fill-opacity:0;stroke:#ff00ff;stroke-linejoin:miter;stroke-width:1.5;" x="173.743318" xlink:href="#mf0291f9aa4" y="237.123411"/>
     <use style="fill-opacity:0;stroke:#ff00ff;stroke-linejoin:miter;stroke-width:1.5;" x="225.098699" xlink:href="#mf0291f9aa4" y="209.723482"/>
     <use style="fill-opacity:0;stroke:#ff00ff;stroke-linejoin:miter;stroke-width:1.5;" x="251.762547" xlink:href="#mf0291f9aa4" y="204.690841"/>
     <use style="fill-opacity:0;stroke:#ff00ff;stroke-linejoin:miter;stroke-width:1.5;" x="251.762547" xlink:href="#mf0291f9aa4" y="204.690841"/>
     <use style="fill-opacity:0;stroke:#ff00ff;stroke-linejoin:miter;stroke-width:1.5;" x="333.569032" xlink:href="#mf0291f9aa4" y="204.690841"/>
    </g>
   </g>
   <g id="line2d_31">
    <path style="fill:none;stroke:#ff00ff;stroke-linecap:square;stroke-width:1.5;"/>
    <g/>
   </g>
   <g id="line2d_32">
    <path clip-path="url(#pb925b0c423)" d="M 164.375293 242.156052 
" style="fill:none;stroke:#ff00ff;stroke-linecap:square;stroke-width:1.5;"/>
    <defs>
     <path d="M -12 12 
L 12 -12 
M -12 -12 
L 12 12 
" id="m39e9aae37e" style="stroke:#ff00ff;stroke-width:3;"/>
    </defs>
    <g clip-path="url(#pb925b0c423)">
     <use style="fill:#ff00ff;stroke:#ff00ff;stroke-width:3;" x="164.375293" xlink:href="#m39e9aae37e" y="242.156052"/>
    </g>
   </g>
   <g id="line2d_33">
    <defs>
     <path d="M 0 1.5 
C 0.397805 1.5 0.77937 1.341951 1.06066 1.06066 
C 1.341951 0.77937 1.5 0.397805 1.5 0 
C 1.5 -0.397805 1.341951 -0.77937 1.06066 -1.06066 
C 0.77937 -1.341951 0.397805 -1.5 0 -1.5 
C -0.397805 -1.5 -0.77937 -1.341951 -1.06066 -1.06066 
C -1.341951 -0.77937 -1.5 -0.397805 -1.5 0 
C -1.5 0.397805 -1.341951 0.77937 -1.06066 1.06066 
C -0.77937 1.341951 -0.397805 1.5 0 1.5 
z
" id="m67dc974302" style="stroke:#ffa500;"/>
    </defs>
    <g>
     <use style="fill:#ffa500;stroke:#ffa500;" x="260.990852" xlink:href="#m67dc974302" y="137.588973"/>
     <use style="fill:#ffa500;stroke:#ffa500;" x="260.990852" xlink:href="#m67dc974302" y="137.588973"/>
    </g>
   </g>
   <g id="line2d_34">
    <path d="M 109.110924 294.16 
L 109.110924 291.364089 
L 115.797583 291.364089 
L 115.797583 290.804907 
L 116.07229 290.804907 
L 116.07229 289.12736 
L 116.870985 289.12736 
L 116.870985 288.008995 
L 120.173787 288.008995 
L 120.173787 287.449813 
L 124.344892 287.449813 
L 124.344892 286.890631 
L 124.512394 286.890631 
L 124.512394 285.772266 
L 125.950626 285.772266 
L 125.950626 285.213084 
L 126.103239 285.213084 
L 126.103239 284.653902 
L 126.846595 284.653902 
L 126.846595 284.09472 
L 126.99148 284.09472 
L 126.99148 283.535537 
L 127.418943 283.535537 
L 127.418943 282.976355 
L 127.559097 282.976355 
L 127.559097 282.417173 
L 128.901096 282.417173 
L 128.901096 281.857991 
L 129.534704 281.857991 
L 129.534704 281.298808 
L 130.96627 281.298808 
L 130.96627 279.621262 
L 131.080349 279.621262 
L 131.080349 279.062079 
L 131.193675 279.062079 
L 131.193675 277.943715 
L 131.749349 277.943715 
L 131.749349 276.266168 
L 132.287602 276.266168 
L 132.287602 275.147804 
L 133.612858 275.147804 
L 133.612858 274.588622 
L 133.807961 274.588622 
L 133.807961 274.029439 
L 134.000871 274.029439 
L 134.000871 272.911075 
L 134.286233 272.911075 
L 134.286233 272.351893 
L 136.076273 272.351893 
L 136.161058 269.555981 
L 136.329381 269.555981 
L 136.329381 268.996799 
L 136.824671 268.996799 
L 136.824671 267.878435 
L 137.306072 267.878435 
L 137.306072 267.319252 
L 137.463585 267.319252 
L 137.463585 266.76007 
L 137.697178 266.76007 
L 137.774342 264.523341 
L 138.674225 264.523341 
L 138.674225 263.964159 
L 138.892015 263.964159 
L 138.892015 262.845795 
L 139.667741 262.845795 
L 139.667741 262.286612 
L 140.736964 262.286612 
L 140.736964 261.72743 
L 140.930236 261.72743 
L 140.99418 260.609066 
L 141.620849 260.609066 
L 141.620849 260.049883 
L 142.519947 260.049883 
L 142.578245 258.931519 
L 144.606909 258.931519 
L 144.658545 257.813154 
L 145.659927 257.813154 
L 145.659927 257.253972 
L 146.139535 257.253972 
L 146.233869 256.135608 
L 147.67672 256.135608 
L 147.67672 255.576425 
L 147.891602 255.576425 
L 147.891602 255.017243 
L 148.520568 255.017243 
L 148.520568 254.458061 
L 148.643643 254.458061 
L 148.643643 253.898879 
L 149.636338 253.898879 
L 149.636338 253.339696 
L 149.751694 253.339696 
L 149.751694 252.780514 
L 150.130713 252.780514 
L 150.130713 252.221332 
L 150.354172 252.221332 
L 150.428016 251.102967 
L 151.00761 251.102967 
L 151.00761 250.543785 
L 151.841888 250.543785 
L 151.841888 249.984603 
L 152.37637 249.984603 
L 152.409229 248.307056 
L 153.735423 248.307056 
L 153.735423 247.747874 
L 154.852969 247.747874 
L 154.852969 247.188692 
L 155.219176 247.188692 
L 155.219176 246.62951 
L 155.330302 246.62951 
L 155.330302 244.951963 
L 159.381534 244.951963 
L 159.381534 244.392781 
L 164.90658 244.392781 
L 164.90658 243.833598 
L 165.967006 243.833598 
L 165.967006 243.274416 
L 166.422908 243.274416 
L 166.422908 242.715234 
L 166.538621 242.715234 
L 166.538621 242.156052 
L 166.767733 242.156052 
L 166.838708 241.037687 
L 167.11971 241.037687 
L 167.11971 240.478505 
L 167.327484 240.478505 
L 167.409895 239.36014 
L 167.962689 239.36014 
L 167.962689 238.800958 
L 168.766208 238.800958 
L 168.829398 237.682594 
L 169.33897 237.682594 
L 169.33897 237.123411 
L 169.60629 237.123411 
L 169.60629 236.564229 
L 169.999623 236.564229 
L 169.999623 236.005047 
L 170.117057 236.005047 
L 170.21043 234.886682 
L 171.531762 234.886682 
L 171.531762 234.3275 
L 171.873229 234.3275 
L 171.873229 233.768318 
L 172.34221 233.768318 
L 172.34221 233.209136 
L 174.293439 233.209136 
L 174.293439 232.649954 
L 174.503207 232.649954 
L 174.503207 232.090771 
L 174.638644 232.090771 
L 174.683554 230.972407 
L 174.994672 230.972407 
L 174.994672 230.413225 
L 175.334833 230.413225 
L 175.334833 229.854042 
L 176.917728 229.854042 
L 176.917728 229.29486 
L 177.245358 229.29486 
L 177.245358 228.735678 
L 177.475609 228.735678 
L 177.582012 227.058131 
L 177.665155 227.058131 
L 177.665155 226.498949 
L 177.815299 226.498949 
L 177.85263 224.26222 
L 177.934475 224.26222 
L 177.934475 223.703038 
L 178.067568 223.703038 
L 178.067568 223.143855 
L 178.460765 223.143855 
L 178.467962 222.025491 
L 178.61841 222.025491 
L 178.61841 221.466309 
L 178.795812 221.466309 
L 178.795812 220.907126 
L 179.082841 220.907126 
L 179.082841 220.347944 
L 179.412889 220.347944 
L 179.501196 218.670397 
L 179.5418 218.670397 
L 179.5418 218.111215 
L 182.278918 218.111215 
L 182.353678 216.992851 
L 183.894838 216.992851 
L 183.894838 216.433669 
L 184.072268 216.433669 
L 184.072268 215.874486 
L 184.813997 215.874486 
L 184.923037 214.756122 
L 185.31381 214.756122 
L 185.31381 214.19694 
L 185.453297 214.19694 
L 185.453297 213.637757 
L 185.672254 213.637757 
L 185.738342 211.960211 
L 185.869761 211.960211 
L 185.869761 211.401028 
L 186.503166 211.401028 
L 186.503166 210.841846 
L 186.912816 210.841846 
L 186.912816 210.282664 
L 187.462716 210.282664 
L 187.462716 209.723482 
L 189.172914 209.723482 
L 189.172914 209.164299 
L 189.391384 209.164299 
L 189.478758 208.045935 
L 189.558147 208.045935 
L 189.558147 207.486753 
L 189.864675 207.486753 
L 189.864675 206.92757 
L 190.012238 206.92757 
L 190.085546 205.809206 
L 191.637246 205.809206 
L 191.637246 205.250024 
L 192.639925 205.250024 
L 192.639925 204.690841 
L 192.803051 204.690841 
L 192.803051 204.131659 
L 193.026388 204.131659 
L 193.124725 202.454112 
L 193.909346 202.454112 
L 193.982374 201.335748 
L 194.679276 201.335748 
L 194.679276 200.776566 
L 194.818656 200.776566 
L 194.818656 200.217384 
L 195.613439 200.217384 
L 195.613439 199.658201 
L 195.897358 199.658201 
L 195.897358 199.099019 
L 196.065999 199.099019 
L 196.076323 197.980655 
L 196.362904 197.980655 
L 196.362904 197.421472 
L 197.207098 197.421472 
L 197.207098 196.86229 
L 197.339454 196.86229 
L 197.339454 196.303108 
L 197.463659 196.303108 
L 197.463659 195.743926 
L 198.360838 195.743926 
L 198.360838 195.184743 
L 198.495831 195.184743 
L 198.540594 193.507197 
L 198.629772 193.507197 
L 198.683056 192.388832 
L 198.760468 192.388832 
L 198.857294 191.270468 
L 199.064505 191.270468 
L 199.174721 190.152103 
L 200.474897 190.152103 
L 200.514792 189.033739 
L 200.740441 189.033739 
L 200.740441 188.474556 
L 201.058012 188.474556 
L 201.096577 187.356192 
L 201.375502 187.356192 
L 201.375502 186.79701 
L 201.899911 186.79701 
L 201.914609 185.678645 
L 202.880438 185.678645 
L 202.973926 184.001099 
L 203.042849 184.001099 
L 203.042849 183.441916 
L 204.291228 183.441916 
L 204.305614 182.323552 
L 204.440884 182.323552 
L 204.440884 181.76437 
L 204.56723 181.76437 
L 204.568804 180.646005 
L 204.759692 180.646005 
L 204.845059 178.968458 
L 204.954637 178.968458 
L 204.954637 178.409276 
L 206.033818 178.409276 
L 206.033818 177.850094 
L 206.291915 177.850094 
L 206.291915 177.290912 
L 207.536489 177.290912 
L 207.631527 176.172547 
L 207.926469 176.172547 
L 207.926469 175.613365 
L 208.683296 175.613365 
L 208.683296 175.054183 
L 209.047132 175.054183 
L 209.047132 174.495 
L 210.117338 174.495 
L 210.135551 173.376636 
L 210.236507 173.376636 
L 210.342495 171.139907 
L 210.563628 171.139907 
L 210.585807 170.021543 
L 211.342438 170.021543 
L 211.384804 168.903178 
L 212.455129 168.903178 
L 212.494839 167.225631 
L 212.647856 167.225631 
L 212.647856 166.666449 
L 213.308222 166.666449 
L 213.333738 165.548085 
L 213.457939 165.548085 
L 213.492592 164.42972 
L 213.800445 164.42972 
L 213.800445 163.870538 
L 213.936834 163.870538 
L 213.936834 163.311356 
L 214.495649 163.311356 
L 214.495649 162.752173 
L 214.636278 162.752173 
L 214.636278 162.192991 
L 214.923596 162.192991 
L 214.9786 161.074627 
L 215.308339 161.074627 
L 215.308339 160.515444 
L 215.758602 160.515444 
L 215.758602 159.956262 
L 216.287438 159.956262 
L 216.287438 159.39708 
L 216.563483 159.39708 
L 216.563483 158.837898 
L 216.934983 158.837898 
L 216.934983 158.278715 
L 217.518335 158.278715 
L 217.518335 157.719533 
L 218.578029 157.719533 
L 218.578029 157.160351 
L 219.892866 157.160351 
L 219.942419 156.041987 
L 220.594351 156.041987 
L 220.594351 155.482804 
L 221.008771 155.482804 
L 221.008771 154.923622 
L 222.221096 154.923622 
L 222.254828 153.805258 
L 223.65372 153.805258 
L 223.65372 153.246075 
L 224.096795 153.246075 
L 224.14868 152.127711 
L 226.405448 152.127711 
L 226.405448 151.568529 
L 227.141402 151.568529 
L 227.241669 150.450164 
L 227.324223 150.450164 
L 227.324223 149.890982 
L 228.204263 149.890982 
L 228.204263 149.3318 
L 228.753397 149.3318 
L 228.845468 148.213435 
L 230.526158 148.213435 
L 230.526158 147.654253 
L 231.067408 147.654253 
L 231.067408 147.095071 
L 232.081309 147.095071 
L 232.081309 146.535888 
L 234.237446 146.535888 
L 234.237446 145.976706 
L 234.836155 145.976706 
L 234.836155 145.417524 
L 235.197505 145.417524 
L 235.197505 144.858342 
L 235.990264 144.858342 
L 235.990264 144.299159 
L 238.099892 144.299159 
L 238.099892 143.739977 
L 238.432531 143.739977 
L 238.432531 143.180795 
L 239.742769 143.180795 
L 239.742769 142.621613 
L 240.351441 142.621613 
L 240.351441 142.06243 
L 240.691011 142.06243 
L 240.691011 141.503248 
L 240.930757 141.503248 
L 240.930757 140.944066 
L 241.667929 140.944066 
L 241.667929 140.384884 
L 242.444203 140.384884 
L 242.444203 139.825702 
L 249.807525 139.825702 
L 249.807525 139.266519 
L 250.488975 139.266519 
L 250.488975 138.707337 
L 256.031061 138.707337 
L 256.031061 138.148155 
L 260.990852 138.148155 
L 260.990852 137.588973 
L 333.569032 137.588973 
L 333.569032 137.588973 
" style="fill:none;stroke:#ffa500;stroke-linecap:square;stroke-width:1.5;"/>
   </g>
   <g id="line2d_35">
    <defs>
     <path d="M 0 -6 
L -1.347084 -1.854102 
L -5.706339 -1.854102 
L -2.179628 0.708204 
L -3.526712 4.854102 
L -0 2.291796 
L 3.526712 4.854102 
L 2.179628 0.708204 
L 5.706339 -1.854102 
L 1.347084 -1.854102 
z
" id="m5ddc034147" style="stroke:#ffa500;stroke-linejoin:bevel;stroke-width:1.5;"/>
    </defs>
    <g>
     <use style="fill-opacity:0;stroke:#ffa500;stroke-linejoin:bevel;stroke-width:1.5;" x="141.620849" xlink:href="#m5ddc034147" y="260.609066"/>
     <use style="fill-opacity:0;stroke:#ffa500;stroke-linejoin:bevel;stroke-width:1.5;" x="204.305614" xlink:href="#m5ddc034147" y="182.882734"/>
     <use style="fill-opacity:0;stroke:#ffa500;stroke-linejoin:bevel;stroke-width:1.5;" x="260.990852" xlink:href="#m5ddc034147" y="138.148155"/>
     <use style="fill-opacity:0;stroke:#ffa500;stroke-linejoin:bevel;stroke-width:1.5;" x="260.990852" xlink:href="#m5ddc034147" y="137.588973"/>
     <use style="fill-opacity:0;stroke:#ffa500;stroke-linejoin:bevel;stroke-width:1.5;" x="333.569032" xlink:href="#m5ddc034147" y="137.588973"/>
    </g>
   </g>
   <g id="line2d_36">
    <path style="fill:none;stroke:#ffa500;stroke-linecap:square;stroke-width:1.5;"/>
    <g/>
   </g>
   <g id="line2d_37">
    <path clip-path="url(#pb925b0c423)" d="M 164.375293 244.392781 
" style="fill:none;stroke:#ffa500;stroke-linecap:square;stroke-width:1.5;"/>
    <defs>
     <path d="M -12 12 
L 12 -12 
M -12 -12 
L 12 12 
" id="mdee567b261" style="stroke:#ffa500;stroke-width:3;"/>
    </defs>
    <g clip-path="url(#pb925b0c423)">
     <use style="fill:#ffa500;stroke:#ffa500;stroke-width:3;" x="164.375293" xlink:href="#mdee567b261" y="244.392781"/>
    </g>
   </g>
   <g id="line2d_38">
    <defs>
     <path d="M 0 1.5 
C 0.397805 1.5 0.77937 1.341951 1.06066 1.06066 
C 1.341951 0.77937 1.5 0.397805 1.5 0 
C 1.5 -0.397805 1.341951 -0.77937 1.06066 -1.06066 
C 0.77937 -1.341951 0.397805 -1.5 0 -1.5 
C -0.397805 -1.5 -0.77937 -1.341951 -1.06066 -1.06066 
C -1.341951 -0.77937 -1.5 -0.397805 -1.5 0 
C -1.5 0.397805 -1.341951 0.77937 -1.06066 1.06066 
C -0.77937 1.341951 -0.397805 1.5 0 1.5 
z
" id="m675d912ddf" style="stroke:#6495ed;"/>
    </defs>
    <g>
     <use style="fill:#6495ed;stroke:#6495ed;" x="259.076097" xlink:href="#m675d912ddf" y="159.956262"/>
     <use style="fill:#6495ed;stroke:#6495ed;" x="259.076097" xlink:href="#m675d912ddf" y="159.956262"/>
    </g>
   </g>
   <g id="line2d_39">
    <path d="M 94.563801 294.16 
L 94.563801 292.482453 
L 109.514915 292.482453 
L 109.514915 291.923271 
L 112.104369 291.923271 
L 112.104369 290.804907 
L 118.364869 290.804907 
L 118.364869 290.245724 
L 120.173787 290.245724 
L 120.173787 289.686542 
L 121.214642 289.686542 
L 121.214642 289.12736 
L 122.004153 289.12736 
L 122.004153 288.568178 
L 124.678278 288.568178 
L 124.678278 287.449813 
L 125.326236 287.449813 
L 125.326236 286.890631 
L 125.641269 286.890631 
L 125.641269 286.331449 
L 125.950626 286.331449 
L 125.950626 285.772266 
L 126.404454 285.772266 
L 126.404454 285.213084 
L 129.157352 285.213084 
L 129.157352 284.653902 
L 131.080349 284.653902 
L 131.080349 283.535537 
L 131.306258 283.535537 
L 131.306258 281.298808 
L 131.749349 281.298808 
L 131.858358 278.502897 
L 132.181293 278.502897 
L 132.181293 277.943715 
L 132.706375 277.943715 
L 132.706375 277.384533 
L 132.911992 277.384533 
L 132.911992 276.825351 
L 133.514469 276.825351 
L 133.514469 275.147804 
L 133.807961 275.147804 
L 133.807961 274.588622 
L 134.473872 274.588622 
L 134.473872 274.029439 
L 134.93419 274.029439 
L 134.93419 272.911075 
L 136.076273 272.911075 
L 136.076273 272.351893 
L 136.49607 272.351893 
L 136.49607 271.233528 
L 136.661157 271.233528 
L 136.661157 270.115164 
L 137.306072 270.115164 
L 137.306072 269.555981 
L 138.819725 269.555981 
L 138.819725 268.996799 
L 139.035688 268.996799 
L 139.035688 268.437617 
L 139.667741 268.437617 
L 139.667741 267.878435 
L 139.941354 267.878435 
L 139.941354 267.319252 
L 140.076542 267.319252 
L 140.076542 266.76007 
L 140.736964 266.76007 
L 140.736964 266.200888 
L 140.99418 266.200888 
L 140.99418 265.641706 
L 141.86525 265.641706 
L 141.86525 265.082523 
L 142.284754 265.082523 
L 142.284754 263.964159 
L 142.578245 263.964159 
L 142.578245 262.845795 
L 143.03764 262.845795 
L 143.094209 261.168248 
L 143.540178 261.168248 
L 143.540178 260.049883 
L 144.451064 260.049883 
L 144.451064 259.490701 
L 144.606909 259.490701 
L 144.606909 258.931519 
L 145.513393 258.931519 
L 145.513393 258.372337 
L 145.901406 258.372337 
L 145.901406 257.813154 
L 146.560017 257.813154 
L 146.560017 257.253972 
L 148.313462 257.253972 
L 148.313462 256.69479 
L 148.967593 256.69479 
L 148.967593 256.135608 
L 149.442337 256.135608 
L 149.442337 255.576425 
L 149.789975 255.576425 
L 149.866281 254.458061 
L 150.61125 254.458061 
L 150.61125 253.898879 
L 151.671392 253.898879 
L 151.739794 252.780514 
L 151.841888 252.780514 
L 151.943379 251.102967 
L 152.077774 251.102967 
L 152.077774 249.984603 
L 153.11666 249.984603 
L 153.11666 249.425421 
L 153.366847 249.425421 
L 153.366847 248.866238 
L 154.994743 248.866238 
L 155.022958 246.62951 
L 156.455652 246.62951 
L 156.455652 246.070327 
L 158.460551 246.070327 
L 158.460551 245.511145 
L 161.709617 245.511145 
L 161.709617 244.951963 
L 166.085822 244.951963 
L 166.085822 244.392781 
L 166.451909 244.392781 
L 166.451909 243.833598 
L 167.396187 243.833598 
L 167.396187 243.274416 
L 167.975952 243.274416 
L 167.975952 242.715234 
L 168.330232 242.715234 
L 168.395044 241.596869 
L 168.588027 241.596869 
L 168.588027 241.037687 
L 168.766208 241.037687 
L 168.766208 240.478505 
L 168.967604 240.478505 
L 168.967604 239.919323 
L 169.191386 239.919323 
L 169.191386 239.36014 
L 169.714459 239.36014 
L 169.714459 238.800958 
L 170.939674 238.800958 
L 170.939674 238.241776 
L 171.852085 238.241776 
L 171.852085 237.123411 
L 172.403784 237.123411 
L 172.403784 236.564229 
L 172.768661 236.564229 
L 172.768661 236.005047 
L 176.422362 236.005047 
L 176.422362 235.445865 
L 176.679819 235.445865 
L 176.679819 234.886682 
L 177.152385 234.886682 
L 177.152385 234.3275 
L 177.460355 234.3275 
L 177.513686 233.209136 
L 177.717855 233.209136 
L 177.717855 232.649954 
L 177.87499 232.649954 
L 177.904759 231.531589 
L 178.052831 231.531589 
L 178.074932 230.413225 
L 178.915407 230.413225 
L 178.922416 229.29486 
L 179.13137 229.29486 
L 179.159039 228.176496 
L 180.159188 228.176496 
L 180.159188 227.617313 
L 180.289108 227.617313 
L 180.289108 227.058131 
L 181.294523 227.058131 
L 181.294523 226.498949 
L 184.222171 226.498949 
L 184.319677 224.821402 
L 184.340135 224.821402 
L 184.421721 223.703038 
L 184.843804 223.703038 
L 184.843804 223.143855 
L 185.921116 223.143855 
L 186.014097 222.025491 
L 186.740352 222.025491 
L 186.740352 221.466309 
L 189.025708 221.466309 
L 189.025708 220.907126 
L 189.165198 220.907126 
L 189.165198 220.347944 
L 189.550602 220.347944 
L 189.550602 219.788762 
L 189.88689 219.788762 
L 189.960735 218.111215 
L 190.227604 218.111215 
L 190.227604 217.552033 
L 190.561688 217.552033 
L 190.561688 216.992851 
L 190.906837 216.992851 
L 190.906837 216.433669 
L 192.1313 216.433669 
L 192.1313 215.874486 
L 192.500675 215.874486 
L 192.500675 215.315304 
L 192.665122 215.315304 
L 192.774928 214.19694 
L 193.274219 214.19694 
L 193.274219 213.637757 
L 193.569358 213.637757 
L 193.59621 212.519393 
L 193.726885 212.519393 
L 193.726885 211.960211 
L 195.698053 211.960211 
L 195.792749 210.282664 
L 196.117557 210.282664 
L 196.117557 209.723482 
L 196.347672 209.723482 
L 196.347672 209.164299 
L 196.90244 209.164299 
L 196.90244 208.045935 
L 198.256619 208.045935 
L 198.256619 207.486753 
L 199.33126 207.486753 
L 199.33126 206.92757 
L 200.148284 206.92757 
L 200.148284 206.368388 
L 200.4269 206.368388 
L 200.4269 205.809206 
L 200.633924 205.809206 
L 200.633924 205.250024 
L 200.953454 205.250024 
L 201.034832 204.131659 
L 201.348952 204.131659 
L 201.348952 203.572477 
L 202.71998 203.572477 
L 202.71998 203.013295 
L 202.953195 203.013295 
L 202.956651 201.89493 
L 203.692463 201.89493 
L 203.692463 201.335748 
L 204.188584 201.335748 
L 204.188584 200.776566 
L 204.58453 200.776566 
L 204.58453 200.217384 
L 204.820269 200.217384 
L 204.820269 199.658201 
L 206.229182 199.658201 
L 206.229182 199.099019 
L 206.949463 199.099019 
L 206.949463 198.539837 
L 207.37825 198.539837 
L 207.37825 197.980655 
L 207.65389 197.980655 
L 207.682788 196.86229 
L 208.86924 196.86229 
L 208.86924 196.303108 
L 209.005869 196.303108 
L 209.005869 195.743926 
L 209.126948 195.743926 
L 209.126948 195.184743 
L 210.045437 195.184743 
L 210.045437 194.625561 
L 210.304235 194.625561 
L 210.363839 193.507197 
L 212.480951 193.507197 
L 212.540393 191.82965 
L 213.258973 191.82965 
L 213.316731 190.711285 
L 214.169564 190.711285 
L 214.169564 190.152103 
L 214.957994 190.152103 
L 214.957994 189.033739 
L 215.30413 189.033739 
L 215.369676 187.915374 
L 215.419926 187.915374 
L 215.419926 187.356192 
L 215.571458 187.356192 
L 215.571458 186.79701 
L 216.110018 186.79701 
L 216.134101 185.678645 
L 216.704515 185.678645 
L 216.704515 185.119463 
L 217.117004 185.119463 
L 217.117004 184.560281 
L 218.000681 184.560281 
L 218.010033 183.441916 
L 218.666166 183.441916 
L 218.666166 182.882734 
L 218.935389 182.882734 
L 218.935389 182.323552 
L 219.237322 182.323552 
L 219.237322 181.76437 
L 219.404564 181.76437 
L 219.404564 181.205187 
L 221.321751 181.205187 
L 221.321751 180.646005 
L 222.500743 180.646005 
L 222.500743 180.086823 
L 224.13157 180.086823 
L 224.13157 179.527641 
L 225.628685 179.527641 
L 225.628685 178.968458 
L 225.979464 178.968458 
L 225.979464 178.409276 
L 226.197349 178.409276 
L 226.197349 177.850094 
L 226.624994 177.850094 
L 226.624994 177.290912 
L 227.07621 177.290912 
L 227.07621 176.731729 
L 228.778766 176.731729 
L 228.778766 176.172547 
L 231.049246 176.172547 
L 231.08958 175.054183 
L 231.458245 175.054183 
L 231.458245 174.495 
L 232.488079 174.495 
L 232.488079 173.935818 
L 233.744703 173.935818 
L 233.744703 173.376636 
L 233.874217 173.376636 
L 233.874217 172.817454 
L 235.156757 172.817454 
L 235.156757 172.258271 
L 236.48476 172.258271 
L 236.48476 171.699089 
L 236.773605 171.699089 
L 236.773605 171.139907 
L 237.757948 171.139907 
L 237.757948 170.580725 
L 237.981423 170.580725 
L 237.981423 170.021543 
L 239.815424 170.021543 
L 239.815424 169.46236 
L 239.979634 169.46236 
L 239.999626 168.343996 
L 240.092282 168.343996 
L 240.092282 167.784814 
L 241.262695 167.784814 
L 241.262695 167.225631 
L 242.338347 167.225631 
L 242.338347 166.666449 
L 243.065486 166.666449 
L 243.065486 166.107267 
L 246.038195 166.107267 
L 246.038195 165.548085 
L 247.009541 165.548085 
L 247.009541 164.988902 
L 249.045607 164.988902 
L 249.045607 164.42972 
L 249.845964 164.42972 
L 249.845964 163.870538 
L 250.31905 163.870538 
L 250.418441 162.752173 
L 252.579066 162.752173 
L 252.579066 162.192991 
L 253.372636 162.192991 
L 253.372636 161.633809 
L 253.660858 161.633809 
L 253.660858 161.074627 
L 253.849164 161.074627 
L 253.849164 160.515444 
L 259.076097 160.515444 
L 259.076097 159.956262 
L 333.569032 159.956262 
L 333.569032 159.956262 
" style="fill:none;stroke:#6495ed;stroke-linecap:square;stroke-width:1.5;"/>
   </g>
   <g id="line2d_40">
    <defs>
     <path d="M -0 6 
L 6 -6 
L -6 -6 
z
" id="m9212393e15" style="stroke:#6495ed;stroke-linejoin:miter;stroke-width:1.5;"/>
    </defs>
    <g>
     <use style="fill-opacity:0;stroke:#6495ed;stroke-linejoin:miter;stroke-width:1.5;" x="126.404454" xlink:href="#m9212393e15" y="285.213084"/>
     <use style="fill-opacity:0;stroke:#6495ed;stroke-linejoin:miter;stroke-width:1.5;" x="200.148284" xlink:href="#m9212393e15" y="206.368388"/>
     <use style="fill-opacity:0;stroke:#6495ed;stroke-linejoin:miter;stroke-width:1.5;" x="249.845964" xlink:href="#m9212393e15" y="164.42972"/>
     <use style="fill-opacity:0;stroke:#6495ed;stroke-linejoin:miter;stroke-width:1.5;" x="259.076097" xlink:href="#m9212393e15" y="159.956262"/>
     <use style="fill-opacity:0;stroke:#6495ed;stroke-linejoin:miter;stroke-width:1.5;" x="333.569032" xlink:href="#m9212393e15" y="159.956262"/>
    </g>
   </g>
   <g id="line2d_41">
    <path style="fill:none;stroke:#6495ed;stroke-linecap:square;stroke-width:1.5;"/>
    <g/>
   </g>
   <g id="line2d_42">
    <path clip-path="url(#pb925b0c423)" d="M 164.375293 244.951963 
" style="fill:none;stroke:#6495ed;stroke-linecap:square;stroke-width:1.5;"/>
    <defs>
     <path d="M -12 12 
L 12 -12 
M -12 -12 
L 12 12 
" id="mcad7f77849" style="stroke:#6495ed;stroke-width:3;"/>
    </defs>
    <g clip-path="url(#pb925b0c423)">
     <use style="fill:#6495ed;stroke:#6495ed;stroke-width:3;" x="164.375293" xlink:href="#mcad7f77849" y="244.951963"/>
    </g>
   </g>
   <g id="line2d_43">
    <defs>
     <path d="M 0 1.5 
C 0.397805 1.5 0.77937 1.341951 1.06066 1.06066 
C 1.341951 0.77937 1.5 0.397805 1.5 0 
C 1.5 -0.397805 1.341951 -0.77937 1.06066 -1.06066 
C 0.77937 -1.341951 0.397805 -1.5 0 -1.5 
C -0.397805 -1.5 -0.77937 -1.341951 -1.06066 -1.06066 
C -1.341951 -0.77937 -1.5 -0.397805 -1.5 0 
C -1.5 0.397805 -1.341951 0.77937 -1.06066 1.06066 
C -0.77937 1.341951 -0.397805 1.5 0 1.5 
z
" id="m55bdfb0269" style="stroke:#ff0000;"/>
    </defs>
    <g>
     <use style="fill:#ff0000;stroke:#ff0000;" x="255.728319" xlink:href="#m55bdfb0269" y="98.446216"/>
     <use style="fill:#ff0000;stroke:#ff0000;" x="255.728319" xlink:href="#m55bdfb0269" y="98.446216"/>
    </g>
   </g>
   <g id="line2d_44">
    <path d="M 44.939466 294.16 
L 44.939466 274.029439 
L 56.84 274.029439 
L 56.84 257.813154 
L 63.801366 257.813154 
L 63.801366 251.102967 
L 68.740534 251.102967 
L 68.740534 246.62951 
L 72.57165 246.62951 
L 72.57165 243.833598 
L 75.7019 243.833598 
L 75.7019 242.715234 
L 78.348489 242.715234 
L 78.348489 242.156052 
L 80.641068 242.156052 
L 80.641068 241.037687 
L 84.472185 241.037687 
L 84.472185 239.919323 
L 87.602435 239.919323 
L 87.602435 239.36014 
L 88.976675 239.36014 
L 88.976675 237.682594 
L 90.249023 237.682594 
L 90.249023 234.886682 
L 91.433551 234.886682 
L 91.433551 233.209136 
L 92.541603 233.209136 
L 92.541603 232.090771 
L 93.582457 232.090771 
L 93.582457 230.972407 
L 94.563801 230.972407 
L 94.563801 230.413225 
L 97.210389 230.413225 
L 97.210389 228.735678 
L 98.77227 228.735678 
L 98.77227 227.617313 
L 100.203835 227.617313 
L 100.203835 224.821402 
L 101.525167 224.821402 
L 101.525167 223.703038 
L 102.149557 223.703038 
L 102.149557 223.143855 
L 105.980674 223.143855 
L 105.980674 222.025491 
L 107.392607 222.025491 
L 107.392607 220.907126 
L 107.838576 220.907126 
L 107.838576 220.347944 
L 110.672804 220.347944 
L 110.672804 219.22958 
L 113.104779 219.22958 
L 113.104779 218.670397 
L 113.425701 218.670397 
L 113.425701 216.992851 
L 114.050092 216.992851 
L 114.050092 216.433669 
L 114.652569 216.433669 
L 114.652569 215.874486 
L 115.234619 215.874486 
L 115.234619 215.315304 
L 117.383526 215.315304 
L 117.383526 213.078575 
L 118.601685 213.078575 
L 118.601685 212.519393 
L 120.173787 212.519393 
L 120.173787 211.960211 
L 120.805841 211.960211 
L 120.805841 211.401028 
L 121.613935 211.401028 
L 121.613935 210.282664 
L 122.942575 210.282664 
L 122.942575 209.723482 
L 123.304037 209.723482 
L 123.304037 209.164299 
L 126.254507 209.164299 
L 126.254507 206.92757 
L 129.903941 206.92757 
L 129.903941 206.368388 
L 131.418108 206.368388 
L 131.418108 205.809206 
L 131.529233 205.809206 
L 131.639644 204.690841 
L 131.858358 204.690841 
L 131.858358 204.131659 
L 132.809491 204.131659 
L 132.809491 203.013295 
L 133.415513 203.013295 
L 133.514469 201.335748 
L 133.904687 201.335748 
L 133.904687 200.776566 
L 134.566928 200.776566 
L 134.566928 200.217384 
L 135.29376 200.217384 
L 135.29376 199.658201 
L 135.991068 199.658201 
L 135.991068 198.539837 
L 136.245426 198.539837 
L 136.245426 197.980655 
L 136.578812 197.980655 
L 136.578812 197.421472 
L 137.067058 197.421472 
L 137.067058 196.86229 
L 138.230179 196.86229 
L 138.230179 196.303108 
L 139.107076 196.303108 
L 139.107076 195.743926 
L 139.248968 195.743926 
L 139.319477 194.625561 
L 139.667741 194.625561 
L 139.667741 194.066379 
L 139.805092 194.066379 
L 139.805092 193.507197 
L 140.672053 193.507197 
L 140.672053 192.948014 
L 140.80163 192.948014 
L 140.866053 190.711285 
L 140.930236 190.711285 
L 140.930236 190.152103 
L 141.86525 190.152103 
L 141.86525 189.592921 
L 142.046294 189.592921 
L 142.046294 189.033739 
L 143.206792 189.033739 
L 143.262808 187.915374 
L 143.429767 187.915374 
L 143.429767 187.356192 
L 143.649884 187.356192 
L 143.649884 186.79701 
L 143.813139 186.79701 
L 143.813139 185.119463 
L 143.974856 185.119463 
L 143.974856 184.560281 
L 144.346375 184.560281 
L 144.346375 184.001099 
L 145.756926 184.001099 
L 145.756926 183.441916 
L 145.901406 183.441916 
L 145.949296 181.76437 
L 146.467463 181.76437 
L 146.467463 180.646005 
L 147.633419 180.646005 
L 147.633419 180.086823 
L 147.934258 180.086823 
L 147.934258 179.527641 
L 148.396605 179.527641 
L 148.396605 178.968458 
L 148.765841 178.968458 
L 148.765841 178.409276 
L 151.705627 178.409276 
L 151.705627 177.850094 
L 152.37637 177.850094 
L 152.37637 177.290912 
L 153.428829 177.290912 
L 153.459736 176.172547 
L 153.735423 176.172547 
L 153.735423 175.613365 
L 154.006754 175.613365 
L 154.096253 174.495 
L 156.246909 174.495 
L 156.246909 173.935818 
L 157.753915 173.935818 
L 157.80194 172.817454 
L 159.749375 172.817454 
L 159.749375 171.699089 
L 159.877342 171.699089 
L 159.919786 170.021543 
L 160.193148 170.021543 
L 160.193148 169.46236 
L 160.523726 169.46236 
L 160.523726 168.903178 
L 161.381847 168.903178 
L 161.381847 167.784814 
L 164.890719 167.784814 
L 164.890719 167.225631 
L 165.847362 167.225631 
L 165.847362 166.666449 
L 166.291792 166.666449 
L 166.291792 166.107267 
L 167.161467 166.107267 
L 167.161467 165.548085 
L 167.423591 165.548085 
L 167.423591 164.988902 
L 167.546373 164.988902 
L 167.546373 164.42972 
L 167.695256 164.42972 
L 167.695256 163.870538 
L 168.028901 163.870538 
L 168.028901 163.311356 
L 168.252132 163.311356 
L 168.252132 162.752173 
L 168.369148 162.752173 
L 168.472498 161.633809 
L 169.030059 161.633809 
L 169.030059 161.074627 
L 169.412289 161.074627 
L 169.460995 159.39708 
L 169.702474 159.39708 
L 169.702474 158.837898 
L 170.37262 158.837898 
L 170.37262 158.278715 
L 170.681153 158.278715 
L 170.681153 157.719533 
L 171.894347 157.719533 
L 171.894347 157.160351 
L 172.34221 157.160351 
L 172.34221 156.601169 
L 172.898539 156.601169 
L 172.898539 156.041987 
L 174.118198 156.041987 
L 174.182969 154.36444 
L 176.078482 154.36444 
L 176.078482 153.805258 
L 176.52742 153.805258 
L 176.52742 153.246075 
L 177.183432 153.246075 
L 177.183432 152.686893 
L 177.993755 152.686893 
L 178.015932 151.009346 
L 178.668267 151.009346 
L 178.76755 148.772617 
L 179.041135 148.772617 
L 179.041135 148.213435 
L 179.20046 148.213435 
L 179.289863 147.095071 
L 179.337811 147.095071 
L 179.337811 146.535888 
L 180.475763 146.535888 
L 180.546035 145.417524 
L 180.729932 145.417524 
L 180.799174 144.299159 
L 181.030051 144.299159 
L 181.030051 143.739977 
L 181.312824 143.739977 
L 181.312824 143.180795 
L 181.554983 143.180795 
L 181.656876 142.06243 
L 181.935472 142.06243 
L 181.941351 140.944066 
L 184.502922 140.944066 
L 184.502922 140.384884 
L 185.090203 140.384884 
L 185.104875 139.266519 
L 185.241214 139.266519 
L 185.304148 138.148155 
L 185.794788 138.148155 
L 185.794788 137.02979 
L 186.842271 137.02979 
L 186.930407 135.911426 
L 187.338691 135.911426 
L 187.338691 135.352244 
L 187.466977 135.352244 
L 187.560448 134.233879 
L 189.134298 134.233879 
L 189.134298 133.674697 
L 189.257566 133.674697 
L 189.295906 132.556332 
L 189.448418 132.556332 
L 189.448418 131.99715 
L 189.599586 131.99715 
L 189.599586 131.437968 
L 190.379286 131.437968 
L 190.379286 130.878786 
L 191.333842 130.878786 
L 191.40173 129.201239 
L 193.106329 129.201239 
L 193.106329 128.642057 
L 193.337891 128.642057 
L 193.337891 128.082874 
L 194.242732 128.082874 
L 194.242732 127.523692 
L 194.578216 127.523692 
L 194.578216 126.96451 
L 196.032403 126.96451 
L 196.032403 126.405328 
L 197.257754 126.405328 
L 197.351436 124.727781 
L 198.567396 124.727781 
L 198.576321 123.609417 
L 198.745014 123.609417 
L 198.745014 123.050234 
L 199.511752 123.050234 
L 199.534972 121.93187 
L 200.488871 121.93187 
L 200.554595 120.813505 
L 200.840436 120.813505 
L 200.840436 120.254323 
L 201.864953 120.254323 
L 201.864953 119.695141 
L 202.779454 119.695141 
L 202.779454 119.135959 
L 203.607809 119.135959 
L 203.607809 118.576776 
L 203.763514 118.576776 
L 203.763514 118.017594 
L 204.553063 118.017594 
L 204.553063 117.458412 
L 205.241452 117.458412 
L 205.241452 116.89923 
L 206.081428 116.89923 
L 206.081428 116.340047 
L 207.557654 116.340047 
L 207.557654 115.780865 
L 209.399855 115.780865 
L 209.399855 115.221683 
L 210.602423 115.221683 
L 210.626763 114.103318 
L 211.81107 114.103318 
L 211.81107 113.544136 
L 212.873399 113.544136 
L 212.873399 112.984954 
L 215.692058 112.984954 
L 215.718378 111.866589 
L 216.369927 111.866589 
L 216.369927 111.307407 
L 218.121144 111.307407 
L 218.121144 110.748225 
L 218.641921 110.748225 
L 218.641921 110.189043 
L 219.939206 110.189043 
L 219.939206 109.629861 
L 223.247214 109.629861 
L 223.247214 109.070678 
L 223.988997 109.070678 
L 223.988997 108.511496 
L 225.161404 108.511496 
L 225.161404 107.952314 
L 226.775857 107.952314 
L 226.775857 107.393132 
L 227.168422 107.393132 
L 227.168422 106.833949 
L 227.638626 106.833949 
L 227.681261 105.156403 
L 227.87101 105.156403 
L 227.87101 104.59722 
L 231.252636 104.59722 
L 231.252636 104.038038 
L 236.491134 104.038038 
L 236.491134 103.478856 
L 237.642819 103.478856 
L 237.642819 102.919674 
L 240.195902 102.919674 
L 240.195902 102.360491 
L 243.67588 102.360491 
L 243.67588 101.801309 
L 244.072863 101.801309 
L 244.072863 101.242127 
L 246.56662 101.242127 
L 246.56662 100.682945 
L 248.626818 100.682945 
L 248.626818 100.123762 
L 248.908569 100.123762 
L 248.908569 99.56458 
L 250.853722 99.56458 
L 250.853722 99.005398 
L 255.728319 99.005398 
L 255.728319 98.446216 
L 333.569032 98.446216 
L 333.569032 98.446216 
" style="fill:none;stroke:#ff0000;stroke-linecap:square;stroke-width:1.5;"/>
   </g>
   <g id="line2d_45">
    <defs>
     <path d="M 0 -6 
L -5.196152 -3 
L -5.196152 3 
L -0 6 
L 5.196152 3 
L 5.196152 -3 
z
" id="m5111fa2eb3" style="stroke:#ff0000;stroke-linejoin:miter;stroke-width:1.5;"/>
    </defs>
    <g>
     <use style="fill-opacity:0;stroke:#ff0000;stroke-linejoin:miter;stroke-width:1.5;" x="117.383526" xlink:href="#m5111fa2eb3" y="215.315304"/>
     <use style="fill-opacity:0;stroke:#ff0000;stroke-linejoin:miter;stroke-width:1.5;" x="191.340643" xlink:href="#m5111fa2eb3" y="130.319603"/>
     <use style="fill-opacity:0;stroke:#ff0000;stroke-linejoin:miter;stroke-width:1.5;" x="248.908569" xlink:href="#m5111fa2eb3" y="99.56458"/>
     <use style="fill-opacity:0;stroke:#ff0000;stroke-linejoin:miter;stroke-width:1.5;" x="255.728319" xlink:href="#m5111fa2eb3" y="98.446216"/>
     <use style="fill-opacity:0;stroke:#ff0000;stroke-linejoin:miter;stroke-width:1.5;" x="255.728319" xlink:href="#m5111fa2eb3" y="98.446216"/>
     <use style="fill-opacity:0;stroke:#ff0000;stroke-linejoin:miter;stroke-width:1.5;" x="333.569032" xlink:href="#m5111fa2eb3" y="98.446216"/>
    </g>
   </g>
   <g id="line2d_46">
    <path style="fill:none;stroke:#ff0000;stroke-linecap:square;stroke-width:1.5;"/>
    <g/>
   </g>
   <g id="line2d_47">
    <path clip-path="url(#pb925b0c423)" d="M 164.375293 167.784814 
" style="fill:none;stroke:#ff0000;stroke-linecap:square;stroke-width:1.5;"/>
    <defs>
     <path d="M -12 12 
L 12 -12 
M -12 -12 
L 12 12 
" id="m0597de72b0" style="stroke:#ff0000;stroke-width:3;"/>
    </defs>
    <g clip-path="url(#pb925b0c423)">
     <use style="fill:#ff0000;stroke:#ff0000;stroke-width:3;" x="164.375293" xlink:href="#m0597de72b0" y="167.784814"/>
    </g>
   </g>
   <g id="line2d_48">
    <path d="M 333.569032 204.690841 
L 364.009226 288.456341 
" style="fill:none;stroke:#ff00ff;stroke-linecap:square;stroke-width:1.5;"/>
    <g>
     <use style="fill-opacity:0;stroke:#ff00ff;stroke-linejoin:miter;stroke-width:1.5;" x="333.569032" xlink:href="#mf0291f9aa4" y="204.690841"/>
     <use style="fill-opacity:0;stroke:#ff00ff;stroke-linejoin:miter;stroke-width:1.5;" x="364.009226" xlink:href="#mf0291f9aa4" y="288.456341"/>
    </g>
   </g>
   <g id="line2d_49">
    <path d="M 333.569032 159.956262 
L 364.009226 220.012435 
" style="fill:none;stroke:#6495ed;stroke-linecap:square;stroke-width:1.5;"/>
    <g>
     <use style="fill-opacity:0;stroke:#6495ed;stroke-linejoin:miter;stroke-width:1.5;" x="333.569032" xlink:href="#m9212393e15" y="159.956262"/>
     <use style="fill-opacity:0;stroke:#6495ed;stroke-linejoin:miter;stroke-width:1.5;" x="364.009226" xlink:href="#m9212393e15" y="220.012435"/>
    </g>
   </g>
   <g id="line2d_50">
    <path d="M 333.569032 137.588973 
L 364.009226 151.568529 
" style="fill:none;stroke:#ffa500;stroke-linecap:square;stroke-width:1.5;"/>
    <g>
     <use style="fill-opacity:0;stroke:#ffa500;stroke-linejoin:bevel;stroke-width:1.5;" x="333.569032" xlink:href="#m5ddc034147" y="137.588973"/>
     <use style="fill-opacity:0;stroke:#ffa500;stroke-linejoin:bevel;stroke-width:1.5;" x="364.009226" xlink:href="#m5ddc034147" y="151.568529"/>
    </g>
   </g>
   <g id="line2d_51">
    <path d="M 333.569032 126.405328 
L 364.009226 83.124622 
" style="fill:none;stroke:#000080;stroke-linecap:square;stroke-width:1.5;"/>
    <g>
     <use style="fill-opacity:0;stroke:#000080;stroke-width:1.5;" x="333.569032" xlink:href="#mb923157567" y="126.405328"/>
     <use style="fill-opacity:0;stroke:#000080;stroke-width:1.5;" x="364.009226" xlink:href="#mb923157567" y="83.124622"/>
    </g>
   </g>
   <g id="line2d_52">
    <path d="M 333.569032 98.446216 
L 364.009226 14.680716 
" style="fill:none;stroke:#ff0000;stroke-linecap:square;stroke-width:1.5;"/>
    <g>
     <use style="fill-opacity:0;stroke:#ff0000;stroke-linejoin:miter;stroke-width:1.5;" x="333.569032" xlink:href="#m5111fa2eb3" y="98.446216"/>
     <use style="fill-opacity:0;stroke:#ff0000;stroke-linejoin:miter;stroke-width:1.5;" x="364.009226" xlink:href="#m5111fa2eb3" y="14.680716"/>
    </g>
   </g>
   <g id="line2d_53">
    <path d="M 333.569032 294.16 
L 333.569032 8.977057 
" style="fill:none;stroke:#000000;stroke-linecap:square;stroke-width:1.5;"/>
   </g>
   <g id="patch_3">
    <path d="M 56.84 294.16 
L 56.84 6.125228 
" style="fill:none;stroke:#000000;stroke-linecap:square;stroke-linejoin:miter;stroke-width:0.8;"/>
   </g>
   <g id="patch_4">
    <path d="M 399.984 294.16 
L 399.984 6.125228 
" style="fill:none;stroke:#000000;stroke-linecap:square;stroke-linejoin:miter;stroke-width:0.8;"/>
   </g>
   <g id="patch_5">
    <path d="M 56.84 294.16 
L 399.984 294.16 
" style="fill:none;stroke:#000000;stroke-linecap:square;stroke-linejoin:miter;stroke-width:0.8;"/>
   </g>
   <g id="patch_6">
    <path d="M 56.84 6.125228 
L 399.984 6.125228 
" style="fill:none;stroke:#000000;stroke-linecap:square;stroke-linejoin:miter;stroke-width:0.8;"/>
   </g>
   <g id="text_14">
    <!-- f13 -->
    <defs>
     <path d="M 40.578125 39.3125 
Q 47.65625 37.796875 51.625 33 
Q 55.609375 28.21875 55.609375 21.1875 
Q 55.609375 10.40625 48.1875 4.484375 
Q 40.765625 -1.421875 27.09375 -1.421875 
Q 22.515625 -1.421875 17.65625 -0.515625 
Q 12.796875 0.390625 7.625 2.203125 
L 7.625 11.71875 
Q 11.71875 9.328125 16.59375 8.109375 
Q 21.484375 6.890625 26.8125 6.890625 
Q 36.078125 6.890625 40.9375 10.546875 
Q 45.796875 14.203125 45.796875 21.1875 
Q 45.796875 27.640625 41.28125 31.265625 
Q 36.765625 34.90625 28.71875 34.90625 
L 20.21875 34.90625 
L 20.21875 43.015625 
L 29.109375 43.015625 
Q 36.375 43.015625 40.234375 45.921875 
Q 44.09375 48.828125 44.09375 54.296875 
Q 44.09375 59.90625 40.109375 62.90625 
Q 36.140625 65.921875 28.71875 65.921875 
Q 24.65625 65.921875 20.015625 65.03125 
Q 15.375 64.15625 9.8125 62.3125 
L 9.8125 71.09375 
Q 15.4375 72.65625 20.34375 73.4375 
Q 25.25 74.21875 29.59375 74.21875 
Q 40.828125 74.21875 47.359375 69.109375 
Q 53.90625 64.015625 53.90625 55.328125 
Q 53.90625 49.265625 50.4375 45.09375 
Q 46.96875 40.921875 40.578125 39.3125 
z
" id="DejaVuSans-33"/>
    </defs>
    <g transform="translate(369.543806 293.147279)scale(0.17 -0.17)">
     <use xlink:href="#DejaVuSans-66"/>
     <use x="35.205078" xlink:href="#DejaVuSans-31"/>
     <use x="98.828125" xlink:href="#DejaVuSans-33"/>
    </g>
   </g>
   <g id="text_15">
    <!-- f11 -->
    <g transform="translate(369.543806 224.703372)scale(0.17 -0.17)">
     <use xlink:href="#DejaVuSans-66"/>
     <use x="35.205078" xlink:href="#DejaVuSans-31"/>
     <use x="98.828125" xlink:href="#DejaVuSans-31"/>
    </g>
   </g>
   <g id="text_16">
    <!-- f10 -->
    <g transform="translate(369.543806 156.259466)scale(0.17 -0.17)">
     <use xlink:href="#DejaVuSans-66"/>
     <use x="35.205078" xlink:href="#DejaVuSans-31"/>
     <use x="98.828125" xlink:href="#DejaVuSans-30"/>
    </g>
   </g>
   <g id="text_17">
    <!-- f12 -->
    <g transform="translate(369.543806 87.81556)scale(0.17 -0.17)">
     <use xlink:href="#DejaVuSans-66"/>
     <use x="35.205078" xlink:href="#DejaVuSans-31"/>
     <use x="98.828125" xlink:href="#DejaVuSans-32"/>
    </g>
   </g>
   <g id="text_18">
    <!-- f14 -->
    <g transform="translate(369.543806 19.371654)scale(0.17 -0.17)">
     <use xlink:href="#DejaVuSans-66"/>
     <use x="35.205078" xlink:href="#DejaVuSans-31"/>
     <use x="98.828125" xlink:href="#DejaVuSans-34"/>
    </g>
   </g>
   <g id="text_19">
    <!-- bbob -->
    <defs>
     <path d="M 48.6875 27.296875 
Q 48.6875 37.203125 44.609375 42.84375 
Q 40.53125 48.484375 33.40625 48.484375 
Q 26.265625 48.484375 22.1875 42.84375 
Q 18.109375 37.203125 18.109375 27.296875 
Q 18.109375 17.390625 22.1875 11.75 
Q 26.265625 6.109375 33.40625 6.109375 
Q 40.53125 6.109375 44.609375 11.75 
Q 48.6875 17.390625 48.6875 27.296875 
z
M 18.109375 46.390625 
Q 20.953125 51.265625 25.265625 53.625 
Q 29.59375 56 35.59375 56 
Q 45.5625 56 51.78125 48.09375 
Q 58.015625 40.1875 58.015625 27.296875 
Q 58.015625 14.40625 51.78125 6.484375 
Q 45.5625 -1.421875 35.59375 -1.421875 
Q 29.59375 -1.421875 25.265625 0.953125 
Q 20.953125 3.328125 18.109375 8.203125 
L 18.109375 0 
L 9.078125 0 
L 9.078125 75.984375 
L 18.109375 75.984375 
z
" id="DejaVuSans-62"/>
    </defs>
    <g transform="translate(60.27144 16.755982)scale(0.102 -0.102)">
     <use xlink:href="#DejaVuSans-62"/>
     <use x="63.476562" xlink:href="#DejaVuSans-62"/>
     <use x="126.953125" xlink:href="#DejaVuSans-6f"/>
     <use x="188.134766" xlink:href="#DejaVuSans-62"/>
    </g>
    <!-- Ill-conditioned functions, 2-D -->
    <defs>
     <path d="M 9.8125 72.90625 
L 19.671875 72.90625 
L 19.671875 0 
L 9.8125 0 
z
" id="DejaVuSans-49"/>
     <path d="M 19.671875 64.796875 
L 19.671875 8.109375 
L 31.59375 8.109375 
Q 46.6875 8.109375 53.6875 14.9375 
Q 60.6875 21.78125 60.6875 36.53125 
Q 60.6875 51.171875 53.6875 57.984375 
Q 46.6875 64.796875 31.59375 64.796875 
z
M 9.8125 72.90625 
L 30.078125 72.90625 
Q 51.265625 72.90625 61.171875 64.09375 
Q 71.09375 55.28125 71.09375 36.53125 
Q 71.09375 17.671875 61.125 8.828125 
Q 51.171875 0 30.078125 0 
L 9.8125 0 
z
" id="DejaVuSans-44"/>
    </defs>
    <g transform="translate(60.27144 28.17775)scale(0.102 -0.102)">
     <use xlink:href="#DejaVuSans-49"/>
     <use x="29.492188" xlink:href="#DejaVuSans-6c"/>
     <use x="57.275391" xlink:href="#DejaVuSans-6c"/>
     <use x="85.058594" xlink:href="#DejaVuSans-2d"/>
     <use x="121.142578" xlink:href="#DejaVuSans-63"/>
     <use x="176.123047" xlink:href="#DejaVuSans-6f"/>
     <use x="237.304688" xlink:href="#DejaVuSans-6e"/>
     <use x="300.683594" xlink:href="#DejaVuSans-64"/>
     <use x="364.160156" xlink:href="#DejaVuSans-69"/>
     <use x="391.943359" xlink:href="#DejaVuSans-74"/>
     <use x="431.152344" xlink:href="#DejaVuSans-69"/>
     <use x="458.935547" xlink:href="#DejaVuSans-6f"/>
     <use x="520.117188" xlink:href="#DejaVuSans-6e"/>
     <use x="583.496094" xlink:href="#DejaVuSans-65"/>
     <use x="645.019531" xlink:href="#DejaVuSans-64"/>
     <use x="708.496094" xlink:href="#DejaVuSans-20"/>
     <use x="740.283203" xlink:href="#DejaVuSans-66"/>
     <use x="775.488281" xlink:href="#DejaVuSans-75"/>
     <use x="838.867188" xlink:href="#DejaVuSans-6e"/>
     <use x="902.246094" xlink:href="#DejaVuSans-63"/>
     <use x="957.226562" xlink:href="#DejaVuSans-74"/>
     <use x="996.435547" xlink:href="#DejaVuSans-69"/>
     <use x="1024.21875" xlink:href="#DejaVuSans-6f"/>
     <use x="1085.400391" xlink:href="#DejaVuSans-6e"/>
     <use x="1148.779297" xlink:href="#DejaVuSans-73"/>
     <use x="1200.878906" xlink:href="#DejaVuSans-2c"/>
     <use x="1232.666016" xlink:href="#DejaVuSans-20"/>
     <use x="1264.453125" xlink:href="#DejaVuSans-32"/>
     <use x="1328.076172" xlink:href="#DejaVuSans-2d"/>
     <use x="1364.160156" xlink:href="#DejaVuSans-44"/>
    </g>
    <!-- 51 targets: 100..1e-08 -->
    <defs>
     <path d="M 10.796875 72.90625 
L 49.515625 72.90625 
L 49.515625 64.59375 
L 19.828125 64.59375 
L 19.828125 46.734375 
Q 21.96875 47.46875 24.109375 47.828125 
Q 26.265625 48.1875 28.421875 48.1875 
Q 40.625 48.1875 47.75 41.5 
Q 54.890625 34.8125 54.890625 23.390625 
Q 54.890625 11.625 47.5625 5.09375 
Q 40.234375 -1.421875 26.90625 -1.421875 
Q 22.3125 -1.421875 17.546875 -0.640625 
Q 12.796875 0.140625 7.71875 1.703125 
L 7.71875 11.625 
Q 12.109375 9.234375 16.796875 8.0625 
Q 21.484375 6.890625 26.703125 6.890625 
Q 35.15625 6.890625 40.078125 11.328125 
Q 45.015625 15.765625 45.015625 23.390625 
Q 45.015625 31 40.078125 35.4375 
Q 35.15625 39.890625 26.703125 39.890625 
Q 22.75 39.890625 18.8125 39.015625 
Q 14.890625 38.140625 10.796875 36.28125 
z
" id="DejaVuSans-35"/>
     <path d="M 11.71875 12.40625 
L 22.015625 12.40625 
L 22.015625 0 
L 11.71875 0 
z
M 11.71875 51.703125 
L 22.015625 51.703125 
L 22.015625 39.3125 
L 11.71875 39.3125 
z
" id="DejaVuSans-3a"/>
    </defs>
    <g transform="translate(60.27144 39.599519)scale(0.102 -0.102)">
     <use xlink:href="#DejaVuSans-35"/>
     <use x="63.623047" xlink:href="#DejaVuSans-31"/>
     <use x="127.246094" xlink:href="#DejaVuSans-20"/>
     <use x="159.033203" xlink:href="#DejaVuSans-74"/>
     <use x="198.242188" xlink:href="#DejaVuSans-61"/>
     <use x="259.521484" xlink:href="#DejaVuSans-72"/>
     <use x="300.619141" xlink:href="#DejaVuSans-67"/>
     <use x="364.095703" xlink:href="#DejaVuSans-65"/>
     <use x="425.619141" xlink:href="#DejaVuSans-74"/>
     <use x="464.828125" xlink:href="#DejaVuSans-73"/>
     <use x="516.927734" xlink:href="#DejaVuSans-3a"/>
     <use x="550.619141" xlink:href="#DejaVuSans-20"/>
     <use x="582.40625" xlink:href="#DejaVuSans-31"/>
     <use x="646.029297" xlink:href="#DejaVuSans-30"/>
     <use x="709.652344" xlink:href="#DejaVuSans-30"/>
     <use x="773.275391" xlink:href="#DejaVuSans-2e"/>
     <use x="805.0625" xlink:href="#DejaVuSans-2e"/>
     <use x="836.849609" xlink:href="#DejaVuSans-31"/>
     <use x="900.472656" xlink:href="#DejaVuSans-65"/>
     <use x="961.996094" xlink:href="#DejaVuSans-2d"/>
     <use x="998.080078" xlink:href="#DejaVuSans-30"/>
     <use x="1061.703125" xlink:href="#DejaVuSans-38"/>
    </g>
    <!-- 60 instances -->
    <g transform="translate(60.27144 51.021288)scale(0.102 -0.102)">
     <use xlink:href="#DejaVuSans-36"/>
     <use x="63.623047" xlink:href="#DejaVuSans-30"/>
     <use x="127.246094" xlink:href="#DejaVuSans-20"/>
     <use x="159.033203" xlink:href="#DejaVuSans-69"/>
     <use x="186.816406" xlink:href="#DejaVuSans-6e"/>
     <use x="250.195312" xlink:href="#DejaVuSans-73"/>
     <use x="302.294922" xlink:href="#DejaVuSans-74"/>
     <use x="341.503906" xlink:href="#DejaVuSans-61"/>
     <use x="402.783203" xlink:href="#DejaVuSans-6e"/>
     <use x="466.162109" xlink:href="#DejaVuSans-63"/>
     <use x="521.142578" xlink:href="#DejaVuSans-65"/>
     <use x="582.666016" xlink:href="#DejaVuSans-73"/>
    </g>
   </g>
   <g id="text_20">
    <!-- v2.2.1.10 -->
    <g style="fill:#808080;" transform="translate(204.779188 289.199965)scale(0.1 -0.1)">
     <use xlink:href="#DejaVuSans-76"/>
     <use x="59.179688" xlink:href="#DejaVuSans-32"/>
     <use x="122.802734" xlink:href="#DejaVuSans-2e"/>
     <use x="154.589844" xlink:href="#DejaVuSans-32"/>
     <use x="218.212891" xlink:href="#DejaVuSans-2e"/>
     <use x="250" xlink:href="#DejaVuSans-31"/>
     <use x="313.623047" xlink:href="#DejaVuSans-2e"/>
     <use x="345.410156" xlink:href="#DejaVuSans-31"/>
     <use x="409.033203" xlink:href="#DejaVuSans-30"/>
    </g>
   </g>
  </g>
 </g>
 <defs>
  <clipPath id="pb925b0c423">
   <rect height="288.034772" width="343.144" x="56.84" y="6.125228"/>
  </clipPath>
 </defs>
</svg>
