<?xml version="1.0" encoding="utf-8" standalone="no"?>
<!DOCTYPE svg PUBLIC "-//W3C//DTD SVG 1.1//EN"
  "http://www.w3.org/Graphics/SVG/1.1/DTD/svg11.dtd">
<!-- Created with matplotlib (http://matplotlib.org/) -->
<svg height="345.6pt" version="1.1" viewBox="0 0 460.8 345.6" width="460.8pt" xmlns="http://www.w3.org/2000/svg" xmlns:xlink="http://www.w3.org/1999/xlink">
 <defs>
  <style type="text/css">
*{stroke-linecap:butt;stroke-linejoin:round;}
  </style>
 </defs>
 <g id="figure_1">
  <g id="patch_1">
   <path d="M 0 345.6 
L 460.8 345.6 
L 460.8 0 
L 0 0 
z
" style="fill:#ffffff;"/>
  </g>
  <g id="axes_1">
   <g id="patch_2">
    <path d="M 56.84 294.16 
L 399.984 294.16 
L 399.984 6.125228 
L 56.84 6.125228 
z
" style="fill:#ffffff;"/>
   </g>
   <g id="matplotlib.axis_1">
    <g id="xtick_1">
     <g id="line2d_1">
      <path clip-path="url(#p94643f7c74)" d="M 56.84 294.16 
L 56.84 6.125228 
" style="fill:none;stroke:#b0b0b0;stroke-linecap:square;stroke-width:0.8;"/>
     </g>
     <g id="line2d_2">
      <defs>
       <path d="M 0 0 
L 0 3.5 
" id="mffc2b5e9dc" style="stroke:#000000;stroke-width:0.8;"/>
      </defs>
      <g>
       <use style="stroke:#000000;stroke-width:0.8;" x="56.84" xlink:href="#mffc2b5e9dc" y="294.16"/>
      </g>
     </g>
     <g id="text_1">
      <!-- 0 -->
      <defs>
       <path d="M 31.78125 66.40625 
Q 24.171875 66.40625 20.328125 58.90625 
Q 16.5 51.421875 16.5 36.375 
Q 16.5 21.390625 20.328125 13.890625 
Q 24.171875 6.390625 31.78125 6.390625 
Q 39.453125 6.390625 43.28125 13.890625 
Q 47.125 21.390625 47.125 36.375 
Q 47.125 51.421875 43.28125 58.90625 
Q 39.453125 66.40625 31.78125 66.40625 
z
M 31.78125 74.21875 
Q 44.046875 74.21875 50.515625 64.515625 
Q 56.984375 54.828125 56.984375 36.375 
Q 56.984375 17.96875 50.515625 8.265625 
Q 44.046875 -1.421875 31.78125 -1.421875 
Q 19.53125 -1.421875 13.0625 8.265625 
Q 6.59375 17.96875 6.59375 36.375 
Q 6.59375 54.828125 13.0625 64.515625 
Q 19.53125 74.21875 31.78125 74.21875 
z
" id="DejaVuSans-30"/>
      </defs>
      <g transform="translate(50.4775 316.356875)scale(0.2 -0.2)">
       <use xlink:href="#DejaVuSans-30"/>
      </g>
     </g>
    </g>
    <g id="xtick_2">
     <g id="line2d_3">
      <path clip-path="url(#p94643f7c74)" d="M 135.905438 294.16 
L 135.905438 6.125228 
" style="fill:none;stroke:#b0b0b0;stroke-linecap:square;stroke-width:0.8;"/>
     </g>
     <g id="line2d_4">
      <g>
       <use style="stroke:#000000;stroke-width:0.8;" x="135.905438" xlink:href="#mffc2b5e9dc" y="294.16"/>
      </g>
     </g>
     <g id="text_2">
      <!-- 2 -->
      <defs>
       <path d="M 19.1875 8.296875 
L 53.609375 8.296875 
L 53.609375 0 
L 7.328125 0 
L 7.328125 8.296875 
Q 12.9375 14.109375 22.625 23.890625 
Q 32.328125 33.6875 34.8125 36.53125 
Q 39.546875 41.84375 41.421875 45.53125 
Q 43.3125 49.21875 43.3125 52.78125 
Q 43.3125 58.59375 39.234375 62.25 
Q 35.15625 65.921875 28.609375 65.921875 
Q 23.96875 65.921875 18.8125 64.3125 
Q 13.671875 62.703125 7.8125 59.421875 
L 7.8125 69.390625 
Q 13.765625 71.78125 18.9375 73 
Q 24.125 74.21875 28.421875 74.21875 
Q 39.75 74.21875 46.484375 68.546875 
Q 53.21875 62.890625 53.21875 53.421875 
Q 53.21875 48.921875 51.53125 44.890625 
Q 49.859375 40.875 45.40625 35.40625 
Q 44.1875 33.984375 37.640625 27.21875 
Q 31.109375 20.453125 19.1875 8.296875 
z
" id="DejaVuSans-32"/>
      </defs>
      <g transform="translate(129.542938 316.356875)scale(0.2 -0.2)">
       <use xlink:href="#DejaVuSans-32"/>
      </g>
     </g>
    </g>
    <g id="xtick_3">
     <g id="line2d_5">
      <path clip-path="url(#p94643f7c74)" d="M 214.970876 294.16 
L 214.970876 6.125228 
" style="fill:none;stroke:#b0b0b0;stroke-linecap:square;stroke-width:0.8;"/>
     </g>
     <g id="line2d_6">
      <g>
       <use style="stroke:#000000;stroke-width:0.8;" x="214.970876" xlink:href="#mffc2b5e9dc" y="294.16"/>
      </g>
     </g>
     <g id="text_3">
      <!-- 4 -->
      <defs>
       <path d="M 37.796875 64.3125 
L 12.890625 25.390625 
L 37.796875 25.390625 
z
M 35.203125 72.90625 
L 47.609375 72.90625 
L 47.609375 25.390625 
L 58.015625 25.390625 
L 58.015625 17.1875 
L 47.609375 17.1875 
L 47.609375 0 
L 37.796875 0 
L 37.796875 17.1875 
L 4.890625 17.1875 
L 4.890625 26.703125 
z
" id="DejaVuSans-34"/>
      </defs>
      <g transform="translate(208.608376 316.356875)scale(0.2 -0.2)">
       <use xlink:href="#DejaVuSans-34"/>
      </g>
     </g>
    </g>
    <g id="xtick_4">
     <g id="line2d_7">
      <path clip-path="url(#p94643f7c74)" d="M 294.036313 294.16 
L 294.036313 6.125228 
" style="fill:none;stroke:#b0b0b0;stroke-linecap:square;stroke-width:0.8;"/>
     </g>
     <g id="line2d_8">
      <g>
       <use style="stroke:#000000;stroke-width:0.8;" x="294.036313" xlink:href="#mffc2b5e9dc" y="294.16"/>
      </g>
     </g>
     <g id="text_4">
      <!-- 6 -->
      <defs>
       <path d="M 33.015625 40.375 
Q 26.375 40.375 22.484375 35.828125 
Q 18.609375 31.296875 18.609375 23.390625 
Q 18.609375 15.53125 22.484375 10.953125 
Q 26.375 6.390625 33.015625 6.390625 
Q 39.65625 6.390625 43.53125 10.953125 
Q 47.40625 15.53125 47.40625 23.390625 
Q 47.40625 31.296875 43.53125 35.828125 
Q 39.65625 40.375 33.015625 40.375 
z
M 52.59375 71.296875 
L 52.59375 62.3125 
Q 48.875 64.0625 45.09375 64.984375 
Q 41.3125 65.921875 37.59375 65.921875 
Q 27.828125 65.921875 22.671875 59.328125 
Q 17.53125 52.734375 16.796875 39.40625 
Q 19.671875 43.65625 24.015625 45.921875 
Q 28.375 48.1875 33.59375 48.1875 
Q 44.578125 48.1875 50.953125 41.515625 
Q 57.328125 34.859375 57.328125 23.390625 
Q 57.328125 12.15625 50.6875 5.359375 
Q 44.046875 -1.421875 33.015625 -1.421875 
Q 20.359375 -1.421875 13.671875 8.265625 
Q 6.984375 17.96875 6.984375 36.375 
Q 6.984375 53.65625 15.1875 63.9375 
Q 23.390625 74.21875 37.203125 74.21875 
Q 40.921875 74.21875 44.703125 73.484375 
Q 48.484375 72.75 52.59375 71.296875 
z
" id="DejaVuSans-36"/>
      </defs>
      <g transform="translate(287.673813 316.356875)scale(0.2 -0.2)">
       <use xlink:href="#DejaVuSans-36"/>
      </g>
     </g>
    </g>
    <g id="xtick_5">
     <g id="line2d_9">
      <path clip-path="url(#p94643f7c74)" d="M 373.101751 294.16 
L 373.101751 6.125228 
" style="fill:none;stroke:#b0b0b0;stroke-linecap:square;stroke-width:0.8;"/>
     </g>
     <g id="line2d_10">
      <g>
       <use style="stroke:#000000;stroke-width:0.8;" x="373.101751" xlink:href="#mffc2b5e9dc" y="294.16"/>
      </g>
     </g>
     <g id="text_5">
      <!-- 8 -->
      <defs>
       <path d="M 31.78125 34.625 
Q 24.75 34.625 20.71875 30.859375 
Q 16.703125 27.09375 16.703125 20.515625 
Q 16.703125 13.921875 20.71875 10.15625 
Q 24.75 6.390625 31.78125 6.390625 
Q 38.8125 6.390625 42.859375 10.171875 
Q 46.921875 13.96875 46.921875 20.515625 
Q 46.921875 27.09375 42.890625 30.859375 
Q 38.875 34.625 31.78125 34.625 
z
M 21.921875 38.8125 
Q 15.578125 40.375 12.03125 44.71875 
Q 8.5 49.078125 8.5 55.328125 
Q 8.5 64.0625 14.71875 69.140625 
Q 20.953125 74.21875 31.78125 74.21875 
Q 42.671875 74.21875 48.875 69.140625 
Q 55.078125 64.0625 55.078125 55.328125 
Q 55.078125 49.078125 51.53125 44.71875 
Q 48 40.375 41.703125 38.8125 
Q 48.828125 37.15625 52.796875 32.3125 
Q 56.78125 27.484375 56.78125 20.515625 
Q 56.78125 9.90625 50.3125 4.234375 
Q 43.84375 -1.421875 31.78125 -1.421875 
Q 19.734375 -1.421875 13.25 4.234375 
Q 6.78125 9.90625 6.78125 20.515625 
Q 6.78125 27.484375 10.78125 32.3125 
Q 14.796875 37.15625 21.921875 38.8125 
z
M 18.3125 54.390625 
Q 18.3125 48.734375 21.84375 45.5625 
Q 25.390625 42.390625 31.78125 42.390625 
Q 38.140625 42.390625 41.71875 45.5625 
Q 45.3125 48.734375 45.3125 54.390625 
Q 45.3125 60.0625 41.71875 63.234375 
Q 38.140625 66.40625 31.78125 66.40625 
Q 25.390625 66.40625 21.84375 63.234375 
Q 18.3125 60.0625 18.3125 54.390625 
z
" id="DejaVuSans-38"/>
      </defs>
      <g transform="translate(366.739251 316.356875)scale(0.2 -0.2)">
       <use xlink:href="#DejaVuSans-38"/>
      </g>
     </g>
    </g>
    <g id="text_6">
     <!-- log10(# f-evals / dimension) -->
     <defs>
      <path d="M 9.421875 75.984375 
L 18.40625 75.984375 
L 18.40625 0 
L 9.421875 0 
z
" id="DejaVuSans-6c"/>
      <path d="M 30.609375 48.390625 
Q 23.390625 48.390625 19.1875 42.75 
Q 14.984375 37.109375 14.984375 27.296875 
Q 14.984375 17.484375 19.15625 11.84375 
Q 23.34375 6.203125 30.609375 6.203125 
Q 37.796875 6.203125 41.984375 11.859375 
Q 46.1875 17.53125 46.1875 27.296875 
Q 46.1875 37.015625 41.984375 42.703125 
Q 37.796875 48.390625 30.609375 48.390625 
z
M 30.609375 56 
Q 42.328125 56 49.015625 48.375 
Q 55.71875 40.765625 55.71875 27.296875 
Q 55.71875 13.875 49.015625 6.21875 
Q 42.328125 -1.421875 30.609375 -1.421875 
Q 18.84375 -1.421875 12.171875 6.21875 
Q 5.515625 13.875 5.515625 27.296875 
Q 5.515625 40.765625 12.171875 48.375 
Q 18.84375 56 30.609375 56 
z
" id="DejaVuSans-6f"/>
      <path d="M 45.40625 27.984375 
Q 45.40625 37.75 41.375 43.109375 
Q 37.359375 48.484375 30.078125 48.484375 
Q 22.859375 48.484375 18.828125 43.109375 
Q 14.796875 37.75 14.796875 27.984375 
Q 14.796875 18.265625 18.828125 12.890625 
Q 22.859375 7.515625 30.078125 7.515625 
Q 37.359375 7.515625 41.375 12.890625 
Q 45.40625 18.265625 45.40625 27.984375 
z
M 54.390625 6.78125 
Q 54.390625 -7.171875 48.1875 -13.984375 
Q 42 -20.796875 29.203125 -20.796875 
Q 24.46875 -20.796875 20.265625 -20.09375 
Q 16.0625 -19.390625 12.109375 -17.921875 
L 12.109375 -9.1875 
Q 16.0625 -11.328125 19.921875 -12.34375 
Q 23.78125 -13.375 27.78125 -13.375 
Q 36.625 -13.375 41.015625 -8.765625 
Q 45.40625 -4.15625 45.40625 5.171875 
L 45.40625 9.625 
Q 42.625 4.78125 38.28125 2.390625 
Q 33.9375 0 27.875 0 
Q 17.828125 0 11.671875 7.65625 
Q 5.515625 15.328125 5.515625 27.984375 
Q 5.515625 40.671875 11.671875 48.328125 
Q 17.828125 56 27.875 56 
Q 33.9375 56 38.28125 53.609375 
Q 42.625 51.21875 45.40625 46.390625 
L 45.40625 54.6875 
L 54.390625 54.6875 
z
" id="DejaVuSans-67"/>
      <path d="M 12.40625 8.296875 
L 28.515625 8.296875 
L 28.515625 63.921875 
L 10.984375 60.40625 
L 10.984375 69.390625 
L 28.421875 72.90625 
L 38.28125 72.90625 
L 38.28125 8.296875 
L 54.390625 8.296875 
L 54.390625 0 
L 12.40625 0 
z
" id="DejaVuSans-31"/>
      <path d="M 31 75.875 
Q 24.46875 64.65625 21.28125 53.65625 
Q 18.109375 42.671875 18.109375 31.390625 
Q 18.109375 20.125 21.3125 9.0625 
Q 24.515625 -2 31 -13.1875 
L 23.1875 -13.1875 
Q 15.875 -1.703125 12.234375 9.375 
Q 8.59375 20.453125 8.59375 31.390625 
Q 8.59375 42.28125 12.203125 53.3125 
Q 15.828125 64.359375 23.1875 75.875 
z
" id="DejaVuSans-28"/>
      <path d="M 51.125 44 
L 36.921875 44 
L 32.8125 27.6875 
L 47.125 27.6875 
z
M 43.796875 71.78125 
L 38.71875 51.515625 
L 52.984375 51.515625 
L 58.109375 71.78125 
L 65.921875 71.78125 
L 60.890625 51.515625 
L 76.125 51.515625 
L 76.125 44 
L 58.984375 44 
L 54.984375 27.6875 
L 70.515625 27.6875 
L 70.515625 20.21875 
L 53.078125 20.21875 
L 48 0 
L 40.1875 0 
L 45.21875 20.21875 
L 30.90625 20.21875 
L 25.875 0 
L 18.015625 0 
L 23.09375 20.21875 
L 7.71875 20.21875 
L 7.71875 27.6875 
L 24.90625 27.6875 
L 29 44 
L 13.28125 44 
L 13.28125 51.515625 
L 30.90625 51.515625 
L 35.890625 71.78125 
z
" id="DejaVuSans-23"/>
      <path id="DejaVuSans-20"/>
      <path d="M 37.109375 75.984375 
L 37.109375 68.5 
L 28.515625 68.5 
Q 23.6875 68.5 21.796875 66.546875 
Q 19.921875 64.59375 19.921875 59.515625 
L 19.921875 54.6875 
L 34.71875 54.6875 
L 34.71875 47.703125 
L 19.921875 47.703125 
L 19.921875 0 
L 10.890625 0 
L 10.890625 47.703125 
L 2.296875 47.703125 
L 2.296875 54.6875 
L 10.890625 54.6875 
L 10.890625 58.5 
Q 10.890625 67.625 15.140625 71.796875 
Q 19.390625 75.984375 28.609375 75.984375 
z
" id="DejaVuSans-66"/>
      <path d="M 4.890625 31.390625 
L 31.203125 31.390625 
L 31.203125 23.390625 
L 4.890625 23.390625 
z
" id="DejaVuSans-2d"/>
      <path d="M 56.203125 29.59375 
L 56.203125 25.203125 
L 14.890625 25.203125 
Q 15.484375 15.921875 20.484375 11.0625 
Q 25.484375 6.203125 34.421875 6.203125 
Q 39.59375 6.203125 44.453125 7.46875 
Q 49.3125 8.734375 54.109375 11.28125 
L 54.109375 2.78125 
Q 49.265625 0.734375 44.1875 -0.34375 
Q 39.109375 -1.421875 33.890625 -1.421875 
Q 20.796875 -1.421875 13.15625 6.1875 
Q 5.515625 13.8125 5.515625 26.8125 
Q 5.515625 40.234375 12.765625 48.109375 
Q 20.015625 56 32.328125 56 
Q 43.359375 56 49.78125 48.890625 
Q 56.203125 41.796875 56.203125 29.59375 
z
M 47.21875 32.234375 
Q 47.125 39.59375 43.09375 43.984375 
Q 39.0625 48.390625 32.421875 48.390625 
Q 24.90625 48.390625 20.390625 44.140625 
Q 15.875 39.890625 15.1875 32.171875 
z
" id="DejaVuSans-65"/>
      <path d="M 2.984375 54.6875 
L 12.5 54.6875 
L 29.59375 8.796875 
L 46.6875 54.6875 
L 56.203125 54.6875 
L 35.6875 0 
L 23.484375 0 
z
" id="DejaVuSans-76"/>
      <path d="M 34.28125 27.484375 
Q 23.390625 27.484375 19.1875 25 
Q 14.984375 22.515625 14.984375 16.5 
Q 14.984375 11.71875 18.140625 8.90625 
Q 21.296875 6.109375 26.703125 6.109375 
Q 34.1875 6.109375 38.703125 11.40625 
Q 43.21875 16.703125 43.21875 25.484375 
L 43.21875 27.484375 
z
M 52.203125 31.203125 
L 52.203125 0 
L 43.21875 0 
L 43.21875 8.296875 
Q 40.140625 3.328125 35.546875 0.953125 
Q 30.953125 -1.421875 24.3125 -1.421875 
Q 15.921875 -1.421875 10.953125 3.296875 
Q 6 8.015625 6 15.921875 
Q 6 25.140625 12.171875 29.828125 
Q 18.359375 34.515625 30.609375 34.515625 
L 43.21875 34.515625 
L 43.21875 35.40625 
Q 43.21875 41.609375 39.140625 45 
Q 35.0625 48.390625 27.6875 48.390625 
Q 23 48.390625 18.546875 47.265625 
Q 14.109375 46.140625 10.015625 43.890625 
L 10.015625 52.203125 
Q 14.9375 54.109375 19.578125 55.046875 
Q 24.21875 56 28.609375 56 
Q 40.484375 56 46.34375 49.84375 
Q 52.203125 43.703125 52.203125 31.203125 
z
" id="DejaVuSans-61"/>
      <path d="M 44.28125 53.078125 
L 44.28125 44.578125 
Q 40.484375 46.53125 36.375 47.5 
Q 32.28125 48.484375 27.875 48.484375 
Q 21.1875 48.484375 17.84375 46.4375 
Q 14.5 44.390625 14.5 40.28125 
Q 14.5 37.15625 16.890625 35.375 
Q 19.28125 33.59375 26.515625 31.984375 
L 29.59375 31.296875 
Q 39.15625 29.25 43.1875 25.515625 
Q 47.21875 21.78125 47.21875 15.09375 
Q 47.21875 7.46875 41.1875 3.015625 
Q 35.15625 -1.421875 24.609375 -1.421875 
Q 20.21875 -1.421875 15.453125 -0.5625 
Q 10.6875 0.296875 5.421875 2 
L 5.421875 11.28125 
Q 10.40625 8.6875 15.234375 7.390625 
Q 20.0625 6.109375 24.8125 6.109375 
Q 31.15625 6.109375 34.5625 8.28125 
Q 37.984375 10.453125 37.984375 14.40625 
Q 37.984375 18.0625 35.515625 20.015625 
Q 33.0625 21.96875 24.703125 23.78125 
L 21.578125 24.515625 
Q 13.234375 26.265625 9.515625 29.90625 
Q 5.8125 33.546875 5.8125 39.890625 
Q 5.8125 47.609375 11.28125 51.796875 
Q 16.75 56 26.8125 56 
Q 31.78125 56 36.171875 55.265625 
Q 40.578125 54.546875 44.28125 53.078125 
z
" id="DejaVuSans-73"/>
      <path d="M 25.390625 72.90625 
L 33.6875 72.90625 
L 8.296875 -9.28125 
L 0 -9.28125 
z
" id="DejaVuSans-2f"/>
      <path d="M 45.40625 46.390625 
L 45.40625 75.984375 
L 54.390625 75.984375 
L 54.390625 0 
L 45.40625 0 
L 45.40625 8.203125 
Q 42.578125 3.328125 38.25 0.953125 
Q 33.9375 -1.421875 27.875 -1.421875 
Q 17.96875 -1.421875 11.734375 6.484375 
Q 5.515625 14.40625 5.515625 27.296875 
Q 5.515625 40.1875 11.734375 48.09375 
Q 17.96875 56 27.875 56 
Q 33.9375 56 38.25 53.625 
Q 42.578125 51.265625 45.40625 46.390625 
z
M 14.796875 27.296875 
Q 14.796875 17.390625 18.875 11.75 
Q 22.953125 6.109375 30.078125 6.109375 
Q 37.203125 6.109375 41.296875 11.75 
Q 45.40625 17.390625 45.40625 27.296875 
Q 45.40625 37.203125 41.296875 42.84375 
Q 37.203125 48.484375 30.078125 48.484375 
Q 22.953125 48.484375 18.875 42.84375 
Q 14.796875 37.203125 14.796875 27.296875 
z
" id="DejaVuSans-64"/>
      <path d="M 9.421875 54.6875 
L 18.40625 54.6875 
L 18.40625 0 
L 9.421875 0 
z
M 9.421875 75.984375 
L 18.40625 75.984375 
L 18.40625 64.59375 
L 9.421875 64.59375 
z
" id="DejaVuSans-69"/>
      <path d="M 52 44.1875 
Q 55.375 50.25 60.0625 53.125 
Q 64.75 56 71.09375 56 
Q 79.640625 56 84.28125 50.015625 
Q 88.921875 44.046875 88.921875 33.015625 
L 88.921875 0 
L 79.890625 0 
L 79.890625 32.71875 
Q 79.890625 40.578125 77.09375 44.375 
Q 74.3125 48.1875 68.609375 48.1875 
Q 61.625 48.1875 57.5625 43.546875 
Q 53.515625 38.921875 53.515625 30.90625 
L 53.515625 0 
L 44.484375 0 
L 44.484375 32.71875 
Q 44.484375 40.625 41.703125 44.40625 
Q 38.921875 48.1875 33.109375 48.1875 
Q 26.21875 48.1875 22.15625 43.53125 
Q 18.109375 38.875 18.109375 30.90625 
L 18.109375 0 
L 9.078125 0 
L 9.078125 54.6875 
L 18.109375 54.6875 
L 18.109375 46.1875 
Q 21.1875 51.21875 25.484375 53.609375 
Q 29.78125 56 35.6875 56 
Q 41.65625 56 45.828125 52.96875 
Q 50 49.953125 52 44.1875 
z
" id="DejaVuSans-6d"/>
      <path d="M 54.890625 33.015625 
L 54.890625 0 
L 45.90625 0 
L 45.90625 32.71875 
Q 45.90625 40.484375 42.875 44.328125 
Q 39.84375 48.1875 33.796875 48.1875 
Q 26.515625 48.1875 22.3125 43.546875 
Q 18.109375 38.921875 18.109375 30.90625 
L 18.109375 0 
L 9.078125 0 
L 9.078125 54.6875 
L 18.109375 54.6875 
L 18.109375 46.1875 
Q 21.34375 51.125 25.703125 53.5625 
Q 30.078125 56 35.796875 56 
Q 45.21875 56 50.046875 50.171875 
Q 54.890625 44.34375 54.890625 33.015625 
z
" id="DejaVuSans-6e"/>
      <path d="M 8.015625 75.875 
L 15.828125 75.875 
Q 23.140625 64.359375 26.78125 53.3125 
Q 30.421875 42.28125 30.421875 31.390625 
Q 30.421875 20.453125 26.78125 9.375 
Q 23.140625 -1.703125 15.828125 -13.1875 
L 8.015625 -13.1875 
Q 14.5 -2 17.703125 9.0625 
Q 20.90625 20.125 20.90625 31.390625 
Q 20.90625 42.671875 17.703125 53.65625 
Q 14.5 64.65625 8.015625 75.875 
z
" id="DejaVuSans-29"/>
     </defs>
     <g transform="translate(107.571219 337.433594)scale(0.17 -0.17)">
      <use xlink:href="#DejaVuSans-6c"/>
      <use x="27.783203" xlink:href="#DejaVuSans-6f"/>
      <use x="88.964844" xlink:href="#DejaVuSans-67"/>
      <use x="152.441406" xlink:href="#DejaVuSans-31"/>
      <use x="216.064453" xlink:href="#DejaVuSans-30"/>
      <use x="279.6875" xlink:href="#DejaVuSans-28"/>
      <use x="318.701172" xlink:href="#DejaVuSans-23"/>
      <use x="402.490234" xlink:href="#DejaVuSans-20"/>
      <use x="434.277344" xlink:href="#DejaVuSans-66"/>
      <use x="469.404297" xlink:href="#DejaVuSans-2d"/>
      <use x="505.488281" xlink:href="#DejaVuSans-65"/>
      <use x="567.011719" xlink:href="#DejaVuSans-76"/>
      <use x="626.191406" xlink:href="#DejaVuSans-61"/>
      <use x="687.470703" xlink:href="#DejaVuSans-6c"/>
      <use x="715.253906" xlink:href="#DejaVuSans-73"/>
      <use x="767.353516" xlink:href="#DejaVuSans-20"/>
      <use x="799.140625" xlink:href="#DejaVuSans-2f"/>
      <use x="832.832031" xlink:href="#DejaVuSans-20"/>
      <use x="864.619141" xlink:href="#DejaVuSans-64"/>
      <use x="928.095703" xlink:href="#DejaVuSans-69"/>
      <use x="955.878906" xlink:href="#DejaVuSans-6d"/>
      <use x="1053.291016" xlink:href="#DejaVuSans-65"/>
      <use x="1114.814453" xlink:href="#DejaVuSans-6e"/>
      <use x="1178.193359" xlink:href="#DejaVuSans-73"/>
      <use x="1230.292969" xlink:href="#DejaVuSans-69"/>
      <use x="1258.076172" xlink:href="#DejaVuSans-6f"/>
      <use x="1319.257812" xlink:href="#DejaVuSans-6e"/>
      <use x="1382.636719" xlink:href="#DejaVuSans-29"/>
     </g>
    </g>
   </g>
   <g id="matplotlib.axis_2">
    <g id="ytick_1">
     <g id="line2d_11">
      <path clip-path="url(#p94643f7c74)" d="M 56.84 294.16 
L 399.984 294.16 
" style="fill:none;stroke:#b0b0b0;stroke-linecap:square;stroke-width:0.8;"/>
     </g>
     <g id="line2d_12">
      <defs>
       <path d="M 0 0 
L -3.5 0 
" id="m80391d81da" style="stroke:#000000;stroke-width:0.8;"/>
      </defs>
      <g>
       <use style="stroke:#000000;stroke-width:0.8;" x="56.84" xlink:href="#m80391d81da" y="294.16"/>
      </g>
     </g>
     <g id="text_7">
      <!-- 0.0 -->
      <defs>
       <path d="M 10.6875 12.40625 
L 21 12.40625 
L 21 0 
L 10.6875 0 
z
" id="DejaVuSans-2e"/>
      </defs>
      <g transform="translate(24.395 300.23875)scale(0.16 -0.16)">
       <use xlink:href="#DejaVuSans-30"/>
       <use x="63.623047" xlink:href="#DejaVuSans-2e"/>
       <use x="95.410156" xlink:href="#DejaVuSans-30"/>
      </g>
     </g>
    </g>
    <g id="ytick_2">
     <g id="line2d_13">
      <path clip-path="url(#p94643f7c74)" d="M 56.84 237.123411 
L 399.984 237.123411 
" style="fill:none;stroke:#b0b0b0;stroke-linecap:square;stroke-width:0.8;"/>
     </g>
     <g id="line2d_14">
      <g>
       <use style="stroke:#000000;stroke-width:0.8;" x="56.84" xlink:href="#m80391d81da" y="237.123411"/>
      </g>
     </g>
     <g id="text_8">
      <!-- 0.2 -->
      <g transform="translate(24.395 243.202161)scale(0.16 -0.16)">
       <use xlink:href="#DejaVuSans-30"/>
       <use x="63.623047" xlink:href="#DejaVuSans-2e"/>
       <use x="95.410156" xlink:href="#DejaVuSans-32"/>
      </g>
     </g>
    </g>
    <g id="ytick_3">
     <g id="line2d_15">
      <path clip-path="url(#p94643f7c74)" d="M 56.84 180.086823 
L 399.984 180.086823 
" style="fill:none;stroke:#b0b0b0;stroke-linecap:square;stroke-width:0.8;"/>
     </g>
     <g id="line2d_16">
      <g>
       <use style="stroke:#000000;stroke-width:0.8;" x="56.84" xlink:href="#m80391d81da" y="180.086823"/>
      </g>
     </g>
     <g id="text_9">
      <!-- 0.4 -->
      <g transform="translate(24.395 186.165573)scale(0.16 -0.16)">
       <use xlink:href="#DejaVuSans-30"/>
       <use x="63.623047" xlink:href="#DejaVuSans-2e"/>
       <use x="95.410156" xlink:href="#DejaVuSans-34"/>
      </g>
     </g>
    </g>
    <g id="ytick_4">
     <g id="line2d_17">
      <path clip-path="url(#p94643f7c74)" d="M 56.84 123.050234 
L 399.984 123.050234 
" style="fill:none;stroke:#b0b0b0;stroke-linecap:square;stroke-width:0.8;"/>
     </g>
     <g id="line2d_18">
      <g>
       <use style="stroke:#000000;stroke-width:0.8;" x="56.84" xlink:href="#m80391d81da" y="123.050234"/>
      </g>
     </g>
     <g id="text_10">
      <!-- 0.6 -->
      <g transform="translate(24.395 129.128984)scale(0.16 -0.16)">
       <use xlink:href="#DejaVuSans-30"/>
       <use x="63.623047" xlink:href="#DejaVuSans-2e"/>
       <use x="95.410156" xlink:href="#DejaVuSans-36"/>
      </g>
     </g>
    </g>
    <g id="ytick_5">
     <g id="line2d_19">
      <path clip-path="url(#p94643f7c74)" d="M 56.84 66.013646 
L 399.984 66.013646 
" style="fill:none;stroke:#b0b0b0;stroke-linecap:square;stroke-width:0.8;"/>
     </g>
     <g id="line2d_20">
      <g>
       <use style="stroke:#000000;stroke-width:0.8;" x="56.84" xlink:href="#m80391d81da" y="66.013646"/>
      </g>
     </g>
     <g id="text_11">
      <!-- 0.8 -->
      <g transform="translate(24.395 72.092396)scale(0.16 -0.16)">
       <use xlink:href="#DejaVuSans-30"/>
       <use x="63.623047" xlink:href="#DejaVuSans-2e"/>
       <use x="95.410156" xlink:href="#DejaVuSans-38"/>
      </g>
     </g>
    </g>
    <g id="ytick_6">
     <g id="line2d_21">
      <path clip-path="url(#p94643f7c74)" d="M 56.84 8.977057 
L 399.984 8.977057 
" style="fill:none;stroke:#b0b0b0;stroke-linecap:square;stroke-width:0.8;"/>
     </g>
     <g id="line2d_22">
      <g>
       <use style="stroke:#000000;stroke-width:0.8;" x="56.84" xlink:href="#m80391d81da" y="8.977057"/>
      </g>
     </g>
     <g id="text_12">
      <!-- 1.0 -->
      <g transform="translate(24.395 15.055807)scale(0.16 -0.16)">
       <use xlink:href="#DejaVuSans-31"/>
       <use x="63.623047" xlink:href="#DejaVuSans-2e"/>
       <use x="95.410156" xlink:href="#DejaVuSans-30"/>
      </g>
     </g>
    </g>
    <g id="text_13">
     <!-- Fraction of function,target pairs -->
     <defs>
      <path d="M 9.8125 72.90625 
L 51.703125 72.90625 
L 51.703125 64.59375 
L 19.671875 64.59375 
L 19.671875 43.109375 
L 48.578125 43.109375 
L 48.578125 34.8125 
L 19.671875 34.8125 
L 19.671875 0 
L 9.8125 0 
z
" id="DejaVuSans-46"/>
      <path d="M 41.109375 46.296875 
Q 39.59375 47.171875 37.8125 47.578125 
Q 36.03125 48 33.890625 48 
Q 26.265625 48 22.1875 43.046875 
Q 18.109375 38.09375 18.109375 28.8125 
L 18.109375 0 
L 9.078125 0 
L 9.078125 54.6875 
L 18.109375 54.6875 
L 18.109375 46.1875 
Q 20.953125 51.171875 25.484375 53.578125 
Q 30.03125 56 36.53125 56 
Q 37.453125 56 38.578125 55.875 
Q 39.703125 55.765625 41.0625 55.515625 
z
" id="DejaVuSans-72"/>
      <path d="M 48.78125 52.59375 
L 48.78125 44.1875 
Q 44.96875 46.296875 41.140625 47.34375 
Q 37.3125 48.390625 33.40625 48.390625 
Q 24.65625 48.390625 19.8125 42.84375 
Q 14.984375 37.3125 14.984375 27.296875 
Q 14.984375 17.28125 19.8125 11.734375 
Q 24.65625 6.203125 33.40625 6.203125 
Q 37.3125 6.203125 41.140625 7.25 
Q 44.96875 8.296875 48.78125 10.40625 
L 48.78125 2.09375 
Q 45.015625 0.34375 40.984375 -0.53125 
Q 36.96875 -1.421875 32.421875 -1.421875 
Q 20.0625 -1.421875 12.78125 6.34375 
Q 5.515625 14.109375 5.515625 27.296875 
Q 5.515625 40.671875 12.859375 48.328125 
Q 20.21875 56 33.015625 56 
Q 37.15625 56 41.109375 55.140625 
Q 45.0625 54.296875 48.78125 52.59375 
z
" id="DejaVuSans-63"/>
      <path d="M 18.3125 70.21875 
L 18.3125 54.6875 
L 36.8125 54.6875 
L 36.8125 47.703125 
L 18.3125 47.703125 
L 18.3125 18.015625 
Q 18.3125 11.328125 20.140625 9.421875 
Q 21.96875 7.515625 27.59375 7.515625 
L 36.8125 7.515625 
L 36.8125 0 
L 27.59375 0 
Q 17.1875 0 13.234375 3.875 
Q 9.28125 7.765625 9.28125 18.015625 
L 9.28125 47.703125 
L 2.6875 47.703125 
L 2.6875 54.6875 
L 9.28125 54.6875 
L 9.28125 70.21875 
z
" id="DejaVuSans-74"/>
      <path d="M 8.5 21.578125 
L 8.5 54.6875 
L 17.484375 54.6875 
L 17.484375 21.921875 
Q 17.484375 14.15625 20.5 10.265625 
Q 23.53125 6.390625 29.59375 6.390625 
Q 36.859375 6.390625 41.078125 11.03125 
Q 45.3125 15.671875 45.3125 23.6875 
L 45.3125 54.6875 
L 54.296875 54.6875 
L 54.296875 0 
L 45.3125 0 
L 45.3125 8.40625 
Q 42.046875 3.421875 37.71875 1 
Q 33.40625 -1.421875 27.6875 -1.421875 
Q 18.265625 -1.421875 13.375 4.4375 
Q 8.5 10.296875 8.5 21.578125 
z
M 31.109375 56 
z
" id="DejaVuSans-75"/>
      <path d="M 11.71875 12.40625 
L 22.015625 12.40625 
L 22.015625 4 
L 14.015625 -11.625 
L 7.71875 -11.625 
L 11.71875 4 
z
" id="DejaVuSans-2c"/>
      <path d="M 18.109375 8.203125 
L 18.109375 -20.796875 
L 9.078125 -20.796875 
L 9.078125 54.6875 
L 18.109375 54.6875 
L 18.109375 46.390625 
Q 20.953125 51.265625 25.265625 53.625 
Q 29.59375 56 35.59375 56 
Q 45.5625 56 51.78125 48.09375 
Q 58.015625 40.1875 58.015625 27.296875 
Q 58.015625 14.40625 51.78125 6.484375 
Q 45.5625 -1.421875 35.59375 -1.421875 
Q 29.59375 -1.421875 25.265625 0.953125 
Q 20.953125 3.328125 18.109375 8.203125 
z
M 48.6875 27.296875 
Q 48.6875 37.203125 44.609375 42.84375 
Q 40.53125 48.484375 33.40625 48.484375 
Q 26.265625 48.484375 22.1875 42.84375 
Q 18.109375 37.203125 18.109375 27.296875 
Q 18.109375 17.390625 22.1875 11.75 
Q 26.265625 6.109375 33.40625 6.109375 
Q 40.53125 6.109375 44.609375 11.75 
Q 48.6875 17.390625 48.6875 27.296875 
z
" id="DejaVuSans-70"/>
     </defs>
     <g transform="translate(16.859531 285.281989)rotate(-90)scale(0.17 -0.17)">
      <use xlink:href="#DejaVuSans-46"/>
      <use x="57.410156" xlink:href="#DejaVuSans-72"/>
      <use x="98.523438" xlink:href="#DejaVuSans-61"/>
      <use x="159.802734" xlink:href="#DejaVuSans-63"/>
      <use x="214.783203" xlink:href="#DejaVuSans-74"/>
      <use x="253.992188" xlink:href="#DejaVuSans-69"/>
      <use x="281.775391" xlink:href="#DejaVuSans-6f"/>
      <use x="342.957031" xlink:href="#DejaVuSans-6e"/>
      <use x="406.335938" xlink:href="#DejaVuSans-20"/>
      <use x="438.123047" xlink:href="#DejaVuSans-6f"/>
      <use x="499.304688" xlink:href="#DejaVuSans-66"/>
      <use x="534.509766" xlink:href="#DejaVuSans-20"/>
      <use x="566.296875" xlink:href="#DejaVuSans-66"/>
      <use x="601.501953" xlink:href="#DejaVuSans-75"/>
      <use x="664.880859" xlink:href="#DejaVuSans-6e"/>
      <use x="728.259766" xlink:href="#DejaVuSans-63"/>
      <use x="783.240234" xlink:href="#DejaVuSans-74"/>
      <use x="822.449219" xlink:href="#DejaVuSans-69"/>
      <use x="850.232422" xlink:href="#DejaVuSans-6f"/>
      <use x="911.414062" xlink:href="#DejaVuSans-6e"/>
      <use x="974.792969" xlink:href="#DejaVuSans-2c"/>
      <use x="1006.580078" xlink:href="#DejaVuSans-74"/>
      <use x="1045.789062" xlink:href="#DejaVuSans-61"/>
      <use x="1107.068359" xlink:href="#DejaVuSans-72"/>
      <use x="1148.166016" xlink:href="#DejaVuSans-67"/>
      <use x="1211.642578" xlink:href="#DejaVuSans-65"/>
      <use x="1273.166016" xlink:href="#DejaVuSans-74"/>
      <use x="1312.375" xlink:href="#DejaVuSans-20"/>
      <use x="1344.162109" xlink:href="#DejaVuSans-70"/>
      <use x="1407.638672" xlink:href="#DejaVuSans-61"/>
      <use x="1468.917969" xlink:href="#DejaVuSans-69"/>
      <use x="1496.701172" xlink:href="#DejaVuSans-72"/>
      <use x="1537.814453" xlink:href="#DejaVuSans-73"/>
     </g>
    </g>
   </g>
   <g id="line2d_23">
    <defs>
     <path d="M 0 1.5 
C 0.397805 1.5 0.77937 1.341951 1.06066 1.06066 
C 1.341951 0.77937 1.5 0.397805 1.5 0 
C 1.5 -0.397805 1.341951 -0.77937 1.06066 -1.06066 
C 0.77937 -1.341951 0.397805 -1.5 0 -1.5 
C -0.397805 -1.5 -0.77937 -1.341951 -1.06066 -1.06066 
C -1.341951 -0.77937 -1.5 -0.397805 -1.5 0 
C -1.5 0.397805 -1.341951 0.77937 -1.06066 1.06066 
C -0.77937 1.341951 -0.397805 1.5 0 1.5 
z
" id="m15a2140bbc" style="stroke:#000080;"/>
    </defs>
    <g>
     <use style="fill:#000080;stroke:#000080;" x="253.802013" xlink:href="#m15a2140bbc" y="176.731729"/>
     <use style="fill:#000080;stroke:#000080;" x="253.802013" xlink:href="#m15a2140bbc" y="176.731729"/>
    </g>
   </g>
   <g id="line2d_24">
    <path d="M 44.939466 294.16 
L 44.939466 289.12736 
L 56.84 289.12736 
L 56.84 282.976355 
L 63.801366 282.976355 
L 63.801366 281.298808 
L 72.57165 281.298808 
L 72.57165 280.739626 
L 75.7019 280.739626 
L 75.7019 279.621262 
L 78.348489 279.621262 
L 78.348489 279.062079 
L 80.641068 279.062079 
L 80.641068 276.266168 
L 82.663267 276.266168 
L 82.663267 275.706986 
L 84.472185 275.706986 
L 84.472185 274.588622 
L 87.602435 274.588622 
L 87.602435 272.911075 
L 88.976675 272.911075 
L 88.976675 271.233528 
L 90.249023 271.233528 
L 90.249023 270.115164 
L 97.210389 270.115164 
L 97.210389 267.878435 
L 98.77227 267.878435 
L 98.77227 267.319252 
L 103.334085 267.319252 
L 103.334085 266.76007 
L 105.482991 266.76007 
L 105.482991 266.200888 
L 106.464335 266.200888 
L 106.464335 265.082523 
L 107.392607 265.082523 
L 107.392607 264.523341 
L 109.110924 264.523341 
L 109.110924 263.404977 
L 109.909618 263.404977 
L 109.909618 262.845795 
L 110.672804 262.845795 
L 110.672804 262.286612 
L 112.444358 262.286612 
L 112.444358 261.72743 
L 112.777744 261.72743 
L 112.777744 260.609066 
L 114.652569 260.609066 
L 114.652569 260.049883 
L 116.342671 260.049883 
L 116.342671 259.490701 
L 116.60886 259.490701 
L 116.60886 257.253972 
L 117.881208 257.253972 
L 117.881208 256.69479 
L 121.011458 256.69479 
L 121.011458 255.576425 
L 122.385698 255.576425 
L 122.385698 255.017243 
L 125.005313 255.017243 
L 125.005313 253.898879 
L 125.641269 253.898879 
L 125.641269 253.339696 
L 127.277634 253.339696 
L 127.277634 252.780514 
L 128.376816 252.780514 
L 128.376816 252.221332 
L 128.509394 252.221332 
L 128.509394 251.66215 
L 129.28406 251.66215 
L 129.28406 250.543785 
L 130.502219 250.543785 
L 130.502219 249.984603 
L 132.602635 249.984603 
L 132.602635 249.425421 
L 133.013885 249.425421 
L 133.013885 248.866238 
L 135.114917 248.866238 
L 135.114917 248.307056 
L 136.161058 248.307056 
L 136.161058 247.747874 
L 136.661157 247.747874 
L 136.661157 246.62951 
L 136.824671 246.62951 
L 136.824671 246.070327 
L 136.986642 246.070327 
L 136.986642 244.951963 
L 137.697178 244.951963 
L 137.697178 244.392781 
L 138.079574 244.392781 
L 138.079574 243.833598 
L 138.304988 243.833598 
L 138.304988 242.715234 
L 138.527482 242.715234 
L 138.527482 241.596869 
L 141.310374 241.596869 
L 141.310374 241.037687 
L 144.081827 241.037687 
L 144.081827 240.478505 
L 144.293791 240.478505 
L 144.293791 239.919323 
L 145.116408 239.919323 
L 145.116408 239.36014 
L 145.415004 239.36014 
L 145.415004 238.241776 
L 146.092172 238.241776 
L 146.092172 237.682594 
L 146.280843 237.682594 
L 146.280843 237.123411 
L 147.060337 237.123411 
L 147.060337 236.564229 
L 147.67672 236.564229 
L 147.67672 235.445865 
L 150.280008 235.445865 
L 150.280008 234.886682 
L 150.971953 234.886682 
L 150.971953 234.3275 
L 155.902195 234.3275 
L 155.902195 233.768318 
L 163.173237 233.768318 
L 163.173237 233.209136 
L 166.159667 233.209136 
L 166.159667 232.649954 
L 166.466392 232.649954 
L 166.466392 232.090771 
L 167.735637 232.090771 
L 167.816116 230.972407 
L 168.002447 230.972407 
L 168.081688 229.854042 
L 168.147444 229.854042 
L 168.147444 229.29486 
L 168.613595 229.29486 
L 168.613595 228.735678 
L 168.967604 228.735678 
L 168.992613 227.617313 
L 170.37262 227.617313 
L 170.37262 227.058131 
L 173.243406 227.058131 
L 173.243406 226.498949 
L 177.191185 226.498949 
L 177.191185 225.939767 
L 177.770393 225.939767 
L 177.770393 225.380584 
L 178.038081 225.380584 
L 178.038081 224.821402 
L 178.185012 224.821402 
L 178.206944 223.703038 
L 179.055048 223.703038 
L 179.110589 222.025491 
L 179.248658 222.025491 
L 179.248658 221.466309 
L 179.949249 221.466309 
L 179.949249 220.907126 
L 180.139615 220.907126 
L 180.139615 220.347944 
L 184.309439 220.347944 
L 184.335023 219.22958 
L 184.533273 219.22958 
L 184.533273 218.670397 
L 185.27997 218.670397 
L 185.27997 218.111215 
L 185.563124 218.111215 
L 185.582153 216.992851 
L 186.417333 216.992851 
L 186.417333 216.433669 
L 186.908415 216.433669 
L 186.908415 215.874486 
L 189.025708 215.874486 
L 189.045149 214.756122 
L 189.215292 214.756122 
L 189.215292 214.19694 
L 189.543054 214.19694 
L 189.652182 213.078575 
L 189.734509 213.078575 
L 189.80901 211.960211 
L 189.875786 211.960211 
L 189.875786 210.841846 
L 190.030594 210.841846 
L 190.030594 210.282664 
L 191.422044 210.282664 
L 191.422044 209.723482 
L 192.734225 209.723482 
L 192.734225 209.164299 
L 193.198109 209.164299 
L 193.198109 208.045935 
L 193.658702 208.045935 
L 193.658702 207.486753 
L 196.289158 207.486753 
L 196.289158 206.92757 
L 196.899981 206.92757 
L 196.899981 206.368388 
L 198.565164 206.368388 
L 198.565164 205.809206 
L 198.863876 205.809206 
L 198.863876 205.250024 
L 200.504827 205.250024 
L 200.534705 204.131659 
L 202.763731 204.131659 
L 202.840464 201.89493 
L 202.987733 201.89493 
L 202.987733 201.335748 
L 204.24319 201.335748 
L 204.24319 200.776566 
L 205.109319 200.776566 
L 205.124558 199.658201 
L 205.88728 199.658201 
L 205.88728 199.099019 
L 206.611968 199.099019 
L 206.611968 198.539837 
L 209.002224 198.539837 
L 209.002224 197.980655 
L 209.20159 197.980655 
L 209.20159 197.421472 
L 210.396365 197.421472 
L 210.396365 196.86229 
L 211.31803 196.86229 
L 211.31803 196.303108 
L 213.513164 196.303108 
L 213.54584 195.184743 
L 216.242059 195.184743 
L 216.242059 194.625561 
L 218.372244 194.625561 
L 218.372244 194.066379 
L 218.488039 194.066379 
L 218.488039 193.507197 
L 220.772836 193.507197 
L 220.772836 192.948014 
L 221.247464 192.948014 
L 221.247464 192.388832 
L 222.432508 192.388832 
L 222.432508 191.82965 
L 222.557123 191.82965 
L 222.557123 191.270468 
L 223.76055 191.270468 
L 223.76055 190.711285 
L 224.709307 190.711285 
L 224.709307 190.152103 
L 225.319052 190.152103 
L 225.319052 189.592921 
L 227.083418 189.592921 
L 227.083418 189.033739 
L 227.566232 189.033739 
L 227.566232 188.474556 
L 229.968363 188.474556 
L 230.054159 187.356192 
L 232.192175 187.356192 
L 232.192175 186.79701 
L 233.376661 186.79701 
L 233.376661 186.237828 
L 234.612301 186.237828 
L 234.662542 185.119463 
L 235.400589 185.119463 
L 235.400589 184.560281 
L 236.280035 184.560281 
L 236.280035 184.001099 
L 236.793123 184.001099 
L 236.793123 183.441916 
L 237.352271 183.441916 
L 237.352271 182.882734 
L 238.286786 182.882734 
L 238.286786 182.323552 
L 238.70033 182.323552 
L 238.70033 181.76437 
L 240.436965 181.76437 
L 240.436965 181.205187 
L 240.899123 181.205187 
L 240.899123 180.646005 
L 241.619454 180.646005 
L 241.619454 180.086823 
L 241.884479 180.086823 
L 241.884479 179.527641 
L 243.625646 179.527641 
L 243.625646 178.968458 
L 245.431797 178.968458 
L 245.431797 178.409276 
L 246.447494 178.409276 
L 246.447494 177.850094 
L 249.253388 177.850094 
L 249.253388 177.290912 
L 253.802013 177.290912 
L 253.802013 176.731729 
L 333.569032 176.731729 
L 333.569032 176.731729 
" style="fill:none;stroke:#000080;stroke-linecap:square;stroke-width:1.5;"/>
   </g>
   <g id="line2d_25">
    <defs>
     <path d="M 0 6 
C 1.591219 6 3.117479 5.367802 4.242641 4.242641 
C 5.367802 3.117479 6 1.591219 6 0 
C 6 -1.591219 5.367802 -3.117479 4.242641 -4.242641 
C 3.117479 -5.367802 1.591219 -6 0 -6 
C -1.591219 -6 -3.117479 -5.367802 -4.242641 -4.242641 
C -5.367802 -3.117479 -6 -1.591219 -6 0 
C -6 1.591219 -5.367802 3.117479 -4.242641 4.242641 
C -3.117479 5.367802 -1.591219 6 0 6 
z
" id="m88322c7cc2" style="stroke:#000080;stroke-width:1.5;"/>
    </defs>
    <g>
     <use style="fill-opacity:0;stroke:#000080;stroke-width:1.5;" x="121.011458" xlink:href="#m88322c7cc2" y="256.69479"/>
     <use style="fill-opacity:0;stroke:#000080;stroke-width:1.5;" x="180.139615" xlink:href="#m88322c7cc2" y="220.907126"/>
     <use style="fill-opacity:0;stroke:#000080;stroke-width:1.5;" x="234.662542" xlink:href="#m88322c7cc2" y="185.119463"/>
     <use style="fill-opacity:0;stroke:#000080;stroke-width:1.5;" x="253.802013" xlink:href="#m88322c7cc2" y="176.731729"/>
     <use style="fill-opacity:0;stroke:#000080;stroke-width:1.5;" x="253.802013" xlink:href="#m88322c7cc2" y="176.731729"/>
     <use style="fill-opacity:0;stroke:#000080;stroke-width:1.5;" x="333.569032" xlink:href="#m88322c7cc2" y="176.731729"/>
    </g>
   </g>
   <g id="line2d_26">
    <path style="fill:none;stroke:#000080;stroke-linecap:square;stroke-width:1.5;"/>
    <g/>
   </g>
   <g id="line2d_27">
    <path clip-path="url(#p94643f7c74)" d="M 164.375293 233.209136 
" style="fill:none;stroke:#000080;stroke-linecap:square;stroke-width:1.5;"/>
    <defs>
     <path d="M -12 12 
L 12 -12 
M -12 -12 
L 12 12 
" id="m6526d58bba" style="stroke:#000080;stroke-width:3;"/>
    </defs>
    <g clip-path="url(#p94643f7c74)">
     <use style="fill:#000080;stroke:#000080;stroke-width:3;" x="164.375293" xlink:href="#m6526d58bba" y="233.209136"/>
    </g>
   </g>
   <g id="line2d_28">
    <defs>
     <path d="M 0 1.5 
C 0.397805 1.5 0.77937 1.341951 1.06066 1.06066 
C 1.341951 0.77937 1.5 0.397805 1.5 0 
C 1.5 -0.397805 1.341951 -0.77937 1.06066 -1.06066 
C 0.77937 -1.341951 0.397805 -1.5 0 -1.5 
C -0.397805 -1.5 -0.77937 -1.341951 -1.06066 -1.06066 
C -1.341951 -0.77937 -1.5 -0.397805 -1.5 0 
C -1.5 0.397805 -1.341951 0.77937 -1.06066 1.06066 
C -0.77937 1.341951 -0.397805 1.5 0 1.5 
z
" id="m202020962e" style="stroke:#ff00ff;"/>
    </defs>
    <g>
     <use style="fill:#ff00ff;stroke:#ff00ff;" x="255.845818" xlink:href="#m202020962e" y="76.078926"/>
     <use style="fill:#ff00ff;stroke:#ff00ff;" x="255.845818" xlink:href="#m202020962e" y="76.078926"/>
    </g>
   </g>
   <g id="line2d_29">
    <path d="M 44.939466 294.16 
L 44.939466 271.79271 
L 56.84 271.79271 
L 56.84 260.049883 
L 63.801366 260.049883 
L 63.801366 255.576425 
L 68.740534 255.576425 
L 68.740534 255.017243 
L 72.57165 255.017243 
L 72.57165 253.898879 
L 78.348489 253.898879 
L 78.348489 253.339696 
L 80.641068 253.339696 
L 80.641068 252.221332 
L 82.663267 252.221332 
L 82.663267 249.425421 
L 87.602435 249.425421 
L 87.602435 248.307056 
L 88.976675 248.307056 
L 88.976675 244.392781 
L 90.249023 244.392781 
L 90.249023 243.274416 
L 92.541603 243.274416 
L 92.541603 242.156052 
L 93.582457 242.156052 
L 93.582457 241.596869 
L 94.563801 241.596869 
L 94.563801 240.478505 
L 95.492072 240.478505 
L 95.492072 239.919323 
L 96.372719 239.919323 
L 96.372719 239.36014 
L 98.009084 239.36014 
L 98.009084 238.241776 
L 100.203835 238.241776 
L 100.203835 237.682594 
L 100.877209 237.682594 
L 100.877209 236.005047 
L 101.525167 236.005047 
L 101.525167 234.886682 
L 102.752035 234.886682 
L 102.752035 233.768318 
L 103.897048 233.768318 
L 103.897048 233.209136 
L 104.442137 233.209136 
L 104.442137 232.090771 
L 104.970451 232.090771 
L 104.970451 231.531589 
L 105.980674 231.531589 
L 105.980674 229.854042 
L 106.464335 229.854042 
L 106.464335 229.29486 
L 107.392607 229.29486 
L 107.392607 228.735678 
L 107.838576 228.735678 
L 107.838576 227.617313 
L 108.273253 227.617313 
L 108.273253 227.058131 
L 109.110924 227.058131 
L 109.110924 225.939767 
L 110.295451 225.939767 
L 110.295451 225.380584 
L 110.672804 225.380584 
L 110.672804 224.821402 
L 111.04204 224.821402 
L 111.04204 224.26222 
L 111.757512 224.26222 
L 111.757512 223.703038 
L 112.777744 223.703038 
L 112.777744 220.347944 
L 113.740735 220.347944 
L 113.740735 219.22958 
L 114.050092 219.22958 
L 114.050092 218.670397 
L 116.342671 218.670397 
L 116.342671 218.111215 
L 119.293141 218.111215 
L 119.293141 217.552033 
L 119.517573 217.552033 
L 119.517573 216.433669 
L 119.957824 216.433669 
L 119.957824 215.315304 
L 120.173787 215.315304 
L 120.173787 214.756122 
L 122.195986 214.756122 
L 122.195986 214.19694 
L 122.385698 214.19694 
L 122.385698 210.841846 
L 122.573338 210.841846 
L 122.573338 210.282664 
L 122.942575 210.282664 
L 122.942575 209.164299 
L 123.481954 209.164299 
L 123.481954 208.045935 
L 124.344892 208.045935 
L 124.344892 205.250024 
L 124.512394 205.250024 
L 124.512394 203.013295 
L 125.005313 203.013295 
L 125.005313 202.454112 
L 125.796644 202.454112 
L 125.796644 201.89493 
L 126.254507 201.89493 
L 126.254507 201.335748 
L 126.404454 201.335748 
L 126.404454 200.776566 
L 126.553103 200.776566 
L 126.553103 200.217384 
L 126.846595 200.217384 
L 126.846595 199.658201 
L 127.135154 199.658201 
L 127.135154 199.099019 
L 127.698117 199.099019 
L 127.698117 198.539837 
L 127.972824 198.539837 
L 127.972824 197.980655 
L 128.901096 197.980655 
L 128.901096 196.86229 
L 129.157352 196.86229 
L 129.157352 195.743926 
L 130.145759 195.743926 
L 130.145759 195.184743 
L 130.502219 195.184743 
L 130.502219 194.625561 
L 132.287602 194.625561 
L 132.393257 193.507197 
L 133.315983 193.507197 
L 133.315983 192.948014 
L 137.619667 192.948014 
L 137.619667 192.388832 
L 139.178169 192.388832 
L 139.178169 191.82965 
L 140.409928 191.82965 
L 140.409928 191.270468 
L 141.682276 191.270468 
L 141.682276 190.711285 
L 143.03764 190.711285 
L 143.03764 189.592921 
L 143.649884 189.592921 
L 143.649884 189.033739 
L 143.867214 189.033739 
L 143.867214 187.356192 
L 144.028425 187.356192 
L 144.081827 186.237828 
L 144.293791 186.237828 
L 144.293791 185.678645 
L 144.451064 185.678645 
L 144.503169 184.001099 
L 144.710025 184.001099 
L 144.710025 183.441916 
L 145.464269 183.441916 
L 145.562377 182.323552 
L 145.949296 182.323552 
L 145.949296 181.205187 
L 147.934258 181.205187 
L 147.934258 180.646005 
L 157.873726 180.646005 
L 157.873726 180.086823 
L 158.34478 180.086823 
L 158.34478 178.968458 
L 161.74777 178.968458 
L 161.74777 177.850094 
L 164.19448 177.850094 
L 164.19448 177.290912 
L 164.90658 177.290912 
L 164.90658 176.731729 
L 165.048667 176.731729 
L 165.048667 176.172547 
L 165.559821 176.172547 
L 165.559821 175.613365 
L 165.726878 175.613365 
L 165.80228 173.376636 
L 165.967006 173.376636 
L 165.981903 172.258271 
L 166.393857 172.258271 
L 166.451909 170.021543 
L 166.567428 170.021543 
L 166.567428 169.46236 
L 166.965728 169.46236 
L 166.965728 168.903178 
L 167.327484 168.903178 
L 167.409895 167.784814 
L 168.917476 167.784814 
L 168.917476 166.666449 
L 169.117116 166.666449 
L 169.117116 166.107267 
L 169.786195 166.107267 
L 169.786195 165.548085 
L 176.727665 165.548085 
L 176.751538 164.42972 
L 176.964917 164.42972 
L 177.004142 161.633809 
L 177.090123 161.633809 
L 177.160152 160.515444 
L 177.314758 160.515444 
L 177.406858 159.39708 
L 177.559267 159.39708 
L 177.559267 158.837898 
L 178.008543 158.837898 
L 178.008543 158.278715 
L 178.838117 158.278715 
L 178.838117 157.719533 
L 182.502228 157.719533 
L 182.502228 157.160351 
L 182.840208 157.160351 
L 182.840208 156.601169 
L 183.889592 156.601169 
L 183.994216 154.36444 
L 184.015065 154.36444 
L 184.04109 153.246075 
L 184.913153 153.246075 
L 184.913153 152.686893 
L 185.14394 152.686893 
L 185.14394 152.127711 
L 186.485132 152.127711 
L 186.485132 151.568529 
L 186.766998 151.568529 
L 186.766998 151.009346 
L 188.46819 151.009346 
L 188.54438 149.890982 
L 188.592327 149.890982 
L 188.671941 148.772617 
L 188.747235 148.772617 
L 188.830071 145.976706 
L 188.861523 145.976706 
L 188.955535 144.858342 
L 189.700877 144.858342 
L 189.700877 144.299159 
L 191.780334 144.299159 
L 191.780334 143.739977 
L 192.366692 143.739977 
L 192.430624 141.503248 
L 192.52925 141.503248 
L 192.59258 139.266519 
L 192.82801 139.266519 
L 192.82801 138.707337 
L 193.115529 138.707337 
L 193.115529 138.148155 
L 193.349993 138.148155 
L 193.349993 137.588973 
L 193.756446 137.588973 
L 193.756446 137.02979 
L 194.144838 137.02979 
L 194.144838 136.470608 
L 195.453653 136.470608 
L 195.49107 135.352244 
L 196.086641 135.352244 
L 196.086641 134.233879 
L 198.018636 134.233879 
L 198.087624 133.115515 
L 198.342758 133.115515 
L 198.342758 132.556332 
L 198.611973 132.556332 
L 198.611973 131.99715 
L 198.802346 131.99715 
L 198.802346 131.437968 
L 199.852651 131.437968 
L 199.852651 130.878786 
L 200.382785 130.878786 
L 200.46291 129.201239 
L 200.524751 129.201239 
L 200.526742 128.082874 
L 200.793452 128.082874 
L 200.793452 127.523692 
L 201.228963 127.523692 
L 201.228963 126.96451 
L 202.356952 126.96451 
L 202.371263 125.286963 
L 202.499536 125.286963 
L 202.499536 124.727781 
L 202.690165 124.727781 
L 202.690165 124.168599 
L 202.828279 124.168599 
L 202.828279 123.609417 
L 204.153158 123.609417 
L 204.153158 123.050234 
L 205.596325 123.050234 
L 205.596325 122.491052 
L 205.755639 122.491052 
L 205.755639 121.93187 
L 206.143266 121.93187 
L 206.143266 121.372688 
L 206.688624 121.372688 
L 206.688624 120.813505 
L 207.155048 120.813505 
L 207.155048 120.254323 
L 207.285825 120.254323 
L 207.366223 118.576776 
L 207.419613 118.576776 
L 207.419613 118.017594 
L 208.363378 118.017594 
L 208.363378 117.458412 
L 208.591431 117.458412 
L 208.641149 116.340047 
L 209.106424 116.340047 
L 209.106424 115.780865 
L 210.120754 115.780865 
L 210.120754 115.221683 
L 211.089252 115.221683 
L 211.102161 114.103318 
L 211.310595 114.103318 
L 211.387978 111.866589 
L 211.653499 111.866589 
L 211.653499 111.307407 
L 212.223986 111.307407 
L 212.223986 110.748225 
L 213.378064 110.748225 
L 213.394068 109.629861 
L 213.596134 109.629861 
L 213.596134 109.070678 
L 213.799526 109.070678 
L 213.799526 108.511496 
L 214.236892 108.511496 
L 214.236892 107.952314 
L 214.456774 107.952314 
L 214.54588 106.274767 
L 215.066753 106.274767 
L 215.151908 104.038038 
L 215.300761 104.038038 
L 215.300761 103.478856 
L 216.028689 103.478856 
L 216.044824 101.801309 
L 216.592407 101.801309 
L 216.592407 101.242127 
L 217.796554 101.242127 
L 217.796554 100.682945 
L 218.137571 100.682945 
L 218.137571 100.123762 
L 218.346171 100.123762 
L 218.427783 98.446216 
L 218.506215 98.446216 
L 218.506215 97.887033 
L 219.034592 97.887033 
L 219.054905 96.768669 
L 219.149385 96.768669 
L 219.149385 96.209487 
L 219.318148 96.209487 
L 219.318148 95.650304 
L 219.823768 95.650304 
L 219.823768 95.091122 
L 220.258235 95.091122 
L 220.258235 94.53194 
L 220.470168 94.53194 
L 220.470168 93.972758 
L 220.589401 93.972758 
L 220.589401 93.413576 
L 220.9616 93.413576 
L 221.059425 92.295211 
L 221.227202 92.295211 
L 221.227202 91.736029 
L 221.748702 91.736029 
L 221.77298 90.617664 
L 222.987095 90.617664 
L 223.049948 89.4993 
L 223.689404 89.4993 
L 223.730684 88.380935 
L 223.868253 88.380935 
L 223.868253 87.821753 
L 224.263479 87.821753 
L 224.363116 86.144206 
L 225.121052 86.144206 
L 225.121052 85.585024 
L 225.450571 85.585024 
L 225.450571 85.025842 
L 226.100204 85.025842 
L 226.100204 84.46666 
L 227.437557 84.46666 
L 227.437557 83.907477 
L 228.253441 83.907477 
L 228.253441 83.348295 
L 229.07313 83.348295 
L 229.07313 82.789113 
L 229.571017 82.789113 
L 229.571017 82.229931 
L 230.593329 82.229931 
L 230.627851 81.111566 
L 232.267884 81.111566 
L 232.267884 80.552384 
L 233.088037 80.552384 
L 233.088037 79.993202 
L 235.123081 79.993202 
L 235.123081 79.43402 
L 236.697005 79.43402 
L 236.697005 78.874837 
L 238.214224 78.874837 
L 238.214224 78.315655 
L 240.496463 78.315655 
L 240.496463 77.756473 
L 241.523005 77.756473 
L 241.523005 77.197291 
L 242.253225 77.197291 
L 242.253225 76.638108 
L 255.845818 76.638108 
L 255.845818 76.078926 
L 333.569032 76.078926 
L 333.569032 76.078926 
" style="fill:none;stroke:#ff00ff;stroke-linecap:square;stroke-width:1.5;"/>
   </g>
   <g id="line2d_30">
    <defs>
     <path d="M -0 8.485281 
L 5.091169 0 
L 0 -8.485281 
L -5.091169 -0 
z
" id="mbc43895e12" style="stroke:#ff00ff;stroke-linejoin:miter;stroke-width:1.5;"/>
    </defs>
    <g>
     <use style="fill-opacity:0;stroke:#ff00ff;stroke-linejoin:miter;stroke-width:1.5;" x="120.173787" xlink:href="#mbc43895e12" y="215.315304"/>
     <use style="fill-opacity:0;stroke:#ff00ff;stroke-linejoin:miter;stroke-width:1.5;" x="178.838117" xlink:href="#mbc43895e12" y="157.719533"/>
     <use style="fill-opacity:0;stroke:#ff00ff;stroke-linejoin:miter;stroke-width:1.5;" x="227.437557" xlink:href="#mbc43895e12" y="84.46666"/>
     <use style="fill-opacity:0;stroke:#ff00ff;stroke-linejoin:miter;stroke-width:1.5;" x="255.845818" xlink:href="#mbc43895e12" y="76.078926"/>
     <use style="fill-opacity:0;stroke:#ff00ff;stroke-linejoin:miter;stroke-width:1.5;" x="255.845818" xlink:href="#mbc43895e12" y="76.078926"/>
     <use style="fill-opacity:0;stroke:#ff00ff;stroke-linejoin:miter;stroke-width:1.5;" x="333.569032" xlink:href="#mbc43895e12" y="76.078926"/>
    </g>
   </g>
   <g id="line2d_31">
    <path style="fill:none;stroke:#ff00ff;stroke-linecap:square;stroke-width:1.5;"/>
    <g/>
   </g>
   <g id="line2d_32">
    <path clip-path="url(#p94643f7c74)" d="M 164.375293 177.290912 
" style="fill:none;stroke:#ff00ff;stroke-linecap:square;stroke-width:1.5;"/>
    <defs>
     <path d="M -12 12 
L 12 -12 
M -12 -12 
L 12 12 
" id="m313a8978d8" style="stroke:#ff00ff;stroke-width:3;"/>
    </defs>
    <g clip-path="url(#p94643f7c74)">
     <use style="fill:#ff00ff;stroke:#ff00ff;stroke-width:3;" x="164.375293" xlink:href="#m313a8978d8" y="177.290912"/>
    </g>
   </g>
   <g id="line2d_33">
    <defs>
     <path d="M 0 1.5 
C 0.397805 1.5 0.77937 1.341951 1.06066 1.06066 
C 1.341951 0.77937 1.5 0.397805 1.5 0 
C 1.5 -0.397805 1.341951 -0.77937 1.06066 -1.06066 
C 0.77937 -1.341951 0.397805 -1.5 0 -1.5 
C -0.397805 -1.5 -0.77937 -1.341951 -1.06066 -1.06066 
C -1.341951 -0.77937 -1.5 -0.397805 -1.5 0 
C -1.5 0.397805 -1.341951 0.77937 -1.06066 1.06066 
C -0.77937 1.341951 -0.397805 1.5 0 1.5 
z
" id="m3867125f7f" style="stroke:#ffa500;"/>
    </defs>
    <g>
     <use style="fill:#ffa500;stroke:#ffa500;" x="253.900988" xlink:href="#m3867125f7f" y="104.038038"/>
     <use style="fill:#ffa500;stroke:#ffa500;" x="253.900988" xlink:href="#m3867125f7f" y="104.038038"/>
    </g>
   </g>
   <g id="line2d_34">
    <path d="M 44.939466 294.16 
L 44.939466 281.857991 
L 56.84 281.857991 
L 56.84 276.825351 
L 63.801366 276.825351 
L 63.801366 273.470257 
L 68.740534 273.470257 
L 68.740534 271.233528 
L 72.57165 271.233528 
L 72.57165 270.115164 
L 75.7019 270.115164 
L 75.7019 268.996799 
L 78.348489 268.996799 
L 78.348489 267.319252 
L 80.641068 267.319252 
L 80.641068 264.523341 
L 82.663267 264.523341 
L 82.663267 263.404977 
L 84.472185 263.404977 
L 84.472185 262.286612 
L 86.10855 262.286612 
L 86.10855 260.049883 
L 90.249023 260.049883 
L 90.249023 259.490701 
L 91.433551 259.490701 
L 91.433551 258.372337 
L 93.582457 258.372337 
L 93.582457 256.69479 
L 94.563801 256.69479 
L 94.563801 256.135608 
L 95.492072 256.135608 
L 95.492072 255.576425 
L 96.372719 255.576425 
L 96.372719 255.017243 
L 97.210389 255.017243 
L 97.210389 254.458061 
L 98.009084 254.458061 
L 98.009084 253.898879 
L 100.203835 253.898879 
L 100.203835 252.221332 
L 102.752035 252.221332 
L 102.752035 251.66215 
L 106.464335 251.66215 
L 106.464335 251.102967 
L 106.934744 251.102967 
L 106.934744 250.543785 
L 108.697197 250.543785 
L 108.697197 249.984603 
L 109.110924 249.984603 
L 109.110924 248.866238 
L 109.909618 248.866238 
L 109.909618 248.307056 
L 112.777744 248.307056 
L 112.777744 247.747874 
L 113.104779 247.747874 
L 113.104779 247.188692 
L 113.425701 247.188692 
L 113.425701 246.62951 
L 114.652569 246.62951 
L 114.652569 246.070327 
L 114.946061 246.070327 
L 114.946061 245.511145 
L 115.797583 245.511145 
L 115.797583 244.392781 
L 116.07229 244.392781 
L 116.07229 243.274416 
L 116.60886 243.274416 
L 116.60886 242.715234 
L 118.364869 242.715234 
L 118.364869 242.156052 
L 120.597731 242.156052 
L 120.597731 241.596869 
L 120.805841 241.596869 
L 120.805841 241.037687 
L 121.810153 241.037687 
L 121.810153 240.478505 
L 122.195986 240.478505 
L 122.195986 239.919323 
L 123.658047 239.919323 
L 123.658047 239.36014 
L 124.175739 239.36014 
L 124.175739 238.241776 
L 124.512394 238.241776 
L 124.512394 237.682594 
L 126.553103 237.682594 
L 126.553103 237.123411 
L 126.99148 237.123411 
L 126.99148 236.564229 
L 128.640957 236.564229 
L 128.640957 236.005047 
L 130.502219 236.005047 
L 130.502219 235.445865 
L 131.639644 235.445865 
L 131.639644 234.886682 
L 133.013885 234.886682 
L 133.013885 234.3275 
L 133.215873 234.3275 
L 133.215873 232.649954 
L 133.710687 232.649954 
L 133.710687 232.090771 
L 134.191638 232.090771 
L 134.191638 231.531589 
L 136.49607 231.531589 
L 136.49607 230.972407 
L 136.824671 230.972407 
L 136.824671 230.413225 
L 139.873358 230.413225 
L 139.873358 229.29486 
L 141.682276 229.29486 
L 141.682276 228.176496 
L 142.578245 228.176496 
L 142.578245 227.617313 
L 143.03764 227.617313 
L 143.03764 227.058131 
L 143.704475 227.058131 
L 143.813139 225.939767 
L 146.513802 225.939767 
L 146.513802 225.380584 
L 147.805972 225.380584 
L 147.805972 224.821402 
L 151.429816 224.821402 
L 151.499185 223.703038 
L 155.163342 223.703038 
L 155.163342 223.143855 
L 156.429697 223.143855 
L 156.429697 222.584673 
L 157.462911 222.584673 
L 157.462911 222.025491 
L 157.873726 222.025491 
L 157.873726 221.466309 
L 160.868127 221.466309 
L 160.868127 219.788762 
L 161.284241 219.788762 
L 161.284241 219.22958 
L 161.652228 219.22958 
L 161.671379 218.111215 
L 162.106057 218.111215 
L 162.199113 216.992851 
L 162.365354 216.992851 
L 162.365354 216.433669 
L 164.874844 216.433669 
L 164.874844 215.874486 
L 165.282898 215.874486 
L 165.282898 215.315304 
L 165.847362 215.315304 
L 165.847362 214.756122 
L 167.491912 214.756122 
L 167.491912 214.19694 
L 167.949416 214.19694 
L 167.962689 213.078575 
L 168.31724 213.078575 
L 168.330232 211.960211 
L 171.596306 211.960211 
L 171.596306 211.401028 
L 171.714012 211.401028 
L 171.714012 210.841846 
L 173.194561 210.841846 
L 173.194561 210.282664 
L 176.454756 210.282664 
L 176.454756 209.723482 
L 176.583724 209.723482 
L 176.583724 209.164299 
L 176.854607 209.164299 
L 176.854607 208.605117 
L 177.097918 208.605117 
L 177.198935 206.92757 
L 177.536492 206.92757 
L 177.536492 206.368388 
L 177.889881 206.368388 
L 177.889881 205.809206 
L 178.279848 205.809206 
L 178.279848 205.250024 
L 178.511082 205.250024 
L 178.511082 204.690841 
L 178.816977 204.690841 
L 178.816977 204.131659 
L 179.283003 204.131659 
L 179.283003 203.572477 
L 179.629448 203.572477 
L 179.629448 203.013295 
L 180.126554 203.013295 
L 180.126554 202.454112 
L 182.705814 202.454112 
L 182.705814 201.335748 
L 183.757908 201.335748 
L 183.757908 200.776566 
L 184.04109 200.776566 
L 184.144798 199.658201 
L 184.222171 199.658201 
L 184.324794 198.539837 
L 184.558525 198.539837 
L 184.558525 197.980655 
L 184.759216 197.980655 
L 184.759216 196.86229 
L 184.873559 196.86229 
L 184.873559 196.303108 
L 185.265447 196.303108 
L 185.289645 195.184743 
L 186.921613 195.184743 
L 186.921613 194.625561 
L 188.683852 194.625561 
L 188.683852 194.066379 
L 188.861523 194.066379 
L 188.94772 191.82965 
L 189.341802 191.82965 
L 189.341802 191.270468 
L 189.493908 191.270468 
L 189.493908 190.711285 
L 189.905381 190.711285 
L 189.905381 190.152103 
L 190.085546 190.152103 
L 190.085546 189.592921 
L 190.986846 189.592921 
L 191.028442 188.474556 
L 192.560944 188.474556 
L 192.649378 187.356192 
L 192.852933 187.356192 
L 192.852933 186.79701 
L 192.99863 186.79701 
L 192.99863 186.237828 
L 193.130852 186.237828 
L 193.130852 185.678645 
L 193.670579 185.678645 
L 193.771207 183.441916 
L 193.788904 183.441916 
L 193.788904 182.882734 
L 194.159269 182.882734 
L 194.234117 181.76437 
L 195.450977 181.76437 
L 195.450977 181.205187 
L 195.584256 181.205187 
L 195.626687 180.086823 
L 195.761242 180.086823 
L 195.761242 179.527641 
L 195.990964 179.527641 
L 196.081483 178.409276 
L 196.380657 178.409276 
L 196.380657 177.850094 
L 197.511191 177.850094 
L 197.511191 177.290912 
L 198.133462 177.290912 
L 198.156336 176.172547 
L 198.281598 176.172547 
L 198.281598 175.613365 
L 198.394686 175.613365 
L 198.498072 173.935818 
L 198.631995 173.935818 
L 198.631995 173.376636 
L 199.148851 173.376636 
L 199.148851 172.817454 
L 199.530752 172.817454 
L 199.530752 172.258271 
L 200.440913 172.258271 
L 200.440913 171.699089 
L 200.614126 171.699089 
L 200.703038 168.903178 
L 200.945683 168.903178 
L 200.945683 168.343996 
L 202.469336 168.343996 
L 202.469336 167.784814 
L 202.662057 167.784814 
L 202.767227 165.548085 
L 202.868282 165.548085 
L 202.868282 164.988902 
L 203.750318 164.988902 
L 203.750318 164.42972 
L 204.230357 164.42972 
L 204.230357 163.870538 
L 204.358257 163.870538 
L 204.425025 162.192991 
L 205.431032 162.192991 
L 205.431032 161.633809 
L 205.760043 161.633809 
L 205.811344 160.515444 
L 206.059803 160.515444 
L 206.08863 159.39708 
L 206.776011 159.39708 
L 206.776011 158.837898 
L 207.316689 158.837898 
L 207.376914 156.041987 
L 207.541783 156.041987 
L 207.620994 153.805258 
L 207.724733 153.805258 
L 207.724733 153.246075 
L 210.094545 153.246075 
L 210.182133 151.568529 
L 210.851928 151.568529 
L 210.883543 150.450164 
L 211.12473 150.450164 
L 211.200815 149.3318 
L 211.27337 149.3318 
L 211.27337 148.772617 
L 212.267249 148.772617 
L 212.333441 147.654253 
L 212.886973 147.654253 
L 212.925699 146.535888 
L 213.295923 146.535888 
L 213.372411 145.417524 
L 213.412879 145.417524 
L 213.412879 144.858342 
L 213.765487 144.858342 
L 213.765487 144.299159 
L 213.93045 144.299159 
L 213.93045 143.739977 
L 214.226137 143.739977 
L 214.316445 142.621613 
L 214.525629 142.621613 
L 214.613504 140.384884 
L 214.879639 140.384884 
L 214.879639 139.825702 
L 215.143411 139.825702 
L 215.211265 138.148155 
L 215.312547 138.148155 
L 215.312547 137.588973 
L 216.110018 137.588973 
L 216.110018 137.02979 
L 216.928857 137.02979 
L 217.025092 135.911426 
L 217.704559 135.911426 
L 217.763026 134.233879 
L 218.196718 134.233879 
L 218.196718 133.674697 
L 218.316525 133.674697 
L 218.316525 133.115515 
L 218.442516 133.115515 
L 218.459339 131.437968 
L 218.757295 131.437968 
L 218.799931 130.319603 
L 219.945632 130.319603 
L 219.945632 129.760421 
L 220.248138 129.760421 
L 220.353239 128.642057 
L 220.500054 128.642057 
L 220.55781 126.96451 
L 221.112932 126.96451 
L 221.177639 125.286963 
L 221.815095 125.286963 
L 221.815095 124.168599 
L 222.257636 124.168599 
L 222.257636 123.609417 
L 222.433619 123.609417 
L 222.433619 123.050234 
L 222.93643 123.050234 
L 222.93643 122.491052 
L 223.632481 122.491052 
L 223.726045 121.372688 
L 223.931024 121.372688 
L 223.931024 120.813505 
L 224.589619 120.813505 
L 224.599421 119.695141 
L 225.024296 119.695141 
L 225.024296 119.135959 
L 225.738617 119.135959 
L 225.738617 118.576776 
L 226.116807 118.576776 
L 226.116807 118.017594 
L 226.381174 118.017594 
L 226.381174 117.458412 
L 226.551686 117.458412 
L 226.647621 116.340047 
L 227.454576 116.340047 
L 227.462457 115.221683 
L 227.675118 115.221683 
L 227.675118 114.662501 
L 227.892458 114.662501 
L 227.892458 114.103318 
L 228.053877 114.103318 
L 228.053877 113.544136 
L 229.46543 113.544136 
L 229.46543 112.984954 
L 229.908769 112.984954 
L 229.908769 112.425772 
L 231.086894 112.425772 
L 231.086894 111.866589 
L 232.243417 111.866589 
L 232.243417 111.307407 
L 232.667246 111.307407 
L 232.667246 110.748225 
L 233.953108 110.748225 
L 233.953108 110.189043 
L 234.226543 110.189043 
L 234.226543 109.629861 
L 234.99814 109.629861 
L 234.99814 109.070678 
L 236.068569 109.070678 
L 236.068569 108.511496 
L 237.010413 108.511496 
L 237.010413 107.952314 
L 237.190902 107.952314 
L 237.195607 106.833949 
L 237.330345 106.833949 
L 237.330345 106.274767 
L 238.861631 106.274767 
L 238.861631 105.715585 
L 244.422929 105.715585 
L 244.422929 105.156403 
L 248.669557 105.156403 
L 248.669557 104.59722 
L 253.900988 104.59722 
L 253.900988 104.038038 
L 333.569032 104.038038 
L 333.569032 104.038038 
" style="fill:none;stroke:#ffa500;stroke-linecap:square;stroke-width:1.5;"/>
   </g>
   <g id="line2d_35">
    <defs>
     <path d="M 0 -6 
L -1.347084 -1.854102 
L -5.706339 -1.854102 
L -2.179628 0.708204 
L -3.526712 4.854102 
L -0 2.291796 
L 3.526712 4.854102 
L 2.179628 0.708204 
L 5.706339 -1.854102 
L 1.347084 -1.854102 
z
" id="mb0e6289524" style="stroke:#ffa500;stroke-linejoin:bevel;stroke-width:1.5;"/>
    </defs>
    <g>
     <use style="fill-opacity:0;stroke:#ffa500;stroke-linejoin:bevel;stroke-width:1.5;" x="84.472185" xlink:href="#mb0e6289524" y="263.404977"/>
     <use style="fill-opacity:0;stroke:#ffa500;stroke-linejoin:bevel;stroke-width:1.5;" x="146.513802" xlink:href="#mb0e6289524" y="225.380584"/>
     <use style="fill-opacity:0;stroke:#ffa500;stroke-linejoin:bevel;stroke-width:1.5;" x="210.883543" xlink:href="#mb0e6289524" y="150.450164"/>
     <use style="fill-opacity:0;stroke:#ffa500;stroke-linejoin:bevel;stroke-width:1.5;" x="253.900988" xlink:href="#mb0e6289524" y="104.59722"/>
     <use style="fill-opacity:0;stroke:#ffa500;stroke-linejoin:bevel;stroke-width:1.5;" x="253.900988" xlink:href="#mb0e6289524" y="104.038038"/>
     <use style="fill-opacity:0;stroke:#ffa500;stroke-linejoin:bevel;stroke-width:1.5;" x="333.569032" xlink:href="#mb0e6289524" y="104.038038"/>
    </g>
   </g>
   <g id="line2d_36">
    <path style="fill:none;stroke:#ffa500;stroke-linecap:square;stroke-width:1.5;"/>
    <g/>
   </g>
   <g id="line2d_37">
    <path clip-path="url(#p94643f7c74)" d="M 164.375293 216.433669 
" style="fill:none;stroke:#ffa500;stroke-linecap:square;stroke-width:1.5;"/>
    <defs>
     <path d="M -12 12 
L 12 -12 
M -12 -12 
L 12 12 
" id="m623b1b07f3" style="stroke:#ffa500;stroke-width:3;"/>
    </defs>
    <g clip-path="url(#p94643f7c74)">
     <use style="fill:#ffa500;stroke:#ffa500;stroke-width:3;" x="164.375293" xlink:href="#m623b1b07f3" y="216.433669"/>
    </g>
   </g>
   <g id="line2d_38">
    <defs>
     <path d="M 0 1.5 
C 0.397805 1.5 0.77937 1.341951 1.06066 1.06066 
C 1.341951 0.77937 1.5 0.397805 1.5 0 
C 1.5 -0.397805 1.341951 -0.77937 1.06066 -1.06066 
C 0.77937 -1.341951 0.397805 -1.5 0 -1.5 
C -0.397805 -1.5 -0.77937 -1.341951 -1.06066 -1.06066 
C -1.341951 -0.77937 -1.5 -0.397805 -1.5 0 
C -1.5 0.397805 -1.341951 0.77937 -1.06066 1.06066 
C -0.77937 1.341951 -0.397805 1.5 0 1.5 
z
" id="m5d11fdfd63" style="stroke:#6495ed;"/>
    </defs>
    <g>
     <use style="fill:#6495ed;stroke:#6495ed;" x="261.030694" xlink:href="#m5d11fdfd63" y="115.221683"/>
     <use style="fill:#6495ed;stroke:#6495ed;" x="261.030694" xlink:href="#m5d11fdfd63" y="115.221683"/>
    </g>
   </g>
   <g id="line2d_39">
    <path d="M 44.939466 294.16 
L 44.939466 270.115164 
L 56.84 270.115164 
L 56.84 263.964159 
L 63.801366 263.964159 
L 63.801366 261.168248 
L 68.740534 261.168248 
L 68.740534 260.049883 
L 72.57165 260.049883 
L 72.57165 258.931519 
L 75.7019 258.931519 
L 75.7019 258.372337 
L 78.348489 258.372337 
L 78.348489 256.135608 
L 80.641068 256.135608 
L 80.641068 254.458061 
L 82.663267 254.458061 
L 82.663267 253.898879 
L 84.472185 253.898879 
L 84.472185 253.339696 
L 88.976675 253.339696 
L 88.976675 252.780514 
L 92.541603 252.780514 
L 92.541603 252.221332 
L 94.563801 252.221332 
L 94.563801 251.102967 
L 95.492072 251.102967 
L 95.492072 249.425421 
L 96.372719 249.425421 
L 96.372719 248.307056 
L 98.009084 248.307056 
L 98.009084 247.747874 
L 100.203835 247.747874 
L 100.203835 246.070327 
L 102.149557 246.070327 
L 102.149557 245.511145 
L 104.970451 245.511145 
L 104.970451 244.951963 
L 106.934744 244.951963 
L 106.934744 244.392781 
L 107.392607 244.392781 
L 107.392607 243.833598 
L 107.838576 243.833598 
L 107.838576 243.274416 
L 109.514915 243.274416 
L 109.514915 242.715234 
L 110.295451 242.715234 
L 110.295451 241.596869 
L 111.403503 241.596869 
L 111.403503 241.037687 
L 116.07229 241.037687 
L 116.07229 239.919323 
L 116.60886 239.919323 
L 116.60886 239.36014 
L 119.293141 239.36014 
L 119.293141 238.800958 
L 120.597731 238.800958 
L 120.597731 238.241776 
L 120.805841 238.241776 
L 120.805841 237.682594 
L 123.832351 237.682594 
L 123.832351 237.123411 
L 124.512394 237.123411 
L 124.512394 236.005047 
L 127.418943 236.005047 
L 127.418943 234.886682 
L 128.376816 234.886682 
L 128.376816 233.768318 
L 130.735812 233.768318 
L 130.735812 233.209136 
L 133.710687 233.209136 
L 133.710687 232.649954 
L 134.473872 232.649954 
L 134.473872 232.090771 
L 134.843109 232.090771 
L 134.843109 230.972407 
L 135.47076 230.972407 
L 135.47076 230.413225 
L 135.732885 230.413225 
L 135.732885 229.854042 
L 136.578812 229.854042 
L 136.578812 229.29486 
L 136.743108 229.29486 
L 136.743108 228.735678 
L 137.385009 228.735678 
L 137.385009 228.176496 
L 139.873358 228.176496 
L 139.873358 227.617313 
L 141.559202 227.617313 
L 141.559202 227.058131 
L 141.804475 227.058131 
L 141.804475 226.498949 
L 142.225448 226.498949 
L 142.225448 225.939767 
L 142.46145 225.939767 
L 142.46145 225.380584 
L 142.751962 225.380584 
L 142.751962 224.26222 
L 143.540178 224.26222 
L 143.540178 223.703038 
L 144.081827 223.703038 
L 144.081827 223.143855 
L 145.066133 223.143855 
L 145.066133 222.584673 
L 145.562377 222.584673 
L 145.562377 222.025491 
L 153.335773 222.025491 
L 153.335773 221.466309 
L 156.429697 221.466309 
L 156.429697 220.347944 
L 160.109499 220.347944 
L 160.109499 219.788762 
L 164.969875 219.788762 
L 164.969875 219.22958 
L 165.468009 219.22958 
L 165.468009 218.670397 
L 165.620757 218.670397 
L 165.620757 218.111215 
L 166.262518 218.111215 
L 166.262518 216.992851 
L 166.480862 216.992851 
L 166.480862 216.433669 
L 166.682174 216.433669 
L 166.682174 215.874486 
L 166.993828 215.874486 
L 166.993828 215.315304 
L 167.423591 215.315304 
L 167.505543 214.19694 
L 168.330232 214.19694 
L 168.330232 213.637757 
L 168.626364 213.637757 
L 168.626364 213.078575 
L 168.829398 213.078575 
L 168.829398 212.519393 
L 169.32672 212.519393 
L 169.351212 210.841846 
L 173.648305 210.841846 
L 173.648305 210.282664 
L 174.229085 210.282664 
L 174.229085 209.723482 
L 175.161234 209.723482 
L 175.161234 209.164299 
L 177.521291 209.164299 
L 177.597159 208.045935 
L 177.822771 208.045935 
L 177.912193 206.92757 
L 178.482347 206.92757 
L 178.582708 205.809206 
L 178.675378 205.809206 
L 178.675378 205.250024 
L 178.809925 205.250024 
L 178.852196 204.131659 
L 179.117518 204.131659 
L 179.117518 203.572477 
L 179.412889 203.572477 
L 179.412889 203.013295 
L 179.72334 203.013295 
L 179.72334 202.454112 
L 180.824284 202.454112 
L 180.824284 201.89493 
L 181.221126 201.89493 
L 181.221126 201.335748 
L 181.530921 201.335748 
L 181.530921 200.776566 
L 181.858865 200.776566 
L 181.929591 199.658201 
L 182.502228 199.658201 
L 182.502228 198.539837 
L 182.615629 198.539837 
L 182.615629 197.421472 
L 183.389131 197.421472 
L 183.389131 196.86229 
L 183.921046 196.86229 
L 183.921046 196.303108 
L 184.299196 196.303108 
L 184.299196 195.743926 
L 184.548429 195.743926 
L 184.548429 195.184743 
L 184.709263 195.184743 
L 184.709263 194.625561 
L 185.104875 194.625561 
L 185.104875 194.066379 
L 185.30898 194.066379 
L 185.30898 193.507197 
L 186.009459 193.507197 
L 186.009459 192.948014 
L 186.399208 192.948014 
L 186.399208 192.388832 
L 187.995549 192.388832 
L 188.061519 191.270468 
L 188.904676 191.270468 
L 188.904676 190.711285 
L 189.741973 190.711285 
L 189.741973 190.152103 
L 190.33248 190.152103 
L 190.33248 189.592921 
L 191.361029 189.592921 
L 191.361029 189.033739 
L 192.93988 189.033739 
L 192.93988 188.474556 
L 193.673547 188.474556 
L 193.673547 187.915374 
L 193.900562 187.915374 
L 193.900562 187.356192 
L 194.518989 187.356192 
L 194.5754 186.237828 
L 195.006417 186.237828 
L 195.006417 185.678645 
L 195.589565 185.678645 
L 195.589565 184.560281 
L 196.299348 184.560281 
L 196.299348 184.001099 
L 197.463659 184.001099 
L 197.463659 183.441916 
L 198.607521 183.441916 
L 198.607521 182.882734 
L 198.877032 182.882734 
L 198.877032 182.323552 
L 199.5729 182.323552 
L 199.682002 181.205187 
L 199.723781 181.205187 
L 199.740464 180.086823 
L 199.846438 180.086823 
L 199.9291 178.968458 
L 200.190975 178.968458 
L 200.190975 178.409276 
L 200.502833 178.409276 
L 200.542663 177.290912 
L 201.30334 177.290912 
L 201.30334 176.731729 
L 201.518923 176.731729 
L 201.518923 176.172547 
L 202.077278 176.172547 
L 202.120882 175.054183 
L 202.406991 175.054183 
L 202.406991 174.495 
L 202.655023 174.495 
L 202.742745 173.376636 
L 203.927622 173.376636 
L 203.999336 171.699089 
L 204.3136 171.699089 
L 204.3136 171.139907 
L 204.650426 171.139907 
L 204.74101 169.46236 
L 204.818718 169.46236 
L 204.834218 168.343996 
L 205.377079 168.343996 
L 205.401079 167.225631 
L 205.591879 167.225631 
L 205.591879 166.666449 
L 206.130342 166.666449 
L 206.130342 166.107267 
L 206.360091 166.107267 
L 206.360091 165.548085 
L 206.73168 165.548085 
L 206.803661 163.870538 
L 206.869838 163.870538 
L 206.869838 163.311356 
L 207.141509 163.311356 
L 207.141509 162.752173 
L 207.444915 162.752173 
L 207.471509 161.633809 
L 207.804409 161.633809 
L 207.804409 161.074627 
L 207.987175 161.074627 
L 207.987175 160.515444 
L 208.321702 160.515444 
L 208.321702 159.956262 
L 209.128154 159.956262 
L 209.128154 159.39708 
L 209.657967 159.39708 
L 209.657967 158.837898 
L 210.433303 158.837898 
L 210.433303 158.278715 
L 211.140832 158.278715 
L 211.140832 157.719533 
L 211.748008 157.719533 
L 211.748008 157.160351 
L 211.965162 157.160351 
L 211.985604 155.482804 
L 213.049036 155.482804 
L 213.122806 154.36444 
L 214.028673 154.36444 
L 214.028673 153.805258 
L 214.280736 153.805258 
L 214.280736 153.246075 
L 214.484173 153.246075 
L 214.484173 152.686893 
L 215.108531 152.686893 
L 215.108531 152.127711 
L 215.798733 152.127711 
L 215.798733 151.568529 
L 216.518828 151.568529 
L 216.590845 149.3318 
L 217.240046 149.3318 
L 217.315098 148.213435 
L 217.498342 148.213435 
L 217.55456 147.095071 
L 217.842368 147.095071 
L 217.842368 146.535888 
L 218.818466 146.535888 
L 218.818466 145.976706 
L 218.957862 145.976706 
L 218.957862 145.417524 
L 219.459511 145.417524 
L 219.459511 144.858342 
L 219.758289 144.858342 
L 219.76738 143.739977 
L 220.934934 143.739977 
L 220.934934 143.180795 
L 221.630292 143.180795 
L 221.630292 142.621613 
L 221.909908 142.621613 
L 221.909908 142.06243 
L 222.107043 142.06243 
L 222.107043 141.503248 
L 223.229181 141.503248 
L 223.257283 140.384884 
L 223.360282 140.384884 
L 223.360282 139.825702 
L 223.606545 139.825702 
L 223.606545 139.266519 
L 223.831402 139.266519 
L 223.831402 138.707337 
L 224.212441 138.707337 
L 224.212441 138.148155 
L 225.224353 138.148155 
L 225.224353 137.588973 
L 225.489227 137.588973 
L 225.489227 137.02979 
L 225.766563 137.02979 
L 225.766563 136.470608 
L 226.439373 136.470608 
L 226.533748 135.352244 
L 226.69322 135.352244 
L 226.758152 134.233879 
L 228.192344 134.233879 
L 228.192344 133.674697 
L 229.022462 133.674697 
L 229.025491 132.556332 
L 229.751615 132.556332 
L 229.751615 131.99715 
L 230.268201 131.99715 
L 230.268201 131.437968 
L 230.824676 131.437968 
L 230.828767 130.319603 
L 231.219015 130.319603 
L 231.219015 129.201239 
L 232.177056 129.201239 
L 232.177056 128.642057 
L 232.325151 128.642057 
L 232.325151 128.082874 
L 232.933143 128.082874 
L 233.033563 126.96451 
L 233.543053 126.96451 
L 233.628689 125.286963 
L 235.844034 125.286963 
L 235.844034 124.727781 
L 236.109216 124.727781 
L 236.109216 124.168599 
L 236.320928 124.168599 
L 236.320928 123.609417 
L 236.930087 123.609417 
L 236.930087 123.050234 
L 238.090292 123.050234 
L 238.090292 122.491052 
L 240.30636 122.491052 
L 240.378238 121.372688 
L 242.15006 121.372688 
L 242.15006 120.813505 
L 242.481764 120.813505 
L 242.481764 120.254323 
L 243.353357 120.254323 
L 243.353357 119.695141 
L 244.039419 119.695141 
L 244.039419 119.135959 
L 245.899471 119.135959 
L 245.899471 118.576776 
L 246.072737 118.576776 
L 246.072737 118.017594 
L 249.201912 118.017594 
L 249.298783 116.89923 
L 253.735172 116.89923 
L 253.735172 116.340047 
L 255.501331 116.340047 
L 255.501331 115.780865 
L 261.030694 115.780865 
L 261.030694 115.221683 
L 333.569032 115.221683 
L 333.569032 115.221683 
" style="fill:none;stroke:#6495ed;stroke-linecap:square;stroke-width:1.5;"/>
   </g>
   <g id="line2d_40">
    <defs>
     <path d="M -0 6 
L 6 -6 
L -6 -6 
z
" id="ma619e72d9a" style="stroke:#6495ed;stroke-linejoin:miter;stroke-width:1.5;"/>
    </defs>
    <g>
     <use style="fill-opacity:0;stroke:#6495ed;stroke-linejoin:miter;stroke-width:1.5;" x="120.597731" xlink:href="#ma619e72d9a" y="238.241776"/>
     <use style="fill-opacity:0;stroke:#6495ed;stroke-linejoin:miter;stroke-width:1.5;" x="180.824284" xlink:href="#ma619e72d9a" y="202.454112"/>
     <use style="fill-opacity:0;stroke:#6495ed;stroke-linejoin:miter;stroke-width:1.5;" x="229.025491" xlink:href="#ma619e72d9a" y="132.556332"/>
     <use style="fill-opacity:0;stroke:#6495ed;stroke-linejoin:miter;stroke-width:1.5;" x="261.030694" xlink:href="#ma619e72d9a" y="115.780865"/>
     <use style="fill-opacity:0;stroke:#6495ed;stroke-linejoin:miter;stroke-width:1.5;" x="261.030694" xlink:href="#ma619e72d9a" y="115.221683"/>
     <use style="fill-opacity:0;stroke:#6495ed;stroke-linejoin:miter;stroke-width:1.5;" x="333.569032" xlink:href="#ma619e72d9a" y="115.221683"/>
    </g>
   </g>
   <g id="line2d_41">
    <path style="fill:none;stroke:#6495ed;stroke-linecap:square;stroke-width:1.5;"/>
    <g/>
   </g>
   <g id="line2d_42">
    <path clip-path="url(#p94643f7c74)" d="M 164.375293 219.788762 
" style="fill:none;stroke:#6495ed;stroke-linecap:square;stroke-width:1.5;"/>
    <defs>
     <path d="M -12 12 
L 12 -12 
M -12 -12 
L 12 12 
" id="m02516f0b38" style="stroke:#6495ed;stroke-width:3;"/>
    </defs>
    <g clip-path="url(#p94643f7c74)">
     <use style="fill:#6495ed;stroke:#6495ed;stroke-width:3;" x="164.375293" xlink:href="#m02516f0b38" y="219.788762"/>
    </g>
   </g>
   <g id="line2d_43">
    <defs>
     <path d="M 0 1.5 
C 0.397805 1.5 0.77937 1.341951 1.06066 1.06066 
C 1.341951 0.77937 1.5 0.397805 1.5 0 
C 1.5 -0.397805 1.341951 -0.77937 1.06066 -1.06066 
C 0.77937 -1.341951 0.397805 -1.5 0 -1.5 
C -0.397805 -1.5 -0.77937 -1.341951 -1.06066 -1.06066 
C -1.341951 -0.77937 -1.5 -0.397805 -1.5 0 
C -1.5 0.397805 -1.341951 0.77937 -1.06066 1.06066 
C -0.77937 1.341951 -0.397805 1.5 0 1.5 
z
" id="mefb4c1deff" style="stroke:#ff0000;"/>
    </defs>
    <g>
     <use style="fill:#ff0000;stroke:#ff0000;" x="255.451689" xlink:href="#mefb4c1deff" y="193.507197"/>
     <use style="fill:#ff0000;stroke:#ff0000;" x="255.451689" xlink:href="#mefb4c1deff" y="193.507197"/>
    </g>
   </g>
   <g id="line2d_44">
    <path d="M 44.939466 294.16 
L 44.939466 290.804907 
L 56.84 290.804907 
L 56.84 284.653902 
L 63.801366 284.653902 
L 63.801366 280.180444 
L 68.740534 280.180444 
L 68.740534 277.943715 
L 72.57165 277.943715 
L 72.57165 277.384533 
L 75.7019 277.384533 
L 75.7019 275.706986 
L 78.348489 275.706986 
L 78.348489 274.588622 
L 86.10855 274.588622 
L 86.10855 274.029439 
L 90.249023 274.029439 
L 90.249023 273.470257 
L 97.210389 273.470257 
L 97.210389 272.911075 
L 98.009084 272.911075 
L 98.009084 271.79271 
L 98.77227 271.79271 
L 98.77227 271.233528 
L 101.525167 271.233528 
L 101.525167 270.674346 
L 103.334085 270.674346 
L 103.334085 269.555981 
L 105.980674 269.555981 
L 105.980674 268.437617 
L 107.392607 268.437617 
L 107.392607 267.878435 
L 114.353973 267.878435 
L 114.353973 267.319252 
L 116.60886 267.319252 
L 116.60886 266.76007 
L 117.63417 266.76007 
L 117.63417 266.200888 
L 118.364869 266.200888 
L 118.364869 265.641706 
L 119.957824 265.641706 
L 119.957824 265.082523 
L 120.805841 265.082523 
L 120.805841 264.523341 
L 122.004153 264.523341 
L 122.004153 263.404977 
L 122.942575 263.404977 
L 122.942575 261.168248 
L 124.842574 261.168248 
L 124.842574 260.609066 
L 125.166524 260.609066 
L 125.166524 260.049883 
L 125.950626 260.049883 
L 125.950626 258.931519 
L 127.135154 258.931519 
L 127.135154 258.372337 
L 127.698117 258.372337 
L 127.698117 257.813154 
L 129.029702 257.813154 
L 129.029702 257.253972 
L 129.781742 257.253972 
L 129.781742 256.69479 
L 130.265403 256.69479 
L 130.265403 256.135608 
L 131.966679 256.135608 
L 131.966679 255.576425 
L 132.706375 255.576425 
L 132.706375 255.017243 
L 133.315983 255.017243 
L 133.315983 253.898879 
L 134.09652 253.898879 
L 134.09652 253.339696 
L 135.558581 253.339696 
L 135.558581 252.221332 
L 136.329381 252.221332 
L 136.329381 251.66215 
L 137.619667 251.66215 
L 137.619667 251.102967 
L 141.184594 251.102967 
L 141.184594 250.543785 
L 147.327215 250.543785 
L 147.327215 249.984603 
L 156.429697 249.984603 
L 156.429697 249.425421 
L 157.191753 249.425421 
L 157.191753 248.866238 
L 160.255618 248.866238 
L 160.255618 248.307056 
L 160.666375 248.307056 
L 160.666375 247.747874 
L 160.868127 247.747874 
L 160.868127 247.188692 
L 161.264653 247.188692 
L 161.264653 246.62951 
L 162.76507 246.62951 
L 162.76507 244.951963 
L 163.243243 244.951963 
L 163.243243 244.392781 
L 163.606161 244.392781 
L 163.606161 243.833598 
L 163.911242 243.833598 
L 163.911242 243.274416 
L 165.847362 243.274416 
L 165.847362 242.715234 
L 166.824537 242.715234 
L 166.824537 242.156052 
L 172.75863 242.156052 
L 172.75863 241.596869 
L 172.958153 241.596869 
L 172.958153 241.037687 
L 175.073771 241.037687 
L 175.073771 240.478505 
L 177.544087 240.478505 
L 177.566852 239.36014 
L 178.308923 239.36014 
L 178.308923 238.800958 
L 178.859231 238.800958 
L 178.859231 238.241776 
L 181.098095 238.241776 
L 181.098095 237.682594 
L 182.604323 237.682594 
L 182.604323 237.123411 
L 182.756335 237.123411 
L 182.756335 236.564229 
L 186.198561 236.564229 
L 186.198561 236.005047 
L 187.720708 236.005047 
L 187.720708 235.445865 
L 187.987284 235.445865 
L 187.987284 234.886682 
L 188.548381 234.886682 
L 188.548381 234.3275 
L 188.853666 234.3275 
L 188.853666 233.768318 
L 190.015911 233.768318 
L 190.015911 233.209136 
L 190.896374 233.209136 
L 190.896374 232.649954 
L 191.925526 232.649954 
L 191.925526 232.090771 
L 193.280293 232.090771 
L 193.280293 231.531589 
L 193.479547 231.531589 
L 193.479547 230.972407 
L 193.673547 230.972407 
L 193.673547 230.413225 
L 194.704448 230.413225 
L 194.704448 229.854042 
L 194.89069 229.854042 
L 194.89069 229.29486 
L 195.055776 229.29486 
L 195.124096 228.176496 
L 197.173244 228.176496 
L 197.173244 227.617313 
L 198.247526 227.617313 
L 198.358579 226.498949 
L 198.702996 226.498949 
L 198.702996 225.939767 
L 199.390926 225.939767 
L 199.390926 225.380584 
L 199.800804 225.380584 
L 199.80911 224.26222 
L 200.066673 224.26222 
L 200.066673 223.703038 
L 200.178788 223.703038 
L 200.178788 223.143855 
L 201.625708 223.143855 
L 201.625708 222.584673 
L 201.737399 222.584673 
L 201.737399 222.025491 
L 202.053614 222.025491 
L 202.053614 221.466309 
L 203.989574 221.466309 
L 203.989574 220.907126 
L 205.507175 220.907126 
L 205.596325 219.22958 
L 207.02463 219.22958 
L 207.02463 218.670397 
L 207.647316 218.670397 
L 207.647316 218.111215 
L 207.957495 218.111215 
L 207.957495 217.552033 
L 208.428846 217.552033 
L 208.428846 216.992851 
L 209.024086 216.992851 
L 209.055615 215.874486 
L 209.582937 215.874486 
L 209.649776 214.756122 
L 210.529194 214.756122 
L 210.529194 214.19694 
L 210.810412 214.19694 
L 210.810412 213.637757 
L 212.028452 213.637757 
L 212.028452 213.078575 
L 212.181624 213.078575 
L 212.181624 212.519393 
L 213.672226 212.519393 
L 213.672226 211.960211 
L 216.492137 211.960211 
L 216.492137 211.401028 
L 216.762616 211.401028 
L 216.762616 210.841846 
L 217.177503 210.841846 
L 217.177503 210.282664 
L 217.559729 210.282664 
L 217.559729 209.723482 
L 217.681849 209.723482 
L 217.681849 209.164299 
L 218.275502 209.164299 
L 218.275502 208.605117 
L 218.588463 208.605117 
L 218.588463 208.045935 
L 218.934026 208.045935 
L 218.934026 207.486753 
L 219.737491 207.486753 
L 219.737491 206.92757 
L 220.20136 206.92757 
L 220.20136 206.368388 
L 222.087772 206.368388 
L 222.087772 205.809206 
L 222.230098 205.809206 
L 222.230098 205.250024 
L 224.156726 205.250024 
L 224.156726 204.690841 
L 225.968158 204.690841 
L 225.968158 204.131659 
L 226.393977 204.131659 
L 226.456531 203.013295 
L 229.823687 203.013295 
L 229.823687 202.454112 
L 230.904951 202.454112 
L 230.904951 201.89493 
L 234.418708 201.89493 
L 234.468966 200.776566 
L 234.771797 200.776566 
L 234.771797 200.217384 
L 235.331501 200.217384 
L 235.331501 199.658201 
L 235.591746 199.658201 
L 235.591746 199.099019 
L 238.335726 199.099019 
L 238.335726 198.539837 
L 239.879929 198.539837 
L 239.879929 197.980655 
L 242.688691 197.980655 
L 242.688691 197.421472 
L 243.014437 197.421472 
L 243.014437 196.86229 
L 243.138032 196.86229 
L 243.138032 196.303108 
L 246.812499 196.303108 
L 246.812499 195.743926 
L 250.037768 195.743926 
L 250.037768 195.184743 
L 251.910646 195.184743 
L 251.910646 194.625561 
L 255.018001 194.625561 
L 255.018001 194.066379 
L 255.451689 194.066379 
L 255.451689 193.507197 
L 333.569032 193.507197 
L 333.569032 193.507197 
" style="fill:none;stroke:#ff0000;stroke-linecap:square;stroke-width:1.5;"/>
   </g>
   <g id="line2d_45">
    <defs>
     <path d="M 0 -6 
L -5.196152 -3 
L -5.196152 3 
L -0 6 
L 5.196152 3 
L 5.196152 -3 
z
" id="md1bac96219" style="stroke:#ff0000;stroke-linejoin:miter;stroke-width:1.5;"/>
    </defs>
    <g>
     <use style="fill-opacity:0;stroke:#ff0000;stroke-linejoin:miter;stroke-width:1.5;" x="114.353973" xlink:href="#md1bac96219" y="267.878435"/>
     <use style="fill-opacity:0;stroke:#ff0000;stroke-linejoin:miter;stroke-width:1.5;" x="182.756335" xlink:href="#md1bac96219" y="237.123411"/>
     <use style="fill-opacity:0;stroke:#ff0000;stroke-linejoin:miter;stroke-width:1.5;" x="235.591746" xlink:href="#md1bac96219" y="199.658201"/>
     <use style="fill-opacity:0;stroke:#ff0000;stroke-linejoin:miter;stroke-width:1.5;" x="255.451689" xlink:href="#md1bac96219" y="194.066379"/>
     <use style="fill-opacity:0;stroke:#ff0000;stroke-linejoin:miter;stroke-width:1.5;" x="255.451689" xlink:href="#md1bac96219" y="193.507197"/>
     <use style="fill-opacity:0;stroke:#ff0000;stroke-linejoin:miter;stroke-width:1.5;" x="333.569032" xlink:href="#md1bac96219" y="193.507197"/>
    </g>
   </g>
   <g id="line2d_46">
    <path style="fill:none;stroke:#ff0000;stroke-linecap:square;stroke-width:1.5;"/>
    <g/>
   </g>
   <g id="line2d_47">
    <path clip-path="url(#p94643f7c74)" d="M 164.375293 243.274416 
" style="fill:none;stroke:#ff0000;stroke-linecap:square;stroke-width:1.5;"/>
    <defs>
     <path d="M -12 12 
L 12 -12 
M -12 -12 
L 12 12 
" id="m4767759868" style="stroke:#ff0000;stroke-width:3;"/>
    </defs>
    <g clip-path="url(#p94643f7c74)">
     <use style="fill:#ff0000;stroke:#ff0000;stroke-width:3;" x="164.375293" xlink:href="#m4767759868" y="243.274416"/>
    </g>
   </g>
   <g id="line2d_48">
    <path d="M 333.569032 193.507197 
L 364.009226 288.456341 
" style="fill:none;stroke:#ff0000;stroke-linecap:square;stroke-width:1.5;"/>
    <g>
     <use style="fill-opacity:0;stroke:#ff0000;stroke-linejoin:miter;stroke-width:1.5;" x="333.569032" xlink:href="#md1bac96219" y="193.507197"/>
     <use style="fill-opacity:0;stroke:#ff0000;stroke-linejoin:miter;stroke-width:1.5;" x="364.009226" xlink:href="#md1bac96219" y="288.456341"/>
    </g>
   </g>
   <g id="line2d_49">
    <path d="M 333.569032 176.731729 
L 364.009226 220.012435 
" style="fill:none;stroke:#000080;stroke-linecap:square;stroke-width:1.5;"/>
    <g>
     <use style="fill-opacity:0;stroke:#000080;stroke-width:1.5;" x="333.569032" xlink:href="#m88322c7cc2" y="176.731729"/>
     <use style="fill-opacity:0;stroke:#000080;stroke-width:1.5;" x="364.009226" xlink:href="#m88322c7cc2" y="220.012435"/>
    </g>
   </g>
   <g id="line2d_50">
    <path d="M 333.569032 115.221683 
L 364.009226 151.568529 
" style="fill:none;stroke:#6495ed;stroke-linecap:square;stroke-width:1.5;"/>
    <g>
     <use style="fill-opacity:0;stroke:#6495ed;stroke-linejoin:miter;stroke-width:1.5;" x="333.569032" xlink:href="#ma619e72d9a" y="115.221683"/>
     <use style="fill-opacity:0;stroke:#6495ed;stroke-linejoin:miter;stroke-width:1.5;" x="364.009226" xlink:href="#ma619e72d9a" y="151.568529"/>
    </g>
   </g>
   <g id="line2d_51">
    <path d="M 333.569032 104.038038 
L 364.009226 83.124622 
" style="fill:none;stroke:#ffa500;stroke-linecap:square;stroke-width:1.5;"/>
    <g>
     <use style="fill-opacity:0;stroke:#ffa500;stroke-linejoin:bevel;stroke-width:1.5;" x="333.569032" xlink:href="#mb0e6289524" y="104.038038"/>
     <use style="fill-opacity:0;stroke:#ffa500;stroke-linejoin:bevel;stroke-width:1.5;" x="364.009226" xlink:href="#mb0e6289524" y="83.124622"/>
    </g>
   </g>
   <g id="line2d_52">
    <path d="M 333.569032 76.078926 
L 364.009226 14.680716 
" style="fill:none;stroke:#ff00ff;stroke-linecap:square;stroke-width:1.5;"/>
    <g>
     <use style="fill-opacity:0;stroke:#ff00ff;stroke-linejoin:miter;stroke-width:1.5;" x="333.569032" xlink:href="#mbc43895e12" y="76.078926"/>
     <use style="fill-opacity:0;stroke:#ff00ff;stroke-linejoin:miter;stroke-width:1.5;" x="364.009226" xlink:href="#mbc43895e12" y="14.680716"/>
    </g>
   </g>
   <g id="line2d_53">
    <path d="M 333.569032 294.16 
L 333.569032 8.977057 
" style="fill:none;stroke:#000000;stroke-linecap:square;stroke-width:1.5;"/>
   </g>
   <g id="patch_3">
    <path d="M 56.84 294.16 
L 56.84 6.125228 
" style="fill:none;stroke:#000000;stroke-linecap:square;stroke-linejoin:miter;stroke-width:0.8;"/>
   </g>
   <g id="patch_4">
    <path d="M 399.984 294.16 
L 399.984 6.125228 
" style="fill:none;stroke:#000000;stroke-linecap:square;stroke-linejoin:miter;stroke-width:0.8;"/>
   </g>
   <g id="patch_5">
    <path d="M 56.84 294.16 
L 399.984 294.16 
" style="fill:none;stroke:#000000;stroke-linecap:square;stroke-linejoin:miter;stroke-width:0.8;"/>
   </g>
   <g id="patch_6">
    <path d="M 56.84 6.125228 
L 399.984 6.125228 
" style="fill:none;stroke:#000000;stroke-linecap:square;stroke-linejoin:miter;stroke-width:0.8;"/>
   </g>
   <g id="text_14">
    <!-- f15 -->
    <defs>
     <path d="M 10.796875 72.90625 
L 49.515625 72.90625 
L 49.515625 64.59375 
L 19.828125 64.59375 
L 19.828125 46.734375 
Q 21.96875 47.46875 24.109375 47.828125 
Q 26.265625 48.1875 28.421875 48.1875 
Q 40.625 48.1875 47.75 41.5 
Q 54.890625 34.8125 54.890625 23.390625 
Q 54.890625 11.625 47.5625 5.09375 
Q 40.234375 -1.421875 26.90625 -1.421875 
Q 22.3125 -1.421875 17.546875 -0.640625 
Q 12.796875 0.140625 7.71875 1.703125 
L 7.71875 11.625 
Q 12.109375 9.234375 16.796875 8.0625 
Q 21.484375 6.890625 26.703125 6.890625 
Q 35.15625 6.890625 40.078125 11.328125 
Q 45.015625 15.765625 45.015625 23.390625 
Q 45.015625 31 40.078125 35.4375 
Q 35.15625 39.890625 26.703125 39.890625 
Q 22.75 39.890625 18.8125 39.015625 
Q 14.890625 38.140625 10.796875 36.28125 
z
" id="DejaVuSans-35"/>
    </defs>
    <g transform="translate(369.543806 293.147279)scale(0.17 -0.17)">
     <use xlink:href="#DejaVuSans-66"/>
     <use x="35.205078" xlink:href="#DejaVuSans-31"/>
     <use x="98.828125" xlink:href="#DejaVuSans-35"/>
    </g>
   </g>
   <g id="text_15">
    <!-- f18 -->
    <g transform="translate(369.543806 224.703372)scale(0.17 -0.17)">
     <use xlink:href="#DejaVuSans-66"/>
     <use x="35.205078" xlink:href="#DejaVuSans-31"/>
     <use x="98.828125" xlink:href="#DejaVuSans-38"/>
    </g>
   </g>
   <g id="text_16">
    <!-- f17 -->
    <defs>
     <path d="M 8.203125 72.90625 
L 55.078125 72.90625 
L 55.078125 68.703125 
L 28.609375 0 
L 18.3125 0 
L 43.21875 64.59375 
L 8.203125 64.59375 
z
" id="DejaVuSans-37"/>
    </defs>
    <g transform="translate(369.543806 156.259466)scale(0.17 -0.17)">
     <use xlink:href="#DejaVuSans-66"/>
     <use x="35.205078" xlink:href="#DejaVuSans-31"/>
     <use x="98.828125" xlink:href="#DejaVuSans-37"/>
    </g>
   </g>
   <g id="text_17">
    <!-- f16 -->
    <g transform="translate(369.543806 87.81556)scale(0.17 -0.17)">
     <use xlink:href="#DejaVuSans-66"/>
     <use x="35.205078" xlink:href="#DejaVuSans-31"/>
     <use x="98.828125" xlink:href="#DejaVuSans-36"/>
    </g>
   </g>
   <g id="text_18">
    <!-- f19 -->
    <defs>
     <path d="M 10.984375 1.515625 
L 10.984375 10.5 
Q 14.703125 8.734375 18.5 7.8125 
Q 22.3125 6.890625 25.984375 6.890625 
Q 35.75 6.890625 40.890625 13.453125 
Q 46.046875 20.015625 46.78125 33.40625 
Q 43.953125 29.203125 39.59375 26.953125 
Q 35.25 24.703125 29.984375 24.703125 
Q 19.046875 24.703125 12.671875 31.3125 
Q 6.296875 37.9375 6.296875 49.421875 
Q 6.296875 60.640625 12.9375 67.421875 
Q 19.578125 74.21875 30.609375 74.21875 
Q 43.265625 74.21875 49.921875 64.515625 
Q 56.59375 54.828125 56.59375 36.375 
Q 56.59375 19.140625 48.40625 8.859375 
Q 40.234375 -1.421875 26.421875 -1.421875 
Q 22.703125 -1.421875 18.890625 -0.6875 
Q 15.09375 0.046875 10.984375 1.515625 
z
M 30.609375 32.421875 
Q 37.25 32.421875 41.125 36.953125 
Q 45.015625 41.5 45.015625 49.421875 
Q 45.015625 57.28125 41.125 61.84375 
Q 37.25 66.40625 30.609375 66.40625 
Q 23.96875 66.40625 20.09375 61.84375 
Q 16.21875 57.28125 16.21875 49.421875 
Q 16.21875 41.5 20.09375 36.953125 
Q 23.96875 32.421875 30.609375 32.421875 
z
" id="DejaVuSans-39"/>
    </defs>
    <g transform="translate(369.543806 19.371654)scale(0.17 -0.17)">
     <use xlink:href="#DejaVuSans-66"/>
     <use x="35.205078" xlink:href="#DejaVuSans-31"/>
     <use x="98.828125" xlink:href="#DejaVuSans-39"/>
    </g>
   </g>
   <g id="text_19">
    <!-- bbob -->
    <defs>
     <path d="M 48.6875 27.296875 
Q 48.6875 37.203125 44.609375 42.84375 
Q 40.53125 48.484375 33.40625 48.484375 
Q 26.265625 48.484375 22.1875 42.84375 
Q 18.109375 37.203125 18.109375 27.296875 
Q 18.109375 17.390625 22.1875 11.75 
Q 26.265625 6.109375 33.40625 6.109375 
Q 40.53125 6.109375 44.609375 11.75 
Q 48.6875 17.390625 48.6875 27.296875 
z
M 18.109375 46.390625 
Q 20.953125 51.265625 25.265625 53.625 
Q 29.59375 56 35.59375 56 
Q 45.5625 56 51.78125 48.09375 
Q 58.015625 40.1875 58.015625 27.296875 
Q 58.015625 14.40625 51.78125 6.484375 
Q 45.5625 -1.421875 35.59375 -1.421875 
Q 29.59375 -1.421875 25.265625 0.953125 
Q 20.953125 3.328125 18.109375 8.203125 
L 18.109375 0 
L 9.078125 0 
L 9.078125 75.984375 
L 18.109375 75.984375 
z
" id="DejaVuSans-62"/>
    </defs>
    <g transform="translate(60.27144 16.755982)scale(0.102 -0.102)">
     <use xlink:href="#DejaVuSans-62"/>
     <use x="63.476562" xlink:href="#DejaVuSans-62"/>
     <use x="126.953125" xlink:href="#DejaVuSans-6f"/>
     <use x="188.134766" xlink:href="#DejaVuSans-62"/>
    </g>
    <!-- Multi-modal functions, 2-D -->
    <defs>
     <path d="M 9.8125 72.90625 
L 24.515625 72.90625 
L 43.109375 23.296875 
L 61.8125 72.90625 
L 76.515625 72.90625 
L 76.515625 0 
L 66.890625 0 
L 66.890625 64.015625 
L 48.09375 14.015625 
L 38.1875 14.015625 
L 19.390625 64.015625 
L 19.390625 0 
L 9.8125 0 
z
" id="DejaVuSans-4d"/>
     <path d="M 19.671875 64.796875 
L 19.671875 8.109375 
L 31.59375 8.109375 
Q 46.6875 8.109375 53.6875 14.9375 
Q 60.6875 21.78125 60.6875 36.53125 
Q 60.6875 51.171875 53.6875 57.984375 
Q 46.6875 64.796875 31.59375 64.796875 
z
M 9.8125 72.90625 
L 30.078125 72.90625 
Q 51.265625 72.90625 61.171875 64.09375 
Q 71.09375 55.28125 71.09375 36.53125 
Q 71.09375 17.671875 61.125 8.828125 
Q 51.171875 0 30.078125 0 
L 9.8125 0 
z
" id="DejaVuSans-44"/>
    </defs>
    <g transform="translate(60.27144 28.17775)scale(0.102 -0.102)">
     <use xlink:href="#DejaVuSans-4d"/>
     <use x="86.279297" xlink:href="#DejaVuSans-75"/>
     <use x="149.658203" xlink:href="#DejaVuSans-6c"/>
     <use x="177.441406" xlink:href="#DejaVuSans-74"/>
     <use x="216.650391" xlink:href="#DejaVuSans-69"/>
     <use x="244.433594" xlink:href="#DejaVuSans-2d"/>
     <use x="280.517578" xlink:href="#DejaVuSans-6d"/>
     <use x="377.929688" xlink:href="#DejaVuSans-6f"/>
     <use x="439.111328" xlink:href="#DejaVuSans-64"/>
     <use x="502.587891" xlink:href="#DejaVuSans-61"/>
     <use x="563.867188" xlink:href="#DejaVuSans-6c"/>
     <use x="591.650391" xlink:href="#DejaVuSans-20"/>
     <use x="623.4375" xlink:href="#DejaVuSans-66"/>
     <use x="658.642578" xlink:href="#DejaVuSans-75"/>
     <use x="722.021484" xlink:href="#DejaVuSans-6e"/>
     <use x="785.400391" xlink:href="#DejaVuSans-63"/>
     <use x="840.380859" xlink:href="#DejaVuSans-74"/>
     <use x="879.589844" xlink:href="#DejaVuSans-69"/>
     <use x="907.373047" xlink:href="#DejaVuSans-6f"/>
     <use x="968.554688" xlink:href="#DejaVuSans-6e"/>
     <use x="1031.933594" xlink:href="#DejaVuSans-73"/>
     <use x="1084.033203" xlink:href="#DejaVuSans-2c"/>
     <use x="1115.820312" xlink:href="#DejaVuSans-20"/>
     <use x="1147.607422" xlink:href="#DejaVuSans-32"/>
     <use x="1211.230469" xlink:href="#DejaVuSans-2d"/>
     <use x="1247.314453" xlink:href="#DejaVuSans-44"/>
    </g>
    <!-- 51 targets: 100..1e-08 -->
    <defs>
     <path d="M 11.71875 12.40625 
L 22.015625 12.40625 
L 22.015625 0 
L 11.71875 0 
z
M 11.71875 51.703125 
L 22.015625 51.703125 
L 22.015625 39.3125 
L 11.71875 39.3125 
z
" id="DejaVuSans-3a"/>
    </defs>
    <g transform="translate(60.27144 39.599519)scale(0.102 -0.102)">
     <use xlink:href="#DejaVuSans-35"/>
     <use x="63.623047" xlink:href="#DejaVuSans-31"/>
     <use x="127.246094" xlink:href="#DejaVuSans-20"/>
     <use x="159.033203" xlink:href="#DejaVuSans-74"/>
     <use x="198.242188" xlink:href="#DejaVuSans-61"/>
     <use x="259.521484" xlink:href="#DejaVuSans-72"/>
     <use x="300.619141" xlink:href="#DejaVuSans-67"/>
     <use x="364.095703" xlink:href="#DejaVuSans-65"/>
     <use x="425.619141" xlink:href="#DejaVuSans-74"/>
     <use x="464.828125" xlink:href="#DejaVuSans-73"/>
     <use x="516.927734" xlink:href="#DejaVuSans-3a"/>
     <use x="550.619141" xlink:href="#DejaVuSans-20"/>
     <use x="582.40625" xlink:href="#DejaVuSans-31"/>
     <use x="646.029297" xlink:href="#DejaVuSans-30"/>
     <use x="709.652344" xlink:href="#DejaVuSans-30"/>
     <use x="773.275391" xlink:href="#DejaVuSans-2e"/>
     <use x="805.0625" xlink:href="#DejaVuSans-2e"/>
     <use x="836.849609" xlink:href="#DejaVuSans-31"/>
     <use x="900.472656" xlink:href="#DejaVuSans-65"/>
     <use x="961.996094" xlink:href="#DejaVuSans-2d"/>
     <use x="998.080078" xlink:href="#DejaVuSans-30"/>
     <use x="1061.703125" xlink:href="#DejaVuSans-38"/>
    </g>
    <!-- 45 instances -->
    <g transform="translate(60.27144 51.021288)scale(0.102 -0.102)">
     <use xlink:href="#DejaVuSans-34"/>
     <use x="63.623047" xlink:href="#DejaVuSans-35"/>
     <use x="127.246094" xlink:href="#DejaVuSans-20"/>
     <use x="159.033203" xlink:href="#DejaVuSans-69"/>
     <use x="186.816406" xlink:href="#DejaVuSans-6e"/>
     <use x="250.195312" xlink:href="#DejaVuSans-73"/>
     <use x="302.294922" xlink:href="#DejaVuSans-74"/>
     <use x="341.503906" xlink:href="#DejaVuSans-61"/>
     <use x="402.783203" xlink:href="#DejaVuSans-6e"/>
     <use x="466.162109" xlink:href="#DejaVuSans-63"/>
     <use x="521.142578" xlink:href="#DejaVuSans-65"/>
     <use x="582.666016" xlink:href="#DejaVuSans-73"/>
    </g>
   </g>
   <g id="text_20">
    <!-- v2.2.1.10 -->
    <g style="fill:#808080;" transform="translate(204.779188 289.199965)scale(0.1 -0.1)">
     <use xlink:href="#DejaVuSans-76"/>
     <use x="59.179688" xlink:href="#DejaVuSans-32"/>
     <use x="122.802734" xlink:href="#DejaVuSans-2e"/>
     <use x="154.589844" xlink:href="#DejaVuSans-32"/>
     <use x="218.212891" xlink:href="#DejaVuSans-2e"/>
     <use x="250" xlink:href="#DejaVuSans-31"/>
     <use x="313.623047" xlink:href="#DejaVuSans-2e"/>
     <use x="345.410156" xlink:href="#DejaVuSans-31"/>
     <use x="409.033203" xlink:href="#DejaVuSans-30"/>
    </g>
   </g>
  </g>
 </g>
 <defs>
  <clipPath id="p94643f7c74">
   <rect height="288.034772" width="343.144" x="56.84" y="6.125228"/>
  </clipPath>
 </defs>
</svg>
