<?xml version="1.0" encoding="utf-8" standalone="no"?>
<!DOCTYPE svg PUBLIC "-//W3C//DTD SVG 1.1//EN"
  "http://www.w3.org/Graphics/SVG/1.1/DTD/svg11.dtd">
<!-- Created with matplotlib (http://matplotlib.org/) -->
<svg height="345.6pt" version="1.1" viewBox="0 0 460.8 345.6" width="460.8pt" xmlns="http://www.w3.org/2000/svg" xmlns:xlink="http://www.w3.org/1999/xlink">
 <defs>
  <style type="text/css">
*{stroke-linecap:butt;stroke-linejoin:round;}
  </style>
 </defs>
 <g id="figure_1">
  <g id="patch_1">
   <path d="M 0 345.6 
L 460.8 345.6 
L 460.8 0 
L 0 0 
z
" style="fill:#ffffff;"/>
  </g>
  <g id="axes_1">
   <g id="patch_2">
    <path d="M 56.84 294.16 
L 399.984 294.16 
L 399.984 6.125228 
L 56.84 6.125228 
z
" style="fill:#ffffff;"/>
   </g>
   <g id="matplotlib.axis_1">
    <g id="xtick_1">
     <g id="line2d_1">
      <path clip-path="url(#pbbdd595e4b)" d="M 56.84 294.16 
L 56.84 6.125228 
" style="fill:none;stroke:#b0b0b0;stroke-linecap:square;stroke-width:0.8;"/>
     </g>
     <g id="line2d_2">
      <defs>
       <path d="M 0 0 
L 0 3.5 
" id="md5cee9d66d" style="stroke:#000000;stroke-width:0.8;"/>
      </defs>
      <g>
       <use style="stroke:#000000;stroke-width:0.8;" x="56.84" xlink:href="#md5cee9d66d" y="294.16"/>
      </g>
     </g>
     <g id="text_1">
      <!-- 0 -->
      <defs>
       <path d="M 31.78125 66.40625 
Q 24.171875 66.40625 20.328125 58.90625 
Q 16.5 51.421875 16.5 36.375 
Q 16.5 21.390625 20.328125 13.890625 
Q 24.171875 6.390625 31.78125 6.390625 
Q 39.453125 6.390625 43.28125 13.890625 
Q 47.125 21.390625 47.125 36.375 
Q 47.125 51.421875 43.28125 58.90625 
Q 39.453125 66.40625 31.78125 66.40625 
z
M 31.78125 74.21875 
Q 44.046875 74.21875 50.515625 64.515625 
Q 56.984375 54.828125 56.984375 36.375 
Q 56.984375 17.96875 50.515625 8.265625 
Q 44.046875 -1.421875 31.78125 -1.421875 
Q 19.53125 -1.421875 13.0625 8.265625 
Q 6.59375 17.96875 6.59375 36.375 
Q 6.59375 54.828125 13.0625 64.515625 
Q 19.53125 74.21875 31.78125 74.21875 
z
" id="DejaVuSans-30"/>
      </defs>
      <g transform="translate(50.4775 316.356875)scale(0.2 -0.2)">
       <use xlink:href="#DejaVuSans-30"/>
      </g>
     </g>
    </g>
    <g id="xtick_2">
     <g id="line2d_3">
      <path clip-path="url(#pbbdd595e4b)" d="M 135.905438 294.16 
L 135.905438 6.125228 
" style="fill:none;stroke:#b0b0b0;stroke-linecap:square;stroke-width:0.8;"/>
     </g>
     <g id="line2d_4">
      <g>
       <use style="stroke:#000000;stroke-width:0.8;" x="135.905438" xlink:href="#md5cee9d66d" y="294.16"/>
      </g>
     </g>
     <g id="text_2">
      <!-- 2 -->
      <defs>
       <path d="M 19.1875 8.296875 
L 53.609375 8.296875 
L 53.609375 0 
L 7.328125 0 
L 7.328125 8.296875 
Q 12.9375 14.109375 22.625 23.890625 
Q 32.328125 33.6875 34.8125 36.53125 
Q 39.546875 41.84375 41.421875 45.53125 
Q 43.3125 49.21875 43.3125 52.78125 
Q 43.3125 58.59375 39.234375 62.25 
Q 35.15625 65.921875 28.609375 65.921875 
Q 23.96875 65.921875 18.8125 64.3125 
Q 13.671875 62.703125 7.8125 59.421875 
L 7.8125 69.390625 
Q 13.765625 71.78125 18.9375 73 
Q 24.125 74.21875 28.421875 74.21875 
Q 39.75 74.21875 46.484375 68.546875 
Q 53.21875 62.890625 53.21875 53.421875 
Q 53.21875 48.921875 51.53125 44.890625 
Q 49.859375 40.875 45.40625 35.40625 
Q 44.1875 33.984375 37.640625 27.21875 
Q 31.109375 20.453125 19.1875 8.296875 
z
" id="DejaVuSans-32"/>
      </defs>
      <g transform="translate(129.542938 316.356875)scale(0.2 -0.2)">
       <use xlink:href="#DejaVuSans-32"/>
      </g>
     </g>
    </g>
    <g id="xtick_3">
     <g id="line2d_5">
      <path clip-path="url(#pbbdd595e4b)" d="M 214.970876 294.16 
L 214.970876 6.125228 
" style="fill:none;stroke:#b0b0b0;stroke-linecap:square;stroke-width:0.8;"/>
     </g>
     <g id="line2d_6">
      <g>
       <use style="stroke:#000000;stroke-width:0.8;" x="214.970876" xlink:href="#md5cee9d66d" y="294.16"/>
      </g>
     </g>
     <g id="text_3">
      <!-- 4 -->
      <defs>
       <path d="M 37.796875 64.3125 
L 12.890625 25.390625 
L 37.796875 25.390625 
z
M 35.203125 72.90625 
L 47.609375 72.90625 
L 47.609375 25.390625 
L 58.015625 25.390625 
L 58.015625 17.1875 
L 47.609375 17.1875 
L 47.609375 0 
L 37.796875 0 
L 37.796875 17.1875 
L 4.890625 17.1875 
L 4.890625 26.703125 
z
" id="DejaVuSans-34"/>
      </defs>
      <g transform="translate(208.608376 316.356875)scale(0.2 -0.2)">
       <use xlink:href="#DejaVuSans-34"/>
      </g>
     </g>
    </g>
    <g id="xtick_4">
     <g id="line2d_7">
      <path clip-path="url(#pbbdd595e4b)" d="M 294.036313 294.16 
L 294.036313 6.125228 
" style="fill:none;stroke:#b0b0b0;stroke-linecap:square;stroke-width:0.8;"/>
     </g>
     <g id="line2d_8">
      <g>
       <use style="stroke:#000000;stroke-width:0.8;" x="294.036313" xlink:href="#md5cee9d66d" y="294.16"/>
      </g>
     </g>
     <g id="text_4">
      <!-- 6 -->
      <defs>
       <path d="M 33.015625 40.375 
Q 26.375 40.375 22.484375 35.828125 
Q 18.609375 31.296875 18.609375 23.390625 
Q 18.609375 15.53125 22.484375 10.953125 
Q 26.375 6.390625 33.015625 6.390625 
Q 39.65625 6.390625 43.53125 10.953125 
Q 47.40625 15.53125 47.40625 23.390625 
Q 47.40625 31.296875 43.53125 35.828125 
Q 39.65625 40.375 33.015625 40.375 
z
M 52.59375 71.296875 
L 52.59375 62.3125 
Q 48.875 64.0625 45.09375 64.984375 
Q 41.3125 65.921875 37.59375 65.921875 
Q 27.828125 65.921875 22.671875 59.328125 
Q 17.53125 52.734375 16.796875 39.40625 
Q 19.671875 43.65625 24.015625 45.921875 
Q 28.375 48.1875 33.59375 48.1875 
Q 44.578125 48.1875 50.953125 41.515625 
Q 57.328125 34.859375 57.328125 23.390625 
Q 57.328125 12.15625 50.6875 5.359375 
Q 44.046875 -1.421875 33.015625 -1.421875 
Q 20.359375 -1.421875 13.671875 8.265625 
Q 6.984375 17.96875 6.984375 36.375 
Q 6.984375 53.65625 15.1875 63.9375 
Q 23.390625 74.21875 37.203125 74.21875 
Q 40.921875 74.21875 44.703125 73.484375 
Q 48.484375 72.75 52.59375 71.296875 
z
" id="DejaVuSans-36"/>
      </defs>
      <g transform="translate(287.673813 316.356875)scale(0.2 -0.2)">
       <use xlink:href="#DejaVuSans-36"/>
      </g>
     </g>
    </g>
    <g id="xtick_5">
     <g id="line2d_9">
      <path clip-path="url(#pbbdd595e4b)" d="M 373.101751 294.16 
L 373.101751 6.125228 
" style="fill:none;stroke:#b0b0b0;stroke-linecap:square;stroke-width:0.8;"/>
     </g>
     <g id="line2d_10">
      <g>
       <use style="stroke:#000000;stroke-width:0.8;" x="373.101751" xlink:href="#md5cee9d66d" y="294.16"/>
      </g>
     </g>
     <g id="text_5">
      <!-- 8 -->
      <defs>
       <path d="M 31.78125 34.625 
Q 24.75 34.625 20.71875 30.859375 
Q 16.703125 27.09375 16.703125 20.515625 
Q 16.703125 13.921875 20.71875 10.15625 
Q 24.75 6.390625 31.78125 6.390625 
Q 38.8125 6.390625 42.859375 10.171875 
Q 46.921875 13.96875 46.921875 20.515625 
Q 46.921875 27.09375 42.890625 30.859375 
Q 38.875 34.625 31.78125 34.625 
z
M 21.921875 38.8125 
Q 15.578125 40.375 12.03125 44.71875 
Q 8.5 49.078125 8.5 55.328125 
Q 8.5 64.0625 14.71875 69.140625 
Q 20.953125 74.21875 31.78125 74.21875 
Q 42.671875 74.21875 48.875 69.140625 
Q 55.078125 64.0625 55.078125 55.328125 
Q 55.078125 49.078125 51.53125 44.71875 
Q 48 40.375 41.703125 38.8125 
Q 48.828125 37.15625 52.796875 32.3125 
Q 56.78125 27.484375 56.78125 20.515625 
Q 56.78125 9.90625 50.3125 4.234375 
Q 43.84375 -1.421875 31.78125 -1.421875 
Q 19.734375 -1.421875 13.25 4.234375 
Q 6.78125 9.90625 6.78125 20.515625 
Q 6.78125 27.484375 10.78125 32.3125 
Q 14.796875 37.15625 21.921875 38.8125 
z
M 18.3125 54.390625 
Q 18.3125 48.734375 21.84375 45.5625 
Q 25.390625 42.390625 31.78125 42.390625 
Q 38.140625 42.390625 41.71875 45.5625 
Q 45.3125 48.734375 45.3125 54.390625 
Q 45.3125 60.0625 41.71875 63.234375 
Q 38.140625 66.40625 31.78125 66.40625 
Q 25.390625 66.40625 21.84375 63.234375 
Q 18.3125 60.0625 18.3125 54.390625 
z
" id="DejaVuSans-38"/>
      </defs>
      <g transform="translate(366.739251 316.356875)scale(0.2 -0.2)">
       <use xlink:href="#DejaVuSans-38"/>
      </g>
     </g>
    </g>
    <g id="text_6">
     <!-- log10(# f-evals / dimension) -->
     <defs>
      <path d="M 9.421875 75.984375 
L 18.40625 75.984375 
L 18.40625 0 
L 9.421875 0 
z
" id="DejaVuSans-6c"/>
      <path d="M 30.609375 48.390625 
Q 23.390625 48.390625 19.1875 42.75 
Q 14.984375 37.109375 14.984375 27.296875 
Q 14.984375 17.484375 19.15625 11.84375 
Q 23.34375 6.203125 30.609375 6.203125 
Q 37.796875 6.203125 41.984375 11.859375 
Q 46.1875 17.53125 46.1875 27.296875 
Q 46.1875 37.015625 41.984375 42.703125 
Q 37.796875 48.390625 30.609375 48.390625 
z
M 30.609375 56 
Q 42.328125 56 49.015625 48.375 
Q 55.71875 40.765625 55.71875 27.296875 
Q 55.71875 13.875 49.015625 6.21875 
Q 42.328125 -1.421875 30.609375 -1.421875 
Q 18.84375 -1.421875 12.171875 6.21875 
Q 5.515625 13.875 5.515625 27.296875 
Q 5.515625 40.765625 12.171875 48.375 
Q 18.84375 56 30.609375 56 
z
" id="DejaVuSans-6f"/>
      <path d="M 45.40625 27.984375 
Q 45.40625 37.75 41.375 43.109375 
Q 37.359375 48.484375 30.078125 48.484375 
Q 22.859375 48.484375 18.828125 43.109375 
Q 14.796875 37.75 14.796875 27.984375 
Q 14.796875 18.265625 18.828125 12.890625 
Q 22.859375 7.515625 30.078125 7.515625 
Q 37.359375 7.515625 41.375 12.890625 
Q 45.40625 18.265625 45.40625 27.984375 
z
M 54.390625 6.78125 
Q 54.390625 -7.171875 48.1875 -13.984375 
Q 42 -20.796875 29.203125 -20.796875 
Q 24.46875 -20.796875 20.265625 -20.09375 
Q 16.0625 -19.390625 12.109375 -17.921875 
L 12.109375 -9.1875 
Q 16.0625 -11.328125 19.921875 -12.34375 
Q 23.78125 -13.375 27.78125 -13.375 
Q 36.625 -13.375 41.015625 -8.765625 
Q 45.40625 -4.15625 45.40625 5.171875 
L 45.40625 9.625 
Q 42.625 4.78125 38.28125 2.390625 
Q 33.9375 0 27.875 0 
Q 17.828125 0 11.671875 7.65625 
Q 5.515625 15.328125 5.515625 27.984375 
Q 5.515625 40.671875 11.671875 48.328125 
Q 17.828125 56 27.875 56 
Q 33.9375 56 38.28125 53.609375 
Q 42.625 51.21875 45.40625 46.390625 
L 45.40625 54.6875 
L 54.390625 54.6875 
z
" id="DejaVuSans-67"/>
      <path d="M 12.40625 8.296875 
L 28.515625 8.296875 
L 28.515625 63.921875 
L 10.984375 60.40625 
L 10.984375 69.390625 
L 28.421875 72.90625 
L 38.28125 72.90625 
L 38.28125 8.296875 
L 54.390625 8.296875 
L 54.390625 0 
L 12.40625 0 
z
" id="DejaVuSans-31"/>
      <path d="M 31 75.875 
Q 24.46875 64.65625 21.28125 53.65625 
Q 18.109375 42.671875 18.109375 31.390625 
Q 18.109375 20.125 21.3125 9.0625 
Q 24.515625 -2 31 -13.1875 
L 23.1875 -13.1875 
Q 15.875 -1.703125 12.234375 9.375 
Q 8.59375 20.453125 8.59375 31.390625 
Q 8.59375 42.28125 12.203125 53.3125 
Q 15.828125 64.359375 23.1875 75.875 
z
" id="DejaVuSans-28"/>
      <path d="M 51.125 44 
L 36.921875 44 
L 32.8125 27.6875 
L 47.125 27.6875 
z
M 43.796875 71.78125 
L 38.71875 51.515625 
L 52.984375 51.515625 
L 58.109375 71.78125 
L 65.921875 71.78125 
L 60.890625 51.515625 
L 76.125 51.515625 
L 76.125 44 
L 58.984375 44 
L 54.984375 27.6875 
L 70.515625 27.6875 
L 70.515625 20.21875 
L 53.078125 20.21875 
L 48 0 
L 40.1875 0 
L 45.21875 20.21875 
L 30.90625 20.21875 
L 25.875 0 
L 18.015625 0 
L 23.09375 20.21875 
L 7.71875 20.21875 
L 7.71875 27.6875 
L 24.90625 27.6875 
L 29 44 
L 13.28125 44 
L 13.28125 51.515625 
L 30.90625 51.515625 
L 35.890625 71.78125 
z
" id="DejaVuSans-23"/>
      <path id="DejaVuSans-20"/>
      <path d="M 37.109375 75.984375 
L 37.109375 68.5 
L 28.515625 68.5 
Q 23.6875 68.5 21.796875 66.546875 
Q 19.921875 64.59375 19.921875 59.515625 
L 19.921875 54.6875 
L 34.71875 54.6875 
L 34.71875 47.703125 
L 19.921875 47.703125 
L 19.921875 0 
L 10.890625 0 
L 10.890625 47.703125 
L 2.296875 47.703125 
L 2.296875 54.6875 
L 10.890625 54.6875 
L 10.890625 58.5 
Q 10.890625 67.625 15.140625 71.796875 
Q 19.390625 75.984375 28.609375 75.984375 
z
" id="DejaVuSans-66"/>
      <path d="M 4.890625 31.390625 
L 31.203125 31.390625 
L 31.203125 23.390625 
L 4.890625 23.390625 
z
" id="DejaVuSans-2d"/>
      <path d="M 56.203125 29.59375 
L 56.203125 25.203125 
L 14.890625 25.203125 
Q 15.484375 15.921875 20.484375 11.0625 
Q 25.484375 6.203125 34.421875 6.203125 
Q 39.59375 6.203125 44.453125 7.46875 
Q 49.3125 8.734375 54.109375 11.28125 
L 54.109375 2.78125 
Q 49.265625 0.734375 44.1875 -0.34375 
Q 39.109375 -1.421875 33.890625 -1.421875 
Q 20.796875 -1.421875 13.15625 6.1875 
Q 5.515625 13.8125 5.515625 26.8125 
Q 5.515625 40.234375 12.765625 48.109375 
Q 20.015625 56 32.328125 56 
Q 43.359375 56 49.78125 48.890625 
Q 56.203125 41.796875 56.203125 29.59375 
z
M 47.21875 32.234375 
Q 47.125 39.59375 43.09375 43.984375 
Q 39.0625 48.390625 32.421875 48.390625 
Q 24.90625 48.390625 20.390625 44.140625 
Q 15.875 39.890625 15.1875 32.171875 
z
" id="DejaVuSans-65"/>
      <path d="M 2.984375 54.6875 
L 12.5 54.6875 
L 29.59375 8.796875 
L 46.6875 54.6875 
L 56.203125 54.6875 
L 35.6875 0 
L 23.484375 0 
z
" id="DejaVuSans-76"/>
      <path d="M 34.28125 27.484375 
Q 23.390625 27.484375 19.1875 25 
Q 14.984375 22.515625 14.984375 16.5 
Q 14.984375 11.71875 18.140625 8.90625 
Q 21.296875 6.109375 26.703125 6.109375 
Q 34.1875 6.109375 38.703125 11.40625 
Q 43.21875 16.703125 43.21875 25.484375 
L 43.21875 27.484375 
z
M 52.203125 31.203125 
L 52.203125 0 
L 43.21875 0 
L 43.21875 8.296875 
Q 40.140625 3.328125 35.546875 0.953125 
Q 30.953125 -1.421875 24.3125 -1.421875 
Q 15.921875 -1.421875 10.953125 3.296875 
Q 6 8.015625 6 15.921875 
Q 6 25.140625 12.171875 29.828125 
Q 18.359375 34.515625 30.609375 34.515625 
L 43.21875 34.515625 
L 43.21875 35.40625 
Q 43.21875 41.609375 39.140625 45 
Q 35.0625 48.390625 27.6875 48.390625 
Q 23 48.390625 18.546875 47.265625 
Q 14.109375 46.140625 10.015625 43.890625 
L 10.015625 52.203125 
Q 14.9375 54.109375 19.578125 55.046875 
Q 24.21875 56 28.609375 56 
Q 40.484375 56 46.34375 49.84375 
Q 52.203125 43.703125 52.203125 31.203125 
z
" id="DejaVuSans-61"/>
      <path d="M 44.28125 53.078125 
L 44.28125 44.578125 
Q 40.484375 46.53125 36.375 47.5 
Q 32.28125 48.484375 27.875 48.484375 
Q 21.1875 48.484375 17.84375 46.4375 
Q 14.5 44.390625 14.5 40.28125 
Q 14.5 37.15625 16.890625 35.375 
Q 19.28125 33.59375 26.515625 31.984375 
L 29.59375 31.296875 
Q 39.15625 29.25 43.1875 25.515625 
Q 47.21875 21.78125 47.21875 15.09375 
Q 47.21875 7.46875 41.1875 3.015625 
Q 35.15625 -1.421875 24.609375 -1.421875 
Q 20.21875 -1.421875 15.453125 -0.5625 
Q 10.6875 0.296875 5.421875 2 
L 5.421875 11.28125 
Q 10.40625 8.6875 15.234375 7.390625 
Q 20.0625 6.109375 24.8125 6.109375 
Q 31.15625 6.109375 34.5625 8.28125 
Q 37.984375 10.453125 37.984375 14.40625 
Q 37.984375 18.0625 35.515625 20.015625 
Q 33.0625 21.96875 24.703125 23.78125 
L 21.578125 24.515625 
Q 13.234375 26.265625 9.515625 29.90625 
Q 5.8125 33.546875 5.8125 39.890625 
Q 5.8125 47.609375 11.28125 51.796875 
Q 16.75 56 26.8125 56 
Q 31.78125 56 36.171875 55.265625 
Q 40.578125 54.546875 44.28125 53.078125 
z
" id="DejaVuSans-73"/>
      <path d="M 25.390625 72.90625 
L 33.6875 72.90625 
L 8.296875 -9.28125 
L 0 -9.28125 
z
" id="DejaVuSans-2f"/>
      <path d="M 45.40625 46.390625 
L 45.40625 75.984375 
L 54.390625 75.984375 
L 54.390625 0 
L 45.40625 0 
L 45.40625 8.203125 
Q 42.578125 3.328125 38.25 0.953125 
Q 33.9375 -1.421875 27.875 -1.421875 
Q 17.96875 -1.421875 11.734375 6.484375 
Q 5.515625 14.40625 5.515625 27.296875 
Q 5.515625 40.1875 11.734375 48.09375 
Q 17.96875 56 27.875 56 
Q 33.9375 56 38.25 53.625 
Q 42.578125 51.265625 45.40625 46.390625 
z
M 14.796875 27.296875 
Q 14.796875 17.390625 18.875 11.75 
Q 22.953125 6.109375 30.078125 6.109375 
Q 37.203125 6.109375 41.296875 11.75 
Q 45.40625 17.390625 45.40625 27.296875 
Q 45.40625 37.203125 41.296875 42.84375 
Q 37.203125 48.484375 30.078125 48.484375 
Q 22.953125 48.484375 18.875 42.84375 
Q 14.796875 37.203125 14.796875 27.296875 
z
" id="DejaVuSans-64"/>
      <path d="M 9.421875 54.6875 
L 18.40625 54.6875 
L 18.40625 0 
L 9.421875 0 
z
M 9.421875 75.984375 
L 18.40625 75.984375 
L 18.40625 64.59375 
L 9.421875 64.59375 
z
" id="DejaVuSans-69"/>
      <path d="M 52 44.1875 
Q 55.375 50.25 60.0625 53.125 
Q 64.75 56 71.09375 56 
Q 79.640625 56 84.28125 50.015625 
Q 88.921875 44.046875 88.921875 33.015625 
L 88.921875 0 
L 79.890625 0 
L 79.890625 32.71875 
Q 79.890625 40.578125 77.09375 44.375 
Q 74.3125 48.1875 68.609375 48.1875 
Q 61.625 48.1875 57.5625 43.546875 
Q 53.515625 38.921875 53.515625 30.90625 
L 53.515625 0 
L 44.484375 0 
L 44.484375 32.71875 
Q 44.484375 40.625 41.703125 44.40625 
Q 38.921875 48.1875 33.109375 48.1875 
Q 26.21875 48.1875 22.15625 43.53125 
Q 18.109375 38.875 18.109375 30.90625 
L 18.109375 0 
L 9.078125 0 
L 9.078125 54.6875 
L 18.109375 54.6875 
L 18.109375 46.1875 
Q 21.1875 51.21875 25.484375 53.609375 
Q 29.78125 56 35.6875 56 
Q 41.65625 56 45.828125 52.96875 
Q 50 49.953125 52 44.1875 
z
" id="DejaVuSans-6d"/>
      <path d="M 54.890625 33.015625 
L 54.890625 0 
L 45.90625 0 
L 45.90625 32.71875 
Q 45.90625 40.484375 42.875 44.328125 
Q 39.84375 48.1875 33.796875 48.1875 
Q 26.515625 48.1875 22.3125 43.546875 
Q 18.109375 38.921875 18.109375 30.90625 
L 18.109375 0 
L 9.078125 0 
L 9.078125 54.6875 
L 18.109375 54.6875 
L 18.109375 46.1875 
Q 21.34375 51.125 25.703125 53.5625 
Q 30.078125 56 35.796875 56 
Q 45.21875 56 50.046875 50.171875 
Q 54.890625 44.34375 54.890625 33.015625 
z
" id="DejaVuSans-6e"/>
      <path d="M 8.015625 75.875 
L 15.828125 75.875 
Q 23.140625 64.359375 26.78125 53.3125 
Q 30.421875 42.28125 30.421875 31.390625 
Q 30.421875 20.453125 26.78125 9.375 
Q 23.140625 -1.703125 15.828125 -13.1875 
L 8.015625 -13.1875 
Q 14.5 -2 17.703125 9.0625 
Q 20.90625 20.125 20.90625 31.390625 
Q 20.90625 42.671875 17.703125 53.65625 
Q 14.5 64.65625 8.015625 75.875 
z
" id="DejaVuSans-29"/>
     </defs>
     <g transform="translate(107.571219 337.433594)scale(0.17 -0.17)">
      <use xlink:href="#DejaVuSans-6c"/>
      <use x="27.783203" xlink:href="#DejaVuSans-6f"/>
      <use x="88.964844" xlink:href="#DejaVuSans-67"/>
      <use x="152.441406" xlink:href="#DejaVuSans-31"/>
      <use x="216.064453" xlink:href="#DejaVuSans-30"/>
      <use x="279.6875" xlink:href="#DejaVuSans-28"/>
      <use x="318.701172" xlink:href="#DejaVuSans-23"/>
      <use x="402.490234" xlink:href="#DejaVuSans-20"/>
      <use x="434.277344" xlink:href="#DejaVuSans-66"/>
      <use x="469.404297" xlink:href="#DejaVuSans-2d"/>
      <use x="505.488281" xlink:href="#DejaVuSans-65"/>
      <use x="567.011719" xlink:href="#DejaVuSans-76"/>
      <use x="626.191406" xlink:href="#DejaVuSans-61"/>
      <use x="687.470703" xlink:href="#DejaVuSans-6c"/>
      <use x="715.253906" xlink:href="#DejaVuSans-73"/>
      <use x="767.353516" xlink:href="#DejaVuSans-20"/>
      <use x="799.140625" xlink:href="#DejaVuSans-2f"/>
      <use x="832.832031" xlink:href="#DejaVuSans-20"/>
      <use x="864.619141" xlink:href="#DejaVuSans-64"/>
      <use x="928.095703" xlink:href="#DejaVuSans-69"/>
      <use x="955.878906" xlink:href="#DejaVuSans-6d"/>
      <use x="1053.291016" xlink:href="#DejaVuSans-65"/>
      <use x="1114.814453" xlink:href="#DejaVuSans-6e"/>
      <use x="1178.193359" xlink:href="#DejaVuSans-73"/>
      <use x="1230.292969" xlink:href="#DejaVuSans-69"/>
      <use x="1258.076172" xlink:href="#DejaVuSans-6f"/>
      <use x="1319.257812" xlink:href="#DejaVuSans-6e"/>
      <use x="1382.636719" xlink:href="#DejaVuSans-29"/>
     </g>
    </g>
   </g>
   <g id="matplotlib.axis_2">
    <g id="ytick_1">
     <g id="line2d_11">
      <path clip-path="url(#pbbdd595e4b)" d="M 56.84 294.16 
L 399.984 294.16 
" style="fill:none;stroke:#b0b0b0;stroke-linecap:square;stroke-width:0.8;"/>
     </g>
     <g id="line2d_12">
      <defs>
       <path d="M 0 0 
L -3.5 0 
" id="m9d55ededb2" style="stroke:#000000;stroke-width:0.8;"/>
      </defs>
      <g>
       <use style="stroke:#000000;stroke-width:0.8;" x="56.84" xlink:href="#m9d55ededb2" y="294.16"/>
      </g>
     </g>
     <g id="text_7">
      <!-- 0.0 -->
      <defs>
       <path d="M 10.6875 12.40625 
L 21 12.40625 
L 21 0 
L 10.6875 0 
z
" id="DejaVuSans-2e"/>
      </defs>
      <g transform="translate(24.395 300.23875)scale(0.16 -0.16)">
       <use xlink:href="#DejaVuSans-30"/>
       <use x="63.623047" xlink:href="#DejaVuSans-2e"/>
       <use x="95.410156" xlink:href="#DejaVuSans-30"/>
      </g>
     </g>
    </g>
    <g id="ytick_2">
     <g id="line2d_13">
      <path clip-path="url(#pbbdd595e4b)" d="M 56.84 237.123411 
L 399.984 237.123411 
" style="fill:none;stroke:#b0b0b0;stroke-linecap:square;stroke-width:0.8;"/>
     </g>
     <g id="line2d_14">
      <g>
       <use style="stroke:#000000;stroke-width:0.8;" x="56.84" xlink:href="#m9d55ededb2" y="237.123411"/>
      </g>
     </g>
     <g id="text_8">
      <!-- 0.2 -->
      <g transform="translate(24.395 243.202161)scale(0.16 -0.16)">
       <use xlink:href="#DejaVuSans-30"/>
       <use x="63.623047" xlink:href="#DejaVuSans-2e"/>
       <use x="95.410156" xlink:href="#DejaVuSans-32"/>
      </g>
     </g>
    </g>
    <g id="ytick_3">
     <g id="line2d_15">
      <path clip-path="url(#pbbdd595e4b)" d="M 56.84 180.086823 
L 399.984 180.086823 
" style="fill:none;stroke:#b0b0b0;stroke-linecap:square;stroke-width:0.8;"/>
     </g>
     <g id="line2d_16">
      <g>
       <use style="stroke:#000000;stroke-width:0.8;" x="56.84" xlink:href="#m9d55ededb2" y="180.086823"/>
      </g>
     </g>
     <g id="text_9">
      <!-- 0.4 -->
      <g transform="translate(24.395 186.165573)scale(0.16 -0.16)">
       <use xlink:href="#DejaVuSans-30"/>
       <use x="63.623047" xlink:href="#DejaVuSans-2e"/>
       <use x="95.410156" xlink:href="#DejaVuSans-34"/>
      </g>
     </g>
    </g>
    <g id="ytick_4">
     <g id="line2d_17">
      <path clip-path="url(#pbbdd595e4b)" d="M 56.84 123.050234 
L 399.984 123.050234 
" style="fill:none;stroke:#b0b0b0;stroke-linecap:square;stroke-width:0.8;"/>
     </g>
     <g id="line2d_18">
      <g>
       <use style="stroke:#000000;stroke-width:0.8;" x="56.84" xlink:href="#m9d55ededb2" y="123.050234"/>
      </g>
     </g>
     <g id="text_10">
      <!-- 0.6 -->
      <g transform="translate(24.395 129.128984)scale(0.16 -0.16)">
       <use xlink:href="#DejaVuSans-30"/>
       <use x="63.623047" xlink:href="#DejaVuSans-2e"/>
       <use x="95.410156" xlink:href="#DejaVuSans-36"/>
      </g>
     </g>
    </g>
    <g id="ytick_5">
     <g id="line2d_19">
      <path clip-path="url(#pbbdd595e4b)" d="M 56.84 66.013646 
L 399.984 66.013646 
" style="fill:none;stroke:#b0b0b0;stroke-linecap:square;stroke-width:0.8;"/>
     </g>
     <g id="line2d_20">
      <g>
       <use style="stroke:#000000;stroke-width:0.8;" x="56.84" xlink:href="#m9d55ededb2" y="66.013646"/>
      </g>
     </g>
     <g id="text_11">
      <!-- 0.8 -->
      <g transform="translate(24.395 72.092396)scale(0.16 -0.16)">
       <use xlink:href="#DejaVuSans-30"/>
       <use x="63.623047" xlink:href="#DejaVuSans-2e"/>
       <use x="95.410156" xlink:href="#DejaVuSans-38"/>
      </g>
     </g>
    </g>
    <g id="ytick_6">
     <g id="line2d_21">
      <path clip-path="url(#pbbdd595e4b)" d="M 56.84 8.977057 
L 399.984 8.977057 
" style="fill:none;stroke:#b0b0b0;stroke-linecap:square;stroke-width:0.8;"/>
     </g>
     <g id="line2d_22">
      <g>
       <use style="stroke:#000000;stroke-width:0.8;" x="56.84" xlink:href="#m9d55ededb2" y="8.977057"/>
      </g>
     </g>
     <g id="text_12">
      <!-- 1.0 -->
      <g transform="translate(24.395 15.055807)scale(0.16 -0.16)">
       <use xlink:href="#DejaVuSans-31"/>
       <use x="63.623047" xlink:href="#DejaVuSans-2e"/>
       <use x="95.410156" xlink:href="#DejaVuSans-30"/>
      </g>
     </g>
    </g>
    <g id="text_13">
     <!-- Fraction of function,target pairs -->
     <defs>
      <path d="M 9.8125 72.90625 
L 51.703125 72.90625 
L 51.703125 64.59375 
L 19.671875 64.59375 
L 19.671875 43.109375 
L 48.578125 43.109375 
L 48.578125 34.8125 
L 19.671875 34.8125 
L 19.671875 0 
L 9.8125 0 
z
" id="DejaVuSans-46"/>
      <path d="M 41.109375 46.296875 
Q 39.59375 47.171875 37.8125 47.578125 
Q 36.03125 48 33.890625 48 
Q 26.265625 48 22.1875 43.046875 
Q 18.109375 38.09375 18.109375 28.8125 
L 18.109375 0 
L 9.078125 0 
L 9.078125 54.6875 
L 18.109375 54.6875 
L 18.109375 46.1875 
Q 20.953125 51.171875 25.484375 53.578125 
Q 30.03125 56 36.53125 56 
Q 37.453125 56 38.578125 55.875 
Q 39.703125 55.765625 41.0625 55.515625 
z
" id="DejaVuSans-72"/>
      <path d="M 48.78125 52.59375 
L 48.78125 44.1875 
Q 44.96875 46.296875 41.140625 47.34375 
Q 37.3125 48.390625 33.40625 48.390625 
Q 24.65625 48.390625 19.8125 42.84375 
Q 14.984375 37.3125 14.984375 27.296875 
Q 14.984375 17.28125 19.8125 11.734375 
Q 24.65625 6.203125 33.40625 6.203125 
Q 37.3125 6.203125 41.140625 7.25 
Q 44.96875 8.296875 48.78125 10.40625 
L 48.78125 2.09375 
Q 45.015625 0.34375 40.984375 -0.53125 
Q 36.96875 -1.421875 32.421875 -1.421875 
Q 20.0625 -1.421875 12.78125 6.34375 
Q 5.515625 14.109375 5.515625 27.296875 
Q 5.515625 40.671875 12.859375 48.328125 
Q 20.21875 56 33.015625 56 
Q 37.15625 56 41.109375 55.140625 
Q 45.0625 54.296875 48.78125 52.59375 
z
" id="DejaVuSans-63"/>
      <path d="M 18.3125 70.21875 
L 18.3125 54.6875 
L 36.8125 54.6875 
L 36.8125 47.703125 
L 18.3125 47.703125 
L 18.3125 18.015625 
Q 18.3125 11.328125 20.140625 9.421875 
Q 21.96875 7.515625 27.59375 7.515625 
L 36.8125 7.515625 
L 36.8125 0 
L 27.59375 0 
Q 17.1875 0 13.234375 3.875 
Q 9.28125 7.765625 9.28125 18.015625 
L 9.28125 47.703125 
L 2.6875 47.703125 
L 2.6875 54.6875 
L 9.28125 54.6875 
L 9.28125 70.21875 
z
" id="DejaVuSans-74"/>
      <path d="M 8.5 21.578125 
L 8.5 54.6875 
L 17.484375 54.6875 
L 17.484375 21.921875 
Q 17.484375 14.15625 20.5 10.265625 
Q 23.53125 6.390625 29.59375 6.390625 
Q 36.859375 6.390625 41.078125 11.03125 
Q 45.3125 15.671875 45.3125 23.6875 
L 45.3125 54.6875 
L 54.296875 54.6875 
L 54.296875 0 
L 45.3125 0 
L 45.3125 8.40625 
Q 42.046875 3.421875 37.71875 1 
Q 33.40625 -1.421875 27.6875 -1.421875 
Q 18.265625 -1.421875 13.375 4.4375 
Q 8.5 10.296875 8.5 21.578125 
z
M 31.109375 56 
z
" id="DejaVuSans-75"/>
      <path d="M 11.71875 12.40625 
L 22.015625 12.40625 
L 22.015625 4 
L 14.015625 -11.625 
L 7.71875 -11.625 
L 11.71875 4 
z
" id="DejaVuSans-2c"/>
      <path d="M 18.109375 8.203125 
L 18.109375 -20.796875 
L 9.078125 -20.796875 
L 9.078125 54.6875 
L 18.109375 54.6875 
L 18.109375 46.390625 
Q 20.953125 51.265625 25.265625 53.625 
Q 29.59375 56 35.59375 56 
Q 45.5625 56 51.78125 48.09375 
Q 58.015625 40.1875 58.015625 27.296875 
Q 58.015625 14.40625 51.78125 6.484375 
Q 45.5625 -1.421875 35.59375 -1.421875 
Q 29.59375 -1.421875 25.265625 0.953125 
Q 20.953125 3.328125 18.109375 8.203125 
z
M 48.6875 27.296875 
Q 48.6875 37.203125 44.609375 42.84375 
Q 40.53125 48.484375 33.40625 48.484375 
Q 26.265625 48.484375 22.1875 42.84375 
Q 18.109375 37.203125 18.109375 27.296875 
Q 18.109375 17.390625 22.1875 11.75 
Q 26.265625 6.109375 33.40625 6.109375 
Q 40.53125 6.109375 44.609375 11.75 
Q 48.6875 17.390625 48.6875 27.296875 
z
" id="DejaVuSans-70"/>
     </defs>
     <g transform="translate(16.859531 285.281989)rotate(-90)scale(0.17 -0.17)">
      <use xlink:href="#DejaVuSans-46"/>
      <use x="57.410156" xlink:href="#DejaVuSans-72"/>
      <use x="98.523438" xlink:href="#DejaVuSans-61"/>
      <use x="159.802734" xlink:href="#DejaVuSans-63"/>
      <use x="214.783203" xlink:href="#DejaVuSans-74"/>
      <use x="253.992188" xlink:href="#DejaVuSans-69"/>
      <use x="281.775391" xlink:href="#DejaVuSans-6f"/>
      <use x="342.957031" xlink:href="#DejaVuSans-6e"/>
      <use x="406.335938" xlink:href="#DejaVuSans-20"/>
      <use x="438.123047" xlink:href="#DejaVuSans-6f"/>
      <use x="499.304688" xlink:href="#DejaVuSans-66"/>
      <use x="534.509766" xlink:href="#DejaVuSans-20"/>
      <use x="566.296875" xlink:href="#DejaVuSans-66"/>
      <use x="601.501953" xlink:href="#DejaVuSans-75"/>
      <use x="664.880859" xlink:href="#DejaVuSans-6e"/>
      <use x="728.259766" xlink:href="#DejaVuSans-63"/>
      <use x="783.240234" xlink:href="#DejaVuSans-74"/>
      <use x="822.449219" xlink:href="#DejaVuSans-69"/>
      <use x="850.232422" xlink:href="#DejaVuSans-6f"/>
      <use x="911.414062" xlink:href="#DejaVuSans-6e"/>
      <use x="974.792969" xlink:href="#DejaVuSans-2c"/>
      <use x="1006.580078" xlink:href="#DejaVuSans-74"/>
      <use x="1045.789062" xlink:href="#DejaVuSans-61"/>
      <use x="1107.068359" xlink:href="#DejaVuSans-72"/>
      <use x="1148.166016" xlink:href="#DejaVuSans-67"/>
      <use x="1211.642578" xlink:href="#DejaVuSans-65"/>
      <use x="1273.166016" xlink:href="#DejaVuSans-74"/>
      <use x="1312.375" xlink:href="#DejaVuSans-20"/>
      <use x="1344.162109" xlink:href="#DejaVuSans-70"/>
      <use x="1407.638672" xlink:href="#DejaVuSans-61"/>
      <use x="1468.917969" xlink:href="#DejaVuSans-69"/>
      <use x="1496.701172" xlink:href="#DejaVuSans-72"/>
      <use x="1537.814453" xlink:href="#DejaVuSans-73"/>
     </g>
    </g>
   </g>
   <g id="line2d_23">
    <defs>
     <path d="M 0 1.5 
C 0.397805 1.5 0.77937 1.341951 1.06066 1.06066 
C 1.341951 0.77937 1.5 0.397805 1.5 0 
C 1.5 -0.397805 1.341951 -0.77937 1.06066 -1.06066 
C 0.77937 -1.341951 0.397805 -1.5 0 -1.5 
C -0.397805 -1.5 -0.77937 -1.341951 -1.06066 -1.06066 
C -1.341951 -0.77937 -1.5 -0.397805 -1.5 0 
C -1.5 0.397805 -1.341951 0.77937 -1.06066 1.06066 
C -0.77937 1.341951 -0.397805 1.5 0 1.5 
z
" id="m586069e47e" style="stroke:#000080;"/>
    </defs>
    <g>
     <use style="fill:#000080;stroke:#000080;" x="257.95086" xlink:href="#m586069e47e" y="126.405328"/>
     <use style="fill:#000080;stroke:#000080;" x="257.95086" xlink:href="#m586069e47e" y="126.405328"/>
    </g>
   </g>
   <g id="line2d_24">
    <path d="M 49.878634 294.16 
L 49.878634 293.600818 
L 56.84 293.600818 
L 56.84 293.041636 
L 61.779168 293.041636 
L 61.779168 291.923271 
L 68.740534 291.923271 
L 68.740534 291.364089 
L 80.641068 291.364089 
L 80.641068 290.245724 
L 92.541603 290.245724 
L 92.541603 289.686542 
L 94.563801 289.686542 
L 94.563801 289.12736 
L 96.372719 289.12736 
L 96.372719 288.568178 
L 97.480771 288.568178 
L 97.480771 288.008995 
L 98.009084 288.008995 
L 98.009084 287.449813 
L 99.502969 287.449813 
L 99.502969 286.331449 
L 100.877209 286.331449 
L 100.877209 285.772266 
L 102.149557 285.772266 
L 102.149557 285.213084 
L 106.779369 285.213084 
L 106.779369 284.09472 
L 107.691203 284.09472 
L 107.691203 282.976355 
L 110.167801 282.976355 
L 110.167801 282.417173 
L 110.672804 282.417173 
L 110.672804 281.298808 
L 111.640318 281.298808 
L 111.640318 280.739626 
L 114.050092 280.739626 
L 114.050092 279.062079 
L 116.870985 279.062079 
L 116.870985 278.502897 
L 117.716912 278.502897 
L 117.716912 277.943715 
L 119.141873 277.943715 
L 119.141873 277.384533 
L 119.293141 277.384533 
L 119.293141 276.266168 
L 119.443088 276.266168 
L 119.443088 275.706986 
L 119.73911 275.706986 
L 119.73911 274.029439 
L 119.885229 274.029439 
L 119.885229 273.470257 
L 120.173787 273.470257 
L 120.173787 272.911075 
L 121.679591 272.911075 
L 121.679591 272.351893 
L 123.184393 272.351893 
L 123.184393 271.79271 
L 123.422853 271.79271 
L 123.422853 271.233528 
L 123.540853 271.233528 
L 123.540853 270.674346 
L 124.567867 270.674346 
L 124.567867 270.115164 
L 125.536899 270.115164 
L 125.536899 269.555981 
L 126.651492 269.555981 
L 126.651492 268.437617 
L 128.063425 268.437617 
L 128.063425 267.878435 
L 129.114907 267.878435 
L 129.114907 267.319252 
L 129.451562 267.319252 
L 129.534704 266.200888 
L 130.96627 266.200888 
L 130.96627 265.641706 
L 131.118207 265.641706 
L 131.118207 265.082523 
L 131.785763 265.082523 
L 131.858358 263.964159 
L 132.911992 263.964159 
L 132.911992 263.404977 
L 133.249308 263.404977 
L 133.249308 262.845795 
L 133.448562 262.845795 
L 133.448562 262.286612 
L 133.840264 262.286612 
L 133.904687 261.168248 
L 134.473872 261.168248 
L 134.473872 260.609066 
L 135.962572 260.609066 
L 135.962572 258.931519 
L 136.412928 258.931519 
L 136.412928 258.372337 
L 136.959753 258.372337 
L 136.959753 257.813154 
L 137.593751 257.813154 
L 137.593751 256.69479 
L 137.748659 256.69479 
L 137.748659 256.135608 
L 138.104766 256.135608 
L 138.104766 255.576425 
L 138.404231 255.576425 
L 138.404231 255.017243 
L 138.60101 255.017243 
L 138.60101 253.898879 
L 138.843855 253.898879 
L 138.843855 253.339696 
L 139.083313 253.339696 
L 139.083313 252.780514 
L 140.098971 252.780514 
L 140.143739 251.66215 
L 140.628643 251.66215 
L 140.628643 251.102967 
L 141.310374 251.102967 
L 141.310374 250.543785 
L 142.006226 250.543785 
L 142.006226 249.425421 
L 142.165938 249.425421 
L 142.165938 248.866238 
L 144.363868 248.866238 
L 144.363868 248.307056 
L 145.116408 248.307056 
L 145.116408 247.747874 
L 146.374406 247.747874 
L 146.374406 247.188692 
L 146.743643 247.188692 
L 146.743643 246.62951 
L 147.976808 246.62951 
L 148.061592 245.511145 
L 148.424229 245.511145 
L 148.45181 244.392781 
L 148.914024 244.392781 
L 148.914024 243.833598 
L 149.442337 243.833598 
L 149.520201 242.715234 
L 151.078703 242.715234 
L 151.149502 241.596869 
L 151.659965 241.596869 
L 151.659965 241.037687 
L 154.517535 241.037687 
L 154.517535 240.478505 
L 155.200585 240.478505 
L 155.200585 239.919323 
L 155.713673 239.919323 
L 155.713673 239.36014 
L 157.625188 239.36014 
L 157.625188 238.800958 
L 158.99073 238.800958 
L 158.99073 238.241776 
L 162.118494 238.241776 
L 162.118494 237.682594 
L 162.943727 237.682594 
L 162.943727 237.123411 
L 163.29556 237.123411 
L 163.29556 236.564229 
L 165.027691 236.564229 
L 165.027691 236.005047 
L 165.625826 236.005047 
L 165.7168 234.886682 
L 166.046308 234.886682 
L 166.046308 233.768318 
L 166.369611 233.768318 
L 166.369611 233.209136 
L 166.658332 233.209136 
L 166.658332 232.649954 
L 166.791424 232.649954 
L 166.791424 232.090771 
L 167.082508 232.090771 
L 167.147559 230.972407 
L 167.632251 230.972407 
L 167.632251 230.413225 
L 167.856215 230.413225 
L 167.856215 229.854042 
L 168.52822 229.854042 
L 168.639125 228.176496 
L 168.925841 228.176496 
L 168.925841 227.617313 
L 169.050827 227.617313 
L 169.050827 227.058131 
L 169.191386 227.058131 
L 169.240722 225.939767 
L 170.514243 225.939767 
L 170.514243 224.821402 
L 170.650926 224.821402 
L 170.650926 224.26222 
L 171.742425 224.26222 
L 171.742425 223.703038 
L 175.727574 223.703038 
L 175.727574 223.143855 
L 176.460149 223.143855 
L 176.460149 222.584673 
L 176.985848 222.584673 
L 176.985848 222.025491 
L 177.312193 222.025491 
L 177.312193 221.466309 
L 177.742893 221.466309 
L 177.742893 220.907126 
L 178.255581 220.907126 
L 178.255581 220.347944 
L 178.424733 220.347944 
L 178.424733 219.788762 
L 178.620787 219.788762 
L 178.729796 218.670397 
L 178.762836 218.670397 
L 178.838117 217.552033 
L 178.95975 217.552033 
L 178.95975 216.992851 
L 179.356042 216.992851 
L 179.465022 215.874486 
L 179.613749 215.874486 
L 179.613749 215.315304 
L 179.734484 215.315304 
L 179.734484 214.756122 
L 179.916213 214.756122 
L 179.916213 214.19694 
L 180.308512 214.19694 
L 180.308512 213.637757 
L 180.522643 213.637757 
L 180.632945 212.519393 
L 180.81801 212.519393 
L 180.81801 211.960211 
L 181.312824 211.960211 
L 181.312824 211.401028 
L 183.529022 211.401028 
L 183.529022 210.841846 
L 184.180949 210.841846 
L 184.180949 210.282664 
L 184.450524 210.282664 
L 184.464061 209.164299 
L 184.67588 209.164299 
L 184.67588 208.605117 
L 184.858688 208.605117 
L 184.895017 207.486753 
L 184.990427 207.486753 
L 184.990427 206.92757 
L 185.179671 206.92757 
L 185.257373 205.809206 
L 185.443713 205.809206 
L 185.443713 205.250024 
L 185.897792 205.250024 
L 186.000182 203.572477 
L 186.015642 203.572477 
L 186.015642 203.013295 
L 186.20926 203.013295 
L 186.20926 202.454112 
L 186.551166 202.454112 
L 186.551166 201.89493 
L 188.067005 201.89493 
L 188.173636 200.776566 
L 188.802504 200.776566 
L 188.823512 199.658201 
L 189.194758 199.658201 
L 189.194758 199.099019 
L 189.618389 199.099019 
L 189.618389 198.539837 
L 189.884423 198.539837 
L 189.995087 196.86229 
L 190.153687 196.86229 
L 190.153687 196.303108 
L 190.962535 196.303108 
L 190.962535 195.743926 
L 191.340643 195.743926 
L 191.340643 195.184743 
L 192.416792 195.184743 
L 192.476295 194.066379 
L 192.649378 194.066379 
L 192.649378 193.507197 
L 192.872638 193.507197 
L 192.872638 192.948014 
L 193.010972 192.948014 
L 193.010972 192.388832 
L 193.146161 192.388832 
L 193.20726 190.711285 
L 194.27715 190.711285 
L 194.27715 190.152103 
L 195.725288 190.152103 
L 195.725288 189.592921 
L 196.026366 189.592921 
L 196.100389 187.915374 
L 196.2168 187.915374 
L 196.2168 187.356192 
L 196.534594 187.356192 
L 196.626464 186.237828 
L 197.291442 186.237828 
L 197.291442 185.678645 
L 197.555437 185.678645 
L 197.555437 185.119463 
L 197.905355 185.119463 
L 197.905355 184.560281 
L 198.527923 184.560281 
L 198.60084 183.441916 
L 198.64533 183.441916 
L 198.661614 181.76437 
L 200.434242 181.76437 
L 200.434242 181.205187 
L 201.025809 181.205187 
L 201.025809 180.646005 
L 201.324894 180.646005 
L 201.324894 180.086823 
L 201.511404 180.086823 
L 201.528943 178.968458 
L 202.023835 178.968458 
L 202.023835 178.409276 
L 202.475261 178.409276 
L 202.475261 177.850094 
L 202.598057 177.850094 
L 202.702448 176.172547 
L 203.18442 176.172547 
L 203.18442 175.613365 
L 204.416032 175.613365 
L 204.416032 175.054183 
L 204.742049 175.054183 
L 204.742049 174.495 
L 205.140292 174.495 
L 205.140292 173.935818 
L 206.246314 173.935818 
L 206.246314 173.376636 
L 206.587272 173.376636 
L 206.587272 172.817454 
L 206.873966 172.817454 
L 206.873966 172.258271 
L 207.241446 172.258271 
L 207.241446 171.699089 
L 207.48833 171.699089 
L 207.48833 171.139907 
L 207.672285 171.139907 
L 207.672285 170.580725 
L 208.467756 170.580725 
L 208.467756 170.021543 
L 209.372917 170.021543 
L 209.372917 169.46236 
L 209.808209 169.46236 
L 209.812847 168.343996 
L 210.033234 168.343996 
L 210.033234 167.784814 
L 210.157153 167.784814 
L 210.244046 166.666449 
L 210.341746 166.666449 
L 210.434421 165.548085 
L 211.49517 165.548085 
L 211.552532 164.42972 
L 212.385414 164.42972 
L 212.385414 163.870538 
L 212.782627 163.870538 
L 212.782627 163.311356 
L 212.996469 163.311356 
L 212.996469 162.752173 
L 213.205778 162.752173 
L 213.205778 162.192991 
L 214.020811 162.192991 
L 214.020811 161.633809 
L 215.033143 161.633809 
L 215.033143 161.074627 
L 215.640397 161.074627 
L 215.640397 160.515444 
L 215.878713 160.515444 
L 215.972365 159.39708 
L 216.927836 159.39708 
L 217.028646 157.160351 
L 218.357685 157.160351 
L 218.357685 156.601169 
L 219.431287 156.601169 
L 219.431287 156.041987 
L 220.114843 156.041987 
L 220.114843 155.482804 
L 221.060429 155.482804 
L 221.060429 154.923622 
L 221.694822 154.923622 
L 221.694822 154.36444 
L 222.250521 154.36444 
L 222.250521 153.805258 
L 222.749916 153.805258 
L 222.749916 153.246075 
L 223.331821 153.246075 
L 223.331821 152.686893 
L 225.566895 152.686893 
L 225.566895 152.127711 
L 225.745035 152.127711 
L 225.745035 151.568529 
L 225.901071 151.568529 
L 225.901071 151.009346 
L 226.936528 151.009346 
L 226.97127 149.890982 
L 227.715347 149.890982 
L 227.715347 149.3318 
L 228.04506 149.3318 
L 228.0835 148.213435 
L 228.437134 148.213435 
L 228.531951 146.535888 
L 228.967972 146.535888 
L 228.967972 145.976706 
L 229.243319 145.976706 
L 229.243319 145.417524 
L 230.434674 145.417524 
L 230.434674 144.858342 
L 231.534091 144.858342 
L 231.629352 143.739977 
L 232.154563 143.739977 
L 232.154563 143.180795 
L 233.276361 143.180795 
L 233.276361 142.621613 
L 233.776025 142.621613 
L 233.876596 141.503248 
L 233.974311 141.503248 
L 233.974311 140.944066 
L 234.320438 140.944066 
L 234.320438 140.384884 
L 234.589043 140.384884 
L 234.589408 139.266519 
L 235.438418 139.266519 
L 235.438418 138.707337 
L 238.081805 138.707337 
L 238.081805 138.148155 
L 238.342402 138.148155 
L 238.424941 137.02979 
L 238.833213 137.02979 
L 238.833213 136.470608 
L 239.277906 136.470608 
L 239.336707 134.793061 
L 239.850999 134.793061 
L 239.952675 133.115515 
L 241.114794 133.115515 
L 241.114794 132.556332 
L 243.442366 132.556332 
L 243.513937 131.437968 
L 244.479046 131.437968 
L 244.479046 130.878786 
L 248.052969 130.878786 
L 248.052969 130.319603 
L 248.59116 130.319603 
L 248.59116 129.760421 
L 249.043837 129.760421 
L 249.043837 129.201239 
L 250.143554 129.201239 
L 250.143554 128.642057 
L 251.49188 128.642057 
L 251.49188 128.082874 
L 254.404474 128.082874 
L 254.404474 127.523692 
L 255.759624 127.523692 
L 255.759624 126.96451 
L 257.95086 126.96451 
L 257.95086 126.405328 
L 333.569032 126.405328 
L 333.569032 126.405328 
" style="fill:none;stroke:#000080;stroke-linecap:square;stroke-width:1.5;"/>
   </g>
   <g id="line2d_25">
    <defs>
     <path d="M 0 6 
C 1.591219 6 3.117479 5.367802 4.242641 4.242641 
C 5.367802 3.117479 6 1.591219 6 0 
C 6 -1.591219 5.367802 -3.117479 4.242641 -4.242641 
C 3.117479 -5.367802 1.591219 -6 0 -6 
C -1.591219 -6 -3.117479 -5.367802 -4.242641 -4.242641 
C -5.367802 -3.117479 -6 -1.591219 -6 0 
C -6 1.591219 -5.367802 3.117479 -4.242641 4.242641 
C -3.117479 5.367802 -1.591219 6 0 6 
z
" id="m48df0d6086" style="stroke:#000080;stroke-width:1.5;"/>
    </defs>
    <g>
     <use style="fill-opacity:0;stroke:#000080;stroke-width:1.5;" x="124.567867" xlink:href="#m48df0d6086" y="270.115164"/>
     <use style="fill-opacity:0;stroke:#000080;stroke-width:1.5;" x="167.856215" xlink:href="#m48df0d6086" y="229.854042"/>
     <use style="fill-opacity:0;stroke:#000080;stroke-width:1.5;" x="210.434421" xlink:href="#m48df0d6086" y="166.107267"/>
     <use style="fill-opacity:0;stroke:#000080;stroke-width:1.5;" x="257.95086" xlink:href="#m48df0d6086" y="126.96451"/>
     <use style="fill-opacity:0;stroke:#000080;stroke-width:1.5;" x="257.95086" xlink:href="#m48df0d6086" y="126.405328"/>
     <use style="fill-opacity:0;stroke:#000080;stroke-width:1.5;" x="333.569032" xlink:href="#m48df0d6086" y="126.405328"/>
    </g>
   </g>
   <g id="line2d_26">
    <path style="fill:none;stroke:#000080;stroke-linecap:square;stroke-width:1.5;"/>
    <g/>
   </g>
   <g id="line2d_27">
    <path clip-path="url(#pbbdd595e4b)" d="M 164.100586 236.564229 
" style="fill:none;stroke:#000080;stroke-linecap:square;stroke-width:1.5;"/>
    <defs>
     <path d="M -12 12 
L 12 -12 
M -12 -12 
L 12 12 
" id="m3668667123" style="stroke:#000080;stroke-width:3;"/>
    </defs>
    <g clip-path="url(#pbbdd595e4b)">
     <use style="fill:#000080;stroke:#000080;stroke-width:3;" x="164.100586" xlink:href="#m3668667123" y="236.564229"/>
    </g>
   </g>
   <g id="line2d_28">
    <defs>
     <path d="M 0 1.5 
C 0.397805 1.5 0.77937 1.341951 1.06066 1.06066 
C 1.341951 0.77937 1.5 0.397805 1.5 0 
C 1.5 -0.397805 1.341951 -0.77937 1.06066 -1.06066 
C 0.77937 -1.341951 0.397805 -1.5 0 -1.5 
C -0.397805 -1.5 -0.77937 -1.341951 -1.06066 -1.06066 
C -1.341951 -0.77937 -1.5 -0.397805 -1.5 0 
C -1.5 0.397805 -1.341951 0.77937 -1.06066 1.06066 
C -0.77937 1.341951 -0.397805 1.5 0 1.5 
z
" id="mbb2aaef465" style="stroke:#ff00ff;"/>
    </defs>
    <g>
     <use style="fill:#ff00ff;stroke:#ff00ff;" x="249.648842" xlink:href="#mbb2aaef465" y="187.915374"/>
     <use style="fill:#ff00ff;stroke:#ff00ff;" x="249.648842" xlink:href="#mbb2aaef465" y="187.915374"/>
    </g>
   </g>
   <g id="line2d_29">
    <path d="M 65.610284 294.16 
L 65.610284 293.600818 
L 82.015309 293.600818 
L 82.015309 291.923271 
L 86.621091 291.923271 
L 86.621091 290.245724 
L 93.915843 290.245724 
L 93.915843 289.686542 
L 99.019308 289.686542 
L 99.019308 289.12736 
L 100.877209 289.12736 
L 100.877209 288.568178 
L 105.482991 288.568178 
L 105.482991 288.008995 
L 106.143413 288.008995 
L 106.143413 287.449813 
L 107.691203 287.449813 
L 107.691203 286.890631 
L 109.110924 286.890631 
L 109.110924 286.331449 
L 109.909618 286.331449 
L 109.909618 285.213084 
L 110.672804 285.213084 
L 110.672804 282.417173 
L 114.050092 282.417173 
L 114.050092 281.857991 
L 116.870985 281.857991 
L 116.870985 281.298808 
L 117.716912 281.298808 
L 117.716912 280.739626 
L 118.835278 280.739626 
L 118.835278 279.621262 
L 119.443088 279.621262 
L 119.443088 279.062079 
L 120.316268 279.062079 
L 120.316268 276.825351 
L 120.457576 276.825351 
L 120.457576 275.706986 
L 121.147181 275.706986 
L 121.147181 275.147804 
L 121.281839 275.147804 
L 121.281839 274.029439 
L 121.415449 274.029439 
L 121.415449 273.470257 
L 122.448473 273.470257 
L 122.448473 272.911075 
L 122.942575 272.911075 
L 122.942575 271.79271 
L 124.567867 271.79271 
L 124.567867 271.233528 
L 125.219927 271.233528 
L 125.219927 270.674346 
L 126.943321 270.674346 
L 126.943321 270.115164 
L 128.15355 270.115164 
L 128.15355 268.996799 
L 128.858012 268.996799 
L 128.858012 268.437617 
L 129.781742 268.437617 
L 129.781742 267.878435 
L 130.265403 267.878435 
L 130.265403 267.319252 
L 130.502219 267.319252 
L 130.502219 265.641706 
L 130.6583 265.641706 
L 130.6583 265.082523 
L 131.118207 265.082523 
L 131.118207 264.523341 
L 133.775598 264.523341 
L 133.775598 263.964159 
L 134.349007 263.964159 
L 134.349007 263.404977 
L 135.204571 263.404977 
L 135.204571 262.286612 
L 136.412928 262.286612 
L 136.412928 261.72743 
L 136.578812 261.72743 
L 136.578812 261.168248 
L 137.279678 261.168248 
L 137.279678 260.049883 
L 138.552026 260.049883 
L 138.552026 259.490701 
L 141.268549 259.490701 
L 141.268549 258.931519 
L 141.641349 258.931519 
L 141.641349 258.372337 
L 142.828609 258.372337 
L 142.828609 257.813154 
L 143.094209 257.813154 
L 143.094209 257.253972 
L 146.743643 257.253972 
L 146.743643 256.69479 
L 147.253498 256.69479 
L 147.253498 256.135608 
L 147.400618 256.135608 
L 147.400618 255.576425 
L 147.662299 255.576425 
L 147.662299 255.017243 
L 151.220011 255.017243 
L 151.220011 254.458061 
L 152.937211 254.458061 
L 152.937211 253.898879 
L 153.127157 253.898879 
L 153.127157 253.339696 
L 153.397866 253.339696 
L 153.397866 252.780514 
L 153.806181 252.780514 
L 153.806181 252.221332 
L 154.862457 252.221332 
L 154.862457 251.66215 
L 155.713673 251.66215 
L 155.821653 250.543785 
L 157.150293 250.543785 
L 157.150293 249.984603 
L 158.118717 249.984603 
L 158.118717 249.425421 
L 159.020537 249.425421 
L 159.020537 248.866238 
L 161.093948 248.866238 
L 161.093948 248.307056 
L 161.485352 248.307056 
L 161.485352 247.188692 
L 162.812894 247.188692 
L 162.812894 246.62951 
L 164.63494 246.62951 
L 164.720624 245.511145 
L 165.163579 245.511145 
L 165.215559 244.392781 
L 165.554733 244.392781 
L 165.554733 243.833598 
L 166.533815 243.833598 
L 166.533815 243.274416 
L 167.740118 243.274416 
L 167.740118 242.715234 
L 168.502524 242.715234 
L 168.502524 242.156052 
L 168.799938 242.156052 
L 168.799938 241.596869 
L 169.322635 241.596869 
L 169.322635 241.037687 
L 171.333025 241.037687 
L 171.333025 240.478505 
L 172.252878 240.478505 
L 172.252878 239.919323 
L 172.396953 239.919323 
L 172.396953 239.36014 
L 173.411666 239.36014 
L 173.411666 238.800958 
L 176.313938 238.800958 
L 176.313938 238.241776 
L 176.791253 238.241776 
L 176.791253 237.682594 
L 177.337829 237.682594 
L 177.337829 237.123411 
L 180.594844 237.123411 
L 180.594844 236.564229 
L 181.198636 236.564229 
L 181.198636 236.005047 
L 182.910717 236.005047 
L 183.02146 234.886682 
L 183.914061 234.886682 
L 183.914061 234.3275 
L 184.571978 234.3275 
L 184.571978 233.768318 
L 184.885117 233.768318 
L 184.885117 233.209136 
L 185.725774 233.209136 
L 185.801048 232.090771 
L 186.034176 232.090771 
L 186.034176 231.531589 
L 186.187855 231.531589 
L 186.187855 230.972407 
L 186.50617 230.972407 
L 186.50617 230.413225 
L 188.569702 230.413225 
L 188.569702 229.854042 
L 189.199894 229.854042 
L 189.199894 229.29486 
L 189.447152 229.29486 
L 189.447152 228.735678 
L 189.733264 228.735678 
L 189.733264 228.176496 
L 190.308427 228.176496 
L 190.308427 227.617313 
L 190.609057 227.617313 
L 190.620878 226.498949 
L 192.525019 226.498949 
L 192.525019 225.939767 
L 193.02947 225.939767 
L 193.02947 225.380584 
L 193.68838 225.380584 
L 193.68838 224.821402 
L 193.824243 224.821402 
L 193.886888 223.703038 
L 194.112082 223.703038 
L 194.112082 223.143855 
L 194.455776 223.143855 
L 194.455776 222.584673 
L 196.204852 222.584673 
L 196.204852 222.025491 
L 196.507775 222.025491 
L 196.507775 221.466309 
L 196.719502 221.466309 
L 196.719502 220.907126 
L 196.85319 220.907126 
L 196.85319 220.347944 
L 198.823614 220.347944 
L 198.823614 219.788762 
L 198.937566 219.788762 
L 199.039192 218.111215 
L 199.134462 218.111215 
L 199.134462 217.552033 
L 201.01162 217.552033 
L 201.01162 216.992851 
L 201.242336 216.992851 
L 201.242336 216.433669 
L 202.520231 216.433669 
L 202.520231 215.874486 
L 203.03941 215.874486 
L 203.101218 214.756122 
L 203.179872 214.756122 
L 203.179872 214.19694 
L 203.357507 214.19694 
L 203.357507 213.637757 
L 203.624441 213.637757 
L 203.624441 213.078575 
L 203.8162 213.078575 
L 203.8162 212.519393 
L 204.705666 212.519393 
L 204.705666 211.960211 
L 205.03547 211.960211 
L 205.064028 210.841846 
L 206.241557 210.841846 
L 206.351584 209.723482 
L 206.414814 209.723482 
L 206.448692 208.605117 
L 206.604982 208.605117 
L 206.604982 208.045935 
L 207.735204 208.045935 
L 207.824813 206.92757 
L 208.971002 206.92757 
L 208.971002 206.368388 
L 209.369745 206.368388 
L 209.369745 205.809206 
L 211.800748 205.809206 
L 211.800748 205.250024 
L 212.445187 205.250024 
L 212.445187 204.690841 
L 214.472688 204.690841 
L 214.472688 204.131659 
L 214.693371 204.131659 
L 214.693371 203.572477 
L 215.278291 203.572477 
L 215.278291 203.013295 
L 216.156548 203.013295 
L 216.203485 201.89493 
L 216.859273 201.89493 
L 216.948759 200.776566 
L 217.71578 200.776566 
L 217.750862 199.658201 
L 218.237457 199.658201 
L 218.237457 199.099019 
L 218.535302 199.099019 
L 218.565037 197.980655 
L 219.223032 197.980655 
L 219.223032 197.421472 
L 221.328865 197.421472 
L 221.328865 196.86229 
L 221.741567 196.86229 
L 221.741567 196.303108 
L 224.464647 196.303108 
L 224.464647 195.743926 
L 226.036186 195.743926 
L 226.036186 195.184743 
L 226.60873 195.184743 
L 226.60873 194.625561 
L 227.010769 194.625561 
L 227.010769 194.066379 
L 227.816661 194.066379 
L 227.816661 193.507197 
L 228.656962 193.507197 
L 228.764164 192.388832 
L 230.621987 192.388832 
L 230.621987 191.82965 
L 232.662346 191.82965 
L 232.662346 191.270468 
L 233.79936 191.270468 
L 233.800698 190.152103 
L 234.100421 190.152103 
L 234.100421 189.592921 
L 236.302352 189.592921 
L 236.302352 189.033739 
L 241.99245 189.033739 
L 241.99245 188.474556 
L 249.648842 188.474556 
L 249.648842 187.915374 
L 333.569032 187.915374 
L 333.569032 187.915374 
" style="fill:none;stroke:#ff00ff;stroke-linecap:square;stroke-width:1.5;"/>
   </g>
   <g id="line2d_30">
    <defs>
     <path d="M -0 8.485281 
L 5.091169 0 
L 0 -8.485281 
L -5.091169 -0 
z
" id="m854bfc7f9e" style="stroke:#ff00ff;stroke-linejoin:miter;stroke-width:1.5;"/>
    </defs>
    <g>
     <use style="fill-opacity:0;stroke:#ff00ff;stroke-linejoin:miter;stroke-width:1.5;" x="164.63494" xlink:href="#m854bfc7f9e" y="246.070327"/>
     <use style="fill-opacity:0;stroke:#ff00ff;stroke-linejoin:miter;stroke-width:1.5;" x="249.648842" xlink:href="#m854bfc7f9e" y="188.474556"/>
     <use style="fill-opacity:0;stroke:#ff00ff;stroke-linejoin:miter;stroke-width:1.5;" x="249.648842" xlink:href="#m854bfc7f9e" y="187.915374"/>
     <use style="fill-opacity:0;stroke:#ff00ff;stroke-linejoin:miter;stroke-width:1.5;" x="249.648842" xlink:href="#m854bfc7f9e" y="187.915374"/>
     <use style="fill-opacity:0;stroke:#ff00ff;stroke-linejoin:miter;stroke-width:1.5;" x="333.569032" xlink:href="#m854bfc7f9e" y="187.915374"/>
    </g>
   </g>
   <g id="line2d_31">
    <path style="fill:none;stroke:#ff00ff;stroke-linecap:square;stroke-width:1.5;"/>
    <g/>
   </g>
   <g id="line2d_32">
    <path clip-path="url(#pbbdd595e4b)" d="M 164.100586 246.62951 
" style="fill:none;stroke:#ff00ff;stroke-linecap:square;stroke-width:1.5;"/>
    <defs>
     <path d="M -12 12 
L 12 -12 
M -12 -12 
L 12 12 
" id="m6e915dd5a2" style="stroke:#ff00ff;stroke-width:3;"/>
    </defs>
    <g clip-path="url(#pbbdd595e4b)">
     <use style="fill:#ff00ff;stroke:#ff00ff;stroke-width:3;" x="164.100586" xlink:href="#m6e915dd5a2" y="246.62951"/>
    </g>
   </g>
   <g id="line2d_33">
    <defs>
     <path d="M 0 1.5 
C 0.397805 1.5 0.77937 1.341951 1.06066 1.06066 
C 1.341951 0.77937 1.5 0.397805 1.5 0 
C 1.5 -0.397805 1.341951 -0.77937 1.06066 -1.06066 
C 0.77937 -1.341951 0.397805 -1.5 0 -1.5 
C -0.397805 -1.5 -0.77937 -1.341951 -1.06066 -1.06066 
C -1.341951 -0.77937 -1.5 -0.397805 -1.5 0 
C -1.5 0.397805 -1.341951 0.77937 -1.06066 1.06066 
C -0.77937 1.341951 -0.397805 1.5 0 1.5 
z
" id="mbeddefa727" style="stroke:#ffa500;"/>
    </defs>
    <g>
     <use style="fill:#ffa500;stroke:#ffa500;" x="244.292411" xlink:href="#mbeddefa727" y="210.282664"/>
     <use style="fill:#ffa500;stroke:#ffa500;" x="244.292411" xlink:href="#mbeddefa727" y="210.282664"/>
    </g>
   </g>
   <g id="line2d_34">
    <path d="M 37.9781 294.16 
L 37.9781 290.804907 
L 49.878634 290.804907 
L 49.878634 289.686542 
L 56.84 289.686542 
L 56.84 286.331449 
L 65.610284 286.331449 
L 65.610284 285.772266 
L 71.387123 285.772266 
L 71.387123 284.09472 
L 73.679702 284.09472 
L 73.679702 282.417173 
L 75.7019 282.417173 
L 75.7019 281.857991 
L 77.510818 281.857991 
L 77.510818 281.298808 
L 83.287657 281.298808 
L 83.287657 280.739626 
L 85.580236 280.739626 
L 85.580236 280.180444 
L 91.047718 280.180444 
L 91.047718 279.062079 
L 92.541603 279.062079 
L 92.541603 275.706986 
L 93.915843 275.706986 
L 93.915843 274.588622 
L 95.790669 274.588622 
L 95.790669 274.029439 
L 97.480771 274.029439 
L 97.480771 273.470257 
L 98.009084 273.470257 
L 98.009084 272.911075 
L 99.973377 272.911075 
L 99.973377 272.351893 
L 101.311887 272.351893 
L 101.311887 271.233528 
L 102.149557 271.233528 
L 102.149557 270.115164 
L 103.334085 270.115164 
L 103.334085 268.996799 
L 103.711438 268.996799 
L 103.711438 268.437617 
L 110.672804 268.437617 
L 110.672804 267.878435 
L 110.919842 267.878435 
L 110.919842 266.200888 
L 116.69668 266.200888 
L 116.69668 265.641706 
L 117.043537 265.641706 
L 117.043537 264.523341 
L 120.173787 264.523341 
L 120.173787 263.964159 
L 121.548028 263.964159 
L 121.548028 263.404977 
L 121.939729 263.404977 
L 121.939729 262.286612 
L 122.322693 262.286612 
L 122.322693 261.72743 
L 126.651492 261.72743 
L 126.651492 261.168248 
L 132.002635 261.168248 
L 132.002635 260.609066 
L 141.763839 260.609066 
L 141.763839 259.490701 
L 147.891602 259.490701 
L 147.891602 258.931519 
L 150.91236 258.931519 
L 150.91236 258.372337 
L 161.120322 258.372337 
L 161.120322 257.813154 
L 163.085327 257.813154 
L 163.085327 257.253972 
L 163.434299 257.253972 
L 163.434299 256.69479 
L 164.364389 256.69479 
L 164.364389 256.135608 
L 164.763306 256.135608 
L 164.858954 255.017243 
L 167.31371 255.017243 
L 167.31371 254.458061 
L 167.731155 254.458061 
L 167.731155 253.898879 
L 176.144516 253.898879 
L 176.248554 252.780514 
L 176.384491 252.780514 
L 176.384491 251.66215 
L 176.546208 251.66215 
L 176.546208 250.543785 
L 176.706416 250.543785 
L 176.706416 249.984603 
L 176.880936 249.984603 
L 176.880936 249.425421 
L 178.167935 249.425421 
L 178.167935 248.866238 
L 178.337949 248.866238 
L 178.337949 248.307056 
L 181.690706 248.307056 
L 181.690706 247.747874 
L 183.211739 247.747874 
L 183.211739 247.188692 
L 183.435888 247.188692 
L 183.435888 246.62951 
L 183.554011 246.62951 
L 183.554011 246.070327 
L 183.966379 246.070327 
L 183.966379 245.511145 
L 186.312853 245.511145 
L 186.312853 244.951963 
L 188.257924 244.951963 
L 188.257924 244.392781 
L 188.55638 244.392781 
L 188.55638 243.833598 
L 192.018375 243.833598 
L 192.018375 243.274416 
L 192.148607 243.274416 
L 192.148607 242.715234 
L 195.155886 242.715234 
L 195.155886 242.156052 
L 195.3454 242.156052 
L 195.434914 241.037687 
L 195.677819 241.037687 
L 195.677819 240.478505 
L 195.868654 240.478505 
L 195.868654 239.919323 
L 197.275409 239.919323 
L 197.275409 239.36014 
L 197.653005 239.36014 
L 197.760941 237.682594 
L 199.720303 237.682594 
L 199.720303 237.123411 
L 199.940091 237.123411 
L 199.981247 236.005047 
L 200.67411 236.005047 
L 200.713545 234.886682 
L 203.391242 234.886682 
L 203.391242 234.3275 
L 203.710667 234.3275 
L 203.809623 232.090771 
L 203.875278 232.090771 
L 203.875278 231.531589 
L 205.40008 231.531589 
L 205.40008 230.972407 
L 206.420465 230.972407 
L 206.420465 230.413225 
L 208.349498 230.413225 
L 208.349498 229.854042 
L 210.656588 229.854042 
L 210.656588 229.29486 
L 212.905701 229.29486 
L 212.944385 227.617313 
L 213.859771 227.617313 
L 213.859771 227.058131 
L 215.737544 227.058131 
L 215.737544 226.498949 
L 216.583813 226.498949 
L 216.583813 225.939767 
L 218.646542 225.939767 
L 218.723983 224.821402 
L 220.662065 224.821402 
L 220.662065 224.26222 
L 220.849607 224.26222 
L 220.919359 223.143855 
L 221.409293 223.143855 
L 221.438374 222.025491 
L 222.04253 222.025491 
L 222.04253 221.466309 
L 222.686135 221.466309 
L 222.686135 220.907126 
L 223.813118 220.907126 
L 223.813118 220.347944 
L 224.222293 220.347944 
L 224.222293 219.788762 
L 224.612155 219.788762 
L 224.612155 219.22958 
L 227.118852 219.22958 
L 227.118852 218.670397 
L 227.544784 218.670397 
L 227.544784 218.111215 
L 228.463495 218.111215 
L 228.463495 217.552033 
L 228.809466 217.552033 
L 228.809466 216.992851 
L 229.927818 216.992851 
L 229.927818 216.433669 
L 230.332294 216.433669 
L 230.332294 215.874486 
L 231.042514 215.874486 
L 231.042514 215.315304 
L 232.074653 215.315304 
L 232.074653 214.756122 
L 233.331446 214.756122 
L 233.331446 214.19694 
L 237.394722 214.19694 
L 237.394722 213.637757 
L 237.601207 213.637757 
L 237.601207 213.078575 
L 237.868692 213.078575 
L 237.913873 211.401028 
L 242.914972 211.401028 
L 242.914972 210.841846 
L 244.292411 210.841846 
L 244.292411 210.282664 
L 333.569032 210.282664 
L 333.569032 210.282664 
" style="fill:none;stroke:#ffa500;stroke-linecap:square;stroke-width:1.5;"/>
   </g>
   <g id="line2d_35">
    <defs>
     <path d="M 0 -6 
L -1.347084 -1.854102 
L -5.706339 -1.854102 
L -2.179628 0.708204 
L -3.526712 4.854102 
L -0 2.291796 
L 3.526712 4.854102 
L 2.179628 0.708204 
L 5.706339 -1.854102 
L 1.347084 -1.854102 
z
" id="mbdec625326" style="stroke:#ffa500;stroke-linejoin:bevel;stroke-width:1.5;"/>
    </defs>
    <g>
     <use style="fill-opacity:0;stroke:#ffa500;stroke-linejoin:bevel;stroke-width:1.5;" x="83.287657" xlink:href="#mbdec625326" y="281.298808"/>
     <use style="fill-opacity:0;stroke:#ffa500;stroke-linejoin:bevel;stroke-width:1.5;" x="150.91236" xlink:href="#mbdec625326" y="258.931519"/>
     <use style="fill-opacity:0;stroke:#ffa500;stroke-linejoin:bevel;stroke-width:1.5;" x="208.349498" xlink:href="#mbdec625326" y="230.413225"/>
     <use style="fill-opacity:0;stroke:#ffa500;stroke-linejoin:bevel;stroke-width:1.5;" x="244.292411" xlink:href="#mbdec625326" y="210.841846"/>
     <use style="fill-opacity:0;stroke:#ffa500;stroke-linejoin:bevel;stroke-width:1.5;" x="244.292411" xlink:href="#mbdec625326" y="210.282664"/>
     <use style="fill-opacity:0;stroke:#ffa500;stroke-linejoin:bevel;stroke-width:1.5;" x="333.569032" xlink:href="#mbdec625326" y="210.282664"/>
    </g>
   </g>
   <g id="line2d_36">
    <path style="fill:none;stroke:#ffa500;stroke-linecap:square;stroke-width:1.5;"/>
    <g/>
   </g>
   <g id="line2d_37">
    <path clip-path="url(#pbbdd595e4b)" d="M 164.100586 256.69479 
" style="fill:none;stroke:#ffa500;stroke-linecap:square;stroke-width:1.5;"/>
    <defs>
     <path d="M -12 12 
L 12 -12 
M -12 -12 
L 12 12 
" id="m211853d65b" style="stroke:#ffa500;stroke-width:3;"/>
    </defs>
    <g clip-path="url(#pbbdd595e4b)">
     <use style="fill:#ffa500;stroke:#ffa500;stroke-width:3;" x="164.100586" xlink:href="#m211853d65b" y="256.69479"/>
    </g>
   </g>
   <g id="line2d_38">
    <defs>
     <path d="M 0 1.5 
C 0.397805 1.5 0.77937 1.341951 1.06066 1.06066 
C 1.341951 0.77937 1.5 0.397805 1.5 0 
C 1.5 -0.397805 1.341951 -0.77937 1.06066 -1.06066 
C 0.77937 -1.341951 0.397805 -1.5 0 -1.5 
C -0.397805 -1.5 -0.77937 -1.341951 -1.06066 -1.06066 
C -1.341951 -0.77937 -1.5 -0.397805 -1.5 0 
C -1.5 0.397805 -1.341951 0.77937 -1.06066 1.06066 
C -0.77937 1.341951 -0.397805 1.5 0 1.5 
z
" id="mf166771c73" style="stroke:#6495ed;"/>
    </defs>
    <g>
     <use style="fill:#6495ed;stroke:#6495ed;" x="232.966983" xlink:href="#mf166771c73" y="193.507197"/>
     <use style="fill:#6495ed;stroke:#6495ed;" x="232.966983" xlink:href="#mf166771c73" y="193.507197"/>
    </g>
   </g>
   <g id="line2d_39">
    <path d="M 37.9781 294.16 
L 37.9781 292.482453 
L 49.878634 292.482453 
L 49.878634 286.890631 
L 56.84 286.890631 
L 56.84 283.535537 
L 61.779168 283.535537 
L 61.779168 281.857991 
L 65.610284 281.857991 
L 65.610284 279.062079 
L 68.740534 279.062079 
L 68.740534 278.502897 
L 71.387123 278.502897 
L 71.387123 274.029439 
L 73.679702 274.029439 
L 73.679702 272.351893 
L 75.7019 272.351893 
L 75.7019 271.233528 
L 77.510818 271.233528 
L 77.510818 270.115164 
L 79.147184 270.115164 
L 79.147184 268.437617 
L 83.287657 268.437617 
L 83.287657 266.200888 
L 84.472185 266.200888 
L 84.472185 265.641706 
L 86.621091 265.641706 
L 86.621091 265.082523 
L 87.602435 265.082523 
L 87.602435 264.523341 
L 88.530706 264.523341 
L 88.530706 263.964159 
L 91.810903 263.964159 
L 91.810903 263.404977 
L 93.242469 263.404977 
L 93.242469 262.845795 
L 93.915843 262.845795 
L 93.915843 261.72743 
L 94.563801 261.72743 
L 94.563801 261.168248 
L 99.973377 261.168248 
L 99.973377 260.609066 
L 100.43124 260.609066 
L 100.43124 260.049883 
L 102.948252 260.049883 
L 102.948252 258.931519 
L 103.334085 258.931519 
L 103.334085 258.372337 
L 103.711438 258.372337 
L 103.711438 257.813154 
L 105.143003 257.813154 
L 105.143003 257.253972 
L 107.088725 257.253972 
L 107.088725 256.135608 
L 107.984694 256.135608 
L 107.984694 253.898879 
L 108.557042 253.898879 
L 108.557042 253.339696 
L 109.110924 253.339696 
L 109.110924 252.780514 
L 110.919842 252.780514 
L 110.919842 252.221332 
L 113.212421 252.221332 
L 113.212421 251.66215 
L 114.253276 251.66215 
L 114.253276 251.102967 
L 119.141873 251.102967 
L 119.141873 249.984603 
L 124.004904 249.984603 
L 124.004904 249.425421 
L 124.232309 249.425421 
L 124.232309 248.866238 
L 124.678278 248.866238 
L 124.678278 247.747874 
L 125.641269 247.747874 
L 125.641269 247.188692 
L 129.199692 247.188692 
L 129.199692 246.62951 
L 129.617446 246.62951 
L 129.617446 245.511145 
L 129.781742 245.511145 
L 129.781742 244.392781 
L 130.185734 244.392781 
L 130.185734 243.833598 
L 130.735812 243.833598 
L 130.735812 243.274416 
L 131.268812 243.274416 
L 131.268812 242.715234 
L 131.639644 242.715234 
L 131.639644 241.596869 
L 131.858358 241.596869 
L 131.858358 241.037687 
L 132.428331 241.037687 
L 132.428331 239.919323 
L 133.249308 239.919323 
L 133.249308 238.800958 
L 134.286233 238.800958 
L 134.286233 237.682594 
L 135.264082 237.682594 
L 135.264082 237.123411 
L 136.076273 237.123411 
L 136.076273 236.564229 
L 137.697178 236.564229 
L 137.697178 236.005047 
L 138.205169 236.005047 
L 138.205169 234.886682 
L 139.552436 234.886682 
L 139.552436 234.3275 
L 140.887474 234.3275 
L 140.887474 233.768318 
L 141.682276 233.768318 
L 141.682276 233.209136 
L 142.126149 233.209136 
L 142.126149 232.649954 
L 145.249758 232.649954 
L 145.249758 232.090771 
L 148.506838 232.090771 
L 148.506838 231.531589 
L 150.792549 231.531589 
L 150.792549 230.972407 
L 154.322875 230.972407 
L 154.322875 230.413225 
L 164.177948 230.413225 
L 164.177948 229.854042 
L 164.45143 229.854042 
L 164.45143 229.29486 
L 164.911863 229.29486 
L 164.911863 228.735678 
L 165.25703 228.735678 
L 165.25703 228.176496 
L 165.391122 228.176496 
L 165.391122 227.058131 
L 165.676426 227.058131 
L 165.676426 226.498949 
L 166.242975 226.498949 
L 166.252749 225.380584 
L 168.217307 225.380584 
L 168.217307 224.821402 
L 168.588027 224.821402 
L 168.588027 224.26222 
L 170.245314 224.26222 
L 170.245314 223.703038 
L 170.376463 223.703038 
L 170.376463 222.584673 
L 176.562297 222.584673 
L 176.66384 221.466309 
L 176.94396 221.466309 
L 176.94396 220.907126 
L 177.116093 220.907126 
L 177.116093 220.347944 
L 177.229897 220.347944 
L 177.250508 219.22958 
L 177.951786 219.22958 
L 177.951786 218.670397 
L 178.245865 218.670397 
L 178.245865 217.552033 
L 178.443959 217.552033 
L 178.443959 216.992851 
L 183.710254 216.992851 
L 183.791364 215.874486 
L 184.280399 215.874486 
L 184.324794 214.756122 
L 185.599578 214.756122 
L 185.599578 214.19694 
L 188.697076 214.19694 
L 188.697076 213.637757 
L 189.133009 213.637757 
L 189.133009 213.078575 
L 189.258845 213.078575 
L 189.258845 212.519393 
L 192.303593 212.519393 
L 192.303593 211.960211 
L 192.729 211.960211 
L 192.779097 210.841846 
L 193.245844 210.841846 
L 193.245844 210.282664 
L 195.064901 210.282664 
L 195.064901 209.723482 
L 195.716508 209.723482 
L 195.727044 208.605117 
L 195.85472 208.605117 
L 195.85472 208.045935 
L 196.132995 208.045935 
L 196.194605 206.92757 
L 198.603809 206.92757 
L 198.69266 205.809206 
L 198.738386 205.809206 
L 198.738386 205.250024 
L 200.81957 205.250024 
L 200.81957 204.690841 
L 202.182464 204.690841 
L 202.182464 204.131659 
L 203.986319 204.131659 
L 203.986319 203.572477 
L 204.246931 203.572477 
L 204.253343 202.454112 
L 204.501541 202.454112 
L 204.501541 201.89493 
L 206.08959 201.89493 
L 206.08959 201.335748 
L 209.33402 201.335748 
L 209.33402 200.776566 
L 210.126826 200.776566 
L 210.126826 200.217384 
L 211.3488 200.217384 
L 211.3488 199.658201 
L 212.198783 199.658201 
L 212.198783 199.099019 
L 213.316416 199.099019 
L 213.316416 198.539837 
L 214.212684 198.539837 
L 214.212684 197.980655 
L 217.629723 197.980655 
L 217.629723 197.421472 
L 218.194821 197.421472 
L 218.194821 196.86229 
L 220.495284 196.86229 
L 220.495284 196.303108 
L 221.707197 196.303108 
L 221.707197 195.743926 
L 226.147875 195.743926 
L 226.147875 195.184743 
L 229.506712 195.184743 
L 229.506712 194.625561 
L 232.702123 194.625561 
L 232.702123 194.066379 
L 232.966983 194.066379 
L 232.966983 193.507197 
L 333.569032 193.507197 
L 333.569032 193.507197 
" style="fill:none;stroke:#6495ed;stroke-linecap:square;stroke-width:1.5;"/>
   </g>
   <g id="line2d_40">
    <defs>
     <path d="M -0 6 
L 6 -6 
L -6 -6 
z
" id="m49e6a587ec" style="stroke:#6495ed;stroke-linejoin:miter;stroke-width:1.5;"/>
    </defs>
    <g>
     <use style="fill-opacity:0;stroke:#6495ed;stroke-linejoin:miter;stroke-width:1.5;" x="87.602435" xlink:href="#m49e6a587ec" y="265.082523"/>
     <use style="fill-opacity:0;stroke:#6495ed;stroke-linejoin:miter;stroke-width:1.5;" x="154.322875" xlink:href="#m49e6a587ec" y="230.972407"/>
     <use style="fill-opacity:0;stroke:#6495ed;stroke-linejoin:miter;stroke-width:1.5;" x="221.707197" xlink:href="#m49e6a587ec" y="196.303108"/>
     <use style="fill-opacity:0;stroke:#6495ed;stroke-linejoin:miter;stroke-width:1.5;" x="232.966983" xlink:href="#m49e6a587ec" y="193.507197"/>
     <use style="fill-opacity:0;stroke:#6495ed;stroke-linejoin:miter;stroke-width:1.5;" x="232.966983" xlink:href="#m49e6a587ec" y="193.507197"/>
     <use style="fill-opacity:0;stroke:#6495ed;stroke-linejoin:miter;stroke-width:1.5;" x="333.569032" xlink:href="#m49e6a587ec" y="193.507197"/>
    </g>
   </g>
   <g id="line2d_41">
    <path style="fill:none;stroke:#6495ed;stroke-linecap:square;stroke-width:1.5;"/>
    <g/>
   </g>
   <g id="line2d_42">
    <path clip-path="url(#pbbdd595e4b)" d="M 164.100586 230.413225 
" style="fill:none;stroke:#6495ed;stroke-linecap:square;stroke-width:1.5;"/>
    <defs>
     <path d="M -12 12 
L 12 -12 
M -12 -12 
L 12 12 
" id="md4d73db23e" style="stroke:#6495ed;stroke-width:3;"/>
    </defs>
    <g clip-path="url(#pbbdd595e4b)">
     <use style="fill:#6495ed;stroke:#6495ed;stroke-width:3;" x="164.100586" xlink:href="#md4d73db23e" y="230.413225"/>
    </g>
   </g>
   <g id="line2d_43">
    <path d="M 333.569032 210.282664 
L 364.009226 288.456341 
" style="fill:none;stroke:#ffa500;stroke-linecap:square;stroke-width:1.5;"/>
    <g>
     <use style="fill-opacity:0;stroke:#ffa500;stroke-linejoin:bevel;stroke-width:1.5;" x="333.569032" xlink:href="#mbdec625326" y="210.282664"/>
     <use style="fill-opacity:0;stroke:#ffa500;stroke-linejoin:bevel;stroke-width:1.5;" x="364.009226" xlink:href="#mbdec625326" y="288.456341"/>
    </g>
   </g>
   <g id="line2d_44">
    <path d="M 333.569032 193.507197 
L 364.009226 197.197799 
" style="fill:none;stroke:#6495ed;stroke-linecap:square;stroke-width:1.5;"/>
    <g>
     <use style="fill-opacity:0;stroke:#6495ed;stroke-linejoin:miter;stroke-width:1.5;" x="333.569032" xlink:href="#m49e6a587ec" y="193.507197"/>
     <use style="fill-opacity:0;stroke:#6495ed;stroke-linejoin:miter;stroke-width:1.5;" x="364.009226" xlink:href="#m49e6a587ec" y="197.197799"/>
    </g>
   </g>
   <g id="line2d_45">
    <path d="M 333.569032 187.915374 
L 364.009226 105.939258 
" style="fill:none;stroke:#ff00ff;stroke-linecap:square;stroke-width:1.5;"/>
    <g>
     <use style="fill-opacity:0;stroke:#ff00ff;stroke-linejoin:miter;stroke-width:1.5;" x="333.569032" xlink:href="#m854bfc7f9e" y="187.915374"/>
     <use style="fill-opacity:0;stroke:#ff00ff;stroke-linejoin:miter;stroke-width:1.5;" x="364.009226" xlink:href="#m854bfc7f9e" y="105.939258"/>
    </g>
   </g>
   <g id="line2d_46">
    <path d="M 333.569032 126.405328 
L 364.009226 14.680716 
" style="fill:none;stroke:#000080;stroke-linecap:square;stroke-width:1.5;"/>
    <g>
     <use style="fill-opacity:0;stroke:#000080;stroke-width:1.5;" x="333.569032" xlink:href="#m48df0d6086" y="126.405328"/>
     <use style="fill-opacity:0;stroke:#000080;stroke-width:1.5;" x="364.009226" xlink:href="#m48df0d6086" y="14.680716"/>
    </g>
   </g>
   <g id="line2d_47">
    <path d="M 333.569032 294.16 
L 333.569032 8.977057 
" style="fill:none;stroke:#000000;stroke-linecap:square;stroke-width:1.5;"/>
   </g>
   <g id="patch_3">
    <path d="M 56.84 294.16 
L 56.84 6.125228 
" style="fill:none;stroke:#000000;stroke-linecap:square;stroke-linejoin:miter;stroke-width:0.8;"/>
   </g>
   <g id="patch_4">
    <path d="M 399.984 294.16 
L 399.984 6.125228 
" style="fill:none;stroke:#000000;stroke-linecap:square;stroke-linejoin:miter;stroke-width:0.8;"/>
   </g>
   <g id="patch_5">
    <path d="M 56.84 294.16 
L 399.984 294.16 
" style="fill:none;stroke:#000000;stroke-linecap:square;stroke-linejoin:miter;stroke-width:0.8;"/>
   </g>
   <g id="patch_6">
    <path d="M 56.84 6.125228 
L 399.984 6.125228 
" style="fill:none;stroke:#000000;stroke-linecap:square;stroke-linejoin:miter;stroke-width:0.8;"/>
   </g>
   <g id="text_14">
    <!-- f6 -->
    <g transform="translate(369.543806 293.147279)scale(0.17 -0.17)">
     <use xlink:href="#DejaVuSans-66"/>
     <use x="35.205078" xlink:href="#DejaVuSans-36"/>
    </g>
   </g>
   <g id="text_15">
    <!-- f7 -->
    <defs>
     <path d="M 8.203125 72.90625 
L 55.078125 72.90625 
L 55.078125 68.703125 
L 28.609375 0 
L 18.3125 0 
L 43.21875 64.59375 
L 8.203125 64.59375 
z
" id="DejaVuSans-37"/>
    </defs>
    <g transform="translate(369.543806 201.888737)scale(0.17 -0.17)">
     <use xlink:href="#DejaVuSans-66"/>
     <use x="35.205078" xlink:href="#DejaVuSans-37"/>
    </g>
   </g>
   <g id="text_16">
    <!-- f9 -->
    <defs>
     <path d="M 10.984375 1.515625 
L 10.984375 10.5 
Q 14.703125 8.734375 18.5 7.8125 
Q 22.3125 6.890625 25.984375 6.890625 
Q 35.75 6.890625 40.890625 13.453125 
Q 46.046875 20.015625 46.78125 33.40625 
Q 43.953125 29.203125 39.59375 26.953125 
Q 35.25 24.703125 29.984375 24.703125 
Q 19.046875 24.703125 12.671875 31.3125 
Q 6.296875 37.9375 6.296875 49.421875 
Q 6.296875 60.640625 12.9375 67.421875 
Q 19.578125 74.21875 30.609375 74.21875 
Q 43.265625 74.21875 49.921875 64.515625 
Q 56.59375 54.828125 56.59375 36.375 
Q 56.59375 19.140625 48.40625 8.859375 
Q 40.234375 -1.421875 26.421875 -1.421875 
Q 22.703125 -1.421875 18.890625 -0.6875 
Q 15.09375 0.046875 10.984375 1.515625 
z
M 30.609375 32.421875 
Q 37.25 32.421875 41.125 36.953125 
Q 45.015625 41.5 45.015625 49.421875 
Q 45.015625 57.28125 41.125 61.84375 
Q 37.25 66.40625 30.609375 66.40625 
Q 23.96875 66.40625 20.09375 61.84375 
Q 16.21875 57.28125 16.21875 49.421875 
Q 16.21875 41.5 20.09375 36.953125 
Q 23.96875 32.421875 30.609375 32.421875 
z
" id="DejaVuSans-39"/>
    </defs>
    <g transform="translate(369.543806 110.630195)scale(0.17 -0.17)">
     <use xlink:href="#DejaVuSans-66"/>
     <use x="35.205078" xlink:href="#DejaVuSans-39"/>
    </g>
   </g>
   <g id="text_17">
    <!-- f8 -->
    <g transform="translate(369.543806 19.371654)scale(0.17 -0.17)">
     <use xlink:href="#DejaVuSans-66"/>
     <use x="35.205078" xlink:href="#DejaVuSans-38"/>
    </g>
   </g>
   <g id="text_18">
    <!-- bbob -->
    <defs>
     <path d="M 48.6875 27.296875 
Q 48.6875 37.203125 44.609375 42.84375 
Q 40.53125 48.484375 33.40625 48.484375 
Q 26.265625 48.484375 22.1875 42.84375 
Q 18.109375 37.203125 18.109375 27.296875 
Q 18.109375 17.390625 22.1875 11.75 
Q 26.265625 6.109375 33.40625 6.109375 
Q 40.53125 6.109375 44.609375 11.75 
Q 48.6875 17.390625 48.6875 27.296875 
z
M 18.109375 46.390625 
Q 20.953125 51.265625 25.265625 53.625 
Q 29.59375 56 35.59375 56 
Q 45.5625 56 51.78125 48.09375 
Q 58.015625 40.1875 58.015625 27.296875 
Q 58.015625 14.40625 51.78125 6.484375 
Q 45.5625 -1.421875 35.59375 -1.421875 
Q 29.59375 -1.421875 25.265625 0.953125 
Q 20.953125 3.328125 18.109375 8.203125 
L 18.109375 0 
L 9.078125 0 
L 9.078125 75.984375 
L 18.109375 75.984375 
z
" id="DejaVuSans-62"/>
    </defs>
    <g transform="translate(60.27144 16.755982)scale(0.102 -0.102)">
     <use xlink:href="#DejaVuSans-62"/>
     <use x="63.476562" xlink:href="#DejaVuSans-62"/>
     <use x="126.953125" xlink:href="#DejaVuSans-6f"/>
     <use x="188.134766" xlink:href="#DejaVuSans-62"/>
    </g>
    <!-- Misc. moderate functions, 3-D -->
    <defs>
     <path d="M 9.8125 72.90625 
L 24.515625 72.90625 
L 43.109375 23.296875 
L 61.8125 72.90625 
L 76.515625 72.90625 
L 76.515625 0 
L 66.890625 0 
L 66.890625 64.015625 
L 48.09375 14.015625 
L 38.1875 14.015625 
L 19.390625 64.015625 
L 19.390625 0 
L 9.8125 0 
z
" id="DejaVuSans-4d"/>
     <path d="M 40.578125 39.3125 
Q 47.65625 37.796875 51.625 33 
Q 55.609375 28.21875 55.609375 21.1875 
Q 55.609375 10.40625 48.1875 4.484375 
Q 40.765625 -1.421875 27.09375 -1.421875 
Q 22.515625 -1.421875 17.65625 -0.515625 
Q 12.796875 0.390625 7.625 2.203125 
L 7.625 11.71875 
Q 11.71875 9.328125 16.59375 8.109375 
Q 21.484375 6.890625 26.8125 6.890625 
Q 36.078125 6.890625 40.9375 10.546875 
Q 45.796875 14.203125 45.796875 21.1875 
Q 45.796875 27.640625 41.28125 31.265625 
Q 36.765625 34.90625 28.71875 34.90625 
L 20.21875 34.90625 
L 20.21875 43.015625 
L 29.109375 43.015625 
Q 36.375 43.015625 40.234375 45.921875 
Q 44.09375 48.828125 44.09375 54.296875 
Q 44.09375 59.90625 40.109375 62.90625 
Q 36.140625 65.921875 28.71875 65.921875 
Q 24.65625 65.921875 20.015625 65.03125 
Q 15.375 64.15625 9.8125 62.3125 
L 9.8125 71.09375 
Q 15.4375 72.65625 20.34375 73.4375 
Q 25.25 74.21875 29.59375 74.21875 
Q 40.828125 74.21875 47.359375 69.109375 
Q 53.90625 64.015625 53.90625 55.328125 
Q 53.90625 49.265625 50.4375 45.09375 
Q 46.96875 40.921875 40.578125 39.3125 
z
" id="DejaVuSans-33"/>
     <path d="M 19.671875 64.796875 
L 19.671875 8.109375 
L 31.59375 8.109375 
Q 46.6875 8.109375 53.6875 14.9375 
Q 60.6875 21.78125 60.6875 36.53125 
Q 60.6875 51.171875 53.6875 57.984375 
Q 46.6875 64.796875 31.59375 64.796875 
z
M 9.8125 72.90625 
L 30.078125 72.90625 
Q 51.265625 72.90625 61.171875 64.09375 
Q 71.09375 55.28125 71.09375 36.53125 
Q 71.09375 17.671875 61.125 8.828125 
Q 51.171875 0 30.078125 0 
L 9.8125 0 
z
" id="DejaVuSans-44"/>
    </defs>
    <g transform="translate(60.27144 28.17775)scale(0.102 -0.102)">
     <use xlink:href="#DejaVuSans-4d"/>
     <use x="86.279297" xlink:href="#DejaVuSans-69"/>
     <use x="114.0625" xlink:href="#DejaVuSans-73"/>
     <use x="166.162109" xlink:href="#DejaVuSans-63"/>
     <use x="221.142578" xlink:href="#DejaVuSans-2e"/>
     <use x="252.929688" xlink:href="#DejaVuSans-20"/>
     <use x="284.716797" xlink:href="#DejaVuSans-6d"/>
     <use x="382.128906" xlink:href="#DejaVuSans-6f"/>
     <use x="443.310547" xlink:href="#DejaVuSans-64"/>
     <use x="506.787109" xlink:href="#DejaVuSans-65"/>
     <use x="568.310547" xlink:href="#DejaVuSans-72"/>
     <use x="609.423828" xlink:href="#DejaVuSans-61"/>
     <use x="670.703125" xlink:href="#DejaVuSans-74"/>
     <use x="709.912109" xlink:href="#DejaVuSans-65"/>
     <use x="771.435547" xlink:href="#DejaVuSans-20"/>
     <use x="803.222656" xlink:href="#DejaVuSans-66"/>
     <use x="838.427734" xlink:href="#DejaVuSans-75"/>
     <use x="901.806641" xlink:href="#DejaVuSans-6e"/>
     <use x="965.185547" xlink:href="#DejaVuSans-63"/>
     <use x="1020.166016" xlink:href="#DejaVuSans-74"/>
     <use x="1059.375" xlink:href="#DejaVuSans-69"/>
     <use x="1087.158203" xlink:href="#DejaVuSans-6f"/>
     <use x="1148.339844" xlink:href="#DejaVuSans-6e"/>
     <use x="1211.71875" xlink:href="#DejaVuSans-73"/>
     <use x="1263.818359" xlink:href="#DejaVuSans-2c"/>
     <use x="1295.605469" xlink:href="#DejaVuSans-20"/>
     <use x="1327.392578" xlink:href="#DejaVuSans-33"/>
     <use x="1391.015625" xlink:href="#DejaVuSans-2d"/>
     <use x="1427.099609" xlink:href="#DejaVuSans-44"/>
    </g>
    <!-- 51 targets: 100..1e-08 -->
    <defs>
     <path d="M 10.796875 72.90625 
L 49.515625 72.90625 
L 49.515625 64.59375 
L 19.828125 64.59375 
L 19.828125 46.734375 
Q 21.96875 47.46875 24.109375 47.828125 
Q 26.265625 48.1875 28.421875 48.1875 
Q 40.625 48.1875 47.75 41.5 
Q 54.890625 34.8125 54.890625 23.390625 
Q 54.890625 11.625 47.5625 5.09375 
Q 40.234375 -1.421875 26.90625 -1.421875 
Q 22.3125 -1.421875 17.546875 -0.640625 
Q 12.796875 0.140625 7.71875 1.703125 
L 7.71875 11.625 
Q 12.109375 9.234375 16.796875 8.0625 
Q 21.484375 6.890625 26.703125 6.890625 
Q 35.15625 6.890625 40.078125 11.328125 
Q 45.015625 15.765625 45.015625 23.390625 
Q 45.015625 31 40.078125 35.4375 
Q 35.15625 39.890625 26.703125 39.890625 
Q 22.75 39.890625 18.8125 39.015625 
Q 14.890625 38.140625 10.796875 36.28125 
z
" id="DejaVuSans-35"/>
     <path d="M 11.71875 12.40625 
L 22.015625 12.40625 
L 22.015625 0 
L 11.71875 0 
z
M 11.71875 51.703125 
L 22.015625 51.703125 
L 22.015625 39.3125 
L 11.71875 39.3125 
z
" id="DejaVuSans-3a"/>
    </defs>
    <g transform="translate(60.27144 39.599519)scale(0.102 -0.102)">
     <use xlink:href="#DejaVuSans-35"/>
     <use x="63.623047" xlink:href="#DejaVuSans-31"/>
     <use x="127.246094" xlink:href="#DejaVuSans-20"/>
     <use x="159.033203" xlink:href="#DejaVuSans-74"/>
     <use x="198.242188" xlink:href="#DejaVuSans-61"/>
     <use x="259.521484" xlink:href="#DejaVuSans-72"/>
     <use x="300.619141" xlink:href="#DejaVuSans-67"/>
     <use x="364.095703" xlink:href="#DejaVuSans-65"/>
     <use x="425.619141" xlink:href="#DejaVuSans-74"/>
     <use x="464.828125" xlink:href="#DejaVuSans-73"/>
     <use x="516.927734" xlink:href="#DejaVuSans-3a"/>
     <use x="550.619141" xlink:href="#DejaVuSans-20"/>
     <use x="582.40625" xlink:href="#DejaVuSans-31"/>
     <use x="646.029297" xlink:href="#DejaVuSans-30"/>
     <use x="709.652344" xlink:href="#DejaVuSans-30"/>
     <use x="773.275391" xlink:href="#DejaVuSans-2e"/>
     <use x="805.0625" xlink:href="#DejaVuSans-2e"/>
     <use x="836.849609" xlink:href="#DejaVuSans-31"/>
     <use x="900.472656" xlink:href="#DejaVuSans-65"/>
     <use x="961.996094" xlink:href="#DejaVuSans-2d"/>
     <use x="998.080078" xlink:href="#DejaVuSans-30"/>
     <use x="1061.703125" xlink:href="#DejaVuSans-38"/>
    </g>
    <!-- 45 instances -->
    <g transform="translate(60.27144 51.021288)scale(0.102 -0.102)">
     <use xlink:href="#DejaVuSans-34"/>
     <use x="63.623047" xlink:href="#DejaVuSans-35"/>
     <use x="127.246094" xlink:href="#DejaVuSans-20"/>
     <use x="159.033203" xlink:href="#DejaVuSans-69"/>
     <use x="186.816406" xlink:href="#DejaVuSans-6e"/>
     <use x="250.195312" xlink:href="#DejaVuSans-73"/>
     <use x="302.294922" xlink:href="#DejaVuSans-74"/>
     <use x="341.503906" xlink:href="#DejaVuSans-61"/>
     <use x="402.783203" xlink:href="#DejaVuSans-6e"/>
     <use x="466.162109" xlink:href="#DejaVuSans-63"/>
     <use x="521.142578" xlink:href="#DejaVuSans-65"/>
     <use x="582.666016" xlink:href="#DejaVuSans-73"/>
    </g>
   </g>
   <g id="text_19">
    <!-- v2.2.1.10 -->
    <g style="fill:#808080;" transform="translate(204.779188 289.199965)scale(0.1 -0.1)">
     <use xlink:href="#DejaVuSans-76"/>
     <use x="59.179688" xlink:href="#DejaVuSans-32"/>
     <use x="122.802734" xlink:href="#DejaVuSans-2e"/>
     <use x="154.589844" xlink:href="#DejaVuSans-32"/>
     <use x="218.212891" xlink:href="#DejaVuSans-2e"/>
     <use x="250" xlink:href="#DejaVuSans-31"/>
     <use x="313.623047" xlink:href="#DejaVuSans-2e"/>
     <use x="345.410156" xlink:href="#DejaVuSans-31"/>
     <use x="409.033203" xlink:href="#DejaVuSans-30"/>
    </g>
   </g>
  </g>
 </g>
 <defs>
  <clipPath id="pbbdd595e4b">
   <rect height="288.034772" width="343.144" x="56.84" y="6.125228"/>
  </clipPath>
 </defs>
</svg>
