<?xml version="1.0" encoding="utf-8" standalone="no"?>
<!DOCTYPE svg PUBLIC "-//W3C//DTD SVG 1.1//EN"
  "http://www.w3.org/Graphics/SVG/1.1/DTD/svg11.dtd">
<!-- Created with matplotlib (http://matplotlib.org/) -->
<svg height="345.6pt" version="1.1" viewBox="0 0 460.8 345.6" width="460.8pt" xmlns="http://www.w3.org/2000/svg" xmlns:xlink="http://www.w3.org/1999/xlink">
 <defs>
  <style type="text/css">
*{stroke-linecap:butt;stroke-linejoin:round;}
  </style>
 </defs>
 <g id="figure_1">
  <g id="patch_1">
   <path d="M 0 345.6 
L 460.8 345.6 
L 460.8 0 
L 0 0 
z
" style="fill:#ffffff;"/>
  </g>
  <g id="axes_1">
   <g id="patch_2">
    <path d="M 56.84 294.16 
L 399.984 294.16 
L 399.984 24.84 
L 56.84 24.84 
z
" style="fill:#ffffff;"/>
   </g>
   <g id="matplotlib.axis_1">
    <g id="xtick_1">
     <g id="line2d_1">
      <path clip-path="url(#p2d0b00dc79)" d="M 56.84 294.16 
L 56.84 24.84 
" style="fill:none;stroke:#b0b0b0;stroke-linecap:square;stroke-width:0.8;"/>
     </g>
     <g id="line2d_2">
      <defs>
       <path d="M 0 0 
L 0 3.5 
" id="mc1dfe261e2" style="stroke:#000000;stroke-width:0.8;"/>
      </defs>
      <g>
       <use style="stroke:#000000;stroke-width:0.8;" x="56.84" xlink:href="#mc1dfe261e2" y="294.16"/>
      </g>
     </g>
     <g id="text_1">
      <!-- 0 -->
      <defs>
       <path d="M 31.78125 66.40625 
Q 24.171875 66.40625 20.328125 58.90625 
Q 16.5 51.421875 16.5 36.375 
Q 16.5 21.390625 20.328125 13.890625 
Q 24.171875 6.390625 31.78125 6.390625 
Q 39.453125 6.390625 43.28125 13.890625 
Q 47.125 21.390625 47.125 36.375 
Q 47.125 51.421875 43.28125 58.90625 
Q 39.453125 66.40625 31.78125 66.40625 
z
M 31.78125 74.21875 
Q 44.046875 74.21875 50.515625 64.515625 
Q 56.984375 54.828125 56.984375 36.375 
Q 56.984375 17.96875 50.515625 8.265625 
Q 44.046875 -1.421875 31.78125 -1.421875 
Q 19.53125 -1.421875 13.0625 8.265625 
Q 6.59375 17.96875 6.59375 36.375 
Q 6.59375 54.828125 13.0625 64.515625 
Q 19.53125 74.21875 31.78125 74.21875 
z
" id="DejaVuSans-30"/>
      </defs>
      <g transform="translate(50.4775 316.356875)scale(0.2 -0.2)">
       <use xlink:href="#DejaVuSans-30"/>
      </g>
     </g>
    </g>
    <g id="xtick_2">
     <g id="line2d_3">
      <path clip-path="url(#p2d0b00dc79)" d="M 135.905438 294.16 
L 135.905438 24.84 
" style="fill:none;stroke:#b0b0b0;stroke-linecap:square;stroke-width:0.8;"/>
     </g>
     <g id="line2d_4">
      <g>
       <use style="stroke:#000000;stroke-width:0.8;" x="135.905438" xlink:href="#mc1dfe261e2" y="294.16"/>
      </g>
     </g>
     <g id="text_2">
      <!-- 2 -->
      <defs>
       <path d="M 19.1875 8.296875 
L 53.609375 8.296875 
L 53.609375 0 
L 7.328125 0 
L 7.328125 8.296875 
Q 12.9375 14.109375 22.625 23.890625 
Q 32.328125 33.6875 34.8125 36.53125 
Q 39.546875 41.84375 41.421875 45.53125 
Q 43.3125 49.21875 43.3125 52.78125 
Q 43.3125 58.59375 39.234375 62.25 
Q 35.15625 65.921875 28.609375 65.921875 
Q 23.96875 65.921875 18.8125 64.3125 
Q 13.671875 62.703125 7.8125 59.421875 
L 7.8125 69.390625 
Q 13.765625 71.78125 18.9375 73 
Q 24.125 74.21875 28.421875 74.21875 
Q 39.75 74.21875 46.484375 68.546875 
Q 53.21875 62.890625 53.21875 53.421875 
Q 53.21875 48.921875 51.53125 44.890625 
Q 49.859375 40.875 45.40625 35.40625 
Q 44.1875 33.984375 37.640625 27.21875 
Q 31.109375 20.453125 19.1875 8.296875 
z
" id="DejaVuSans-32"/>
      </defs>
      <g transform="translate(129.542938 316.356875)scale(0.2 -0.2)">
       <use xlink:href="#DejaVuSans-32"/>
      </g>
     </g>
    </g>
    <g id="xtick_3">
     <g id="line2d_5">
      <path clip-path="url(#p2d0b00dc79)" d="M 214.970876 294.16 
L 214.970876 24.84 
" style="fill:none;stroke:#b0b0b0;stroke-linecap:square;stroke-width:0.8;"/>
     </g>
     <g id="line2d_6">
      <g>
       <use style="stroke:#000000;stroke-width:0.8;" x="214.970876" xlink:href="#mc1dfe261e2" y="294.16"/>
      </g>
     </g>
     <g id="text_3">
      <!-- 4 -->
      <defs>
       <path d="M 37.796875 64.3125 
L 12.890625 25.390625 
L 37.796875 25.390625 
z
M 35.203125 72.90625 
L 47.609375 72.90625 
L 47.609375 25.390625 
L 58.015625 25.390625 
L 58.015625 17.1875 
L 47.609375 17.1875 
L 47.609375 0 
L 37.796875 0 
L 37.796875 17.1875 
L 4.890625 17.1875 
L 4.890625 26.703125 
z
" id="DejaVuSans-34"/>
      </defs>
      <g transform="translate(208.608376 316.356875)scale(0.2 -0.2)">
       <use xlink:href="#DejaVuSans-34"/>
      </g>
     </g>
    </g>
    <g id="xtick_4">
     <g id="line2d_7">
      <path clip-path="url(#p2d0b00dc79)" d="M 294.036313 294.16 
L 294.036313 24.84 
" style="fill:none;stroke:#b0b0b0;stroke-linecap:square;stroke-width:0.8;"/>
     </g>
     <g id="line2d_8">
      <g>
       <use style="stroke:#000000;stroke-width:0.8;" x="294.036313" xlink:href="#mc1dfe261e2" y="294.16"/>
      </g>
     </g>
     <g id="text_4">
      <!-- 6 -->
      <defs>
       <path d="M 33.015625 40.375 
Q 26.375 40.375 22.484375 35.828125 
Q 18.609375 31.296875 18.609375 23.390625 
Q 18.609375 15.53125 22.484375 10.953125 
Q 26.375 6.390625 33.015625 6.390625 
Q 39.65625 6.390625 43.53125 10.953125 
Q 47.40625 15.53125 47.40625 23.390625 
Q 47.40625 31.296875 43.53125 35.828125 
Q 39.65625 40.375 33.015625 40.375 
z
M 52.59375 71.296875 
L 52.59375 62.3125 
Q 48.875 64.0625 45.09375 64.984375 
Q 41.3125 65.921875 37.59375 65.921875 
Q 27.828125 65.921875 22.671875 59.328125 
Q 17.53125 52.734375 16.796875 39.40625 
Q 19.671875 43.65625 24.015625 45.921875 
Q 28.375 48.1875 33.59375 48.1875 
Q 44.578125 48.1875 50.953125 41.515625 
Q 57.328125 34.859375 57.328125 23.390625 
Q 57.328125 12.15625 50.6875 5.359375 
Q 44.046875 -1.421875 33.015625 -1.421875 
Q 20.359375 -1.421875 13.671875 8.265625 
Q 6.984375 17.96875 6.984375 36.375 
Q 6.984375 53.65625 15.1875 63.9375 
Q 23.390625 74.21875 37.203125 74.21875 
Q 40.921875 74.21875 44.703125 73.484375 
Q 48.484375 72.75 52.59375 71.296875 
z
" id="DejaVuSans-36"/>
      </defs>
      <g transform="translate(287.673813 316.356875)scale(0.2 -0.2)">
       <use xlink:href="#DejaVuSans-36"/>
      </g>
     </g>
    </g>
    <g id="xtick_5">
     <g id="line2d_9">
      <path clip-path="url(#p2d0b00dc79)" d="M 373.101751 294.16 
L 373.101751 24.84 
" style="fill:none;stroke:#b0b0b0;stroke-linecap:square;stroke-width:0.8;"/>
     </g>
     <g id="line2d_10">
      <g>
       <use style="stroke:#000000;stroke-width:0.8;" x="373.101751" xlink:href="#mc1dfe261e2" y="294.16"/>
      </g>
     </g>
     <g id="text_5">
      <!-- 8 -->
      <defs>
       <path d="M 31.78125 34.625 
Q 24.75 34.625 20.71875 30.859375 
Q 16.703125 27.09375 16.703125 20.515625 
Q 16.703125 13.921875 20.71875 10.15625 
Q 24.75 6.390625 31.78125 6.390625 
Q 38.8125 6.390625 42.859375 10.171875 
Q 46.921875 13.96875 46.921875 20.515625 
Q 46.921875 27.09375 42.890625 30.859375 
Q 38.875 34.625 31.78125 34.625 
z
M 21.921875 38.8125 
Q 15.578125 40.375 12.03125 44.71875 
Q 8.5 49.078125 8.5 55.328125 
Q 8.5 64.0625 14.71875 69.140625 
Q 20.953125 74.21875 31.78125 74.21875 
Q 42.671875 74.21875 48.875 69.140625 
Q 55.078125 64.0625 55.078125 55.328125 
Q 55.078125 49.078125 51.53125 44.71875 
Q 48 40.375 41.703125 38.8125 
Q 48.828125 37.15625 52.796875 32.3125 
Q 56.78125 27.484375 56.78125 20.515625 
Q 56.78125 9.90625 50.3125 4.234375 
Q 43.84375 -1.421875 31.78125 -1.421875 
Q 19.734375 -1.421875 13.25 4.234375 
Q 6.78125 9.90625 6.78125 20.515625 
Q 6.78125 27.484375 10.78125 32.3125 
Q 14.796875 37.15625 21.921875 38.8125 
z
M 18.3125 54.390625 
Q 18.3125 48.734375 21.84375 45.5625 
Q 25.390625 42.390625 31.78125 42.390625 
Q 38.140625 42.390625 41.71875 45.5625 
Q 45.3125 48.734375 45.3125 54.390625 
Q 45.3125 60.0625 41.71875 63.234375 
Q 38.140625 66.40625 31.78125 66.40625 
Q 25.390625 66.40625 21.84375 63.234375 
Q 18.3125 60.0625 18.3125 54.390625 
z
" id="DejaVuSans-38"/>
      </defs>
      <g transform="translate(366.739251 316.356875)scale(0.2 -0.2)">
       <use xlink:href="#DejaVuSans-38"/>
      </g>
     </g>
    </g>
    <g id="text_6">
     <!-- log10(# f-evals / dimension) -->
     <defs>
      <path d="M 9.421875 75.984375 
L 18.40625 75.984375 
L 18.40625 0 
L 9.421875 0 
z
" id="DejaVuSans-6c"/>
      <path d="M 30.609375 48.390625 
Q 23.390625 48.390625 19.1875 42.75 
Q 14.984375 37.109375 14.984375 27.296875 
Q 14.984375 17.484375 19.15625 11.84375 
Q 23.34375 6.203125 30.609375 6.203125 
Q 37.796875 6.203125 41.984375 11.859375 
Q 46.1875 17.53125 46.1875 27.296875 
Q 46.1875 37.015625 41.984375 42.703125 
Q 37.796875 48.390625 30.609375 48.390625 
z
M 30.609375 56 
Q 42.328125 56 49.015625 48.375 
Q 55.71875 40.765625 55.71875 27.296875 
Q 55.71875 13.875 49.015625 6.21875 
Q 42.328125 -1.421875 30.609375 -1.421875 
Q 18.84375 -1.421875 12.171875 6.21875 
Q 5.515625 13.875 5.515625 27.296875 
Q 5.515625 40.765625 12.171875 48.375 
Q 18.84375 56 30.609375 56 
z
" id="DejaVuSans-6f"/>
      <path d="M 45.40625 27.984375 
Q 45.40625 37.75 41.375 43.109375 
Q 37.359375 48.484375 30.078125 48.484375 
Q 22.859375 48.484375 18.828125 43.109375 
Q 14.796875 37.75 14.796875 27.984375 
Q 14.796875 18.265625 18.828125 12.890625 
Q 22.859375 7.515625 30.078125 7.515625 
Q 37.359375 7.515625 41.375 12.890625 
Q 45.40625 18.265625 45.40625 27.984375 
z
M 54.390625 6.78125 
Q 54.390625 -7.171875 48.1875 -13.984375 
Q 42 -20.796875 29.203125 -20.796875 
Q 24.46875 -20.796875 20.265625 -20.09375 
Q 16.0625 -19.390625 12.109375 -17.921875 
L 12.109375 -9.1875 
Q 16.0625 -11.328125 19.921875 -12.34375 
Q 23.78125 -13.375 27.78125 -13.375 
Q 36.625 -13.375 41.015625 -8.765625 
Q 45.40625 -4.15625 45.40625 5.171875 
L 45.40625 9.625 
Q 42.625 4.78125 38.28125 2.390625 
Q 33.9375 0 27.875 0 
Q 17.828125 0 11.671875 7.65625 
Q 5.515625 15.328125 5.515625 27.984375 
Q 5.515625 40.671875 11.671875 48.328125 
Q 17.828125 56 27.875 56 
Q 33.9375 56 38.28125 53.609375 
Q 42.625 51.21875 45.40625 46.390625 
L 45.40625 54.6875 
L 54.390625 54.6875 
z
" id="DejaVuSans-67"/>
      <path d="M 12.40625 8.296875 
L 28.515625 8.296875 
L 28.515625 63.921875 
L 10.984375 60.40625 
L 10.984375 69.390625 
L 28.421875 72.90625 
L 38.28125 72.90625 
L 38.28125 8.296875 
L 54.390625 8.296875 
L 54.390625 0 
L 12.40625 0 
z
" id="DejaVuSans-31"/>
      <path d="M 31 75.875 
Q 24.46875 64.65625 21.28125 53.65625 
Q 18.109375 42.671875 18.109375 31.390625 
Q 18.109375 20.125 21.3125 9.0625 
Q 24.515625 -2 31 -13.1875 
L 23.1875 -13.1875 
Q 15.875 -1.703125 12.234375 9.375 
Q 8.59375 20.453125 8.59375 31.390625 
Q 8.59375 42.28125 12.203125 53.3125 
Q 15.828125 64.359375 23.1875 75.875 
z
" id="DejaVuSans-28"/>
      <path d="M 51.125 44 
L 36.921875 44 
L 32.8125 27.6875 
L 47.125 27.6875 
z
M 43.796875 71.78125 
L 38.71875 51.515625 
L 52.984375 51.515625 
L 58.109375 71.78125 
L 65.921875 71.78125 
L 60.890625 51.515625 
L 76.125 51.515625 
L 76.125 44 
L 58.984375 44 
L 54.984375 27.6875 
L 70.515625 27.6875 
L 70.515625 20.21875 
L 53.078125 20.21875 
L 48 0 
L 40.1875 0 
L 45.21875 20.21875 
L 30.90625 20.21875 
L 25.875 0 
L 18.015625 0 
L 23.09375 20.21875 
L 7.71875 20.21875 
L 7.71875 27.6875 
L 24.90625 27.6875 
L 29 44 
L 13.28125 44 
L 13.28125 51.515625 
L 30.90625 51.515625 
L 35.890625 71.78125 
z
" id="DejaVuSans-23"/>
      <path id="DejaVuSans-20"/>
      <path d="M 37.109375 75.984375 
L 37.109375 68.5 
L 28.515625 68.5 
Q 23.6875 68.5 21.796875 66.546875 
Q 19.921875 64.59375 19.921875 59.515625 
L 19.921875 54.6875 
L 34.71875 54.6875 
L 34.71875 47.703125 
L 19.921875 47.703125 
L 19.921875 0 
L 10.890625 0 
L 10.890625 47.703125 
L 2.296875 47.703125 
L 2.296875 54.6875 
L 10.890625 54.6875 
L 10.890625 58.5 
Q 10.890625 67.625 15.140625 71.796875 
Q 19.390625 75.984375 28.609375 75.984375 
z
" id="DejaVuSans-66"/>
      <path d="M 4.890625 31.390625 
L 31.203125 31.390625 
L 31.203125 23.390625 
L 4.890625 23.390625 
z
" id="DejaVuSans-2d"/>
      <path d="M 56.203125 29.59375 
L 56.203125 25.203125 
L 14.890625 25.203125 
Q 15.484375 15.921875 20.484375 11.0625 
Q 25.484375 6.203125 34.421875 6.203125 
Q 39.59375 6.203125 44.453125 7.46875 
Q 49.3125 8.734375 54.109375 11.28125 
L 54.109375 2.78125 
Q 49.265625 0.734375 44.1875 -0.34375 
Q 39.109375 -1.421875 33.890625 -1.421875 
Q 20.796875 -1.421875 13.15625 6.1875 
Q 5.515625 13.8125 5.515625 26.8125 
Q 5.515625 40.234375 12.765625 48.109375 
Q 20.015625 56 32.328125 56 
Q 43.359375 56 49.78125 48.890625 
Q 56.203125 41.796875 56.203125 29.59375 
z
M 47.21875 32.234375 
Q 47.125 39.59375 43.09375 43.984375 
Q 39.0625 48.390625 32.421875 48.390625 
Q 24.90625 48.390625 20.390625 44.140625 
Q 15.875 39.890625 15.1875 32.171875 
z
" id="DejaVuSans-65"/>
      <path d="M 2.984375 54.6875 
L 12.5 54.6875 
L 29.59375 8.796875 
L 46.6875 54.6875 
L 56.203125 54.6875 
L 35.6875 0 
L 23.484375 0 
z
" id="DejaVuSans-76"/>
      <path d="M 34.28125 27.484375 
Q 23.390625 27.484375 19.1875 25 
Q 14.984375 22.515625 14.984375 16.5 
Q 14.984375 11.71875 18.140625 8.90625 
Q 21.296875 6.109375 26.703125 6.109375 
Q 34.1875 6.109375 38.703125 11.40625 
Q 43.21875 16.703125 43.21875 25.484375 
L 43.21875 27.484375 
z
M 52.203125 31.203125 
L 52.203125 0 
L 43.21875 0 
L 43.21875 8.296875 
Q 40.140625 3.328125 35.546875 0.953125 
Q 30.953125 -1.421875 24.3125 -1.421875 
Q 15.921875 -1.421875 10.953125 3.296875 
Q 6 8.015625 6 15.921875 
Q 6 25.140625 12.171875 29.828125 
Q 18.359375 34.515625 30.609375 34.515625 
L 43.21875 34.515625 
L 43.21875 35.40625 
Q 43.21875 41.609375 39.140625 45 
Q 35.0625 48.390625 27.6875 48.390625 
Q 23 48.390625 18.546875 47.265625 
Q 14.109375 46.140625 10.015625 43.890625 
L 10.015625 52.203125 
Q 14.9375 54.109375 19.578125 55.046875 
Q 24.21875 56 28.609375 56 
Q 40.484375 56 46.34375 49.84375 
Q 52.203125 43.703125 52.203125 31.203125 
z
" id="DejaVuSans-61"/>
      <path d="M 44.28125 53.078125 
L 44.28125 44.578125 
Q 40.484375 46.53125 36.375 47.5 
Q 32.28125 48.484375 27.875 48.484375 
Q 21.1875 48.484375 17.84375 46.4375 
Q 14.5 44.390625 14.5 40.28125 
Q 14.5 37.15625 16.890625 35.375 
Q 19.28125 33.59375 26.515625 31.984375 
L 29.59375 31.296875 
Q 39.15625 29.25 43.1875 25.515625 
Q 47.21875 21.78125 47.21875 15.09375 
Q 47.21875 7.46875 41.1875 3.015625 
Q 35.15625 -1.421875 24.609375 -1.421875 
Q 20.21875 -1.421875 15.453125 -0.5625 
Q 10.6875 0.296875 5.421875 2 
L 5.421875 11.28125 
Q 10.40625 8.6875 15.234375 7.390625 
Q 20.0625 6.109375 24.8125 6.109375 
Q 31.15625 6.109375 34.5625 8.28125 
Q 37.984375 10.453125 37.984375 14.40625 
Q 37.984375 18.0625 35.515625 20.015625 
Q 33.0625 21.96875 24.703125 23.78125 
L 21.578125 24.515625 
Q 13.234375 26.265625 9.515625 29.90625 
Q 5.8125 33.546875 5.8125 39.890625 
Q 5.8125 47.609375 11.28125 51.796875 
Q 16.75 56 26.8125 56 
Q 31.78125 56 36.171875 55.265625 
Q 40.578125 54.546875 44.28125 53.078125 
z
" id="DejaVuSans-73"/>
      <path d="M 25.390625 72.90625 
L 33.6875 72.90625 
L 8.296875 -9.28125 
L 0 -9.28125 
z
" id="DejaVuSans-2f"/>
      <path d="M 45.40625 46.390625 
L 45.40625 75.984375 
L 54.390625 75.984375 
L 54.390625 0 
L 45.40625 0 
L 45.40625 8.203125 
Q 42.578125 3.328125 38.25 0.953125 
Q 33.9375 -1.421875 27.875 -1.421875 
Q 17.96875 -1.421875 11.734375 6.484375 
Q 5.515625 14.40625 5.515625 27.296875 
Q 5.515625 40.1875 11.734375 48.09375 
Q 17.96875 56 27.875 56 
Q 33.9375 56 38.25 53.625 
Q 42.578125 51.265625 45.40625 46.390625 
z
M 14.796875 27.296875 
Q 14.796875 17.390625 18.875 11.75 
Q 22.953125 6.109375 30.078125 6.109375 
Q 37.203125 6.109375 41.296875 11.75 
Q 45.40625 17.390625 45.40625 27.296875 
Q 45.40625 37.203125 41.296875 42.84375 
Q 37.203125 48.484375 30.078125 48.484375 
Q 22.953125 48.484375 18.875 42.84375 
Q 14.796875 37.203125 14.796875 27.296875 
z
" id="DejaVuSans-64"/>
      <path d="M 9.421875 54.6875 
L 18.40625 54.6875 
L 18.40625 0 
L 9.421875 0 
z
M 9.421875 75.984375 
L 18.40625 75.984375 
L 18.40625 64.59375 
L 9.421875 64.59375 
z
" id="DejaVuSans-69"/>
      <path d="M 52 44.1875 
Q 55.375 50.25 60.0625 53.125 
Q 64.75 56 71.09375 56 
Q 79.640625 56 84.28125 50.015625 
Q 88.921875 44.046875 88.921875 33.015625 
L 88.921875 0 
L 79.890625 0 
L 79.890625 32.71875 
Q 79.890625 40.578125 77.09375 44.375 
Q 74.3125 48.1875 68.609375 48.1875 
Q 61.625 48.1875 57.5625 43.546875 
Q 53.515625 38.921875 53.515625 30.90625 
L 53.515625 0 
L 44.484375 0 
L 44.484375 32.71875 
Q 44.484375 40.625 41.703125 44.40625 
Q 38.921875 48.1875 33.109375 48.1875 
Q 26.21875 48.1875 22.15625 43.53125 
Q 18.109375 38.875 18.109375 30.90625 
L 18.109375 0 
L 9.078125 0 
L 9.078125 54.6875 
L 18.109375 54.6875 
L 18.109375 46.1875 
Q 21.1875 51.21875 25.484375 53.609375 
Q 29.78125 56 35.6875 56 
Q 41.65625 56 45.828125 52.96875 
Q 50 49.953125 52 44.1875 
z
" id="DejaVuSans-6d"/>
      <path d="M 54.890625 33.015625 
L 54.890625 0 
L 45.90625 0 
L 45.90625 32.71875 
Q 45.90625 40.484375 42.875 44.328125 
Q 39.84375 48.1875 33.796875 48.1875 
Q 26.515625 48.1875 22.3125 43.546875 
Q 18.109375 38.921875 18.109375 30.90625 
L 18.109375 0 
L 9.078125 0 
L 9.078125 54.6875 
L 18.109375 54.6875 
L 18.109375 46.1875 
Q 21.34375 51.125 25.703125 53.5625 
Q 30.078125 56 35.796875 56 
Q 45.21875 56 50.046875 50.171875 
Q 54.890625 44.34375 54.890625 33.015625 
z
" id="DejaVuSans-6e"/>
      <path d="M 8.015625 75.875 
L 15.828125 75.875 
Q 23.140625 64.359375 26.78125 53.3125 
Q 30.421875 42.28125 30.421875 31.390625 
Q 30.421875 20.453125 26.78125 9.375 
Q 23.140625 -1.703125 15.828125 -13.1875 
L 8.015625 -13.1875 
Q 14.5 -2 17.703125 9.0625 
Q 20.90625 20.125 20.90625 31.390625 
Q 20.90625 42.671875 17.703125 53.65625 
Q 14.5 64.65625 8.015625 75.875 
z
" id="DejaVuSans-29"/>
     </defs>
     <g transform="translate(107.571219 337.433594)scale(0.17 -0.17)">
      <use xlink:href="#DejaVuSans-6c"/>
      <use x="27.783203" xlink:href="#DejaVuSans-6f"/>
      <use x="88.964844" xlink:href="#DejaVuSans-67"/>
      <use x="152.441406" xlink:href="#DejaVuSans-31"/>
      <use x="216.064453" xlink:href="#DejaVuSans-30"/>
      <use x="279.6875" xlink:href="#DejaVuSans-28"/>
      <use x="318.701172" xlink:href="#DejaVuSans-23"/>
      <use x="402.490234" xlink:href="#DejaVuSans-20"/>
      <use x="434.277344" xlink:href="#DejaVuSans-66"/>
      <use x="469.404297" xlink:href="#DejaVuSans-2d"/>
      <use x="505.488281" xlink:href="#DejaVuSans-65"/>
      <use x="567.011719" xlink:href="#DejaVuSans-76"/>
      <use x="626.191406" xlink:href="#DejaVuSans-61"/>
      <use x="687.470703" xlink:href="#DejaVuSans-6c"/>
      <use x="715.253906" xlink:href="#DejaVuSans-73"/>
      <use x="767.353516" xlink:href="#DejaVuSans-20"/>
      <use x="799.140625" xlink:href="#DejaVuSans-2f"/>
      <use x="832.832031" xlink:href="#DejaVuSans-20"/>
      <use x="864.619141" xlink:href="#DejaVuSans-64"/>
      <use x="928.095703" xlink:href="#DejaVuSans-69"/>
      <use x="955.878906" xlink:href="#DejaVuSans-6d"/>
      <use x="1053.291016" xlink:href="#DejaVuSans-65"/>
      <use x="1114.814453" xlink:href="#DejaVuSans-6e"/>
      <use x="1178.193359" xlink:href="#DejaVuSans-73"/>
      <use x="1230.292969" xlink:href="#DejaVuSans-69"/>
      <use x="1258.076172" xlink:href="#DejaVuSans-6f"/>
      <use x="1319.257812" xlink:href="#DejaVuSans-6e"/>
      <use x="1382.636719" xlink:href="#DejaVuSans-29"/>
     </g>
    </g>
   </g>
   <g id="matplotlib.axis_2">
    <g id="ytick_1">
     <g id="line2d_11">
      <path clip-path="url(#p2d0b00dc79)" d="M 56.84 294.16 
L 399.984 294.16 
" style="fill:none;stroke:#b0b0b0;stroke-linecap:square;stroke-width:0.8;"/>
     </g>
     <g id="line2d_12">
      <defs>
       <path d="M 0 0 
L -3.5 0 
" id="m6084266b3b" style="stroke:#000000;stroke-width:0.8;"/>
      </defs>
      <g>
       <use style="stroke:#000000;stroke-width:0.8;" x="56.84" xlink:href="#m6084266b3b" y="294.16"/>
      </g>
     </g>
     <g id="text_7">
      <!-- 0.0 -->
      <defs>
       <path d="M 10.6875 12.40625 
L 21 12.40625 
L 21 0 
L 10.6875 0 
z
" id="DejaVuSans-2e"/>
      </defs>
      <g transform="translate(24.395 300.23875)scale(0.16 -0.16)">
       <use xlink:href="#DejaVuSans-30"/>
       <use x="63.623047" xlink:href="#DejaVuSans-2e"/>
       <use x="95.410156" xlink:href="#DejaVuSans-30"/>
      </g>
     </g>
    </g>
    <g id="ytick_2">
     <g id="line2d_13">
      <path clip-path="url(#p2d0b00dc79)" d="M 56.84 240.829307 
L 399.984 240.829307 
" style="fill:none;stroke:#b0b0b0;stroke-linecap:square;stroke-width:0.8;"/>
     </g>
     <g id="line2d_14">
      <g>
       <use style="stroke:#000000;stroke-width:0.8;" x="56.84" xlink:href="#m6084266b3b" y="240.829307"/>
      </g>
     </g>
     <g id="text_8">
      <!-- 0.2 -->
      <g transform="translate(24.395 246.908057)scale(0.16 -0.16)">
       <use xlink:href="#DejaVuSans-30"/>
       <use x="63.623047" xlink:href="#DejaVuSans-2e"/>
       <use x="95.410156" xlink:href="#DejaVuSans-32"/>
      </g>
     </g>
    </g>
    <g id="ytick_3">
     <g id="line2d_15">
      <path clip-path="url(#p2d0b00dc79)" d="M 56.84 187.498614 
L 399.984 187.498614 
" style="fill:none;stroke:#b0b0b0;stroke-linecap:square;stroke-width:0.8;"/>
     </g>
     <g id="line2d_16">
      <g>
       <use style="stroke:#000000;stroke-width:0.8;" x="56.84" xlink:href="#m6084266b3b" y="187.498614"/>
      </g>
     </g>
     <g id="text_9">
      <!-- 0.4 -->
      <g transform="translate(24.395 193.577364)scale(0.16 -0.16)">
       <use xlink:href="#DejaVuSans-30"/>
       <use x="63.623047" xlink:href="#DejaVuSans-2e"/>
       <use x="95.410156" xlink:href="#DejaVuSans-34"/>
      </g>
     </g>
    </g>
    <g id="ytick_4">
     <g id="line2d_17">
      <path clip-path="url(#p2d0b00dc79)" d="M 56.84 134.167921 
L 399.984 134.167921 
" style="fill:none;stroke:#b0b0b0;stroke-linecap:square;stroke-width:0.8;"/>
     </g>
     <g id="line2d_18">
      <g>
       <use style="stroke:#000000;stroke-width:0.8;" x="56.84" xlink:href="#m6084266b3b" y="134.167921"/>
      </g>
     </g>
     <g id="text_10">
      <!-- 0.6 -->
      <g transform="translate(24.395 140.246671)scale(0.16 -0.16)">
       <use xlink:href="#DejaVuSans-30"/>
       <use x="63.623047" xlink:href="#DejaVuSans-2e"/>
       <use x="95.410156" xlink:href="#DejaVuSans-36"/>
      </g>
     </g>
    </g>
    <g id="ytick_5">
     <g id="line2d_19">
      <path clip-path="url(#p2d0b00dc79)" d="M 56.84 80.837228 
L 399.984 80.837228 
" style="fill:none;stroke:#b0b0b0;stroke-linecap:square;stroke-width:0.8;"/>
     </g>
     <g id="line2d_20">
      <g>
       <use style="stroke:#000000;stroke-width:0.8;" x="56.84" xlink:href="#m6084266b3b" y="80.837228"/>
      </g>
     </g>
     <g id="text_11">
      <!-- 0.8 -->
      <g transform="translate(24.395 86.915978)scale(0.16 -0.16)">
       <use xlink:href="#DejaVuSans-30"/>
       <use x="63.623047" xlink:href="#DejaVuSans-2e"/>
       <use x="95.410156" xlink:href="#DejaVuSans-38"/>
      </g>
     </g>
    </g>
    <g id="ytick_6">
     <g id="line2d_21">
      <path clip-path="url(#p2d0b00dc79)" d="M 56.84 27.506535 
L 399.984 27.506535 
" style="fill:none;stroke:#b0b0b0;stroke-linecap:square;stroke-width:0.8;"/>
     </g>
     <g id="line2d_22">
      <g>
       <use style="stroke:#000000;stroke-width:0.8;" x="56.84" xlink:href="#m6084266b3b" y="27.506535"/>
      </g>
     </g>
     <g id="text_12">
      <!-- 1.0 -->
      <g transform="translate(24.395 33.585285)scale(0.16 -0.16)">
       <use xlink:href="#DejaVuSans-31"/>
       <use x="63.623047" xlink:href="#DejaVuSans-2e"/>
       <use x="95.410156" xlink:href="#DejaVuSans-30"/>
      </g>
     </g>
    </g>
    <g id="text_13">
     <!-- Fraction of function,target pairs -->
     <defs>
      <path d="M 9.8125 72.90625 
L 51.703125 72.90625 
L 51.703125 64.59375 
L 19.671875 64.59375 
L 19.671875 43.109375 
L 48.578125 43.109375 
L 48.578125 34.8125 
L 19.671875 34.8125 
L 19.671875 0 
L 9.8125 0 
z
" id="DejaVuSans-46"/>
      <path d="M 41.109375 46.296875 
Q 39.59375 47.171875 37.8125 47.578125 
Q 36.03125 48 33.890625 48 
Q 26.265625 48 22.1875 43.046875 
Q 18.109375 38.09375 18.109375 28.8125 
L 18.109375 0 
L 9.078125 0 
L 9.078125 54.6875 
L 18.109375 54.6875 
L 18.109375 46.1875 
Q 20.953125 51.171875 25.484375 53.578125 
Q 30.03125 56 36.53125 56 
Q 37.453125 56 38.578125 55.875 
Q 39.703125 55.765625 41.0625 55.515625 
z
" id="DejaVuSans-72"/>
      <path d="M 48.78125 52.59375 
L 48.78125 44.1875 
Q 44.96875 46.296875 41.140625 47.34375 
Q 37.3125 48.390625 33.40625 48.390625 
Q 24.65625 48.390625 19.8125 42.84375 
Q 14.984375 37.3125 14.984375 27.296875 
Q 14.984375 17.28125 19.8125 11.734375 
Q 24.65625 6.203125 33.40625 6.203125 
Q 37.3125 6.203125 41.140625 7.25 
Q 44.96875 8.296875 48.78125 10.40625 
L 48.78125 2.09375 
Q 45.015625 0.34375 40.984375 -0.53125 
Q 36.96875 -1.421875 32.421875 -1.421875 
Q 20.0625 -1.421875 12.78125 6.34375 
Q 5.515625 14.109375 5.515625 27.296875 
Q 5.515625 40.671875 12.859375 48.328125 
Q 20.21875 56 33.015625 56 
Q 37.15625 56 41.109375 55.140625 
Q 45.0625 54.296875 48.78125 52.59375 
z
" id="DejaVuSans-63"/>
      <path d="M 18.3125 70.21875 
L 18.3125 54.6875 
L 36.8125 54.6875 
L 36.8125 47.703125 
L 18.3125 47.703125 
L 18.3125 18.015625 
Q 18.3125 11.328125 20.140625 9.421875 
Q 21.96875 7.515625 27.59375 7.515625 
L 36.8125 7.515625 
L 36.8125 0 
L 27.59375 0 
Q 17.1875 0 13.234375 3.875 
Q 9.28125 7.765625 9.28125 18.015625 
L 9.28125 47.703125 
L 2.6875 47.703125 
L 2.6875 54.6875 
L 9.28125 54.6875 
L 9.28125 70.21875 
z
" id="DejaVuSans-74"/>
      <path d="M 8.5 21.578125 
L 8.5 54.6875 
L 17.484375 54.6875 
L 17.484375 21.921875 
Q 17.484375 14.15625 20.5 10.265625 
Q 23.53125 6.390625 29.59375 6.390625 
Q 36.859375 6.390625 41.078125 11.03125 
Q 45.3125 15.671875 45.3125 23.6875 
L 45.3125 54.6875 
L 54.296875 54.6875 
L 54.296875 0 
L 45.3125 0 
L 45.3125 8.40625 
Q 42.046875 3.421875 37.71875 1 
Q 33.40625 -1.421875 27.6875 -1.421875 
Q 18.265625 -1.421875 13.375 4.4375 
Q 8.5 10.296875 8.5 21.578125 
z
M 31.109375 56 
z
" id="DejaVuSans-75"/>
      <path d="M 11.71875 12.40625 
L 22.015625 12.40625 
L 22.015625 4 
L 14.015625 -11.625 
L 7.71875 -11.625 
L 11.71875 4 
z
" id="DejaVuSans-2c"/>
      <path d="M 18.109375 8.203125 
L 18.109375 -20.796875 
L 9.078125 -20.796875 
L 9.078125 54.6875 
L 18.109375 54.6875 
L 18.109375 46.390625 
Q 20.953125 51.265625 25.265625 53.625 
Q 29.59375 56 35.59375 56 
Q 45.5625 56 51.78125 48.09375 
Q 58.015625 40.1875 58.015625 27.296875 
Q 58.015625 14.40625 51.78125 6.484375 
Q 45.5625 -1.421875 35.59375 -1.421875 
Q 29.59375 -1.421875 25.265625 0.953125 
Q 20.953125 3.328125 18.109375 8.203125 
z
M 48.6875 27.296875 
Q 48.6875 37.203125 44.609375 42.84375 
Q 40.53125 48.484375 33.40625 48.484375 
Q 26.265625 48.484375 22.1875 42.84375 
Q 18.109375 37.203125 18.109375 27.296875 
Q 18.109375 17.390625 22.1875 11.75 
Q 26.265625 6.109375 33.40625 6.109375 
Q 40.53125 6.109375 44.609375 11.75 
Q 48.6875 17.390625 48.6875 27.296875 
z
" id="DejaVuSans-70"/>
     </defs>
     <g transform="translate(16.859531 294.639375)rotate(-90)scale(0.17 -0.17)">
      <use xlink:href="#DejaVuSans-46"/>
      <use x="57.410156" xlink:href="#DejaVuSans-72"/>
      <use x="98.523438" xlink:href="#DejaVuSans-61"/>
      <use x="159.802734" xlink:href="#DejaVuSans-63"/>
      <use x="214.783203" xlink:href="#DejaVuSans-74"/>
      <use x="253.992188" xlink:href="#DejaVuSans-69"/>
      <use x="281.775391" xlink:href="#DejaVuSans-6f"/>
      <use x="342.957031" xlink:href="#DejaVuSans-6e"/>
      <use x="406.335938" xlink:href="#DejaVuSans-20"/>
      <use x="438.123047" xlink:href="#DejaVuSans-6f"/>
      <use x="499.304688" xlink:href="#DejaVuSans-66"/>
      <use x="534.509766" xlink:href="#DejaVuSans-20"/>
      <use x="566.296875" xlink:href="#DejaVuSans-66"/>
      <use x="601.501953" xlink:href="#DejaVuSans-75"/>
      <use x="664.880859" xlink:href="#DejaVuSans-6e"/>
      <use x="728.259766" xlink:href="#DejaVuSans-63"/>
      <use x="783.240234" xlink:href="#DejaVuSans-74"/>
      <use x="822.449219" xlink:href="#DejaVuSans-69"/>
      <use x="850.232422" xlink:href="#DejaVuSans-6f"/>
      <use x="911.414062" xlink:href="#DejaVuSans-6e"/>
      <use x="974.792969" xlink:href="#DejaVuSans-2c"/>
      <use x="1006.580078" xlink:href="#DejaVuSans-74"/>
      <use x="1045.789062" xlink:href="#DejaVuSans-61"/>
      <use x="1107.068359" xlink:href="#DejaVuSans-72"/>
      <use x="1148.166016" xlink:href="#DejaVuSans-67"/>
      <use x="1211.642578" xlink:href="#DejaVuSans-65"/>
      <use x="1273.166016" xlink:href="#DejaVuSans-74"/>
      <use x="1312.375" xlink:href="#DejaVuSans-20"/>
      <use x="1344.162109" xlink:href="#DejaVuSans-70"/>
      <use x="1407.638672" xlink:href="#DejaVuSans-61"/>
      <use x="1468.917969" xlink:href="#DejaVuSans-69"/>
      <use x="1496.701172" xlink:href="#DejaVuSans-72"/>
      <use x="1537.814453" xlink:href="#DejaVuSans-73"/>
     </g>
    </g>
   </g>
   <g id="line2d_23">
    <defs>
     <path d="M 0 1.5 
C 0.397805 1.5 0.77937 1.341951 1.06066 1.06066 
C 1.341951 0.77937 1.5 0.397805 1.5 0 
C 1.5 -0.397805 1.341951 -0.77937 1.06066 -1.06066 
C 0.77937 -1.341951 0.397805 -1.5 0 -1.5 
C -0.397805 -1.5 -0.77937 -1.341951 -1.06066 -1.06066 
C -1.341951 -0.77937 -1.5 -0.397805 -1.5 0 
C -1.5 0.397805 -1.341951 0.77937 -1.06066 1.06066 
C -0.77937 1.341951 -0.397805 1.5 0 1.5 
z
" id="m9b9bee8b67" style="stroke:#00bfbf;"/>
    </defs>
    <g>
     <use style="fill:#00bfbf;stroke:#00bfbf;" x="253.005558" xlink:href="#m9b9bee8b67" y="137.30502"/>
     <use style="fill:#00bfbf;stroke:#00bfbf;" x="253.005558" xlink:href="#m9b9bee8b67" y="137.30502"/>
    </g>
   </g>
   <g id="line2d_24">
    <path d="M 114.050092 294.16 
L 114.050092 293.63715 
L 114.652569 293.63715 
L 114.652569 293.1143 
L 119.73911 293.1143 
L 119.73911 292.59145 
L 123.304037 292.59145 
L 123.304037 292.0686 
L 125.950626 292.0686 
L 125.950626 291.54575 
L 127.698117 291.54575 
L 127.698117 291.0229 
L 128.108547 291.0229 
L 128.108547 290.50005 
L 130.384219 290.50005 
L 130.384219 289.454351 
L 131.306258 289.454351 
L 131.306258 288.931501 
L 131.418108 288.931501 
L 131.418108 288.408651 
L 131.639644 288.408651 
L 131.639644 287.885801 
L 132.706375 287.885801 
L 132.706375 287.362951 
L 134.659483 287.362951 
L 134.659483 285.794401 
L 135.114917 285.794401 
L 135.114917 285.271551 
L 135.382488 285.271551 
L 135.382488 284.225851 
L 135.905438 284.225851 
L 135.905438 283.703001 
L 136.578812 283.703001 
L 136.578812 283.180151 
L 137.463585 283.180151 
L 137.463585 281.611602 
L 138.964001 281.611602 
L 138.964001 281.088752 
L 140.343767 281.088752 
L 140.343767 280.043052 
L 142.923938 280.043052 
L 142.923938 278.997352 
L 143.262808 278.997352 
L 143.262808 278.474502 
L 143.704475 278.474502 
L 143.704475 277.428802 
L 144.346375 277.428802 
L 144.346375 276.905952 
L 144.761352 276.905952 
L 144.863548 275.860252 
L 144.914419 275.860252 
L 144.914419 275.337402 
L 145.611221 275.337402 
L 145.659927 273.768853 
L 146.420998 273.768853 
L 146.420998 273.246003 
L 146.606108 273.246003 
L 146.606108 272.723153 
L 147.502857 272.723153 
L 147.502857 272.200303 
L 148.355084 272.200303 
L 148.355084 271.677453 
L 148.684472 271.677453 
L 148.684472 270.631753 
L 149.559 270.631753 
L 149.559 270.108903 
L 149.980108 270.108903 
L 149.980108 269.586053 
L 150.720259 269.586053 
L 150.756442 268.540353 
L 151.360165 268.540353 
L 151.360165 267.494653 
L 152.044274 267.494653 
L 152.044274 266.971804 
L 152.702164 266.971804 
L 152.702164 266.448954 
L 154.966482 266.448954 
L 154.966482 265.926104 
L 155.357971 265.926104 
L 155.357971 265.403254 
L 157.511755 265.403254 
L 157.560461 264.357554 
L 159.512262 264.357554 
L 159.598864 263.311854 
L 159.727954 263.311854 
L 159.749375 260.697604 
L 160.025441 260.697604 
L 160.025441 260.174754 
L 160.151375 260.174754 
L 160.151375 259.651904 
L 160.96812 259.651904 
L 160.96812 259.129055 
L 162.943727 259.129055 
L 162.943727 258.606205 
L 163.554783 258.606205 
L 163.554783 258.083355 
L 163.911242 258.083355 
L 163.911242 257.560505 
L 165.375703 257.560505 
L 165.375703 257.037655 
L 165.498667 257.037655 
L 165.498667 256.514805 
L 166.233195 256.514805 
L 166.233195 255.991955 
L 166.350189 255.991955 
L 166.350189 255.469105 
L 166.895278 255.469105 
L 166.895278 254.946255 
L 167.341247 254.946255 
L 167.341247 254.423405 
L 167.559961 254.423405 
L 167.627742 253.377705 
L 168.433815 253.377705 
L 168.433815 252.854855 
L 168.879784 252.854855 
L 168.879784 252.332005 
L 169.203734 252.332005 
L 169.203734 251.809156 
L 169.351212 251.809156 
L 169.375669 250.763456 
L 170.782778 250.763456 
L 170.782778 249.717756 
L 171.809719 249.717756 
L 171.809719 249.194906 
L 172.145756 249.194906 
L 172.145756 248.672056 
L 172.444711 248.672056 
L 172.444711 248.149206 
L 176.373656 248.149206 
L 176.373656 247.626356 
L 177.043278 247.626356 
L 177.043278 247.103506 
L 177.506078 247.103506 
L 177.604728 246.057806 
L 177.657613 246.057806 
L 177.755399 244.489256 
L 177.837707 244.489256 
L 177.837707 243.966407 
L 177.978954 243.966407 
L 177.978954 243.443557 
L 178.675378 243.443557 
L 178.717981 242.397857 
L 178.816977 242.397857 
L 178.816977 241.875007 
L 179.440109 241.875007 
L 179.440109 240.829307 
L 179.575564 240.829307 
L 179.575564 240.306457 
L 180.172224 240.306457 
L 180.172224 239.783607 
L 180.729932 239.783607 
L 180.729932 239.260757 
L 181.104268 239.260757 
L 181.104268 238.215057 
L 181.994169 238.215057 
L 182.064341 237.169357 
L 182.513602 237.169357 
L 182.513602 236.646507 
L 182.968024 236.646507 
L 182.968024 236.123658 
L 183.577182 236.123658 
L 183.577182 235.600808 
L 183.810703 235.600808 
L 183.810703 235.077958 
L 184.056686 235.077958 
L 184.093023 234.032258 
L 184.237603 234.032258 
L 184.237603 233.509408 
L 184.804049 233.509408 
L 184.804049 232.986558 
L 185.743053 232.986558 
L 185.743053 232.463708 
L 185.855728 232.463708 
L 185.855728 231.940858 
L 186.023367 231.940858 
L 186.023367 230.895158 
L 187.636547 230.895158 
L 187.737491 229.326608 
L 188.652072 229.326608 
L 188.652072 228.803758 
L 188.810385 228.803758 
L 188.810385 228.280909 
L 189.749435 228.280909 
L 189.749435 227.758059 
L 190.089204 227.758059 
L 190.089204 227.235209 
L 190.759765 227.235209 
L 190.787876 226.189509 
L 191.241765 226.189509 
L 191.241765 225.666659 
L 191.576992 225.666659 
L 191.576992 225.143809 
L 192.541935 225.143809 
L 192.605218 224.098109 
L 192.774928 224.098109 
L 192.774928 223.575259 
L 193.007887 223.575259 
L 193.007887 223.052409 
L 193.130852 223.052409 
L 193.130852 222.529559 
L 193.458523 222.529559 
L 193.554422 220.96101 
L 193.614088 220.96101 
L 193.673547 219.91531 
L 194.25995 219.91531 
L 194.25995 219.39246 
L 194.448213 219.39246 
L 194.448213 218.86961 
L 194.790871 218.86961 
L 194.790871 218.34676 
L 195.058514 218.34676 
L 195.115912 217.30106 
L 195.811102 217.30106 
L 195.897358 215.73251 
L 196.078903 215.73251 
L 196.181788 214.68681 
L 197.291442 214.68681 
L 197.291442 214.16396 
L 197.900716 214.16396 
L 197.903036 213.118261 
L 198.594156 213.118261 
L 198.594156 212.595411 
L 198.955758 212.595411 
L 198.955758 212.072561 
L 199.086171 212.072561 
L 199.086171 211.549711 
L 200.182851 211.549711 
L 200.182851 211.026861 
L 200.480887 211.026861 
L 200.480887 209.981161 
L 200.826746 209.981161 
L 200.826746 209.458311 
L 201.183031 209.458311 
L 201.183031 208.935461 
L 202.119067 208.935461 
L 202.119067 208.412611 
L 202.50486 208.412611 
L 202.50486 207.889761 
L 202.732242 207.889761 
L 202.836983 206.321211 
L 203.051445 206.321211 
L 203.11321 205.275512 
L 204.17732 205.275512 
L 204.262422 204.229812 
L 204.447223 204.229812 
L 204.447223 203.706962 
L 204.691092 203.706962 
L 204.730103 202.661262 
L 204.82957 202.661262 
L 204.82957 202.138412 
L 206.406805 202.138412 
L 206.440699 200.569862 
L 206.660788 200.569862 
L 206.660788 200.047012 
L 207.025994 200.047012 
L 207.134735 198.478462 
L 207.396942 198.478462 
L 207.396942 197.955613 
L 207.620994 197.955613 
L 207.726042 196.909913 
L 207.752204 196.909913 
L 207.809621 194.818513 
L 207.913525 194.818513 
L 207.913525 194.295663 
L 208.28626 194.295663 
L 208.28626 193.249963 
L 208.45145 193.249963 
L 208.501574 192.204263 
L 208.834912 192.204263 
L 208.834912 191.681413 
L 209.125741 191.681413 
L 209.125741 191.158563 
L 209.721019 191.158563 
L 209.721019 190.635713 
L 209.883417 190.635713 
L 209.883417 190.112864 
L 210.140101 190.112864 
L 210.140101 189.590014 
L 210.393003 189.590014 
L 210.410926 188.544314 
L 210.516959 188.544314 
L 210.516959 188.021464 
L 212.307396 188.021464 
L 212.307396 187.498614 
L 212.436234 187.498614 
L 212.436234 186.975764 
L 212.574973 186.975764 
L 212.657681 185.930064 
L 213.162911 185.930064 
L 213.272246 184.884364 
L 213.337514 184.884364 
L 213.356387 183.838664 
L 213.450437 183.838664 
L 213.487913 182.792964 
L 213.584971 182.792964 
L 213.584971 182.270115 
L 214.257486 182.270115 
L 214.257486 181.747265 
L 214.425787 181.747265 
L 214.500062 180.701565 
L 214.702675 180.701565 
L 214.702675 180.178715 
L 214.936504 180.178715 
L 214.972592 178.610165 
L 215.335253 178.610165 
L 215.335253 178.087315 
L 215.549063 178.087315 
L 215.549063 177.564465 
L 216.256402 177.564465 
L 216.307303 176.518765 
L 216.996889 176.518765 
L 216.996889 175.995915 
L 217.121549 175.995915 
L 217.148793 174.950215 
L 217.626782 174.950215 
L 217.626782 174.427366 
L 218.122573 174.427366 
L 218.122573 173.904516 
L 218.542508 173.904516 
L 218.542508 173.381666 
L 219.947559 173.381666 
L 219.947559 172.858816 
L 220.420242 172.858816 
L 220.420242 172.335966 
L 220.720099 172.335966 
L 220.720099 171.813116 
L 221.341309 171.813116 
L 221.353151 170.767416 
L 221.883528 170.767416 
L 221.940824 169.198866 
L 222.022996 169.198866 
L 222.034378 168.153166 
L 222.594607 168.153166 
L 222.594607 167.630316 
L 223.061741 167.630316 
L 223.061741 167.107467 
L 223.479933 167.107467 
L 223.479933 166.584617 
L 224.231473 166.584617 
L 224.249484 165.538917 
L 224.649812 165.538917 
L 224.739464 162.924667 
L 224.768597 162.924667 
L 224.768597 162.401817 
L 225.010908 162.401817 
L 225.029553 161.356117 
L 225.809081 161.356117 
L 225.809081 160.833267 
L 226.248609 160.833267 
L 226.255284 159.787567 
L 226.694087 159.787567 
L 226.720088 158.741868 
L 227.08257 158.741868 
L 227.143514 157.696168 
L 227.452087 157.696168 
L 227.452087 157.173318 
L 227.571589 157.173318 
L 227.596296 155.604768 
L 228.071097 155.604768 
L 228.071097 155.081918 
L 228.433085 155.081918 
L 228.433085 154.559068 
L 228.861147 154.559068 
L 228.861147 154.036218 
L 229.654438 154.036218 
L 229.654438 153.513368 
L 230.239651 153.513368 
L 230.322701 152.467668 
L 231.108035 152.467668 
L 231.108035 151.944818 
L 231.805963 151.944818 
L 231.805963 151.421969 
L 232.076238 151.421969 
L 232.076238 150.899119 
L 232.450593 150.899119 
L 232.450593 150.376269 
L 232.815745 150.376269 
L 232.815745 149.853419 
L 234.017488 149.853419 
L 234.017488 149.330569 
L 235.191161 149.330569 
L 235.191161 148.807719 
L 235.467841 148.807719 
L 235.483443 147.762019 
L 235.708095 147.762019 
L 235.708095 147.239169 
L 235.996572 147.239169 
L 236.074848 146.193469 
L 236.528104 146.193469 
L 236.528104 145.670619 
L 237.211597 145.670619 
L 237.211597 145.147769 
L 237.524835 145.147769 
L 237.547898 144.10207 
L 237.784565 144.10207 
L 237.784565 143.57922 
L 240.215052 143.57922 
L 240.215052 143.05637 
L 240.448258 143.05637 
L 240.448258 142.53352 
L 241.658136 142.53352 
L 241.658136 142.01067 
L 242.605635 142.01067 
L 242.605635 141.48782 
L 242.727085 141.48782 
L 242.727085 140.96497 
L 244.469654 140.96497 
L 244.469654 140.44212 
L 245.858045 140.44212 
L 245.858045 139.91927 
L 246.043676 139.91927 
L 246.043676 139.39642 
L 246.483415 139.39642 
L 246.483415 138.87357 
L 247.322135 138.87357 
L 247.322135 138.35072 
L 247.609783 138.35072 
L 247.609783 137.82787 
L 253.005558 137.82787 
L 253.005558 137.30502 
L 333.569032 137.30502 
L 333.569032 137.30502 
" style="fill:none;stroke:#00bfbf;stroke-linecap:square;stroke-width:1.5;"/>
   </g>
   <g id="line2d_25">
    <defs>
     <path d="M -6 0 
L 6 0 
M 0 6 
L 0 -6 
" id="mefc7731cf5" style="stroke:#00bfbf;stroke-width:1.5;"/>
    </defs>
    <g>
     <use style="fill-opacity:0;stroke:#00bfbf;stroke-width:1.5;" x="150.756442" xlink:href="#mefc7731cf5" y="268.540353"/>
     <use style="fill-opacity:0;stroke:#00bfbf;stroke-width:1.5;" x="208.501574" xlink:href="#mefc7731cf5" y="192.204263"/>
     <use style="fill-opacity:0;stroke:#00bfbf;stroke-width:1.5;" x="247.322135" xlink:href="#mefc7731cf5" y="138.87357"/>
     <use style="fill-opacity:0;stroke:#00bfbf;stroke-width:1.5;" x="253.005558" xlink:href="#mefc7731cf5" y="137.30502"/>
     <use style="fill-opacity:0;stroke:#00bfbf;stroke-width:1.5;" x="333.569032" xlink:href="#mefc7731cf5" y="137.30502"/>
    </g>
   </g>
   <g id="line2d_26">
    <path style="fill:none;stroke:#00bfbf;stroke-linecap:square;stroke-width:1.5;"/>
    <g/>
   </g>
   <g id="line2d_27">
    <path clip-path="url(#p2d0b00dc79)" d="M 164.375293 257.560505 
" style="fill:none;stroke:#00bfbf;stroke-linecap:square;stroke-width:1.5;"/>
    <defs>
     <path d="M -12 12 
L 12 -12 
M -12 -12 
L 12 12 
" id="me9135ea882" style="stroke:#00bfbf;stroke-width:3;"/>
    </defs>
    <g clip-path="url(#p2d0b00dc79)">
     <use style="fill:#00bfbf;stroke:#00bfbf;stroke-width:3;" x="164.375293" xlink:href="#me9135ea882" y="257.560505"/>
    </g>
   </g>
   <g id="line2d_28">
    <defs>
     <path d="M 0 1.5 
C 0.397805 1.5 0.77937 1.341951 1.06066 1.06066 
C 1.341951 0.77937 1.5 0.397805 1.5 0 
C 1.5 -0.397805 1.341951 -0.77937 1.06066 -1.06066 
C 0.77937 -1.341951 0.397805 -1.5 0 -1.5 
C -0.397805 -1.5 -0.77937 -1.341951 -1.06066 -1.06066 
C -1.341951 -0.77937 -1.5 -0.397805 -1.5 0 
C -1.5 0.397805 -1.341951 0.77937 -1.06066 1.06066 
C -0.77937 1.341951 -0.397805 1.5 0 1.5 
z
" id="m126a09bcee" style="stroke:#008000;"/>
    </defs>
    <g>
     <use style="fill:#008000;stroke:#008000;" x="257.66572" xlink:href="#m126a09bcee" y="205.275512"/>
     <use style="fill:#008000;stroke:#008000;" x="257.66572" xlink:href="#m126a09bcee" y="205.275512"/>
    </g>
   </g>
   <g id="line2d_29">
    <path d="M 137.013489 294.16 
L 137.013489 293.63715 
L 146.560017 293.63715 
L 146.560017 293.1143 
L 146.743643 293.1143 
L 146.743643 292.59145 
L 150.230387 292.59145 
L 150.230387 292.0686 
L 151.19654 292.0686 
L 151.19654 291.54575 
L 151.313574 291.54575 
L 151.313574 291.0229 
L 153.906761 291.0229 
L 153.906761 290.50005 
L 155.069881 290.50005 
L 155.069881 289.454351 
L 155.623167 289.454351 
L 155.623167 288.931501 
L 160.516903 288.931501 
L 160.516903 288.408651 
L 161.093948 288.408651 
L 161.093948 287.885801 
L 161.804841 287.885801 
L 161.804841 287.362951 
L 162.32855 287.362951 
L 162.32855 286.840101 
L 162.57243 286.840101 
L 162.608715 284.748701 
L 163.179082 284.748701 
L 163.179082 284.225851 
L 167.350416 284.225851 
L 167.350416 283.703001 
L 168.766208 283.703001 
L 168.766208 283.180151 
L 168.909107 283.180151 
L 168.909107 282.657301 
L 171.19436 282.657301 
L 171.19436 282.134452 
L 171.742425 282.134452 
L 171.742425 281.088752 
L 176.535474 281.088752 
L 176.535474 280.565902 
L 177.617334 280.565902 
L 177.617334 280.043052 
L 178.347613 280.043052 
L 178.347613 279.520202 
L 178.573175 279.520202 
L 178.573175 278.997352 
L 178.880318 278.997352 
L 178.880318 278.474502 
L 179.283003 278.474502 
L 179.287577 277.428802 
L 180.012939 277.428802 
L 180.012939 276.905952 
L 180.243748 276.905952 
L 180.243748 276.383102 
L 180.594844 276.383102 
L 180.594844 275.860252 
L 180.868138 275.860252 
L 180.868138 275.337402 
L 183.847563 275.337402 
L 183.847563 274.814553 
L 184.011592 274.814553 
L 184.011592 274.291703 
L 184.480968 274.291703 
L 184.480968 273.768853 
L 184.934561 273.768853 
L 184.934561 273.246003 
L 185.841684 273.246003 
L 185.841684 272.723153 
L 185.969219 272.723153 
L 186.049606 271.677453 
L 186.181734 271.677453 
L 186.181734 271.154603 
L 188.088932 271.154603 
L 188.088932 270.631753 
L 189.41422 270.631753 
L 189.41422 270.108903 
L 189.595823 270.108903 
L 189.698384 269.063203 
L 189.778007 269.063203 
L 189.820158 267.494653 
L 190.031818 267.494653 
L 190.031818 266.971804 
L 190.153687 266.971804 
L 190.153687 266.448954 
L 190.442691 266.448954 
L 190.442691 265.926104 
L 191.365556 265.926104 
L 191.426555 264.357554 
L 192.31002 264.357554 
L 192.31002 263.834704 
L 192.427433 263.834704 
L 192.427433 263.311854 
L 193.095078 263.311854 
L 193.111441 262.266154 
L 193.276244 262.266154 
L 193.276244 261.743304 
L 193.501544 261.743304 
L 193.501544 261.220454 
L 194.613842 261.220454 
L 194.613842 260.697604 
L 196.084922 260.697604 
L 196.084922 260.174754 
L 196.369669 260.174754 
L 196.369669 259.651904 
L 197.28984 259.651904 
L 197.28984 259.129055 
L 198.158622 259.129055 
L 198.158622 258.606205 
L 198.370623 258.606205 
L 198.370623 258.083355 
L 198.498072 258.083355 
L 198.498072 257.560505 
L 199.125823 257.560505 
L 199.219183 256.514805 
L 199.642218 256.514805 
L 199.642218 255.991955 
L 200.491531 255.991955 
L 200.491531 255.469105 
L 200.614786 255.469105 
L 200.614786 254.946255 
L 200.786916 254.946255 
L 200.786916 254.423405 
L 201.583947 254.423405 
L 201.583947 253.900555 
L 201.719454 253.900555 
L 201.719454 253.377705 
L 201.9873 253.377705 
L 201.9873 252.854855 
L 202.285812 252.854855 
L 202.285812 252.332005 
L 202.733993 252.332005 
L 202.733993 251.286306 
L 203.43836 251.286306 
L 203.43836 250.763456 
L 203.840293 250.763456 
L 203.840293 250.240606 
L 204.090176 250.240606 
L 204.090176 249.717756 
L 204.485738 249.717756 
L 204.485738 249.194906 
L 207.339019 249.194906 
L 207.339019 248.672056 
L 207.503367 248.672056 
L 207.503367 248.149206 
L 208.620036 248.149206 
L 208.620036 247.626356 
L 208.868423 247.626356 
L 208.868423 247.103506 
L 209.534698 247.103506 
L 209.534698 246.580656 
L 210.091884 246.580656 
L 210.11468 245.534956 
L 210.515475 245.534956 
L 210.515475 245.012106 
L 211.013391 245.012106 
L 211.013391 244.489256 
L 212.200128 244.489256 
L 212.200128 243.966407 
L 213.80902 243.966407 
L 213.80902 243.443557 
L 214.12333 243.443557 
L 214.12333 242.920707 
L 215.001752 242.920707 
L 215.001752 242.397857 
L 215.141145 242.397857 
L 215.197151 241.352157 
L 217.599796 241.352157 
L 217.599796 240.829307 
L 217.982922 240.829307 
L 218.08538 239.783607 
L 218.300741 239.783607 
L 218.379754 238.737907 
L 218.445321 238.737907 
L 218.478011 237.692207 
L 220.479513 237.692207 
L 220.479513 236.646507 
L 221.085298 236.646507 
L 221.085298 236.123658 
L 221.467407 236.123658 
L 221.467407 235.600808 
L 221.625826 235.600808 
L 221.625826 235.077958 
L 222.262502 235.077958 
L 222.262502 234.555108 
L 222.381478 234.555108 
L 222.440103 233.509408 
L 223.34307 233.509408 
L 223.34307 232.986558 
L 223.976131 232.986558 
L 223.976131 232.463708 
L 224.498193 232.463708 
L 224.57327 231.418008 
L 224.708171 231.418008 
L 224.708171 230.895158 
L 225.464398 230.895158 
L 225.464398 230.372308 
L 225.7658 230.372308 
L 225.7658 229.849458 
L 225.957297 229.849458 
L 225.957297 229.326608 
L 226.785638 229.326608 
L 226.851081 228.280909 
L 227.512562 228.280909 
L 227.512562 227.758059 
L 227.779519 227.758059 
L 227.779519 227.235209 
L 228.165961 227.235209 
L 228.165961 226.712359 
L 228.537405 226.712359 
L 228.537405 226.189509 
L 229.353867 226.189509 
L 229.353867 225.666659 
L 229.700729 225.666659 
L 229.700729 225.143809 
L 230.141539 225.143809 
L 230.141539 224.620959 
L 230.340947 224.620959 
L 230.376913 223.052409 
L 230.454426 223.052409 
L 230.454426 222.529559 
L 230.755325 222.529559 
L 230.861799 220.96101 
L 231.19979 220.96101 
L 231.230673 219.39246 
L 231.532128 219.39246 
L 231.557411 218.34676 
L 231.856443 218.34676 
L 231.888519 217.30106 
L 233.28562 217.30106 
L 233.28562 216.77821 
L 233.489617 216.77821 
L 233.489617 216.25536 
L 234.031731 216.25536 
L 234.031731 215.73251 
L 234.622051 215.73251 
L 234.622051 215.20966 
L 234.964776 215.20966 
L 234.964776 214.68681 
L 235.189927 214.68681 
L 235.189927 214.16396 
L 235.750201 214.16396 
L 235.750201 213.64111 
L 237.026338 213.64111 
L 237.026338 213.118261 
L 237.277435 213.118261 
L 237.277435 212.595411 
L 237.491956 212.595411 
L 237.491956 212.072561 
L 237.740637 212.072561 
L 237.802665 211.026861 
L 238.50941 211.026861 
L 238.50941 210.504011 
L 240.621461 210.504011 
L 240.621461 209.981161 
L 242.298547 209.981161 
L 242.298547 209.458311 
L 244.137882 209.458311 
L 244.137882 208.935461 
L 244.66885 208.935461 
L 244.66885 208.412611 
L 244.823925 208.412611 
L 244.823925 207.889761 
L 245.593388 207.889761 
L 245.593388 207.366911 
L 247.809769 207.366911 
L 247.809769 206.844061 
L 248.731345 206.844061 
L 248.731345 206.321211 
L 252.744457 206.321211 
L 252.744457 205.798361 
L 257.66572 205.798361 
L 257.66572 205.275512 
L 333.569032 205.275512 
L 333.569032 205.275512 
" style="fill:none;stroke:#008000;stroke-linecap:square;stroke-width:1.5;"/>
   </g>
   <g id="line2d_30">
    <defs>
     <path d="M -0 6 
L 6 -6 
L -6 -6 
z
" id="mbd7e59eaf1" style="stroke:#008000;stroke-linejoin:miter;stroke-width:1.5;"/>
    </defs>
    <g>
     <use style="fill-opacity:0;stroke:#008000;stroke-linejoin:miter;stroke-width:1.5;" x="179.287577" xlink:href="#mbd7e59eaf1" y="277.951652"/>
     <use style="fill-opacity:0;stroke:#008000;stroke-linejoin:miter;stroke-width:1.5;" x="231.19979" xlink:href="#mbd7e59eaf1" y="220.96101"/>
     <use style="fill-opacity:0;stroke:#008000;stroke-linejoin:miter;stroke-width:1.5;" x="257.66572" xlink:href="#mbd7e59eaf1" y="205.798361"/>
     <use style="fill-opacity:0;stroke:#008000;stroke-linejoin:miter;stroke-width:1.5;" x="257.66572" xlink:href="#mbd7e59eaf1" y="205.275512"/>
     <use style="fill-opacity:0;stroke:#008000;stroke-linejoin:miter;stroke-width:1.5;" x="333.569032" xlink:href="#mbd7e59eaf1" y="205.275512"/>
    </g>
   </g>
   <g id="line2d_31">
    <path style="fill:none;stroke:#008000;stroke-linecap:square;stroke-width:1.5;"/>
    <g/>
   </g>
   <g id="line2d_32">
    <path clip-path="url(#p2d0b00dc79)" d="M 164.100586 284.225851 
" style="fill:none;stroke:#008000;stroke-linecap:square;stroke-width:1.5;"/>
    <defs>
     <path d="M -12 12 
L 12 -12 
M -12 -12 
L 12 12 
" id="mac01618bf2" style="stroke:#008000;stroke-width:3;"/>
    </defs>
    <g clip-path="url(#p2d0b00dc79)">
     <use style="fill:#008000;stroke:#008000;stroke-width:3;" x="164.100586" xlink:href="#mac01618bf2" y="284.225851"/>
    </g>
   </g>
   <g id="line2d_33">
    <defs>
     <path d="M 0 1.5 
C 0.397805 1.5 0.77937 1.341951 1.06066 1.06066 
C 1.341951 0.77937 1.5 0.397805 1.5 0 
C 1.5 -0.397805 1.341951 -0.77937 1.06066 -1.06066 
C 0.77937 -1.341951 0.397805 -1.5 0 -1.5 
C -0.397805 -1.5 -0.77937 -1.341951 -1.06066 -1.06066 
C -1.341951 -0.77937 -1.5 -0.397805 -1.5 0 
C -1.5 0.397805 -1.341951 0.77937 -1.06066 1.06066 
C -0.77937 1.341951 -0.397805 1.5 0 1.5 
z
" id="m8b0da30b77" style="stroke:#0000ff;"/>
    </defs>
    <g>
     <use style="fill:#0000ff;stroke:#0000ff;" x="248.183496" xlink:href="#m8b0da30b77" y="268.017503"/>
     <use style="fill:#0000ff;stroke:#0000ff;" x="248.183496" xlink:href="#m8b0da30b77" y="268.017503"/>
    </g>
   </g>
   <g id="line2d_34">
    <path d="M 154.408798 294.16 
L 154.408798 293.1143 
L 180.123941 293.1143 
L 180.123941 292.59145 
L 186.225144 292.59145 
L 186.225144 292.0686 
L 189.988713 292.0686 
L 189.988713 291.54575 
L 190.279037 291.54575 
L 190.279037 291.0229 
L 193.38202 291.0229 
L 193.38202 290.50005 
L 196.265186 290.50005 
L 196.265186 289.977201 
L 198.821268 289.977201 
L 198.821268 289.454351 
L 198.865192 289.454351 
L 198.865192 288.931501 
L 198.930867 288.931501 
L 198.930867 288.408651 
L 201.009298 288.408651 
L 201.009298 287.885801 
L 204.467177 287.885801 
L 204.467177 287.362951 
L 209.983108 287.362951 
L 209.983108 286.840101 
L 211.213427 286.840101 
L 211.213427 286.317251 
L 216.753952 286.317251 
L 216.753952 285.794401 
L 217.546878 285.794401 
L 217.546878 285.271551 
L 218.19188 285.271551 
L 218.19188 284.748701 
L 218.256088 284.748701 
L 218.256088 284.225851 
L 218.958406 284.225851 
L 218.958406 283.703001 
L 219.665021 283.703001 
L 219.665021 283.180151 
L 220.305992 283.180151 
L 220.305992 282.657301 
L 221.566454 282.657301 
L 221.566454 282.134452 
L 222.197557 282.134452 
L 222.197557 281.611602 
L 223.299931 281.611602 
L 223.299931 281.088752 
L 225.739167 281.088752 
L 225.739167 280.565902 
L 227.523144 280.565902 
L 227.523144 280.043052 
L 227.580735 280.043052 
L 227.580735 279.520202 
L 228.056121 279.520202 
L 228.056121 278.997352 
L 228.409005 278.997352 
L 228.409005 278.474502 
L 232.083274 278.474502 
L 232.083274 277.951652 
L 232.604535 277.951652 
L 232.604535 277.428802 
L 233.303217 277.428802 
L 233.303217 276.905952 
L 233.823502 276.905952 
L 233.823502 276.383102 
L 233.880667 276.383102 
L 233.880667 275.860252 
L 233.898122 275.860252 
L 233.898122 275.337402 
L 234.152441 275.337402 
L 234.152441 274.814553 
L 234.667067 274.814553 
L 234.667067 274.291703 
L 235.272187 274.291703 
L 235.272187 273.768853 
L 237.781973 273.768853 
L 237.781973 273.246003 
L 239.130269 273.246003 
L 239.130269 272.723153 
L 239.761741 272.723153 
L 239.761741 272.200303 
L 239.969149 272.200303 
L 239.969149 271.677453 
L 240.565077 271.677453 
L 240.565077 271.154603 
L 240.565154 271.154603 
L 240.565154 270.631753 
L 241.545991 270.631753 
L 241.545991 270.108903 
L 243.171915 270.108903 
L 243.171915 269.586053 
L 246.550148 269.586053 
L 246.550148 269.063203 
L 247.902101 269.063203 
L 247.902101 268.540353 
L 248.183496 268.540353 
L 248.183496 268.017503 
L 333.569032 268.017503 
" style="fill:none;stroke:#0000ff;stroke-linecap:square;stroke-width:1.5;"/>
   </g>
   <g id="line2d_35">
    <defs>
     <path d="M 0 -6 
L -1.347084 -1.854102 
L -5.706339 -1.854102 
L -2.179628 0.708204 
L -3.526712 4.854102 
L -0 2.291796 
L 3.526712 4.854102 
L 2.179628 0.708204 
L 5.706339 -1.854102 
L 1.347084 -1.854102 
z
" id="m07f2ffe112" style="stroke:#0000ff;stroke-linejoin:bevel;stroke-width:1.5;"/>
    </defs>
    <g>
     <use style="fill-opacity:0;stroke:#0000ff;stroke-linejoin:bevel;stroke-width:1.5;" x="223.299931" xlink:href="#m07f2ffe112" y="281.088752"/>
     <use style="fill-opacity:0;stroke:#0000ff;stroke-linejoin:bevel;stroke-width:1.5;" x="248.183496" xlink:href="#m07f2ffe112" y="268.017503"/>
     <use style="fill-opacity:0;stroke:#0000ff;stroke-linejoin:bevel;stroke-width:1.5;" x="248.183496" xlink:href="#m07f2ffe112" y="268.017503"/>
     <use style="fill-opacity:0;stroke:#0000ff;stroke-linejoin:bevel;stroke-width:1.5;" x="333.569032" xlink:href="#m07f2ffe112" y="268.017503"/>
    </g>
   </g>
   <g id="line2d_36">
    <path style="fill:none;stroke:#0000ff;stroke-linecap:square;stroke-width:1.5;"/>
    <g/>
   </g>
   <g id="line2d_37">
    <path clip-path="url(#p2d0b00dc79)" d="M 163.877611 293.1143 
" style="fill:none;stroke:#0000ff;stroke-linecap:square;stroke-width:1.5;"/>
    <defs>
     <path d="M -12 12 
L 12 -12 
M -12 -12 
L 12 12 
" id="m8c0755fcb0" style="stroke:#0000ff;stroke-width:3;"/>
    </defs>
    <g clip-path="url(#p2d0b00dc79)">
     <use style="fill:#0000ff;stroke:#0000ff;stroke-width:3;" x="163.877611" xlink:href="#m8c0755fcb0" y="293.1143"/>
    </g>
   </g>
   <g id="line2d_38">
    <path clip-path="url(#p2d0b00dc79)" d="M 56.84 294.16 
L 56.84 294.16 
L 56.84 294.16 
L 56.84 294.16 
L 399.984 294.16 
" style="fill:none;stroke:#000000;stroke-linecap:square;stroke-width:1.5;"/>
   </g>
   <g id="line2d_39">
    <defs>
     <path d="M 0 6 
C 1.591219 6 3.117479 5.367802 4.242641 4.242641 
C 5.367802 3.117479 6 1.591219 6 0 
C 6 -1.591219 5.367802 -3.117479 4.242641 -4.242641 
C 3.117479 -5.367802 1.591219 -6 0 -6 
C -1.591219 -6 -3.117479 -5.367802 -4.242641 -4.242641 
C -5.367802 -3.117479 -6 -1.591219 -6 0 
C -6 1.591219 -5.367802 3.117479 -4.242641 4.242641 
C -3.117479 5.367802 -1.591219 6 0 6 
z
" id="m7ff090477a" style="stroke:#000000;stroke-width:1.5;"/>
    </defs>
    <g clip-path="url(#p2d0b00dc79)">
     <use style="fill-opacity:0;stroke:#000000;stroke-width:1.5;" x="56.84" xlink:href="#m7ff090477a" y="294.16"/>
    </g>
   </g>
   <g id="line2d_40">
    <path clip-path="url(#p2d0b00dc79)" style="fill:none;stroke:#000000;stroke-linecap:square;stroke-width:1.5;"/>
    <g clip-path="url(#p2d0b00dc79)">
     <use style="fill-opacity:0;stroke:#000000;stroke-width:1.5;" x="-1" xlink:href="#m7ff090477a" y="560.813465"/>
     <use style="fill-opacity:0;stroke:#000000;stroke-width:1.5;" x="399.984" xlink:href="#m7ff090477a" y="560.813465"/>
    </g>
   </g>
   <g id="line2d_41">
    <path clip-path="url(#p2d0b00dc79)" d="M 56.84 294.16 
L 56.84 294.16 
L 56.84 294.16 
L 56.84 294.16 
L 399.984 294.16 
" style="fill:none;stroke:#ff0000;stroke-linecap:square;stroke-width:1.5;"/>
   </g>
   <g id="line2d_42">
    <defs>
     <path d="M -6 6 
L 6 6 
L 6 -6 
L -6 -6 
z
" id="m280138571f" style="stroke:#ff0000;stroke-linejoin:miter;stroke-width:1.5;"/>
    </defs>
    <g clip-path="url(#p2d0b00dc79)">
     <use style="fill-opacity:0;stroke:#ff0000;stroke-linejoin:miter;stroke-width:1.5;" x="56.84" xlink:href="#m280138571f" y="294.16"/>
    </g>
   </g>
   <g id="line2d_43">
    <path clip-path="url(#p2d0b00dc79)" style="fill:none;stroke:#ff0000;stroke-linecap:square;stroke-width:1.5;"/>
    <g clip-path="url(#p2d0b00dc79)">
     <use style="fill-opacity:0;stroke:#ff0000;stroke-linejoin:miter;stroke-width:1.5;" x="-1" xlink:href="#m280138571f" y="560.813465"/>
     <use style="fill-opacity:0;stroke:#ff0000;stroke-linejoin:miter;stroke-width:1.5;" x="399.984" xlink:href="#m280138571f" y="560.813465"/>
    </g>
   </g>
   <g id="line2d_44">
    <path clip-path="url(#p2d0b00dc79)" d="M 56.84 294.16 
L 56.84 294.16 
L 56.84 294.16 
L 56.84 294.16 
L 399.984 294.16 
" style="fill:none;stroke:#bf00bf;stroke-linecap:square;stroke-width:1.5;"/>
   </g>
   <g id="line2d_45">
    <defs>
     <path d="M -0 8.485281 
L 8.485281 0 
L 0 -8.485281 
L -8.485281 -0 
z
" id="m69ede5d460" style="stroke:#bf00bf;stroke-linejoin:miter;stroke-width:1.5;"/>
    </defs>
    <g clip-path="url(#p2d0b00dc79)">
     <use style="fill-opacity:0;stroke:#bf00bf;stroke-linejoin:miter;stroke-width:1.5;" x="56.84" xlink:href="#m69ede5d460" y="294.16"/>
    </g>
   </g>
   <g id="line2d_46">
    <path clip-path="url(#p2d0b00dc79)" style="fill:none;stroke:#bf00bf;stroke-linecap:square;stroke-width:1.5;"/>
    <g clip-path="url(#p2d0b00dc79)">
     <use style="fill-opacity:0;stroke:#bf00bf;stroke-linejoin:miter;stroke-width:1.5;" x="-1" xlink:href="#m69ede5d460" y="560.813465"/>
     <use style="fill-opacity:0;stroke:#bf00bf;stroke-linejoin:miter;stroke-width:1.5;" x="399.984" xlink:href="#m69ede5d460" y="560.813465"/>
    </g>
   </g>
   <g id="line2d_47">
    <path d="M 333.569032 294.16 
L 364.009226 288.826931 
" style="fill:none;stroke:#bf00bf;stroke-linecap:square;stroke-width:1.5;"/>
    <g>
     <use style="fill-opacity:0;stroke:#bf00bf;stroke-linejoin:miter;stroke-width:1.5;" x="333.569032" xlink:href="#m69ede5d460" y="294.16"/>
     <use style="fill-opacity:0;stroke:#bf00bf;stroke-linejoin:miter;stroke-width:1.5;" x="364.009226" xlink:href="#m69ede5d460" y="288.826931"/>
    </g>
   </g>
   <g id="line2d_48">
    <path d="M 333.569032 294.16 
L 364.009226 237.629465 
" style="fill:none;stroke:#ff0000;stroke-linecap:square;stroke-width:1.5;"/>
    <g>
     <use style="fill-opacity:0;stroke:#ff0000;stroke-linejoin:miter;stroke-width:1.5;" x="333.569032" xlink:href="#m280138571f" y="294.16"/>
     <use style="fill-opacity:0;stroke:#ff0000;stroke-linejoin:miter;stroke-width:1.5;" x="364.009226" xlink:href="#m280138571f" y="237.629465"/>
    </g>
   </g>
   <g id="line2d_49">
    <path d="M 333.569032 294.16 
L 364.009226 186.432 
" style="fill:none;stroke:#000000;stroke-linecap:square;stroke-width:1.5;"/>
    <g>
     <use style="fill-opacity:0;stroke:#000000;stroke-width:1.5;" x="333.569032" xlink:href="#m7ff090477a" y="294.16"/>
     <use style="fill-opacity:0;stroke:#000000;stroke-width:1.5;" x="364.009226" xlink:href="#m7ff090477a" y="186.432"/>
    </g>
   </g>
   <g id="line2d_50">
    <path d="M 333.569032 268.017503 
L 364.009226 135.234535 
" style="fill:none;stroke:#0000ff;stroke-linecap:square;stroke-width:1.5;"/>
    <g>
     <use style="fill-opacity:0;stroke:#0000ff;stroke-linejoin:bevel;stroke-width:1.5;" x="333.569032" xlink:href="#m07f2ffe112" y="268.017503"/>
     <use style="fill-opacity:0;stroke:#0000ff;stroke-linejoin:bevel;stroke-width:1.5;" x="364.009226" xlink:href="#m07f2ffe112" y="135.234535"/>
    </g>
   </g>
   <g id="line2d_51">
    <path d="M 333.569032 205.275512 
L 364.009226 84.037069 
" style="fill:none;stroke:#008000;stroke-linecap:square;stroke-width:1.5;"/>
    <g>
     <use style="fill-opacity:0;stroke:#008000;stroke-linejoin:miter;stroke-width:1.5;" x="333.569032" xlink:href="#mbd7e59eaf1" y="205.275512"/>
     <use style="fill-opacity:0;stroke:#008000;stroke-linejoin:miter;stroke-width:1.5;" x="364.009226" xlink:href="#mbd7e59eaf1" y="84.037069"/>
    </g>
   </g>
   <g id="line2d_52">
    <path d="M 333.569032 137.30502 
L 364.009226 32.839604 
" style="fill:none;stroke:#00bfbf;stroke-linecap:square;stroke-width:1.5;"/>
    <g>
     <use style="fill-opacity:0;stroke:#00bfbf;stroke-width:1.5;" x="333.569032" xlink:href="#mefc7731cf5" y="137.30502"/>
     <use style="fill-opacity:0;stroke:#00bfbf;stroke-width:1.5;" x="364.009226" xlink:href="#mefc7731cf5" y="32.839604"/>
    </g>
   </g>
   <g id="line2d_53">
    <path d="M 333.569032 294.16 
L 333.569032 27.506535 
" style="fill:none;stroke:#000000;stroke-linecap:square;stroke-width:1.5;"/>
   </g>
   <g id="patch_3">
    <path d="M 56.84 294.16 
L 56.84 24.84 
" style="fill:none;stroke:#000000;stroke-linecap:square;stroke-linejoin:miter;stroke-width:0.8;"/>
   </g>
   <g id="patch_4">
    <path d="M 399.984 294.16 
L 399.984 24.84 
" style="fill:none;stroke:#000000;stroke-linecap:square;stroke-linejoin:miter;stroke-width:0.8;"/>
   </g>
   <g id="patch_5">
    <path d="M 56.84 294.16 
L 399.984 294.16 
" style="fill:none;stroke:#000000;stroke-linecap:square;stroke-linejoin:miter;stroke-width:0.8;"/>
   </g>
   <g id="patch_6">
    <path d="M 56.84 24.84 
L 399.984 24.84 
" style="fill:none;stroke:#000000;stroke-linecap:square;stroke-linejoin:miter;stroke-width:0.8;"/>
   </g>
   <g id="text_14">
    <!-- 40-D -->
    <defs>
     <path d="M 19.671875 64.796875 
L 19.671875 8.109375 
L 31.59375 8.109375 
Q 46.6875 8.109375 53.6875 14.9375 
Q 60.6875 21.78125 60.6875 36.53125 
Q 60.6875 51.171875 53.6875 57.984375 
Q 46.6875 64.796875 31.59375 64.796875 
z
M 9.8125 72.90625 
L 30.078125 72.90625 
Q 51.265625 72.90625 61.171875 64.09375 
Q 71.09375 55.28125 71.09375 36.53125 
Q 71.09375 17.671875 61.125 8.828125 
Q 51.171875 0 30.078125 0 
L 9.8125 0 
z
" id="DejaVuSans-44"/>
    </defs>
    <g transform="translate(369.543806 293.517868)scale(0.17 -0.17)">
     <use xlink:href="#DejaVuSans-34"/>
     <use x="63.623047" xlink:href="#DejaVuSans-30"/>
     <use x="127.246094" xlink:href="#DejaVuSans-2d"/>
     <use x="163.330078" xlink:href="#DejaVuSans-44"/>
    </g>
   </g>
   <g id="text_15">
    <!-- 20-D -->
    <g transform="translate(369.543806 242.320403)scale(0.17 -0.17)">
     <use xlink:href="#DejaVuSans-32"/>
     <use x="63.623047" xlink:href="#DejaVuSans-30"/>
     <use x="127.246094" xlink:href="#DejaVuSans-2d"/>
     <use x="163.330078" xlink:href="#DejaVuSans-44"/>
    </g>
   </g>
   <g id="text_16">
    <!-- 10-D -->
    <g transform="translate(369.543806 191.122937)scale(0.17 -0.17)">
     <use xlink:href="#DejaVuSans-31"/>
     <use x="63.623047" xlink:href="#DejaVuSans-30"/>
     <use x="127.246094" xlink:href="#DejaVuSans-2d"/>
     <use x="163.330078" xlink:href="#DejaVuSans-44"/>
    </g>
   </g>
   <g id="text_17">
    <!-- 5-D -->
    <defs>
     <path d="M 10.796875 72.90625 
L 49.515625 72.90625 
L 49.515625 64.59375 
L 19.828125 64.59375 
L 19.828125 46.734375 
Q 21.96875 47.46875 24.109375 47.828125 
Q 26.265625 48.1875 28.421875 48.1875 
Q 40.625 48.1875 47.75 41.5 
Q 54.890625 34.8125 54.890625 23.390625 
Q 54.890625 11.625 47.5625 5.09375 
Q 40.234375 -1.421875 26.90625 -1.421875 
Q 22.3125 -1.421875 17.546875 -0.640625 
Q 12.796875 0.140625 7.71875 1.703125 
L 7.71875 11.625 
Q 12.109375 9.234375 16.796875 8.0625 
Q 21.484375 6.890625 26.703125 6.890625 
Q 35.15625 6.890625 40.078125 11.328125 
Q 45.015625 15.765625 45.015625 23.390625 
Q 45.015625 31 40.078125 35.4375 
Q 35.15625 39.890625 26.703125 39.890625 
Q 22.75 39.890625 18.8125 39.015625 
Q 14.890625 38.140625 10.796875 36.28125 
z
" id="DejaVuSans-35"/>
    </defs>
    <g transform="translate(369.543806 139.925472)scale(0.17 -0.17)">
     <use xlink:href="#DejaVuSans-35"/>
     <use x="63.623047" xlink:href="#DejaVuSans-2d"/>
     <use x="99.707031" xlink:href="#DejaVuSans-44"/>
    </g>
   </g>
   <g id="text_18">
    <!-- 3-D -->
    <defs>
     <path d="M 40.578125 39.3125 
Q 47.65625 37.796875 51.625 33 
Q 55.609375 28.21875 55.609375 21.1875 
Q 55.609375 10.40625 48.1875 4.484375 
Q 40.765625 -1.421875 27.09375 -1.421875 
Q 22.515625 -1.421875 17.65625 -0.515625 
Q 12.796875 0.390625 7.625 2.203125 
L 7.625 11.71875 
Q 11.71875 9.328125 16.59375 8.109375 
Q 21.484375 6.890625 26.8125 6.890625 
Q 36.078125 6.890625 40.9375 10.546875 
Q 45.796875 14.203125 45.796875 21.1875 
Q 45.796875 27.640625 41.28125 31.265625 
Q 36.765625 34.90625 28.71875 34.90625 
L 20.21875 34.90625 
L 20.21875 43.015625 
L 29.109375 43.015625 
Q 36.375 43.015625 40.234375 45.921875 
Q 44.09375 48.828125 44.09375 54.296875 
Q 44.09375 59.90625 40.109375 62.90625 
Q 36.140625 65.921875 28.71875 65.921875 
Q 24.65625 65.921875 20.015625 65.03125 
Q 15.375 64.15625 9.8125 62.3125 
L 9.8125 71.09375 
Q 15.4375 72.65625 20.34375 73.4375 
Q 25.25 74.21875 29.59375 74.21875 
Q 40.828125 74.21875 47.359375 69.109375 
Q 53.90625 64.015625 53.90625 55.328125 
Q 53.90625 49.265625 50.4375 45.09375 
Q 46.96875 40.921875 40.578125 39.3125 
z
" id="DejaVuSans-33"/>
    </defs>
    <g transform="translate(369.543806 88.728007)scale(0.17 -0.17)">
     <use xlink:href="#DejaVuSans-33"/>
     <use x="63.623047" xlink:href="#DejaVuSans-2d"/>
     <use x="99.707031" xlink:href="#DejaVuSans-44"/>
    </g>
   </g>
   <g id="text_19">
    <!-- 2-D -->
    <g transform="translate(369.543806 37.530541)scale(0.17 -0.17)">
     <use xlink:href="#DejaVuSans-32"/>
     <use x="63.623047" xlink:href="#DejaVuSans-2d"/>
     <use x="99.707031" xlink:href="#DejaVuSans-44"/>
    </g>
   </g>
   <g id="text_20">
    <!-- bbob f12 -->
    <defs>
     <path d="M 48.6875 27.296875 
Q 48.6875 37.203125 44.609375 42.84375 
Q 40.53125 48.484375 33.40625 48.484375 
Q 26.265625 48.484375 22.1875 42.84375 
Q 18.109375 37.203125 18.109375 27.296875 
Q 18.109375 17.390625 22.1875 11.75 
Q 26.265625 6.109375 33.40625 6.109375 
Q 40.53125 6.109375 44.609375 11.75 
Q 48.6875 17.390625 48.6875 27.296875 
z
M 18.109375 46.390625 
Q 20.953125 51.265625 25.265625 53.625 
Q 29.59375 56 35.59375 56 
Q 45.5625 56 51.78125 48.09375 
Q 58.015625 40.1875 58.015625 27.296875 
Q 58.015625 14.40625 51.78125 6.484375 
Q 45.5625 -1.421875 35.59375 -1.421875 
Q 29.59375 -1.421875 25.265625 0.953125 
Q 20.953125 3.328125 18.109375 8.203125 
L 18.109375 0 
L 9.078125 0 
L 9.078125 75.984375 
L 18.109375 75.984375 
z
" id="DejaVuSans-62"/>
    </defs>
    <g transform="translate(60.27144 35.283606)scale(0.102 -0.102)">
     <use xlink:href="#DejaVuSans-62"/>
     <use x="63.476562" xlink:href="#DejaVuSans-62"/>
     <use x="126.953125" xlink:href="#DejaVuSans-6f"/>
     <use x="188.134766" xlink:href="#DejaVuSans-62"/>
     <use x="251.611328" xlink:href="#DejaVuSans-20"/>
     <use x="283.398438" xlink:href="#DejaVuSans-66"/>
     <use x="318.603516" xlink:href="#DejaVuSans-31"/>
     <use x="382.226562" xlink:href="#DejaVuSans-32"/>
    </g>
    <!-- 51 targets: 100..1e-08 -->
    <defs>
     <path d="M 11.71875 12.40625 
L 22.015625 12.40625 
L 22.015625 0 
L 11.71875 0 
z
M 11.71875 51.703125 
L 22.015625 51.703125 
L 22.015625 39.3125 
L 11.71875 39.3125 
z
" id="DejaVuSans-3a"/>
    </defs>
    <g transform="translate(60.27144 46.705375)scale(0.102 -0.102)">
     <use xlink:href="#DejaVuSans-35"/>
     <use x="63.623047" xlink:href="#DejaVuSans-31"/>
     <use x="127.246094" xlink:href="#DejaVuSans-20"/>
     <use x="159.033203" xlink:href="#DejaVuSans-74"/>
     <use x="198.242188" xlink:href="#DejaVuSans-61"/>
     <use x="259.521484" xlink:href="#DejaVuSans-72"/>
     <use x="300.619141" xlink:href="#DejaVuSans-67"/>
     <use x="364.095703" xlink:href="#DejaVuSans-65"/>
     <use x="425.619141" xlink:href="#DejaVuSans-74"/>
     <use x="464.828125" xlink:href="#DejaVuSans-73"/>
     <use x="516.927734" xlink:href="#DejaVuSans-3a"/>
     <use x="550.619141" xlink:href="#DejaVuSans-20"/>
     <use x="582.40625" xlink:href="#DejaVuSans-31"/>
     <use x="646.029297" xlink:href="#DejaVuSans-30"/>
     <use x="709.652344" xlink:href="#DejaVuSans-30"/>
     <use x="773.275391" xlink:href="#DejaVuSans-2e"/>
     <use x="805.0625" xlink:href="#DejaVuSans-2e"/>
     <use x="836.849609" xlink:href="#DejaVuSans-31"/>
     <use x="900.472656" xlink:href="#DejaVuSans-65"/>
     <use x="961.996094" xlink:href="#DejaVuSans-2d"/>
     <use x="998.080078" xlink:href="#DejaVuSans-30"/>
     <use x="1061.703125" xlink:href="#DejaVuSans-38"/>
    </g>
    <!-- 15 instances -->
    <g transform="translate(60.27144 58.127144)scale(0.102 -0.102)">
     <use xlink:href="#DejaVuSans-31"/>
     <use x="63.623047" xlink:href="#DejaVuSans-35"/>
     <use x="127.246094" xlink:href="#DejaVuSans-20"/>
     <use x="159.033203" xlink:href="#DejaVuSans-69"/>
     <use x="186.816406" xlink:href="#DejaVuSans-6e"/>
     <use x="250.195312" xlink:href="#DejaVuSans-73"/>
     <use x="302.294922" xlink:href="#DejaVuSans-74"/>
     <use x="341.503906" xlink:href="#DejaVuSans-61"/>
     <use x="402.783203" xlink:href="#DejaVuSans-6e"/>
     <use x="466.162109" xlink:href="#DejaVuSans-63"/>
     <use x="521.142578" xlink:href="#DejaVuSans-65"/>
     <use x="582.666016" xlink:href="#DejaVuSans-73"/>
    </g>
   </g>
   <g id="text_21">
    <!-- v2.2.1.10 -->
    <g style="fill:#808080;" transform="translate(204.779188 289.387113)scale(0.1 -0.1)">
     <use xlink:href="#DejaVuSans-76"/>
     <use x="59.179688" xlink:href="#DejaVuSans-32"/>
     <use x="122.802734" xlink:href="#DejaVuSans-2e"/>
     <use x="154.589844" xlink:href="#DejaVuSans-32"/>
     <use x="218.212891" xlink:href="#DejaVuSans-2e"/>
     <use x="250" xlink:href="#DejaVuSans-31"/>
     <use x="313.623047" xlink:href="#DejaVuSans-2e"/>
     <use x="345.410156" xlink:href="#DejaVuSans-31"/>
     <use x="409.033203" xlink:href="#DejaVuSans-30"/>
    </g>
   </g>
   <g id="text_22">
    <!-- 12 Bent cigar -->
    <defs>
     <path d="M 19.671875 34.8125 
L 19.671875 8.109375 
L 35.5 8.109375 
Q 43.453125 8.109375 47.28125 11.40625 
Q 51.125 14.703125 51.125 21.484375 
Q 51.125 28.328125 47.28125 31.5625 
Q 43.453125 34.8125 35.5 34.8125 
z
M 19.671875 64.796875 
L 19.671875 42.828125 
L 34.28125 42.828125 
Q 41.5 42.828125 45.03125 45.53125 
Q 48.578125 48.25 48.578125 53.8125 
Q 48.578125 59.328125 45.03125 62.0625 
Q 41.5 64.796875 34.28125 64.796875 
z
M 9.8125 72.90625 
L 35.015625 72.90625 
Q 46.296875 72.90625 52.390625 68.21875 
Q 58.5 63.53125 58.5 54.890625 
Q 58.5 48.1875 55.375 44.234375 
Q 52.25 40.28125 46.1875 39.3125 
Q 53.46875 37.75 57.5 32.78125 
Q 61.53125 27.828125 61.53125 20.40625 
Q 61.53125 10.640625 54.890625 5.3125 
Q 48.25 0 35.984375 0 
L 9.8125 0 
z
" id="DejaVuSans-42"/>
    </defs>
    <g transform="translate(161.194813 18.84)scale(0.2 -0.2)">
     <use xlink:href="#DejaVuSans-31"/>
     <use x="63.623047" xlink:href="#DejaVuSans-32"/>
     <use x="127.246094" xlink:href="#DejaVuSans-20"/>
     <use x="159.033203" xlink:href="#DejaVuSans-42"/>
     <use x="227.636719" xlink:href="#DejaVuSans-65"/>
     <use x="289.160156" xlink:href="#DejaVuSans-6e"/>
     <use x="352.539062" xlink:href="#DejaVuSans-74"/>
     <use x="391.748047" xlink:href="#DejaVuSans-20"/>
     <use x="423.535156" xlink:href="#DejaVuSans-63"/>
     <use x="478.515625" xlink:href="#DejaVuSans-69"/>
     <use x="506.298828" xlink:href="#DejaVuSans-67"/>
     <use x="569.775391" xlink:href="#DejaVuSans-61"/>
     <use x="631.054688" xlink:href="#DejaVuSans-72"/>
    </g>
   </g>
  </g>
 </g>
 <defs>
  <clipPath id="p2d0b00dc79">
   <rect height="269.32" width="343.144" x="56.84" y="24.84"/>
  </clipPath>
 </defs>
</svg>
