<?xml version="1.0" encoding="utf-8" standalone="no"?>
<!DOCTYPE svg PUBLIC "-//W3C//DTD SVG 1.1//EN"
  "http://www.w3.org/Graphics/SVG/1.1/DTD/svg11.dtd">
<!-- Created with matplotlib (http://matplotlib.org/) -->
<svg height="345.6pt" version="1.1" viewBox="0 0 460.8 345.6" width="460.8pt" xmlns="http://www.w3.org/2000/svg" xmlns:xlink="http://www.w3.org/1999/xlink">
 <defs>
  <style type="text/css">
*{stroke-linecap:butt;stroke-linejoin:round;}
  </style>
 </defs>
 <g id="figure_1">
  <g id="patch_1">
   <path d="M 0 345.6 
L 460.8 345.6 
L 460.8 0 
L 0 0 
z
" style="fill:#ffffff;"/>
  </g>
  <g id="axes_1">
   <g id="patch_2">
    <path d="M 56.84 294.16 
L 399.984 294.16 
L 399.984 24.84 
L 56.84 24.84 
z
" style="fill:#ffffff;"/>
   </g>
   <g id="matplotlib.axis_1">
    <g id="xtick_1">
     <g id="line2d_1">
      <path clip-path="url(#p5fe98dc5d4)" d="M 56.84 294.16 
L 56.84 24.84 
" style="fill:none;stroke:#b0b0b0;stroke-linecap:square;stroke-width:0.8;"/>
     </g>
     <g id="line2d_2">
      <defs>
       <path d="M 0 0 
L 0 3.5 
" id="m211828c36d" style="stroke:#000000;stroke-width:0.8;"/>
      </defs>
      <g>
       <use style="stroke:#000000;stroke-width:0.8;" x="56.84" xlink:href="#m211828c36d" y="294.16"/>
      </g>
     </g>
     <g id="text_1">
      <!-- 0 -->
      <defs>
       <path d="M 31.78125 66.40625 
Q 24.171875 66.40625 20.328125 58.90625 
Q 16.5 51.421875 16.5 36.375 
Q 16.5 21.390625 20.328125 13.890625 
Q 24.171875 6.390625 31.78125 6.390625 
Q 39.453125 6.390625 43.28125 13.890625 
Q 47.125 21.390625 47.125 36.375 
Q 47.125 51.421875 43.28125 58.90625 
Q 39.453125 66.40625 31.78125 66.40625 
z
M 31.78125 74.21875 
Q 44.046875 74.21875 50.515625 64.515625 
Q 56.984375 54.828125 56.984375 36.375 
Q 56.984375 17.96875 50.515625 8.265625 
Q 44.046875 -1.421875 31.78125 -1.421875 
Q 19.53125 -1.421875 13.0625 8.265625 
Q 6.59375 17.96875 6.59375 36.375 
Q 6.59375 54.828125 13.0625 64.515625 
Q 19.53125 74.21875 31.78125 74.21875 
z
" id="DejaVuSans-30"/>
      </defs>
      <g transform="translate(50.4775 316.356875)scale(0.2 -0.2)">
       <use xlink:href="#DejaVuSans-30"/>
      </g>
     </g>
    </g>
    <g id="xtick_2">
     <g id="line2d_3">
      <path clip-path="url(#p5fe98dc5d4)" d="M 135.905438 294.16 
L 135.905438 24.84 
" style="fill:none;stroke:#b0b0b0;stroke-linecap:square;stroke-width:0.8;"/>
     </g>
     <g id="line2d_4">
      <g>
       <use style="stroke:#000000;stroke-width:0.8;" x="135.905438" xlink:href="#m211828c36d" y="294.16"/>
      </g>
     </g>
     <g id="text_2">
      <!-- 2 -->
      <defs>
       <path d="M 19.1875 8.296875 
L 53.609375 8.296875 
L 53.609375 0 
L 7.328125 0 
L 7.328125 8.296875 
Q 12.9375 14.109375 22.625 23.890625 
Q 32.328125 33.6875 34.8125 36.53125 
Q 39.546875 41.84375 41.421875 45.53125 
Q 43.3125 49.21875 43.3125 52.78125 
Q 43.3125 58.59375 39.234375 62.25 
Q 35.15625 65.921875 28.609375 65.921875 
Q 23.96875 65.921875 18.8125 64.3125 
Q 13.671875 62.703125 7.8125 59.421875 
L 7.8125 69.390625 
Q 13.765625 71.78125 18.9375 73 
Q 24.125 74.21875 28.421875 74.21875 
Q 39.75 74.21875 46.484375 68.546875 
Q 53.21875 62.890625 53.21875 53.421875 
Q 53.21875 48.921875 51.53125 44.890625 
Q 49.859375 40.875 45.40625 35.40625 
Q 44.1875 33.984375 37.640625 27.21875 
Q 31.109375 20.453125 19.1875 8.296875 
z
" id="DejaVuSans-32"/>
      </defs>
      <g transform="translate(129.542938 316.356875)scale(0.2 -0.2)">
       <use xlink:href="#DejaVuSans-32"/>
      </g>
     </g>
    </g>
    <g id="xtick_3">
     <g id="line2d_5">
      <path clip-path="url(#p5fe98dc5d4)" d="M 214.970876 294.16 
L 214.970876 24.84 
" style="fill:none;stroke:#b0b0b0;stroke-linecap:square;stroke-width:0.8;"/>
     </g>
     <g id="line2d_6">
      <g>
       <use style="stroke:#000000;stroke-width:0.8;" x="214.970876" xlink:href="#m211828c36d" y="294.16"/>
      </g>
     </g>
     <g id="text_3">
      <!-- 4 -->
      <defs>
       <path d="M 37.796875 64.3125 
L 12.890625 25.390625 
L 37.796875 25.390625 
z
M 35.203125 72.90625 
L 47.609375 72.90625 
L 47.609375 25.390625 
L 58.015625 25.390625 
L 58.015625 17.1875 
L 47.609375 17.1875 
L 47.609375 0 
L 37.796875 0 
L 37.796875 17.1875 
L 4.890625 17.1875 
L 4.890625 26.703125 
z
" id="DejaVuSans-34"/>
      </defs>
      <g transform="translate(208.608376 316.356875)scale(0.2 -0.2)">
       <use xlink:href="#DejaVuSans-34"/>
      </g>
     </g>
    </g>
    <g id="xtick_4">
     <g id="line2d_7">
      <path clip-path="url(#p5fe98dc5d4)" d="M 294.036313 294.16 
L 294.036313 24.84 
" style="fill:none;stroke:#b0b0b0;stroke-linecap:square;stroke-width:0.8;"/>
     </g>
     <g id="line2d_8">
      <g>
       <use style="stroke:#000000;stroke-width:0.8;" x="294.036313" xlink:href="#m211828c36d" y="294.16"/>
      </g>
     </g>
     <g id="text_4">
      <!-- 6 -->
      <defs>
       <path d="M 33.015625 40.375 
Q 26.375 40.375 22.484375 35.828125 
Q 18.609375 31.296875 18.609375 23.390625 
Q 18.609375 15.53125 22.484375 10.953125 
Q 26.375 6.390625 33.015625 6.390625 
Q 39.65625 6.390625 43.53125 10.953125 
Q 47.40625 15.53125 47.40625 23.390625 
Q 47.40625 31.296875 43.53125 35.828125 
Q 39.65625 40.375 33.015625 40.375 
z
M 52.59375 71.296875 
L 52.59375 62.3125 
Q 48.875 64.0625 45.09375 64.984375 
Q 41.3125 65.921875 37.59375 65.921875 
Q 27.828125 65.921875 22.671875 59.328125 
Q 17.53125 52.734375 16.796875 39.40625 
Q 19.671875 43.65625 24.015625 45.921875 
Q 28.375 48.1875 33.59375 48.1875 
Q 44.578125 48.1875 50.953125 41.515625 
Q 57.328125 34.859375 57.328125 23.390625 
Q 57.328125 12.15625 50.6875 5.359375 
Q 44.046875 -1.421875 33.015625 -1.421875 
Q 20.359375 -1.421875 13.671875 8.265625 
Q 6.984375 17.96875 6.984375 36.375 
Q 6.984375 53.65625 15.1875 63.9375 
Q 23.390625 74.21875 37.203125 74.21875 
Q 40.921875 74.21875 44.703125 73.484375 
Q 48.484375 72.75 52.59375 71.296875 
z
" id="DejaVuSans-36"/>
      </defs>
      <g transform="translate(287.673813 316.356875)scale(0.2 -0.2)">
       <use xlink:href="#DejaVuSans-36"/>
      </g>
     </g>
    </g>
    <g id="xtick_5">
     <g id="line2d_9">
      <path clip-path="url(#p5fe98dc5d4)" d="M 373.101751 294.16 
L 373.101751 24.84 
" style="fill:none;stroke:#b0b0b0;stroke-linecap:square;stroke-width:0.8;"/>
     </g>
     <g id="line2d_10">
      <g>
       <use style="stroke:#000000;stroke-width:0.8;" x="373.101751" xlink:href="#m211828c36d" y="294.16"/>
      </g>
     </g>
     <g id="text_5">
      <!-- 8 -->
      <defs>
       <path d="M 31.78125 34.625 
Q 24.75 34.625 20.71875 30.859375 
Q 16.703125 27.09375 16.703125 20.515625 
Q 16.703125 13.921875 20.71875 10.15625 
Q 24.75 6.390625 31.78125 6.390625 
Q 38.8125 6.390625 42.859375 10.171875 
Q 46.921875 13.96875 46.921875 20.515625 
Q 46.921875 27.09375 42.890625 30.859375 
Q 38.875 34.625 31.78125 34.625 
z
M 21.921875 38.8125 
Q 15.578125 40.375 12.03125 44.71875 
Q 8.5 49.078125 8.5 55.328125 
Q 8.5 64.0625 14.71875 69.140625 
Q 20.953125 74.21875 31.78125 74.21875 
Q 42.671875 74.21875 48.875 69.140625 
Q 55.078125 64.0625 55.078125 55.328125 
Q 55.078125 49.078125 51.53125 44.71875 
Q 48 40.375 41.703125 38.8125 
Q 48.828125 37.15625 52.796875 32.3125 
Q 56.78125 27.484375 56.78125 20.515625 
Q 56.78125 9.90625 50.3125 4.234375 
Q 43.84375 -1.421875 31.78125 -1.421875 
Q 19.734375 -1.421875 13.25 4.234375 
Q 6.78125 9.90625 6.78125 20.515625 
Q 6.78125 27.484375 10.78125 32.3125 
Q 14.796875 37.15625 21.921875 38.8125 
z
M 18.3125 54.390625 
Q 18.3125 48.734375 21.84375 45.5625 
Q 25.390625 42.390625 31.78125 42.390625 
Q 38.140625 42.390625 41.71875 45.5625 
Q 45.3125 48.734375 45.3125 54.390625 
Q 45.3125 60.0625 41.71875 63.234375 
Q 38.140625 66.40625 31.78125 66.40625 
Q 25.390625 66.40625 21.84375 63.234375 
Q 18.3125 60.0625 18.3125 54.390625 
z
" id="DejaVuSans-38"/>
      </defs>
      <g transform="translate(366.739251 316.356875)scale(0.2 -0.2)">
       <use xlink:href="#DejaVuSans-38"/>
      </g>
     </g>
    </g>
    <g id="text_6">
     <!-- log10(# f-evals / dimension) -->
     <defs>
      <path d="M 9.421875 75.984375 
L 18.40625 75.984375 
L 18.40625 0 
L 9.421875 0 
z
" id="DejaVuSans-6c"/>
      <path d="M 30.609375 48.390625 
Q 23.390625 48.390625 19.1875 42.75 
Q 14.984375 37.109375 14.984375 27.296875 
Q 14.984375 17.484375 19.15625 11.84375 
Q 23.34375 6.203125 30.609375 6.203125 
Q 37.796875 6.203125 41.984375 11.859375 
Q 46.1875 17.53125 46.1875 27.296875 
Q 46.1875 37.015625 41.984375 42.703125 
Q 37.796875 48.390625 30.609375 48.390625 
z
M 30.609375 56 
Q 42.328125 56 49.015625 48.375 
Q 55.71875 40.765625 55.71875 27.296875 
Q 55.71875 13.875 49.015625 6.21875 
Q 42.328125 -1.421875 30.609375 -1.421875 
Q 18.84375 -1.421875 12.171875 6.21875 
Q 5.515625 13.875 5.515625 27.296875 
Q 5.515625 40.765625 12.171875 48.375 
Q 18.84375 56 30.609375 56 
z
" id="DejaVuSans-6f"/>
      <path d="M 45.40625 27.984375 
Q 45.40625 37.75 41.375 43.109375 
Q 37.359375 48.484375 30.078125 48.484375 
Q 22.859375 48.484375 18.828125 43.109375 
Q 14.796875 37.75 14.796875 27.984375 
Q 14.796875 18.265625 18.828125 12.890625 
Q 22.859375 7.515625 30.078125 7.515625 
Q 37.359375 7.515625 41.375 12.890625 
Q 45.40625 18.265625 45.40625 27.984375 
z
M 54.390625 6.78125 
Q 54.390625 -7.171875 48.1875 -13.984375 
Q 42 -20.796875 29.203125 -20.796875 
Q 24.46875 -20.796875 20.265625 -20.09375 
Q 16.0625 -19.390625 12.109375 -17.921875 
L 12.109375 -9.1875 
Q 16.0625 -11.328125 19.921875 -12.34375 
Q 23.78125 -13.375 27.78125 -13.375 
Q 36.625 -13.375 41.015625 -8.765625 
Q 45.40625 -4.15625 45.40625 5.171875 
L 45.40625 9.625 
Q 42.625 4.78125 38.28125 2.390625 
Q 33.9375 0 27.875 0 
Q 17.828125 0 11.671875 7.65625 
Q 5.515625 15.328125 5.515625 27.984375 
Q 5.515625 40.671875 11.671875 48.328125 
Q 17.828125 56 27.875 56 
Q 33.9375 56 38.28125 53.609375 
Q 42.625 51.21875 45.40625 46.390625 
L 45.40625 54.6875 
L 54.390625 54.6875 
z
" id="DejaVuSans-67"/>
      <path d="M 12.40625 8.296875 
L 28.515625 8.296875 
L 28.515625 63.921875 
L 10.984375 60.40625 
L 10.984375 69.390625 
L 28.421875 72.90625 
L 38.28125 72.90625 
L 38.28125 8.296875 
L 54.390625 8.296875 
L 54.390625 0 
L 12.40625 0 
z
" id="DejaVuSans-31"/>
      <path d="M 31 75.875 
Q 24.46875 64.65625 21.28125 53.65625 
Q 18.109375 42.671875 18.109375 31.390625 
Q 18.109375 20.125 21.3125 9.0625 
Q 24.515625 -2 31 -13.1875 
L 23.1875 -13.1875 
Q 15.875 -1.703125 12.234375 9.375 
Q 8.59375 20.453125 8.59375 31.390625 
Q 8.59375 42.28125 12.203125 53.3125 
Q 15.828125 64.359375 23.1875 75.875 
z
" id="DejaVuSans-28"/>
      <path d="M 51.125 44 
L 36.921875 44 
L 32.8125 27.6875 
L 47.125 27.6875 
z
M 43.796875 71.78125 
L 38.71875 51.515625 
L 52.984375 51.515625 
L 58.109375 71.78125 
L 65.921875 71.78125 
L 60.890625 51.515625 
L 76.125 51.515625 
L 76.125 44 
L 58.984375 44 
L 54.984375 27.6875 
L 70.515625 27.6875 
L 70.515625 20.21875 
L 53.078125 20.21875 
L 48 0 
L 40.1875 0 
L 45.21875 20.21875 
L 30.90625 20.21875 
L 25.875 0 
L 18.015625 0 
L 23.09375 20.21875 
L 7.71875 20.21875 
L 7.71875 27.6875 
L 24.90625 27.6875 
L 29 44 
L 13.28125 44 
L 13.28125 51.515625 
L 30.90625 51.515625 
L 35.890625 71.78125 
z
" id="DejaVuSans-23"/>
      <path id="DejaVuSans-20"/>
      <path d="M 37.109375 75.984375 
L 37.109375 68.5 
L 28.515625 68.5 
Q 23.6875 68.5 21.796875 66.546875 
Q 19.921875 64.59375 19.921875 59.515625 
L 19.921875 54.6875 
L 34.71875 54.6875 
L 34.71875 47.703125 
L 19.921875 47.703125 
L 19.921875 0 
L 10.890625 0 
L 10.890625 47.703125 
L 2.296875 47.703125 
L 2.296875 54.6875 
L 10.890625 54.6875 
L 10.890625 58.5 
Q 10.890625 67.625 15.140625 71.796875 
Q 19.390625 75.984375 28.609375 75.984375 
z
" id="DejaVuSans-66"/>
      <path d="M 4.890625 31.390625 
L 31.203125 31.390625 
L 31.203125 23.390625 
L 4.890625 23.390625 
z
" id="DejaVuSans-2d"/>
      <path d="M 56.203125 29.59375 
L 56.203125 25.203125 
L 14.890625 25.203125 
Q 15.484375 15.921875 20.484375 11.0625 
Q 25.484375 6.203125 34.421875 6.203125 
Q 39.59375 6.203125 44.453125 7.46875 
Q 49.3125 8.734375 54.109375 11.28125 
L 54.109375 2.78125 
Q 49.265625 0.734375 44.1875 -0.34375 
Q 39.109375 -1.421875 33.890625 -1.421875 
Q 20.796875 -1.421875 13.15625 6.1875 
Q 5.515625 13.8125 5.515625 26.8125 
Q 5.515625 40.234375 12.765625 48.109375 
Q 20.015625 56 32.328125 56 
Q 43.359375 56 49.78125 48.890625 
Q 56.203125 41.796875 56.203125 29.59375 
z
M 47.21875 32.234375 
Q 47.125 39.59375 43.09375 43.984375 
Q 39.0625 48.390625 32.421875 48.390625 
Q 24.90625 48.390625 20.390625 44.140625 
Q 15.875 39.890625 15.1875 32.171875 
z
" id="DejaVuSans-65"/>
      <path d="M 2.984375 54.6875 
L 12.5 54.6875 
L 29.59375 8.796875 
L 46.6875 54.6875 
L 56.203125 54.6875 
L 35.6875 0 
L 23.484375 0 
z
" id="DejaVuSans-76"/>
      <path d="M 34.28125 27.484375 
Q 23.390625 27.484375 19.1875 25 
Q 14.984375 22.515625 14.984375 16.5 
Q 14.984375 11.71875 18.140625 8.90625 
Q 21.296875 6.109375 26.703125 6.109375 
Q 34.1875 6.109375 38.703125 11.40625 
Q 43.21875 16.703125 43.21875 25.484375 
L 43.21875 27.484375 
z
M 52.203125 31.203125 
L 52.203125 0 
L 43.21875 0 
L 43.21875 8.296875 
Q 40.140625 3.328125 35.546875 0.953125 
Q 30.953125 -1.421875 24.3125 -1.421875 
Q 15.921875 -1.421875 10.953125 3.296875 
Q 6 8.015625 6 15.921875 
Q 6 25.140625 12.171875 29.828125 
Q 18.359375 34.515625 30.609375 34.515625 
L 43.21875 34.515625 
L 43.21875 35.40625 
Q 43.21875 41.609375 39.140625 45 
Q 35.0625 48.390625 27.6875 48.390625 
Q 23 48.390625 18.546875 47.265625 
Q 14.109375 46.140625 10.015625 43.890625 
L 10.015625 52.203125 
Q 14.9375 54.109375 19.578125 55.046875 
Q 24.21875 56 28.609375 56 
Q 40.484375 56 46.34375 49.84375 
Q 52.203125 43.703125 52.203125 31.203125 
z
" id="DejaVuSans-61"/>
      <path d="M 44.28125 53.078125 
L 44.28125 44.578125 
Q 40.484375 46.53125 36.375 47.5 
Q 32.28125 48.484375 27.875 48.484375 
Q 21.1875 48.484375 17.84375 46.4375 
Q 14.5 44.390625 14.5 40.28125 
Q 14.5 37.15625 16.890625 35.375 
Q 19.28125 33.59375 26.515625 31.984375 
L 29.59375 31.296875 
Q 39.15625 29.25 43.1875 25.515625 
Q 47.21875 21.78125 47.21875 15.09375 
Q 47.21875 7.46875 41.1875 3.015625 
Q 35.15625 -1.421875 24.609375 -1.421875 
Q 20.21875 -1.421875 15.453125 -0.5625 
Q 10.6875 0.296875 5.421875 2 
L 5.421875 11.28125 
Q 10.40625 8.6875 15.234375 7.390625 
Q 20.0625 6.109375 24.8125 6.109375 
Q 31.15625 6.109375 34.5625 8.28125 
Q 37.984375 10.453125 37.984375 14.40625 
Q 37.984375 18.0625 35.515625 20.015625 
Q 33.0625 21.96875 24.703125 23.78125 
L 21.578125 24.515625 
Q 13.234375 26.265625 9.515625 29.90625 
Q 5.8125 33.546875 5.8125 39.890625 
Q 5.8125 47.609375 11.28125 51.796875 
Q 16.75 56 26.8125 56 
Q 31.78125 56 36.171875 55.265625 
Q 40.578125 54.546875 44.28125 53.078125 
z
" id="DejaVuSans-73"/>
      <path d="M 25.390625 72.90625 
L 33.6875 72.90625 
L 8.296875 -9.28125 
L 0 -9.28125 
z
" id="DejaVuSans-2f"/>
      <path d="M 45.40625 46.390625 
L 45.40625 75.984375 
L 54.390625 75.984375 
L 54.390625 0 
L 45.40625 0 
L 45.40625 8.203125 
Q 42.578125 3.328125 38.25 0.953125 
Q 33.9375 -1.421875 27.875 -1.421875 
Q 17.96875 -1.421875 11.734375 6.484375 
Q 5.515625 14.40625 5.515625 27.296875 
Q 5.515625 40.1875 11.734375 48.09375 
Q 17.96875 56 27.875 56 
Q 33.9375 56 38.25 53.625 
Q 42.578125 51.265625 45.40625 46.390625 
z
M 14.796875 27.296875 
Q 14.796875 17.390625 18.875 11.75 
Q 22.953125 6.109375 30.078125 6.109375 
Q 37.203125 6.109375 41.296875 11.75 
Q 45.40625 17.390625 45.40625 27.296875 
Q 45.40625 37.203125 41.296875 42.84375 
Q 37.203125 48.484375 30.078125 48.484375 
Q 22.953125 48.484375 18.875 42.84375 
Q 14.796875 37.203125 14.796875 27.296875 
z
" id="DejaVuSans-64"/>
      <path d="M 9.421875 54.6875 
L 18.40625 54.6875 
L 18.40625 0 
L 9.421875 0 
z
M 9.421875 75.984375 
L 18.40625 75.984375 
L 18.40625 64.59375 
L 9.421875 64.59375 
z
" id="DejaVuSans-69"/>
      <path d="M 52 44.1875 
Q 55.375 50.25 60.0625 53.125 
Q 64.75 56 71.09375 56 
Q 79.640625 56 84.28125 50.015625 
Q 88.921875 44.046875 88.921875 33.015625 
L 88.921875 0 
L 79.890625 0 
L 79.890625 32.71875 
Q 79.890625 40.578125 77.09375 44.375 
Q 74.3125 48.1875 68.609375 48.1875 
Q 61.625 48.1875 57.5625 43.546875 
Q 53.515625 38.921875 53.515625 30.90625 
L 53.515625 0 
L 44.484375 0 
L 44.484375 32.71875 
Q 44.484375 40.625 41.703125 44.40625 
Q 38.921875 48.1875 33.109375 48.1875 
Q 26.21875 48.1875 22.15625 43.53125 
Q 18.109375 38.875 18.109375 30.90625 
L 18.109375 0 
L 9.078125 0 
L 9.078125 54.6875 
L 18.109375 54.6875 
L 18.109375 46.1875 
Q 21.1875 51.21875 25.484375 53.609375 
Q 29.78125 56 35.6875 56 
Q 41.65625 56 45.828125 52.96875 
Q 50 49.953125 52 44.1875 
z
" id="DejaVuSans-6d"/>
      <path d="M 54.890625 33.015625 
L 54.890625 0 
L 45.90625 0 
L 45.90625 32.71875 
Q 45.90625 40.484375 42.875 44.328125 
Q 39.84375 48.1875 33.796875 48.1875 
Q 26.515625 48.1875 22.3125 43.546875 
Q 18.109375 38.921875 18.109375 30.90625 
L 18.109375 0 
L 9.078125 0 
L 9.078125 54.6875 
L 18.109375 54.6875 
L 18.109375 46.1875 
Q 21.34375 51.125 25.703125 53.5625 
Q 30.078125 56 35.796875 56 
Q 45.21875 56 50.046875 50.171875 
Q 54.890625 44.34375 54.890625 33.015625 
z
" id="DejaVuSans-6e"/>
      <path d="M 8.015625 75.875 
L 15.828125 75.875 
Q 23.140625 64.359375 26.78125 53.3125 
Q 30.421875 42.28125 30.421875 31.390625 
Q 30.421875 20.453125 26.78125 9.375 
Q 23.140625 -1.703125 15.828125 -13.1875 
L 8.015625 -13.1875 
Q 14.5 -2 17.703125 9.0625 
Q 20.90625 20.125 20.90625 31.390625 
Q 20.90625 42.671875 17.703125 53.65625 
Q 14.5 64.65625 8.015625 75.875 
z
" id="DejaVuSans-29"/>
     </defs>
     <g transform="translate(107.571219 337.433594)scale(0.17 -0.17)">
      <use xlink:href="#DejaVuSans-6c"/>
      <use x="27.783203" xlink:href="#DejaVuSans-6f"/>
      <use x="88.964844" xlink:href="#DejaVuSans-67"/>
      <use x="152.441406" xlink:href="#DejaVuSans-31"/>
      <use x="216.064453" xlink:href="#DejaVuSans-30"/>
      <use x="279.6875" xlink:href="#DejaVuSans-28"/>
      <use x="318.701172" xlink:href="#DejaVuSans-23"/>
      <use x="402.490234" xlink:href="#DejaVuSans-20"/>
      <use x="434.277344" xlink:href="#DejaVuSans-66"/>
      <use x="469.404297" xlink:href="#DejaVuSans-2d"/>
      <use x="505.488281" xlink:href="#DejaVuSans-65"/>
      <use x="567.011719" xlink:href="#DejaVuSans-76"/>
      <use x="626.191406" xlink:href="#DejaVuSans-61"/>
      <use x="687.470703" xlink:href="#DejaVuSans-6c"/>
      <use x="715.253906" xlink:href="#DejaVuSans-73"/>
      <use x="767.353516" xlink:href="#DejaVuSans-20"/>
      <use x="799.140625" xlink:href="#DejaVuSans-2f"/>
      <use x="832.832031" xlink:href="#DejaVuSans-20"/>
      <use x="864.619141" xlink:href="#DejaVuSans-64"/>
      <use x="928.095703" xlink:href="#DejaVuSans-69"/>
      <use x="955.878906" xlink:href="#DejaVuSans-6d"/>
      <use x="1053.291016" xlink:href="#DejaVuSans-65"/>
      <use x="1114.814453" xlink:href="#DejaVuSans-6e"/>
      <use x="1178.193359" xlink:href="#DejaVuSans-73"/>
      <use x="1230.292969" xlink:href="#DejaVuSans-69"/>
      <use x="1258.076172" xlink:href="#DejaVuSans-6f"/>
      <use x="1319.257812" xlink:href="#DejaVuSans-6e"/>
      <use x="1382.636719" xlink:href="#DejaVuSans-29"/>
     </g>
    </g>
   </g>
   <g id="matplotlib.axis_2">
    <g id="ytick_1">
     <g id="line2d_11">
      <path clip-path="url(#p5fe98dc5d4)" d="M 56.84 294.16 
L 399.984 294.16 
" style="fill:none;stroke:#b0b0b0;stroke-linecap:square;stroke-width:0.8;"/>
     </g>
     <g id="line2d_12">
      <defs>
       <path d="M 0 0 
L -3.5 0 
" id="m1628212d34" style="stroke:#000000;stroke-width:0.8;"/>
      </defs>
      <g>
       <use style="stroke:#000000;stroke-width:0.8;" x="56.84" xlink:href="#m1628212d34" y="294.16"/>
      </g>
     </g>
     <g id="text_7">
      <!-- 0.0 -->
      <defs>
       <path d="M 10.6875 12.40625 
L 21 12.40625 
L 21 0 
L 10.6875 0 
z
" id="DejaVuSans-2e"/>
      </defs>
      <g transform="translate(24.395 300.23875)scale(0.16 -0.16)">
       <use xlink:href="#DejaVuSans-30"/>
       <use x="63.623047" xlink:href="#DejaVuSans-2e"/>
       <use x="95.410156" xlink:href="#DejaVuSans-30"/>
      </g>
     </g>
    </g>
    <g id="ytick_2">
     <g id="line2d_13">
      <path clip-path="url(#p5fe98dc5d4)" d="M 56.84 240.829307 
L 399.984 240.829307 
" style="fill:none;stroke:#b0b0b0;stroke-linecap:square;stroke-width:0.8;"/>
     </g>
     <g id="line2d_14">
      <g>
       <use style="stroke:#000000;stroke-width:0.8;" x="56.84" xlink:href="#m1628212d34" y="240.829307"/>
      </g>
     </g>
     <g id="text_8">
      <!-- 0.2 -->
      <g transform="translate(24.395 246.908057)scale(0.16 -0.16)">
       <use xlink:href="#DejaVuSans-30"/>
       <use x="63.623047" xlink:href="#DejaVuSans-2e"/>
       <use x="95.410156" xlink:href="#DejaVuSans-32"/>
      </g>
     </g>
    </g>
    <g id="ytick_3">
     <g id="line2d_15">
      <path clip-path="url(#p5fe98dc5d4)" d="M 56.84 187.498614 
L 399.984 187.498614 
" style="fill:none;stroke:#b0b0b0;stroke-linecap:square;stroke-width:0.8;"/>
     </g>
     <g id="line2d_16">
      <g>
       <use style="stroke:#000000;stroke-width:0.8;" x="56.84" xlink:href="#m1628212d34" y="187.498614"/>
      </g>
     </g>
     <g id="text_9">
      <!-- 0.4 -->
      <g transform="translate(24.395 193.577364)scale(0.16 -0.16)">
       <use xlink:href="#DejaVuSans-30"/>
       <use x="63.623047" xlink:href="#DejaVuSans-2e"/>
       <use x="95.410156" xlink:href="#DejaVuSans-34"/>
      </g>
     </g>
    </g>
    <g id="ytick_4">
     <g id="line2d_17">
      <path clip-path="url(#p5fe98dc5d4)" d="M 56.84 134.167921 
L 399.984 134.167921 
" style="fill:none;stroke:#b0b0b0;stroke-linecap:square;stroke-width:0.8;"/>
     </g>
     <g id="line2d_18">
      <g>
       <use style="stroke:#000000;stroke-width:0.8;" x="56.84" xlink:href="#m1628212d34" y="134.167921"/>
      </g>
     </g>
     <g id="text_10">
      <!-- 0.6 -->
      <g transform="translate(24.395 140.246671)scale(0.16 -0.16)">
       <use xlink:href="#DejaVuSans-30"/>
       <use x="63.623047" xlink:href="#DejaVuSans-2e"/>
       <use x="95.410156" xlink:href="#DejaVuSans-36"/>
      </g>
     </g>
    </g>
    <g id="ytick_5">
     <g id="line2d_19">
      <path clip-path="url(#p5fe98dc5d4)" d="M 56.84 80.837228 
L 399.984 80.837228 
" style="fill:none;stroke:#b0b0b0;stroke-linecap:square;stroke-width:0.8;"/>
     </g>
     <g id="line2d_20">
      <g>
       <use style="stroke:#000000;stroke-width:0.8;" x="56.84" xlink:href="#m1628212d34" y="80.837228"/>
      </g>
     </g>
     <g id="text_11">
      <!-- 0.8 -->
      <g transform="translate(24.395 86.915978)scale(0.16 -0.16)">
       <use xlink:href="#DejaVuSans-30"/>
       <use x="63.623047" xlink:href="#DejaVuSans-2e"/>
       <use x="95.410156" xlink:href="#DejaVuSans-38"/>
      </g>
     </g>
    </g>
    <g id="ytick_6">
     <g id="line2d_21">
      <path clip-path="url(#p5fe98dc5d4)" d="M 56.84 27.506535 
L 399.984 27.506535 
" style="fill:none;stroke:#b0b0b0;stroke-linecap:square;stroke-width:0.8;"/>
     </g>
     <g id="line2d_22">
      <g>
       <use style="stroke:#000000;stroke-width:0.8;" x="56.84" xlink:href="#m1628212d34" y="27.506535"/>
      </g>
     </g>
     <g id="text_12">
      <!-- 1.0 -->
      <g transform="translate(24.395 33.585285)scale(0.16 -0.16)">
       <use xlink:href="#DejaVuSans-31"/>
       <use x="63.623047" xlink:href="#DejaVuSans-2e"/>
       <use x="95.410156" xlink:href="#DejaVuSans-30"/>
      </g>
     </g>
    </g>
    <g id="text_13">
     <!-- Fraction of function,target pairs -->
     <defs>
      <path d="M 9.8125 72.90625 
L 51.703125 72.90625 
L 51.703125 64.59375 
L 19.671875 64.59375 
L 19.671875 43.109375 
L 48.578125 43.109375 
L 48.578125 34.8125 
L 19.671875 34.8125 
L 19.671875 0 
L 9.8125 0 
z
" id="DejaVuSans-46"/>
      <path d="M 41.109375 46.296875 
Q 39.59375 47.171875 37.8125 47.578125 
Q 36.03125 48 33.890625 48 
Q 26.265625 48 22.1875 43.046875 
Q 18.109375 38.09375 18.109375 28.8125 
L 18.109375 0 
L 9.078125 0 
L 9.078125 54.6875 
L 18.109375 54.6875 
L 18.109375 46.1875 
Q 20.953125 51.171875 25.484375 53.578125 
Q 30.03125 56 36.53125 56 
Q 37.453125 56 38.578125 55.875 
Q 39.703125 55.765625 41.0625 55.515625 
z
" id="DejaVuSans-72"/>
      <path d="M 48.78125 52.59375 
L 48.78125 44.1875 
Q 44.96875 46.296875 41.140625 47.34375 
Q 37.3125 48.390625 33.40625 48.390625 
Q 24.65625 48.390625 19.8125 42.84375 
Q 14.984375 37.3125 14.984375 27.296875 
Q 14.984375 17.28125 19.8125 11.734375 
Q 24.65625 6.203125 33.40625 6.203125 
Q 37.3125 6.203125 41.140625 7.25 
Q 44.96875 8.296875 48.78125 10.40625 
L 48.78125 2.09375 
Q 45.015625 0.34375 40.984375 -0.53125 
Q 36.96875 -1.421875 32.421875 -1.421875 
Q 20.0625 -1.421875 12.78125 6.34375 
Q 5.515625 14.109375 5.515625 27.296875 
Q 5.515625 40.671875 12.859375 48.328125 
Q 20.21875 56 33.015625 56 
Q 37.15625 56 41.109375 55.140625 
Q 45.0625 54.296875 48.78125 52.59375 
z
" id="DejaVuSans-63"/>
      <path d="M 18.3125 70.21875 
L 18.3125 54.6875 
L 36.8125 54.6875 
L 36.8125 47.703125 
L 18.3125 47.703125 
L 18.3125 18.015625 
Q 18.3125 11.328125 20.140625 9.421875 
Q 21.96875 7.515625 27.59375 7.515625 
L 36.8125 7.515625 
L 36.8125 0 
L 27.59375 0 
Q 17.1875 0 13.234375 3.875 
Q 9.28125 7.765625 9.28125 18.015625 
L 9.28125 47.703125 
L 2.6875 47.703125 
L 2.6875 54.6875 
L 9.28125 54.6875 
L 9.28125 70.21875 
z
" id="DejaVuSans-74"/>
      <path d="M 8.5 21.578125 
L 8.5 54.6875 
L 17.484375 54.6875 
L 17.484375 21.921875 
Q 17.484375 14.15625 20.5 10.265625 
Q 23.53125 6.390625 29.59375 6.390625 
Q 36.859375 6.390625 41.078125 11.03125 
Q 45.3125 15.671875 45.3125 23.6875 
L 45.3125 54.6875 
L 54.296875 54.6875 
L 54.296875 0 
L 45.3125 0 
L 45.3125 8.40625 
Q 42.046875 3.421875 37.71875 1 
Q 33.40625 -1.421875 27.6875 -1.421875 
Q 18.265625 -1.421875 13.375 4.4375 
Q 8.5 10.296875 8.5 21.578125 
z
M 31.109375 56 
z
" id="DejaVuSans-75"/>
      <path d="M 11.71875 12.40625 
L 22.015625 12.40625 
L 22.015625 4 
L 14.015625 -11.625 
L 7.71875 -11.625 
L 11.71875 4 
z
" id="DejaVuSans-2c"/>
      <path d="M 18.109375 8.203125 
L 18.109375 -20.796875 
L 9.078125 -20.796875 
L 9.078125 54.6875 
L 18.109375 54.6875 
L 18.109375 46.390625 
Q 20.953125 51.265625 25.265625 53.625 
Q 29.59375 56 35.59375 56 
Q 45.5625 56 51.78125 48.09375 
Q 58.015625 40.1875 58.015625 27.296875 
Q 58.015625 14.40625 51.78125 6.484375 
Q 45.5625 -1.421875 35.59375 -1.421875 
Q 29.59375 -1.421875 25.265625 0.953125 
Q 20.953125 3.328125 18.109375 8.203125 
z
M 48.6875 27.296875 
Q 48.6875 37.203125 44.609375 42.84375 
Q 40.53125 48.484375 33.40625 48.484375 
Q 26.265625 48.484375 22.1875 42.84375 
Q 18.109375 37.203125 18.109375 27.296875 
Q 18.109375 17.390625 22.1875 11.75 
Q 26.265625 6.109375 33.40625 6.109375 
Q 40.53125 6.109375 44.609375 11.75 
Q 48.6875 17.390625 48.6875 27.296875 
z
" id="DejaVuSans-70"/>
     </defs>
     <g transform="translate(16.859531 294.639375)rotate(-90)scale(0.17 -0.17)">
      <use xlink:href="#DejaVuSans-46"/>
      <use x="57.410156" xlink:href="#DejaVuSans-72"/>
      <use x="98.523438" xlink:href="#DejaVuSans-61"/>
      <use x="159.802734" xlink:href="#DejaVuSans-63"/>
      <use x="214.783203" xlink:href="#DejaVuSans-74"/>
      <use x="253.992188" xlink:href="#DejaVuSans-69"/>
      <use x="281.775391" xlink:href="#DejaVuSans-6f"/>
      <use x="342.957031" xlink:href="#DejaVuSans-6e"/>
      <use x="406.335938" xlink:href="#DejaVuSans-20"/>
      <use x="438.123047" xlink:href="#DejaVuSans-6f"/>
      <use x="499.304688" xlink:href="#DejaVuSans-66"/>
      <use x="534.509766" xlink:href="#DejaVuSans-20"/>
      <use x="566.296875" xlink:href="#DejaVuSans-66"/>
      <use x="601.501953" xlink:href="#DejaVuSans-75"/>
      <use x="664.880859" xlink:href="#DejaVuSans-6e"/>
      <use x="728.259766" xlink:href="#DejaVuSans-63"/>
      <use x="783.240234" xlink:href="#DejaVuSans-74"/>
      <use x="822.449219" xlink:href="#DejaVuSans-69"/>
      <use x="850.232422" xlink:href="#DejaVuSans-6f"/>
      <use x="911.414062" xlink:href="#DejaVuSans-6e"/>
      <use x="974.792969" xlink:href="#DejaVuSans-2c"/>
      <use x="1006.580078" xlink:href="#DejaVuSans-74"/>
      <use x="1045.789062" xlink:href="#DejaVuSans-61"/>
      <use x="1107.068359" xlink:href="#DejaVuSans-72"/>
      <use x="1148.166016" xlink:href="#DejaVuSans-67"/>
      <use x="1211.642578" xlink:href="#DejaVuSans-65"/>
      <use x="1273.166016" xlink:href="#DejaVuSans-74"/>
      <use x="1312.375" xlink:href="#DejaVuSans-20"/>
      <use x="1344.162109" xlink:href="#DejaVuSans-70"/>
      <use x="1407.638672" xlink:href="#DejaVuSans-61"/>
      <use x="1468.917969" xlink:href="#DejaVuSans-69"/>
      <use x="1496.701172" xlink:href="#DejaVuSans-72"/>
      <use x="1537.814453" xlink:href="#DejaVuSans-73"/>
     </g>
    </g>
   </g>
   <g id="line2d_23">
    <defs>
     <path d="M 0 1.5 
C 0.397805 1.5 0.77937 1.341951 1.06066 1.06066 
C 1.341951 0.77937 1.5 0.397805 1.5 0 
C 1.5 -0.397805 1.341951 -0.77937 1.06066 -1.06066 
C 0.77937 -1.341951 0.397805 -1.5 0 -1.5 
C -0.397805 -1.5 -0.77937 -1.341951 -1.06066 -1.06066 
C -1.341951 -0.77937 -1.5 -0.397805 -1.5 0 
C -1.5 0.397805 -1.341951 0.77937 -1.06066 1.06066 
C -0.77937 1.341951 -0.397805 1.5 0 1.5 
z
" id="m4b39a5d208" style="stroke:#00bfbf;"/>
    </defs>
    <g>
     <use style="fill:#00bfbf;stroke:#00bfbf;" x="263.230955" xlink:href="#m4b39a5d208" y="126.848022"/>
     <use style="fill:#00bfbf;stroke:#00bfbf;" x="263.230955" xlink:href="#m4b39a5d208" y="126.848022"/>
    </g>
   </g>
   <g id="line2d_24">
    <path d="M 44.939466 294.16 
L 44.939466 270.108903 
L 56.84 270.108903 
L 56.84 265.403254 
L 63.801366 265.403254 
L 63.801366 263.311854 
L 68.740534 263.311854 
L 68.740534 261.220454 
L 72.57165 261.220454 
L 72.57165 260.697604 
L 75.7019 260.697604 
L 75.7019 259.651904 
L 78.348489 259.651904 
L 78.348489 258.083355 
L 80.641068 258.083355 
L 80.641068 257.037655 
L 86.10855 257.037655 
L 86.10855 255.469105 
L 90.249023 255.469105 
L 90.249023 254.946255 
L 91.433551 254.946255 
L 91.433551 254.423405 
L 92.541603 254.423405 
L 92.541603 253.900555 
L 95.492072 253.900555 
L 95.492072 253.377705 
L 100.203835 253.377705 
L 100.203835 252.854855 
L 101.525167 252.854855 
L 101.525167 252.332005 
L 102.149557 252.332005 
L 102.149557 251.809156 
L 102.752035 251.809156 
L 102.752035 250.763456 
L 103.334085 250.763456 
L 103.334085 250.240606 
L 104.970451 250.240606 
L 104.970451 249.717756 
L 105.482991 249.717756 
L 105.482991 249.194906 
L 106.464335 249.194906 
L 106.464335 248.672056 
L 107.838576 248.672056 
L 107.838576 248.149206 
L 110.295451 248.149206 
L 110.295451 247.626356 
L 111.04204 247.626356 
L 111.04204 246.580656 
L 113.425701 246.580656 
L 113.425701 246.057806 
L 113.740735 246.057806 
L 113.740735 245.534956 
L 114.946061 245.534956 
L 114.946061 245.012106 
L 116.07229 245.012106 
L 116.07229 243.443557 
L 120.597731 243.443557 
L 120.597731 242.920707 
L 121.214642 242.920707 
L 121.214642 242.397857 
L 122.004153 242.397857 
L 122.004153 241.352157 
L 124.175739 241.352157 
L 124.175739 240.829307 
L 124.512394 240.829307 
L 124.512394 240.306457 
L 125.005313 240.306457 
L 125.005313 239.260757 
L 127.559097 239.260757 
L 127.559097 238.737907 
L 128.243205 238.737907 
L 128.243205 237.692207 
L 128.509394 237.692207 
L 128.509394 237.169357 
L 128.771519 237.169357 
L 128.771519 236.646507 
L 131.080349 236.646507 
L 131.080349 236.123658 
L 131.639644 236.123658 
L 131.639644 235.600808 
L 132.181293 235.600808 
L 132.181293 234.555108 
L 133.415513 234.555108 
L 133.415513 234.032258 
L 134.473872 234.032258 
L 134.473872 233.509408 
L 136.245426 233.509408 
L 136.245426 232.986558 
L 136.49607 232.986558 
L 136.578812 231.940858 
L 138.527482 231.940858 
L 138.527482 231.418008 
L 140.606896 231.418008 
L 140.606896 230.895158 
L 143.867214 230.895158 
L 143.867214 230.372308 
L 147.848841 230.372308 
L 147.848841 229.849458 
L 152.37637 229.849458 
L 152.37637 229.326608 
L 153.335773 229.326608 
L 153.335773 228.803758 
L 154.594786 228.803758 
L 154.594786 227.758059 
L 154.909819 227.758059 
L 154.909819 227.235209 
L 155.468205 227.235209 
L 155.468205 226.712359 
L 161.22541 226.712359 
L 161.22541 226.189509 
L 162.068693 226.189509 
L 162.068693 225.666659 
L 162.693083 225.666659 
L 162.693083 225.143809 
L 162.872487 225.143809 
L 162.872487 224.620959 
L 163.86077 224.620959 
L 163.86077 223.575259 
L 164.731304 223.575259 
L 164.731304 223.052409 
L 165.001435 223.052409 
L 165.001435 222.529559 
L 165.173988 222.529559 
L 165.173988 222.006709 
L 165.344824 222.006709 
L 165.344824 221.483859 
L 165.981903 221.483859 
L 165.981903 220.96101 
L 166.321015 220.96101 
L 166.321015 220.43816 
L 166.682174 220.43816 
L 166.682174 219.91531 
L 168.068506 219.91531 
L 168.068506 219.39246 
L 168.382101 219.39246 
L 168.382101 218.86961 
L 171.006479 218.86961 
L 171.006479 218.34676 
L 171.303926 218.34676 
L 171.303926 217.82391 
L 171.628488 217.82391 
L 171.628488 217.30106 
L 172.072808 217.30106 
L 172.072808 216.77821 
L 174.15524 216.77821 
L 174.164488 214.68681 
L 174.339259 214.68681 
L 174.339259 214.16396 
L 174.521327 214.16396 
L 174.521327 213.64111 
L 175.161234 213.64111 
L 175.161234 213.118261 
L 175.334833 213.118261 
L 175.334833 212.595411 
L 175.912277 212.595411 
L 175.912277 212.072561 
L 176.243094 212.072561 
L 176.243094 211.549711 
L 176.599777 211.549711 
L 176.599777 211.026861 
L 176.925602 211.026861 
L 176.925602 210.504011 
L 177.619854 210.504011 
L 177.619854 209.981161 
L 177.770393 209.981161 
L 177.770393 209.458311 
L 177.912193 209.458311 
L 177.912193 208.935461 
L 178.859231 208.935461 
L 178.859231 208.412611 
L 179.082841 208.412611 
L 179.082841 207.889761 
L 179.207354 207.889761 
L 179.310429 206.844061 
L 179.412889 206.844061 
L 179.412889 206.321211 
L 179.548558 206.321211 
L 179.548558 205.798361 
L 180.217774 205.798361 
L 180.217774 205.275512 
L 181.054825 205.275512 
L 181.054825 204.752662 
L 181.530921 204.752662 
L 181.530921 204.229812 
L 181.976581 204.229812 
L 181.976581 203.706962 
L 182.134228 203.706962 
L 182.134228 202.661262 
L 182.502228 202.661262 
L 182.502228 202.138412 
L 183.523663 202.138412 
L 183.598543 201.092712 
L 184.015065 201.092712 
L 184.015065 200.569862 
L 185.21209 200.569862 
L 185.21209 200.047012 
L 186.921613 200.047012 
L 186.921613 199.524162 
L 187.153127 199.524162 
L 187.153127 199.001312 
L 187.71231 199.001312 
L 187.71231 198.478462 
L 188.164094 198.478462 
L 188.164094 197.955613 
L 188.986758 197.955613 
L 188.986758 197.432763 
L 189.19219 197.432763 
L 189.246047 196.387063 
L 189.334161 196.387063 
L 189.334161 195.864213 
L 189.838721 195.864213 
L 189.838721 195.341363 
L 190.234858 195.341363 
L 190.234858 194.818513 
L 191.303205 194.818513 
L 191.303205 194.295663 
L 191.994392 194.295663 
L 191.994392 193.772813 
L 192.452944 193.772813 
L 192.452944 193.249963 
L 193.12166 193.249963 
L 193.12166 192.727113 
L 193.673547 192.727113 
L 193.673547 192.204263 
L 193.847762 192.204263 
L 193.847762 191.681413 
L 194.462391 191.681413 
L 194.462391 191.158563 
L 195.017398 191.158563 
L 195.017398 190.635713 
L 195.80586 190.635713 
L 195.80586 190.112864 
L 196.486794 190.112864 
L 196.486794 189.590014 
L 197.132046 189.590014 
L 197.132046 189.067164 
L 198.080737 189.067164 
L 198.080737 188.544314 
L 198.315603 188.544314 
L 198.315603 188.021464 
L 198.607521 188.021464 
L 198.702996 186.975764 
L 199.846438 186.975764 
L 199.846438 186.452914 
L 199.970282 186.452914 
L 199.970282 185.930064 
L 200.109567 185.930064 
L 200.152354 184.884364 
L 200.46291 184.884364 
L 200.512799 183.838664 
L 200.762058 183.838664 
L 200.818918 182.792964 
L 201.548965 182.792964 
L 201.548965 182.270115 
L 201.711403 182.270115 
L 201.711403 181.747265 
L 202.06636 181.747265 
L 202.091825 180.701565 
L 202.442644 180.701565 
L 202.442644 180.178715 
L 203.090932 180.178715 
L 203.090932 179.655865 
L 203.247975 179.655865 
L 203.247975 179.133015 
L 204.072371 179.133015 
L 204.072371 178.610165 
L 204.380542 178.610165 
L 204.458312 177.564465 
L 204.630057 177.564465 
L 204.630057 177.041615 
L 204.880633 177.041615 
L 204.914591 175.995915 
L 205.068104 175.995915 
L 205.159558 174.950215 
L 205.300355 174.950215 
L 205.300355 174.427366 
L 206.101586 174.427366 
L 206.101586 173.904516 
L 206.658002 173.904516 
L 206.703914 172.335966 
L 207.032811 172.335966 
L 207.032811 171.813116 
L 207.593311 171.813116 
L 207.593311 171.290266 
L 208.010368 171.290266 
L 208.010368 170.767416 
L 208.279924 170.767416 
L 208.352022 169.198866 
L 208.812808 169.198866 
L 208.910832 168.153166 
L 209.143831 168.153166 
L 209.165513 167.107467 
L 209.320107 167.107467 
L 209.409352 166.061767 
L 209.517016 166.061767 
L 209.517016 165.538917 
L 210.033997 165.538917 
L 210.033997 165.016067 
L 210.646652 165.016067 
L 210.712784 163.970367 
L 211.008345 163.970367 
L 211.008345 163.447517 
L 212.918928 163.447517 
L 212.975911 162.401817 
L 213.049036 162.401817 
L 213.049036 161.878967 
L 213.562621 161.878967 
L 213.562621 161.356117 
L 213.915851 161.356117 
L 213.915851 160.833267 
L 214.566107 160.833267 
L 214.566107 160.310417 
L 214.780104 160.310417 
L 214.780104 159.787567 
L 214.907233 159.787567 
L 214.907233 159.264718 
L 215.230724 159.264718 
L 215.230724 158.741868 
L 215.716734 158.741868 
L 215.818354 157.696168 
L 215.855084 157.696168 
L 215.855084 157.173318 
L 217.062372 157.173318 
L 217.062372 156.650468 
L 217.787814 156.650468 
L 217.787814 156.127618 
L 217.994923 156.127618 
L 217.994923 155.604768 
L 218.532744 155.604768 
L 218.532744 155.081918 
L 218.882155 155.081918 
L 218.882155 154.559068 
L 219.919269 154.559068 
L 219.919269 154.036218 
L 220.418992 154.036218 
L 220.418992 153.513368 
L 220.982782 153.513368 
L 221.019638 152.467668 
L 221.606395 152.467668 
L 221.606395 151.944818 
L 222.242467 151.944818 
L 222.295219 150.899119 
L 223.299613 150.899119 
L 223.404986 148.807719 
L 223.855978 148.807719 
L 223.855978 148.284869 
L 224.355166 148.284869 
L 224.453779 146.716319 
L 224.843631 146.716319 
L 224.843631 146.193469 
L 225.353785 146.193469 
L 225.353785 145.670619 
L 225.844204 145.670619 
L 225.844204 145.147769 
L 226.740861 145.147769 
L 226.771972 144.10207 
L 227.200454 144.10207 
L 227.200454 143.57922 
L 228.187177 143.57922 
L 228.187177 143.05637 
L 228.324183 143.05637 
L 228.324183 142.53352 
L 228.530002 142.53352 
L 228.599617 141.48782 
L 229.025112 141.48782 
L 229.025112 140.96497 
L 229.759235 140.96497 
L 229.759235 140.44212 
L 230.064853 140.44212 
L 230.064853 139.91927 
L 230.219179 139.91927 
L 230.219179 139.39642 
L 230.779271 139.39642 
L 230.779271 138.87357 
L 232.902962 138.87357 
L 232.918663 137.82787 
L 233.274982 137.82787 
L 233.274982 137.30502 
L 233.758503 137.30502 
L 233.771718 136.259321 
L 234.948069 136.259321 
L 234.948069 135.736471 
L 237.431346 135.736471 
L 237.431346 135.213621 
L 237.564484 135.213621 
L 237.646027 134.167921 
L 238.579002 134.167921 
L 238.579002 133.645071 
L 242.044143 133.645071 
L 242.044143 133.122221 
L 242.250246 133.122221 
L 242.250246 132.599371 
L 243.15317 132.599371 
L 243.15317 132.076521 
L 244.32459 132.076521 
L 244.373288 131.030821 
L 244.851459 131.030821 
L 244.851459 130.507971 
L 251.998976 130.507971 
L 252.091596 129.462271 
L 253.422625 129.462271 
L 253.422625 128.939421 
L 254.452527 128.939421 
L 254.452527 128.416572 
L 255.182003 128.416572 
L 255.182003 127.893722 
L 258.707726 127.893722 
L 258.707726 127.370872 
L 263.230955 127.370872 
L 263.230955 126.848022 
L 333.569032 126.848022 
L 333.569032 126.848022 
" style="fill:none;stroke:#00bfbf;stroke-linecap:square;stroke-width:1.5;"/>
   </g>
   <g id="line2d_25">
    <defs>
     <path d="M -6 0 
L 6 0 
M 0 6 
L 0 -6 
" id="md97c6ab832" style="stroke:#00bfbf;stroke-width:1.5;"/>
    </defs>
    <g>
     <use style="fill-opacity:0;stroke:#00bfbf;stroke-width:1.5;" x="102.752035" xlink:href="#md97c6ab832" y="250.763456"/>
     <use style="fill-opacity:0;stroke:#00bfbf;stroke-width:1.5;" x="183.523663" xlink:href="#md97c6ab832" y="201.615562"/>
     <use style="fill-opacity:0;stroke:#00bfbf;stroke-width:1.5;" x="224.355166" xlink:href="#md97c6ab832" y="148.284869"/>
     <use style="fill-opacity:0;stroke:#00bfbf;stroke-width:1.5;" x="263.230955" xlink:href="#md97c6ab832" y="127.370872"/>
     <use style="fill-opacity:0;stroke:#00bfbf;stroke-width:1.5;" x="263.230955" xlink:href="#md97c6ab832" y="126.848022"/>
     <use style="fill-opacity:0;stroke:#00bfbf;stroke-width:1.5;" x="333.569032" xlink:href="#md97c6ab832" y="126.848022"/>
    </g>
   </g>
   <g id="line2d_26">
    <path style="fill:none;stroke:#00bfbf;stroke-linecap:square;stroke-width:1.5;"/>
    <g/>
   </g>
   <g id="line2d_27">
    <path clip-path="url(#p5fe98dc5d4)" d="M 164.375293 223.575259 
" style="fill:none;stroke:#00bfbf;stroke-linecap:square;stroke-width:1.5;"/>
    <defs>
     <path d="M -12 12 
L 12 -12 
M -12 -12 
L 12 12 
" id="m7891c7cbca" style="stroke:#00bfbf;stroke-width:3;"/>
    </defs>
    <g clip-path="url(#p5fe98dc5d4)">
     <use style="fill:#00bfbf;stroke:#00bfbf;stroke-width:3;" x="164.375293" xlink:href="#m7891c7cbca" y="223.575259"/>
    </g>
   </g>
   <g id="line2d_28">
    <defs>
     <path d="M 0 1.5 
C 0.397805 1.5 0.77937 1.341951 1.06066 1.06066 
C 1.341951 0.77937 1.5 0.397805 1.5 0 
C 1.5 -0.397805 1.341951 -0.77937 1.06066 -1.06066 
C 0.77937 -1.341951 0.397805 -1.5 0 -1.5 
C -0.397805 -1.5 -0.77937 -1.341951 -1.06066 -1.06066 
C -1.341951 -0.77937 -1.5 -0.397805 -1.5 0 
C -1.5 0.397805 -1.341951 0.77937 -1.06066 1.06066 
C -0.77937 1.341951 -0.397805 1.5 0 1.5 
z
" id="mf1cfce8f4a" style="stroke:#008000;"/>
    </defs>
    <g>
     <use style="fill:#008000;stroke:#008000;" x="233.982823" xlink:href="#mf1cfce8f4a" y="210.504011"/>
     <use style="fill:#008000;stroke:#008000;" x="233.982823" xlink:href="#mf1cfce8f4a" y="210.504011"/>
    </g>
   </g>
   <g id="line2d_29">
    <path d="M 37.9781 294.16 
L 37.9781 274.291703 
L 49.878634 274.291703 
L 49.878634 270.631753 
L 56.84 270.631753 
L 56.84 268.540353 
L 61.779168 268.540353 
L 61.779168 265.403254 
L 73.679702 265.403254 
L 73.679702 263.834704 
L 75.7019 263.834704 
L 75.7019 263.311854 
L 79.147184 263.311854 
L 79.147184 262.266154 
L 80.641068 262.266154 
L 80.641068 260.174754 
L 82.015309 260.174754 
L 82.015309 259.651904 
L 84.472185 259.651904 
L 84.472185 259.129055 
L 85.580236 259.129055 
L 85.580236 258.606205 
L 87.602435 258.606205 
L 87.602435 258.083355 
L 90.249023 258.083355 
L 90.249023 257.560505 
L 91.047718 257.560505 
L 91.047718 256.514805 
L 96.935682 256.514805 
L 96.935682 255.991955 
L 98.009084 255.991955 
L 98.009084 254.946255 
L 99.973377 254.946255 
L 99.973377 253.900555 
L 100.43124 253.900555 
L 100.43124 253.377705 
L 102.149557 253.377705 
L 102.149557 252.854855 
L 105.143003 252.854855 
L 105.143003 252.332005 
L 107.691203 252.332005 
L 107.691203 251.809156 
L 108.273253 251.809156 
L 108.273253 250.763456 
L 109.110924 250.763456 
L 109.110924 249.717756 
L 109.647494 249.717756 
L 109.647494 248.672056 
L 110.167801 248.672056 
L 110.167801 248.149206 
L 110.919842 248.149206 
L 110.919842 247.626356 
L 111.163375 247.626356 
L 111.163375 246.580656 
L 111.640318 246.580656 
L 111.640318 246.057806 
L 112.331775 246.057806 
L 112.331775 245.012106 
L 119.141873 245.012106 
L 119.141873 243.966407 
L 122.195986 243.966407 
L 122.195986 243.443557 
L 122.942575 243.443557 
L 122.942575 242.920707 
L 124.118983 242.920707 
L 124.118983 242.397857 
L 124.232309 242.397857 
L 124.232309 241.875007 
L 126.943321 241.875007 
L 126.943321 241.352157 
L 129.199692 241.352157 
L 129.199692 240.829307 
L 131.268812 240.829307 
L 131.268812 240.306457 
L 132.14571 240.306457 
L 132.14571 239.783607 
L 133.115176 239.783607 
L 133.115176 238.737907 
L 137.067058 238.737907 
L 137.067058 238.215057 
L 138.054344 238.215057 
L 138.054344 237.692207 
L 138.60101 237.692207 
L 138.60101 237.169357 
L 141.268549 237.169357 
L 141.268549 236.646507 
L 143.169347 236.646507 
L 143.169347 236.123658 
L 145.578673 236.123658 
L 145.578673 235.600808 
L 153.439137 235.600808 
L 153.439137 235.077958 
L 164.505608 235.077958 
L 164.505608 234.555108 
L 165.483345 234.555108 
L 165.483345 234.032258 
L 165.696625 234.032258 
L 165.696625 233.509408 
L 165.986866 233.509408 
L 165.986866 232.986558 
L 166.125245 232.986558 
L 166.125245 232.463708 
L 166.715498 232.463708 
L 166.715498 231.940858 
L 167.31371 231.940858 
L 167.31371 231.418008 
L 168.390731 231.418008 
L 168.390731 230.895158 
L 177.485771 230.895158 
L 177.485771 230.372308 
L 177.822771 230.372308 
L 177.822771 229.849458 
L 178.133729 229.849458 
L 178.133729 229.326608 
L 178.279848 229.326608 
L 178.279848 228.803758 
L 179.05273 228.803758 
L 179.05273 228.280909 
L 179.955849 228.280909 
L 179.955849 227.758059 
L 183.302474 227.758059 
L 183.302474 227.235209 
L 183.801915 227.235209 
L 183.801915 226.712359 
L 184.413241 226.712359 
L 184.413241 226.189509 
L 184.904912 226.189509 
L 184.904912 225.666659 
L 187.992794 225.666659 
L 187.992794 225.143809 
L 188.149088 225.143809 
L 188.149088 224.620959 
L 188.430639 224.620959 
L 188.430639 224.098109 
L 192.546161 224.098109 
L 192.546161 223.575259 
L 193.209293 223.575259 
L 193.209293 223.052409 
L 193.933723 223.052409 
L 193.933723 222.529559 
L 195.356166 222.529559 
L 195.356166 222.006709 
L 195.495519 222.006709 
L 195.495519 221.483859 
L 195.70948 221.483859 
L 195.809355 219.91531 
L 197.651436 219.91531 
L 197.651436 219.39246 
L 205.73654 219.39246 
L 205.73654 218.86961 
L 205.850814 218.86961 
L 205.850814 218.34676 
L 207.218988 218.34676 
L 207.218988 217.82391 
L 212.025055 217.82391 
L 212.025055 217.30106 
L 213.162593 217.30106 
L 213.162593 216.77821 
L 215.01089 216.77821 
L 215.01089 216.25536 
L 218.200512 216.25536 
L 218.200512 215.73251 
L 218.898324 215.73251 
L 218.898324 215.20966 
L 219.690168 215.20966 
L 219.690168 214.68681 
L 220.999709 214.68681 
L 220.999709 214.16396 
L 221.60095 214.16396 
L 221.60095 213.64111 
L 222.737543 213.64111 
L 222.737543 213.118261 
L 223.287807 213.118261 
L 223.315285 212.072561 
L 225.868945 212.072561 
L 225.868945 211.549711 
L 232.535464 211.549711 
L 232.535464 211.026861 
L 233.982823 211.026861 
L 233.982823 210.504011 
L 333.569032 210.504011 
L 333.569032 210.504011 
" style="fill:none;stroke:#008000;stroke-linecap:square;stroke-width:1.5;"/>
   </g>
   <g id="line2d_30">
    <defs>
     <path d="M -0 6 
L 6 -6 
L -6 -6 
z
" id="mfd9010624d" style="stroke:#008000;stroke-linejoin:miter;stroke-width:1.5;"/>
    </defs>
    <g>
     <use style="fill-opacity:0;stroke:#008000;stroke-linejoin:miter;stroke-width:1.5;" x="96.935682" xlink:href="#mfd9010624d" y="255.991955"/>
     <use style="fill-opacity:0;stroke:#008000;stroke-linejoin:miter;stroke-width:1.5;" x="177.485771" xlink:href="#mfd9010624d" y="230.895158"/>
     <use style="fill-opacity:0;stroke:#008000;stroke-linejoin:miter;stroke-width:1.5;" x="233.982823" xlink:href="#mfd9010624d" y="211.026861"/>
     <use style="fill-opacity:0;stroke:#008000;stroke-linejoin:miter;stroke-width:1.5;" x="233.982823" xlink:href="#mfd9010624d" y="210.504011"/>
     <use style="fill-opacity:0;stroke:#008000;stroke-linejoin:miter;stroke-width:1.5;" x="233.982823" xlink:href="#mfd9010624d" y="210.504011"/>
     <use style="fill-opacity:0;stroke:#008000;stroke-linejoin:miter;stroke-width:1.5;" x="333.569032" xlink:href="#mfd9010624d" y="210.504011"/>
    </g>
   </g>
   <g id="line2d_31">
    <path style="fill:none;stroke:#008000;stroke-linecap:square;stroke-width:1.5;"/>
    <g/>
   </g>
   <g id="line2d_32">
    <path clip-path="url(#p5fe98dc5d4)" d="M 164.100586 235.077958 
" style="fill:none;stroke:#008000;stroke-linecap:square;stroke-width:1.5;"/>
    <defs>
     <path d="M -12 12 
L 12 -12 
M -12 -12 
L 12 12 
" id="mfd11c2ebb9" style="stroke:#008000;stroke-width:3;"/>
    </defs>
    <g clip-path="url(#p5fe98dc5d4)">
     <use style="fill:#008000;stroke:#008000;stroke-width:3;" x="164.100586" xlink:href="#mfd11c2ebb9" y="235.077958"/>
    </g>
   </g>
   <g id="line2d_33">
    <defs>
     <path d="M 0 1.5 
C 0.397805 1.5 0.77937 1.341951 1.06066 1.06066 
C 1.341951 0.77937 1.5 0.397805 1.5 0 
C 1.5 -0.397805 1.341951 -0.77937 1.06066 -1.06066 
C 0.77937 -1.341951 0.397805 -1.5 0 -1.5 
C -0.397805 -1.5 -0.77937 -1.341951 -1.06066 -1.06066 
C -1.341951 -0.77937 -1.5 -0.397805 -1.5 0 
C -1.5 0.397805 -1.341951 0.77937 -1.06066 1.06066 
C -0.77937 1.341951 -0.397805 1.5 0 1.5 
z
" id="m9106286658" style="stroke:#0000ff;"/>
    </defs>
    <g>
     <use style="fill:#0000ff;stroke:#0000ff;" x="246.376613" xlink:href="#m9106286658" y="226.189509"/>
     <use style="fill:#0000ff;stroke:#0000ff;" x="246.376613" xlink:href="#m9106286658" y="226.189509"/>
    </g>
   </g>
   <g id="line2d_34">
    <path d="M 29.207815 294.16 
L 29.207815 274.814553 
L 41.10835 274.814553 
L 41.10835 271.677453 
L 48.069716 271.677453 
L 48.069716 270.631753 
L 53.008884 270.631753 
L 53.008884 269.586053 
L 56.84 269.586053 
L 56.84 268.540353 
L 59.97025 268.540353 
L 59.97025 266.971804 
L 62.616839 266.971804 
L 62.616839 265.926104 
L 64.909418 265.926104 
L 64.909418 264.880404 
L 70.3769 264.880404 
L 70.3769 264.357554 
L 73.245025 264.357554 
L 73.245025 263.834704 
L 76.809952 263.834704 
L 76.809952 263.311854 
L 77.850807 263.311854 
L 77.850807 262.789004 
L 79.760422 262.789004 
L 79.760422 261.743304 
L 84.472185 261.743304 
L 84.472185 261.220454 
L 88.165398 261.220454 
L 88.165398 260.174754 
L 90.249023 260.174754 
L 90.249023 259.129055 
L 90.732685 259.129055 
L 90.732685 258.083355 
L 91.660956 258.083355 
L 91.660956 257.560505 
L 93.783265 257.560505 
L 93.783265 257.037655 
L 97.373129 257.037655 
L 97.373129 256.514805 
L 102.393091 256.514805 
L 102.393091 255.991955 
L 112.645165 255.991955 
L 112.645165 255.469105 
L 113.169445 255.469105 
L 113.169445 254.946255 
L 115.907994 254.946255 
L 115.907994 254.423405 
L 116.235029 254.423405 
L 116.235029 253.900555 
L 116.974724 253.900555 
L 116.974724 252.854855 
L 117.282234 252.854855 
L 117.282234 252.332005 
L 118.648658 252.332005 
L 118.648658 251.809156 
L 120.087728 251.809156 
L 120.087728 251.286306 
L 120.513775 251.286306 
L 120.513775 250.763456 
L 120.76442 250.763456 
L 120.76442 250.240606 
L 121.495119 250.240606 
L 121.495119 249.717756 
L 122.942575 249.717756 
L 122.942575 248.672056 
L 124.940403 248.672056 
L 124.940403 248.149206 
L 127.362559 248.149206 
L 127.362559 247.626356 
L 129.976845 247.626356 
L 129.976845 247.103506 
L 130.169755 247.103506 
L 130.169755 246.580656 
L 130.360522 246.580656 
L 130.360522 246.057806 
L 134.843109 246.057806 
L 134.843109 245.534956 
L 136.008143 245.534956 
L 136.008143 245.012106 
L 144.166927 245.012106 
L 144.166927 244.489256 
L 144.606909 244.489256 
L 144.606909 243.443557 
L 146.054188 243.443557 
L 146.054188 242.920707 
L 164.466617 242.920707 
L 164.466617 242.397857 
L 165.335549 242.397857 
L 165.335549 241.875007 
L 165.811306 241.875007 
L 165.811306 241.352157 
L 166.36767 241.352157 
L 166.36767 240.829307 
L 169.097256 240.829307 
L 169.097256 240.306457 
L 177.149278 240.306457 
L 177.239175 239.260757 
L 182.057337 239.260757 
L 182.057337 238.737907 
L 182.969131 238.737907 
L 182.969131 238.215057 
L 187.427738 238.215057 
L 187.427738 237.692207 
L 188.110831 237.692207 
L 188.110831 237.169357 
L 188.497102 237.169357 
L 188.497102 236.646507 
L 192.238755 236.646507 
L 192.238755 236.123658 
L 195.835193 236.123658 
L 195.835193 235.600808 
L 197.576571 235.600808 
L 197.576571 235.077958 
L 201.079619 235.077958 
L 201.079619 234.555108 
L 201.864216 234.555108 
L 201.868636 233.509408 
L 205.85607 233.509408 
L 205.85607 232.986558 
L 208.502325 232.986558 
L 208.502325 232.463708 
L 213.318811 232.463708 
L 213.318811 231.940858 
L 216.782094 231.940858 
L 216.782094 231.418008 
L 218.953506 231.418008 
L 218.953506 230.895158 
L 220.676438 230.895158 
L 220.676438 230.372308 
L 226.135455 230.372308 
L 226.135455 229.849458 
L 227.437806 229.849458 
L 227.437806 229.326608 
L 229.001622 229.326608 
L 229.001622 228.803758 
L 237.006275 228.803758 
L 237.006275 228.280909 
L 243.270094 228.280909 
L 243.270094 227.758059 
L 244.385765 227.758059 
L 244.385765 227.235209 
L 245.790673 227.235209 
L 245.790673 226.712359 
L 246.376613 226.712359 
L 246.376613 226.189509 
L 333.569032 226.189509 
L 333.569032 226.189509 
" style="fill:none;stroke:#0000ff;stroke-linecap:square;stroke-width:1.5;"/>
   </g>
   <g id="line2d_35">
    <defs>
     <path d="M 0 -6 
L -1.347084 -1.854102 
L -5.706339 -1.854102 
L -2.179628 0.708204 
L -3.526712 4.854102 
L -0 2.291796 
L 3.526712 4.854102 
L 2.179628 0.708204 
L 5.706339 -1.854102 
L 1.347084 -1.854102 
z
" id="m128765b345" style="stroke:#0000ff;stroke-linejoin:bevel;stroke-width:1.5;"/>
    </defs>
    <g>
     <use style="fill-opacity:0;stroke:#0000ff;stroke-linejoin:bevel;stroke-width:1.5;" x="79.760422" xlink:href="#m128765b345" y="262.789004"/>
     <use style="fill-opacity:0;stroke:#0000ff;stroke-linejoin:bevel;stroke-width:1.5;" x="136.008143" xlink:href="#m128765b345" y="245.012106"/>
     <use style="fill-opacity:0;stroke:#0000ff;stroke-linejoin:bevel;stroke-width:1.5;" x="220.676438" xlink:href="#m128765b345" y="230.895158"/>
     <use style="fill-opacity:0;stroke:#0000ff;stroke-linejoin:bevel;stroke-width:1.5;" x="246.376613" xlink:href="#m128765b345" y="226.189509"/>
     <use style="fill-opacity:0;stroke:#0000ff;stroke-linejoin:bevel;stroke-width:1.5;" x="246.376613" xlink:href="#m128765b345" y="226.189509"/>
     <use style="fill-opacity:0;stroke:#0000ff;stroke-linejoin:bevel;stroke-width:1.5;" x="333.569032" xlink:href="#m128765b345" y="226.189509"/>
    </g>
   </g>
   <g id="line2d_36">
    <path style="fill:none;stroke:#0000ff;stroke-linecap:square;stroke-width:1.5;"/>
    <g/>
   </g>
   <g id="line2d_37">
    <path clip-path="url(#p5fe98dc5d4)" d="M 163.877611 242.920707 
" style="fill:none;stroke:#0000ff;stroke-linecap:square;stroke-width:1.5;"/>
    <defs>
     <path d="M -12 12 
L 12 -12 
M -12 -12 
L 12 12 
" id="m2991c753af" style="stroke:#0000ff;stroke-width:3;"/>
    </defs>
    <g clip-path="url(#p5fe98dc5d4)">
     <use style="fill:#0000ff;stroke:#0000ff;stroke-width:3;" x="163.877611" xlink:href="#m2991c753af" y="242.920707"/>
    </g>
   </g>
   <g id="line2d_38">
    <defs>
     <path d="M 0 1.5 
C 0.397805 1.5 0.77937 1.341951 1.06066 1.06066 
C 1.341951 0.77937 1.5 0.397805 1.5 0 
C 1.5 -0.397805 1.341951 -0.77937 1.06066 -1.06066 
C 0.77937 -1.341951 0.397805 -1.5 0 -1.5 
C -0.397805 -1.5 -0.77937 -1.341951 -1.06066 -1.06066 
C -1.341951 -0.77937 -1.5 -0.397805 -1.5 0 
C -1.5 0.397805 -1.341951 0.77937 -1.06066 1.06066 
C -0.77937 1.341951 -0.397805 1.5 0 1.5 
z
" id="m92a11b17df" style="stroke:#000000;"/>
    </defs>
    <g>
     <use style="stroke:#000000;" x="255.533425" xlink:href="#m92a11b17df" y="241.875007"/>
     <use style="stroke:#000000;" x="255.533425" xlink:href="#m92a11b17df" y="241.875007"/>
    </g>
   </g>
   <g id="line2d_39">
    <path d="M 17.307281 294.16 
L 17.307281 275.860252 
L 29.207815 275.860252 
L 29.207815 273.768853 
L 36.169182 273.768853 
L 36.169182 272.723153 
L 41.10835 272.723153 
L 41.10835 271.677453 
L 44.939466 271.677453 
L 44.939466 271.154603 
L 48.069716 271.154603 
L 48.069716 270.631753 
L 50.716304 270.631753 
L 50.716304 270.108903 
L 53.008884 270.108903 
L 53.008884 269.063203 
L 59.97025 269.063203 
L 59.97025 268.540353 
L 64.909418 268.540353 
L 64.909418 268.017503 
L 75.11985 268.017503 
L 75.11985 267.494653 
L 78.348489 267.494653 
L 78.348489 266.971804 
L 81.478739 266.971804 
L 81.478739 266.448954 
L 88.165398 266.448954 
L 88.165398 265.926104 
L 89.751341 265.926104 
L 89.751341 265.403254 
L 92.325639 265.403254 
L 92.325639 264.880404 
L 95.126764 264.880404 
L 95.126764 264.357554 
L 96.543555 264.357554 
L 96.543555 263.834704 
L 97.373129 263.834704 
L 97.373129 262.789004 
L 97.694051 262.789004 
L 97.694051 262.266154 
L 102.149557 262.266154 
L 102.149557 261.743304 
L 102.393091 261.743304 
L 102.393091 261.220454 
L 108.863886 261.220454 
L 108.863886 260.697604 
L 112.241174 260.697604 
L 112.241174 260.174754 
L 115.348698 260.174754 
L 115.348698 259.651904 
L 115.462025 259.651904 
L 115.462025 259.129055 
L 115.962934 259.129055 
L 115.962934 258.606205 
L 122.423391 258.606205 
L 122.423391 257.560505 
L 137.958131 257.560505 
L 137.958131 257.037655 
L 148.404897 257.037655 
L 148.404897 256.514805 
L 159.094829 256.514805 
L 159.094829 255.991955 
L 161.663722 255.991955 
L 161.663722 255.469105 
L 165.023493 255.469105 
L 165.023493 254.946255 
L 165.996787 254.946255 
L 165.996787 254.423405 
L 166.411294 254.423405 
L 166.411294 253.900555 
L 167.266797 253.900555 
L 167.266797 253.377705 
L 174.291604 253.377705 
L 174.291604 252.854855 
L 176.631839 252.854855 
L 176.631839 252.332005 
L 177.639499 252.332005 
L 177.639499 251.809156 
L 181.948402 251.809156 
L 181.948402 251.286306 
L 187.906084 251.286306 
L 187.906084 250.763456 
L 188.035986 250.763456 
L 188.035986 250.240606 
L 194.915554 250.240606 
L 194.915554 249.717756 
L 196.224817 249.717756 
L 196.224817 249.194906 
L 199.534972 249.194906 
L 199.534972 248.672056 
L 210.148288 248.672056 
L 210.148288 248.149206 
L 211.989485 248.149206 
L 211.989485 247.626356 
L 218.265444 247.626356 
L 218.265444 247.103506 
L 222.800299 247.103506 
L 222.800299 246.580656 
L 231.681413 246.580656 
L 231.681413 246.057806 
L 242.20244 246.057806 
L 242.20244 245.534956 
L 243.245635 245.534956 
L 243.245635 245.012106 
L 246.872666 245.012106 
L 246.872666 244.489256 
L 247.919241 244.489256 
L 247.919241 243.966407 
L 248.191681 243.966407 
L 248.191681 243.443557 
L 249.833979 243.443557 
L 249.833979 242.920707 
L 249.851998 242.920707 
L 249.851998 242.397857 
L 255.533425 242.397857 
L 255.533425 241.875007 
L 333.569032 241.875007 
" style="fill:none;stroke:#000000;stroke-linecap:square;stroke-width:1.5;"/>
   </g>
   <g id="line2d_40">
    <defs>
     <path d="M 0 6 
C 1.591219 6 3.117479 5.367802 4.242641 4.242641 
C 5.367802 3.117479 6 1.591219 6 0 
C 6 -1.591219 5.367802 -3.117479 4.242641 -4.242641 
C 3.117479 -5.367802 1.591219 -6 0 -6 
C -1.591219 -6 -3.117479 -5.367802 -4.242641 -4.242641 
C -5.367802 -3.117479 -6 -1.591219 -6 0 
C -6 1.591219 -5.367802 3.117479 -4.242641 4.242641 
C -3.117479 5.367802 -1.591219 6 0 6 
z
" id="m1240d65916" style="stroke:#000000;stroke-width:1.5;"/>
    </defs>
    <g>
     <use style="fill-opacity:0;stroke:#000000;stroke-width:1.5;" x="97.373129" xlink:href="#m1240d65916" y="263.834704"/>
     <use style="fill-opacity:0;stroke:#000000;stroke-width:1.5;" x="194.915554" xlink:href="#m1240d65916" y="250.240606"/>
     <use style="fill-opacity:0;stroke:#000000;stroke-width:1.5;" x="255.533425" xlink:href="#m1240d65916" y="242.397857"/>
     <use style="fill-opacity:0;stroke:#000000;stroke-width:1.5;" x="255.533425" xlink:href="#m1240d65916" y="241.875007"/>
     <use style="fill-opacity:0;stroke:#000000;stroke-width:1.5;" x="255.533425" xlink:href="#m1240d65916" y="241.875007"/>
     <use style="fill-opacity:0;stroke:#000000;stroke-width:1.5;" x="333.569032" xlink:href="#m1240d65916" y="241.875007"/>
    </g>
   </g>
   <g id="line2d_41">
    <path style="fill:none;stroke:#000000;stroke-linecap:square;stroke-width:1.5;"/>
    <g/>
   </g>
   <g id="line2d_42">
    <path clip-path="url(#p5fe98dc5d4)" d="M 163.708458 255.469105 
" style="fill:none;stroke:#000000;stroke-linecap:square;stroke-width:1.5;"/>
    <defs>
     <path d="M -12 12 
L 12 -12 
M -12 -12 
L 12 12 
" id="m7ac5778778" style="stroke:#000000;stroke-width:3;"/>
    </defs>
    <g clip-path="url(#p5fe98dc5d4)">
     <use style="stroke:#000000;stroke-width:3;" x="163.708458" xlink:href="#m7ac5778778" y="255.469105"/>
    </g>
   </g>
   <g id="line2d_43">
    <defs>
     <path d="M 0 1.5 
C 0.397805 1.5 0.77937 1.341951 1.06066 1.06066 
C 1.341951 0.77937 1.5 0.397805 1.5 0 
C 1.5 -0.397805 1.341951 -0.77937 1.06066 -1.06066 
C 0.77937 -1.341951 0.397805 -1.5 0 -1.5 
C -0.397805 -1.5 -0.77937 -1.341951 -1.06066 -1.06066 
C -1.341951 -0.77937 -1.5 -0.397805 -1.5 0 
C -1.5 0.397805 -1.341951 0.77937 -1.06066 1.06066 
C -0.77937 1.341951 -0.397805 1.5 0 1.5 
z
" id="mfafbeb63e7" style="stroke:#ff0000;"/>
    </defs>
    <g>
     <use style="fill:#ff0000;stroke:#ff0000;" x="221.800222" xlink:href="#mfafbeb63e7" y="252.332005"/>
     <use style="fill:#ff0000;stroke:#ff0000;" x="221.800222" xlink:href="#mfafbeb63e7" y="252.332005"/>
    </g>
   </g>
   <g id="line2d_44">
    <path d="M 5.406747 294.16 
L 5.406747 284.225851 
L 17.307281 284.225851 
L 17.307281 278.474502 
L 24.268647 278.474502 
L 24.268647 275.860252 
L 29.207815 275.860252 
L 29.207815 275.337402 
L 33.038932 275.337402 
L 33.038932 274.291703 
L 36.169182 274.291703 
L 36.169182 273.768853 
L 41.10835 273.768853 
L 41.10835 272.200303 
L 48.069716 272.200303 
L 48.069716 271.677453 
L 56.84 271.677453 
L 56.84 271.154603 
L 57.677671 271.154603 
L 57.677671 270.631753 
L 59.239551 270.631753 
L 59.239551 270.108903 
L 63.219316 270.108903 
L 63.219316 269.586053 
L 74.517373 269.586053 
L 74.517373 269.063203 
L 76.809952 269.063203 
L 76.809952 268.540353 
L 77.076141 268.540353 
L 77.076141 268.017503 
L 80.425105 268.017503 
L 80.425105 267.494653 
L 80.641068 267.494653 
L 80.641068 266.971804 
L 83.949235 266.971804 
L 83.949235 266.448954 
L 85.145559 266.448954 
L 85.145559 265.926104 
L 87.020384 265.926104 
L 87.020384 265.403254 
L 89.368377 265.403254 
L 89.368377 264.880404 
L 97.930866 264.880404 
L 97.930866 263.834704 
L 104.28042 263.834704 
L 104.28042 263.311854 
L 120.280759 263.311854 
L 120.280759 262.789004 
L 122.138661 262.789004 
L 122.138661 261.743304 
L 125.91994 261.743304 
L 125.91994 261.220454 
L 131.551372 261.220454 
L 131.551372 260.697604 
L 140.096729 260.697604 
L 140.096729 260.174754 
L 149.317017 260.174754 
L 149.317017 259.651904 
L 150.993356 259.651904 
L 150.993356 259.129055 
L 163.455014 259.129055 
L 163.455014 258.606205 
L 164.572012 258.606205 
L 164.572012 258.083355 
L 182.964148 258.083355 
L 182.964148 257.560505 
L 184.948709 257.560505 
L 184.948709 257.037655 
L 197.809292 257.037655 
L 197.809292 256.514805 
L 202.208119 256.514805 
L 202.208119 255.991955 
L 202.316097 255.991955 
L 202.316097 255.469105 
L 203.410498 255.469105 
L 203.410498 254.946255 
L 208.362369 254.946255 
L 208.362369 254.423405 
L 210.727299 254.423405 
L 210.727299 253.900555 
L 217.708731 253.900555 
L 217.708731 253.377705 
L 221.673165 253.377705 
L 221.673165 252.854855 
L 221.800222 252.854855 
L 221.800222 252.332005 
L 333.569032 252.332005 
" style="fill:none;stroke:#ff0000;stroke-linecap:square;stroke-width:1.5;"/>
   </g>
   <g id="line2d_45">
    <defs>
     <path d="M -6 6 
L 6 6 
L 6 -6 
L -6 -6 
z
" id="m626c54674d" style="stroke:#ff0000;stroke-linejoin:miter;stroke-width:1.5;"/>
    </defs>
    <g>
     <use style="fill-opacity:0;stroke:#ff0000;stroke-linejoin:miter;stroke-width:1.5;" x="104.28042" xlink:href="#m626c54674d" y="263.311854"/>
     <use style="fill-opacity:0;stroke:#ff0000;stroke-linejoin:miter;stroke-width:1.5;" x="164.572012" xlink:href="#m626c54674d" y="258.083355"/>
     <use style="fill-opacity:0;stroke:#ff0000;stroke-linejoin:miter;stroke-width:1.5;" x="221.800222" xlink:href="#m626c54674d" y="252.854855"/>
     <use style="fill-opacity:0;stroke:#ff0000;stroke-linejoin:miter;stroke-width:1.5;" x="221.800222" xlink:href="#m626c54674d" y="252.332005"/>
     <use style="fill-opacity:0;stroke:#ff0000;stroke-linejoin:miter;stroke-width:1.5;" x="333.569032" xlink:href="#m626c54674d" y="252.332005"/>
    </g>
   </g>
   <g id="line2d_46">
    <path style="fill:none;stroke:#ff0000;stroke-linecap:square;stroke-width:1.5;"/>
    <g/>
   </g>
   <g id="line2d_47">
    <path clip-path="url(#p5fe98dc5d4)" d="M 163.623253 258.606205 
" style="fill:none;stroke:#ff0000;stroke-linecap:square;stroke-width:1.5;"/>
    <defs>
     <path d="M -12 12 
L 12 -12 
M -12 -12 
L 12 12 
" id="m6b4a5ef172" style="stroke:#ff0000;stroke-width:3;"/>
    </defs>
    <g clip-path="url(#p5fe98dc5d4)">
     <use style="fill:#ff0000;stroke:#ff0000;stroke-width:3;" x="163.623253" xlink:href="#m6b4a5ef172" y="258.606205"/>
    </g>
   </g>
   <g id="line2d_48">
    <defs>
     <path d="M 0 1.5 
C 0.397805 1.5 0.77937 1.341951 1.06066 1.06066 
C 1.341951 0.77937 1.5 0.397805 1.5 0 
C 1.5 -0.397805 1.341951 -0.77937 1.06066 -1.06066 
C 0.77937 -1.341951 0.397805 -1.5 0 -1.5 
C -0.397805 -1.5 -0.77937 -1.341951 -1.06066 -1.06066 
C -1.341951 -0.77937 -1.5 -0.397805 -1.5 0 
C -1.5 0.397805 -1.341951 0.77937 -1.06066 1.06066 
C -0.77937 1.341951 -0.397805 1.5 0 1.5 
z
" id="m01a5bfb145" style="stroke:#bf00bf;"/>
    </defs>
    <g>
     <use style="fill:#bf00bf;stroke:#bf00bf;" x="129.708003" xlink:href="#m01a5bfb145" y="268.017503"/>
     <use style="fill:#bf00bf;stroke:#bf00bf;" x="129.708003" xlink:href="#m01a5bfb145" y="268.017503"/>
    </g>
   </g>
   <g id="line2d_49">
    <path d="M -1 283.180151 
L 5.406747 283.180151 
L 5.406747 279.520202 
L 12.368113 279.520202 
L 12.368113 277.428802 
L 17.307281 277.428802 
L 17.307281 276.905952 
L 21.138397 276.905952 
L 21.138397 276.383102 
L 29.207815 276.383102 
L 29.207815 273.768853 
L 41.10835 273.768853 
L 41.10835 273.246003 
L 69.164478 273.246003 
L 69.164478 272.723153 
L 84.037507 272.723153 
L 84.037507 272.200303 
L 95.84977 272.200303 
L 95.84977 271.677453 
L 99.574357 271.677453 
L 99.574357 271.154603 
L 103.190412 271.154603 
L 103.190412 270.631753 
L 115.755995 270.631753 
L 115.755995 270.108903 
L 117.819781 270.108903 
L 117.819781 269.586053 
L 120.566296 269.586053 
L 120.566296 269.063203 
L 128.476345 269.063203 
L 128.476345 268.540353 
L 129.708003 268.540353 
L 129.708003 268.017503 
L 333.569032 268.017503 
" style="fill:none;stroke:#bf00bf;stroke-linecap:square;stroke-width:1.5;"/>
   </g>
   <g id="line2d_50">
    <defs>
     <path d="M -0 8.485281 
L 8.485281 0 
L 0 -8.485281 
L -8.485281 -0 
z
" id="m778cae7ced" style="stroke:#bf00bf;stroke-linejoin:miter;stroke-width:1.5;"/>
    </defs>
    <g>
     <use style="fill-opacity:0;stroke:#bf00bf;stroke-linejoin:miter;stroke-width:1.5;" x="120.566296" xlink:href="#m778cae7ced" y="269.063203"/>
     <use style="fill-opacity:0;stroke:#bf00bf;stroke-linejoin:miter;stroke-width:1.5;" x="129.708003" xlink:href="#m778cae7ced" y="268.540353"/>
     <use style="fill-opacity:0;stroke:#bf00bf;stroke-linejoin:miter;stroke-width:1.5;" x="129.708003" xlink:href="#m778cae7ced" y="268.017503"/>
     <use style="fill-opacity:0;stroke:#bf00bf;stroke-linejoin:miter;stroke-width:1.5;" x="129.708003" xlink:href="#m778cae7ced" y="268.017503"/>
     <use style="fill-opacity:0;stroke:#bf00bf;stroke-linejoin:miter;stroke-width:1.5;" x="333.569032" xlink:href="#m778cae7ced" y="268.017503"/>
    </g>
   </g>
   <g id="line2d_51">
    <path style="fill:none;stroke:#bf00bf;stroke-linecap:square;stroke-width:1.5;"/>
    <g/>
   </g>
   <g id="line2d_52">
    <path clip-path="url(#p5fe98dc5d4)" d="M 96.372719 271.677453 
" style="fill:none;stroke:#bf00bf;stroke-linecap:square;stroke-width:1.5;"/>
    <defs>
     <path d="M -12 12 
L 12 -12 
M -12 -12 
L 12 12 
" id="m1981a19d6d" style="stroke:#bf00bf;stroke-width:3;"/>
    </defs>
    <g clip-path="url(#p5fe98dc5d4)">
     <use style="fill:#bf00bf;stroke:#bf00bf;stroke-width:3;" x="96.372719" xlink:href="#m1981a19d6d" y="271.677453"/>
    </g>
   </g>
   <g id="line2d_53">
    <path d="M 333.569032 268.017503 
L 364.009226 288.826931 
" style="fill:none;stroke:#bf00bf;stroke-linecap:square;stroke-width:1.5;"/>
    <g>
     <use style="fill-opacity:0;stroke:#bf00bf;stroke-linejoin:miter;stroke-width:1.5;" x="333.569032" xlink:href="#m778cae7ced" y="268.017503"/>
     <use style="fill-opacity:0;stroke:#bf00bf;stroke-linejoin:miter;stroke-width:1.5;" x="364.009226" xlink:href="#m778cae7ced" y="288.826931"/>
    </g>
   </g>
   <g id="line2d_54">
    <path d="M 333.569032 252.332005 
L 364.009226 237.629465 
" style="fill:none;stroke:#ff0000;stroke-linecap:square;stroke-width:1.5;"/>
    <g>
     <use style="fill-opacity:0;stroke:#ff0000;stroke-linejoin:miter;stroke-width:1.5;" x="333.569032" xlink:href="#m626c54674d" y="252.332005"/>
     <use style="fill-opacity:0;stroke:#ff0000;stroke-linejoin:miter;stroke-width:1.5;" x="364.009226" xlink:href="#m626c54674d" y="237.629465"/>
    </g>
   </g>
   <g id="line2d_55">
    <path d="M 333.569032 241.875007 
L 364.009226 186.432 
" style="fill:none;stroke:#000000;stroke-linecap:square;stroke-width:1.5;"/>
    <g>
     <use style="fill-opacity:0;stroke:#000000;stroke-width:1.5;" x="333.569032" xlink:href="#m1240d65916" y="241.875007"/>
     <use style="fill-opacity:0;stroke:#000000;stroke-width:1.5;" x="364.009226" xlink:href="#m1240d65916" y="186.432"/>
    </g>
   </g>
   <g id="line2d_56">
    <path d="M 333.569032 226.189509 
L 364.009226 135.234535 
" style="fill:none;stroke:#0000ff;stroke-linecap:square;stroke-width:1.5;"/>
    <g>
     <use style="fill-opacity:0;stroke:#0000ff;stroke-linejoin:bevel;stroke-width:1.5;" x="333.569032" xlink:href="#m128765b345" y="226.189509"/>
     <use style="fill-opacity:0;stroke:#0000ff;stroke-linejoin:bevel;stroke-width:1.5;" x="364.009226" xlink:href="#m128765b345" y="135.234535"/>
    </g>
   </g>
   <g id="line2d_57">
    <path d="M 333.569032 210.504011 
L 364.009226 84.037069 
" style="fill:none;stroke:#008000;stroke-linecap:square;stroke-width:1.5;"/>
    <g>
     <use style="fill-opacity:0;stroke:#008000;stroke-linejoin:miter;stroke-width:1.5;" x="333.569032" xlink:href="#mfd9010624d" y="210.504011"/>
     <use style="fill-opacity:0;stroke:#008000;stroke-linejoin:miter;stroke-width:1.5;" x="364.009226" xlink:href="#mfd9010624d" y="84.037069"/>
    </g>
   </g>
   <g id="line2d_58">
    <path d="M 333.569032 126.848022 
L 364.009226 32.839604 
" style="fill:none;stroke:#00bfbf;stroke-linecap:square;stroke-width:1.5;"/>
    <g>
     <use style="fill-opacity:0;stroke:#00bfbf;stroke-width:1.5;" x="333.569032" xlink:href="#md97c6ab832" y="126.848022"/>
     <use style="fill-opacity:0;stroke:#00bfbf;stroke-width:1.5;" x="364.009226" xlink:href="#md97c6ab832" y="32.839604"/>
    </g>
   </g>
   <g id="line2d_59">
    <path d="M 333.569032 294.16 
L 333.569032 27.506535 
" style="fill:none;stroke:#000000;stroke-linecap:square;stroke-width:1.5;"/>
   </g>
   <g id="patch_3">
    <path d="M 56.84 294.16 
L 56.84 24.84 
" style="fill:none;stroke:#000000;stroke-linecap:square;stroke-linejoin:miter;stroke-width:0.8;"/>
   </g>
   <g id="patch_4">
    <path d="M 399.984 294.16 
L 399.984 24.84 
" style="fill:none;stroke:#000000;stroke-linecap:square;stroke-linejoin:miter;stroke-width:0.8;"/>
   </g>
   <g id="patch_5">
    <path d="M 56.84 294.16 
L 399.984 294.16 
" style="fill:none;stroke:#000000;stroke-linecap:square;stroke-linejoin:miter;stroke-width:0.8;"/>
   </g>
   <g id="patch_6">
    <path d="M 56.84 24.84 
L 399.984 24.84 
" style="fill:none;stroke:#000000;stroke-linecap:square;stroke-linejoin:miter;stroke-width:0.8;"/>
   </g>
   <g id="text_14">
    <!-- 40-D -->
    <defs>
     <path d="M 19.671875 64.796875 
L 19.671875 8.109375 
L 31.59375 8.109375 
Q 46.6875 8.109375 53.6875 14.9375 
Q 60.6875 21.78125 60.6875 36.53125 
Q 60.6875 51.171875 53.6875 57.984375 
Q 46.6875 64.796875 31.59375 64.796875 
z
M 9.8125 72.90625 
L 30.078125 72.90625 
Q 51.265625 72.90625 61.171875 64.09375 
Q 71.09375 55.28125 71.09375 36.53125 
Q 71.09375 17.671875 61.125 8.828125 
Q 51.171875 0 30.078125 0 
L 9.8125 0 
z
" id="DejaVuSans-44"/>
    </defs>
    <g transform="translate(369.543806 293.517868)scale(0.17 -0.17)">
     <use xlink:href="#DejaVuSans-34"/>
     <use x="63.623047" xlink:href="#DejaVuSans-30"/>
     <use x="127.246094" xlink:href="#DejaVuSans-2d"/>
     <use x="163.330078" xlink:href="#DejaVuSans-44"/>
    </g>
   </g>
   <g id="text_15">
    <!-- 20-D -->
    <g transform="translate(369.543806 242.320403)scale(0.17 -0.17)">
     <use xlink:href="#DejaVuSans-32"/>
     <use x="63.623047" xlink:href="#DejaVuSans-30"/>
     <use x="127.246094" xlink:href="#DejaVuSans-2d"/>
     <use x="163.330078" xlink:href="#DejaVuSans-44"/>
    </g>
   </g>
   <g id="text_16">
    <!-- 10-D -->
    <g transform="translate(369.543806 191.122937)scale(0.17 -0.17)">
     <use xlink:href="#DejaVuSans-31"/>
     <use x="63.623047" xlink:href="#DejaVuSans-30"/>
     <use x="127.246094" xlink:href="#DejaVuSans-2d"/>
     <use x="163.330078" xlink:href="#DejaVuSans-44"/>
    </g>
   </g>
   <g id="text_17">
    <!-- 5-D -->
    <defs>
     <path d="M 10.796875 72.90625 
L 49.515625 72.90625 
L 49.515625 64.59375 
L 19.828125 64.59375 
L 19.828125 46.734375 
Q 21.96875 47.46875 24.109375 47.828125 
Q 26.265625 48.1875 28.421875 48.1875 
Q 40.625 48.1875 47.75 41.5 
Q 54.890625 34.8125 54.890625 23.390625 
Q 54.890625 11.625 47.5625 5.09375 
Q 40.234375 -1.421875 26.90625 -1.421875 
Q 22.3125 -1.421875 17.546875 -0.640625 
Q 12.796875 0.140625 7.71875 1.703125 
L 7.71875 11.625 
Q 12.109375 9.234375 16.796875 8.0625 
Q 21.484375 6.890625 26.703125 6.890625 
Q 35.15625 6.890625 40.078125 11.328125 
Q 45.015625 15.765625 45.015625 23.390625 
Q 45.015625 31 40.078125 35.4375 
Q 35.15625 39.890625 26.703125 39.890625 
Q 22.75 39.890625 18.8125 39.015625 
Q 14.890625 38.140625 10.796875 36.28125 
z
" id="DejaVuSans-35"/>
    </defs>
    <g transform="translate(369.543806 139.925472)scale(0.17 -0.17)">
     <use xlink:href="#DejaVuSans-35"/>
     <use x="63.623047" xlink:href="#DejaVuSans-2d"/>
     <use x="99.707031" xlink:href="#DejaVuSans-44"/>
    </g>
   </g>
   <g id="text_18">
    <!-- 3-D -->
    <defs>
     <path d="M 40.578125 39.3125 
Q 47.65625 37.796875 51.625 33 
Q 55.609375 28.21875 55.609375 21.1875 
Q 55.609375 10.40625 48.1875 4.484375 
Q 40.765625 -1.421875 27.09375 -1.421875 
Q 22.515625 -1.421875 17.65625 -0.515625 
Q 12.796875 0.390625 7.625 2.203125 
L 7.625 11.71875 
Q 11.71875 9.328125 16.59375 8.109375 
Q 21.484375 6.890625 26.8125 6.890625 
Q 36.078125 6.890625 40.9375 10.546875 
Q 45.796875 14.203125 45.796875 21.1875 
Q 45.796875 27.640625 41.28125 31.265625 
Q 36.765625 34.90625 28.71875 34.90625 
L 20.21875 34.90625 
L 20.21875 43.015625 
L 29.109375 43.015625 
Q 36.375 43.015625 40.234375 45.921875 
Q 44.09375 48.828125 44.09375 54.296875 
Q 44.09375 59.90625 40.109375 62.90625 
Q 36.140625 65.921875 28.71875 65.921875 
Q 24.65625 65.921875 20.015625 65.03125 
Q 15.375 64.15625 9.8125 62.3125 
L 9.8125 71.09375 
Q 15.4375 72.65625 20.34375 73.4375 
Q 25.25 74.21875 29.59375 74.21875 
Q 40.828125 74.21875 47.359375 69.109375 
Q 53.90625 64.015625 53.90625 55.328125 
Q 53.90625 49.265625 50.4375 45.09375 
Q 46.96875 40.921875 40.578125 39.3125 
z
" id="DejaVuSans-33"/>
    </defs>
    <g transform="translate(369.543806 88.728007)scale(0.17 -0.17)">
     <use xlink:href="#DejaVuSans-33"/>
     <use x="63.623047" xlink:href="#DejaVuSans-2d"/>
     <use x="99.707031" xlink:href="#DejaVuSans-44"/>
    </g>
   </g>
   <g id="text_19">
    <!-- 2-D -->
    <g transform="translate(369.543806 37.530541)scale(0.17 -0.17)">
     <use xlink:href="#DejaVuSans-32"/>
     <use x="63.623047" xlink:href="#DejaVuSans-2d"/>
     <use x="99.707031" xlink:href="#DejaVuSans-44"/>
    </g>
   </g>
   <g id="text_20">
    <!-- bbob f17 -->
    <defs>
     <path d="M 48.6875 27.296875 
Q 48.6875 37.203125 44.609375 42.84375 
Q 40.53125 48.484375 33.40625 48.484375 
Q 26.265625 48.484375 22.1875 42.84375 
Q 18.109375 37.203125 18.109375 27.296875 
Q 18.109375 17.390625 22.1875 11.75 
Q 26.265625 6.109375 33.40625 6.109375 
Q 40.53125 6.109375 44.609375 11.75 
Q 48.6875 17.390625 48.6875 27.296875 
z
M 18.109375 46.390625 
Q 20.953125 51.265625 25.265625 53.625 
Q 29.59375 56 35.59375 56 
Q 45.5625 56 51.78125 48.09375 
Q 58.015625 40.1875 58.015625 27.296875 
Q 58.015625 14.40625 51.78125 6.484375 
Q 45.5625 -1.421875 35.59375 -1.421875 
Q 29.59375 -1.421875 25.265625 0.953125 
Q 20.953125 3.328125 18.109375 8.203125 
L 18.109375 0 
L 9.078125 0 
L 9.078125 75.984375 
L 18.109375 75.984375 
z
" id="DejaVuSans-62"/>
     <path d="M 8.203125 72.90625 
L 55.078125 72.90625 
L 55.078125 68.703125 
L 28.609375 0 
L 18.3125 0 
L 43.21875 64.59375 
L 8.203125 64.59375 
z
" id="DejaVuSans-37"/>
    </defs>
    <g transform="translate(60.27144 35.283606)scale(0.102 -0.102)">
     <use xlink:href="#DejaVuSans-62"/>
     <use x="63.476562" xlink:href="#DejaVuSans-62"/>
     <use x="126.953125" xlink:href="#DejaVuSans-6f"/>
     <use x="188.134766" xlink:href="#DejaVuSans-62"/>
     <use x="251.611328" xlink:href="#DejaVuSans-20"/>
     <use x="283.398438" xlink:href="#DejaVuSans-66"/>
     <use x="318.603516" xlink:href="#DejaVuSans-31"/>
     <use x="382.226562" xlink:href="#DejaVuSans-37"/>
    </g>
    <!-- 51 targets: 100..1e-08 -->
    <defs>
     <path d="M 11.71875 12.40625 
L 22.015625 12.40625 
L 22.015625 0 
L 11.71875 0 
z
M 11.71875 51.703125 
L 22.015625 51.703125 
L 22.015625 39.3125 
L 11.71875 39.3125 
z
" id="DejaVuSans-3a"/>
    </defs>
    <g transform="translate(60.27144 46.705375)scale(0.102 -0.102)">
     <use xlink:href="#DejaVuSans-35"/>
     <use x="63.623047" xlink:href="#DejaVuSans-31"/>
     <use x="127.246094" xlink:href="#DejaVuSans-20"/>
     <use x="159.033203" xlink:href="#DejaVuSans-74"/>
     <use x="198.242188" xlink:href="#DejaVuSans-61"/>
     <use x="259.521484" xlink:href="#DejaVuSans-72"/>
     <use x="300.619141" xlink:href="#DejaVuSans-67"/>
     <use x="364.095703" xlink:href="#DejaVuSans-65"/>
     <use x="425.619141" xlink:href="#DejaVuSans-74"/>
     <use x="464.828125" xlink:href="#DejaVuSans-73"/>
     <use x="516.927734" xlink:href="#DejaVuSans-3a"/>
     <use x="550.619141" xlink:href="#DejaVuSans-20"/>
     <use x="582.40625" xlink:href="#DejaVuSans-31"/>
     <use x="646.029297" xlink:href="#DejaVuSans-30"/>
     <use x="709.652344" xlink:href="#DejaVuSans-30"/>
     <use x="773.275391" xlink:href="#DejaVuSans-2e"/>
     <use x="805.0625" xlink:href="#DejaVuSans-2e"/>
     <use x="836.849609" xlink:href="#DejaVuSans-31"/>
     <use x="900.472656" xlink:href="#DejaVuSans-65"/>
     <use x="961.996094" xlink:href="#DejaVuSans-2d"/>
     <use x="998.080078" xlink:href="#DejaVuSans-30"/>
     <use x="1061.703125" xlink:href="#DejaVuSans-38"/>
    </g>
    <!-- 15 instances -->
    <g transform="translate(60.27144 58.127144)scale(0.102 -0.102)">
     <use xlink:href="#DejaVuSans-31"/>
     <use x="63.623047" xlink:href="#DejaVuSans-35"/>
     <use x="127.246094" xlink:href="#DejaVuSans-20"/>
     <use x="159.033203" xlink:href="#DejaVuSans-69"/>
     <use x="186.816406" xlink:href="#DejaVuSans-6e"/>
     <use x="250.195312" xlink:href="#DejaVuSans-73"/>
     <use x="302.294922" xlink:href="#DejaVuSans-74"/>
     <use x="341.503906" xlink:href="#DejaVuSans-61"/>
     <use x="402.783203" xlink:href="#DejaVuSans-6e"/>
     <use x="466.162109" xlink:href="#DejaVuSans-63"/>
     <use x="521.142578" xlink:href="#DejaVuSans-65"/>
     <use x="582.666016" xlink:href="#DejaVuSans-73"/>
    </g>
   </g>
   <g id="text_21">
    <!-- v2.2.1.10 -->
    <g style="fill:#808080;" transform="translate(204.779188 289.387113)scale(0.1 -0.1)">
     <use xlink:href="#DejaVuSans-76"/>
     <use x="59.179688" xlink:href="#DejaVuSans-32"/>
     <use x="122.802734" xlink:href="#DejaVuSans-2e"/>
     <use x="154.589844" xlink:href="#DejaVuSans-32"/>
     <use x="218.212891" xlink:href="#DejaVuSans-2e"/>
     <use x="250" xlink:href="#DejaVuSans-31"/>
     <use x="313.623047" xlink:href="#DejaVuSans-2e"/>
     <use x="345.410156" xlink:href="#DejaVuSans-31"/>
     <use x="409.033203" xlink:href="#DejaVuSans-30"/>
    </g>
   </g>
   <g id="text_22">
    <!-- 17 Schaffer F7, condition 10 -->
    <defs>
     <path d="M 53.515625 70.515625 
L 53.515625 60.890625 
Q 47.90625 63.578125 42.921875 64.890625 
Q 37.9375 66.21875 33.296875 66.21875 
Q 25.25 66.21875 20.875 63.09375 
Q 16.5 59.96875 16.5 54.203125 
Q 16.5 49.359375 19.40625 46.890625 
Q 22.3125 44.4375 30.421875 42.921875 
L 36.375 41.703125 
Q 47.40625 39.59375 52.65625 34.296875 
Q 57.90625 29 57.90625 20.125 
Q 57.90625 9.515625 50.796875 4.046875 
Q 43.703125 -1.421875 29.984375 -1.421875 
Q 24.8125 -1.421875 18.96875 -0.25 
Q 13.140625 0.921875 6.890625 3.21875 
L 6.890625 13.375 
Q 12.890625 10.015625 18.65625 8.296875 
Q 24.421875 6.59375 29.984375 6.59375 
Q 38.421875 6.59375 43.015625 9.90625 
Q 47.609375 13.234375 47.609375 19.390625 
Q 47.609375 24.75 44.3125 27.78125 
Q 41.015625 30.8125 33.5 32.328125 
L 27.484375 33.5 
Q 16.453125 35.6875 11.515625 40.375 
Q 6.59375 45.0625 6.59375 53.421875 
Q 6.59375 63.09375 13.40625 68.65625 
Q 20.21875 74.21875 32.171875 74.21875 
Q 37.3125 74.21875 42.625 73.28125 
Q 47.953125 72.359375 53.515625 70.515625 
z
" id="DejaVuSans-53"/>
     <path d="M 54.890625 33.015625 
L 54.890625 0 
L 45.90625 0 
L 45.90625 32.71875 
Q 45.90625 40.484375 42.875 44.328125 
Q 39.84375 48.1875 33.796875 48.1875 
Q 26.515625 48.1875 22.3125 43.546875 
Q 18.109375 38.921875 18.109375 30.90625 
L 18.109375 0 
L 9.078125 0 
L 9.078125 75.984375 
L 18.109375 75.984375 
L 18.109375 46.1875 
Q 21.34375 51.125 25.703125 53.5625 
Q 30.078125 56 35.796875 56 
Q 45.21875 56 50.046875 50.171875 
Q 54.890625 44.34375 54.890625 33.015625 
z
" id="DejaVuSans-68"/>
    </defs>
    <g transform="translate(87.104188 18.84)scale(0.2 -0.2)">
     <use xlink:href="#DejaVuSans-31"/>
     <use x="63.623047" xlink:href="#DejaVuSans-37"/>
     <use x="127.246094" xlink:href="#DejaVuSans-20"/>
     <use x="159.033203" xlink:href="#DejaVuSans-53"/>
     <use x="222.509766" xlink:href="#DejaVuSans-63"/>
     <use x="277.490234" xlink:href="#DejaVuSans-68"/>
     <use x="340.869141" xlink:href="#DejaVuSans-61"/>
     <use x="402.148438" xlink:href="#DejaVuSans-66"/>
     <use x="437.353516" xlink:href="#DejaVuSans-66"/>
     <use x="472.558594" xlink:href="#DejaVuSans-65"/>
     <use x="534.082031" xlink:href="#DejaVuSans-72"/>
     <use x="575.195312" xlink:href="#DejaVuSans-20"/>
     <use x="606.982422" xlink:href="#DejaVuSans-46"/>
     <use x="664.501953" xlink:href="#DejaVuSans-37"/>
     <use x="728.125" xlink:href="#DejaVuSans-2c"/>
     <use x="759.912109" xlink:href="#DejaVuSans-20"/>
     <use x="791.699219" xlink:href="#DejaVuSans-63"/>
     <use x="846.679688" xlink:href="#DejaVuSans-6f"/>
     <use x="907.861328" xlink:href="#DejaVuSans-6e"/>
     <use x="971.240234" xlink:href="#DejaVuSans-64"/>
     <use x="1034.716797" xlink:href="#DejaVuSans-69"/>
     <use x="1062.5" xlink:href="#DejaVuSans-74"/>
     <use x="1101.708984" xlink:href="#DejaVuSans-69"/>
     <use x="1129.492188" xlink:href="#DejaVuSans-6f"/>
     <use x="1190.673828" xlink:href="#DejaVuSans-6e"/>
     <use x="1254.052734" xlink:href="#DejaVuSans-20"/>
     <use x="1285.839844" xlink:href="#DejaVuSans-31"/>
     <use x="1349.462891" xlink:href="#DejaVuSans-30"/>
    </g>
   </g>
  </g>
 </g>
 <defs>
  <clipPath id="p5fe98dc5d4">
   <rect height="269.32" width="343.144" x="56.84" y="24.84"/>
  </clipPath>
 </defs>
</svg>
