<?xml version="1.0" encoding="utf-8" standalone="no"?>
<!DOCTYPE svg PUBLIC "-//W3C//DTD SVG 1.1//EN"
  "http://www.w3.org/Graphics/SVG/1.1/DTD/svg11.dtd">
<!-- Created with matplotlib (http://matplotlib.org/) -->
<svg height="345.6pt" version="1.1" viewBox="0 0 460.8 345.6" width="460.8pt" xmlns="http://www.w3.org/2000/svg" xmlns:xlink="http://www.w3.org/1999/xlink">
 <defs>
  <style type="text/css">
*{stroke-linecap:butt;stroke-linejoin:round;}
  </style>
 </defs>
 <g id="figure_1">
  <g id="patch_1">
   <path d="M 0 345.6 
L 460.8 345.6 
L 460.8 0 
L 0 0 
z
" style="fill:#ffffff;"/>
  </g>
  <g id="axes_1">
   <g id="patch_2">
    <path d="M 56.84 294.16 
L 399.984 294.16 
L 399.984 6.125228 
L 56.84 6.125228 
z
" style="fill:#ffffff;"/>
   </g>
   <g id="matplotlib.axis_1">
    <g id="xtick_1">
     <g id="line2d_1">
      <path clip-path="url(#pefef37f92d)" d="M 56.84 294.16 
L 56.84 6.125228 
" style="fill:none;stroke:#b0b0b0;stroke-linecap:square;stroke-width:0.8;"/>
     </g>
     <g id="line2d_2">
      <defs>
       <path d="M 0 0 
L 0 3.5 
" id="mfbc1137502" style="stroke:#000000;stroke-width:0.8;"/>
      </defs>
      <g>
       <use style="stroke:#000000;stroke-width:0.8;" x="56.84" xlink:href="#mfbc1137502" y="294.16"/>
      </g>
     </g>
     <g id="text_1">
      <!-- 0 -->
      <defs>
       <path d="M 31.78125 66.40625 
Q 24.171875 66.40625 20.328125 58.90625 
Q 16.5 51.421875 16.5 36.375 
Q 16.5 21.390625 20.328125 13.890625 
Q 24.171875 6.390625 31.78125 6.390625 
Q 39.453125 6.390625 43.28125 13.890625 
Q 47.125 21.390625 47.125 36.375 
Q 47.125 51.421875 43.28125 58.90625 
Q 39.453125 66.40625 31.78125 66.40625 
z
M 31.78125 74.21875 
Q 44.046875 74.21875 50.515625 64.515625 
Q 56.984375 54.828125 56.984375 36.375 
Q 56.984375 17.96875 50.515625 8.265625 
Q 44.046875 -1.421875 31.78125 -1.421875 
Q 19.53125 -1.421875 13.0625 8.265625 
Q 6.59375 17.96875 6.59375 36.375 
Q 6.59375 54.828125 13.0625 64.515625 
Q 19.53125 74.21875 31.78125 74.21875 
z
" id="DejaVuSans-30"/>
      </defs>
      <g transform="translate(50.4775 316.356875)scale(0.2 -0.2)">
       <use xlink:href="#DejaVuSans-30"/>
      </g>
     </g>
    </g>
    <g id="xtick_2">
     <g id="line2d_3">
      <path clip-path="url(#pefef37f92d)" d="M 135.905438 294.16 
L 135.905438 6.125228 
" style="fill:none;stroke:#b0b0b0;stroke-linecap:square;stroke-width:0.8;"/>
     </g>
     <g id="line2d_4">
      <g>
       <use style="stroke:#000000;stroke-width:0.8;" x="135.905438" xlink:href="#mfbc1137502" y="294.16"/>
      </g>
     </g>
     <g id="text_2">
      <!-- 2 -->
      <defs>
       <path d="M 19.1875 8.296875 
L 53.609375 8.296875 
L 53.609375 0 
L 7.328125 0 
L 7.328125 8.296875 
Q 12.9375 14.109375 22.625 23.890625 
Q 32.328125 33.6875 34.8125 36.53125 
Q 39.546875 41.84375 41.421875 45.53125 
Q 43.3125 49.21875 43.3125 52.78125 
Q 43.3125 58.59375 39.234375 62.25 
Q 35.15625 65.921875 28.609375 65.921875 
Q 23.96875 65.921875 18.8125 64.3125 
Q 13.671875 62.703125 7.8125 59.421875 
L 7.8125 69.390625 
Q 13.765625 71.78125 18.9375 73 
Q 24.125 74.21875 28.421875 74.21875 
Q 39.75 74.21875 46.484375 68.546875 
Q 53.21875 62.890625 53.21875 53.421875 
Q 53.21875 48.921875 51.53125 44.890625 
Q 49.859375 40.875 45.40625 35.40625 
Q 44.1875 33.984375 37.640625 27.21875 
Q 31.109375 20.453125 19.1875 8.296875 
z
" id="DejaVuSans-32"/>
      </defs>
      <g transform="translate(129.542938 316.356875)scale(0.2 -0.2)">
       <use xlink:href="#DejaVuSans-32"/>
      </g>
     </g>
    </g>
    <g id="xtick_3">
     <g id="line2d_5">
      <path clip-path="url(#pefef37f92d)" d="M 214.970876 294.16 
L 214.970876 6.125228 
" style="fill:none;stroke:#b0b0b0;stroke-linecap:square;stroke-width:0.8;"/>
     </g>
     <g id="line2d_6">
      <g>
       <use style="stroke:#000000;stroke-width:0.8;" x="214.970876" xlink:href="#mfbc1137502" y="294.16"/>
      </g>
     </g>
     <g id="text_3">
      <!-- 4 -->
      <defs>
       <path d="M 37.796875 64.3125 
L 12.890625 25.390625 
L 37.796875 25.390625 
z
M 35.203125 72.90625 
L 47.609375 72.90625 
L 47.609375 25.390625 
L 58.015625 25.390625 
L 58.015625 17.1875 
L 47.609375 17.1875 
L 47.609375 0 
L 37.796875 0 
L 37.796875 17.1875 
L 4.890625 17.1875 
L 4.890625 26.703125 
z
" id="DejaVuSans-34"/>
      </defs>
      <g transform="translate(208.608376 316.356875)scale(0.2 -0.2)">
       <use xlink:href="#DejaVuSans-34"/>
      </g>
     </g>
    </g>
    <g id="xtick_4">
     <g id="line2d_7">
      <path clip-path="url(#pefef37f92d)" d="M 294.036313 294.16 
L 294.036313 6.125228 
" style="fill:none;stroke:#b0b0b0;stroke-linecap:square;stroke-width:0.8;"/>
     </g>
     <g id="line2d_8">
      <g>
       <use style="stroke:#000000;stroke-width:0.8;" x="294.036313" xlink:href="#mfbc1137502" y="294.16"/>
      </g>
     </g>
     <g id="text_4">
      <!-- 6 -->
      <defs>
       <path d="M 33.015625 40.375 
Q 26.375 40.375 22.484375 35.828125 
Q 18.609375 31.296875 18.609375 23.390625 
Q 18.609375 15.53125 22.484375 10.953125 
Q 26.375 6.390625 33.015625 6.390625 
Q 39.65625 6.390625 43.53125 10.953125 
Q 47.40625 15.53125 47.40625 23.390625 
Q 47.40625 31.296875 43.53125 35.828125 
Q 39.65625 40.375 33.015625 40.375 
z
M 52.59375 71.296875 
L 52.59375 62.3125 
Q 48.875 64.0625 45.09375 64.984375 
Q 41.3125 65.921875 37.59375 65.921875 
Q 27.828125 65.921875 22.671875 59.328125 
Q 17.53125 52.734375 16.796875 39.40625 
Q 19.671875 43.65625 24.015625 45.921875 
Q 28.375 48.1875 33.59375 48.1875 
Q 44.578125 48.1875 50.953125 41.515625 
Q 57.328125 34.859375 57.328125 23.390625 
Q 57.328125 12.15625 50.6875 5.359375 
Q 44.046875 -1.421875 33.015625 -1.421875 
Q 20.359375 -1.421875 13.671875 8.265625 
Q 6.984375 17.96875 6.984375 36.375 
Q 6.984375 53.65625 15.1875 63.9375 
Q 23.390625 74.21875 37.203125 74.21875 
Q 40.921875 74.21875 44.703125 73.484375 
Q 48.484375 72.75 52.59375 71.296875 
z
" id="DejaVuSans-36"/>
      </defs>
      <g transform="translate(287.673813 316.356875)scale(0.2 -0.2)">
       <use xlink:href="#DejaVuSans-36"/>
      </g>
     </g>
    </g>
    <g id="xtick_5">
     <g id="line2d_9">
      <path clip-path="url(#pefef37f92d)" d="M 373.101751 294.16 
L 373.101751 6.125228 
" style="fill:none;stroke:#b0b0b0;stroke-linecap:square;stroke-width:0.8;"/>
     </g>
     <g id="line2d_10">
      <g>
       <use style="stroke:#000000;stroke-width:0.8;" x="373.101751" xlink:href="#mfbc1137502" y="294.16"/>
      </g>
     </g>
     <g id="text_5">
      <!-- 8 -->
      <defs>
       <path d="M 31.78125 34.625 
Q 24.75 34.625 20.71875 30.859375 
Q 16.703125 27.09375 16.703125 20.515625 
Q 16.703125 13.921875 20.71875 10.15625 
Q 24.75 6.390625 31.78125 6.390625 
Q 38.8125 6.390625 42.859375 10.171875 
Q 46.921875 13.96875 46.921875 20.515625 
Q 46.921875 27.09375 42.890625 30.859375 
Q 38.875 34.625 31.78125 34.625 
z
M 21.921875 38.8125 
Q 15.578125 40.375 12.03125 44.71875 
Q 8.5 49.078125 8.5 55.328125 
Q 8.5 64.0625 14.71875 69.140625 
Q 20.953125 74.21875 31.78125 74.21875 
Q 42.671875 74.21875 48.875 69.140625 
Q 55.078125 64.0625 55.078125 55.328125 
Q 55.078125 49.078125 51.53125 44.71875 
Q 48 40.375 41.703125 38.8125 
Q 48.828125 37.15625 52.796875 32.3125 
Q 56.78125 27.484375 56.78125 20.515625 
Q 56.78125 9.90625 50.3125 4.234375 
Q 43.84375 -1.421875 31.78125 -1.421875 
Q 19.734375 -1.421875 13.25 4.234375 
Q 6.78125 9.90625 6.78125 20.515625 
Q 6.78125 27.484375 10.78125 32.3125 
Q 14.796875 37.15625 21.921875 38.8125 
z
M 18.3125 54.390625 
Q 18.3125 48.734375 21.84375 45.5625 
Q 25.390625 42.390625 31.78125 42.390625 
Q 38.140625 42.390625 41.71875 45.5625 
Q 45.3125 48.734375 45.3125 54.390625 
Q 45.3125 60.0625 41.71875 63.234375 
Q 38.140625 66.40625 31.78125 66.40625 
Q 25.390625 66.40625 21.84375 63.234375 
Q 18.3125 60.0625 18.3125 54.390625 
z
" id="DejaVuSans-38"/>
      </defs>
      <g transform="translate(366.739251 316.356875)scale(0.2 -0.2)">
       <use xlink:href="#DejaVuSans-38"/>
      </g>
     </g>
    </g>
    <g id="text_6">
     <!-- log10(# f-evals / dimension) -->
     <defs>
      <path d="M 9.421875 75.984375 
L 18.40625 75.984375 
L 18.40625 0 
L 9.421875 0 
z
" id="DejaVuSans-6c"/>
      <path d="M 30.609375 48.390625 
Q 23.390625 48.390625 19.1875 42.75 
Q 14.984375 37.109375 14.984375 27.296875 
Q 14.984375 17.484375 19.15625 11.84375 
Q 23.34375 6.203125 30.609375 6.203125 
Q 37.796875 6.203125 41.984375 11.859375 
Q 46.1875 17.53125 46.1875 27.296875 
Q 46.1875 37.015625 41.984375 42.703125 
Q 37.796875 48.390625 30.609375 48.390625 
z
M 30.609375 56 
Q 42.328125 56 49.015625 48.375 
Q 55.71875 40.765625 55.71875 27.296875 
Q 55.71875 13.875 49.015625 6.21875 
Q 42.328125 -1.421875 30.609375 -1.421875 
Q 18.84375 -1.421875 12.171875 6.21875 
Q 5.515625 13.875 5.515625 27.296875 
Q 5.515625 40.765625 12.171875 48.375 
Q 18.84375 56 30.609375 56 
z
" id="DejaVuSans-6f"/>
      <path d="M 45.40625 27.984375 
Q 45.40625 37.75 41.375 43.109375 
Q 37.359375 48.484375 30.078125 48.484375 
Q 22.859375 48.484375 18.828125 43.109375 
Q 14.796875 37.75 14.796875 27.984375 
Q 14.796875 18.265625 18.828125 12.890625 
Q 22.859375 7.515625 30.078125 7.515625 
Q 37.359375 7.515625 41.375 12.890625 
Q 45.40625 18.265625 45.40625 27.984375 
z
M 54.390625 6.78125 
Q 54.390625 -7.171875 48.1875 -13.984375 
Q 42 -20.796875 29.203125 -20.796875 
Q 24.46875 -20.796875 20.265625 -20.09375 
Q 16.0625 -19.390625 12.109375 -17.921875 
L 12.109375 -9.1875 
Q 16.0625 -11.328125 19.921875 -12.34375 
Q 23.78125 -13.375 27.78125 -13.375 
Q 36.625 -13.375 41.015625 -8.765625 
Q 45.40625 -4.15625 45.40625 5.171875 
L 45.40625 9.625 
Q 42.625 4.78125 38.28125 2.390625 
Q 33.9375 0 27.875 0 
Q 17.828125 0 11.671875 7.65625 
Q 5.515625 15.328125 5.515625 27.984375 
Q 5.515625 40.671875 11.671875 48.328125 
Q 17.828125 56 27.875 56 
Q 33.9375 56 38.28125 53.609375 
Q 42.625 51.21875 45.40625 46.390625 
L 45.40625 54.6875 
L 54.390625 54.6875 
z
" id="DejaVuSans-67"/>
      <path d="M 12.40625 8.296875 
L 28.515625 8.296875 
L 28.515625 63.921875 
L 10.984375 60.40625 
L 10.984375 69.390625 
L 28.421875 72.90625 
L 38.28125 72.90625 
L 38.28125 8.296875 
L 54.390625 8.296875 
L 54.390625 0 
L 12.40625 0 
z
" id="DejaVuSans-31"/>
      <path d="M 31 75.875 
Q 24.46875 64.65625 21.28125 53.65625 
Q 18.109375 42.671875 18.109375 31.390625 
Q 18.109375 20.125 21.3125 9.0625 
Q 24.515625 -2 31 -13.1875 
L 23.1875 -13.1875 
Q 15.875 -1.703125 12.234375 9.375 
Q 8.59375 20.453125 8.59375 31.390625 
Q 8.59375 42.28125 12.203125 53.3125 
Q 15.828125 64.359375 23.1875 75.875 
z
" id="DejaVuSans-28"/>
      <path d="M 51.125 44 
L 36.921875 44 
L 32.8125 27.6875 
L 47.125 27.6875 
z
M 43.796875 71.78125 
L 38.71875 51.515625 
L 52.984375 51.515625 
L 58.109375 71.78125 
L 65.921875 71.78125 
L 60.890625 51.515625 
L 76.125 51.515625 
L 76.125 44 
L 58.984375 44 
L 54.984375 27.6875 
L 70.515625 27.6875 
L 70.515625 20.21875 
L 53.078125 20.21875 
L 48 0 
L 40.1875 0 
L 45.21875 20.21875 
L 30.90625 20.21875 
L 25.875 0 
L 18.015625 0 
L 23.09375 20.21875 
L 7.71875 20.21875 
L 7.71875 27.6875 
L 24.90625 27.6875 
L 29 44 
L 13.28125 44 
L 13.28125 51.515625 
L 30.90625 51.515625 
L 35.890625 71.78125 
z
" id="DejaVuSans-23"/>
      <path id="DejaVuSans-20"/>
      <path d="M 37.109375 75.984375 
L 37.109375 68.5 
L 28.515625 68.5 
Q 23.6875 68.5 21.796875 66.546875 
Q 19.921875 64.59375 19.921875 59.515625 
L 19.921875 54.6875 
L 34.71875 54.6875 
L 34.71875 47.703125 
L 19.921875 47.703125 
L 19.921875 0 
L 10.890625 0 
L 10.890625 47.703125 
L 2.296875 47.703125 
L 2.296875 54.6875 
L 10.890625 54.6875 
L 10.890625 58.5 
Q 10.890625 67.625 15.140625 71.796875 
Q 19.390625 75.984375 28.609375 75.984375 
z
" id="DejaVuSans-66"/>
      <path d="M 4.890625 31.390625 
L 31.203125 31.390625 
L 31.203125 23.390625 
L 4.890625 23.390625 
z
" id="DejaVuSans-2d"/>
      <path d="M 56.203125 29.59375 
L 56.203125 25.203125 
L 14.890625 25.203125 
Q 15.484375 15.921875 20.484375 11.0625 
Q 25.484375 6.203125 34.421875 6.203125 
Q 39.59375 6.203125 44.453125 7.46875 
Q 49.3125 8.734375 54.109375 11.28125 
L 54.109375 2.78125 
Q 49.265625 0.734375 44.1875 -0.34375 
Q 39.109375 -1.421875 33.890625 -1.421875 
Q 20.796875 -1.421875 13.15625 6.1875 
Q 5.515625 13.8125 5.515625 26.8125 
Q 5.515625 40.234375 12.765625 48.109375 
Q 20.015625 56 32.328125 56 
Q 43.359375 56 49.78125 48.890625 
Q 56.203125 41.796875 56.203125 29.59375 
z
M 47.21875 32.234375 
Q 47.125 39.59375 43.09375 43.984375 
Q 39.0625 48.390625 32.421875 48.390625 
Q 24.90625 48.390625 20.390625 44.140625 
Q 15.875 39.890625 15.1875 32.171875 
z
" id="DejaVuSans-65"/>
      <path d="M 2.984375 54.6875 
L 12.5 54.6875 
L 29.59375 8.796875 
L 46.6875 54.6875 
L 56.203125 54.6875 
L 35.6875 0 
L 23.484375 0 
z
" id="DejaVuSans-76"/>
      <path d="M 34.28125 27.484375 
Q 23.390625 27.484375 19.1875 25 
Q 14.984375 22.515625 14.984375 16.5 
Q 14.984375 11.71875 18.140625 8.90625 
Q 21.296875 6.109375 26.703125 6.109375 
Q 34.1875 6.109375 38.703125 11.40625 
Q 43.21875 16.703125 43.21875 25.484375 
L 43.21875 27.484375 
z
M 52.203125 31.203125 
L 52.203125 0 
L 43.21875 0 
L 43.21875 8.296875 
Q 40.140625 3.328125 35.546875 0.953125 
Q 30.953125 -1.421875 24.3125 -1.421875 
Q 15.921875 -1.421875 10.953125 3.296875 
Q 6 8.015625 6 15.921875 
Q 6 25.140625 12.171875 29.828125 
Q 18.359375 34.515625 30.609375 34.515625 
L 43.21875 34.515625 
L 43.21875 35.40625 
Q 43.21875 41.609375 39.140625 45 
Q 35.0625 48.390625 27.6875 48.390625 
Q 23 48.390625 18.546875 47.265625 
Q 14.109375 46.140625 10.015625 43.890625 
L 10.015625 52.203125 
Q 14.9375 54.109375 19.578125 55.046875 
Q 24.21875 56 28.609375 56 
Q 40.484375 56 46.34375 49.84375 
Q 52.203125 43.703125 52.203125 31.203125 
z
" id="DejaVuSans-61"/>
      <path d="M 44.28125 53.078125 
L 44.28125 44.578125 
Q 40.484375 46.53125 36.375 47.5 
Q 32.28125 48.484375 27.875 48.484375 
Q 21.1875 48.484375 17.84375 46.4375 
Q 14.5 44.390625 14.5 40.28125 
Q 14.5 37.15625 16.890625 35.375 
Q 19.28125 33.59375 26.515625 31.984375 
L 29.59375 31.296875 
Q 39.15625 29.25 43.1875 25.515625 
Q 47.21875 21.78125 47.21875 15.09375 
Q 47.21875 7.46875 41.1875 3.015625 
Q 35.15625 -1.421875 24.609375 -1.421875 
Q 20.21875 -1.421875 15.453125 -0.5625 
Q 10.6875 0.296875 5.421875 2 
L 5.421875 11.28125 
Q 10.40625 8.6875 15.234375 7.390625 
Q 20.0625 6.109375 24.8125 6.109375 
Q 31.15625 6.109375 34.5625 8.28125 
Q 37.984375 10.453125 37.984375 14.40625 
Q 37.984375 18.0625 35.515625 20.015625 
Q 33.0625 21.96875 24.703125 23.78125 
L 21.578125 24.515625 
Q 13.234375 26.265625 9.515625 29.90625 
Q 5.8125 33.546875 5.8125 39.890625 
Q 5.8125 47.609375 11.28125 51.796875 
Q 16.75 56 26.8125 56 
Q 31.78125 56 36.171875 55.265625 
Q 40.578125 54.546875 44.28125 53.078125 
z
" id="DejaVuSans-73"/>
      <path d="M 25.390625 72.90625 
L 33.6875 72.90625 
L 8.296875 -9.28125 
L 0 -9.28125 
z
" id="DejaVuSans-2f"/>
      <path d="M 45.40625 46.390625 
L 45.40625 75.984375 
L 54.390625 75.984375 
L 54.390625 0 
L 45.40625 0 
L 45.40625 8.203125 
Q 42.578125 3.328125 38.25 0.953125 
Q 33.9375 -1.421875 27.875 -1.421875 
Q 17.96875 -1.421875 11.734375 6.484375 
Q 5.515625 14.40625 5.515625 27.296875 
Q 5.515625 40.1875 11.734375 48.09375 
Q 17.96875 56 27.875 56 
Q 33.9375 56 38.25 53.625 
Q 42.578125 51.265625 45.40625 46.390625 
z
M 14.796875 27.296875 
Q 14.796875 17.390625 18.875 11.75 
Q 22.953125 6.109375 30.078125 6.109375 
Q 37.203125 6.109375 41.296875 11.75 
Q 45.40625 17.390625 45.40625 27.296875 
Q 45.40625 37.203125 41.296875 42.84375 
Q 37.203125 48.484375 30.078125 48.484375 
Q 22.953125 48.484375 18.875 42.84375 
Q 14.796875 37.203125 14.796875 27.296875 
z
" id="DejaVuSans-64"/>
      <path d="M 9.421875 54.6875 
L 18.40625 54.6875 
L 18.40625 0 
L 9.421875 0 
z
M 9.421875 75.984375 
L 18.40625 75.984375 
L 18.40625 64.59375 
L 9.421875 64.59375 
z
" id="DejaVuSans-69"/>
      <path d="M 52 44.1875 
Q 55.375 50.25 60.0625 53.125 
Q 64.75 56 71.09375 56 
Q 79.640625 56 84.28125 50.015625 
Q 88.921875 44.046875 88.921875 33.015625 
L 88.921875 0 
L 79.890625 0 
L 79.890625 32.71875 
Q 79.890625 40.578125 77.09375 44.375 
Q 74.3125 48.1875 68.609375 48.1875 
Q 61.625 48.1875 57.5625 43.546875 
Q 53.515625 38.921875 53.515625 30.90625 
L 53.515625 0 
L 44.484375 0 
L 44.484375 32.71875 
Q 44.484375 40.625 41.703125 44.40625 
Q 38.921875 48.1875 33.109375 48.1875 
Q 26.21875 48.1875 22.15625 43.53125 
Q 18.109375 38.875 18.109375 30.90625 
L 18.109375 0 
L 9.078125 0 
L 9.078125 54.6875 
L 18.109375 54.6875 
L 18.109375 46.1875 
Q 21.1875 51.21875 25.484375 53.609375 
Q 29.78125 56 35.6875 56 
Q 41.65625 56 45.828125 52.96875 
Q 50 49.953125 52 44.1875 
z
" id="DejaVuSans-6d"/>
      <path d="M 54.890625 33.015625 
L 54.890625 0 
L 45.90625 0 
L 45.90625 32.71875 
Q 45.90625 40.484375 42.875 44.328125 
Q 39.84375 48.1875 33.796875 48.1875 
Q 26.515625 48.1875 22.3125 43.546875 
Q 18.109375 38.921875 18.109375 30.90625 
L 18.109375 0 
L 9.078125 0 
L 9.078125 54.6875 
L 18.109375 54.6875 
L 18.109375 46.1875 
Q 21.34375 51.125 25.703125 53.5625 
Q 30.078125 56 35.796875 56 
Q 45.21875 56 50.046875 50.171875 
Q 54.890625 44.34375 54.890625 33.015625 
z
" id="DejaVuSans-6e"/>
      <path d="M 8.015625 75.875 
L 15.828125 75.875 
Q 23.140625 64.359375 26.78125 53.3125 
Q 30.421875 42.28125 30.421875 31.390625 
Q 30.421875 20.453125 26.78125 9.375 
Q 23.140625 -1.703125 15.828125 -13.1875 
L 8.015625 -13.1875 
Q 14.5 -2 17.703125 9.0625 
Q 20.90625 20.125 20.90625 31.390625 
Q 20.90625 42.671875 17.703125 53.65625 
Q 14.5 64.65625 8.015625 75.875 
z
" id="DejaVuSans-29"/>
     </defs>
     <g transform="translate(107.571219 337.433594)scale(0.17 -0.17)">
      <use xlink:href="#DejaVuSans-6c"/>
      <use x="27.783203" xlink:href="#DejaVuSans-6f"/>
      <use x="88.964844" xlink:href="#DejaVuSans-67"/>
      <use x="152.441406" xlink:href="#DejaVuSans-31"/>
      <use x="216.064453" xlink:href="#DejaVuSans-30"/>
      <use x="279.6875" xlink:href="#DejaVuSans-28"/>
      <use x="318.701172" xlink:href="#DejaVuSans-23"/>
      <use x="402.490234" xlink:href="#DejaVuSans-20"/>
      <use x="434.277344" xlink:href="#DejaVuSans-66"/>
      <use x="469.404297" xlink:href="#DejaVuSans-2d"/>
      <use x="505.488281" xlink:href="#DejaVuSans-65"/>
      <use x="567.011719" xlink:href="#DejaVuSans-76"/>
      <use x="626.191406" xlink:href="#DejaVuSans-61"/>
      <use x="687.470703" xlink:href="#DejaVuSans-6c"/>
      <use x="715.253906" xlink:href="#DejaVuSans-73"/>
      <use x="767.353516" xlink:href="#DejaVuSans-20"/>
      <use x="799.140625" xlink:href="#DejaVuSans-2f"/>
      <use x="832.832031" xlink:href="#DejaVuSans-20"/>
      <use x="864.619141" xlink:href="#DejaVuSans-64"/>
      <use x="928.095703" xlink:href="#DejaVuSans-69"/>
      <use x="955.878906" xlink:href="#DejaVuSans-6d"/>
      <use x="1053.291016" xlink:href="#DejaVuSans-65"/>
      <use x="1114.814453" xlink:href="#DejaVuSans-6e"/>
      <use x="1178.193359" xlink:href="#DejaVuSans-73"/>
      <use x="1230.292969" xlink:href="#DejaVuSans-69"/>
      <use x="1258.076172" xlink:href="#DejaVuSans-6f"/>
      <use x="1319.257812" xlink:href="#DejaVuSans-6e"/>
      <use x="1382.636719" xlink:href="#DejaVuSans-29"/>
     </g>
    </g>
   </g>
   <g id="matplotlib.axis_2">
    <g id="ytick_1">
     <g id="line2d_11">
      <path clip-path="url(#pefef37f92d)" d="M 56.84 294.16 
L 399.984 294.16 
" style="fill:none;stroke:#b0b0b0;stroke-linecap:square;stroke-width:0.8;"/>
     </g>
     <g id="line2d_12">
      <defs>
       <path d="M 0 0 
L -3.5 0 
" id="m9819b7dd93" style="stroke:#000000;stroke-width:0.8;"/>
      </defs>
      <g>
       <use style="stroke:#000000;stroke-width:0.8;" x="56.84" xlink:href="#m9819b7dd93" y="294.16"/>
      </g>
     </g>
     <g id="text_7">
      <!-- 0.0 -->
      <defs>
       <path d="M 10.6875 12.40625 
L 21 12.40625 
L 21 0 
L 10.6875 0 
z
" id="DejaVuSans-2e"/>
      </defs>
      <g transform="translate(24.395 300.23875)scale(0.16 -0.16)">
       <use xlink:href="#DejaVuSans-30"/>
       <use x="63.623047" xlink:href="#DejaVuSans-2e"/>
       <use x="95.410156" xlink:href="#DejaVuSans-30"/>
      </g>
     </g>
    </g>
    <g id="ytick_2">
     <g id="line2d_13">
      <path clip-path="url(#pefef37f92d)" d="M 56.84 237.123411 
L 399.984 237.123411 
" style="fill:none;stroke:#b0b0b0;stroke-linecap:square;stroke-width:0.8;"/>
     </g>
     <g id="line2d_14">
      <g>
       <use style="stroke:#000000;stroke-width:0.8;" x="56.84" xlink:href="#m9819b7dd93" y="237.123411"/>
      </g>
     </g>
     <g id="text_8">
      <!-- 0.2 -->
      <g transform="translate(24.395 243.202161)scale(0.16 -0.16)">
       <use xlink:href="#DejaVuSans-30"/>
       <use x="63.623047" xlink:href="#DejaVuSans-2e"/>
       <use x="95.410156" xlink:href="#DejaVuSans-32"/>
      </g>
     </g>
    </g>
    <g id="ytick_3">
     <g id="line2d_15">
      <path clip-path="url(#pefef37f92d)" d="M 56.84 180.086823 
L 399.984 180.086823 
" style="fill:none;stroke:#b0b0b0;stroke-linecap:square;stroke-width:0.8;"/>
     </g>
     <g id="line2d_16">
      <g>
       <use style="stroke:#000000;stroke-width:0.8;" x="56.84" xlink:href="#m9819b7dd93" y="180.086823"/>
      </g>
     </g>
     <g id="text_9">
      <!-- 0.4 -->
      <g transform="translate(24.395 186.165573)scale(0.16 -0.16)">
       <use xlink:href="#DejaVuSans-30"/>
       <use x="63.623047" xlink:href="#DejaVuSans-2e"/>
       <use x="95.410156" xlink:href="#DejaVuSans-34"/>
      </g>
     </g>
    </g>
    <g id="ytick_4">
     <g id="line2d_17">
      <path clip-path="url(#pefef37f92d)" d="M 56.84 123.050234 
L 399.984 123.050234 
" style="fill:none;stroke:#b0b0b0;stroke-linecap:square;stroke-width:0.8;"/>
     </g>
     <g id="line2d_18">
      <g>
       <use style="stroke:#000000;stroke-width:0.8;" x="56.84" xlink:href="#m9819b7dd93" y="123.050234"/>
      </g>
     </g>
     <g id="text_10">
      <!-- 0.6 -->
      <g transform="translate(24.395 129.128984)scale(0.16 -0.16)">
       <use xlink:href="#DejaVuSans-30"/>
       <use x="63.623047" xlink:href="#DejaVuSans-2e"/>
       <use x="95.410156" xlink:href="#DejaVuSans-36"/>
      </g>
     </g>
    </g>
    <g id="ytick_5">
     <g id="line2d_19">
      <path clip-path="url(#pefef37f92d)" d="M 56.84 66.013646 
L 399.984 66.013646 
" style="fill:none;stroke:#b0b0b0;stroke-linecap:square;stroke-width:0.8;"/>
     </g>
     <g id="line2d_20">
      <g>
       <use style="stroke:#000000;stroke-width:0.8;" x="56.84" xlink:href="#m9819b7dd93" y="66.013646"/>
      </g>
     </g>
     <g id="text_11">
      <!-- 0.8 -->
      <g transform="translate(24.395 72.092396)scale(0.16 -0.16)">
       <use xlink:href="#DejaVuSans-30"/>
       <use x="63.623047" xlink:href="#DejaVuSans-2e"/>
       <use x="95.410156" xlink:href="#DejaVuSans-38"/>
      </g>
     </g>
    </g>
    <g id="ytick_6">
     <g id="line2d_21">
      <path clip-path="url(#pefef37f92d)" d="M 56.84 8.977057 
L 399.984 8.977057 
" style="fill:none;stroke:#b0b0b0;stroke-linecap:square;stroke-width:0.8;"/>
     </g>
     <g id="line2d_22">
      <g>
       <use style="stroke:#000000;stroke-width:0.8;" x="56.84" xlink:href="#m9819b7dd93" y="8.977057"/>
      </g>
     </g>
     <g id="text_12">
      <!-- 1.0 -->
      <g transform="translate(24.395 15.055807)scale(0.16 -0.16)">
       <use xlink:href="#DejaVuSans-31"/>
       <use x="63.623047" xlink:href="#DejaVuSans-2e"/>
       <use x="95.410156" xlink:href="#DejaVuSans-30"/>
      </g>
     </g>
    </g>
    <g id="text_13">
     <!-- Fraction of function,target pairs -->
     <defs>
      <path d="M 9.8125 72.90625 
L 51.703125 72.90625 
L 51.703125 64.59375 
L 19.671875 64.59375 
L 19.671875 43.109375 
L 48.578125 43.109375 
L 48.578125 34.8125 
L 19.671875 34.8125 
L 19.671875 0 
L 9.8125 0 
z
" id="DejaVuSans-46"/>
      <path d="M 41.109375 46.296875 
Q 39.59375 47.171875 37.8125 47.578125 
Q 36.03125 48 33.890625 48 
Q 26.265625 48 22.1875 43.046875 
Q 18.109375 38.09375 18.109375 28.8125 
L 18.109375 0 
L 9.078125 0 
L 9.078125 54.6875 
L 18.109375 54.6875 
L 18.109375 46.1875 
Q 20.953125 51.171875 25.484375 53.578125 
Q 30.03125 56 36.53125 56 
Q 37.453125 56 38.578125 55.875 
Q 39.703125 55.765625 41.0625 55.515625 
z
" id="DejaVuSans-72"/>
      <path d="M 48.78125 52.59375 
L 48.78125 44.1875 
Q 44.96875 46.296875 41.140625 47.34375 
Q 37.3125 48.390625 33.40625 48.390625 
Q 24.65625 48.390625 19.8125 42.84375 
Q 14.984375 37.3125 14.984375 27.296875 
Q 14.984375 17.28125 19.8125 11.734375 
Q 24.65625 6.203125 33.40625 6.203125 
Q 37.3125 6.203125 41.140625 7.25 
Q 44.96875 8.296875 48.78125 10.40625 
L 48.78125 2.09375 
Q 45.015625 0.34375 40.984375 -0.53125 
Q 36.96875 -1.421875 32.421875 -1.421875 
Q 20.0625 -1.421875 12.78125 6.34375 
Q 5.515625 14.109375 5.515625 27.296875 
Q 5.515625 40.671875 12.859375 48.328125 
Q 20.21875 56 33.015625 56 
Q 37.15625 56 41.109375 55.140625 
Q 45.0625 54.296875 48.78125 52.59375 
z
" id="DejaVuSans-63"/>
      <path d="M 18.3125 70.21875 
L 18.3125 54.6875 
L 36.8125 54.6875 
L 36.8125 47.703125 
L 18.3125 47.703125 
L 18.3125 18.015625 
Q 18.3125 11.328125 20.140625 9.421875 
Q 21.96875 7.515625 27.59375 7.515625 
L 36.8125 7.515625 
L 36.8125 0 
L 27.59375 0 
Q 17.1875 0 13.234375 3.875 
Q 9.28125 7.765625 9.28125 18.015625 
L 9.28125 47.703125 
L 2.6875 47.703125 
L 2.6875 54.6875 
L 9.28125 54.6875 
L 9.28125 70.21875 
z
" id="DejaVuSans-74"/>
      <path d="M 8.5 21.578125 
L 8.5 54.6875 
L 17.484375 54.6875 
L 17.484375 21.921875 
Q 17.484375 14.15625 20.5 10.265625 
Q 23.53125 6.390625 29.59375 6.390625 
Q 36.859375 6.390625 41.078125 11.03125 
Q 45.3125 15.671875 45.3125 23.6875 
L 45.3125 54.6875 
L 54.296875 54.6875 
L 54.296875 0 
L 45.3125 0 
L 45.3125 8.40625 
Q 42.046875 3.421875 37.71875 1 
Q 33.40625 -1.421875 27.6875 -1.421875 
Q 18.265625 -1.421875 13.375 4.4375 
Q 8.5 10.296875 8.5 21.578125 
z
M 31.109375 56 
z
" id="DejaVuSans-75"/>
      <path d="M 11.71875 12.40625 
L 22.015625 12.40625 
L 22.015625 4 
L 14.015625 -11.625 
L 7.71875 -11.625 
L 11.71875 4 
z
" id="DejaVuSans-2c"/>
      <path d="M 18.109375 8.203125 
L 18.109375 -20.796875 
L 9.078125 -20.796875 
L 9.078125 54.6875 
L 18.109375 54.6875 
L 18.109375 46.390625 
Q 20.953125 51.265625 25.265625 53.625 
Q 29.59375 56 35.59375 56 
Q 45.5625 56 51.78125 48.09375 
Q 58.015625 40.1875 58.015625 27.296875 
Q 58.015625 14.40625 51.78125 6.484375 
Q 45.5625 -1.421875 35.59375 -1.421875 
Q 29.59375 -1.421875 25.265625 0.953125 
Q 20.953125 3.328125 18.109375 8.203125 
z
M 48.6875 27.296875 
Q 48.6875 37.203125 44.609375 42.84375 
Q 40.53125 48.484375 33.40625 48.484375 
Q 26.265625 48.484375 22.1875 42.84375 
Q 18.109375 37.203125 18.109375 27.296875 
Q 18.109375 17.390625 22.1875 11.75 
Q 26.265625 6.109375 33.40625 6.109375 
Q 40.53125 6.109375 44.609375 11.75 
Q 48.6875 17.390625 48.6875 27.296875 
z
" id="DejaVuSans-70"/>
     </defs>
     <g transform="translate(16.859531 285.281989)rotate(-90)scale(0.17 -0.17)">
      <use xlink:href="#DejaVuSans-46"/>
      <use x="57.410156" xlink:href="#DejaVuSans-72"/>
      <use x="98.523438" xlink:href="#DejaVuSans-61"/>
      <use x="159.802734" xlink:href="#DejaVuSans-63"/>
      <use x="214.783203" xlink:href="#DejaVuSans-74"/>
      <use x="253.992188" xlink:href="#DejaVuSans-69"/>
      <use x="281.775391" xlink:href="#DejaVuSans-6f"/>
      <use x="342.957031" xlink:href="#DejaVuSans-6e"/>
      <use x="406.335938" xlink:href="#DejaVuSans-20"/>
      <use x="438.123047" xlink:href="#DejaVuSans-6f"/>
      <use x="499.304688" xlink:href="#DejaVuSans-66"/>
      <use x="534.509766" xlink:href="#DejaVuSans-20"/>
      <use x="566.296875" xlink:href="#DejaVuSans-66"/>
      <use x="601.501953" xlink:href="#DejaVuSans-75"/>
      <use x="664.880859" xlink:href="#DejaVuSans-6e"/>
      <use x="728.259766" xlink:href="#DejaVuSans-63"/>
      <use x="783.240234" xlink:href="#DejaVuSans-74"/>
      <use x="822.449219" xlink:href="#DejaVuSans-69"/>
      <use x="850.232422" xlink:href="#DejaVuSans-6f"/>
      <use x="911.414062" xlink:href="#DejaVuSans-6e"/>
      <use x="974.792969" xlink:href="#DejaVuSans-2c"/>
      <use x="1006.580078" xlink:href="#DejaVuSans-74"/>
      <use x="1045.789062" xlink:href="#DejaVuSans-61"/>
      <use x="1107.068359" xlink:href="#DejaVuSans-72"/>
      <use x="1148.166016" xlink:href="#DejaVuSans-67"/>
      <use x="1211.642578" xlink:href="#DejaVuSans-65"/>
      <use x="1273.166016" xlink:href="#DejaVuSans-74"/>
      <use x="1312.375" xlink:href="#DejaVuSans-20"/>
      <use x="1344.162109" xlink:href="#DejaVuSans-70"/>
      <use x="1407.638672" xlink:href="#DejaVuSans-61"/>
      <use x="1468.917969" xlink:href="#DejaVuSans-69"/>
      <use x="1496.701172" xlink:href="#DejaVuSans-72"/>
      <use x="1537.814453" xlink:href="#DejaVuSans-73"/>
     </g>
    </g>
   </g>
   <g id="line2d_23">
    <defs>
     <path d="M 0 1.5 
C 0.397805 1.5 0.77937 1.341951 1.06066 1.06066 
C 1.341951 0.77937 1.5 0.397805 1.5 0 
C 1.5 -0.397805 1.341951 -0.77937 1.06066 -1.06066 
C 0.77937 -1.341951 0.397805 -1.5 0 -1.5 
C -0.397805 -1.5 -0.77937 -1.341951 -1.06066 -1.06066 
C -1.341951 -0.77937 -1.5 -0.397805 -1.5 0 
C -1.5 0.397805 -1.341951 0.77937 -1.06066 1.06066 
C -0.77937 1.341951 -0.397805 1.5 0 1.5 
z
" id="me3dd6b90fb" style="stroke:#000080;"/>
    </defs>
    <g>
     <use style="fill:#000080;stroke:#000080;" x="254.248903" xlink:href="#me3dd6b90fb" y="126.405328"/>
     <use style="fill:#000080;stroke:#000080;" x="254.248903" xlink:href="#me3dd6b90fb" y="126.405328"/>
    </g>
   </g>
   <g id="line2d_24">
    <path d="M 114.652569 294.16 
L 114.652569 293.600818 
L 120.173787 293.600818 
L 120.173787 293.041636 
L 122.573338 293.041636 
L 122.573338 292.482453 
L 123.304037 292.482453 
L 123.304037 291.364089 
L 124.004904 291.364089 
L 124.004904 290.245724 
L 125.166524 290.245724 
L 125.166524 289.686542 
L 125.326236 289.686542 
L 125.326236 288.008995 
L 128.376816 288.008995 
L 128.376816 287.449813 
L 128.771519 287.449813 
L 128.771519 286.890631 
L 130.384219 286.890631 
L 130.384219 286.331449 
L 131.639644 286.331449 
L 131.639644 285.213084 
L 131.858358 285.213084 
L 131.966679 284.09472 
L 132.393257 284.09472 
L 132.393257 283.535537 
L 132.706375 283.535537 
L 132.706375 282.976355 
L 133.514469 282.976355 
L 133.514469 282.417173 
L 134.566928 282.417173 
L 134.566928 281.857991 
L 134.843109 281.857991 
L 134.843109 281.298808 
L 135.382488 281.298808 
L 135.382488 280.739626 
L 135.558581 280.739626 
L 135.558581 280.180444 
L 135.819378 280.180444 
L 135.905438 279.062079 
L 136.076273 279.062079 
L 136.076273 278.502897 
L 136.329381 278.502897 
L 136.329381 277.384533 
L 137.463585 277.384533 
L 137.541803 275.706986 
L 137.619667 275.706986 
L 137.697178 274.588622 
L 138.964001 274.588622 
L 138.964001 274.029439 
L 139.178169 274.029439 
L 139.178169 273.470257 
L 139.319477 273.470257 
L 139.319477 272.351893 
L 140.343767 272.351893 
L 140.343767 271.79271 
L 141.121357 271.79271 
L 141.121357 271.233528 
L 141.620849 271.233528 
L 141.620849 270.674346 
L 141.92581 270.674346 
L 141.92581 270.115164 
L 143.206792 270.115164 
L 143.206792 269.555981 
L 143.704475 269.555981 
L 143.704475 268.996799 
L 145.611221 268.996799 
L 145.659927 267.878435 
L 145.756926 267.878435 
L 145.756926 267.319252 
L 146.044679 267.319252 
L 146.044679 266.76007 
L 146.420998 266.76007 
L 146.420998 266.200888 
L 146.606108 266.200888 
L 146.606108 265.641706 
L 147.327215 265.641706 
L 147.327215 264.523341 
L 147.459115 264.523341 
L 147.459115 263.964159 
L 148.019252 263.964159 
L 148.019252 263.404977 
L 150.756442 263.404977 
L 150.792549 261.72743 
L 152.277414 261.72743 
L 152.277414 260.609066 
L 152.926597 260.609066 
L 152.926597 260.049883 
L 154.391258 260.049883 
L 154.391258 259.490701 
L 156.455652 259.490701 
L 156.455652 258.372337 
L 156.966667 258.372337 
L 156.966667 257.253972 
L 157.462911 257.253972 
L 157.48735 255.576425 
L 157.968976 255.576425 
L 157.968976 255.017243 
L 159.598864 255.017243 
L 159.598864 254.458061 
L 159.727954 254.458061 
L 159.727954 253.898879 
L 159.919786 253.898879 
L 159.919786 253.339696 
L 160.172274 253.339696 
L 160.172274 252.780514 
L 161.804841 252.780514 
L 161.804841 252.221332 
L 162.584534 252.221332 
L 162.584534 251.66215 
L 163.554783 251.66215 
L 163.554783 251.102967 
L 164.874844 251.102967 
L 164.874844 250.543785 
L 165.189589 250.543785 
L 165.189589 249.984603 
L 166.041362 249.984603 
L 166.041362 248.866238 
L 166.895278 248.866238 
L 166.895278 248.307056 
L 167.559961 248.307056 
L 167.559961 247.747874 
L 167.909534 247.747874 
L 167.909534 247.188692 
L 168.879784 247.188692 
L 168.879784 246.62951 
L 169.821951 246.62951 
L 169.821951 246.070327 
L 170.782778 246.070327 
L 170.782778 245.511145 
L 171.271129 245.511145 
L 171.271129 244.951963 
L 172.156152 244.951963 
L 172.156152 244.392781 
L 174.108925 244.392781 
L 174.108925 243.833598 
L 175.029873 243.833598 
L 175.029873 243.274416 
L 175.178673 243.274416 
L 175.178673 242.715234 
L 177.283948 242.715234 
L 177.353193 241.596869 
L 177.657613 241.596869 
L 177.657613 241.037687 
L 177.978954 241.037687 
L 178.030701 239.36014 
L 178.265292 239.36014 
L 178.294392 238.241776 
L 178.417518 238.241776 
L 178.453564 237.123411 
L 178.816977 237.123411 
L 178.816977 236.564229 
L 179.494419 236.564229 
L 179.494419 236.005047 
L 179.609261 236.005047 
L 179.609261 235.445865 
L 179.776763 235.445865 
L 179.776763 234.886682 
L 180.198267 234.886682 
L 180.198267 234.3275 
L 181.227254 234.3275 
L 181.227254 233.768318 
L 181.597012 233.768318 
L 181.597012 233.209136 
L 181.829309 233.209136 
L 181.882473 231.531589 
L 181.947227 231.531589 
L 181.947227 230.972407 
L 182.626928 230.972407 
L 182.649504 229.854042 
L 182.761939 229.854042 
L 182.761939 229.29486 
L 183.983783 229.29486 
L 183.983783 228.735678 
L 184.222171 228.735678 
L 184.222171 228.176496 
L 184.457294 228.176496 
L 184.457294 227.617313 
L 184.704259 227.617313 
L 184.704259 227.058131 
L 184.828907 227.058131 
L 184.828907 226.498949 
L 185.648589 226.498949 
L 185.648589 225.939767 
L 185.855728 225.939767 
L 185.855728 225.380584 
L 186.458044 225.380584 
L 186.458044 224.821402 
L 187.720708 224.821402 
L 187.720708 224.26222 
L 188.873303 224.26222 
L 188.96725 222.584673 
L 189.437026 222.584673 
L 189.437026 222.025491 
L 189.61087 222.025491 
L 189.61087 221.466309 
L 190.015911 221.466309 
L 190.015911 220.907126 
L 191.313423 220.907126 
L 191.313423 220.347944 
L 191.5904 220.347944 
L 191.5904 219.788762 
L 191.796895 219.788762 
L 191.796895 219.22958 
L 192.046676 219.22958 
L 192.046676 218.670397 
L 192.73109 218.670397 
L 192.73109 218.111215 
L 193.12166 218.111215 
L 193.192005 216.992851 
L 193.494548 216.992851 
L 193.554422 215.315304 
L 193.614088 215.315304 
L 193.625996 213.637757 
L 194.188095 213.637757 
L 194.188095 213.078575 
L 194.779744 213.078575 
L 194.779744 212.519393 
L 195.222002 212.519393 
L 195.222002 211.960211 
L 195.461678 211.960211 
L 195.528405 210.841846 
L 195.933821 210.841846 
L 195.933821 209.723482 
L 196.181788 209.723482 
L 196.248334 208.605117 
L 196.54715 208.605117 
L 196.647275 206.92757 
L 197.049351 206.92757 
L 197.049351 206.368388 
L 197.339454 206.368388 
L 197.339454 205.809206 
L 197.76328 205.809206 
L 197.76328 204.690841 
L 198.549533 204.690841 
L 198.549533 204.131659 
L 198.999339 204.131659 
L 199.086171 202.454112 
L 199.172567 202.454112 
L 199.172567 201.89493 
L 199.773781 201.89493 
L 199.773781 201.335748 
L 200.101405 201.335748 
L 200.101405 200.776566 
L 200.612145 200.776566 
L 200.691209 199.099019 
L 200.982562 199.099019 
L 200.982562 198.539837 
L 201.106204 198.539837 
L 201.175364 196.86229 
L 201.829924 196.86229 
L 201.868636 195.743926 
L 201.971444 195.743926 
L 202.008012 194.625561 
L 202.117252 194.625561 
L 202.117252 194.066379 
L 202.540311 194.066379 
L 202.635664 192.948014 
L 204.573523 192.948014 
L 204.573523 192.388832 
L 206.12172 192.388832 
L 206.150442 190.711285 
L 207.362212 190.711285 
L 207.362212 190.152103 
L 207.568227 190.152103 
L 207.568227 189.592921 
L 208.278656 189.592921 
L 208.278656 189.033739 
L 208.785753 189.033739 
L 208.842274 187.915374 
L 209.173938 187.915374 
L 209.221999 186.79701 
L 209.293841 186.79701 
L 209.293841 186.237828 
L 210.117338 186.237828 
L 210.185536 185.119463 
L 210.253464 185.119463 
L 210.253464 184.560281 
L 210.49469 184.560281 
L 210.49469 184.001099 
L 210.881365 184.001099 
L 210.903138 182.882734 
L 211.278692 182.882734 
L 211.278692 182.323552 
L 211.506028 182.323552 
L 211.506028 181.76437 
L 211.987646 181.76437 
L 212.048818 180.646005 
L 212.336444 180.646005 
L 212.336444 180.086823 
L 213.323347 180.086823 
L 213.323347 179.527641 
L 213.525308 179.527641 
L 213.599854 177.850094 
L 214.301278 177.850094 
L 214.31912 176.731729 
L 214.443501 176.731729 
L 214.535318 175.054183 
L 215.817537 175.054183 
L 215.817537 174.495 
L 216.304126 174.495 
L 216.320005 173.376636 
L 217.118519 173.376636 
L 217.133663 172.258271 
L 217.392806 172.258271 
L 217.392806 171.699089 
L 217.73601 171.699089 
L 217.73601 171.139907 
L 217.942297 171.139907 
L 217.942297 170.580725 
L 218.357451 170.580725 
L 218.466343 169.46236 
L 218.709029 169.46236 
L 218.815721 168.343996 
L 219.28613 168.343996 
L 219.326143 167.225631 
L 219.642932 167.225631 
L 219.642932 166.666449 
L 220.075566 166.666449 
L 220.116328 165.548085 
L 220.237403 165.548085 
L 220.237403 164.988902 
L 221.270081 164.988902 
L 221.270081 164.42972 
L 221.963689 164.42972 
L 222.052005 163.311356 
L 222.373485 163.311356 
L 222.420274 162.192991 
L 222.786256 162.192991 
L 222.786256 161.633809 
L 223.155261 161.633809 
L 223.168047 160.515444 
L 223.695602 160.515444 
L 223.695602 159.956262 
L 224.209434 159.956262 
L 224.209434 159.39708 
L 224.73752 159.39708 
L 224.73752 158.837898 
L 225.091083 158.837898 
L 225.174202 157.160351 
L 225.249846 157.160351 
L 225.28519 156.041987 
L 225.968158 156.041987 
L 225.968158 155.482804 
L 226.101551 155.482804 
L 226.101551 154.923622 
L 226.248609 154.923622 
L 226.248609 154.36444 
L 226.605389 154.36444 
L 226.605389 153.805258 
L 226.7374 153.805258 
L 226.7374 153.246075 
L 227.217709 153.246075 
L 227.217709 152.686893 
L 227.990859 152.686893 
L 228.022999 151.568529 
L 228.216571 151.568529 
L 228.216571 151.009346 
L 228.360823 151.009346 
L 228.39385 149.890982 
L 228.644579 149.890982 
L 228.644579 149.3318 
L 228.885594 149.3318 
L 228.885594 148.772617 
L 229.572484 148.772617 
L 229.572484 148.213435 
L 229.976245 148.213435 
L 229.976245 147.654253 
L 230.148042 147.654253 
L 230.148042 147.095071 
L 230.565315 147.095071 
L 230.565315 146.535888 
L 231.054293 146.535888 
L 231.121444 144.858342 
L 231.310402 144.858342 
L 231.310402 144.299159 
L 231.562747 144.299159 
L 231.562747 143.739977 
L 231.831704 143.739977 
L 231.831704 143.180795 
L 232.235254 143.180795 
L 232.235254 142.621613 
L 232.456795 142.621613 
L 232.456795 142.06243 
L 233.106555 142.06243 
L 233.106555 141.503248 
L 233.769421 141.503248 
L 233.769421 140.944066 
L 235.23341 140.944066 
L 235.23341 140.384884 
L 235.764441 140.384884 
L 235.764441 139.825702 
L 235.990517 139.825702 
L 235.990517 139.266519 
L 236.787824 139.266519 
L 236.787824 138.707337 
L 236.918138 138.707337 
L 236.918138 138.148155 
L 237.552507 138.148155 
L 237.552507 137.588973 
L 240.669695 137.588973 
L 240.669695 137.02979 
L 241.028135 137.02979 
L 241.028135 136.470608 
L 241.437959 136.470608 
L 241.437959 135.911426 
L 243.278911 135.911426 
L 243.278911 135.352244 
L 243.990872 135.352244 
L 243.990872 134.793061 
L 244.784002 134.793061 
L 244.784002 134.233879 
L 244.95462 134.233879 
L 244.980202 133.115515 
L 245.283218 133.115515 
L 245.283218 132.556332 
L 246.566211 132.556332 
L 246.566211 131.99715 
L 249.132684 131.99715 
L 249.213948 130.878786 
L 249.5398 130.878786 
L 249.5398 130.319603 
L 250.905777 130.319603 
L 250.905777 129.760421 
L 251.460512 129.760421 
L 251.460512 129.201239 
L 251.678859 129.201239 
L 251.678859 128.642057 
L 252.184407 128.642057 
L 252.212977 127.523692 
L 252.593752 127.523692 
L 252.593752 126.96451 
L 254.248903 126.96451 
L 254.248903 126.405328 
L 333.569032 126.405328 
L 333.569032 126.405328 
" style="fill:none;stroke:#000080;stroke-linecap:square;stroke-width:1.5;"/>
   </g>
   <g id="line2d_25">
    <defs>
     <path d="M 0 6 
C 1.591219 6 3.117479 5.367802 4.242641 4.242641 
C 5.367802 3.117479 6 1.591219 6 0 
C 6 -1.591219 5.367802 -3.117479 4.242641 -4.242641 
C 3.117479 -5.367802 1.591219 -6 0 -6 
C -1.591219 -6 -3.117479 -5.367802 -4.242641 -4.242641 
C -5.367802 -3.117479 -6 -1.591219 -6 0 
C -6 1.591219 -5.367802 3.117479 -4.242641 4.242641 
C -3.117479 5.367802 -1.591219 6 0 6 
z
" id="m9499c7e6fe" style="stroke:#000080;stroke-width:1.5;"/>
    </defs>
    <g>
     <use style="fill-opacity:0;stroke:#000080;stroke-width:1.5;" x="184.704259" xlink:href="#m9499c7e6fe" y="227.617313"/>
     <use style="fill-opacity:0;stroke:#000080;stroke-width:1.5;" x="219.326143" xlink:href="#m9499c7e6fe" y="167.784814"/>
     <use style="fill-opacity:0;stroke:#000080;stroke-width:1.5;" x="254.248903" xlink:href="#m9499c7e6fe" y="126.96451"/>
     <use style="fill-opacity:0;stroke:#000080;stroke-width:1.5;" x="254.248903" xlink:href="#m9499c7e6fe" y="126.405328"/>
     <use style="fill-opacity:0;stroke:#000080;stroke-width:1.5;" x="333.569032" xlink:href="#m9499c7e6fe" y="126.405328"/>
    </g>
   </g>
   <g id="line2d_26">
    <path style="fill:none;stroke:#000080;stroke-linecap:square;stroke-width:1.5;"/>
    <g/>
   </g>
   <g id="line2d_27">
    <path clip-path="url(#pefef37f92d)" d="M 164.375293 251.102967 
" style="fill:none;stroke:#000080;stroke-linecap:square;stroke-width:1.5;"/>
    <defs>
     <path d="M -12 12 
L 12 -12 
M -12 -12 
L 12 12 
" id="m8d89f30ab1" style="stroke:#000080;stroke-width:3;"/>
    </defs>
    <g clip-path="url(#pefef37f92d)">
     <use style="fill:#000080;stroke:#000080;stroke-width:3;" x="164.375293" xlink:href="#m8d89f30ab1" y="251.102967"/>
    </g>
   </g>
   <g id="line2d_28">
    <defs>
     <path d="M 0 1.5 
C 0.397805 1.5 0.77937 1.341951 1.06066 1.06066 
C 1.341951 0.77937 1.5 0.397805 1.5 0 
C 1.5 -0.397805 1.341951 -0.77937 1.06066 -1.06066 
C 0.77937 -1.341951 0.397805 -1.5 0 -1.5 
C -0.397805 -1.5 -0.77937 -1.341951 -1.06066 -1.06066 
C -1.341951 -0.77937 -1.5 -0.397805 -1.5 0 
C -1.5 0.397805 -1.341951 0.77937 -1.06066 1.06066 
C -0.77937 1.341951 -0.397805 1.5 0 1.5 
z
" id="mfe7b48f6a3" style="stroke:#ff00ff;"/>
    </defs>
    <g>
     <use style="fill:#ff00ff;stroke:#ff00ff;" x="241.015334" xlink:href="#mfe7b48f6a3" y="204.690841"/>
     <use style="fill:#ff00ff;stroke:#ff00ff;" x="241.015334" xlink:href="#mfe7b48f6a3" y="204.690841"/>
    </g>
   </g>
   <g id="line2d_29">
    <path d="M 56.84 294.16 
L 56.84 293.600818 
L 68.740534 293.600818 
L 68.740534 293.041636 
L 78.348489 293.041636 
L 78.348489 291.923271 
L 80.641068 291.923271 
L 80.641068 290.804907 
L 84.472185 290.804907 
L 84.472185 290.245724 
L 86.10855 290.245724 
L 86.10855 289.686542 
L 90.249023 289.686542 
L 90.249023 288.568178 
L 93.582457 288.568178 
L 93.582457 287.449813 
L 94.563801 287.449813 
L 94.563801 286.890631 
L 95.492072 286.890631 
L 95.492072 284.653902 
L 96.372719 284.653902 
L 96.372719 284.09472 
L 100.203835 284.09472 
L 100.203835 283.535537 
L 101.525167 283.535537 
L 101.525167 282.976355 
L 102.752035 282.976355 
L 102.752035 281.857991 
L 103.897048 281.857991 
L 103.897048 279.621262 
L 107.838576 279.621262 
L 107.838576 277.943715 
L 114.353973 277.943715 
L 114.353973 277.384533 
L 114.652569 277.384533 
L 114.652569 276.825351 
L 115.234619 276.825351 
L 115.234619 275.706986 
L 115.518408 275.706986 
L 115.518408 275.147804 
L 120.387068 275.147804 
L 120.387068 274.588622 
L 123.304037 274.588622 
L 123.304037 274.029439 
L 124.344892 274.029439 
L 124.344892 273.470257 
L 125.326236 273.470257 
L 125.326236 272.351893 
L 125.796644 272.351893 
L 125.796644 270.674346 
L 126.846595 270.674346 
L 126.846595 270.115164 
L 128.901096 270.115164 
L 128.901096 269.555981 
L 129.534704 269.555981 
L 129.534704 268.437617 
L 130.265403 268.437617 
L 130.265403 267.878435 
L 131.080349 267.878435 
L 131.080349 267.319252 
L 131.966679 267.319252 
L 131.966679 266.76007 
L 135.114917 266.76007 
L 135.114917 266.200888 
L 136.329381 266.200888 
L 136.329381 265.641706 
L 136.986642 265.641706 
L 136.986642 263.964159 
L 137.22677 263.964159 
L 137.22677 263.404977 
L 137.541803 263.404977 
L 137.541803 262.286612 
L 139.248968 262.286612 
L 139.319477 261.168248 
L 139.529282 261.168248 
L 139.529282 260.049883 
L 139.873358 260.049883 
L 139.941354 258.372337 
L 141.121357 258.372337 
L 141.121357 257.813154 
L 141.804475 257.813154 
L 141.804475 257.253972 
L 143.262808 257.253972 
L 143.262808 256.69479 
L 143.485062 256.69479 
L 143.485062 256.135608 
L 143.813139 256.135608 
L 143.813139 255.017243 
L 146.186767 255.017243 
L 146.186767 254.458061 
L 146.560017 254.458061 
L 146.560017 252.780514 
L 146.789244 252.780514 
L 146.789244 252.221332 
L 146.970447 252.221332 
L 146.970447 251.66215 
L 147.283023 251.66215 
L 147.283023 251.102967 
L 148.14596 251.102967 
L 148.14596 250.543785 
L 148.806382 250.543785 
L 148.806382 249.984603 
L 149.980108 249.984603 
L 149.980108 249.425421 
L 151.078703 249.425421 
L 151.078703 248.866238 
L 154.125983 248.866238 
L 154.214864 247.747874 
L 154.824473 247.747874 
L 154.824473 247.188692 
L 156.73859 247.188692 
L 156.73859 246.62951 
L 158.870982 246.62951 
L 158.870982 246.070327 
L 159.22775 246.070327 
L 159.22775 245.511145 
L 159.85608 245.511145 
L 159.85608 243.833598 
L 162.068693 243.833598 
L 162.068693 243.274416 
L 163.589052 243.274416 
L 163.589052 242.715234 
L 165.001435 242.715234 
L 165.001435 242.156052 
L 166.393857 242.156052 
L 166.393857 241.596869 
L 168.407977 241.596869 
L 168.407977 241.037687 
L 169.191386 241.037687 
L 169.191386 240.478505 
L 169.88138 240.478505 
L 169.88138 239.919323 
L 171.745974 239.919323 
L 171.745974 239.36014 
L 172.627684 239.36014 
L 172.627684 238.800958 
L 177.183432 238.800958 
L 177.183432 238.241776 
L 177.368543 238.241776 
L 177.368543 237.682594 
L 177.85263 237.682594 
L 177.85263 237.123411 
L 178.185012 237.123411 
L 178.185012 236.564229 
L 178.589854 236.564229 
L 178.61841 235.445865 
L 179.020244 235.445865 
L 179.020244 234.886682 
L 179.276139 234.886682 
L 179.276139 234.3275 
L 179.433308 234.3275 
L 179.433308 233.768318 
L 179.589051 233.768318 
L 179.589051 233.209136 
L 180.405201 233.209136 
L 180.405201 232.649954 
L 180.736239 232.649954 
L 180.736239 232.090771 
L 181.312824 232.090771 
L 181.312824 231.531589 
L 181.900157 231.531589 
L 181.900157 230.972407 
L 184.634059 230.972407 
L 184.634059 230.413225 
L 185.11465 230.413225 
L 185.11465 229.854042 
L 185.390908 229.854042 
L 185.390908 229.29486 
L 186.060399 229.29486 
L 186.060399 228.735678 
L 186.303737 228.735678 
L 186.303737 228.176496 
L 189.353257 228.176496 
L 189.353257 227.617313 
L 190.436719 227.617313 
L 190.436719 227.058131 
L 190.664549 227.058131 
L 190.664549 226.498949 
L 191.4626 226.498949 
L 191.529982 225.380584 
L 193.732801 225.380584 
L 193.815415 224.26222 
L 194.516163 224.26222 
L 194.516163 223.703038 
L 195.509747 223.703038 
L 195.509747 223.143855 
L 195.797995 223.143855 
L 195.797995 222.584673 
L 196.138137 222.584673 
L 196.138137 222.025491 
L 196.592279 222.025491 
L 196.649771 220.907126 
L 196.707071 220.907126 
L 196.707071 220.347944 
L 196.914731 220.347944 
L 196.914731 219.788762 
L 198.267978 219.788762 
L 198.3518 218.670397 
L 201.179198 218.670397 
L 201.179198 218.111215 
L 201.909098 218.111215 
L 201.909098 217.552033 
L 202.647986 217.552033 
L 202.647986 216.992851 
L 204.339133 216.992851 
L 204.402798 215.874486 
L 206.023703 215.874486 
L 206.023703 215.315304 
L 207.478151 215.315304 
L 207.478151 214.756122 
L 208.001352 214.756122 
L 208.001352 214.19694 
L 209.295036 214.19694 
L 209.295036 213.637757 
L 209.562952 213.637757 
L 209.562952 213.078575 
L 210.120754 213.078575 
L 210.120754 212.519393 
L 211.243531 212.519393 
L 211.297841 211.401028 
L 211.694067 211.401028 
L 211.694067 210.841846 
L 219.160149 210.841846 
L 219.160149 210.282664 
L 220.151915 210.282664 
L 220.151915 209.723482 
L 225.003253 209.723482 
L 225.003253 209.164299 
L 232.020042 209.164299 
L 232.020042 208.605117 
L 238.71347 208.605117 
L 238.71347 208.045935 
L 239.092564 208.045935 
L 239.107092 206.368388 
L 239.975233 206.368388 
L 239.979234 205.250024 
L 241.015334 205.250024 
L 241.015334 204.690841 
L 333.569032 204.690841 
L 333.569032 204.690841 
" style="fill:none;stroke:#ff00ff;stroke-linecap:square;stroke-width:1.5;"/>
   </g>
   <g id="line2d_30">
    <defs>
     <path d="M -0 8.485281 
L 5.091169 0 
L 0 -8.485281 
L -5.091169 -0 
z
" id="m7414e3d68f" style="stroke:#ff00ff;stroke-linejoin:miter;stroke-width:1.5;"/>
    </defs>
    <g>
     <use style="fill-opacity:0;stroke:#ff00ff;stroke-linejoin:miter;stroke-width:1.5;" x="107.838576" xlink:href="#m7414e3d68f" y="277.943715"/>
     <use style="fill-opacity:0;stroke:#ff00ff;stroke-linejoin:miter;stroke-width:1.5;" x="177.183432" xlink:href="#m7414e3d68f" y="238.241776"/>
     <use style="fill-opacity:0;stroke:#ff00ff;stroke-linejoin:miter;stroke-width:1.5;" x="241.015334" xlink:href="#m7414e3d68f" y="204.690841"/>
     <use style="fill-opacity:0;stroke:#ff00ff;stroke-linejoin:miter;stroke-width:1.5;" x="241.015334" xlink:href="#m7414e3d68f" y="204.690841"/>
     <use style="fill-opacity:0;stroke:#ff00ff;stroke-linejoin:miter;stroke-width:1.5;" x="333.569032" xlink:href="#m7414e3d68f" y="204.690841"/>
    </g>
   </g>
   <g id="line2d_31">
    <path style="fill:none;stroke:#ff00ff;stroke-linecap:square;stroke-width:1.5;"/>
    <g/>
   </g>
   <g id="line2d_32">
    <path clip-path="url(#pefef37f92d)" d="M 164.375293 242.715234 
" style="fill:none;stroke:#ff00ff;stroke-linecap:square;stroke-width:1.5;"/>
    <defs>
     <path d="M -12 12 
L 12 -12 
M -12 -12 
L 12 12 
" id="ma44b4008ef" style="stroke:#ff00ff;stroke-width:3;"/>
    </defs>
    <g clip-path="url(#pefef37f92d)">
     <use style="fill:#ff00ff;stroke:#ff00ff;stroke-width:3;" x="164.375293" xlink:href="#ma44b4008ef" y="242.715234"/>
    </g>
   </g>
   <g id="line2d_33">
    <defs>
     <path d="M 0 1.5 
C 0.397805 1.5 0.77937 1.341951 1.06066 1.06066 
C 1.341951 0.77937 1.5 0.397805 1.5 0 
C 1.5 -0.397805 1.341951 -0.77937 1.06066 -1.06066 
C 0.77937 -1.341951 0.397805 -1.5 0 -1.5 
C -0.397805 -1.5 -0.77937 -1.341951 -1.06066 -1.06066 
C -1.341951 -0.77937 -1.5 -0.397805 -1.5 0 
C -1.5 0.397805 -1.341951 0.77937 -1.06066 1.06066 
C -0.77937 1.341951 -0.397805 1.5 0 1.5 
z
" id="m897c0536d8" style="stroke:#ffa500;"/>
    </defs>
    <g>
     <use style="fill:#ffa500;stroke:#ffa500;" x="250.517151" xlink:href="#m897c0536d8" y="137.588973"/>
     <use style="fill:#ffa500;stroke:#ffa500;" x="250.517151" xlink:href="#m897c0536d8" y="137.588973"/>
    </g>
   </g>
   <g id="line2d_34">
    <path d="M 92.541603 294.16 
L 92.541603 293.041636 
L 109.110924 293.041636 
L 109.110924 291.923271 
L 115.797583 291.923271 
L 115.797583 291.364089 
L 118.835278 291.364089 
L 118.835278 290.245724 
L 124.512394 290.245724 
L 124.512394 289.12736 
L 125.005313 289.12736 
L 125.005313 288.568178 
L 126.254507 288.568178 
L 126.254507 288.008995 
L 127.559097 288.008995 
L 127.559097 287.449813 
L 130.145759 287.449813 
L 130.145759 286.890631 
L 132.287602 286.890631 
L 132.287602 286.331449 
L 133.514469 286.331449 
L 133.514469 285.772266 
L 133.904687 285.772266 
L 134.000871 284.09472 
L 134.286233 284.09472 
L 134.286233 282.976355 
L 135.024791 282.976355 
L 135.114917 281.857991 
L 136.076273 281.857991 
L 136.161058 277.943715 
L 136.245426 277.943715 
L 136.329381 276.825351 
L 136.824671 276.825351 
L 136.824671 275.706986 
L 137.1471 275.706986 
L 137.1471 275.147804 
L 137.463585 275.147804 
L 137.463585 273.470257 
L 137.619667 273.470257 
L 137.619667 272.351893 
L 137.774342 272.351893 
L 137.774342 271.79271 
L 138.379474 271.79271 
L 138.379474 270.674346 
L 138.674225 270.674346 
L 138.674225 269.555981 
L 138.964001 269.555981 
L 138.964001 268.437617 
L 139.248968 268.437617 
L 139.248968 267.878435 
L 139.667741 267.878435 
L 139.667741 267.319252 
L 140.210675 267.319252 
L 140.210675 266.200888 
L 140.736964 266.200888 
L 140.736964 265.641706 
L 141.372919 265.641706 
L 141.372919 265.082523 
L 142.809479 265.082523 
L 142.809479 264.523341 
L 142.980883 264.523341 
L 142.980883 263.404977 
L 143.262808 263.404977 
L 143.262808 262.845795 
L 143.595119 262.845795 
L 143.649884 261.72743 
L 145.659927 261.72743 
L 145.659927 261.168248 
L 146.233869 261.168248 
L 146.233869 260.609066 
L 147.238716 260.609066 
L 147.238716 260.049883 
L 147.67672 260.049883 
L 147.67672 259.490701 
L 147.891602 259.490701 
L 147.891602 258.931519 
L 148.019252 258.931519 
L 148.019252 258.372337 
L 148.520568 258.372337 
L 148.520568 257.813154 
L 148.846827 257.813154 
L 148.846827 257.253972 
L 149.206606 257.253972 
L 149.206606 256.135608 
L 149.324876 256.135608 
L 149.324876 255.576425 
L 149.636338 255.576425 
L 149.636338 254.458061 
L 149.980108 254.458061 
L 149.980108 253.339696 
L 151.149502 253.339696 
L 151.149502 252.780514 
L 153.735423 252.780514 
L 153.735423 252.221332 
L 153.856545 252.221332 
L 153.856545 251.66215 
L 155.794722 251.66215 
L 155.794722 251.102967 
L 156.455652 251.102967 
L 156.455652 250.543785 
L 156.916244 250.543785 
L 156.916244 249.984603 
L 158.204816 249.984603 
L 158.204816 249.425421 
L 158.483612 249.425421 
L 158.483612 248.307056 
L 159.727954 248.307056 
L 159.727954 247.188692 
L 161.32335 247.188692 
L 161.32335 245.511145 
L 161.613862 245.511145 
L 161.709617 244.392781 
L 162.438725 244.392781 
L 162.438725 243.833598 
L 162.925945 243.833598 
L 162.925945 242.715234 
L 167.668282 242.715234 
L 167.668282 242.156052 
L 167.949416 242.156052 
L 167.949416 241.596869 
L 168.239081 241.596869 
L 168.239081 240.478505 
L 168.829398 240.478505 
L 168.829398 239.36014 
L 169.976039 239.36014 
L 169.976039 238.800958 
L 170.117057 238.800958 
L 170.117057 238.241776 
L 170.544711 238.241776 
L 170.544711 237.682594 
L 170.74897 237.682594 
L 170.74897 237.123411 
L 172.546604 237.123411 
L 172.546604 236.564229 
L 172.738549 236.564229 
L 172.738549 236.005047 
L 174.817581 236.005047 
L 174.817581 235.445865 
L 174.994672 235.445865 
L 174.994672 234.886682 
L 175.169956 234.886682 
L 175.169956 234.3275 
L 177.792861 234.3275 
L 177.792861 233.768318 
L 178.214248 233.768318 
L 178.214248 233.209136 
L 178.460765 233.209136 
L 178.489535 232.090771 
L 178.795812 232.090771 
L 178.795812 230.972407 
L 178.922416 230.972407 
L 178.936426 229.854042 
L 179.062001 229.854042 
L 179.062001 229.29486 
L 179.289863 229.29486 
L 179.385626 226.498949 
L 179.440109 226.498949 
L 179.5418 223.143855 
L 179.683164 223.143855 
L 179.770095 221.466309 
L 180.034847 221.466309 
L 180.034847 220.907126 
L 180.609671 220.907126 
L 180.609671 220.347944 
L 180.967957 220.347944 
L 180.967957 219.788762 
L 181.416159 219.788762 
L 181.416159 219.22958 
L 181.941351 219.22958 
L 181.941351 218.670397 
L 182.134228 218.670397 
L 182.134228 218.111215 
L 182.519286 218.111215 
L 182.62128 216.992851 
L 182.990156 216.992851 
L 182.990156 216.433669 
L 183.166191 216.433669 
L 183.166191 215.874486 
L 183.383728 215.874486 
L 183.383728 215.315304 
L 184.644106 215.315304 
L 184.644106 214.19694 
L 184.809024 214.19694 
L 184.809024 213.637757 
L 185.226658 213.637757 
L 185.304148 212.519393 
L 185.3861 212.519393 
L 185.482015 210.841846 
L 185.883782 210.841846 
L 185.883782 210.282664 
L 187.000591 210.282664 
L 187.000591 209.723482 
L 187.213763 209.723482 
L 187.213763 209.164299 
L 187.462716 209.164299 
L 187.462716 208.605117 
L 187.991417 208.605117 
L 188.007937 207.486753 
L 188.102623 207.486753 
L 188.102623 206.92757 
L 188.986758 206.92757 
L 188.986758 206.368388 
L 189.165198 206.368388 
L 189.165198 205.809206 
L 189.395193 205.809206 
L 189.482547 204.690841 
L 189.629661 204.690841 
L 189.629661 204.131659 
L 189.905381 204.131659 
L 190.012238 201.89493 
L 190.26022 201.89493 
L 190.26022 201.335748 
L 190.75273 201.335748 
L 190.75273 200.776566 
L 191.435573 200.776566 
L 191.435573 200.217384 
L 192.683996 200.217384 
L 192.683996 199.658201 
L 193.12166 199.658201 
L 193.228593 198.539837 
L 193.410372 198.539837 
L 193.491549 196.86229 
L 193.670579 196.86229 
L 193.670579 195.743926 
L 193.982374 195.743926 
L 194.040573 194.625561 
L 194.328648 194.625561 
L 194.328648 194.066379 
L 195.211151 194.066379 
L 195.211151 193.507197 
L 195.949424 193.507197 
L 195.949424 192.948014 
L 196.360366 192.948014 
L 196.448963 191.270468 
L 196.534594 191.270468 
L 196.564714 190.152103 
L 196.848257 190.152103 
L 196.848257 189.592921 
L 197.380158 189.592921 
L 197.380158 189.033739 
L 198.540594 189.033739 
L 198.540594 188.474556 
L 198.700781 188.474556 
L 198.789133 186.79701 
L 198.81335 186.79701 
L 198.901125 184.560281 
L 199.750882 184.560281 
L 199.750882 184.001099 
L 199.976451 184.001099 
L 200.066673 182.882734 
L 200.6062 182.882734 
L 200.6062 182.323552 
L 200.779724 182.323552 
L 200.779724 181.76437 
L 201.119674 181.76437 
L 201.119674 181.205187 
L 202.024443 181.205187 
L 202.077278 180.086823 
L 202.816086 180.086823 
L 202.897789 178.968458 
L 202.973926 178.968458 
L 203.042849 177.850094 
L 203.190105 177.850094 
L 203.22417 176.731729 
L 204.183757 176.731729 
L 204.183757 176.172547 
L 204.367811 176.172547 
L 204.440884 174.495 
L 204.535731 174.495 
L 204.560935 173.376636 
L 204.852799 173.376636 
L 204.852799 172.817454 
L 206.026593 172.817454 
L 206.026593 172.258271 
L 206.259152 172.258271 
L 206.259152 171.699089 
L 206.638488 171.699089 
L 206.638488 171.139907 
L 206.889092 171.139907 
L 206.889092 170.580725 
L 207.724733 170.580725 
L 207.777021 169.46236 
L 208.970596 169.46236 
L 208.970596 168.903178 
L 210.135551 168.903178 
L 210.242162 167.225631 
L 210.63008 167.225631 
L 210.63008 166.666449 
L 210.933573 166.666449 
L 210.933573 166.107267 
L 211.955955 166.107267 
L 211.955955 164.988902 
L 212.485912 164.988902 
L 212.554233 163.870538 
L 213.691659 163.870538 
L 213.691659 163.311356 
L 213.962343 163.311356 
L 213.962343 162.752173 
L 214.460312 162.752173 
L 214.460312 162.192991 
L 214.59421 162.192991 
L 214.59421 161.633809 
L 214.96143 161.633809 
L 214.96143 161.074627 
L 215.261137 161.074627 
L 215.261137 160.515444 
L 215.398169 160.515444 
L 215.398169 159.956262 
L 215.840402 159.956262 
L 215.873013 158.837898 
L 217.039558 158.837898 
L 217.117762 157.719533 
L 217.429296 157.719533 
L 217.429296 157.160351 
L 217.837284 157.160351 
L 217.837284 156.601169 
L 218.479644 156.601169 
L 218.511803 155.482804 
L 219.296809 155.482804 
L 219.338794 154.36444 
L 219.599719 154.36444 
L 219.599719 153.805258 
L 220.312408 153.805258 
L 220.312408 153.246075 
L 221.350783 153.246075 
L 221.352559 152.127711 
L 221.539774 152.127711 
L 221.539774 151.568529 
L 221.72439 151.568529 
L 221.72439 151.009346 
L 222.198572 151.009346 
L 222.198572 150.450164 
L 223.035464 150.450164 
L 223.035464 149.890982 
L 223.674415 149.890982 
L 223.674415 149.3318 
L 224.692747 149.3318 
L 224.766171 148.213435 
L 225.710167 148.213435 
L 225.710167 147.654253 
L 226.604953 147.654253 
L 226.604953 147.095071 
L 226.862394 147.095071 
L 226.862394 146.535888 
L 227.082146 146.535888 
L 227.082146 145.976706 
L 227.415948 145.976706 
L 227.415948 145.417524 
L 229.629235 145.417524 
L 229.629235 144.858342 
L 230.336738 144.858342 
L 230.336738 144.299159 
L 230.540029 144.299159 
L 230.540029 143.739977 
L 233.033563 143.739977 
L 233.033563 143.180795 
L 233.986888 143.180795 
L 233.986888 142.621613 
L 234.447997 142.621613 
L 234.447997 142.06243 
L 235.044866 142.06243 
L 235.044866 141.503248 
L 235.97941 141.503248 
L 235.97941 140.944066 
L 238.227077 140.944066 
L 238.227077 140.384884 
L 239.121187 140.384884 
L 239.121187 139.825702 
L 240.014404 139.825702 
L 240.014404 139.266519 
L 245.872101 139.266519 
L 245.872101 138.707337 
L 249.95618 138.707337 
L 249.95618 138.148155 
L 250.517151 138.148155 
L 250.517151 137.588973 
L 333.569032 137.588973 
L 333.569032 137.588973 
" style="fill:none;stroke:#ffa500;stroke-linecap:square;stroke-width:1.5;"/>
   </g>
   <g id="line2d_35">
    <defs>
     <path d="M 0 -6 
L -1.347084 -1.854102 
L -5.706339 -1.854102 
L -2.179628 0.708204 
L -3.526712 4.854102 
L -0 2.291796 
L 3.526712 4.854102 
L 2.179628 0.708204 
L 5.706339 -1.854102 
L 1.347084 -1.854102 
z
" id="mb7216c3538" style="stroke:#ffa500;stroke-linejoin:bevel;stroke-width:1.5;"/>
    </defs>
    <g>
     <use style="fill-opacity:0;stroke:#ffa500;stroke-linejoin:bevel;stroke-width:1.5;" x="183.383728" xlink:href="#mb7216c3538" y="215.874486"/>
     <use style="fill-opacity:0;stroke:#ffa500;stroke-linejoin:bevel;stroke-width:1.5;" x="234.447997" xlink:href="#mb7216c3538" y="142.621613"/>
     <use style="fill-opacity:0;stroke:#ffa500;stroke-linejoin:bevel;stroke-width:1.5;" x="250.517151" xlink:href="#mb7216c3538" y="137.588973"/>
     <use style="fill-opacity:0;stroke:#ffa500;stroke-linejoin:bevel;stroke-width:1.5;" x="250.517151" xlink:href="#mb7216c3538" y="137.588973"/>
     <use style="fill-opacity:0;stroke:#ffa500;stroke-linejoin:bevel;stroke-width:1.5;" x="333.569032" xlink:href="#mb7216c3538" y="137.588973"/>
    </g>
   </g>
   <g id="line2d_36">
    <path style="fill:none;stroke:#ffa500;stroke-linecap:square;stroke-width:1.5;"/>
    <g/>
   </g>
   <g id="line2d_37">
    <path clip-path="url(#pefef37f92d)" d="M 164.375293 242.715234 
" style="fill:none;stroke:#ffa500;stroke-linecap:square;stroke-width:1.5;"/>
    <defs>
     <path d="M -12 12 
L 12 -12 
M -12 -12 
L 12 12 
" id="m74ace43bd7" style="stroke:#ffa500;stroke-width:3;"/>
    </defs>
    <g clip-path="url(#pefef37f92d)">
     <use style="fill:#ffa500;stroke:#ffa500;stroke-width:3;" x="164.375293" xlink:href="#m74ace43bd7" y="242.715234"/>
    </g>
   </g>
   <g id="line2d_38">
    <defs>
     <path d="M 0 1.5 
C 0.397805 1.5 0.77937 1.341951 1.06066 1.06066 
C 1.341951 0.77937 1.5 0.397805 1.5 0 
C 1.5 -0.397805 1.341951 -0.77937 1.06066 -1.06066 
C 0.77937 -1.341951 0.397805 -1.5 0 -1.5 
C -0.397805 -1.5 -0.77937 -1.341951 -1.06066 -1.06066 
C -1.341951 -0.77937 -1.5 -0.397805 -1.5 0 
C -1.5 0.397805 -1.341951 0.77937 -1.06066 1.06066 
C -0.77937 1.341951 -0.397805 1.5 0 1.5 
z
" id="m85b56bd007" style="stroke:#6495ed;"/>
    </defs>
    <g>
     <use style="fill:#6495ed;stroke:#6495ed;" x="255.165409" xlink:href="#m85b56bd007" y="159.956262"/>
     <use style="fill:#6495ed;stroke:#6495ed;" x="255.165409" xlink:href="#m85b56bd007" y="159.956262"/>
    </g>
   </g>
   <g id="line2d_39">
    <path d="M 94.563801 294.16 
L 94.563801 293.600818 
L 107.392607 293.600818 
L 107.392607 292.482453 
L 109.514915 292.482453 
L 109.514915 291.923271 
L 112.104369 291.923271 
L 112.104369 290.804907 
L 114.652569 290.804907 
L 114.652569 290.245724 
L 115.797583 290.245724 
L 115.797583 289.686542 
L 119.517573 289.686542 
L 119.517573 289.12736 
L 120.173787 289.12736 
L 120.173787 287.449813 
L 122.573338 287.449813 
L 122.573338 286.890631 
L 123.481954 286.890631 
L 123.481954 286.331449 
L 124.004904 286.331449 
L 124.004904 285.772266 
L 126.404454 285.772266 
L 126.404454 285.213084 
L 127.418943 285.213084 
L 127.418943 284.653902 
L 128.243205 284.653902 
L 128.243205 284.09472 
L 128.771519 284.09472 
L 128.771519 283.535537 
L 132.181293 283.535537 
L 132.181293 282.976355 
L 133.013885 282.976355 
L 133.013885 282.417173 
L 133.514469 282.417173 
L 133.514469 281.298808 
L 134.93419 281.298808 
L 134.93419 280.180444 
L 135.382488 280.180444 
L 135.382488 279.621262 
L 138.079574 279.621262 
L 138.079574 279.062079 
L 138.819725 279.062079 
L 138.819725 278.502897 
L 139.035688 278.502897 
L 139.035688 277.384533 
L 139.529282 277.384533 
L 139.529282 276.825351 
L 140.076542 276.825351 
L 140.143739 274.029439 
L 140.409928 274.029439 
L 140.409928 273.470257 
L 141.497332 273.470257 
L 141.497332 272.911075 
L 141.86525 272.911075 
L 141.86525 272.351893 
L 142.284754 272.351893 
L 142.284754 271.79271 
L 142.46145 271.79271 
L 142.46145 271.233528 
L 142.578245 271.233528 
L 142.578245 270.674346 
L 142.694251 270.674346 
L 142.694251 270.115164 
L 143.03764 270.115164 
L 143.094209 267.319252 
L 143.540178 267.319252 
L 143.540178 266.76007 
L 144.188136 266.76007 
L 144.188136 266.200888 
L 144.503169 266.200888 
L 144.503169 265.082523 
L 145.415004 265.082523 
L 145.513393 263.404977 
L 145.611221 263.404977 
L 145.611221 261.72743 
L 145.853381 261.72743 
L 145.901406 260.609066 
L 146.560017 260.609066 
L 146.560017 260.049883 
L 147.105106 260.049883 
L 147.105106 259.490701 
L 147.891602 259.490701 
L 147.891602 258.931519 
L 148.313462 258.931519 
L 148.313462 258.372337 
L 148.725205 258.372337 
L 148.725205 257.813154 
L 148.846827 257.813154 
L 148.846827 257.253972 
L 149.442337 257.253972 
L 149.442337 256.69479 
L 149.789975 256.69479 
L 149.789975 256.135608 
L 149.942249 256.135608 
L 149.942249 255.576425 
L 150.538191 255.576425 
L 150.538191 255.017243 
L 151.533765 255.017243 
L 151.533765 254.458061 
L 151.739794 254.458061 
L 151.841888 252.221332 
L 155.07925 252.221332 
L 155.07925 251.66215 
L 157.729852 251.66215 
L 157.729852 251.102967 
L 164.667122 251.102967 
L 164.667122 250.543785 
L 165.282898 250.543785 
L 165.282898 249.984603 
L 166.408389 249.984603 
L 166.408389 249.425421 
L 166.639234 249.425421 
L 166.639234 248.866238 
L 167.216984 248.866238 
L 167.216984 248.307056 
L 167.909534 248.307056 
L 167.909534 246.62951 
L 168.081688 246.62951 
L 168.081688 246.070327 
L 168.740866 246.070327 
L 168.740866 245.511145 
L 169.240722 245.511145 
L 169.240722 244.951963 
L 169.976039 244.951963 
L 169.976039 244.392781 
L 170.613068 244.392781 
L 170.613068 243.274416 
L 171.02869 243.274416 
L 171.061952 242.156052 
L 171.423645 242.156052 
L 171.423645 241.037687 
L 172.166542 241.037687 
L 172.166542 240.478505 
L 176.583724 240.478505 
L 176.583724 239.919323 
L 177.191185 239.919323 
L 177.191185 239.36014 
L 178.133729 239.36014 
L 178.133729 238.800958 
L 178.424733 238.800958 
L 178.424733 238.241776 
L 178.589854 238.241776 
L 178.596998 237.123411 
L 178.739242 237.123411 
L 178.831073 236.005047 
L 178.99235 236.005047 
L 179.062001 234.886682 
L 179.5418 234.886682 
L 179.5418 233.768318 
L 179.676458 233.768318 
L 179.676458 233.209136 
L 179.823373 233.209136 
L 179.922826 232.090771 
L 180.159188 232.090771 
L 180.159188 231.531589 
L 180.880647 231.531589 
L 180.880647 230.972407 
L 184.02548 230.972407 
L 184.02548 230.413225 
L 184.699254 230.413225 
L 184.699254 229.854042 
L 185.080415 229.854042 
L 185.139062 228.735678 
L 185.586907 228.735678 
L 185.620148 227.617313 
L 185.714768 227.617313 
L 185.714768 227.058131 
L 185.921116 227.058131 
L 185.921116 226.498949 
L 188.318842 226.498949 
L 188.318842 225.939767 
L 188.508332 225.939767 
L 188.508332 225.380584 
L 188.888997 225.380584 
L 188.888997 224.821402 
L 189.056804 224.821402 
L 189.056804 224.26222 
L 189.625904 224.26222 
L 189.625904 223.703038 
L 189.812727 223.703038 
L 189.812727 223.143855 
L 189.960735 223.143855 
L 190.067249 222.025491 
L 190.129382 222.025491 
L 190.227604 220.347944 
L 192.421049 220.347944 
L 192.421049 219.22958 
L 192.570441 219.22958 
L 192.570441 218.670397 
L 192.696567 218.670397 
L 192.696567 218.111215 
L 193.007887 218.111215 
L 193.007887 217.552033 
L 193.509536 217.552033 
L 193.509536 216.992851 
L 193.726885 216.992851 
L 193.726885 216.433669 
L 194.057995 216.433669 
L 194.057995 215.874486 
L 194.251343 215.874486 
L 194.251343 215.315304 
L 195.069462 215.315304 
L 195.069462 214.756122 
L 195.589565 214.756122 
L 195.589565 214.19694 
L 196.065999 214.19694 
L 196.168961 213.078575 
L 196.347672 213.078575 
L 196.448963 211.960211 
L 198.654214 211.960211 
L 198.749431 210.841846 
L 198.863876 210.841846 
L 198.863876 210.282664 
L 199.029781 210.282664 
L 199.029781 209.723482 
L 199.501187 209.723482 
L 199.501187 209.164299 
L 200.879492 209.164299 
L 200.895089 208.045935 
L 201.324261 208.045935 
L 201.379292 206.92757 
L 202.508408 206.92757 
L 202.508408 206.368388 
L 202.71998 206.368388 
L 202.814343 205.250024 
L 202.854378 205.250024 
L 202.863069 204.131659 
L 203.246276 204.131659 
L 203.246276 203.572477 
L 203.381691 203.572477 
L 203.381691 203.013295 
L 204.372586 203.013295 
L 204.372586 202.454112 
L 204.534154 202.454112 
L 204.534154 201.89493 
L 204.716069 201.89493 
L 204.800101 200.776566 
L 206.27198 200.776566 
L 206.286222 199.099019 
L 206.432232 199.099019 
L 206.516717 197.980655 
L 207.588034 197.980655 
L 207.65389 196.303108 
L 208.560284 196.303108 
L 208.560284 195.743926 
L 208.76112 195.743926 
L 208.76112 195.184743 
L 208.969379 195.184743 
L 208.969379 194.625561 
L 210.193475 194.625561 
L 210.304235 193.507197 
L 210.326751 193.507197 
L 210.326751 192.948014 
L 211.159063 192.948014 
L 211.159063 192.388832 
L 211.545897 192.388832 
L 211.553231 191.270468 
L 212.07729 191.270468 
L 212.07729 190.711285 
L 212.480951 190.711285 
L 212.480951 190.152103 
L 212.603572 190.152103 
L 212.603572 189.592921 
L 213.242842 189.592921 
L 213.242842 189.033739 
L 213.482297 189.033739 
L 213.482297 188.474556 
L 214.456774 188.474556 
L 214.483289 187.356192 
L 215.352893 187.356192 
L 215.388118 185.678645 
L 215.820805 185.678645 
L 215.820805 185.119463 
L 215.977763 185.119463 
L 215.977763 184.560281 
L 216.122866 184.560281 
L 216.122866 184.001099 
L 216.492137 184.001099 
L 216.492137 183.441916 
L 217.870668 183.441916 
L 217.870668 182.882734 
L 218.643307 182.882734 
L 218.643307 182.323552 
L 219.282791 182.323552 
L 219.282791 181.76437 
L 219.510328 181.76437 
L 219.510328 181.205187 
L 220.661655 181.205187 
L 220.661655 180.646005 
L 221.332421 180.646005 
L 221.438767 179.527641 
L 221.943684 179.527641 
L 221.973969 178.409276 
L 222.561537 178.409276 
L 222.561537 177.850094 
L 223.104556 177.850094 
L 223.104556 177.290912 
L 223.403936 177.290912 
L 223.403936 176.731729 
L 225.728069 176.731729 
L 225.728069 176.172547 
L 226.642402 176.172547 
L 226.66935 175.054183 
L 227.788608 175.054183 
L 227.788608 174.495 
L 228.787214 174.495 
L 228.787214 173.935818 
L 230.334633 173.935818 
L 230.334633 173.376636 
L 230.747107 173.376636 
L 230.78884 171.699089 
L 230.86384 171.699089 
L 230.86384 171.139907 
L 232.779577 171.139907 
L 232.832132 170.021543 
L 234.624055 170.021543 
L 234.665813 168.903178 
L 234.919353 168.903178 
L 234.919353 168.343996 
L 235.858789 168.343996 
L 235.858789 167.784814 
L 236.826565 167.784814 
L 236.826565 167.225631 
L 237.034889 167.225631 
L 237.034889 166.666449 
L 237.57254 166.666449 
L 237.57254 166.107267 
L 238.286566 166.107267 
L 238.286566 165.548085 
L 238.666893 165.548085 
L 238.666893 164.988902 
L 239.206772 164.988902 
L 239.206772 164.42972 
L 240.204196 164.42972 
L 240.204196 163.870538 
L 241.153757 163.870538 
L 241.153757 163.311356 
L 243.001022 163.311356 
L 243.001022 162.752173 
L 247.488276 162.752173 
L 247.488276 162.192991 
L 247.723685 162.192991 
L 247.723685 161.633809 
L 249.279359 161.633809 
L 249.279359 161.074627 
L 250.457602 161.074627 
L 250.457602 160.515444 
L 255.165409 160.515444 
L 255.165409 159.956262 
L 333.569032 159.956262 
L 333.569032 159.956262 
" style="fill:none;stroke:#6495ed;stroke-linecap:square;stroke-width:1.5;"/>
   </g>
   <g id="line2d_40">
    <defs>
     <path d="M -0 6 
L 6 -6 
L -6 -6 
z
" id="mabd35d3fa0" style="stroke:#6495ed;stroke-linejoin:miter;stroke-width:1.5;"/>
    </defs>
    <g>
     <use style="fill-opacity:0;stroke:#6495ed;stroke-linejoin:miter;stroke-width:1.5;" x="177.191185" xlink:href="#mabd35d3fa0" y="239.36014"/>
     <use style="fill-opacity:0;stroke:#6495ed;stroke-linejoin:miter;stroke-width:1.5;" x="243.001022" xlink:href="#mabd35d3fa0" y="162.752173"/>
     <use style="fill-opacity:0;stroke:#6495ed;stroke-linejoin:miter;stroke-width:1.5;" x="255.165409" xlink:href="#mabd35d3fa0" y="159.956262"/>
     <use style="fill-opacity:0;stroke:#6495ed;stroke-linejoin:miter;stroke-width:1.5;" x="255.165409" xlink:href="#mabd35d3fa0" y="159.956262"/>
     <use style="fill-opacity:0;stroke:#6495ed;stroke-linejoin:miter;stroke-width:1.5;" x="333.569032" xlink:href="#mabd35d3fa0" y="159.956262"/>
    </g>
   </g>
   <g id="line2d_41">
    <path style="fill:none;stroke:#6495ed;stroke-linecap:square;stroke-width:1.5;"/>
    <g/>
   </g>
   <g id="line2d_42">
    <path clip-path="url(#pefef37f92d)" d="M 164.375293 251.102967 
" style="fill:none;stroke:#6495ed;stroke-linecap:square;stroke-width:1.5;"/>
    <defs>
     <path d="M -12 12 
L 12 -12 
M -12 -12 
L 12 12 
" id="m5d2ad8bdbc" style="stroke:#6495ed;stroke-width:3;"/>
    </defs>
    <g clip-path="url(#pefef37f92d)">
     <use style="fill:#6495ed;stroke:#6495ed;stroke-width:3;" x="164.375293" xlink:href="#m5d2ad8bdbc" y="251.102967"/>
    </g>
   </g>
   <g id="line2d_43">
    <defs>
     <path d="M 0 1.5 
C 0.397805 1.5 0.77937 1.341951 1.06066 1.06066 
C 1.341951 0.77937 1.5 0.397805 1.5 0 
C 1.5 -0.397805 1.341951 -0.77937 1.06066 -1.06066 
C 0.77937 -1.341951 0.397805 -1.5 0 -1.5 
C -0.397805 -1.5 -0.77937 -1.341951 -1.06066 -1.06066 
C -1.341951 -0.77937 -1.5 -0.397805 -1.5 0 
C -1.5 0.397805 -1.341951 0.77937 -1.06066 1.06066 
C -0.77937 1.341951 -0.397805 1.5 0 1.5 
z
" id="m05fabdb63a" style="stroke:#ff0000;"/>
    </defs>
    <g>
     <use style="fill:#ff0000;stroke:#ff0000;" x="251.770601" xlink:href="#m05fabdb63a" y="98.446216"/>
     <use style="fill:#ff0000;stroke:#ff0000;" x="251.770601" xlink:href="#m05fabdb63a" y="98.446216"/>
    </g>
   </g>
   <g id="line2d_44">
    <path d="M 44.939466 294.16 
L 44.939466 272.911075 
L 56.84 272.911075 
L 56.84 263.964159 
L 63.801366 263.964159 
L 63.801366 253.898879 
L 68.740534 253.898879 
L 68.740534 246.070327 
L 72.57165 246.070327 
L 72.57165 243.833598 
L 75.7019 243.833598 
L 75.7019 242.715234 
L 78.348489 242.715234 
L 78.348489 239.919323 
L 80.641068 239.919323 
L 80.641068 238.800958 
L 82.663267 238.800958 
L 82.663267 237.682594 
L 84.472185 237.682594 
L 84.472185 237.123411 
L 86.10855 237.123411 
L 86.10855 235.445865 
L 87.602435 235.445865 
L 87.602435 234.886682 
L 88.976675 234.886682 
L 88.976675 234.3275 
L 90.249023 234.3275 
L 90.249023 232.090771 
L 91.433551 232.090771 
L 91.433551 231.531589 
L 96.372719 231.531589 
L 96.372719 230.972407 
L 97.210389 230.972407 
L 97.210389 229.854042 
L 102.149557 229.854042 
L 102.149557 228.735678 
L 102.752035 228.735678 
L 102.752035 227.058131 
L 106.464335 227.058131 
L 106.464335 226.498949 
L 108.697197 226.498949 
L 108.697197 224.821402 
L 109.514915 224.821402 
L 109.514915 224.26222 
L 109.909618 224.26222 
L 109.909618 223.703038 
L 110.295451 223.703038 
L 110.295451 223.143855 
L 110.672804 223.143855 
L 110.672804 222.584673 
L 112.444358 222.584673 
L 112.444358 222.025491 
L 112.777744 222.025491 
L 112.777744 221.466309 
L 114.946061 221.466309 
L 114.946061 220.907126 
L 115.518408 220.907126 
L 115.518408 220.347944 
L 116.07229 220.347944 
L 116.07229 219.788762 
L 118.364869 219.788762 
L 118.364869 218.670397 
L 118.601685 218.670397 
L 118.601685 218.111215 
L 118.835278 218.111215 
L 118.835278 217.552033 
L 120.387068 217.552033 
L 120.387068 216.992851 
L 120.805841 216.992851 
L 120.805841 216.433669 
L 121.810153 216.433669 
L 121.810153 215.315304 
L 122.385698 215.315304 
L 122.385698 214.756122 
L 123.124257 214.756122 
L 123.124257 214.19694 
L 123.304037 214.19694 
L 123.304037 213.637757 
L 125.166524 213.637757 
L 125.166524 212.519393 
L 126.254507 212.519393 
L 126.254507 211.960211 
L 126.846595 211.960211 
L 126.846595 210.841846 
L 128.108547 210.841846 
L 128.108547 210.282664 
L 128.771519 210.282664 
L 128.771519 209.723482 
L 130.735812 209.723482 
L 130.735812 206.92757 
L 131.418108 206.92757 
L 131.418108 206.368388 
L 132.287602 206.368388 
L 132.287602 205.809206 
L 132.809491 205.809206 
L 132.911992 204.690841 
L 133.315983 204.690841 
L 133.315983 204.131659 
L 133.514469 204.131659 
L 133.514469 203.013295 
L 135.382488 203.013295 
L 135.382488 202.454112 
L 135.991068 202.454112 
L 135.991068 201.335748 
L 136.245426 201.335748 
L 136.245426 198.539837 
L 136.578812 198.539837 
L 136.578812 197.980655 
L 137.067058 197.980655 
L 137.067058 197.421472 
L 137.619667 197.421472 
L 137.619667 196.86229 
L 137.85116 196.86229 
L 137.85116 196.303108 
L 139.248968 196.303108 
L 139.319477 194.625561 
L 139.529282 194.625561 
L 139.529282 194.066379 
L 139.667741 194.066379 
L 139.667741 191.82965 
L 140.009081 191.82965 
L 140.009081 191.270468 
L 140.736964 191.270468 
L 140.80163 189.592921 
L 141.057886 189.592921 
L 141.057886 189.033739 
L 141.310374 189.033739 
L 141.310374 188.474556 
L 142.10622 188.474556 
L 142.10622 187.915374 
L 142.284754 187.915374 
L 142.284754 186.79701 
L 143.03764 186.79701 
L 143.094209 185.678645 
L 143.813139 185.678645 
L 143.813139 184.560281 
L 143.974856 184.560281 
L 144.028425 182.882734 
L 144.346375 182.882734 
L 144.346375 182.323552 
L 145.513393 182.323552 
L 145.513393 181.76437 
L 146.139535 181.76437 
L 146.139535 181.205187 
L 146.467463 181.205187 
L 146.467463 180.646005 
L 147.060337 180.646005 
L 147.060337 180.086823 
L 147.371295 180.086823 
L 147.371295 178.968458 
L 147.934258 178.968458 
L 147.934258 177.850094 
L 150.168158 177.850094 
L 150.168158 176.731729 
L 153.582811 176.731729 
L 153.644019 175.613365 
L 154.125983 175.613365 
L 154.125983 175.054183 
L 154.681279 175.054183 
L 154.681279 173.935818 
L 154.994743 173.935818 
L 154.994743 173.376636 
L 155.163342 173.376636 
L 155.163342 172.817454 
L 156.194325 172.817454 
L 156.194325 172.258271 
L 156.661887 172.258271 
L 156.661887 171.699089 
L 157.753915 171.699089 
L 157.753915 171.139907 
L 158.228223 171.139907 
L 158.228223 170.580725 
L 159.117054 170.580725 
L 159.117054 169.46236 
L 159.271829 169.46236 
L 159.271829 168.903178 
L 159.555618 168.903178 
L 159.555618 168.343996 
L 159.877342 168.343996 
L 159.898577 166.107267 
L 160.276391 166.107267 
L 160.317862 164.988902 
L 163.81015 164.988902 
L 163.81015 163.870538 
L 166.725007 163.870538 
L 166.725007 163.311356 
L 167.31371 163.311356 
L 167.31371 162.752173 
L 167.614207 162.752173 
L 167.614207 162.192991 
L 168.239081 162.192991 
L 168.239081 161.074627 
L 168.562421 161.074627 
L 168.562421 160.515444 
L 169.030059 160.515444 
L 169.030059 159.956262 
L 169.277631 159.956262 
L 169.277631 159.39708 
L 169.521684 159.39708 
L 169.557995 157.719533 
L 169.869511 157.719533 
L 169.869511 157.160351 
L 170.872608 157.160351 
L 170.872608 156.601169 
L 171.073025 156.601169 
L 171.073025 156.041987 
L 171.873229 156.041987 
L 171.873229 155.482804 
L 171.999549 155.482804 
L 172.062362 154.36444 
L 173.856644 154.36444 
L 173.856644 153.805258 
L 174.099647 153.805258 
L 174.118198 152.686893 
L 175.566443 152.686893 
L 175.566443 152.127711 
L 176.446663 152.127711 
L 176.446663 151.568529 
L 176.711731 151.568529 
L 176.711731 151.009346 
L 178.760478 151.009346 
L 178.760478 150.450164 
L 178.9714 150.450164 
L 179.006303 148.772617 
L 179.13137 148.772617 
L 179.234901 147.654253 
L 180.424474 147.654253 
L 180.424474 147.095071 
L 181.300626 147.095071 
L 181.300626 146.535888 
L 181.656876 146.535888 
L 181.656876 145.976706 
L 181.829309 145.976706 
L 181.829309 145.417524 
L 183.050872 145.417524 
L 183.050872 144.858342 
L 184.603886 144.858342 
L 184.603886 144.299159 
L 185.104875 144.299159 
L 185.104875 143.739977 
L 185.299315 143.739977 
L 185.33794 142.06243 
L 186.125013 142.06243 
L 186.207732 140.944066 
L 186.262658 140.944066 
L 186.349266 139.825702 
L 186.637825 139.825702 
L 186.637825 139.266519 
L 186.899611 139.266519 
L 186.965535 138.148155 
L 187.330104 138.148155 
L 187.330104 137.588973 
L 187.501025 137.588973 
L 187.501025 137.02979 
L 189.463594 137.02979 
L 189.539278 134.793061 
L 189.61463 134.793061 
L 189.61463 134.233879 
L 189.897987 134.233879 
L 189.897987 133.674697 
L 191.011123 133.674697 
L 191.011123 133.115515 
L 191.333842 133.115515 
L 191.333842 132.556332 
L 191.576992 132.556332 
L 191.576992 131.99715 
L 192.228427 131.99715 
L 192.228427 131.437968 
L 192.715406 131.437968 
L 192.715406 130.878786 
L 193.035631 130.878786 
L 193.106329 129.201239 
L 193.16757 129.201239 
L 193.274219 127.523692 
L 193.512532 127.523692 
L 193.62302 125.846145 
L 193.768256 125.846145 
L 193.768256 125.286963 
L 194.468059 125.286963 
L 194.468059 124.727781 
L 196.09953 124.727781 
L 196.09953 124.168599 
L 197.209514 124.168599 
L 197.209514 123.609417 
L 197.401668 123.609417 
L 197.401668 123.050234 
L 198.477893 123.050234 
L 198.477893 122.491052 
L 199.367511 122.491052 
L 199.367511 121.93187 
L 199.700815 121.93187 
L 199.700815 121.372688 
L 200.801292 121.372688 
L 200.801292 120.813505 
L 201.1581 120.813505 
L 201.1581 120.254323 
L 201.728119 120.254323 
L 201.839149 119.135959 
L 202.746244 119.135959 
L 202.777708 118.017594 
L 203.541121 118.017594 
L 203.544462 116.89923 
L 204.553063 116.89923 
L 204.655123 114.662501 
L 206.186278 114.662501 
L 206.186278 114.103318 
L 208.283726 114.103318 
L 208.283726 113.544136 
L 208.4853 113.544136 
L 208.4853 112.984954 
L 210.757828 112.984954 
L 210.757828 112.425772 
L 211.08387 112.425772 
L 211.08387 111.866589 
L 211.38692 111.866589 
L 211.38692 111.307407 
L 211.699261 111.307407 
L 211.790419 110.189043 
L 213.568211 110.189043 
L 213.568211 109.629861 
L 215.18246 109.629861 
L 215.18246 109.070678 
L 216.544695 109.070678 
L 216.544695 108.511496 
L 217.047926 108.511496 
L 217.047926 107.952314 
L 218.869162 107.952314 
L 218.896503 106.833949 
L 219.546535 106.833949 
L 219.546535 106.274767 
L 221.313446 106.274767 
L 221.313446 105.715585 
L 221.502259 105.715585 
L 221.502259 105.156403 
L 222.315938 105.156403 
L 222.315938 104.59722 
L 222.914826 104.59722 
L 222.914826 104.038038 
L 226.169649 104.038038 
L 226.169649 103.478856 
L 226.63283 103.478856 
L 226.63283 102.919674 
L 227.051592 102.919674 
L 227.051592 102.360491 
L 233.323686 102.360491 
L 233.323686 101.801309 
L 235.780287 101.801309 
L 235.780287 101.242127 
L 236.034119 101.242127 
L 236.034119 100.682945 
L 238.104132 100.682945 
L 238.104132 100.123762 
L 239.322719 100.123762 
L 239.322719 99.56458 
L 240.894572 99.56458 
L 240.894572 99.005398 
L 251.770601 99.005398 
L 251.770601 98.446216 
L 333.569032 98.446216 
L 333.569032 98.446216 
" style="fill:none;stroke:#ff0000;stroke-linecap:square;stroke-width:1.5;"/>
   </g>
   <g id="line2d_45">
    <defs>
     <path d="M 0 -6 
L -5.196152 -3 
L -5.196152 3 
L -0 6 
L 5.196152 3 
L 5.196152 -3 
z
" id="mab2661504d" style="stroke:#ff0000;stroke-linejoin:miter;stroke-width:1.5;"/>
    </defs>
    <g>
     <use style="fill-opacity:0;stroke:#ff0000;stroke-linejoin:miter;stroke-width:1.5;" x="112.444358" xlink:href="#mab2661504d" y="222.584673"/>
     <use style="fill-opacity:0;stroke:#ff0000;stroke-linejoin:miter;stroke-width:1.5;" x="160.317862" xlink:href="#mab2661504d" y="164.988902"/>
     <use style="fill-opacity:0;stroke:#ff0000;stroke-linejoin:miter;stroke-width:1.5;" x="221.502259" xlink:href="#mab2661504d" y="105.715585"/>
     <use style="fill-opacity:0;stroke:#ff0000;stroke-linejoin:miter;stroke-width:1.5;" x="251.770601" xlink:href="#mab2661504d" y="98.446216"/>
     <use style="fill-opacity:0;stroke:#ff0000;stroke-linejoin:miter;stroke-width:1.5;" x="251.770601" xlink:href="#mab2661504d" y="98.446216"/>
     <use style="fill-opacity:0;stroke:#ff0000;stroke-linejoin:miter;stroke-width:1.5;" x="333.569032" xlink:href="#mab2661504d" y="98.446216"/>
    </g>
   </g>
   <g id="line2d_46">
    <path style="fill:none;stroke:#ff0000;stroke-linecap:square;stroke-width:1.5;"/>
    <g/>
   </g>
   <g id="line2d_47">
    <path clip-path="url(#pefef37f92d)" d="M 164.375293 163.870538 
" style="fill:none;stroke:#ff0000;stroke-linecap:square;stroke-width:1.5;"/>
    <defs>
     <path d="M -12 12 
L 12 -12 
M -12 -12 
L 12 12 
" id="mcd63098b70" style="stroke:#ff0000;stroke-width:3;"/>
    </defs>
    <g clip-path="url(#pefef37f92d)">
     <use style="fill:#ff0000;stroke:#ff0000;stroke-width:3;" x="164.375293" xlink:href="#mcd63098b70" y="163.870538"/>
    </g>
   </g>
   <g id="line2d_48">
    <path d="M 333.569032 204.690841 
L 364.009226 288.456341 
" style="fill:none;stroke:#ff00ff;stroke-linecap:square;stroke-width:1.5;"/>
    <g>
     <use style="fill-opacity:0;stroke:#ff00ff;stroke-linejoin:miter;stroke-width:1.5;" x="333.569032" xlink:href="#m7414e3d68f" y="204.690841"/>
     <use style="fill-opacity:0;stroke:#ff00ff;stroke-linejoin:miter;stroke-width:1.5;" x="364.009226" xlink:href="#m7414e3d68f" y="288.456341"/>
    </g>
   </g>
   <g id="line2d_49">
    <path d="M 333.569032 159.956262 
L 364.009226 220.012435 
" style="fill:none;stroke:#6495ed;stroke-linecap:square;stroke-width:1.5;"/>
    <g>
     <use style="fill-opacity:0;stroke:#6495ed;stroke-linejoin:miter;stroke-width:1.5;" x="333.569032" xlink:href="#mabd35d3fa0" y="159.956262"/>
     <use style="fill-opacity:0;stroke:#6495ed;stroke-linejoin:miter;stroke-width:1.5;" x="364.009226" xlink:href="#mabd35d3fa0" y="220.012435"/>
    </g>
   </g>
   <g id="line2d_50">
    <path d="M 333.569032 137.588973 
L 364.009226 151.568529 
" style="fill:none;stroke:#ffa500;stroke-linecap:square;stroke-width:1.5;"/>
    <g>
     <use style="fill-opacity:0;stroke:#ffa500;stroke-linejoin:bevel;stroke-width:1.5;" x="333.569032" xlink:href="#mb7216c3538" y="137.588973"/>
     <use style="fill-opacity:0;stroke:#ffa500;stroke-linejoin:bevel;stroke-width:1.5;" x="364.009226" xlink:href="#mb7216c3538" y="151.568529"/>
    </g>
   </g>
   <g id="line2d_51">
    <path d="M 333.569032 126.405328 
L 364.009226 83.124622 
" style="fill:none;stroke:#000080;stroke-linecap:square;stroke-width:1.5;"/>
    <g>
     <use style="fill-opacity:0;stroke:#000080;stroke-width:1.5;" x="333.569032" xlink:href="#m9499c7e6fe" y="126.405328"/>
     <use style="fill-opacity:0;stroke:#000080;stroke-width:1.5;" x="364.009226" xlink:href="#m9499c7e6fe" y="83.124622"/>
    </g>
   </g>
   <g id="line2d_52">
    <path d="M 333.569032 98.446216 
L 364.009226 14.680716 
" style="fill:none;stroke:#ff0000;stroke-linecap:square;stroke-width:1.5;"/>
    <g>
     <use style="fill-opacity:0;stroke:#ff0000;stroke-linejoin:miter;stroke-width:1.5;" x="333.569032" xlink:href="#mab2661504d" y="98.446216"/>
     <use style="fill-opacity:0;stroke:#ff0000;stroke-linejoin:miter;stroke-width:1.5;" x="364.009226" xlink:href="#mab2661504d" y="14.680716"/>
    </g>
   </g>
   <g id="line2d_53">
    <path d="M 333.569032 294.16 
L 333.569032 8.977057 
" style="fill:none;stroke:#000000;stroke-linecap:square;stroke-width:1.5;"/>
   </g>
   <g id="patch_3">
    <path d="M 56.84 294.16 
L 56.84 6.125228 
" style="fill:none;stroke:#000000;stroke-linecap:square;stroke-linejoin:miter;stroke-width:0.8;"/>
   </g>
   <g id="patch_4">
    <path d="M 399.984 294.16 
L 399.984 6.125228 
" style="fill:none;stroke:#000000;stroke-linecap:square;stroke-linejoin:miter;stroke-width:0.8;"/>
   </g>
   <g id="patch_5">
    <path d="M 56.84 294.16 
L 399.984 294.16 
" style="fill:none;stroke:#000000;stroke-linecap:square;stroke-linejoin:miter;stroke-width:0.8;"/>
   </g>
   <g id="patch_6">
    <path d="M 56.84 6.125228 
L 399.984 6.125228 
" style="fill:none;stroke:#000000;stroke-linecap:square;stroke-linejoin:miter;stroke-width:0.8;"/>
   </g>
   <g id="text_14">
    <!-- f13 -->
    <defs>
     <path d="M 40.578125 39.3125 
Q 47.65625 37.796875 51.625 33 
Q 55.609375 28.21875 55.609375 21.1875 
Q 55.609375 10.40625 48.1875 4.484375 
Q 40.765625 -1.421875 27.09375 -1.421875 
Q 22.515625 -1.421875 17.65625 -0.515625 
Q 12.796875 0.390625 7.625 2.203125 
L 7.625 11.71875 
Q 11.71875 9.328125 16.59375 8.109375 
Q 21.484375 6.890625 26.8125 6.890625 
Q 36.078125 6.890625 40.9375 10.546875 
Q 45.796875 14.203125 45.796875 21.1875 
Q 45.796875 27.640625 41.28125 31.265625 
Q 36.765625 34.90625 28.71875 34.90625 
L 20.21875 34.90625 
L 20.21875 43.015625 
L 29.109375 43.015625 
Q 36.375 43.015625 40.234375 45.921875 
Q 44.09375 48.828125 44.09375 54.296875 
Q 44.09375 59.90625 40.109375 62.90625 
Q 36.140625 65.921875 28.71875 65.921875 
Q 24.65625 65.921875 20.015625 65.03125 
Q 15.375 64.15625 9.8125 62.3125 
L 9.8125 71.09375 
Q 15.4375 72.65625 20.34375 73.4375 
Q 25.25 74.21875 29.59375 74.21875 
Q 40.828125 74.21875 47.359375 69.109375 
Q 53.90625 64.015625 53.90625 55.328125 
Q 53.90625 49.265625 50.4375 45.09375 
Q 46.96875 40.921875 40.578125 39.3125 
z
" id="DejaVuSans-33"/>
    </defs>
    <g transform="translate(369.543806 293.147279)scale(0.17 -0.17)">
     <use xlink:href="#DejaVuSans-66"/>
     <use x="35.205078" xlink:href="#DejaVuSans-31"/>
     <use x="98.828125" xlink:href="#DejaVuSans-33"/>
    </g>
   </g>
   <g id="text_15">
    <!-- f11 -->
    <g transform="translate(369.543806 224.703372)scale(0.17 -0.17)">
     <use xlink:href="#DejaVuSans-66"/>
     <use x="35.205078" xlink:href="#DejaVuSans-31"/>
     <use x="98.828125" xlink:href="#DejaVuSans-31"/>
    </g>
   </g>
   <g id="text_16">
    <!-- f10 -->
    <g transform="translate(369.543806 156.259466)scale(0.17 -0.17)">
     <use xlink:href="#DejaVuSans-66"/>
     <use x="35.205078" xlink:href="#DejaVuSans-31"/>
     <use x="98.828125" xlink:href="#DejaVuSans-30"/>
    </g>
   </g>
   <g id="text_17">
    <!-- f12 -->
    <g transform="translate(369.543806 87.81556)scale(0.17 -0.17)">
     <use xlink:href="#DejaVuSans-66"/>
     <use x="35.205078" xlink:href="#DejaVuSans-31"/>
     <use x="98.828125" xlink:href="#DejaVuSans-32"/>
    </g>
   </g>
   <g id="text_18">
    <!-- f14 -->
    <g transform="translate(369.543806 19.371654)scale(0.17 -0.17)">
     <use xlink:href="#DejaVuSans-66"/>
     <use x="35.205078" xlink:href="#DejaVuSans-31"/>
     <use x="98.828125" xlink:href="#DejaVuSans-34"/>
    </g>
   </g>
   <g id="text_19">
    <!-- bbob -->
    <defs>
     <path d="M 48.6875 27.296875 
Q 48.6875 37.203125 44.609375 42.84375 
Q 40.53125 48.484375 33.40625 48.484375 
Q 26.265625 48.484375 22.1875 42.84375 
Q 18.109375 37.203125 18.109375 27.296875 
Q 18.109375 17.390625 22.1875 11.75 
Q 26.265625 6.109375 33.40625 6.109375 
Q 40.53125 6.109375 44.609375 11.75 
Q 48.6875 17.390625 48.6875 27.296875 
z
M 18.109375 46.390625 
Q 20.953125 51.265625 25.265625 53.625 
Q 29.59375 56 35.59375 56 
Q 45.5625 56 51.78125 48.09375 
Q 58.015625 40.1875 58.015625 27.296875 
Q 58.015625 14.40625 51.78125 6.484375 
Q 45.5625 -1.421875 35.59375 -1.421875 
Q 29.59375 -1.421875 25.265625 0.953125 
Q 20.953125 3.328125 18.109375 8.203125 
L 18.109375 0 
L 9.078125 0 
L 9.078125 75.984375 
L 18.109375 75.984375 
z
" id="DejaVuSans-62"/>
    </defs>
    <g transform="translate(60.27144 16.755982)scale(0.102 -0.102)">
     <use xlink:href="#DejaVuSans-62"/>
     <use x="63.476562" xlink:href="#DejaVuSans-62"/>
     <use x="126.953125" xlink:href="#DejaVuSans-6f"/>
     <use x="188.134766" xlink:href="#DejaVuSans-62"/>
    </g>
    <!-- Ill-conditioned functions, 2-D -->
    <defs>
     <path d="M 9.8125 72.90625 
L 19.671875 72.90625 
L 19.671875 0 
L 9.8125 0 
z
" id="DejaVuSans-49"/>
     <path d="M 19.671875 64.796875 
L 19.671875 8.109375 
L 31.59375 8.109375 
Q 46.6875 8.109375 53.6875 14.9375 
Q 60.6875 21.78125 60.6875 36.53125 
Q 60.6875 51.171875 53.6875 57.984375 
Q 46.6875 64.796875 31.59375 64.796875 
z
M 9.8125 72.90625 
L 30.078125 72.90625 
Q 51.265625 72.90625 61.171875 64.09375 
Q 71.09375 55.28125 71.09375 36.53125 
Q 71.09375 17.671875 61.125 8.828125 
Q 51.171875 0 30.078125 0 
L 9.8125 0 
z
" id="DejaVuSans-44"/>
    </defs>
    <g transform="translate(60.27144 28.17775)scale(0.102 -0.102)">
     <use xlink:href="#DejaVuSans-49"/>
     <use x="29.492188" xlink:href="#DejaVuSans-6c"/>
     <use x="57.275391" xlink:href="#DejaVuSans-6c"/>
     <use x="85.058594" xlink:href="#DejaVuSans-2d"/>
     <use x="121.142578" xlink:href="#DejaVuSans-63"/>
     <use x="176.123047" xlink:href="#DejaVuSans-6f"/>
     <use x="237.304688" xlink:href="#DejaVuSans-6e"/>
     <use x="300.683594" xlink:href="#DejaVuSans-64"/>
     <use x="364.160156" xlink:href="#DejaVuSans-69"/>
     <use x="391.943359" xlink:href="#DejaVuSans-74"/>
     <use x="431.152344" xlink:href="#DejaVuSans-69"/>
     <use x="458.935547" xlink:href="#DejaVuSans-6f"/>
     <use x="520.117188" xlink:href="#DejaVuSans-6e"/>
     <use x="583.496094" xlink:href="#DejaVuSans-65"/>
     <use x="645.019531" xlink:href="#DejaVuSans-64"/>
     <use x="708.496094" xlink:href="#DejaVuSans-20"/>
     <use x="740.283203" xlink:href="#DejaVuSans-66"/>
     <use x="775.488281" xlink:href="#DejaVuSans-75"/>
     <use x="838.867188" xlink:href="#DejaVuSans-6e"/>
     <use x="902.246094" xlink:href="#DejaVuSans-63"/>
     <use x="957.226562" xlink:href="#DejaVuSans-74"/>
     <use x="996.435547" xlink:href="#DejaVuSans-69"/>
     <use x="1024.21875" xlink:href="#DejaVuSans-6f"/>
     <use x="1085.400391" xlink:href="#DejaVuSans-6e"/>
     <use x="1148.779297" xlink:href="#DejaVuSans-73"/>
     <use x="1200.878906" xlink:href="#DejaVuSans-2c"/>
     <use x="1232.666016" xlink:href="#DejaVuSans-20"/>
     <use x="1264.453125" xlink:href="#DejaVuSans-32"/>
     <use x="1328.076172" xlink:href="#DejaVuSans-2d"/>
     <use x="1364.160156" xlink:href="#DejaVuSans-44"/>
    </g>
    <!-- 51 targets: 100..1e-08 -->
    <defs>
     <path d="M 10.796875 72.90625 
L 49.515625 72.90625 
L 49.515625 64.59375 
L 19.828125 64.59375 
L 19.828125 46.734375 
Q 21.96875 47.46875 24.109375 47.828125 
Q 26.265625 48.1875 28.421875 48.1875 
Q 40.625 48.1875 47.75 41.5 
Q 54.890625 34.8125 54.890625 23.390625 
Q 54.890625 11.625 47.5625 5.09375 
Q 40.234375 -1.421875 26.90625 -1.421875 
Q 22.3125 -1.421875 17.546875 -0.640625 
Q 12.796875 0.140625 7.71875 1.703125 
L 7.71875 11.625 
Q 12.109375 9.234375 16.796875 8.0625 
Q 21.484375 6.890625 26.703125 6.890625 
Q 35.15625 6.890625 40.078125 11.328125 
Q 45.015625 15.765625 45.015625 23.390625 
Q 45.015625 31 40.078125 35.4375 
Q 35.15625 39.890625 26.703125 39.890625 
Q 22.75 39.890625 18.8125 39.015625 
Q 14.890625 38.140625 10.796875 36.28125 
z
" id="DejaVuSans-35"/>
     <path d="M 11.71875 12.40625 
L 22.015625 12.40625 
L 22.015625 0 
L 11.71875 0 
z
M 11.71875 51.703125 
L 22.015625 51.703125 
L 22.015625 39.3125 
L 11.71875 39.3125 
z
" id="DejaVuSans-3a"/>
    </defs>
    <g transform="translate(60.27144 39.599519)scale(0.102 -0.102)">
     <use xlink:href="#DejaVuSans-35"/>
     <use x="63.623047" xlink:href="#DejaVuSans-31"/>
     <use x="127.246094" xlink:href="#DejaVuSans-20"/>
     <use x="159.033203" xlink:href="#DejaVuSans-74"/>
     <use x="198.242188" xlink:href="#DejaVuSans-61"/>
     <use x="259.521484" xlink:href="#DejaVuSans-72"/>
     <use x="300.619141" xlink:href="#DejaVuSans-67"/>
     <use x="364.095703" xlink:href="#DejaVuSans-65"/>
     <use x="425.619141" xlink:href="#DejaVuSans-74"/>
     <use x="464.828125" xlink:href="#DejaVuSans-73"/>
     <use x="516.927734" xlink:href="#DejaVuSans-3a"/>
     <use x="550.619141" xlink:href="#DejaVuSans-20"/>
     <use x="582.40625" xlink:href="#DejaVuSans-31"/>
     <use x="646.029297" xlink:href="#DejaVuSans-30"/>
     <use x="709.652344" xlink:href="#DejaVuSans-30"/>
     <use x="773.275391" xlink:href="#DejaVuSans-2e"/>
     <use x="805.0625" xlink:href="#DejaVuSans-2e"/>
     <use x="836.849609" xlink:href="#DejaVuSans-31"/>
     <use x="900.472656" xlink:href="#DejaVuSans-65"/>
     <use x="961.996094" xlink:href="#DejaVuSans-2d"/>
     <use x="998.080078" xlink:href="#DejaVuSans-30"/>
     <use x="1061.703125" xlink:href="#DejaVuSans-38"/>
    </g>
    <!-- 45 instances -->
    <g transform="translate(60.27144 51.021288)scale(0.102 -0.102)">
     <use xlink:href="#DejaVuSans-34"/>
     <use x="63.623047" xlink:href="#DejaVuSans-35"/>
     <use x="127.246094" xlink:href="#DejaVuSans-20"/>
     <use x="159.033203" xlink:href="#DejaVuSans-69"/>
     <use x="186.816406" xlink:href="#DejaVuSans-6e"/>
     <use x="250.195312" xlink:href="#DejaVuSans-73"/>
     <use x="302.294922" xlink:href="#DejaVuSans-74"/>
     <use x="341.503906" xlink:href="#DejaVuSans-61"/>
     <use x="402.783203" xlink:href="#DejaVuSans-6e"/>
     <use x="466.162109" xlink:href="#DejaVuSans-63"/>
     <use x="521.142578" xlink:href="#DejaVuSans-65"/>
     <use x="582.666016" xlink:href="#DejaVuSans-73"/>
    </g>
   </g>
   <g id="text_20">
    <!-- v2.2.1.10 -->
    <g style="fill:#808080;" transform="translate(204.779188 289.199965)scale(0.1 -0.1)">
     <use xlink:href="#DejaVuSans-76"/>
     <use x="59.179688" xlink:href="#DejaVuSans-32"/>
     <use x="122.802734" xlink:href="#DejaVuSans-2e"/>
     <use x="154.589844" xlink:href="#DejaVuSans-32"/>
     <use x="218.212891" xlink:href="#DejaVuSans-2e"/>
     <use x="250" xlink:href="#DejaVuSans-31"/>
     <use x="313.623047" xlink:href="#DejaVuSans-2e"/>
     <use x="345.410156" xlink:href="#DejaVuSans-31"/>
     <use x="409.033203" xlink:href="#DejaVuSans-30"/>
    </g>
   </g>
  </g>
 </g>
 <defs>
  <clipPath id="pefef37f92d">
   <rect height="288.034772" width="343.144" x="56.84" y="6.125228"/>
  </clipPath>
 </defs>
</svg>
