<?xml version="1.0" encoding="utf-8" standalone="no"?>
<!DOCTYPE svg PUBLIC "-//W3C//DTD SVG 1.1//EN"
  "http://www.w3.org/Graphics/SVG/1.1/DTD/svg11.dtd">
<!-- Created with matplotlib (http://matplotlib.org/) -->
<svg height="345.6pt" version="1.1" viewBox="0 0 460.8 345.6" width="460.8pt" xmlns="http://www.w3.org/2000/svg" xmlns:xlink="http://www.w3.org/1999/xlink">
 <defs>
  <style type="text/css">
*{stroke-linecap:butt;stroke-linejoin:round;}
  </style>
 </defs>
 <g id="figure_1">
  <g id="patch_1">
   <path d="M 0 345.6 
L 460.8 345.6 
L 460.8 0 
L 0 0 
z
" style="fill:#ffffff;"/>
  </g>
  <g id="axes_1">
   <g id="patch_2">
    <path d="M 5.52 291.28 
L 450.672 291.28 
L 450.672 5.52 
L 5.52 5.52 
z
" style="fill:#ffffff;"/>
   </g>
   <g id="matplotlib.axis_1">
    <g id="xtick_1">
     <g id="line2d_1">
      <path clip-path="url(#p1c7f24cdbc)" d="M 5.408753 291.28 
L 5.408753 5.52 
" style="fill:none;stroke:#b0b0b0;stroke-linecap:square;stroke-width:0.8;"/>
     </g>
     <g id="line2d_2">
      <defs>
       <path d="M 0 0 
L 0 3.5 
" id="m3f29e29721" style="stroke:#000000;stroke-width:0.8;"/>
      </defs>
      <g>
       <use style="stroke:#000000;stroke-width:0.8;" x="5.408753" xlink:href="#m3f29e29721" y="291.28"/>
      </g>
     </g>
    </g>
    <g id="xtick_2">
     <g id="line2d_3">
      <path clip-path="url(#p1c7f24cdbc)" d="M 108.382676 291.28 
L 108.382676 5.52 
" style="fill:none;stroke:#b0b0b0;stroke-linecap:square;stroke-width:0.8;"/>
     </g>
     <g id="line2d_4">
      <g>
       <use style="stroke:#000000;stroke-width:0.8;" x="108.382676" xlink:href="#m3f29e29721" y="291.28"/>
      </g>
     </g>
     <g id="text_1">
      <!-- -4 -->
      <defs>
       <path d="M 4.890625 31.390625 
L 31.203125 31.390625 
L 31.203125 23.390625 
L 4.890625 23.390625 
z
" id="DejaVuSans-2d"/>
       <path d="M 37.796875 64.3125 
L 12.890625 25.390625 
L 37.796875 25.390625 
z
M 35.203125 72.90625 
L 47.609375 72.90625 
L 47.609375 25.390625 
L 58.015625 25.390625 
L 58.015625 17.1875 
L 47.609375 17.1875 
L 47.609375 0 
L 37.796875 0 
L 37.796875 17.1875 
L 4.890625 17.1875 
L 4.890625 26.703125 
z
" id="DejaVuSans-34"/>
      </defs>
      <g transform="translate(98.412363 313.476875)scale(0.2 -0.2)">
       <use xlink:href="#DejaVuSans-2d"/>
       <use x="36.083984" xlink:href="#DejaVuSans-34"/>
      </g>
     </g>
    </g>
    <g id="xtick_3">
     <g id="line2d_5">
      <path clip-path="url(#p1c7f24cdbc)" d="M 211.356599 291.28 
L 211.356599 5.52 
" style="fill:none;stroke:#b0b0b0;stroke-linecap:square;stroke-width:0.8;"/>
     </g>
     <g id="line2d_6">
      <g>
       <use style="stroke:#000000;stroke-width:0.8;" x="211.356599" xlink:href="#m3f29e29721" y="291.28"/>
      </g>
     </g>
     <g id="text_2">
      <!-- 0 -->
      <defs>
       <path d="M 31.78125 66.40625 
Q 24.171875 66.40625 20.328125 58.90625 
Q 16.5 51.421875 16.5 36.375 
Q 16.5 21.390625 20.328125 13.890625 
Q 24.171875 6.390625 31.78125 6.390625 
Q 39.453125 6.390625 43.28125 13.890625 
Q 47.125 21.390625 47.125 36.375 
Q 47.125 51.421875 43.28125 58.90625 
Q 39.453125 66.40625 31.78125 66.40625 
z
M 31.78125 74.21875 
Q 44.046875 74.21875 50.515625 64.515625 
Q 56.984375 54.828125 56.984375 36.375 
Q 56.984375 17.96875 50.515625 8.265625 
Q 44.046875 -1.421875 31.78125 -1.421875 
Q 19.53125 -1.421875 13.0625 8.265625 
Q 6.59375 17.96875 6.59375 36.375 
Q 6.59375 54.828125 13.0625 64.515625 
Q 19.53125 74.21875 31.78125 74.21875 
z
" id="DejaVuSans-30"/>
      </defs>
      <g transform="translate(204.994099 313.476875)scale(0.2 -0.2)">
       <use xlink:href="#DejaVuSans-30"/>
      </g>
     </g>
    </g>
    <g id="xtick_4">
     <g id="line2d_7">
      <path clip-path="url(#p1c7f24cdbc)" d="M 314.330522 291.28 
L 314.330522 5.52 
" style="fill:none;stroke:#b0b0b0;stroke-linecap:square;stroke-width:0.8;"/>
     </g>
     <g id="line2d_8">
      <g>
       <use style="stroke:#000000;stroke-width:0.8;" x="314.330522" xlink:href="#m3f29e29721" y="291.28"/>
      </g>
     </g>
     <g id="text_3">
      <!-- 4 -->
      <g transform="translate(307.968022 313.476875)scale(0.2 -0.2)">
       <use xlink:href="#DejaVuSans-34"/>
      </g>
     </g>
    </g>
    <g id="xtick_5">
     <g id="line2d_9">
      <path clip-path="url(#p1c7f24cdbc)" d="M 417.304445 291.28 
L 417.304445 5.52 
" style="fill:none;stroke:#b0b0b0;stroke-linecap:square;stroke-width:0.8;"/>
     </g>
     <g id="line2d_10">
      <g>
       <use style="stroke:#000000;stroke-width:0.8;" x="417.304445" xlink:href="#m3f29e29721" y="291.28"/>
      </g>
     </g>
     <g id="text_4">
      <!-- 8 -->
      <defs>
       <path d="M 31.78125 34.625 
Q 24.75 34.625 20.71875 30.859375 
Q 16.703125 27.09375 16.703125 20.515625 
Q 16.703125 13.921875 20.71875 10.15625 
Q 24.75 6.390625 31.78125 6.390625 
Q 38.8125 6.390625 42.859375 10.171875 
Q 46.921875 13.96875 46.921875 20.515625 
Q 46.921875 27.09375 42.890625 30.859375 
Q 38.875 34.625 31.78125 34.625 
z
M 21.921875 38.8125 
Q 15.578125 40.375 12.03125 44.71875 
Q 8.5 49.078125 8.5 55.328125 
Q 8.5 64.0625 14.71875 69.140625 
Q 20.953125 74.21875 31.78125 74.21875 
Q 42.671875 74.21875 48.875 69.140625 
Q 55.078125 64.0625 55.078125 55.328125 
Q 55.078125 49.078125 51.53125 44.71875 
Q 48 40.375 41.703125 38.8125 
Q 48.828125 37.15625 52.796875 32.3125 
Q 56.78125 27.484375 56.78125 20.515625 
Q 56.78125 9.90625 50.3125 4.234375 
Q 43.84375 -1.421875 31.78125 -1.421875 
Q 19.734375 -1.421875 13.25 4.234375 
Q 6.78125 9.90625 6.78125 20.515625 
Q 6.78125 27.484375 10.78125 32.3125 
Q 14.796875 37.15625 21.921875 38.8125 
z
M 18.3125 54.390625 
Q 18.3125 48.734375 21.84375 45.5625 
Q 25.390625 42.390625 31.78125 42.390625 
Q 38.140625 42.390625 41.71875 45.5625 
Q 45.3125 48.734375 45.3125 54.390625 
Q 45.3125 60.0625 41.71875 63.234375 
Q 38.140625 66.40625 31.78125 66.40625 
Q 25.390625 66.40625 21.84375 63.234375 
Q 18.3125 60.0625 18.3125 54.390625 
z
" id="DejaVuSans-38"/>
      </defs>
      <g transform="translate(410.941945 313.476875)scale(0.2 -0.2)">
       <use xlink:href="#DejaVuSans-38"/>
      </g>
     </g>
    </g>
    <g id="text_5">
     <!-- log10 of Df -->
     <defs>
      <path d="M 9.421875 75.984375 
L 18.40625 75.984375 
L 18.40625 0 
L 9.421875 0 
z
" id="DejaVuSans-6c"/>
      <path d="M 30.609375 48.390625 
Q 23.390625 48.390625 19.1875 42.75 
Q 14.984375 37.109375 14.984375 27.296875 
Q 14.984375 17.484375 19.15625 11.84375 
Q 23.34375 6.203125 30.609375 6.203125 
Q 37.796875 6.203125 41.984375 11.859375 
Q 46.1875 17.53125 46.1875 27.296875 
Q 46.1875 37.015625 41.984375 42.703125 
Q 37.796875 48.390625 30.609375 48.390625 
z
M 30.609375 56 
Q 42.328125 56 49.015625 48.375 
Q 55.71875 40.765625 55.71875 27.296875 
Q 55.71875 13.875 49.015625 6.21875 
Q 42.328125 -1.421875 30.609375 -1.421875 
Q 18.84375 -1.421875 12.171875 6.21875 
Q 5.515625 13.875 5.515625 27.296875 
Q 5.515625 40.765625 12.171875 48.375 
Q 18.84375 56 30.609375 56 
z
" id="DejaVuSans-6f"/>
      <path d="M 45.40625 27.984375 
Q 45.40625 37.75 41.375 43.109375 
Q 37.359375 48.484375 30.078125 48.484375 
Q 22.859375 48.484375 18.828125 43.109375 
Q 14.796875 37.75 14.796875 27.984375 
Q 14.796875 18.265625 18.828125 12.890625 
Q 22.859375 7.515625 30.078125 7.515625 
Q 37.359375 7.515625 41.375 12.890625 
Q 45.40625 18.265625 45.40625 27.984375 
z
M 54.390625 6.78125 
Q 54.390625 -7.171875 48.1875 -13.984375 
Q 42 -20.796875 29.203125 -20.796875 
Q 24.46875 -20.796875 20.265625 -20.09375 
Q 16.0625 -19.390625 12.109375 -17.921875 
L 12.109375 -9.1875 
Q 16.0625 -11.328125 19.921875 -12.34375 
Q 23.78125 -13.375 27.78125 -13.375 
Q 36.625 -13.375 41.015625 -8.765625 
Q 45.40625 -4.15625 45.40625 5.171875 
L 45.40625 9.625 
Q 42.625 4.78125 38.28125 2.390625 
Q 33.9375 0 27.875 0 
Q 17.828125 0 11.671875 7.65625 
Q 5.515625 15.328125 5.515625 27.984375 
Q 5.515625 40.671875 11.671875 48.328125 
Q 17.828125 56 27.875 56 
Q 33.9375 56 38.28125 53.609375 
Q 42.625 51.21875 45.40625 46.390625 
L 45.40625 54.6875 
L 54.390625 54.6875 
z
" id="DejaVuSans-67"/>
      <path d="M 12.40625 8.296875 
L 28.515625 8.296875 
L 28.515625 63.921875 
L 10.984375 60.40625 
L 10.984375 69.390625 
L 28.421875 72.90625 
L 38.28125 72.90625 
L 38.28125 8.296875 
L 54.390625 8.296875 
L 54.390625 0 
L 12.40625 0 
z
" id="DejaVuSans-31"/>
      <path id="DejaVuSans-20"/>
      <path d="M 37.109375 75.984375 
L 37.109375 68.5 
L 28.515625 68.5 
Q 23.6875 68.5 21.796875 66.546875 
Q 19.921875 64.59375 19.921875 59.515625 
L 19.921875 54.6875 
L 34.71875 54.6875 
L 34.71875 47.703125 
L 19.921875 47.703125 
L 19.921875 0 
L 10.890625 0 
L 10.890625 47.703125 
L 2.296875 47.703125 
L 2.296875 54.6875 
L 10.890625 54.6875 
L 10.890625 58.5 
Q 10.890625 67.625 15.140625 71.796875 
Q 19.390625 75.984375 28.609375 75.984375 
z
" id="DejaVuSans-66"/>
      <path d="M 19.671875 64.796875 
L 19.671875 8.109375 
L 31.59375 8.109375 
Q 46.6875 8.109375 53.6875 14.9375 
Q 60.6875 21.78125 60.6875 36.53125 
Q 60.6875 51.171875 53.6875 57.984375 
Q 46.6875 64.796875 31.59375 64.796875 
z
M 9.8125 72.90625 
L 30.078125 72.90625 
Q 51.265625 72.90625 61.171875 64.09375 
Q 71.09375 55.28125 71.09375 36.53125 
Q 71.09375 17.671875 61.125 8.828125 
Q 51.171875 0 30.078125 0 
L 9.8125 0 
z
" id="DejaVuSans-44"/>
     </defs>
     <g transform="translate(172.910063 336.833125)scale(0.2 -0.2)">
      <use xlink:href="#DejaVuSans-6c"/>
      <use x="27.783203" xlink:href="#DejaVuSans-6f"/>
      <use x="88.964844" xlink:href="#DejaVuSans-67"/>
      <use x="152.441406" xlink:href="#DejaVuSans-31"/>
      <use x="216.064453" xlink:href="#DejaVuSans-30"/>
      <use x="279.6875" xlink:href="#DejaVuSans-20"/>
      <use x="311.474609" xlink:href="#DejaVuSans-6f"/>
      <use x="372.65625" xlink:href="#DejaVuSans-66"/>
      <use x="407.861328" xlink:href="#DejaVuSans-20"/>
      <use x="439.648438" xlink:href="#DejaVuSans-44"/>
      <use x="516.650391" xlink:href="#DejaVuSans-66"/>
     </g>
    </g>
   </g>
   <g id="matplotlib.axis_2">
    <g id="ytick_1">
     <g id="line2d_11">
      <path clip-path="url(#p1c7f24cdbc)" d="M 5.52 291.28 
L 450.672 291.28 
" style="fill:none;stroke:#b0b0b0;stroke-linecap:square;stroke-width:0.8;"/>
     </g>
     <g id="line2d_12">
      <defs>
       <path d="M 0 0 
L -3.5 0 
" id="m174145e2e0" style="stroke:#000000;stroke-width:0.8;"/>
      </defs>
      <g>
       <use style="stroke:#000000;stroke-width:0.8;" x="5.52" xlink:href="#m174145e2e0" y="291.28"/>
      </g>
     </g>
    </g>
    <g id="ytick_2">
     <g id="line2d_13">
      <path clip-path="url(#p1c7f24cdbc)" d="M 5.52 234.693861 
L 450.672 234.693861 
" style="fill:none;stroke:#b0b0b0;stroke-linecap:square;stroke-width:0.8;"/>
     </g>
     <g id="line2d_14">
      <g>
       <use style="stroke:#000000;stroke-width:0.8;" x="5.52" xlink:href="#m174145e2e0" y="234.693861"/>
      </g>
     </g>
    </g>
    <g id="ytick_3">
     <g id="line2d_15">
      <path clip-path="url(#p1c7f24cdbc)" d="M 5.52 178.107723 
L 450.672 178.107723 
" style="fill:none;stroke:#b0b0b0;stroke-linecap:square;stroke-width:0.8;"/>
     </g>
     <g id="line2d_16">
      <g>
       <use style="stroke:#000000;stroke-width:0.8;" x="5.52" xlink:href="#m174145e2e0" y="178.107723"/>
      </g>
     </g>
    </g>
    <g id="ytick_4">
     <g id="line2d_17">
      <path clip-path="url(#p1c7f24cdbc)" d="M 5.52 121.521584 
L 450.672 121.521584 
" style="fill:none;stroke:#b0b0b0;stroke-linecap:square;stroke-width:0.8;"/>
     </g>
     <g id="line2d_18">
      <g>
       <use style="stroke:#000000;stroke-width:0.8;" x="5.52" xlink:href="#m174145e2e0" y="121.521584"/>
      </g>
     </g>
    </g>
    <g id="ytick_5">
     <g id="line2d_19">
      <path clip-path="url(#p1c7f24cdbc)" d="M 5.52 64.935446 
L 450.672 64.935446 
" style="fill:none;stroke:#b0b0b0;stroke-linecap:square;stroke-width:0.8;"/>
     </g>
     <g id="line2d_20">
      <g>
       <use style="stroke:#000000;stroke-width:0.8;" x="5.52" xlink:href="#m174145e2e0" y="64.935446"/>
      </g>
     </g>
    </g>
    <g id="ytick_6">
     <g id="line2d_21">
      <path clip-path="url(#p1c7f24cdbc)" d="M 5.52 8.349307 
L 450.672 8.349307 
" style="fill:none;stroke:#b0b0b0;stroke-linecap:square;stroke-width:0.8;"/>
     </g>
     <g id="line2d_22">
      <g>
       <use style="stroke:#000000;stroke-width:0.8;" x="5.52" xlink:href="#m174145e2e0" y="8.349307"/>
      </g>
     </g>
    </g>
   </g>
   <g id="line2d_23">
    <path clip-path="url(#p1c7f24cdbc)" d="M 190.57137 291.28 
L 190.57137 287.507591 
L 192.392426 287.507591 
L 192.392426 283.735182 
L 194.314609 283.735182 
L 194.314609 279.962772 
L 194.425819 279.962772 
L 194.425819 276.190363 
L 195.48542 276.190363 
L 195.48542 272.417954 
L 197.30503 272.417954 
L 197.30503 268.645545 
L 200.464406 268.645545 
L 200.464406 264.873135 
L 201.464231 264.873135 
L 201.464231 261.100726 
L 203.841264 261.100726 
L 203.841264 257.328317 
L 204.826796 257.328317 
L 204.826796 253.555908 
L 206.874089 253.555908 
L 206.874089 249.783498 
L 207.532273 249.783498 
L 207.563107 242.23868 
L 208.332935 242.23868 
L 208.332935 238.466271 
L 211.767536 238.466271 
L 211.767536 234.693861 
L 212.987745 234.693861 
L 212.987745 230.921452 
L 214.461129 230.921452 
L 214.461129 227.149043 
L 216.20769 227.149043 
L 216.20769 223.376634 
L 217.153428 223.376634 
L 217.153428 219.604224 
L 217.303389 219.604224 
L 217.303389 215.831815 
L 218.356353 215.831815 
L 218.356353 212.059406 
L 218.738193 212.059406 
L 218.738193 208.286997 
L 219.184985 208.286997 
L 219.184985 204.514587 
L 220.761776 204.514587 
L 220.761776 200.742178 
L 221.649682 200.742178 
L 221.649682 196.969769 
L 222.406257 196.969769 
L 222.406257 193.19736 
L 222.737102 193.19736 
L 222.819968 185.652541 
L 222.994685 185.652541 
L 222.994685 181.880132 
L 223.170276 181.880132 
L 223.170276 178.107723 
L 224.464179 178.107723 
L 224.464179 174.335314 
L 225.036046 174.335314 
L 225.132743 166.790495 
L 226.798814 166.790495 
L 226.828563 159.245677 
L 227.961422 159.245677 
L 227.961422 155.473267 
L 228.583552 155.473267 
L 228.583552 151.700858 
L 228.985913 151.700858 
L 228.985913 147.928449 
L 229.306644 147.928449 
L 229.306644 144.15604 
L 229.457881 144.15604 
L 229.473928 136.611221 
L 229.662929 136.611221 
L 229.662929 132.838812 
L 229.945925 132.838812 
L 229.945925 129.066403 
L 230.186814 129.066403 
L 230.186814 125.293993 
L 231.299931 125.293993 
L 231.397395 113.976766 
L 231.474462 113.976766 
L 231.56121 102.659538 
L 232.322908 102.659538 
L 232.322908 98.887129 
L 233.909882 98.887129 
L 233.93865 91.34231 
L 234.188438 91.34231 
L 234.188438 87.569901 
L 234.366515 87.569901 
L 234.366515 83.797492 
L 235.54896 83.797492 
L 235.54896 80.025083 
L 236.571762 80.025083 
L 236.599859 72.480264 
L 236.984051 72.480264 
L 236.984051 68.707855 
L 237.308206 68.707855 
L 237.308206 64.935446 
L 237.561212 64.935446 
L 237.561212 61.163036 
L 238.122329 61.163036 
L 238.122329 57.390627 
L 238.257263 57.390627 
L 238.257263 53.618218 
L 238.994984 53.618218 
L 238.994984 49.845809 
L 239.581204 49.845809 
L 239.581204 46.073399 
L 239.985475 46.073399 
L 240.059013 34.756172 
L 241.650327 34.756172 
L 241.650327 30.983762 
L 241.974549 30.983762 
L 241.974549 27.211353 
L 242.728728 27.211353 
L 242.728728 23.438944 
L 242.981942 23.438944 
L 242.981942 19.666535 
L 247.55917 19.666535 
L 247.55917 15.894125 
L 250.06003 15.894125 
L 250.06003 12.121716 
L 256.302278 12.121716 
L 256.302278 8.349307 
L 256.302278 8.349307 
L 450.672 8.349307 
L 450.672 8.349307 
" style="fill:none;stroke:#ff0000;stroke-linecap:square;stroke-width:3;"/>
   </g>
   <g id="line2d_24">
    <path clip-path="url(#p1c7f24cdbc)" d="M 227.856056 291.28 
L 227.856056 287.507591 
L 228.254466 287.507591 
L 228.254466 283.735182 
L 233.49927 283.735182 
L 233.49927 279.962772 
L 233.92528 279.962772 
L 233.92528 276.190363 
L 235.36497 276.190363 
L 235.36497 272.417954 
L 235.92686 272.417954 
L 235.92686 268.645545 
L 237.566119 268.645545 
L 237.566119 264.873135 
L 238.143664 264.873135 
L 238.143664 261.100726 
L 238.48891 261.100726 
L 238.48891 257.328317 
L 238.85729 257.328317 
L 238.85729 253.555908 
L 239.382337 253.555908 
L 239.382337 249.783498 
L 239.959786 249.783498 
L 239.959786 246.011089 
L 240.150205 246.011089 
L 240.150205 242.23868 
L 241.119056 242.23868 
L 241.119056 238.466271 
L 241.529024 238.466271 
L 241.535333 230.921452 
L 242.102509 230.921452 
L 242.102509 227.149043 
L 244.220707 227.149043 
L 244.220707 223.376634 
L 244.461008 223.376634 
L 244.461008 219.604224 
L 245.008925 219.604224 
L 245.065131 212.059406 
L 245.446826 212.059406 
L 245.446826 208.286997 
L 245.564975 208.286997 
L 245.564975 204.514587 
L 245.687399 204.514587 
L 245.687399 200.742178 
L 246.353064 200.742178 
L 246.353064 196.969769 
L 247.546981 196.969769 
L 247.546981 193.19736 
L 247.689007 193.19736 
L 247.689007 189.42495 
L 247.831855 189.42495 
L 247.831855 185.652541 
L 249.007103 185.652541 
L 249.041171 178.107723 
L 250.276796 178.107723 
L 250.340078 170.562904 
L 250.939423 170.562904 
L 250.944788 163.018086 
L 251.887029 163.018086 
L 251.887029 159.245677 
L 253.614893 159.245677 
L 253.614893 155.473267 
L 255.7806 155.473267 
L 255.7806 151.700858 
L 256.401512 151.700858 
L 256.462966 144.15604 
L 256.580147 144.15604 
L 256.580147 140.38363 
L 256.985846 140.38363 
L 256.985846 136.611221 
L 257.507538 136.611221 
L 257.507538 132.838812 
L 257.815098 132.838812 
L 257.815098 129.066403 
L 258.43974 129.066403 
L 258.43974 125.293993 
L 259.59931 125.293993 
L 259.671314 117.749175 
L 259.751412 117.749175 
L 259.751412 113.976766 
L 259.980008 113.976766 
L 259.980008 110.204356 
L 260.355063 110.204356 
L 260.355063 106.431947 
L 260.757692 106.431947 
L 260.757692 102.659538 
L 261.236939 102.659538 
L 261.236939 98.887129 
L 261.461436 98.887129 
L 261.461436 95.114719 
L 262.401773 95.114719 
L 262.401773 91.34231 
L 262.988666 91.34231 
L 262.988666 87.569901 
L 263.448394 87.569901 
L 263.448394 83.797492 
L 263.811657 83.797492 
L 263.811657 80.025083 
L 263.994211 80.025083 
L 263.994211 76.252673 
L 264.477482 76.252673 
L 264.477482 72.480264 
L 264.730687 72.480264 
L 264.730687 68.707855 
L 265.144372 68.707855 
L 265.144372 64.935446 
L 265.808783 64.935446 
L 265.831303 57.390627 
L 266.583937 57.390627 
L 266.583937 53.618218 
L 266.805135 53.618218 
L 266.805135 49.845809 
L 267.071634 49.845809 
L 267.071634 46.073399 
L 268.342198 46.073399 
L 268.342198 42.30099 
L 269.255926 42.30099 
L 269.255926 38.528581 
L 270.729428 38.528581 
L 270.729428 34.756172 
L 272.107096 34.756172 
L 272.107096 30.983762 
L 273.682291 30.983762 
L 273.682291 27.211353 
L 274.593198 27.211353 
L 274.593198 23.438944 
L 275.242583 23.438944 
L 275.242583 19.666535 
L 277.196848 19.666535 
L 277.196848 15.894125 
L 278.063121 15.894125 
L 278.063121 12.121716 
L 282.958956 12.121716 
L 282.958956 8.349307 
L 282.958956 8.349307 
L 450.672 8.349307 
L 450.672 8.349307 
" style="fill:none;stroke:#00bfbf;stroke-linecap:square;stroke-width:1.5;"/>
   </g>
   <g id="line2d_25">
    <path clip-path="url(#p1c7f24cdbc)" d="M 227.856056 291.28 
L 227.856056 287.507591 
L 228.254466 287.507591 
L 228.254466 283.735182 
L 228.998204 283.735182 
L 228.998204 279.962772 
L 233.341521 279.962772 
L 233.341521 276.190363 
L 233.49927 276.190363 
L 233.49927 272.417954 
L 233.92528 272.417954 
L 234.003746 264.873135 
L 235.36497 264.873135 
L 235.36497 261.100726 
L 235.704873 261.100726 
L 235.704873 257.328317 
L 235.92686 257.328317 
L 235.92686 253.555908 
L 236.141184 253.555908 
L 236.141184 249.783498 
L 236.412831 249.783498 
L 236.412831 246.011089 
L 237.235745 246.011089 
L 237.235745 242.23868 
L 237.566119 242.23868 
L 237.566119 238.466271 
L 238.283919 238.466271 
L 238.283919 234.693861 
L 238.48891 234.693861 
L 238.48891 230.921452 
L 238.700803 230.921452 
L 238.70261 223.376634 
L 238.835689 223.376634 
L 238.85729 215.831815 
L 239.271569 215.831815 
L 239.382337 208.286997 
L 239.959786 208.286997 
L 239.959786 204.514587 
L 240.077105 204.514587 
L 240.150205 196.969769 
L 240.450962 196.969769 
L 240.450962 193.19736 
L 241.371354 193.19736 
L 241.371354 189.42495 
L 241.557541 189.42495 
L 241.557541 185.652541 
L 241.67767 185.652541 
L 241.67767 181.880132 
L 241.976878 181.880132 
L 241.976878 178.107723 
L 244.220707 178.107723 
L 244.220707 174.335314 
L 244.461008 174.335314 
L 244.461008 170.562904 
L 245.008925 170.562904 
L 245.065131 163.018086 
L 245.516779 163.018086 
L 245.516779 159.245677 
L 246.462628 159.245677 
L 246.462628 155.473267 
L 247.136673 155.473267 
L 247.136673 151.700858 
L 247.685561 151.700858 
L 247.685561 147.928449 
L 247.872692 147.928449 
L 247.872692 144.15604 
L 248.666238 144.15604 
L 248.666238 140.38363 
L 249.041171 140.38363 
L 249.041171 136.611221 
L 249.709479 136.611221 
L 249.709479 132.838812 
L 250.939423 132.838812 
L 250.939423 129.066403 
L 251.887029 129.066403 
L 251.887029 125.293993 
L 252.821832 125.293993 
L 252.821832 121.521584 
L 253.614893 121.521584 
L 253.614893 117.749175 
L 254.377881 117.749175 
L 254.377881 113.976766 
L 254.53973 113.976766 
L 254.53973 110.204356 
L 254.772498 110.204356 
L 254.772498 106.431947 
L 255.302575 106.431947 
L 255.377674 98.887129 
L 255.591855 98.887129 
L 255.591855 95.114719 
L 256.166402 95.114719 
L 256.166402 91.34231 
L 256.675812 91.34231 
L 256.675812 87.569901 
L 256.985846 87.569901 
L 256.985846 83.797492 
L 257.456137 83.797492 
L 257.456137 80.025083 
L 257.815098 80.025083 
L 257.815098 76.252673 
L 258.357347 76.252673 
L 258.357347 72.480264 
L 258.683984 72.480264 
L 258.683984 68.707855 
L 259.67899 68.707855 
L 259.67899 64.935446 
L 260.757692 64.935446 
L 260.757692 61.163036 
L 261.236939 61.163036 
L 261.236939 57.390627 
L 262.182715 57.390627 
L 262.182715 53.618218 
L 262.412218 53.618218 
L 262.412218 49.845809 
L 263.994211 49.845809 
L 263.994211 46.073399 
L 264.730687 46.073399 
L 264.730687 42.30099 
L 264.914504 42.30099 
L 264.914504 38.528581 
L 265.831303 38.528581 
L 265.831303 34.756172 
L 266.805135 34.756172 
L 266.805135 30.983762 
L 267.237872 30.983762 
L 267.324229 23.438944 
L 267.422 23.438944 
L 267.422 19.666535 
L 268.482677 19.666535 
L 268.482677 15.894125 
L 271.10461 15.894125 
L 271.10461 12.121716 
L 271.216489 12.121716 
L 271.216489 8.349307 
L 271.216489 8.349307 
L 450.672 8.349307 
L 450.672 8.349307 
" style="fill:none;stroke:#bf00bf;stroke-linecap:square;stroke-width:1.5;"/>
   </g>
   <g id="line2d_26">
    <path clip-path="url(#p1c7f24cdbc)" d="M 226.251295 291.28 
L 226.251295 287.507591 
L 227.856056 287.507591 
L 227.856056 283.735182 
L 228.254466 283.735182 
L 228.254466 279.962772 
L 228.998204 279.962772 
L 228.998204 276.190363 
L 230.483518 276.190363 
L 230.483518 272.417954 
L 230.867635 272.417954 
L 230.867635 268.645545 
L 231.479739 268.645545 
L 231.479739 264.873135 
L 232.408169 264.873135 
L 232.408169 261.100726 
L 233.341521 261.100726 
L 233.341521 257.328317 
L 233.492363 257.328317 
L 233.492363 253.555908 
L 233.92528 253.555908 
L 234.003746 246.011089 
L 235.36497 246.011089 
L 235.36497 242.23868 
L 235.704873 242.23868 
L 235.78401 234.693861 
L 235.92686 234.693861 
L 235.92686 230.921452 
L 236.141184 230.921452 
L 236.222693 223.376634 
L 236.412831 223.376634 
L 236.514403 215.831815 
L 237.136412 215.831815 
L 237.235745 208.286997 
L 237.566119 208.286997 
L 237.566119 204.514587 
L 237.925541 204.514587 
L 237.925541 200.742178 
L 238.328951 200.742178 
L 238.328951 196.969769 
L 238.48891 196.969769 
L 238.48891 193.19736 
L 238.736956 193.19736 
L 238.736956 189.42495 
L 238.85729 189.42495 
L 238.85729 185.652541 
L 239.911295 185.652541 
L 239.959786 178.107723 
L 241.371354 178.107723 
L 241.371354 174.335314 
L 241.976878 174.335314 
L 241.976878 170.562904 
L 242.803715 170.562904 
L 242.803715 166.790495 
L 243.147491 166.790495 
L 243.147491 163.018086 
L 243.593517 163.018086 
L 243.593517 159.245677 
L 243.736559 159.245677 
L 243.736559 155.473267 
L 244.364337 155.473267 
L 244.461008 147.928449 
L 244.833319 147.928449 
L 244.833319 144.15604 
L 245.065131 144.15604 
L 245.065131 140.38363 
L 247.101173 140.38363 
L 247.136673 132.838812 
L 247.526391 132.838812 
L 247.536241 125.293993 
L 247.685561 125.293993 
L 247.685561 121.521584 
L 247.872692 121.521584 
L 247.904397 113.976766 
L 248.339581 113.976766 
L 248.339581 110.204356 
L 249.041171 110.204356 
L 249.041171 106.431947 
L 249.709479 106.431947 
L 249.709479 102.659538 
L 250.939423 102.659538 
L 250.939423 98.887129 
L 251.161348 98.887129 
L 251.161348 95.114719 
L 251.34028 95.114719 
L 251.34028 91.34231 
L 251.46746 91.34231 
L 251.46746 87.569901 
L 251.887029 87.569901 
L 251.887029 83.797492 
L 252.615934 83.797492 
L 252.615934 80.025083 
L 253.614893 80.025083 
L 253.614893 76.252673 
L 255.377674 76.252673 
L 255.377674 72.480264 
L 255.591855 72.480264 
L 255.591855 68.707855 
L 256.285299 68.707855 
L 256.285299 64.935446 
L 256.675812 64.935446 
L 256.675812 61.163036 
L 257.123952 61.163036 
L 257.136009 53.618218 
L 257.456137 53.618218 
L 257.456137 49.845809 
L 260.937144 49.845809 
L 260.937144 46.073399 
L 261.608514 46.073399 
L 261.608514 42.30099 
L 262.182715 42.30099 
L 262.206694 34.756172 
L 262.412218 34.756172 
L 262.412218 30.983762 
L 262.739923 30.983762 
L 262.739923 27.211353 
L 264.730687 27.211353 
L 264.730687 23.438944 
L 265.081226 23.438944 
L 265.081226 19.666535 
L 266.665479 19.666535 
L 266.665479 15.894125 
L 268.482677 15.894125 
L 268.49473 8.349307 
L 268.49473 8.349307 
L 450.672 8.349307 
L 450.672 8.349307 
" style="fill:none;stroke:#000000;stroke-linecap:square;stroke-width:1.5;"/>
   </g>
   <g id="line2d_27">
    <path clip-path="url(#p1c7f24cdbc)" d="M 219.594949 291.28 
L 219.594949 287.507591 
L 219.99324 287.507591 
L 219.99324 283.735182 
L 221.98696 283.735182 
L 221.98696 279.962772 
L 222.971934 279.962772 
L 222.971934 276.190363 
L 224.184571 276.190363 
L 224.184571 272.417954 
L 225.259314 272.417954 
L 225.259314 268.645545 
L 226.10406 268.645545 
L 226.10406 264.873135 
L 226.970901 264.873135 
L 226.970901 261.100726 
L 227.856056 261.100726 
L 227.964349 253.555908 
L 228.398141 253.555908 
L 228.398141 249.783498 
L 228.998204 249.783498 
L 228.998204 246.011089 
L 230.082255 246.011089 
L 230.082255 242.23868 
L 230.480084 242.23868 
L 230.483518 234.693861 
L 230.908684 234.693861 
L 230.908684 230.921452 
L 231.248822 230.921452 
L 231.248822 227.149043 
L 232.049192 227.149043 
L 232.049192 223.376634 
L 232.312853 223.376634 
L 232.312853 219.604224 
L 232.567271 219.604224 
L 232.567271 215.831815 
L 232.838729 215.831815 
L 232.838729 212.059406 
L 233.42702 212.059406 
L 233.42702 208.286997 
L 234.338405 208.286997 
L 234.338405 204.514587 
L 234.469273 204.514587 
L 234.469273 200.742178 
L 235.052048 200.742178 
L 235.052048 196.969769 
L 235.329151 196.969769 
L 235.329151 193.19736 
L 235.550775 193.19736 
L 235.573089 185.652541 
L 236.647107 185.652541 
L 236.647107 181.880132 
L 236.887437 181.880132 
L 236.887437 178.107723 
L 237.218066 178.107723 
L 237.218066 174.335314 
L 238.85729 174.335314 
L 238.85729 170.562904 
L 239.355007 170.562904 
L 239.355007 166.790495 
L 240.210639 166.790495 
L 240.268334 159.245677 
L 240.666498 159.245677 
L 240.683057 151.700858 
L 240.951089 151.700858 
L 240.951089 147.928449 
L 241.780084 147.928449 
L 241.79148 140.38363 
L 241.993326 140.38363 
L 242.075958 132.838812 
L 243.150633 132.838812 
L 243.150633 129.066403 
L 243.368509 129.066403 
L 243.368509 125.293993 
L 243.586063 125.293993 
L 243.605111 117.749175 
L 244.120752 117.749175 
L 244.120752 113.976766 
L 245.738476 113.976766 
L 245.738476 110.204356 
L 246.236529 110.204356 
L 246.250339 102.659538 
L 246.715148 102.659538 
L 246.715148 98.887129 
L 246.83583 98.887129 
L 246.83583 95.114719 
L 247.376563 95.114719 
L 247.376563 91.34231 
L 247.695668 91.34231 
L 247.695668 87.569901 
L 248.120223 87.569901 
L 248.165786 80.025083 
L 250.569508 80.025083 
L 250.569508 76.252673 
L 251.120828 76.252673 
L 251.120828 72.480264 
L 251.322137 72.480264 
L 251.360269 64.935446 
L 251.90849 64.935446 
L 251.90849 61.163036 
L 255.947305 61.163036 
L 255.947305 57.390627 
L 256.587663 57.390627 
L 256.587663 53.618218 
L 256.969416 53.618218 
L 256.969416 49.845809 
L 257.222958 49.845809 
L 257.222958 46.073399 
L 257.976423 46.073399 
L 258.033706 38.528581 
L 259.039177 38.528581 
L 259.039177 34.756172 
L 259.195879 34.756172 
L 259.195879 30.983762 
L 260.102195 30.983762 
L 260.102195 27.211353 
L 260.320504 27.211353 
L 260.320504 23.438944 
L 260.490144 23.438944 
L 260.490144 19.666535 
L 261.556825 19.666535 
L 261.556825 15.894125 
L 261.994208 15.894125 
L 261.994208 12.121716 
L 263.497156 12.121716 
L 263.497156 8.349307 
L 263.497156 8.349307 
L 450.672 8.349307 
L 450.672 8.349307 
" style="fill:none;stroke:#00bfbf;stroke-linecap:square;stroke-width:1.5;"/>
   </g>
   <g id="line2d_28">
    <path clip-path="url(#p1c7f24cdbc)" d="M 216.851215 291.28 
L 216.851215 287.507591 
L 217.820341 287.507591 
L 217.820341 283.735182 
L 218.666902 283.735182 
L 218.666902 279.962772 
L 218.938846 279.962772 
L 219.015562 272.417954 
L 219.090134 272.417954 
L 219.090134 268.645545 
L 219.386563 268.645545 
L 219.386563 264.873135 
L 219.99324 264.873135 
L 219.99324 261.100726 
L 221.312102 261.100726 
L 221.312102 257.328317 
L 221.98696 257.328317 
L 221.98696 253.555908 
L 222.23816 253.555908 
L 222.23816 249.783498 
L 222.592678 249.783498 
L 222.592678 246.011089 
L 222.774115 246.011089 
L 222.774115 242.23868 
L 223.766016 242.23868 
L 223.766016 238.466271 
L 223.890392 238.466271 
L 223.890392 234.693861 
L 224.057345 234.693861 
L 224.057345 230.921452 
L 224.923675 230.921452 
L 224.923675 227.149043 
L 225.114738 227.149043 
L 225.114738 223.376634 
L 225.546443 223.376634 
L 225.546443 219.604224 
L 225.906614 219.604224 
L 225.906614 215.831815 
L 226.020524 215.831815 
L 226.129196 204.514587 
L 226.635703 204.514587 
L 226.635703 200.742178 
L 227.738092 200.742178 
L 227.738092 196.969769 
L 228.015797 196.969769 
L 228.015797 193.19736 
L 228.296068 193.19736 
L 228.296068 189.42495 
L 229.825339 189.42495 
L 229.825339 185.652541 
L 230.093443 185.652541 
L 230.093443 181.880132 
L 230.231947 181.880132 
L 230.231947 178.107723 
L 230.537933 178.107723 
L 230.575136 170.562904 
L 230.921252 170.562904 
L 230.921252 166.790495 
L 232.506602 166.790495 
L 232.506602 163.018086 
L 232.957951 163.018086 
L 232.957951 159.245677 
L 233.387248 159.245677 
L 233.387248 155.473267 
L 234.020368 155.473267 
L 234.020368 151.700858 
L 234.368402 151.700858 
L 234.410759 144.15604 
L 234.889726 144.15604 
L 234.889726 140.38363 
L 236.831292 140.38363 
L 236.831292 136.611221 
L 237.20049 136.611221 
L 237.20049 132.838812 
L 237.488801 132.838812 
L 237.488801 129.066403 
L 237.606539 129.066403 
L 237.606539 125.293993 
L 237.775251 125.293993 
L 237.775251 121.521584 
L 239.294717 121.521584 
L 239.294717 117.749175 
L 239.653045 117.749175 
L 239.676428 110.204356 
L 240.468637 110.204356 
L 240.468637 106.431947 
L 240.642518 106.431947 
L 240.642518 102.659538 
L 240.837587 102.659538 
L 240.837587 98.887129 
L 241.120082 98.887129 
L 241.120082 95.114719 
L 241.5705 95.114719 
L 241.5705 91.34231 
L 241.91737 91.34231 
L 241.91737 87.569901 
L 242.223874 87.569901 
L 242.223874 83.797492 
L 243.072853 83.797492 
L 243.072853 80.025083 
L 243.250883 80.025083 
L 243.250883 76.252673 
L 244.128823 76.252673 
L 244.128823 72.480264 
L 246.002655 72.480264 
L 246.002655 68.707855 
L 246.182157 68.707855 
L 246.182157 64.935446 
L 250.201462 64.935446 
L 250.278148 57.390627 
L 250.378901 57.390627 
L 250.378901 53.618218 
L 250.665935 53.618218 
L 250.665935 49.845809 
L 252.358583 49.845809 
L 252.358583 46.073399 
L 252.61943 46.073399 
L 252.648559 38.528581 
L 252.74727 38.528581 
L 252.74727 34.756172 
L 253.524883 34.756172 
L 253.524883 30.983762 
L 254.037376 30.983762 
L 254.037376 27.211353 
L 254.457057 27.211353 
L 254.457057 23.438944 
L 255.485785 23.438944 
L 255.534756 15.894125 
L 258.492472 15.894125 
L 258.492472 12.121716 
L 261.037968 12.121716 
L 261.037968 8.349307 
L 261.037968 8.349307 
L 450.672 8.349307 
L 450.672 8.349307 
" style="fill:none;stroke:#bf00bf;stroke-linecap:square;stroke-width:1.5;"/>
   </g>
   <g id="line2d_29">
    <path clip-path="url(#p1c7f24cdbc)" d="M 191.947921 291.28 
L 191.947921 287.507591 
L 194.314609 287.507591 
L 194.314609 283.735182 
L 194.682724 283.735182 
L 194.682724 279.962772 
L 197.032493 279.962772 
L 197.032493 276.190363 
L 197.790623 276.190363 
L 197.790623 272.417954 
L 200.343025 272.417954 
L 200.343025 268.645545 
L 201.464231 268.645545 
L 201.464231 264.873135 
L 201.903551 264.873135 
L 201.903551 261.100726 
L 206.874089 261.100726 
L 206.874089 257.328317 
L 207.900167 257.328317 
L 208.003054 249.783498 
L 209.360455 249.783498 
L 209.360455 246.011089 
L 210.192176 246.011089 
L 210.192176 242.23868 
L 213.874588 242.23868 
L 213.914093 234.693861 
L 214.466764 234.693861 
L 214.466764 230.921452 
L 217.295136 230.921452 
L 217.30484 223.376634 
L 218.459255 223.376634 
L 218.532155 215.831815 
L 218.57899 215.831815 
L 218.57899 212.059406 
L 218.762355 212.059406 
L 218.762355 208.286997 
L 220.881958 208.286997 
L 220.881958 204.514587 
L 221.777793 204.514587 
L 221.777793 200.742178 
L 221.940111 200.742178 
L 221.940111 196.969769 
L 222.819968 196.969769 
L 222.819968 193.19736 
L 223.178314 193.19736 
L 223.178314 189.42495 
L 223.96093 189.42495 
L 224.000459 181.880132 
L 225.370009 181.880132 
L 225.370009 178.107723 
L 225.858306 178.107723 
L 225.858306 174.335314 
L 228.021161 174.335314 
L 228.021161 170.562904 
L 229.035587 170.562904 
L 229.035587 166.790495 
L 229.246521 166.790495 
L 229.246521 163.018086 
L 229.479813 163.018086 
L 229.479813 159.245677 
L 229.821732 159.245677 
L 229.821732 155.473267 
L 230.097201 155.473267 
L 230.097201 151.700858 
L 230.238191 151.700858 
L 230.238191 147.928449 
L 230.810702 147.928449 
L 230.810702 144.15604 
L 231.19512 144.15604 
L 231.231807 136.611221 
L 231.324778 136.611221 
L 231.324778 132.838812 
L 232.18704 132.838812 
L 232.18704 129.066403 
L 232.564343 129.066403 
L 232.621801 117.749175 
L 232.829016 117.749175 
L 232.829016 113.976766 
L 232.996496 113.976766 
L 232.996496 110.204356 
L 233.160733 110.204356 
L 233.160733 106.431947 
L 233.662303 106.431947 
L 233.662303 102.659538 
L 233.916014 102.659538 
L 233.916014 98.887129 
L 234.479463 98.887129 
L 234.479463 95.114719 
L 236.599859 95.114719 
L 236.599859 91.34231 
L 237.029906 91.34231 
L 237.093395 80.025083 
L 237.273301 80.025083 
L 237.308206 72.480264 
L 238.821909 72.480264 
L 238.821909 68.707855 
L 239.359587 68.707855 
L 239.413634 61.163036 
L 239.595849 61.163036 
L 239.595849 57.390627 
L 240.1746 57.390627 
L 240.1746 53.618218 
L 241.348424 53.618218 
L 241.348424 49.845809 
L 241.674265 49.845809 
L 241.674265 46.073399 
L 243.098524 46.073399 
L 243.098524 42.30099 
L 243.41747 42.30099 
L 243.431105 34.756172 
L 244.46433 34.756172 
L 244.46433 30.983762 
L 244.602749 30.983762 
L 244.602749 27.211353 
L 245.28179 27.211353 
L 245.28179 23.438944 
L 247.124395 23.438944 
L 247.124395 19.666535 
L 248.75371 19.666535 
L 248.75371 15.894125 
L 251.859873 15.894125 
L 251.859873 12.121716 
L 257.917321 12.121716 
L 257.917321 8.349307 
L 257.917321 8.349307 
L 450.672 8.349307 
L 450.672 8.349307 
" style="fill:none;stroke:#000000;stroke-linecap:square;stroke-width:1.5;"/>
   </g>
   <g id="patch_3">
    <path d="M 5.52 291.28 
L 5.52 5.52 
" style="fill:none;stroke:#000000;stroke-linecap:square;stroke-linejoin:miter;stroke-width:0.8;"/>
   </g>
   <g id="patch_4">
    <path d="M 450.672 291.28 
L 450.672 5.52 
" style="fill:none;stroke:#000000;stroke-linecap:square;stroke-linejoin:miter;stroke-width:0.8;"/>
   </g>
   <g id="patch_5">
    <path d="M 5.52 291.28 
L 450.672 291.28 
" style="fill:none;stroke:#000000;stroke-linecap:square;stroke-linejoin:miter;stroke-width:0.8;"/>
   </g>
   <g id="patch_6">
    <path d="M 5.52 5.52 
L 450.672 5.52 
" style="fill:none;stroke:#000000;stroke-linecap:square;stroke-linejoin:miter;stroke-width:0.8;"/>
   </g>
   <g id="text_6">
    <!-- {f15-f19}, 5-D -->
    <defs>
     <path d="M 51.125 -9.28125 
L 51.125 -16.3125 
L 48.09375 -16.3125 
Q 35.9375 -16.3125 31.8125 -12.6875 
Q 27.6875 -9.078125 27.6875 1.703125 
L 27.6875 13.375 
Q 27.6875 20.75 25.046875 23.578125 
Q 22.40625 26.421875 15.484375 26.421875 
L 12.5 26.421875 
L 12.5 33.40625 
L 15.484375 33.40625 
Q 22.46875 33.40625 25.078125 36.203125 
Q 27.6875 39.015625 27.6875 46.296875 
L 27.6875 58.015625 
Q 27.6875 68.796875 31.8125 72.390625 
Q 35.9375 75.984375 48.09375 75.984375 
L 51.125 75.984375 
L 51.125 69 
L 47.796875 69 
Q 40.921875 69 38.8125 66.84375 
Q 36.71875 64.703125 36.71875 57.8125 
L 36.71875 45.703125 
Q 36.71875 38.03125 34.5 34.5625 
Q 32.28125 31.109375 26.90625 29.890625 
Q 32.328125 28.5625 34.515625 25.09375 
Q 36.71875 21.625 36.71875 14.015625 
L 36.71875 1.90625 
Q 36.71875 -4.984375 38.8125 -7.125 
Q 40.921875 -9.28125 47.796875 -9.28125 
z
" id="DejaVuSans-7b"/>
     <path d="M 10.796875 72.90625 
L 49.515625 72.90625 
L 49.515625 64.59375 
L 19.828125 64.59375 
L 19.828125 46.734375 
Q 21.96875 47.46875 24.109375 47.828125 
Q 26.265625 48.1875 28.421875 48.1875 
Q 40.625 48.1875 47.75 41.5 
Q 54.890625 34.8125 54.890625 23.390625 
Q 54.890625 11.625 47.5625 5.09375 
Q 40.234375 -1.421875 26.90625 -1.421875 
Q 22.3125 -1.421875 17.546875 -0.640625 
Q 12.796875 0.140625 7.71875 1.703125 
L 7.71875 11.625 
Q 12.109375 9.234375 16.796875 8.0625 
Q 21.484375 6.890625 26.703125 6.890625 
Q 35.15625 6.890625 40.078125 11.328125 
Q 45.015625 15.765625 45.015625 23.390625 
Q 45.015625 31 40.078125 35.4375 
Q 35.15625 39.890625 26.703125 39.890625 
Q 22.75 39.890625 18.8125 39.015625 
Q 14.890625 38.140625 10.796875 36.28125 
z
" id="DejaVuSans-35"/>
     <path d="M 10.984375 1.515625 
L 10.984375 10.5 
Q 14.703125 8.734375 18.5 7.8125 
Q 22.3125 6.890625 25.984375 6.890625 
Q 35.75 6.890625 40.890625 13.453125 
Q 46.046875 20.015625 46.78125 33.40625 
Q 43.953125 29.203125 39.59375 26.953125 
Q 35.25 24.703125 29.984375 24.703125 
Q 19.046875 24.703125 12.671875 31.3125 
Q 6.296875 37.9375 6.296875 49.421875 
Q 6.296875 60.640625 12.9375 67.421875 
Q 19.578125 74.21875 30.609375 74.21875 
Q 43.265625 74.21875 49.921875 64.515625 
Q 56.59375 54.828125 56.59375 36.375 
Q 56.59375 19.140625 48.40625 8.859375 
Q 40.234375 -1.421875 26.421875 -1.421875 
Q 22.703125 -1.421875 18.890625 -0.6875 
Q 15.09375 0.046875 10.984375 1.515625 
z
M 30.609375 32.421875 
Q 37.25 32.421875 41.125 36.953125 
Q 45.015625 41.5 45.015625 49.421875 
Q 45.015625 57.28125 41.125 61.84375 
Q 37.25 66.40625 30.609375 66.40625 
Q 23.96875 66.40625 20.09375 61.84375 
Q 16.21875 57.28125 16.21875 49.421875 
Q 16.21875 41.5 20.09375 36.953125 
Q 23.96875 32.421875 30.609375 32.421875 
z
" id="DejaVuSans-39"/>
     <path d="M 12.5 -9.28125 
L 15.921875 -9.28125 
Q 22.75 -9.28125 24.828125 -7.171875 
Q 26.90625 -5.078125 26.90625 1.90625 
L 26.90625 14.015625 
Q 26.90625 21.625 29.09375 25.09375 
Q 31.296875 28.5625 36.71875 29.890625 
Q 31.296875 31.109375 29.09375 34.5625 
Q 26.90625 38.03125 26.90625 45.703125 
L 26.90625 57.8125 
Q 26.90625 64.75 24.828125 66.875 
Q 22.75 69 15.921875 69 
L 12.5 69 
L 12.5 75.984375 
L 15.578125 75.984375 
Q 27.734375 75.984375 31.8125 72.390625 
Q 35.890625 68.796875 35.890625 58.015625 
L 35.890625 46.296875 
Q 35.890625 39.015625 38.515625 36.203125 
Q 41.15625 33.40625 48.09375 33.40625 
L 51.125 33.40625 
L 51.125 26.421875 
L 48.09375 26.421875 
Q 41.15625 26.421875 38.515625 23.578125 
Q 35.890625 20.75 35.890625 13.375 
L 35.890625 1.703125 
Q 35.890625 -9.078125 31.8125 -12.6875 
Q 27.734375 -16.3125 15.578125 -16.3125 
L 12.5 -16.3125 
z
" id="DejaVuSans-7d"/>
     <path d="M 11.71875 12.40625 
L 22.015625 12.40625 
L 22.015625 4 
L 14.015625 -11.625 
L 7.71875 -11.625 
L 11.71875 4 
z
" id="DejaVuSans-2c"/>
    </defs>
    <g transform="translate(296.06896 285.5648)scale(0.2 -0.2)">
     <use xlink:href="#DejaVuSans-7b"/>
     <use x="63.623047" xlink:href="#DejaVuSans-66"/>
     <use x="98.828125" xlink:href="#DejaVuSans-31"/>
     <use x="162.451172" xlink:href="#DejaVuSans-35"/>
     <use x="226.074219" xlink:href="#DejaVuSans-2d"/>
     <use x="262.158203" xlink:href="#DejaVuSans-66"/>
     <use x="297.363281" xlink:href="#DejaVuSans-31"/>
     <use x="360.986328" xlink:href="#DejaVuSans-39"/>
     <use x="424.609375" xlink:href="#DejaVuSans-7d"/>
     <use x="488.232422" xlink:href="#DejaVuSans-2c"/>
     <use x="520.019531" xlink:href="#DejaVuSans-20"/>
     <use x="551.806641" xlink:href="#DejaVuSans-35"/>
     <use x="615.429688" xlink:href="#DejaVuSans-2d"/>
     <use x="651.513672" xlink:href="#DejaVuSans-44"/>
    </g>
   </g>
   <g id="text_7">
    <!-- v2.2.1.10 -->
    <defs>
     <path d="M 2.984375 54.6875 
L 12.5 54.6875 
L 29.59375 8.796875 
L 46.6875 54.6875 
L 56.203125 54.6875 
L 35.6875 0 
L 23.484375 0 
z
" id="DejaVuSans-76"/>
     <path d="M 19.1875 8.296875 
L 53.609375 8.296875 
L 53.609375 0 
L 7.328125 0 
L 7.328125 8.296875 
Q 12.9375 14.109375 22.625 23.890625 
Q 32.328125 33.6875 34.8125 36.53125 
Q 39.546875 41.84375 41.421875 45.53125 
Q 43.3125 49.21875 43.3125 52.78125 
Q 43.3125 58.59375 39.234375 62.25 
Q 35.15625 65.921875 28.609375 65.921875 
Q 23.96875 65.921875 18.8125 64.3125 
Q 13.671875 62.703125 7.8125 59.421875 
L 7.8125 69.390625 
Q 13.765625 71.78125 18.9375 73 
Q 24.125 74.21875 28.421875 74.21875 
Q 39.75 74.21875 46.484375 68.546875 
Q 53.21875 62.890625 53.21875 53.421875 
Q 53.21875 48.921875 51.53125 44.890625 
Q 49.859375 40.875 45.40625 35.40625 
Q 44.1875 33.984375 37.640625 27.21875 
Q 31.109375 20.453125 19.1875 8.296875 
z
" id="DejaVuSans-32"/>
     <path d="M 10.6875 12.40625 
L 21 12.40625 
L 21 0 
L 10.6875 0 
z
" id="DejaVuSans-2e"/>
    </defs>
    <g style="fill:#808080;" transform="translate(204.463188 286.342713)scale(0.1 -0.1)">
     <use xlink:href="#DejaVuSans-76"/>
     <use x="59.179688" xlink:href="#DejaVuSans-32"/>
     <use x="122.802734" xlink:href="#DejaVuSans-2e"/>
     <use x="154.589844" xlink:href="#DejaVuSans-32"/>
     <use x="218.212891" xlink:href="#DejaVuSans-2e"/>
     <use x="250" xlink:href="#DejaVuSans-31"/>
     <use x="313.623047" xlink:href="#DejaVuSans-2e"/>
     <use x="345.410156" xlink:href="#DejaVuSans-31"/>
     <use x="409.033203" xlink:href="#DejaVuSans-30"/>
    </g>
   </g>
  </g>
 </g>
 <defs>
  <clipPath id="p1c7f24cdbc">
   <rect height="285.76" width="445.152" x="5.52" y="5.52"/>
  </clipPath>
 </defs>
</svg>
