<?xml version="1.0" encoding="utf-8" standalone="no"?>
<!DOCTYPE svg PUBLIC "-//W3C//DTD SVG 1.1//EN"
  "http://www.w3.org/Graphics/SVG/1.1/DTD/svg11.dtd">
<!-- Created with matplotlib (http://matplotlib.org/) -->
<svg height="345.6pt" version="1.1" viewBox="0 0 460.8 345.6" width="460.8pt" xmlns="http://www.w3.org/2000/svg" xmlns:xlink="http://www.w3.org/1999/xlink">
 <defs>
  <style type="text/css">
*{stroke-linecap:butt;stroke-linejoin:round;}
  </style>
 </defs>
 <g id="figure_1">
  <g id="patch_1">
   <path d="M 0 345.6 
L 460.8 345.6 
L 460.8 0 
L 0 0 
z
" style="fill:#ffffff;"/>
  </g>
  <g id="axes_1">
   <g id="patch_2">
    <path d="M 5.52 291.28 
L 450.672 291.28 
L 450.672 5.52 
L 5.52 5.52 
z
" style="fill:#ffffff;"/>
   </g>
   <g id="matplotlib.axis_1">
    <g id="xtick_1">
     <g id="line2d_1">
      <path clip-path="url(#p7f5d50fd24)" d="M 5.408753 291.28 
L 5.408753 5.52 
" style="fill:none;stroke:#b0b0b0;stroke-linecap:square;stroke-width:0.8;"/>
     </g>
     <g id="line2d_2">
      <defs>
       <path d="M 0 0 
L 0 3.5 
" id="m23c9f55c8c" style="stroke:#000000;stroke-width:0.8;"/>
      </defs>
      <g>
       <use style="stroke:#000000;stroke-width:0.8;" x="5.408753" xlink:href="#m23c9f55c8c" y="291.28"/>
      </g>
     </g>
    </g>
    <g id="xtick_2">
     <g id="line2d_3">
      <path clip-path="url(#p7f5d50fd24)" d="M 108.382676 291.28 
L 108.382676 5.52 
" style="fill:none;stroke:#b0b0b0;stroke-linecap:square;stroke-width:0.8;"/>
     </g>
     <g id="line2d_4">
      <g>
       <use style="stroke:#000000;stroke-width:0.8;" x="108.382676" xlink:href="#m23c9f55c8c" y="291.28"/>
      </g>
     </g>
     <g id="text_1">
      <!-- -4 -->
      <defs>
       <path d="M 4.890625 31.390625 
L 31.203125 31.390625 
L 31.203125 23.390625 
L 4.890625 23.390625 
z
" id="DejaVuSans-2d"/>
       <path d="M 37.796875 64.3125 
L 12.890625 25.390625 
L 37.796875 25.390625 
z
M 35.203125 72.90625 
L 47.609375 72.90625 
L 47.609375 25.390625 
L 58.015625 25.390625 
L 58.015625 17.1875 
L 47.609375 17.1875 
L 47.609375 0 
L 37.796875 0 
L 37.796875 17.1875 
L 4.890625 17.1875 
L 4.890625 26.703125 
z
" id="DejaVuSans-34"/>
      </defs>
      <g transform="translate(98.412363 313.476875)scale(0.2 -0.2)">
       <use xlink:href="#DejaVuSans-2d"/>
       <use x="36.083984" xlink:href="#DejaVuSans-34"/>
      </g>
     </g>
    </g>
    <g id="xtick_3">
     <g id="line2d_5">
      <path clip-path="url(#p7f5d50fd24)" d="M 211.356599 291.28 
L 211.356599 5.52 
" style="fill:none;stroke:#b0b0b0;stroke-linecap:square;stroke-width:0.8;"/>
     </g>
     <g id="line2d_6">
      <g>
       <use style="stroke:#000000;stroke-width:0.8;" x="211.356599" xlink:href="#m23c9f55c8c" y="291.28"/>
      </g>
     </g>
     <g id="text_2">
      <!-- 0 -->
      <defs>
       <path d="M 31.78125 66.40625 
Q 24.171875 66.40625 20.328125 58.90625 
Q 16.5 51.421875 16.5 36.375 
Q 16.5 21.390625 20.328125 13.890625 
Q 24.171875 6.390625 31.78125 6.390625 
Q 39.453125 6.390625 43.28125 13.890625 
Q 47.125 21.390625 47.125 36.375 
Q 47.125 51.421875 43.28125 58.90625 
Q 39.453125 66.40625 31.78125 66.40625 
z
M 31.78125 74.21875 
Q 44.046875 74.21875 50.515625 64.515625 
Q 56.984375 54.828125 56.984375 36.375 
Q 56.984375 17.96875 50.515625 8.265625 
Q 44.046875 -1.421875 31.78125 -1.421875 
Q 19.53125 -1.421875 13.0625 8.265625 
Q 6.59375 17.96875 6.59375 36.375 
Q 6.59375 54.828125 13.0625 64.515625 
Q 19.53125 74.21875 31.78125 74.21875 
z
" id="DejaVuSans-30"/>
      </defs>
      <g transform="translate(204.994099 313.476875)scale(0.2 -0.2)">
       <use xlink:href="#DejaVuSans-30"/>
      </g>
     </g>
    </g>
    <g id="xtick_4">
     <g id="line2d_7">
      <path clip-path="url(#p7f5d50fd24)" d="M 314.330522 291.28 
L 314.330522 5.52 
" style="fill:none;stroke:#b0b0b0;stroke-linecap:square;stroke-width:0.8;"/>
     </g>
     <g id="line2d_8">
      <g>
       <use style="stroke:#000000;stroke-width:0.8;" x="314.330522" xlink:href="#m23c9f55c8c" y="291.28"/>
      </g>
     </g>
     <g id="text_3">
      <!-- 4 -->
      <g transform="translate(307.968022 313.476875)scale(0.2 -0.2)">
       <use xlink:href="#DejaVuSans-34"/>
      </g>
     </g>
    </g>
    <g id="xtick_5">
     <g id="line2d_9">
      <path clip-path="url(#p7f5d50fd24)" d="M 417.304445 291.28 
L 417.304445 5.52 
" style="fill:none;stroke:#b0b0b0;stroke-linecap:square;stroke-width:0.8;"/>
     </g>
     <g id="line2d_10">
      <g>
       <use style="stroke:#000000;stroke-width:0.8;" x="417.304445" xlink:href="#m23c9f55c8c" y="291.28"/>
      </g>
     </g>
     <g id="text_4">
      <!-- 8 -->
      <defs>
       <path d="M 31.78125 34.625 
Q 24.75 34.625 20.71875 30.859375 
Q 16.703125 27.09375 16.703125 20.515625 
Q 16.703125 13.921875 20.71875 10.15625 
Q 24.75 6.390625 31.78125 6.390625 
Q 38.8125 6.390625 42.859375 10.171875 
Q 46.921875 13.96875 46.921875 20.515625 
Q 46.921875 27.09375 42.890625 30.859375 
Q 38.875 34.625 31.78125 34.625 
z
M 21.921875 38.8125 
Q 15.578125 40.375 12.03125 44.71875 
Q 8.5 49.078125 8.5 55.328125 
Q 8.5 64.0625 14.71875 69.140625 
Q 20.953125 74.21875 31.78125 74.21875 
Q 42.671875 74.21875 48.875 69.140625 
Q 55.078125 64.0625 55.078125 55.328125 
Q 55.078125 49.078125 51.53125 44.71875 
Q 48 40.375 41.703125 38.8125 
Q 48.828125 37.15625 52.796875 32.3125 
Q 56.78125 27.484375 56.78125 20.515625 
Q 56.78125 9.90625 50.3125 4.234375 
Q 43.84375 -1.421875 31.78125 -1.421875 
Q 19.734375 -1.421875 13.25 4.234375 
Q 6.78125 9.90625 6.78125 20.515625 
Q 6.78125 27.484375 10.78125 32.3125 
Q 14.796875 37.15625 21.921875 38.8125 
z
M 18.3125 54.390625 
Q 18.3125 48.734375 21.84375 45.5625 
Q 25.390625 42.390625 31.78125 42.390625 
Q 38.140625 42.390625 41.71875 45.5625 
Q 45.3125 48.734375 45.3125 54.390625 
Q 45.3125 60.0625 41.71875 63.234375 
Q 38.140625 66.40625 31.78125 66.40625 
Q 25.390625 66.40625 21.84375 63.234375 
Q 18.3125 60.0625 18.3125 54.390625 
z
" id="DejaVuSans-38"/>
      </defs>
      <g transform="translate(410.941945 313.476875)scale(0.2 -0.2)">
       <use xlink:href="#DejaVuSans-38"/>
      </g>
     </g>
    </g>
    <g id="text_5">
     <!-- log10 of Df -->
     <defs>
      <path d="M 9.421875 75.984375 
L 18.40625 75.984375 
L 18.40625 0 
L 9.421875 0 
z
" id="DejaVuSans-6c"/>
      <path d="M 30.609375 48.390625 
Q 23.390625 48.390625 19.1875 42.75 
Q 14.984375 37.109375 14.984375 27.296875 
Q 14.984375 17.484375 19.15625 11.84375 
Q 23.34375 6.203125 30.609375 6.203125 
Q 37.796875 6.203125 41.984375 11.859375 
Q 46.1875 17.53125 46.1875 27.296875 
Q 46.1875 37.015625 41.984375 42.703125 
Q 37.796875 48.390625 30.609375 48.390625 
z
M 30.609375 56 
Q 42.328125 56 49.015625 48.375 
Q 55.71875 40.765625 55.71875 27.296875 
Q 55.71875 13.875 49.015625 6.21875 
Q 42.328125 -1.421875 30.609375 -1.421875 
Q 18.84375 -1.421875 12.171875 6.21875 
Q 5.515625 13.875 5.515625 27.296875 
Q 5.515625 40.765625 12.171875 48.375 
Q 18.84375 56 30.609375 56 
z
" id="DejaVuSans-6f"/>
      <path d="M 45.40625 27.984375 
Q 45.40625 37.75 41.375 43.109375 
Q 37.359375 48.484375 30.078125 48.484375 
Q 22.859375 48.484375 18.828125 43.109375 
Q 14.796875 37.75 14.796875 27.984375 
Q 14.796875 18.265625 18.828125 12.890625 
Q 22.859375 7.515625 30.078125 7.515625 
Q 37.359375 7.515625 41.375 12.890625 
Q 45.40625 18.265625 45.40625 27.984375 
z
M 54.390625 6.78125 
Q 54.390625 -7.171875 48.1875 -13.984375 
Q 42 -20.796875 29.203125 -20.796875 
Q 24.46875 -20.796875 20.265625 -20.09375 
Q 16.0625 -19.390625 12.109375 -17.921875 
L 12.109375 -9.1875 
Q 16.0625 -11.328125 19.921875 -12.34375 
Q 23.78125 -13.375 27.78125 -13.375 
Q 36.625 -13.375 41.015625 -8.765625 
Q 45.40625 -4.15625 45.40625 5.171875 
L 45.40625 9.625 
Q 42.625 4.78125 38.28125 2.390625 
Q 33.9375 0 27.875 0 
Q 17.828125 0 11.671875 7.65625 
Q 5.515625 15.328125 5.515625 27.984375 
Q 5.515625 40.671875 11.671875 48.328125 
Q 17.828125 56 27.875 56 
Q 33.9375 56 38.28125 53.609375 
Q 42.625 51.21875 45.40625 46.390625 
L 45.40625 54.6875 
L 54.390625 54.6875 
z
" id="DejaVuSans-67"/>
      <path d="M 12.40625 8.296875 
L 28.515625 8.296875 
L 28.515625 63.921875 
L 10.984375 60.40625 
L 10.984375 69.390625 
L 28.421875 72.90625 
L 38.28125 72.90625 
L 38.28125 8.296875 
L 54.390625 8.296875 
L 54.390625 0 
L 12.40625 0 
z
" id="DejaVuSans-31"/>
      <path id="DejaVuSans-20"/>
      <path d="M 37.109375 75.984375 
L 37.109375 68.5 
L 28.515625 68.5 
Q 23.6875 68.5 21.796875 66.546875 
Q 19.921875 64.59375 19.921875 59.515625 
L 19.921875 54.6875 
L 34.71875 54.6875 
L 34.71875 47.703125 
L 19.921875 47.703125 
L 19.921875 0 
L 10.890625 0 
L 10.890625 47.703125 
L 2.296875 47.703125 
L 2.296875 54.6875 
L 10.890625 54.6875 
L 10.890625 58.5 
Q 10.890625 67.625 15.140625 71.796875 
Q 19.390625 75.984375 28.609375 75.984375 
z
" id="DejaVuSans-66"/>
      <path d="M 19.671875 64.796875 
L 19.671875 8.109375 
L 31.59375 8.109375 
Q 46.6875 8.109375 53.6875 14.9375 
Q 60.6875 21.78125 60.6875 36.53125 
Q 60.6875 51.171875 53.6875 57.984375 
Q 46.6875 64.796875 31.59375 64.796875 
z
M 9.8125 72.90625 
L 30.078125 72.90625 
Q 51.265625 72.90625 61.171875 64.09375 
Q 71.09375 55.28125 71.09375 36.53125 
Q 71.09375 17.671875 61.125 8.828125 
Q 51.171875 0 30.078125 0 
L 9.8125 0 
z
" id="DejaVuSans-44"/>
     </defs>
     <g transform="translate(172.910063 336.833125)scale(0.2 -0.2)">
      <use xlink:href="#DejaVuSans-6c"/>
      <use x="27.783203" xlink:href="#DejaVuSans-6f"/>
      <use x="88.964844" xlink:href="#DejaVuSans-67"/>
      <use x="152.441406" xlink:href="#DejaVuSans-31"/>
      <use x="216.064453" xlink:href="#DejaVuSans-30"/>
      <use x="279.6875" xlink:href="#DejaVuSans-20"/>
      <use x="311.474609" xlink:href="#DejaVuSans-6f"/>
      <use x="372.65625" xlink:href="#DejaVuSans-66"/>
      <use x="407.861328" xlink:href="#DejaVuSans-20"/>
      <use x="439.648438" xlink:href="#DejaVuSans-44"/>
      <use x="516.650391" xlink:href="#DejaVuSans-66"/>
     </g>
    </g>
   </g>
   <g id="matplotlib.axis_2">
    <g id="ytick_1">
     <g id="line2d_11">
      <path clip-path="url(#p7f5d50fd24)" d="M 5.52 291.28 
L 450.672 291.28 
" style="fill:none;stroke:#b0b0b0;stroke-linecap:square;stroke-width:0.8;"/>
     </g>
     <g id="line2d_12">
      <defs>
       <path d="M 0 0 
L -3.5 0 
" id="m2d2872edf4" style="stroke:#000000;stroke-width:0.8;"/>
      </defs>
      <g>
       <use style="stroke:#000000;stroke-width:0.8;" x="5.52" xlink:href="#m2d2872edf4" y="291.28"/>
      </g>
     </g>
    </g>
    <g id="ytick_2">
     <g id="line2d_13">
      <path clip-path="url(#p7f5d50fd24)" d="M 5.52 234.693861 
L 450.672 234.693861 
" style="fill:none;stroke:#b0b0b0;stroke-linecap:square;stroke-width:0.8;"/>
     </g>
     <g id="line2d_14">
      <g>
       <use style="stroke:#000000;stroke-width:0.8;" x="5.52" xlink:href="#m2d2872edf4" y="234.693861"/>
      </g>
     </g>
    </g>
    <g id="ytick_3">
     <g id="line2d_15">
      <path clip-path="url(#p7f5d50fd24)" d="M 5.52 178.107723 
L 450.672 178.107723 
" style="fill:none;stroke:#b0b0b0;stroke-linecap:square;stroke-width:0.8;"/>
     </g>
     <g id="line2d_16">
      <g>
       <use style="stroke:#000000;stroke-width:0.8;" x="5.52" xlink:href="#m2d2872edf4" y="178.107723"/>
      </g>
     </g>
    </g>
    <g id="ytick_4">
     <g id="line2d_17">
      <path clip-path="url(#p7f5d50fd24)" d="M 5.52 121.521584 
L 450.672 121.521584 
" style="fill:none;stroke:#b0b0b0;stroke-linecap:square;stroke-width:0.8;"/>
     </g>
     <g id="line2d_18">
      <g>
       <use style="stroke:#000000;stroke-width:0.8;" x="5.52" xlink:href="#m2d2872edf4" y="121.521584"/>
      </g>
     </g>
    </g>
    <g id="ytick_5">
     <g id="line2d_19">
      <path clip-path="url(#p7f5d50fd24)" d="M 5.52 64.935446 
L 450.672 64.935446 
" style="fill:none;stroke:#b0b0b0;stroke-linecap:square;stroke-width:0.8;"/>
     </g>
     <g id="line2d_20">
      <g>
       <use style="stroke:#000000;stroke-width:0.8;" x="5.52" xlink:href="#m2d2872edf4" y="64.935446"/>
      </g>
     </g>
    </g>
    <g id="ytick_6">
     <g id="line2d_21">
      <path clip-path="url(#p7f5d50fd24)" d="M 5.52 8.349307 
L 450.672 8.349307 
" style="fill:none;stroke:#b0b0b0;stroke-linecap:square;stroke-width:0.8;"/>
     </g>
     <g id="line2d_22">
      <g>
       <use style="stroke:#000000;stroke-width:0.8;" x="5.52" xlink:href="#m2d2872edf4" y="8.349307"/>
      </g>
     </g>
    </g>
   </g>
   <g id="line2d_23">
    <path clip-path="url(#p7f5d50fd24)" d="M 197.840532 291.28 
L 197.840532 287.507591 
L 202.712869 287.507591 
L 202.712869 283.735182 
L 204.59892 283.735182 
L 204.59892 279.962772 
L 205.096277 279.962772 
L 205.096277 276.190363 
L 207.157727 276.190363 
L 207.157727 272.417954 
L 208.77307 272.417954 
L 208.77307 268.645545 
L 210.609252 268.645545 
L 210.677045 261.100726 
L 211.076151 261.100726 
L 211.076151 257.328317 
L 213.601203 257.328317 
L 213.601203 253.555908 
L 216.493102 253.555908 
L 216.493102 249.783498 
L 223.321657 249.783498 
L 223.356018 242.23868 
L 224.25809 242.23868 
L 224.281584 234.693861 
L 227.173666 234.693861 
L 227.173666 230.921452 
L 229.855812 230.921452 
L 229.855812 227.149043 
L 234.002396 227.149043 
L 234.002396 223.376634 
L 234.600459 223.376634 
L 234.637515 215.831815 
L 237.29165 215.831815 
L 237.29165 212.059406 
L 238.028888 212.059406 
L 238.028888 208.286997 
L 239.359752 208.286997 
L 239.359752 204.514587 
L 239.526178 204.514587 
L 239.526178 200.742178 
L 240.830514 200.742178 
L 240.830514 196.969769 
L 241.897953 196.969769 
L 241.897953 193.19736 
L 243.158612 193.19736 
L 243.158612 189.42495 
L 244.780319 189.42495 
L 244.780319 185.652541 
L 247.150485 185.652541 
L 247.150485 181.880132 
L 247.879494 181.880132 
L 247.879494 178.107723 
L 254.417511 178.107723 
L 254.417511 174.335314 
L 257.220971 174.335314 
L 257.220971 170.562904 
L 259.817756 170.562904 
L 259.817756 166.790495 
L 262.608193 166.790495 
L 262.608193 163.018086 
L 265.117443 163.018086 
L 265.117443 159.245677 
L 265.584471 159.245677 
L 265.584471 155.473267 
L 268.087087 155.473267 
L 268.087087 151.700858 
L 268.827915 151.700858 
L 268.827915 147.928449 
L 268.961421 147.928449 
L 268.961421 144.15604 
L 272.935475 144.15604 
L 272.935475 140.38363 
L 274.184532 140.38363 
L 274.184532 136.611221 
L 274.479641 136.611221 
L 274.479641 132.838812 
L 276.252304 132.838812 
L 276.252304 129.066403 
L 277.444187 129.066403 
L 277.444187 125.293993 
L 278.03694 125.293993 
L 278.03694 121.521584 
L 280.403743 121.521584 
L 280.403743 117.749175 
L 280.66563 117.749175 
L 280.767019 110.204356 
L 281.093803 110.204356 
L 281.093803 106.431947 
L 297.097497 106.431947 
L 297.097497 102.659538 
L 299.752838 102.659538 
L 299.752838 98.887129 
L 304.263648 98.887129 
L 304.263648 95.114719 
L 310.766302 95.114719 
L 310.766302 91.34231 
L 316.120026 91.34231 
L 316.120026 87.569901 
L 316.922793 87.569901 
L 316.922793 83.797492 
L 321.479217 83.797492 
L 321.479217 80.025083 
L 322.020019 80.025083 
L 322.020019 76.252673 
L 328.965845 76.252673 
L 328.965845 72.480264 
L 334.347786 72.480264 
L 334.347786 68.707855 
L 336.251423 68.707855 
L 336.251423 64.935446 
L 338.279112 64.935446 
L 338.279112 61.163036 
L 349.812172 61.163036 
L 349.812172 57.390627 
L 359.354311 57.390627 
L 359.354311 53.618218 
L 361.170787 53.618218 
L 361.170787 49.845809 
L 370.217516 49.845809 
L 370.217516 46.073399 
L 372.631095 46.073399 
L 372.631095 42.30099 
L 374.274541 42.30099 
L 374.274541 38.528581 
L 376.419503 38.528581 
L 376.503428 30.983762 
L 377.15336 30.983762 
L 377.15336 27.211353 
L 378.136345 27.211353 
L 378.136345 23.438944 
L 380.366988 23.438944 
L 380.366988 19.666535 
L 381.341231 19.666535 
L 381.341231 15.894125 
L 382.961468 15.894125 
L 382.961468 12.121716 
L 388.129522 12.121716 
L 388.129522 8.349307 
L 388.129522 8.349307 
L 450.672 8.349307 
L 450.672 8.349307 
" style="fill:none;stroke:#ff0000;stroke-linecap:square;stroke-width:3;"/>
   </g>
   <g id="line2d_24">
    <path clip-path="url(#p7f5d50fd24)" d="M 231.614774 291.28 
L 231.614774 287.507591 
L 235.521885 287.507591 
L 235.521885 283.735182 
L 241.044501 283.735182 
L 241.044501 279.962772 
L 242.85076 279.962772 
L 242.85076 276.190363 
L 242.978518 276.190363 
L 242.978518 272.417954 
L 247.499227 272.417954 
L 247.499227 268.645545 
L 248.671474 268.645545 
L 248.671474 264.873135 
L 250.683483 264.873135 
L 250.683483 261.100726 
L 253.066941 261.100726 
L 253.066941 257.328317 
L 255.427429 257.328317 
L 255.427429 253.555908 
L 257.057251 253.555908 
L 257.057251 249.783498 
L 257.375822 249.783498 
L 257.375822 246.011089 
L 258.18066 246.011089 
L 258.18066 242.23868 
L 266.647631 242.23868 
L 266.647631 238.466271 
L 269.351605 238.466271 
L 269.351605 234.693861 
L 279.864087 234.693861 
L 279.864087 230.921452 
L 282.935383 230.921452 
L 282.935383 227.149043 
L 284.039862 227.149043 
L 284.039862 223.376634 
L 286.132645 223.376634 
L 286.132645 219.604224 
L 286.485899 219.604224 
L 286.485899 215.831815 
L 286.86288 215.831815 
L 286.86288 212.059406 
L 287.280025 212.059406 
L 287.280025 208.286997 
L 287.656241 208.286997 
L 287.656241 204.514587 
L 288.731993 204.514587 
L 288.731993 200.742178 
L 288.892031 200.742178 
L 288.892031 196.969769 
L 290.641582 196.969769 
L 290.641582 193.19736 
L 290.854436 193.19736 
L 290.854436 189.42495 
L 292.125119 189.42495 
L 292.125119 185.652541 
L 292.368725 185.652541 
L 292.368725 181.880132 
L 298.614483 181.880132 
L 298.614483 178.107723 
L 323.532525 178.107723 
L 323.532525 174.335314 
L 329.88682 174.335314 
L 329.88682 170.562904 
L 332.813612 170.562904 
L 332.813612 166.790495 
L 342.415453 166.790495 
L 342.415453 163.018086 
L 344.656973 163.018086 
L 344.656973 159.245677 
L 354.889146 159.245677 
L 354.889146 155.473267 
L 357.942639 155.473267 
L 357.942639 151.700858 
L 360.159665 151.700858 
L 360.159665 147.928449 
L 362.708756 147.928449 
L 362.708756 144.15604 
L 367.578867 144.15604 
L 367.578867 140.38363 
L 369.442438 140.38363 
L 369.442438 136.611221 
L 370.121497 136.611221 
L 370.121497 132.838812 
L 372.601748 132.838812 
L 372.628569 125.293993 
L 374.149668 125.293993 
L 374.149668 121.521584 
L 378.865245 121.521584 
L 378.865245 117.749175 
L 380.434278 117.749175 
L 380.434278 113.976766 
L 380.970128 113.976766 
L 380.970128 110.204356 
L 383.811118 110.204356 
L 383.811118 106.431947 
L 383.980199 106.431947 
L 383.980199 102.659538 
L 385.699769 102.659538 
L 385.699769 98.887129 
L 385.850232 98.887129 
L 385.850232 95.114719 
L 386.053733 95.114719 
L 386.053733 91.34231 
L 386.74146 91.34231 
L 386.74146 87.569901 
L 388.301938 87.569901 
L 388.301938 83.797492 
L 390.358655 83.797492 
L 390.358655 80.025083 
L 391.010721 80.025083 
L 391.010721 76.252673 
L 391.61789 76.252673 
L 391.61789 72.480264 
L 392.935344 72.480264 
L 392.935344 68.707855 
L 397.057867 68.707855 
L 397.057867 64.935446 
L 397.346145 64.935446 
L 397.346145 61.163036 
L 398.419908 61.163036 
L 398.419908 57.390627 
L 401.621437 57.390627 
L 401.621437 53.618218 
L 401.767967 53.618218 
L 401.767967 49.845809 
L 403.476422 49.845809 
L 403.476422 46.073399 
L 405.431388 46.073399 
L 405.431388 42.30099 
L 405.971108 42.30099 
L 406.006907 30.983762 
L 413.182331 30.983762 
L 413.182331 27.211353 
L 416.721492 27.211353 
L 416.721492 23.438944 
L 419.113012 23.438944 
L 419.113012 19.666535 
L 419.698931 19.666535 
L 419.698931 15.894125 
L 431.329842 15.894125 
L 431.329842 12.121716 
L 438.159169 12.121716 
L 438.159169 8.349307 
L 438.159169 8.349307 
L 450.672 8.349307 
L 450.672 8.349307 
" style="fill:none;stroke:#00bfbf;stroke-linecap:square;stroke-width:1.5;"/>
   </g>
   <g id="line2d_25">
    <path clip-path="url(#p7f5d50fd24)" d="M 208.832743 291.28 
L 208.832743 287.507591 
L 227.988655 287.507591 
L 227.988655 283.735182 
L 231.401671 283.735182 
L 231.401671 279.962772 
L 231.614774 279.962772 
L 231.614774 276.190363 
L 233.037171 276.190363 
L 233.037171 272.417954 
L 235.39953 272.417954 
L 235.440951 264.873135 
L 237.177208 264.873135 
L 237.177208 261.100726 
L 238.122179 261.100726 
L 238.122179 257.328317 
L 240.073187 257.328317 
L 240.073187 253.555908 
L 242.85076 253.555908 
L 242.85076 249.783498 
L 242.978518 249.783498 
L 242.978518 246.011089 
L 244.920298 246.011089 
L 244.920298 242.23868 
L 246.541946 242.23868 
L 246.541946 238.466271 
L 250.683483 238.466271 
L 250.683483 234.693861 
L 277.061302 234.693861 
L 277.061302 230.921452 
L 277.343155 230.921452 
L 277.343155 227.149043 
L 282.935383 227.149043 
L 282.935383 223.376634 
L 283.381364 223.376634 
L 283.381364 219.604224 
L 284.039862 219.604224 
L 284.039862 215.831815 
L 285.411517 215.831815 
L 285.411517 212.059406 
L 285.554314 212.059406 
L 285.554314 208.286997 
L 286.485899 208.286997 
L 286.485899 204.514587 
L 287.14951 204.514587 
L 287.14951 200.742178 
L 287.280025 200.742178 
L 287.280025 196.969769 
L 287.656241 196.969769 
L 287.656241 193.19736 
L 290.365614 193.19736 
L 290.365614 189.42495 
L 291.661009 189.42495 
L 291.661009 185.652541 
L 292.125119 185.652541 
L 292.125119 181.880132 
L 293.862007 181.880132 
L 293.862007 178.107723 
L 313.453298 178.107723 
L 313.453298 174.335314 
L 323.532525 174.335314 
L 323.532525 170.562904 
L 329.88682 170.562904 
L 329.88682 166.790495 
L 331.117565 166.790495 
L 331.117565 163.018086 
L 332.813612 163.018086 
L 332.813612 159.245677 
L 338.703456 159.245677 
L 338.703456 155.473267 
L 338.941479 155.473267 
L 338.941479 151.700858 
L 342.415453 151.700858 
L 342.415453 147.928449 
L 348.098248 147.928449 
L 348.098248 144.15604 
L 349.569231 144.15604 
L 349.569231 140.38363 
L 350.070661 140.38363 
L 350.070661 136.611221 
L 350.927038 136.611221 
L 350.927038 132.838812 
L 353.833663 132.838812 
L 353.833663 129.066403 
L 357.942639 129.066403 
L 357.942639 125.293993 
L 358.097863 125.293993 
L 358.097863 121.521584 
L 359.320377 121.521584 
L 359.320377 117.749175 
L 360.002304 117.749175 
L 360.002304 113.976766 
L 360.159665 113.976766 
L 360.159665 110.204356 
L 360.715731 110.204356 
L 360.715731 106.431947 
L 365.667792 106.431947 
L 365.667792 102.659538 
L 367.578867 102.659538 
L 367.578867 98.887129 
L 372.628569 98.887129 
L 372.628569 95.114719 
L 374.139956 95.114719 
L 374.139956 91.34231 
L 378.963002 91.34231 
L 378.963002 87.569901 
L 380.117616 87.569901 
L 380.117616 83.797492 
L 380.812709 83.797492 
L 380.812709 80.025083 
L 380.970128 80.025083 
L 380.970128 76.252673 
L 383.969114 76.252673 
L 384.007268 68.707855 
L 384.895983 68.707855 
L 384.895983 64.935446 
L 385.174271 64.935446 
L 385.174271 61.163036 
L 388.939372 61.163036 
L 388.939372 57.390627 
L 390.269623 57.390627 
L 390.269623 53.618218 
L 395.967282 53.618218 
L 395.967282 49.845809 
L 396.816639 49.845809 
L 396.816639 46.073399 
L 398.658862 46.073399 
L 398.658862 42.30099 
L 399.181845 42.30099 
L 399.181845 38.528581 
L 401.621437 38.528581 
L 401.621437 34.756172 
L 401.767967 34.756172 
L 401.767967 30.983762 
L 403.476422 30.983762 
L 403.476422 27.211353 
L 405.431388 27.211353 
L 405.431388 23.438944 
L 405.971108 23.438944 
L 405.971108 19.666535 
L 408.963692 19.666535 
L 408.963692 15.894125 
L 410.494223 15.894125 
L 410.494223 12.121716 
L 410.948024 12.121716 
L 410.948024 8.349307 
L 410.948024 8.349307 
L 450.672 8.349307 
L 450.672 8.349307 
" style="fill:none;stroke:#bf00bf;stroke-linecap:square;stroke-width:1.5;"/>
   </g>
   <g id="line2d_26">
    <path clip-path="url(#p7f5d50fd24)" d="M 208.832743 291.28 
L 208.832743 287.507591 
L 216.718941 287.507591 
L 216.718941 283.735182 
L 218.232716 283.735182 
L 218.232716 279.962772 
L 221.018106 279.962772 
L 221.018106 276.190363 
L 225.754075 276.190363 
L 225.754075 272.417954 
L 226.122113 272.417954 
L 226.122113 268.645545 
L 226.830141 268.645545 
L 226.830141 264.873135 
L 227.09268 264.873135 
L 227.09268 261.100726 
L 227.387951 261.100726 
L 227.387951 257.328317 
L 227.988655 257.328317 
L 228.097525 249.783498 
L 231.401671 249.783498 
L 231.401671 246.011089 
L 237.177208 246.011089 
L 237.177208 242.23868 
L 238.122179 242.23868 
L 238.122179 238.466271 
L 239.340029 238.466271 
L 239.340029 234.693861 
L 276.800857 234.693861 
L 276.800857 230.921452 
L 277.343155 230.921452 
L 277.343155 227.149043 
L 279.391521 227.149043 
L 279.391521 223.376634 
L 280.419272 223.376634 
L 280.419272 219.604224 
L 280.72667 219.604224 
L 280.72667 215.831815 
L 281.439189 215.831815 
L 281.439189 212.059406 
L 281.579105 212.059406 
L 281.579105 208.286997 
L 282.935383 208.286997 
L 282.935383 204.514587 
L 284.856843 204.514587 
L 284.95228 193.19736 
L 286.061413 193.19736 
L 286.061413 189.42495 
L 286.30137 189.42495 
L 286.30137 185.652541 
L 289.897974 185.652541 
L 289.897974 181.880132 
L 292.294345 181.880132 
L 292.294345 178.107723 
L 296.430615 178.107723 
L 296.430615 174.335314 
L 303.631186 174.335314 
L 303.631186 170.562904 
L 304.50343 170.562904 
L 304.50343 166.790495 
L 313.453298 166.790495 
L 313.453298 163.018086 
L 317.408238 163.018086 
L 317.408238 159.245677 
L 323.111415 159.245677 
L 323.111415 155.473267 
L 323.532525 155.473267 
L 323.532525 151.700858 
L 327.907549 151.700858 
L 327.907549 147.928449 
L 331.117565 147.928449 
L 331.117565 144.15604 
L 332.813612 144.15604 
L 332.813612 140.38363 
L 334.753482 140.38363 
L 334.753482 136.611221 
L 337.555104 136.611221 
L 337.555104 132.838812 
L 338.832905 132.838812 
L 338.941479 125.293993 
L 341.573801 125.293993 
L 341.573801 121.521584 
L 342.415453 121.521584 
L 342.415453 117.749175 
L 344.545789 117.749175 
L 344.545789 113.976766 
L 346.348127 113.976766 
L 346.348127 110.204356 
L 348.098248 110.204356 
L 348.098248 106.431947 
L 353.66765 106.431947 
L 353.66765 102.659538 
L 354.129958 102.659538 
L 354.129958 98.887129 
L 354.980774 98.887129 
L 354.980774 95.114719 
L 357.461828 95.114719 
L 357.461828 91.34231 
L 357.910045 91.34231 
L 357.910045 87.569901 
L 359.320377 87.569901 
L 359.320377 83.797492 
L 359.729907 83.797492 
L 359.729907 80.025083 
L 362.569087 80.025083 
L 362.569087 76.252673 
L 363.195025 76.252673 
L 363.195025 72.480264 
L 364.404074 72.480264 
L 364.404074 68.707855 
L 380.117616 68.707855 
L 380.117616 64.935446 
L 380.970128 64.935446 
L 380.970128 61.163036 
L 387.680019 61.163036 
L 387.680019 57.390627 
L 388.872521 57.390627 
L 388.939372 49.845809 
L 390.269623 49.845809 
L 390.269623 46.073399 
L 390.842023 46.073399 
L 390.842023 42.30099 
L 393.273808 42.30099 
L 393.273808 38.528581 
L 398.150578 38.528581 
L 398.150578 34.756172 
L 398.658862 34.756172 
L 398.658862 30.983762 
L 398.943901 30.983762 
L 398.943901 27.211353 
L 401.006563 27.211353 
L 401.006563 23.438944 
L 401.767967 23.438944 
L 401.767967 19.666535 
L 403.884508 19.666535 
L 403.884508 15.894125 
L 405.315633 15.894125 
L 405.315633 12.121716 
L 405.692085 12.121716 
L 405.692085 8.349307 
L 405.692085 8.349307 
L 450.672 8.349307 
L 450.672 8.349307 
" style="fill:none;stroke:#000000;stroke-linecap:square;stroke-width:1.5;"/>
   </g>
   <g id="line2d_27">
    <path clip-path="url(#p7f5d50fd24)" d="M 208.712286 291.28 
L 208.712286 287.507591 
L 213.495773 287.507591 
L 213.495773 283.735182 
L 216.689825 283.735182 
L 216.689825 279.962772 
L 217.459346 279.962772 
L 217.459346 276.190363 
L 218.135934 276.190363 
L 218.135934 272.417954 
L 218.903006 272.417954 
L 218.903006 268.645545 
L 223.817878 268.645545 
L 223.817878 264.873135 
L 225.754037 264.873135 
L 225.754037 261.100726 
L 226.067866 261.100726 
L 226.067866 257.328317 
L 227.340814 257.328317 
L 227.340814 253.555908 
L 227.966652 253.555908 
L 228.040955 246.011089 
L 230.534394 246.011089 
L 230.534394 242.23868 
L 233.673487 242.23868 
L 233.673487 238.466271 
L 238.059318 238.466271 
L 238.059318 234.693861 
L 266.205129 234.693861 
L 266.205129 230.921452 
L 271.670645 230.921452 
L 271.670645 227.149043 
L 272.261089 227.149043 
L 272.261089 223.376634 
L 275.618251 223.376634 
L 275.63193 215.831815 
L 278.467851 215.831815 
L 278.467851 212.059406 
L 280.395338 212.059406 
L 280.419272 204.514587 
L 280.687823 204.514587 
L 280.687823 200.742178 
L 281.43578 200.742178 
L 281.43578 196.969769 
L 281.548717 196.969769 
L 281.548717 193.19736 
L 283.102983 193.19736 
L 283.102983 189.42495 
L 283.792746 189.42495 
L 283.792746 185.652541 
L 284.29634 185.652541 
L 284.29634 181.880132 
L 287.824864 181.880132 
L 287.824864 178.107723 
L 288.46759 178.107723 
L 288.46759 174.335314 
L 293.937057 174.335314 
L 293.937057 170.562904 
L 303.631186 170.562904 
L 303.631186 166.790495 
L 303.950787 166.790495 
L 303.950787 163.018086 
L 316.529744 163.018086 
L 316.529744 159.245677 
L 317.335314 159.245677 
L 317.335314 155.473267 
L 322.030093 155.473267 
L 322.030093 151.700858 
L 322.313122 151.700858 
L 322.313122 147.928449 
L 322.889691 147.928449 
L 322.889691 144.15604 
L 326.862306 144.15604 
L 326.862306 140.38363 
L 330.220712 140.38363 
L 330.220712 136.611221 
L 331.969413 136.611221 
L 331.969413 132.838812 
L 332.683851 132.838812 
L 332.683851 129.066403 
L 333.6217 129.066403 
L 333.6217 125.293993 
L 334.48117 125.293993 
L 334.48117 121.521584 
L 337.21014 121.521584 
L 337.21014 117.749175 
L 341.497061 117.749175 
L 341.497061 113.976766 
L 341.759323 113.976766 
L 341.759323 110.204356 
L 344.351822 110.204356 
L 344.351822 106.431947 
L 345.87432 106.431947 
L 345.87432 102.659538 
L 352.026546 102.659538 
L 352.026546 98.887129 
L 352.165219 98.887129 
L 352.165219 95.114719 
L 353.597784 95.114719 
L 353.597784 91.34231 
L 355.826448 91.34231 
L 355.826448 87.569901 
L 356.279108 87.569901 
L 356.279108 83.797492 
L 357.345294 83.797492 
L 357.345294 80.025083 
L 359.689724 80.025083 
L 359.689724 76.252673 
L 361.294561 76.252673 
L 361.294561 72.480264 
L 361.565008 72.480264 
L 361.565008 68.707855 
L 364.350199 68.707855 
L 364.350199 64.935446 
L 374.131198 64.935446 
L 374.131198 61.163036 
L 377.261608 61.163036 
L 377.261608 57.390627 
L 377.651517 57.390627 
L 377.651517 53.618218 
L 379.19353 53.618218 
L 379.19353 49.845809 
L 380.483948 49.845809 
L 380.483948 46.073399 
L 384.179332 46.073399 
L 384.179332 42.30099 
L 387.600253 42.30099 
L 387.600253 38.528581 
L 388.55988 38.528581 
L 388.55988 34.756172 
L 390.469747 34.756172 
L 390.469747 30.983762 
L 392.203368 30.983762 
L 392.203368 27.211353 
L 393.143228 27.211353 
L 393.143228 23.438944 
L 393.268027 23.438944 
L 393.268027 19.666535 
L 396.804915 19.666535 
L 396.804915 15.894125 
L 399.037884 15.894125 
L 399.037884 12.121716 
L 400.736101 12.121716 
L 400.736101 8.349307 
L 400.736101 8.349307 
L 450.672 8.349307 
L 450.672 8.349307 
" style="fill:none;stroke:#00bfbf;stroke-linecap:square;stroke-width:1.5;"/>
   </g>
   <g id="line2d_28">
    <path clip-path="url(#p7f5d50fd24)" d="M 208.399388 291.28 
L 208.399388 287.507591 
L 210.589422 287.507591 
L 210.589422 283.735182 
L 211.858027 283.735182 
L 211.858027 279.962772 
L 213.365239 279.962772 
L 213.365239 276.190363 
L 215.167078 276.190363 
L 215.167078 272.417954 
L 215.785116 272.417954 
L 215.785116 268.645545 
L 215.910136 268.645545 
L 215.910136 264.873135 
L 216.437525 264.873135 
L 216.437525 261.100726 
L 218.088951 261.100726 
L 218.088951 257.328317 
L 220.604152 257.328317 
L 220.604152 253.555908 
L 225.683633 253.555908 
L 225.683633 249.783498 
L 226.6044 249.783498 
L 226.6044 246.011089 
L 227.219083 246.011089 
L 227.219083 242.23868 
L 227.85207 242.23868 
L 227.85207 238.466271 
L 229.703598 238.466271 
L 229.703598 234.693861 
L 241.320132 234.693861 
L 241.320132 230.921452 
L 242.895271 230.921452 
L 242.895271 227.149043 
L 247.988808 227.149043 
L 247.988808 223.376634 
L 253.646612 223.376634 
L 253.646612 219.604224 
L 255.527697 219.604224 
L 255.527697 215.831815 
L 257.117318 215.831815 
L 257.117318 212.059406 
L 258.960457 212.059406 
L 258.960457 208.286997 
L 265.981935 208.286997 
L 265.981935 204.514587 
L 269.443169 204.514587 
L 269.443169 200.742178 
L 269.918938 200.742178 
L 269.918938 196.969769 
L 271.016474 196.969769 
L 271.016474 193.19736 
L 271.43094 193.19736 
L 271.43094 189.42495 
L 272.13662 189.42495 
L 272.17486 181.880132 
L 273.049383 181.880132 
L 273.049383 178.107723 
L 273.853843 178.107723 
L 273.853843 174.335314 
L 275.598052 174.335314 
L 275.598052 170.562904 
L 276.815637 170.562904 
L 276.815637 166.790495 
L 276.984279 166.790495 
L 276.984279 163.018086 
L 277.516665 163.018086 
L 277.516665 159.245677 
L 277.984941 159.245677 
L 277.984941 155.473267 
L 279.189263 155.473267 
L 279.189263 151.700858 
L 279.507212 151.700858 
L 279.507212 147.928449 
L 280.056469 147.928449 
L 280.056469 144.15604 
L 282.774947 144.15604 
L 282.774947 140.38363 
L 292.205432 140.38363 
L 292.205432 136.611221 
L 294.698721 136.611221 
L 294.698721 132.838812 
L 299.258461 132.838812 
L 299.258461 129.066403 
L 303.268326 129.066403 
L 303.268326 125.293993 
L 304.47956 125.293993 
L 304.47956 121.521584 
L 311.241515 121.521584 
L 311.241515 117.749175 
L 319.692254 117.749175 
L 319.692254 113.976766 
L 320.863646 113.976766 
L 320.863646 110.204356 
L 321.355769 110.204356 
L 321.355769 106.431947 
L 325.794164 106.431947 
L 325.794164 102.659538 
L 326.156901 102.659538 
L 326.156901 98.887129 
L 327.879676 98.887129 
L 327.879676 95.114719 
L 331.401826 95.114719 
L 331.401826 91.34231 
L 332.270049 91.34231 
L 332.270049 87.569901 
L 332.683851 87.569901 
L 332.683851 83.797492 
L 335.883616 83.797492 
L 335.883616 80.025083 
L 337.605151 80.025083 
L 337.605151 76.252673 
L 339.472909 76.252673 
L 339.472909 72.480264 
L 342.774255 72.480264 
L 342.774255 68.707855 
L 343.991903 68.707855 
L 343.991903 64.935446 
L 353.946675 64.935446 
L 353.946675 61.163036 
L 354.846586 61.163036 
L 354.846586 57.390627 
L 369.084499 57.390627 
L 369.084499 53.618218 
L 370.282612 53.618218 
L 370.282612 49.845809 
L 376.836967 49.845809 
L 376.836967 46.073399 
L 380.408471 46.073399 
L 380.408471 42.30099 
L 381.184547 42.30099 
L 381.260733 34.756172 
L 381.520529 34.756172 
L 381.597749 27.211353 
L 382.835003 27.211353 
L 382.835003 23.438944 
L 384.599976 23.438944 
L 384.599976 19.666535 
L 385.323841 19.666535 
L 385.323841 15.894125 
L 386.60608 15.894125 
L 386.60608 12.121716 
L 391.82616 12.121716 
L 391.82616 8.349307 
L 391.82616 8.349307 
L 450.672 8.349307 
L 450.672 8.349307 
" style="fill:none;stroke:#bf00bf;stroke-linecap:square;stroke-width:1.5;"/>
   </g>
   <g id="line2d_29">
    <path clip-path="url(#p7f5d50fd24)" d="M 204.330114 291.28 
L 204.330114 287.507591 
L 208.156845 287.507591 
L 208.252345 279.962772 
L 208.702441 279.962772 
L 208.702441 276.190363 
L 210.296489 276.190363 
L 210.296489 272.417954 
L 211.433456 272.417954 
L 211.433456 268.645545 
L 213.41273 268.645545 
L 213.41273 264.873135 
L 214.163874 264.873135 
L 214.163874 261.100726 
L 215.076205 261.100726 
L 215.076205 257.328317 
L 218.881852 257.328317 
L 218.881852 253.555908 
L 224.974197 253.555908 
L 225.063757 246.011089 
L 225.933173 246.011089 
L 226.01548 238.466271 
L 228.543639 238.466271 
L 228.543639 234.693861 
L 234.20553 234.693861 
L 234.20553 230.921452 
L 234.617233 230.921452 
L 234.700967 219.604224 
L 237.506632 219.604224 
L 237.506632 215.831815 
L 238.28786 215.831815 
L 238.28786 212.059406 
L 239.455876 212.059406 
L 239.455876 208.286997 
L 239.803879 208.286997 
L 239.803879 204.514587 
L 240.953092 204.514587 
L 240.953092 200.742178 
L 242.215236 200.742178 
L 242.215236 196.969769 
L 243.311277 196.969769 
L 243.311277 193.19736 
L 244.535754 193.19736 
L 244.535754 189.42495 
L 247.150485 189.42495 
L 247.150485 185.652541 
L 248.062454 185.652541 
L 248.062454 181.880132 
L 254.713651 181.880132 
L 254.713651 178.107723 
L 262.250945 178.107723 
L 262.250945 174.335314 
L 263.254848 174.335314 
L 263.254848 170.562904 
L 266.646233 170.562904 
L 266.646233 166.790495 
L 268.961995 166.790495 
L 268.961995 163.018086 
L 269.549689 163.018086 
L 269.549689 159.245677 
L 270.363598 159.245677 
L 270.363598 155.473267 
L 271.218012 155.473267 
L 271.218012 151.700858 
L 271.728918 151.700858 
L 271.728918 147.928449 
L 274.420473 147.928449 
L 274.420473 144.15604 
L 275.603513 144.15604 
L 275.603513 140.38363 
L 276.018537 140.38363 
L 276.018537 136.611221 
L 277.624812 136.611221 
L 277.624812 132.838812 
L 278.383181 132.838812 
L 278.383181 129.066403 
L 279.095847 129.066403 
L 279.095847 125.293993 
L 281.387131 125.293993 
L 281.387131 121.521584 
L 281.819955 121.521584 
L 281.819955 117.749175 
L 283.568785 117.749175 
L 283.568785 113.976766 
L 285.448663 113.976766 
L 285.448663 110.204356 
L 301.92949 110.204356 
L 301.92949 106.431947 
L 311.891723 106.431947 
L 311.891723 102.659538 
L 312.597163 102.659538 
L 312.597163 98.887129 
L 315.240411 98.887129 
L 315.240411 95.114719 
L 318.983457 95.114719 
L 318.983457 91.34231 
L 320.034415 91.34231 
L 320.034415 87.569901 
L 324.827142 87.569901 
L 324.827142 83.797492 
L 325.878913 83.797492 
L 325.878913 80.025083 
L 327.507751 80.025083 
L 327.507751 76.252673 
L 334.64275 76.252673 
L 334.64275 72.480264 
L 336.878106 72.480264 
L 336.878106 68.707855 
L 340.742861 68.707855 
L 340.742861 64.935446 
L 348.388765 64.935446 
L 348.388765 61.163036 
L 351.751387 61.163036 
L 351.751387 57.390627 
L 365.062486 57.390627 
L 365.062486 53.618218 
L 366.071599 53.618218 
L 366.071599 49.845809 
L 373.89171 49.845809 
L 373.89171 46.073399 
L 377.36614 46.073399 
L 377.36614 42.30099 
L 377.518212 42.30099 
L 377.518212 38.528581 
L 379.082481 38.528581 
L 379.082481 34.756172 
L 379.332755 34.756172 
L 379.332755 30.983762 
L 379.579491 30.983762 
L 379.579491 27.211353 
L 380.753435 27.211353 
L 380.753435 23.438944 
L 382.648612 23.438944 
L 382.648612 19.666535 
L 383.543088 19.666535 
L 383.543088 15.894125 
L 384.923898 15.894125 
L 384.923898 12.121716 
L 390.04005 12.121716 
L 390.04005 8.349307 
L 390.04005 8.349307 
L 450.672 8.349307 
L 450.672 8.349307 
" style="fill:none;stroke:#000000;stroke-linecap:square;stroke-width:1.5;"/>
   </g>
   <g id="patch_3">
    <path d="M 5.52 291.28 
L 5.52 5.52 
" style="fill:none;stroke:#000000;stroke-linecap:square;stroke-linejoin:miter;stroke-width:0.8;"/>
   </g>
   <g id="patch_4">
    <path d="M 450.672 291.28 
L 450.672 5.52 
" style="fill:none;stroke:#000000;stroke-linecap:square;stroke-linejoin:miter;stroke-width:0.8;"/>
   </g>
   <g id="patch_5">
    <path d="M 5.52 291.28 
L 450.672 291.28 
" style="fill:none;stroke:#000000;stroke-linecap:square;stroke-linejoin:miter;stroke-width:0.8;"/>
   </g>
   <g id="patch_6">
    <path d="M 5.52 5.52 
L 450.672 5.52 
" style="fill:none;stroke:#000000;stroke-linecap:square;stroke-linejoin:miter;stroke-width:0.8;"/>
   </g>
   <g id="text_6">
    <!-- {f10-f14}, 5-D -->
    <defs>
     <path d="M 51.125 -9.28125 
L 51.125 -16.3125 
L 48.09375 -16.3125 
Q 35.9375 -16.3125 31.8125 -12.6875 
Q 27.6875 -9.078125 27.6875 1.703125 
L 27.6875 13.375 
Q 27.6875 20.75 25.046875 23.578125 
Q 22.40625 26.421875 15.484375 26.421875 
L 12.5 26.421875 
L 12.5 33.40625 
L 15.484375 33.40625 
Q 22.46875 33.40625 25.078125 36.203125 
Q 27.6875 39.015625 27.6875 46.296875 
L 27.6875 58.015625 
Q 27.6875 68.796875 31.8125 72.390625 
Q 35.9375 75.984375 48.09375 75.984375 
L 51.125 75.984375 
L 51.125 69 
L 47.796875 69 
Q 40.921875 69 38.8125 66.84375 
Q 36.71875 64.703125 36.71875 57.8125 
L 36.71875 45.703125 
Q 36.71875 38.03125 34.5 34.5625 
Q 32.28125 31.109375 26.90625 29.890625 
Q 32.328125 28.5625 34.515625 25.09375 
Q 36.71875 21.625 36.71875 14.015625 
L 36.71875 1.90625 
Q 36.71875 -4.984375 38.8125 -7.125 
Q 40.921875 -9.28125 47.796875 -9.28125 
z
" id="DejaVuSans-7b"/>
     <path d="M 12.5 -9.28125 
L 15.921875 -9.28125 
Q 22.75 -9.28125 24.828125 -7.171875 
Q 26.90625 -5.078125 26.90625 1.90625 
L 26.90625 14.015625 
Q 26.90625 21.625 29.09375 25.09375 
Q 31.296875 28.5625 36.71875 29.890625 
Q 31.296875 31.109375 29.09375 34.5625 
Q 26.90625 38.03125 26.90625 45.703125 
L 26.90625 57.8125 
Q 26.90625 64.75 24.828125 66.875 
Q 22.75 69 15.921875 69 
L 12.5 69 
L 12.5 75.984375 
L 15.578125 75.984375 
Q 27.734375 75.984375 31.8125 72.390625 
Q 35.890625 68.796875 35.890625 58.015625 
L 35.890625 46.296875 
Q 35.890625 39.015625 38.515625 36.203125 
Q 41.15625 33.40625 48.09375 33.40625 
L 51.125 33.40625 
L 51.125 26.421875 
L 48.09375 26.421875 
Q 41.15625 26.421875 38.515625 23.578125 
Q 35.890625 20.75 35.890625 13.375 
L 35.890625 1.703125 
Q 35.890625 -9.078125 31.8125 -12.6875 
Q 27.734375 -16.3125 15.578125 -16.3125 
L 12.5 -16.3125 
z
" id="DejaVuSans-7d"/>
     <path d="M 11.71875 12.40625 
L 22.015625 12.40625 
L 22.015625 4 
L 14.015625 -11.625 
L 7.71875 -11.625 
L 11.71875 4 
z
" id="DejaVuSans-2c"/>
     <path d="M 10.796875 72.90625 
L 49.515625 72.90625 
L 49.515625 64.59375 
L 19.828125 64.59375 
L 19.828125 46.734375 
Q 21.96875 47.46875 24.109375 47.828125 
Q 26.265625 48.1875 28.421875 48.1875 
Q 40.625 48.1875 47.75 41.5 
Q 54.890625 34.8125 54.890625 23.390625 
Q 54.890625 11.625 47.5625 5.09375 
Q 40.234375 -1.421875 26.90625 -1.421875 
Q 22.3125 -1.421875 17.546875 -0.640625 
Q 12.796875 0.140625 7.71875 1.703125 
L 7.71875 11.625 
Q 12.109375 9.234375 16.796875 8.0625 
Q 21.484375 6.890625 26.703125 6.890625 
Q 35.15625 6.890625 40.078125 11.328125 
Q 45.015625 15.765625 45.015625 23.390625 
Q 45.015625 31 40.078125 35.4375 
Q 35.15625 39.890625 26.703125 39.890625 
Q 22.75 39.890625 18.8125 39.015625 
Q 14.890625 38.140625 10.796875 36.28125 
z
" id="DejaVuSans-35"/>
    </defs>
    <g transform="translate(296.06896 285.5648)scale(0.2 -0.2)">
     <use xlink:href="#DejaVuSans-7b"/>
     <use x="63.623047" xlink:href="#DejaVuSans-66"/>
     <use x="98.828125" xlink:href="#DejaVuSans-31"/>
     <use x="162.451172" xlink:href="#DejaVuSans-30"/>
     <use x="226.074219" xlink:href="#DejaVuSans-2d"/>
     <use x="262.158203" xlink:href="#DejaVuSans-66"/>
     <use x="297.363281" xlink:href="#DejaVuSans-31"/>
     <use x="360.986328" xlink:href="#DejaVuSans-34"/>
     <use x="424.609375" xlink:href="#DejaVuSans-7d"/>
     <use x="488.232422" xlink:href="#DejaVuSans-2c"/>
     <use x="520.019531" xlink:href="#DejaVuSans-20"/>
     <use x="551.806641" xlink:href="#DejaVuSans-35"/>
     <use x="615.429688" xlink:href="#DejaVuSans-2d"/>
     <use x="651.513672" xlink:href="#DejaVuSans-44"/>
    </g>
   </g>
   <g id="text_7">
    <!-- v2.2.1.10 -->
    <defs>
     <path d="M 2.984375 54.6875 
L 12.5 54.6875 
L 29.59375 8.796875 
L 46.6875 54.6875 
L 56.203125 54.6875 
L 35.6875 0 
L 23.484375 0 
z
" id="DejaVuSans-76"/>
     <path d="M 19.1875 8.296875 
L 53.609375 8.296875 
L 53.609375 0 
L 7.328125 0 
L 7.328125 8.296875 
Q 12.9375 14.109375 22.625 23.890625 
Q 32.328125 33.6875 34.8125 36.53125 
Q 39.546875 41.84375 41.421875 45.53125 
Q 43.3125 49.21875 43.3125 52.78125 
Q 43.3125 58.59375 39.234375 62.25 
Q 35.15625 65.921875 28.609375 65.921875 
Q 23.96875 65.921875 18.8125 64.3125 
Q 13.671875 62.703125 7.8125 59.421875 
L 7.8125 69.390625 
Q 13.765625 71.78125 18.9375 73 
Q 24.125 74.21875 28.421875 74.21875 
Q 39.75 74.21875 46.484375 68.546875 
Q 53.21875 62.890625 53.21875 53.421875 
Q 53.21875 48.921875 51.53125 44.890625 
Q 49.859375 40.875 45.40625 35.40625 
Q 44.1875 33.984375 37.640625 27.21875 
Q 31.109375 20.453125 19.1875 8.296875 
z
" id="DejaVuSans-32"/>
     <path d="M 10.6875 12.40625 
L 21 12.40625 
L 21 0 
L 10.6875 0 
z
" id="DejaVuSans-2e"/>
    </defs>
    <g style="fill:#808080;" transform="translate(204.463188 286.342713)scale(0.1 -0.1)">
     <use xlink:href="#DejaVuSans-76"/>
     <use x="59.179688" xlink:href="#DejaVuSans-32"/>
     <use x="122.802734" xlink:href="#DejaVuSans-2e"/>
     <use x="154.589844" xlink:href="#DejaVuSans-32"/>
     <use x="218.212891" xlink:href="#DejaVuSans-2e"/>
     <use x="250" xlink:href="#DejaVuSans-31"/>
     <use x="313.623047" xlink:href="#DejaVuSans-2e"/>
     <use x="345.410156" xlink:href="#DejaVuSans-31"/>
     <use x="409.033203" xlink:href="#DejaVuSans-30"/>
    </g>
   </g>
  </g>
 </g>
 <defs>
  <clipPath id="p7f5d50fd24">
   <rect height="285.76" width="445.152" x="5.52" y="5.52"/>
  </clipPath>
 </defs>
</svg>
