<?xml version="1.0" encoding="utf-8" standalone="no"?>
<!DOCTYPE svg PUBLIC "-//W3C//DTD SVG 1.1//EN"
  "http://www.w3.org/Graphics/SVG/1.1/DTD/svg11.dtd">
<!-- Created with matplotlib (http://matplotlib.org/) -->
<svg height="345.6pt" version="1.1" viewBox="0 0 460.8 345.6" width="460.8pt" xmlns="http://www.w3.org/2000/svg" xmlns:xlink="http://www.w3.org/1999/xlink">
 <defs>
  <style type="text/css">
*{stroke-linecap:butt;stroke-linejoin:round;}
  </style>
 </defs>
 <g id="figure_1">
  <g id="patch_1">
   <path d="M 0 345.6 
L 460.8 345.6 
L 460.8 0 
L 0 0 
z
" style="fill:#ffffff;"/>
  </g>
  <g id="axes_1">
   <g id="patch_2">
    <path d="M 5.52 291.28 
L 450.672 291.28 
L 450.672 5.52 
L 5.52 5.52 
z
" style="fill:#ffffff;"/>
   </g>
   <g id="matplotlib.axis_1">
    <g id="xtick_1">
     <g id="line2d_1">
      <path clip-path="url(#p5778380ed8)" d="M 5.408753 291.28 
L 5.408753 5.52 
" style="fill:none;stroke:#b0b0b0;stroke-linecap:square;stroke-width:0.8;"/>
     </g>
     <g id="line2d_2">
      <defs>
       <path d="M 0 0 
L 0 3.5 
" id="mbdf97b096c" style="stroke:#000000;stroke-width:0.8;"/>
      </defs>
      <g>
       <use style="stroke:#000000;stroke-width:0.8;" x="5.408753" xlink:href="#mbdf97b096c" y="291.28"/>
      </g>
     </g>
    </g>
    <g id="xtick_2">
     <g id="line2d_3">
      <path clip-path="url(#p5778380ed8)" d="M 108.382676 291.28 
L 108.382676 5.52 
" style="fill:none;stroke:#b0b0b0;stroke-linecap:square;stroke-width:0.8;"/>
     </g>
     <g id="line2d_4">
      <g>
       <use style="stroke:#000000;stroke-width:0.8;" x="108.382676" xlink:href="#mbdf97b096c" y="291.28"/>
      </g>
     </g>
     <g id="text_1">
      <!-- -4 -->
      <defs>
       <path d="M 4.890625 31.390625 
L 31.203125 31.390625 
L 31.203125 23.390625 
L 4.890625 23.390625 
z
" id="DejaVuSans-2d"/>
       <path d="M 37.796875 64.3125 
L 12.890625 25.390625 
L 37.796875 25.390625 
z
M 35.203125 72.90625 
L 47.609375 72.90625 
L 47.609375 25.390625 
L 58.015625 25.390625 
L 58.015625 17.1875 
L 47.609375 17.1875 
L 47.609375 0 
L 37.796875 0 
L 37.796875 17.1875 
L 4.890625 17.1875 
L 4.890625 26.703125 
z
" id="DejaVuSans-34"/>
      </defs>
      <g transform="translate(98.412363 313.476875)scale(0.2 -0.2)">
       <use xlink:href="#DejaVuSans-2d"/>
       <use x="36.083984" xlink:href="#DejaVuSans-34"/>
      </g>
     </g>
    </g>
    <g id="xtick_3">
     <g id="line2d_5">
      <path clip-path="url(#p5778380ed8)" d="M 211.356599 291.28 
L 211.356599 5.52 
" style="fill:none;stroke:#b0b0b0;stroke-linecap:square;stroke-width:0.8;"/>
     </g>
     <g id="line2d_6">
      <g>
       <use style="stroke:#000000;stroke-width:0.8;" x="211.356599" xlink:href="#mbdf97b096c" y="291.28"/>
      </g>
     </g>
     <g id="text_2">
      <!-- 0 -->
      <defs>
       <path d="M 31.78125 66.40625 
Q 24.171875 66.40625 20.328125 58.90625 
Q 16.5 51.421875 16.5 36.375 
Q 16.5 21.390625 20.328125 13.890625 
Q 24.171875 6.390625 31.78125 6.390625 
Q 39.453125 6.390625 43.28125 13.890625 
Q 47.125 21.390625 47.125 36.375 
Q 47.125 51.421875 43.28125 58.90625 
Q 39.453125 66.40625 31.78125 66.40625 
z
M 31.78125 74.21875 
Q 44.046875 74.21875 50.515625 64.515625 
Q 56.984375 54.828125 56.984375 36.375 
Q 56.984375 17.96875 50.515625 8.265625 
Q 44.046875 -1.421875 31.78125 -1.421875 
Q 19.53125 -1.421875 13.0625 8.265625 
Q 6.59375 17.96875 6.59375 36.375 
Q 6.59375 54.828125 13.0625 64.515625 
Q 19.53125 74.21875 31.78125 74.21875 
z
" id="DejaVuSans-30"/>
      </defs>
      <g transform="translate(204.994099 313.476875)scale(0.2 -0.2)">
       <use xlink:href="#DejaVuSans-30"/>
      </g>
     </g>
    </g>
    <g id="xtick_4">
     <g id="line2d_7">
      <path clip-path="url(#p5778380ed8)" d="M 314.330522 291.28 
L 314.330522 5.52 
" style="fill:none;stroke:#b0b0b0;stroke-linecap:square;stroke-width:0.8;"/>
     </g>
     <g id="line2d_8">
      <g>
       <use style="stroke:#000000;stroke-width:0.8;" x="314.330522" xlink:href="#mbdf97b096c" y="291.28"/>
      </g>
     </g>
     <g id="text_3">
      <!-- 4 -->
      <g transform="translate(307.968022 313.476875)scale(0.2 -0.2)">
       <use xlink:href="#DejaVuSans-34"/>
      </g>
     </g>
    </g>
    <g id="xtick_5">
     <g id="line2d_9">
      <path clip-path="url(#p5778380ed8)" d="M 417.304445 291.28 
L 417.304445 5.52 
" style="fill:none;stroke:#b0b0b0;stroke-linecap:square;stroke-width:0.8;"/>
     </g>
     <g id="line2d_10">
      <g>
       <use style="stroke:#000000;stroke-width:0.8;" x="417.304445" xlink:href="#mbdf97b096c" y="291.28"/>
      </g>
     </g>
     <g id="text_4">
      <!-- 8 -->
      <defs>
       <path d="M 31.78125 34.625 
Q 24.75 34.625 20.71875 30.859375 
Q 16.703125 27.09375 16.703125 20.515625 
Q 16.703125 13.921875 20.71875 10.15625 
Q 24.75 6.390625 31.78125 6.390625 
Q 38.8125 6.390625 42.859375 10.171875 
Q 46.921875 13.96875 46.921875 20.515625 
Q 46.921875 27.09375 42.890625 30.859375 
Q 38.875 34.625 31.78125 34.625 
z
M 21.921875 38.8125 
Q 15.578125 40.375 12.03125 44.71875 
Q 8.5 49.078125 8.5 55.328125 
Q 8.5 64.0625 14.71875 69.140625 
Q 20.953125 74.21875 31.78125 74.21875 
Q 42.671875 74.21875 48.875 69.140625 
Q 55.078125 64.0625 55.078125 55.328125 
Q 55.078125 49.078125 51.53125 44.71875 
Q 48 40.375 41.703125 38.8125 
Q 48.828125 37.15625 52.796875 32.3125 
Q 56.78125 27.484375 56.78125 20.515625 
Q 56.78125 9.90625 50.3125 4.234375 
Q 43.84375 -1.421875 31.78125 -1.421875 
Q 19.734375 -1.421875 13.25 4.234375 
Q 6.78125 9.90625 6.78125 20.515625 
Q 6.78125 27.484375 10.78125 32.3125 
Q 14.796875 37.15625 21.921875 38.8125 
z
M 18.3125 54.390625 
Q 18.3125 48.734375 21.84375 45.5625 
Q 25.390625 42.390625 31.78125 42.390625 
Q 38.140625 42.390625 41.71875 45.5625 
Q 45.3125 48.734375 45.3125 54.390625 
Q 45.3125 60.0625 41.71875 63.234375 
Q 38.140625 66.40625 31.78125 66.40625 
Q 25.390625 66.40625 21.84375 63.234375 
Q 18.3125 60.0625 18.3125 54.390625 
z
" id="DejaVuSans-38"/>
      </defs>
      <g transform="translate(410.941945 313.476875)scale(0.2 -0.2)">
       <use xlink:href="#DejaVuSans-38"/>
      </g>
     </g>
    </g>
    <g id="text_5">
     <!-- log10 of Df -->
     <defs>
      <path d="M 9.421875 75.984375 
L 18.40625 75.984375 
L 18.40625 0 
L 9.421875 0 
z
" id="DejaVuSans-6c"/>
      <path d="M 30.609375 48.390625 
Q 23.390625 48.390625 19.1875 42.75 
Q 14.984375 37.109375 14.984375 27.296875 
Q 14.984375 17.484375 19.15625 11.84375 
Q 23.34375 6.203125 30.609375 6.203125 
Q 37.796875 6.203125 41.984375 11.859375 
Q 46.1875 17.53125 46.1875 27.296875 
Q 46.1875 37.015625 41.984375 42.703125 
Q 37.796875 48.390625 30.609375 48.390625 
z
M 30.609375 56 
Q 42.328125 56 49.015625 48.375 
Q 55.71875 40.765625 55.71875 27.296875 
Q 55.71875 13.875 49.015625 6.21875 
Q 42.328125 -1.421875 30.609375 -1.421875 
Q 18.84375 -1.421875 12.171875 6.21875 
Q 5.515625 13.875 5.515625 27.296875 
Q 5.515625 40.765625 12.171875 48.375 
Q 18.84375 56 30.609375 56 
z
" id="DejaVuSans-6f"/>
      <path d="M 45.40625 27.984375 
Q 45.40625 37.75 41.375 43.109375 
Q 37.359375 48.484375 30.078125 48.484375 
Q 22.859375 48.484375 18.828125 43.109375 
Q 14.796875 37.75 14.796875 27.984375 
Q 14.796875 18.265625 18.828125 12.890625 
Q 22.859375 7.515625 30.078125 7.515625 
Q 37.359375 7.515625 41.375 12.890625 
Q 45.40625 18.265625 45.40625 27.984375 
z
M 54.390625 6.78125 
Q 54.390625 -7.171875 48.1875 -13.984375 
Q 42 -20.796875 29.203125 -20.796875 
Q 24.46875 -20.796875 20.265625 -20.09375 
Q 16.0625 -19.390625 12.109375 -17.921875 
L 12.109375 -9.1875 
Q 16.0625 -11.328125 19.921875 -12.34375 
Q 23.78125 -13.375 27.78125 -13.375 
Q 36.625 -13.375 41.015625 -8.765625 
Q 45.40625 -4.15625 45.40625 5.171875 
L 45.40625 9.625 
Q 42.625 4.78125 38.28125 2.390625 
Q 33.9375 0 27.875 0 
Q 17.828125 0 11.671875 7.65625 
Q 5.515625 15.328125 5.515625 27.984375 
Q 5.515625 40.671875 11.671875 48.328125 
Q 17.828125 56 27.875 56 
Q 33.9375 56 38.28125 53.609375 
Q 42.625 51.21875 45.40625 46.390625 
L 45.40625 54.6875 
L 54.390625 54.6875 
z
" id="DejaVuSans-67"/>
      <path d="M 12.40625 8.296875 
L 28.515625 8.296875 
L 28.515625 63.921875 
L 10.984375 60.40625 
L 10.984375 69.390625 
L 28.421875 72.90625 
L 38.28125 72.90625 
L 38.28125 8.296875 
L 54.390625 8.296875 
L 54.390625 0 
L 12.40625 0 
z
" id="DejaVuSans-31"/>
      <path id="DejaVuSans-20"/>
      <path d="M 37.109375 75.984375 
L 37.109375 68.5 
L 28.515625 68.5 
Q 23.6875 68.5 21.796875 66.546875 
Q 19.921875 64.59375 19.921875 59.515625 
L 19.921875 54.6875 
L 34.71875 54.6875 
L 34.71875 47.703125 
L 19.921875 47.703125 
L 19.921875 0 
L 10.890625 0 
L 10.890625 47.703125 
L 2.296875 47.703125 
L 2.296875 54.6875 
L 10.890625 54.6875 
L 10.890625 58.5 
Q 10.890625 67.625 15.140625 71.796875 
Q 19.390625 75.984375 28.609375 75.984375 
z
" id="DejaVuSans-66"/>
      <path d="M 19.671875 64.796875 
L 19.671875 8.109375 
L 31.59375 8.109375 
Q 46.6875 8.109375 53.6875 14.9375 
Q 60.6875 21.78125 60.6875 36.53125 
Q 60.6875 51.171875 53.6875 57.984375 
Q 46.6875 64.796875 31.59375 64.796875 
z
M 9.8125 72.90625 
L 30.078125 72.90625 
Q 51.265625 72.90625 61.171875 64.09375 
Q 71.09375 55.28125 71.09375 36.53125 
Q 71.09375 17.671875 61.125 8.828125 
Q 51.171875 0 30.078125 0 
L 9.8125 0 
z
" id="DejaVuSans-44"/>
     </defs>
     <g transform="translate(172.910063 336.833125)scale(0.2 -0.2)">
      <use xlink:href="#DejaVuSans-6c"/>
      <use x="27.783203" xlink:href="#DejaVuSans-6f"/>
      <use x="88.964844" xlink:href="#DejaVuSans-67"/>
      <use x="152.441406" xlink:href="#DejaVuSans-31"/>
      <use x="216.064453" xlink:href="#DejaVuSans-30"/>
      <use x="279.6875" xlink:href="#DejaVuSans-20"/>
      <use x="311.474609" xlink:href="#DejaVuSans-6f"/>
      <use x="372.65625" xlink:href="#DejaVuSans-66"/>
      <use x="407.861328" xlink:href="#DejaVuSans-20"/>
      <use x="439.648438" xlink:href="#DejaVuSans-44"/>
      <use x="516.650391" xlink:href="#DejaVuSans-66"/>
     </g>
    </g>
   </g>
   <g id="matplotlib.axis_2">
    <g id="ytick_1">
     <g id="line2d_11">
      <path clip-path="url(#p5778380ed8)" d="M 5.52 291.28 
L 450.672 291.28 
" style="fill:none;stroke:#b0b0b0;stroke-linecap:square;stroke-width:0.8;"/>
     </g>
     <g id="line2d_12">
      <defs>
       <path d="M 0 0 
L -3.5 0 
" id="mc4679879da" style="stroke:#000000;stroke-width:0.8;"/>
      </defs>
      <g>
       <use style="stroke:#000000;stroke-width:0.8;" x="5.52" xlink:href="#mc4679879da" y="291.28"/>
      </g>
     </g>
    </g>
    <g id="ytick_2">
     <g id="line2d_13">
      <path clip-path="url(#p5778380ed8)" d="M 5.52 234.693861 
L 450.672 234.693861 
" style="fill:none;stroke:#b0b0b0;stroke-linecap:square;stroke-width:0.8;"/>
     </g>
     <g id="line2d_14">
      <g>
       <use style="stroke:#000000;stroke-width:0.8;" x="5.52" xlink:href="#mc4679879da" y="234.693861"/>
      </g>
     </g>
    </g>
    <g id="ytick_3">
     <g id="line2d_15">
      <path clip-path="url(#p5778380ed8)" d="M 5.52 178.107723 
L 450.672 178.107723 
" style="fill:none;stroke:#b0b0b0;stroke-linecap:square;stroke-width:0.8;"/>
     </g>
     <g id="line2d_16">
      <g>
       <use style="stroke:#000000;stroke-width:0.8;" x="5.52" xlink:href="#mc4679879da" y="178.107723"/>
      </g>
     </g>
    </g>
    <g id="ytick_4">
     <g id="line2d_17">
      <path clip-path="url(#p5778380ed8)" d="M 5.52 121.521584 
L 450.672 121.521584 
" style="fill:none;stroke:#b0b0b0;stroke-linecap:square;stroke-width:0.8;"/>
     </g>
     <g id="line2d_18">
      <g>
       <use style="stroke:#000000;stroke-width:0.8;" x="5.52" xlink:href="#mc4679879da" y="121.521584"/>
      </g>
     </g>
    </g>
    <g id="ytick_5">
     <g id="line2d_19">
      <path clip-path="url(#p5778380ed8)" d="M 5.52 64.935446 
L 450.672 64.935446 
" style="fill:none;stroke:#b0b0b0;stroke-linecap:square;stroke-width:0.8;"/>
     </g>
     <g id="line2d_20">
      <g>
       <use style="stroke:#000000;stroke-width:0.8;" x="5.52" xlink:href="#mc4679879da" y="64.935446"/>
      </g>
     </g>
    </g>
    <g id="ytick_6">
     <g id="line2d_21">
      <path clip-path="url(#p5778380ed8)" d="M 5.52 8.349307 
L 450.672 8.349307 
" style="fill:none;stroke:#b0b0b0;stroke-linecap:square;stroke-width:0.8;"/>
     </g>
     <g id="line2d_22">
      <g>
       <use style="stroke:#000000;stroke-width:0.8;" x="5.52" xlink:href="#mc4679879da" y="8.349307"/>
      </g>
     </g>
    </g>
   </g>
   <g id="line2d_23">
    <path clip-path="url(#p5778380ed8)" d="M 216.889183 291.28 
L 216.889183 286.564488 
L 219.942098 286.564488 
L 219.942098 281.848977 
L 221.735995 281.848977 
L 221.735995 277.133465 
L 223.505569 277.133465 
L 223.505569 272.417954 
L 227.15051 272.417954 
L 227.15051 267.702442 
L 227.719757 267.702442 
L 227.719757 262.986931 
L 228.505552 262.986931 
L 228.505552 258.271419 
L 229.810535 258.271419 
L 229.810535 253.555908 
L 232.100068 253.555908 
L 232.100068 248.840396 
L 232.442416 248.840396 
L 232.442416 244.124884 
L 233.112696 244.124884 
L 233.112696 239.409373 
L 236.077277 239.409373 
L 236.077277 234.693861 
L 237.255163 234.693861 
L 237.255163 229.97835 
L 237.477887 229.97835 
L 237.477887 225.262838 
L 237.947313 225.262838 
L 237.947313 220.547327 
L 238.218198 220.547327 
L 238.218198 215.831815 
L 238.334995 215.831815 
L 238.334995 211.116304 
L 238.568347 211.116304 
L 238.568347 206.400792 
L 239.390511 206.400792 
L 239.390511 201.685281 
L 239.51929 201.685281 
L 239.51929 196.969769 
L 240.083401 196.969769 
L 240.083401 192.254257 
L 240.668696 192.254257 
L 240.668696 187.538746 
L 241.737356 187.538746 
L 241.737356 182.823234 
L 242.463453 182.823234 
L 242.463453 178.107723 
L 242.9586 178.107723 
L 242.9586 173.392211 
L 245.051992 173.392211 
L 245.051992 168.6767 
L 245.746965 168.6767 
L 245.746965 163.961188 
L 246.395772 163.961188 
L 246.395772 159.245677 
L 246.599813 159.245677 
L 246.599813 154.530165 
L 247.639776 154.530165 
L 247.639776 149.814653 
L 248.071399 149.814653 
L 248.071399 145.099142 
L 248.535592 145.099142 
L 248.535592 140.38363 
L 250.452469 140.38363 
L 250.452469 135.668119 
L 250.984572 135.668119 
L 250.984572 130.952607 
L 251.78231 130.952607 
L 251.78231 126.237096 
L 251.861051 126.237096 
L 251.861051 121.521584 
L 253.676861 121.521584 
L 253.676861 116.806073 
L 254.090919 116.806073 
L 254.090919 112.090561 
L 254.217796 112.090561 
L 254.217796 107.37505 
L 254.238332 107.37505 
L 254.238332 102.659538 
L 254.884527 102.659538 
L 254.884527 97.944026 
L 255.002446 97.944026 
L 255.002446 93.228515 
L 256.321773 93.228515 
L 256.321773 88.513003 
L 256.622307 88.513003 
L 256.622307 83.797492 
L 257.911608 83.797492 
L 257.911608 79.08198 
L 258.747028 79.08198 
L 258.747028 74.366469 
L 260.622982 74.366469 
L 260.622982 69.650957 
L 261.773628 69.650957 
L 261.773628 64.935446 
L 264.201693 64.935446 
L 264.201693 60.219934 
L 264.699372 60.219934 
L 264.699372 55.504422 
L 265.739581 55.504422 
L 265.739581 50.788911 
L 265.930251 50.788911 
L 265.930251 46.073399 
L 266.198242 46.073399 
L 266.198242 41.357888 
L 267.939662 41.357888 
L 267.939662 36.642376 
L 269.03306 36.642376 
L 269.03306 31.926865 
L 272.78501 31.926865 
L 272.78501 27.211353 
L 274.134022 27.211353 
L 274.134022 22.495842 
L 275.396019 22.495842 
L 275.396019 17.78033 
L 306.65759 17.78033 
L 306.65759 13.064818 
L 330.012539 13.064818 
L 330.012539 8.349307 
L 330.012539 8.349307 
L 330.012539 8.349307 
L 450.672 8.349307 
" style="fill:none;stroke:#ff0000;stroke-linecap:square;stroke-width:3;"/>
   </g>
   <g id="line2d_24">
    <path clip-path="url(#p5778380ed8)" d="M 248.215859 291.28 
L 248.215859 286.564488 
L 255.416839 286.564488 
L 255.416839 281.848977 
L 257.728089 281.848977 
L 257.728089 277.133465 
L 263.317256 277.133465 
L 263.317256 272.417954 
L 263.44064 272.417954 
L 263.44064 267.702442 
L 264.224804 267.702442 
L 264.224804 262.986931 
L 264.328262 262.986931 
L 264.328262 258.271419 
L 270.037627 258.271419 
L 270.037627 253.555908 
L 270.262478 253.555908 
L 270.262478 248.840396 
L 274.054237 248.840396 
L 274.054237 244.124884 
L 274.305539 244.124884 
L 274.305539 239.409373 
L 277.252616 239.409373 
L 277.252616 234.693861 
L 278.275159 234.693861 
L 278.275159 229.97835 
L 281.337039 229.97835 
L 281.337039 225.262838 
L 285.66382 225.262838 
L 285.66382 220.547327 
L 287.795596 220.547327 
L 287.795596 215.831815 
L 287.801463 215.831815 
L 287.801463 211.116304 
L 295.076584 211.116304 
L 295.076584 206.400792 
L 295.218943 206.400792 
L 295.218943 201.685281 
L 296.589057 201.685281 
L 296.589057 196.969769 
L 298.092315 196.969769 
L 298.092315 192.254257 
L 302.350584 192.254257 
L 302.350584 187.538746 
L 303.305423 187.538746 
L 303.305423 182.823234 
L 305.249098 182.823234 
L 305.249098 178.107723 
L 306.740023 178.107723 
L 306.740023 173.392211 
L 306.969044 173.392211 
L 306.969044 168.6767 
L 307.272588 168.6767 
L 307.272588 163.961188 
L 310.009974 163.961188 
L 310.009974 159.245677 
L 313.627957 159.245677 
L 313.627957 154.530165 
L 314.21497 154.530165 
L 314.21497 149.814653 
L 316.504127 149.814653 
L 316.504127 145.099142 
L 318.094854 145.099142 
L 318.094854 140.38363 
L 319.975328 140.38363 
L 319.975328 135.668119 
L 321.619373 135.668119 
L 321.619373 130.952607 
L 322.868551 130.952607 
L 322.868551 126.237096 
L 323.684951 126.237096 
L 323.684951 121.521584 
L 324.131542 121.521584 
L 324.131542 116.806073 
L 324.207448 116.806073 
L 324.207448 112.090561 
L 326.853034 112.090561 
L 326.853034 107.37505 
L 327.118494 107.37505 
L 327.118494 102.659538 
L 328.246731 102.659538 
L 328.246731 97.944026 
L 328.447562 97.944026 
L 328.447562 93.228515 
L 328.590334 93.228515 
L 328.590334 88.513003 
L 328.616947 88.513003 
L 328.616947 83.797492 
L 330.970795 83.797492 
L 330.970795 79.08198 
L 331.290982 79.08198 
L 331.290982 74.366469 
L 334.036723 74.366469 
L 334.036723 69.650957 
L 337.816891 69.650957 
L 337.816891 64.935446 
L 340.04512 64.935446 
L 340.04512 60.219934 
L 341.04778 60.219934 
L 341.04778 55.504422 
L 344.995833 55.504422 
L 344.995833 50.788911 
L 345.275778 50.788911 
L 345.275778 46.073399 
L 345.68996 46.073399 
L 345.68996 41.357888 
L 346.045936 41.357888 
L 346.045936 36.642376 
L 347.281769 36.642376 
L 347.281769 31.926865 
L 347.50618 31.926865 
L 347.50618 27.211353 
L 351.706663 27.211353 
L 351.706663 22.495842 
L 356.911767 22.495842 
L 356.911767 17.78033 
L 357.5046 17.78033 
L 357.5046 13.064818 
L 359.124938 13.064818 
L 359.124938 8.349307 
L 359.124938 8.349307 
L 359.124938 8.349307 
L 450.672 8.349307 
" style="fill:none;stroke:#00bfbf;stroke-linecap:square;stroke-width:1.5;"/>
   </g>
   <g id="line2d_25">
    <path clip-path="url(#p5778380ed8)" d="M 246.506931 291.28 
L 246.506931 286.564488 
L 246.850814 286.564488 
L 246.850814 281.848977 
L 248.215859 281.848977 
L 248.215859 277.133465 
L 252.780795 277.133465 
L 252.780795 272.417954 
L 257.728089 272.417954 
L 257.728089 267.702442 
L 260.145461 267.702442 
L 260.145461 262.986931 
L 262.452795 262.986931 
L 262.452795 258.271419 
L 263.115595 258.271419 
L 263.115595 253.555908 
L 263.145083 253.555908 
L 263.145083 248.840396 
L 263.44064 248.840396 
L 263.44064 244.124884 
L 264.328262 244.124884 
L 264.328262 239.409373 
L 268.365716 239.409373 
L 268.365716 234.693861 
L 269.566059 234.693861 
L 269.566059 229.97835 
L 269.603683 229.97835 
L 269.603683 225.262838 
L 270.037627 225.262838 
L 270.037627 220.547327 
L 271.580294 220.547327 
L 271.580294 215.831815 
L 277.252616 215.831815 
L 277.252616 211.116304 
L 277.483226 211.116304 
L 277.483226 206.400792 
L 278.369713 206.400792 
L 278.369713 201.685281 
L 284.732215 201.685281 
L 284.732215 196.969769 
L 287.795596 196.969769 
L 287.795596 192.254257 
L 292.812114 192.254257 
L 292.812114 187.538746 
L 295.218943 187.538746 
L 295.218943 182.823234 
L 296.589057 182.823234 
L 296.589057 178.107723 
L 298.092315 178.107723 
L 298.092315 173.392211 
L 300.621374 173.392211 
L 300.621374 168.6767 
L 302.737474 168.6767 
L 302.737474 163.961188 
L 303.211084 163.961188 
L 303.211084 159.245677 
L 303.305423 159.245677 
L 303.305423 154.530165 
L 303.895687 154.530165 
L 303.895687 149.814653 
L 304.171082 149.814653 
L 304.171082 145.099142 
L 306.740023 145.099142 
L 306.740023 140.38363 
L 306.969044 140.38363 
L 306.969044 135.668119 
L 307.458069 135.668119 
L 307.458069 130.952607 
L 308.16448 130.952607 
L 308.16448 126.237096 
L 308.27314 126.237096 
L 308.27314 121.521584 
L 309.234833 121.521584 
L 309.234833 116.806073 
L 309.962832 116.806073 
L 309.962832 112.090561 
L 310.009974 112.090561 
L 310.009974 107.37505 
L 310.429714 107.37505 
L 310.429714 102.659538 
L 310.576815 102.659538 
L 310.576815 97.944026 
L 311.399769 97.944026 
L 311.399769 93.228515 
L 311.488157 93.228515 
L 311.488157 88.513003 
L 313.627957 88.513003 
L 313.627957 83.797492 
L 314.21497 83.797492 
L 314.21497 79.08198 
L 315.74513 79.08198 
L 315.74513 74.366469 
L 316.894557 74.366469 
L 316.894557 69.650957 
L 317.395676 69.650957 
L 317.395676 64.935446 
L 318.094854 64.935446 
L 318.094854 60.219934 
L 322.868551 60.219934 
L 322.868551 55.504422 
L 324.883111 55.504422 
L 324.883111 50.788911 
L 327.85501 50.788911 
L 327.85501 46.073399 
L 328.246731 46.073399 
L 328.246731 41.357888 
L 328.611134 41.357888 
L 328.611134 36.642376 
L 329.760305 36.642376 
L 329.760305 31.926865 
L 334.595482 31.926865 
L 334.595482 27.211353 
L 341.301169 27.211353 
L 341.301169 22.495842 
L 342.790764 22.495842 
L 342.790764 17.78033 
L 347.898915 17.78033 
L 347.898915 13.064818 
L 356.304697 13.064818 
L 356.304697 8.349307 
L 356.304697 8.349307 
L 356.304697 8.349307 
L 450.672 8.349307 
" style="fill:none;stroke:#bf00bf;stroke-linecap:square;stroke-width:1.5;"/>
   </g>
   <g id="line2d_26">
    <path clip-path="url(#p5778380ed8)" d="M 244.808717 291.28 
L 244.808717 286.564488 
L 246.506931 286.564488 
L 246.506931 281.848977 
L 247.867361 281.848977 
L 247.867361 277.133465 
L 248.215859 277.133465 
L 248.215859 272.417954 
L 251.52769 272.417954 
L 251.52769 267.702442 
L 252.440251 267.702442 
L 252.440251 262.986931 
L 252.907885 262.986931 
L 252.907885 258.271419 
L 256.198308 258.271419 
L 256.198308 253.555908 
L 256.974924 253.555908 
L 256.974924 248.840396 
L 258.163097 248.840396 
L 258.163097 244.124884 
L 258.943886 244.124884 
L 258.943886 239.409373 
L 261.338751 239.409373 
L 261.338751 234.693861 
L 262.333839 234.693861 
L 262.333839 229.97835 
L 262.452795 229.97835 
L 262.452795 225.262838 
L 263.115595 225.262838 
L 263.115595 220.547327 
L 264.126108 220.547327 
L 264.126108 215.831815 
L 264.328262 215.831815 
L 264.328262 211.116304 
L 265.353229 211.116304 
L 265.353229 206.400792 
L 268.365716 206.400792 
L 268.365716 201.685281 
L 269.770773 201.685281 
L 269.770773 196.969769 
L 271.178011 196.969769 
L 271.178011 192.254257 
L 278.060281 192.254257 
L 278.060281 187.538746 
L 278.369713 187.538746 
L 278.369713 182.823234 
L 283.628455 182.823234 
L 283.628455 178.107723 
L 284.732215 178.107723 
L 284.732215 173.392211 
L 285.975177 173.392211 
L 285.975177 168.6767 
L 286.119647 168.6767 
L 286.119647 163.961188 
L 290.13525 163.961188 
L 290.13525 159.245677 
L 290.693798 159.245677 
L 290.693798 154.530165 
L 291.249859 154.530165 
L 291.249859 149.814653 
L 293.214037 149.814653 
L 293.214037 145.099142 
L 294.20974 145.099142 
L 294.20974 140.38363 
L 295.218943 140.38363 
L 295.218943 135.668119 
L 298.092315 135.668119 
L 298.092315 130.952607 
L 299.190686 130.952607 
L 299.190686 126.237096 
L 299.50224 126.237096 
L 299.50224 121.521584 
L 300.333633 121.521584 
L 300.333633 116.806073 
L 301.008512 116.806073 
L 301.008512 112.090561 
L 303.305423 112.090561 
L 303.305423 107.37505 
L 303.356222 107.37505 
L 303.356222 102.659538 
L 304.291307 102.659538 
L 304.291307 97.944026 
L 304.649459 97.944026 
L 304.649459 93.228515 
L 304.809228 93.228515 
L 304.809228 88.513003 
L 306.06353 88.513003 
L 306.06353 83.797492 
L 306.740023 83.797492 
L 306.740023 79.08198 
L 306.868621 79.08198 
L 306.868621 74.366469 
L 307.498737 74.366469 
L 307.498737 69.650957 
L 307.684328 69.650957 
L 307.684328 64.935446 
L 308.16448 64.935446 
L 308.16448 60.219934 
L 309.234833 60.219934 
L 309.234833 55.504422 
L 310.576815 55.504422 
L 310.576815 50.788911 
L 313.627957 50.788911 
L 313.627957 46.073399 
L 314.558782 46.073399 
L 314.558782 41.357888 
L 318.094854 41.357888 
L 318.094854 36.642376 
L 322.868551 36.642376 
L 322.868551 31.926865 
L 325.602818 31.926865 
L 325.602818 27.211353 
L 330.559203 27.211353 
L 330.559203 22.495842 
L 334.704103 22.495842 
L 334.704103 17.78033 
L 341.301169 17.78033 
L 341.301169 13.064818 
L 347.61499 13.064818 
L 347.61499 8.349307 
L 347.61499 8.349307 
L 347.61499 8.349307 
L 450.672 8.349307 
" style="fill:none;stroke:#000000;stroke-linecap:square;stroke-width:1.5;"/>
   </g>
   <g id="line2d_27">
    <path clip-path="url(#p5778380ed8)" d="M 230.694387 291.28 
L 230.694387 286.564488 
L 238.198581 286.564488 
L 238.198581 281.848977 
L 241.071939 281.848977 
L 241.071939 277.133465 
L 241.62846 277.133465 
L 241.62846 272.417954 
L 244.808717 272.417954 
L 244.808717 267.702442 
L 245.453487 267.702442 
L 245.453487 262.986931 
L 247.609629 262.986931 
L 247.609629 258.271419 
L 247.756427 258.271419 
L 247.756427 253.555908 
L 248.215859 253.555908 
L 248.215859 248.840396 
L 249.481418 248.840396 
L 249.481418 244.124884 
L 249.767686 244.124884 
L 249.767686 239.409373 
L 252.907885 239.409373 
L 252.907885 234.693861 
L 253.773533 234.693861 
L 253.773533 229.97835 
L 254.594371 229.97835 
L 254.594371 225.262838 
L 254.597104 225.262838 
L 254.597104 220.547327 
L 254.863627 220.547327 
L 254.863627 215.831815 
L 255.258931 215.831815 
L 255.258931 211.116304 
L 256.285031 211.116304 
L 256.285031 206.400792 
L 258.235748 206.400792 
L 258.235748 201.685281 
L 258.633518 201.685281 
L 258.633518 196.969769 
L 263.000175 196.969769 
L 263.000175 192.254257 
L 263.539937 192.254257 
L 263.539937 187.538746 
L 265.024121 187.538746 
L 265.024121 182.823234 
L 265.311718 182.823234 
L 265.311718 178.107723 
L 271.425909 178.107723 
L 271.425909 173.392211 
L 276.206502 173.392211 
L 276.206502 168.6767 
L 276.54517 168.6767 
L 276.54517 163.961188 
L 276.559047 163.961188 
L 276.559047 159.245677 
L 277.100489 159.245677 
L 277.100489 154.530165 
L 281.126951 154.530165 
L 281.126951 149.814653 
L 282.197277 149.814653 
L 282.197277 145.099142 
L 282.640927 145.099142 
L 282.640927 140.38363 
L 283.533783 140.38363 
L 283.533783 135.668119 
L 284.608997 135.668119 
L 284.608997 130.952607 
L 285.129008 130.952607 
L 285.129008 126.237096 
L 285.531944 126.237096 
L 285.531944 121.521584 
L 285.929582 121.521584 
L 285.929582 116.806073 
L 286.054382 116.806073 
L 286.054382 112.090561 
L 286.22865 112.090561 
L 286.22865 107.37505 
L 286.828278 107.37505 
L 286.828278 102.659538 
L 289.395564 102.659538 
L 289.395564 97.944026 
L 291.150636 97.944026 
L 291.150636 93.228515 
L 291.954607 93.228515 
L 291.954607 88.513003 
L 292.047357 88.513003 
L 292.047357 83.797492 
L 292.582308 83.797492 
L 292.582308 79.08198 
L 293.923711 79.08198 
L 293.923711 74.366469 
L 294.997218 74.366469 
L 294.997218 69.650957 
L 295.038375 69.650957 
L 295.038375 64.935446 
L 295.11249 64.935446 
L 295.11249 60.219934 
L 297.647927 60.219934 
L 297.647927 55.504422 
L 298.533238 55.504422 
L 298.533238 50.788911 
L 300.349981 50.788911 
L 300.349981 46.073399 
L 300.361978 46.073399 
L 300.361978 41.357888 
L 301.163522 41.357888 
L 301.163522 36.642376 
L 303.264282 36.642376 
L 303.264282 31.926865 
L 315.295321 31.926865 
L 315.295321 27.211353 
L 325.80003 27.211353 
L 325.80003 22.495842 
L 330.498222 22.495842 
L 330.498222 17.78033 
L 338.780713 17.78033 
L 338.780713 13.064818 
L 344.49269 13.064818 
L 344.49269 8.349307 
L 344.49269 8.349307 
L 344.49269 8.349307 
L 450.672 8.349307 
" style="fill:none;stroke:#00bfbf;stroke-linecap:square;stroke-width:1.5;"/>
   </g>
   <g id="line2d_28">
    <path clip-path="url(#p5778380ed8)" d="M 223.505569 291.28 
L 223.505569 286.564488 
L 227.049111 286.564488 
L 227.049111 281.848977 
L 227.15051 281.848977 
L 227.15051 277.133465 
L 229.929558 277.133465 
L 229.929558 272.417954 
L 233.971136 272.417954 
L 233.971136 267.702442 
L 236.871657 267.702442 
L 236.871657 262.986931 
L 237.199187 262.986931 
L 237.199187 258.271419 
L 237.477887 258.271419 
L 237.477887 253.555908 
L 237.921048 253.555908 
L 237.921048 248.840396 
L 237.947313 248.840396 
L 237.947313 244.124884 
L 238.982623 244.124884 
L 238.982623 239.409373 
L 240.668696 239.409373 
L 240.668696 234.693861 
L 241.071939 234.693861 
L 241.071939 229.97835 
L 241.236685 229.97835 
L 241.236685 225.262838 
L 241.343821 225.262838 
L 241.343821 220.547327 
L 241.484779 220.547327 
L 241.484779 215.831815 
L 241.737356 215.831815 
L 241.737356 211.116304 
L 245.051992 211.116304 
L 245.051992 206.400792 
L 245.820143 206.400792 
L 245.820143 201.685281 
L 246.373272 201.685281 
L 246.373272 196.969769 
L 247.350886 196.969769 
L 247.350886 192.254257 
L 247.505181 192.254257 
L 247.505181 187.538746 
L 248.81273 187.538746 
L 248.81273 182.823234 
L 248.980048 182.823234 
L 248.980048 178.107723 
L 250.259962 178.107723 
L 250.259962 173.392211 
L 250.691032 173.392211 
L 250.691032 168.6767 
L 254.133482 168.6767 
L 254.133482 163.961188 
L 254.488021 163.961188 
L 254.488021 159.245677 
L 255.159904 159.245677 
L 255.159904 154.530165 
L 256.613651 154.530165 
L 256.613651 149.814653 
L 260.513122 149.814653 
L 260.513122 145.099142 
L 262.32498 145.099142 
L 262.32498 140.38363 
L 263.559027 140.38363 
L 263.559027 135.668119 
L 264.114391 135.668119 
L 264.114391 130.952607 
L 266.729362 130.952607 
L 266.729362 126.237096 
L 268.034293 126.237096 
L 268.034293 121.521584 
L 268.317913 121.521584 
L 268.317913 116.806073 
L 268.987866 116.806073 
L 268.987866 112.090561 
L 269.066109 112.090561 
L 269.066109 107.37505 
L 269.26179 107.37505 
L 269.26179 102.659538 
L 269.292191 102.659538 
L 269.292191 97.944026 
L 269.653286 97.944026 
L 269.653286 93.228515 
L 270.090215 93.228515 
L 270.090215 88.513003 
L 270.283633 88.513003 
L 270.283633 83.797492 
L 271.506427 83.797492 
L 271.506427 79.08198 
L 272.313567 79.08198 
L 272.313567 74.366469 
L 272.407312 74.366469 
L 272.407312 69.650957 
L 274.692399 69.650957 
L 274.692399 64.935446 
L 274.70949 64.935446 
L 274.70949 60.219934 
L 274.773682 60.219934 
L 274.773682 55.504422 
L 275.577735 55.504422 
L 275.577735 50.788911 
L 277.319308 50.788911 
L 277.319308 46.073399 
L 277.563878 46.073399 
L 277.563878 41.357888 
L 279.274984 41.357888 
L 279.274984 36.642376 
L 280.067809 36.642376 
L 280.067809 31.926865 
L 280.656441 31.926865 
L 280.656441 27.211353 
L 283.190091 27.211353 
L 283.190091 22.495842 
L 286.13399 22.495842 
L 286.13399 17.78033 
L 317.843549 17.78033 
L 317.843549 13.064818 
L 335.286816 13.064818 
L 335.286816 8.349307 
L 335.286816 8.349307 
L 335.286816 8.349307 
L 450.672 8.349307 
" style="fill:none;stroke:#bf00bf;stroke-linecap:square;stroke-width:1.5;"/>
   </g>
   <g id="line2d_29">
    <path clip-path="url(#p5778380ed8)" d="M 223.067031 291.28 
L 223.067031 286.564488 
L 223.505569 286.564488 
L 223.505569 281.848977 
L 227.15051 281.848977 
L 227.15051 277.133465 
L 227.614816 277.133465 
L 227.614816 272.417954 
L 231.907498 272.417954 
L 231.907498 267.702442 
L 233.611493 267.702442 
L 233.611493 262.986931 
L 233.862095 262.986931 
L 233.862095 258.271419 
L 234.733022 258.271419 
L 234.733022 253.555908 
L 236.077277 253.555908 
L 236.077277 248.840396 
L 237.477887 248.840396 
L 237.477887 244.124884 
L 237.832697 244.124884 
L 237.832697 239.409373 
L 237.947313 239.409373 
L 237.947313 234.693861 
L 238.925758 234.693861 
L 238.925758 229.97835 
L 239.817724 229.97835 
L 239.817724 225.262838 
L 239.887852 225.262838 
L 239.887852 220.547327 
L 239.924018 220.547327 
L 239.924018 215.831815 
L 240.083401 215.831815 
L 240.083401 211.116304 
L 240.668696 211.116304 
L 240.668696 206.400792 
L 241.737356 206.400792 
L 241.737356 201.685281 
L 242.014641 201.685281 
L 242.014641 196.969769 
L 245.051992 196.969769 
L 245.051992 192.254257 
L 245.120804 192.254257 
L 245.120804 187.538746 
L 245.226195 187.538746 
L 245.226195 182.823234 
L 245.746965 182.823234 
L 245.746965 178.107723 
L 246.540134 178.107723 
L 246.540134 173.392211 
L 246.801409 173.392211 
L 246.801409 168.6767 
L 247.310777 168.6767 
L 247.310777 163.961188 
L 247.846938 163.961188 
L 247.846938 159.245677 
L 253.527766 159.245677 
L 253.527766 154.530165 
L 254.244942 154.530165 
L 254.244942 149.814653 
L 254.396434 149.814653 
L 254.396434 145.099142 
L 254.62599 145.099142 
L 254.62599 140.38363 
L 255.837462 140.38363 
L 255.837462 135.668119 
L 256.964482 135.668119 
L 256.964482 130.952607 
L 257.233724 130.952607 
L 257.233724 126.237096 
L 257.799714 126.237096 
L 257.799714 121.521584 
L 258.630289 121.521584 
L 258.630289 116.806073 
L 258.817935 116.806073 
L 258.817935 112.090561 
L 261.066592 112.090561 
L 261.066592 107.37505 
L 261.551948 107.37505 
L 261.551948 102.659538 
L 261.749082 102.659538 
L 261.749082 97.944026 
L 262.002147 97.944026 
L 262.002147 93.228515 
L 262.737117 93.228515 
L 262.737117 88.513003 
L 264.154275 88.513003 
L 264.154275 83.797492 
L 264.569351 83.797492 
L 264.569351 79.08198 
L 265.203161 79.08198 
L 265.203161 74.366469 
L 266.031015 74.366469 
L 266.031015 69.650957 
L 267.180375 69.650957 
L 267.180375 64.935446 
L 267.554366 64.935446 
L 267.554366 60.219934 
L 269.943183 60.219934 
L 269.943183 55.504422 
L 270.089592 55.504422 
L 270.089592 50.788911 
L 270.434901 50.788911 
L 270.434901 46.073399 
L 271.577341 46.073399 
L 271.577341 41.357888 
L 271.736571 41.357888 
L 271.736571 36.642376 
L 275.170152 36.642376 
L 275.170152 31.926865 
L 277.572172 31.926865 
L 277.572172 27.211353 
L 278.565511 27.211353 
L 278.565511 22.495842 
L 281.907838 22.495842 
L 281.907838 17.78033 
L 312.4158 17.78033 
L 312.4158 13.064818 
L 334.524174 13.064818 
L 334.524174 8.349307 
L 334.524174 8.349307 
L 334.524174 8.349307 
L 450.672 8.349307 
" style="fill:none;stroke:#000000;stroke-linecap:square;stroke-width:1.5;"/>
   </g>
   <g id="patch_3">
    <path d="M 5.52 291.28 
L 5.52 5.52 
" style="fill:none;stroke:#000000;stroke-linecap:square;stroke-linejoin:miter;stroke-width:0.8;"/>
   </g>
   <g id="patch_4">
    <path d="M 450.672 291.28 
L 450.672 5.52 
" style="fill:none;stroke:#000000;stroke-linecap:square;stroke-linejoin:miter;stroke-width:0.8;"/>
   </g>
   <g id="patch_5">
    <path d="M 5.52 291.28 
L 450.672 291.28 
" style="fill:none;stroke:#000000;stroke-linecap:square;stroke-linejoin:miter;stroke-width:0.8;"/>
   </g>
   <g id="patch_6">
    <path d="M 5.52 5.52 
L 450.672 5.52 
" style="fill:none;stroke:#000000;stroke-linecap:square;stroke-linejoin:miter;stroke-width:0.8;"/>
   </g>
   <g id="text_6">
    <!-- {f6-f9}, 5-D -->
    <defs>
     <path d="M 51.125 -9.28125 
L 51.125 -16.3125 
L 48.09375 -16.3125 
Q 35.9375 -16.3125 31.8125 -12.6875 
Q 27.6875 -9.078125 27.6875 1.703125 
L 27.6875 13.375 
Q 27.6875 20.75 25.046875 23.578125 
Q 22.40625 26.421875 15.484375 26.421875 
L 12.5 26.421875 
L 12.5 33.40625 
L 15.484375 33.40625 
Q 22.46875 33.40625 25.078125 36.203125 
Q 27.6875 39.015625 27.6875 46.296875 
L 27.6875 58.015625 
Q 27.6875 68.796875 31.8125 72.390625 
Q 35.9375 75.984375 48.09375 75.984375 
L 51.125 75.984375 
L 51.125 69 
L 47.796875 69 
Q 40.921875 69 38.8125 66.84375 
Q 36.71875 64.703125 36.71875 57.8125 
L 36.71875 45.703125 
Q 36.71875 38.03125 34.5 34.5625 
Q 32.28125 31.109375 26.90625 29.890625 
Q 32.328125 28.5625 34.515625 25.09375 
Q 36.71875 21.625 36.71875 14.015625 
L 36.71875 1.90625 
Q 36.71875 -4.984375 38.8125 -7.125 
Q 40.921875 -9.28125 47.796875 -9.28125 
z
" id="DejaVuSans-7b"/>
     <path d="M 33.015625 40.375 
Q 26.375 40.375 22.484375 35.828125 
Q 18.609375 31.296875 18.609375 23.390625 
Q 18.609375 15.53125 22.484375 10.953125 
Q 26.375 6.390625 33.015625 6.390625 
Q 39.65625 6.390625 43.53125 10.953125 
Q 47.40625 15.53125 47.40625 23.390625 
Q 47.40625 31.296875 43.53125 35.828125 
Q 39.65625 40.375 33.015625 40.375 
z
M 52.59375 71.296875 
L 52.59375 62.3125 
Q 48.875 64.0625 45.09375 64.984375 
Q 41.3125 65.921875 37.59375 65.921875 
Q 27.828125 65.921875 22.671875 59.328125 
Q 17.53125 52.734375 16.796875 39.40625 
Q 19.671875 43.65625 24.015625 45.921875 
Q 28.375 48.1875 33.59375 48.1875 
Q 44.578125 48.1875 50.953125 41.515625 
Q 57.328125 34.859375 57.328125 23.390625 
Q 57.328125 12.15625 50.6875 5.359375 
Q 44.046875 -1.421875 33.015625 -1.421875 
Q 20.359375 -1.421875 13.671875 8.265625 
Q 6.984375 17.96875 6.984375 36.375 
Q 6.984375 53.65625 15.1875 63.9375 
Q 23.390625 74.21875 37.203125 74.21875 
Q 40.921875 74.21875 44.703125 73.484375 
Q 48.484375 72.75 52.59375 71.296875 
z
" id="DejaVuSans-36"/>
     <path d="M 10.984375 1.515625 
L 10.984375 10.5 
Q 14.703125 8.734375 18.5 7.8125 
Q 22.3125 6.890625 25.984375 6.890625 
Q 35.75 6.890625 40.890625 13.453125 
Q 46.046875 20.015625 46.78125 33.40625 
Q 43.953125 29.203125 39.59375 26.953125 
Q 35.25 24.703125 29.984375 24.703125 
Q 19.046875 24.703125 12.671875 31.3125 
Q 6.296875 37.9375 6.296875 49.421875 
Q 6.296875 60.640625 12.9375 67.421875 
Q 19.578125 74.21875 30.609375 74.21875 
Q 43.265625 74.21875 49.921875 64.515625 
Q 56.59375 54.828125 56.59375 36.375 
Q 56.59375 19.140625 48.40625 8.859375 
Q 40.234375 -1.421875 26.421875 -1.421875 
Q 22.703125 -1.421875 18.890625 -0.6875 
Q 15.09375 0.046875 10.984375 1.515625 
z
M 30.609375 32.421875 
Q 37.25 32.421875 41.125 36.953125 
Q 45.015625 41.5 45.015625 49.421875 
Q 45.015625 57.28125 41.125 61.84375 
Q 37.25 66.40625 30.609375 66.40625 
Q 23.96875 66.40625 20.09375 61.84375 
Q 16.21875 57.28125 16.21875 49.421875 
Q 16.21875 41.5 20.09375 36.953125 
Q 23.96875 32.421875 30.609375 32.421875 
z
" id="DejaVuSans-39"/>
     <path d="M 12.5 -9.28125 
L 15.921875 -9.28125 
Q 22.75 -9.28125 24.828125 -7.171875 
Q 26.90625 -5.078125 26.90625 1.90625 
L 26.90625 14.015625 
Q 26.90625 21.625 29.09375 25.09375 
Q 31.296875 28.5625 36.71875 29.890625 
Q 31.296875 31.109375 29.09375 34.5625 
Q 26.90625 38.03125 26.90625 45.703125 
L 26.90625 57.8125 
Q 26.90625 64.75 24.828125 66.875 
Q 22.75 69 15.921875 69 
L 12.5 69 
L 12.5 75.984375 
L 15.578125 75.984375 
Q 27.734375 75.984375 31.8125 72.390625 
Q 35.890625 68.796875 35.890625 58.015625 
L 35.890625 46.296875 
Q 35.890625 39.015625 38.515625 36.203125 
Q 41.15625 33.40625 48.09375 33.40625 
L 51.125 33.40625 
L 51.125 26.421875 
L 48.09375 26.421875 
Q 41.15625 26.421875 38.515625 23.578125 
Q 35.890625 20.75 35.890625 13.375 
L 35.890625 1.703125 
Q 35.890625 -9.078125 31.8125 -12.6875 
Q 27.734375 -16.3125 15.578125 -16.3125 
L 12.5 -16.3125 
z
" id="DejaVuSans-7d"/>
     <path d="M 11.71875 12.40625 
L 22.015625 12.40625 
L 22.015625 4 
L 14.015625 -11.625 
L 7.71875 -11.625 
L 11.71875 4 
z
" id="DejaVuSans-2c"/>
     <path d="M 10.796875 72.90625 
L 49.515625 72.90625 
L 49.515625 64.59375 
L 19.828125 64.59375 
L 19.828125 46.734375 
Q 21.96875 47.46875 24.109375 47.828125 
Q 26.265625 48.1875 28.421875 48.1875 
Q 40.625 48.1875 47.75 41.5 
Q 54.890625 34.8125 54.890625 23.390625 
Q 54.890625 11.625 47.5625 5.09375 
Q 40.234375 -1.421875 26.90625 -1.421875 
Q 22.3125 -1.421875 17.546875 -0.640625 
Q 12.796875 0.140625 7.71875 1.703125 
L 7.71875 11.625 
Q 12.109375 9.234375 16.796875 8.0625 
Q 21.484375 6.890625 26.703125 6.890625 
Q 35.15625 6.890625 40.078125 11.328125 
Q 45.015625 15.765625 45.015625 23.390625 
Q 45.015625 31 40.078125 35.4375 
Q 35.15625 39.890625 26.703125 39.890625 
Q 22.75 39.890625 18.8125 39.015625 
Q 14.890625 38.140625 10.796875 36.28125 
z
" id="DejaVuSans-35"/>
    </defs>
    <g transform="translate(321.51896 285.5648)scale(0.2 -0.2)">
     <use xlink:href="#DejaVuSans-7b"/>
     <use x="63.623047" xlink:href="#DejaVuSans-66"/>
     <use x="98.828125" xlink:href="#DejaVuSans-36"/>
     <use x="162.451172" xlink:href="#DejaVuSans-2d"/>
     <use x="198.535156" xlink:href="#DejaVuSans-66"/>
     <use x="233.740234" xlink:href="#DejaVuSans-39"/>
     <use x="297.363281" xlink:href="#DejaVuSans-7d"/>
     <use x="360.986328" xlink:href="#DejaVuSans-2c"/>
     <use x="392.773438" xlink:href="#DejaVuSans-20"/>
     <use x="424.560547" xlink:href="#DejaVuSans-35"/>
     <use x="488.183594" xlink:href="#DejaVuSans-2d"/>
     <use x="524.267578" xlink:href="#DejaVuSans-44"/>
    </g>
   </g>
   <g id="text_7">
    <!-- v2.2.1.10 -->
    <defs>
     <path d="M 2.984375 54.6875 
L 12.5 54.6875 
L 29.59375 8.796875 
L 46.6875 54.6875 
L 56.203125 54.6875 
L 35.6875 0 
L 23.484375 0 
z
" id="DejaVuSans-76"/>
     <path d="M 19.1875 8.296875 
L 53.609375 8.296875 
L 53.609375 0 
L 7.328125 0 
L 7.328125 8.296875 
Q 12.9375 14.109375 22.625 23.890625 
Q 32.328125 33.6875 34.8125 36.53125 
Q 39.546875 41.84375 41.421875 45.53125 
Q 43.3125 49.21875 43.3125 52.78125 
Q 43.3125 58.59375 39.234375 62.25 
Q 35.15625 65.921875 28.609375 65.921875 
Q 23.96875 65.921875 18.8125 64.3125 
Q 13.671875 62.703125 7.8125 59.421875 
L 7.8125 69.390625 
Q 13.765625 71.78125 18.9375 73 
Q 24.125 74.21875 28.421875 74.21875 
Q 39.75 74.21875 46.484375 68.546875 
Q 53.21875 62.890625 53.21875 53.421875 
Q 53.21875 48.921875 51.53125 44.890625 
Q 49.859375 40.875 45.40625 35.40625 
Q 44.1875 33.984375 37.640625 27.21875 
Q 31.109375 20.453125 19.1875 8.296875 
z
" id="DejaVuSans-32"/>
     <path d="M 10.6875 12.40625 
L 21 12.40625 
L 21 0 
L 10.6875 0 
z
" id="DejaVuSans-2e"/>
    </defs>
    <g style="fill:#808080;" transform="translate(204.463188 286.342713)scale(0.1 -0.1)">
     <use xlink:href="#DejaVuSans-76"/>
     <use x="59.179688" xlink:href="#DejaVuSans-32"/>
     <use x="122.802734" xlink:href="#DejaVuSans-2e"/>
     <use x="154.589844" xlink:href="#DejaVuSans-32"/>
     <use x="218.212891" xlink:href="#DejaVuSans-2e"/>
     <use x="250" xlink:href="#DejaVuSans-31"/>
     <use x="313.623047" xlink:href="#DejaVuSans-2e"/>
     <use x="345.410156" xlink:href="#DejaVuSans-31"/>
     <use x="409.033203" xlink:href="#DejaVuSans-30"/>
    </g>
   </g>
  </g>
 </g>
 <defs>
  <clipPath id="p5778380ed8">
   <rect height="285.76" width="445.152" x="5.52" y="5.52"/>
  </clipPath>
 </defs>
</svg>
