<?xml version="1.0" encoding="utf-8" standalone="no"?>
<!DOCTYPE svg PUBLIC "-//W3C//DTD SVG 1.1//EN"
  "http://www.w3.org/Graphics/SVG/1.1/DTD/svg11.dtd">
<!-- Created with matplotlib (http://matplotlib.org/) -->
<svg height="345.6pt" version="1.1" viewBox="0 0 460.8 345.6" width="460.8pt" xmlns="http://www.w3.org/2000/svg" xmlns:xlink="http://www.w3.org/1999/xlink">
 <defs>
  <style type="text/css">
*{stroke-linecap:butt;stroke-linejoin:round;}
  </style>
 </defs>
 <g id="figure_1">
  <g id="patch_1">
   <path d="M 0 345.6 
L 460.8 345.6 
L 460.8 0 
L 0 0 
z
" style="fill:#ffffff;"/>
  </g>
  <g id="axes_1">
   <g id="patch_2">
    <path d="M 59.72 291.28 
L 450.672 291.28 
L 450.672 6.125228 
L 59.72 6.125228 
z
" style="fill:#ffffff;"/>
   </g>
   <g id="line2d_1">
    <path clip-path="url(#pe6021d9b18)" d="M 283.952259 291.28 
L 283.952259 287.515581 
L 288.712937 287.515581 
L 288.712937 283.751161 
L 290.206245 283.751161 
L 290.206245 279.986742 
L 291.986282 279.986742 
L 291.986282 276.222322 
L 292.204496 276.222322 
L 292.204496 272.457903 
L 292.63815 272.457903 
L 292.63815 268.693483 
L 298.545123 268.693483 
L 298.545123 264.929064 
L 301.169847 264.929064 
L 301.169847 261.164645 
L 304.700274 261.164645 
L 304.700274 257.400225 
L 309.886573 257.400225 
L 309.886573 253.635806 
L 311.330243 253.635806 
L 311.330243 249.871386 
L 320.056897 249.871386 
L 320.056897 246.106967 
L 330.066304 246.106967 
L 330.066304 242.342547 
L 337.093669 242.342547 
L 337.093669 238.578128 
L 338.124743 238.578128 
L 338.124743 234.813708 
L 339.091919 234.813708 
L 339.091919 231.049289 
L 340.083885 231.049289 
L 340.083885 227.28487 
L 340.466871 227.28487 
L 340.466871 223.52045 
L 344.186314 223.52045 
L 344.186314 219.756031 
L 345.394058 219.756031 
L 345.394058 215.991611 
L 362.924216 215.991611 
L 362.924216 212.227192 
L 364.246396 212.227192 
L 364.246396 208.462772 
L 365.871838 208.462772 
L 365.871838 204.698353 
L 369.314454 204.698353 
L 369.314454 200.933934 
L 381.646317 200.933934 
L 381.646317 197.169514 
L 387.124848 197.169514 
L 387.124848 193.405095 
L 391.30973 193.405095 
L 391.30973 189.640675 
L 406.666353 189.640675 
L 406.666353 185.876256 
L 406.666353 185.876256 
L 406.666353 185.876256 
L 450.672 185.876256 
" style="fill:none;stroke:#f5deb3;stroke-linecap:square;stroke-width:1.5;"/>
   </g>
   <g id="line2d_2">
    <path clip-path="url(#pe6021d9b18)" d="M 383.908588 291.28 
L 383.908588 279.986742 
L 407.918268 279.986742 
L 407.918268 268.693483 
L 425.844115 268.693483 
L 425.844115 257.400225 
L 461.8 257.400225 
" style="fill:none;stroke:#f5deb3;stroke-linecap:square;stroke-width:1.5;"/>
   </g>
   <g id="line2d_3">
    <path clip-path="url(#pe6021d9b18)" d="M 233.420059 291.28 
L 233.420059 287.515581 
L 239.561472 287.515581 
L 239.561472 283.751161 
L 287.890425 283.751161 
L 287.890425 279.986742 
L 289.865483 279.986742 
L 289.865483 276.222322 
L 292.853607 276.222322 
L 292.853607 272.457903 
L 301.534054 272.457903 
L 301.534054 268.693483 
L 306.789173 268.693483 
L 306.789173 264.929064 
L 311.330243 264.929064 
L 311.330243 261.164645 
L 315.154514 261.164645 
L 315.154514 257.400225 
L 315.77645 257.400225 
L 315.77645 253.635806 
L 321.551044 253.635806 
L 321.551044 249.871386 
L 324.414499 249.871386 
L 324.414499 246.106967 
L 332.846642 246.106967 
L 332.846642 242.342547 
L 335.296398 242.342547 
L 335.296398 238.578128 
L 344.265099 238.578128 
L 344.265099 234.813708 
L 354.986048 234.813708 
L 354.986048 231.049289 
L 366.538402 231.049289 
L 366.538402 227.28487 
L 380.824507 227.28487 
L 380.824507 223.52045 
L 381.684221 223.52045 
L 381.684221 219.756031 
L 384.396019 219.756031 
L 384.396019 215.991611 
L 389.488282 215.991611 
L 389.488282 212.227192 
L 395.076108 212.227192 
L 395.076108 208.462772 
L 396.258137 208.462772 
L 396.258137 204.698353 
L 413.634262 204.698353 
L 413.634262 200.933934 
L 418.110383 200.933934 
L 418.110383 197.169514 
L 457.424289 197.169514 
L 457.424289 193.405095 
L 460.548061 193.405095 
L 460.548061 189.640675 
L 461.301091 189.640675 
L 461.301091 185.876256 
L 461.8 185.876256 
" style="fill:none;stroke:#f5deb3;stroke-linecap:square;stroke-width:1.5;"/>
   </g>
   <g id="line2d_4">
    <path clip-path="url(#pe6021d9b18)" d="M 273.011294 291.28 
L 273.011294 287.515581 
L 299.592378 287.515581 
L 299.592378 283.751161 
L 299.686529 283.751161 
L 299.686529 279.986742 
L 303.317193 279.986742 
L 303.317193 276.222322 
L 343.790559 276.222322 
L 343.790559 272.457903 
L 345.278417 272.457903 
L 345.278417 268.693483 
L 350.797 268.693483 
L 350.797 264.929064 
L 351.142284 264.929064 
L 351.142284 261.164645 
L 356.278391 261.164645 
L 356.278391 257.400225 
L 370.788811 257.400225 
L 370.788811 253.635806 
L 372.698308 253.635806 
L 372.698308 249.871386 
L 376.735071 249.871386 
L 376.735071 246.106967 
L 376.880946 246.106967 
L 376.880946 242.342547 
L 382.024103 242.342547 
L 382.024103 238.578128 
L 382.99349 238.578128 
L 382.99349 234.813708 
L 384.896647 234.813708 
L 384.896647 231.049289 
L 391.184003 231.049289 
L 391.184003 227.28487 
L 410.79708 227.28487 
L 410.79708 223.52045 
L 424.516188 223.52045 
L 424.516188 219.756031 
L 425.111537 219.756031 
L 425.111537 215.991611 
L 432.06796 215.991611 
L 432.06796 212.227192 
L 434.392423 212.227192 
L 434.392423 208.462772 
L 447.474364 208.462772 
L 447.474364 204.698353 
L 451.791332 204.698353 
L 451.791332 200.933934 
L 456.786461 200.933934 
L 456.786461 197.169514 
L 461.723073 197.169514 
L 461.723073 193.405095 
L 461.8 193.405095 
" style="fill:none;stroke:#f5deb3;stroke-linecap:square;stroke-width:1.5;"/>
   </g>
   <g id="line2d_5">
    <path clip-path="url(#pe6021d9b18)" d="M 285.712611 291.28 
L 285.712611 287.515581 
L 297.769791 287.515581 
L 297.769791 283.751161 
L 343.830272 283.751161 
L 343.830272 279.986742 
L 360.803417 279.986742 
L 360.803417 276.222322 
L 392.687998 276.222322 
L 392.687998 272.457903 
L 412.949862 272.457903 
L 412.949862 268.693483 
L 419.76607 268.693483 
L 419.76607 264.929064 
L 421.046076 264.929064 
L 421.046076 261.164645 
L 421.578793 261.164645 
L 421.578793 257.400225 
L 432.680034 257.400225 
L 432.680034 253.635806 
L 436.167084 253.635806 
L 436.167084 249.871386 
L 436.180148 249.871386 
L 436.180148 246.106967 
L 440.052962 246.106967 
L 440.052962 242.342547 
L 444.164187 242.342547 
L 444.164187 238.578128 
L 447.45341 238.578128 
L 447.45341 234.813708 
L 451.05435 234.813708 
L 451.05435 231.049289 
L 451.205519 231.049289 
L 451.205519 227.28487 
L 453.238878 227.28487 
L 453.238878 223.52045 
L 457.823745 223.52045 
L 457.823745 219.756031 
L 461.8 219.756031 
" style="fill:none;stroke:#f5deb3;stroke-linecap:square;stroke-width:1.5;"/>
   </g>
   <g id="line2d_6"/>
   <g id="line2d_7">
    <path clip-path="url(#pe6021d9b18)" d="M 304.013406 291.28 
L 304.013406 287.515581 
L 312.952511 287.515581 
L 312.952511 283.751161 
L 315.569977 283.751161 
L 315.569977 279.986742 
L 320.995839 279.986742 
L 320.995839 276.222322 
L 332.302529 276.222322 
L 332.302529 272.457903 
L 406.08167 272.457903 
L 406.08167 268.693483 
L 425.014146 268.693483 
L 425.014146 264.929064 
L 429.684793 264.929064 
L 429.684793 261.164645 
L 430.806894 261.164645 
L 430.806894 257.400225 
L 436.440726 257.400225 
L 436.440726 253.635806 
L 450.60307 253.635806 
L 450.60307 249.871386 
L 453.797366 249.871386 
L 453.797366 246.106967 
L 455.450608 246.106967 
L 455.450608 242.342547 
L 455.745542 242.342547 
L 455.745542 238.578128 
L 457.703806 238.578128 
L 457.703806 234.813708 
L 460.103962 234.813708 
L 460.103962 231.049289 
L 461.8 231.049289 
" style="fill:none;stroke:#f5deb3;stroke-linecap:square;stroke-width:1.5;"/>
   </g>
   <g id="line2d_8">
    <path clip-path="url(#pe6021d9b18)" style="fill:none;stroke:#f5deb3;stroke-linecap:square;stroke-width:1.5;"/>
   </g>
   <g id="line2d_9">
    <path clip-path="url(#pe6021d9b18)" d="M 291.876826 291.28 
L 291.876826 287.515581 
L 298.061919 287.515581 
L 298.061919 283.751161 
L 314.595263 283.751161 
L 314.595263 279.986742 
L 315.913637 279.986742 
L 315.913637 276.222322 
L 365.794365 276.222322 
L 365.794365 272.457903 
L 371.832914 272.457903 
L 371.832914 268.693483 
L 377.931382 268.693483 
L 377.931382 264.929064 
L 382.604215 264.929064 
L 382.604215 261.164645 
L 390.439052 261.164645 
L 390.439052 257.400225 
L 409.844432 257.400225 
L 409.844432 253.635806 
L 411.574105 253.635806 
L 411.574105 249.871386 
L 411.616343 249.871386 
L 411.616343 246.106967 
L 426.605743 246.106967 
L 426.605743 242.342547 
L 430.537783 242.342547 
L 430.537783 238.578128 
L 444.648011 238.578128 
L 444.648011 234.813708 
L 450.286772 234.813708 
L 450.286772 231.049289 
L 453.667596 231.049289 
L 453.667596 227.28487 
L 455.727715 227.28487 
L 455.727715 223.52045 
L 461.084774 223.52045 
L 461.084774 219.756031 
L 461.8 219.756031 
" style="fill:none;stroke:#f5deb3;stroke-linecap:square;stroke-width:1.5;"/>
   </g>
   <g id="line2d_10">
    <path clip-path="url(#pe6021d9b18)" d="M 452.999663 291.28 
L 452.999663 287.515581 
L 461.8 287.515581 
" style="fill:none;stroke:#f5deb3;stroke-linecap:square;stroke-width:1.5;"/>
   </g>
   <g id="line2d_11">
    <path clip-path="url(#pe6021d9b18)" d="M 379.734066 291.28 
L 379.734066 287.515581 
L 422.814782 287.515581 
L 422.814782 283.751161 
L 442.251459 283.751161 
L 442.251459 279.986742 
L 451.467785 279.986742 
L 451.467785 276.222322 
L 455.892374 276.222322 
L 455.892374 272.457903 
L 460.531832 272.457903 
L 460.531832 268.693483 
L 461.8 268.693483 
" style="fill:none;stroke:#f5deb3;stroke-linecap:square;stroke-width:1.5;"/>
   </g>
   <g id="line2d_12">
    <path clip-path="url(#pe6021d9b18)" d="M 296.484271 291.28 
L 296.484271 287.515581 
L 301.078389 287.515581 
L 301.078389 283.751161 
L 303.229496 283.751161 
L 303.229496 279.986742 
L 321.978744 279.986742 
L 321.978744 276.222322 
L 322.34252 276.222322 
L 322.34252 272.457903 
L 341.970777 272.457903 
L 341.970777 268.693483 
L 344.618139 268.693483 
L 344.618139 264.929064 
L 346.460951 264.929064 
L 346.460951 261.164645 
L 347.579893 261.164645 
L 347.579893 257.400225 
L 354.019315 257.400225 
L 354.019315 253.635806 
L 362.951544 253.635806 
L 362.951544 249.871386 
L 365.664982 249.871386 
L 365.664982 246.106967 
L 367.647023 246.106967 
L 367.647023 242.342547 
L 370.128227 242.342547 
L 370.128227 238.578128 
L 370.2705 238.578128 
L 370.2705 234.813708 
L 370.553866 234.813708 
L 370.553866 231.049289 
L 373.035923 231.049289 
L 373.035923 227.28487 
L 378.760488 227.28487 
L 378.760488 223.52045 
L 389.666889 223.52045 
L 389.666889 219.756031 
L 400.887217 219.756031 
L 400.887217 215.991611 
L 412.505748 215.991611 
L 412.505748 212.227192 
L 418.434749 212.227192 
L 418.434749 208.462772 
L 423.446894 208.462772 
L 423.446894 204.698353 
L 426.849283 204.698353 
L 426.849283 200.933934 
L 443.040004 200.933934 
L 443.040004 197.169514 
L 450.073156 197.169514 
L 450.073156 193.405095 
L 458.02444 193.405095 
L 458.02444 189.640675 
L 458.936798 189.640675 
L 458.936798 185.876256 
L 461.8 185.876256 
" style="fill:none;stroke:#f5deb3;stroke-linecap:square;stroke-width:1.5;"/>
   </g>
   <g id="line2d_13">
    <path clip-path="url(#pe6021d9b18)" d="M 379.950102 291.28 
L 379.950102 287.515581 
L 397.649767 287.515581 
L 397.649767 283.751161 
L 404.359467 283.751161 
L 404.359467 279.986742 
L 405.881346 279.986742 
L 405.881346 276.222322 
L 412.80569 276.222322 
L 412.80569 272.457903 
L 418.37929 272.457903 
L 418.37929 268.693483 
L 422.967203 268.693483 
L 422.967203 264.929064 
L 423.329491 264.929064 
L 423.329491 261.164645 
L 423.329491 261.164645 
L 423.329491 257.400225 
L 426.582113 257.400225 
L 426.582113 253.635806 
L 445.165672 253.635806 
L 445.165672 249.871386 
L 445.165672 249.871386 
L 445.165672 249.871386 
L 450.672 249.871386 
" style="fill:none;stroke:#f5deb3;stroke-linecap:square;stroke-width:1.5;"/>
   </g>
   <g id="line2d_14">
    <path clip-path="url(#pe6021d9b18)" d="M 249.995842 291.28 
L 249.995842 287.515581 
L 264.405345 287.515581 
L 264.405345 283.751161 
L 340.9731 283.751161 
L 340.9731 279.986742 
L 389.82872 279.986742 
L 389.82872 276.222322 
L 401.777617 276.222322 
L 401.777617 272.457903 
L 407.804681 272.457903 
L 407.804681 268.693483 
L 409.416496 268.693483 
L 409.416496 264.929064 
L 419.159419 264.929064 
L 419.159419 261.164645 
L 420.330017 261.164645 
L 420.330017 257.400225 
L 426.668703 257.400225 
L 426.668703 253.635806 
L 430.208568 253.635806 
L 430.208568 249.871386 
L 430.915591 249.871386 
L 430.915591 246.106967 
L 431.312183 246.106967 
L 431.312183 242.342547 
L 433.937266 242.342547 
L 433.937266 238.578128 
L 437.850659 238.578128 
L 437.850659 234.813708 
L 442.914192 234.813708 
L 442.914192 231.049289 
L 447.803271 231.049289 
L 447.803271 227.28487 
L 461.8 227.28487 
" style="fill:none;stroke:#f5deb3;stroke-linecap:square;stroke-width:1.5;"/>
   </g>
   <g id="line2d_15">
    <path clip-path="url(#pe6021d9b18)" style="fill:none;stroke:#f5deb3;stroke-linecap:square;stroke-width:1.5;"/>
   </g>
   <g id="line2d_16">
    <path clip-path="url(#pe6021d9b18)" d="M 387.582718 291.28 
L 387.582718 287.515581 
L 461.8 287.515581 
" style="fill:none;stroke:#f5deb3;stroke-linecap:square;stroke-width:1.5;"/>
   </g>
   <g id="line2d_17">
    <path clip-path="url(#pe6021d9b18)" d="M 399.795214 291.28 
L 399.795214 287.515581 
L 402.853606 287.515581 
L 402.853606 283.751161 
L 427.146244 283.751161 
L 427.146244 279.986742 
L 461.8 279.986742 
" style="fill:none;stroke:#f5deb3;stroke-linecap:square;stroke-width:1.5;"/>
   </g>
   <g id="line2d_18">
    <path clip-path="url(#pe6021d9b18)" d="M 263.076156 291.28 
L 263.076156 287.515581 
L 287.294715 287.515581 
L 287.294715 283.751161 
L 297.377675 283.751161 
L 297.377675 279.986742 
L 299.498054 279.986742 
L 299.498054 276.222322 
L 299.967946 276.222322 
L 299.967946 272.457903 
L 315.569977 272.457903 
L 315.569977 268.693483 
L 325.163215 268.693483 
L 325.163215 264.929064 
L 327.016011 264.929064 
L 327.016011 261.164645 
L 330.737239 261.164645 
L 330.737239 257.400225 
L 335.948859 257.400225 
L 335.948859 253.635806 
L 347.02348 253.635806 
L 347.02348 249.871386 
L 348.166806 249.871386 
L 348.166806 246.106967 
L 350.344619 246.106967 
L 350.344619 242.342547 
L 351.107861 242.342547 
L 351.107861 238.578128 
L 366.077861 238.578128 
L 366.077861 234.813708 
L 368.340205 234.813708 
L 368.340205 231.049289 
L 368.878336 231.049289 
L 368.878336 227.28487 
L 369.507098 227.28487 
L 369.507098 223.52045 
L 370.788811 223.52045 
L 370.788811 219.756031 
L 385.743633 219.756031 
L 385.743633 215.991611 
L 386.680029 215.991611 
L 386.680029 212.227192 
L 394.074746 212.227192 
L 394.074746 208.462772 
L 397.926367 208.462772 
L 397.926367 204.698353 
L 406.46831 204.698353 
L 406.46831 200.933934 
L 419.6399 200.933934 
L 419.6399 197.169514 
L 424.524391 197.169514 
L 424.524391 193.405095 
L 428.72676 193.405095 
L 428.72676 189.640675 
L 434.62186 189.640675 
L 434.62186 185.876256 
L 455.499881 185.876256 
L 455.499881 182.111836 
L 461.8 182.111836 
" style="fill:none;stroke:#f5deb3;stroke-linecap:square;stroke-width:1.5;"/>
   </g>
   <g id="line2d_19">
    <path clip-path="url(#pe6021d9b18)" d="M 450.553777 291.28 
L 450.553777 287.14832 
L 455.221534 287.14832 
L 455.221534 283.01664 
L 459.688988 283.01664 
L 459.688988 278.88496 
L 461.8 278.88496 
L 461.8 278.88496 
" style="fill:none;stroke:#f5deb3;stroke-linecap:square;stroke-width:1.5;"/>
   </g>
   <g id="line2d_20">
    <path clip-path="url(#pe6021d9b18)" d="M 256.952815 291.28 
L 256.952815 287.515581 
L 256.952815 287.515581 
L 256.952815 283.751161 
L 262.300824 283.751161 
L 262.300824 279.986742 
L 265.149662 279.986742 
L 265.149662 276.222322 
L 281.996445 276.222322 
L 281.996445 272.457903 
L 305.378045 272.457903 
L 305.378045 268.693483 
L 311.255267 268.693483 
L 311.255267 264.929064 
L 320.246069 264.929064 
L 320.246069 261.164645 
L 331.298161 261.164645 
L 331.298161 257.400225 
L 343.909607 257.400225 
L 343.909607 253.635806 
L 345.624558 253.635806 
L 345.624558 249.871386 
L 348.276106 249.871386 
L 348.276106 246.106967 
L 350.344619 246.106967 
L 350.344619 242.342547 
L 354.730033 242.342547 
L 354.730033 238.578128 
L 354.858201 238.578128 
L 354.858201 234.813708 
L 363.495053 234.813708 
L 363.495053 231.049289 
L 367.572193 231.049289 
L 367.572193 227.28487 
L 368.48753 227.28487 
L 368.48753 223.52045 
L 369.410866 223.52045 
L 369.410866 219.756031 
L 370.71844 219.756031 
L 370.71844 215.991611 
L 374.82152 215.991611 
L 374.82152 212.227192 
L 379.615843 212.227192 
L 379.615843 208.462772 
L 387.683913 208.462772 
L 387.683913 204.698353 
L 387.700759 204.698353 
L 387.700759 200.933934 
L 389.780224 200.933934 
L 389.780224 197.169514 
L 403.931972 197.169514 
L 403.931972 193.405095 
L 405.406879 193.405095 
L 405.406879 189.640675 
L 407.370736 189.640675 
L 407.370736 185.876256 
L 432.603049 185.876256 
L 432.603049 182.111836 
L 434.803329 182.111836 
L 434.803329 178.347417 
L 461.8 178.347417 
" style="fill:none;stroke:#f5deb3;stroke-linecap:square;stroke-width:1.5;"/>
   </g>
   <g id="line2d_21">
    <path clip-path="url(#pe6021d9b18)" style="fill:none;stroke:#f5deb3;stroke-linecap:square;stroke-width:1.5;"/>
   </g>
   <g id="line2d_22">
    <path clip-path="url(#pe6021d9b18)" d="M 238.015405 291.28 
L 238.015405 287.515581 
L 245.858568 287.515581 
L 245.858568 283.751161 
L 256.078078 283.751161 
L 256.078078 279.986742 
L 257.38464 279.986742 
L 257.38464 276.222322 
L 265.149662 276.222322 
L 265.149662 272.457903 
L 269.401594 272.457903 
L 269.401594 268.693483 
L 333.724715 268.693483 
L 333.724715 264.929064 
L 365.871838 264.929064 
L 365.871838 261.164645 
L 368.48753 261.164645 
L 368.48753 257.400225 
L 373.326731 257.400225 
L 373.326731 253.635806 
L 376.379062 253.635806 
L 376.379062 249.871386 
L 386.005467 249.871386 
L 386.005467 246.106967 
L 390.391132 246.106967 
L 390.391132 242.342547 
L 400.284891 242.342547 
L 400.284891 238.578128 
L 405.904954 238.578128 
L 405.904954 234.813708 
L 411.921528 234.813708 
L 411.921528 231.049289 
L 437.246584 231.049289 
L 437.246584 227.28487 
L 437.989538 227.28487 
L 437.989538 223.52045 
L 442.245659 223.52045 
L 442.245659 219.756031 
L 443.917742 219.756031 
L 443.917742 215.991611 
L 447.990272 215.991611 
L 447.990272 212.227192 
L 459.907166 212.227192 
L 459.907166 208.462772 
L 461.8 208.462772 
" style="fill:none;stroke:#f5deb3;stroke-linecap:square;stroke-width:1.5;"/>
   </g>
   <g id="line2d_23">
    <path clip-path="url(#pe6021d9b18)" d="M 390.598463 291.28 
L 390.598463 287.515581 
L 398.625004 287.515581 
L 398.625004 283.751161 
L 402.299449 283.751161 
L 402.299449 279.986742 
L 403.290167 279.986742 
L 403.290167 276.222322 
L 405.167986 276.222322 
L 405.167986 272.457903 
L 408.918236 272.457903 
L 408.918236 268.693483 
L 428.187515 268.693483 
L 428.187515 264.929064 
L 433.1326 264.929064 
L 433.1326 261.164645 
L 433.416019 261.164645 
L 433.416019 257.400225 
L 435.509605 257.400225 
L 435.509605 253.635806 
L 444.979037 253.635806 
L 444.979037 249.871386 
L 448.577976 249.871386 
L 448.577976 246.106967 
L 456.642176 246.106967 
L 456.642176 242.342547 
L 461.8 242.342547 
" style="fill:none;stroke:#f5deb3;stroke-linecap:square;stroke-width:1.5;"/>
   </g>
   <g id="line2d_24">
    <path clip-path="url(#pe6021d9b18)" d="M 336.133758 291.28 
L 336.133758 287.515581 
L 337.857764 287.515581 
L 337.857764 283.751161 
L 346.006432 283.751161 
L 346.006432 279.986742 
L 347.395093 279.986742 
L 347.395093 276.222322 
L 355.177223 276.222322 
L 355.177223 272.457903 
L 356.340605 272.457903 
L 356.340605 268.693483 
L 368.019537 268.693483 
L 368.019537 264.929064 
L 398.611396 264.929064 
L 398.611396 261.164645 
L 432.364358 261.164645 
L 432.364358 257.400225 
L 433.539953 257.400225 
L 433.539953 253.635806 
L 435.284124 253.635806 
L 435.284124 249.871386 
L 437.015795 249.871386 
L 437.015795 246.106967 
L 439.327294 246.106967 
L 439.327294 242.342547 
L 440.414979 242.342547 
L 440.414979 238.578128 
L 440.708738 238.578128 
L 440.708738 234.813708 
L 444.085902 234.813708 
L 444.085902 231.049289 
L 455.356407 231.049289 
L 455.356407 227.28487 
L 456.281878 227.28487 
L 456.281878 223.52045 
L 457.695228 223.52045 
L 457.695228 219.756031 
L 461.8 219.756031 
" style="fill:none;stroke:#f5deb3;stroke-linecap:square;stroke-width:1.5;"/>
   </g>
   <g id="line2d_25">
    <path clip-path="url(#pe6021d9b18)" style="fill:none;stroke:#f5deb3;stroke-linecap:square;stroke-width:1.5;"/>
   </g>
   <g id="line2d_26">
    <path clip-path="url(#pe6021d9b18)" d="M 356.278391 291.28 
L 356.278391 287.515581 
L 358.142691 287.515581 
L 358.142691 283.751161 
L 358.590906 283.751161 
L 358.590906 279.986742 
L 359.182484 279.986742 
L 359.182484 276.222322 
L 359.417213 276.222322 
L 359.417213 272.457903 
L 360.746402 272.457903 
L 360.746402 268.693483 
L 361.707121 268.693483 
L 361.707121 264.929064 
L 362.041938 264.929064 
L 362.041938 261.164645 
L 366.154906 261.164645 
L 366.154906 257.400225 
L 378.297035 257.400225 
L 378.297035 253.635806 
L 379.47757 253.635806 
L 379.47757 249.871386 
L 380.920747 249.871386 
L 380.920747 246.106967 
L 381.456373 246.106967 
L 381.456373 242.342547 
L 385.26893 242.342547 
L 385.26893 238.578128 
L 395.381434 238.578128 
L 395.381434 234.813708 
L 396.329336 234.813708 
L 396.329336 231.049289 
L 396.357788 231.049289 
L 396.357788 227.28487 
L 397.078019 227.28487 
L 397.078019 223.52045 
L 399.300805 223.52045 
L 399.300805 219.756031 
L 399.635388 219.756031 
L 399.635388 215.991611 
L 400.822089 215.991611 
L 400.822089 212.227192 
L 415.173503 212.227192 
L 415.173503 208.462772 
L 418.64679 208.462772 
L 418.64679 204.698353 
L 418.77543 204.698353 
L 418.77543 200.933934 
L 419.990603 200.933934 
L 419.990603 197.169514 
L 422.019962 197.169514 
L 422.019962 193.405095 
L 428.937868 193.405095 
L 428.937868 189.640675 
L 429.200534 189.640675 
L 429.200534 185.876256 
L 433.450476 185.876256 
L 433.450476 182.111836 
L 434.763058 182.111836 
L 434.763058 178.347417 
L 447.579008 178.347417 
L 447.579008 174.582997 
L 449.123519 174.582997 
L 449.123519 170.818578 
L 454.226039 170.818578 
L 454.226039 167.054159 
L 457.759527 167.054159 
L 457.759527 163.289739 
L 461.8 163.289739 
" style="fill:none;stroke:#f5deb3;stroke-linecap:square;stroke-width:1.5;"/>
   </g>
   <g id="line2d_27">
    <path clip-path="url(#pe6021d9b18)" d="M 416.49537 291.28 
L 416.49537 287.515581 
L 416.49537 287.515581 
L 416.49537 287.515581 
L 450.672 287.515581 
" style="fill:none;stroke:#f5deb3;stroke-linecap:square;stroke-width:1.5;"/>
   </g>
   <g id="line2d_28">
    <path clip-path="url(#pe6021d9b18)" d="M 306.625163 291.28 
L 306.625163 287.515581 
L 307.440004 287.515581 
L 307.440004 283.751161 
L 318.125691 283.751161 
L 318.125691 279.986742 
L 330.325398 279.986742 
L 330.325398 276.222322 
L 355.049853 276.222322 
L 355.049853 272.457903 
L 385.900894 272.457903 
L 385.900894 268.693483 
L 404.274254 268.693483 
L 404.274254 264.929064 
L 434.093971 264.929064 
L 434.093971 261.164645 
L 437.09284 261.164645 
L 437.09284 257.400225 
L 439.718848 257.400225 
L 439.718848 253.635806 
L 439.761493 253.635806 
L 439.761493 249.871386 
L 442.117876 249.871386 
L 442.117876 246.106967 
L 442.604064 246.106967 
L 442.604064 242.342547 
L 445.85685 242.342547 
L 445.85685 238.578128 
L 452.413333 238.578128 
L 452.413333 234.813708 
L 454.198491 234.813708 
L 454.198491 231.049289 
L 461.8 231.049289 
" style="fill:none;stroke:#f5deb3;stroke-linecap:square;stroke-width:1.5;"/>
   </g>
   <g id="line2d_29">
    <path clip-path="url(#pe6021d9b18)" d="M 301.443245 291.28 
L 301.443245 287.515581 
L 301.443245 287.515581 
L 301.443245 283.751161 
L 301.443245 283.751161 
L 301.443245 279.986742 
L 337.31959 279.986742 
L 337.31959 276.222322 
L 337.31959 276.222322 
L 337.31959 272.457903 
L 337.31959 272.457903 
L 337.31959 268.693483 
L 344.852152 268.693483 
L 344.852152 264.929064 
L 344.852152 264.929064 
L 344.852152 261.164645 
L 344.852152 261.164645 
L 344.852152 257.400225 
L 389.731683 257.400225 
L 389.731683 253.635806 
L 389.731683 253.635806 
L 389.731683 249.871386 
L 389.731683 249.871386 
L 389.731683 246.106967 
L 438.422687 246.106967 
L 438.422687 242.342547 
L 438.422687 242.342547 
L 438.422687 238.578128 
L 438.422687 238.578128 
L 438.422687 234.813708 
L 457.887882 234.813708 
L 457.887882 231.049289 
L 457.887882 231.049289 
L 457.887882 227.28487 
L 457.887882 227.28487 
L 457.887882 223.52045 
L 461.8 223.52045 
" style="fill:none;stroke:#f5deb3;stroke-linecap:square;stroke-width:1.5;"/>
   </g>
   <g id="line2d_30">
    <path clip-path="url(#pe6021d9b18)" d="M 427.130657 291.28 
L 427.130657 287.515581 
L 430.325865 287.515581 
L 430.325865 283.751161 
L 461.8 283.751161 
" style="fill:none;stroke:#f5deb3;stroke-linecap:square;stroke-width:1.5;"/>
   </g>
   <g id="matplotlib.axis_1">
    <g id="xtick_1">
     <g id="line2d_31">
      <path clip-path="url(#pe6021d9b18)" d="M 59.72 291.28 
L 59.72 6.125228 
" style="fill:none;stroke:#b0b0b0;stroke-linecap:square;stroke-width:0.8;"/>
     </g>
     <g id="line2d_32">
      <defs>
       <path d="M 0 0 
L 0 3.5 
" id="m1b5f21eedf" style="stroke:#000000;stroke-width:0.8;"/>
      </defs>
      <g>
       <use style="stroke:#000000;stroke-width:0.8;" x="59.72" xlink:href="#m1b5f21eedf" y="291.28"/>
      </g>
     </g>
     <g id="text_1">
      <!-- 0 -->
      <defs>
       <path d="M 31.78125 66.40625 
Q 24.171875 66.40625 20.328125 58.90625 
Q 16.5 51.421875 16.5 36.375 
Q 16.5 21.390625 20.328125 13.890625 
Q 24.171875 6.390625 31.78125 6.390625 
Q 39.453125 6.390625 43.28125 13.890625 
Q 47.125 21.390625 47.125 36.375 
Q 47.125 51.421875 43.28125 58.90625 
Q 39.453125 66.40625 31.78125 66.40625 
z
M 31.78125 74.21875 
Q 44.046875 74.21875 50.515625 64.515625 
Q 56.984375 54.828125 56.984375 36.375 
Q 56.984375 17.96875 50.515625 8.265625 
Q 44.046875 -1.421875 31.78125 -1.421875 
Q 19.53125 -1.421875 13.0625 8.265625 
Q 6.59375 17.96875 6.59375 36.375 
Q 6.59375 54.828125 13.0625 64.515625 
Q 19.53125 74.21875 31.78125 74.21875 
z
" id="DejaVuSans-30"/>
      </defs>
      <g transform="translate(53.3575 313.476875)scale(0.2 -0.2)">
       <use xlink:href="#DejaVuSans-30"/>
      </g>
     </g>
    </g>
    <g id="xtick_2">
     <g id="line2d_33">
      <path clip-path="url(#pe6021d9b18)" d="M 295.370716 291.28 
L 295.370716 6.125228 
" style="fill:none;stroke:#b0b0b0;stroke-linecap:square;stroke-width:0.8;"/>
     </g>
     <g id="line2d_34">
      <g>
       <use style="stroke:#000000;stroke-width:0.8;" x="295.370716" xlink:href="#m1b5f21eedf" y="291.28"/>
      </g>
     </g>
     <g id="text_2">
      <!-- 2 -->
      <defs>
       <path d="M 19.1875 8.296875 
L 53.609375 8.296875 
L 53.609375 0 
L 7.328125 0 
L 7.328125 8.296875 
Q 12.9375 14.109375 22.625 23.890625 
Q 32.328125 33.6875 34.8125 36.53125 
Q 39.546875 41.84375 41.421875 45.53125 
Q 43.3125 49.21875 43.3125 52.78125 
Q 43.3125 58.59375 39.234375 62.25 
Q 35.15625 65.921875 28.609375 65.921875 
Q 23.96875 65.921875 18.8125 64.3125 
Q 13.671875 62.703125 7.8125 59.421875 
L 7.8125 69.390625 
Q 13.765625 71.78125 18.9375 73 
Q 24.125 74.21875 28.421875 74.21875 
Q 39.75 74.21875 46.484375 68.546875 
Q 53.21875 62.890625 53.21875 53.421875 
Q 53.21875 48.921875 51.53125 44.890625 
Q 49.859375 40.875 45.40625 35.40625 
Q 44.1875 33.984375 37.640625 27.21875 
Q 31.109375 20.453125 19.1875 8.296875 
z
" id="DejaVuSans-32"/>
      </defs>
      <g transform="translate(289.008216 313.476875)scale(0.2 -0.2)">
       <use xlink:href="#DejaVuSans-32"/>
      </g>
     </g>
    </g>
    <g id="xtick_3">
     <g id="line2d_35">
      <defs>
       <path d="M 0 0 
L 0 2 
" id="mab2e6b8c5e" style="stroke:#000000;stroke-width:0.6;"/>
      </defs>
      <g>
       <use style="stroke:#000000;stroke-width:0.6;" x="95.188967" xlink:href="#mab2e6b8c5e" y="291.28"/>
      </g>
     </g>
    </g>
    <g id="xtick_4">
     <g id="line2d_36">
      <g>
       <use style="stroke:#000000;stroke-width:0.6;" x="115.936983" xlink:href="#mab2e6b8c5e" y="291.28"/>
      </g>
     </g>
    </g>
    <g id="xtick_5">
     <g id="line2d_37">
      <g>
       <use style="stroke:#000000;stroke-width:0.6;" x="130.657934" xlink:href="#mab2e6b8c5e" y="291.28"/>
      </g>
     </g>
    </g>
    <g id="xtick_6">
     <g id="line2d_38">
      <g>
       <use style="stroke:#000000;stroke-width:0.6;" x="142.076391" xlink:href="#mab2e6b8c5e" y="291.28"/>
      </g>
     </g>
    </g>
    <g id="xtick_7">
     <g id="line2d_39">
      <g>
       <use style="stroke:#000000;stroke-width:0.6;" x="151.40595" xlink:href="#mab2e6b8c5e" y="291.28"/>
      </g>
     </g>
    </g>
    <g id="xtick_8">
     <g id="line2d_40">
      <g>
       <use style="stroke:#000000;stroke-width:0.6;" x="159.293979" xlink:href="#mab2e6b8c5e" y="291.28"/>
      </g>
     </g>
    </g>
    <g id="xtick_9">
     <g id="line2d_41">
      <g>
       <use style="stroke:#000000;stroke-width:0.6;" x="166.126901" xlink:href="#mab2e6b8c5e" y="291.28"/>
      </g>
     </g>
    </g>
    <g id="xtick_10">
     <g id="line2d_42">
      <g>
       <use style="stroke:#000000;stroke-width:0.6;" x="172.153965" xlink:href="#mab2e6b8c5e" y="291.28"/>
      </g>
     </g>
    </g>
    <g id="xtick_11">
     <g id="line2d_43">
      <g>
       <use style="stroke:#000000;stroke-width:0.6;" x="213.014325" xlink:href="#mab2e6b8c5e" y="291.28"/>
      </g>
     </g>
    </g>
    <g id="xtick_12">
     <g id="line2d_44">
      <g>
       <use style="stroke:#000000;stroke-width:0.6;" x="233.762341" xlink:href="#mab2e6b8c5e" y="291.28"/>
      </g>
     </g>
    </g>
    <g id="xtick_13">
     <g id="line2d_45">
      <g>
       <use style="stroke:#000000;stroke-width:0.6;" x="248.483292" xlink:href="#mab2e6b8c5e" y="291.28"/>
      </g>
     </g>
    </g>
    <g id="xtick_14">
     <g id="line2d_46">
      <g>
       <use style="stroke:#000000;stroke-width:0.6;" x="259.901749" xlink:href="#mab2e6b8c5e" y="291.28"/>
      </g>
     </g>
    </g>
    <g id="xtick_15">
     <g id="line2d_47">
      <g>
       <use style="stroke:#000000;stroke-width:0.6;" x="269.231307" xlink:href="#mab2e6b8c5e" y="291.28"/>
      </g>
     </g>
    </g>
    <g id="xtick_16">
     <g id="line2d_48">
      <g>
       <use style="stroke:#000000;stroke-width:0.6;" x="277.119337" xlink:href="#mab2e6b8c5e" y="291.28"/>
      </g>
     </g>
    </g>
    <g id="xtick_17">
     <g id="line2d_49">
      <g>
       <use style="stroke:#000000;stroke-width:0.6;" x="283.952259" xlink:href="#mab2e6b8c5e" y="291.28"/>
      </g>
     </g>
    </g>
    <g id="xtick_18">
     <g id="line2d_50">
      <g>
       <use style="stroke:#000000;stroke-width:0.6;" x="289.979323" xlink:href="#mab2e6b8c5e" y="291.28"/>
      </g>
     </g>
    </g>
    <g id="xtick_19">
     <g id="line2d_51">
      <g>
       <use style="stroke:#000000;stroke-width:0.6;" x="330.839683" xlink:href="#mab2e6b8c5e" y="291.28"/>
      </g>
     </g>
    </g>
    <g id="xtick_20">
     <g id="line2d_52">
      <g>
       <use style="stroke:#000000;stroke-width:0.6;" x="351.587698" xlink:href="#mab2e6b8c5e" y="291.28"/>
      </g>
     </g>
    </g>
    <g id="xtick_21">
     <g id="line2d_53">
      <g>
       <use style="stroke:#000000;stroke-width:0.6;" x="366.30865" xlink:href="#mab2e6b8c5e" y="291.28"/>
      </g>
     </g>
    </g>
    <g id="xtick_22">
     <g id="line2d_54">
      <g>
       <use style="stroke:#000000;stroke-width:0.6;" x="377.727107" xlink:href="#mab2e6b8c5e" y="291.28"/>
      </g>
     </g>
    </g>
    <g id="xtick_23">
     <g id="line2d_55">
      <g>
       <use style="stroke:#000000;stroke-width:0.6;" x="387.056665" xlink:href="#mab2e6b8c5e" y="291.28"/>
      </g>
     </g>
    </g>
    <g id="xtick_24">
     <g id="line2d_56">
      <g>
       <use style="stroke:#000000;stroke-width:0.6;" x="394.944695" xlink:href="#mab2e6b8c5e" y="291.28"/>
      </g>
     </g>
    </g>
    <g id="xtick_25">
     <g id="line2d_57">
      <g>
       <use style="stroke:#000000;stroke-width:0.6;" x="401.777617" xlink:href="#mab2e6b8c5e" y="291.28"/>
      </g>
     </g>
    </g>
    <g id="xtick_26">
     <g id="line2d_58">
      <g>
       <use style="stroke:#000000;stroke-width:0.6;" x="407.804681" xlink:href="#mab2e6b8c5e" y="291.28"/>
      </g>
     </g>
    </g>
    <g id="xtick_27">
     <g id="line2d_59">
      <g>
       <use style="stroke:#000000;stroke-width:0.6;" x="448.665041" xlink:href="#mab2e6b8c5e" y="291.28"/>
      </g>
     </g>
    </g>
    <g id="text_3">
     <!-- log10 of FEvals / DIM -->
     <defs>
      <path d="M 9.421875 75.984375 
L 18.40625 75.984375 
L 18.40625 0 
L 9.421875 0 
z
" id="DejaVuSans-6c"/>
      <path d="M 30.609375 48.390625 
Q 23.390625 48.390625 19.1875 42.75 
Q 14.984375 37.109375 14.984375 27.296875 
Q 14.984375 17.484375 19.15625 11.84375 
Q 23.34375 6.203125 30.609375 6.203125 
Q 37.796875 6.203125 41.984375 11.859375 
Q 46.1875 17.53125 46.1875 27.296875 
Q 46.1875 37.015625 41.984375 42.703125 
Q 37.796875 48.390625 30.609375 48.390625 
z
M 30.609375 56 
Q 42.328125 56 49.015625 48.375 
Q 55.71875 40.765625 55.71875 27.296875 
Q 55.71875 13.875 49.015625 6.21875 
Q 42.328125 -1.421875 30.609375 -1.421875 
Q 18.84375 -1.421875 12.171875 6.21875 
Q 5.515625 13.875 5.515625 27.296875 
Q 5.515625 40.765625 12.171875 48.375 
Q 18.84375 56 30.609375 56 
z
" id="DejaVuSans-6f"/>
      <path d="M 45.40625 27.984375 
Q 45.40625 37.75 41.375 43.109375 
Q 37.359375 48.484375 30.078125 48.484375 
Q 22.859375 48.484375 18.828125 43.109375 
Q 14.796875 37.75 14.796875 27.984375 
Q 14.796875 18.265625 18.828125 12.890625 
Q 22.859375 7.515625 30.078125 7.515625 
Q 37.359375 7.515625 41.375 12.890625 
Q 45.40625 18.265625 45.40625 27.984375 
z
M 54.390625 6.78125 
Q 54.390625 -7.171875 48.1875 -13.984375 
Q 42 -20.796875 29.203125 -20.796875 
Q 24.46875 -20.796875 20.265625 -20.09375 
Q 16.0625 -19.390625 12.109375 -17.921875 
L 12.109375 -9.1875 
Q 16.0625 -11.328125 19.921875 -12.34375 
Q 23.78125 -13.375 27.78125 -13.375 
Q 36.625 -13.375 41.015625 -8.765625 
Q 45.40625 -4.15625 45.40625 5.171875 
L 45.40625 9.625 
Q 42.625 4.78125 38.28125 2.390625 
Q 33.9375 0 27.875 0 
Q 17.828125 0 11.671875 7.65625 
Q 5.515625 15.328125 5.515625 27.984375 
Q 5.515625 40.671875 11.671875 48.328125 
Q 17.828125 56 27.875 56 
Q 33.9375 56 38.28125 53.609375 
Q 42.625 51.21875 45.40625 46.390625 
L 45.40625 54.6875 
L 54.390625 54.6875 
z
" id="DejaVuSans-67"/>
      <path d="M 12.40625 8.296875 
L 28.515625 8.296875 
L 28.515625 63.921875 
L 10.984375 60.40625 
L 10.984375 69.390625 
L 28.421875 72.90625 
L 38.28125 72.90625 
L 38.28125 8.296875 
L 54.390625 8.296875 
L 54.390625 0 
L 12.40625 0 
z
" id="DejaVuSans-31"/>
      <path id="DejaVuSans-20"/>
      <path d="M 37.109375 75.984375 
L 37.109375 68.5 
L 28.515625 68.5 
Q 23.6875 68.5 21.796875 66.546875 
Q 19.921875 64.59375 19.921875 59.515625 
L 19.921875 54.6875 
L 34.71875 54.6875 
L 34.71875 47.703125 
L 19.921875 47.703125 
L 19.921875 0 
L 10.890625 0 
L 10.890625 47.703125 
L 2.296875 47.703125 
L 2.296875 54.6875 
L 10.890625 54.6875 
L 10.890625 58.5 
Q 10.890625 67.625 15.140625 71.796875 
Q 19.390625 75.984375 28.609375 75.984375 
z
" id="DejaVuSans-66"/>
      <path d="M 9.8125 72.90625 
L 51.703125 72.90625 
L 51.703125 64.59375 
L 19.671875 64.59375 
L 19.671875 43.109375 
L 48.578125 43.109375 
L 48.578125 34.8125 
L 19.671875 34.8125 
L 19.671875 0 
L 9.8125 0 
z
" id="DejaVuSans-46"/>
      <path d="M 9.8125 72.90625 
L 55.90625 72.90625 
L 55.90625 64.59375 
L 19.671875 64.59375 
L 19.671875 43.015625 
L 54.390625 43.015625 
L 54.390625 34.71875 
L 19.671875 34.71875 
L 19.671875 8.296875 
L 56.78125 8.296875 
L 56.78125 0 
L 9.8125 0 
z
" id="DejaVuSans-45"/>
      <path d="M 2.984375 54.6875 
L 12.5 54.6875 
L 29.59375 8.796875 
L 46.6875 54.6875 
L 56.203125 54.6875 
L 35.6875 0 
L 23.484375 0 
z
" id="DejaVuSans-76"/>
      <path d="M 34.28125 27.484375 
Q 23.390625 27.484375 19.1875 25 
Q 14.984375 22.515625 14.984375 16.5 
Q 14.984375 11.71875 18.140625 8.90625 
Q 21.296875 6.109375 26.703125 6.109375 
Q 34.1875 6.109375 38.703125 11.40625 
Q 43.21875 16.703125 43.21875 25.484375 
L 43.21875 27.484375 
z
M 52.203125 31.203125 
L 52.203125 0 
L 43.21875 0 
L 43.21875 8.296875 
Q 40.140625 3.328125 35.546875 0.953125 
Q 30.953125 -1.421875 24.3125 -1.421875 
Q 15.921875 -1.421875 10.953125 3.296875 
Q 6 8.015625 6 15.921875 
Q 6 25.140625 12.171875 29.828125 
Q 18.359375 34.515625 30.609375 34.515625 
L 43.21875 34.515625 
L 43.21875 35.40625 
Q 43.21875 41.609375 39.140625 45 
Q 35.0625 48.390625 27.6875 48.390625 
Q 23 48.390625 18.546875 47.265625 
Q 14.109375 46.140625 10.015625 43.890625 
L 10.015625 52.203125 
Q 14.9375 54.109375 19.578125 55.046875 
Q 24.21875 56 28.609375 56 
Q 40.484375 56 46.34375 49.84375 
Q 52.203125 43.703125 52.203125 31.203125 
z
" id="DejaVuSans-61"/>
      <path d="M 44.28125 53.078125 
L 44.28125 44.578125 
Q 40.484375 46.53125 36.375 47.5 
Q 32.28125 48.484375 27.875 48.484375 
Q 21.1875 48.484375 17.84375 46.4375 
Q 14.5 44.390625 14.5 40.28125 
Q 14.5 37.15625 16.890625 35.375 
Q 19.28125 33.59375 26.515625 31.984375 
L 29.59375 31.296875 
Q 39.15625 29.25 43.1875 25.515625 
Q 47.21875 21.78125 47.21875 15.09375 
Q 47.21875 7.46875 41.1875 3.015625 
Q 35.15625 -1.421875 24.609375 -1.421875 
Q 20.21875 -1.421875 15.453125 -0.5625 
Q 10.6875 0.296875 5.421875 2 
L 5.421875 11.28125 
Q 10.40625 8.6875 15.234375 7.390625 
Q 20.0625 6.109375 24.8125 6.109375 
Q 31.15625 6.109375 34.5625 8.28125 
Q 37.984375 10.453125 37.984375 14.40625 
Q 37.984375 18.0625 35.515625 20.015625 
Q 33.0625 21.96875 24.703125 23.78125 
L 21.578125 24.515625 
Q 13.234375 26.265625 9.515625 29.90625 
Q 5.8125 33.546875 5.8125 39.890625 
Q 5.8125 47.609375 11.28125 51.796875 
Q 16.75 56 26.8125 56 
Q 31.78125 56 36.171875 55.265625 
Q 40.578125 54.546875 44.28125 53.078125 
z
" id="DejaVuSans-73"/>
      <path d="M 25.390625 72.90625 
L 33.6875 72.90625 
L 8.296875 -9.28125 
L 0 -9.28125 
z
" id="DejaVuSans-2f"/>
      <path d="M 19.671875 64.796875 
L 19.671875 8.109375 
L 31.59375 8.109375 
Q 46.6875 8.109375 53.6875 14.9375 
Q 60.6875 21.78125 60.6875 36.53125 
Q 60.6875 51.171875 53.6875 57.984375 
Q 46.6875 64.796875 31.59375 64.796875 
z
M 9.8125 72.90625 
L 30.078125 72.90625 
Q 51.265625 72.90625 61.171875 64.09375 
Q 71.09375 55.28125 71.09375 36.53125 
Q 71.09375 17.671875 61.125 8.828125 
Q 51.171875 0 30.078125 0 
L 9.8125 0 
z
" id="DejaVuSans-44"/>
      <path d="M 9.8125 72.90625 
L 19.671875 72.90625 
L 19.671875 0 
L 9.8125 0 
z
" id="DejaVuSans-49"/>
      <path d="M 9.8125 72.90625 
L 24.515625 72.90625 
L 43.109375 23.296875 
L 61.8125 72.90625 
L 76.515625 72.90625 
L 76.515625 0 
L 66.890625 0 
L 66.890625 64.015625 
L 48.09375 14.015625 
L 38.1875 14.015625 
L 19.390625 64.015625 
L 19.390625 0 
L 9.8125 0 
z
" id="DejaVuSans-4d"/>
     </defs>
     <g transform="translate(150.122563 336.833125)scale(0.2 -0.2)">
      <use xlink:href="#DejaVuSans-6c"/>
      <use x="27.783203" xlink:href="#DejaVuSans-6f"/>
      <use x="88.964844" xlink:href="#DejaVuSans-67"/>
      <use x="152.441406" xlink:href="#DejaVuSans-31"/>
      <use x="216.064453" xlink:href="#DejaVuSans-30"/>
      <use x="279.6875" xlink:href="#DejaVuSans-20"/>
      <use x="311.474609" xlink:href="#DejaVuSans-6f"/>
      <use x="372.65625" xlink:href="#DejaVuSans-66"/>
      <use x="407.861328" xlink:href="#DejaVuSans-20"/>
      <use x="439.648438" xlink:href="#DejaVuSans-46"/>
      <use x="497.167969" xlink:href="#DejaVuSans-45"/>
      <use x="560.351562" xlink:href="#DejaVuSans-76"/>
      <use x="619.53125" xlink:href="#DejaVuSans-61"/>
      <use x="680.810547" xlink:href="#DejaVuSans-6c"/>
      <use x="708.59375" xlink:href="#DejaVuSans-73"/>
      <use x="760.693359" xlink:href="#DejaVuSans-20"/>
      <use x="792.480469" xlink:href="#DejaVuSans-2f"/>
      <use x="826.171875" xlink:href="#DejaVuSans-20"/>
      <use x="857.958984" xlink:href="#DejaVuSans-44"/>
      <use x="934.960938" xlink:href="#DejaVuSans-49"/>
      <use x="964.453125" xlink:href="#DejaVuSans-4d"/>
     </g>
    </g>
   </g>
   <g id="matplotlib.axis_2">
    <g id="ytick_1">
     <g id="line2d_60">
      <path clip-path="url(#pe6021d9b18)" d="M 59.72 291.28 
L 450.672 291.28 
" style="fill:none;stroke:#b0b0b0;stroke-linecap:square;stroke-width:0.8;"/>
     </g>
     <g id="line2d_61">
      <defs>
       <path d="M 0 0 
L -3.5 0 
" id="m22b6834825" style="stroke:#000000;stroke-width:0.8;"/>
      </defs>
      <g>
       <use style="stroke:#000000;stroke-width:0.8;" x="59.72" xlink:href="#m22b6834825" y="291.28"/>
      </g>
     </g>
     <g id="text_4">
      <!-- 0.0 -->
      <defs>
       <path d="M 10.6875 12.40625 
L 21 12.40625 
L 21 0 
L 10.6875 0 
z
" id="DejaVuSans-2e"/>
      </defs>
      <g transform="translate(27.275 297.35875)scale(0.16 -0.16)">
       <use xlink:href="#DejaVuSans-30"/>
       <use x="63.623047" xlink:href="#DejaVuSans-2e"/>
       <use x="95.410156" xlink:href="#DejaVuSans-30"/>
      </g>
     </g>
    </g>
    <g id="ytick_2">
     <g id="line2d_62">
      <path clip-path="url(#pe6021d9b18)" d="M 59.72 234.813708 
L 450.672 234.813708 
" style="fill:none;stroke:#b0b0b0;stroke-linecap:square;stroke-width:0.8;"/>
     </g>
     <g id="line2d_63">
      <g>
       <use style="stroke:#000000;stroke-width:0.8;" x="59.72" xlink:href="#m22b6834825" y="234.813708"/>
      </g>
     </g>
     <g id="text_5">
      <!-- 0.2 -->
      <g transform="translate(27.275 240.892458)scale(0.16 -0.16)">
       <use xlink:href="#DejaVuSans-30"/>
       <use x="63.623047" xlink:href="#DejaVuSans-2e"/>
       <use x="95.410156" xlink:href="#DejaVuSans-32"/>
      </g>
     </g>
    </g>
    <g id="ytick_3">
     <g id="line2d_64">
      <path clip-path="url(#pe6021d9b18)" d="M 59.72 178.347417 
L 450.672 178.347417 
" style="fill:none;stroke:#b0b0b0;stroke-linecap:square;stroke-width:0.8;"/>
     </g>
     <g id="line2d_65">
      <g>
       <use style="stroke:#000000;stroke-width:0.8;" x="59.72" xlink:href="#m22b6834825" y="178.347417"/>
      </g>
     </g>
     <g id="text_6">
      <!-- 0.4 -->
      <defs>
       <path d="M 37.796875 64.3125 
L 12.890625 25.390625 
L 37.796875 25.390625 
z
M 35.203125 72.90625 
L 47.609375 72.90625 
L 47.609375 25.390625 
L 58.015625 25.390625 
L 58.015625 17.1875 
L 47.609375 17.1875 
L 47.609375 0 
L 37.796875 0 
L 37.796875 17.1875 
L 4.890625 17.1875 
L 4.890625 26.703125 
z
" id="DejaVuSans-34"/>
      </defs>
      <g transform="translate(27.275 184.426167)scale(0.16 -0.16)">
       <use xlink:href="#DejaVuSans-30"/>
       <use x="63.623047" xlink:href="#DejaVuSans-2e"/>
       <use x="95.410156" xlink:href="#DejaVuSans-34"/>
      </g>
     </g>
    </g>
    <g id="ytick_4">
     <g id="line2d_66">
      <path clip-path="url(#pe6021d9b18)" d="M 59.72 121.881125 
L 450.672 121.881125 
" style="fill:none;stroke:#b0b0b0;stroke-linecap:square;stroke-width:0.8;"/>
     </g>
     <g id="line2d_67">
      <g>
       <use style="stroke:#000000;stroke-width:0.8;" x="59.72" xlink:href="#m22b6834825" y="121.881125"/>
      </g>
     </g>
     <g id="text_7">
      <!-- 0.6 -->
      <defs>
       <path d="M 33.015625 40.375 
Q 26.375 40.375 22.484375 35.828125 
Q 18.609375 31.296875 18.609375 23.390625 
Q 18.609375 15.53125 22.484375 10.953125 
Q 26.375 6.390625 33.015625 6.390625 
Q 39.65625 6.390625 43.53125 10.953125 
Q 47.40625 15.53125 47.40625 23.390625 
Q 47.40625 31.296875 43.53125 35.828125 
Q 39.65625 40.375 33.015625 40.375 
z
M 52.59375 71.296875 
L 52.59375 62.3125 
Q 48.875 64.0625 45.09375 64.984375 
Q 41.3125 65.921875 37.59375 65.921875 
Q 27.828125 65.921875 22.671875 59.328125 
Q 17.53125 52.734375 16.796875 39.40625 
Q 19.671875 43.65625 24.015625 45.921875 
Q 28.375 48.1875 33.59375 48.1875 
Q 44.578125 48.1875 50.953125 41.515625 
Q 57.328125 34.859375 57.328125 23.390625 
Q 57.328125 12.15625 50.6875 5.359375 
Q 44.046875 -1.421875 33.015625 -1.421875 
Q 20.359375 -1.421875 13.671875 8.265625 
Q 6.984375 17.96875 6.984375 36.375 
Q 6.984375 53.65625 15.1875 63.9375 
Q 23.390625 74.21875 37.203125 74.21875 
Q 40.921875 74.21875 44.703125 73.484375 
Q 48.484375 72.75 52.59375 71.296875 
z
" id="DejaVuSans-36"/>
      </defs>
      <g transform="translate(27.275 127.959875)scale(0.16 -0.16)">
       <use xlink:href="#DejaVuSans-30"/>
       <use x="63.623047" xlink:href="#DejaVuSans-2e"/>
       <use x="95.410156" xlink:href="#DejaVuSans-36"/>
      </g>
     </g>
    </g>
    <g id="ytick_5">
     <g id="line2d_68">
      <path clip-path="url(#pe6021d9b18)" d="M 59.72 65.414834 
L 450.672 65.414834 
" style="fill:none;stroke:#b0b0b0;stroke-linecap:square;stroke-width:0.8;"/>
     </g>
     <g id="line2d_69">
      <g>
       <use style="stroke:#000000;stroke-width:0.8;" x="59.72" xlink:href="#m22b6834825" y="65.414834"/>
      </g>
     </g>
     <g id="text_8">
      <!-- 0.8 -->
      <defs>
       <path d="M 31.78125 34.625 
Q 24.75 34.625 20.71875 30.859375 
Q 16.703125 27.09375 16.703125 20.515625 
Q 16.703125 13.921875 20.71875 10.15625 
Q 24.75 6.390625 31.78125 6.390625 
Q 38.8125 6.390625 42.859375 10.171875 
Q 46.921875 13.96875 46.921875 20.515625 
Q 46.921875 27.09375 42.890625 30.859375 
Q 38.875 34.625 31.78125 34.625 
z
M 21.921875 38.8125 
Q 15.578125 40.375 12.03125 44.71875 
Q 8.5 49.078125 8.5 55.328125 
Q 8.5 64.0625 14.71875 69.140625 
Q 20.953125 74.21875 31.78125 74.21875 
Q 42.671875 74.21875 48.875 69.140625 
Q 55.078125 64.0625 55.078125 55.328125 
Q 55.078125 49.078125 51.53125 44.71875 
Q 48 40.375 41.703125 38.8125 
Q 48.828125 37.15625 52.796875 32.3125 
Q 56.78125 27.484375 56.78125 20.515625 
Q 56.78125 9.90625 50.3125 4.234375 
Q 43.84375 -1.421875 31.78125 -1.421875 
Q 19.734375 -1.421875 13.25 4.234375 
Q 6.78125 9.90625 6.78125 20.515625 
Q 6.78125 27.484375 10.78125 32.3125 
Q 14.796875 37.15625 21.921875 38.8125 
z
M 18.3125 54.390625 
Q 18.3125 48.734375 21.84375 45.5625 
Q 25.390625 42.390625 31.78125 42.390625 
Q 38.140625 42.390625 41.71875 45.5625 
Q 45.3125 48.734375 45.3125 54.390625 
Q 45.3125 60.0625 41.71875 63.234375 
Q 38.140625 66.40625 31.78125 66.40625 
Q 25.390625 66.40625 21.84375 63.234375 
Q 18.3125 60.0625 18.3125 54.390625 
z
" id="DejaVuSans-38"/>
      </defs>
      <g transform="translate(27.275 71.493584)scale(0.16 -0.16)">
       <use xlink:href="#DejaVuSans-30"/>
       <use x="63.623047" xlink:href="#DejaVuSans-2e"/>
       <use x="95.410156" xlink:href="#DejaVuSans-38"/>
      </g>
     </g>
    </g>
    <g id="ytick_6">
     <g id="line2d_70">
      <path clip-path="url(#pe6021d9b18)" d="M 59.72 8.948542 
L 450.672 8.948542 
" style="fill:none;stroke:#b0b0b0;stroke-linecap:square;stroke-width:0.8;"/>
     </g>
     <g id="line2d_71">
      <g>
       <use style="stroke:#000000;stroke-width:0.8;" x="59.72" xlink:href="#m22b6834825" y="8.948542"/>
      </g>
     </g>
     <g id="text_9">
      <!-- 1.0 -->
      <g transform="translate(27.275 15.027292)scale(0.16 -0.16)">
       <use xlink:href="#DejaVuSans-31"/>
       <use x="63.623047" xlink:href="#DejaVuSans-2e"/>
       <use x="95.410156" xlink:href="#DejaVuSans-30"/>
      </g>
     </g>
    </g>
    <g id="text_10">
     <!-- proportion of trials -->
     <defs>
      <path d="M 18.109375 8.203125 
L 18.109375 -20.796875 
L 9.078125 -20.796875 
L 9.078125 54.6875 
L 18.109375 54.6875 
L 18.109375 46.390625 
Q 20.953125 51.265625 25.265625 53.625 
Q 29.59375 56 35.59375 56 
Q 45.5625 56 51.78125 48.09375 
Q 58.015625 40.1875 58.015625 27.296875 
Q 58.015625 14.40625 51.78125 6.484375 
Q 45.5625 -1.421875 35.59375 -1.421875 
Q 29.59375 -1.421875 25.265625 0.953125 
Q 20.953125 3.328125 18.109375 8.203125 
z
M 48.6875 27.296875 
Q 48.6875 37.203125 44.609375 42.84375 
Q 40.53125 48.484375 33.40625 48.484375 
Q 26.265625 48.484375 22.1875 42.84375 
Q 18.109375 37.203125 18.109375 27.296875 
Q 18.109375 17.390625 22.1875 11.75 
Q 26.265625 6.109375 33.40625 6.109375 
Q 40.53125 6.109375 44.609375 11.75 
Q 48.6875 17.390625 48.6875 27.296875 
z
" id="DejaVuSans-70"/>
      <path d="M 41.109375 46.296875 
Q 39.59375 47.171875 37.8125 47.578125 
Q 36.03125 48 33.890625 48 
Q 26.265625 48 22.1875 43.046875 
Q 18.109375 38.09375 18.109375 28.8125 
L 18.109375 0 
L 9.078125 0 
L 9.078125 54.6875 
L 18.109375 54.6875 
L 18.109375 46.1875 
Q 20.953125 51.171875 25.484375 53.578125 
Q 30.03125 56 36.53125 56 
Q 37.453125 56 38.578125 55.875 
Q 39.703125 55.765625 41.0625 55.515625 
z
" id="DejaVuSans-72"/>
      <path d="M 18.3125 70.21875 
L 18.3125 54.6875 
L 36.8125 54.6875 
L 36.8125 47.703125 
L 18.3125 47.703125 
L 18.3125 18.015625 
Q 18.3125 11.328125 20.140625 9.421875 
Q 21.96875 7.515625 27.59375 7.515625 
L 36.8125 7.515625 
L 36.8125 0 
L 27.59375 0 
Q 17.1875 0 13.234375 3.875 
Q 9.28125 7.765625 9.28125 18.015625 
L 9.28125 47.703125 
L 2.6875 47.703125 
L 2.6875 54.6875 
L 9.28125 54.6875 
L 9.28125 70.21875 
z
" id="DejaVuSans-74"/>
      <path d="M 9.421875 54.6875 
L 18.40625 54.6875 
L 18.40625 0 
L 9.421875 0 
z
M 9.421875 75.984375 
L 18.40625 75.984375 
L 18.40625 64.59375 
L 9.421875 64.59375 
z
" id="DejaVuSans-69"/>
      <path d="M 54.890625 33.015625 
L 54.890625 0 
L 45.90625 0 
L 45.90625 32.71875 
Q 45.90625 40.484375 42.875 44.328125 
Q 39.84375 48.1875 33.796875 48.1875 
Q 26.515625 48.1875 22.3125 43.546875 
Q 18.109375 38.921875 18.109375 30.90625 
L 18.109375 0 
L 9.078125 0 
L 9.078125 54.6875 
L 18.109375 54.6875 
L 18.109375 46.1875 
Q 21.34375 51.125 25.703125 53.5625 
Q 30.078125 56 35.796875 56 
Q 45.21875 56 50.046875 50.171875 
Q 54.890625 44.34375 54.890625 33.015625 
z
" id="DejaVuSans-6e"/>
     </defs>
     <g transform="translate(19.115625 241.930739)rotate(-90)scale(0.2 -0.2)">
      <use xlink:href="#DejaVuSans-70"/>
      <use x="63.476562" xlink:href="#DejaVuSans-72"/>
      <use x="104.558594" xlink:href="#DejaVuSans-6f"/>
      <use x="165.740234" xlink:href="#DejaVuSans-70"/>
      <use x="229.216797" xlink:href="#DejaVuSans-6f"/>
      <use x="290.398438" xlink:href="#DejaVuSans-72"/>
      <use x="331.511719" xlink:href="#DejaVuSans-74"/>
      <use x="370.720703" xlink:href="#DejaVuSans-69"/>
      <use x="398.503906" xlink:href="#DejaVuSans-6f"/>
      <use x="459.685547" xlink:href="#DejaVuSans-6e"/>
      <use x="523.064453" xlink:href="#DejaVuSans-20"/>
      <use x="554.851562" xlink:href="#DejaVuSans-6f"/>
      <use x="616.033203" xlink:href="#DejaVuSans-66"/>
      <use x="651.238281" xlink:href="#DejaVuSans-20"/>
      <use x="683.025391" xlink:href="#DejaVuSans-74"/>
      <use x="722.234375" xlink:href="#DejaVuSans-72"/>
      <use x="763.347656" xlink:href="#DejaVuSans-69"/>
      <use x="791.130859" xlink:href="#DejaVuSans-61"/>
      <use x="852.410156" xlink:href="#DejaVuSans-6c"/>
      <use x="880.193359" xlink:href="#DejaVuSans-73"/>
     </g>
    </g>
   </g>
   <g id="line2d_72">
    <path clip-path="url(#pe6021d9b18)" d="M -1 283.751161 
L 12.832576 283.751161 
L 12.832576 272.457903 
L 33.580592 272.457903 
L 33.580592 261.164645 
L 48.301543 261.164645 
L 48.301543 253.635806 
L 59.72 253.635806 
L 59.72 246.106967 
L 76.937588 246.106967 
L 76.937588 238.578128 
L 83.77051 238.578128 
L 83.77051 231.049289 
L 95.188967 231.049289 
L 95.188967 223.52045 
L 104.518526 223.52045 
L 104.518526 219.756031 
L 108.614383 219.756031 
L 108.614383 212.227192 
L 112.406555 212.227192 
L 112.406555 208.462772 
L 119.239477 208.462772 
L 119.239477 204.698353 
L 122.341694 204.698353 
L 122.341694 200.933934 
L 130.657934 200.933934 
L 130.657934 197.169514 
L 142.076391 197.169514 
L 142.076391 193.405095 
L 144.08335 193.405095 
L 144.08335 189.640675 
L 151.40595 189.640675 
L 151.40595 185.876256 
L 159.293979 185.876256 
L 159.293979 182.111836 
L 162.137538 182.111836 
L 162.137538 178.347417 
L 166.126901 178.347417 
L 166.126901 174.582997 
L 167.390444 174.582997 
L 167.390444 170.818578 
L 192.521526 170.818578 
L 192.521526 167.054159 
L 196.910292 167.054159 
L 196.910292 163.289739 
L 200.9522 163.289739 
L 200.9522 159.52532 
L 206.472976 159.52532 
L 206.472976 155.7609 
L 212.50004 155.7609 
L 212.50004 151.996481 
L 213.014325 151.996481 
L 213.014325 148.232061 
L 215.021284 148.232061 
L 215.021284 144.467642 
L 216.952491 144.467642 
L 216.952491 140.703223 
L 219.268311 140.703223 
L 219.268311 136.938803 
L 221.048348 136.938803 
L 221.048348 133.174384 
L 221.483848 133.174384 
L 221.483848 129.409964 
L 235.440225 129.409964 
L 235.440225 125.645545 
L 244.493929 125.645545 
L 244.493929 121.881125 
L 277.119337 121.881125 
L 277.119337 118.116706 
L 306.460627 118.116706 
L 306.460627 114.352287 
L 315.707718 114.352287 
L 315.707718 110.587867 
L 341.515922 110.587867 
L 341.515922 106.823448 
L 351.723973 106.823448 
L 351.723973 103.059028 
L 355.683556 103.059028 
L 355.683556 99.294609 
L 370.812246 99.294609 
L 370.812246 95.530189 
L 372.833621 95.530189 
L 372.833621 91.76577 
L 392.718548 91.76577 
L 392.718548 88.00135 
L 394.371304 88.00135 
L 394.371304 84.236931 
L 394.988537 84.236931 
L 394.988537 80.472512 
L 398.909928 80.472512 
L 398.909928 76.708092 
L 407.508169 76.708092 
L 407.508169 72.943673 
L 408.268794 72.943673 
L 408.268794 69.179253 
L 410.160336 69.179253 
L 410.160336 65.414834 
L 411.383603 65.414834 
L 411.383603 61.650414 
L 415.428867 61.650414 
L 415.428867 57.885995 
L 420.622955 57.885995 
L 420.622955 54.121576 
L 426.95889 54.121576 
L 426.95889 50.357156 
L 426.95889 50.357156 
L 450.672 50.357156 
L 450.672 50.357156 
" style="fill:none;stroke:#000000;stroke-linecap:square;stroke-width:1.5;"/>
   </g>
   <g id="line2d_73">
    <path clip-path="url(#pe6021d9b18)" style="fill:none;stroke:#000000;stroke-linecap:square;stroke-width:1.5;"/>
   </g>
   <g id="line2d_74"/>
   <g id="line2d_75"/>
   <g id="line2d_76"/>
   <g id="line2d_77">
    <path clip-path="url(#pe6021d9b18)" d="M 450.672 291.28 
L 450.672 6.125228 
" style="fill:none;stroke:#000000;stroke-linecap:square;stroke-width:1.5;"/>
   </g>
   <g id="patch_3">
    <path d="M 59.72 291.28 
L 59.72 6.125228 
" style="fill:none;stroke:#000000;stroke-linecap:square;stroke-linejoin:miter;stroke-width:0.8;"/>
   </g>
   <g id="patch_4">
    <path d="M 450.672 291.28 
L 450.672 6.125228 
" style="fill:none;stroke:#000000;stroke-linecap:square;stroke-linejoin:miter;stroke-width:0.8;"/>
   </g>
   <g id="patch_5">
    <path d="M 59.72 291.28 
L 450.672 291.28 
" style="fill:none;stroke:#000000;stroke-linecap:square;stroke-linejoin:miter;stroke-width:0.8;"/>
   </g>
   <g id="patch_6">
    <path d="M 59.72 6.125228 
L 450.672 6.125228 
" style="fill:none;stroke:#000000;stroke-linecap:square;stroke-linejoin:miter;stroke-width:0.8;"/>
   </g>
   <g id="text_11">
    <!-- {f20-f24}, 5-D -->
    <defs>
     <path d="M 51.125 -9.28125 
L 51.125 -16.3125 
L 48.09375 -16.3125 
Q 35.9375 -16.3125 31.8125 -12.6875 
Q 27.6875 -9.078125 27.6875 1.703125 
L 27.6875 13.375 
Q 27.6875 20.75 25.046875 23.578125 
Q 22.40625 26.421875 15.484375 26.421875 
L 12.5 26.421875 
L 12.5 33.40625 
L 15.484375 33.40625 
Q 22.46875 33.40625 25.078125 36.203125 
Q 27.6875 39.015625 27.6875 46.296875 
L 27.6875 58.015625 
Q 27.6875 68.796875 31.8125 72.390625 
Q 35.9375 75.984375 48.09375 75.984375 
L 51.125 75.984375 
L 51.125 69 
L 47.796875 69 
Q 40.921875 69 38.8125 66.84375 
Q 36.71875 64.703125 36.71875 57.8125 
L 36.71875 45.703125 
Q 36.71875 38.03125 34.5 34.5625 
Q 32.28125 31.109375 26.90625 29.890625 
Q 32.328125 28.5625 34.515625 25.09375 
Q 36.71875 21.625 36.71875 14.015625 
L 36.71875 1.90625 
Q 36.71875 -4.984375 38.8125 -7.125 
Q 40.921875 -9.28125 47.796875 -9.28125 
z
" id="DejaVuSans-7b"/>
     <path d="M 4.890625 31.390625 
L 31.203125 31.390625 
L 31.203125 23.390625 
L 4.890625 23.390625 
z
" id="DejaVuSans-2d"/>
     <path d="M 12.5 -9.28125 
L 15.921875 -9.28125 
Q 22.75 -9.28125 24.828125 -7.171875 
Q 26.90625 -5.078125 26.90625 1.90625 
L 26.90625 14.015625 
Q 26.90625 21.625 29.09375 25.09375 
Q 31.296875 28.5625 36.71875 29.890625 
Q 31.296875 31.109375 29.09375 34.5625 
Q 26.90625 38.03125 26.90625 45.703125 
L 26.90625 57.8125 
Q 26.90625 64.75 24.828125 66.875 
Q 22.75 69 15.921875 69 
L 12.5 69 
L 12.5 75.984375 
L 15.578125 75.984375 
Q 27.734375 75.984375 31.8125 72.390625 
Q 35.890625 68.796875 35.890625 58.015625 
L 35.890625 46.296875 
Q 35.890625 39.015625 38.515625 36.203125 
Q 41.15625 33.40625 48.09375 33.40625 
L 51.125 33.40625 
L 51.125 26.421875 
L 48.09375 26.421875 
Q 41.15625 26.421875 38.515625 23.578125 
Q 35.890625 20.75 35.890625 13.375 
L 35.890625 1.703125 
Q 35.890625 -9.078125 31.8125 -12.6875 
Q 27.734375 -16.3125 15.578125 -16.3125 
L 12.5 -16.3125 
z
" id="DejaVuSans-7d"/>
     <path d="M 11.71875 12.40625 
L 22.015625 12.40625 
L 22.015625 4 
L 14.015625 -11.625 
L 7.71875 -11.625 
L 11.71875 4 
z
" id="DejaVuSans-2c"/>
     <path d="M 10.796875 72.90625 
L 49.515625 72.90625 
L 49.515625 64.59375 
L 19.828125 64.59375 
L 19.828125 46.734375 
Q 21.96875 47.46875 24.109375 47.828125 
Q 26.265625 48.1875 28.421875 48.1875 
Q 40.625 48.1875 47.75 41.5 
Q 54.890625 34.8125 54.890625 23.390625 
Q 54.890625 11.625 47.5625 5.09375 
Q 40.234375 -1.421875 26.90625 -1.421875 
Q 22.3125 -1.421875 17.546875 -0.640625 
Q 12.796875 0.140625 7.71875 1.703125 
L 7.71875 11.625 
Q 12.109375 9.234375 16.796875 8.0625 
Q 21.484375 6.890625 26.703125 6.890625 
Q 35.15625 6.890625 40.078125 11.328125 
Q 45.015625 15.765625 45.015625 23.390625 
Q 45.015625 31 40.078125 35.4375 
Q 35.15625 39.890625 26.703125 39.890625 
Q 22.75 39.890625 18.8125 39.015625 
Q 14.890625 38.140625 10.796875 36.28125 
z
" id="DejaVuSans-35"/>
    </defs>
    <g transform="translate(182.346 27.025198)scale(0.2 -0.2)">
     <use xlink:href="#DejaVuSans-7b"/>
     <use x="63.623047" xlink:href="#DejaVuSans-66"/>
     <use x="98.828125" xlink:href="#DejaVuSans-32"/>
     <use x="162.451172" xlink:href="#DejaVuSans-30"/>
     <use x="226.074219" xlink:href="#DejaVuSans-2d"/>
     <use x="262.158203" xlink:href="#DejaVuSans-66"/>
     <use x="297.363281" xlink:href="#DejaVuSans-32"/>
     <use x="360.986328" xlink:href="#DejaVuSans-34"/>
     <use x="424.609375" xlink:href="#DejaVuSans-7d"/>
     <use x="488.232422" xlink:href="#DejaVuSans-2c"/>
     <use x="520.019531" xlink:href="#DejaVuSans-20"/>
     <use x="551.806641" xlink:href="#DejaVuSans-35"/>
     <use x="615.429688" xlink:href="#DejaVuSans-2d"/>
     <use x="651.513672" xlink:href="#DejaVuSans-44"/>
    </g>
   </g>
   <g id="text_12">
    <!-- absolute targets -->
    <defs>
     <path d="M 48.6875 27.296875 
Q 48.6875 37.203125 44.609375 42.84375 
Q 40.53125 48.484375 33.40625 48.484375 
Q 26.265625 48.484375 22.1875 42.84375 
Q 18.109375 37.203125 18.109375 27.296875 
Q 18.109375 17.390625 22.1875 11.75 
Q 26.265625 6.109375 33.40625 6.109375 
Q 40.53125 6.109375 44.609375 11.75 
Q 48.6875 17.390625 48.6875 27.296875 
z
M 18.109375 46.390625 
Q 20.953125 51.265625 25.265625 53.625 
Q 29.59375 56 35.59375 56 
Q 45.5625 56 51.78125 48.09375 
Q 58.015625 40.1875 58.015625 27.296875 
Q 58.015625 14.40625 51.78125 6.484375 
Q 45.5625 -1.421875 35.59375 -1.421875 
Q 29.59375 -1.421875 25.265625 0.953125 
Q 20.953125 3.328125 18.109375 8.203125 
L 18.109375 0 
L 9.078125 0 
L 9.078125 75.984375 
L 18.109375 75.984375 
z
" id="DejaVuSans-62"/>
     <path d="M 8.5 21.578125 
L 8.5 54.6875 
L 17.484375 54.6875 
L 17.484375 21.921875 
Q 17.484375 14.15625 20.5 10.265625 
Q 23.53125 6.390625 29.59375 6.390625 
Q 36.859375 6.390625 41.078125 11.03125 
Q 45.3125 15.671875 45.3125 23.6875 
L 45.3125 54.6875 
L 54.296875 54.6875 
L 54.296875 0 
L 45.3125 0 
L 45.3125 8.40625 
Q 42.046875 3.421875 37.71875 1 
Q 33.40625 -1.421875 27.6875 -1.421875 
Q 18.265625 -1.421875 13.375 4.4375 
Q 8.5 10.296875 8.5 21.578125 
z
M 31.109375 56 
z
" id="DejaVuSans-75"/>
     <path d="M 56.203125 29.59375 
L 56.203125 25.203125 
L 14.890625 25.203125 
Q 15.484375 15.921875 20.484375 11.0625 
Q 25.484375 6.203125 34.421875 6.203125 
Q 39.59375 6.203125 44.453125 7.46875 
Q 49.3125 8.734375 54.109375 11.28125 
L 54.109375 2.78125 
Q 49.265625 0.734375 44.1875 -0.34375 
Q 39.109375 -1.421875 33.890625 -1.421875 
Q 20.796875 -1.421875 13.15625 6.1875 
Q 5.515625 13.8125 5.515625 26.8125 
Q 5.515625 40.234375 12.765625 48.109375 
Q 20.015625 56 32.328125 56 
Q 43.359375 56 49.78125 48.890625 
Q 56.203125 41.796875 56.203125 29.59375 
z
M 47.21875 32.234375 
Q 47.125 39.59375 43.09375 43.984375 
Q 39.0625 48.390625 32.421875 48.390625 
Q 24.90625 48.390625 20.390625 44.140625 
Q 15.875 39.890625 15.1875 32.171875 
z
" id="DejaVuSans-65"/>
    </defs>
    <g transform="translate(59.72 599.774173)scale(0.14 -0.14)">
     <use xlink:href="#DejaVuSans-61"/>
     <use x="61.279297" xlink:href="#DejaVuSans-62"/>
     <use x="124.755859" xlink:href="#DejaVuSans-73"/>
     <use x="176.855469" xlink:href="#DejaVuSans-6f"/>
     <use x="238.037109" xlink:href="#DejaVuSans-6c"/>
     <use x="265.820312" xlink:href="#DejaVuSans-75"/>
     <use x="329.199219" xlink:href="#DejaVuSans-74"/>
     <use x="368.408203" xlink:href="#DejaVuSans-65"/>
     <use x="429.931641" xlink:href="#DejaVuSans-20"/>
     <use x="461.71875" xlink:href="#DejaVuSans-74"/>
     <use x="500.927734" xlink:href="#DejaVuSans-61"/>
     <use x="562.207031" xlink:href="#DejaVuSans-72"/>
     <use x="603.304688" xlink:href="#DejaVuSans-67"/>
     <use x="666.78125" xlink:href="#DejaVuSans-65"/>
     <use x="728.304688" xlink:href="#DejaVuSans-74"/>
     <use x="767.513672" xlink:href="#DejaVuSans-73"/>
    </g>
   </g>
   <g id="text_13">
    <!-- v2.2.1.10 -->
    <g style="fill:#808080;" transform="translate(231.563188 286.348765)scale(0.1 -0.1)">
     <use xlink:href="#DejaVuSans-76"/>
     <use x="59.179688" xlink:href="#DejaVuSans-32"/>
     <use x="122.802734" xlink:href="#DejaVuSans-2e"/>
     <use x="154.589844" xlink:href="#DejaVuSans-32"/>
     <use x="218.212891" xlink:href="#DejaVuSans-2e"/>
     <use x="250" xlink:href="#DejaVuSans-31"/>
     <use x="313.623047" xlink:href="#DejaVuSans-2e"/>
     <use x="345.410156" xlink:href="#DejaVuSans-31"/>
     <use x="409.033203" xlink:href="#DejaVuSans-30"/>
    </g>
   </g>
   <g id="legend_1">
    <g id="patch_7">
     <path d="M 73.72 139.550228 
L 202.941875 139.550228 
Q 206.941875 139.550228 206.941875 135.550228 
L 206.941875 20.125228 
Q 206.941875 16.125228 202.941875 16.125228 
L 73.72 16.125228 
Q 69.72 16.125228 69.72 20.125228 
L 69.72 135.550228 
Q 69.72 139.550228 73.72 139.550228 
z
" style="fill:#ffffff;opacity:0.2;stroke:#cccccc;stroke-linejoin:miter;"/>
    </g>
    <g id="line2d_78">
     <path d="M 77.72 32.322103 
L 117.72 32.322103 
" style="fill:none;stroke:#000000;stroke-linecap:square;stroke-width:1.5;"/>
    </g>
    <g id="line2d_79"/>
    <g id="text_14">
     <!-- 1: 5/5 -->
     <defs>
      <path d="M 11.71875 12.40625 
L 22.015625 12.40625 
L 22.015625 0 
L 11.71875 0 
z
M 11.71875 51.703125 
L 22.015625 51.703125 
L 22.015625 39.3125 
L 11.71875 39.3125 
z
" id="DejaVuSans-3a"/>
     </defs>
     <g transform="translate(133.72 39.322103)scale(0.2 -0.2)">
      <use xlink:href="#DejaVuSans-31"/>
      <use x="63.623047" xlink:href="#DejaVuSans-3a"/>
      <use x="97.314453" xlink:href="#DejaVuSans-20"/>
      <use x="129.101562" xlink:href="#DejaVuSans-35"/>
      <use x="192.724609" xlink:href="#DejaVuSans-2f"/>
      <use x="226.416016" xlink:href="#DejaVuSans-35"/>
     </g>
    </g>
    <g id="line2d_80">
     <path d="M 77.72 61.678353 
L 117.72 61.678353 
" style="fill:none;stroke:#00bfbf;stroke-linecap:square;stroke-width:1.5;"/>
    </g>
    <g id="line2d_81"/>
    <g id="text_15">
     <!-- -1: 0/5 -->
     <g transform="translate(133.72 68.678353)scale(0.2 -0.2)">
      <use xlink:href="#DejaVuSans-2d"/>
      <use x="36.083984" xlink:href="#DejaVuSans-31"/>
      <use x="99.707031" xlink:href="#DejaVuSans-3a"/>
      <use x="133.398438" xlink:href="#DejaVuSans-20"/>
      <use x="165.185547" xlink:href="#DejaVuSans-30"/>
      <use x="228.808594" xlink:href="#DejaVuSans-2f"/>
      <use x="262.5" xlink:href="#DejaVuSans-35"/>
     </g>
    </g>
    <g id="line2d_82">
     <path d="M 77.72 91.034603 
L 117.72 91.034603 
" style="fill:none;stroke:#bf00bf;stroke-linecap:square;stroke-width:1.5;"/>
    </g>
    <g id="line2d_83"/>
    <g id="text_16">
     <!-- -4: 0/5 -->
     <g transform="translate(133.72 98.034603)scale(0.2 -0.2)">
      <use xlink:href="#DejaVuSans-2d"/>
      <use x="36.083984" xlink:href="#DejaVuSans-34"/>
      <use x="99.707031" xlink:href="#DejaVuSans-3a"/>
      <use x="133.398438" xlink:href="#DejaVuSans-20"/>
      <use x="165.185547" xlink:href="#DejaVuSans-30"/>
      <use x="228.808594" xlink:href="#DejaVuSans-2f"/>
      <use x="262.5" xlink:href="#DejaVuSans-35"/>
     </g>
    </g>
    <g id="line2d_84">
     <path d="M 77.72 120.390853 
L 117.72 120.390853 
" style="fill:none;stroke:#ff0000;stroke-linecap:square;stroke-width:3;"/>
    </g>
    <g id="line2d_85"/>
    <g id="text_17">
     <!-- -8: 0/5 -->
     <g transform="translate(133.72 127.390853)scale(0.2 -0.2)">
      <use xlink:href="#DejaVuSans-2d"/>
      <use x="36.083984" xlink:href="#DejaVuSans-38"/>
      <use x="99.707031" xlink:href="#DejaVuSans-3a"/>
      <use x="133.398438" xlink:href="#DejaVuSans-20"/>
      <use x="165.185547" xlink:href="#DejaVuSans-30"/>
      <use x="228.808594" xlink:href="#DejaVuSans-2f"/>
      <use x="262.5" xlink:href="#DejaVuSans-35"/>
     </g>
    </g>
   </g>
  </g>
 </g>
 <defs>
  <clipPath id="pe6021d9b18">
   <rect height="285.154772" width="390.952" x="59.72" y="6.125228"/>
  </clipPath>
 </defs>
</svg>
