<?xml version="1.0" encoding="utf-8" standalone="no"?>
<!DOCTYPE svg PUBLIC "-//W3C//DTD SVG 1.1//EN"
  "http://www.w3.org/Graphics/SVG/1.1/DTD/svg11.dtd">
<!-- Created with matplotlib (http://matplotlib.org/) -->
<svg height="345.6pt" version="1.1" viewBox="0 0 460.8 345.6" width="460.8pt" xmlns="http://www.w3.org/2000/svg" xmlns:xlink="http://www.w3.org/1999/xlink">
 <defs>
  <style type="text/css">
*{stroke-linecap:butt;stroke-linejoin:round;}
  </style>
 </defs>
 <g id="figure_1">
  <g id="patch_1">
   <path d="M 0 345.6 
L 460.8 345.6 
L 460.8 0 
L 0 0 
z
" style="fill:#ffffff;"/>
  </g>
  <g id="axes_1">
   <g id="patch_2">
    <path d="M 56.84 294.16 
L 399.984 294.16 
L 399.984 6.125228 
L 56.84 6.125228 
z
" style="fill:#ffffff;"/>
   </g>
   <g id="matplotlib.axis_1">
    <g id="xtick_1">
     <g id="line2d_1">
      <path clip-path="url(#p9a9c93680b)" d="M 56.84 294.16 
L 56.84 6.125228 
" style="fill:none;stroke:#b0b0b0;stroke-linecap:square;stroke-width:0.8;"/>
     </g>
     <g id="line2d_2">
      <defs>
       <path d="M 0 0 
L 0 3.5 
" id="m5622a85381" style="stroke:#000000;stroke-width:0.8;"/>
      </defs>
      <g>
       <use style="stroke:#000000;stroke-width:0.8;" x="56.84" xlink:href="#m5622a85381" y="294.16"/>
      </g>
     </g>
     <g id="text_1">
      <!-- 0 -->
      <defs>
       <path d="M 31.78125 66.40625 
Q 24.171875 66.40625 20.328125 58.90625 
Q 16.5 51.421875 16.5 36.375 
Q 16.5 21.390625 20.328125 13.890625 
Q 24.171875 6.390625 31.78125 6.390625 
Q 39.453125 6.390625 43.28125 13.890625 
Q 47.125 21.390625 47.125 36.375 
Q 47.125 51.421875 43.28125 58.90625 
Q 39.453125 66.40625 31.78125 66.40625 
z
M 31.78125 74.21875 
Q 44.046875 74.21875 50.515625 64.515625 
Q 56.984375 54.828125 56.984375 36.375 
Q 56.984375 17.96875 50.515625 8.265625 
Q 44.046875 -1.421875 31.78125 -1.421875 
Q 19.53125 -1.421875 13.0625 8.265625 
Q 6.59375 17.96875 6.59375 36.375 
Q 6.59375 54.828125 13.0625 64.515625 
Q 19.53125 74.21875 31.78125 74.21875 
z
" id="DejaVuSans-30"/>
      </defs>
      <g transform="translate(50.4775 316.356875)scale(0.2 -0.2)">
       <use xlink:href="#DejaVuSans-30"/>
      </g>
     </g>
    </g>
    <g id="xtick_2">
     <g id="line2d_3">
      <path clip-path="url(#p9a9c93680b)" d="M 135.905438 294.16 
L 135.905438 6.125228 
" style="fill:none;stroke:#b0b0b0;stroke-linecap:square;stroke-width:0.8;"/>
     </g>
     <g id="line2d_4">
      <g>
       <use style="stroke:#000000;stroke-width:0.8;" x="135.905438" xlink:href="#m5622a85381" y="294.16"/>
      </g>
     </g>
     <g id="text_2">
      <!-- 2 -->
      <defs>
       <path d="M 19.1875 8.296875 
L 53.609375 8.296875 
L 53.609375 0 
L 7.328125 0 
L 7.328125 8.296875 
Q 12.9375 14.109375 22.625 23.890625 
Q 32.328125 33.6875 34.8125 36.53125 
Q 39.546875 41.84375 41.421875 45.53125 
Q 43.3125 49.21875 43.3125 52.78125 
Q 43.3125 58.59375 39.234375 62.25 
Q 35.15625 65.921875 28.609375 65.921875 
Q 23.96875 65.921875 18.8125 64.3125 
Q 13.671875 62.703125 7.8125 59.421875 
L 7.8125 69.390625 
Q 13.765625 71.78125 18.9375 73 
Q 24.125 74.21875 28.421875 74.21875 
Q 39.75 74.21875 46.484375 68.546875 
Q 53.21875 62.890625 53.21875 53.421875 
Q 53.21875 48.921875 51.53125 44.890625 
Q 49.859375 40.875 45.40625 35.40625 
Q 44.1875 33.984375 37.640625 27.21875 
Q 31.109375 20.453125 19.1875 8.296875 
z
" id="DejaVuSans-32"/>
      </defs>
      <g transform="translate(129.542938 316.356875)scale(0.2 -0.2)">
       <use xlink:href="#DejaVuSans-32"/>
      </g>
     </g>
    </g>
    <g id="xtick_3">
     <g id="line2d_5">
      <path clip-path="url(#p9a9c93680b)" d="M 214.970876 294.16 
L 214.970876 6.125228 
" style="fill:none;stroke:#b0b0b0;stroke-linecap:square;stroke-width:0.8;"/>
     </g>
     <g id="line2d_6">
      <g>
       <use style="stroke:#000000;stroke-width:0.8;" x="214.970876" xlink:href="#m5622a85381" y="294.16"/>
      </g>
     </g>
     <g id="text_3">
      <!-- 4 -->
      <defs>
       <path d="M 37.796875 64.3125 
L 12.890625 25.390625 
L 37.796875 25.390625 
z
M 35.203125 72.90625 
L 47.609375 72.90625 
L 47.609375 25.390625 
L 58.015625 25.390625 
L 58.015625 17.1875 
L 47.609375 17.1875 
L 47.609375 0 
L 37.796875 0 
L 37.796875 17.1875 
L 4.890625 17.1875 
L 4.890625 26.703125 
z
" id="DejaVuSans-34"/>
      </defs>
      <g transform="translate(208.608376 316.356875)scale(0.2 -0.2)">
       <use xlink:href="#DejaVuSans-34"/>
      </g>
     </g>
    </g>
    <g id="xtick_4">
     <g id="line2d_7">
      <path clip-path="url(#p9a9c93680b)" d="M 294.036313 294.16 
L 294.036313 6.125228 
" style="fill:none;stroke:#b0b0b0;stroke-linecap:square;stroke-width:0.8;"/>
     </g>
     <g id="line2d_8">
      <g>
       <use style="stroke:#000000;stroke-width:0.8;" x="294.036313" xlink:href="#m5622a85381" y="294.16"/>
      </g>
     </g>
     <g id="text_4">
      <!-- 6 -->
      <defs>
       <path d="M 33.015625 40.375 
Q 26.375 40.375 22.484375 35.828125 
Q 18.609375 31.296875 18.609375 23.390625 
Q 18.609375 15.53125 22.484375 10.953125 
Q 26.375 6.390625 33.015625 6.390625 
Q 39.65625 6.390625 43.53125 10.953125 
Q 47.40625 15.53125 47.40625 23.390625 
Q 47.40625 31.296875 43.53125 35.828125 
Q 39.65625 40.375 33.015625 40.375 
z
M 52.59375 71.296875 
L 52.59375 62.3125 
Q 48.875 64.0625 45.09375 64.984375 
Q 41.3125 65.921875 37.59375 65.921875 
Q 27.828125 65.921875 22.671875 59.328125 
Q 17.53125 52.734375 16.796875 39.40625 
Q 19.671875 43.65625 24.015625 45.921875 
Q 28.375 48.1875 33.59375 48.1875 
Q 44.578125 48.1875 50.953125 41.515625 
Q 57.328125 34.859375 57.328125 23.390625 
Q 57.328125 12.15625 50.6875 5.359375 
Q 44.046875 -1.421875 33.015625 -1.421875 
Q 20.359375 -1.421875 13.671875 8.265625 
Q 6.984375 17.96875 6.984375 36.375 
Q 6.984375 53.65625 15.1875 63.9375 
Q 23.390625 74.21875 37.203125 74.21875 
Q 40.921875 74.21875 44.703125 73.484375 
Q 48.484375 72.75 52.59375 71.296875 
z
" id="DejaVuSans-36"/>
      </defs>
      <g transform="translate(287.673813 316.356875)scale(0.2 -0.2)">
       <use xlink:href="#DejaVuSans-36"/>
      </g>
     </g>
    </g>
    <g id="xtick_5">
     <g id="line2d_9">
      <path clip-path="url(#p9a9c93680b)" d="M 373.101751 294.16 
L 373.101751 6.125228 
" style="fill:none;stroke:#b0b0b0;stroke-linecap:square;stroke-width:0.8;"/>
     </g>
     <g id="line2d_10">
      <g>
       <use style="stroke:#000000;stroke-width:0.8;" x="373.101751" xlink:href="#m5622a85381" y="294.16"/>
      </g>
     </g>
     <g id="text_5">
      <!-- 8 -->
      <defs>
       <path d="M 31.78125 34.625 
Q 24.75 34.625 20.71875 30.859375 
Q 16.703125 27.09375 16.703125 20.515625 
Q 16.703125 13.921875 20.71875 10.15625 
Q 24.75 6.390625 31.78125 6.390625 
Q 38.8125 6.390625 42.859375 10.171875 
Q 46.921875 13.96875 46.921875 20.515625 
Q 46.921875 27.09375 42.890625 30.859375 
Q 38.875 34.625 31.78125 34.625 
z
M 21.921875 38.8125 
Q 15.578125 40.375 12.03125 44.71875 
Q 8.5 49.078125 8.5 55.328125 
Q 8.5 64.0625 14.71875 69.140625 
Q 20.953125 74.21875 31.78125 74.21875 
Q 42.671875 74.21875 48.875 69.140625 
Q 55.078125 64.0625 55.078125 55.328125 
Q 55.078125 49.078125 51.53125 44.71875 
Q 48 40.375 41.703125 38.8125 
Q 48.828125 37.15625 52.796875 32.3125 
Q 56.78125 27.484375 56.78125 20.515625 
Q 56.78125 9.90625 50.3125 4.234375 
Q 43.84375 -1.421875 31.78125 -1.421875 
Q 19.734375 -1.421875 13.25 4.234375 
Q 6.78125 9.90625 6.78125 20.515625 
Q 6.78125 27.484375 10.78125 32.3125 
Q 14.796875 37.15625 21.921875 38.8125 
z
M 18.3125 54.390625 
Q 18.3125 48.734375 21.84375 45.5625 
Q 25.390625 42.390625 31.78125 42.390625 
Q 38.140625 42.390625 41.71875 45.5625 
Q 45.3125 48.734375 45.3125 54.390625 
Q 45.3125 60.0625 41.71875 63.234375 
Q 38.140625 66.40625 31.78125 66.40625 
Q 25.390625 66.40625 21.84375 63.234375 
Q 18.3125 60.0625 18.3125 54.390625 
z
" id="DejaVuSans-38"/>
      </defs>
      <g transform="translate(366.739251 316.356875)scale(0.2 -0.2)">
       <use xlink:href="#DejaVuSans-38"/>
      </g>
     </g>
    </g>
    <g id="text_6">
     <!-- log10(# f-evals / dimension) -->
     <defs>
      <path d="M 9.421875 75.984375 
L 18.40625 75.984375 
L 18.40625 0 
L 9.421875 0 
z
" id="DejaVuSans-6c"/>
      <path d="M 30.609375 48.390625 
Q 23.390625 48.390625 19.1875 42.75 
Q 14.984375 37.109375 14.984375 27.296875 
Q 14.984375 17.484375 19.15625 11.84375 
Q 23.34375 6.203125 30.609375 6.203125 
Q 37.796875 6.203125 41.984375 11.859375 
Q 46.1875 17.53125 46.1875 27.296875 
Q 46.1875 37.015625 41.984375 42.703125 
Q 37.796875 48.390625 30.609375 48.390625 
z
M 30.609375 56 
Q 42.328125 56 49.015625 48.375 
Q 55.71875 40.765625 55.71875 27.296875 
Q 55.71875 13.875 49.015625 6.21875 
Q 42.328125 -1.421875 30.609375 -1.421875 
Q 18.84375 -1.421875 12.171875 6.21875 
Q 5.515625 13.875 5.515625 27.296875 
Q 5.515625 40.765625 12.171875 48.375 
Q 18.84375 56 30.609375 56 
z
" id="DejaVuSans-6f"/>
      <path d="M 45.40625 27.984375 
Q 45.40625 37.75 41.375 43.109375 
Q 37.359375 48.484375 30.078125 48.484375 
Q 22.859375 48.484375 18.828125 43.109375 
Q 14.796875 37.75 14.796875 27.984375 
Q 14.796875 18.265625 18.828125 12.890625 
Q 22.859375 7.515625 30.078125 7.515625 
Q 37.359375 7.515625 41.375 12.890625 
Q 45.40625 18.265625 45.40625 27.984375 
z
M 54.390625 6.78125 
Q 54.390625 -7.171875 48.1875 -13.984375 
Q 42 -20.796875 29.203125 -20.796875 
Q 24.46875 -20.796875 20.265625 -20.09375 
Q 16.0625 -19.390625 12.109375 -17.921875 
L 12.109375 -9.1875 
Q 16.0625 -11.328125 19.921875 -12.34375 
Q 23.78125 -13.375 27.78125 -13.375 
Q 36.625 -13.375 41.015625 -8.765625 
Q 45.40625 -4.15625 45.40625 5.171875 
L 45.40625 9.625 
Q 42.625 4.78125 38.28125 2.390625 
Q 33.9375 0 27.875 0 
Q 17.828125 0 11.671875 7.65625 
Q 5.515625 15.328125 5.515625 27.984375 
Q 5.515625 40.671875 11.671875 48.328125 
Q 17.828125 56 27.875 56 
Q 33.9375 56 38.28125 53.609375 
Q 42.625 51.21875 45.40625 46.390625 
L 45.40625 54.6875 
L 54.390625 54.6875 
z
" id="DejaVuSans-67"/>
      <path d="M 12.40625 8.296875 
L 28.515625 8.296875 
L 28.515625 63.921875 
L 10.984375 60.40625 
L 10.984375 69.390625 
L 28.421875 72.90625 
L 38.28125 72.90625 
L 38.28125 8.296875 
L 54.390625 8.296875 
L 54.390625 0 
L 12.40625 0 
z
" id="DejaVuSans-31"/>
      <path d="M 31 75.875 
Q 24.46875 64.65625 21.28125 53.65625 
Q 18.109375 42.671875 18.109375 31.390625 
Q 18.109375 20.125 21.3125 9.0625 
Q 24.515625 -2 31 -13.1875 
L 23.1875 -13.1875 
Q 15.875 -1.703125 12.234375 9.375 
Q 8.59375 20.453125 8.59375 31.390625 
Q 8.59375 42.28125 12.203125 53.3125 
Q 15.828125 64.359375 23.1875 75.875 
z
" id="DejaVuSans-28"/>
      <path d="M 51.125 44 
L 36.921875 44 
L 32.8125 27.6875 
L 47.125 27.6875 
z
M 43.796875 71.78125 
L 38.71875 51.515625 
L 52.984375 51.515625 
L 58.109375 71.78125 
L 65.921875 71.78125 
L 60.890625 51.515625 
L 76.125 51.515625 
L 76.125 44 
L 58.984375 44 
L 54.984375 27.6875 
L 70.515625 27.6875 
L 70.515625 20.21875 
L 53.078125 20.21875 
L 48 0 
L 40.1875 0 
L 45.21875 20.21875 
L 30.90625 20.21875 
L 25.875 0 
L 18.015625 0 
L 23.09375 20.21875 
L 7.71875 20.21875 
L 7.71875 27.6875 
L 24.90625 27.6875 
L 29 44 
L 13.28125 44 
L 13.28125 51.515625 
L 30.90625 51.515625 
L 35.890625 71.78125 
z
" id="DejaVuSans-23"/>
      <path id="DejaVuSans-20"/>
      <path d="M 37.109375 75.984375 
L 37.109375 68.5 
L 28.515625 68.5 
Q 23.6875 68.5 21.796875 66.546875 
Q 19.921875 64.59375 19.921875 59.515625 
L 19.921875 54.6875 
L 34.71875 54.6875 
L 34.71875 47.703125 
L 19.921875 47.703125 
L 19.921875 0 
L 10.890625 0 
L 10.890625 47.703125 
L 2.296875 47.703125 
L 2.296875 54.6875 
L 10.890625 54.6875 
L 10.890625 58.5 
Q 10.890625 67.625 15.140625 71.796875 
Q 19.390625 75.984375 28.609375 75.984375 
z
" id="DejaVuSans-66"/>
      <path d="M 4.890625 31.390625 
L 31.203125 31.390625 
L 31.203125 23.390625 
L 4.890625 23.390625 
z
" id="DejaVuSans-2d"/>
      <path d="M 56.203125 29.59375 
L 56.203125 25.203125 
L 14.890625 25.203125 
Q 15.484375 15.921875 20.484375 11.0625 
Q 25.484375 6.203125 34.421875 6.203125 
Q 39.59375 6.203125 44.453125 7.46875 
Q 49.3125 8.734375 54.109375 11.28125 
L 54.109375 2.78125 
Q 49.265625 0.734375 44.1875 -0.34375 
Q 39.109375 -1.421875 33.890625 -1.421875 
Q 20.796875 -1.421875 13.15625 6.1875 
Q 5.515625 13.8125 5.515625 26.8125 
Q 5.515625 40.234375 12.765625 48.109375 
Q 20.015625 56 32.328125 56 
Q 43.359375 56 49.78125 48.890625 
Q 56.203125 41.796875 56.203125 29.59375 
z
M 47.21875 32.234375 
Q 47.125 39.59375 43.09375 43.984375 
Q 39.0625 48.390625 32.421875 48.390625 
Q 24.90625 48.390625 20.390625 44.140625 
Q 15.875 39.890625 15.1875 32.171875 
z
" id="DejaVuSans-65"/>
      <path d="M 2.984375 54.6875 
L 12.5 54.6875 
L 29.59375 8.796875 
L 46.6875 54.6875 
L 56.203125 54.6875 
L 35.6875 0 
L 23.484375 0 
z
" id="DejaVuSans-76"/>
      <path d="M 34.28125 27.484375 
Q 23.390625 27.484375 19.1875 25 
Q 14.984375 22.515625 14.984375 16.5 
Q 14.984375 11.71875 18.140625 8.90625 
Q 21.296875 6.109375 26.703125 6.109375 
Q 34.1875 6.109375 38.703125 11.40625 
Q 43.21875 16.703125 43.21875 25.484375 
L 43.21875 27.484375 
z
M 52.203125 31.203125 
L 52.203125 0 
L 43.21875 0 
L 43.21875 8.296875 
Q 40.140625 3.328125 35.546875 0.953125 
Q 30.953125 -1.421875 24.3125 -1.421875 
Q 15.921875 -1.421875 10.953125 3.296875 
Q 6 8.015625 6 15.921875 
Q 6 25.140625 12.171875 29.828125 
Q 18.359375 34.515625 30.609375 34.515625 
L 43.21875 34.515625 
L 43.21875 35.40625 
Q 43.21875 41.609375 39.140625 45 
Q 35.0625 48.390625 27.6875 48.390625 
Q 23 48.390625 18.546875 47.265625 
Q 14.109375 46.140625 10.015625 43.890625 
L 10.015625 52.203125 
Q 14.9375 54.109375 19.578125 55.046875 
Q 24.21875 56 28.609375 56 
Q 40.484375 56 46.34375 49.84375 
Q 52.203125 43.703125 52.203125 31.203125 
z
" id="DejaVuSans-61"/>
      <path d="M 44.28125 53.078125 
L 44.28125 44.578125 
Q 40.484375 46.53125 36.375 47.5 
Q 32.28125 48.484375 27.875 48.484375 
Q 21.1875 48.484375 17.84375 46.4375 
Q 14.5 44.390625 14.5 40.28125 
Q 14.5 37.15625 16.890625 35.375 
Q 19.28125 33.59375 26.515625 31.984375 
L 29.59375 31.296875 
Q 39.15625 29.25 43.1875 25.515625 
Q 47.21875 21.78125 47.21875 15.09375 
Q 47.21875 7.46875 41.1875 3.015625 
Q 35.15625 -1.421875 24.609375 -1.421875 
Q 20.21875 -1.421875 15.453125 -0.5625 
Q 10.6875 0.296875 5.421875 2 
L 5.421875 11.28125 
Q 10.40625 8.6875 15.234375 7.390625 
Q 20.0625 6.109375 24.8125 6.109375 
Q 31.15625 6.109375 34.5625 8.28125 
Q 37.984375 10.453125 37.984375 14.40625 
Q 37.984375 18.0625 35.515625 20.015625 
Q 33.0625 21.96875 24.703125 23.78125 
L 21.578125 24.515625 
Q 13.234375 26.265625 9.515625 29.90625 
Q 5.8125 33.546875 5.8125 39.890625 
Q 5.8125 47.609375 11.28125 51.796875 
Q 16.75 56 26.8125 56 
Q 31.78125 56 36.171875 55.265625 
Q 40.578125 54.546875 44.28125 53.078125 
z
" id="DejaVuSans-73"/>
      <path d="M 25.390625 72.90625 
L 33.6875 72.90625 
L 8.296875 -9.28125 
L 0 -9.28125 
z
" id="DejaVuSans-2f"/>
      <path d="M 45.40625 46.390625 
L 45.40625 75.984375 
L 54.390625 75.984375 
L 54.390625 0 
L 45.40625 0 
L 45.40625 8.203125 
Q 42.578125 3.328125 38.25 0.953125 
Q 33.9375 -1.421875 27.875 -1.421875 
Q 17.96875 -1.421875 11.734375 6.484375 
Q 5.515625 14.40625 5.515625 27.296875 
Q 5.515625 40.1875 11.734375 48.09375 
Q 17.96875 56 27.875 56 
Q 33.9375 56 38.25 53.625 
Q 42.578125 51.265625 45.40625 46.390625 
z
M 14.796875 27.296875 
Q 14.796875 17.390625 18.875 11.75 
Q 22.953125 6.109375 30.078125 6.109375 
Q 37.203125 6.109375 41.296875 11.75 
Q 45.40625 17.390625 45.40625 27.296875 
Q 45.40625 37.203125 41.296875 42.84375 
Q 37.203125 48.484375 30.078125 48.484375 
Q 22.953125 48.484375 18.875 42.84375 
Q 14.796875 37.203125 14.796875 27.296875 
z
" id="DejaVuSans-64"/>
      <path d="M 9.421875 54.6875 
L 18.40625 54.6875 
L 18.40625 0 
L 9.421875 0 
z
M 9.421875 75.984375 
L 18.40625 75.984375 
L 18.40625 64.59375 
L 9.421875 64.59375 
z
" id="DejaVuSans-69"/>
      <path d="M 52 44.1875 
Q 55.375 50.25 60.0625 53.125 
Q 64.75 56 71.09375 56 
Q 79.640625 56 84.28125 50.015625 
Q 88.921875 44.046875 88.921875 33.015625 
L 88.921875 0 
L 79.890625 0 
L 79.890625 32.71875 
Q 79.890625 40.578125 77.09375 44.375 
Q 74.3125 48.1875 68.609375 48.1875 
Q 61.625 48.1875 57.5625 43.546875 
Q 53.515625 38.921875 53.515625 30.90625 
L 53.515625 0 
L 44.484375 0 
L 44.484375 32.71875 
Q 44.484375 40.625 41.703125 44.40625 
Q 38.921875 48.1875 33.109375 48.1875 
Q 26.21875 48.1875 22.15625 43.53125 
Q 18.109375 38.875 18.109375 30.90625 
L 18.109375 0 
L 9.078125 0 
L 9.078125 54.6875 
L 18.109375 54.6875 
L 18.109375 46.1875 
Q 21.1875 51.21875 25.484375 53.609375 
Q 29.78125 56 35.6875 56 
Q 41.65625 56 45.828125 52.96875 
Q 50 49.953125 52 44.1875 
z
" id="DejaVuSans-6d"/>
      <path d="M 54.890625 33.015625 
L 54.890625 0 
L 45.90625 0 
L 45.90625 32.71875 
Q 45.90625 40.484375 42.875 44.328125 
Q 39.84375 48.1875 33.796875 48.1875 
Q 26.515625 48.1875 22.3125 43.546875 
Q 18.109375 38.921875 18.109375 30.90625 
L 18.109375 0 
L 9.078125 0 
L 9.078125 54.6875 
L 18.109375 54.6875 
L 18.109375 46.1875 
Q 21.34375 51.125 25.703125 53.5625 
Q 30.078125 56 35.796875 56 
Q 45.21875 56 50.046875 50.171875 
Q 54.890625 44.34375 54.890625 33.015625 
z
" id="DejaVuSans-6e"/>
      <path d="M 8.015625 75.875 
L 15.828125 75.875 
Q 23.140625 64.359375 26.78125 53.3125 
Q 30.421875 42.28125 30.421875 31.390625 
Q 30.421875 20.453125 26.78125 9.375 
Q 23.140625 -1.703125 15.828125 -13.1875 
L 8.015625 -13.1875 
Q 14.5 -2 17.703125 9.0625 
Q 20.90625 20.125 20.90625 31.390625 
Q 20.90625 42.671875 17.703125 53.65625 
Q 14.5 64.65625 8.015625 75.875 
z
" id="DejaVuSans-29"/>
     </defs>
     <g transform="translate(107.571219 337.433594)scale(0.17 -0.17)">
      <use xlink:href="#DejaVuSans-6c"/>
      <use x="27.783203" xlink:href="#DejaVuSans-6f"/>
      <use x="88.964844" xlink:href="#DejaVuSans-67"/>
      <use x="152.441406" xlink:href="#DejaVuSans-31"/>
      <use x="216.064453" xlink:href="#DejaVuSans-30"/>
      <use x="279.6875" xlink:href="#DejaVuSans-28"/>
      <use x="318.701172" xlink:href="#DejaVuSans-23"/>
      <use x="402.490234" xlink:href="#DejaVuSans-20"/>
      <use x="434.277344" xlink:href="#DejaVuSans-66"/>
      <use x="469.404297" xlink:href="#DejaVuSans-2d"/>
      <use x="505.488281" xlink:href="#DejaVuSans-65"/>
      <use x="567.011719" xlink:href="#DejaVuSans-76"/>
      <use x="626.191406" xlink:href="#DejaVuSans-61"/>
      <use x="687.470703" xlink:href="#DejaVuSans-6c"/>
      <use x="715.253906" xlink:href="#DejaVuSans-73"/>
      <use x="767.353516" xlink:href="#DejaVuSans-20"/>
      <use x="799.140625" xlink:href="#DejaVuSans-2f"/>
      <use x="832.832031" xlink:href="#DejaVuSans-20"/>
      <use x="864.619141" xlink:href="#DejaVuSans-64"/>
      <use x="928.095703" xlink:href="#DejaVuSans-69"/>
      <use x="955.878906" xlink:href="#DejaVuSans-6d"/>
      <use x="1053.291016" xlink:href="#DejaVuSans-65"/>
      <use x="1114.814453" xlink:href="#DejaVuSans-6e"/>
      <use x="1178.193359" xlink:href="#DejaVuSans-73"/>
      <use x="1230.292969" xlink:href="#DejaVuSans-69"/>
      <use x="1258.076172" xlink:href="#DejaVuSans-6f"/>
      <use x="1319.257812" xlink:href="#DejaVuSans-6e"/>
      <use x="1382.636719" xlink:href="#DejaVuSans-29"/>
     </g>
    </g>
   </g>
   <g id="matplotlib.axis_2">
    <g id="ytick_1">
     <g id="line2d_11">
      <path clip-path="url(#p9a9c93680b)" d="M 56.84 294.16 
L 399.984 294.16 
" style="fill:none;stroke:#b0b0b0;stroke-linecap:square;stroke-width:0.8;"/>
     </g>
     <g id="line2d_12">
      <defs>
       <path d="M 0 0 
L -3.5 0 
" id="mca960909e9" style="stroke:#000000;stroke-width:0.8;"/>
      </defs>
      <g>
       <use style="stroke:#000000;stroke-width:0.8;" x="56.84" xlink:href="#mca960909e9" y="294.16"/>
      </g>
     </g>
     <g id="text_7">
      <!-- 0.0 -->
      <defs>
       <path d="M 10.6875 12.40625 
L 21 12.40625 
L 21 0 
L 10.6875 0 
z
" id="DejaVuSans-2e"/>
      </defs>
      <g transform="translate(24.395 300.23875)scale(0.16 -0.16)">
       <use xlink:href="#DejaVuSans-30"/>
       <use x="63.623047" xlink:href="#DejaVuSans-2e"/>
       <use x="95.410156" xlink:href="#DejaVuSans-30"/>
      </g>
     </g>
    </g>
    <g id="ytick_2">
     <g id="line2d_13">
      <path clip-path="url(#p9a9c93680b)" d="M 56.84 237.123411 
L 399.984 237.123411 
" style="fill:none;stroke:#b0b0b0;stroke-linecap:square;stroke-width:0.8;"/>
     </g>
     <g id="line2d_14">
      <g>
       <use style="stroke:#000000;stroke-width:0.8;" x="56.84" xlink:href="#mca960909e9" y="237.123411"/>
      </g>
     </g>
     <g id="text_8">
      <!-- 0.2 -->
      <g transform="translate(24.395 243.202161)scale(0.16 -0.16)">
       <use xlink:href="#DejaVuSans-30"/>
       <use x="63.623047" xlink:href="#DejaVuSans-2e"/>
       <use x="95.410156" xlink:href="#DejaVuSans-32"/>
      </g>
     </g>
    </g>
    <g id="ytick_3">
     <g id="line2d_15">
      <path clip-path="url(#p9a9c93680b)" d="M 56.84 180.086823 
L 399.984 180.086823 
" style="fill:none;stroke:#b0b0b0;stroke-linecap:square;stroke-width:0.8;"/>
     </g>
     <g id="line2d_16">
      <g>
       <use style="stroke:#000000;stroke-width:0.8;" x="56.84" xlink:href="#mca960909e9" y="180.086823"/>
      </g>
     </g>
     <g id="text_9">
      <!-- 0.4 -->
      <g transform="translate(24.395 186.165573)scale(0.16 -0.16)">
       <use xlink:href="#DejaVuSans-30"/>
       <use x="63.623047" xlink:href="#DejaVuSans-2e"/>
       <use x="95.410156" xlink:href="#DejaVuSans-34"/>
      </g>
     </g>
    </g>
    <g id="ytick_4">
     <g id="line2d_17">
      <path clip-path="url(#p9a9c93680b)" d="M 56.84 123.050234 
L 399.984 123.050234 
" style="fill:none;stroke:#b0b0b0;stroke-linecap:square;stroke-width:0.8;"/>
     </g>
     <g id="line2d_18">
      <g>
       <use style="stroke:#000000;stroke-width:0.8;" x="56.84" xlink:href="#mca960909e9" y="123.050234"/>
      </g>
     </g>
     <g id="text_10">
      <!-- 0.6 -->
      <g transform="translate(24.395 129.128984)scale(0.16 -0.16)">
       <use xlink:href="#DejaVuSans-30"/>
       <use x="63.623047" xlink:href="#DejaVuSans-2e"/>
       <use x="95.410156" xlink:href="#DejaVuSans-36"/>
      </g>
     </g>
    </g>
    <g id="ytick_5">
     <g id="line2d_19">
      <path clip-path="url(#p9a9c93680b)" d="M 56.84 66.013646 
L 399.984 66.013646 
" style="fill:none;stroke:#b0b0b0;stroke-linecap:square;stroke-width:0.8;"/>
     </g>
     <g id="line2d_20">
      <g>
       <use style="stroke:#000000;stroke-width:0.8;" x="56.84" xlink:href="#mca960909e9" y="66.013646"/>
      </g>
     </g>
     <g id="text_11">
      <!-- 0.8 -->
      <g transform="translate(24.395 72.092396)scale(0.16 -0.16)">
       <use xlink:href="#DejaVuSans-30"/>
       <use x="63.623047" xlink:href="#DejaVuSans-2e"/>
       <use x="95.410156" xlink:href="#DejaVuSans-38"/>
      </g>
     </g>
    </g>
    <g id="ytick_6">
     <g id="line2d_21">
      <path clip-path="url(#p9a9c93680b)" d="M 56.84 8.977057 
L 399.984 8.977057 
" style="fill:none;stroke:#b0b0b0;stroke-linecap:square;stroke-width:0.8;"/>
     </g>
     <g id="line2d_22">
      <g>
       <use style="stroke:#000000;stroke-width:0.8;" x="56.84" xlink:href="#mca960909e9" y="8.977057"/>
      </g>
     </g>
     <g id="text_12">
      <!-- 1.0 -->
      <g transform="translate(24.395 15.055807)scale(0.16 -0.16)">
       <use xlink:href="#DejaVuSans-31"/>
       <use x="63.623047" xlink:href="#DejaVuSans-2e"/>
       <use x="95.410156" xlink:href="#DejaVuSans-30"/>
      </g>
     </g>
    </g>
    <g id="text_13">
     <!-- Fraction of function,target pairs -->
     <defs>
      <path d="M 9.8125 72.90625 
L 51.703125 72.90625 
L 51.703125 64.59375 
L 19.671875 64.59375 
L 19.671875 43.109375 
L 48.578125 43.109375 
L 48.578125 34.8125 
L 19.671875 34.8125 
L 19.671875 0 
L 9.8125 0 
z
" id="DejaVuSans-46"/>
      <path d="M 41.109375 46.296875 
Q 39.59375 47.171875 37.8125 47.578125 
Q 36.03125 48 33.890625 48 
Q 26.265625 48 22.1875 43.046875 
Q 18.109375 38.09375 18.109375 28.8125 
L 18.109375 0 
L 9.078125 0 
L 9.078125 54.6875 
L 18.109375 54.6875 
L 18.109375 46.1875 
Q 20.953125 51.171875 25.484375 53.578125 
Q 30.03125 56 36.53125 56 
Q 37.453125 56 38.578125 55.875 
Q 39.703125 55.765625 41.0625 55.515625 
z
" id="DejaVuSans-72"/>
      <path d="M 48.78125 52.59375 
L 48.78125 44.1875 
Q 44.96875 46.296875 41.140625 47.34375 
Q 37.3125 48.390625 33.40625 48.390625 
Q 24.65625 48.390625 19.8125 42.84375 
Q 14.984375 37.3125 14.984375 27.296875 
Q 14.984375 17.28125 19.8125 11.734375 
Q 24.65625 6.203125 33.40625 6.203125 
Q 37.3125 6.203125 41.140625 7.25 
Q 44.96875 8.296875 48.78125 10.40625 
L 48.78125 2.09375 
Q 45.015625 0.34375 40.984375 -0.53125 
Q 36.96875 -1.421875 32.421875 -1.421875 
Q 20.0625 -1.421875 12.78125 6.34375 
Q 5.515625 14.109375 5.515625 27.296875 
Q 5.515625 40.671875 12.859375 48.328125 
Q 20.21875 56 33.015625 56 
Q 37.15625 56 41.109375 55.140625 
Q 45.0625 54.296875 48.78125 52.59375 
z
" id="DejaVuSans-63"/>
      <path d="M 18.3125 70.21875 
L 18.3125 54.6875 
L 36.8125 54.6875 
L 36.8125 47.703125 
L 18.3125 47.703125 
L 18.3125 18.015625 
Q 18.3125 11.328125 20.140625 9.421875 
Q 21.96875 7.515625 27.59375 7.515625 
L 36.8125 7.515625 
L 36.8125 0 
L 27.59375 0 
Q 17.1875 0 13.234375 3.875 
Q 9.28125 7.765625 9.28125 18.015625 
L 9.28125 47.703125 
L 2.6875 47.703125 
L 2.6875 54.6875 
L 9.28125 54.6875 
L 9.28125 70.21875 
z
" id="DejaVuSans-74"/>
      <path d="M 8.5 21.578125 
L 8.5 54.6875 
L 17.484375 54.6875 
L 17.484375 21.921875 
Q 17.484375 14.15625 20.5 10.265625 
Q 23.53125 6.390625 29.59375 6.390625 
Q 36.859375 6.390625 41.078125 11.03125 
Q 45.3125 15.671875 45.3125 23.6875 
L 45.3125 54.6875 
L 54.296875 54.6875 
L 54.296875 0 
L 45.3125 0 
L 45.3125 8.40625 
Q 42.046875 3.421875 37.71875 1 
Q 33.40625 -1.421875 27.6875 -1.421875 
Q 18.265625 -1.421875 13.375 4.4375 
Q 8.5 10.296875 8.5 21.578125 
z
M 31.109375 56 
z
" id="DejaVuSans-75"/>
      <path d="M 11.71875 12.40625 
L 22.015625 12.40625 
L 22.015625 4 
L 14.015625 -11.625 
L 7.71875 -11.625 
L 11.71875 4 
z
" id="DejaVuSans-2c"/>
      <path d="M 18.109375 8.203125 
L 18.109375 -20.796875 
L 9.078125 -20.796875 
L 9.078125 54.6875 
L 18.109375 54.6875 
L 18.109375 46.390625 
Q 20.953125 51.265625 25.265625 53.625 
Q 29.59375 56 35.59375 56 
Q 45.5625 56 51.78125 48.09375 
Q 58.015625 40.1875 58.015625 27.296875 
Q 58.015625 14.40625 51.78125 6.484375 
Q 45.5625 -1.421875 35.59375 -1.421875 
Q 29.59375 -1.421875 25.265625 0.953125 
Q 20.953125 3.328125 18.109375 8.203125 
z
M 48.6875 27.296875 
Q 48.6875 37.203125 44.609375 42.84375 
Q 40.53125 48.484375 33.40625 48.484375 
Q 26.265625 48.484375 22.1875 42.84375 
Q 18.109375 37.203125 18.109375 27.296875 
Q 18.109375 17.390625 22.1875 11.75 
Q 26.265625 6.109375 33.40625 6.109375 
Q 40.53125 6.109375 44.609375 11.75 
Q 48.6875 17.390625 48.6875 27.296875 
z
" id="DejaVuSans-70"/>
     </defs>
     <g transform="translate(16.859531 285.281989)rotate(-90)scale(0.17 -0.17)">
      <use xlink:href="#DejaVuSans-46"/>
      <use x="57.410156" xlink:href="#DejaVuSans-72"/>
      <use x="98.523438" xlink:href="#DejaVuSans-61"/>
      <use x="159.802734" xlink:href="#DejaVuSans-63"/>
      <use x="214.783203" xlink:href="#DejaVuSans-74"/>
      <use x="253.992188" xlink:href="#DejaVuSans-69"/>
      <use x="281.775391" xlink:href="#DejaVuSans-6f"/>
      <use x="342.957031" xlink:href="#DejaVuSans-6e"/>
      <use x="406.335938" xlink:href="#DejaVuSans-20"/>
      <use x="438.123047" xlink:href="#DejaVuSans-6f"/>
      <use x="499.304688" xlink:href="#DejaVuSans-66"/>
      <use x="534.509766" xlink:href="#DejaVuSans-20"/>
      <use x="566.296875" xlink:href="#DejaVuSans-66"/>
      <use x="601.501953" xlink:href="#DejaVuSans-75"/>
      <use x="664.880859" xlink:href="#DejaVuSans-6e"/>
      <use x="728.259766" xlink:href="#DejaVuSans-63"/>
      <use x="783.240234" xlink:href="#DejaVuSans-74"/>
      <use x="822.449219" xlink:href="#DejaVuSans-69"/>
      <use x="850.232422" xlink:href="#DejaVuSans-6f"/>
      <use x="911.414062" xlink:href="#DejaVuSans-6e"/>
      <use x="974.792969" xlink:href="#DejaVuSans-2c"/>
      <use x="1006.580078" xlink:href="#DejaVuSans-74"/>
      <use x="1045.789062" xlink:href="#DejaVuSans-61"/>
      <use x="1107.068359" xlink:href="#DejaVuSans-72"/>
      <use x="1148.166016" xlink:href="#DejaVuSans-67"/>
      <use x="1211.642578" xlink:href="#DejaVuSans-65"/>
      <use x="1273.166016" xlink:href="#DejaVuSans-74"/>
      <use x="1312.375" xlink:href="#DejaVuSans-20"/>
      <use x="1344.162109" xlink:href="#DejaVuSans-70"/>
      <use x="1407.638672" xlink:href="#DejaVuSans-61"/>
      <use x="1468.917969" xlink:href="#DejaVuSans-69"/>
      <use x="1496.701172" xlink:href="#DejaVuSans-72"/>
      <use x="1537.814453" xlink:href="#DejaVuSans-73"/>
     </g>
    </g>
   </g>
   <g id="line2d_23">
    <defs>
     <path d="M 0 1.5 
C 0.397805 1.5 0.77937 1.341951 1.06066 1.06066 
C 1.341951 0.77937 1.5 0.397805 1.5 0 
C 1.5 -0.397805 1.341951 -0.77937 1.06066 -1.06066 
C 0.77937 -1.341951 0.397805 -1.5 0 -1.5 
C -0.397805 -1.5 -0.77937 -1.341951 -1.06066 -1.06066 
C -1.341951 -0.77937 -1.5 -0.397805 -1.5 0 
C -1.5 0.397805 -1.341951 0.77937 -1.06066 1.06066 
C -0.77937 1.341951 -0.397805 1.5 0 1.5 
z
" id="md1e1040ac4" style="stroke:#000080;"/>
    </defs>
    <g>
     <use style="fill:#000080;stroke:#000080;" x="242.101514" xlink:href="#md1e1040ac4" y="176.731729"/>
     <use style="fill:#000080;stroke:#000080;" x="242.101514" xlink:href="#md1e1040ac4" y="176.731729"/>
    </g>
   </g>
   <g id="line2d_24">
    <path d="M 44.939466 294.16 
L 44.939466 276.825351 
L 56.84 276.825351 
L 56.84 274.588622 
L 63.801366 274.588622 
L 63.801366 271.79271 
L 68.740534 271.79271 
L 68.740534 268.996799 
L 72.57165 268.996799 
L 72.57165 266.76007 
L 75.7019 266.76007 
L 75.7019 264.523341 
L 80.641068 264.523341 
L 80.641068 262.845795 
L 82.663267 262.845795 
L 82.663267 261.72743 
L 84.472185 261.72743 
L 84.472185 261.168248 
L 87.602435 261.168248 
L 87.602435 259.490701 
L 88.976675 259.490701 
L 88.976675 257.253972 
L 98.009084 257.253972 
L 98.009084 256.69479 
L 99.502969 256.69479 
L 99.502969 256.135608 
L 100.877209 256.135608 
L 100.877209 255.576425 
L 102.752035 255.576425 
L 102.752035 255.017243 
L 104.442137 255.017243 
L 104.442137 254.458061 
L 111.403503 254.458061 
L 111.403503 253.898879 
L 111.757512 253.898879 
L 111.757512 253.339696 
L 112.444358 253.339696 
L 112.444358 252.780514 
L 112.777744 252.780514 
L 112.777744 252.221332 
L 116.342671 252.221332 
L 116.342671 251.66215 
L 118.364869 251.66215 
L 118.364869 251.102967 
L 122.004153 251.102967 
L 122.004153 249.984603 
L 125.484475 249.984603 
L 125.484475 248.866238 
L 130.619413 248.866238 
L 130.619413 247.188692 
L 132.393257 247.188692 
L 132.393257 246.070327 
L 132.602635 246.070327 
L 132.602635 245.511145 
L 134.286233 245.511145 
L 134.286233 244.951963 
L 136.824671 244.951963 
L 136.824671 244.392781 
L 136.986642 244.392781 
L 136.986642 243.833598 
L 137.619667 243.833598 
L 137.619667 243.274416 
L 138.230179 243.274416 
L 138.230179 242.715234 
L 138.379474 242.715234 
L 138.379474 242.156052 
L 138.527482 242.156052 
L 138.527482 241.596869 
L 139.107076 241.596869 
L 139.107076 241.037687 
L 139.248968 241.037687 
L 139.248968 240.478505 
L 139.598651 240.478505 
L 139.598651 239.919323 
L 140.541491 239.919323 
L 140.606896 238.241776 
L 144.606909 238.241776 
L 144.606909 237.682594 
L 145.805221 237.682594 
L 145.805221 237.123411 
L 147.060337 237.123411 
L 147.060337 236.005047 
L 147.934258 236.005047 
L 147.934258 234.886682 
L 149.559 234.886682 
L 149.559 234.3275 
L 150.31713 234.3275 
L 150.31713 233.768318 
L 151.671392 233.768318 
L 151.671392 232.649954 
L 152.702164 232.649954 
L 152.702164 232.090771 
L 153.335773 232.090771 
L 153.335773 231.531589 
L 153.521383 231.531589 
L 153.521383 230.972407 
L 153.946828 230.972407 
L 153.946828 230.413225 
L 154.273863 230.413225 
L 154.273863 229.854042 
L 157.241374 229.854042 
L 157.241374 229.29486 
L 158.367997 229.29486 
L 158.367997 228.735678 
L 159.490543 228.735678 
L 159.490543 227.058131 
L 159.85608 227.058131 
L 159.85608 226.498949 
L 160.088523 226.498949 
L 160.088523 225.939767 
L 160.421102 225.939767 
L 160.421102 225.380584 
L 161.284241 225.380584 
L 161.284241 224.821402 
L 162.438725 224.821402 
L 162.438725 224.26222 
L 162.693083 224.26222 
L 162.693083 223.703038 
L 163.014673 223.703038 
L 163.050036 222.584673 
L 163.29556 222.584673 
L 163.399719 220.907126 
L 163.520445 220.907126 
L 163.520445 220.347944 
L 163.742422 220.347944 
L 163.742422 219.22958 
L 163.978308 219.22958 
L 163.978308 218.670397 
L 164.456855 218.670397 
L 164.456855 218.111215 
L 167.063876 218.111215 
L 167.105769 216.992851 
L 167.382468 216.992851 
L 167.382468 216.433669 
L 168.536776 216.433669 
L 168.588027 215.315304 
L 168.690071 215.315304 
L 168.690071 214.756122 
L 169.314461 214.756122 
L 169.314461 214.19694 
L 169.533796 214.19694 
L 169.557995 213.078575 
L 169.77426 213.078575 
L 169.798122 211.960211 
L 170.011403 211.960211 
L 170.034938 210.841846 
L 170.510431 210.841846 
L 170.510431 210.282664 
L 170.726394 210.282664 
L 170.794032 207.486753 
L 171.172363 207.486753 
L 171.172363 206.92757 
L 171.456152 206.92757 
L 171.456152 206.368388 
L 171.671303 206.368388 
L 171.671303 205.809206 
L 171.968056 205.809206 
L 171.968056 205.250024 
L 173.978576 205.250024 
L 173.978576 204.690841 
L 175.239571 204.690841 
L 175.274273 203.572477 
L 175.920626 203.572477 
L 175.920626 202.454112 
L 176.08675 202.454112 
L 176.08675 201.89493 
L 177.919623 201.89493 
L 177.919623 201.335748 
L 180.061099 201.335748 
L 180.061099 200.776566 
L 181.470615 200.776566 
L 181.470615 200.217384 
L 181.976581 200.217384 
L 181.976581 199.658201 
L 182.502228 199.658201 
L 182.502228 199.099019 
L 182.995684 199.099019 
L 183.105882 197.421472 
L 183.329602 197.421472 
L 183.329602 196.86229 
L 183.550443 196.86229 
L 183.550443 196.303108 
L 184.553478 196.303108 
L 184.553478 195.743926 
L 185.935095 195.743926 
L 185.935095 195.184743 
L 187.252631 195.184743 
L 187.252631 194.625561 
L 188.016192 194.625561 
L 188.098517 193.507197 
L 188.245714 193.507197 
L 188.245714 192.948014 
L 190.245732 192.948014 
L 190.245732 192.388832 
L 191.299797 192.388832 
L 191.299797 191.82965 
L 191.667293 191.82965 
L 191.667293 191.270468 
L 193.608131 191.270468 
L 193.608131 190.711285 
L 195.031114 190.711285 
L 195.12955 189.033739 
L 196.304441 189.033739 
L 196.304441 188.474556 
L 200.038017 188.474556 
L 200.078939 187.356192 
L 203.302264 187.356192 
L 203.302264 186.79701 
L 203.778348 186.79701 
L 203.811267 185.678645 
L 207.115755 185.678645 
L 207.223931 184.560281 
L 211.978452 184.560281 
L 211.978452 184.001099 
L 215.825706 184.001099 
L 215.825706 183.441916 
L 217.172218 183.441916 
L 217.172218 182.882734 
L 217.561205 182.882734 
L 217.561205 182.323552 
L 219.115702 182.323552 
L 219.115702 181.76437 
L 221.688438 181.76437 
L 221.688438 181.205187 
L 222.976328 181.205187 
L 222.976328 180.646005 
L 228.514017 180.646005 
L 228.514017 180.086823 
L 232.289186 180.086823 
L 232.289186 179.527641 
L 234.206676 179.527641 
L 234.206676 178.968458 
L 237.932138 178.968458 
L 237.932138 178.409276 
L 238.827866 178.409276 
L 238.827866 177.850094 
L 239.788745 177.850094 
L 239.788745 177.290912 
L 242.101514 177.290912 
L 242.101514 176.731729 
L 333.569032 176.731729 
L 333.569032 176.731729 
" style="fill:none;stroke:#000080;stroke-linecap:square;stroke-width:1.5;"/>
   </g>
   <g id="line2d_25">
    <defs>
     <path d="M 0 6 
C 1.591219 6 3.117479 5.367802 4.242641 4.242641 
C 5.367802 3.117479 6 1.591219 6 0 
C 6 -1.591219 5.367802 -3.117479 4.242641 -4.242641 
C 3.117479 -5.367802 1.591219 -6 0 -6 
C -1.591219 -6 -3.117479 -5.367802 -4.242641 -4.242641 
C -5.367802 -3.117479 -6 -1.591219 -6 0 
C -6 1.591219 -5.367802 3.117479 -4.242641 4.242641 
C -3.117479 5.367802 -1.591219 6 0 6 
z
" id="m8d691782a8" style="stroke:#000080;stroke-width:1.5;"/>
    </defs>
    <g>
     <use style="fill-opacity:0;stroke:#000080;stroke-width:1.5;" x="63.801366" xlink:href="#m8d691782a8" y="274.588622"/>
     <use style="fill-opacity:0;stroke:#000080;stroke-width:1.5;" x="140.606896" xlink:href="#m8d691782a8" y="239.36014"/>
     <use style="fill-opacity:0;stroke:#000080;stroke-width:1.5;" x="169.314461" xlink:href="#m8d691782a8" y="214.756122"/>
     <use style="fill-opacity:0;stroke:#000080;stroke-width:1.5;" x="242.101514" xlink:href="#m8d691782a8" y="177.290912"/>
     <use style="fill-opacity:0;stroke:#000080;stroke-width:1.5;" x="242.101514" xlink:href="#m8d691782a8" y="176.731729"/>
     <use style="fill-opacity:0;stroke:#000080;stroke-width:1.5;" x="333.569032" xlink:href="#m8d691782a8" y="176.731729"/>
    </g>
   </g>
   <g id="line2d_26">
    <path style="fill:none;stroke:#000080;stroke-linecap:square;stroke-width:1.5;"/>
    <g/>
   </g>
   <g id="line2d_27">
    <path clip-path="url(#p9a9c93680b)" d="M 96.372719 257.253972 
" style="fill:none;stroke:#000080;stroke-linecap:square;stroke-width:1.5;"/>
    <defs>
     <path d="M -12 12 
L 12 -12 
M -12 -12 
L 12 12 
" id="mf4d094e2aa" style="stroke:#000080;stroke-width:3;"/>
    </defs>
    <g clip-path="url(#p9a9c93680b)">
     <use style="fill:#000080;stroke:#000080;stroke-width:3;" x="96.372719" xlink:href="#mf4d094e2aa" y="257.253972"/>
    </g>
   </g>
   <g id="line2d_28">
    <defs>
     <path d="M 0 1.5 
C 0.397805 1.5 0.77937 1.341951 1.06066 1.06066 
C 1.341951 0.77937 1.5 0.397805 1.5 0 
C 1.5 -0.397805 1.341951 -0.77937 1.06066 -1.06066 
C 0.77937 -1.341951 0.397805 -1.5 0 -1.5 
C -0.397805 -1.5 -0.77937 -1.341951 -1.06066 -1.06066 
C -1.341951 -0.77937 -1.5 -0.397805 -1.5 0 
C -1.5 0.397805 -1.341951 0.77937 -1.06066 1.06066 
C -0.77937 1.341951 -0.397805 1.5 0 1.5 
z
" id="m7b4a7b045d" style="stroke:#ff00ff;"/>
    </defs>
    <g>
     <use style="fill:#ff00ff;stroke:#ff00ff;" x="242.782223" xlink:href="#m7b4a7b045d" y="104.038038"/>
     <use style="fill:#ff00ff;stroke:#ff00ff;" x="242.782223" xlink:href="#m7b4a7b045d" y="104.038038"/>
    </g>
   </g>
   <g id="line2d_29">
    <path d="M 44.939466 294.16 
L 44.939466 275.147804 
L 56.84 275.147804 
L 56.84 271.79271 
L 63.801366 271.79271 
L 63.801366 269.555981 
L 68.740534 269.555981 
L 68.740534 267.878435 
L 72.57165 267.878435 
L 72.57165 266.200888 
L 75.7019 266.200888 
L 75.7019 262.845795 
L 78.348489 262.845795 
L 78.348489 259.490701 
L 80.641068 259.490701 
L 80.641068 258.372337 
L 82.663267 258.372337 
L 82.663267 257.813154 
L 84.472185 257.813154 
L 84.472185 257.253972 
L 86.10855 257.253972 
L 86.10855 254.458061 
L 87.602435 254.458061 
L 87.602435 253.898879 
L 88.976675 253.898879 
L 88.976675 252.221332 
L 91.433551 252.221332 
L 91.433551 251.66215 
L 95.492072 251.66215 
L 95.492072 245.511145 
L 96.372719 245.511145 
L 96.372719 244.951963 
L 97.210389 244.951963 
L 97.210389 243.833598 
L 100.203835 243.833598 
L 100.203835 239.36014 
L 103.897048 239.36014 
L 103.897048 238.241776 
L 104.442137 238.241776 
L 104.442137 237.682594 
L 104.970451 237.682594 
L 104.970451 235.445865 
L 105.482991 235.445865 
L 105.482991 234.3275 
L 107.392607 234.3275 
L 107.392607 230.413225 
L 107.838576 230.413225 
L 107.838576 229.854042 
L 108.273253 229.854042 
L 108.273253 227.617313 
L 108.697197 227.617313 
L 108.697197 227.058131 
L 110.295451 227.058131 
L 110.295451 225.380584 
L 112.444358 225.380584 
L 112.444358 224.821402 
L 112.777744 224.821402 
L 112.777744 222.584673 
L 113.104779 222.584673 
L 113.104779 222.025491 
L 113.425701 222.025491 
L 113.425701 221.466309 
L 113.740735 221.466309 
L 113.740735 220.347944 
L 114.652569 220.347944 
L 114.652569 218.670397 
L 118.124742 218.670397 
L 118.124742 216.992851 
L 118.364869 216.992851 
L 118.364869 215.874486 
L 118.601685 215.874486 
L 118.601685 214.756122 
L 118.835278 214.756122 
L 118.835278 213.637757 
L 119.957824 213.637757 
L 119.957824 212.519393 
L 120.173787 212.519393 
L 120.173787 211.960211 
L 120.387068 211.960211 
L 120.387068 211.401028 
L 121.214642 211.401028 
L 121.214642 209.723482 
L 121.415449 209.723482 
L 121.415449 209.164299 
L 123.658047 209.164299 
L 123.658047 208.605117 
L 123.832351 208.605117 
L 123.832351 208.045935 
L 124.175739 208.045935 
L 124.175739 207.486753 
L 125.796644 207.486753 
L 125.796644 206.368388 
L 125.950626 206.368388 
L 125.950626 205.809206 
L 126.103239 205.809206 
L 126.103239 205.250024 
L 128.901096 205.250024 
L 128.901096 204.690841 
L 130.384219 204.690841 
L 130.384219 204.131659 
L 130.851428 204.131659 
L 130.851428 203.572477 
L 131.080349 203.572477 
L 131.080349 203.013295 
L 131.306258 203.013295 
L 131.306258 202.454112 
L 132.181293 202.454112 
L 132.181293 201.89493 
L 134.93419 201.89493 
L 134.93419 200.776566 
L 135.732885 200.776566 
L 135.732885 200.217384 
L 135.991068 200.217384 
L 136.076273 199.099019 
L 136.661157 199.099019 
L 136.661157 198.539837 
L 137.067058 198.539837 
L 137.067058 197.421472 
L 137.22677 197.421472 
L 137.22677 196.86229 
L 137.697178 196.86229 
L 137.697178 196.303108 
L 138.230179 196.303108 
L 138.230179 195.743926 
L 138.60101 195.743926 
L 138.674225 192.948014 
L 138.747129 192.948014 
L 138.747129 192.388832 
L 138.892015 192.388832 
L 138.892015 191.82965 
L 139.667741 191.82965 
L 139.667741 191.270468 
L 140.076542 191.270468 
L 140.143739 190.152103 
L 141.435238 190.152103 
L 141.497332 186.79701 
L 142.578245 186.79701 
L 142.578245 186.237828 
L 143.150593 186.237828 
L 143.150593 185.119463 
L 145.611221 185.119463 
L 145.611221 184.560281 
L 146.970447 184.560281 
L 147.060337 181.76437 
L 147.934258 181.76437 
L 147.934258 181.205187 
L 148.887176 181.205187 
L 148.887176 180.646005 
L 149.00766 180.646005 
L 149.00766 180.086823 
L 149.364119 180.086823 
L 149.364119 179.527641 
L 151.255157 179.527641 
L 151.255157 178.968458 
L 154.155661 178.968458 
L 154.155661 178.409276 
L 154.652496 178.409276 
L 154.652496 177.850094 
L 154.938174 177.850094 
L 154.938174 177.290912 
L 155.357971 177.290912 
L 155.357971 176.172547 
L 155.659427 176.172547 
L 155.659427 175.613365 
L 157.48735 175.613365 
L 157.48735 174.495 
L 158.43746 174.495 
L 158.43746 173.935818 
L 159.468797 173.935818 
L 159.468797 172.258271 
L 159.898577 172.258271 
L 159.898577 170.580725 
L 161.785839 170.580725 
L 161.785839 170.021543 
L 163.928033 170.021543 
L 163.928033 169.46236 
L 165.952096 169.46236 
L 165.952096 168.903178 
L 166.710741 168.903178 
L 166.710741 168.343996 
L 168.472498 168.343996 
L 168.472498 167.784814 
L 173.790628 167.784814 
L 173.790628 167.225631 
L 174.15524 167.225631 
L 174.15524 166.666449 
L 176.639845 166.666449 
L 176.695782 164.988902 
L 176.799185 164.988902 
L 176.799185 163.870538 
L 176.917728 163.870538 
L 176.925602 162.752173 
L 177.058907 162.752173 
L 177.167916 161.633809 
L 177.214423 161.633809 
L 177.29936 159.956262 
L 177.391542 159.956262 
L 177.483232 158.278715 
L 177.755399 158.278715 
L 177.755399 157.719533 
L 178.08965 157.719533 
L 178.08965 157.160351 
L 178.236143 157.160351 
L 178.236143 155.482804 
L 178.388627 155.482804 
L 178.403078 154.36444 
L 178.546932 154.36444 
L 178.546932 153.805258 
L 178.668267 153.805258 
L 178.689591 152.686893 
L 178.887342 152.686893 
L 178.957419 151.009346 
L 179.152126 151.009346 
L 179.152126 150.450164 
L 179.289863 150.450164 
L 179.289863 148.772617 
L 180.126554 148.772617 
L 180.126554 148.213435 
L 180.25672 148.213435 
L 180.25672 147.654253 
L 180.456547 147.654253 
L 180.456547 147.095071 
L 180.692046 147.095071 
L 180.692046 146.535888 
L 180.880647 146.535888 
L 180.880647 145.976706 
L 181.042443 145.976706 
L 181.042443 145.417524 
L 181.752226 145.417524 
L 181.752226 144.858342 
L 181.870673 144.858342 
L 181.870673 144.299159 
L 182.336455 144.299159 
L 182.336455 143.739977 
L 183.673097 143.739977 
L 183.673097 143.180795 
L 185.629633 143.180795 
L 185.629633 142.621613 
L 187.118381 142.621613 
L 187.118381 142.06243 
L 188.359335 142.06243 
L 188.440035 140.944066 
L 188.604293 140.944066 
L 188.663997 139.825702 
L 189.095594 139.825702 
L 189.095594 139.266519 
L 189.269077 139.266519 
L 189.337982 138.148155 
L 189.501478 138.148155 
L 189.501478 137.588973 
L 189.823872 137.588973 
L 189.823872 136.470608 
L 189.971784 136.470608 
L 189.971784 135.911426 
L 190.118434 135.911426 
L 190.118434 135.352244 
L 190.490388 135.352244 
L 190.490388 134.793061 
L 190.738651 134.793061 
L 190.738651 134.233879 
L 191.200683 134.233879 
L 191.200683 133.674697 
L 191.405117 133.674697 
L 191.405117 133.115515 
L 191.720582 133.115515 
L 191.720582 132.556332 
L 193.542464 132.556332 
L 193.542464 131.99715 
L 193.741672 131.99715 
L 193.741672 131.437968 
L 194.552858 131.437968 
L 194.552858 130.878786 
L 195.421517 130.878786 
L 195.528405 129.760421 
L 195.616089 129.760421 
L 195.616089 129.201239 
L 195.972803 129.201239 
L 196.076323 127.523692 
L 196.215093 127.523692 
L 196.309533 125.286963 
L 196.35529 125.286963 
L 196.383192 124.168599 
L 198.274789 124.168599 
L 198.274789 123.609417 
L 200.791492 123.609417 
L 200.791492 123.050234 
L 201.331862 123.050234 
L 201.331862 122.491052 
L 201.473762 122.491052 
L 201.473762 121.93187 
L 201.729976 121.93187 
L 201.729976 121.372688 
L 202.563315 121.372688 
L 202.563315 120.813505 
L 205.182345 120.813505 
L 205.182345 120.254323 
L 206.213463 120.254323 
L 206.213463 119.695141 
L 207.617042 119.695141 
L 207.655205 118.576776 
L 208.106667 118.576776 
L 208.124583 116.89923 
L 209.389164 116.89923 
L 209.389164 116.340047 
L 211.191189 116.340047 
L 211.191189 115.780865 
L 212.521592 115.780865 
L 212.521592 115.221683 
L 213.03655 115.221683 
L 213.03655 114.662501 
L 214.384977 114.662501 
L 214.384977 114.103318 
L 215.86731 114.103318 
L 215.86731 113.544136 
L 217.045644 113.544136 
L 217.045644 112.984954 
L 219.012898 112.984954 
L 219.012898 112.425772 
L 219.499122 112.425772 
L 219.499122 111.866589 
L 221.28435 111.866589 
L 221.319971 110.748225 
L 221.496977 110.748225 
L 221.496977 110.189043 
L 221.960261 110.189043 
L 221.960261 109.629861 
L 222.753008 109.629861 
L 222.753008 109.070678 
L 225.123903 109.070678 
L 225.123903 108.511496 
L 226.310364 108.511496 
L 226.310364 107.952314 
L 226.875272 107.952314 
L 226.875272 107.393132 
L 227.802437 107.393132 
L 227.802437 106.833949 
L 227.940116 106.833949 
L 227.940116 106.274767 
L 231.497303 106.274767 
L 231.497303 105.715585 
L 232.912626 105.715585 
L 232.912626 105.156403 
L 235.403723 105.156403 
L 235.403723 104.59722 
L 242.782223 104.59722 
L 242.782223 104.038038 
L 333.569032 104.038038 
L 333.569032 104.038038 
" style="fill:none;stroke:#ff00ff;stroke-linecap:square;stroke-width:1.5;"/>
   </g>
   <g id="line2d_30">
    <defs>
     <path d="M -0 8.485281 
L 5.091169 0 
L 0 -8.485281 
L -5.091169 -0 
z
" id="mbe6ecd9487" style="stroke:#ff00ff;stroke-linejoin:miter;stroke-width:1.5;"/>
    </defs>
    <g>
     <use style="fill-opacity:0;stroke:#ff00ff;stroke-linejoin:miter;stroke-width:1.5;" x="72.57165" xlink:href="#mbe6ecd9487" y="266.200888"/>
     <use style="fill-opacity:0;stroke:#ff00ff;stroke-linejoin:miter;stroke-width:1.5;" x="135.991068" xlink:href="#mbe6ecd9487" y="200.217384"/>
     <use style="fill-opacity:0;stroke:#ff00ff;stroke-linejoin:miter;stroke-width:1.5;" x="195.972803" xlink:href="#mbe6ecd9487" y="129.201239"/>
     <use style="fill-opacity:0;stroke:#ff00ff;stroke-linejoin:miter;stroke-width:1.5;" x="242.782223" xlink:href="#mbe6ecd9487" y="104.59722"/>
     <use style="fill-opacity:0;stroke:#ff00ff;stroke-linejoin:miter;stroke-width:1.5;" x="242.782223" xlink:href="#mbe6ecd9487" y="104.038038"/>
     <use style="fill-opacity:0;stroke:#ff00ff;stroke-linejoin:miter;stroke-width:1.5;" x="333.569032" xlink:href="#mbe6ecd9487" y="104.038038"/>
    </g>
   </g>
   <g id="line2d_31">
    <path style="fill:none;stroke:#ff00ff;stroke-linecap:square;stroke-width:1.5;"/>
    <g/>
   </g>
   <g id="line2d_32">
    <path clip-path="url(#p9a9c93680b)" d="M 96.372719 244.951963 
" style="fill:none;stroke:#ff00ff;stroke-linecap:square;stroke-width:1.5;"/>
    <defs>
     <path d="M -12 12 
L 12 -12 
M -12 -12 
L 12 12 
" id="m1961a6b64c" style="stroke:#ff00ff;stroke-width:3;"/>
    </defs>
    <g clip-path="url(#p9a9c93680b)">
     <use style="fill:#ff00ff;stroke:#ff00ff;stroke-width:3;" x="96.372719" xlink:href="#m1961a6b64c" y="244.951963"/>
    </g>
   </g>
   <g id="line2d_33">
    <defs>
     <path d="M 0 1.5 
C 0.397805 1.5 0.77937 1.341951 1.06066 1.06066 
C 1.341951 0.77937 1.5 0.397805 1.5 0 
C 1.5 -0.397805 1.341951 -0.77937 1.06066 -1.06066 
C 0.77937 -1.341951 0.397805 -1.5 0 -1.5 
C -0.397805 -1.5 -0.77937 -1.341951 -1.06066 -1.06066 
C -1.341951 -0.77937 -1.5 -0.397805 -1.5 0 
C -1.5 0.397805 -1.341951 0.77937 -1.06066 1.06066 
C -0.77937 1.341951 -0.397805 1.5 0 1.5 
z
" id="me80a9a32d1" style="stroke:#ffa500;"/>
    </defs>
    <g>
     <use style="fill:#ffa500;stroke:#ffa500;" x="246.698861" xlink:href="#me80a9a32d1" y="64.895281"/>
     <use style="fill:#ffa500;stroke:#ffa500;" x="246.698861" xlink:href="#me80a9a32d1" y="64.895281"/>
    </g>
   </g>
   <g id="line2d_34">
    <path d="M 44.939466 294.16 
L 44.939466 259.490701 
L 56.84 259.490701 
L 56.84 254.458061 
L 63.801366 254.458061 
L 63.801366 249.984603 
L 68.740534 249.984603 
L 68.740534 246.62951 
L 72.57165 246.62951 
L 72.57165 243.833598 
L 75.7019 243.833598 
L 75.7019 243.274416 
L 78.348489 243.274416 
L 78.348489 242.156052 
L 80.641068 242.156052 
L 80.641068 240.478505 
L 82.663267 240.478505 
L 82.663267 239.919323 
L 84.472185 239.919323 
L 84.472185 239.36014 
L 88.976675 239.36014 
L 88.976675 237.682594 
L 90.249023 237.682594 
L 90.249023 237.123411 
L 93.582457 237.123411 
L 93.582457 236.005047 
L 94.563801 236.005047 
L 94.563801 234.3275 
L 95.492072 234.3275 
L 95.492072 232.649954 
L 97.210389 232.649954 
L 97.210389 231.531589 
L 98.009084 231.531589 
L 98.009084 230.972407 
L 99.502969 230.972407 
L 99.502969 227.058131 
L 100.203835 227.058131 
L 100.203835 226.498949 
L 102.149557 226.498949 
L 102.149557 225.380584 
L 102.752035 225.380584 
L 102.752035 224.26222 
L 103.334085 224.26222 
L 103.334085 223.703038 
L 104.442137 223.703038 
L 104.442137 223.143855 
L 104.970451 223.143855 
L 104.970451 220.347944 
L 106.934744 220.347944 
L 106.934744 219.788762 
L 107.838576 219.788762 
L 107.838576 219.22958 
L 108.697197 219.22958 
L 108.697197 218.111215 
L 109.514915 218.111215 
L 109.514915 217.552033 
L 111.403503 217.552033 
L 111.403503 215.874486 
L 114.353973 215.874486 
L 114.353973 215.315304 
L 114.946061 215.315304 
L 114.946061 214.756122 
L 115.234619 214.756122 
L 115.234619 214.19694 
L 120.387068 214.19694 
L 120.387068 213.078575 
L 121.415449 213.078575 
L 121.415449 211.960211 
L 121.810153 211.960211 
L 121.810153 211.401028 
L 122.004153 211.401028 
L 122.004153 210.282664 
L 122.195986 210.282664 
L 122.195986 209.723482 
L 122.758949 209.723482 
L 122.758949 209.164299 
L 123.124257 209.164299 
L 123.124257 208.605117 
L 124.175739 208.605117 
L 124.175739 207.486753 
L 125.005313 207.486753 
L 125.005313 206.368388 
L 125.326236 206.368388 
L 125.326236 205.809206 
L 126.254507 205.809206 
L 126.254507 205.250024 
L 129.658667 205.250024 
L 129.658667 204.690841 
L 131.306258 204.690841 
L 131.306258 204.131659 
L 132.911992 204.131659 
L 132.911992 203.572477 
L 134.380309 203.572477 
L 134.380309 202.454112 
L 136.245426 202.454112 
L 136.329381 199.658201 
L 137.385009 199.658201 
L 137.385009 199.099019 
L 137.927636 199.099019 
L 137.927636 197.980655 
L 138.964001 197.980655 
L 138.964001 197.421472 
L 139.248968 197.421472 
L 139.319477 196.303108 
L 140.210675 196.303108 
L 140.210675 195.184743 
L 140.343767 195.184743 
L 140.343767 193.507197 
L 140.736964 193.507197 
L 140.736964 192.948014 
L 141.620849 192.948014 
L 141.620849 191.82965 
L 142.225448 191.82965 
L 142.225448 191.270468 
L 142.809479 191.270468 
L 142.809479 190.711285 
L 142.980883 190.711285 
L 142.980883 190.152103 
L 144.081827 190.152103 
L 144.081827 188.474556 
L 144.503169 188.474556 
L 144.503169 187.356192 
L 144.914419 187.356192 
L 144.914419 186.79701 
L 145.116408 186.79701 
L 145.166536 184.560281 
L 145.464269 184.560281 
L 145.464269 184.001099 
L 146.834725 184.001099 
L 146.834725 183.441916 
L 147.719912 183.441916 
L 147.719912 182.323552 
L 148.019252 182.323552 
L 148.019252 180.086823 
L 148.846827 180.086823 
L 148.846827 178.409276 
L 149.364119 178.409276 
L 149.403273 176.731729 
L 149.520201 176.731729 
L 149.520201 176.172547 
L 149.636338 176.172547 
L 149.636338 175.613365 
L 150.538191 175.613365 
L 150.538191 174.495 
L 151.00761 174.495 
L 151.114139 170.021543 
L 151.255157 170.021543 
L 151.255157 168.903178 
L 151.739794 168.903178 
L 151.739794 168.343996 
L 152.37637 168.343996 
L 152.37637 166.666449 
L 153.021891 166.666449 
L 153.021891 166.107267 
L 153.644019 166.107267 
L 153.644019 164.988902 
L 154.185288 164.988902 
L 154.185288 164.42972 
L 157.729852 164.42972 
L 157.729852 163.870538 
L 160.193148 163.870538 
L 160.193148 163.311356 
L 160.605385 163.311356 
L 160.605385 162.752173 
L 165.498667 162.752173 
L 165.498667 162.192991 
L 176.446663 162.192991 
L 176.543525 161.074627 
L 176.671831 161.074627 
L 176.767435 159.956262 
L 176.925602 159.956262 
L 177.035458 158.278715 
L 177.152385 158.278715 
L 177.222162 157.160351 
L 178.417518 157.160351 
L 178.417518 156.601169 
L 178.696692 156.601169 
L 178.696692 155.482804 
L 178.838117 155.482804 
L 178.922416 153.246075 
L 179.283003 153.246075 
L 179.392446 151.568529 
L 179.419698 151.568529 
L 179.440109 149.890982 
L 179.683164 149.890982 
L 179.763423 148.772617 
L 179.823373 148.772617 
L 179.869856 147.654253 
L 179.936043 147.654253 
L 180.001975 145.417524 
L 180.087311 145.417524 
L 180.087311 144.858342 
L 180.217774 144.858342 
L 180.217774 143.739977 
L 180.924358 143.739977 
L 180.980394 142.621613 
L 181.367608 142.621613 
L 181.367608 142.06243 
L 181.835224 142.06243 
L 181.835224 141.503248 
L 181.953102 141.503248 
L 181.953102 140.944066 
L 183.193535 140.944066 
L 183.193535 140.384884 
L 183.619877 140.384884 
L 183.619877 139.825702 
L 183.941984 139.825702 
L 183.941984 139.266519 
L 184.659164 139.266519 
L 184.659164 138.707337 
L 186.051148 138.707337 
L 186.051148 138.148155 
L 189.07233 138.148155 
L 189.126564 137.02979 
L 189.376144 137.02979 
L 189.376144 136.470608 
L 189.655933 136.470608 
L 189.670927 135.352244 
L 189.88319 135.352244 
L 189.905381 134.233879 
L 190.114783 134.233879 
L 190.114783 133.674697 
L 190.26022 133.674697 
L 190.33248 132.556332 
L 190.397255 132.556332 
L 190.42955 131.437968 
L 190.572357 131.437968 
L 190.572357 130.878786 
L 191.915666 130.878786 
L 191.915666 130.319603 
L 192.111808 130.319603 
L 192.111808 129.760421 
L 193.809527 129.760421 
L 193.809527 129.201239 
L 195.512414 129.201239 
L 195.512414 128.642057 
L 195.629336 128.642057 
L 195.629336 128.082874 
L 195.816342 128.082874 
L 195.816342 127.523692 
L 195.985777 127.523692 
L 195.985777 126.96451 
L 196.138137 126.96451 
L 196.138137 126.405328 
L 196.309533 126.405328 
L 196.403456 123.609417 
L 196.43128 123.609417 
L 196.50442 121.372688 
L 196.55468 121.372688 
L 196.622299 118.576776 
L 196.90244 118.576776 
L 196.90244 118.017594 
L 198.181462 118.017594 
L 198.181462 117.458412 
L 198.315603 117.458412 
L 198.363096 116.340047 
L 198.984098 116.340047 
L 198.984098 115.780865 
L 200.840436 115.780865 
L 200.951512 114.103318 
L 200.996129 114.103318 
L 201.073448 111.866589 
L 201.188779 111.866589 
L 201.263331 110.748225 
L 201.392549 110.748225 
L 201.417142 109.629861 
L 203.48088 109.629861 
L 203.48088 109.070678 
L 204.647294 109.070678 
L 204.751911 107.393132 
L 204.7768 107.393132 
L 204.845059 104.59722 
L 204.957713 104.59722 
L 204.957713 104.038038 
L 205.768848 104.038038 
L 205.808416 102.919674 
L 205.89602 102.919674 
L 206.000558 101.801309 
L 206.941243 101.801309 
L 206.941243 101.242127 
L 207.705084 101.242127 
L 207.705084 100.682945 
L 207.943282 100.682945 
L 207.978148 99.005398 
L 208.809121 99.005398 
L 208.809121 98.446216 
L 208.93159 98.446216 
L 208.93159 97.887033 
L 209.475687 97.887033 
L 209.507578 96.768669 
L 210.314371 96.768669 
L 210.396365 94.53194 
L 210.493576 94.53194 
L 210.493576 93.972758 
L 210.969374 93.972758 
L 210.969374 93.413576 
L 211.270175 93.413576 
L 211.270175 92.854393 
L 212.283319 92.854393 
L 212.283319 92.295211 
L 212.459104 92.295211 
L 212.459104 91.736029 
L 212.581881 91.736029 
L 212.660628 90.617664 
L 213.201972 90.617664 
L 213.201972 90.058482 
L 214.037739 90.058482 
L 214.037739 89.4993 
L 214.343178 89.4993 
L 214.343178 88.940118 
L 214.537959 88.940118 
L 214.596842 87.821753 
L 215.092344 87.821753 
L 215.098309 86.703389 
L 215.244247 86.703389 
L 215.345335 85.025842 
L 216.178966 85.025842 
L 216.178966 84.46666 
L 216.296181 84.46666 
L 216.381792 83.348295 
L 216.969403 83.348295 
L 216.969403 82.789113 
L 217.987724 82.789113 
L 217.987724 82.229931 
L 218.498528 82.229931 
L 218.498528 81.670748 
L 218.713171 81.670748 
L 218.713171 81.111566 
L 219.872876 81.111566 
L 219.919913 79.993202 
L 221.679729 79.993202 
L 221.679729 79.43402 
L 222.017303 79.43402 
L 222.0628 78.315655 
L 222.440843 78.315655 
L 222.440843 77.756473 
L 222.57367 77.756473 
L 222.57367 77.197291 
L 223.16272 77.197291 
L 223.169644 76.078926 
L 223.296971 76.078926 
L 223.307539 74.960562 
L 223.465284 74.960562 
L 223.465284 74.401379 
L 224.291934 74.401379 
L 224.291934 73.842197 
L 224.958209 73.842197 
L 224.958209 73.283015 
L 225.365971 73.283015 
L 225.365971 72.723833 
L 227.496015 72.723833 
L 227.496015 72.16465 
L 227.737263 72.16465 
L 227.737263 71.605468 
L 228.383241 71.605468 
L 228.383241 71.046286 
L 229.346189 71.046286 
L 229.346189 70.487104 
L 229.670125 70.487104 
L 229.670125 69.927921 
L 230.509845 69.927921 
L 230.509845 69.368739 
L 232.005407 69.368739 
L 232.005407 68.809557 
L 232.868189 68.809557 
L 232.868189 68.250375 
L 233.006862 68.250375 
L 233.006862 67.691192 
L 233.56225 67.691192 
L 233.614495 66.572828 
L 236.332064 66.572828 
L 236.332064 66.013646 
L 239.909881 66.013646 
L 239.909881 65.454463 
L 246.698861 65.454463 
L 246.698861 64.895281 
L 333.569032 64.895281 
L 333.569032 64.895281 
" style="fill:none;stroke:#ffa500;stroke-linecap:square;stroke-width:1.5;"/>
   </g>
   <g id="line2d_35">
    <defs>
     <path d="M 0 -6 
L -1.347084 -1.854102 
L -5.706339 -1.854102 
L -2.179628 0.708204 
L -3.526712 4.854102 
L -0 2.291796 
L 3.526712 4.854102 
L 2.179628 0.708204 
L 5.706339 -1.854102 
L 1.347084 -1.854102 
z
" id="mc1ebe8d574" style="stroke:#ffa500;stroke-linejoin:bevel;stroke-width:1.5;"/>
    </defs>
    <g>
     <use style="fill-opacity:0;stroke:#ffa500;stroke-linejoin:bevel;stroke-width:1.5;" x="126.254507" xlink:href="#mc1ebe8d574" y="205.809206"/>
     <use style="fill-opacity:0;stroke:#ffa500;stroke-linejoin:bevel;stroke-width:1.5;" x="183.193535" xlink:href="#mc1ebe8d574" y="140.944066"/>
     <use style="fill-opacity:0;stroke:#ffa500;stroke-linejoin:bevel;stroke-width:1.5;" x="246.698861" xlink:href="#mc1ebe8d574" y="65.454463"/>
     <use style="fill-opacity:0;stroke:#ffa500;stroke-linejoin:bevel;stroke-width:1.5;" x="246.698861" xlink:href="#mc1ebe8d574" y="64.895281"/>
     <use style="fill-opacity:0;stroke:#ffa500;stroke-linejoin:bevel;stroke-width:1.5;" x="246.698861" xlink:href="#mc1ebe8d574" y="64.895281"/>
     <use style="fill-opacity:0;stroke:#ffa500;stroke-linejoin:bevel;stroke-width:1.5;" x="333.569032" xlink:href="#mc1ebe8d574" y="64.895281"/>
    </g>
   </g>
   <g id="line2d_36">
    <path style="fill:none;stroke:#ffa500;stroke-linecap:square;stroke-width:1.5;"/>
    <g/>
   </g>
   <g id="line2d_37">
    <path clip-path="url(#p9a9c93680b)" d="M 96.372719 232.649954 
" style="fill:none;stroke:#ffa500;stroke-linecap:square;stroke-width:1.5;"/>
    <defs>
     <path d="M -12 12 
L 12 -12 
M -12 -12 
L 12 12 
" id="m5a4882618e" style="stroke:#ffa500;stroke-width:3;"/>
    </defs>
    <g clip-path="url(#p9a9c93680b)">
     <use style="fill:#ffa500;stroke:#ffa500;stroke-width:3;" x="96.372719" xlink:href="#m5a4882618e" y="232.649954"/>
    </g>
   </g>
   <g id="line2d_38">
    <defs>
     <path d="M 0 1.5 
C 0.397805 1.5 0.77937 1.341951 1.06066 1.06066 
C 1.341951 0.77937 1.5 0.397805 1.5 0 
C 1.5 -0.397805 1.341951 -0.77937 1.06066 -1.06066 
C 0.77937 -1.341951 0.397805 -1.5 0 -1.5 
C -0.397805 -1.5 -0.77937 -1.341951 -1.06066 -1.06066 
C -1.341951 -0.77937 -1.5 -0.397805 -1.5 0 
C -1.5 0.397805 -1.341951 0.77937 -1.06066 1.06066 
C -0.77937 1.341951 -0.397805 1.5 0 1.5 
z
" id="mb9fc9d6f53" style="stroke:#6495ed;"/>
    </defs>
    <g>
     <use style="fill:#6495ed;stroke:#6495ed;" x="248.358424" xlink:href="#mb9fc9d6f53" y="171.139907"/>
     <use style="fill:#6495ed;stroke:#6495ed;" x="248.358424" xlink:href="#mb9fc9d6f53" y="171.139907"/>
    </g>
   </g>
   <g id="line2d_39">
    <path d="M 44.939466 294.16 
L 44.939466 284.09472 
L 56.84 284.09472 
L 56.84 281.857991 
L 63.801366 281.857991 
L 63.801366 278.502897 
L 72.57165 278.502897 
L 72.57165 275.706986 
L 75.7019 275.706986 
L 75.7019 272.911075 
L 78.348489 272.911075 
L 78.348489 268.437617 
L 80.641068 268.437617 
L 80.641068 266.76007 
L 82.663267 266.76007 
L 82.663267 261.168248 
L 84.472185 261.168248 
L 84.472185 260.609066 
L 86.10855 260.609066 
L 86.10855 258.931519 
L 87.602435 258.931519 
L 87.602435 257.253972 
L 88.976675 257.253972 
L 88.976675 256.69479 
L 90.249023 256.69479 
L 90.249023 252.221332 
L 92.541603 252.221332 
L 92.541603 250.543785 
L 93.582457 250.543785 
L 93.582457 248.866238 
L 94.563801 248.866238 
L 94.563801 247.747874 
L 97.210389 247.747874 
L 97.210389 247.188692 
L 98.009084 247.188692 
L 98.009084 246.62951 
L 100.877209 246.62951 
L 100.877209 245.511145 
L 102.149557 245.511145 
L 102.149557 244.392781 
L 102.752035 244.392781 
L 102.752035 243.274416 
L 103.334085 243.274416 
L 103.334085 242.715234 
L 105.482991 242.715234 
L 105.482991 241.037687 
L 111.757512 241.037687 
L 111.757512 239.919323 
L 117.63417 239.919323 
L 117.63417 239.36014 
L 117.881208 239.36014 
L 117.881208 238.241776 
L 119.957824 238.241776 
L 119.957824 237.682594 
L 122.758949 237.682594 
L 122.758949 237.123411 
L 125.950626 237.123411 
L 125.950626 236.564229 
L 133.612858 236.564229 
L 133.612858 235.445865 
L 135.47076 235.445865 
L 135.47076 234.3275 
L 143.094209 234.3275 
L 143.094209 233.768318 
L 144.188136 233.768318 
L 144.188136 233.209136 
L 153.459736 233.209136 
L 153.459736 232.649954 
L 154.066472 232.649954 
L 154.066472 232.090771 
L 162.14334 232.090771 
L 162.14334 231.531589 
L 168.186777 231.531589 
L 168.186777 230.972407 
L 171.852085 230.972407 
L 171.852085 230.413225 
L 174.602632 230.413225 
L 174.602632 229.854042 
L 176.349251 229.854042 
L 176.349251 229.29486 
L 176.551573 229.29486 
L 176.551573 228.735678 
L 176.830877 228.735678 
L 176.830877 228.176496 
L 178.675378 228.176496 
L 178.675378 227.617313 
L 179.055048 227.617313 
L 179.055048 227.058131 
L 179.172857 227.058131 
L 179.172857 226.498949 
L 179.78343 226.498949 
L 179.78343 225.380584 
L 180.178739 225.380584 
L 180.178739 224.821402 
L 180.308512 224.821402 
L 180.308512 224.26222 
L 180.437311 224.26222 
L 180.437311 223.703038 
L 181.202727 223.703038 
L 181.202727 223.143855 
L 182.570359 223.143855 
L 182.570359 222.584673 
L 184.335023 222.584673 
L 184.335023 222.025491 
L 186.467078 222.025491 
L 186.498659 220.907126 
L 187.522271 220.907126 
L 187.522271 220.347944 
L 188.375505 220.347944 
L 188.375505 219.788762 
L 189.111086 219.788762 
L 189.111086 219.22958 
L 190.09286 219.22958 
L 190.09286 218.670397 
L 190.256599 218.670397 
L 190.310834 216.992851 
L 190.454627 216.992851 
L 190.454627 216.433669 
L 192.674562 216.433669 
L 192.737359 215.315304 
L 193.783007 215.315304 
L 193.783007 214.756122 
L 194.305779 214.756122 
L 194.305779 214.19694 
L 194.760254 214.19694 
L 194.760254 213.637757 
L 195.766497 213.637757 
L 195.766497 213.078575 
L 196.589775 213.078575 
L 196.589775 212.519393 
L 196.739374 212.519393 
L 196.739374 211.401028 
L 197.454136 211.401028 
L 197.454136 210.841846 
L 197.737535 210.841846 
L 197.737535 210.282664 
L 198.38341 210.282664 
L 198.38341 209.723482 
L 199.258529 209.723482 
L 199.258529 209.164299 
L 199.75713 209.164299 
L 199.836077 208.045935 
L 199.881618 208.045935 
L 199.881618 207.486753 
L 200.510807 207.486753 
L 200.510807 206.92757 
L 201.07152 206.92757 
L 201.177281 205.250024 
L 201.215579 205.250024 
L 201.291919 202.454112 
L 201.329962 202.454112 
L 201.329962 201.89493 
L 201.676059 201.89493 
L 201.676059 201.335748 
L 203.212255 201.335748 
L 203.212255 200.776566 
L 203.381691 200.776566 
L 203.381691 200.217384 
L 203.751968 200.217384 
L 203.751968 199.658201 
L 204.27363 199.658201 
L 204.28803 198.539837 
L 204.855894 198.539837 
L 204.886812 197.421472 
L 205.472878 197.421472 
L 205.472878 196.86229 
L 207.90964 196.86229 
L 207.916115 195.743926 
L 208.762353 195.743926 
L 208.762353 195.184743 
L 209.261549 195.184743 
L 209.261549 194.625561 
L 209.711692 194.625561 
L 209.711692 194.066379 
L 210.276047 194.066379 
L 210.344743 192.948014 
L 210.891166 192.948014 
L 210.891166 192.388832 
L 211.30847 192.388832 
L 211.30847 191.82965 
L 211.62953 191.82965 
L 211.62953 191.270468 
L 212.296365 191.270468 
L 212.296365 190.711285 
L 212.600616 190.711285 
L 212.656699 189.592921 
L 212.991332 189.592921 
L 212.991332 189.033739 
L 213.947771 189.033739 
L 213.947771 188.474556 
L 214.514173 188.474556 
L 214.514173 187.915374 
L 215.252694 187.915374 
L 215.252694 187.356192 
L 216.096355 187.356192 
L 216.096355 186.79701 
L 216.35251 186.79701 
L 216.35251 186.237828 
L 216.513336 186.237828 
L 216.513336 185.678645 
L 217.719926 185.678645 
L 217.719926 185.119463 
L 217.882264 185.119463 
L 217.882264 184.560281 
L 219.852862 184.560281 
L 219.852862 184.001099 
L 220.060894 184.001099 
L 220.060894 183.441916 
L 221.363211 183.441916 
L 221.363211 182.882734 
L 222.468046 182.882734 
L 222.468046 182.323552 
L 222.600663 182.323552 
L 222.600663 181.76437 
L 223.198375 181.76437 
L 223.198375 181.205187 
L 223.694053 181.205187 
L 223.787282 180.086823 
L 225.809994 180.086823 
L 225.809994 179.527641 
L 226.490356 179.527641 
L 226.493867 178.409276 
L 228.14339 178.409276 
L 228.14339 177.850094 
L 229.304146 177.850094 
L 229.362161 176.731729 
L 231.21535 176.731729 
L 231.21535 176.172547 
L 233.550618 176.172547 
L 233.58636 175.054183 
L 233.734058 175.054183 
L 233.734058 174.495 
L 235.609558 174.495 
L 235.609558 173.935818 
L 238.474289 173.935818 
L 238.474289 173.376636 
L 238.815883 173.376636 
L 238.815883 172.817454 
L 240.870659 172.817454 
L 240.870659 172.258271 
L 241.759422 172.258271 
L 241.759422 171.699089 
L 248.358424 171.699089 
L 248.358424 171.139907 
L 333.569032 171.139907 
L 333.569032 171.139907 
" style="fill:none;stroke:#6495ed;stroke-linecap:square;stroke-width:1.5;"/>
   </g>
   <g id="line2d_40">
    <defs>
     <path d="M -0 6 
L 6 -6 
L -6 -6 
z
" id="m664b655acf" style="stroke:#6495ed;stroke-linejoin:miter;stroke-width:1.5;"/>
    </defs>
    <g>
     <use style="fill-opacity:0;stroke:#6495ed;stroke-linejoin:miter;stroke-width:1.5;" x="82.663267" xlink:href="#m664b655acf" y="266.76007"/>
     <use style="fill-opacity:0;stroke:#6495ed;stroke-linejoin:miter;stroke-width:1.5;" x="135.47076" xlink:href="#m664b655acf" y="235.445865"/>
     <use style="fill-opacity:0;stroke:#6495ed;stroke-linejoin:miter;stroke-width:1.5;" x="196.739374" xlink:href="#m664b655acf" y="212.519393"/>
     <use style="fill-opacity:0;stroke:#6495ed;stroke-linejoin:miter;stroke-width:1.5;" x="248.358424" xlink:href="#m664b655acf" y="171.699089"/>
     <use style="fill-opacity:0;stroke:#6495ed;stroke-linejoin:miter;stroke-width:1.5;" x="248.358424" xlink:href="#m664b655acf" y="171.139907"/>
     <use style="fill-opacity:0;stroke:#6495ed;stroke-linejoin:miter;stroke-width:1.5;" x="333.569032" xlink:href="#m664b655acf" y="171.139907"/>
    </g>
   </g>
   <g id="line2d_41">
    <path style="fill:none;stroke:#6495ed;stroke-linecap:square;stroke-width:1.5;"/>
    <g/>
   </g>
   <g id="line2d_42">
    <path clip-path="url(#p9a9c93680b)" d="M 96.372719 247.747874 
" style="fill:none;stroke:#6495ed;stroke-linecap:square;stroke-width:1.5;"/>
    <defs>
     <path d="M -12 12 
L 12 -12 
M -12 -12 
L 12 12 
" id="m7a904f2ad0" style="stroke:#6495ed;stroke-width:3;"/>
    </defs>
    <g clip-path="url(#p9a9c93680b)">
     <use style="fill:#6495ed;stroke:#6495ed;stroke-width:3;" x="96.372719" xlink:href="#m7a904f2ad0" y="247.747874"/>
    </g>
   </g>
   <g id="line2d_43">
    <defs>
     <path d="M 0 1.5 
C 0.397805 1.5 0.77937 1.341951 1.06066 1.06066 
C 1.341951 0.77937 1.5 0.397805 1.5 0 
C 1.5 -0.397805 1.341951 -0.77937 1.06066 -1.06066 
C 0.77937 -1.341951 0.397805 -1.5 0 -1.5 
C -0.397805 -1.5 -0.77937 -1.341951 -1.06066 -1.06066 
C -1.341951 -0.77937 -1.5 -0.397805 -1.5 0 
C -1.5 0.397805 -1.341951 0.77937 -1.06066 1.06066 
C -0.77937 1.341951 -0.397805 1.5 0 1.5 
z
" id="m4c126bb4d9" style="stroke:#ff0000;"/>
    </defs>
    <g>
     <use style="fill:#ff0000;stroke:#ff0000;" x="247.202903" xlink:href="#m4c126bb4d9" y="215.874486"/>
     <use style="fill:#ff0000;stroke:#ff0000;" x="247.202903" xlink:href="#m4c126bb4d9" y="215.874486"/>
    </g>
   </g>
   <g id="line2d_44">
    <path d="M 44.939466 294.16 
L 44.939466 278.502897 
L 56.84 278.502897 
L 56.84 270.674346 
L 63.801366 270.674346 
L 63.801366 270.115164 
L 68.740534 270.115164 
L 68.740534 269.555981 
L 75.7019 269.555981 
L 75.7019 268.437617 
L 80.641068 268.437617 
L 80.641068 267.878435 
L 82.663267 267.878435 
L 82.663267 267.319252 
L 86.10855 267.319252 
L 86.10855 266.76007 
L 87.602435 266.76007 
L 87.602435 265.641706 
L 93.582457 265.641706 
L 93.582457 263.404977 
L 96.372719 263.404977 
L 96.372719 262.845795 
L 100.203835 262.845795 
L 100.203835 261.72743 
L 102.752035 261.72743 
L 102.752035 261.168248 
L 103.334085 261.168248 
L 103.334085 260.049883 
L 106.464335 260.049883 
L 106.464335 259.490701 
L 108.273253 259.490701 
L 108.273253 258.931519 
L 112.104369 258.931519 
L 112.104369 258.372337 
L 114.353973 258.372337 
L 114.353973 257.813154 
L 114.946061 257.813154 
L 114.946061 257.253972 
L 115.234619 257.253972 
L 115.234619 256.69479 
L 115.518408 256.69479 
L 115.518408 255.576425 
L 120.387068 255.576425 
L 120.387068 255.017243 
L 121.613935 255.017243 
L 121.613935 254.458061 
L 123.832351 254.458061 
L 123.832351 253.898879 
L 126.254507 253.898879 
L 126.254507 253.339696 
L 133.215873 253.339696 
L 133.215873 252.780514 
L 136.076273 252.780514 
L 136.076273 252.221332 
L 136.824671 252.221332 
L 136.905847 251.102967 
L 144.606909 251.102967 
L 144.606909 250.543785 
L 147.327215 250.543785 
L 147.327215 249.984603 
L 150.683999 249.984603 
L 150.683999 249.425421 
L 153.976817 249.425421 
L 153.976817 248.866238 
L 155.022958 248.866238 
L 155.022958 247.747874 
L 157.48735 247.747874 
L 157.48735 247.188692 
L 164.028436 247.188692 
L 164.128255 246.070327 
L 164.456855 246.070327 
L 164.456855 245.511145 
L 174.844262 245.511145 
L 174.844262 244.951963 
L 177.183432 244.951963 
L 177.183432 244.392781 
L 180.146142 244.392781 
L 180.146142 243.833598 
L 181.476656 243.833598 
L 181.476656 243.274416 
L 182.649504 243.274416 
L 182.649504 242.715234 
L 183.198998 242.715234 
L 183.198998 241.596869 
L 186.14803 241.596869 
L 186.239794 240.478505 
L 188.770943 240.478505 
L 188.770943 239.919323 
L 189.006244 239.919323 
L 189.006244 239.36014 
L 190.572357 239.36014 
L 190.572357 238.800958 
L 192.263903 238.800958 
L 192.263903 238.241776 
L 193.871248 238.241776 
L 193.871248 237.682594 
L 194.840853 237.682594 
L 194.840853 237.123411 
L 197.149022 237.123411 
L 197.149022 236.005047 
L 197.485065 236.005047 
L 197.485065 235.445865 
L 197.78198 235.445865 
L 197.78198 234.886682 
L 200.496851 234.886682 
L 200.496851 234.3275 
L 202.160755 234.3275 
L 202.160755 233.768318 
L 204.615941 233.768318 
L 204.615941 233.209136 
L 205.273194 233.209136 
L 205.273194 232.649954 
L 206.501259 232.649954 
L 206.501259 232.090771 
L 208.428846 232.090771 
L 208.428846 231.531589 
L 209.20159 231.531589 
L 209.20159 230.972407 
L 210.329001 230.972407 
L 210.329001 230.413225 
L 210.862836 230.413225 
L 210.911839 229.29486 
L 212.720431 229.29486 
L 212.720431 228.735678 
L 215.076141 228.735678 
L 215.076141 228.176496 
L 216.702963 228.176496 
L 216.702963 227.617313 
L 219.635738 227.617313 
L 219.635738 227.058131 
L 220.14366 227.058131 
L 220.14366 226.498949 
L 221.089506 226.498949 
L 221.089506 225.939767 
L 221.475245 225.939767 
L 221.475245 225.380584 
L 223.329711 225.380584 
L 223.329711 224.821402 
L 223.719857 224.821402 
L 223.719857 224.26222 
L 224.511987 224.26222 
L 224.511987 223.703038 
L 225.525474 223.703038 
L 225.525474 223.143855 
L 226.773267 223.143855 
L 226.773267 222.584673 
L 227.271468 222.584673 
L 227.271468 222.025491 
L 229.054241 222.025491 
L 229.054241 221.466309 
L 229.7799 221.466309 
L 229.7799 220.907126 
L 230.537949 220.907126 
L 230.537949 220.347944 
L 231.317361 220.347944 
L 231.317361 219.788762 
L 233.35196 219.788762 
L 233.35196 219.22958 
L 234.952359 219.22958 
L 234.952359 218.670397 
L 235.852939 218.670397 
L 235.852939 218.111215 
L 236.198204 218.111215 
L 236.198204 217.552033 
L 237.627915 217.552033 
L 237.627915 216.992851 
L 238.152259 216.992851 
L 238.152259 216.433669 
L 247.202903 216.433669 
L 247.202903 215.874486 
L 333.569032 215.874486 
L 333.569032 215.874486 
" style="fill:none;stroke:#ff0000;stroke-linecap:square;stroke-width:1.5;"/>
   </g>
   <g id="line2d_45">
    <defs>
     <path d="M 0 -6 
L -5.196152 -3 
L -5.196152 3 
L -0 6 
L 5.196152 3 
L 5.196152 -3 
z
" id="m7aaca7ed27" style="stroke:#ff0000;stroke-linejoin:miter;stroke-width:1.5;"/>
    </defs>
    <g>
     <use style="fill-opacity:0;stroke:#ff0000;stroke-linejoin:miter;stroke-width:1.5;" x="126.254507" xlink:href="#m7aaca7ed27" y="253.339696"/>
     <use style="fill-opacity:0;stroke:#ff0000;stroke-linejoin:miter;stroke-width:1.5;" x="197.149022" xlink:href="#m7aaca7ed27" y="236.005047"/>
     <use style="fill-opacity:0;stroke:#ff0000;stroke-linejoin:miter;stroke-width:1.5;" x="238.152259" xlink:href="#m7aaca7ed27" y="216.992851"/>
     <use style="fill-opacity:0;stroke:#ff0000;stroke-linejoin:miter;stroke-width:1.5;" x="247.202903" xlink:href="#m7aaca7ed27" y="215.874486"/>
     <use style="fill-opacity:0;stroke:#ff0000;stroke-linejoin:miter;stroke-width:1.5;" x="247.202903" xlink:href="#m7aaca7ed27" y="215.874486"/>
     <use style="fill-opacity:0;stroke:#ff0000;stroke-linejoin:miter;stroke-width:1.5;" x="333.569032" xlink:href="#m7aaca7ed27" y="215.874486"/>
    </g>
   </g>
   <g id="line2d_46">
    <path style="fill:none;stroke:#ff0000;stroke-linecap:square;stroke-width:1.5;"/>
    <g/>
   </g>
   <g id="line2d_47">
    <path clip-path="url(#p9a9c93680b)" d="M 96.372719 262.845795 
" style="fill:none;stroke:#ff0000;stroke-linecap:square;stroke-width:1.5;"/>
    <defs>
     <path d="M -12 12 
L 12 -12 
M -12 -12 
L 12 12 
" id="m69745414dd" style="stroke:#ff0000;stroke-width:3;"/>
    </defs>
    <g clip-path="url(#p9a9c93680b)">
     <use style="fill:#ff0000;stroke:#ff0000;stroke-width:3;" x="96.372719" xlink:href="#m69745414dd" y="262.845795"/>
    </g>
   </g>
   <g id="line2d_48">
    <path d="M 333.569032 215.874486 
L 364.009226 288.456341 
" style="fill:none;stroke:#ff0000;stroke-linecap:square;stroke-width:1.5;"/>
    <g>
     <use style="fill-opacity:0;stroke:#ff0000;stroke-linejoin:miter;stroke-width:1.5;" x="333.569032" xlink:href="#m7aaca7ed27" y="215.874486"/>
     <use style="fill-opacity:0;stroke:#ff0000;stroke-linejoin:miter;stroke-width:1.5;" x="364.009226" xlink:href="#m7aaca7ed27" y="288.456341"/>
    </g>
   </g>
   <g id="line2d_49">
    <path d="M 333.569032 176.731729 
L 364.009226 220.012435 
" style="fill:none;stroke:#000080;stroke-linecap:square;stroke-width:1.5;"/>
    <g>
     <use style="fill-opacity:0;stroke:#000080;stroke-width:1.5;" x="333.569032" xlink:href="#m8d691782a8" y="176.731729"/>
     <use style="fill-opacity:0;stroke:#000080;stroke-width:1.5;" x="364.009226" xlink:href="#m8d691782a8" y="220.012435"/>
    </g>
   </g>
   <g id="line2d_50">
    <path d="M 333.569032 171.139907 
L 364.009226 151.568529 
" style="fill:none;stroke:#6495ed;stroke-linecap:square;stroke-width:1.5;"/>
    <g>
     <use style="fill-opacity:0;stroke:#6495ed;stroke-linejoin:miter;stroke-width:1.5;" x="333.569032" xlink:href="#m664b655acf" y="171.139907"/>
     <use style="fill-opacity:0;stroke:#6495ed;stroke-linejoin:miter;stroke-width:1.5;" x="364.009226" xlink:href="#m664b655acf" y="151.568529"/>
    </g>
   </g>
   <g id="line2d_51">
    <path d="M 333.569032 104.038038 
L 364.009226 83.124622 
" style="fill:none;stroke:#ff00ff;stroke-linecap:square;stroke-width:1.5;"/>
    <g>
     <use style="fill-opacity:0;stroke:#ff00ff;stroke-linejoin:miter;stroke-width:1.5;" x="333.569032" xlink:href="#mbe6ecd9487" y="104.038038"/>
     <use style="fill-opacity:0;stroke:#ff00ff;stroke-linejoin:miter;stroke-width:1.5;" x="364.009226" xlink:href="#mbe6ecd9487" y="83.124622"/>
    </g>
   </g>
   <g id="line2d_52">
    <path d="M 333.569032 64.895281 
L 364.009226 14.680716 
" style="fill:none;stroke:#ffa500;stroke-linecap:square;stroke-width:1.5;"/>
    <g>
     <use style="fill-opacity:0;stroke:#ffa500;stroke-linejoin:bevel;stroke-width:1.5;" x="333.569032" xlink:href="#mc1ebe8d574" y="64.895281"/>
     <use style="fill-opacity:0;stroke:#ffa500;stroke-linejoin:bevel;stroke-width:1.5;" x="364.009226" xlink:href="#mc1ebe8d574" y="14.680716"/>
    </g>
   </g>
   <g id="line2d_53">
    <path d="M 333.569032 294.16 
L 333.569032 8.977057 
" style="fill:none;stroke:#000000;stroke-linecap:square;stroke-width:1.5;"/>
   </g>
   <g id="patch_3">
    <path d="M 56.84 294.16 
L 56.84 6.125228 
" style="fill:none;stroke:#000000;stroke-linecap:square;stroke-linejoin:miter;stroke-width:0.8;"/>
   </g>
   <g id="patch_4">
    <path d="M 399.984 294.16 
L 399.984 6.125228 
" style="fill:none;stroke:#000000;stroke-linecap:square;stroke-linejoin:miter;stroke-width:0.8;"/>
   </g>
   <g id="patch_5">
    <path d="M 56.84 294.16 
L 399.984 294.16 
" style="fill:none;stroke:#000000;stroke-linecap:square;stroke-linejoin:miter;stroke-width:0.8;"/>
   </g>
   <g id="patch_6">
    <path d="M 56.84 6.125228 
L 399.984 6.125228 
" style="fill:none;stroke:#000000;stroke-linecap:square;stroke-linejoin:miter;stroke-width:0.8;"/>
   </g>
   <g id="text_14">
    <!-- f24 -->
    <g transform="translate(369.543806 293.147279)scale(0.17 -0.17)">
     <use xlink:href="#DejaVuSans-66"/>
     <use x="35.205078" xlink:href="#DejaVuSans-32"/>
     <use x="98.828125" xlink:href="#DejaVuSans-34"/>
    </g>
   </g>
   <g id="text_15">
    <!-- f23 -->
    <defs>
     <path d="M 40.578125 39.3125 
Q 47.65625 37.796875 51.625 33 
Q 55.609375 28.21875 55.609375 21.1875 
Q 55.609375 10.40625 48.1875 4.484375 
Q 40.765625 -1.421875 27.09375 -1.421875 
Q 22.515625 -1.421875 17.65625 -0.515625 
Q 12.796875 0.390625 7.625 2.203125 
L 7.625 11.71875 
Q 11.71875 9.328125 16.59375 8.109375 
Q 21.484375 6.890625 26.8125 6.890625 
Q 36.078125 6.890625 40.9375 10.546875 
Q 45.796875 14.203125 45.796875 21.1875 
Q 45.796875 27.640625 41.28125 31.265625 
Q 36.765625 34.90625 28.71875 34.90625 
L 20.21875 34.90625 
L 20.21875 43.015625 
L 29.109375 43.015625 
Q 36.375 43.015625 40.234375 45.921875 
Q 44.09375 48.828125 44.09375 54.296875 
Q 44.09375 59.90625 40.109375 62.90625 
Q 36.140625 65.921875 28.71875 65.921875 
Q 24.65625 65.921875 20.015625 65.03125 
Q 15.375 64.15625 9.8125 62.3125 
L 9.8125 71.09375 
Q 15.4375 72.65625 20.34375 73.4375 
Q 25.25 74.21875 29.59375 74.21875 
Q 40.828125 74.21875 47.359375 69.109375 
Q 53.90625 64.015625 53.90625 55.328125 
Q 53.90625 49.265625 50.4375 45.09375 
Q 46.96875 40.921875 40.578125 39.3125 
z
" id="DejaVuSans-33"/>
    </defs>
    <g transform="translate(369.543806 224.703372)scale(0.17 -0.17)">
     <use xlink:href="#DejaVuSans-66"/>
     <use x="35.205078" xlink:href="#DejaVuSans-32"/>
     <use x="98.828125" xlink:href="#DejaVuSans-33"/>
    </g>
   </g>
   <g id="text_16">
    <!-- f20 -->
    <g transform="translate(369.543806 156.259466)scale(0.17 -0.17)">
     <use xlink:href="#DejaVuSans-66"/>
     <use x="35.205078" xlink:href="#DejaVuSans-32"/>
     <use x="98.828125" xlink:href="#DejaVuSans-30"/>
    </g>
   </g>
   <g id="text_17">
    <!-- f22 -->
    <g transform="translate(369.543806 87.81556)scale(0.17 -0.17)">
     <use xlink:href="#DejaVuSans-66"/>
     <use x="35.205078" xlink:href="#DejaVuSans-32"/>
     <use x="98.828125" xlink:href="#DejaVuSans-32"/>
    </g>
   </g>
   <g id="text_18">
    <!-- f21 -->
    <g transform="translate(369.543806 19.371654)scale(0.17 -0.17)">
     <use xlink:href="#DejaVuSans-66"/>
     <use x="35.205078" xlink:href="#DejaVuSans-32"/>
     <use x="98.828125" xlink:href="#DejaVuSans-31"/>
    </g>
   </g>
   <g id="text_19">
    <!-- bbob -->
    <defs>
     <path d="M 48.6875 27.296875 
Q 48.6875 37.203125 44.609375 42.84375 
Q 40.53125 48.484375 33.40625 48.484375 
Q 26.265625 48.484375 22.1875 42.84375 
Q 18.109375 37.203125 18.109375 27.296875 
Q 18.109375 17.390625 22.1875 11.75 
Q 26.265625 6.109375 33.40625 6.109375 
Q 40.53125 6.109375 44.609375 11.75 
Q 48.6875 17.390625 48.6875 27.296875 
z
M 18.109375 46.390625 
Q 20.953125 51.265625 25.265625 53.625 
Q 29.59375 56 35.59375 56 
Q 45.5625 56 51.78125 48.09375 
Q 58.015625 40.1875 58.015625 27.296875 
Q 58.015625 14.40625 51.78125 6.484375 
Q 45.5625 -1.421875 35.59375 -1.421875 
Q 29.59375 -1.421875 25.265625 0.953125 
Q 20.953125 3.328125 18.109375 8.203125 
L 18.109375 0 
L 9.078125 0 
L 9.078125 75.984375 
L 18.109375 75.984375 
z
" id="DejaVuSans-62"/>
    </defs>
    <g transform="translate(60.27144 16.755982)scale(0.102 -0.102)">
     <use xlink:href="#DejaVuSans-62"/>
     <use x="63.476562" xlink:href="#DejaVuSans-62"/>
     <use x="126.953125" xlink:href="#DejaVuSans-6f"/>
     <use x="188.134766" xlink:href="#DejaVuSans-62"/>
    </g>
    <!-- Weak structure functions, 2-D -->
    <defs>
     <path d="M 3.328125 72.90625 
L 13.28125 72.90625 
L 28.609375 11.28125 
L 43.890625 72.90625 
L 54.984375 72.90625 
L 70.3125 11.28125 
L 85.59375 72.90625 
L 95.609375 72.90625 
L 77.296875 0 
L 64.890625 0 
L 49.515625 63.28125 
L 33.984375 0 
L 21.578125 0 
z
" id="DejaVuSans-57"/>
     <path d="M 9.078125 75.984375 
L 18.109375 75.984375 
L 18.109375 31.109375 
L 44.921875 54.6875 
L 56.390625 54.6875 
L 27.390625 29.109375 
L 57.625 0 
L 45.90625 0 
L 18.109375 26.703125 
L 18.109375 0 
L 9.078125 0 
z
" id="DejaVuSans-6b"/>
     <path d="M 19.671875 64.796875 
L 19.671875 8.109375 
L 31.59375 8.109375 
Q 46.6875 8.109375 53.6875 14.9375 
Q 60.6875 21.78125 60.6875 36.53125 
Q 60.6875 51.171875 53.6875 57.984375 
Q 46.6875 64.796875 31.59375 64.796875 
z
M 9.8125 72.90625 
L 30.078125 72.90625 
Q 51.265625 72.90625 61.171875 64.09375 
Q 71.09375 55.28125 71.09375 36.53125 
Q 71.09375 17.671875 61.125 8.828125 
Q 51.171875 0 30.078125 0 
L 9.8125 0 
z
" id="DejaVuSans-44"/>
    </defs>
    <g transform="translate(60.27144 28.17775)scale(0.102 -0.102)">
     <use xlink:href="#DejaVuSans-57"/>
     <use x="98.798828" xlink:href="#DejaVuSans-65"/>
     <use x="160.322266" xlink:href="#DejaVuSans-61"/>
     <use x="221.601562" xlink:href="#DejaVuSans-6b"/>
     <use x="279.511719" xlink:href="#DejaVuSans-20"/>
     <use x="311.298828" xlink:href="#DejaVuSans-73"/>
     <use x="363.398438" xlink:href="#DejaVuSans-74"/>
     <use x="402.607422" xlink:href="#DejaVuSans-72"/>
     <use x="443.720703" xlink:href="#DejaVuSans-75"/>
     <use x="507.099609" xlink:href="#DejaVuSans-63"/>
     <use x="562.080078" xlink:href="#DejaVuSans-74"/>
     <use x="601.289062" xlink:href="#DejaVuSans-75"/>
     <use x="664.667969" xlink:href="#DejaVuSans-72"/>
     <use x="705.75" xlink:href="#DejaVuSans-65"/>
     <use x="767.273438" xlink:href="#DejaVuSans-20"/>
     <use x="799.060547" xlink:href="#DejaVuSans-66"/>
     <use x="834.265625" xlink:href="#DejaVuSans-75"/>
     <use x="897.644531" xlink:href="#DejaVuSans-6e"/>
     <use x="961.023438" xlink:href="#DejaVuSans-63"/>
     <use x="1016.003906" xlink:href="#DejaVuSans-74"/>
     <use x="1055.212891" xlink:href="#DejaVuSans-69"/>
     <use x="1082.996094" xlink:href="#DejaVuSans-6f"/>
     <use x="1144.177734" xlink:href="#DejaVuSans-6e"/>
     <use x="1207.556641" xlink:href="#DejaVuSans-73"/>
     <use x="1259.65625" xlink:href="#DejaVuSans-2c"/>
     <use x="1291.443359" xlink:href="#DejaVuSans-20"/>
     <use x="1323.230469" xlink:href="#DejaVuSans-32"/>
     <use x="1386.853516" xlink:href="#DejaVuSans-2d"/>
     <use x="1422.9375" xlink:href="#DejaVuSans-44"/>
    </g>
    <!-- 51 targets: 100..1e-08 -->
    <defs>
     <path d="M 10.796875 72.90625 
L 49.515625 72.90625 
L 49.515625 64.59375 
L 19.828125 64.59375 
L 19.828125 46.734375 
Q 21.96875 47.46875 24.109375 47.828125 
Q 26.265625 48.1875 28.421875 48.1875 
Q 40.625 48.1875 47.75 41.5 
Q 54.890625 34.8125 54.890625 23.390625 
Q 54.890625 11.625 47.5625 5.09375 
Q 40.234375 -1.421875 26.90625 -1.421875 
Q 22.3125 -1.421875 17.546875 -0.640625 
Q 12.796875 0.140625 7.71875 1.703125 
L 7.71875 11.625 
Q 12.109375 9.234375 16.796875 8.0625 
Q 21.484375 6.890625 26.703125 6.890625 
Q 35.15625 6.890625 40.078125 11.328125 
Q 45.015625 15.765625 45.015625 23.390625 
Q 45.015625 31 40.078125 35.4375 
Q 35.15625 39.890625 26.703125 39.890625 
Q 22.75 39.890625 18.8125 39.015625 
Q 14.890625 38.140625 10.796875 36.28125 
z
" id="DejaVuSans-35"/>
     <path d="M 11.71875 12.40625 
L 22.015625 12.40625 
L 22.015625 0 
L 11.71875 0 
z
M 11.71875 51.703125 
L 22.015625 51.703125 
L 22.015625 39.3125 
L 11.71875 39.3125 
z
" id="DejaVuSans-3a"/>
    </defs>
    <g transform="translate(60.27144 39.599519)scale(0.102 -0.102)">
     <use xlink:href="#DejaVuSans-35"/>
     <use x="63.623047" xlink:href="#DejaVuSans-31"/>
     <use x="127.246094" xlink:href="#DejaVuSans-20"/>
     <use x="159.033203" xlink:href="#DejaVuSans-74"/>
     <use x="198.242188" xlink:href="#DejaVuSans-61"/>
     <use x="259.521484" xlink:href="#DejaVuSans-72"/>
     <use x="300.619141" xlink:href="#DejaVuSans-67"/>
     <use x="364.095703" xlink:href="#DejaVuSans-65"/>
     <use x="425.619141" xlink:href="#DejaVuSans-74"/>
     <use x="464.828125" xlink:href="#DejaVuSans-73"/>
     <use x="516.927734" xlink:href="#DejaVuSans-3a"/>
     <use x="550.619141" xlink:href="#DejaVuSans-20"/>
     <use x="582.40625" xlink:href="#DejaVuSans-31"/>
     <use x="646.029297" xlink:href="#DejaVuSans-30"/>
     <use x="709.652344" xlink:href="#DejaVuSans-30"/>
     <use x="773.275391" xlink:href="#DejaVuSans-2e"/>
     <use x="805.0625" xlink:href="#DejaVuSans-2e"/>
     <use x="836.849609" xlink:href="#DejaVuSans-31"/>
     <use x="900.472656" xlink:href="#DejaVuSans-65"/>
     <use x="961.996094" xlink:href="#DejaVuSans-2d"/>
     <use x="998.080078" xlink:href="#DejaVuSans-30"/>
     <use x="1061.703125" xlink:href="#DejaVuSans-38"/>
    </g>
    <!-- 30 instances -->
    <g transform="translate(60.27144 51.021288)scale(0.102 -0.102)">
     <use xlink:href="#DejaVuSans-33"/>
     <use x="63.623047" xlink:href="#DejaVuSans-30"/>
     <use x="127.246094" xlink:href="#DejaVuSans-20"/>
     <use x="159.033203" xlink:href="#DejaVuSans-69"/>
     <use x="186.816406" xlink:href="#DejaVuSans-6e"/>
     <use x="250.195312" xlink:href="#DejaVuSans-73"/>
     <use x="302.294922" xlink:href="#DejaVuSans-74"/>
     <use x="341.503906" xlink:href="#DejaVuSans-61"/>
     <use x="402.783203" xlink:href="#DejaVuSans-6e"/>
     <use x="466.162109" xlink:href="#DejaVuSans-63"/>
     <use x="521.142578" xlink:href="#DejaVuSans-65"/>
     <use x="582.666016" xlink:href="#DejaVuSans-73"/>
    </g>
   </g>
   <g id="text_20">
    <!-- v2.2.1.10 -->
    <g style="fill:#808080;" transform="translate(204.779188 289.199965)scale(0.1 -0.1)">
     <use xlink:href="#DejaVuSans-76"/>
     <use x="59.179688" xlink:href="#DejaVuSans-32"/>
     <use x="122.802734" xlink:href="#DejaVuSans-2e"/>
     <use x="154.589844" xlink:href="#DejaVuSans-32"/>
     <use x="218.212891" xlink:href="#DejaVuSans-2e"/>
     <use x="250" xlink:href="#DejaVuSans-31"/>
     <use x="313.623047" xlink:href="#DejaVuSans-2e"/>
     <use x="345.410156" xlink:href="#DejaVuSans-31"/>
     <use x="409.033203" xlink:href="#DejaVuSans-30"/>
    </g>
   </g>
  </g>
 </g>
 <defs>
  <clipPath id="p9a9c93680b">
   <rect height="288.034772" width="343.144" x="56.84" y="6.125228"/>
  </clipPath>
 </defs>
</svg>
