<?xml version="1.0" encoding="utf-8" standalone="no"?>
<!DOCTYPE svg PUBLIC "-//W3C//DTD SVG 1.1//EN"
  "http://www.w3.org/Graphics/SVG/1.1/DTD/svg11.dtd">
<!-- Created with matplotlib (http://matplotlib.org/) -->
<svg height="345.6pt" version="1.1" viewBox="0 0 460.8 345.6" width="460.8pt" xmlns="http://www.w3.org/2000/svg" xmlns:xlink="http://www.w3.org/1999/xlink">
 <defs>
  <style type="text/css">
*{stroke-linecap:butt;stroke-linejoin:round;}
  </style>
 </defs>
 <g id="figure_1">
  <g id="patch_1">
   <path d="M 0 345.6 
L 460.8 345.6 
L 460.8 0 
L 0 0 
z
" style="fill:#ffffff;"/>
  </g>
  <g id="axes_1">
   <g id="patch_2">
    <path d="M 56.84 294.16 
L 399.984 294.16 
L 399.984 24.84 
L 56.84 24.84 
z
" style="fill:#ffffff;"/>
   </g>
   <g id="matplotlib.axis_1">
    <g id="xtick_1">
     <g id="line2d_1">
      <path clip-path="url(#p1a6562d889)" d="M 56.84 294.16 
L 56.84 24.84 
" style="fill:none;stroke:#b0b0b0;stroke-linecap:square;stroke-width:0.8;"/>
     </g>
     <g id="line2d_2">
      <defs>
       <path d="M 0 0 
L 0 3.5 
" id="mc36b853ad5" style="stroke:#000000;stroke-width:0.8;"/>
      </defs>
      <g>
       <use style="stroke:#000000;stroke-width:0.8;" x="56.84" xlink:href="#mc36b853ad5" y="294.16"/>
      </g>
     </g>
     <g id="text_1">
      <!-- 0 -->
      <defs>
       <path d="M 31.78125 66.40625 
Q 24.171875 66.40625 20.328125 58.90625 
Q 16.5 51.421875 16.5 36.375 
Q 16.5 21.390625 20.328125 13.890625 
Q 24.171875 6.390625 31.78125 6.390625 
Q 39.453125 6.390625 43.28125 13.890625 
Q 47.125 21.390625 47.125 36.375 
Q 47.125 51.421875 43.28125 58.90625 
Q 39.453125 66.40625 31.78125 66.40625 
z
M 31.78125 74.21875 
Q 44.046875 74.21875 50.515625 64.515625 
Q 56.984375 54.828125 56.984375 36.375 
Q 56.984375 17.96875 50.515625 8.265625 
Q 44.046875 -1.421875 31.78125 -1.421875 
Q 19.53125 -1.421875 13.0625 8.265625 
Q 6.59375 17.96875 6.59375 36.375 
Q 6.59375 54.828125 13.0625 64.515625 
Q 19.53125 74.21875 31.78125 74.21875 
z
" id="DejaVuSans-30"/>
      </defs>
      <g transform="translate(50.4775 316.356875)scale(0.2 -0.2)">
       <use xlink:href="#DejaVuSans-30"/>
      </g>
     </g>
    </g>
    <g id="xtick_2">
     <g id="line2d_3">
      <path clip-path="url(#p1a6562d889)" d="M 135.905438 294.16 
L 135.905438 24.84 
" style="fill:none;stroke:#b0b0b0;stroke-linecap:square;stroke-width:0.8;"/>
     </g>
     <g id="line2d_4">
      <g>
       <use style="stroke:#000000;stroke-width:0.8;" x="135.905438" xlink:href="#mc36b853ad5" y="294.16"/>
      </g>
     </g>
     <g id="text_2">
      <!-- 2 -->
      <defs>
       <path d="M 19.1875 8.296875 
L 53.609375 8.296875 
L 53.609375 0 
L 7.328125 0 
L 7.328125 8.296875 
Q 12.9375 14.109375 22.625 23.890625 
Q 32.328125 33.6875 34.8125 36.53125 
Q 39.546875 41.84375 41.421875 45.53125 
Q 43.3125 49.21875 43.3125 52.78125 
Q 43.3125 58.59375 39.234375 62.25 
Q 35.15625 65.921875 28.609375 65.921875 
Q 23.96875 65.921875 18.8125 64.3125 
Q 13.671875 62.703125 7.8125 59.421875 
L 7.8125 69.390625 
Q 13.765625 71.78125 18.9375 73 
Q 24.125 74.21875 28.421875 74.21875 
Q 39.75 74.21875 46.484375 68.546875 
Q 53.21875 62.890625 53.21875 53.421875 
Q 53.21875 48.921875 51.53125 44.890625 
Q 49.859375 40.875 45.40625 35.40625 
Q 44.1875 33.984375 37.640625 27.21875 
Q 31.109375 20.453125 19.1875 8.296875 
z
" id="DejaVuSans-32"/>
      </defs>
      <g transform="translate(129.542938 316.356875)scale(0.2 -0.2)">
       <use xlink:href="#DejaVuSans-32"/>
      </g>
     </g>
    </g>
    <g id="xtick_3">
     <g id="line2d_5">
      <path clip-path="url(#p1a6562d889)" d="M 214.970876 294.16 
L 214.970876 24.84 
" style="fill:none;stroke:#b0b0b0;stroke-linecap:square;stroke-width:0.8;"/>
     </g>
     <g id="line2d_6">
      <g>
       <use style="stroke:#000000;stroke-width:0.8;" x="214.970876" xlink:href="#mc36b853ad5" y="294.16"/>
      </g>
     </g>
     <g id="text_3">
      <!-- 4 -->
      <defs>
       <path d="M 37.796875 64.3125 
L 12.890625 25.390625 
L 37.796875 25.390625 
z
M 35.203125 72.90625 
L 47.609375 72.90625 
L 47.609375 25.390625 
L 58.015625 25.390625 
L 58.015625 17.1875 
L 47.609375 17.1875 
L 47.609375 0 
L 37.796875 0 
L 37.796875 17.1875 
L 4.890625 17.1875 
L 4.890625 26.703125 
z
" id="DejaVuSans-34"/>
      </defs>
      <g transform="translate(208.608376 316.356875)scale(0.2 -0.2)">
       <use xlink:href="#DejaVuSans-34"/>
      </g>
     </g>
    </g>
    <g id="xtick_4">
     <g id="line2d_7">
      <path clip-path="url(#p1a6562d889)" d="M 294.036313 294.16 
L 294.036313 24.84 
" style="fill:none;stroke:#b0b0b0;stroke-linecap:square;stroke-width:0.8;"/>
     </g>
     <g id="line2d_8">
      <g>
       <use style="stroke:#000000;stroke-width:0.8;" x="294.036313" xlink:href="#mc36b853ad5" y="294.16"/>
      </g>
     </g>
     <g id="text_4">
      <!-- 6 -->
      <defs>
       <path d="M 33.015625 40.375 
Q 26.375 40.375 22.484375 35.828125 
Q 18.609375 31.296875 18.609375 23.390625 
Q 18.609375 15.53125 22.484375 10.953125 
Q 26.375 6.390625 33.015625 6.390625 
Q 39.65625 6.390625 43.53125 10.953125 
Q 47.40625 15.53125 47.40625 23.390625 
Q 47.40625 31.296875 43.53125 35.828125 
Q 39.65625 40.375 33.015625 40.375 
z
M 52.59375 71.296875 
L 52.59375 62.3125 
Q 48.875 64.0625 45.09375 64.984375 
Q 41.3125 65.921875 37.59375 65.921875 
Q 27.828125 65.921875 22.671875 59.328125 
Q 17.53125 52.734375 16.796875 39.40625 
Q 19.671875 43.65625 24.015625 45.921875 
Q 28.375 48.1875 33.59375 48.1875 
Q 44.578125 48.1875 50.953125 41.515625 
Q 57.328125 34.859375 57.328125 23.390625 
Q 57.328125 12.15625 50.6875 5.359375 
Q 44.046875 -1.421875 33.015625 -1.421875 
Q 20.359375 -1.421875 13.671875 8.265625 
Q 6.984375 17.96875 6.984375 36.375 
Q 6.984375 53.65625 15.1875 63.9375 
Q 23.390625 74.21875 37.203125 74.21875 
Q 40.921875 74.21875 44.703125 73.484375 
Q 48.484375 72.75 52.59375 71.296875 
z
" id="DejaVuSans-36"/>
      </defs>
      <g transform="translate(287.673813 316.356875)scale(0.2 -0.2)">
       <use xlink:href="#DejaVuSans-36"/>
      </g>
     </g>
    </g>
    <g id="xtick_5">
     <g id="line2d_9">
      <path clip-path="url(#p1a6562d889)" d="M 373.101751 294.16 
L 373.101751 24.84 
" style="fill:none;stroke:#b0b0b0;stroke-linecap:square;stroke-width:0.8;"/>
     </g>
     <g id="line2d_10">
      <g>
       <use style="stroke:#000000;stroke-width:0.8;" x="373.101751" xlink:href="#mc36b853ad5" y="294.16"/>
      </g>
     </g>
     <g id="text_5">
      <!-- 8 -->
      <defs>
       <path d="M 31.78125 34.625 
Q 24.75 34.625 20.71875 30.859375 
Q 16.703125 27.09375 16.703125 20.515625 
Q 16.703125 13.921875 20.71875 10.15625 
Q 24.75 6.390625 31.78125 6.390625 
Q 38.8125 6.390625 42.859375 10.171875 
Q 46.921875 13.96875 46.921875 20.515625 
Q 46.921875 27.09375 42.890625 30.859375 
Q 38.875 34.625 31.78125 34.625 
z
M 21.921875 38.8125 
Q 15.578125 40.375 12.03125 44.71875 
Q 8.5 49.078125 8.5 55.328125 
Q 8.5 64.0625 14.71875 69.140625 
Q 20.953125 74.21875 31.78125 74.21875 
Q 42.671875 74.21875 48.875 69.140625 
Q 55.078125 64.0625 55.078125 55.328125 
Q 55.078125 49.078125 51.53125 44.71875 
Q 48 40.375 41.703125 38.8125 
Q 48.828125 37.15625 52.796875 32.3125 
Q 56.78125 27.484375 56.78125 20.515625 
Q 56.78125 9.90625 50.3125 4.234375 
Q 43.84375 -1.421875 31.78125 -1.421875 
Q 19.734375 -1.421875 13.25 4.234375 
Q 6.78125 9.90625 6.78125 20.515625 
Q 6.78125 27.484375 10.78125 32.3125 
Q 14.796875 37.15625 21.921875 38.8125 
z
M 18.3125 54.390625 
Q 18.3125 48.734375 21.84375 45.5625 
Q 25.390625 42.390625 31.78125 42.390625 
Q 38.140625 42.390625 41.71875 45.5625 
Q 45.3125 48.734375 45.3125 54.390625 
Q 45.3125 60.0625 41.71875 63.234375 
Q 38.140625 66.40625 31.78125 66.40625 
Q 25.390625 66.40625 21.84375 63.234375 
Q 18.3125 60.0625 18.3125 54.390625 
z
" id="DejaVuSans-38"/>
      </defs>
      <g transform="translate(366.739251 316.356875)scale(0.2 -0.2)">
       <use xlink:href="#DejaVuSans-38"/>
      </g>
     </g>
    </g>
    <g id="text_6">
     <!-- log10(# f-evals / dimension) -->
     <defs>
      <path d="M 9.421875 75.984375 
L 18.40625 75.984375 
L 18.40625 0 
L 9.421875 0 
z
" id="DejaVuSans-6c"/>
      <path d="M 30.609375 48.390625 
Q 23.390625 48.390625 19.1875 42.75 
Q 14.984375 37.109375 14.984375 27.296875 
Q 14.984375 17.484375 19.15625 11.84375 
Q 23.34375 6.203125 30.609375 6.203125 
Q 37.796875 6.203125 41.984375 11.859375 
Q 46.1875 17.53125 46.1875 27.296875 
Q 46.1875 37.015625 41.984375 42.703125 
Q 37.796875 48.390625 30.609375 48.390625 
z
M 30.609375 56 
Q 42.328125 56 49.015625 48.375 
Q 55.71875 40.765625 55.71875 27.296875 
Q 55.71875 13.875 49.015625 6.21875 
Q 42.328125 -1.421875 30.609375 -1.421875 
Q 18.84375 -1.421875 12.171875 6.21875 
Q 5.515625 13.875 5.515625 27.296875 
Q 5.515625 40.765625 12.171875 48.375 
Q 18.84375 56 30.609375 56 
z
" id="DejaVuSans-6f"/>
      <path d="M 45.40625 27.984375 
Q 45.40625 37.75 41.375 43.109375 
Q 37.359375 48.484375 30.078125 48.484375 
Q 22.859375 48.484375 18.828125 43.109375 
Q 14.796875 37.75 14.796875 27.984375 
Q 14.796875 18.265625 18.828125 12.890625 
Q 22.859375 7.515625 30.078125 7.515625 
Q 37.359375 7.515625 41.375 12.890625 
Q 45.40625 18.265625 45.40625 27.984375 
z
M 54.390625 6.78125 
Q 54.390625 -7.171875 48.1875 -13.984375 
Q 42 -20.796875 29.203125 -20.796875 
Q 24.46875 -20.796875 20.265625 -20.09375 
Q 16.0625 -19.390625 12.109375 -17.921875 
L 12.109375 -9.1875 
Q 16.0625 -11.328125 19.921875 -12.34375 
Q 23.78125 -13.375 27.78125 -13.375 
Q 36.625 -13.375 41.015625 -8.765625 
Q 45.40625 -4.15625 45.40625 5.171875 
L 45.40625 9.625 
Q 42.625 4.78125 38.28125 2.390625 
Q 33.9375 0 27.875 0 
Q 17.828125 0 11.671875 7.65625 
Q 5.515625 15.328125 5.515625 27.984375 
Q 5.515625 40.671875 11.671875 48.328125 
Q 17.828125 56 27.875 56 
Q 33.9375 56 38.28125 53.609375 
Q 42.625 51.21875 45.40625 46.390625 
L 45.40625 54.6875 
L 54.390625 54.6875 
z
" id="DejaVuSans-67"/>
      <path d="M 12.40625 8.296875 
L 28.515625 8.296875 
L 28.515625 63.921875 
L 10.984375 60.40625 
L 10.984375 69.390625 
L 28.421875 72.90625 
L 38.28125 72.90625 
L 38.28125 8.296875 
L 54.390625 8.296875 
L 54.390625 0 
L 12.40625 0 
z
" id="DejaVuSans-31"/>
      <path d="M 31 75.875 
Q 24.46875 64.65625 21.28125 53.65625 
Q 18.109375 42.671875 18.109375 31.390625 
Q 18.109375 20.125 21.3125 9.0625 
Q 24.515625 -2 31 -13.1875 
L 23.1875 -13.1875 
Q 15.875 -1.703125 12.234375 9.375 
Q 8.59375 20.453125 8.59375 31.390625 
Q 8.59375 42.28125 12.203125 53.3125 
Q 15.828125 64.359375 23.1875 75.875 
z
" id="DejaVuSans-28"/>
      <path d="M 51.125 44 
L 36.921875 44 
L 32.8125 27.6875 
L 47.125 27.6875 
z
M 43.796875 71.78125 
L 38.71875 51.515625 
L 52.984375 51.515625 
L 58.109375 71.78125 
L 65.921875 71.78125 
L 60.890625 51.515625 
L 76.125 51.515625 
L 76.125 44 
L 58.984375 44 
L 54.984375 27.6875 
L 70.515625 27.6875 
L 70.515625 20.21875 
L 53.078125 20.21875 
L 48 0 
L 40.1875 0 
L 45.21875 20.21875 
L 30.90625 20.21875 
L 25.875 0 
L 18.015625 0 
L 23.09375 20.21875 
L 7.71875 20.21875 
L 7.71875 27.6875 
L 24.90625 27.6875 
L 29 44 
L 13.28125 44 
L 13.28125 51.515625 
L 30.90625 51.515625 
L 35.890625 71.78125 
z
" id="DejaVuSans-23"/>
      <path id="DejaVuSans-20"/>
      <path d="M 37.109375 75.984375 
L 37.109375 68.5 
L 28.515625 68.5 
Q 23.6875 68.5 21.796875 66.546875 
Q 19.921875 64.59375 19.921875 59.515625 
L 19.921875 54.6875 
L 34.71875 54.6875 
L 34.71875 47.703125 
L 19.921875 47.703125 
L 19.921875 0 
L 10.890625 0 
L 10.890625 47.703125 
L 2.296875 47.703125 
L 2.296875 54.6875 
L 10.890625 54.6875 
L 10.890625 58.5 
Q 10.890625 67.625 15.140625 71.796875 
Q 19.390625 75.984375 28.609375 75.984375 
z
" id="DejaVuSans-66"/>
      <path d="M 4.890625 31.390625 
L 31.203125 31.390625 
L 31.203125 23.390625 
L 4.890625 23.390625 
z
" id="DejaVuSans-2d"/>
      <path d="M 56.203125 29.59375 
L 56.203125 25.203125 
L 14.890625 25.203125 
Q 15.484375 15.921875 20.484375 11.0625 
Q 25.484375 6.203125 34.421875 6.203125 
Q 39.59375 6.203125 44.453125 7.46875 
Q 49.3125 8.734375 54.109375 11.28125 
L 54.109375 2.78125 
Q 49.265625 0.734375 44.1875 -0.34375 
Q 39.109375 -1.421875 33.890625 -1.421875 
Q 20.796875 -1.421875 13.15625 6.1875 
Q 5.515625 13.8125 5.515625 26.8125 
Q 5.515625 40.234375 12.765625 48.109375 
Q 20.015625 56 32.328125 56 
Q 43.359375 56 49.78125 48.890625 
Q 56.203125 41.796875 56.203125 29.59375 
z
M 47.21875 32.234375 
Q 47.125 39.59375 43.09375 43.984375 
Q 39.0625 48.390625 32.421875 48.390625 
Q 24.90625 48.390625 20.390625 44.140625 
Q 15.875 39.890625 15.1875 32.171875 
z
" id="DejaVuSans-65"/>
      <path d="M 2.984375 54.6875 
L 12.5 54.6875 
L 29.59375 8.796875 
L 46.6875 54.6875 
L 56.203125 54.6875 
L 35.6875 0 
L 23.484375 0 
z
" id="DejaVuSans-76"/>
      <path d="M 34.28125 27.484375 
Q 23.390625 27.484375 19.1875 25 
Q 14.984375 22.515625 14.984375 16.5 
Q 14.984375 11.71875 18.140625 8.90625 
Q 21.296875 6.109375 26.703125 6.109375 
Q 34.1875 6.109375 38.703125 11.40625 
Q 43.21875 16.703125 43.21875 25.484375 
L 43.21875 27.484375 
z
M 52.203125 31.203125 
L 52.203125 0 
L 43.21875 0 
L 43.21875 8.296875 
Q 40.140625 3.328125 35.546875 0.953125 
Q 30.953125 -1.421875 24.3125 -1.421875 
Q 15.921875 -1.421875 10.953125 3.296875 
Q 6 8.015625 6 15.921875 
Q 6 25.140625 12.171875 29.828125 
Q 18.359375 34.515625 30.609375 34.515625 
L 43.21875 34.515625 
L 43.21875 35.40625 
Q 43.21875 41.609375 39.140625 45 
Q 35.0625 48.390625 27.6875 48.390625 
Q 23 48.390625 18.546875 47.265625 
Q 14.109375 46.140625 10.015625 43.890625 
L 10.015625 52.203125 
Q 14.9375 54.109375 19.578125 55.046875 
Q 24.21875 56 28.609375 56 
Q 40.484375 56 46.34375 49.84375 
Q 52.203125 43.703125 52.203125 31.203125 
z
" id="DejaVuSans-61"/>
      <path d="M 44.28125 53.078125 
L 44.28125 44.578125 
Q 40.484375 46.53125 36.375 47.5 
Q 32.28125 48.484375 27.875 48.484375 
Q 21.1875 48.484375 17.84375 46.4375 
Q 14.5 44.390625 14.5 40.28125 
Q 14.5 37.15625 16.890625 35.375 
Q 19.28125 33.59375 26.515625 31.984375 
L 29.59375 31.296875 
Q 39.15625 29.25 43.1875 25.515625 
Q 47.21875 21.78125 47.21875 15.09375 
Q 47.21875 7.46875 41.1875 3.015625 
Q 35.15625 -1.421875 24.609375 -1.421875 
Q 20.21875 -1.421875 15.453125 -0.5625 
Q 10.6875 0.296875 5.421875 2 
L 5.421875 11.28125 
Q 10.40625 8.6875 15.234375 7.390625 
Q 20.0625 6.109375 24.8125 6.109375 
Q 31.15625 6.109375 34.5625 8.28125 
Q 37.984375 10.453125 37.984375 14.40625 
Q 37.984375 18.0625 35.515625 20.015625 
Q 33.0625 21.96875 24.703125 23.78125 
L 21.578125 24.515625 
Q 13.234375 26.265625 9.515625 29.90625 
Q 5.8125 33.546875 5.8125 39.890625 
Q 5.8125 47.609375 11.28125 51.796875 
Q 16.75 56 26.8125 56 
Q 31.78125 56 36.171875 55.265625 
Q 40.578125 54.546875 44.28125 53.078125 
z
" id="DejaVuSans-73"/>
      <path d="M 25.390625 72.90625 
L 33.6875 72.90625 
L 8.296875 -9.28125 
L 0 -9.28125 
z
" id="DejaVuSans-2f"/>
      <path d="M 45.40625 46.390625 
L 45.40625 75.984375 
L 54.390625 75.984375 
L 54.390625 0 
L 45.40625 0 
L 45.40625 8.203125 
Q 42.578125 3.328125 38.25 0.953125 
Q 33.9375 -1.421875 27.875 -1.421875 
Q 17.96875 -1.421875 11.734375 6.484375 
Q 5.515625 14.40625 5.515625 27.296875 
Q 5.515625 40.1875 11.734375 48.09375 
Q 17.96875 56 27.875 56 
Q 33.9375 56 38.25 53.625 
Q 42.578125 51.265625 45.40625 46.390625 
z
M 14.796875 27.296875 
Q 14.796875 17.390625 18.875 11.75 
Q 22.953125 6.109375 30.078125 6.109375 
Q 37.203125 6.109375 41.296875 11.75 
Q 45.40625 17.390625 45.40625 27.296875 
Q 45.40625 37.203125 41.296875 42.84375 
Q 37.203125 48.484375 30.078125 48.484375 
Q 22.953125 48.484375 18.875 42.84375 
Q 14.796875 37.203125 14.796875 27.296875 
z
" id="DejaVuSans-64"/>
      <path d="M 9.421875 54.6875 
L 18.40625 54.6875 
L 18.40625 0 
L 9.421875 0 
z
M 9.421875 75.984375 
L 18.40625 75.984375 
L 18.40625 64.59375 
L 9.421875 64.59375 
z
" id="DejaVuSans-69"/>
      <path d="M 52 44.1875 
Q 55.375 50.25 60.0625 53.125 
Q 64.75 56 71.09375 56 
Q 79.640625 56 84.28125 50.015625 
Q 88.921875 44.046875 88.921875 33.015625 
L 88.921875 0 
L 79.890625 0 
L 79.890625 32.71875 
Q 79.890625 40.578125 77.09375 44.375 
Q 74.3125 48.1875 68.609375 48.1875 
Q 61.625 48.1875 57.5625 43.546875 
Q 53.515625 38.921875 53.515625 30.90625 
L 53.515625 0 
L 44.484375 0 
L 44.484375 32.71875 
Q 44.484375 40.625 41.703125 44.40625 
Q 38.921875 48.1875 33.109375 48.1875 
Q 26.21875 48.1875 22.15625 43.53125 
Q 18.109375 38.875 18.109375 30.90625 
L 18.109375 0 
L 9.078125 0 
L 9.078125 54.6875 
L 18.109375 54.6875 
L 18.109375 46.1875 
Q 21.1875 51.21875 25.484375 53.609375 
Q 29.78125 56 35.6875 56 
Q 41.65625 56 45.828125 52.96875 
Q 50 49.953125 52 44.1875 
z
" id="DejaVuSans-6d"/>
      <path d="M 54.890625 33.015625 
L 54.890625 0 
L 45.90625 0 
L 45.90625 32.71875 
Q 45.90625 40.484375 42.875 44.328125 
Q 39.84375 48.1875 33.796875 48.1875 
Q 26.515625 48.1875 22.3125 43.546875 
Q 18.109375 38.921875 18.109375 30.90625 
L 18.109375 0 
L 9.078125 0 
L 9.078125 54.6875 
L 18.109375 54.6875 
L 18.109375 46.1875 
Q 21.34375 51.125 25.703125 53.5625 
Q 30.078125 56 35.796875 56 
Q 45.21875 56 50.046875 50.171875 
Q 54.890625 44.34375 54.890625 33.015625 
z
" id="DejaVuSans-6e"/>
      <path d="M 8.015625 75.875 
L 15.828125 75.875 
Q 23.140625 64.359375 26.78125 53.3125 
Q 30.421875 42.28125 30.421875 31.390625 
Q 30.421875 20.453125 26.78125 9.375 
Q 23.140625 -1.703125 15.828125 -13.1875 
L 8.015625 -13.1875 
Q 14.5 -2 17.703125 9.0625 
Q 20.90625 20.125 20.90625 31.390625 
Q 20.90625 42.671875 17.703125 53.65625 
Q 14.5 64.65625 8.015625 75.875 
z
" id="DejaVuSans-29"/>
     </defs>
     <g transform="translate(107.571219 337.433594)scale(0.17 -0.17)">
      <use xlink:href="#DejaVuSans-6c"/>
      <use x="27.783203" xlink:href="#DejaVuSans-6f"/>
      <use x="88.964844" xlink:href="#DejaVuSans-67"/>
      <use x="152.441406" xlink:href="#DejaVuSans-31"/>
      <use x="216.064453" xlink:href="#DejaVuSans-30"/>
      <use x="279.6875" xlink:href="#DejaVuSans-28"/>
      <use x="318.701172" xlink:href="#DejaVuSans-23"/>
      <use x="402.490234" xlink:href="#DejaVuSans-20"/>
      <use x="434.277344" xlink:href="#DejaVuSans-66"/>
      <use x="469.404297" xlink:href="#DejaVuSans-2d"/>
      <use x="505.488281" xlink:href="#DejaVuSans-65"/>
      <use x="567.011719" xlink:href="#DejaVuSans-76"/>
      <use x="626.191406" xlink:href="#DejaVuSans-61"/>
      <use x="687.470703" xlink:href="#DejaVuSans-6c"/>
      <use x="715.253906" xlink:href="#DejaVuSans-73"/>
      <use x="767.353516" xlink:href="#DejaVuSans-20"/>
      <use x="799.140625" xlink:href="#DejaVuSans-2f"/>
      <use x="832.832031" xlink:href="#DejaVuSans-20"/>
      <use x="864.619141" xlink:href="#DejaVuSans-64"/>
      <use x="928.095703" xlink:href="#DejaVuSans-69"/>
      <use x="955.878906" xlink:href="#DejaVuSans-6d"/>
      <use x="1053.291016" xlink:href="#DejaVuSans-65"/>
      <use x="1114.814453" xlink:href="#DejaVuSans-6e"/>
      <use x="1178.193359" xlink:href="#DejaVuSans-73"/>
      <use x="1230.292969" xlink:href="#DejaVuSans-69"/>
      <use x="1258.076172" xlink:href="#DejaVuSans-6f"/>
      <use x="1319.257812" xlink:href="#DejaVuSans-6e"/>
      <use x="1382.636719" xlink:href="#DejaVuSans-29"/>
     </g>
    </g>
   </g>
   <g id="matplotlib.axis_2">
    <g id="ytick_1">
     <g id="line2d_11">
      <path clip-path="url(#p1a6562d889)" d="M 56.84 294.16 
L 399.984 294.16 
" style="fill:none;stroke:#b0b0b0;stroke-linecap:square;stroke-width:0.8;"/>
     </g>
     <g id="line2d_12">
      <defs>
       <path d="M 0 0 
L -3.5 0 
" id="m73be9e9a72" style="stroke:#000000;stroke-width:0.8;"/>
      </defs>
      <g>
       <use style="stroke:#000000;stroke-width:0.8;" x="56.84" xlink:href="#m73be9e9a72" y="294.16"/>
      </g>
     </g>
     <g id="text_7">
      <!-- 0.0 -->
      <defs>
       <path d="M 10.6875 12.40625 
L 21 12.40625 
L 21 0 
L 10.6875 0 
z
" id="DejaVuSans-2e"/>
      </defs>
      <g transform="translate(24.395 300.23875)scale(0.16 -0.16)">
       <use xlink:href="#DejaVuSans-30"/>
       <use x="63.623047" xlink:href="#DejaVuSans-2e"/>
       <use x="95.410156" xlink:href="#DejaVuSans-30"/>
      </g>
     </g>
    </g>
    <g id="ytick_2">
     <g id="line2d_13">
      <path clip-path="url(#p1a6562d889)" d="M 56.84 240.829307 
L 399.984 240.829307 
" style="fill:none;stroke:#b0b0b0;stroke-linecap:square;stroke-width:0.8;"/>
     </g>
     <g id="line2d_14">
      <g>
       <use style="stroke:#000000;stroke-width:0.8;" x="56.84" xlink:href="#m73be9e9a72" y="240.829307"/>
      </g>
     </g>
     <g id="text_8">
      <!-- 0.2 -->
      <g transform="translate(24.395 246.908057)scale(0.16 -0.16)">
       <use xlink:href="#DejaVuSans-30"/>
       <use x="63.623047" xlink:href="#DejaVuSans-2e"/>
       <use x="95.410156" xlink:href="#DejaVuSans-32"/>
      </g>
     </g>
    </g>
    <g id="ytick_3">
     <g id="line2d_15">
      <path clip-path="url(#p1a6562d889)" d="M 56.84 187.498614 
L 399.984 187.498614 
" style="fill:none;stroke:#b0b0b0;stroke-linecap:square;stroke-width:0.8;"/>
     </g>
     <g id="line2d_16">
      <g>
       <use style="stroke:#000000;stroke-width:0.8;" x="56.84" xlink:href="#m73be9e9a72" y="187.498614"/>
      </g>
     </g>
     <g id="text_9">
      <!-- 0.4 -->
      <g transform="translate(24.395 193.577364)scale(0.16 -0.16)">
       <use xlink:href="#DejaVuSans-30"/>
       <use x="63.623047" xlink:href="#DejaVuSans-2e"/>
       <use x="95.410156" xlink:href="#DejaVuSans-34"/>
      </g>
     </g>
    </g>
    <g id="ytick_4">
     <g id="line2d_17">
      <path clip-path="url(#p1a6562d889)" d="M 56.84 134.167921 
L 399.984 134.167921 
" style="fill:none;stroke:#b0b0b0;stroke-linecap:square;stroke-width:0.8;"/>
     </g>
     <g id="line2d_18">
      <g>
       <use style="stroke:#000000;stroke-width:0.8;" x="56.84" xlink:href="#m73be9e9a72" y="134.167921"/>
      </g>
     </g>
     <g id="text_10">
      <!-- 0.6 -->
      <g transform="translate(24.395 140.246671)scale(0.16 -0.16)">
       <use xlink:href="#DejaVuSans-30"/>
       <use x="63.623047" xlink:href="#DejaVuSans-2e"/>
       <use x="95.410156" xlink:href="#DejaVuSans-36"/>
      </g>
     </g>
    </g>
    <g id="ytick_5">
     <g id="line2d_19">
      <path clip-path="url(#p1a6562d889)" d="M 56.84 80.837228 
L 399.984 80.837228 
" style="fill:none;stroke:#b0b0b0;stroke-linecap:square;stroke-width:0.8;"/>
     </g>
     <g id="line2d_20">
      <g>
       <use style="stroke:#000000;stroke-width:0.8;" x="56.84" xlink:href="#m73be9e9a72" y="80.837228"/>
      </g>
     </g>
     <g id="text_11">
      <!-- 0.8 -->
      <g transform="translate(24.395 86.915978)scale(0.16 -0.16)">
       <use xlink:href="#DejaVuSans-30"/>
       <use x="63.623047" xlink:href="#DejaVuSans-2e"/>
       <use x="95.410156" xlink:href="#DejaVuSans-38"/>
      </g>
     </g>
    </g>
    <g id="ytick_6">
     <g id="line2d_21">
      <path clip-path="url(#p1a6562d889)" d="M 56.84 27.506535 
L 399.984 27.506535 
" style="fill:none;stroke:#b0b0b0;stroke-linecap:square;stroke-width:0.8;"/>
     </g>
     <g id="line2d_22">
      <g>
       <use style="stroke:#000000;stroke-width:0.8;" x="56.84" xlink:href="#m73be9e9a72" y="27.506535"/>
      </g>
     </g>
     <g id="text_12">
      <!-- 1.0 -->
      <g transform="translate(24.395 33.585285)scale(0.16 -0.16)">
       <use xlink:href="#DejaVuSans-31"/>
       <use x="63.623047" xlink:href="#DejaVuSans-2e"/>
       <use x="95.410156" xlink:href="#DejaVuSans-30"/>
      </g>
     </g>
    </g>
    <g id="text_13">
     <!-- Fraction of function,target pairs -->
     <defs>
      <path d="M 9.8125 72.90625 
L 51.703125 72.90625 
L 51.703125 64.59375 
L 19.671875 64.59375 
L 19.671875 43.109375 
L 48.578125 43.109375 
L 48.578125 34.8125 
L 19.671875 34.8125 
L 19.671875 0 
L 9.8125 0 
z
" id="DejaVuSans-46"/>
      <path d="M 41.109375 46.296875 
Q 39.59375 47.171875 37.8125 47.578125 
Q 36.03125 48 33.890625 48 
Q 26.265625 48 22.1875 43.046875 
Q 18.109375 38.09375 18.109375 28.8125 
L 18.109375 0 
L 9.078125 0 
L 9.078125 54.6875 
L 18.109375 54.6875 
L 18.109375 46.1875 
Q 20.953125 51.171875 25.484375 53.578125 
Q 30.03125 56 36.53125 56 
Q 37.453125 56 38.578125 55.875 
Q 39.703125 55.765625 41.0625 55.515625 
z
" id="DejaVuSans-72"/>
      <path d="M 48.78125 52.59375 
L 48.78125 44.1875 
Q 44.96875 46.296875 41.140625 47.34375 
Q 37.3125 48.390625 33.40625 48.390625 
Q 24.65625 48.390625 19.8125 42.84375 
Q 14.984375 37.3125 14.984375 27.296875 
Q 14.984375 17.28125 19.8125 11.734375 
Q 24.65625 6.203125 33.40625 6.203125 
Q 37.3125 6.203125 41.140625 7.25 
Q 44.96875 8.296875 48.78125 10.40625 
L 48.78125 2.09375 
Q 45.015625 0.34375 40.984375 -0.53125 
Q 36.96875 -1.421875 32.421875 -1.421875 
Q 20.0625 -1.421875 12.78125 6.34375 
Q 5.515625 14.109375 5.515625 27.296875 
Q 5.515625 40.671875 12.859375 48.328125 
Q 20.21875 56 33.015625 56 
Q 37.15625 56 41.109375 55.140625 
Q 45.0625 54.296875 48.78125 52.59375 
z
" id="DejaVuSans-63"/>
      <path d="M 18.3125 70.21875 
L 18.3125 54.6875 
L 36.8125 54.6875 
L 36.8125 47.703125 
L 18.3125 47.703125 
L 18.3125 18.015625 
Q 18.3125 11.328125 20.140625 9.421875 
Q 21.96875 7.515625 27.59375 7.515625 
L 36.8125 7.515625 
L 36.8125 0 
L 27.59375 0 
Q 17.1875 0 13.234375 3.875 
Q 9.28125 7.765625 9.28125 18.015625 
L 9.28125 47.703125 
L 2.6875 47.703125 
L 2.6875 54.6875 
L 9.28125 54.6875 
L 9.28125 70.21875 
z
" id="DejaVuSans-74"/>
      <path d="M 8.5 21.578125 
L 8.5 54.6875 
L 17.484375 54.6875 
L 17.484375 21.921875 
Q 17.484375 14.15625 20.5 10.265625 
Q 23.53125 6.390625 29.59375 6.390625 
Q 36.859375 6.390625 41.078125 11.03125 
Q 45.3125 15.671875 45.3125 23.6875 
L 45.3125 54.6875 
L 54.296875 54.6875 
L 54.296875 0 
L 45.3125 0 
L 45.3125 8.40625 
Q 42.046875 3.421875 37.71875 1 
Q 33.40625 -1.421875 27.6875 -1.421875 
Q 18.265625 -1.421875 13.375 4.4375 
Q 8.5 10.296875 8.5 21.578125 
z
M 31.109375 56 
z
" id="DejaVuSans-75"/>
      <path d="M 11.71875 12.40625 
L 22.015625 12.40625 
L 22.015625 4 
L 14.015625 -11.625 
L 7.71875 -11.625 
L 11.71875 4 
z
" id="DejaVuSans-2c"/>
      <path d="M 18.109375 8.203125 
L 18.109375 -20.796875 
L 9.078125 -20.796875 
L 9.078125 54.6875 
L 18.109375 54.6875 
L 18.109375 46.390625 
Q 20.953125 51.265625 25.265625 53.625 
Q 29.59375 56 35.59375 56 
Q 45.5625 56 51.78125 48.09375 
Q 58.015625 40.1875 58.015625 27.296875 
Q 58.015625 14.40625 51.78125 6.484375 
Q 45.5625 -1.421875 35.59375 -1.421875 
Q 29.59375 -1.421875 25.265625 0.953125 
Q 20.953125 3.328125 18.109375 8.203125 
z
M 48.6875 27.296875 
Q 48.6875 37.203125 44.609375 42.84375 
Q 40.53125 48.484375 33.40625 48.484375 
Q 26.265625 48.484375 22.1875 42.84375 
Q 18.109375 37.203125 18.109375 27.296875 
Q 18.109375 17.390625 22.1875 11.75 
Q 26.265625 6.109375 33.40625 6.109375 
Q 40.53125 6.109375 44.609375 11.75 
Q 48.6875 17.390625 48.6875 27.296875 
z
" id="DejaVuSans-70"/>
     </defs>
     <g transform="translate(16.859531 294.639375)rotate(-90)scale(0.17 -0.17)">
      <use xlink:href="#DejaVuSans-46"/>
      <use x="57.410156" xlink:href="#DejaVuSans-72"/>
      <use x="98.523438" xlink:href="#DejaVuSans-61"/>
      <use x="159.802734" xlink:href="#DejaVuSans-63"/>
      <use x="214.783203" xlink:href="#DejaVuSans-74"/>
      <use x="253.992188" xlink:href="#DejaVuSans-69"/>
      <use x="281.775391" xlink:href="#DejaVuSans-6f"/>
      <use x="342.957031" xlink:href="#DejaVuSans-6e"/>
      <use x="406.335938" xlink:href="#DejaVuSans-20"/>
      <use x="438.123047" xlink:href="#DejaVuSans-6f"/>
      <use x="499.304688" xlink:href="#DejaVuSans-66"/>
      <use x="534.509766" xlink:href="#DejaVuSans-20"/>
      <use x="566.296875" xlink:href="#DejaVuSans-66"/>
      <use x="601.501953" xlink:href="#DejaVuSans-75"/>
      <use x="664.880859" xlink:href="#DejaVuSans-6e"/>
      <use x="728.259766" xlink:href="#DejaVuSans-63"/>
      <use x="783.240234" xlink:href="#DejaVuSans-74"/>
      <use x="822.449219" xlink:href="#DejaVuSans-69"/>
      <use x="850.232422" xlink:href="#DejaVuSans-6f"/>
      <use x="911.414062" xlink:href="#DejaVuSans-6e"/>
      <use x="974.792969" xlink:href="#DejaVuSans-2c"/>
      <use x="1006.580078" xlink:href="#DejaVuSans-74"/>
      <use x="1045.789062" xlink:href="#DejaVuSans-61"/>
      <use x="1107.068359" xlink:href="#DejaVuSans-72"/>
      <use x="1148.166016" xlink:href="#DejaVuSans-67"/>
      <use x="1211.642578" xlink:href="#DejaVuSans-65"/>
      <use x="1273.166016" xlink:href="#DejaVuSans-74"/>
      <use x="1312.375" xlink:href="#DejaVuSans-20"/>
      <use x="1344.162109" xlink:href="#DejaVuSans-70"/>
      <use x="1407.638672" xlink:href="#DejaVuSans-61"/>
      <use x="1468.917969" xlink:href="#DejaVuSans-69"/>
      <use x="1496.701172" xlink:href="#DejaVuSans-72"/>
      <use x="1537.814453" xlink:href="#DejaVuSans-73"/>
     </g>
    </g>
   </g>
   <g id="line2d_23">
    <defs>
     <path d="M 0 1.5 
C 0.397805 1.5 0.77937 1.341951 1.06066 1.06066 
C 1.341951 0.77937 1.5 0.397805 1.5 0 
C 1.5 -0.397805 1.341951 -0.77937 1.06066 -1.06066 
C 0.77937 -1.341951 0.397805 -1.5 0 -1.5 
C -0.397805 -1.5 -0.77937 -1.341951 -1.06066 -1.06066 
C -1.341951 -0.77937 -1.5 -0.397805 -1.5 0 
C -1.5 0.397805 -1.341951 0.77937 -1.06066 1.06066 
C -0.77937 1.341951 -0.397805 1.5 0 1.5 
z
" id="mda8f46f09b" style="stroke:#00bfbf;"/>
    </defs>
    <g>
     <use style="fill:#00bfbf;stroke:#00bfbf;" x="252.577049" xlink:href="#mda8f46f09b" y="100.705525"/>
     <use style="fill:#00bfbf;stroke:#00bfbf;" x="252.577049" xlink:href="#mda8f46f09b" y="100.705525"/>
    </g>
   </g>
   <g id="line2d_24">
    <path d="M 44.939466 294.16 
L 44.939466 268.017503 
L 56.84 268.017503 
L 56.84 259.129055 
L 63.801366 259.129055 
L 63.801366 257.037655 
L 68.740534 257.037655 
L 68.740534 256.514805 
L 72.57165 256.514805 
L 72.57165 252.332005 
L 75.7019 252.332005 
L 75.7019 251.809156 
L 78.348489 251.809156 
L 78.348489 247.626356 
L 80.641068 247.626356 
L 80.641068 246.057806 
L 82.663267 246.057806 
L 82.663267 244.489256 
L 86.10855 244.489256 
L 86.10855 243.966407 
L 92.541603 243.966407 
L 92.541603 242.920707 
L 95.492072 242.920707 
L 95.492072 242.397857 
L 99.502969 242.397857 
L 99.502969 241.352157 
L 100.877209 241.352157 
L 100.877209 240.829307 
L 101.525167 240.829307 
L 101.525167 239.260757 
L 102.149557 239.260757 
L 102.149557 238.215057 
L 103.334085 238.215057 
L 103.334085 237.692207 
L 106.464335 237.692207 
L 106.464335 236.123658 
L 110.295451 236.123658 
L 110.295451 235.600808 
L 110.672804 235.600808 
L 110.672804 234.555108 
L 111.04204 234.555108 
L 111.04204 234.032258 
L 112.104369 234.032258 
L 112.104369 233.509408 
L 112.444358 233.509408 
L 112.444358 232.986558 
L 112.777744 232.986558 
L 112.777744 230.895158 
L 114.050092 230.895158 
L 114.050092 229.849458 
L 114.652569 229.849458 
L 114.652569 229.326608 
L 116.870985 229.326608 
L 116.870985 228.280909 
L 117.63417 228.280909 
L 117.63417 227.758059 
L 118.364869 227.758059 
L 118.364869 227.235209 
L 118.835278 227.235209 
L 118.835278 226.712359 
L 120.173787 226.712359 
L 120.173787 225.666659 
L 120.805841 225.666659 
L 120.805841 224.620959 
L 122.385698 224.620959 
L 122.385698 219.91531 
L 122.942575 219.91531 
L 122.942575 218.86961 
L 123.304037 218.86961 
L 123.304037 218.34676 
L 123.832351 218.34676 
L 123.832351 217.82391 
L 124.004904 217.82391 
L 124.004904 217.30106 
L 124.344892 217.30106 
L 124.344892 216.77821 
L 125.796644 216.77821 
L 125.796644 215.20966 
L 126.553103 215.20966 
L 126.553103 214.68681 
L 127.135154 214.68681 
L 127.135154 214.16396 
L 127.698117 214.16396 
L 127.698117 212.595411 
L 128.640957 212.595411 
L 128.640957 211.026861 
L 129.781742 211.026861 
L 129.781742 209.981161 
L 130.265403 209.981161 
L 130.265403 209.458311 
L 134.380309 209.458311 
L 134.380309 208.412611 
L 134.843109 208.412611 
L 134.843109 207.889761 
L 135.47076 207.889761 
L 135.47076 207.366911 
L 136.161058 207.366911 
L 136.161058 206.321211 
L 137.463585 206.321211 
L 137.541803 205.275512 
L 138.155041 205.275512 
L 138.155041 204.752662 
L 138.304988 204.752662 
L 138.304988 204.229812 
L 139.178169 204.229812 
L 139.178169 203.706962 
L 140.409928 203.706962 
L 140.409928 203.184112 
L 140.606896 203.184112 
L 140.606896 202.661262 
L 141.559202 202.661262 
L 141.559202 202.138412 
L 142.10622 202.138412 
L 142.10622 201.092712 
L 142.751962 201.092712 
L 142.751962 200.047012 
L 143.867214 200.047012 
L 143.867214 197.432763 
L 144.135064 197.432763 
L 144.135064 196.909913 
L 144.503169 196.909913 
L 144.503169 196.387063 
L 144.914419 196.387063 
L 144.914419 195.864213 
L 145.316047 195.864213 
L 145.316047 195.341363 
L 145.949296 195.341363 
L 145.949296 194.818513 
L 146.467463 194.818513 
L 146.467463 194.295663 
L 146.834725 194.295663 
L 146.834725 193.772813 
L 147.238716 193.772813 
L 147.238716 192.727113 
L 147.719912 192.727113 
L 147.719912 192.204263 
L 148.602716 192.204263 
L 148.602716 191.681413 
L 149.559 191.681413 
L 149.559 191.158563 
L 158.34478 191.158563 
L 158.34478 190.635713 
L 177.004142 190.635713 
L 177.004142 189.067164 
L 177.160152 189.067164 
L 177.160152 188.544314 
L 177.314758 188.544314 
L 177.314758 187.498614 
L 177.467984 187.498614 
L 177.467984 185.930064 
L 177.770393 185.930064 
L 177.770393 185.407214 
L 178.030701 185.407214 
L 178.126391 184.361514 
L 178.301659 184.361514 
L 178.301659 183.838664 
L 178.632669 183.838664 
L 178.696692 182.270115 
L 178.809925 182.270115 
L 178.838117 180.701565 
L 178.922416 180.701565 
L 178.922416 180.178715 
L 179.062001 180.178715 
L 179.117518 178.610165 
L 179.255532 178.610165 
L 179.337811 176.518765 
L 180.91188 176.518765 
L 180.91188 175.995915 
L 182.745121 175.995915 
L 182.745121 175.473065 
L 188.54438 175.473065 
L 188.624217 173.904516 
L 188.782785 173.904516 
L 188.861523 171.813116 
L 188.939902 171.813116 
L 189.017925 170.244566 
L 189.249887 170.244566 
L 189.249887 169.721716 
L 189.524168 169.721716 
L 189.524168 169.198866 
L 189.689652 169.198866 
L 189.730775 167.107467 
L 189.986506 167.107467 
L 189.986506 166.584617 
L 190.292775 166.584617 
L 190.292775 166.061767 
L 191.780334 166.061767 
L 191.780334 165.538917 
L 191.991119 165.538917 
L 191.991119 165.016067 
L 195.357063 165.016067 
L 195.437592 163.447517 
L 195.49107 163.447517 
L 195.597527 161.878967 
L 195.650509 161.878967 
L 195.703328 159.787567 
L 196.291706 159.787567 
L 196.393327 157.696168 
L 196.446438 157.696168 
L 196.446438 157.173318 
L 196.627297 157.173318 
L 196.627297 156.650468 
L 197.420766 156.650468 
L 197.420766 156.127618 
L 200.302284 156.127618 
L 200.382785 154.559068 
L 200.542663 154.559068 
L 200.622048 153.513368 
L 200.832615 153.513368 
L 200.895089 151.944818 
L 200.972865 151.944818 
L 201.050289 150.899119 
L 201.088871 150.899119 
L 201.167693 149.330569 
L 201.593929 149.330569 
L 201.593929 148.807719 
L 204.056168 148.807719 
L 204.056168 148.284869 
L 204.185366 148.284869 
L 204.185366 147.762019 
L 204.504173 147.762019 
L 204.546762 146.193469 
L 204.641028 146.193469 
L 204.641028 145.670619 
L 204.796996 145.670619 
L 204.796996 145.147769 
L 207.161813 145.147769 
L 207.269701 143.57922 
L 207.323391 143.57922 
L 207.403613 142.53352 
L 207.456887 142.53352 
L 207.483462 141.48782 
L 207.614407 141.48782 
L 207.677537 139.39642 
L 207.773105 139.39642 
L 207.87723 137.82787 
L 208.268512 137.82787 
L 208.268512 137.30502 
L 209.860311 137.30502 
L 209.906492 136.259321 
L 209.998482 136.259321 
L 210.021403 134.690771 
L 210.234245 134.690771 
L 210.294093 133.122221 
L 210.460117 133.122221 
L 210.460117 132.599371 
L 212.151301 132.599371 
L 212.191719 131.553671 
L 212.33244 131.553671 
L 212.431258 129.985121 
L 212.459104 129.985121 
L 212.55028 128.939421 
L 212.610468 128.939421 
L 212.610468 128.416572 
L 214.226137 128.416572 
L 214.314662 126.848022 
L 214.428445 126.848022 
L 214.534437 125.279472 
L 214.580164 125.279472 
L 214.580164 124.756622 
L 215.14596 124.756622 
L 215.14596 124.233772 
L 216.012538 124.233772 
L 216.093139 122.665222 
L 216.21094 122.665222 
L 216.253215 121.619522 
L 217.601023 121.619522 
L 217.674517 120.050973 
L 217.718463 120.050973 
L 217.718463 119.528123 
L 217.864141 119.528123 
L 217.965386 118.482423 
L 218.809545 118.482423 
L 218.809545 117.959573 
L 219.20314 117.959573 
L 219.242677 116.391023 
L 219.322812 116.391023 
L 219.376028 114.822473 
L 220.593732 114.822473 
L 220.593732 114.299623 
L 220.717642 114.299623 
L 220.717642 113.776773 
L 220.876609 113.776773 
L 220.876609 113.253924 
L 221.766047 113.253924 
L 221.86228 112.208224 
L 221.984242 112.208224 
L 221.984242 111.685374 
L 222.097977 111.685374 
L 222.097977 111.162524 
L 222.916987 111.162524 
L 222.916987 110.639674 
L 223.62626 110.639674 
L 223.62626 110.116824 
L 224.267476 110.116824 
L 224.267476 109.593974 
L 224.711254 109.593974 
L 224.711254 109.071124 
L 226.282402 109.071124 
L 226.282402 108.548274 
L 227.140134 108.548274 
L 227.165047 107.502574 
L 228.736849 107.502574 
L 228.736849 106.979724 
L 231.075474 106.979724 
L 231.075474 106.456874 
L 233.117298 106.456874 
L 233.117298 105.934024 
L 234.986639 105.934024 
L 234.986639 105.411175 
L 235.575725 105.411175 
L 235.663399 104.365475 
L 236.004643 104.365475 
L 236.004643 103.842625 
L 236.648015 103.842625 
L 236.648015 103.319775 
L 239.774581 103.319775 
L 239.774581 102.796925 
L 241.666479 102.796925 
L 241.666479 102.274075 
L 250.844482 102.274075 
L 250.844482 101.751225 
L 251.255956 101.751225 
L 251.255956 101.228375 
L 252.577049 101.228375 
L 252.577049 100.705525 
L 333.569032 100.705525 
L 333.569032 100.705525 
" style="fill:none;stroke:#00bfbf;stroke-linecap:square;stroke-width:1.5;"/>
   </g>
   <g id="line2d_25">
    <defs>
     <path d="M -6 0 
L 6 0 
M 0 6 
L 0 -6 
" id="m92a725a629" style="stroke:#00bfbf;stroke-width:1.5;"/>
    </defs>
    <g>
     <use style="fill-opacity:0;stroke:#00bfbf;stroke-width:1.5;" x="106.464335" xlink:href="#m92a725a629" y="236.123658"/>
     <use style="fill-opacity:0;stroke:#00bfbf;stroke-width:1.5;" x="149.559" xlink:href="#m92a725a629" y="191.158563"/>
     <use style="fill-opacity:0;stroke:#00bfbf;stroke-width:1.5;" x="212.610468" xlink:href="#m92a725a629" y="128.416572"/>
     <use style="fill-opacity:0;stroke:#00bfbf;stroke-width:1.5;" x="252.577049" xlink:href="#m92a725a629" y="101.228375"/>
     <use style="fill-opacity:0;stroke:#00bfbf;stroke-width:1.5;" x="252.577049" xlink:href="#m92a725a629" y="100.705525"/>
     <use style="fill-opacity:0;stroke:#00bfbf;stroke-width:1.5;" x="333.569032" xlink:href="#m92a725a629" y="100.705525"/>
    </g>
   </g>
   <g id="line2d_26">
    <path style="fill:none;stroke:#00bfbf;stroke-linecap:square;stroke-width:1.5;"/>
    <g/>
   </g>
   <g id="line2d_27">
    <path clip-path="url(#p1a6562d889)" d="M 96.372719 242.397857 
" style="fill:none;stroke:#00bfbf;stroke-linecap:square;stroke-width:1.5;"/>
    <defs>
     <path d="M -12 12 
L 12 -12 
M -12 -12 
L 12 12 
" id="mc9c3924a7a" style="stroke:#00bfbf;stroke-width:3;"/>
    </defs>
    <g clip-path="url(#p1a6562d889)">
     <use style="fill:#00bfbf;stroke:#00bfbf;stroke-width:3;" x="96.372719" xlink:href="#mc9c3924a7a" y="242.397857"/>
    </g>
   </g>
   <g id="line2d_28">
    <defs>
     <path d="M 0 1.5 
C 0.397805 1.5 0.77937 1.341951 1.06066 1.06066 
C 1.341951 0.77937 1.5 0.397805 1.5 0 
C 1.5 -0.397805 1.341951 -0.77937 1.06066 -1.06066 
C 0.77937 -1.341951 0.397805 -1.5 0 -1.5 
C -0.397805 -1.5 -0.77937 -1.341951 -1.06066 -1.06066 
C -1.341951 -0.77937 -1.5 -0.397805 -1.5 0 
C -1.5 0.397805 -1.341951 0.77937 -1.06066 1.06066 
C -0.77937 1.341951 -0.397805 1.5 0 1.5 
z
" id="m27a3671dbb" style="stroke:#008000;"/>
    </defs>
    <g>
     <use style="fill:#008000;stroke:#008000;" x="255.577005" xlink:href="#m27a3671dbb" y="210.504011"/>
     <use style="fill:#008000;stroke:#008000;" x="255.577005" xlink:href="#m27a3671dbb" y="210.504011"/>
    </g>
   </g>
   <g id="line2d_29">
    <path d="M 37.9781 294.16 
L 37.9781 275.337402 
L 49.878634 275.337402 
L 49.878634 269.586053 
L 56.84 269.586053 
L 56.84 269.063203 
L 61.779168 269.063203 
L 61.779168 264.880404 
L 65.610284 264.880404 
L 65.610284 262.789004 
L 68.740534 262.789004 
L 68.740534 261.743304 
L 71.387123 261.743304 
L 71.387123 260.697604 
L 73.679702 260.697604 
L 73.679702 260.174754 
L 77.510818 260.174754 
L 77.510818 259.651904 
L 80.641068 259.651904 
L 80.641068 258.606205 
L 82.015309 258.606205 
L 82.015309 257.560505 
L 84.472185 257.560505 
L 84.472185 257.037655 
L 91.047718 257.037655 
L 91.047718 256.514805 
L 92.541603 256.514805 
L 92.541603 255.991955 
L 94.563801 255.991955 
L 94.563801 254.423405 
L 96.935682 254.423405 
L 96.935682 253.900555 
L 98.521625 253.900555 
L 98.521625 253.377705 
L 99.502969 253.377705 
L 99.502969 252.332005 
L 103.334085 252.332005 
L 103.334085 251.809156 
L 106.779369 251.809156 
L 106.779369 251.286306 
L 111.873912 251.286306 
L 111.873912 250.763456 
L 112.104369 250.763456 
L 112.104369 250.240606 
L 113.425701 250.240606 
L 113.425701 249.717756 
L 113.636365 249.717756 
L 113.636365 249.194906 
L 113.844474 249.194906 
L 113.844474 248.672056 
L 114.253276 248.672056 
L 114.253276 248.149206 
L 117.214373 248.149206 
L 117.214373 247.103506 
L 117.551028 247.103506 
L 117.551028 246.580656 
L 117.716912 246.580656 
L 117.716912 246.057806 
L 118.835278 246.057806 
L 118.835278 244.489256 
L 122.068336 244.489256 
L 122.068336 243.966407 
L 122.942575 243.966407 
L 122.942575 243.443557 
L 124.118983 243.443557 
L 124.118983 242.920707 
L 125.43189 242.920707 
L 125.43189 242.397857 
L 125.848125 242.397857 
L 125.848125 241.875007 
L 127.324866 241.875007 
L 127.324866 241.352157 
L 129.368015 241.352157 
L 129.368015 240.829307 
L 129.617446 240.829307 
L 129.617446 240.306457 
L 130.105692 240.306457 
L 130.105692 238.737907 
L 131.042407 238.737907 
L 131.042407 237.692207 
L 133.115176 237.692207 
L 133.115176 237.169357 
L 133.249308 237.169357 
L 133.315983 236.123658 
L 133.96887 236.123658 
L 133.96887 235.077958 
L 134.159991 235.077958 
L 134.223228 233.509408 
L 135.441387 233.509408 
L 135.441387 232.986558 
L 135.962572 232.986558 
L 135.962572 231.940858 
L 136.959753 231.940858 
L 137.013489 230.895158 
L 138.552026 230.895158 
L 138.552026 230.372308 
L 139.083313 230.372308 
L 139.083313 229.849458 
L 140.143739 229.849458 
L 140.143739 229.326608 
L 140.365849 229.326608 
L 140.365849 228.803758 
L 140.930236 228.803758 
L 140.930236 228.280909 
L 141.184594 228.280909 
L 141.184594 227.758059 
L 141.88546 227.758059 
L 141.966065 226.712359 
L 144.710025 226.712359 
L 144.710025 226.189509 
L 145.708495 226.189509 
L 145.708495 225.666659 
L 148.860287 225.666659 
L 148.860287 225.143809 
L 149.442337 225.143809 
L 149.442337 224.620959 
L 150.180622 224.620959 
L 150.180622 224.098109 
L 156.899404 224.098109 
L 156.899404 223.575259 
L 158.352522 223.575259 
L 158.352522 223.052409 
L 177.136841 223.052409 
L 177.136841 222.529559 
L 177.291656 222.529559 
L 177.291656 222.006709 
L 178.391036 222.006709 
L 178.49672 220.96101 
L 178.922416 220.96101 
L 178.922416 220.43816 
L 180.385907 220.43816 
L 180.385907 219.91531 
L 182.110964 219.91531 
L 182.110964 219.39246 
L 188.425268 219.39246 
L 188.478904 218.34676 
L 189.060687 218.34676 
L 189.060687 217.82391 
L 189.261404 217.82391 
L 189.261404 217.30106 
L 189.520389 217.30106 
L 189.520389 216.77821 
L 190.30602 216.77821 
L 190.30602 216.25536 
L 190.950946 216.25536 
L 190.950946 215.73251 
L 195.644336 215.73251 
L 195.644336 215.20966 
L 196.569729 215.20966 
L 196.569729 214.68681 
L 204.16229 214.68681 
L 204.16229 214.16396 
L 207.47328 214.16396 
L 207.47328 213.64111 
L 212.055602 213.64111 
L 212.055602 213.118261 
L 214.0468 213.118261 
L 214.0468 212.595411 
L 217.619917 212.595411 
L 217.619917 212.072561 
L 227.732229 212.072561 
L 227.732229 211.549711 
L 241.574184 211.549711 
L 241.574184 211.026861 
L 255.577005 211.026861 
L 255.577005 210.504011 
L 333.569032 210.504011 
L 333.569032 210.504011 
" style="fill:none;stroke:#008000;stroke-linecap:square;stroke-width:1.5;"/>
   </g>
   <g id="line2d_30">
    <defs>
     <path d="M -0 6 
L 6 -6 
L -6 -6 
z
" id="me5ce6e88e2" style="stroke:#008000;stroke-linejoin:miter;stroke-width:1.5;"/>
    </defs>
    <g>
     <use style="fill-opacity:0;stroke:#008000;stroke-linejoin:miter;stroke-width:1.5;" x="125.848125" xlink:href="#me5ce6e88e2" y="242.397857"/>
     <use style="fill-opacity:0;stroke:#008000;stroke-linejoin:miter;stroke-width:1.5;" x="158.352522" xlink:href="#me5ce6e88e2" y="223.052409"/>
     <use style="fill-opacity:0;stroke:#008000;stroke-linejoin:miter;stroke-width:1.5;" x="241.574184" xlink:href="#me5ce6e88e2" y="211.026861"/>
     <use style="fill-opacity:0;stroke:#008000;stroke-linejoin:miter;stroke-width:1.5;" x="255.577005" xlink:href="#me5ce6e88e2" y="210.504011"/>
     <use style="fill-opacity:0;stroke:#008000;stroke-linejoin:miter;stroke-width:1.5;" x="255.577005" xlink:href="#me5ce6e88e2" y="210.504011"/>
     <use style="fill-opacity:0;stroke:#008000;stroke-linejoin:miter;stroke-width:1.5;" x="333.569032" xlink:href="#me5ce6e88e2" y="210.504011"/>
    </g>
   </g>
   <g id="line2d_31">
    <path style="fill:none;stroke:#008000;stroke-linecap:square;stroke-width:1.5;"/>
    <g/>
   </g>
   <g id="line2d_32">
    <path clip-path="url(#p1a6562d889)" d="M 96.372719 254.423405 
" style="fill:none;stroke:#008000;stroke-linecap:square;stroke-width:1.5;"/>
    <defs>
     <path d="M -12 12 
L 12 -12 
M -12 -12 
L 12 12 
" id="med24e77f4e" style="stroke:#008000;stroke-width:3;"/>
    </defs>
    <g clip-path="url(#p1a6562d889)">
     <use style="fill:#008000;stroke:#008000;stroke-width:3;" x="96.372719" xlink:href="#med24e77f4e" y="254.423405"/>
    </g>
   </g>
   <g id="line2d_33">
    <defs>
     <path d="M 0 1.5 
C 0.397805 1.5 0.77937 1.341951 1.06066 1.06066 
C 1.341951 0.77937 1.5 0.397805 1.5 0 
C 1.5 -0.397805 1.341951 -0.77937 1.06066 -1.06066 
C 0.77937 -1.341951 0.397805 -1.5 0 -1.5 
C -0.397805 -1.5 -0.77937 -1.341951 -1.06066 -1.06066 
C -1.341951 -0.77937 -1.5 -0.397805 -1.5 0 
C -1.5 0.397805 -1.341951 0.77937 -1.06066 1.06066 
C -0.77937 1.341951 -0.397805 1.5 0 1.5 
z
" id="m706b655bc3" style="stroke:#0000ff;"/>
    </defs>
    <g>
     <use style="fill:#0000ff;stroke:#0000ff;" x="207.34134" xlink:href="#m706b655bc3" y="226.189509"/>
     <use style="fill:#0000ff;stroke:#0000ff;" x="207.34134" xlink:href="#m706b655bc3" y="226.189509"/>
    </g>
   </g>
   <g id="line2d_34">
    <path d="M 29.207815 294.16 
L 29.207815 282.134452 
L 41.10835 282.134452 
L 41.10835 278.997352 
L 48.069716 278.997352 
L 48.069716 274.814553 
L 53.008884 274.814553 
L 53.008884 273.246003 
L 56.84 273.246003 
L 56.84 271.677453 
L 62.616839 271.677453 
L 62.616839 271.154603 
L 64.909418 271.154603 
L 64.909418 269.586053 
L 66.931616 269.586053 
L 66.931616 268.540353 
L 68.740534 268.540353 
L 68.740534 266.448954 
L 70.3769 266.448954 
L 70.3769 265.926104 
L 76.809952 265.926104 
L 76.809952 265.403254 
L 77.850807 265.403254 
L 77.850807 264.880404 
L 82.277434 264.880404 
L 82.277434 264.357554 
L 84.472185 264.357554 
L 84.472185 263.834704 
L 88.165398 263.834704 
L 88.165398 263.311854 
L 88.710486 263.311854 
L 88.710486 262.789004 
L 100.61102 262.789004 
L 100.61102 262.266154 
L 102.633219 262.266154 
L 102.633219 261.743304 
L 108.1007 261.743304 
L 108.1007 261.220454 
L 111.25983 261.220454 
L 111.25983 259.651904 
L 111.545984 259.651904 
L 111.545984 258.083355 
L 113.039868 258.083355 
L 113.039868 257.560505 
L 113.169445 257.560505 
L 113.169445 256.514805 
L 114.533753 256.514805 
L 114.533753 255.991955 
L 121.653359 255.991955 
L 121.653359 255.469105 
L 121.810153 255.469105 
L 121.810153 253.377705 
L 122.195986 253.377705 
L 122.195986 252.854855 
L 123.446518 252.854855 
L 123.446518 252.332005 
L 124.479024 252.332005 
L 124.479024 251.809156 
L 125.641269 251.809156 
L 125.641269 251.286306 
L 126.133599 251.286306 
L 126.133599 250.763456 
L 128.135563 250.763456 
L 128.135563 250.240606 
L 128.509394 250.240606 
L 128.509394 249.717756 
L 130.12173 249.717756 
L 130.12173 249.194906 
L 130.360522 249.194906 
L 130.455116 248.149206 
L 130.502219 248.149206 
L 130.502219 247.626356 
L 132.202607 247.626356 
L 132.202607 247.103506 
L 132.788917 247.103506 
L 132.788917 246.580656 
L 134.659483 246.580656 
L 134.659483 246.057806 
L 136.412928 246.057806 
L 136.412928 245.534956 
L 138.034133 245.534956 
L 138.124894 244.489256 
L 138.60101 244.489256 
L 138.60101 243.966407 
L 139.234831 243.966407 
L 139.234831 243.443557 
L 139.403707 243.443557 
L 139.487525 242.397857 
L 141.310374 242.397857 
L 141.310374 241.352157 
L 141.901612 241.352157 
L 141.901612 240.829307 
L 144.060486 240.829307 
L 144.166927 239.783607 
L 144.9955 239.783607 
L 144.9955 239.260757 
L 146.054188 239.260757 
L 146.054188 238.737907 
L 147.823132 238.737907 
L 147.823132 238.215057 
L 149.457938 238.215057 
L 149.457938 237.692207 
L 161.873077 237.692207 
L 161.873077 237.169357 
L 167.247443 237.169357 
L 167.247443 236.646507 
L 169.56283 236.646507 
L 169.56283 235.600808 
L 172.440623 235.600808 
L 172.440623 235.077958 
L 177.768894 235.077958 
L 177.768894 234.555108 
L 178.092592 234.555108 
L 178.092592 233.509408 
L 178.421848 233.509408 
L 178.421848 232.986558 
L 178.753402 232.986558 
L 178.753402 232.463708 
L 189.262939 232.463708 
L 189.28288 231.418008 
L 193.657513 231.418008 
L 193.657513 230.895158 
L 195.500144 230.895158 
L 195.500144 230.372308 
L 199.152303 230.372308 
L 199.152303 229.849458 
L 200.608975 229.849458 
L 200.608975 229.326608 
L 202.897095 229.326608 
L 202.897095 228.803758 
L 204.102468 228.803758 
L 204.102468 228.280909 
L 205.64989 228.280909 
L 205.64989 227.758059 
L 206.056341 227.758059 
L 206.056341 227.235209 
L 207.206939 227.235209 
L 207.206939 226.712359 
L 207.34134 226.712359 
L 207.34134 226.189509 
L 333.569032 226.189509 
L 333.569032 226.189509 
" style="fill:none;stroke:#0000ff;stroke-linecap:square;stroke-width:1.5;"/>
   </g>
   <g id="line2d_35">
    <defs>
     <path d="M 0 -6 
L -1.347084 -1.854102 
L -5.706339 -1.854102 
L -2.179628 0.708204 
L -3.526712 4.854102 
L -0 2.291796 
L 3.526712 4.854102 
L 2.179628 0.708204 
L 5.706339 -1.854102 
L 1.347084 -1.854102 
z
" id="m99a19a504b" style="stroke:#0000ff;stroke-linejoin:bevel;stroke-width:1.5;"/>
    </defs>
    <g>
     <use style="fill-opacity:0;stroke:#0000ff;stroke-linejoin:bevel;stroke-width:1.5;" x="66.931616" xlink:href="#m99a19a504b" y="268.540353"/>
     <use style="fill-opacity:0;stroke:#0000ff;stroke-linejoin:bevel;stroke-width:1.5;" x="114.533753" xlink:href="#m99a19a504b" y="255.991955"/>
     <use style="fill-opacity:0;stroke:#0000ff;stroke-linejoin:bevel;stroke-width:1.5;" x="207.34134" xlink:href="#m99a19a504b" y="226.712359"/>
     <use style="fill-opacity:0;stroke:#0000ff;stroke-linejoin:bevel;stroke-width:1.5;" x="207.34134" xlink:href="#m99a19a504b" y="226.189509"/>
     <use style="fill-opacity:0;stroke:#0000ff;stroke-linejoin:bevel;stroke-width:1.5;" x="207.34134" xlink:href="#m99a19a504b" y="226.189509"/>
     <use style="fill-opacity:0;stroke:#0000ff;stroke-linejoin:bevel;stroke-width:1.5;" x="333.569032" xlink:href="#m99a19a504b" y="226.189509"/>
    </g>
   </g>
   <g id="line2d_36">
    <path style="fill:none;stroke:#0000ff;stroke-linecap:square;stroke-width:1.5;"/>
    <g/>
   </g>
   <g id="line2d_37">
    <path clip-path="url(#p1a6562d889)" d="M 96.372719 262.789004 
" style="fill:none;stroke:#0000ff;stroke-linecap:square;stroke-width:1.5;"/>
    <defs>
     <path d="M -12 12 
L 12 -12 
M -12 -12 
L 12 12 
" id="m6d835db548" style="stroke:#0000ff;stroke-width:3;"/>
    </defs>
    <g clip-path="url(#p1a6562d889)">
     <use style="fill:#0000ff;stroke:#0000ff;stroke-width:3;" x="96.372719" xlink:href="#m6d835db548" y="262.789004"/>
    </g>
   </g>
   <g id="line2d_38">
    <defs>
     <path d="M 0 1.5 
C 0.397805 1.5 0.77937 1.341951 1.06066 1.06066 
C 1.341951 0.77937 1.5 0.397805 1.5 0 
C 1.5 -0.397805 1.341951 -0.77937 1.06066 -1.06066 
C 0.77937 -1.341951 0.397805 -1.5 0 -1.5 
C -0.397805 -1.5 -0.77937 -1.341951 -1.06066 -1.06066 
C -1.341951 -0.77937 -1.5 -0.397805 -1.5 0 
C -1.5 0.397805 -1.341951 0.77937 -1.06066 1.06066 
C -0.77937 1.341951 -0.397805 1.5 0 1.5 
z
" id="m87c837db9d" style="stroke:#000000;"/>
    </defs>
    <g>
     <use style="stroke:#000000;" x="232.652356" xlink:href="#m87c837db9d" y="226.189509"/>
     <use style="stroke:#000000;" x="232.652356" xlink:href="#m87c837db9d" y="226.189509"/>
    </g>
   </g>
   <g id="line2d_39">
    <path d="M 17.307281 294.16 
L 17.307281 281.088752 
L 29.207815 281.088752 
L 29.207815 277.428802 
L 41.10835 277.428802 
L 41.10835 276.905952 
L 44.939466 276.905952 
L 44.939466 276.383102 
L 50.716304 276.383102 
L 50.716304 274.291703 
L 55.031082 274.291703 
L 55.031082 273.246003 
L 56.84 273.246003 
L 56.84 272.200303 
L 58.476365 272.200303 
L 58.476365 271.677453 
L 64.909418 271.677453 
L 64.909418 270.631753 
L 67.859888 270.631753 
L 67.859888 270.108903 
L 71.870784 270.108903 
L 71.870784 269.586053 
L 74.517373 269.586053 
L 74.517373 268.540353 
L 86.721788 268.540353 
L 86.721788 268.017503 
L 89.751341 268.017503 
L 89.751341 267.494653 
L 90.249023 267.494653 
L 90.249023 266.971804 
L 97.210389 266.971804 
L 97.210389 266.448954 
L 99.068291 266.448954 
L 99.068291 265.926104 
L 108.697197 265.926104 
L 108.697197 265.403254 
L 109.028972 265.403254 
L 109.028972 264.880404 
L 109.192486 264.880404 
L 109.192486 264.357554 
L 109.514915 264.357554 
L 109.514915 263.834704 
L 110.895297 263.834704 
L 110.895297 263.311854 
L 112.974711 263.311854 
L 112.974711 262.789004 
L 114.593264 262.789004 
L 114.593264 262.266154 
L 116.922933 262.266154 
L 117.02636 261.220454 
L 119.019891 261.220454 
L 119.019891 260.697604 
L 120.429408 260.697604 
L 120.471643 259.129055 
L 121.295247 259.129055 
L 121.295247 258.606205 
L 123.088074 258.606205 
L 123.088074 258.083355 
L 125.91994 258.083355 
L 125.91994 257.560505 
L 128.48296 257.560505 
L 128.48296 257.037655 
L 130.384219 257.037655 
L 130.384219 256.514805 
L 131.2838 256.514805 
L 131.2838 255.991955 
L 132.202607 255.991955 
L 132.202607 255.469105 
L 134.191638 255.469105 
L 134.191638 254.423405 
L 135.939741 254.423405 
L 135.939741 253.900555 
L 136.127194 253.900555 
L 136.127194 252.854855 
L 139.954921 252.854855 
L 139.954921 252.332005 
L 141.260172 252.332005 
L 141.260172 251.809156 
L 141.792294 251.809156 
L 141.792294 250.763456 
L 145.106364 250.763456 
L 145.126445 249.717756 
L 146.054188 249.717756 
L 146.054188 249.194906 
L 147.060337 249.194906 
L 147.060337 248.672056 
L 147.362488 248.672056 
L 147.362488 247.626356 
L 149.527968 247.626356 
L 149.527968 247.103506 
L 149.820538 247.103506 
L 149.820538 246.580656 
L 151.685094 246.580656 
L 151.685094 246.057806 
L 152.624535 246.057806 
L 152.624535 245.534956 
L 153.002874 245.534956 
L 153.002874 244.489256 
L 161.22541 244.489256 
L 161.22541 243.443557 
L 161.447904 243.443557 
L 161.447904 242.920707 
L 172.764649 242.920707 
L 172.764649 242.397857 
L 173.356193 242.397857 
L 173.356193 241.875007 
L 178.732158 241.875007 
L 178.732158 241.352157 
L 180.582973 241.352157 
L 180.582973 240.829307 
L 181.577812 240.829307 
L 181.660461 239.783607 
L 182.47604 239.783607 
L 182.47604 239.260757 
L 184.335023 239.260757 
L 184.436976 238.215057 
L 187.955844 238.215057 
L 187.955844 237.692207 
L 189.21914 237.692207 
L 189.21914 237.169357 
L 190.434569 237.169357 
L 190.434569 236.646507 
L 190.981292 236.646507 
L 190.981292 236.123658 
L 191.487562 236.123658 
L 191.487562 235.600808 
L 196.97948 235.600808 
L 196.97948 234.555108 
L 199.498228 234.555108 
L 199.498228 234.032258 
L 200.446915 234.032258 
L 200.446915 233.509408 
L 200.991866 233.509408 
L 200.991866 232.986558 
L 201.626455 232.986558 
L 201.626455 232.463708 
L 204.579499 232.463708 
L 204.579499 231.940858 
L 204.883105 231.940858 
L 204.883105 231.418008 
L 207.645475 231.418008 
L 207.750374 230.372308 
L 217.61766 230.372308 
L 217.61766 229.849458 
L 219.05653 229.849458 
L 219.05653 229.326608 
L 220.363149 229.326608 
L 220.363149 228.803758 
L 221.628195 228.803758 
L 221.628195 228.280909 
L 222.70088 228.280909 
L 222.70088 227.758059 
L 229.246085 227.758059 
L 229.246085 227.235209 
L 232.00267 227.235209 
L 232.00267 226.712359 
L 232.652356 226.712359 
L 232.652356 226.189509 
L 333.569032 226.189509 
L 333.569032 226.189509 
" style="fill:none;stroke:#000000;stroke-linecap:square;stroke-width:1.5;"/>
   </g>
   <g id="line2d_40">
    <defs>
     <path d="M 0 6 
C 1.591219 6 3.117479 5.367802 4.242641 4.242641 
C 5.367802 3.117479 6 1.591219 6 0 
C 6 -1.591219 5.367802 -3.117479 4.242641 -4.242641 
C 3.117479 -5.367802 1.591219 -6 0 -6 
C -1.591219 -6 -3.117479 -5.367802 -4.242641 -4.242641 
C -5.367802 -3.117479 -6 -1.591219 -6 0 
C -6 1.591219 -5.367802 3.117479 -4.242641 4.242641 
C -3.117479 5.367802 -1.591219 6 0 6 
z
" id="m2d77ca66c5" style="stroke:#000000;stroke-width:1.5;"/>
    </defs>
    <g>
     <use style="fill-opacity:0;stroke:#000000;stroke-width:1.5;" x="125.91994" xlink:href="#m2d77ca66c5" y="258.083355"/>
     <use style="fill-opacity:0;stroke:#000000;stroke-width:1.5;" x="189.21914" xlink:href="#m2d77ca66c5" y="237.692207"/>
     <use style="fill-opacity:0;stroke:#000000;stroke-width:1.5;" x="232.652356" xlink:href="#m2d77ca66c5" y="226.712359"/>
     <use style="fill-opacity:0;stroke:#000000;stroke-width:1.5;" x="232.652356" xlink:href="#m2d77ca66c5" y="226.189509"/>
     <use style="fill-opacity:0;stroke:#000000;stroke-width:1.5;" x="232.652356" xlink:href="#m2d77ca66c5" y="226.189509"/>
     <use style="fill-opacity:0;stroke:#000000;stroke-width:1.5;" x="333.569032" xlink:href="#m2d77ca66c5" y="226.189509"/>
    </g>
   </g>
   <g id="line2d_41">
    <path style="fill:none;stroke:#000000;stroke-linecap:square;stroke-width:1.5;"/>
    <g/>
   </g>
   <g id="line2d_42">
    <path clip-path="url(#p1a6562d889)" d="M 96.372719 266.971804 
" style="fill:none;stroke:#000000;stroke-linecap:square;stroke-width:1.5;"/>
    <defs>
     <path d="M -12 12 
L 12 -12 
M -12 -12 
L 12 12 
" id="mede47066ff" style="stroke:#000000;stroke-width:3;"/>
    </defs>
    <g clip-path="url(#p1a6562d889)">
     <use style="stroke:#000000;stroke-width:3;" x="96.372719" xlink:href="#mede47066ff" y="266.971804"/>
    </g>
   </g>
   <g id="line2d_43">
    <defs>
     <path d="M 0 1.5 
C 0.397805 1.5 0.77937 1.341951 1.06066 1.06066 
C 1.341951 0.77937 1.5 0.397805 1.5 0 
C 1.5 -0.397805 1.341951 -0.77937 1.06066 -1.06066 
C 0.77937 -1.341951 0.397805 -1.5 0 -1.5 
C -0.397805 -1.5 -0.77937 -1.341951 -1.06066 -1.06066 
C -1.341951 -0.77937 -1.5 -0.397805 -1.5 0 
C -1.5 0.397805 -1.341951 0.77937 -1.06066 1.06066 
C -0.77937 1.341951 -0.397805 1.5 0 1.5 
z
" id="me26d38334e" style="stroke:#ff0000;"/>
    </defs>
    <g>
     <use style="fill:#ff0000;stroke:#ff0000;" x="238.379454" xlink:href="#me26d38334e" y="231.418008"/>
     <use style="fill:#ff0000;stroke:#ff0000;" x="238.379454" xlink:href="#me26d38334e" y="231.418008"/>
    </g>
   </g>
   <g id="line2d_44">
    <path d="M 5.406747 294.16 
L 5.406747 280.043052 
L 17.307281 280.043052 
L 17.307281 277.428802 
L 24.268647 277.428802 
L 24.268647 276.905952 
L 29.207815 276.905952 
L 29.207815 275.337402 
L 33.038932 275.337402 
L 33.038932 274.814553 
L 54.049738 274.814553 
L 54.049738 274.291703 
L 68.305857 274.291703 
L 68.305857 273.768853 
L 70.762732 273.768853 
L 70.762732 272.723153 
L 75.985689 272.723153 
L 75.985689 272.200303 
L 79.068966 272.200303 
L 79.068966 271.677453 
L 80.641068 271.677453 
L 80.641068 270.631753 
L 88.303301 270.631753 
L 88.303301 270.108903 
L 96.796662 270.108903 
L 96.796662 269.586053 
L 98.241623 269.586053 
L 98.318441 268.540353 
L 100.065932 268.540353 
L 100.065932 268.017503 
L 106.464335 268.017503 
L 106.464335 267.494653 
L 108.316122 267.494653 
L 108.316122 266.971804 
L 108.528873 266.971804 
L 108.528873 266.448954 
L 109.028972 266.448954 
L 109.028972 265.926104 
L 109.673887 265.926104 
L 109.673887 265.403254 
L 110.103619 265.403254 
L 110.103619 264.880404 
L 112.343066 264.880404 
L 112.343066 264.357554 
L 112.678406 264.357554 
L 112.678406 263.311854 
L 115.907994 263.311854 
L 115.907994 262.789004 
L 119.82693 262.789004 
L 119.82693 262.266154 
L 120.280759 262.266154 
L 120.365858 261.220454 
L 121.153939 261.220454 
L 121.153939 260.697604 
L 123.727981 260.697604 
L 123.727981 260.174754 
L 124.039207 260.174754 
L 124.039207 259.651904 
L 124.512394 259.651904 
L 124.512394 259.129055 
L 124.972889 259.129055 
L 124.972889 258.606205 
L 125.719132 258.606205 
L 125.719132 258.083355 
L 126.597448 258.083355 
L 126.597448 257.560505 
L 127.43301 257.560505 
L 127.43301 257.037655 
L 127.698117 257.037655 
L 127.698117 256.514805 
L 129.903941 256.514805 
L 129.928277 255.469105 
L 130.666067 255.469105 
L 130.666067 254.946255 
L 131.617619 254.946255 
L 131.617619 254.423405 
L 135.584839 254.423405 
L 135.584839 253.900555 
L 141.095997 253.900555 
L 141.095997 252.854855 
L 141.743484 252.854855 
L 141.743484 252.332005 
L 141.919764 252.332005 
L 141.919764 251.809156 
L 145.330927 251.809156 
L 145.415004 250.763456 
L 147.968306 250.763456 
L 147.968306 250.240606 
L 149.578367 250.240606 
L 149.578367 249.194906 
L 150.34677 249.194906 
L 150.34677 248.672056 
L 151.987173 248.672056 
L 151.987173 247.626356 
L 152.948879 247.626356 
L 152.948879 247.103506 
L 153.57361 247.103506 
L 153.57361 246.580656 
L 153.895726 246.580656 
L 153.895726 246.057806 
L 155.199655 246.057806 
L 155.199655 245.534956 
L 159.635538 245.534956 
L 159.635538 245.012106 
L 165.072235 245.012106 
L 165.072235 244.489256 
L 168.836965 244.489256 
L 168.836965 243.966407 
L 169.087317 243.966407 
L 169.087317 243.443557 
L 173.908336 243.443557 
L 173.908336 242.920707 
L 177.278551 242.920707 
L 177.278551 242.397857 
L 179.543828 242.397857 
L 179.543828 241.875007 
L 179.874497 241.875007 
L 179.874497 241.352157 
L 182.295624 241.352157 
L 182.295624 240.829307 
L 186.724789 240.829307 
L 186.724789 240.306457 
L 191.755463 240.306457 
L 191.755463 239.783607 
L 200.748894 239.783607 
L 200.748894 239.260757 
L 201.435847 239.260757 
L 201.435847 238.737907 
L 204.80305 238.737907 
L 204.80305 238.215057 
L 207.355926 238.215057 
L 207.355926 237.169357 
L 207.802454 237.169357 
L 207.802454 236.646507 
L 212.054211 236.646507 
L 212.054211 236.123658 
L 214.164077 236.123658 
L 214.164077 235.600808 
L 216.04555 235.600808 
L 216.093863 234.555108 
L 217.74222 234.555108 
L 217.74222 234.032258 
L 218.974119 234.032258 
L 218.974119 233.509408 
L 222.706297 233.509408 
L 222.706297 232.986558 
L 230.699744 232.986558 
L 230.699744 232.463708 
L 234.448798 232.463708 
L 234.448798 231.940858 
L 238.379454 231.940858 
L 238.379454 231.418008 
L 333.569032 231.418008 
L 333.569032 231.418008 
" style="fill:none;stroke:#ff0000;stroke-linecap:square;stroke-width:1.5;"/>
   </g>
   <g id="line2d_45">
    <defs>
     <path d="M -6 6 
L 6 6 
L 6 -6 
L -6 -6 
z
" id="m31c36fa6a0" style="stroke:#ff0000;stroke-linejoin:miter;stroke-width:1.5;"/>
    </defs>
    <g>
     <use style="fill-opacity:0;stroke:#ff0000;stroke-linejoin:miter;stroke-width:1.5;" x="88.303301" xlink:href="#m31c36fa6a0" y="270.108903"/>
     <use style="fill-opacity:0;stroke:#ff0000;stroke-linejoin:miter;stroke-width:1.5;" x="150.34677" xlink:href="#m31c36fa6a0" y="248.672056"/>
     <use style="fill-opacity:0;stroke:#ff0000;stroke-linejoin:miter;stroke-width:1.5;" x="238.379454" xlink:href="#m31c36fa6a0" y="231.940858"/>
     <use style="fill-opacity:0;stroke:#ff0000;stroke-linejoin:miter;stroke-width:1.5;" x="238.379454" xlink:href="#m31c36fa6a0" y="231.418008"/>
     <use style="fill-opacity:0;stroke:#ff0000;stroke-linejoin:miter;stroke-width:1.5;" x="238.379454" xlink:href="#m31c36fa6a0" y="231.418008"/>
     <use style="fill-opacity:0;stroke:#ff0000;stroke-linejoin:miter;stroke-width:1.5;" x="333.569032" xlink:href="#m31c36fa6a0" y="231.418008"/>
    </g>
   </g>
   <g id="line2d_46">
    <path style="fill:none;stroke:#ff0000;stroke-linecap:square;stroke-width:1.5;"/>
    <g/>
   </g>
   <g id="line2d_47">
    <path clip-path="url(#p1a6562d889)" d="M 96.372719 270.108903 
" style="fill:none;stroke:#ff0000;stroke-linecap:square;stroke-width:1.5;"/>
    <defs>
     <path d="M -12 12 
L 12 -12 
M -12 -12 
L 12 12 
" id="md71c2faf1e" style="stroke:#ff0000;stroke-width:3;"/>
    </defs>
    <g clip-path="url(#p1a6562d889)">
     <use style="fill:#ff0000;stroke:#ff0000;stroke-width:3;" x="96.372719" xlink:href="#md71c2faf1e" y="270.108903"/>
    </g>
   </g>
   <g id="line2d_48">
    <defs>
     <path d="M 0 1.5 
C 0.397805 1.5 0.77937 1.341951 1.06066 1.06066 
C 1.341951 0.77937 1.5 0.397805 1.5 0 
C 1.5 -0.397805 1.341951 -0.77937 1.06066 -1.06066 
C 0.77937 -1.341951 0.397805 -1.5 0 -1.5 
C -0.397805 -1.5 -0.77937 -1.341951 -1.06066 -1.06066 
C -1.341951 -0.77937 -1.5 -0.397805 -1.5 0 
C -1.5 0.397805 -1.341951 0.77937 -1.06066 1.06066 
C -0.77937 1.341951 -0.397805 1.5 0 1.5 
z
" id="mc25e80967d" style="stroke:#bf00bf;"/>
    </defs>
    <g>
     <use style="fill:#bf00bf;stroke:#bf00bf;" x="142.237326" xlink:href="#mc25e80967d" y="273.246003"/>
     <use style="fill:#bf00bf;stroke:#bf00bf;" x="142.237326" xlink:href="#mc25e80967d" y="273.246003"/>
    </g>
   </g>
   <g id="line2d_49">
    <path d="M -1 284.748701 
L 5.406747 284.748701 
L 5.406747 281.611602 
L 21.138397 281.611602 
L 21.138397 281.088752 
L 26.915236 281.088752 
L 26.915236 278.997352 
L 52.463795 278.997352 
L 52.463795 278.474502 
L 111.827447 278.474502 
L 111.827447 277.951652 
L 115.134175 277.951652 
L 115.134175 276.905952 
L 117.683863 276.905952 
L 117.683863 276.383102 
L 118.329064 276.383102 
L 118.329064 275.860252 
L 120.098509 275.860252 
L 120.098509 275.337402 
L 134.063103 275.337402 
L 134.063103 274.814553 
L 136.893695 274.814553 
L 136.893695 274.291703 
L 140.386801 274.291703 
L 140.386801 273.768853 
L 142.237326 273.768853 
L 142.237326 273.246003 
L 333.569032 273.246003 
" style="fill:none;stroke:#bf00bf;stroke-linecap:square;stroke-width:1.5;"/>
   </g>
   <g id="line2d_50">
    <defs>
     <path d="M -0 8.485281 
L 8.485281 0 
L 0 -8.485281 
L -8.485281 -0 
z
" id="m35759da07e" style="stroke:#bf00bf;stroke-linejoin:miter;stroke-width:1.5;"/>
    </defs>
    <g>
     <use style="fill-opacity:0;stroke:#bf00bf;stroke-linejoin:miter;stroke-width:1.5;" x="142.237326" xlink:href="#m35759da07e" y="273.768853"/>
     <use style="fill-opacity:0;stroke:#bf00bf;stroke-linejoin:miter;stroke-width:1.5;" x="142.237326" xlink:href="#m35759da07e" y="273.768853"/>
     <use style="fill-opacity:0;stroke:#bf00bf;stroke-linejoin:miter;stroke-width:1.5;" x="142.237326" xlink:href="#m35759da07e" y="273.246003"/>
     <use style="fill-opacity:0;stroke:#bf00bf;stroke-linejoin:miter;stroke-width:1.5;" x="142.237326" xlink:href="#m35759da07e" y="273.246003"/>
     <use style="fill-opacity:0;stroke:#bf00bf;stroke-linejoin:miter;stroke-width:1.5;" x="333.569032" xlink:href="#m35759da07e" y="273.246003"/>
    </g>
   </g>
   <g id="line2d_51">
    <path style="fill:none;stroke:#bf00bf;stroke-linecap:square;stroke-width:1.5;"/>
    <g/>
   </g>
   <g id="line2d_52">
    <path clip-path="url(#p1a6562d889)" d="M 96.372719 278.474502 
" style="fill:none;stroke:#bf00bf;stroke-linecap:square;stroke-width:1.5;"/>
    <defs>
     <path d="M -12 12 
L 12 -12 
M -12 -12 
L 12 12 
" id="m3b3402e598" style="stroke:#bf00bf;stroke-width:3;"/>
    </defs>
    <g clip-path="url(#p1a6562d889)">
     <use style="fill:#bf00bf;stroke:#bf00bf;stroke-width:3;" x="96.372719" xlink:href="#m3b3402e598" y="278.474502"/>
    </g>
   </g>
   <g id="line2d_53">
    <path d="M 333.569032 273.246003 
L 364.009226 288.826931 
" style="fill:none;stroke:#bf00bf;stroke-linecap:square;stroke-width:1.5;"/>
    <g>
     <use style="fill-opacity:0;stroke:#bf00bf;stroke-linejoin:miter;stroke-width:1.5;" x="333.569032" xlink:href="#m35759da07e" y="273.246003"/>
     <use style="fill-opacity:0;stroke:#bf00bf;stroke-linejoin:miter;stroke-width:1.5;" x="364.009226" xlink:href="#m35759da07e" y="288.826931"/>
    </g>
   </g>
   <g id="line2d_54">
    <path d="M 333.569032 231.418008 
L 364.009226 237.629465 
" style="fill:none;stroke:#ff0000;stroke-linecap:square;stroke-width:1.5;"/>
    <g>
     <use style="fill-opacity:0;stroke:#ff0000;stroke-linejoin:miter;stroke-width:1.5;" x="333.569032" xlink:href="#m31c36fa6a0" y="231.418008"/>
     <use style="fill-opacity:0;stroke:#ff0000;stroke-linejoin:miter;stroke-width:1.5;" x="364.009226" xlink:href="#m31c36fa6a0" y="237.629465"/>
    </g>
   </g>
   <g id="line2d_55">
    <path d="M 333.569032 226.189509 
L 364.009226 186.432 
" style="fill:none;stroke:#000000;stroke-linecap:square;stroke-width:1.5;"/>
    <g>
     <use style="fill-opacity:0;stroke:#000000;stroke-width:1.5;" x="333.569032" xlink:href="#m2d77ca66c5" y="226.189509"/>
     <use style="fill-opacity:0;stroke:#000000;stroke-width:1.5;" x="364.009226" xlink:href="#m2d77ca66c5" y="186.432"/>
    </g>
   </g>
   <g id="line2d_56">
    <path d="M 333.569032 226.189509 
L 364.009226 135.234535 
" style="fill:none;stroke:#0000ff;stroke-linecap:square;stroke-width:1.5;"/>
    <g>
     <use style="fill-opacity:0;stroke:#0000ff;stroke-linejoin:bevel;stroke-width:1.5;" x="333.569032" xlink:href="#m99a19a504b" y="226.189509"/>
     <use style="fill-opacity:0;stroke:#0000ff;stroke-linejoin:bevel;stroke-width:1.5;" x="364.009226" xlink:href="#m99a19a504b" y="135.234535"/>
    </g>
   </g>
   <g id="line2d_57">
    <path d="M 333.569032 210.504011 
L 364.009226 84.037069 
" style="fill:none;stroke:#008000;stroke-linecap:square;stroke-width:1.5;"/>
    <g>
     <use style="fill-opacity:0;stroke:#008000;stroke-linejoin:miter;stroke-width:1.5;" x="333.569032" xlink:href="#me5ce6e88e2" y="210.504011"/>
     <use style="fill-opacity:0;stroke:#008000;stroke-linejoin:miter;stroke-width:1.5;" x="364.009226" xlink:href="#me5ce6e88e2" y="84.037069"/>
    </g>
   </g>
   <g id="line2d_58">
    <path d="M 333.569032 100.705525 
L 364.009226 32.839604 
" style="fill:none;stroke:#00bfbf;stroke-linecap:square;stroke-width:1.5;"/>
    <g>
     <use style="fill-opacity:0;stroke:#00bfbf;stroke-width:1.5;" x="333.569032" xlink:href="#m92a725a629" y="100.705525"/>
     <use style="fill-opacity:0;stroke:#00bfbf;stroke-width:1.5;" x="364.009226" xlink:href="#m92a725a629" y="32.839604"/>
    </g>
   </g>
   <g id="line2d_59">
    <path d="M 333.569032 294.16 
L 333.569032 27.506535 
" style="fill:none;stroke:#000000;stroke-linecap:square;stroke-width:1.5;"/>
   </g>
   <g id="patch_3">
    <path d="M 56.84 294.16 
L 56.84 24.84 
" style="fill:none;stroke:#000000;stroke-linecap:square;stroke-linejoin:miter;stroke-width:0.8;"/>
   </g>
   <g id="patch_4">
    <path d="M 399.984 294.16 
L 399.984 24.84 
" style="fill:none;stroke:#000000;stroke-linecap:square;stroke-linejoin:miter;stroke-width:0.8;"/>
   </g>
   <g id="patch_5">
    <path d="M 56.84 294.16 
L 399.984 294.16 
" style="fill:none;stroke:#000000;stroke-linecap:square;stroke-linejoin:miter;stroke-width:0.8;"/>
   </g>
   <g id="patch_6">
    <path d="M 56.84 24.84 
L 399.984 24.84 
" style="fill:none;stroke:#000000;stroke-linecap:square;stroke-linejoin:miter;stroke-width:0.8;"/>
   </g>
   <g id="text_14">
    <!-- 40-D -->
    <defs>
     <path d="M 19.671875 64.796875 
L 19.671875 8.109375 
L 31.59375 8.109375 
Q 46.6875 8.109375 53.6875 14.9375 
Q 60.6875 21.78125 60.6875 36.53125 
Q 60.6875 51.171875 53.6875 57.984375 
Q 46.6875 64.796875 31.59375 64.796875 
z
M 9.8125 72.90625 
L 30.078125 72.90625 
Q 51.265625 72.90625 61.171875 64.09375 
Q 71.09375 55.28125 71.09375 36.53125 
Q 71.09375 17.671875 61.125 8.828125 
Q 51.171875 0 30.078125 0 
L 9.8125 0 
z
" id="DejaVuSans-44"/>
    </defs>
    <g transform="translate(369.543806 293.517868)scale(0.17 -0.17)">
     <use xlink:href="#DejaVuSans-34"/>
     <use x="63.623047" xlink:href="#DejaVuSans-30"/>
     <use x="127.246094" xlink:href="#DejaVuSans-2d"/>
     <use x="163.330078" xlink:href="#DejaVuSans-44"/>
    </g>
   </g>
   <g id="text_15">
    <!-- 20-D -->
    <g transform="translate(369.543806 242.320403)scale(0.17 -0.17)">
     <use xlink:href="#DejaVuSans-32"/>
     <use x="63.623047" xlink:href="#DejaVuSans-30"/>
     <use x="127.246094" xlink:href="#DejaVuSans-2d"/>
     <use x="163.330078" xlink:href="#DejaVuSans-44"/>
    </g>
   </g>
   <g id="text_16">
    <!-- 10-D -->
    <g transform="translate(369.543806 191.122937)scale(0.17 -0.17)">
     <use xlink:href="#DejaVuSans-31"/>
     <use x="63.623047" xlink:href="#DejaVuSans-30"/>
     <use x="127.246094" xlink:href="#DejaVuSans-2d"/>
     <use x="163.330078" xlink:href="#DejaVuSans-44"/>
    </g>
   </g>
   <g id="text_17">
    <!-- 5-D -->
    <defs>
     <path d="M 10.796875 72.90625 
L 49.515625 72.90625 
L 49.515625 64.59375 
L 19.828125 64.59375 
L 19.828125 46.734375 
Q 21.96875 47.46875 24.109375 47.828125 
Q 26.265625 48.1875 28.421875 48.1875 
Q 40.625 48.1875 47.75 41.5 
Q 54.890625 34.8125 54.890625 23.390625 
Q 54.890625 11.625 47.5625 5.09375 
Q 40.234375 -1.421875 26.90625 -1.421875 
Q 22.3125 -1.421875 17.546875 -0.640625 
Q 12.796875 0.140625 7.71875 1.703125 
L 7.71875 11.625 
Q 12.109375 9.234375 16.796875 8.0625 
Q 21.484375 6.890625 26.703125 6.890625 
Q 35.15625 6.890625 40.078125 11.328125 
Q 45.015625 15.765625 45.015625 23.390625 
Q 45.015625 31 40.078125 35.4375 
Q 35.15625 39.890625 26.703125 39.890625 
Q 22.75 39.890625 18.8125 39.015625 
Q 14.890625 38.140625 10.796875 36.28125 
z
" id="DejaVuSans-35"/>
    </defs>
    <g transform="translate(369.543806 139.925472)scale(0.17 -0.17)">
     <use xlink:href="#DejaVuSans-35"/>
     <use x="63.623047" xlink:href="#DejaVuSans-2d"/>
     <use x="99.707031" xlink:href="#DejaVuSans-44"/>
    </g>
   </g>
   <g id="text_18">
    <!-- 3-D -->
    <defs>
     <path d="M 40.578125 39.3125 
Q 47.65625 37.796875 51.625 33 
Q 55.609375 28.21875 55.609375 21.1875 
Q 55.609375 10.40625 48.1875 4.484375 
Q 40.765625 -1.421875 27.09375 -1.421875 
Q 22.515625 -1.421875 17.65625 -0.515625 
Q 12.796875 0.390625 7.625 2.203125 
L 7.625 11.71875 
Q 11.71875 9.328125 16.59375 8.109375 
Q 21.484375 6.890625 26.8125 6.890625 
Q 36.078125 6.890625 40.9375 10.546875 
Q 45.796875 14.203125 45.796875 21.1875 
Q 45.796875 27.640625 41.28125 31.265625 
Q 36.765625 34.90625 28.71875 34.90625 
L 20.21875 34.90625 
L 20.21875 43.015625 
L 29.109375 43.015625 
Q 36.375 43.015625 40.234375 45.921875 
Q 44.09375 48.828125 44.09375 54.296875 
Q 44.09375 59.90625 40.109375 62.90625 
Q 36.140625 65.921875 28.71875 65.921875 
Q 24.65625 65.921875 20.015625 65.03125 
Q 15.375 64.15625 9.8125 62.3125 
L 9.8125 71.09375 
Q 15.4375 72.65625 20.34375 73.4375 
Q 25.25 74.21875 29.59375 74.21875 
Q 40.828125 74.21875 47.359375 69.109375 
Q 53.90625 64.015625 53.90625 55.328125 
Q 53.90625 49.265625 50.4375 45.09375 
Q 46.96875 40.921875 40.578125 39.3125 
z
" id="DejaVuSans-33"/>
    </defs>
    <g transform="translate(369.543806 88.728007)scale(0.17 -0.17)">
     <use xlink:href="#DejaVuSans-33"/>
     <use x="63.623047" xlink:href="#DejaVuSans-2d"/>
     <use x="99.707031" xlink:href="#DejaVuSans-44"/>
    </g>
   </g>
   <g id="text_19">
    <!-- 2-D -->
    <g transform="translate(369.543806 37.530541)scale(0.17 -0.17)">
     <use xlink:href="#DejaVuSans-32"/>
     <use x="63.623047" xlink:href="#DejaVuSans-2d"/>
     <use x="99.707031" xlink:href="#DejaVuSans-44"/>
    </g>
   </g>
   <g id="text_20">
    <!-- bbob f19 -->
    <defs>
     <path d="M 48.6875 27.296875 
Q 48.6875 37.203125 44.609375 42.84375 
Q 40.53125 48.484375 33.40625 48.484375 
Q 26.265625 48.484375 22.1875 42.84375 
Q 18.109375 37.203125 18.109375 27.296875 
Q 18.109375 17.390625 22.1875 11.75 
Q 26.265625 6.109375 33.40625 6.109375 
Q 40.53125 6.109375 44.609375 11.75 
Q 48.6875 17.390625 48.6875 27.296875 
z
M 18.109375 46.390625 
Q 20.953125 51.265625 25.265625 53.625 
Q 29.59375 56 35.59375 56 
Q 45.5625 56 51.78125 48.09375 
Q 58.015625 40.1875 58.015625 27.296875 
Q 58.015625 14.40625 51.78125 6.484375 
Q 45.5625 -1.421875 35.59375 -1.421875 
Q 29.59375 -1.421875 25.265625 0.953125 
Q 20.953125 3.328125 18.109375 8.203125 
L 18.109375 0 
L 9.078125 0 
L 9.078125 75.984375 
L 18.109375 75.984375 
z
" id="DejaVuSans-62"/>
     <path d="M 10.984375 1.515625 
L 10.984375 10.5 
Q 14.703125 8.734375 18.5 7.8125 
Q 22.3125 6.890625 25.984375 6.890625 
Q 35.75 6.890625 40.890625 13.453125 
Q 46.046875 20.015625 46.78125 33.40625 
Q 43.953125 29.203125 39.59375 26.953125 
Q 35.25 24.703125 29.984375 24.703125 
Q 19.046875 24.703125 12.671875 31.3125 
Q 6.296875 37.9375 6.296875 49.421875 
Q 6.296875 60.640625 12.9375 67.421875 
Q 19.578125 74.21875 30.609375 74.21875 
Q 43.265625 74.21875 49.921875 64.515625 
Q 56.59375 54.828125 56.59375 36.375 
Q 56.59375 19.140625 48.40625 8.859375 
Q 40.234375 -1.421875 26.421875 -1.421875 
Q 22.703125 -1.421875 18.890625 -0.6875 
Q 15.09375 0.046875 10.984375 1.515625 
z
M 30.609375 32.421875 
Q 37.25 32.421875 41.125 36.953125 
Q 45.015625 41.5 45.015625 49.421875 
Q 45.015625 57.28125 41.125 61.84375 
Q 37.25 66.40625 30.609375 66.40625 
Q 23.96875 66.40625 20.09375 61.84375 
Q 16.21875 57.28125 16.21875 49.421875 
Q 16.21875 41.5 20.09375 36.953125 
Q 23.96875 32.421875 30.609375 32.421875 
z
" id="DejaVuSans-39"/>
    </defs>
    <g transform="translate(60.27144 35.283606)scale(0.102 -0.102)">
     <use xlink:href="#DejaVuSans-62"/>
     <use x="63.476562" xlink:href="#DejaVuSans-62"/>
     <use x="126.953125" xlink:href="#DejaVuSans-6f"/>
     <use x="188.134766" xlink:href="#DejaVuSans-62"/>
     <use x="251.611328" xlink:href="#DejaVuSans-20"/>
     <use x="283.398438" xlink:href="#DejaVuSans-66"/>
     <use x="318.603516" xlink:href="#DejaVuSans-31"/>
     <use x="382.226562" xlink:href="#DejaVuSans-39"/>
    </g>
    <!-- 51 targets: 100..1e-08 -->
    <defs>
     <path d="M 11.71875 12.40625 
L 22.015625 12.40625 
L 22.015625 0 
L 11.71875 0 
z
M 11.71875 51.703125 
L 22.015625 51.703125 
L 22.015625 39.3125 
L 11.71875 39.3125 
z
" id="DejaVuSans-3a"/>
    </defs>
    <g transform="translate(60.27144 46.705375)scale(0.102 -0.102)">
     <use xlink:href="#DejaVuSans-35"/>
     <use x="63.623047" xlink:href="#DejaVuSans-31"/>
     <use x="127.246094" xlink:href="#DejaVuSans-20"/>
     <use x="159.033203" xlink:href="#DejaVuSans-74"/>
     <use x="198.242188" xlink:href="#DejaVuSans-61"/>
     <use x="259.521484" xlink:href="#DejaVuSans-72"/>
     <use x="300.619141" xlink:href="#DejaVuSans-67"/>
     <use x="364.095703" xlink:href="#DejaVuSans-65"/>
     <use x="425.619141" xlink:href="#DejaVuSans-74"/>
     <use x="464.828125" xlink:href="#DejaVuSans-73"/>
     <use x="516.927734" xlink:href="#DejaVuSans-3a"/>
     <use x="550.619141" xlink:href="#DejaVuSans-20"/>
     <use x="582.40625" xlink:href="#DejaVuSans-31"/>
     <use x="646.029297" xlink:href="#DejaVuSans-30"/>
     <use x="709.652344" xlink:href="#DejaVuSans-30"/>
     <use x="773.275391" xlink:href="#DejaVuSans-2e"/>
     <use x="805.0625" xlink:href="#DejaVuSans-2e"/>
     <use x="836.849609" xlink:href="#DejaVuSans-31"/>
     <use x="900.472656" xlink:href="#DejaVuSans-65"/>
     <use x="961.996094" xlink:href="#DejaVuSans-2d"/>
     <use x="998.080078" xlink:href="#DejaVuSans-30"/>
     <use x="1061.703125" xlink:href="#DejaVuSans-38"/>
    </g>
    <!-- 15 instances -->
    <g transform="translate(60.27144 58.127144)scale(0.102 -0.102)">
     <use xlink:href="#DejaVuSans-31"/>
     <use x="63.623047" xlink:href="#DejaVuSans-35"/>
     <use x="127.246094" xlink:href="#DejaVuSans-20"/>
     <use x="159.033203" xlink:href="#DejaVuSans-69"/>
     <use x="186.816406" xlink:href="#DejaVuSans-6e"/>
     <use x="250.195312" xlink:href="#DejaVuSans-73"/>
     <use x="302.294922" xlink:href="#DejaVuSans-74"/>
     <use x="341.503906" xlink:href="#DejaVuSans-61"/>
     <use x="402.783203" xlink:href="#DejaVuSans-6e"/>
     <use x="466.162109" xlink:href="#DejaVuSans-63"/>
     <use x="521.142578" xlink:href="#DejaVuSans-65"/>
     <use x="582.666016" xlink:href="#DejaVuSans-73"/>
    </g>
   </g>
   <g id="text_21">
    <!-- v2.2.1.10 -->
    <g style="fill:#808080;" transform="translate(204.779188 289.387113)scale(0.1 -0.1)">
     <use xlink:href="#DejaVuSans-76"/>
     <use x="59.179688" xlink:href="#DejaVuSans-32"/>
     <use x="122.802734" xlink:href="#DejaVuSans-2e"/>
     <use x="154.589844" xlink:href="#DejaVuSans-32"/>
     <use x="218.212891" xlink:href="#DejaVuSans-2e"/>
     <use x="250" xlink:href="#DejaVuSans-31"/>
     <use x="313.623047" xlink:href="#DejaVuSans-2e"/>
     <use x="345.410156" xlink:href="#DejaVuSans-31"/>
     <use x="409.033203" xlink:href="#DejaVuSans-30"/>
    </g>
   </g>
   <g id="text_22">
    <!-- 19 Griewank-Rosenbrock F8F2 -->
    <defs>
     <path d="M 59.515625 10.40625 
L 59.515625 29.984375 
L 43.40625 29.984375 
L 43.40625 38.09375 
L 69.28125 38.09375 
L 69.28125 6.78125 
Q 63.578125 2.734375 56.6875 0.65625 
Q 49.8125 -1.421875 42 -1.421875 
Q 24.90625 -1.421875 15.25 8.5625 
Q 5.609375 18.5625 5.609375 36.375 
Q 5.609375 54.25 15.25 64.234375 
Q 24.90625 74.21875 42 74.21875 
Q 49.125 74.21875 55.546875 72.453125 
Q 61.96875 70.703125 67.390625 67.28125 
L 67.390625 56.78125 
Q 61.921875 61.421875 55.765625 63.765625 
Q 49.609375 66.109375 42.828125 66.109375 
Q 29.4375 66.109375 22.71875 58.640625 
Q 16.015625 51.171875 16.015625 36.375 
Q 16.015625 21.625 22.71875 14.15625 
Q 29.4375 6.6875 42.828125 6.6875 
Q 48.046875 6.6875 52.140625 7.59375 
Q 56.25 8.5 59.515625 10.40625 
z
" id="DejaVuSans-47"/>
     <path d="M 4.203125 54.6875 
L 13.1875 54.6875 
L 24.421875 12.015625 
L 35.59375 54.6875 
L 46.1875 54.6875 
L 57.421875 12.015625 
L 68.609375 54.6875 
L 77.59375 54.6875 
L 63.28125 0 
L 52.6875 0 
L 40.921875 44.828125 
L 29.109375 0 
L 18.5 0 
z
" id="DejaVuSans-77"/>
     <path d="M 9.078125 75.984375 
L 18.109375 75.984375 
L 18.109375 31.109375 
L 44.921875 54.6875 
L 56.390625 54.6875 
L 27.390625 29.109375 
L 57.625 0 
L 45.90625 0 
L 18.109375 26.703125 
L 18.109375 0 
L 9.078125 0 
z
" id="DejaVuSans-6b"/>
     <path d="M 44.390625 34.1875 
Q 47.5625 33.109375 50.5625 29.59375 
Q 53.5625 26.078125 56.59375 19.921875 
L 66.609375 0 
L 56 0 
L 46.6875 18.703125 
Q 43.0625 26.03125 39.671875 28.421875 
Q 36.28125 30.8125 30.421875 30.8125 
L 19.671875 30.8125 
L 19.671875 0 
L 9.8125 0 
L 9.8125 72.90625 
L 32.078125 72.90625 
Q 44.578125 72.90625 50.734375 67.671875 
Q 56.890625 62.453125 56.890625 51.90625 
Q 56.890625 45.015625 53.6875 40.46875 
Q 50.484375 35.9375 44.390625 34.1875 
z
M 19.671875 64.796875 
L 19.671875 38.921875 
L 32.078125 38.921875 
Q 39.203125 38.921875 42.84375 42.21875 
Q 46.484375 45.515625 46.484375 51.90625 
Q 46.484375 58.296875 42.84375 61.546875 
Q 39.203125 64.796875 32.078125 64.796875 
z
" id="DejaVuSans-52"/>
    </defs>
    <g transform="translate(75.644813 18.84)scale(0.2 -0.2)">
     <use xlink:href="#DejaVuSans-31"/>
     <use x="63.623047" xlink:href="#DejaVuSans-39"/>
     <use x="127.246094" xlink:href="#DejaVuSans-20"/>
     <use x="159.033203" xlink:href="#DejaVuSans-47"/>
     <use x="236.523438" xlink:href="#DejaVuSans-72"/>
     <use x="277.636719" xlink:href="#DejaVuSans-69"/>
     <use x="305.419922" xlink:href="#DejaVuSans-65"/>
     <use x="366.943359" xlink:href="#DejaVuSans-77"/>
     <use x="448.730469" xlink:href="#DejaVuSans-61"/>
     <use x="510.009766" xlink:href="#DejaVuSans-6e"/>
     <use x="573.388672" xlink:href="#DejaVuSans-6b"/>
     <use x="631.298828" xlink:href="#DejaVuSans-2d"/>
     <use x="667.382812" xlink:href="#DejaVuSans-52"/>
     <use x="736.802734" xlink:href="#DejaVuSans-6f"/>
     <use x="797.984375" xlink:href="#DejaVuSans-73"/>
     <use x="850.083984" xlink:href="#DejaVuSans-65"/>
     <use x="911.607422" xlink:href="#DejaVuSans-6e"/>
     <use x="974.986328" xlink:href="#DejaVuSans-62"/>
     <use x="1038.462891" xlink:href="#DejaVuSans-72"/>
     <use x="1079.544922" xlink:href="#DejaVuSans-6f"/>
     <use x="1140.726562" xlink:href="#DejaVuSans-63"/>
     <use x="1195.707031" xlink:href="#DejaVuSans-6b"/>
     <use x="1253.617188" xlink:href="#DejaVuSans-20"/>
     <use x="1285.404297" xlink:href="#DejaVuSans-46"/>
     <use x="1342.923828" xlink:href="#DejaVuSans-38"/>
     <use x="1406.546875" xlink:href="#DejaVuSans-46"/>
     <use x="1464.066406" xlink:href="#DejaVuSans-32"/>
    </g>
   </g>
  </g>
 </g>
 <defs>
  <clipPath id="p1a6562d889">
   <rect height="269.32" width="343.144" x="56.84" y="24.84"/>
  </clipPath>
 </defs>
</svg>
