<?xml version="1.0" encoding="utf-8" standalone="no"?>
<!DOCTYPE svg PUBLIC "-//W3C//DTD SVG 1.1//EN"
  "http://www.w3.org/Graphics/SVG/1.1/DTD/svg11.dtd">
<!-- Created with matplotlib (http://matplotlib.org/) -->
<svg height="345.6pt" version="1.1" viewBox="0 0 460.8 345.6" width="460.8pt" xmlns="http://www.w3.org/2000/svg" xmlns:xlink="http://www.w3.org/1999/xlink">
 <defs>
  <style type="text/css">
*{stroke-linecap:butt;stroke-linejoin:round;}
  </style>
 </defs>
 <g id="figure_1">
  <g id="patch_1">
   <path d="M 0 345.6 
L 460.8 345.6 
L 460.8 0 
L 0 0 
z
" style="fill:#ffffff;"/>
  </g>
  <g id="axes_1">
   <g id="patch_2">
    <path d="M 56.84 294.16 
L 399.984 294.16 
L 399.984 24.84 
L 56.84 24.84 
z
" style="fill:#ffffff;"/>
   </g>
   <g id="matplotlib.axis_1">
    <g id="xtick_1">
     <g id="line2d_1">
      <path clip-path="url(#pb855e2ec39)" d="M 56.84 294.16 
L 56.84 24.84 
" style="fill:none;stroke:#b0b0b0;stroke-linecap:square;stroke-width:0.8;"/>
     </g>
     <g id="line2d_2">
      <defs>
       <path d="M 0 0 
L 0 3.5 
" id="mfe5d0c5f63" style="stroke:#000000;stroke-width:0.8;"/>
      </defs>
      <g>
       <use style="stroke:#000000;stroke-width:0.8;" x="56.84" xlink:href="#mfe5d0c5f63" y="294.16"/>
      </g>
     </g>
     <g id="text_1">
      <!-- 0 -->
      <defs>
       <path d="M 31.78125 66.40625 
Q 24.171875 66.40625 20.328125 58.90625 
Q 16.5 51.421875 16.5 36.375 
Q 16.5 21.390625 20.328125 13.890625 
Q 24.171875 6.390625 31.78125 6.390625 
Q 39.453125 6.390625 43.28125 13.890625 
Q 47.125 21.390625 47.125 36.375 
Q 47.125 51.421875 43.28125 58.90625 
Q 39.453125 66.40625 31.78125 66.40625 
z
M 31.78125 74.21875 
Q 44.046875 74.21875 50.515625 64.515625 
Q 56.984375 54.828125 56.984375 36.375 
Q 56.984375 17.96875 50.515625 8.265625 
Q 44.046875 -1.421875 31.78125 -1.421875 
Q 19.53125 -1.421875 13.0625 8.265625 
Q 6.59375 17.96875 6.59375 36.375 
Q 6.59375 54.828125 13.0625 64.515625 
Q 19.53125 74.21875 31.78125 74.21875 
z
" id="DejaVuSans-30"/>
      </defs>
      <g transform="translate(50.4775 316.356875)scale(0.2 -0.2)">
       <use xlink:href="#DejaVuSans-30"/>
      </g>
     </g>
    </g>
    <g id="xtick_2">
     <g id="line2d_3">
      <path clip-path="url(#pb855e2ec39)" d="M 135.905438 294.16 
L 135.905438 24.84 
" style="fill:none;stroke:#b0b0b0;stroke-linecap:square;stroke-width:0.8;"/>
     </g>
     <g id="line2d_4">
      <g>
       <use style="stroke:#000000;stroke-width:0.8;" x="135.905438" xlink:href="#mfe5d0c5f63" y="294.16"/>
      </g>
     </g>
     <g id="text_2">
      <!-- 2 -->
      <defs>
       <path d="M 19.1875 8.296875 
L 53.609375 8.296875 
L 53.609375 0 
L 7.328125 0 
L 7.328125 8.296875 
Q 12.9375 14.109375 22.625 23.890625 
Q 32.328125 33.6875 34.8125 36.53125 
Q 39.546875 41.84375 41.421875 45.53125 
Q 43.3125 49.21875 43.3125 52.78125 
Q 43.3125 58.59375 39.234375 62.25 
Q 35.15625 65.921875 28.609375 65.921875 
Q 23.96875 65.921875 18.8125 64.3125 
Q 13.671875 62.703125 7.8125 59.421875 
L 7.8125 69.390625 
Q 13.765625 71.78125 18.9375 73 
Q 24.125 74.21875 28.421875 74.21875 
Q 39.75 74.21875 46.484375 68.546875 
Q 53.21875 62.890625 53.21875 53.421875 
Q 53.21875 48.921875 51.53125 44.890625 
Q 49.859375 40.875 45.40625 35.40625 
Q 44.1875 33.984375 37.640625 27.21875 
Q 31.109375 20.453125 19.1875 8.296875 
z
" id="DejaVuSans-32"/>
      </defs>
      <g transform="translate(129.542938 316.356875)scale(0.2 -0.2)">
       <use xlink:href="#DejaVuSans-32"/>
      </g>
     </g>
    </g>
    <g id="xtick_3">
     <g id="line2d_5">
      <path clip-path="url(#pb855e2ec39)" d="M 214.970876 294.16 
L 214.970876 24.84 
" style="fill:none;stroke:#b0b0b0;stroke-linecap:square;stroke-width:0.8;"/>
     </g>
     <g id="line2d_6">
      <g>
       <use style="stroke:#000000;stroke-width:0.8;" x="214.970876" xlink:href="#mfe5d0c5f63" y="294.16"/>
      </g>
     </g>
     <g id="text_3">
      <!-- 4 -->
      <defs>
       <path d="M 37.796875 64.3125 
L 12.890625 25.390625 
L 37.796875 25.390625 
z
M 35.203125 72.90625 
L 47.609375 72.90625 
L 47.609375 25.390625 
L 58.015625 25.390625 
L 58.015625 17.1875 
L 47.609375 17.1875 
L 47.609375 0 
L 37.796875 0 
L 37.796875 17.1875 
L 4.890625 17.1875 
L 4.890625 26.703125 
z
" id="DejaVuSans-34"/>
      </defs>
      <g transform="translate(208.608376 316.356875)scale(0.2 -0.2)">
       <use xlink:href="#DejaVuSans-34"/>
      </g>
     </g>
    </g>
    <g id="xtick_4">
     <g id="line2d_7">
      <path clip-path="url(#pb855e2ec39)" d="M 294.036313 294.16 
L 294.036313 24.84 
" style="fill:none;stroke:#b0b0b0;stroke-linecap:square;stroke-width:0.8;"/>
     </g>
     <g id="line2d_8">
      <g>
       <use style="stroke:#000000;stroke-width:0.8;" x="294.036313" xlink:href="#mfe5d0c5f63" y="294.16"/>
      </g>
     </g>
     <g id="text_4">
      <!-- 6 -->
      <defs>
       <path d="M 33.015625 40.375 
Q 26.375 40.375 22.484375 35.828125 
Q 18.609375 31.296875 18.609375 23.390625 
Q 18.609375 15.53125 22.484375 10.953125 
Q 26.375 6.390625 33.015625 6.390625 
Q 39.65625 6.390625 43.53125 10.953125 
Q 47.40625 15.53125 47.40625 23.390625 
Q 47.40625 31.296875 43.53125 35.828125 
Q 39.65625 40.375 33.015625 40.375 
z
M 52.59375 71.296875 
L 52.59375 62.3125 
Q 48.875 64.0625 45.09375 64.984375 
Q 41.3125 65.921875 37.59375 65.921875 
Q 27.828125 65.921875 22.671875 59.328125 
Q 17.53125 52.734375 16.796875 39.40625 
Q 19.671875 43.65625 24.015625 45.921875 
Q 28.375 48.1875 33.59375 48.1875 
Q 44.578125 48.1875 50.953125 41.515625 
Q 57.328125 34.859375 57.328125 23.390625 
Q 57.328125 12.15625 50.6875 5.359375 
Q 44.046875 -1.421875 33.015625 -1.421875 
Q 20.359375 -1.421875 13.671875 8.265625 
Q 6.984375 17.96875 6.984375 36.375 
Q 6.984375 53.65625 15.1875 63.9375 
Q 23.390625 74.21875 37.203125 74.21875 
Q 40.921875 74.21875 44.703125 73.484375 
Q 48.484375 72.75 52.59375 71.296875 
z
" id="DejaVuSans-36"/>
      </defs>
      <g transform="translate(287.673813 316.356875)scale(0.2 -0.2)">
       <use xlink:href="#DejaVuSans-36"/>
      </g>
     </g>
    </g>
    <g id="xtick_5">
     <g id="line2d_9">
      <path clip-path="url(#pb855e2ec39)" d="M 373.101751 294.16 
L 373.101751 24.84 
" style="fill:none;stroke:#b0b0b0;stroke-linecap:square;stroke-width:0.8;"/>
     </g>
     <g id="line2d_10">
      <g>
       <use style="stroke:#000000;stroke-width:0.8;" x="373.101751" xlink:href="#mfe5d0c5f63" y="294.16"/>
      </g>
     </g>
     <g id="text_5">
      <!-- 8 -->
      <defs>
       <path d="M 31.78125 34.625 
Q 24.75 34.625 20.71875 30.859375 
Q 16.703125 27.09375 16.703125 20.515625 
Q 16.703125 13.921875 20.71875 10.15625 
Q 24.75 6.390625 31.78125 6.390625 
Q 38.8125 6.390625 42.859375 10.171875 
Q 46.921875 13.96875 46.921875 20.515625 
Q 46.921875 27.09375 42.890625 30.859375 
Q 38.875 34.625 31.78125 34.625 
z
M 21.921875 38.8125 
Q 15.578125 40.375 12.03125 44.71875 
Q 8.5 49.078125 8.5 55.328125 
Q 8.5 64.0625 14.71875 69.140625 
Q 20.953125 74.21875 31.78125 74.21875 
Q 42.671875 74.21875 48.875 69.140625 
Q 55.078125 64.0625 55.078125 55.328125 
Q 55.078125 49.078125 51.53125 44.71875 
Q 48 40.375 41.703125 38.8125 
Q 48.828125 37.15625 52.796875 32.3125 
Q 56.78125 27.484375 56.78125 20.515625 
Q 56.78125 9.90625 50.3125 4.234375 
Q 43.84375 -1.421875 31.78125 -1.421875 
Q 19.734375 -1.421875 13.25 4.234375 
Q 6.78125 9.90625 6.78125 20.515625 
Q 6.78125 27.484375 10.78125 32.3125 
Q 14.796875 37.15625 21.921875 38.8125 
z
M 18.3125 54.390625 
Q 18.3125 48.734375 21.84375 45.5625 
Q 25.390625 42.390625 31.78125 42.390625 
Q 38.140625 42.390625 41.71875 45.5625 
Q 45.3125 48.734375 45.3125 54.390625 
Q 45.3125 60.0625 41.71875 63.234375 
Q 38.140625 66.40625 31.78125 66.40625 
Q 25.390625 66.40625 21.84375 63.234375 
Q 18.3125 60.0625 18.3125 54.390625 
z
" id="DejaVuSans-38"/>
      </defs>
      <g transform="translate(366.739251 316.356875)scale(0.2 -0.2)">
       <use xlink:href="#DejaVuSans-38"/>
      </g>
     </g>
    </g>
    <g id="text_6">
     <!-- log10(# f-evals / dimension) -->
     <defs>
      <path d="M 9.421875 75.984375 
L 18.40625 75.984375 
L 18.40625 0 
L 9.421875 0 
z
" id="DejaVuSans-6c"/>
      <path d="M 30.609375 48.390625 
Q 23.390625 48.390625 19.1875 42.75 
Q 14.984375 37.109375 14.984375 27.296875 
Q 14.984375 17.484375 19.15625 11.84375 
Q 23.34375 6.203125 30.609375 6.203125 
Q 37.796875 6.203125 41.984375 11.859375 
Q 46.1875 17.53125 46.1875 27.296875 
Q 46.1875 37.015625 41.984375 42.703125 
Q 37.796875 48.390625 30.609375 48.390625 
z
M 30.609375 56 
Q 42.328125 56 49.015625 48.375 
Q 55.71875 40.765625 55.71875 27.296875 
Q 55.71875 13.875 49.015625 6.21875 
Q 42.328125 -1.421875 30.609375 -1.421875 
Q 18.84375 -1.421875 12.171875 6.21875 
Q 5.515625 13.875 5.515625 27.296875 
Q 5.515625 40.765625 12.171875 48.375 
Q 18.84375 56 30.609375 56 
z
" id="DejaVuSans-6f"/>
      <path d="M 45.40625 27.984375 
Q 45.40625 37.75 41.375 43.109375 
Q 37.359375 48.484375 30.078125 48.484375 
Q 22.859375 48.484375 18.828125 43.109375 
Q 14.796875 37.75 14.796875 27.984375 
Q 14.796875 18.265625 18.828125 12.890625 
Q 22.859375 7.515625 30.078125 7.515625 
Q 37.359375 7.515625 41.375 12.890625 
Q 45.40625 18.265625 45.40625 27.984375 
z
M 54.390625 6.78125 
Q 54.390625 -7.171875 48.1875 -13.984375 
Q 42 -20.796875 29.203125 -20.796875 
Q 24.46875 -20.796875 20.265625 -20.09375 
Q 16.0625 -19.390625 12.109375 -17.921875 
L 12.109375 -9.1875 
Q 16.0625 -11.328125 19.921875 -12.34375 
Q 23.78125 -13.375 27.78125 -13.375 
Q 36.625 -13.375 41.015625 -8.765625 
Q 45.40625 -4.15625 45.40625 5.171875 
L 45.40625 9.625 
Q 42.625 4.78125 38.28125 2.390625 
Q 33.9375 0 27.875 0 
Q 17.828125 0 11.671875 7.65625 
Q 5.515625 15.328125 5.515625 27.984375 
Q 5.515625 40.671875 11.671875 48.328125 
Q 17.828125 56 27.875 56 
Q 33.9375 56 38.28125 53.609375 
Q 42.625 51.21875 45.40625 46.390625 
L 45.40625 54.6875 
L 54.390625 54.6875 
z
" id="DejaVuSans-67"/>
      <path d="M 12.40625 8.296875 
L 28.515625 8.296875 
L 28.515625 63.921875 
L 10.984375 60.40625 
L 10.984375 69.390625 
L 28.421875 72.90625 
L 38.28125 72.90625 
L 38.28125 8.296875 
L 54.390625 8.296875 
L 54.390625 0 
L 12.40625 0 
z
" id="DejaVuSans-31"/>
      <path d="M 31 75.875 
Q 24.46875 64.65625 21.28125 53.65625 
Q 18.109375 42.671875 18.109375 31.390625 
Q 18.109375 20.125 21.3125 9.0625 
Q 24.515625 -2 31 -13.1875 
L 23.1875 -13.1875 
Q 15.875 -1.703125 12.234375 9.375 
Q 8.59375 20.453125 8.59375 31.390625 
Q 8.59375 42.28125 12.203125 53.3125 
Q 15.828125 64.359375 23.1875 75.875 
z
" id="DejaVuSans-28"/>
      <path d="M 51.125 44 
L 36.921875 44 
L 32.8125 27.6875 
L 47.125 27.6875 
z
M 43.796875 71.78125 
L 38.71875 51.515625 
L 52.984375 51.515625 
L 58.109375 71.78125 
L 65.921875 71.78125 
L 60.890625 51.515625 
L 76.125 51.515625 
L 76.125 44 
L 58.984375 44 
L 54.984375 27.6875 
L 70.515625 27.6875 
L 70.515625 20.21875 
L 53.078125 20.21875 
L 48 0 
L 40.1875 0 
L 45.21875 20.21875 
L 30.90625 20.21875 
L 25.875 0 
L 18.015625 0 
L 23.09375 20.21875 
L 7.71875 20.21875 
L 7.71875 27.6875 
L 24.90625 27.6875 
L 29 44 
L 13.28125 44 
L 13.28125 51.515625 
L 30.90625 51.515625 
L 35.890625 71.78125 
z
" id="DejaVuSans-23"/>
      <path id="DejaVuSans-20"/>
      <path d="M 37.109375 75.984375 
L 37.109375 68.5 
L 28.515625 68.5 
Q 23.6875 68.5 21.796875 66.546875 
Q 19.921875 64.59375 19.921875 59.515625 
L 19.921875 54.6875 
L 34.71875 54.6875 
L 34.71875 47.703125 
L 19.921875 47.703125 
L 19.921875 0 
L 10.890625 0 
L 10.890625 47.703125 
L 2.296875 47.703125 
L 2.296875 54.6875 
L 10.890625 54.6875 
L 10.890625 58.5 
Q 10.890625 67.625 15.140625 71.796875 
Q 19.390625 75.984375 28.609375 75.984375 
z
" id="DejaVuSans-66"/>
      <path d="M 4.890625 31.390625 
L 31.203125 31.390625 
L 31.203125 23.390625 
L 4.890625 23.390625 
z
" id="DejaVuSans-2d"/>
      <path d="M 56.203125 29.59375 
L 56.203125 25.203125 
L 14.890625 25.203125 
Q 15.484375 15.921875 20.484375 11.0625 
Q 25.484375 6.203125 34.421875 6.203125 
Q 39.59375 6.203125 44.453125 7.46875 
Q 49.3125 8.734375 54.109375 11.28125 
L 54.109375 2.78125 
Q 49.265625 0.734375 44.1875 -0.34375 
Q 39.109375 -1.421875 33.890625 -1.421875 
Q 20.796875 -1.421875 13.15625 6.1875 
Q 5.515625 13.8125 5.515625 26.8125 
Q 5.515625 40.234375 12.765625 48.109375 
Q 20.015625 56 32.328125 56 
Q 43.359375 56 49.78125 48.890625 
Q 56.203125 41.796875 56.203125 29.59375 
z
M 47.21875 32.234375 
Q 47.125 39.59375 43.09375 43.984375 
Q 39.0625 48.390625 32.421875 48.390625 
Q 24.90625 48.390625 20.390625 44.140625 
Q 15.875 39.890625 15.1875 32.171875 
z
" id="DejaVuSans-65"/>
      <path d="M 2.984375 54.6875 
L 12.5 54.6875 
L 29.59375 8.796875 
L 46.6875 54.6875 
L 56.203125 54.6875 
L 35.6875 0 
L 23.484375 0 
z
" id="DejaVuSans-76"/>
      <path d="M 34.28125 27.484375 
Q 23.390625 27.484375 19.1875 25 
Q 14.984375 22.515625 14.984375 16.5 
Q 14.984375 11.71875 18.140625 8.90625 
Q 21.296875 6.109375 26.703125 6.109375 
Q 34.1875 6.109375 38.703125 11.40625 
Q 43.21875 16.703125 43.21875 25.484375 
L 43.21875 27.484375 
z
M 52.203125 31.203125 
L 52.203125 0 
L 43.21875 0 
L 43.21875 8.296875 
Q 40.140625 3.328125 35.546875 0.953125 
Q 30.953125 -1.421875 24.3125 -1.421875 
Q 15.921875 -1.421875 10.953125 3.296875 
Q 6 8.015625 6 15.921875 
Q 6 25.140625 12.171875 29.828125 
Q 18.359375 34.515625 30.609375 34.515625 
L 43.21875 34.515625 
L 43.21875 35.40625 
Q 43.21875 41.609375 39.140625 45 
Q 35.0625 48.390625 27.6875 48.390625 
Q 23 48.390625 18.546875 47.265625 
Q 14.109375 46.140625 10.015625 43.890625 
L 10.015625 52.203125 
Q 14.9375 54.109375 19.578125 55.046875 
Q 24.21875 56 28.609375 56 
Q 40.484375 56 46.34375 49.84375 
Q 52.203125 43.703125 52.203125 31.203125 
z
" id="DejaVuSans-61"/>
      <path d="M 44.28125 53.078125 
L 44.28125 44.578125 
Q 40.484375 46.53125 36.375 47.5 
Q 32.28125 48.484375 27.875 48.484375 
Q 21.1875 48.484375 17.84375 46.4375 
Q 14.5 44.390625 14.5 40.28125 
Q 14.5 37.15625 16.890625 35.375 
Q 19.28125 33.59375 26.515625 31.984375 
L 29.59375 31.296875 
Q 39.15625 29.25 43.1875 25.515625 
Q 47.21875 21.78125 47.21875 15.09375 
Q 47.21875 7.46875 41.1875 3.015625 
Q 35.15625 -1.421875 24.609375 -1.421875 
Q 20.21875 -1.421875 15.453125 -0.5625 
Q 10.6875 0.296875 5.421875 2 
L 5.421875 11.28125 
Q 10.40625 8.6875 15.234375 7.390625 
Q 20.0625 6.109375 24.8125 6.109375 
Q 31.15625 6.109375 34.5625 8.28125 
Q 37.984375 10.453125 37.984375 14.40625 
Q 37.984375 18.0625 35.515625 20.015625 
Q 33.0625 21.96875 24.703125 23.78125 
L 21.578125 24.515625 
Q 13.234375 26.265625 9.515625 29.90625 
Q 5.8125 33.546875 5.8125 39.890625 
Q 5.8125 47.609375 11.28125 51.796875 
Q 16.75 56 26.8125 56 
Q 31.78125 56 36.171875 55.265625 
Q 40.578125 54.546875 44.28125 53.078125 
z
" id="DejaVuSans-73"/>
      <path d="M 25.390625 72.90625 
L 33.6875 72.90625 
L 8.296875 -9.28125 
L 0 -9.28125 
z
" id="DejaVuSans-2f"/>
      <path d="M 45.40625 46.390625 
L 45.40625 75.984375 
L 54.390625 75.984375 
L 54.390625 0 
L 45.40625 0 
L 45.40625 8.203125 
Q 42.578125 3.328125 38.25 0.953125 
Q 33.9375 -1.421875 27.875 -1.421875 
Q 17.96875 -1.421875 11.734375 6.484375 
Q 5.515625 14.40625 5.515625 27.296875 
Q 5.515625 40.1875 11.734375 48.09375 
Q 17.96875 56 27.875 56 
Q 33.9375 56 38.25 53.625 
Q 42.578125 51.265625 45.40625 46.390625 
z
M 14.796875 27.296875 
Q 14.796875 17.390625 18.875 11.75 
Q 22.953125 6.109375 30.078125 6.109375 
Q 37.203125 6.109375 41.296875 11.75 
Q 45.40625 17.390625 45.40625 27.296875 
Q 45.40625 37.203125 41.296875 42.84375 
Q 37.203125 48.484375 30.078125 48.484375 
Q 22.953125 48.484375 18.875 42.84375 
Q 14.796875 37.203125 14.796875 27.296875 
z
" id="DejaVuSans-64"/>
      <path d="M 9.421875 54.6875 
L 18.40625 54.6875 
L 18.40625 0 
L 9.421875 0 
z
M 9.421875 75.984375 
L 18.40625 75.984375 
L 18.40625 64.59375 
L 9.421875 64.59375 
z
" id="DejaVuSans-69"/>
      <path d="M 52 44.1875 
Q 55.375 50.25 60.0625 53.125 
Q 64.75 56 71.09375 56 
Q 79.640625 56 84.28125 50.015625 
Q 88.921875 44.046875 88.921875 33.015625 
L 88.921875 0 
L 79.890625 0 
L 79.890625 32.71875 
Q 79.890625 40.578125 77.09375 44.375 
Q 74.3125 48.1875 68.609375 48.1875 
Q 61.625 48.1875 57.5625 43.546875 
Q 53.515625 38.921875 53.515625 30.90625 
L 53.515625 0 
L 44.484375 0 
L 44.484375 32.71875 
Q 44.484375 40.625 41.703125 44.40625 
Q 38.921875 48.1875 33.109375 48.1875 
Q 26.21875 48.1875 22.15625 43.53125 
Q 18.109375 38.875 18.109375 30.90625 
L 18.109375 0 
L 9.078125 0 
L 9.078125 54.6875 
L 18.109375 54.6875 
L 18.109375 46.1875 
Q 21.1875 51.21875 25.484375 53.609375 
Q 29.78125 56 35.6875 56 
Q 41.65625 56 45.828125 52.96875 
Q 50 49.953125 52 44.1875 
z
" id="DejaVuSans-6d"/>
      <path d="M 54.890625 33.015625 
L 54.890625 0 
L 45.90625 0 
L 45.90625 32.71875 
Q 45.90625 40.484375 42.875 44.328125 
Q 39.84375 48.1875 33.796875 48.1875 
Q 26.515625 48.1875 22.3125 43.546875 
Q 18.109375 38.921875 18.109375 30.90625 
L 18.109375 0 
L 9.078125 0 
L 9.078125 54.6875 
L 18.109375 54.6875 
L 18.109375 46.1875 
Q 21.34375 51.125 25.703125 53.5625 
Q 30.078125 56 35.796875 56 
Q 45.21875 56 50.046875 50.171875 
Q 54.890625 44.34375 54.890625 33.015625 
z
" id="DejaVuSans-6e"/>
      <path d="M 8.015625 75.875 
L 15.828125 75.875 
Q 23.140625 64.359375 26.78125 53.3125 
Q 30.421875 42.28125 30.421875 31.390625 
Q 30.421875 20.453125 26.78125 9.375 
Q 23.140625 -1.703125 15.828125 -13.1875 
L 8.015625 -13.1875 
Q 14.5 -2 17.703125 9.0625 
Q 20.90625 20.125 20.90625 31.390625 
Q 20.90625 42.671875 17.703125 53.65625 
Q 14.5 64.65625 8.015625 75.875 
z
" id="DejaVuSans-29"/>
     </defs>
     <g transform="translate(107.571219 337.433594)scale(0.17 -0.17)">
      <use xlink:href="#DejaVuSans-6c"/>
      <use x="27.783203" xlink:href="#DejaVuSans-6f"/>
      <use x="88.964844" xlink:href="#DejaVuSans-67"/>
      <use x="152.441406" xlink:href="#DejaVuSans-31"/>
      <use x="216.064453" xlink:href="#DejaVuSans-30"/>
      <use x="279.6875" xlink:href="#DejaVuSans-28"/>
      <use x="318.701172" xlink:href="#DejaVuSans-23"/>
      <use x="402.490234" xlink:href="#DejaVuSans-20"/>
      <use x="434.277344" xlink:href="#DejaVuSans-66"/>
      <use x="469.404297" xlink:href="#DejaVuSans-2d"/>
      <use x="505.488281" xlink:href="#DejaVuSans-65"/>
      <use x="567.011719" xlink:href="#DejaVuSans-76"/>
      <use x="626.191406" xlink:href="#DejaVuSans-61"/>
      <use x="687.470703" xlink:href="#DejaVuSans-6c"/>
      <use x="715.253906" xlink:href="#DejaVuSans-73"/>
      <use x="767.353516" xlink:href="#DejaVuSans-20"/>
      <use x="799.140625" xlink:href="#DejaVuSans-2f"/>
      <use x="832.832031" xlink:href="#DejaVuSans-20"/>
      <use x="864.619141" xlink:href="#DejaVuSans-64"/>
      <use x="928.095703" xlink:href="#DejaVuSans-69"/>
      <use x="955.878906" xlink:href="#DejaVuSans-6d"/>
      <use x="1053.291016" xlink:href="#DejaVuSans-65"/>
      <use x="1114.814453" xlink:href="#DejaVuSans-6e"/>
      <use x="1178.193359" xlink:href="#DejaVuSans-73"/>
      <use x="1230.292969" xlink:href="#DejaVuSans-69"/>
      <use x="1258.076172" xlink:href="#DejaVuSans-6f"/>
      <use x="1319.257812" xlink:href="#DejaVuSans-6e"/>
      <use x="1382.636719" xlink:href="#DejaVuSans-29"/>
     </g>
    </g>
   </g>
   <g id="matplotlib.axis_2">
    <g id="ytick_1">
     <g id="line2d_11">
      <path clip-path="url(#pb855e2ec39)" d="M 56.84 294.16 
L 399.984 294.16 
" style="fill:none;stroke:#b0b0b0;stroke-linecap:square;stroke-width:0.8;"/>
     </g>
     <g id="line2d_12">
      <defs>
       <path d="M 0 0 
L -3.5 0 
" id="m7eeaf8bbc6" style="stroke:#000000;stroke-width:0.8;"/>
      </defs>
      <g>
       <use style="stroke:#000000;stroke-width:0.8;" x="56.84" xlink:href="#m7eeaf8bbc6" y="294.16"/>
      </g>
     </g>
     <g id="text_7">
      <!-- 0.0 -->
      <defs>
       <path d="M 10.6875 12.40625 
L 21 12.40625 
L 21 0 
L 10.6875 0 
z
" id="DejaVuSans-2e"/>
      </defs>
      <g transform="translate(24.395 300.23875)scale(0.16 -0.16)">
       <use xlink:href="#DejaVuSans-30"/>
       <use x="63.623047" xlink:href="#DejaVuSans-2e"/>
       <use x="95.410156" xlink:href="#DejaVuSans-30"/>
      </g>
     </g>
    </g>
    <g id="ytick_2">
     <g id="line2d_13">
      <path clip-path="url(#pb855e2ec39)" d="M 56.84 240.829307 
L 399.984 240.829307 
" style="fill:none;stroke:#b0b0b0;stroke-linecap:square;stroke-width:0.8;"/>
     </g>
     <g id="line2d_14">
      <g>
       <use style="stroke:#000000;stroke-width:0.8;" x="56.84" xlink:href="#m7eeaf8bbc6" y="240.829307"/>
      </g>
     </g>
     <g id="text_8">
      <!-- 0.2 -->
      <g transform="translate(24.395 246.908057)scale(0.16 -0.16)">
       <use xlink:href="#DejaVuSans-30"/>
       <use x="63.623047" xlink:href="#DejaVuSans-2e"/>
       <use x="95.410156" xlink:href="#DejaVuSans-32"/>
      </g>
     </g>
    </g>
    <g id="ytick_3">
     <g id="line2d_15">
      <path clip-path="url(#pb855e2ec39)" d="M 56.84 187.498614 
L 399.984 187.498614 
" style="fill:none;stroke:#b0b0b0;stroke-linecap:square;stroke-width:0.8;"/>
     </g>
     <g id="line2d_16">
      <g>
       <use style="stroke:#000000;stroke-width:0.8;" x="56.84" xlink:href="#m7eeaf8bbc6" y="187.498614"/>
      </g>
     </g>
     <g id="text_9">
      <!-- 0.4 -->
      <g transform="translate(24.395 193.577364)scale(0.16 -0.16)">
       <use xlink:href="#DejaVuSans-30"/>
       <use x="63.623047" xlink:href="#DejaVuSans-2e"/>
       <use x="95.410156" xlink:href="#DejaVuSans-34"/>
      </g>
     </g>
    </g>
    <g id="ytick_4">
     <g id="line2d_17">
      <path clip-path="url(#pb855e2ec39)" d="M 56.84 134.167921 
L 399.984 134.167921 
" style="fill:none;stroke:#b0b0b0;stroke-linecap:square;stroke-width:0.8;"/>
     </g>
     <g id="line2d_18">
      <g>
       <use style="stroke:#000000;stroke-width:0.8;" x="56.84" xlink:href="#m7eeaf8bbc6" y="134.167921"/>
      </g>
     </g>
     <g id="text_10">
      <!-- 0.6 -->
      <g transform="translate(24.395 140.246671)scale(0.16 -0.16)">
       <use xlink:href="#DejaVuSans-30"/>
       <use x="63.623047" xlink:href="#DejaVuSans-2e"/>
       <use x="95.410156" xlink:href="#DejaVuSans-36"/>
      </g>
     </g>
    </g>
    <g id="ytick_5">
     <g id="line2d_19">
      <path clip-path="url(#pb855e2ec39)" d="M 56.84 80.837228 
L 399.984 80.837228 
" style="fill:none;stroke:#b0b0b0;stroke-linecap:square;stroke-width:0.8;"/>
     </g>
     <g id="line2d_20">
      <g>
       <use style="stroke:#000000;stroke-width:0.8;" x="56.84" xlink:href="#m7eeaf8bbc6" y="80.837228"/>
      </g>
     </g>
     <g id="text_11">
      <!-- 0.8 -->
      <g transform="translate(24.395 86.915978)scale(0.16 -0.16)">
       <use xlink:href="#DejaVuSans-30"/>
       <use x="63.623047" xlink:href="#DejaVuSans-2e"/>
       <use x="95.410156" xlink:href="#DejaVuSans-38"/>
      </g>
     </g>
    </g>
    <g id="ytick_6">
     <g id="line2d_21">
      <path clip-path="url(#pb855e2ec39)" d="M 56.84 27.506535 
L 399.984 27.506535 
" style="fill:none;stroke:#b0b0b0;stroke-linecap:square;stroke-width:0.8;"/>
     </g>
     <g id="line2d_22">
      <g>
       <use style="stroke:#000000;stroke-width:0.8;" x="56.84" xlink:href="#m7eeaf8bbc6" y="27.506535"/>
      </g>
     </g>
     <g id="text_12">
      <!-- 1.0 -->
      <g transform="translate(24.395 33.585285)scale(0.16 -0.16)">
       <use xlink:href="#DejaVuSans-31"/>
       <use x="63.623047" xlink:href="#DejaVuSans-2e"/>
       <use x="95.410156" xlink:href="#DejaVuSans-30"/>
      </g>
     </g>
    </g>
    <g id="text_13">
     <!-- Fraction of function,target pairs -->
     <defs>
      <path d="M 9.8125 72.90625 
L 51.703125 72.90625 
L 51.703125 64.59375 
L 19.671875 64.59375 
L 19.671875 43.109375 
L 48.578125 43.109375 
L 48.578125 34.8125 
L 19.671875 34.8125 
L 19.671875 0 
L 9.8125 0 
z
" id="DejaVuSans-46"/>
      <path d="M 41.109375 46.296875 
Q 39.59375 47.171875 37.8125 47.578125 
Q 36.03125 48 33.890625 48 
Q 26.265625 48 22.1875 43.046875 
Q 18.109375 38.09375 18.109375 28.8125 
L 18.109375 0 
L 9.078125 0 
L 9.078125 54.6875 
L 18.109375 54.6875 
L 18.109375 46.1875 
Q 20.953125 51.171875 25.484375 53.578125 
Q 30.03125 56 36.53125 56 
Q 37.453125 56 38.578125 55.875 
Q 39.703125 55.765625 41.0625 55.515625 
z
" id="DejaVuSans-72"/>
      <path d="M 48.78125 52.59375 
L 48.78125 44.1875 
Q 44.96875 46.296875 41.140625 47.34375 
Q 37.3125 48.390625 33.40625 48.390625 
Q 24.65625 48.390625 19.8125 42.84375 
Q 14.984375 37.3125 14.984375 27.296875 
Q 14.984375 17.28125 19.8125 11.734375 
Q 24.65625 6.203125 33.40625 6.203125 
Q 37.3125 6.203125 41.140625 7.25 
Q 44.96875 8.296875 48.78125 10.40625 
L 48.78125 2.09375 
Q 45.015625 0.34375 40.984375 -0.53125 
Q 36.96875 -1.421875 32.421875 -1.421875 
Q 20.0625 -1.421875 12.78125 6.34375 
Q 5.515625 14.109375 5.515625 27.296875 
Q 5.515625 40.671875 12.859375 48.328125 
Q 20.21875 56 33.015625 56 
Q 37.15625 56 41.109375 55.140625 
Q 45.0625 54.296875 48.78125 52.59375 
z
" id="DejaVuSans-63"/>
      <path d="M 18.3125 70.21875 
L 18.3125 54.6875 
L 36.8125 54.6875 
L 36.8125 47.703125 
L 18.3125 47.703125 
L 18.3125 18.015625 
Q 18.3125 11.328125 20.140625 9.421875 
Q 21.96875 7.515625 27.59375 7.515625 
L 36.8125 7.515625 
L 36.8125 0 
L 27.59375 0 
Q 17.1875 0 13.234375 3.875 
Q 9.28125 7.765625 9.28125 18.015625 
L 9.28125 47.703125 
L 2.6875 47.703125 
L 2.6875 54.6875 
L 9.28125 54.6875 
L 9.28125 70.21875 
z
" id="DejaVuSans-74"/>
      <path d="M 8.5 21.578125 
L 8.5 54.6875 
L 17.484375 54.6875 
L 17.484375 21.921875 
Q 17.484375 14.15625 20.5 10.265625 
Q 23.53125 6.390625 29.59375 6.390625 
Q 36.859375 6.390625 41.078125 11.03125 
Q 45.3125 15.671875 45.3125 23.6875 
L 45.3125 54.6875 
L 54.296875 54.6875 
L 54.296875 0 
L 45.3125 0 
L 45.3125 8.40625 
Q 42.046875 3.421875 37.71875 1 
Q 33.40625 -1.421875 27.6875 -1.421875 
Q 18.265625 -1.421875 13.375 4.4375 
Q 8.5 10.296875 8.5 21.578125 
z
M 31.109375 56 
z
" id="DejaVuSans-75"/>
      <path d="M 11.71875 12.40625 
L 22.015625 12.40625 
L 22.015625 4 
L 14.015625 -11.625 
L 7.71875 -11.625 
L 11.71875 4 
z
" id="DejaVuSans-2c"/>
      <path d="M 18.109375 8.203125 
L 18.109375 -20.796875 
L 9.078125 -20.796875 
L 9.078125 54.6875 
L 18.109375 54.6875 
L 18.109375 46.390625 
Q 20.953125 51.265625 25.265625 53.625 
Q 29.59375 56 35.59375 56 
Q 45.5625 56 51.78125 48.09375 
Q 58.015625 40.1875 58.015625 27.296875 
Q 58.015625 14.40625 51.78125 6.484375 
Q 45.5625 -1.421875 35.59375 -1.421875 
Q 29.59375 -1.421875 25.265625 0.953125 
Q 20.953125 3.328125 18.109375 8.203125 
z
M 48.6875 27.296875 
Q 48.6875 37.203125 44.609375 42.84375 
Q 40.53125 48.484375 33.40625 48.484375 
Q 26.265625 48.484375 22.1875 42.84375 
Q 18.109375 37.203125 18.109375 27.296875 
Q 18.109375 17.390625 22.1875 11.75 
Q 26.265625 6.109375 33.40625 6.109375 
Q 40.53125 6.109375 44.609375 11.75 
Q 48.6875 17.390625 48.6875 27.296875 
z
" id="DejaVuSans-70"/>
     </defs>
     <g transform="translate(16.859531 294.639375)rotate(-90)scale(0.17 -0.17)">
      <use xlink:href="#DejaVuSans-46"/>
      <use x="57.410156" xlink:href="#DejaVuSans-72"/>
      <use x="98.523438" xlink:href="#DejaVuSans-61"/>
      <use x="159.802734" xlink:href="#DejaVuSans-63"/>
      <use x="214.783203" xlink:href="#DejaVuSans-74"/>
      <use x="253.992188" xlink:href="#DejaVuSans-69"/>
      <use x="281.775391" xlink:href="#DejaVuSans-6f"/>
      <use x="342.957031" xlink:href="#DejaVuSans-6e"/>
      <use x="406.335938" xlink:href="#DejaVuSans-20"/>
      <use x="438.123047" xlink:href="#DejaVuSans-6f"/>
      <use x="499.304688" xlink:href="#DejaVuSans-66"/>
      <use x="534.509766" xlink:href="#DejaVuSans-20"/>
      <use x="566.296875" xlink:href="#DejaVuSans-66"/>
      <use x="601.501953" xlink:href="#DejaVuSans-75"/>
      <use x="664.880859" xlink:href="#DejaVuSans-6e"/>
      <use x="728.259766" xlink:href="#DejaVuSans-63"/>
      <use x="783.240234" xlink:href="#DejaVuSans-74"/>
      <use x="822.449219" xlink:href="#DejaVuSans-69"/>
      <use x="850.232422" xlink:href="#DejaVuSans-6f"/>
      <use x="911.414062" xlink:href="#DejaVuSans-6e"/>
      <use x="974.792969" xlink:href="#DejaVuSans-2c"/>
      <use x="1006.580078" xlink:href="#DejaVuSans-74"/>
      <use x="1045.789062" xlink:href="#DejaVuSans-61"/>
      <use x="1107.068359" xlink:href="#DejaVuSans-72"/>
      <use x="1148.166016" xlink:href="#DejaVuSans-67"/>
      <use x="1211.642578" xlink:href="#DejaVuSans-65"/>
      <use x="1273.166016" xlink:href="#DejaVuSans-74"/>
      <use x="1312.375" xlink:href="#DejaVuSans-20"/>
      <use x="1344.162109" xlink:href="#DejaVuSans-70"/>
      <use x="1407.638672" xlink:href="#DejaVuSans-61"/>
      <use x="1468.917969" xlink:href="#DejaVuSans-69"/>
      <use x="1496.701172" xlink:href="#DejaVuSans-72"/>
      <use x="1537.814453" xlink:href="#DejaVuSans-73"/>
     </g>
    </g>
   </g>
   <g id="line2d_23">
    <defs>
     <path d="M 0 1.5 
C 0.397805 1.5 0.77937 1.341951 1.06066 1.06066 
C 1.341951 0.77937 1.5 0.397805 1.5 0 
C 1.5 -0.397805 1.341951 -0.77937 1.06066 -1.06066 
C 0.77937 -1.341951 0.397805 -1.5 0 -1.5 
C -0.397805 -1.5 -0.77937 -1.341951 -1.06066 -1.06066 
C -1.341951 -0.77937 -1.5 -0.397805 -1.5 0 
C -1.5 0.397805 -1.341951 0.77937 -1.06066 1.06066 
C -0.77937 1.341951 -0.397805 1.5 0 1.5 
z
" id="m6977dd60e1" style="stroke:#00bfbf;"/>
    </defs>
    <g>
     <use style="fill:#00bfbf;stroke:#00bfbf;" x="216.048049" xlink:href="#m6977dd60e1" y="27.506535"/>
     <use style="fill:#00bfbf;stroke:#00bfbf;" x="216.048049" xlink:href="#m6977dd60e1" y="27.506535"/>
    </g>
   </g>
   <g id="line2d_24">
    <path d="M 44.939466 294.16 
L 44.939466 282.657301 
L 56.84 282.657301 
L 56.84 276.905952 
L 63.801366 276.905952 
L 63.801366 273.768853 
L 68.740534 273.768853 
L 68.740534 270.631753 
L 72.57165 270.631753 
L 72.57165 266.971804 
L 75.7019 266.971804 
L 75.7019 265.403254 
L 78.348489 265.403254 
L 78.348489 261.743304 
L 82.663267 261.743304 
L 82.663267 261.220454 
L 84.472185 261.220454 
L 84.472185 260.174754 
L 87.602435 260.174754 
L 87.602435 259.129055 
L 88.976675 259.129055 
L 88.976675 258.606205 
L 90.249023 258.606205 
L 90.249023 257.560505 
L 91.433551 257.560505 
L 91.433551 256.514805 
L 95.492072 256.514805 
L 95.492072 255.469105 
L 96.372719 255.469105 
L 96.372719 254.946255 
L 98.009084 254.946255 
L 98.009084 254.423405 
L 99.502969 254.423405 
L 99.502969 253.377705 
L 100.203835 253.377705 
L 100.203835 252.854855 
L 101.525167 252.854855 
L 101.525167 252.332005 
L 103.334085 252.332005 
L 103.334085 250.763456 
L 105.980674 250.763456 
L 105.980674 248.672056 
L 106.934744 248.672056 
L 106.934744 248.149206 
L 107.392607 248.149206 
L 107.392607 246.057806 
L 108.273253 246.057806 
L 108.273253 243.966407 
L 111.04204 243.966407 
L 111.04204 242.920707 
L 113.104779 242.920707 
L 113.104779 242.397857 
L 113.740735 242.397857 
L 113.740735 241.875007 
L 116.870985 241.875007 
L 116.870985 240.829307 
L 117.129168 240.829307 
L 117.129168 239.783607 
L 118.364869 239.783607 
L 118.364869 239.260757 
L 119.065736 239.260757 
L 119.065736 238.737907 
L 119.293141 238.737907 
L 119.293141 237.692207 
L 119.73911 237.692207 
L 119.73911 237.169357 
L 122.385698 237.169357 
L 122.385698 236.646507 
L 122.573338 236.646507 
L 122.573338 236.123658 
L 123.304037 236.123658 
L 123.304037 235.600808 
L 124.175739 235.600808 
L 124.175739 235.077958 
L 125.641269 235.077958 
L 125.641269 234.032258 
L 126.103239 234.032258 
L 126.103239 233.509408 
L 127.277634 233.509408 
L 127.277634 232.463708 
L 128.243205 232.463708 
L 128.243205 231.940858 
L 128.509394 231.940858 
L 128.509394 231.418008 
L 129.903941 231.418008 
L 129.903941 230.895158 
L 132.287602 230.895158 
L 132.393257 229.326608 
L 134.380309 229.326608 
L 134.380309 228.803758 
L 135.204571 228.803758 
L 135.204571 227.758059 
L 135.47076 227.758059 
L 135.47076 226.712359 
L 135.645954 226.712359 
L 135.645954 226.189509 
L 136.245426 226.189509 
L 136.329381 225.143809 
L 136.578812 225.143809 
L 136.578812 224.620959 
L 136.743108 224.620959 
L 136.743108 222.529559 
L 136.905847 222.529559 
L 136.905847 216.25536 
L 138.453637 216.25536 
L 138.453637 212.072561 
L 138.674225 212.072561 
L 138.674225 211.026861 
L 139.805092 211.026861 
L 139.805092 210.504011 
L 140.076542 210.504011 
L 140.076542 208.935461 
L 141.121357 208.935461 
L 141.184594 207.889761 
L 142.165938 207.889761 
L 142.165938 207.366911 
L 142.923938 207.366911 
L 142.923938 206.844061 
L 143.318642 206.844061 
L 143.318642 206.321211 
L 143.429767 206.321211 
L 143.429767 205.798361 
L 143.758893 205.798361 
L 143.813139 201.092712 
L 143.921119 201.092712 
L 144.028425 199.001312 
L 144.710025 199.001312 
L 144.812526 197.432763 
L 144.863548 197.432763 
L 144.863548 196.909913 
L 145.805221 196.909913 
L 145.853381 194.818513 
L 145.997054 194.818513 
L 145.997054 194.295663 
L 146.420998 194.295663 
L 146.420998 193.772813 
L 146.560017 193.772813 
L 146.652076 189.067164 
L 147.546488 189.067164 
L 147.633419 186.452914 
L 147.67672 186.452914 
L 147.719912 182.270115 
L 148.187989 182.270115 
L 148.187989 181.747265 
L 148.355084 181.747265 
L 148.396605 180.178715 
L 148.520568 180.178715 
L 148.561691 176.518765 
L 149.206606 176.518765 
L 149.206606 175.995915 
L 149.364119 175.995915 
L 149.364119 175.473065 
L 149.789975 175.473065 
L 149.789975 173.381666 
L 150.130713 173.381666 
L 150.130713 172.858816 
L 150.538191 172.858816 
L 150.538191 170.244566 
L 150.683999 170.244566 
L 150.683999 169.198866 
L 150.864536 169.198866 
L 150.864536 168.676016 
L 151.255157 168.676016 
L 151.255157 168.153166 
L 152.474759 168.153166 
L 152.474759 167.107467 
L 153.085128 167.107467 
L 153.085128 166.584617 
L 153.613442 166.584617 
L 153.705009 165.538917 
L 154.214864 165.538917 
L 154.214864 165.016067 
L 154.681279 165.016067 
L 154.681279 164.493217 
L 155.07925 164.493217 
L 155.07925 162.401817 
L 155.632239 162.401817 
L 155.632239 160.833267 
L 156.167972 160.833267 
L 156.167972 160.310417 
L 156.481567 160.310417 
L 156.481567 156.127618 
L 156.991823 156.127618 
L 156.991823 153.513368 
L 157.48735 153.513368 
L 157.48735 151.944818 
L 157.753915 151.944818 
L 157.753915 151.421969 
L 164.078418 151.421969 
L 164.078418 149.853419 
L 164.407965 149.853419 
L 164.407965 149.330569 
L 165.189589 149.330569 
L 165.189589 147.239169 
L 165.452659 147.239169 
L 165.498667 145.670619 
L 165.80228 145.670619 
L 165.80228 145.147769 
L 166.218514 145.147769 
L 166.218514 144.624919 
L 170.703788 144.624919 
L 170.703788 142.53352 
L 170.861405 142.53352 
L 170.928515 140.96497 
L 171.445323 140.96497 
L 171.531762 139.91927 
L 171.957545 139.91927 
L 171.957545 139.39642 
L 172.383284 139.39642 
L 172.383284 138.87357 
L 172.587192 138.87357 
L 172.587192 138.35072 
L 173.562341 138.35072 
L 173.562341 136.78217 
L 176.438566 136.78217 
L 176.438566 136.259321 
L 176.647847 136.259321 
L 176.735626 134.167921 
L 177.214423 134.167921 
L 177.214423 133.645071 
L 177.574434 133.645071 
L 177.612293 129.985121 
L 177.72537 129.985121 
L 177.72537 127.893722 
L 177.87499 127.893722 
L 177.927051 123.710922 
L 178.023318 123.710922 
L 178.074932 121.096672 
L 178.22155 121.096672 
L 178.22155 120.573823 
L 178.366926 120.573823 
L 178.366926 120.050973 
L 178.532601 120.050973 
L 178.532601 119.528123 
L 178.682486 119.528123 
L 178.682486 119.005273 
L 178.824027 119.005273 
L 178.859231 117.436723 
L 178.9714 117.436723 
L 179.048093 115.345323 
L 179.089782 115.345323 
L 179.089782 113.253924 
L 179.228018 113.253924 
L 179.255532 110.639674 
L 179.36515 110.639674 
L 179.399263 109.071124 
L 179.52151 109.071124 
L 179.602527 107.502574 
L 179.636172 107.502574 
L 179.736712 105.934024 
L 179.796754 105.934024 
L 179.902981 103.319775 
L 180.034847 103.319775 
L 180.034847 102.796925 
L 180.46936 102.796925 
L 180.46936 102.274075 
L 180.66041 102.274075 
L 180.66041 99.659825 
L 180.786606 99.659825 
L 180.786606 99.136975 
L 180.91188 99.136975 
L 181.01765 97.045576 
L 181.098095 97.045576 
L 181.159721 95.999876 
L 181.282312 95.999876 
L 181.355449 94.954176 
L 181.476656 94.954176 
L 181.476656 94.431326 
L 182.934772 94.431326 
L 182.990156 93.385626 
L 183.512939 93.385626 
L 183.619877 89.202827 
L 184.996987 89.202827 
L 184.996987 88.679977 
L 185.11465 88.679977 
L 185.11465 88.157127 
L 185.615403 88.157127 
L 185.71005 83.974327 
L 185.804177 83.974327 
L 185.897792 82.405778 
L 186.430914 82.405778 
L 186.430914 81.882928 
L 186.87317 81.882928 
L 186.87317 81.360078 
L 188.916426 81.360078 
L 188.916426 80.314378 
L 189.099469 80.314378 
L 189.149755 79.268678 
L 189.226832 79.268678 
L 189.265241 77.700128 
L 189.421826 77.700128 
L 189.497693 76.654428 
L 189.592059 76.654428 
L 189.592059 76.131578 
L 189.715833 76.131578 
L 189.805293 74.563029 
L 189.864675 74.563029 
L 189.864675 73.517329 
L 190.07823 73.517329 
L 190.140323 71.948779 
L 190.318052 71.948779 
L 190.397255 69.334529 
L 190.508241 69.334529 
L 190.593676 67.243129 
L 190.664549 67.243129 
L 190.763281 65.67458 
L 190.801914 65.67458 
L 190.90335 63.58318 
L 190.972958 63.58318 
L 190.972958 63.06033 
L 191.435573 63.06033 
L 191.435573 62.53748 
L 193.473543 62.53748 
L 193.53349 60.96893 
L 193.815415 60.96893 
L 193.830125 59.92323 
L 194.564133 59.92323 
L 194.564133 59.400381 
L 195.5816 59.400381 
L 195.634632 58.354681 
L 195.740205 58.354681 
L 195.845133 56.263281 
L 195.868654 56.263281 
L 195.915599 55.217581 
L 196.029816 55.217581 
L 196.081483 54.171881 
L 196.227886 54.171881 
L 196.227886 53.649031 
L 196.421168 53.649031 
L 196.522028 51.557632 
L 196.749301 51.557632 
L 196.749301 51.034782 
L 196.87537 51.034782 
L 196.924557 49.466232 
L 197.07128 49.466232 
L 197.100474 48.420532 
L 197.949369 48.420532 
L 198.041663 46.329132 
L 198.217943 46.329132 
L 198.217943 45.806282 
L 198.887988 45.806282 
L 198.887988 45.283432 
L 199.018915 45.283432 
L 199.018915 44.760582 
L 200.410871 44.760582 
L 200.410871 44.237732 
L 200.530724 44.237732 
L 200.530724 43.714883 
L 200.75027 43.714883 
L 200.789531 42.669183 
L 200.867785 42.669183 
L 200.949569 41.100633 
L 200.980623 41.100633 
L 201.086944 38.486383 
L 201.125443 38.486383 
L 201.173446 36.917833 
L 201.299534 36.917833 
L 201.396335 35.349284 
L 203.11321 35.349284 
L 203.11321 34.826434 
L 204.188584 34.826434 
L 204.188584 34.303584 
L 204.347104 34.303584 
L 204.347104 33.780734 
L 204.575096 33.780734 
L 204.666078 32.735034 
L 205.679117 32.735034 
L 205.679117 32.212184 
L 205.825973 32.212184 
L 205.825973 31.689334 
L 207.543106 31.689334 
L 207.543106 31.166484 
L 207.724733 31.166484 
L 207.724733 30.643634 
L 208.890048 30.643634 
L 208.890048 30.120784 
L 209.247178 30.120784 
L 209.247178 29.597934 
L 209.985863 29.597934 
L 209.985863 29.075084 
L 210.116199 29.075084 
L 210.116199 28.552235 
L 213.441055 28.552235 
L 213.441055 28.029385 
L 216.048049 28.029385 
L 216.048049 27.506535 
L 333.569032 27.506535 
L 333.569032 27.506535 
" style="fill:none;stroke:#00bfbf;stroke-linecap:square;stroke-width:1.5;"/>
   </g>
   <g id="line2d_25">
    <defs>
     <path d="M -6 0 
L 6 0 
M 0 6 
L 0 -6 
" id="m226ba695cf" style="stroke:#00bfbf;stroke-width:1.5;"/>
    </defs>
    <g>
     <use style="fill-opacity:0;stroke:#00bfbf;stroke-width:1.5;" x="91.433551" xlink:href="#m226ba695cf" y="256.514805"/>
     <use style="fill-opacity:0;stroke:#00bfbf;stroke-width:1.5;" x="146.560017" xlink:href="#m226ba695cf" y="193.772813"/>
     <use style="fill-opacity:0;stroke:#00bfbf;stroke-width:1.5;" x="181.098095" xlink:href="#m226ba695cf" y="96.522726"/>
     <use style="fill-opacity:0;stroke:#00bfbf;stroke-width:1.5;" x="216.048049" xlink:href="#m226ba695cf" y="28.029385"/>
     <use style="fill-opacity:0;stroke:#00bfbf;stroke-width:1.5;" x="216.048049" xlink:href="#m226ba695cf" y="27.506535"/>
     <use style="fill-opacity:0;stroke:#00bfbf;stroke-width:1.5;" x="333.569032" xlink:href="#m226ba695cf" y="27.506535"/>
    </g>
   </g>
   <g id="line2d_26">
    <path style="fill:none;stroke:#00bfbf;stroke-linecap:square;stroke-width:1.5;"/>
    <g/>
   </g>
   <g id="line2d_27">
    <path clip-path="url(#pb855e2ec39)" d="M 96.372719 254.946255 
" style="fill:none;stroke:#00bfbf;stroke-linecap:square;stroke-width:1.5;"/>
    <defs>
     <path d="M -12 12 
L 12 -12 
M -12 -12 
L 12 12 
" id="m38083bff38" style="stroke:#00bfbf;stroke-width:3;"/>
    </defs>
    <g clip-path="url(#pb855e2ec39)">
     <use style="fill:#00bfbf;stroke:#00bfbf;stroke-width:3;" x="96.372719" xlink:href="#m38083bff38" y="254.946255"/>
    </g>
   </g>
   <g id="line2d_28">
    <defs>
     <path d="M 0 1.5 
C 0.397805 1.5 0.77937 1.341951 1.06066 1.06066 
C 1.341951 0.77937 1.5 0.397805 1.5 0 
C 1.5 -0.397805 1.341951 -0.77937 1.06066 -1.06066 
C 0.77937 -1.341951 0.397805 -1.5 0 -1.5 
C -0.397805 -1.5 -0.77937 -1.341951 -1.06066 -1.06066 
C -1.341951 -0.77937 -1.5 -0.397805 -1.5 0 
C -1.5 0.397805 -1.341951 0.77937 -1.06066 1.06066 
C -0.77937 1.341951 -0.397805 1.5 0 1.5 
z
" id="m02478b07f7" style="stroke:#008000;"/>
    </defs>
    <g>
     <use style="fill:#008000;stroke:#008000;" x="239.575106" xlink:href="#m02478b07f7" y="200.047012"/>
     <use style="fill:#008000;stroke:#008000;" x="239.575106" xlink:href="#m02478b07f7" y="200.047012"/>
    </g>
   </g>
   <g id="line2d_29">
    <path d="M 37.9781 294.16 
L 37.9781 292.59145 
L 49.878634 292.59145 
L 49.878634 285.794401 
L 56.84 285.794401 
L 56.84 282.657301 
L 61.779168 282.657301 
L 61.779168 281.611602 
L 65.610284 281.611602 
L 65.610284 278.474502 
L 68.740534 278.474502 
L 68.740534 276.383102 
L 71.387123 276.383102 
L 71.387123 271.154603 
L 73.679702 271.154603 
L 73.679702 269.063203 
L 77.510818 269.063203 
L 77.510818 268.540353 
L 79.147184 268.540353 
L 79.147184 268.017503 
L 82.015309 268.017503 
L 82.015309 267.494653 
L 83.287657 267.494653 
L 83.287657 265.926104 
L 84.472185 265.926104 
L 84.472185 265.403254 
L 86.621091 265.403254 
L 86.621091 263.834704 
L 88.530706 263.834704 
L 88.530706 262.789004 
L 91.047718 262.789004 
L 91.047718 261.743304 
L 92.541603 261.743304 
L 92.541603 260.697604 
L 93.242469 260.697604 
L 93.242469 259.651904 
L 93.915843 259.651904 
L 93.915843 257.560505 
L 94.563801 257.560505 
L 94.563801 256.514805 
L 97.480771 256.514805 
L 97.480771 255.469105 
L 103.711438 255.469105 
L 103.711438 254.946255 
L 104.080674 254.946255 
L 104.080674 254.423405 
L 104.796146 254.423405 
L 104.796146 253.900555 
L 105.143003 253.900555 
L 105.143003 253.377705 
L 105.816377 253.377705 
L 105.816377 252.854855 
L 107.088725 252.854855 
L 107.088725 251.809156 
L 107.984694 251.809156 
L 107.984694 251.286306 
L 110.422159 251.286306 
L 110.422159 250.763456 
L 110.919842 250.763456 
L 110.919842 249.717756 
L 113.212421 249.717756 
L 113.212421 249.194906 
L 115.234619 249.194906 
L 115.234619 248.672056 
L 117.043537 248.672056 
L 117.043537 248.149206 
L 117.214373 248.149206 
L 117.214373 247.626356 
L 118.98926 247.626356 
L 118.98926 247.103506 
L 120.316268 247.103506 
L 120.316268 246.580656 
L 124.004904 246.580656 
L 124.004904 246.057806 
L 124.118983 246.057806 
L 124.118983 245.534956 
L 124.678278 245.534956 
L 124.678278 245.012106 
L 125.536899 245.012106 
L 125.536899 244.489256 
L 127.135154 244.489256 
L 127.230272 242.920707 
L 127.698117 242.920707 
L 127.698117 241.352157 
L 128.944072 241.352157 
L 128.944072 240.829307 
L 129.114907 240.829307 
L 129.114907 240.306457 
L 130.185734 240.306457 
L 130.185734 239.783607 
L 131.418108 239.783607 
L 131.418108 239.260757 
L 131.858358 239.260757 
L 131.858358 238.737907 
L 133.710687 238.737907 
L 133.710687 237.692207 
L 134.286233 237.692207 
L 134.286233 236.646507 
L 136.076273 236.646507 
L 136.076273 236.123658 
L 137.22677 236.123658 
L 137.22677 235.600808 
L 137.697178 235.600808 
L 137.697178 235.077958 
L 138.205169 235.077958 
L 138.205169 234.032258 
L 139.644742 234.032258 
L 139.644742 233.509408 
L 140.541491 233.509408 
L 140.541491 232.986558 
L 140.887474 232.986558 
L 140.887474 232.463708 
L 141.310374 232.463708 
L 141.310374 231.940858 
L 141.682276 231.940858 
L 141.682276 231.418008 
L 142.980883 231.418008 
L 142.980883 230.895158 
L 145.249758 230.895158 
L 145.249758 229.849458 
L 150.055575 229.849458 
L 150.055575 228.803758 
L 150.378822 228.803758 
L 150.378822 228.280909 
L 176.658511 228.280909 
L 176.658511 227.758059 
L 177.250508 227.758059 
L 177.312193 226.189509 
L 177.802837 226.189509 
L 177.877473 225.143809 
L 177.941897 225.143809 
L 178.035621 223.052409 
L 178.182574 223.052409 
L 178.182574 222.529559 
L 178.328279 222.529559 
L 178.328279 222.006709 
L 178.649291 222.006709 
L 178.649291 221.483859 
L 178.819328 221.483859 
L 178.819328 220.96101 
L 179.559816 220.96101 
L 179.559816 220.43816 
L 188.612265 220.43816 
L 188.705006 219.39246 
L 188.776207 219.39246 
L 188.883767 217.30106 
L 188.928168 217.30106 
L 188.928168 216.77821 
L 189.258845 216.77821 
L 189.258845 216.25536 
L 189.730775 216.25536 
L 189.730775 215.73251 
L 189.995087 215.73251 
L 189.995087 214.68681 
L 195.802365 214.68681 
L 195.802365 214.16396 
L 196.052224 214.16396 
L 196.081483 213.118261 
L 196.257698 213.118261 
L 196.257698 212.595411 
L 196.410206 212.595411 
L 196.410206 212.072561 
L 200.270651 212.072561 
L 200.270651 211.549711 
L 200.471568 211.549711 
L 200.471568 210.504011 
L 201.036121 210.504011 
L 201.036121 209.981161 
L 204.374708 209.981161 
L 204.374708 209.458311 
L 204.515225 209.458311 
L 204.515225 208.935461 
L 207.2037 208.935461 
L 207.276421 207.889761 
L 207.368451 207.889761 
L 207.368451 207.366911 
L 209.934525 207.366911 
L 209.934525 206.844061 
L 212.339446 206.844061 
L 212.339446 206.321211 
L 215.775812 206.321211 
L 215.775812 205.798361 
L 215.996642 205.798361 
L 215.996642 205.275512 
L 216.221585 205.275512 
L 216.221585 204.752662 
L 219.152749 204.752662 
L 219.152749 204.229812 
L 220.564422 204.229812 
L 220.606926 203.184112 
L 222.973635 203.184112 
L 222.973635 202.661262 
L 224.975474 202.661262 
L 224.975474 202.138412 
L 230.939868 202.138412 
L 230.939868 201.615562 
L 232.288247 201.615562 
L 232.288247 201.092712 
L 236.848824 201.092712 
L 236.848824 200.569862 
L 239.575106 200.569862 
L 239.575106 200.047012 
L 333.569032 200.047012 
L 333.569032 200.047012 
" style="fill:none;stroke:#008000;stroke-linecap:square;stroke-width:1.5;"/>
   </g>
   <g id="line2d_30">
    <defs>
     <path d="M -0 6 
L 6 -6 
L -6 -6 
z
" id="m1f447ee077" style="stroke:#008000;stroke-linejoin:miter;stroke-width:1.5;"/>
    </defs>
    <g>
     <use style="fill-opacity:0;stroke:#008000;stroke-linejoin:miter;stroke-width:1.5;" x="68.740534" xlink:href="#m1f447ee077" y="276.383102"/>
     <use style="fill-opacity:0;stroke:#008000;stroke-linejoin:miter;stroke-width:1.5;" x="127.230272" xlink:href="#m1f447ee077" y="242.920707"/>
     <use style="fill-opacity:0;stroke:#008000;stroke-linejoin:miter;stroke-width:1.5;" x="201.036121" xlink:href="#m1f447ee077" y="210.504011"/>
     <use style="fill-opacity:0;stroke:#008000;stroke-linejoin:miter;stroke-width:1.5;" x="239.575106" xlink:href="#m1f447ee077" y="200.569862"/>
     <use style="fill-opacity:0;stroke:#008000;stroke-linejoin:miter;stroke-width:1.5;" x="239.575106" xlink:href="#m1f447ee077" y="200.047012"/>
     <use style="fill-opacity:0;stroke:#008000;stroke-linejoin:miter;stroke-width:1.5;" x="333.569032" xlink:href="#m1f447ee077" y="200.047012"/>
    </g>
   </g>
   <g id="line2d_31">
    <path style="fill:none;stroke:#008000;stroke-linecap:square;stroke-width:1.5;"/>
    <g/>
   </g>
   <g id="line2d_32">
    <path clip-path="url(#pb855e2ec39)" d="M 96.372719 256.514805 
" style="fill:none;stroke:#008000;stroke-linecap:square;stroke-width:1.5;"/>
    <defs>
     <path d="M -12 12 
L 12 -12 
M -12 -12 
L 12 12 
" id="mea15bcceaf" style="stroke:#008000;stroke-width:3;"/>
    </defs>
    <g clip-path="url(#pb855e2ec39)">
     <use style="fill:#008000;stroke:#008000;stroke-width:3;" x="96.372719" xlink:href="#mea15bcceaf" y="256.514805"/>
    </g>
   </g>
   <g id="line2d_33">
    <defs>
     <path d="M 0 1.5 
C 0.397805 1.5 0.77937 1.341951 1.06066 1.06066 
C 1.341951 0.77937 1.5 0.397805 1.5 0 
C 1.5 -0.397805 1.341951 -0.77937 1.06066 -1.06066 
C 0.77937 -1.341951 0.397805 -1.5 0 -1.5 
C -0.397805 -1.5 -0.77937 -1.341951 -1.06066 -1.06066 
C -1.341951 -0.77937 -1.5 -0.397805 -1.5 0 
C -1.5 0.397805 -1.341951 0.77937 -1.06066 1.06066 
C -0.77937 1.341951 -0.397805 1.5 0 1.5 
z
" id="maccb145e68" style="stroke:#0000ff;"/>
    </defs>
    <g>
     <use style="fill:#0000ff;stroke:#0000ff;" x="243.82625" xlink:href="#maccb145e68" y="215.73251"/>
     <use style="fill:#0000ff;stroke:#0000ff;" x="243.82625" xlink:href="#maccb145e68" y="215.73251"/>
    </g>
   </g>
   <g id="line2d_34">
    <path d="M 29.207815 294.16 
L 29.207815 293.1143 
L 41.10835 293.1143 
L 41.10835 292.0686 
L 48.069716 292.0686 
L 48.069716 291.54575 
L 56.84 291.54575 
L 56.84 289.454351 
L 64.909418 289.454351 
L 64.909418 288.931501 
L 75.7019 288.931501 
L 75.7019 288.408651 
L 77.850807 288.408651 
L 77.850807 286.840101 
L 78.83215 286.840101 
L 78.83215 285.271551 
L 79.760422 285.271551 
L 79.760422 284.748701 
L 80.641068 284.748701 
L 80.641068 283.180151 
L 83.040619 283.180151 
L 83.040619 281.611602 
L 89.2388 281.611602 
L 89.2388 280.565902 
L 89.751341 280.565902 
L 89.751341 279.520202 
L 90.249023 279.520202 
L 90.249023 278.997352 
L 95.31039 278.997352 
L 95.31039 278.474502 
L 96.372719 278.474502 
L 96.372719 277.951652 
L 98.009084 277.951652 
L 98.009084 277.428802 
L 102.870034 277.428802 
L 102.870034 276.905952 
L 103.103627 276.905952 
L 103.103627 276.383102 
L 105.279807 276.383102 
L 105.279807 275.860252 
L 107.750304 275.860252 
L 107.750304 275.337402 
L 108.946627 275.337402 
L 108.946627 274.814553 
L 110.371588 274.814553 
L 110.371588 274.291703 
L 116.235029 274.291703 
L 116.235029 272.723153 
L 116.661606 272.723153 
L 116.661606 271.677453 
L 117.077841 271.677453 
L 117.077841 270.631753 
L 117.683863 270.631753 
L 117.683863 269.586053 
L 121.011458 269.586053 
L 121.011458 269.063203 
L 121.174197 269.063203 
L 121.254992 268.017503 
L 121.335408 268.017503 
L 121.335408 266.971804 
L 122.573338 266.971804 
L 122.573338 266.448954 
L 123.446518 266.448954 
L 123.517318 264.880404 
L 126.729799 264.880404 
L 126.729799 264.357554 
L 127.808528 264.357554 
L 127.808528 263.834704 
L 128.296774 263.834704 
L 128.296774 263.311854 
L 128.926894 263.311854 
L 128.926894 262.789004 
L 129.384757 262.789004 
L 129.384757 262.266154 
L 129.534704 262.266154 
L 129.534704 261.220454 
L 130.265403 261.220454 
L 130.265403 260.174754 
L 131.68361 260.174754 
L 131.68361 259.651904 
L 132.159952 259.651904 
L 132.159952 258.083355 
L 132.498265 258.083355 
L 132.540089 256.514805 
L 132.83004 256.514805 
L 132.83004 255.991955 
L 134.473872 255.991955 
L 134.473872 255.469105 
L 136.279057 255.469105 
L 136.279057 254.946255 
L 136.677578 254.946255 
L 136.677578 254.423405 
L 137.258534 254.423405 
L 137.290241 253.377705 
L 137.572991 253.377705 
L 137.604122 252.332005 
L 140.462674 252.332005 
L 140.462674 251.809156 
L 141.235016 251.809156 
L 141.235016 251.286306 
L 141.360429 251.286306 
L 141.360429 250.763456 
L 149.613173 250.763456 
L 149.613173 250.240606 
L 176.454756 250.240606 
L 176.477395 249.194906 
L 177.027634 249.194906 
L 177.108825 246.580656 
L 177.177227 246.580656 
L 177.266979 244.489256 
L 177.39001 244.489256 
L 177.41451 243.443557 
L 177.560785 243.443557 
L 177.560785 242.920707 
L 178.036605 242.920707 
L 178.036605 242.397857 
L 188.356908 242.397857 
L 188.358526 241.352157 
L 188.517953 241.352157 
L 188.517953 240.306457 
L 188.946939 240.306457 
L 188.946939 239.783607 
L 189.104117 239.783607 
L 189.147437 238.737907 
L 189.224524 238.737907 
L 189.224524 238.215057 
L 194.931559 238.215057 
L 194.931559 237.692207 
L 195.23664 237.692207 
L 195.23664 237.169357 
L 195.366209 237.169357 
L 195.366209 236.646507 
L 195.645747 236.646507 
L 195.744941 235.600808 
L 200.126695 235.600808 
L 200.208021 234.032258 
L 200.409669 234.032258 
L 200.409669 233.509408 
L 200.608975 233.509408 
L 200.608975 232.986558 
L 203.816857 232.986558 
L 203.915205 231.940858 
L 204.110226 231.940858 
L 204.110226 231.418008 
L 206.852491 231.418008 
L 206.919578 229.849458 
L 207.00389 229.849458 
L 207.00389 229.326608 
L 211.879452 229.326608 
L 211.879452 228.803758 
L 213.710515 228.803758 
L 213.765856 227.758059 
L 215.548565 227.758059 
L 215.548565 227.235209 
L 215.713775 227.235209 
L 215.746627 226.189509 
L 217.298915 226.189509 
L 217.36057 225.143809 
L 218.659381 225.143809 
L 218.763766 223.575259 
L 218.791275 223.575259 
L 218.791275 223.052409 
L 222.574993 223.052409 
L 222.574993 222.529559 
L 224.650691 222.529559 
L 224.650691 222.006709 
L 227.480446 222.006709 
L 227.480446 221.483859 
L 228.313294 221.483859 
L 228.352714 220.43816 
L 231.993436 220.43816 
L 231.993436 219.91531 
L 233.192727 219.91531 
L 233.192727 219.39246 
L 235.967638 219.39246 
L 236.008021 218.34676 
L 236.558746 218.34676 
L 236.558746 217.82391 
L 236.992664 217.82391 
L 236.992664 217.30106 
L 240.965809 217.30106 
L 240.973362 216.25536 
L 243.82625 216.25536 
L 243.82625 215.73251 
L 333.569032 215.73251 
L 333.569032 215.73251 
" style="fill:none;stroke:#0000ff;stroke-linecap:square;stroke-width:1.5;"/>
   </g>
   <g id="line2d_35">
    <defs>
     <path d="M 0 -6 
L -1.347084 -1.854102 
L -5.706339 -1.854102 
L -2.179628 0.708204 
L -3.526712 4.854102 
L -0 2.291796 
L 3.526712 4.854102 
L 2.179628 0.708204 
L 5.706339 -1.854102 
L 1.347084 -1.854102 
z
" id="m1ed2e6afec" style="stroke:#0000ff;stroke-linejoin:bevel;stroke-width:1.5;"/>
    </defs>
    <g>
     <use style="fill-opacity:0;stroke:#0000ff;stroke-linejoin:bevel;stroke-width:1.5;" x="134.473872" xlink:href="#m1ed2e6afec" y="255.469105"/>
     <use style="fill-opacity:0;stroke:#0000ff;stroke-linejoin:bevel;stroke-width:1.5;" x="195.744941" xlink:href="#m1ed2e6afec" y="236.123658"/>
     <use style="fill-opacity:0;stroke:#0000ff;stroke-linejoin:bevel;stroke-width:1.5;" x="243.82625" xlink:href="#m1ed2e6afec" y="216.25536"/>
     <use style="fill-opacity:0;stroke:#0000ff;stroke-linejoin:bevel;stroke-width:1.5;" x="243.82625" xlink:href="#m1ed2e6afec" y="215.73251"/>
     <use style="fill-opacity:0;stroke:#0000ff;stroke-linejoin:bevel;stroke-width:1.5;" x="243.82625" xlink:href="#m1ed2e6afec" y="215.73251"/>
     <use style="fill-opacity:0;stroke:#0000ff;stroke-linejoin:bevel;stroke-width:1.5;" x="333.569032" xlink:href="#m1ed2e6afec" y="215.73251"/>
    </g>
   </g>
   <g id="line2d_36">
    <path style="fill:none;stroke:#0000ff;stroke-linecap:square;stroke-width:1.5;"/>
    <g/>
   </g>
   <g id="line2d_37">
    <path clip-path="url(#pb855e2ec39)" d="M 96.372719 277.951652 
" style="fill:none;stroke:#0000ff;stroke-linecap:square;stroke-width:1.5;"/>
    <defs>
     <path d="M -12 12 
L 12 -12 
M -12 -12 
L 12 12 
" id="m5385fa1138" style="stroke:#0000ff;stroke-width:3;"/>
    </defs>
    <g clip-path="url(#pb855e2ec39)">
     <use style="fill:#0000ff;stroke:#0000ff;stroke-width:3;" x="96.372719" xlink:href="#m5385fa1138" y="277.951652"/>
    </g>
   </g>
   <g id="line2d_38">
    <defs>
     <path d="M 0 1.5 
C 0.397805 1.5 0.77937 1.341951 1.06066 1.06066 
C 1.341951 0.77937 1.5 0.397805 1.5 0 
C 1.5 -0.397805 1.341951 -0.77937 1.06066 -1.06066 
C 0.77937 -1.341951 0.397805 -1.5 0 -1.5 
C -0.397805 -1.5 -0.77937 -1.341951 -1.06066 -1.06066 
C -1.341951 -0.77937 -1.5 -0.397805 -1.5 0 
C -1.5 0.397805 -1.341951 0.77937 -1.06066 1.06066 
C -0.77937 1.341951 -0.397805 1.5 0 1.5 
z
" id="m475a0114af" style="stroke:#000000;"/>
    </defs>
    <g>
     <use style="stroke:#000000;" x="260.121699" xlink:href="#m475a0114af" y="257.560505"/>
     <use style="stroke:#000000;" x="260.121699" xlink:href="#m475a0114af" y="257.560505"/>
    </g>
   </g>
   <g id="line2d_39">
    <path d="M 79.302559 294.16 
L 79.302559 293.63715 
L 82.277434 293.63715 
L 82.277434 293.1143 
L 83.040619 293.1143 
L 83.040619 292.59145 
L 84.472185 292.59145 
L 84.472185 292.0686 
L 92.106925 292.0686 
L 92.106925 291.0229 
L 101.397517 291.0229 
L 101.397517 290.50005 
L 103.334085 290.50005 
L 103.334085 289.977201 
L 106.272502 289.977201 
L 106.272502 289.454351 
L 106.654048 289.454351 
L 106.654048 288.931501 
L 111.757512 288.931501 
L 111.757512 287.885801 
L 112.777744 287.885801 
L 112.777744 287.362951 
L 114.887762 287.362951 
L 114.887762 286.840101 
L 116.126708 286.840101 
L 116.126708 285.794401 
L 116.974724 285.794401 
L 116.974724 285.271551 
L 117.077841 285.271551 
L 117.077841 284.225851 
L 121.052287 284.225851 
L 121.052287 283.703001 
L 122.535974 283.703001 
L 122.535974 283.180151 
L 123.232351 283.180151 
L 123.232351 282.657301 
L 123.867001 282.657301 
L 123.867001 282.134452 
L 124.711263 282.134452 
L 124.711263 281.611602 
L 124.972889 281.611602 
L 124.972889 281.088752 
L 125.069979 281.088752 
L 125.069979 280.043052 
L 126.788296 280.043052 
L 126.788296 278.997352 
L 126.846595 278.997352 
L 126.846595 278.474502 
L 127.220784 278.474502 
L 127.220784 277.951652 
L 128.027242 277.951652 
L 128.027242 277.428802 
L 128.162537 277.428802 
L 128.162537 276.383102 
L 129.004058 276.383102 
L 129.004058 275.860252 
L 129.484867 275.860252 
L 129.484867 275.337402 
L 129.60919 275.337402 
L 129.60919 274.814553 
L 130.666067 274.814553 
L 130.666067 274.291703 
L 137.353478 274.291703 
L 137.353478 273.768853 
L 175.938978 273.768853 
L 175.938978 273.246003 
L 175.953979 273.246003 
L 175.953979 272.723153 
L 176.301969 272.723153 
L 176.301969 271.677453 
L 176.498391 271.677453 
L 176.498391 271.154603 
L 176.764257 271.154603 
L 176.764257 270.631753 
L 176.963346 270.631753 
L 176.963346 270.108903 
L 177.408388 270.108903 
L 177.408388 269.586053 
L 187.942589 269.586053 
L 187.942589 269.063203 
L 188.042579 269.063203 
L 188.042579 268.017503 
L 194.864682 268.017503 
L 194.864682 267.494653 
L 194.8835 267.494653 
L 194.8835 266.971804 
L 195.120823 266.971804 
L 195.120823 266.448954 
L 195.470233 266.448954 
L 195.470233 265.926104 
L 199.886579 265.926104 
L 199.886579 265.403254 
L 203.781973 265.403254 
L 203.781973 264.880404 
L 206.771583 264.880404 
L 206.771583 264.357554 
L 206.879743 264.357554 
L 206.879743 263.834704 
L 209.215039 263.834704 
L 209.215039 263.311854 
L 213.785551 263.311854 
L 213.785551 262.789004 
L 215.514333 262.789004 
L 215.514333 262.266154 
L 216.995515 262.266154 
L 216.995515 261.743304 
L 221.295282 261.743304 
L 221.295282 261.220454 
L 222.430395 261.220454 
L 222.430395 260.697604 
L 223.339837 260.697604 
L 223.339837 260.174754 
L 226.296699 260.174754 
L 226.296699 259.651904 
L 226.429335 259.651904 
L 226.429335 259.129055 
L 234.168051 259.129055 
L 234.168051 258.606205 
L 235.92179 258.606205 
L 235.92179 258.083355 
L 260.121699 258.083355 
L 260.121699 257.560505 
L 333.569032 257.560505 
" style="fill:none;stroke:#000000;stroke-linecap:square;stroke-width:1.5;"/>
   </g>
   <g id="line2d_40">
    <defs>
     <path d="M 0 6 
C 1.591219 6 3.117479 5.367802 4.242641 4.242641 
C 5.367802 3.117479 6 1.591219 6 0 
C 6 -1.591219 5.367802 -3.117479 4.242641 -4.242641 
C 3.117479 -5.367802 1.591219 -6 0 -6 
C -1.591219 -6 -3.117479 -5.367802 -4.242641 -4.242641 
C -5.367802 -3.117479 -6 -1.591219 -6 0 
C -6 1.591219 -5.367802 3.117479 -4.242641 4.242641 
C -3.117479 5.367802 -1.591219 6 0 6 
z
" id="m32aafcc46c" style="stroke:#000000;stroke-width:1.5;"/>
    </defs>
    <g>
     <use style="fill-opacity:0;stroke:#000000;stroke-width:1.5;" x="176.301969" xlink:href="#m32aafcc46c" y="271.677453"/>
     <use style="fill-opacity:0;stroke:#000000;stroke-width:1.5;" x="234.168051" xlink:href="#m32aafcc46c" y="258.606205"/>
     <use style="fill-opacity:0;stroke:#000000;stroke-width:1.5;" x="260.121699" xlink:href="#m32aafcc46c" y="257.560505"/>
     <use style="fill-opacity:0;stroke:#000000;stroke-width:1.5;" x="260.121699" xlink:href="#m32aafcc46c" y="257.560505"/>
     <use style="fill-opacity:0;stroke:#000000;stroke-width:1.5;" x="333.569032" xlink:href="#m32aafcc46c" y="257.560505"/>
    </g>
   </g>
   <g id="line2d_41">
    <path style="fill:none;stroke:#000000;stroke-linecap:square;stroke-width:1.5;"/>
    <g/>
   </g>
   <g id="line2d_42">
    <path clip-path="url(#pb855e2ec39)" d="M 96.372719 291.0229 
" style="fill:none;stroke:#000000;stroke-linecap:square;stroke-width:1.5;"/>
    <defs>
     <path d="M -12 12 
L 12 -12 
M -12 -12 
L 12 12 
" id="mfde9d2027e" style="stroke:#000000;stroke-width:3;"/>
    </defs>
    <g clip-path="url(#pb855e2ec39)">
     <use style="stroke:#000000;stroke-width:3;" x="96.372719" xlink:href="#mfde9d2027e" y="291.0229"/>
    </g>
   </g>
   <g id="line2d_43">
    <defs>
     <path d="M 0 1.5 
C 0.397805 1.5 0.77937 1.341951 1.06066 1.06066 
C 1.341951 0.77937 1.5 0.397805 1.5 0 
C 1.5 -0.397805 1.341951 -0.77937 1.06066 -1.06066 
C 0.77937 -1.341951 0.397805 -1.5 0 -1.5 
C -0.397805 -1.5 -0.77937 -1.341951 -1.06066 -1.06066 
C -1.341951 -0.77937 -1.5 -0.397805 -1.5 0 
C -1.5 0.397805 -1.341951 0.77937 -1.06066 1.06066 
C -0.77937 1.341951 -0.397805 1.5 0 1.5 
z
" id="m1cc2026d11" style="stroke:#ff0000;"/>
    </defs>
    <g>
     <use style="fill:#ff0000;stroke:#ff0000;" x="235.72735" xlink:href="#m1cc2026d11" y="278.474502"/>
     <use style="fill:#ff0000;stroke:#ff0000;" x="235.72735" xlink:href="#m1cc2026d11" y="278.474502"/>
    </g>
   </g>
   <g id="line2d_44">
    <path d="M 112.104369 294.16 
L 112.104369 293.63715 
L 112.138673 293.63715 
L 112.138673 292.59145 
L 113.489172 292.59145 
L 113.489172 292.0686 
L 118.364869 292.0686 
L 118.364869 291.54575 
L 119.225235 291.54575 
L 119.225235 291.0229 
L 124.595536 291.0229 
L 124.595536 290.50005 
L 129.384757 290.50005 
L 129.384757 289.977201 
L 175.778145 289.977201 
L 175.778145 289.454351 
L 175.891388 289.454351 
L 175.891388 288.931501 
L 175.94648 288.931501 
L 175.94648 288.408651 
L 176.292171 288.408651 
L 176.292171 287.885801 
L 176.331332 287.885801 
L 176.331332 287.362951 
L 176.887774 287.362951 
L 176.887774 286.840101 
L 188.061519 286.840101 
L 188.061519 286.317251 
L 188.217599 286.317251 
L 188.217599 285.794401 
L 194.61843 285.794401 
L 194.61843 285.271551 
L 194.621801 285.271551 
L 194.621801 284.748701 
L 194.707801 284.748701 
L 194.707801 284.225851 
L 199.482577 284.225851 
L 199.482577 283.703001 
L 199.776277 283.703001 
L 199.776277 283.180151 
L 203.644544 283.180151 
L 203.644544 282.657301 
L 218.406081 282.657301 
L 218.406081 282.134452 
L 224.401372 282.134452 
L 224.401372 281.611602 
L 225.376042 281.611602 
L 225.376042 281.088752 
L 228.057122 281.088752 
L 228.057122 280.565902 
L 228.791897 280.565902 
L 228.791897 280.043052 
L 229.434441 280.043052 
L 229.434441 279.520202 
L 230.227018 279.520202 
L 230.227018 278.997352 
L 235.72735 278.997352 
L 235.72735 278.474502 
L 333.569032 278.474502 
" style="fill:none;stroke:#ff0000;stroke-linecap:square;stroke-width:1.5;"/>
   </g>
   <g id="line2d_45">
    <defs>
     <path d="M -6 6 
L 6 6 
L 6 -6 
L -6 -6 
z
" id="m8269c3d8d9" style="stroke:#ff0000;stroke-linejoin:miter;stroke-width:1.5;"/>
    </defs>
    <g>
     <use style="fill-opacity:0;stroke:#ff0000;stroke-linejoin:miter;stroke-width:1.5;" x="129.384757" xlink:href="#m8269c3d8d9" y="289.977201"/>
     <use style="fill-opacity:0;stroke:#ff0000;stroke-linejoin:miter;stroke-width:1.5;" x="235.72735" xlink:href="#m8269c3d8d9" y="278.997352"/>
     <use style="fill-opacity:0;stroke:#ff0000;stroke-linejoin:miter;stroke-width:1.5;" x="235.72735" xlink:href="#m8269c3d8d9" y="278.474502"/>
     <use style="fill-opacity:0;stroke:#ff0000;stroke-linejoin:miter;stroke-width:1.5;" x="235.72735" xlink:href="#m8269c3d8d9" y="278.474502"/>
     <use style="fill-opacity:0;stroke:#ff0000;stroke-linejoin:miter;stroke-width:1.5;" x="333.569032" xlink:href="#m8269c3d8d9" y="278.474502"/>
    </g>
   </g>
   <g id="line2d_46">
    <path style="fill:none;stroke:#ff0000;stroke-linecap:square;stroke-width:1.5;"/>
    <g/>
   </g>
   <g id="line2d_47">
    <path clip-path="url(#pb855e2ec39)" d="M 96.372719 294.16 
" style="fill:none;stroke:#ff0000;stroke-linecap:square;stroke-width:1.5;"/>
    <defs>
     <path d="M -12 12 
L 12 -12 
M -12 -12 
L 12 12 
" id="m6d24c9fe09" style="stroke:#ff0000;stroke-width:3;"/>
    </defs>
    <g clip-path="url(#pb855e2ec39)">
     <use style="fill:#ff0000;stroke:#ff0000;stroke-width:3;" x="96.372719" xlink:href="#m6d24c9fe09" y="294.16"/>
    </g>
   </g>
   <g id="line2d_48">
    <path clip-path="url(#pb855e2ec39)" d="M 56.84 294.16 
L 56.84 294.16 
L 56.84 294.16 
L 56.84 294.16 
L 399.984 294.16 
" style="fill:none;stroke:#bf00bf;stroke-linecap:square;stroke-width:1.5;"/>
   </g>
   <g id="line2d_49">
    <defs>
     <path d="M -0 8.485281 
L 8.485281 0 
L 0 -8.485281 
L -8.485281 -0 
z
" id="md8ab5d6359" style="stroke:#bf00bf;stroke-linejoin:miter;stroke-width:1.5;"/>
    </defs>
    <g clip-path="url(#pb855e2ec39)">
     <use style="fill-opacity:0;stroke:#bf00bf;stroke-linejoin:miter;stroke-width:1.5;" x="56.84" xlink:href="#md8ab5d6359" y="294.16"/>
    </g>
   </g>
   <g id="line2d_50">
    <path clip-path="url(#pb855e2ec39)" style="fill:none;stroke:#bf00bf;stroke-linecap:square;stroke-width:1.5;"/>
    <g clip-path="url(#pb855e2ec39)">
     <use style="fill-opacity:0;stroke:#bf00bf;stroke-linejoin:miter;stroke-width:1.5;" x="-1" xlink:href="#md8ab5d6359" y="560.813465"/>
     <use style="fill-opacity:0;stroke:#bf00bf;stroke-linejoin:miter;stroke-width:1.5;" x="399.984" xlink:href="#md8ab5d6359" y="560.813465"/>
    </g>
   </g>
   <g id="line2d_51">
    <path d="M 333.569032 294.16 
L 364.009226 288.826931 
" style="fill:none;stroke:#bf00bf;stroke-linecap:square;stroke-width:1.5;"/>
    <g>
     <use style="fill-opacity:0;stroke:#bf00bf;stroke-linejoin:miter;stroke-width:1.5;" x="333.569032" xlink:href="#md8ab5d6359" y="294.16"/>
     <use style="fill-opacity:0;stroke:#bf00bf;stroke-linejoin:miter;stroke-width:1.5;" x="364.009226" xlink:href="#md8ab5d6359" y="288.826931"/>
    </g>
   </g>
   <g id="line2d_52">
    <path d="M 333.569032 278.474502 
L 364.009226 237.629465 
" style="fill:none;stroke:#ff0000;stroke-linecap:square;stroke-width:1.5;"/>
    <g>
     <use style="fill-opacity:0;stroke:#ff0000;stroke-linejoin:miter;stroke-width:1.5;" x="333.569032" xlink:href="#m8269c3d8d9" y="278.474502"/>
     <use style="fill-opacity:0;stroke:#ff0000;stroke-linejoin:miter;stroke-width:1.5;" x="364.009226" xlink:href="#m8269c3d8d9" y="237.629465"/>
    </g>
   </g>
   <g id="line2d_53">
    <path d="M 333.569032 257.560505 
L 364.009226 186.432 
" style="fill:none;stroke:#000000;stroke-linecap:square;stroke-width:1.5;"/>
    <g>
     <use style="fill-opacity:0;stroke:#000000;stroke-width:1.5;" x="333.569032" xlink:href="#m32aafcc46c" y="257.560505"/>
     <use style="fill-opacity:0;stroke:#000000;stroke-width:1.5;" x="364.009226" xlink:href="#m32aafcc46c" y="186.432"/>
    </g>
   </g>
   <g id="line2d_54">
    <path d="M 333.569032 215.73251 
L 364.009226 135.234535 
" style="fill:none;stroke:#0000ff;stroke-linecap:square;stroke-width:1.5;"/>
    <g>
     <use style="fill-opacity:0;stroke:#0000ff;stroke-linejoin:bevel;stroke-width:1.5;" x="333.569032" xlink:href="#m1ed2e6afec" y="215.73251"/>
     <use style="fill-opacity:0;stroke:#0000ff;stroke-linejoin:bevel;stroke-width:1.5;" x="364.009226" xlink:href="#m1ed2e6afec" y="135.234535"/>
    </g>
   </g>
   <g id="line2d_55">
    <path d="M 333.569032 200.047012 
L 364.009226 84.037069 
" style="fill:none;stroke:#008000;stroke-linecap:square;stroke-width:1.5;"/>
    <g>
     <use style="fill-opacity:0;stroke:#008000;stroke-linejoin:miter;stroke-width:1.5;" x="333.569032" xlink:href="#m1f447ee077" y="200.047012"/>
     <use style="fill-opacity:0;stroke:#008000;stroke-linejoin:miter;stroke-width:1.5;" x="364.009226" xlink:href="#m1f447ee077" y="84.037069"/>
    </g>
   </g>
   <g id="line2d_56">
    <path d="M 333.569032 27.506535 
L 364.009226 32.839604 
" style="fill:none;stroke:#00bfbf;stroke-linecap:square;stroke-width:1.5;"/>
    <g>
     <use style="fill-opacity:0;stroke:#00bfbf;stroke-width:1.5;" x="333.569032" xlink:href="#m226ba695cf" y="27.506535"/>
     <use style="fill-opacity:0;stroke:#00bfbf;stroke-width:1.5;" x="364.009226" xlink:href="#m226ba695cf" y="32.839604"/>
    </g>
   </g>
   <g id="line2d_57">
    <path d="M 333.569032 294.16 
L 333.569032 27.506535 
" style="fill:none;stroke:#000000;stroke-linecap:square;stroke-width:1.5;"/>
   </g>
   <g id="patch_3">
    <path d="M 56.84 294.16 
L 56.84 24.84 
" style="fill:none;stroke:#000000;stroke-linecap:square;stroke-linejoin:miter;stroke-width:0.8;"/>
   </g>
   <g id="patch_4">
    <path d="M 399.984 294.16 
L 399.984 24.84 
" style="fill:none;stroke:#000000;stroke-linecap:square;stroke-linejoin:miter;stroke-width:0.8;"/>
   </g>
   <g id="patch_5">
    <path d="M 56.84 294.16 
L 399.984 294.16 
" style="fill:none;stroke:#000000;stroke-linecap:square;stroke-linejoin:miter;stroke-width:0.8;"/>
   </g>
   <g id="patch_6">
    <path d="M 56.84 24.84 
L 399.984 24.84 
" style="fill:none;stroke:#000000;stroke-linecap:square;stroke-linejoin:miter;stroke-width:0.8;"/>
   </g>
   <g id="text_14">
    <!-- 40-D -->
    <defs>
     <path d="M 19.671875 64.796875 
L 19.671875 8.109375 
L 31.59375 8.109375 
Q 46.6875 8.109375 53.6875 14.9375 
Q 60.6875 21.78125 60.6875 36.53125 
Q 60.6875 51.171875 53.6875 57.984375 
Q 46.6875 64.796875 31.59375 64.796875 
z
M 9.8125 72.90625 
L 30.078125 72.90625 
Q 51.265625 72.90625 61.171875 64.09375 
Q 71.09375 55.28125 71.09375 36.53125 
Q 71.09375 17.671875 61.125 8.828125 
Q 51.171875 0 30.078125 0 
L 9.8125 0 
z
" id="DejaVuSans-44"/>
    </defs>
    <g transform="translate(369.543806 293.517868)scale(0.17 -0.17)">
     <use xlink:href="#DejaVuSans-34"/>
     <use x="63.623047" xlink:href="#DejaVuSans-30"/>
     <use x="127.246094" xlink:href="#DejaVuSans-2d"/>
     <use x="163.330078" xlink:href="#DejaVuSans-44"/>
    </g>
   </g>
   <g id="text_15">
    <!-- 20-D -->
    <g transform="translate(369.543806 242.320403)scale(0.17 -0.17)">
     <use xlink:href="#DejaVuSans-32"/>
     <use x="63.623047" xlink:href="#DejaVuSans-30"/>
     <use x="127.246094" xlink:href="#DejaVuSans-2d"/>
     <use x="163.330078" xlink:href="#DejaVuSans-44"/>
    </g>
   </g>
   <g id="text_16">
    <!-- 10-D -->
    <g transform="translate(369.543806 191.122937)scale(0.17 -0.17)">
     <use xlink:href="#DejaVuSans-31"/>
     <use x="63.623047" xlink:href="#DejaVuSans-30"/>
     <use x="127.246094" xlink:href="#DejaVuSans-2d"/>
     <use x="163.330078" xlink:href="#DejaVuSans-44"/>
    </g>
   </g>
   <g id="text_17">
    <!-- 5-D -->
    <defs>
     <path d="M 10.796875 72.90625 
L 49.515625 72.90625 
L 49.515625 64.59375 
L 19.828125 64.59375 
L 19.828125 46.734375 
Q 21.96875 47.46875 24.109375 47.828125 
Q 26.265625 48.1875 28.421875 48.1875 
Q 40.625 48.1875 47.75 41.5 
Q 54.890625 34.8125 54.890625 23.390625 
Q 54.890625 11.625 47.5625 5.09375 
Q 40.234375 -1.421875 26.90625 -1.421875 
Q 22.3125 -1.421875 17.546875 -0.640625 
Q 12.796875 0.140625 7.71875 1.703125 
L 7.71875 11.625 
Q 12.109375 9.234375 16.796875 8.0625 
Q 21.484375 6.890625 26.703125 6.890625 
Q 35.15625 6.890625 40.078125 11.328125 
Q 45.015625 15.765625 45.015625 23.390625 
Q 45.015625 31 40.078125 35.4375 
Q 35.15625 39.890625 26.703125 39.890625 
Q 22.75 39.890625 18.8125 39.015625 
Q 14.890625 38.140625 10.796875 36.28125 
z
" id="DejaVuSans-35"/>
    </defs>
    <g transform="translate(369.543806 139.925472)scale(0.17 -0.17)">
     <use xlink:href="#DejaVuSans-35"/>
     <use x="63.623047" xlink:href="#DejaVuSans-2d"/>
     <use x="99.707031" xlink:href="#DejaVuSans-44"/>
    </g>
   </g>
   <g id="text_18">
    <!-- 3-D -->
    <defs>
     <path d="M 40.578125 39.3125 
Q 47.65625 37.796875 51.625 33 
Q 55.609375 28.21875 55.609375 21.1875 
Q 55.609375 10.40625 48.1875 4.484375 
Q 40.765625 -1.421875 27.09375 -1.421875 
Q 22.515625 -1.421875 17.65625 -0.515625 
Q 12.796875 0.390625 7.625 2.203125 
L 7.625 11.71875 
Q 11.71875 9.328125 16.59375 8.109375 
Q 21.484375 6.890625 26.8125 6.890625 
Q 36.078125 6.890625 40.9375 10.546875 
Q 45.796875 14.203125 45.796875 21.1875 
Q 45.796875 27.640625 41.28125 31.265625 
Q 36.765625 34.90625 28.71875 34.90625 
L 20.21875 34.90625 
L 20.21875 43.015625 
L 29.109375 43.015625 
Q 36.375 43.015625 40.234375 45.921875 
Q 44.09375 48.828125 44.09375 54.296875 
Q 44.09375 59.90625 40.109375 62.90625 
Q 36.140625 65.921875 28.71875 65.921875 
Q 24.65625 65.921875 20.015625 65.03125 
Q 15.375 64.15625 9.8125 62.3125 
L 9.8125 71.09375 
Q 15.4375 72.65625 20.34375 73.4375 
Q 25.25 74.21875 29.59375 74.21875 
Q 40.828125 74.21875 47.359375 69.109375 
Q 53.90625 64.015625 53.90625 55.328125 
Q 53.90625 49.265625 50.4375 45.09375 
Q 46.96875 40.921875 40.578125 39.3125 
z
" id="DejaVuSans-33"/>
    </defs>
    <g transform="translate(369.543806 88.728007)scale(0.17 -0.17)">
     <use xlink:href="#DejaVuSans-33"/>
     <use x="63.623047" xlink:href="#DejaVuSans-2d"/>
     <use x="99.707031" xlink:href="#DejaVuSans-44"/>
    </g>
   </g>
   <g id="text_19">
    <!-- 2-D -->
    <g transform="translate(369.543806 37.530541)scale(0.17 -0.17)">
     <use xlink:href="#DejaVuSans-32"/>
     <use x="63.623047" xlink:href="#DejaVuSans-2d"/>
     <use x="99.707031" xlink:href="#DejaVuSans-44"/>
    </g>
   </g>
   <g id="text_20">
    <!-- bbob f7 -->
    <defs>
     <path d="M 48.6875 27.296875 
Q 48.6875 37.203125 44.609375 42.84375 
Q 40.53125 48.484375 33.40625 48.484375 
Q 26.265625 48.484375 22.1875 42.84375 
Q 18.109375 37.203125 18.109375 27.296875 
Q 18.109375 17.390625 22.1875 11.75 
Q 26.265625 6.109375 33.40625 6.109375 
Q 40.53125 6.109375 44.609375 11.75 
Q 48.6875 17.390625 48.6875 27.296875 
z
M 18.109375 46.390625 
Q 20.953125 51.265625 25.265625 53.625 
Q 29.59375 56 35.59375 56 
Q 45.5625 56 51.78125 48.09375 
Q 58.015625 40.1875 58.015625 27.296875 
Q 58.015625 14.40625 51.78125 6.484375 
Q 45.5625 -1.421875 35.59375 -1.421875 
Q 29.59375 -1.421875 25.265625 0.953125 
Q 20.953125 3.328125 18.109375 8.203125 
L 18.109375 0 
L 9.078125 0 
L 9.078125 75.984375 
L 18.109375 75.984375 
z
" id="DejaVuSans-62"/>
     <path d="M 8.203125 72.90625 
L 55.078125 72.90625 
L 55.078125 68.703125 
L 28.609375 0 
L 18.3125 0 
L 43.21875 64.59375 
L 8.203125 64.59375 
z
" id="DejaVuSans-37"/>
    </defs>
    <g transform="translate(60.27144 35.283606)scale(0.102 -0.102)">
     <use xlink:href="#DejaVuSans-62"/>
     <use x="63.476562" xlink:href="#DejaVuSans-62"/>
     <use x="126.953125" xlink:href="#DejaVuSans-6f"/>
     <use x="188.134766" xlink:href="#DejaVuSans-62"/>
     <use x="251.611328" xlink:href="#DejaVuSans-20"/>
     <use x="283.398438" xlink:href="#DejaVuSans-66"/>
     <use x="318.603516" xlink:href="#DejaVuSans-37"/>
    </g>
    <!-- 51 targets: 100..1e-08 -->
    <defs>
     <path d="M 11.71875 12.40625 
L 22.015625 12.40625 
L 22.015625 0 
L 11.71875 0 
z
M 11.71875 51.703125 
L 22.015625 51.703125 
L 22.015625 39.3125 
L 11.71875 39.3125 
z
" id="DejaVuSans-3a"/>
    </defs>
    <g transform="translate(60.27144 46.705375)scale(0.102 -0.102)">
     <use xlink:href="#DejaVuSans-35"/>
     <use x="63.623047" xlink:href="#DejaVuSans-31"/>
     <use x="127.246094" xlink:href="#DejaVuSans-20"/>
     <use x="159.033203" xlink:href="#DejaVuSans-74"/>
     <use x="198.242188" xlink:href="#DejaVuSans-61"/>
     <use x="259.521484" xlink:href="#DejaVuSans-72"/>
     <use x="300.619141" xlink:href="#DejaVuSans-67"/>
     <use x="364.095703" xlink:href="#DejaVuSans-65"/>
     <use x="425.619141" xlink:href="#DejaVuSans-74"/>
     <use x="464.828125" xlink:href="#DejaVuSans-73"/>
     <use x="516.927734" xlink:href="#DejaVuSans-3a"/>
     <use x="550.619141" xlink:href="#DejaVuSans-20"/>
     <use x="582.40625" xlink:href="#DejaVuSans-31"/>
     <use x="646.029297" xlink:href="#DejaVuSans-30"/>
     <use x="709.652344" xlink:href="#DejaVuSans-30"/>
     <use x="773.275391" xlink:href="#DejaVuSans-2e"/>
     <use x="805.0625" xlink:href="#DejaVuSans-2e"/>
     <use x="836.849609" xlink:href="#DejaVuSans-31"/>
     <use x="900.472656" xlink:href="#DejaVuSans-65"/>
     <use x="961.996094" xlink:href="#DejaVuSans-2d"/>
     <use x="998.080078" xlink:href="#DejaVuSans-30"/>
     <use x="1061.703125" xlink:href="#DejaVuSans-38"/>
    </g>
    <!-- 15 instances -->
    <g transform="translate(60.27144 58.127144)scale(0.102 -0.102)">
     <use xlink:href="#DejaVuSans-31"/>
     <use x="63.623047" xlink:href="#DejaVuSans-35"/>
     <use x="127.246094" xlink:href="#DejaVuSans-20"/>
     <use x="159.033203" xlink:href="#DejaVuSans-69"/>
     <use x="186.816406" xlink:href="#DejaVuSans-6e"/>
     <use x="250.195312" xlink:href="#DejaVuSans-73"/>
     <use x="302.294922" xlink:href="#DejaVuSans-74"/>
     <use x="341.503906" xlink:href="#DejaVuSans-61"/>
     <use x="402.783203" xlink:href="#DejaVuSans-6e"/>
     <use x="466.162109" xlink:href="#DejaVuSans-63"/>
     <use x="521.142578" xlink:href="#DejaVuSans-65"/>
     <use x="582.666016" xlink:href="#DejaVuSans-73"/>
    </g>
   </g>
   <g id="text_21">
    <!-- v2.2.1.10 -->
    <g style="fill:#808080;" transform="translate(204.779188 289.387113)scale(0.1 -0.1)">
     <use xlink:href="#DejaVuSans-76"/>
     <use x="59.179688" xlink:href="#DejaVuSans-32"/>
     <use x="122.802734" xlink:href="#DejaVuSans-2e"/>
     <use x="154.589844" xlink:href="#DejaVuSans-32"/>
     <use x="218.212891" xlink:href="#DejaVuSans-2e"/>
     <use x="250" xlink:href="#DejaVuSans-31"/>
     <use x="313.623047" xlink:href="#DejaVuSans-2e"/>
     <use x="345.410156" xlink:href="#DejaVuSans-31"/>
     <use x="409.033203" xlink:href="#DejaVuSans-30"/>
    </g>
   </g>
   <g id="text_22">
    <!-- 7 Step-ellipsoid -->
    <defs>
     <path d="M 53.515625 70.515625 
L 53.515625 60.890625 
Q 47.90625 63.578125 42.921875 64.890625 
Q 37.9375 66.21875 33.296875 66.21875 
Q 25.25 66.21875 20.875 63.09375 
Q 16.5 59.96875 16.5 54.203125 
Q 16.5 49.359375 19.40625 46.890625 
Q 22.3125 44.4375 30.421875 42.921875 
L 36.375 41.703125 
Q 47.40625 39.59375 52.65625 34.296875 
Q 57.90625 29 57.90625 20.125 
Q 57.90625 9.515625 50.796875 4.046875 
Q 43.703125 -1.421875 29.984375 -1.421875 
Q 24.8125 -1.421875 18.96875 -0.25 
Q 13.140625 0.921875 6.890625 3.21875 
L 6.890625 13.375 
Q 12.890625 10.015625 18.65625 8.296875 
Q 24.421875 6.59375 29.984375 6.59375 
Q 38.421875 6.59375 43.015625 9.90625 
Q 47.609375 13.234375 47.609375 19.390625 
Q 47.609375 24.75 44.3125 27.78125 
Q 41.015625 30.8125 33.5 32.328125 
L 27.484375 33.5 
Q 16.453125 35.6875 11.515625 40.375 
Q 6.59375 45.0625 6.59375 53.421875 
Q 6.59375 63.09375 13.40625 68.65625 
Q 20.21875 74.21875 32.171875 74.21875 
Q 37.3125 74.21875 42.625 73.28125 
Q 47.953125 72.359375 53.515625 70.515625 
z
" id="DejaVuSans-53"/>
    </defs>
    <g transform="translate(151.202625 18.84)scale(0.2 -0.2)">
     <use xlink:href="#DejaVuSans-37"/>
     <use x="63.623047" xlink:href="#DejaVuSans-20"/>
     <use x="95.410156" xlink:href="#DejaVuSans-53"/>
     <use x="158.886719" xlink:href="#DejaVuSans-74"/>
     <use x="198.095703" xlink:href="#DejaVuSans-65"/>
     <use x="259.619141" xlink:href="#DejaVuSans-70"/>
     <use x="323.095703" xlink:href="#DejaVuSans-2d"/>
     <use x="359.179688" xlink:href="#DejaVuSans-65"/>
     <use x="420.703125" xlink:href="#DejaVuSans-6c"/>
     <use x="448.486328" xlink:href="#DejaVuSans-6c"/>
     <use x="476.269531" xlink:href="#DejaVuSans-69"/>
     <use x="504.052734" xlink:href="#DejaVuSans-70"/>
     <use x="567.529297" xlink:href="#DejaVuSans-73"/>
     <use x="619.628906" xlink:href="#DejaVuSans-6f"/>
     <use x="680.810547" xlink:href="#DejaVuSans-69"/>
     <use x="708.59375" xlink:href="#DejaVuSans-64"/>
    </g>
   </g>
  </g>
 </g>
 <defs>
  <clipPath id="pb855e2ec39">
   <rect height="269.32" width="343.144" x="56.84" y="24.84"/>
  </clipPath>
 </defs>
</svg>
