<?xml version="1.0" encoding="utf-8" standalone="no"?>
<!DOCTYPE svg PUBLIC "-//W3C//DTD SVG 1.1//EN"
  "http://www.w3.org/Graphics/SVG/1.1/DTD/svg11.dtd">
<!-- Created with matplotlib (http://matplotlib.org/) -->
<svg height="345.6pt" version="1.1" viewBox="0 0 460.8 345.6" width="460.8pt" xmlns="http://www.w3.org/2000/svg" xmlns:xlink="http://www.w3.org/1999/xlink">
 <defs>
  <style type="text/css">
*{stroke-linecap:butt;stroke-linejoin:round;}
  </style>
 </defs>
 <g id="figure_1">
  <g id="patch_1">
   <path d="M 0 345.6 
L 460.8 345.6 
L 460.8 0 
L 0 0 
z
" style="fill:#ffffff;"/>
  </g>
  <g id="axes_1">
   <g id="patch_2">
    <path d="M 56.84 294.16 
L 399.984 294.16 
L 399.984 6.125228 
L 56.84 6.125228 
z
" style="fill:#ffffff;"/>
   </g>
   <g id="matplotlib.axis_1">
    <g id="xtick_1">
     <g id="line2d_1">
      <path clip-path="url(#p0ed185029d)" d="M 56.84 294.16 
L 56.84 6.125228 
" style="fill:none;stroke:#b0b0b0;stroke-linecap:square;stroke-width:0.8;"/>
     </g>
     <g id="line2d_2">
      <defs>
       <path d="M 0 0 
L 0 3.5 
" id="m285d0b7bea" style="stroke:#000000;stroke-width:0.8;"/>
      </defs>
      <g>
       <use style="stroke:#000000;stroke-width:0.8;" x="56.84" xlink:href="#m285d0b7bea" y="294.16"/>
      </g>
     </g>
     <g id="text_1">
      <!-- 0 -->
      <defs>
       <path d="M 31.78125 66.40625 
Q 24.171875 66.40625 20.328125 58.90625 
Q 16.5 51.421875 16.5 36.375 
Q 16.5 21.390625 20.328125 13.890625 
Q 24.171875 6.390625 31.78125 6.390625 
Q 39.453125 6.390625 43.28125 13.890625 
Q 47.125 21.390625 47.125 36.375 
Q 47.125 51.421875 43.28125 58.90625 
Q 39.453125 66.40625 31.78125 66.40625 
z
M 31.78125 74.21875 
Q 44.046875 74.21875 50.515625 64.515625 
Q 56.984375 54.828125 56.984375 36.375 
Q 56.984375 17.96875 50.515625 8.265625 
Q 44.046875 -1.421875 31.78125 -1.421875 
Q 19.53125 -1.421875 13.0625 8.265625 
Q 6.59375 17.96875 6.59375 36.375 
Q 6.59375 54.828125 13.0625 64.515625 
Q 19.53125 74.21875 31.78125 74.21875 
z
" id="DejaVuSans-30"/>
      </defs>
      <g transform="translate(50.4775 316.356875)scale(0.2 -0.2)">
       <use xlink:href="#DejaVuSans-30"/>
      </g>
     </g>
    </g>
    <g id="xtick_2">
     <g id="line2d_3">
      <path clip-path="url(#p0ed185029d)" d="M 135.905438 294.16 
L 135.905438 6.125228 
" style="fill:none;stroke:#b0b0b0;stroke-linecap:square;stroke-width:0.8;"/>
     </g>
     <g id="line2d_4">
      <g>
       <use style="stroke:#000000;stroke-width:0.8;" x="135.905438" xlink:href="#m285d0b7bea" y="294.16"/>
      </g>
     </g>
     <g id="text_2">
      <!-- 2 -->
      <defs>
       <path d="M 19.1875 8.296875 
L 53.609375 8.296875 
L 53.609375 0 
L 7.328125 0 
L 7.328125 8.296875 
Q 12.9375 14.109375 22.625 23.890625 
Q 32.328125 33.6875 34.8125 36.53125 
Q 39.546875 41.84375 41.421875 45.53125 
Q 43.3125 49.21875 43.3125 52.78125 
Q 43.3125 58.59375 39.234375 62.25 
Q 35.15625 65.921875 28.609375 65.921875 
Q 23.96875 65.921875 18.8125 64.3125 
Q 13.671875 62.703125 7.8125 59.421875 
L 7.8125 69.390625 
Q 13.765625 71.78125 18.9375 73 
Q 24.125 74.21875 28.421875 74.21875 
Q 39.75 74.21875 46.484375 68.546875 
Q 53.21875 62.890625 53.21875 53.421875 
Q 53.21875 48.921875 51.53125 44.890625 
Q 49.859375 40.875 45.40625 35.40625 
Q 44.1875 33.984375 37.640625 27.21875 
Q 31.109375 20.453125 19.1875 8.296875 
z
" id="DejaVuSans-32"/>
      </defs>
      <g transform="translate(129.542938 316.356875)scale(0.2 -0.2)">
       <use xlink:href="#DejaVuSans-32"/>
      </g>
     </g>
    </g>
    <g id="xtick_3">
     <g id="line2d_5">
      <path clip-path="url(#p0ed185029d)" d="M 214.970876 294.16 
L 214.970876 6.125228 
" style="fill:none;stroke:#b0b0b0;stroke-linecap:square;stroke-width:0.8;"/>
     </g>
     <g id="line2d_6">
      <g>
       <use style="stroke:#000000;stroke-width:0.8;" x="214.970876" xlink:href="#m285d0b7bea" y="294.16"/>
      </g>
     </g>
     <g id="text_3">
      <!-- 4 -->
      <defs>
       <path d="M 37.796875 64.3125 
L 12.890625 25.390625 
L 37.796875 25.390625 
z
M 35.203125 72.90625 
L 47.609375 72.90625 
L 47.609375 25.390625 
L 58.015625 25.390625 
L 58.015625 17.1875 
L 47.609375 17.1875 
L 47.609375 0 
L 37.796875 0 
L 37.796875 17.1875 
L 4.890625 17.1875 
L 4.890625 26.703125 
z
" id="DejaVuSans-34"/>
      </defs>
      <g transform="translate(208.608376 316.356875)scale(0.2 -0.2)">
       <use xlink:href="#DejaVuSans-34"/>
      </g>
     </g>
    </g>
    <g id="xtick_4">
     <g id="line2d_7">
      <path clip-path="url(#p0ed185029d)" d="M 294.036313 294.16 
L 294.036313 6.125228 
" style="fill:none;stroke:#b0b0b0;stroke-linecap:square;stroke-width:0.8;"/>
     </g>
     <g id="line2d_8">
      <g>
       <use style="stroke:#000000;stroke-width:0.8;" x="294.036313" xlink:href="#m285d0b7bea" y="294.16"/>
      </g>
     </g>
     <g id="text_4">
      <!-- 6 -->
      <defs>
       <path d="M 33.015625 40.375 
Q 26.375 40.375 22.484375 35.828125 
Q 18.609375 31.296875 18.609375 23.390625 
Q 18.609375 15.53125 22.484375 10.953125 
Q 26.375 6.390625 33.015625 6.390625 
Q 39.65625 6.390625 43.53125 10.953125 
Q 47.40625 15.53125 47.40625 23.390625 
Q 47.40625 31.296875 43.53125 35.828125 
Q 39.65625 40.375 33.015625 40.375 
z
M 52.59375 71.296875 
L 52.59375 62.3125 
Q 48.875 64.0625 45.09375 64.984375 
Q 41.3125 65.921875 37.59375 65.921875 
Q 27.828125 65.921875 22.671875 59.328125 
Q 17.53125 52.734375 16.796875 39.40625 
Q 19.671875 43.65625 24.015625 45.921875 
Q 28.375 48.1875 33.59375 48.1875 
Q 44.578125 48.1875 50.953125 41.515625 
Q 57.328125 34.859375 57.328125 23.390625 
Q 57.328125 12.15625 50.6875 5.359375 
Q 44.046875 -1.421875 33.015625 -1.421875 
Q 20.359375 -1.421875 13.671875 8.265625 
Q 6.984375 17.96875 6.984375 36.375 
Q 6.984375 53.65625 15.1875 63.9375 
Q 23.390625 74.21875 37.203125 74.21875 
Q 40.921875 74.21875 44.703125 73.484375 
Q 48.484375 72.75 52.59375 71.296875 
z
" id="DejaVuSans-36"/>
      </defs>
      <g transform="translate(287.673813 316.356875)scale(0.2 -0.2)">
       <use xlink:href="#DejaVuSans-36"/>
      </g>
     </g>
    </g>
    <g id="xtick_5">
     <g id="line2d_9">
      <path clip-path="url(#p0ed185029d)" d="M 373.101751 294.16 
L 373.101751 6.125228 
" style="fill:none;stroke:#b0b0b0;stroke-linecap:square;stroke-width:0.8;"/>
     </g>
     <g id="line2d_10">
      <g>
       <use style="stroke:#000000;stroke-width:0.8;" x="373.101751" xlink:href="#m285d0b7bea" y="294.16"/>
      </g>
     </g>
     <g id="text_5">
      <!-- 8 -->
      <defs>
       <path d="M 31.78125 34.625 
Q 24.75 34.625 20.71875 30.859375 
Q 16.703125 27.09375 16.703125 20.515625 
Q 16.703125 13.921875 20.71875 10.15625 
Q 24.75 6.390625 31.78125 6.390625 
Q 38.8125 6.390625 42.859375 10.171875 
Q 46.921875 13.96875 46.921875 20.515625 
Q 46.921875 27.09375 42.890625 30.859375 
Q 38.875 34.625 31.78125 34.625 
z
M 21.921875 38.8125 
Q 15.578125 40.375 12.03125 44.71875 
Q 8.5 49.078125 8.5 55.328125 
Q 8.5 64.0625 14.71875 69.140625 
Q 20.953125 74.21875 31.78125 74.21875 
Q 42.671875 74.21875 48.875 69.140625 
Q 55.078125 64.0625 55.078125 55.328125 
Q 55.078125 49.078125 51.53125 44.71875 
Q 48 40.375 41.703125 38.8125 
Q 48.828125 37.15625 52.796875 32.3125 
Q 56.78125 27.484375 56.78125 20.515625 
Q 56.78125 9.90625 50.3125 4.234375 
Q 43.84375 -1.421875 31.78125 -1.421875 
Q 19.734375 -1.421875 13.25 4.234375 
Q 6.78125 9.90625 6.78125 20.515625 
Q 6.78125 27.484375 10.78125 32.3125 
Q 14.796875 37.15625 21.921875 38.8125 
z
M 18.3125 54.390625 
Q 18.3125 48.734375 21.84375 45.5625 
Q 25.390625 42.390625 31.78125 42.390625 
Q 38.140625 42.390625 41.71875 45.5625 
Q 45.3125 48.734375 45.3125 54.390625 
Q 45.3125 60.0625 41.71875 63.234375 
Q 38.140625 66.40625 31.78125 66.40625 
Q 25.390625 66.40625 21.84375 63.234375 
Q 18.3125 60.0625 18.3125 54.390625 
z
" id="DejaVuSans-38"/>
      </defs>
      <g transform="translate(366.739251 316.356875)scale(0.2 -0.2)">
       <use xlink:href="#DejaVuSans-38"/>
      </g>
     </g>
    </g>
    <g id="text_6">
     <!-- log10(# f-evals / dimension) -->
     <defs>
      <path d="M 9.421875 75.984375 
L 18.40625 75.984375 
L 18.40625 0 
L 9.421875 0 
z
" id="DejaVuSans-6c"/>
      <path d="M 30.609375 48.390625 
Q 23.390625 48.390625 19.1875 42.75 
Q 14.984375 37.109375 14.984375 27.296875 
Q 14.984375 17.484375 19.15625 11.84375 
Q 23.34375 6.203125 30.609375 6.203125 
Q 37.796875 6.203125 41.984375 11.859375 
Q 46.1875 17.53125 46.1875 27.296875 
Q 46.1875 37.015625 41.984375 42.703125 
Q 37.796875 48.390625 30.609375 48.390625 
z
M 30.609375 56 
Q 42.328125 56 49.015625 48.375 
Q 55.71875 40.765625 55.71875 27.296875 
Q 55.71875 13.875 49.015625 6.21875 
Q 42.328125 -1.421875 30.609375 -1.421875 
Q 18.84375 -1.421875 12.171875 6.21875 
Q 5.515625 13.875 5.515625 27.296875 
Q 5.515625 40.765625 12.171875 48.375 
Q 18.84375 56 30.609375 56 
z
" id="DejaVuSans-6f"/>
      <path d="M 45.40625 27.984375 
Q 45.40625 37.75 41.375 43.109375 
Q 37.359375 48.484375 30.078125 48.484375 
Q 22.859375 48.484375 18.828125 43.109375 
Q 14.796875 37.75 14.796875 27.984375 
Q 14.796875 18.265625 18.828125 12.890625 
Q 22.859375 7.515625 30.078125 7.515625 
Q 37.359375 7.515625 41.375 12.890625 
Q 45.40625 18.265625 45.40625 27.984375 
z
M 54.390625 6.78125 
Q 54.390625 -7.171875 48.1875 -13.984375 
Q 42 -20.796875 29.203125 -20.796875 
Q 24.46875 -20.796875 20.265625 -20.09375 
Q 16.0625 -19.390625 12.109375 -17.921875 
L 12.109375 -9.1875 
Q 16.0625 -11.328125 19.921875 -12.34375 
Q 23.78125 -13.375 27.78125 -13.375 
Q 36.625 -13.375 41.015625 -8.765625 
Q 45.40625 -4.15625 45.40625 5.171875 
L 45.40625 9.625 
Q 42.625 4.78125 38.28125 2.390625 
Q 33.9375 0 27.875 0 
Q 17.828125 0 11.671875 7.65625 
Q 5.515625 15.328125 5.515625 27.984375 
Q 5.515625 40.671875 11.671875 48.328125 
Q 17.828125 56 27.875 56 
Q 33.9375 56 38.28125 53.609375 
Q 42.625 51.21875 45.40625 46.390625 
L 45.40625 54.6875 
L 54.390625 54.6875 
z
" id="DejaVuSans-67"/>
      <path d="M 12.40625 8.296875 
L 28.515625 8.296875 
L 28.515625 63.921875 
L 10.984375 60.40625 
L 10.984375 69.390625 
L 28.421875 72.90625 
L 38.28125 72.90625 
L 38.28125 8.296875 
L 54.390625 8.296875 
L 54.390625 0 
L 12.40625 0 
z
" id="DejaVuSans-31"/>
      <path d="M 31 75.875 
Q 24.46875 64.65625 21.28125 53.65625 
Q 18.109375 42.671875 18.109375 31.390625 
Q 18.109375 20.125 21.3125 9.0625 
Q 24.515625 -2 31 -13.1875 
L 23.1875 -13.1875 
Q 15.875 -1.703125 12.234375 9.375 
Q 8.59375 20.453125 8.59375 31.390625 
Q 8.59375 42.28125 12.203125 53.3125 
Q 15.828125 64.359375 23.1875 75.875 
z
" id="DejaVuSans-28"/>
      <path d="M 51.125 44 
L 36.921875 44 
L 32.8125 27.6875 
L 47.125 27.6875 
z
M 43.796875 71.78125 
L 38.71875 51.515625 
L 52.984375 51.515625 
L 58.109375 71.78125 
L 65.921875 71.78125 
L 60.890625 51.515625 
L 76.125 51.515625 
L 76.125 44 
L 58.984375 44 
L 54.984375 27.6875 
L 70.515625 27.6875 
L 70.515625 20.21875 
L 53.078125 20.21875 
L 48 0 
L 40.1875 0 
L 45.21875 20.21875 
L 30.90625 20.21875 
L 25.875 0 
L 18.015625 0 
L 23.09375 20.21875 
L 7.71875 20.21875 
L 7.71875 27.6875 
L 24.90625 27.6875 
L 29 44 
L 13.28125 44 
L 13.28125 51.515625 
L 30.90625 51.515625 
L 35.890625 71.78125 
z
" id="DejaVuSans-23"/>
      <path id="DejaVuSans-20"/>
      <path d="M 37.109375 75.984375 
L 37.109375 68.5 
L 28.515625 68.5 
Q 23.6875 68.5 21.796875 66.546875 
Q 19.921875 64.59375 19.921875 59.515625 
L 19.921875 54.6875 
L 34.71875 54.6875 
L 34.71875 47.703125 
L 19.921875 47.703125 
L 19.921875 0 
L 10.890625 0 
L 10.890625 47.703125 
L 2.296875 47.703125 
L 2.296875 54.6875 
L 10.890625 54.6875 
L 10.890625 58.5 
Q 10.890625 67.625 15.140625 71.796875 
Q 19.390625 75.984375 28.609375 75.984375 
z
" id="DejaVuSans-66"/>
      <path d="M 4.890625 31.390625 
L 31.203125 31.390625 
L 31.203125 23.390625 
L 4.890625 23.390625 
z
" id="DejaVuSans-2d"/>
      <path d="M 56.203125 29.59375 
L 56.203125 25.203125 
L 14.890625 25.203125 
Q 15.484375 15.921875 20.484375 11.0625 
Q 25.484375 6.203125 34.421875 6.203125 
Q 39.59375 6.203125 44.453125 7.46875 
Q 49.3125 8.734375 54.109375 11.28125 
L 54.109375 2.78125 
Q 49.265625 0.734375 44.1875 -0.34375 
Q 39.109375 -1.421875 33.890625 -1.421875 
Q 20.796875 -1.421875 13.15625 6.1875 
Q 5.515625 13.8125 5.515625 26.8125 
Q 5.515625 40.234375 12.765625 48.109375 
Q 20.015625 56 32.328125 56 
Q 43.359375 56 49.78125 48.890625 
Q 56.203125 41.796875 56.203125 29.59375 
z
M 47.21875 32.234375 
Q 47.125 39.59375 43.09375 43.984375 
Q 39.0625 48.390625 32.421875 48.390625 
Q 24.90625 48.390625 20.390625 44.140625 
Q 15.875 39.890625 15.1875 32.171875 
z
" id="DejaVuSans-65"/>
      <path d="M 2.984375 54.6875 
L 12.5 54.6875 
L 29.59375 8.796875 
L 46.6875 54.6875 
L 56.203125 54.6875 
L 35.6875 0 
L 23.484375 0 
z
" id="DejaVuSans-76"/>
      <path d="M 34.28125 27.484375 
Q 23.390625 27.484375 19.1875 25 
Q 14.984375 22.515625 14.984375 16.5 
Q 14.984375 11.71875 18.140625 8.90625 
Q 21.296875 6.109375 26.703125 6.109375 
Q 34.1875 6.109375 38.703125 11.40625 
Q 43.21875 16.703125 43.21875 25.484375 
L 43.21875 27.484375 
z
M 52.203125 31.203125 
L 52.203125 0 
L 43.21875 0 
L 43.21875 8.296875 
Q 40.140625 3.328125 35.546875 0.953125 
Q 30.953125 -1.421875 24.3125 -1.421875 
Q 15.921875 -1.421875 10.953125 3.296875 
Q 6 8.015625 6 15.921875 
Q 6 25.140625 12.171875 29.828125 
Q 18.359375 34.515625 30.609375 34.515625 
L 43.21875 34.515625 
L 43.21875 35.40625 
Q 43.21875 41.609375 39.140625 45 
Q 35.0625 48.390625 27.6875 48.390625 
Q 23 48.390625 18.546875 47.265625 
Q 14.109375 46.140625 10.015625 43.890625 
L 10.015625 52.203125 
Q 14.9375 54.109375 19.578125 55.046875 
Q 24.21875 56 28.609375 56 
Q 40.484375 56 46.34375 49.84375 
Q 52.203125 43.703125 52.203125 31.203125 
z
" id="DejaVuSans-61"/>
      <path d="M 44.28125 53.078125 
L 44.28125 44.578125 
Q 40.484375 46.53125 36.375 47.5 
Q 32.28125 48.484375 27.875 48.484375 
Q 21.1875 48.484375 17.84375 46.4375 
Q 14.5 44.390625 14.5 40.28125 
Q 14.5 37.15625 16.890625 35.375 
Q 19.28125 33.59375 26.515625 31.984375 
L 29.59375 31.296875 
Q 39.15625 29.25 43.1875 25.515625 
Q 47.21875 21.78125 47.21875 15.09375 
Q 47.21875 7.46875 41.1875 3.015625 
Q 35.15625 -1.421875 24.609375 -1.421875 
Q 20.21875 -1.421875 15.453125 -0.5625 
Q 10.6875 0.296875 5.421875 2 
L 5.421875 11.28125 
Q 10.40625 8.6875 15.234375 7.390625 
Q 20.0625 6.109375 24.8125 6.109375 
Q 31.15625 6.109375 34.5625 8.28125 
Q 37.984375 10.453125 37.984375 14.40625 
Q 37.984375 18.0625 35.515625 20.015625 
Q 33.0625 21.96875 24.703125 23.78125 
L 21.578125 24.515625 
Q 13.234375 26.265625 9.515625 29.90625 
Q 5.8125 33.546875 5.8125 39.890625 
Q 5.8125 47.609375 11.28125 51.796875 
Q 16.75 56 26.8125 56 
Q 31.78125 56 36.171875 55.265625 
Q 40.578125 54.546875 44.28125 53.078125 
z
" id="DejaVuSans-73"/>
      <path d="M 25.390625 72.90625 
L 33.6875 72.90625 
L 8.296875 -9.28125 
L 0 -9.28125 
z
" id="DejaVuSans-2f"/>
      <path d="M 45.40625 46.390625 
L 45.40625 75.984375 
L 54.390625 75.984375 
L 54.390625 0 
L 45.40625 0 
L 45.40625 8.203125 
Q 42.578125 3.328125 38.25 0.953125 
Q 33.9375 -1.421875 27.875 -1.421875 
Q 17.96875 -1.421875 11.734375 6.484375 
Q 5.515625 14.40625 5.515625 27.296875 
Q 5.515625 40.1875 11.734375 48.09375 
Q 17.96875 56 27.875 56 
Q 33.9375 56 38.25 53.625 
Q 42.578125 51.265625 45.40625 46.390625 
z
M 14.796875 27.296875 
Q 14.796875 17.390625 18.875 11.75 
Q 22.953125 6.109375 30.078125 6.109375 
Q 37.203125 6.109375 41.296875 11.75 
Q 45.40625 17.390625 45.40625 27.296875 
Q 45.40625 37.203125 41.296875 42.84375 
Q 37.203125 48.484375 30.078125 48.484375 
Q 22.953125 48.484375 18.875 42.84375 
Q 14.796875 37.203125 14.796875 27.296875 
z
" id="DejaVuSans-64"/>
      <path d="M 9.421875 54.6875 
L 18.40625 54.6875 
L 18.40625 0 
L 9.421875 0 
z
M 9.421875 75.984375 
L 18.40625 75.984375 
L 18.40625 64.59375 
L 9.421875 64.59375 
z
" id="DejaVuSans-69"/>
      <path d="M 52 44.1875 
Q 55.375 50.25 60.0625 53.125 
Q 64.75 56 71.09375 56 
Q 79.640625 56 84.28125 50.015625 
Q 88.921875 44.046875 88.921875 33.015625 
L 88.921875 0 
L 79.890625 0 
L 79.890625 32.71875 
Q 79.890625 40.578125 77.09375 44.375 
Q 74.3125 48.1875 68.609375 48.1875 
Q 61.625 48.1875 57.5625 43.546875 
Q 53.515625 38.921875 53.515625 30.90625 
L 53.515625 0 
L 44.484375 0 
L 44.484375 32.71875 
Q 44.484375 40.625 41.703125 44.40625 
Q 38.921875 48.1875 33.109375 48.1875 
Q 26.21875 48.1875 22.15625 43.53125 
Q 18.109375 38.875 18.109375 30.90625 
L 18.109375 0 
L 9.078125 0 
L 9.078125 54.6875 
L 18.109375 54.6875 
L 18.109375 46.1875 
Q 21.1875 51.21875 25.484375 53.609375 
Q 29.78125 56 35.6875 56 
Q 41.65625 56 45.828125 52.96875 
Q 50 49.953125 52 44.1875 
z
" id="DejaVuSans-6d"/>
      <path d="M 54.890625 33.015625 
L 54.890625 0 
L 45.90625 0 
L 45.90625 32.71875 
Q 45.90625 40.484375 42.875 44.328125 
Q 39.84375 48.1875 33.796875 48.1875 
Q 26.515625 48.1875 22.3125 43.546875 
Q 18.109375 38.921875 18.109375 30.90625 
L 18.109375 0 
L 9.078125 0 
L 9.078125 54.6875 
L 18.109375 54.6875 
L 18.109375 46.1875 
Q 21.34375 51.125 25.703125 53.5625 
Q 30.078125 56 35.796875 56 
Q 45.21875 56 50.046875 50.171875 
Q 54.890625 44.34375 54.890625 33.015625 
z
" id="DejaVuSans-6e"/>
      <path d="M 8.015625 75.875 
L 15.828125 75.875 
Q 23.140625 64.359375 26.78125 53.3125 
Q 30.421875 42.28125 30.421875 31.390625 
Q 30.421875 20.453125 26.78125 9.375 
Q 23.140625 -1.703125 15.828125 -13.1875 
L 8.015625 -13.1875 
Q 14.5 -2 17.703125 9.0625 
Q 20.90625 20.125 20.90625 31.390625 
Q 20.90625 42.671875 17.703125 53.65625 
Q 14.5 64.65625 8.015625 75.875 
z
" id="DejaVuSans-29"/>
     </defs>
     <g transform="translate(107.571219 337.433594)scale(0.17 -0.17)">
      <use xlink:href="#DejaVuSans-6c"/>
      <use x="27.783203" xlink:href="#DejaVuSans-6f"/>
      <use x="88.964844" xlink:href="#DejaVuSans-67"/>
      <use x="152.441406" xlink:href="#DejaVuSans-31"/>
      <use x="216.064453" xlink:href="#DejaVuSans-30"/>
      <use x="279.6875" xlink:href="#DejaVuSans-28"/>
      <use x="318.701172" xlink:href="#DejaVuSans-23"/>
      <use x="402.490234" xlink:href="#DejaVuSans-20"/>
      <use x="434.277344" xlink:href="#DejaVuSans-66"/>
      <use x="469.404297" xlink:href="#DejaVuSans-2d"/>
      <use x="505.488281" xlink:href="#DejaVuSans-65"/>
      <use x="567.011719" xlink:href="#DejaVuSans-76"/>
      <use x="626.191406" xlink:href="#DejaVuSans-61"/>
      <use x="687.470703" xlink:href="#DejaVuSans-6c"/>
      <use x="715.253906" xlink:href="#DejaVuSans-73"/>
      <use x="767.353516" xlink:href="#DejaVuSans-20"/>
      <use x="799.140625" xlink:href="#DejaVuSans-2f"/>
      <use x="832.832031" xlink:href="#DejaVuSans-20"/>
      <use x="864.619141" xlink:href="#DejaVuSans-64"/>
      <use x="928.095703" xlink:href="#DejaVuSans-69"/>
      <use x="955.878906" xlink:href="#DejaVuSans-6d"/>
      <use x="1053.291016" xlink:href="#DejaVuSans-65"/>
      <use x="1114.814453" xlink:href="#DejaVuSans-6e"/>
      <use x="1178.193359" xlink:href="#DejaVuSans-73"/>
      <use x="1230.292969" xlink:href="#DejaVuSans-69"/>
      <use x="1258.076172" xlink:href="#DejaVuSans-6f"/>
      <use x="1319.257812" xlink:href="#DejaVuSans-6e"/>
      <use x="1382.636719" xlink:href="#DejaVuSans-29"/>
     </g>
    </g>
   </g>
   <g id="matplotlib.axis_2">
    <g id="ytick_1">
     <g id="line2d_11">
      <path clip-path="url(#p0ed185029d)" d="M 56.84 294.16 
L 399.984 294.16 
" style="fill:none;stroke:#b0b0b0;stroke-linecap:square;stroke-width:0.8;"/>
     </g>
     <g id="line2d_12">
      <defs>
       <path d="M 0 0 
L -3.5 0 
" id="me45a097f34" style="stroke:#000000;stroke-width:0.8;"/>
      </defs>
      <g>
       <use style="stroke:#000000;stroke-width:0.8;" x="56.84" xlink:href="#me45a097f34" y="294.16"/>
      </g>
     </g>
     <g id="text_7">
      <!-- 0.0 -->
      <defs>
       <path d="M 10.6875 12.40625 
L 21 12.40625 
L 21 0 
L 10.6875 0 
z
" id="DejaVuSans-2e"/>
      </defs>
      <g transform="translate(24.395 300.23875)scale(0.16 -0.16)">
       <use xlink:href="#DejaVuSans-30"/>
       <use x="63.623047" xlink:href="#DejaVuSans-2e"/>
       <use x="95.410156" xlink:href="#DejaVuSans-30"/>
      </g>
     </g>
    </g>
    <g id="ytick_2">
     <g id="line2d_13">
      <path clip-path="url(#p0ed185029d)" d="M 56.84 237.123411 
L 399.984 237.123411 
" style="fill:none;stroke:#b0b0b0;stroke-linecap:square;stroke-width:0.8;"/>
     </g>
     <g id="line2d_14">
      <g>
       <use style="stroke:#000000;stroke-width:0.8;" x="56.84" xlink:href="#me45a097f34" y="237.123411"/>
      </g>
     </g>
     <g id="text_8">
      <!-- 0.2 -->
      <g transform="translate(24.395 243.202161)scale(0.16 -0.16)">
       <use xlink:href="#DejaVuSans-30"/>
       <use x="63.623047" xlink:href="#DejaVuSans-2e"/>
       <use x="95.410156" xlink:href="#DejaVuSans-32"/>
      </g>
     </g>
    </g>
    <g id="ytick_3">
     <g id="line2d_15">
      <path clip-path="url(#p0ed185029d)" d="M 56.84 180.086823 
L 399.984 180.086823 
" style="fill:none;stroke:#b0b0b0;stroke-linecap:square;stroke-width:0.8;"/>
     </g>
     <g id="line2d_16">
      <g>
       <use style="stroke:#000000;stroke-width:0.8;" x="56.84" xlink:href="#me45a097f34" y="180.086823"/>
      </g>
     </g>
     <g id="text_9">
      <!-- 0.4 -->
      <g transform="translate(24.395 186.165573)scale(0.16 -0.16)">
       <use xlink:href="#DejaVuSans-30"/>
       <use x="63.623047" xlink:href="#DejaVuSans-2e"/>
       <use x="95.410156" xlink:href="#DejaVuSans-34"/>
      </g>
     </g>
    </g>
    <g id="ytick_4">
     <g id="line2d_17">
      <path clip-path="url(#p0ed185029d)" d="M 56.84 123.050234 
L 399.984 123.050234 
" style="fill:none;stroke:#b0b0b0;stroke-linecap:square;stroke-width:0.8;"/>
     </g>
     <g id="line2d_18">
      <g>
       <use style="stroke:#000000;stroke-width:0.8;" x="56.84" xlink:href="#me45a097f34" y="123.050234"/>
      </g>
     </g>
     <g id="text_10">
      <!-- 0.6 -->
      <g transform="translate(24.395 129.128984)scale(0.16 -0.16)">
       <use xlink:href="#DejaVuSans-30"/>
       <use x="63.623047" xlink:href="#DejaVuSans-2e"/>
       <use x="95.410156" xlink:href="#DejaVuSans-36"/>
      </g>
     </g>
    </g>
    <g id="ytick_5">
     <g id="line2d_19">
      <path clip-path="url(#p0ed185029d)" d="M 56.84 66.013646 
L 399.984 66.013646 
" style="fill:none;stroke:#b0b0b0;stroke-linecap:square;stroke-width:0.8;"/>
     </g>
     <g id="line2d_20">
      <g>
       <use style="stroke:#000000;stroke-width:0.8;" x="56.84" xlink:href="#me45a097f34" y="66.013646"/>
      </g>
     </g>
     <g id="text_11">
      <!-- 0.8 -->
      <g transform="translate(24.395 72.092396)scale(0.16 -0.16)">
       <use xlink:href="#DejaVuSans-30"/>
       <use x="63.623047" xlink:href="#DejaVuSans-2e"/>
       <use x="95.410156" xlink:href="#DejaVuSans-38"/>
      </g>
     </g>
    </g>
    <g id="ytick_6">
     <g id="line2d_21">
      <path clip-path="url(#p0ed185029d)" d="M 56.84 8.977057 
L 399.984 8.977057 
" style="fill:none;stroke:#b0b0b0;stroke-linecap:square;stroke-width:0.8;"/>
     </g>
     <g id="line2d_22">
      <g>
       <use style="stroke:#000000;stroke-width:0.8;" x="56.84" xlink:href="#me45a097f34" y="8.977057"/>
      </g>
     </g>
     <g id="text_12">
      <!-- 1.0 -->
      <g transform="translate(24.395 15.055807)scale(0.16 -0.16)">
       <use xlink:href="#DejaVuSans-31"/>
       <use x="63.623047" xlink:href="#DejaVuSans-2e"/>
       <use x="95.410156" xlink:href="#DejaVuSans-30"/>
      </g>
     </g>
    </g>
    <g id="text_13">
     <!-- Fraction of function,target pairs -->
     <defs>
      <path d="M 9.8125 72.90625 
L 51.703125 72.90625 
L 51.703125 64.59375 
L 19.671875 64.59375 
L 19.671875 43.109375 
L 48.578125 43.109375 
L 48.578125 34.8125 
L 19.671875 34.8125 
L 19.671875 0 
L 9.8125 0 
z
" id="DejaVuSans-46"/>
      <path d="M 41.109375 46.296875 
Q 39.59375 47.171875 37.8125 47.578125 
Q 36.03125 48 33.890625 48 
Q 26.265625 48 22.1875 43.046875 
Q 18.109375 38.09375 18.109375 28.8125 
L 18.109375 0 
L 9.078125 0 
L 9.078125 54.6875 
L 18.109375 54.6875 
L 18.109375 46.1875 
Q 20.953125 51.171875 25.484375 53.578125 
Q 30.03125 56 36.53125 56 
Q 37.453125 56 38.578125 55.875 
Q 39.703125 55.765625 41.0625 55.515625 
z
" id="DejaVuSans-72"/>
      <path d="M 48.78125 52.59375 
L 48.78125 44.1875 
Q 44.96875 46.296875 41.140625 47.34375 
Q 37.3125 48.390625 33.40625 48.390625 
Q 24.65625 48.390625 19.8125 42.84375 
Q 14.984375 37.3125 14.984375 27.296875 
Q 14.984375 17.28125 19.8125 11.734375 
Q 24.65625 6.203125 33.40625 6.203125 
Q 37.3125 6.203125 41.140625 7.25 
Q 44.96875 8.296875 48.78125 10.40625 
L 48.78125 2.09375 
Q 45.015625 0.34375 40.984375 -0.53125 
Q 36.96875 -1.421875 32.421875 -1.421875 
Q 20.0625 -1.421875 12.78125 6.34375 
Q 5.515625 14.109375 5.515625 27.296875 
Q 5.515625 40.671875 12.859375 48.328125 
Q 20.21875 56 33.015625 56 
Q 37.15625 56 41.109375 55.140625 
Q 45.0625 54.296875 48.78125 52.59375 
z
" id="DejaVuSans-63"/>
      <path d="M 18.3125 70.21875 
L 18.3125 54.6875 
L 36.8125 54.6875 
L 36.8125 47.703125 
L 18.3125 47.703125 
L 18.3125 18.015625 
Q 18.3125 11.328125 20.140625 9.421875 
Q 21.96875 7.515625 27.59375 7.515625 
L 36.8125 7.515625 
L 36.8125 0 
L 27.59375 0 
Q 17.1875 0 13.234375 3.875 
Q 9.28125 7.765625 9.28125 18.015625 
L 9.28125 47.703125 
L 2.6875 47.703125 
L 2.6875 54.6875 
L 9.28125 54.6875 
L 9.28125 70.21875 
z
" id="DejaVuSans-74"/>
      <path d="M 8.5 21.578125 
L 8.5 54.6875 
L 17.484375 54.6875 
L 17.484375 21.921875 
Q 17.484375 14.15625 20.5 10.265625 
Q 23.53125 6.390625 29.59375 6.390625 
Q 36.859375 6.390625 41.078125 11.03125 
Q 45.3125 15.671875 45.3125 23.6875 
L 45.3125 54.6875 
L 54.296875 54.6875 
L 54.296875 0 
L 45.3125 0 
L 45.3125 8.40625 
Q 42.046875 3.421875 37.71875 1 
Q 33.40625 -1.421875 27.6875 -1.421875 
Q 18.265625 -1.421875 13.375 4.4375 
Q 8.5 10.296875 8.5 21.578125 
z
M 31.109375 56 
z
" id="DejaVuSans-75"/>
      <path d="M 11.71875 12.40625 
L 22.015625 12.40625 
L 22.015625 4 
L 14.015625 -11.625 
L 7.71875 -11.625 
L 11.71875 4 
z
" id="DejaVuSans-2c"/>
      <path d="M 18.109375 8.203125 
L 18.109375 -20.796875 
L 9.078125 -20.796875 
L 9.078125 54.6875 
L 18.109375 54.6875 
L 18.109375 46.390625 
Q 20.953125 51.265625 25.265625 53.625 
Q 29.59375 56 35.59375 56 
Q 45.5625 56 51.78125 48.09375 
Q 58.015625 40.1875 58.015625 27.296875 
Q 58.015625 14.40625 51.78125 6.484375 
Q 45.5625 -1.421875 35.59375 -1.421875 
Q 29.59375 -1.421875 25.265625 0.953125 
Q 20.953125 3.328125 18.109375 8.203125 
z
M 48.6875 27.296875 
Q 48.6875 37.203125 44.609375 42.84375 
Q 40.53125 48.484375 33.40625 48.484375 
Q 26.265625 48.484375 22.1875 42.84375 
Q 18.109375 37.203125 18.109375 27.296875 
Q 18.109375 17.390625 22.1875 11.75 
Q 26.265625 6.109375 33.40625 6.109375 
Q 40.53125 6.109375 44.609375 11.75 
Q 48.6875 17.390625 48.6875 27.296875 
z
" id="DejaVuSans-70"/>
     </defs>
     <g transform="translate(16.859531 285.281989)rotate(-90)scale(0.17 -0.17)">
      <use xlink:href="#DejaVuSans-46"/>
      <use x="57.410156" xlink:href="#DejaVuSans-72"/>
      <use x="98.523438" xlink:href="#DejaVuSans-61"/>
      <use x="159.802734" xlink:href="#DejaVuSans-63"/>
      <use x="214.783203" xlink:href="#DejaVuSans-74"/>
      <use x="253.992188" xlink:href="#DejaVuSans-69"/>
      <use x="281.775391" xlink:href="#DejaVuSans-6f"/>
      <use x="342.957031" xlink:href="#DejaVuSans-6e"/>
      <use x="406.335938" xlink:href="#DejaVuSans-20"/>
      <use x="438.123047" xlink:href="#DejaVuSans-6f"/>
      <use x="499.304688" xlink:href="#DejaVuSans-66"/>
      <use x="534.509766" xlink:href="#DejaVuSans-20"/>
      <use x="566.296875" xlink:href="#DejaVuSans-66"/>
      <use x="601.501953" xlink:href="#DejaVuSans-75"/>
      <use x="664.880859" xlink:href="#DejaVuSans-6e"/>
      <use x="728.259766" xlink:href="#DejaVuSans-63"/>
      <use x="783.240234" xlink:href="#DejaVuSans-74"/>
      <use x="822.449219" xlink:href="#DejaVuSans-69"/>
      <use x="850.232422" xlink:href="#DejaVuSans-6f"/>
      <use x="911.414062" xlink:href="#DejaVuSans-6e"/>
      <use x="974.792969" xlink:href="#DejaVuSans-2c"/>
      <use x="1006.580078" xlink:href="#DejaVuSans-74"/>
      <use x="1045.789062" xlink:href="#DejaVuSans-61"/>
      <use x="1107.068359" xlink:href="#DejaVuSans-72"/>
      <use x="1148.166016" xlink:href="#DejaVuSans-67"/>
      <use x="1211.642578" xlink:href="#DejaVuSans-65"/>
      <use x="1273.166016" xlink:href="#DejaVuSans-74"/>
      <use x="1312.375" xlink:href="#DejaVuSans-20"/>
      <use x="1344.162109" xlink:href="#DejaVuSans-70"/>
      <use x="1407.638672" xlink:href="#DejaVuSans-61"/>
      <use x="1468.917969" xlink:href="#DejaVuSans-69"/>
      <use x="1496.701172" xlink:href="#DejaVuSans-72"/>
      <use x="1537.814453" xlink:href="#DejaVuSans-73"/>
     </g>
    </g>
   </g>
   <g id="line2d_23">
    <defs>
     <path d="M 0 1.5 
C 0.397805 1.5 0.77937 1.341951 1.06066 1.06066 
C 1.341951 0.77937 1.5 0.397805 1.5 0 
C 1.5 -0.397805 1.341951 -0.77937 1.06066 -1.06066 
C 0.77937 -1.341951 0.397805 -1.5 0 -1.5 
C -0.397805 -1.5 -0.77937 -1.341951 -1.06066 -1.06066 
C -1.341951 -0.77937 -1.5 -0.397805 -1.5 0 
C -1.5 0.397805 -1.341951 0.77937 -1.06066 1.06066 
C -0.77937 1.341951 -0.397805 1.5 0 1.5 
z
" id="m3013c65e68" style="stroke:#000080;"/>
    </defs>
    <g>
     <use style="fill:#000080;stroke:#000080;" x="255.036569" xlink:href="#m3013c65e68" y="199.099019"/>
     <use style="fill:#000080;stroke:#000080;" x="255.036569" xlink:href="#m3013c65e68" y="199.099019"/>
    </g>
   </g>
   <g id="line2d_24">
    <path d="M 29.207815 294.16 
L 29.207815 284.653902 
L 41.10835 284.653902 
L 41.10835 276.825351 
L 48.069716 276.825351 
L 48.069716 275.706986 
L 53.008884 275.706986 
L 53.008884 274.588622 
L 56.84 274.588622 
L 56.84 272.351893 
L 59.97025 272.351893 
L 59.97025 271.79271 
L 62.616839 271.79271 
L 62.616839 271.233528 
L 64.909418 271.233528 
L 64.909418 270.674346 
L 70.3769 270.674346 
L 70.3769 270.115164 
L 76.809952 270.115164 
L 76.809952 267.319252 
L 80.641068 267.319252 
L 80.641068 266.76007 
L 83.040619 266.76007 
L 83.040619 265.082523 
L 84.472185 265.082523 
L 84.472185 264.523341 
L 85.145559 264.523341 
L 85.145559 263.404977 
L 89.751341 263.404977 
L 89.751341 261.72743 
L 98.009084 261.72743 
L 98.009084 261.168248 
L 102.633219 261.168248 
L 102.633219 260.609066 
L 102.870034 260.609066 
L 102.870034 260.049883 
L 106.654048 260.049883 
L 106.654048 259.490701 
L 107.572387 259.490701 
L 107.572387 258.372337 
L 108.1007 258.372337 
L 108.1007 257.813154 
L 110.672804 257.813154 
L 110.672804 257.253972 
L 110.821453 257.253972 
L 110.821453 256.69479 
L 111.114944 256.69479 
L 111.114944 256.135608 
L 111.25983 256.135608 
L 111.25983 255.576425 
L 111.687292 255.576425 
L 111.687292 255.017243 
L 112.777744 255.017243 
L 112.777744 254.458061 
L 114.17229 254.458061 
L 114.17229 253.898879 
L 119.383266 253.898879 
L 119.383266 253.339696 
L 120.429408 253.339696 
L 120.429408 252.221332 
L 120.76442 252.221332 
L 120.76442 251.66215 
L 122.86936 251.66215 
L 122.86936 251.102967 
L 123.375425 251.102967 
L 123.375425 250.543785 
L 124.141708 250.543785 
L 124.141708 249.984603 
L 124.277431 249.984603 
L 124.277431 248.866238 
L 127.305989 248.866238 
L 127.362559 247.747874 
L 127.475142 247.747874 
L 127.475142 247.188692 
L 128.243205 247.188692 
L 128.243205 246.62951 
L 128.926894 246.62951 
L 128.926894 245.511145 
L 129.334482 245.511145 
L 129.334482 244.951963 
L 129.976845 244.951963 
L 130.073571 243.833598 
L 131.328686 243.833598 
L 131.328686 242.715234 
L 132.245157 242.715234 
L 132.245157 242.156052 
L 132.372178 242.156052 
L 132.372178 241.596869 
L 132.911992 241.596869 
L 132.911992 241.037687 
L 133.553893 241.037687 
L 133.593226 239.919323 
L 134.843109 239.919323 
L 134.843109 239.36014 
L 136.578812 239.36014 
L 136.578812 238.241776 
L 138.688831 238.241776 
L 138.688831 237.682594 
L 139.035688 237.682594 
L 139.035688 237.123411 
L 142.046294 237.123411 
L 142.11818 236.005047 
L 164.916089 236.005047 
L 164.916089 235.445865 
L 166.103574 235.445865 
L 166.103574 234.886682 
L 172.81273 234.886682 
L 172.81273 234.3275 
L 174.546663 234.3275 
L 174.546663 233.768318 
L 176.190589 233.768318 
L 176.190589 233.209136 
L 176.822959 233.209136 
L 176.911426 231.531589 
L 177.291656 231.531589 
L 177.291656 230.972407 
L 177.651577 230.972407 
L 177.651577 230.413225 
L 178.201098 230.413225 
L 178.271116 229.29486 
L 178.467962 229.29486 
L 178.467962 228.735678 
L 183.937798 228.735678 
L 183.937798 228.176496 
L 186.16826 228.176496 
L 186.16826 227.617313 
L 188.296937 227.617313 
L 188.397311 225.939767 
L 189.186024 225.939767 
L 189.186024 225.380584 
L 195.032759 225.380584 
L 195.066726 224.26222 
L 195.370511 224.26222 
L 195.467025 223.143855 
L 196.055669 223.143855 
L 196.055669 222.584673 
L 200.093239 222.584673 
L 200.093239 222.025491 
L 200.243684 222.025491 
L 200.251778 220.907126 
L 200.355055 220.907126 
L 200.372743 219.788762 
L 200.532715 219.788762 
L 200.532715 219.22958 
L 203.166902 219.22958 
L 203.166902 218.670397 
L 203.900162 218.670397 
L 203.913897 217.552033 
L 206.83816 217.552033 
L 206.880568 215.315304 
L 206.962881 215.315304 
L 206.962881 214.756122 
L 207.076373 214.756122 
L 207.100828 213.637757 
L 209.418844 213.637757 
L 209.418844 213.078575 
L 209.77478 213.078575 
L 209.785001 211.960211 
L 211.221545 211.960211 
L 211.221545 211.401028 
L 211.913131 211.401028 
L 211.913131 210.841846 
L 212.913316 210.841846 
L 212.913316 210.282664 
L 213.253661 210.282664 
L 213.253661 209.723482 
L 213.385974 209.723482 
L 213.385974 209.164299 
L 215.691399 209.164299 
L 215.691399 208.605117 
L 217.523515 208.605117 
L 217.523515 208.045935 
L 218.39645 208.045935 
L 218.39645 207.486753 
L 218.737315 207.486753 
L 218.784952 206.368388 
L 219.761147 206.368388 
L 219.761147 205.809206 
L 221.370309 205.809206 
L 221.370309 205.250024 
L 222.674812 205.250024 
L 222.674812 204.690841 
L 223.602288 204.690841 
L 223.602288 204.131659 
L 224.679585 204.131659 
L 224.728283 203.013295 
L 225.701898 203.013295 
L 225.701898 202.454112 
L 229.082264 202.454112 
L 229.082264 201.89493 
L 232.437376 201.89493 
L 232.437376 201.335748 
L 232.656218 201.335748 
L 232.656218 200.776566 
L 233.219319 200.776566 
L 233.219319 200.217384 
L 243.410684 200.217384 
L 243.410684 199.658201 
L 255.036569 199.658201 
L 255.036569 199.099019 
L 333.569032 199.099019 
L 333.569032 199.099019 
" style="fill:none;stroke:#000080;stroke-linecap:square;stroke-width:1.5;"/>
   </g>
   <g id="line2d_25">
    <defs>
     <path d="M 0 6 
C 1.591219 6 3.117479 5.367802 4.242641 4.242641 
C 5.367802 3.117479 6 1.591219 6 0 
C 6 -1.591219 5.367802 -3.117479 4.242641 -4.242641 
C 3.117479 -5.367802 1.591219 -6 0 -6 
C -1.591219 -6 -3.117479 -5.367802 -4.242641 -4.242641 
C -5.367802 -3.117479 -6 -1.591219 -6 0 
C -6 1.591219 -5.367802 3.117479 -4.242641 4.242641 
C -3.117479 5.367802 -1.591219 6 0 6 
z
" id="mac25ff47f8" style="stroke:#000080;stroke-width:1.5;"/>
    </defs>
    <g>
     <use style="fill-opacity:0;stroke:#000080;stroke-width:1.5;" x="70.3769" xlink:href="#mac25ff47f8" y="270.115164"/>
     <use style="fill-opacity:0;stroke:#000080;stroke-width:1.5;" x="124.277431" xlink:href="#mac25ff47f8" y="248.866238"/>
     <use style="fill-opacity:0;stroke:#000080;stroke-width:1.5;" x="195.467025" xlink:href="#mac25ff47f8" y="223.143855"/>
     <use style="fill-opacity:0;stroke:#000080;stroke-width:1.5;" x="229.082264" xlink:href="#mac25ff47f8" y="201.89493"/>
     <use style="fill-opacity:0;stroke:#000080;stroke-width:1.5;" x="255.036569" xlink:href="#mac25ff47f8" y="199.099019"/>
     <use style="fill-opacity:0;stroke:#000080;stroke-width:1.5;" x="333.569032" xlink:href="#mac25ff47f8" y="199.099019"/>
    </g>
   </g>
   <g id="line2d_26">
    <path style="fill:none;stroke:#000080;stroke-linecap:square;stroke-width:1.5;"/>
    <g/>
   </g>
   <g id="line2d_27">
    <path clip-path="url(#p0ed185029d)" d="M 96.372719 261.72743 
" style="fill:none;stroke:#000080;stroke-linecap:square;stroke-width:1.5;"/>
    <defs>
     <path d="M -12 12 
L 12 -12 
M -12 -12 
L 12 12 
" id="m836b2a0ce7" style="stroke:#000080;stroke-width:3;"/>
    </defs>
    <g clip-path="url(#p0ed185029d)">
     <use style="fill:#000080;stroke:#000080;stroke-width:3;" x="96.372719" xlink:href="#m836b2a0ce7" y="261.72743"/>
    </g>
   </g>
   <g id="line2d_28">
    <defs>
     <path d="M 0 1.5 
C 0.397805 1.5 0.77937 1.341951 1.06066 1.06066 
C 1.341951 0.77937 1.5 0.397805 1.5 0 
C 1.5 -0.397805 1.341951 -0.77937 1.06066 -1.06066 
C 0.77937 -1.341951 0.397805 -1.5 0 -1.5 
C -0.397805 -1.5 -0.77937 -1.341951 -1.06066 -1.06066 
C -1.341951 -0.77937 -1.5 -0.397805 -1.5 0 
C -1.5 0.397805 -1.341951 0.77937 -1.06066 1.06066 
C -0.77937 1.341951 -0.397805 1.5 0 1.5 
z
" id="mfadd371379" style="stroke:#ff00ff;"/>
    </defs>
    <g>
     <use style="fill:#ff00ff;stroke:#ff00ff;" x="227.33183" xlink:href="#mfadd371379" y="282.976355"/>
     <use style="fill:#ff00ff;stroke:#ff00ff;" x="227.33183" xlink:href="#mfadd371379" y="282.976355"/>
    </g>
   </g>
   <g id="line2d_29">
    <path d="M 150.130713 294.16 
L 150.130713 293.600818 
L 166.133119 293.600818 
L 166.133119 293.041636 
L 174.073642 293.041636 
L 174.073642 291.923271 
L 177.873501 291.923271 
L 177.873501 291.364089 
L 179.528276 291.364089 
L 179.528276 290.804907 
L 183.737803 290.804907 
L 183.737803 290.245724 
L 186.847572 290.245724 
L 186.847572 289.686542 
L 186.935681 289.686542 
L 186.935681 289.12736 
L 188.915643 289.12736 
L 188.915643 288.008995 
L 191.985226 288.008995 
L 191.985226 287.449813 
L 204.078524 287.449813 
L 204.078524 286.890631 
L 204.703585 286.890631 
L 204.703585 286.331449 
L 209.29169 286.331449 
L 209.29169 285.772266 
L 216.515847 285.772266 
L 216.515847 285.213084 
L 221.187921 285.213084 
L 221.187921 284.653902 
L 223.674829 284.653902 
L 223.674829 284.09472 
L 224.233575 284.09472 
L 224.233575 283.535537 
L 227.33183 283.535537 
L 227.33183 282.976355 
L 333.569032 282.976355 
" style="fill:none;stroke:#ff00ff;stroke-linecap:square;stroke-width:1.5;"/>
   </g>
   <g id="line2d_30">
    <defs>
     <path d="M -0 8.485281 
L 5.091169 0 
L 0 -8.485281 
L -5.091169 -0 
z
" id="m5206778f68" style="stroke:#ff00ff;stroke-linejoin:miter;stroke-width:1.5;"/>
    </defs>
    <g>
     <use style="fill-opacity:0;stroke:#ff00ff;stroke-linejoin:miter;stroke-width:1.5;" x="227.33183" xlink:href="#m5206778f68" y="283.535537"/>
     <use style="fill-opacity:0;stroke:#ff00ff;stroke-linejoin:miter;stroke-width:1.5;" x="227.33183" xlink:href="#m5206778f68" y="282.976355"/>
     <use style="fill-opacity:0;stroke:#ff00ff;stroke-linejoin:miter;stroke-width:1.5;" x="227.33183" xlink:href="#m5206778f68" y="282.976355"/>
     <use style="fill-opacity:0;stroke:#ff00ff;stroke-linejoin:miter;stroke-width:1.5;" x="333.569032" xlink:href="#m5206778f68" y="282.976355"/>
    </g>
   </g>
   <g id="line2d_31">
    <path style="fill:none;stroke:#ff00ff;stroke-linecap:square;stroke-width:1.5;"/>
    <g/>
   </g>
   <g id="line2d_32">
    <path clip-path="url(#p0ed185029d)" d="M 96.372719 294.16 
" style="fill:none;stroke:#ff00ff;stroke-linecap:square;stroke-width:1.5;"/>
    <defs>
     <path d="M -12 12 
L 12 -12 
M -12 -12 
L 12 12 
" id="m0bb900b0c4" style="stroke:#ff00ff;stroke-width:3;"/>
    </defs>
    <g clip-path="url(#p0ed185029d)">
     <use style="fill:#ff00ff;stroke:#ff00ff;stroke-width:3;" x="96.372719" xlink:href="#m0bb900b0c4" y="294.16"/>
    </g>
   </g>
   <g id="line2d_33">
    <defs>
     <path d="M 0 1.5 
C 0.397805 1.5 0.77937 1.341951 1.06066 1.06066 
C 1.341951 0.77937 1.5 0.397805 1.5 0 
C 1.5 -0.397805 1.341951 -0.77937 1.06066 -1.06066 
C 0.77937 -1.341951 0.397805 -1.5 0 -1.5 
C -0.397805 -1.5 -0.77937 -1.341951 -1.06066 -1.06066 
C -1.341951 -0.77937 -1.5 -0.397805 -1.5 0 
C -1.5 0.397805 -1.341951 0.77937 -1.06066 1.06066 
C -0.77937 1.341951 -0.397805 1.5 0 1.5 
z
" id="me186b6f942" style="stroke:#ffa500;"/>
    </defs>
    <g>
     <use style="fill:#ffa500;stroke:#ffa500;" x="240.444638" xlink:href="#me186b6f942" y="238.241776"/>
     <use style="fill:#ffa500;stroke:#ffa500;" x="240.444638" xlink:href="#me186b6f942" y="238.241776"/>
    </g>
   </g>
   <g id="line2d_34">
    <path d="M 53.008884 294.16 
L 53.008884 293.600818 
L 56.84 293.600818 
L 56.84 292.482453 
L 68.740534 292.482453 
L 68.740534 291.923271 
L 75.7019 291.923271 
L 75.7019 291.364089 
L 78.83215 291.364089 
L 78.83215 290.245724 
L 81.478739 290.245724 
L 81.478739 289.686542 
L 95.671853 289.686542 
L 95.671853 289.12736 
L 98.009084 289.12736 
L 98.009084 288.568178 
L 101.139334 288.568178 
L 101.139334 287.449813 
L 107.027298 287.449813 
L 107.027298 286.890631 
L 112.511555 286.890631 
L 112.511555 286.331449 
L 115.004162 286.331449 
L 115.004162 285.772266 
L 115.574608 285.772266 
L 115.574608 285.213084 
L 116.235029 285.213084 
L 116.235029 284.653902 
L 120.681278 284.653902 
L 120.681278 284.09472 
L 120.847162 284.09472 
L 120.929506 282.976355 
L 121.335408 282.976355 
L 121.335408 282.417173 
L 122.347923 282.417173 
L 122.347923 281.857991 
L 123.517318 281.857991 
L 123.517318 280.739626 
L 124.073442 280.739626 
L 124.073442 280.180444 
L 124.209703 280.180444 
L 124.209703 279.621262 
L 124.412089 279.621262 
L 124.412089 279.062079 
L 124.612116 279.062079 
L 124.612116 278.502897 
L 127.531158 278.502897 
L 127.531158 277.943715 
L 127.918233 277.943715 
L 127.918233 277.384533 
L 130.12173 277.384533 
L 130.12173 276.825351 
L 131.901769 276.825351 
L 131.901769 276.266168 
L 132.159952 276.266168 
L 132.159952 275.706986 
L 135.973976 275.706986 
L 135.973976 275.147804 
L 138.834207 275.147804 
L 138.834207 274.588622 
L 140.22403 274.588622 
L 140.22403 274.029439 
L 140.98141 274.029439 
L 141.032432 272.911075 
L 145.824501 272.911075 
L 145.824501 272.351893 
L 148.363396 272.351893 
L 148.363396 271.79271 
L 155.971694 271.79271 
L 155.971694 271.233528 
L 157.501997 271.233528 
L 157.501997 270.674346 
L 161.736333 270.674346 
L 161.736333 270.115164 
L 162.879625 270.115164 
L 162.879625 268.996799 
L 174.051321 268.996799 
L 174.051321 268.437617 
L 174.236452 268.437617 
L 174.236452 267.319252 
L 176.845119 267.319252 
L 176.845119 266.76007 
L 177.362404 266.76007 
L 177.362404 266.200888 
L 177.992276 266.200888 
L 177.992276 265.641706 
L 183.36318 265.641706 
L 183.471052 263.964159 
L 183.79066 263.964159 
L 183.79066 263.404977 
L 186.755456 263.404977 
L 186.755456 262.845795 
L 187.186936 262.845795 
L 187.186936 262.286612 
L 188.934427 262.286612 
L 188.934427 261.72743 
L 189.270611 261.72743 
L 189.270611 261.168248 
L 189.487092 261.168248 
L 189.487092 260.049883 
L 190.563111 260.049883 
L 190.563111 259.490701 
L 193.971877 259.490701 
L 193.971877 258.931519 
L 197.556699 258.931519 
L 197.556699 258.372337 
L 201.885568 258.372337 
L 201.885568 257.813154 
L 207.186958 257.813154 
L 207.186958 257.253972 
L 208.188672 257.253972 
L 208.188672 256.69479 
L 209.290734 256.69479 
L 209.290734 256.135608 
L 209.816556 256.135608 
L 209.858693 255.017243 
L 211.884796 255.017243 
L 211.884796 254.458061 
L 213.996358 254.458061 
L 213.996358 253.898879 
L 215.740061 253.898879 
L 215.740061 253.339696 
L 215.965777 253.339696 
L 215.965777 252.780514 
L 218.840681 252.780514 
L 218.906881 251.66215 
L 219.015747 251.66215 
L 219.015747 251.102967 
L 220.129427 251.102967 
L 220.142136 249.984603 
L 220.669787 249.984603 
L 220.669787 249.425421 
L 221.594959 249.425421 
L 221.594959 248.866238 
L 222.253368 248.866238 
L 222.253368 248.307056 
L 223.341524 248.307056 
L 223.341524 247.747874 
L 224.762483 247.747874 
L 224.817334 246.070327 
L 225.668416 246.070327 
L 225.669889 244.951963 
L 225.787698 244.951963 
L 225.787698 244.392781 
L 226.315862 244.392781 
L 226.315862 243.833598 
L 227.331495 243.833598 
L 227.331495 243.274416 
L 228.401939 243.274416 
L 228.401939 242.715234 
L 233.882265 242.715234 
L 233.882265 242.156052 
L 235.231616 242.156052 
L 235.231616 241.596869 
L 235.345498 241.596869 
L 235.345498 241.037687 
L 236.907232 241.037687 
L 236.907232 240.478505 
L 239.758094 240.478505 
L 239.758094 239.919323 
L 240.187683 239.919323 
L 240.187683 239.36014 
L 240.360091 239.36014 
L 240.444638 238.241776 
L 333.569032 238.241776 
L 333.569032 238.241776 
" style="fill:none;stroke:#ffa500;stroke-linecap:square;stroke-width:1.5;"/>
   </g>
   <g id="line2d_35">
    <defs>
     <path d="M 0 -6 
L -1.347084 -1.854102 
L -5.706339 -1.854102 
L -2.179628 0.708204 
L -3.526712 4.854102 
L -0 2.291796 
L 3.526712 4.854102 
L 2.179628 0.708204 
L 5.706339 -1.854102 
L 1.347084 -1.854102 
z
" id="me6a01c6c40" style="stroke:#ffa500;stroke-linejoin:bevel;stroke-width:1.5;"/>
    </defs>
    <g>
     <use style="fill-opacity:0;stroke:#ffa500;stroke-linejoin:bevel;stroke-width:1.5;" x="81.478739" xlink:href="#me6a01c6c40" y="289.686542"/>
     <use style="fill-opacity:0;stroke:#ffa500;stroke-linejoin:bevel;stroke-width:1.5;" x="157.501997" xlink:href="#me6a01c6c40" y="271.233528"/>
     <use style="fill-opacity:0;stroke:#ffa500;stroke-linejoin:bevel;stroke-width:1.5;" x="211.884796" xlink:href="#me6a01c6c40" y="255.017243"/>
     <use style="fill-opacity:0;stroke:#ffa500;stroke-linejoin:bevel;stroke-width:1.5;" x="240.444638" xlink:href="#me6a01c6c40" y="238.241776"/>
     <use style="fill-opacity:0;stroke:#ffa500;stroke-linejoin:bevel;stroke-width:1.5;" x="240.444638" xlink:href="#me6a01c6c40" y="238.241776"/>
     <use style="fill-opacity:0;stroke:#ffa500;stroke-linejoin:bevel;stroke-width:1.5;" x="333.569032" xlink:href="#me6a01c6c40" y="238.241776"/>
    </g>
   </g>
   <g id="line2d_36">
    <path style="fill:none;stroke:#ffa500;stroke-linecap:square;stroke-width:1.5;"/>
    <g/>
   </g>
   <g id="line2d_37">
    <path clip-path="url(#p0ed185029d)" d="M 96.372719 289.12736 
" style="fill:none;stroke:#ffa500;stroke-linecap:square;stroke-width:1.5;"/>
    <defs>
     <path d="M -12 12 
L 12 -12 
M -12 -12 
L 12 12 
" id="m9047880e8a" style="stroke:#ffa500;stroke-width:3;"/>
    </defs>
    <g clip-path="url(#p0ed185029d)">
     <use style="fill:#ffa500;stroke:#ffa500;stroke-width:3;" x="96.372719" xlink:href="#m9047880e8a" y="289.12736"/>
    </g>
   </g>
   <g id="line2d_38">
    <defs>
     <path d="M 0 1.5 
C 0.397805 1.5 0.77937 1.341951 1.06066 1.06066 
C 1.341951 0.77937 1.5 0.397805 1.5 0 
C 1.5 -0.397805 1.341951 -0.77937 1.06066 -1.06066 
C 0.77937 -1.341951 0.397805 -1.5 0 -1.5 
C -0.397805 -1.5 -0.77937 -1.341951 -1.06066 -1.06066 
C -1.341951 -0.77937 -1.5 -0.397805 -1.5 0 
C -1.5 0.397805 -1.341951 0.77937 -1.06066 1.06066 
C -0.77937 1.341951 -0.397805 1.5 0 1.5 
z
" id="m27c0109b48" style="stroke:#6495ed;"/>
    </defs>
    <g>
     <use style="fill:#6495ed;stroke:#6495ed;" x="209.901187" xlink:href="#m27c0109b48" y="271.79271"/>
     <use style="fill:#6495ed;stroke:#6495ed;" x="209.901187" xlink:href="#m27c0109b48" y="271.79271"/>
    </g>
   </g>
   <g id="line2d_39">
    <path d="M 56.84 294.16 
L 56.84 293.600818 
L 68.740534 293.600818 
L 68.740534 292.482453 
L 70.3769 292.482453 
L 70.3769 291.364089 
L 83.771318 291.364089 
L 83.771318 290.804907 
L 84.472185 290.804907 
L 84.472185 290.245724 
L 87.020384 290.245724 
L 87.020384 289.686542 
L 106.654048 289.686542 
L 106.654048 289.12736 
L 109.752824 289.12736 
L 109.752824 288.568178 
L 111.966466 288.568178 
L 111.966466 288.008995 
L 117.782819 288.008995 
L 117.782819 286.890631 
L 122.11951 286.890631 
L 122.11951 286.331449 
L 123.232351 286.331449 
L 123.232351 285.772266 
L 125.069979 285.772266 
L 125.069979 285.213084 
L 125.578723 285.213084 
L 125.578723 284.653902 
L 127.808528 284.653902 
L 127.808528 284.09472 
L 130.360522 284.09472 
L 130.360522 283.535537 
L 139.818767 283.535537 
L 139.818767 282.976355 
L 139.846085 282.976355 
L 139.846085 281.857991 
L 142.889681 281.857991 
L 142.889681 281.298808 
L 156.936431 281.298808 
L 156.936431 280.739626 
L 158.924972 280.739626 
L 158.924972 280.180444 
L 164.550985 280.180444 
L 164.550985 279.621262 
L 164.871667 279.621262 
L 164.871667 279.062079 
L 176.955489 279.062079 
L 176.955489 278.502897 
L 177.374679 278.502897 
L 177.374679 277.384533 
L 177.42063 277.384533 
L 177.42063 276.825351 
L 177.460355 276.825351 
L 177.460355 276.266168 
L 178.571268 276.266168 
L 178.571268 275.706986 
L 181.819841 275.706986 
L 181.819841 275.147804 
L 188.976617 275.147804 
L 188.976617 274.588622 
L 190.555995 274.588622 
L 190.555995 274.029439 
L 195.462747 274.029439 
L 195.462747 273.470257 
L 200.240445 273.470257 
L 200.240445 272.911075 
L 202.418051 272.911075 
L 202.418051 272.351893 
L 209.901187 272.351893 
L 209.901187 271.79271 
L 333.569032 271.79271 
" style="fill:none;stroke:#6495ed;stroke-linecap:square;stroke-width:1.5;"/>
   </g>
   <g id="line2d_40">
    <defs>
     <path d="M -0 6 
L 6 -6 
L -6 -6 
z
" id="m305c152fa1" style="stroke:#6495ed;stroke-linejoin:miter;stroke-width:1.5;"/>
    </defs>
    <g>
     <use style="fill-opacity:0;stroke:#6495ed;stroke-linejoin:miter;stroke-width:1.5;" x="164.871667" xlink:href="#m305c152fa1" y="279.062079"/>
     <use style="fill-opacity:0;stroke:#6495ed;stroke-linejoin:miter;stroke-width:1.5;" x="209.901187" xlink:href="#m305c152fa1" y="272.351893"/>
     <use style="fill-opacity:0;stroke:#6495ed;stroke-linejoin:miter;stroke-width:1.5;" x="209.901187" xlink:href="#m305c152fa1" y="271.79271"/>
     <use style="fill-opacity:0;stroke:#6495ed;stroke-linejoin:miter;stroke-width:1.5;" x="209.901187" xlink:href="#m305c152fa1" y="271.79271"/>
     <use style="fill-opacity:0;stroke:#6495ed;stroke-linejoin:miter;stroke-width:1.5;" x="333.569032" xlink:href="#m305c152fa1" y="271.79271"/>
    </g>
   </g>
   <g id="line2d_41">
    <path style="fill:none;stroke:#6495ed;stroke-linecap:square;stroke-width:1.5;"/>
    <g/>
   </g>
   <g id="line2d_42">
    <path clip-path="url(#p0ed185029d)" d="M 96.372719 289.686542 
" style="fill:none;stroke:#6495ed;stroke-linecap:square;stroke-width:1.5;"/>
    <defs>
     <path d="M -12 12 
L 12 -12 
M -12 -12 
L 12 12 
" id="m7d4520f74b" style="stroke:#6495ed;stroke-width:3;"/>
    </defs>
    <g clip-path="url(#p0ed185029d)">
     <use style="fill:#6495ed;stroke:#6495ed;stroke-width:3;" x="96.372719" xlink:href="#m7d4520f74b" y="289.686542"/>
    </g>
   </g>
   <g id="line2d_43">
    <defs>
     <path d="M 0 1.5 
C 0.397805 1.5 0.77937 1.341951 1.06066 1.06066 
C 1.341951 0.77937 1.5 0.397805 1.5 0 
C 1.5 -0.397805 1.341951 -0.77937 1.06066 -1.06066 
C 0.77937 -1.341951 0.397805 -1.5 0 -1.5 
C -0.397805 -1.5 -0.77937 -1.341951 -1.06066 -1.06066 
C -1.341951 -0.77937 -1.5 -0.397805 -1.5 0 
C -1.5 0.397805 -1.341951 0.77937 -1.06066 1.06066 
C -0.77937 1.341951 -0.397805 1.5 0 1.5 
z
" id="mcedf41f56e" style="stroke:#ff0000;"/>
    </defs>
    <g>
     <use style="fill:#ff0000;stroke:#ff0000;" x="243.786681" xlink:href="#mcedf41f56e" y="271.79271"/>
     <use style="fill:#ff0000;stroke:#ff0000;" x="243.786681" xlink:href="#mcedf41f56e" y="271.79271"/>
    </g>
   </g>
   <g id="line2d_44">
    <path d="M 29.207815 294.16 
L 29.207815 292.482453 
L 41.10835 292.482453 
L 41.10835 291.364089 
L 48.069716 291.364089 
L 48.069716 289.12736 
L 53.008884 289.12736 
L 53.008884 288.568178 
L 56.84 288.568178 
L 56.84 287.449813 
L 59.97025 287.449813 
L 59.97025 285.772266 
L 62.616839 285.772266 
L 62.616839 285.213084 
L 64.909418 285.213084 
L 64.909418 284.653902 
L 71.870784 284.653902 
L 71.870784 284.09472 
L 75.7019 284.09472 
L 75.7019 283.535537 
L 79.760422 283.535537 
L 79.760422 282.976355 
L 82.277434 282.976355 
L 82.277434 282.417173 
L 91.203093 282.417173 
L 91.203093 281.857991 
L 91.660956 281.857991 
L 91.660956 281.298808 
L 93.783265 281.298808 
L 93.783265 280.739626 
L 98.920918 280.739626 
L 98.920918 280.180444 
L 123.015478 280.180444 
L 123.015478 279.621262 
L 132.788917 279.621262 
L 132.788917 279.062079 
L 133.074731 279.062079 
L 133.074731 278.502897 
L 175.902253 278.502897 
L 175.902253 277.943715 
L 176.038739 277.943715 
L 176.038739 277.384533 
L 187.797774 277.384533 
L 187.797774 276.825351 
L 188.000505 276.825351 
L 188.000505 276.266168 
L 203.639728 276.266168 
L 203.639728 275.706986 
L 206.620626 275.706986 
L 206.620626 275.147804 
L 209.493648 275.147804 
L 209.493648 274.588622 
L 218.648297 274.588622 
L 218.648297 274.029439 
L 225.503735 274.029439 
L 225.503735 273.470257 
L 226.505797 273.470257 
L 226.505797 272.911075 
L 235.468413 272.911075 
L 235.468413 272.351893 
L 243.786681 272.351893 
L 243.786681 271.79271 
L 333.569032 271.79271 
" style="fill:none;stroke:#ff0000;stroke-linecap:square;stroke-width:1.5;"/>
   </g>
   <g id="line2d_45">
    <defs>
     <path d="M 0 -6 
L -5.196152 -3 
L -5.196152 3 
L -0 6 
L 5.196152 3 
L 5.196152 -3 
z
" id="m2c5033eb8a" style="stroke:#ff0000;stroke-linejoin:miter;stroke-width:1.5;"/>
    </defs>
    <g>
     <use style="fill-opacity:0;stroke:#ff0000;stroke-linejoin:miter;stroke-width:1.5;" x="123.015478" xlink:href="#m2c5033eb8a" y="279.621262"/>
     <use style="fill-opacity:0;stroke:#ff0000;stroke-linejoin:miter;stroke-width:1.5;" x="188.000505" xlink:href="#m2c5033eb8a" y="276.825351"/>
     <use style="fill-opacity:0;stroke:#ff0000;stroke-linejoin:miter;stroke-width:1.5;" x="243.786681" xlink:href="#m2c5033eb8a" y="272.351893"/>
     <use style="fill-opacity:0;stroke:#ff0000;stroke-linejoin:miter;stroke-width:1.5;" x="243.786681" xlink:href="#m2c5033eb8a" y="271.79271"/>
     <use style="fill-opacity:0;stroke:#ff0000;stroke-linejoin:miter;stroke-width:1.5;" x="333.569032" xlink:href="#m2c5033eb8a" y="271.79271"/>
    </g>
   </g>
   <g id="line2d_46">
    <path style="fill:none;stroke:#ff0000;stroke-linecap:square;stroke-width:1.5;"/>
    <g/>
   </g>
   <g id="line2d_47">
    <path clip-path="url(#p0ed185029d)" d="M 175.778145 278.502897 
" style="fill:none;stroke:#ff0000;stroke-linecap:square;stroke-width:1.5;"/>
    <defs>
     <path d="M -12 12 
L 12 -12 
M -12 -12 
L 12 12 
" id="mcf46acec51" style="stroke:#ff0000;stroke-width:3;"/>
    </defs>
    <g clip-path="url(#p0ed185029d)">
     <use style="fill:#ff0000;stroke:#ff0000;stroke-width:3;" x="175.778145" xlink:href="#mcf46acec51" y="278.502897"/>
    </g>
   </g>
   <g id="line2d_48">
    <path d="M 333.569032 282.976355 
L 364.009226 288.456341 
" style="fill:none;stroke:#ff00ff;stroke-linecap:square;stroke-width:1.5;"/>
    <g>
     <use style="fill-opacity:0;stroke:#ff00ff;stroke-linejoin:miter;stroke-width:1.5;" x="333.569032" xlink:href="#m5206778f68" y="282.976355"/>
     <use style="fill-opacity:0;stroke:#ff00ff;stroke-linejoin:miter;stroke-width:1.5;" x="364.009226" xlink:href="#m5206778f68" y="288.456341"/>
    </g>
   </g>
   <g id="line2d_49">
    <path d="M 333.569032 271.79271 
L 364.009226 220.012435 
" style="fill:none;stroke:#ff0000;stroke-linecap:square;stroke-width:1.5;"/>
    <g>
     <use style="fill-opacity:0;stroke:#ff0000;stroke-linejoin:miter;stroke-width:1.5;" x="333.569032" xlink:href="#m2c5033eb8a" y="271.79271"/>
     <use style="fill-opacity:0;stroke:#ff0000;stroke-linejoin:miter;stroke-width:1.5;" x="364.009226" xlink:href="#m2c5033eb8a" y="220.012435"/>
    </g>
   </g>
   <g id="line2d_50">
    <path d="M 333.569032 271.79271 
L 364.009226 151.568529 
" style="fill:none;stroke:#6495ed;stroke-linecap:square;stroke-width:1.5;"/>
    <g>
     <use style="fill-opacity:0;stroke:#6495ed;stroke-linejoin:miter;stroke-width:1.5;" x="333.569032" xlink:href="#m305c152fa1" y="271.79271"/>
     <use style="fill-opacity:0;stroke:#6495ed;stroke-linejoin:miter;stroke-width:1.5;" x="364.009226" xlink:href="#m305c152fa1" y="151.568529"/>
    </g>
   </g>
   <g id="line2d_51">
    <path d="M 333.569032 238.241776 
L 364.009226 83.124622 
" style="fill:none;stroke:#ffa500;stroke-linecap:square;stroke-width:1.5;"/>
    <g>
     <use style="fill-opacity:0;stroke:#ffa500;stroke-linejoin:bevel;stroke-width:1.5;" x="333.569032" xlink:href="#me6a01c6c40" y="238.241776"/>
     <use style="fill-opacity:0;stroke:#ffa500;stroke-linejoin:bevel;stroke-width:1.5;" x="364.009226" xlink:href="#me6a01c6c40" y="83.124622"/>
    </g>
   </g>
   <g id="line2d_52">
    <path d="M 333.569032 199.099019 
L 364.009226 14.680716 
" style="fill:none;stroke:#000080;stroke-linecap:square;stroke-width:1.5;"/>
    <g>
     <use style="fill-opacity:0;stroke:#000080;stroke-width:1.5;" x="333.569032" xlink:href="#mac25ff47f8" y="199.099019"/>
     <use style="fill-opacity:0;stroke:#000080;stroke-width:1.5;" x="364.009226" xlink:href="#mac25ff47f8" y="14.680716"/>
    </g>
   </g>
   <g id="line2d_53">
    <path d="M 333.569032 294.16 
L 333.569032 8.977057 
" style="fill:none;stroke:#000000;stroke-linecap:square;stroke-width:1.5;"/>
   </g>
   <g id="patch_3">
    <path d="M 56.84 294.16 
L 56.84 6.125228 
" style="fill:none;stroke:#000000;stroke-linecap:square;stroke-linejoin:miter;stroke-width:0.8;"/>
   </g>
   <g id="patch_4">
    <path d="M 399.984 294.16 
L 399.984 6.125228 
" style="fill:none;stroke:#000000;stroke-linecap:square;stroke-linejoin:miter;stroke-width:0.8;"/>
   </g>
   <g id="patch_5">
    <path d="M 56.84 294.16 
L 399.984 294.16 
" style="fill:none;stroke:#000000;stroke-linecap:square;stroke-linejoin:miter;stroke-width:0.8;"/>
   </g>
   <g id="patch_6">
    <path d="M 56.84 6.125228 
L 399.984 6.125228 
" style="fill:none;stroke:#000000;stroke-linecap:square;stroke-linejoin:miter;stroke-width:0.8;"/>
   </g>
   <g id="text_14">
    <!-- f2 -->
    <g transform="translate(369.543806 293.147279)scale(0.17 -0.17)">
     <use xlink:href="#DejaVuSans-66"/>
     <use x="35.205078" xlink:href="#DejaVuSans-32"/>
    </g>
   </g>
   <g id="text_15">
    <!-- f5 -->
    <defs>
     <path d="M 10.796875 72.90625 
L 49.515625 72.90625 
L 49.515625 64.59375 
L 19.828125 64.59375 
L 19.828125 46.734375 
Q 21.96875 47.46875 24.109375 47.828125 
Q 26.265625 48.1875 28.421875 48.1875 
Q 40.625 48.1875 47.75 41.5 
Q 54.890625 34.8125 54.890625 23.390625 
Q 54.890625 11.625 47.5625 5.09375 
Q 40.234375 -1.421875 26.90625 -1.421875 
Q 22.3125 -1.421875 17.546875 -0.640625 
Q 12.796875 0.140625 7.71875 1.703125 
L 7.71875 11.625 
Q 12.109375 9.234375 16.796875 8.0625 
Q 21.484375 6.890625 26.703125 6.890625 
Q 35.15625 6.890625 40.078125 11.328125 
Q 45.015625 15.765625 45.015625 23.390625 
Q 45.015625 31 40.078125 35.4375 
Q 35.15625 39.890625 26.703125 39.890625 
Q 22.75 39.890625 18.8125 39.015625 
Q 14.890625 38.140625 10.796875 36.28125 
z
" id="DejaVuSans-35"/>
    </defs>
    <g transform="translate(369.543806 224.703372)scale(0.17 -0.17)">
     <use xlink:href="#DejaVuSans-66"/>
     <use x="35.205078" xlink:href="#DejaVuSans-35"/>
    </g>
   </g>
   <g id="text_16">
    <!-- f4 -->
    <g transform="translate(369.543806 156.259466)scale(0.17 -0.17)">
     <use xlink:href="#DejaVuSans-66"/>
     <use x="35.205078" xlink:href="#DejaVuSans-34"/>
    </g>
   </g>
   <g id="text_17">
    <!-- f3 -->
    <defs>
     <path d="M 40.578125 39.3125 
Q 47.65625 37.796875 51.625 33 
Q 55.609375 28.21875 55.609375 21.1875 
Q 55.609375 10.40625 48.1875 4.484375 
Q 40.765625 -1.421875 27.09375 -1.421875 
Q 22.515625 -1.421875 17.65625 -0.515625 
Q 12.796875 0.390625 7.625 2.203125 
L 7.625 11.71875 
Q 11.71875 9.328125 16.59375 8.109375 
Q 21.484375 6.890625 26.8125 6.890625 
Q 36.078125 6.890625 40.9375 10.546875 
Q 45.796875 14.203125 45.796875 21.1875 
Q 45.796875 27.640625 41.28125 31.265625 
Q 36.765625 34.90625 28.71875 34.90625 
L 20.21875 34.90625 
L 20.21875 43.015625 
L 29.109375 43.015625 
Q 36.375 43.015625 40.234375 45.921875 
Q 44.09375 48.828125 44.09375 54.296875 
Q 44.09375 59.90625 40.109375 62.90625 
Q 36.140625 65.921875 28.71875 65.921875 
Q 24.65625 65.921875 20.015625 65.03125 
Q 15.375 64.15625 9.8125 62.3125 
L 9.8125 71.09375 
Q 15.4375 72.65625 20.34375 73.4375 
Q 25.25 74.21875 29.59375 74.21875 
Q 40.828125 74.21875 47.359375 69.109375 
Q 53.90625 64.015625 53.90625 55.328125 
Q 53.90625 49.265625 50.4375 45.09375 
Q 46.96875 40.921875 40.578125 39.3125 
z
" id="DejaVuSans-33"/>
    </defs>
    <g transform="translate(369.543806 87.81556)scale(0.17 -0.17)">
     <use xlink:href="#DejaVuSans-66"/>
     <use x="35.205078" xlink:href="#DejaVuSans-33"/>
    </g>
   </g>
   <g id="text_18">
    <!-- f1 -->
    <g transform="translate(369.543806 19.371654)scale(0.17 -0.17)">
     <use xlink:href="#DejaVuSans-66"/>
     <use x="35.205078" xlink:href="#DejaVuSans-31"/>
    </g>
   </g>
   <g id="text_19">
    <!-- bbob -->
    <defs>
     <path d="M 48.6875 27.296875 
Q 48.6875 37.203125 44.609375 42.84375 
Q 40.53125 48.484375 33.40625 48.484375 
Q 26.265625 48.484375 22.1875 42.84375 
Q 18.109375 37.203125 18.109375 27.296875 
Q 18.109375 17.390625 22.1875 11.75 
Q 26.265625 6.109375 33.40625 6.109375 
Q 40.53125 6.109375 44.609375 11.75 
Q 48.6875 17.390625 48.6875 27.296875 
z
M 18.109375 46.390625 
Q 20.953125 51.265625 25.265625 53.625 
Q 29.59375 56 35.59375 56 
Q 45.5625 56 51.78125 48.09375 
Q 58.015625 40.1875 58.015625 27.296875 
Q 58.015625 14.40625 51.78125 6.484375 
Q 45.5625 -1.421875 35.59375 -1.421875 
Q 29.59375 -1.421875 25.265625 0.953125 
Q 20.953125 3.328125 18.109375 8.203125 
L 18.109375 0 
L 9.078125 0 
L 9.078125 75.984375 
L 18.109375 75.984375 
z
" id="DejaVuSans-62"/>
    </defs>
    <g transform="translate(60.27144 16.755982)scale(0.102 -0.102)">
     <use xlink:href="#DejaVuSans-62"/>
     <use x="63.476562" xlink:href="#DejaVuSans-62"/>
     <use x="126.953125" xlink:href="#DejaVuSans-6f"/>
     <use x="188.134766" xlink:href="#DejaVuSans-62"/>
    </g>
    <!-- Separable functions, 5-D -->
    <defs>
     <path d="M 53.515625 70.515625 
L 53.515625 60.890625 
Q 47.90625 63.578125 42.921875 64.890625 
Q 37.9375 66.21875 33.296875 66.21875 
Q 25.25 66.21875 20.875 63.09375 
Q 16.5 59.96875 16.5 54.203125 
Q 16.5 49.359375 19.40625 46.890625 
Q 22.3125 44.4375 30.421875 42.921875 
L 36.375 41.703125 
Q 47.40625 39.59375 52.65625 34.296875 
Q 57.90625 29 57.90625 20.125 
Q 57.90625 9.515625 50.796875 4.046875 
Q 43.703125 -1.421875 29.984375 -1.421875 
Q 24.8125 -1.421875 18.96875 -0.25 
Q 13.140625 0.921875 6.890625 3.21875 
L 6.890625 13.375 
Q 12.890625 10.015625 18.65625 8.296875 
Q 24.421875 6.59375 29.984375 6.59375 
Q 38.421875 6.59375 43.015625 9.90625 
Q 47.609375 13.234375 47.609375 19.390625 
Q 47.609375 24.75 44.3125 27.78125 
Q 41.015625 30.8125 33.5 32.328125 
L 27.484375 33.5 
Q 16.453125 35.6875 11.515625 40.375 
Q 6.59375 45.0625 6.59375 53.421875 
Q 6.59375 63.09375 13.40625 68.65625 
Q 20.21875 74.21875 32.171875 74.21875 
Q 37.3125 74.21875 42.625 73.28125 
Q 47.953125 72.359375 53.515625 70.515625 
z
" id="DejaVuSans-53"/>
     <path d="M 19.671875 64.796875 
L 19.671875 8.109375 
L 31.59375 8.109375 
Q 46.6875 8.109375 53.6875 14.9375 
Q 60.6875 21.78125 60.6875 36.53125 
Q 60.6875 51.171875 53.6875 57.984375 
Q 46.6875 64.796875 31.59375 64.796875 
z
M 9.8125 72.90625 
L 30.078125 72.90625 
Q 51.265625 72.90625 61.171875 64.09375 
Q 71.09375 55.28125 71.09375 36.53125 
Q 71.09375 17.671875 61.125 8.828125 
Q 51.171875 0 30.078125 0 
L 9.8125 0 
z
" id="DejaVuSans-44"/>
    </defs>
    <g transform="translate(60.27144 28.17775)scale(0.102 -0.102)">
     <use xlink:href="#DejaVuSans-53"/>
     <use x="63.476562" xlink:href="#DejaVuSans-65"/>
     <use x="125" xlink:href="#DejaVuSans-70"/>
     <use x="188.476562" xlink:href="#DejaVuSans-61"/>
     <use x="249.755859" xlink:href="#DejaVuSans-72"/>
     <use x="290.869141" xlink:href="#DejaVuSans-61"/>
     <use x="352.148438" xlink:href="#DejaVuSans-62"/>
     <use x="415.625" xlink:href="#DejaVuSans-6c"/>
     <use x="443.408203" xlink:href="#DejaVuSans-65"/>
     <use x="504.931641" xlink:href="#DejaVuSans-20"/>
     <use x="536.71875" xlink:href="#DejaVuSans-66"/>
     <use x="571.923828" xlink:href="#DejaVuSans-75"/>
     <use x="635.302734" xlink:href="#DejaVuSans-6e"/>
     <use x="698.681641" xlink:href="#DejaVuSans-63"/>
     <use x="753.662109" xlink:href="#DejaVuSans-74"/>
     <use x="792.871094" xlink:href="#DejaVuSans-69"/>
     <use x="820.654297" xlink:href="#DejaVuSans-6f"/>
     <use x="881.835938" xlink:href="#DejaVuSans-6e"/>
     <use x="945.214844" xlink:href="#DejaVuSans-73"/>
     <use x="997.314453" xlink:href="#DejaVuSans-2c"/>
     <use x="1029.101562" xlink:href="#DejaVuSans-20"/>
     <use x="1060.888672" xlink:href="#DejaVuSans-35"/>
     <use x="1124.511719" xlink:href="#DejaVuSans-2d"/>
     <use x="1160.595703" xlink:href="#DejaVuSans-44"/>
    </g>
    <!-- 51 targets: 100..1e-08 -->
    <defs>
     <path d="M 11.71875 12.40625 
L 22.015625 12.40625 
L 22.015625 0 
L 11.71875 0 
z
M 11.71875 51.703125 
L 22.015625 51.703125 
L 22.015625 39.3125 
L 11.71875 39.3125 
z
" id="DejaVuSans-3a"/>
    </defs>
    <g transform="translate(60.27144 39.599519)scale(0.102 -0.102)">
     <use xlink:href="#DejaVuSans-35"/>
     <use x="63.623047" xlink:href="#DejaVuSans-31"/>
     <use x="127.246094" xlink:href="#DejaVuSans-20"/>
     <use x="159.033203" xlink:href="#DejaVuSans-74"/>
     <use x="198.242188" xlink:href="#DejaVuSans-61"/>
     <use x="259.521484" xlink:href="#DejaVuSans-72"/>
     <use x="300.619141" xlink:href="#DejaVuSans-67"/>
     <use x="364.095703" xlink:href="#DejaVuSans-65"/>
     <use x="425.619141" xlink:href="#DejaVuSans-74"/>
     <use x="464.828125" xlink:href="#DejaVuSans-73"/>
     <use x="516.927734" xlink:href="#DejaVuSans-3a"/>
     <use x="550.619141" xlink:href="#DejaVuSans-20"/>
     <use x="582.40625" xlink:href="#DejaVuSans-31"/>
     <use x="646.029297" xlink:href="#DejaVuSans-30"/>
     <use x="709.652344" xlink:href="#DejaVuSans-30"/>
     <use x="773.275391" xlink:href="#DejaVuSans-2e"/>
     <use x="805.0625" xlink:href="#DejaVuSans-2e"/>
     <use x="836.849609" xlink:href="#DejaVuSans-31"/>
     <use x="900.472656" xlink:href="#DejaVuSans-65"/>
     <use x="961.996094" xlink:href="#DejaVuSans-2d"/>
     <use x="998.080078" xlink:href="#DejaVuSans-30"/>
     <use x="1061.703125" xlink:href="#DejaVuSans-38"/>
    </g>
    <!-- 30 instances -->
    <g transform="translate(60.27144 51.021288)scale(0.102 -0.102)">
     <use xlink:href="#DejaVuSans-33"/>
     <use x="63.623047" xlink:href="#DejaVuSans-30"/>
     <use x="127.246094" xlink:href="#DejaVuSans-20"/>
     <use x="159.033203" xlink:href="#DejaVuSans-69"/>
     <use x="186.816406" xlink:href="#DejaVuSans-6e"/>
     <use x="250.195312" xlink:href="#DejaVuSans-73"/>
     <use x="302.294922" xlink:href="#DejaVuSans-74"/>
     <use x="341.503906" xlink:href="#DejaVuSans-61"/>
     <use x="402.783203" xlink:href="#DejaVuSans-6e"/>
     <use x="466.162109" xlink:href="#DejaVuSans-63"/>
     <use x="521.142578" xlink:href="#DejaVuSans-65"/>
     <use x="582.666016" xlink:href="#DejaVuSans-73"/>
    </g>
   </g>
   <g id="text_20">
    <!-- v2.2.1.10 -->
    <g style="fill:#808080;" transform="translate(204.779188 289.199965)scale(0.1 -0.1)">
     <use xlink:href="#DejaVuSans-76"/>
     <use x="59.179688" xlink:href="#DejaVuSans-32"/>
     <use x="122.802734" xlink:href="#DejaVuSans-2e"/>
     <use x="154.589844" xlink:href="#DejaVuSans-32"/>
     <use x="218.212891" xlink:href="#DejaVuSans-2e"/>
     <use x="250" xlink:href="#DejaVuSans-31"/>
     <use x="313.623047" xlink:href="#DejaVuSans-2e"/>
     <use x="345.410156" xlink:href="#DejaVuSans-31"/>
     <use x="409.033203" xlink:href="#DejaVuSans-30"/>
    </g>
   </g>
  </g>
 </g>
 <defs>
  <clipPath id="p0ed185029d">
   <rect height="288.034772" width="343.144" x="56.84" y="6.125228"/>
  </clipPath>
 </defs>
</svg>
