<?xml version="1.0" encoding="utf-8" standalone="no"?>
<!DOCTYPE svg PUBLIC "-//W3C//DTD SVG 1.1//EN"
  "http://www.w3.org/Graphics/SVG/1.1/DTD/svg11.dtd">
<!-- Created with matplotlib (http://matplotlib.org/) -->
<svg height="345.6pt" version="1.1" viewBox="0 0 460.8 345.6" width="460.8pt" xmlns="http://www.w3.org/2000/svg" xmlns:xlink="http://www.w3.org/1999/xlink">
 <defs>
  <style type="text/css">
*{stroke-linecap:butt;stroke-linejoin:round;}
  </style>
 </defs>
 <g id="figure_1">
  <g id="patch_1">
   <path d="M 0 345.6 
L 460.8 345.6 
L 460.8 0 
L 0 0 
z
" style="fill:#ffffff;"/>
  </g>
  <g id="axes_1">
   <g id="patch_2">
    <path d="M 56.84 294.16 
L 399.984 294.16 
L 399.984 24.84 
L 56.84 24.84 
z
" style="fill:#ffffff;"/>
   </g>
   <g id="matplotlib.axis_1">
    <g id="xtick_1">
     <g id="line2d_1">
      <path clip-path="url(#p35538b8693)" d="M 56.84 294.16 
L 56.84 24.84 
" style="fill:none;stroke:#b0b0b0;stroke-linecap:square;stroke-width:0.8;"/>
     </g>
     <g id="line2d_2">
      <defs>
       <path d="M 0 0 
L 0 3.5 
" id="me689bfd25a" style="stroke:#000000;stroke-width:0.8;"/>
      </defs>
      <g>
       <use style="stroke:#000000;stroke-width:0.8;" x="56.84" xlink:href="#me689bfd25a" y="294.16"/>
      </g>
     </g>
     <g id="text_1">
      <!-- 0 -->
      <defs>
       <path d="M 31.78125 66.40625 
Q 24.171875 66.40625 20.328125 58.90625 
Q 16.5 51.421875 16.5 36.375 
Q 16.5 21.390625 20.328125 13.890625 
Q 24.171875 6.390625 31.78125 6.390625 
Q 39.453125 6.390625 43.28125 13.890625 
Q 47.125 21.390625 47.125 36.375 
Q 47.125 51.421875 43.28125 58.90625 
Q 39.453125 66.40625 31.78125 66.40625 
z
M 31.78125 74.21875 
Q 44.046875 74.21875 50.515625 64.515625 
Q 56.984375 54.828125 56.984375 36.375 
Q 56.984375 17.96875 50.515625 8.265625 
Q 44.046875 -1.421875 31.78125 -1.421875 
Q 19.53125 -1.421875 13.0625 8.265625 
Q 6.59375 17.96875 6.59375 36.375 
Q 6.59375 54.828125 13.0625 64.515625 
Q 19.53125 74.21875 31.78125 74.21875 
z
" id="DejaVuSans-30"/>
      </defs>
      <g transform="translate(50.4775 316.356875)scale(0.2 -0.2)">
       <use xlink:href="#DejaVuSans-30"/>
      </g>
     </g>
    </g>
    <g id="xtick_2">
     <g id="line2d_3">
      <path clip-path="url(#p35538b8693)" d="M 135.905438 294.16 
L 135.905438 24.84 
" style="fill:none;stroke:#b0b0b0;stroke-linecap:square;stroke-width:0.8;"/>
     </g>
     <g id="line2d_4">
      <g>
       <use style="stroke:#000000;stroke-width:0.8;" x="135.905438" xlink:href="#me689bfd25a" y="294.16"/>
      </g>
     </g>
     <g id="text_2">
      <!-- 2 -->
      <defs>
       <path d="M 19.1875 8.296875 
L 53.609375 8.296875 
L 53.609375 0 
L 7.328125 0 
L 7.328125 8.296875 
Q 12.9375 14.109375 22.625 23.890625 
Q 32.328125 33.6875 34.8125 36.53125 
Q 39.546875 41.84375 41.421875 45.53125 
Q 43.3125 49.21875 43.3125 52.78125 
Q 43.3125 58.59375 39.234375 62.25 
Q 35.15625 65.921875 28.609375 65.921875 
Q 23.96875 65.921875 18.8125 64.3125 
Q 13.671875 62.703125 7.8125 59.421875 
L 7.8125 69.390625 
Q 13.765625 71.78125 18.9375 73 
Q 24.125 74.21875 28.421875 74.21875 
Q 39.75 74.21875 46.484375 68.546875 
Q 53.21875 62.890625 53.21875 53.421875 
Q 53.21875 48.921875 51.53125 44.890625 
Q 49.859375 40.875 45.40625 35.40625 
Q 44.1875 33.984375 37.640625 27.21875 
Q 31.109375 20.453125 19.1875 8.296875 
z
" id="DejaVuSans-32"/>
      </defs>
      <g transform="translate(129.542938 316.356875)scale(0.2 -0.2)">
       <use xlink:href="#DejaVuSans-32"/>
      </g>
     </g>
    </g>
    <g id="xtick_3">
     <g id="line2d_5">
      <path clip-path="url(#p35538b8693)" d="M 214.970876 294.16 
L 214.970876 24.84 
" style="fill:none;stroke:#b0b0b0;stroke-linecap:square;stroke-width:0.8;"/>
     </g>
     <g id="line2d_6">
      <g>
       <use style="stroke:#000000;stroke-width:0.8;" x="214.970876" xlink:href="#me689bfd25a" y="294.16"/>
      </g>
     </g>
     <g id="text_3">
      <!-- 4 -->
      <defs>
       <path d="M 37.796875 64.3125 
L 12.890625 25.390625 
L 37.796875 25.390625 
z
M 35.203125 72.90625 
L 47.609375 72.90625 
L 47.609375 25.390625 
L 58.015625 25.390625 
L 58.015625 17.1875 
L 47.609375 17.1875 
L 47.609375 0 
L 37.796875 0 
L 37.796875 17.1875 
L 4.890625 17.1875 
L 4.890625 26.703125 
z
" id="DejaVuSans-34"/>
      </defs>
      <g transform="translate(208.608376 316.356875)scale(0.2 -0.2)">
       <use xlink:href="#DejaVuSans-34"/>
      </g>
     </g>
    </g>
    <g id="xtick_4">
     <g id="line2d_7">
      <path clip-path="url(#p35538b8693)" d="M 294.036313 294.16 
L 294.036313 24.84 
" style="fill:none;stroke:#b0b0b0;stroke-linecap:square;stroke-width:0.8;"/>
     </g>
     <g id="line2d_8">
      <g>
       <use style="stroke:#000000;stroke-width:0.8;" x="294.036313" xlink:href="#me689bfd25a" y="294.16"/>
      </g>
     </g>
     <g id="text_4">
      <!-- 6 -->
      <defs>
       <path d="M 33.015625 40.375 
Q 26.375 40.375 22.484375 35.828125 
Q 18.609375 31.296875 18.609375 23.390625 
Q 18.609375 15.53125 22.484375 10.953125 
Q 26.375 6.390625 33.015625 6.390625 
Q 39.65625 6.390625 43.53125 10.953125 
Q 47.40625 15.53125 47.40625 23.390625 
Q 47.40625 31.296875 43.53125 35.828125 
Q 39.65625 40.375 33.015625 40.375 
z
M 52.59375 71.296875 
L 52.59375 62.3125 
Q 48.875 64.0625 45.09375 64.984375 
Q 41.3125 65.921875 37.59375 65.921875 
Q 27.828125 65.921875 22.671875 59.328125 
Q 17.53125 52.734375 16.796875 39.40625 
Q 19.671875 43.65625 24.015625 45.921875 
Q 28.375 48.1875 33.59375 48.1875 
Q 44.578125 48.1875 50.953125 41.515625 
Q 57.328125 34.859375 57.328125 23.390625 
Q 57.328125 12.15625 50.6875 5.359375 
Q 44.046875 -1.421875 33.015625 -1.421875 
Q 20.359375 -1.421875 13.671875 8.265625 
Q 6.984375 17.96875 6.984375 36.375 
Q 6.984375 53.65625 15.1875 63.9375 
Q 23.390625 74.21875 37.203125 74.21875 
Q 40.921875 74.21875 44.703125 73.484375 
Q 48.484375 72.75 52.59375 71.296875 
z
" id="DejaVuSans-36"/>
      </defs>
      <g transform="translate(287.673813 316.356875)scale(0.2 -0.2)">
       <use xlink:href="#DejaVuSans-36"/>
      </g>
     </g>
    </g>
    <g id="xtick_5">
     <g id="line2d_9">
      <path clip-path="url(#p35538b8693)" d="M 373.101751 294.16 
L 373.101751 24.84 
" style="fill:none;stroke:#b0b0b0;stroke-linecap:square;stroke-width:0.8;"/>
     </g>
     <g id="line2d_10">
      <g>
       <use style="stroke:#000000;stroke-width:0.8;" x="373.101751" xlink:href="#me689bfd25a" y="294.16"/>
      </g>
     </g>
     <g id="text_5">
      <!-- 8 -->
      <defs>
       <path d="M 31.78125 34.625 
Q 24.75 34.625 20.71875 30.859375 
Q 16.703125 27.09375 16.703125 20.515625 
Q 16.703125 13.921875 20.71875 10.15625 
Q 24.75 6.390625 31.78125 6.390625 
Q 38.8125 6.390625 42.859375 10.171875 
Q 46.921875 13.96875 46.921875 20.515625 
Q 46.921875 27.09375 42.890625 30.859375 
Q 38.875 34.625 31.78125 34.625 
z
M 21.921875 38.8125 
Q 15.578125 40.375 12.03125 44.71875 
Q 8.5 49.078125 8.5 55.328125 
Q 8.5 64.0625 14.71875 69.140625 
Q 20.953125 74.21875 31.78125 74.21875 
Q 42.671875 74.21875 48.875 69.140625 
Q 55.078125 64.0625 55.078125 55.328125 
Q 55.078125 49.078125 51.53125 44.71875 
Q 48 40.375 41.703125 38.8125 
Q 48.828125 37.15625 52.796875 32.3125 
Q 56.78125 27.484375 56.78125 20.515625 
Q 56.78125 9.90625 50.3125 4.234375 
Q 43.84375 -1.421875 31.78125 -1.421875 
Q 19.734375 -1.421875 13.25 4.234375 
Q 6.78125 9.90625 6.78125 20.515625 
Q 6.78125 27.484375 10.78125 32.3125 
Q 14.796875 37.15625 21.921875 38.8125 
z
M 18.3125 54.390625 
Q 18.3125 48.734375 21.84375 45.5625 
Q 25.390625 42.390625 31.78125 42.390625 
Q 38.140625 42.390625 41.71875 45.5625 
Q 45.3125 48.734375 45.3125 54.390625 
Q 45.3125 60.0625 41.71875 63.234375 
Q 38.140625 66.40625 31.78125 66.40625 
Q 25.390625 66.40625 21.84375 63.234375 
Q 18.3125 60.0625 18.3125 54.390625 
z
" id="DejaVuSans-38"/>
      </defs>
      <g transform="translate(366.739251 316.356875)scale(0.2 -0.2)">
       <use xlink:href="#DejaVuSans-38"/>
      </g>
     </g>
    </g>
    <g id="text_6">
     <!-- log10(# f-evals / dimension) -->
     <defs>
      <path d="M 9.421875 75.984375 
L 18.40625 75.984375 
L 18.40625 0 
L 9.421875 0 
z
" id="DejaVuSans-6c"/>
      <path d="M 30.609375 48.390625 
Q 23.390625 48.390625 19.1875 42.75 
Q 14.984375 37.109375 14.984375 27.296875 
Q 14.984375 17.484375 19.15625 11.84375 
Q 23.34375 6.203125 30.609375 6.203125 
Q 37.796875 6.203125 41.984375 11.859375 
Q 46.1875 17.53125 46.1875 27.296875 
Q 46.1875 37.015625 41.984375 42.703125 
Q 37.796875 48.390625 30.609375 48.390625 
z
M 30.609375 56 
Q 42.328125 56 49.015625 48.375 
Q 55.71875 40.765625 55.71875 27.296875 
Q 55.71875 13.875 49.015625 6.21875 
Q 42.328125 -1.421875 30.609375 -1.421875 
Q 18.84375 -1.421875 12.171875 6.21875 
Q 5.515625 13.875 5.515625 27.296875 
Q 5.515625 40.765625 12.171875 48.375 
Q 18.84375 56 30.609375 56 
z
" id="DejaVuSans-6f"/>
      <path d="M 45.40625 27.984375 
Q 45.40625 37.75 41.375 43.109375 
Q 37.359375 48.484375 30.078125 48.484375 
Q 22.859375 48.484375 18.828125 43.109375 
Q 14.796875 37.75 14.796875 27.984375 
Q 14.796875 18.265625 18.828125 12.890625 
Q 22.859375 7.515625 30.078125 7.515625 
Q 37.359375 7.515625 41.375 12.890625 
Q 45.40625 18.265625 45.40625 27.984375 
z
M 54.390625 6.78125 
Q 54.390625 -7.171875 48.1875 -13.984375 
Q 42 -20.796875 29.203125 -20.796875 
Q 24.46875 -20.796875 20.265625 -20.09375 
Q 16.0625 -19.390625 12.109375 -17.921875 
L 12.109375 -9.1875 
Q 16.0625 -11.328125 19.921875 -12.34375 
Q 23.78125 -13.375 27.78125 -13.375 
Q 36.625 -13.375 41.015625 -8.765625 
Q 45.40625 -4.15625 45.40625 5.171875 
L 45.40625 9.625 
Q 42.625 4.78125 38.28125 2.390625 
Q 33.9375 0 27.875 0 
Q 17.828125 0 11.671875 7.65625 
Q 5.515625 15.328125 5.515625 27.984375 
Q 5.515625 40.671875 11.671875 48.328125 
Q 17.828125 56 27.875 56 
Q 33.9375 56 38.28125 53.609375 
Q 42.625 51.21875 45.40625 46.390625 
L 45.40625 54.6875 
L 54.390625 54.6875 
z
" id="DejaVuSans-67"/>
      <path d="M 12.40625 8.296875 
L 28.515625 8.296875 
L 28.515625 63.921875 
L 10.984375 60.40625 
L 10.984375 69.390625 
L 28.421875 72.90625 
L 38.28125 72.90625 
L 38.28125 8.296875 
L 54.390625 8.296875 
L 54.390625 0 
L 12.40625 0 
z
" id="DejaVuSans-31"/>
      <path d="M 31 75.875 
Q 24.46875 64.65625 21.28125 53.65625 
Q 18.109375 42.671875 18.109375 31.390625 
Q 18.109375 20.125 21.3125 9.0625 
Q 24.515625 -2 31 -13.1875 
L 23.1875 -13.1875 
Q 15.875 -1.703125 12.234375 9.375 
Q 8.59375 20.453125 8.59375 31.390625 
Q 8.59375 42.28125 12.203125 53.3125 
Q 15.828125 64.359375 23.1875 75.875 
z
" id="DejaVuSans-28"/>
      <path d="M 51.125 44 
L 36.921875 44 
L 32.8125 27.6875 
L 47.125 27.6875 
z
M 43.796875 71.78125 
L 38.71875 51.515625 
L 52.984375 51.515625 
L 58.109375 71.78125 
L 65.921875 71.78125 
L 60.890625 51.515625 
L 76.125 51.515625 
L 76.125 44 
L 58.984375 44 
L 54.984375 27.6875 
L 70.515625 27.6875 
L 70.515625 20.21875 
L 53.078125 20.21875 
L 48 0 
L 40.1875 0 
L 45.21875 20.21875 
L 30.90625 20.21875 
L 25.875 0 
L 18.015625 0 
L 23.09375 20.21875 
L 7.71875 20.21875 
L 7.71875 27.6875 
L 24.90625 27.6875 
L 29 44 
L 13.28125 44 
L 13.28125 51.515625 
L 30.90625 51.515625 
L 35.890625 71.78125 
z
" id="DejaVuSans-23"/>
      <path id="DejaVuSans-20"/>
      <path d="M 37.109375 75.984375 
L 37.109375 68.5 
L 28.515625 68.5 
Q 23.6875 68.5 21.796875 66.546875 
Q 19.921875 64.59375 19.921875 59.515625 
L 19.921875 54.6875 
L 34.71875 54.6875 
L 34.71875 47.703125 
L 19.921875 47.703125 
L 19.921875 0 
L 10.890625 0 
L 10.890625 47.703125 
L 2.296875 47.703125 
L 2.296875 54.6875 
L 10.890625 54.6875 
L 10.890625 58.5 
Q 10.890625 67.625 15.140625 71.796875 
Q 19.390625 75.984375 28.609375 75.984375 
z
" id="DejaVuSans-66"/>
      <path d="M 4.890625 31.390625 
L 31.203125 31.390625 
L 31.203125 23.390625 
L 4.890625 23.390625 
z
" id="DejaVuSans-2d"/>
      <path d="M 56.203125 29.59375 
L 56.203125 25.203125 
L 14.890625 25.203125 
Q 15.484375 15.921875 20.484375 11.0625 
Q 25.484375 6.203125 34.421875 6.203125 
Q 39.59375 6.203125 44.453125 7.46875 
Q 49.3125 8.734375 54.109375 11.28125 
L 54.109375 2.78125 
Q 49.265625 0.734375 44.1875 -0.34375 
Q 39.109375 -1.421875 33.890625 -1.421875 
Q 20.796875 -1.421875 13.15625 6.1875 
Q 5.515625 13.8125 5.515625 26.8125 
Q 5.515625 40.234375 12.765625 48.109375 
Q 20.015625 56 32.328125 56 
Q 43.359375 56 49.78125 48.890625 
Q 56.203125 41.796875 56.203125 29.59375 
z
M 47.21875 32.234375 
Q 47.125 39.59375 43.09375 43.984375 
Q 39.0625 48.390625 32.421875 48.390625 
Q 24.90625 48.390625 20.390625 44.140625 
Q 15.875 39.890625 15.1875 32.171875 
z
" id="DejaVuSans-65"/>
      <path d="M 2.984375 54.6875 
L 12.5 54.6875 
L 29.59375 8.796875 
L 46.6875 54.6875 
L 56.203125 54.6875 
L 35.6875 0 
L 23.484375 0 
z
" id="DejaVuSans-76"/>
      <path d="M 34.28125 27.484375 
Q 23.390625 27.484375 19.1875 25 
Q 14.984375 22.515625 14.984375 16.5 
Q 14.984375 11.71875 18.140625 8.90625 
Q 21.296875 6.109375 26.703125 6.109375 
Q 34.1875 6.109375 38.703125 11.40625 
Q 43.21875 16.703125 43.21875 25.484375 
L 43.21875 27.484375 
z
M 52.203125 31.203125 
L 52.203125 0 
L 43.21875 0 
L 43.21875 8.296875 
Q 40.140625 3.328125 35.546875 0.953125 
Q 30.953125 -1.421875 24.3125 -1.421875 
Q 15.921875 -1.421875 10.953125 3.296875 
Q 6 8.015625 6 15.921875 
Q 6 25.140625 12.171875 29.828125 
Q 18.359375 34.515625 30.609375 34.515625 
L 43.21875 34.515625 
L 43.21875 35.40625 
Q 43.21875 41.609375 39.140625 45 
Q 35.0625 48.390625 27.6875 48.390625 
Q 23 48.390625 18.546875 47.265625 
Q 14.109375 46.140625 10.015625 43.890625 
L 10.015625 52.203125 
Q 14.9375 54.109375 19.578125 55.046875 
Q 24.21875 56 28.609375 56 
Q 40.484375 56 46.34375 49.84375 
Q 52.203125 43.703125 52.203125 31.203125 
z
" id="DejaVuSans-61"/>
      <path d="M 44.28125 53.078125 
L 44.28125 44.578125 
Q 40.484375 46.53125 36.375 47.5 
Q 32.28125 48.484375 27.875 48.484375 
Q 21.1875 48.484375 17.84375 46.4375 
Q 14.5 44.390625 14.5 40.28125 
Q 14.5 37.15625 16.890625 35.375 
Q 19.28125 33.59375 26.515625 31.984375 
L 29.59375 31.296875 
Q 39.15625 29.25 43.1875 25.515625 
Q 47.21875 21.78125 47.21875 15.09375 
Q 47.21875 7.46875 41.1875 3.015625 
Q 35.15625 -1.421875 24.609375 -1.421875 
Q 20.21875 -1.421875 15.453125 -0.5625 
Q 10.6875 0.296875 5.421875 2 
L 5.421875 11.28125 
Q 10.40625 8.6875 15.234375 7.390625 
Q 20.0625 6.109375 24.8125 6.109375 
Q 31.15625 6.109375 34.5625 8.28125 
Q 37.984375 10.453125 37.984375 14.40625 
Q 37.984375 18.0625 35.515625 20.015625 
Q 33.0625 21.96875 24.703125 23.78125 
L 21.578125 24.515625 
Q 13.234375 26.265625 9.515625 29.90625 
Q 5.8125 33.546875 5.8125 39.890625 
Q 5.8125 47.609375 11.28125 51.796875 
Q 16.75 56 26.8125 56 
Q 31.78125 56 36.171875 55.265625 
Q 40.578125 54.546875 44.28125 53.078125 
z
" id="DejaVuSans-73"/>
      <path d="M 25.390625 72.90625 
L 33.6875 72.90625 
L 8.296875 -9.28125 
L 0 -9.28125 
z
" id="DejaVuSans-2f"/>
      <path d="M 45.40625 46.390625 
L 45.40625 75.984375 
L 54.390625 75.984375 
L 54.390625 0 
L 45.40625 0 
L 45.40625 8.203125 
Q 42.578125 3.328125 38.25 0.953125 
Q 33.9375 -1.421875 27.875 -1.421875 
Q 17.96875 -1.421875 11.734375 6.484375 
Q 5.515625 14.40625 5.515625 27.296875 
Q 5.515625 40.1875 11.734375 48.09375 
Q 17.96875 56 27.875 56 
Q 33.9375 56 38.25 53.625 
Q 42.578125 51.265625 45.40625 46.390625 
z
M 14.796875 27.296875 
Q 14.796875 17.390625 18.875 11.75 
Q 22.953125 6.109375 30.078125 6.109375 
Q 37.203125 6.109375 41.296875 11.75 
Q 45.40625 17.390625 45.40625 27.296875 
Q 45.40625 37.203125 41.296875 42.84375 
Q 37.203125 48.484375 30.078125 48.484375 
Q 22.953125 48.484375 18.875 42.84375 
Q 14.796875 37.203125 14.796875 27.296875 
z
" id="DejaVuSans-64"/>
      <path d="M 9.421875 54.6875 
L 18.40625 54.6875 
L 18.40625 0 
L 9.421875 0 
z
M 9.421875 75.984375 
L 18.40625 75.984375 
L 18.40625 64.59375 
L 9.421875 64.59375 
z
" id="DejaVuSans-69"/>
      <path d="M 52 44.1875 
Q 55.375 50.25 60.0625 53.125 
Q 64.75 56 71.09375 56 
Q 79.640625 56 84.28125 50.015625 
Q 88.921875 44.046875 88.921875 33.015625 
L 88.921875 0 
L 79.890625 0 
L 79.890625 32.71875 
Q 79.890625 40.578125 77.09375 44.375 
Q 74.3125 48.1875 68.609375 48.1875 
Q 61.625 48.1875 57.5625 43.546875 
Q 53.515625 38.921875 53.515625 30.90625 
L 53.515625 0 
L 44.484375 0 
L 44.484375 32.71875 
Q 44.484375 40.625 41.703125 44.40625 
Q 38.921875 48.1875 33.109375 48.1875 
Q 26.21875 48.1875 22.15625 43.53125 
Q 18.109375 38.875 18.109375 30.90625 
L 18.109375 0 
L 9.078125 0 
L 9.078125 54.6875 
L 18.109375 54.6875 
L 18.109375 46.1875 
Q 21.1875 51.21875 25.484375 53.609375 
Q 29.78125 56 35.6875 56 
Q 41.65625 56 45.828125 52.96875 
Q 50 49.953125 52 44.1875 
z
" id="DejaVuSans-6d"/>
      <path d="M 54.890625 33.015625 
L 54.890625 0 
L 45.90625 0 
L 45.90625 32.71875 
Q 45.90625 40.484375 42.875 44.328125 
Q 39.84375 48.1875 33.796875 48.1875 
Q 26.515625 48.1875 22.3125 43.546875 
Q 18.109375 38.921875 18.109375 30.90625 
L 18.109375 0 
L 9.078125 0 
L 9.078125 54.6875 
L 18.109375 54.6875 
L 18.109375 46.1875 
Q 21.34375 51.125 25.703125 53.5625 
Q 30.078125 56 35.796875 56 
Q 45.21875 56 50.046875 50.171875 
Q 54.890625 44.34375 54.890625 33.015625 
z
" id="DejaVuSans-6e"/>
      <path d="M 8.015625 75.875 
L 15.828125 75.875 
Q 23.140625 64.359375 26.78125 53.3125 
Q 30.421875 42.28125 30.421875 31.390625 
Q 30.421875 20.453125 26.78125 9.375 
Q 23.140625 -1.703125 15.828125 -13.1875 
L 8.015625 -13.1875 
Q 14.5 -2 17.703125 9.0625 
Q 20.90625 20.125 20.90625 31.390625 
Q 20.90625 42.671875 17.703125 53.65625 
Q 14.5 64.65625 8.015625 75.875 
z
" id="DejaVuSans-29"/>
     </defs>
     <g transform="translate(107.571219 337.433594)scale(0.17 -0.17)">
      <use xlink:href="#DejaVuSans-6c"/>
      <use x="27.783203" xlink:href="#DejaVuSans-6f"/>
      <use x="88.964844" xlink:href="#DejaVuSans-67"/>
      <use x="152.441406" xlink:href="#DejaVuSans-31"/>
      <use x="216.064453" xlink:href="#DejaVuSans-30"/>
      <use x="279.6875" xlink:href="#DejaVuSans-28"/>
      <use x="318.701172" xlink:href="#DejaVuSans-23"/>
      <use x="402.490234" xlink:href="#DejaVuSans-20"/>
      <use x="434.277344" xlink:href="#DejaVuSans-66"/>
      <use x="469.404297" xlink:href="#DejaVuSans-2d"/>
      <use x="505.488281" xlink:href="#DejaVuSans-65"/>
      <use x="567.011719" xlink:href="#DejaVuSans-76"/>
      <use x="626.191406" xlink:href="#DejaVuSans-61"/>
      <use x="687.470703" xlink:href="#DejaVuSans-6c"/>
      <use x="715.253906" xlink:href="#DejaVuSans-73"/>
      <use x="767.353516" xlink:href="#DejaVuSans-20"/>
      <use x="799.140625" xlink:href="#DejaVuSans-2f"/>
      <use x="832.832031" xlink:href="#DejaVuSans-20"/>
      <use x="864.619141" xlink:href="#DejaVuSans-64"/>
      <use x="928.095703" xlink:href="#DejaVuSans-69"/>
      <use x="955.878906" xlink:href="#DejaVuSans-6d"/>
      <use x="1053.291016" xlink:href="#DejaVuSans-65"/>
      <use x="1114.814453" xlink:href="#DejaVuSans-6e"/>
      <use x="1178.193359" xlink:href="#DejaVuSans-73"/>
      <use x="1230.292969" xlink:href="#DejaVuSans-69"/>
      <use x="1258.076172" xlink:href="#DejaVuSans-6f"/>
      <use x="1319.257812" xlink:href="#DejaVuSans-6e"/>
      <use x="1382.636719" xlink:href="#DejaVuSans-29"/>
     </g>
    </g>
   </g>
   <g id="matplotlib.axis_2">
    <g id="ytick_1">
     <g id="line2d_11">
      <path clip-path="url(#p35538b8693)" d="M 56.84 294.16 
L 399.984 294.16 
" style="fill:none;stroke:#b0b0b0;stroke-linecap:square;stroke-width:0.8;"/>
     </g>
     <g id="line2d_12">
      <defs>
       <path d="M 0 0 
L -3.5 0 
" id="m5fa613956c" style="stroke:#000000;stroke-width:0.8;"/>
      </defs>
      <g>
       <use style="stroke:#000000;stroke-width:0.8;" x="56.84" xlink:href="#m5fa613956c" y="294.16"/>
      </g>
     </g>
     <g id="text_7">
      <!-- 0.0 -->
      <defs>
       <path d="M 10.6875 12.40625 
L 21 12.40625 
L 21 0 
L 10.6875 0 
z
" id="DejaVuSans-2e"/>
      </defs>
      <g transform="translate(24.395 300.23875)scale(0.16 -0.16)">
       <use xlink:href="#DejaVuSans-30"/>
       <use x="63.623047" xlink:href="#DejaVuSans-2e"/>
       <use x="95.410156" xlink:href="#DejaVuSans-30"/>
      </g>
     </g>
    </g>
    <g id="ytick_2">
     <g id="line2d_13">
      <path clip-path="url(#p35538b8693)" d="M 56.84 240.829307 
L 399.984 240.829307 
" style="fill:none;stroke:#b0b0b0;stroke-linecap:square;stroke-width:0.8;"/>
     </g>
     <g id="line2d_14">
      <g>
       <use style="stroke:#000000;stroke-width:0.8;" x="56.84" xlink:href="#m5fa613956c" y="240.829307"/>
      </g>
     </g>
     <g id="text_8">
      <!-- 0.2 -->
      <g transform="translate(24.395 246.908057)scale(0.16 -0.16)">
       <use xlink:href="#DejaVuSans-30"/>
       <use x="63.623047" xlink:href="#DejaVuSans-2e"/>
       <use x="95.410156" xlink:href="#DejaVuSans-32"/>
      </g>
     </g>
    </g>
    <g id="ytick_3">
     <g id="line2d_15">
      <path clip-path="url(#p35538b8693)" d="M 56.84 187.498614 
L 399.984 187.498614 
" style="fill:none;stroke:#b0b0b0;stroke-linecap:square;stroke-width:0.8;"/>
     </g>
     <g id="line2d_16">
      <g>
       <use style="stroke:#000000;stroke-width:0.8;" x="56.84" xlink:href="#m5fa613956c" y="187.498614"/>
      </g>
     </g>
     <g id="text_9">
      <!-- 0.4 -->
      <g transform="translate(24.395 193.577364)scale(0.16 -0.16)">
       <use xlink:href="#DejaVuSans-30"/>
       <use x="63.623047" xlink:href="#DejaVuSans-2e"/>
       <use x="95.410156" xlink:href="#DejaVuSans-34"/>
      </g>
     </g>
    </g>
    <g id="ytick_4">
     <g id="line2d_17">
      <path clip-path="url(#p35538b8693)" d="M 56.84 134.167921 
L 399.984 134.167921 
" style="fill:none;stroke:#b0b0b0;stroke-linecap:square;stroke-width:0.8;"/>
     </g>
     <g id="line2d_18">
      <g>
       <use style="stroke:#000000;stroke-width:0.8;" x="56.84" xlink:href="#m5fa613956c" y="134.167921"/>
      </g>
     </g>
     <g id="text_10">
      <!-- 0.6 -->
      <g transform="translate(24.395 140.246671)scale(0.16 -0.16)">
       <use xlink:href="#DejaVuSans-30"/>
       <use x="63.623047" xlink:href="#DejaVuSans-2e"/>
       <use x="95.410156" xlink:href="#DejaVuSans-36"/>
      </g>
     </g>
    </g>
    <g id="ytick_5">
     <g id="line2d_19">
      <path clip-path="url(#p35538b8693)" d="M 56.84 80.837228 
L 399.984 80.837228 
" style="fill:none;stroke:#b0b0b0;stroke-linecap:square;stroke-width:0.8;"/>
     </g>
     <g id="line2d_20">
      <g>
       <use style="stroke:#000000;stroke-width:0.8;" x="56.84" xlink:href="#m5fa613956c" y="80.837228"/>
      </g>
     </g>
     <g id="text_11">
      <!-- 0.8 -->
      <g transform="translate(24.395 86.915978)scale(0.16 -0.16)">
       <use xlink:href="#DejaVuSans-30"/>
       <use x="63.623047" xlink:href="#DejaVuSans-2e"/>
       <use x="95.410156" xlink:href="#DejaVuSans-38"/>
      </g>
     </g>
    </g>
    <g id="ytick_6">
     <g id="line2d_21">
      <path clip-path="url(#p35538b8693)" d="M 56.84 27.506535 
L 399.984 27.506535 
" style="fill:none;stroke:#b0b0b0;stroke-linecap:square;stroke-width:0.8;"/>
     </g>
     <g id="line2d_22">
      <g>
       <use style="stroke:#000000;stroke-width:0.8;" x="56.84" xlink:href="#m5fa613956c" y="27.506535"/>
      </g>
     </g>
     <g id="text_12">
      <!-- 1.0 -->
      <g transform="translate(24.395 33.585285)scale(0.16 -0.16)">
       <use xlink:href="#DejaVuSans-31"/>
       <use x="63.623047" xlink:href="#DejaVuSans-2e"/>
       <use x="95.410156" xlink:href="#DejaVuSans-30"/>
      </g>
     </g>
    </g>
    <g id="text_13">
     <!-- Fraction of function,target pairs -->
     <defs>
      <path d="M 9.8125 72.90625 
L 51.703125 72.90625 
L 51.703125 64.59375 
L 19.671875 64.59375 
L 19.671875 43.109375 
L 48.578125 43.109375 
L 48.578125 34.8125 
L 19.671875 34.8125 
L 19.671875 0 
L 9.8125 0 
z
" id="DejaVuSans-46"/>
      <path d="M 41.109375 46.296875 
Q 39.59375 47.171875 37.8125 47.578125 
Q 36.03125 48 33.890625 48 
Q 26.265625 48 22.1875 43.046875 
Q 18.109375 38.09375 18.109375 28.8125 
L 18.109375 0 
L 9.078125 0 
L 9.078125 54.6875 
L 18.109375 54.6875 
L 18.109375 46.1875 
Q 20.953125 51.171875 25.484375 53.578125 
Q 30.03125 56 36.53125 56 
Q 37.453125 56 38.578125 55.875 
Q 39.703125 55.765625 41.0625 55.515625 
z
" id="DejaVuSans-72"/>
      <path d="M 48.78125 52.59375 
L 48.78125 44.1875 
Q 44.96875 46.296875 41.140625 47.34375 
Q 37.3125 48.390625 33.40625 48.390625 
Q 24.65625 48.390625 19.8125 42.84375 
Q 14.984375 37.3125 14.984375 27.296875 
Q 14.984375 17.28125 19.8125 11.734375 
Q 24.65625 6.203125 33.40625 6.203125 
Q 37.3125 6.203125 41.140625 7.25 
Q 44.96875 8.296875 48.78125 10.40625 
L 48.78125 2.09375 
Q 45.015625 0.34375 40.984375 -0.53125 
Q 36.96875 -1.421875 32.421875 -1.421875 
Q 20.0625 -1.421875 12.78125 6.34375 
Q 5.515625 14.109375 5.515625 27.296875 
Q 5.515625 40.671875 12.859375 48.328125 
Q 20.21875 56 33.015625 56 
Q 37.15625 56 41.109375 55.140625 
Q 45.0625 54.296875 48.78125 52.59375 
z
" id="DejaVuSans-63"/>
      <path d="M 18.3125 70.21875 
L 18.3125 54.6875 
L 36.8125 54.6875 
L 36.8125 47.703125 
L 18.3125 47.703125 
L 18.3125 18.015625 
Q 18.3125 11.328125 20.140625 9.421875 
Q 21.96875 7.515625 27.59375 7.515625 
L 36.8125 7.515625 
L 36.8125 0 
L 27.59375 0 
Q 17.1875 0 13.234375 3.875 
Q 9.28125 7.765625 9.28125 18.015625 
L 9.28125 47.703125 
L 2.6875 47.703125 
L 2.6875 54.6875 
L 9.28125 54.6875 
L 9.28125 70.21875 
z
" id="DejaVuSans-74"/>
      <path d="M 8.5 21.578125 
L 8.5 54.6875 
L 17.484375 54.6875 
L 17.484375 21.921875 
Q 17.484375 14.15625 20.5 10.265625 
Q 23.53125 6.390625 29.59375 6.390625 
Q 36.859375 6.390625 41.078125 11.03125 
Q 45.3125 15.671875 45.3125 23.6875 
L 45.3125 54.6875 
L 54.296875 54.6875 
L 54.296875 0 
L 45.3125 0 
L 45.3125 8.40625 
Q 42.046875 3.421875 37.71875 1 
Q 33.40625 -1.421875 27.6875 -1.421875 
Q 18.265625 -1.421875 13.375 4.4375 
Q 8.5 10.296875 8.5 21.578125 
z
M 31.109375 56 
z
" id="DejaVuSans-75"/>
      <path d="M 11.71875 12.40625 
L 22.015625 12.40625 
L 22.015625 4 
L 14.015625 -11.625 
L 7.71875 -11.625 
L 11.71875 4 
z
" id="DejaVuSans-2c"/>
      <path d="M 18.109375 8.203125 
L 18.109375 -20.796875 
L 9.078125 -20.796875 
L 9.078125 54.6875 
L 18.109375 54.6875 
L 18.109375 46.390625 
Q 20.953125 51.265625 25.265625 53.625 
Q 29.59375 56 35.59375 56 
Q 45.5625 56 51.78125 48.09375 
Q 58.015625 40.1875 58.015625 27.296875 
Q 58.015625 14.40625 51.78125 6.484375 
Q 45.5625 -1.421875 35.59375 -1.421875 
Q 29.59375 -1.421875 25.265625 0.953125 
Q 20.953125 3.328125 18.109375 8.203125 
z
M 48.6875 27.296875 
Q 48.6875 37.203125 44.609375 42.84375 
Q 40.53125 48.484375 33.40625 48.484375 
Q 26.265625 48.484375 22.1875 42.84375 
Q 18.109375 37.203125 18.109375 27.296875 
Q 18.109375 17.390625 22.1875 11.75 
Q 26.265625 6.109375 33.40625 6.109375 
Q 40.53125 6.109375 44.609375 11.75 
Q 48.6875 17.390625 48.6875 27.296875 
z
" id="DejaVuSans-70"/>
     </defs>
     <g transform="translate(16.859531 294.639375)rotate(-90)scale(0.17 -0.17)">
      <use xlink:href="#DejaVuSans-46"/>
      <use x="57.410156" xlink:href="#DejaVuSans-72"/>
      <use x="98.523438" xlink:href="#DejaVuSans-61"/>
      <use x="159.802734" xlink:href="#DejaVuSans-63"/>
      <use x="214.783203" xlink:href="#DejaVuSans-74"/>
      <use x="253.992188" xlink:href="#DejaVuSans-69"/>
      <use x="281.775391" xlink:href="#DejaVuSans-6f"/>
      <use x="342.957031" xlink:href="#DejaVuSans-6e"/>
      <use x="406.335938" xlink:href="#DejaVuSans-20"/>
      <use x="438.123047" xlink:href="#DejaVuSans-6f"/>
      <use x="499.304688" xlink:href="#DejaVuSans-66"/>
      <use x="534.509766" xlink:href="#DejaVuSans-20"/>
      <use x="566.296875" xlink:href="#DejaVuSans-66"/>
      <use x="601.501953" xlink:href="#DejaVuSans-75"/>
      <use x="664.880859" xlink:href="#DejaVuSans-6e"/>
      <use x="728.259766" xlink:href="#DejaVuSans-63"/>
      <use x="783.240234" xlink:href="#DejaVuSans-74"/>
      <use x="822.449219" xlink:href="#DejaVuSans-69"/>
      <use x="850.232422" xlink:href="#DejaVuSans-6f"/>
      <use x="911.414062" xlink:href="#DejaVuSans-6e"/>
      <use x="974.792969" xlink:href="#DejaVuSans-2c"/>
      <use x="1006.580078" xlink:href="#DejaVuSans-74"/>
      <use x="1045.789062" xlink:href="#DejaVuSans-61"/>
      <use x="1107.068359" xlink:href="#DejaVuSans-72"/>
      <use x="1148.166016" xlink:href="#DejaVuSans-67"/>
      <use x="1211.642578" xlink:href="#DejaVuSans-65"/>
      <use x="1273.166016" xlink:href="#DejaVuSans-74"/>
      <use x="1312.375" xlink:href="#DejaVuSans-20"/>
      <use x="1344.162109" xlink:href="#DejaVuSans-70"/>
      <use x="1407.638672" xlink:href="#DejaVuSans-61"/>
      <use x="1468.917969" xlink:href="#DejaVuSans-69"/>
      <use x="1496.701172" xlink:href="#DejaVuSans-72"/>
      <use x="1537.814453" xlink:href="#DejaVuSans-73"/>
     </g>
    </g>
   </g>
   <g id="line2d_23">
    <defs>
     <path d="M 0 1.5 
C 0.397805 1.5 0.77937 1.341951 1.06066 1.06066 
C 1.341951 0.77937 1.5 0.397805 1.5 0 
C 1.5 -0.397805 1.341951 -0.77937 1.06066 -1.06066 
C 0.77937 -1.341951 0.397805 -1.5 0 -1.5 
C -0.397805 -1.5 -0.77937 -1.341951 -1.06066 -1.06066 
C -1.341951 -0.77937 -1.5 -0.397805 -1.5 0 
C -1.5 0.397805 -1.341951 0.77937 -1.06066 1.06066 
C -0.77937 1.341951 -0.397805 1.5 0 1.5 
z
" id="mcc9c6ea2ef" style="stroke:#00bfbf;"/>
    </defs>
    <g>
     <use style="fill:#00bfbf;stroke:#00bfbf;" x="285.653796" xlink:href="#mcc9c6ea2ef" y="105.934024"/>
     <use style="fill:#00bfbf;stroke:#00bfbf;" x="285.653796" xlink:href="#mcc9c6ea2ef" y="105.934024"/>
    </g>
   </g>
   <g id="line2d_24">
    <path d="M 44.939466 294.16 
L 44.939466 290.50005 
L 56.84 290.50005 
L 56.84 286.317251 
L 63.801366 286.317251 
L 63.801366 285.794401 
L 68.740534 285.794401 
L 68.740534 282.134452 
L 72.57165 282.134452 
L 72.57165 277.951652 
L 75.7019 277.951652 
L 75.7019 275.860252 
L 78.348489 275.860252 
L 78.348489 275.337402 
L 80.641068 275.337402 
L 80.641068 274.291703 
L 82.663267 274.291703 
L 82.663267 273.246003 
L 84.472185 273.246003 
L 84.472185 272.723153 
L 86.10855 272.723153 
L 86.10855 272.200303 
L 87.602435 272.200303 
L 87.602435 269.063203 
L 88.976675 269.063203 
L 88.976675 268.540353 
L 90.249023 268.540353 
L 90.249023 265.926104 
L 91.433551 265.926104 
L 91.433551 265.403254 
L 93.582457 265.403254 
L 93.582457 264.880404 
L 94.563801 264.880404 
L 94.563801 264.357554 
L 95.492072 264.357554 
L 95.492072 263.834704 
L 96.372719 263.834704 
L 96.372719 262.266154 
L 98.009084 262.266154 
L 98.009084 261.743304 
L 98.77227 261.743304 
L 98.77227 261.220454 
L 99.502969 261.220454 
L 99.502969 260.174754 
L 103.334085 260.174754 
L 103.334085 258.083355 
L 103.897048 258.083355 
L 103.897048 257.560505 
L 104.442137 257.560505 
L 104.442137 257.037655 
L 104.970451 257.037655 
L 104.970451 256.514805 
L 107.392607 256.514805 
L 107.392607 255.991955 
L 109.909618 255.991955 
L 109.909618 254.946255 
L 110.672804 254.946255 
L 110.672804 253.900555 
L 111.04204 253.900555 
L 111.04204 252.854855 
L 112.777744 252.854855 
L 112.777744 252.332005 
L 114.050092 252.332005 
L 114.050092 251.809156 
L 114.946061 251.809156 
L 114.946061 250.763456 
L 115.234619 250.763456 
L 115.234619 249.717756 
L 116.07229 249.717756 
L 116.07229 249.194906 
L 119.065736 249.194906 
L 119.065736 248.672056 
L 119.957824 248.672056 
L 119.957824 248.149206 
L 121.415449 248.149206 
L 121.415449 247.626356 
L 123.124257 247.626356 
L 123.124257 247.103506 
L 124.175739 247.103506 
L 124.175739 246.057806 
L 125.484475 246.057806 
L 125.484475 245.534956 
L 125.950626 245.534956 
L 125.950626 245.012106 
L 126.404454 245.012106 
L 126.404454 244.489256 
L 127.277634 244.489256 
L 127.277634 243.966407 
L 129.28406 243.966407 
L 129.28406 243.443557 
L 129.903941 243.443557 
L 129.903941 242.920707 
L 130.265403 242.920707 
L 130.265403 242.397857 
L 131.418108 242.397857 
L 131.418108 241.352157 
L 132.393257 241.352157 
L 132.393257 240.829307 
L 132.809491 240.829307 
L 132.809491 240.306457 
L 133.612858 240.306457 
L 133.612858 239.783607 
L 134.751541 239.783607 
L 134.751541 238.215057 
L 135.47076 238.215057 
L 135.47076 237.169357 
L 138.003773 237.169357 
L 138.003773 236.646507 
L 140.736964 236.646507 
L 140.736964 236.123658 
L 141.986158 236.123658 
L 141.986158 235.600808 
L 142.225448 235.600808 
L 142.225448 235.077958 
L 142.980883 235.077958 
L 142.980883 234.032258 
L 143.150593 234.032258 
L 143.150593 233.509408 
L 144.081827 233.509408 
L 144.081827 232.986558 
L 144.293791 232.986558 
L 144.293791 232.463708 
L 144.451064 232.463708 
L 144.451064 231.418008 
L 144.914419 231.418008 
L 145.01571 230.372308 
L 145.166536 230.372308 
L 145.166536 229.849458 
L 145.997054 229.849458 
L 145.997054 229.326608 
L 146.280843 229.326608 
L 146.280843 228.803758 
L 148.229916 228.803758 
L 148.229916 228.280909 
L 149.047634 228.280909 
L 149.047634 227.758059 
L 155.302587 227.758059 
L 155.302587 226.712359 
L 157.340188 226.712359 
L 157.438436 225.666659 
L 159.877342 225.666659 
L 159.877342 225.143809 
L 163.674427 225.143809 
L 163.674427 224.620959 
L 164.90658 224.620959 
L 164.90658 224.098109 
L 165.757079 224.098109 
L 165.757079 223.575259 
L 170.533292 223.575259 
L 170.533292 222.529559 
L 170.771516 222.529559 
L 170.771516 222.006709 
L 170.928515 222.006709 
L 171.017588 220.96101 
L 171.128284 220.96101 
L 171.128284 219.91531 
L 171.423645 219.91531 
L 171.423645 219.39246 
L 171.830915 219.39246 
L 171.841504 217.82391 
L 172.051909 217.82391 
L 172.051909 216.77821 
L 172.321636 216.77821 
L 172.321636 215.73251 
L 174.638644 215.73251 
L 174.638644 215.20966 
L 176.933472 215.20966 
L 176.933472 214.68681 
L 177.129063 214.68681 
L 177.198935 211.026861 
L 177.650068 211.026861 
L 177.740391 209.981161 
L 177.762897 209.981161 
L 177.84517 208.935461 
L 178.133729 208.935461 
L 178.133729 208.412611 
L 178.301659 208.412611 
L 178.301659 207.889761 
L 178.446361 207.889761 
L 178.446361 207.366911 
L 178.753402 207.366911 
L 178.77462 206.321211 
L 178.99235 206.321211 
L 178.99235 205.798361 
L 179.110589 205.798361 
L 179.110589 205.275512 
L 179.419698 205.275512 
L 179.419698 204.752662 
L 180.711 204.752662 
L 180.792891 203.184112 
L 180.91188 203.184112 
L 181.01765 200.569862 
L 181.023852 200.569862 
L 181.023852 199.524162 
L 181.19659 199.524162 
L 181.276203 198.478462 
L 181.422218 198.478462 
L 181.422218 197.955613 
L 181.591015 197.955613 
L 181.674794 196.387063 
L 181.793775 196.387063 
L 181.793775 195.864213 
L 181.911937 195.864213 
L 181.911937 195.341363 
L 182.473761 195.341363 
L 182.473761 194.818513 
L 183.067393 194.818513 
L 183.177134 193.772813 
L 183.383728 193.772813 
L 183.383728 193.249963 
L 183.502208 193.249963 
L 183.502208 192.727113 
L 184.789118 192.727113 
L 184.898316 190.635713 
L 185.148817 190.635713 
L 185.148817 190.112864 
L 185.643852 190.112864 
L 185.738342 188.544314 
L 186.175611 188.544314 
L 186.175611 188.021464 
L 186.376525 188.021464 
L 186.458044 186.975764 
L 186.76256 186.975764 
L 186.76256 186.452914 
L 186.930407 186.452914 
L 187.013719 184.884364 
L 187.269878 184.884364 
L 187.269878 184.361514 
L 187.449927 184.361514 
L 187.449927 183.838664 
L 187.879487 183.838664 
L 187.962468 182.792964 
L 188.306676 182.792964 
L 188.306676 182.270115 
L 188.648096 182.270115 
L 188.727453 179.655865 
L 189.049035 179.655865 
L 189.049035 179.133015 
L 189.21914 179.133015 
L 189.21914 178.087315 
L 189.395193 178.087315 
L 189.459801 177.041615 
L 189.712095 177.041615 
L 189.790415 175.995915 
L 190.49396 175.995915 
L 190.565245 174.950215 
L 190.668085 174.950215 
L 190.721037 173.381666 
L 190.857953 173.381666 
L 190.959059 171.813116 
L 190.997255 171.813116 
L 190.997255 171.290266 
L 191.156067 171.290266 
L 191.156067 170.767416 
L 191.793584 170.767416 
L 191.793584 170.244566 
L 192.014017 170.244566 
L 192.014017 169.721716 
L 192.163737 169.721716 
L 192.231655 167.630316 
L 192.286441 167.630316 
L 192.308949 166.584617 
L 192.970826 166.584617 
L 192.970826 166.061767 
L 193.118595 166.061767 
L 193.118595 165.538917 
L 193.277256 165.538917 
L 193.277256 165.016067 
L 193.44349 165.016067 
L 193.491549 163.970367 
L 194.314359 163.970367 
L 194.388534 162.924667 
L 195.416155 162.924667 
L 195.496408 161.356117 
L 195.565659 161.356117 
L 195.671656 160.310417 
L 195.72441 160.310417 
L 195.729677 159.264718 
L 196.314623 159.264718 
L 196.314623 158.741868 
L 197.00052 158.741868 
L 197.00052 158.219018 
L 197.211929 158.219018 
L 197.211929 157.696168 
L 197.678878 157.696168 
L 197.678878 157.173318 
L 197.944741 157.173318 
L 197.944741 156.650468 
L 198.35406 156.650468 
L 198.35406 156.127618 
L 198.466672 156.127618 
L 198.466672 155.604768 
L 198.638664 155.604768 
L 198.638664 155.081918 
L 198.942662 155.081918 
L 198.942662 154.559068 
L 199.112136 154.559068 
L 199.198401 153.513368 
L 199.773781 153.513368 
L 199.773781 152.990518 
L 200.025722 152.990518 
L 200.025722 152.467668 
L 200.466907 152.467668 
L 200.466907 151.944818 
L 200.580417 151.944818 
L 200.580417 151.421969 
L 200.902883 151.421969 
L 201.005813 150.376269 
L 201.021296 150.376269 
L 201.07152 148.807719 
L 201.580827 148.807719 
L 201.620104 147.762019 
L 202.94282 147.762019 
L 203.046288 146.716319 
L 203.220766 146.716319 
L 203.292098 145.147769 
L 204.17893 145.147769 
L 204.233566 143.57922 
L 204.57195 143.57922 
L 204.57195 143.05637 
L 205.189935 143.05637 
L 205.189935 142.53352 
L 205.833283 142.53352 
L 205.833283 142.01067 
L 206.401149 142.01067 
L 206.401149 141.48782 
L 206.526547 141.48782 
L 206.554601 139.91927 
L 206.730292 139.91927 
L 206.840917 138.87357 
L 206.948094 138.87357 
L 207.036899 137.82787 
L 207.118468 137.82787 
L 207.118468 137.30502 
L 207.307302 137.30502 
L 207.307302 136.78217 
L 207.681475 136.78217 
L 207.681475 136.259321 
L 207.843459 136.259321 
L 207.843459 135.736471 
L 208.582715 135.736471 
L 208.582715 135.213621 
L 209.790806 135.213621 
L 209.790806 134.690771 
L 210.260242 134.690771 
L 210.260242 134.167921 
L 211.493418 134.167921 
L 211.493418 133.645071 
L 211.615967 133.645071 
L 211.615967 133.122221 
L 212.090494 133.122221 
L 212.090494 132.599371 
L 215.267044 132.599371 
L 215.267044 132.076521 
L 215.722487 132.076521 
L 215.722487 131.553671 
L 215.973715 131.553671 
L 215.973715 129.985121 
L 216.297771 129.985121 
L 216.297771 129.462271 
L 217.565634 129.462271 
L 217.565634 128.939421 
L 217.890233 128.939421 
L 217.890233 128.416572 
L 219.42312 128.416572 
L 219.42312 127.893722 
L 221.9248 127.893722 
L 222.032102 126.848022 
L 222.412485 126.848022 
L 222.412485 126.325172 
L 225.007559 126.325172 
L 225.007559 125.802322 
L 225.13388 125.802322 
L 225.13388 125.279472 
L 225.551915 125.279472 
L 225.551915 124.756622 
L 228.804097 124.756622 
L 228.804097 124.233772 
L 229.093506 124.233772 
L 229.093506 123.710922 
L 229.666113 123.710922 
L 229.666113 123.188072 
L 229.923148 123.188072 
L 229.923148 122.665222 
L 230.41548 122.665222 
L 230.41548 122.142372 
L 230.640951 122.142372 
L 230.640951 121.619522 
L 232.425764 121.619522 
L 232.425764 121.096672 
L 234.159012 121.096672 
L 234.159012 120.573823 
L 235.673684 120.573823 
L 235.673684 120.050973 
L 236.215149 120.050973 
L 236.215149 119.528123 
L 236.3333 119.528123 
L 236.3333 119.005273 
L 238.184935 119.005273 
L 238.184935 118.482423 
L 238.319869 118.482423 
L 238.319869 117.959573 
L 239.933364 117.959573 
L 239.933364 117.436723 
L 242.106817 117.436723 
L 242.106817 116.913873 
L 242.463599 116.913873 
L 242.463599 116.391023 
L 246.318274 116.391023 
L 246.318274 115.868173 
L 247.575375 115.868173 
L 247.575375 115.345323 
L 250.934546 115.345323 
L 250.934546 114.822473 
L 251.993909 114.822473 
L 251.993909 114.299623 
L 255.126627 114.299623 
L 255.126627 113.776773 
L 256.477729 113.776773 
L 256.477729 113.253924 
L 256.994791 113.253924 
L 256.994791 112.731074 
L 263.013227 112.731074 
L 263.013227 112.208224 
L 264.115032 112.208224 
L 264.115032 111.685374 
L 264.726857 111.685374 
L 264.726857 111.162524 
L 266.551618 111.162524 
L 266.551618 110.639674 
L 269.129427 110.639674 
L 269.129427 110.116824 
L 269.459855 110.116824 
L 269.512582 109.071124 
L 275.390008 109.071124 
L 275.390008 108.548274 
L 278.16743 108.548274 
L 278.16743 108.025424 
L 279.132949 108.025424 
L 279.132949 107.502574 
L 280.522441 107.502574 
L 280.522441 106.979724 
L 281.197765 106.979724 
L 281.197765 106.456874 
L 285.653796 106.456874 
L 285.653796 105.934024 
L 333.569032 105.934024 
L 333.569032 105.934024 
" style="fill:none;stroke:#00bfbf;stroke-linecap:square;stroke-width:1.5;"/>
   </g>
   <g id="line2d_25">
    <defs>
     <path d="M -6 0 
L 6 0 
M 0 6 
L 0 -6 
" id="m65652c664f" style="stroke:#00bfbf;stroke-width:1.5;"/>
    </defs>
    <g>
     <use style="fill-opacity:0;stroke:#00bfbf;stroke-width:1.5;" x="95.492072" xlink:href="#m65652c664f" y="263.834704"/>
     <use style="fill-opacity:0;stroke:#00bfbf;stroke-width:1.5;" x="149.047634" xlink:href="#m65652c664f" y="227.758059"/>
     <use style="fill-opacity:0;stroke:#00bfbf;stroke-width:1.5;" x="192.308949" xlink:href="#m65652c664f" y="166.584617"/>
     <use style="fill-opacity:0;stroke:#00bfbf;stroke-width:1.5;" x="246.318274" xlink:href="#m65652c664f" y="115.868173"/>
     <use style="fill-opacity:0;stroke:#00bfbf;stroke-width:1.5;" x="285.653796" xlink:href="#m65652c664f" y="105.934024"/>
     <use style="fill-opacity:0;stroke:#00bfbf;stroke-width:1.5;" x="333.569032" xlink:href="#m65652c664f" y="105.934024"/>
    </g>
   </g>
   <g id="line2d_26">
    <path style="fill:none;stroke:#00bfbf;stroke-linecap:square;stroke-width:1.5;"/>
    <g/>
   </g>
   <g id="line2d_27">
    <path clip-path="url(#p35538b8693)" d="M 176.275827 215.20966 
" style="fill:none;stroke:#00bfbf;stroke-linecap:square;stroke-width:1.5;"/>
    <defs>
     <path d="M -12 12 
L 12 -12 
M -12 -12 
L 12 12 
" id="md9d3798310" style="stroke:#00bfbf;stroke-width:3;"/>
    </defs>
    <g clip-path="url(#p35538b8693)">
     <use style="fill:#00bfbf;stroke:#00bfbf;stroke-width:3;" x="176.275827" xlink:href="#md9d3798310" y="215.20966"/>
    </g>
   </g>
   <g id="line2d_28">
    <defs>
     <path d="M 0 1.5 
C 0.397805 1.5 0.77937 1.341951 1.06066 1.06066 
C 1.341951 0.77937 1.5 0.397805 1.5 0 
C 1.5 -0.397805 1.341951 -0.77937 1.06066 -1.06066 
C 0.77937 -1.341951 0.397805 -1.5 0 -1.5 
C -0.397805 -1.5 -0.77937 -1.341951 -1.06066 -1.06066 
C -1.341951 -0.77937 -1.5 -0.397805 -1.5 0 
C -1.5 0.397805 -1.341951 0.77937 -1.06066 1.06066 
C -0.77937 1.341951 -0.397805 1.5 0 1.5 
z
" id="m2c61542353" style="stroke:#008000;"/>
    </defs>
    <g>
     <use style="fill:#008000;stroke:#008000;" x="258.793236" xlink:href="#m2c61542353" y="215.73251"/>
     <use style="fill:#008000;stroke:#008000;" x="258.793236" xlink:href="#m2c61542353" y="215.73251"/>
    </g>
   </g>
   <g id="line2d_29">
    <path d="M 37.9781 294.16 
L 37.9781 291.0229 
L 49.878634 291.0229 
L 49.878634 289.977201 
L 56.84 289.977201 
L 56.84 288.408651 
L 61.779168 288.408651 
L 61.779168 286.840101 
L 65.610284 286.840101 
L 65.610284 285.794401 
L 71.387123 285.794401 
L 71.387123 283.703001 
L 73.679702 283.703001 
L 73.679702 282.134452 
L 75.7019 282.134452 
L 75.7019 281.611602 
L 82.015309 281.611602 
L 82.015309 280.565902 
L 89.411353 280.565902 
L 89.411353 280.043052 
L 91.047718 280.043052 
L 91.047718 279.520202 
L 92.541603 279.520202 
L 92.541603 275.337402 
L 93.915843 275.337402 
L 93.915843 274.814553 
L 96.372719 274.814553 
L 96.372719 274.291703 
L 98.521625 274.291703 
L 98.521625 273.768853 
L 101.73583 273.768853 
L 101.73583 273.246003 
L 102.149557 273.246003 
L 102.149557 272.723153 
L 102.553549 272.723153 
L 102.553549 272.200303 
L 103.334085 272.200303 
L 103.334085 270.108903 
L 106.464335 270.108903 
L 106.464335 268.540353 
L 110.919842 268.540353 
L 110.919842 266.971804 
L 111.873912 266.971804 
L 111.873912 266.448954 
L 112.556207 266.448954 
L 112.556207 265.926104 
L 114.050092 265.926104 
L 114.050092 265.403254 
L 115.611972 265.403254 
L 115.611972 264.880404 
L 116.69668 264.880404 
L 116.69668 264.357554 
L 117.551028 264.357554 
L 117.551028 263.834704 
L 117.881208 263.834704 
L 117.881208 263.311854 
L 120.173787 263.311854 
L 120.173787 262.789004 
L 121.281839 262.789004 
L 121.281839 262.266154 
L 121.548028 262.266154 
L 121.548028 261.743304 
L 122.322693 261.743304 
L 122.322693 261.220454 
L 123.774446 261.220454 
L 123.774446 260.697604 
L 123.890061 260.697604 
L 123.890061 260.174754 
L 136.468401 260.174754 
L 136.468401 259.129055 
L 141.559202 259.129055 
L 141.559202 258.606205 
L 142.519947 258.606205 
L 142.519947 258.083355 
L 142.751962 258.083355 
L 142.751962 257.560505 
L 143.649884 257.560505 
L 143.649884 257.037655 
L 176.248554 257.037655 
L 176.297615 255.991955 
L 176.460149 255.991955 
L 176.546208 253.377705 
L 176.57837 253.377705 
L 176.621158 252.332005 
L 176.706416 252.332005 
L 176.706416 251.809156 
L 176.865143 251.809156 
L 176.865143 250.763456 
L 176.980618 250.763456 
L 177.022416 249.717756 
L 178.573175 249.717756 
L 178.573175 249.194906 
L 188.050542 249.194906 
L 188.050542 248.672056 
L 188.257924 248.672056 
L 188.257924 247.626356 
L 188.419895 247.626356 
L 188.419895 246.580656 
L 188.739325 246.580656 
L 188.739325 246.057806 
L 194.90727 246.057806 
L 194.90727 245.534956 
L 195.046646 245.534956 
L 195.155886 243.966407 
L 195.210247 243.966407 
L 195.210247 243.443557 
L 195.60902 243.443557 
L 195.60902 242.920707 
L 195.826817 242.920707 
L 195.826817 242.397857 
L 199.876794 242.397857 
L 199.876794 241.875007 
L 200.144891 241.875007 
L 200.226132 240.829307 
L 203.857795 240.829307 
L 203.955909 239.260757 
L 203.973293 239.260757 
L 203.973293 238.737907 
L 204.085862 238.737907 
L 204.085862 238.215057 
L 206.868462 238.215057 
L 206.965435 236.646507 
L 207.020084 236.646507 
L 207.020084 236.123658 
L 207.246831 236.123658 
L 207.246831 235.600808 
L 211.916003 235.600808 
L 211.916003 235.077958 
L 212.119911 235.077958 
L 212.119911 234.555108 
L 213.878078 234.555108 
L 213.878078 234.032258 
L 214.114309 234.032258 
L 214.132347 232.986558 
L 215.770351 232.986558 
L 215.786731 231.940858 
L 217.250573 231.940858 
L 217.332563 230.895158 
L 217.407213 230.895158 
L 217.407213 230.372308 
L 218.834011 230.372308 
L 218.916071 228.803758 
L 220.32142 228.803758 
L 220.32142 228.280909 
L 221.456427 228.280909 
L 221.515164 227.235209 
L 222.620284 227.235209 
L 222.686135 226.189509 
L 223.802857 226.189509 
L 223.813118 225.143809 
L 224.851357 225.143809 
L 224.851357 224.620959 
L 225.839495 224.620959 
L 225.857718 223.575259 
L 227.586006 223.575259 
L 227.586006 223.052409 
L 228.486952 223.052409 
L 228.486952 222.529559 
L 229.253534 222.529559 
L 229.30576 221.483859 
L 231.45934 221.483859 
L 231.45934 220.96101 
L 233.946855 220.96101 
L 233.946855 220.43816 
L 234.592876 220.43816 
L 234.592876 219.91531 
L 237.692864 219.91531 
L 237.711137 218.34676 
L 243.672439 218.34676 
L 243.672439 217.82391 
L 244.046892 217.82391 
L 244.046892 217.30106 
L 244.342131 217.30106 
L 244.342131 216.77821 
L 245.63958 216.77821 
L 245.63958 216.25536 
L 258.793236 216.25536 
L 258.793236 215.73251 
L 333.569032 215.73251 
L 333.569032 215.73251 
" style="fill:none;stroke:#008000;stroke-linecap:square;stroke-width:1.5;"/>
   </g>
   <g id="line2d_30">
    <defs>
     <path d="M -0 6 
L 6 -6 
L -6 -6 
z
" id="mb19a0cfaa9" style="stroke:#008000;stroke-linejoin:miter;stroke-width:1.5;"/>
    </defs>
    <g>
     <use style="fill-opacity:0;stroke:#008000;stroke-linejoin:miter;stroke-width:1.5;" x="75.7019" xlink:href="#mb19a0cfaa9" y="281.611602"/>
     <use style="fill-opacity:0;stroke:#008000;stroke-linejoin:miter;stroke-width:1.5;" x="136.468401" xlink:href="#mb19a0cfaa9" y="259.129055"/>
     <use style="fill-opacity:0;stroke:#008000;stroke-linejoin:miter;stroke-width:1.5;" x="207.246831" xlink:href="#mb19a0cfaa9" y="236.123658"/>
     <use style="fill-opacity:0;stroke:#008000;stroke-linejoin:miter;stroke-width:1.5;" x="258.793236" xlink:href="#mb19a0cfaa9" y="216.25536"/>
     <use style="fill-opacity:0;stroke:#008000;stroke-linejoin:miter;stroke-width:1.5;" x="258.793236" xlink:href="#mb19a0cfaa9" y="215.73251"/>
     <use style="fill-opacity:0;stroke:#008000;stroke-linejoin:miter;stroke-width:1.5;" x="333.569032" xlink:href="#mb19a0cfaa9" y="215.73251"/>
    </g>
   </g>
   <g id="line2d_31">
    <path style="fill:none;stroke:#008000;stroke-linecap:square;stroke-width:1.5;"/>
    <g/>
   </g>
   <g id="line2d_32">
    <path clip-path="url(#p35538b8693)" d="M 96.372719 274.291703 
" style="fill:none;stroke:#008000;stroke-linecap:square;stroke-width:1.5;"/>
    <defs>
     <path d="M -12 12 
L 12 -12 
M -12 -12 
L 12 12 
" id="m3062bd8df6" style="stroke:#008000;stroke-width:3;"/>
    </defs>
    <g clip-path="url(#p35538b8693)">
     <use style="fill:#008000;stroke:#008000;stroke-width:3;" x="96.372719" xlink:href="#m3062bd8df6" y="274.291703"/>
    </g>
   </g>
   <g id="line2d_33">
    <defs>
     <path d="M 0 1.5 
C 0.397805 1.5 0.77937 1.341951 1.06066 1.06066 
C 1.341951 0.77937 1.5 0.397805 1.5 0 
C 1.5 -0.397805 1.341951 -0.77937 1.06066 -1.06066 
C 0.77937 -1.341951 0.397805 -1.5 0 -1.5 
C -0.397805 -1.5 -0.77937 -1.341951 -1.06066 -1.06066 
C -1.341951 -0.77937 -1.5 -0.397805 -1.5 0 
C -1.5 0.397805 -1.341951 0.77937 -1.06066 1.06066 
C -0.77937 1.341951 -0.397805 1.5 0 1.5 
z
" id="mb176253850" style="stroke:#0000ff;"/>
    </defs>
    <g>
     <use style="fill:#0000ff;stroke:#0000ff;" x="242.787218" xlink:href="#mb176253850" y="252.332005"/>
     <use style="fill:#0000ff;stroke:#0000ff;" x="242.787218" xlink:href="#mb176253850" y="252.332005"/>
    </g>
   </g>
   <g id="line2d_34">
    <path d="M 56.84 294.16 
L 56.84 293.63715 
L 59.97025 293.63715 
L 59.97025 293.1143 
L 66.931616 293.1143 
L 66.931616 292.59145 
L 71.870784 292.59145 
L 71.870784 291.54575 
L 79.760422 291.54575 
L 79.760422 291.0229 
L 87.020384 291.0229 
L 87.020384 290.50005 
L 88.710486 290.50005 
L 88.710486 289.977201 
L 95.31039 289.977201 
L 95.31039 289.454351 
L 98.009084 289.454351 
L 98.009084 288.931501 
L 99.21441 288.931501 
L 99.21441 287.885801 
L 100.065932 287.885801 
L 100.065932 286.840101 
L 101.902519 286.840101 
L 101.902519 286.317251 
L 104.86608 286.317251 
L 104.86608 285.794401 
L 105.07419 285.794401 
L 105.07419 285.271551 
L 110.522857 285.271551 
L 110.522857 284.225851 
L 111.114944 284.225851 
L 111.114944 283.703001 
L 113.169445 283.703001 
L 113.169445 283.180151 
L 114.050092 283.180151 
L 114.050092 281.611602 
L 116.235029 281.611602 
L 116.235029 281.088752 
L 116.766615 281.088752 
L 116.766615 280.565902 
L 118.648658 280.565902 
L 118.648658 279.520202 
L 122.573338 279.520202 
L 122.573338 278.474502 
L 122.795831 278.474502 
L 122.795831 277.951652 
L 124.678278 277.951652 
L 124.678278 277.428802 
L 127.698117 277.428802 
L 127.698117 276.905952 
L 127.863468 276.905952 
L 127.918233 275.860252 
L 130.549192 275.860252 
L 130.549192 275.337402 
L 131.238797 275.337402 
L 131.238797 274.814553 
L 132.581812 274.814553 
L 132.581812 274.291703 
L 134.548357 274.291703 
L 134.548357 273.768853 
L 136.545763 273.768853 
L 136.578812 272.723153 
L 140.143739 272.723153 
L 140.143739 272.200303 
L 175.841988 272.200303 
L 175.888879 271.154603 
L 175.975625 271.154603 
L 175.975625 270.631753 
L 176.170859 270.631753 
L 176.220143 269.586053 
L 176.406142 269.586053 
L 176.406142 268.017503 
L 177.074522 268.017503 
L 177.13373 266.971804 
L 177.217519 266.971804 
L 177.217519 266.448954 
L 177.371611 266.448954 
L 177.371611 265.926104 
L 187.983978 265.926104 
L 188.077972 264.880404 
L 188.123957 264.880404 
L 188.123957 264.357554 
L 188.241642 264.357554 
L 188.241642 263.834704 
L 188.36823 263.834704 
L 188.36823 263.311854 
L 195.157338 263.311854 
L 195.242058 262.266154 
L 195.289665 262.266154 
L 195.289665 261.743304 
L 199.795818 261.743304 
L 199.795818 261.220454 
L 200.073625 261.220454 
L 200.155203 260.174754 
L 200.317205 260.174754 
L 200.317205 259.651904 
L 203.854296 259.651904 
L 203.854296 259.129055 
L 204.100528 259.129055 
L 204.100528 258.606205 
L 209.529042 258.606205 
L 209.529042 258.083355 
L 209.682982 258.083355 
L 209.682982 257.560505 
L 213.896853 257.560505 
L 213.896853 257.037655 
L 218.704471 257.037655 
L 218.704471 256.514805 
L 222.449953 256.514805 
L 222.449953 255.991955 
L 224.617246 255.991955 
L 224.617246 255.469105 
L 227.373565 255.469105 
L 227.373565 254.946255 
L 229.842975 254.946255 
L 229.842975 254.423405 
L 236.097032 254.423405 
L 236.097032 253.900555 
L 240.164347 253.900555 
L 240.164347 253.377705 
L 242.715729 253.377705 
L 242.787218 252.332005 
L 333.569032 252.332005 
L 333.569032 252.332005 
" style="fill:none;stroke:#0000ff;stroke-linecap:square;stroke-width:1.5;"/>
   </g>
   <g id="line2d_35">
    <defs>
     <path d="M 0 -6 
L -1.347084 -1.854102 
L -5.706339 -1.854102 
L -2.179628 0.708204 
L -3.526712 4.854102 
L -0 2.291796 
L 3.526712 4.854102 
L 2.179628 0.708204 
L 5.706339 -1.854102 
L 1.347084 -1.854102 
z
" id="m1af8d57633" style="stroke:#0000ff;stroke-linejoin:bevel;stroke-width:1.5;"/>
    </defs>
    <g>
     <use style="fill-opacity:0;stroke:#0000ff;stroke-linejoin:bevel;stroke-width:1.5;" x="111.114944" xlink:href="#m1af8d57633" y="284.225851"/>
     <use style="fill-opacity:0;stroke:#0000ff;stroke-linejoin:bevel;stroke-width:1.5;" x="177.371611" xlink:href="#m1af8d57633" y="266.448954"/>
     <use style="fill-opacity:0;stroke:#0000ff;stroke-linejoin:bevel;stroke-width:1.5;" x="242.787218" xlink:href="#m1af8d57633" y="252.854855"/>
     <use style="fill-opacity:0;stroke:#0000ff;stroke-linejoin:bevel;stroke-width:1.5;" x="242.787218" xlink:href="#m1af8d57633" y="252.332005"/>
     <use style="fill-opacity:0;stroke:#0000ff;stroke-linejoin:bevel;stroke-width:1.5;" x="333.569032" xlink:href="#m1af8d57633" y="252.332005"/>
    </g>
   </g>
   <g id="line2d_36">
    <path style="fill:none;stroke:#0000ff;stroke-linecap:square;stroke-width:1.5;"/>
    <g/>
   </g>
   <g id="line2d_37">
    <path clip-path="url(#p35538b8693)" d="M 96.372719 289.454351 
" style="fill:none;stroke:#0000ff;stroke-linecap:square;stroke-width:1.5;"/>
    <defs>
     <path d="M -12 12 
L 12 -12 
M -12 -12 
L 12 12 
" id="m4a3b456097" style="stroke:#0000ff;stroke-width:3;"/>
    </defs>
    <g clip-path="url(#p35538b8693)">
     <use style="fill:#0000ff;stroke:#0000ff;stroke-width:3;" x="96.372719" xlink:href="#m4a3b456097" y="289.454351"/>
    </g>
   </g>
   <g id="line2d_38">
    <defs>
     <path d="M 0 1.5 
C 0.397805 1.5 0.77937 1.341951 1.06066 1.06066 
C 1.341951 0.77937 1.5 0.397805 1.5 0 
C 1.5 -0.397805 1.341951 -0.77937 1.06066 -1.06066 
C 0.77937 -1.341951 0.397805 -1.5 0 -1.5 
C -0.397805 -1.5 -0.77937 -1.341951 -1.06066 -1.06066 
C -1.341951 -0.77937 -1.5 -0.397805 -1.5 0 
C -1.5 0.397805 -1.341951 0.77937 -1.06066 1.06066 
C -0.77937 1.341951 -0.397805 1.5 0 1.5 
z
" id="mdb74b04ca8" style="stroke:#000000;"/>
    </defs>
    <g>
     <use style="stroke:#000000;" x="242.220111" xlink:href="#mdb74b04ca8" y="273.246003"/>
     <use style="stroke:#000000;" x="242.220111" xlink:href="#mdb74b04ca8" y="273.246003"/>
    </g>
   </g>
   <g id="line2d_39">
    <path d="M 112.172908 294.16 
L 112.172908 293.63715 
L 116.766615 293.63715 
L 116.766615 293.1143 
L 126.374569 293.1143 
L 126.374569 292.59145 
L 129.903941 292.59145 
L 129.903941 292.0686 
L 160.996014 292.0686 
L 160.996014 291.54575 
L 176.32155 291.54575 
L 176.32155 291.0229 
L 176.359017 291.0229 
L 176.359017 289.977201 
L 176.360644 289.977201 
L 176.360644 289.454351 
L 176.449901 289.454351 
L 176.449901 288.931501 
L 176.607798 288.931501 
L 176.607798 288.408651 
L 177.94338 288.408651 
L 177.94338 287.885801 
L 187.805294 287.885801 
L 187.805294 287.362951 
L 187.824498 287.362951 
L 187.824498 286.840101 
L 188.016192 286.840101 
L 188.016192 286.317251 
L 188.155092 286.317251 
L 188.155092 285.794401 
L 194.724559 285.794401 
L 194.724559 285.271551 
L 194.902298 285.271551 
L 194.902298 284.748701 
L 195.056871 284.748701 
L 195.056871 284.225851 
L 195.166047 284.225851 
L 195.166047 283.703001 
L 199.975217 283.703001 
L 199.975217 283.180151 
L 201.266001 283.180151 
L 201.266001 282.657301 
L 203.434215 282.657301 
L 203.434215 282.134452 
L 203.601485 282.134452 
L 203.601485 281.611602 
L 206.673042 281.611602 
L 206.673042 281.088752 
L 209.247657 281.088752 
L 209.247657 280.565902 
L 209.481361 280.565902 
L 209.481361 280.043052 
L 211.56475 280.043052 
L 211.56475 279.520202 
L 211.716701 279.520202 
L 211.716701 278.997352 
L 213.589809 278.997352 
L 213.589809 278.474502 
L 215.366991 278.474502 
L 215.366991 277.951652 
L 215.370011 277.951652 
L 215.370011 277.428802 
L 217.061916 277.428802 
L 217.061916 276.905952 
L 218.45107 276.905952 
L 218.45107 276.383102 
L 219.824545 276.383102 
L 219.824545 275.860252 
L 222.302613 275.860252 
L 222.302613 275.337402 
L 225.454021 275.337402 
L 225.454021 274.814553 
L 228.836436 274.814553 
L 228.836436 274.291703 
L 229.645383 274.291703 
L 229.645383 273.768853 
L 242.220111 273.768853 
L 242.220111 273.246003 
L 333.569032 273.246003 
" style="fill:none;stroke:#000000;stroke-linecap:square;stroke-width:1.5;"/>
   </g>
   <g id="line2d_40">
    <defs>
     <path d="M 0 6 
C 1.591219 6 3.117479 5.367802 4.242641 4.242641 
C 5.367802 3.117479 6 1.591219 6 0 
C 6 -1.591219 5.367802 -3.117479 4.242641 -4.242641 
C 3.117479 -5.367802 1.591219 -6 0 -6 
C -1.591219 -6 -3.117479 -5.367802 -4.242641 -4.242641 
C -5.367802 -3.117479 -6 -1.591219 -6 0 
C -6 1.591219 -5.367802 3.117479 -4.242641 4.242641 
C -3.117479 5.367802 -1.591219 6 0 6 
z
" id="m87f9bee736" style="stroke:#000000;stroke-width:1.5;"/>
    </defs>
    <g>
     <use style="fill-opacity:0;stroke:#000000;stroke-width:1.5;" x="129.903941" xlink:href="#m87f9bee736" y="292.59145"/>
     <use style="fill-opacity:0;stroke:#000000;stroke-width:1.5;" x="209.481361" xlink:href="#m87f9bee736" y="280.043052"/>
     <use style="fill-opacity:0;stroke:#000000;stroke-width:1.5;" x="242.220111" xlink:href="#m87f9bee736" y="273.768853"/>
     <use style="fill-opacity:0;stroke:#000000;stroke-width:1.5;" x="242.220111" xlink:href="#m87f9bee736" y="273.246003"/>
     <use style="fill-opacity:0;stroke:#000000;stroke-width:1.5;" x="333.569032" xlink:href="#m87f9bee736" y="273.246003"/>
    </g>
   </g>
   <g id="line2d_41">
    <path style="fill:none;stroke:#000000;stroke-linecap:square;stroke-width:1.5;"/>
    <g/>
   </g>
   <g id="line2d_42">
    <path clip-path="url(#p35538b8693)" d="M 96.372719 294.16 
" style="fill:none;stroke:#000000;stroke-linecap:square;stroke-width:1.5;"/>
    <defs>
     <path d="M -12 12 
L 12 -12 
M -12 -12 
L 12 12 
" id="m28c30b3277" style="stroke:#000000;stroke-width:3;"/>
    </defs>
    <g clip-path="url(#p35538b8693)">
     <use style="stroke:#000000;stroke-width:3;" x="96.372719" xlink:href="#m28c30b3277" y="294.16"/>
    </g>
   </g>
   <g id="line2d_43">
    <defs>
     <path d="M 0 1.5 
C 0.397805 1.5 0.77937 1.341951 1.06066 1.06066 
C 1.341951 0.77937 1.5 0.397805 1.5 0 
C 1.5 -0.397805 1.341951 -0.77937 1.06066 -1.06066 
C 0.77937 -1.341951 0.397805 -1.5 0 -1.5 
C -0.397805 -1.5 -0.77937 -1.341951 -1.06066 -1.06066 
C -1.341951 -0.77937 -1.5 -0.397805 -1.5 0 
C -1.5 0.397805 -1.341951 0.77937 -1.06066 1.06066 
C -0.77937 1.341951 -0.397805 1.5 0 1.5 
z
" id="mc3d65aaa70" style="stroke:#ff0000;"/>
    </defs>
    <g>
     <use style="fill:#ff0000;stroke:#ff0000;" x="243.764761" xlink:href="#mc3d65aaa70" y="288.931501"/>
     <use style="fill:#ff0000;stroke:#ff0000;" x="243.764761" xlink:href="#mc3d65aaa70" y="288.931501"/>
    </g>
   </g>
   <g id="line2d_44">
    <path d="M 168.568826 294.16 
L 168.568826 293.63715 
L 168.82309 293.63715 
L 168.82309 293.1143 
L 192.236497 293.1143 
L 192.236497 292.59145 
L 192.556194 292.59145 
L 192.556194 292.0686 
L 216.324369 292.0686 
L 216.324369 291.54575 
L 217.761931 291.54575 
L 217.761931 291.0229 
L 220.618771 291.0229 
L 220.618771 290.50005 
L 221.759978 290.50005 
L 221.759978 289.977201 
L 231.432102 289.977201 
L 231.432102 289.454351 
L 243.764761 289.454351 
L 243.764761 288.931501 
L 333.569032 288.931501 
" style="fill:none;stroke:#ff0000;stroke-linecap:square;stroke-width:1.5;"/>
   </g>
   <g id="line2d_45">
    <defs>
     <path d="M -6 6 
L 6 6 
L 6 -6 
L -6 -6 
z
" id="m0646022b9e" style="stroke:#ff0000;stroke-linejoin:miter;stroke-width:1.5;"/>
    </defs>
    <g>
     <use style="fill-opacity:0;stroke:#ff0000;stroke-linejoin:miter;stroke-width:1.5;" x="243.764761" xlink:href="#m0646022b9e" y="289.454351"/>
     <use style="fill-opacity:0;stroke:#ff0000;stroke-linejoin:miter;stroke-width:1.5;" x="243.764761" xlink:href="#m0646022b9e" y="288.931501"/>
     <use style="fill-opacity:0;stroke:#ff0000;stroke-linejoin:miter;stroke-width:1.5;" x="243.764761" xlink:href="#m0646022b9e" y="288.931501"/>
     <use style="fill-opacity:0;stroke:#ff0000;stroke-linejoin:miter;stroke-width:1.5;" x="333.569032" xlink:href="#m0646022b9e" y="288.931501"/>
    </g>
   </g>
   <g id="line2d_46">
    <path style="fill:none;stroke:#ff0000;stroke-linecap:square;stroke-width:1.5;"/>
    <g/>
   </g>
   <g id="line2d_47">
    <path clip-path="url(#p35538b8693)" d="M 96.372719 294.16 
" style="fill:none;stroke:#ff0000;stroke-linecap:square;stroke-width:1.5;"/>
    <defs>
     <path d="M -12 12 
L 12 -12 
M -12 -12 
L 12 12 
" id="m38ffc39202" style="stroke:#ff0000;stroke-width:3;"/>
    </defs>
    <g clip-path="url(#p35538b8693)">
     <use style="fill:#ff0000;stroke:#ff0000;stroke-width:3;" x="96.372719" xlink:href="#m38ffc39202" y="294.16"/>
    </g>
   </g>
   <g id="line2d_48">
    <path clip-path="url(#p35538b8693)" d="M 56.84 294.16 
L 56.84 294.16 
L 56.84 294.16 
L 56.84 294.16 
L 399.984 294.16 
" style="fill:none;stroke:#bf00bf;stroke-linecap:square;stroke-width:1.5;"/>
   </g>
   <g id="line2d_49">
    <defs>
     <path d="M -0 8.485281 
L 8.485281 0 
L 0 -8.485281 
L -8.485281 -0 
z
" id="m62afdb1da6" style="stroke:#bf00bf;stroke-linejoin:miter;stroke-width:1.5;"/>
    </defs>
    <g clip-path="url(#p35538b8693)">
     <use style="fill-opacity:0;stroke:#bf00bf;stroke-linejoin:miter;stroke-width:1.5;" x="56.84" xlink:href="#m62afdb1da6" y="294.16"/>
    </g>
   </g>
   <g id="line2d_50">
    <path clip-path="url(#p35538b8693)" style="fill:none;stroke:#bf00bf;stroke-linecap:square;stroke-width:1.5;"/>
    <g clip-path="url(#p35538b8693)">
     <use style="fill-opacity:0;stroke:#bf00bf;stroke-linejoin:miter;stroke-width:1.5;" x="-1" xlink:href="#m62afdb1da6" y="560.813465"/>
     <use style="fill-opacity:0;stroke:#bf00bf;stroke-linejoin:miter;stroke-width:1.5;" x="399.984" xlink:href="#m62afdb1da6" y="560.813465"/>
    </g>
   </g>
   <g id="line2d_51">
    <path d="M 333.569032 294.16 
L 364.009226 288.826931 
" style="fill:none;stroke:#bf00bf;stroke-linecap:square;stroke-width:1.5;"/>
    <g>
     <use style="fill-opacity:0;stroke:#bf00bf;stroke-linejoin:miter;stroke-width:1.5;" x="333.569032" xlink:href="#m62afdb1da6" y="294.16"/>
     <use style="fill-opacity:0;stroke:#bf00bf;stroke-linejoin:miter;stroke-width:1.5;" x="364.009226" xlink:href="#m62afdb1da6" y="288.826931"/>
    </g>
   </g>
   <g id="line2d_52">
    <path d="M 333.569032 288.931501 
L 364.009226 237.629465 
" style="fill:none;stroke:#ff0000;stroke-linecap:square;stroke-width:1.5;"/>
    <g>
     <use style="fill-opacity:0;stroke:#ff0000;stroke-linejoin:miter;stroke-width:1.5;" x="333.569032" xlink:href="#m0646022b9e" y="288.931501"/>
     <use style="fill-opacity:0;stroke:#ff0000;stroke-linejoin:miter;stroke-width:1.5;" x="364.009226" xlink:href="#m0646022b9e" y="237.629465"/>
    </g>
   </g>
   <g id="line2d_53">
    <path d="M 333.569032 273.246003 
L 364.009226 186.432 
" style="fill:none;stroke:#000000;stroke-linecap:square;stroke-width:1.5;"/>
    <g>
     <use style="fill-opacity:0;stroke:#000000;stroke-width:1.5;" x="333.569032" xlink:href="#m87f9bee736" y="273.246003"/>
     <use style="fill-opacity:0;stroke:#000000;stroke-width:1.5;" x="364.009226" xlink:href="#m87f9bee736" y="186.432"/>
    </g>
   </g>
   <g id="line2d_54">
    <path d="M 333.569032 252.332005 
L 364.009226 135.234535 
" style="fill:none;stroke:#0000ff;stroke-linecap:square;stroke-width:1.5;"/>
    <g>
     <use style="fill-opacity:0;stroke:#0000ff;stroke-linejoin:bevel;stroke-width:1.5;" x="333.569032" xlink:href="#m1af8d57633" y="252.332005"/>
     <use style="fill-opacity:0;stroke:#0000ff;stroke-linejoin:bevel;stroke-width:1.5;" x="364.009226" xlink:href="#m1af8d57633" y="135.234535"/>
    </g>
   </g>
   <g id="line2d_55">
    <path d="M 333.569032 215.73251 
L 364.009226 84.037069 
" style="fill:none;stroke:#008000;stroke-linecap:square;stroke-width:1.5;"/>
    <g>
     <use style="fill-opacity:0;stroke:#008000;stroke-linejoin:miter;stroke-width:1.5;" x="333.569032" xlink:href="#mb19a0cfaa9" y="215.73251"/>
     <use style="fill-opacity:0;stroke:#008000;stroke-linejoin:miter;stroke-width:1.5;" x="364.009226" xlink:href="#mb19a0cfaa9" y="84.037069"/>
    </g>
   </g>
   <g id="line2d_56">
    <path d="M 333.569032 105.934024 
L 364.009226 32.839604 
" style="fill:none;stroke:#00bfbf;stroke-linecap:square;stroke-width:1.5;"/>
    <g>
     <use style="fill-opacity:0;stroke:#00bfbf;stroke-width:1.5;" x="333.569032" xlink:href="#m65652c664f" y="105.934024"/>
     <use style="fill-opacity:0;stroke:#00bfbf;stroke-width:1.5;" x="364.009226" xlink:href="#m65652c664f" y="32.839604"/>
    </g>
   </g>
   <g id="line2d_57">
    <path d="M 333.569032 294.16 
L 333.569032 27.506535 
" style="fill:none;stroke:#000000;stroke-linecap:square;stroke-width:1.5;"/>
   </g>
   <g id="patch_3">
    <path d="M 56.84 294.16 
L 56.84 24.84 
" style="fill:none;stroke:#000000;stroke-linecap:square;stroke-linejoin:miter;stroke-width:0.8;"/>
   </g>
   <g id="patch_4">
    <path d="M 399.984 294.16 
L 399.984 24.84 
" style="fill:none;stroke:#000000;stroke-linecap:square;stroke-linejoin:miter;stroke-width:0.8;"/>
   </g>
   <g id="patch_5">
    <path d="M 56.84 294.16 
L 399.984 294.16 
" style="fill:none;stroke:#000000;stroke-linecap:square;stroke-linejoin:miter;stroke-width:0.8;"/>
   </g>
   <g id="patch_6">
    <path d="M 56.84 24.84 
L 399.984 24.84 
" style="fill:none;stroke:#000000;stroke-linecap:square;stroke-linejoin:miter;stroke-width:0.8;"/>
   </g>
   <g id="text_14">
    <!-- 40-D -->
    <defs>
     <path d="M 19.671875 64.796875 
L 19.671875 8.109375 
L 31.59375 8.109375 
Q 46.6875 8.109375 53.6875 14.9375 
Q 60.6875 21.78125 60.6875 36.53125 
Q 60.6875 51.171875 53.6875 57.984375 
Q 46.6875 64.796875 31.59375 64.796875 
z
M 9.8125 72.90625 
L 30.078125 72.90625 
Q 51.265625 72.90625 61.171875 64.09375 
Q 71.09375 55.28125 71.09375 36.53125 
Q 71.09375 17.671875 61.125 8.828125 
Q 51.171875 0 30.078125 0 
L 9.8125 0 
z
" id="DejaVuSans-44"/>
    </defs>
    <g transform="translate(369.543806 293.517868)scale(0.17 -0.17)">
     <use xlink:href="#DejaVuSans-34"/>
     <use x="63.623047" xlink:href="#DejaVuSans-30"/>
     <use x="127.246094" xlink:href="#DejaVuSans-2d"/>
     <use x="163.330078" xlink:href="#DejaVuSans-44"/>
    </g>
   </g>
   <g id="text_15">
    <!-- 20-D -->
    <g transform="translate(369.543806 242.320403)scale(0.17 -0.17)">
     <use xlink:href="#DejaVuSans-32"/>
     <use x="63.623047" xlink:href="#DejaVuSans-30"/>
     <use x="127.246094" xlink:href="#DejaVuSans-2d"/>
     <use x="163.330078" xlink:href="#DejaVuSans-44"/>
    </g>
   </g>
   <g id="text_16">
    <!-- 10-D -->
    <g transform="translate(369.543806 191.122937)scale(0.17 -0.17)">
     <use xlink:href="#DejaVuSans-31"/>
     <use x="63.623047" xlink:href="#DejaVuSans-30"/>
     <use x="127.246094" xlink:href="#DejaVuSans-2d"/>
     <use x="163.330078" xlink:href="#DejaVuSans-44"/>
    </g>
   </g>
   <g id="text_17">
    <!-- 5-D -->
    <defs>
     <path d="M 10.796875 72.90625 
L 49.515625 72.90625 
L 49.515625 64.59375 
L 19.828125 64.59375 
L 19.828125 46.734375 
Q 21.96875 47.46875 24.109375 47.828125 
Q 26.265625 48.1875 28.421875 48.1875 
Q 40.625 48.1875 47.75 41.5 
Q 54.890625 34.8125 54.890625 23.390625 
Q 54.890625 11.625 47.5625 5.09375 
Q 40.234375 -1.421875 26.90625 -1.421875 
Q 22.3125 -1.421875 17.546875 -0.640625 
Q 12.796875 0.140625 7.71875 1.703125 
L 7.71875 11.625 
Q 12.109375 9.234375 16.796875 8.0625 
Q 21.484375 6.890625 26.703125 6.890625 
Q 35.15625 6.890625 40.078125 11.328125 
Q 45.015625 15.765625 45.015625 23.390625 
Q 45.015625 31 40.078125 35.4375 
Q 35.15625 39.890625 26.703125 39.890625 
Q 22.75 39.890625 18.8125 39.015625 
Q 14.890625 38.140625 10.796875 36.28125 
z
" id="DejaVuSans-35"/>
    </defs>
    <g transform="translate(369.543806 139.925472)scale(0.17 -0.17)">
     <use xlink:href="#DejaVuSans-35"/>
     <use x="63.623047" xlink:href="#DejaVuSans-2d"/>
     <use x="99.707031" xlink:href="#DejaVuSans-44"/>
    </g>
   </g>
   <g id="text_18">
    <!-- 3-D -->
    <defs>
     <path d="M 40.578125 39.3125 
Q 47.65625 37.796875 51.625 33 
Q 55.609375 28.21875 55.609375 21.1875 
Q 55.609375 10.40625 48.1875 4.484375 
Q 40.765625 -1.421875 27.09375 -1.421875 
Q 22.515625 -1.421875 17.65625 -0.515625 
Q 12.796875 0.390625 7.625 2.203125 
L 7.625 11.71875 
Q 11.71875 9.328125 16.59375 8.109375 
Q 21.484375 6.890625 26.8125 6.890625 
Q 36.078125 6.890625 40.9375 10.546875 
Q 45.796875 14.203125 45.796875 21.1875 
Q 45.796875 27.640625 41.28125 31.265625 
Q 36.765625 34.90625 28.71875 34.90625 
L 20.21875 34.90625 
L 20.21875 43.015625 
L 29.109375 43.015625 
Q 36.375 43.015625 40.234375 45.921875 
Q 44.09375 48.828125 44.09375 54.296875 
Q 44.09375 59.90625 40.109375 62.90625 
Q 36.140625 65.921875 28.71875 65.921875 
Q 24.65625 65.921875 20.015625 65.03125 
Q 15.375 64.15625 9.8125 62.3125 
L 9.8125 71.09375 
Q 15.4375 72.65625 20.34375 73.4375 
Q 25.25 74.21875 29.59375 74.21875 
Q 40.828125 74.21875 47.359375 69.109375 
Q 53.90625 64.015625 53.90625 55.328125 
Q 53.90625 49.265625 50.4375 45.09375 
Q 46.96875 40.921875 40.578125 39.3125 
z
" id="DejaVuSans-33"/>
    </defs>
    <g transform="translate(369.543806 88.728007)scale(0.17 -0.17)">
     <use xlink:href="#DejaVuSans-33"/>
     <use x="63.623047" xlink:href="#DejaVuSans-2d"/>
     <use x="99.707031" xlink:href="#DejaVuSans-44"/>
    </g>
   </g>
   <g id="text_19">
    <!-- 2-D -->
    <g transform="translate(369.543806 37.530541)scale(0.17 -0.17)">
     <use xlink:href="#DejaVuSans-32"/>
     <use x="63.623047" xlink:href="#DejaVuSans-2d"/>
     <use x="99.707031" xlink:href="#DejaVuSans-44"/>
    </g>
   </g>
   <g id="text_20">
    <!-- bbob f6 -->
    <defs>
     <path d="M 48.6875 27.296875 
Q 48.6875 37.203125 44.609375 42.84375 
Q 40.53125 48.484375 33.40625 48.484375 
Q 26.265625 48.484375 22.1875 42.84375 
Q 18.109375 37.203125 18.109375 27.296875 
Q 18.109375 17.390625 22.1875 11.75 
Q 26.265625 6.109375 33.40625 6.109375 
Q 40.53125 6.109375 44.609375 11.75 
Q 48.6875 17.390625 48.6875 27.296875 
z
M 18.109375 46.390625 
Q 20.953125 51.265625 25.265625 53.625 
Q 29.59375 56 35.59375 56 
Q 45.5625 56 51.78125 48.09375 
Q 58.015625 40.1875 58.015625 27.296875 
Q 58.015625 14.40625 51.78125 6.484375 
Q 45.5625 -1.421875 35.59375 -1.421875 
Q 29.59375 -1.421875 25.265625 0.953125 
Q 20.953125 3.328125 18.109375 8.203125 
L 18.109375 0 
L 9.078125 0 
L 9.078125 75.984375 
L 18.109375 75.984375 
z
" id="DejaVuSans-62"/>
    </defs>
    <g transform="translate(60.27144 35.283606)scale(0.102 -0.102)">
     <use xlink:href="#DejaVuSans-62"/>
     <use x="63.476562" xlink:href="#DejaVuSans-62"/>
     <use x="126.953125" xlink:href="#DejaVuSans-6f"/>
     <use x="188.134766" xlink:href="#DejaVuSans-62"/>
     <use x="251.611328" xlink:href="#DejaVuSans-20"/>
     <use x="283.398438" xlink:href="#DejaVuSans-66"/>
     <use x="318.603516" xlink:href="#DejaVuSans-36"/>
    </g>
    <!-- 51 targets: 100..1e-08 -->
    <defs>
     <path d="M 11.71875 12.40625 
L 22.015625 12.40625 
L 22.015625 0 
L 11.71875 0 
z
M 11.71875 51.703125 
L 22.015625 51.703125 
L 22.015625 39.3125 
L 11.71875 39.3125 
z
" id="DejaVuSans-3a"/>
    </defs>
    <g transform="translate(60.27144 46.705375)scale(0.102 -0.102)">
     <use xlink:href="#DejaVuSans-35"/>
     <use x="63.623047" xlink:href="#DejaVuSans-31"/>
     <use x="127.246094" xlink:href="#DejaVuSans-20"/>
     <use x="159.033203" xlink:href="#DejaVuSans-74"/>
     <use x="198.242188" xlink:href="#DejaVuSans-61"/>
     <use x="259.521484" xlink:href="#DejaVuSans-72"/>
     <use x="300.619141" xlink:href="#DejaVuSans-67"/>
     <use x="364.095703" xlink:href="#DejaVuSans-65"/>
     <use x="425.619141" xlink:href="#DejaVuSans-74"/>
     <use x="464.828125" xlink:href="#DejaVuSans-73"/>
     <use x="516.927734" xlink:href="#DejaVuSans-3a"/>
     <use x="550.619141" xlink:href="#DejaVuSans-20"/>
     <use x="582.40625" xlink:href="#DejaVuSans-31"/>
     <use x="646.029297" xlink:href="#DejaVuSans-30"/>
     <use x="709.652344" xlink:href="#DejaVuSans-30"/>
     <use x="773.275391" xlink:href="#DejaVuSans-2e"/>
     <use x="805.0625" xlink:href="#DejaVuSans-2e"/>
     <use x="836.849609" xlink:href="#DejaVuSans-31"/>
     <use x="900.472656" xlink:href="#DejaVuSans-65"/>
     <use x="961.996094" xlink:href="#DejaVuSans-2d"/>
     <use x="998.080078" xlink:href="#DejaVuSans-30"/>
     <use x="1061.703125" xlink:href="#DejaVuSans-38"/>
    </g>
    <!-- 15 instances -->
    <g transform="translate(60.27144 58.127144)scale(0.102 -0.102)">
     <use xlink:href="#DejaVuSans-31"/>
     <use x="63.623047" xlink:href="#DejaVuSans-35"/>
     <use x="127.246094" xlink:href="#DejaVuSans-20"/>
     <use x="159.033203" xlink:href="#DejaVuSans-69"/>
     <use x="186.816406" xlink:href="#DejaVuSans-6e"/>
     <use x="250.195312" xlink:href="#DejaVuSans-73"/>
     <use x="302.294922" xlink:href="#DejaVuSans-74"/>
     <use x="341.503906" xlink:href="#DejaVuSans-61"/>
     <use x="402.783203" xlink:href="#DejaVuSans-6e"/>
     <use x="466.162109" xlink:href="#DejaVuSans-63"/>
     <use x="521.142578" xlink:href="#DejaVuSans-65"/>
     <use x="582.666016" xlink:href="#DejaVuSans-73"/>
    </g>
   </g>
   <g id="text_21">
    <!-- v2.2.1.10 -->
    <g style="fill:#808080;" transform="translate(204.779188 289.387113)scale(0.1 -0.1)">
     <use xlink:href="#DejaVuSans-76"/>
     <use x="59.179688" xlink:href="#DejaVuSans-32"/>
     <use x="122.802734" xlink:href="#DejaVuSans-2e"/>
     <use x="154.589844" xlink:href="#DejaVuSans-32"/>
     <use x="218.212891" xlink:href="#DejaVuSans-2e"/>
     <use x="250" xlink:href="#DejaVuSans-31"/>
     <use x="313.623047" xlink:href="#DejaVuSans-2e"/>
     <use x="345.410156" xlink:href="#DejaVuSans-31"/>
     <use x="409.033203" xlink:href="#DejaVuSans-30"/>
    </g>
   </g>
   <g id="text_22">
    <!-- 6 Attractive sector -->
    <defs>
     <path d="M 34.1875 63.1875 
L 20.796875 26.90625 
L 47.609375 26.90625 
z
M 28.609375 72.90625 
L 39.796875 72.90625 
L 67.578125 0 
L 57.328125 0 
L 50.6875 18.703125 
L 17.828125 18.703125 
L 11.1875 0 
L 0.78125 0 
z
" id="DejaVuSans-41"/>
    </defs>
    <g transform="translate(135.494813 18.84)scale(0.2 -0.2)">
     <use xlink:href="#DejaVuSans-36"/>
     <use x="63.623047" xlink:href="#DejaVuSans-20"/>
     <use x="95.410156" xlink:href="#DejaVuSans-41"/>
     <use x="163.802734" xlink:href="#DejaVuSans-74"/>
     <use x="203.011719" xlink:href="#DejaVuSans-74"/>
     <use x="242.220703" xlink:href="#DejaVuSans-72"/>
     <use x="283.333984" xlink:href="#DejaVuSans-61"/>
     <use x="344.613281" xlink:href="#DejaVuSans-63"/>
     <use x="399.59375" xlink:href="#DejaVuSans-74"/>
     <use x="438.802734" xlink:href="#DejaVuSans-69"/>
     <use x="466.585938" xlink:href="#DejaVuSans-76"/>
     <use x="525.765625" xlink:href="#DejaVuSans-65"/>
     <use x="587.289062" xlink:href="#DejaVuSans-20"/>
     <use x="619.076172" xlink:href="#DejaVuSans-73"/>
     <use x="671.175781" xlink:href="#DejaVuSans-65"/>
     <use x="732.699219" xlink:href="#DejaVuSans-63"/>
     <use x="787.679688" xlink:href="#DejaVuSans-74"/>
     <use x="826.888672" xlink:href="#DejaVuSans-6f"/>
     <use x="888.070312" xlink:href="#DejaVuSans-72"/>
    </g>
   </g>
  </g>
 </g>
 <defs>
  <clipPath id="p35538b8693">
   <rect height="269.32" width="343.144" x="56.84" y="24.84"/>
  </clipPath>
 </defs>
</svg>
