<?xml version="1.0" encoding="utf-8" standalone="no"?>
<!DOCTYPE svg PUBLIC "-//W3C//DTD SVG 1.1//EN"
  "http://www.w3.org/Graphics/SVG/1.1/DTD/svg11.dtd">
<!-- Created with matplotlib (http://matplotlib.org/) -->
<svg height="345.6pt" version="1.1" viewBox="0 0 460.8 345.6" width="460.8pt" xmlns="http://www.w3.org/2000/svg" xmlns:xlink="http://www.w3.org/1999/xlink">
 <defs>
  <style type="text/css">
*{stroke-linecap:butt;stroke-linejoin:round;}
  </style>
 </defs>
 <g id="figure_1">
  <g id="patch_1">
   <path d="M 0 345.6 
L 460.8 345.6 
L 460.8 0 
L 0 0 
z
" style="fill:#ffffff;"/>
  </g>
  <g id="axes_1">
   <g id="patch_2">
    <path d="M 56.84 294.16 
L 399.984 294.16 
L 399.984 6.125228 
L 56.84 6.125228 
z
" style="fill:#ffffff;"/>
   </g>
   <g id="matplotlib.axis_1">
    <g id="xtick_1">
     <g id="line2d_1">
      <path clip-path="url(#p6249dae7b3)" d="M 56.84 294.16 
L 56.84 6.125228 
" style="fill:none;stroke:#b0b0b0;stroke-linecap:square;stroke-width:0.8;"/>
     </g>
     <g id="line2d_2">
      <defs>
       <path d="M 0 0 
L 0 3.5 
" id="m90cc3174ba" style="stroke:#000000;stroke-width:0.8;"/>
      </defs>
      <g>
       <use style="stroke:#000000;stroke-width:0.8;" x="56.84" xlink:href="#m90cc3174ba" y="294.16"/>
      </g>
     </g>
     <g id="text_1">
      <!-- 0 -->
      <defs>
       <path d="M 31.78125 66.40625 
Q 24.171875 66.40625 20.328125 58.90625 
Q 16.5 51.421875 16.5 36.375 
Q 16.5 21.390625 20.328125 13.890625 
Q 24.171875 6.390625 31.78125 6.390625 
Q 39.453125 6.390625 43.28125 13.890625 
Q 47.125 21.390625 47.125 36.375 
Q 47.125 51.421875 43.28125 58.90625 
Q 39.453125 66.40625 31.78125 66.40625 
z
M 31.78125 74.21875 
Q 44.046875 74.21875 50.515625 64.515625 
Q 56.984375 54.828125 56.984375 36.375 
Q 56.984375 17.96875 50.515625 8.265625 
Q 44.046875 -1.421875 31.78125 -1.421875 
Q 19.53125 -1.421875 13.0625 8.265625 
Q 6.59375 17.96875 6.59375 36.375 
Q 6.59375 54.828125 13.0625 64.515625 
Q 19.53125 74.21875 31.78125 74.21875 
z
" id="DejaVuSans-30"/>
      </defs>
      <g transform="translate(50.4775 316.356875)scale(0.2 -0.2)">
       <use xlink:href="#DejaVuSans-30"/>
      </g>
     </g>
    </g>
    <g id="xtick_2">
     <g id="line2d_3">
      <path clip-path="url(#p6249dae7b3)" d="M 135.905438 294.16 
L 135.905438 6.125228 
" style="fill:none;stroke:#b0b0b0;stroke-linecap:square;stroke-width:0.8;"/>
     </g>
     <g id="line2d_4">
      <g>
       <use style="stroke:#000000;stroke-width:0.8;" x="135.905438" xlink:href="#m90cc3174ba" y="294.16"/>
      </g>
     </g>
     <g id="text_2">
      <!-- 2 -->
      <defs>
       <path d="M 19.1875 8.296875 
L 53.609375 8.296875 
L 53.609375 0 
L 7.328125 0 
L 7.328125 8.296875 
Q 12.9375 14.109375 22.625 23.890625 
Q 32.328125 33.6875 34.8125 36.53125 
Q 39.546875 41.84375 41.421875 45.53125 
Q 43.3125 49.21875 43.3125 52.78125 
Q 43.3125 58.59375 39.234375 62.25 
Q 35.15625 65.921875 28.609375 65.921875 
Q 23.96875 65.921875 18.8125 64.3125 
Q 13.671875 62.703125 7.8125 59.421875 
L 7.8125 69.390625 
Q 13.765625 71.78125 18.9375 73 
Q 24.125 74.21875 28.421875 74.21875 
Q 39.75 74.21875 46.484375 68.546875 
Q 53.21875 62.890625 53.21875 53.421875 
Q 53.21875 48.921875 51.53125 44.890625 
Q 49.859375 40.875 45.40625 35.40625 
Q 44.1875 33.984375 37.640625 27.21875 
Q 31.109375 20.453125 19.1875 8.296875 
z
" id="DejaVuSans-32"/>
      </defs>
      <g transform="translate(129.542938 316.356875)scale(0.2 -0.2)">
       <use xlink:href="#DejaVuSans-32"/>
      </g>
     </g>
    </g>
    <g id="xtick_3">
     <g id="line2d_5">
      <path clip-path="url(#p6249dae7b3)" d="M 214.970876 294.16 
L 214.970876 6.125228 
" style="fill:none;stroke:#b0b0b0;stroke-linecap:square;stroke-width:0.8;"/>
     </g>
     <g id="line2d_6">
      <g>
       <use style="stroke:#000000;stroke-width:0.8;" x="214.970876" xlink:href="#m90cc3174ba" y="294.16"/>
      </g>
     </g>
     <g id="text_3">
      <!-- 4 -->
      <defs>
       <path d="M 37.796875 64.3125 
L 12.890625 25.390625 
L 37.796875 25.390625 
z
M 35.203125 72.90625 
L 47.609375 72.90625 
L 47.609375 25.390625 
L 58.015625 25.390625 
L 58.015625 17.1875 
L 47.609375 17.1875 
L 47.609375 0 
L 37.796875 0 
L 37.796875 17.1875 
L 4.890625 17.1875 
L 4.890625 26.703125 
z
" id="DejaVuSans-34"/>
      </defs>
      <g transform="translate(208.608376 316.356875)scale(0.2 -0.2)">
       <use xlink:href="#DejaVuSans-34"/>
      </g>
     </g>
    </g>
    <g id="xtick_4">
     <g id="line2d_7">
      <path clip-path="url(#p6249dae7b3)" d="M 294.036313 294.16 
L 294.036313 6.125228 
" style="fill:none;stroke:#b0b0b0;stroke-linecap:square;stroke-width:0.8;"/>
     </g>
     <g id="line2d_8">
      <g>
       <use style="stroke:#000000;stroke-width:0.8;" x="294.036313" xlink:href="#m90cc3174ba" y="294.16"/>
      </g>
     </g>
     <g id="text_4">
      <!-- 6 -->
      <defs>
       <path d="M 33.015625 40.375 
Q 26.375 40.375 22.484375 35.828125 
Q 18.609375 31.296875 18.609375 23.390625 
Q 18.609375 15.53125 22.484375 10.953125 
Q 26.375 6.390625 33.015625 6.390625 
Q 39.65625 6.390625 43.53125 10.953125 
Q 47.40625 15.53125 47.40625 23.390625 
Q 47.40625 31.296875 43.53125 35.828125 
Q 39.65625 40.375 33.015625 40.375 
z
M 52.59375 71.296875 
L 52.59375 62.3125 
Q 48.875 64.0625 45.09375 64.984375 
Q 41.3125 65.921875 37.59375 65.921875 
Q 27.828125 65.921875 22.671875 59.328125 
Q 17.53125 52.734375 16.796875 39.40625 
Q 19.671875 43.65625 24.015625 45.921875 
Q 28.375 48.1875 33.59375 48.1875 
Q 44.578125 48.1875 50.953125 41.515625 
Q 57.328125 34.859375 57.328125 23.390625 
Q 57.328125 12.15625 50.6875 5.359375 
Q 44.046875 -1.421875 33.015625 -1.421875 
Q 20.359375 -1.421875 13.671875 8.265625 
Q 6.984375 17.96875 6.984375 36.375 
Q 6.984375 53.65625 15.1875 63.9375 
Q 23.390625 74.21875 37.203125 74.21875 
Q 40.921875 74.21875 44.703125 73.484375 
Q 48.484375 72.75 52.59375 71.296875 
z
" id="DejaVuSans-36"/>
      </defs>
      <g transform="translate(287.673813 316.356875)scale(0.2 -0.2)">
       <use xlink:href="#DejaVuSans-36"/>
      </g>
     </g>
    </g>
    <g id="xtick_5">
     <g id="line2d_9">
      <path clip-path="url(#p6249dae7b3)" d="M 373.101751 294.16 
L 373.101751 6.125228 
" style="fill:none;stroke:#b0b0b0;stroke-linecap:square;stroke-width:0.8;"/>
     </g>
     <g id="line2d_10">
      <g>
       <use style="stroke:#000000;stroke-width:0.8;" x="373.101751" xlink:href="#m90cc3174ba" y="294.16"/>
      </g>
     </g>
     <g id="text_5">
      <!-- 8 -->
      <defs>
       <path d="M 31.78125 34.625 
Q 24.75 34.625 20.71875 30.859375 
Q 16.703125 27.09375 16.703125 20.515625 
Q 16.703125 13.921875 20.71875 10.15625 
Q 24.75 6.390625 31.78125 6.390625 
Q 38.8125 6.390625 42.859375 10.171875 
Q 46.921875 13.96875 46.921875 20.515625 
Q 46.921875 27.09375 42.890625 30.859375 
Q 38.875 34.625 31.78125 34.625 
z
M 21.921875 38.8125 
Q 15.578125 40.375 12.03125 44.71875 
Q 8.5 49.078125 8.5 55.328125 
Q 8.5 64.0625 14.71875 69.140625 
Q 20.953125 74.21875 31.78125 74.21875 
Q 42.671875 74.21875 48.875 69.140625 
Q 55.078125 64.0625 55.078125 55.328125 
Q 55.078125 49.078125 51.53125 44.71875 
Q 48 40.375 41.703125 38.8125 
Q 48.828125 37.15625 52.796875 32.3125 
Q 56.78125 27.484375 56.78125 20.515625 
Q 56.78125 9.90625 50.3125 4.234375 
Q 43.84375 -1.421875 31.78125 -1.421875 
Q 19.734375 -1.421875 13.25 4.234375 
Q 6.78125 9.90625 6.78125 20.515625 
Q 6.78125 27.484375 10.78125 32.3125 
Q 14.796875 37.15625 21.921875 38.8125 
z
M 18.3125 54.390625 
Q 18.3125 48.734375 21.84375 45.5625 
Q 25.390625 42.390625 31.78125 42.390625 
Q 38.140625 42.390625 41.71875 45.5625 
Q 45.3125 48.734375 45.3125 54.390625 
Q 45.3125 60.0625 41.71875 63.234375 
Q 38.140625 66.40625 31.78125 66.40625 
Q 25.390625 66.40625 21.84375 63.234375 
Q 18.3125 60.0625 18.3125 54.390625 
z
" id="DejaVuSans-38"/>
      </defs>
      <g transform="translate(366.739251 316.356875)scale(0.2 -0.2)">
       <use xlink:href="#DejaVuSans-38"/>
      </g>
     </g>
    </g>
    <g id="text_6">
     <!-- log10(# f-evals / dimension) -->
     <defs>
      <path d="M 9.421875 75.984375 
L 18.40625 75.984375 
L 18.40625 0 
L 9.421875 0 
z
" id="DejaVuSans-6c"/>
      <path d="M 30.609375 48.390625 
Q 23.390625 48.390625 19.1875 42.75 
Q 14.984375 37.109375 14.984375 27.296875 
Q 14.984375 17.484375 19.15625 11.84375 
Q 23.34375 6.203125 30.609375 6.203125 
Q 37.796875 6.203125 41.984375 11.859375 
Q 46.1875 17.53125 46.1875 27.296875 
Q 46.1875 37.015625 41.984375 42.703125 
Q 37.796875 48.390625 30.609375 48.390625 
z
M 30.609375 56 
Q 42.328125 56 49.015625 48.375 
Q 55.71875 40.765625 55.71875 27.296875 
Q 55.71875 13.875 49.015625 6.21875 
Q 42.328125 -1.421875 30.609375 -1.421875 
Q 18.84375 -1.421875 12.171875 6.21875 
Q 5.515625 13.875 5.515625 27.296875 
Q 5.515625 40.765625 12.171875 48.375 
Q 18.84375 56 30.609375 56 
z
" id="DejaVuSans-6f"/>
      <path d="M 45.40625 27.984375 
Q 45.40625 37.75 41.375 43.109375 
Q 37.359375 48.484375 30.078125 48.484375 
Q 22.859375 48.484375 18.828125 43.109375 
Q 14.796875 37.75 14.796875 27.984375 
Q 14.796875 18.265625 18.828125 12.890625 
Q 22.859375 7.515625 30.078125 7.515625 
Q 37.359375 7.515625 41.375 12.890625 
Q 45.40625 18.265625 45.40625 27.984375 
z
M 54.390625 6.78125 
Q 54.390625 -7.171875 48.1875 -13.984375 
Q 42 -20.796875 29.203125 -20.796875 
Q 24.46875 -20.796875 20.265625 -20.09375 
Q 16.0625 -19.390625 12.109375 -17.921875 
L 12.109375 -9.1875 
Q 16.0625 -11.328125 19.921875 -12.34375 
Q 23.78125 -13.375 27.78125 -13.375 
Q 36.625 -13.375 41.015625 -8.765625 
Q 45.40625 -4.15625 45.40625 5.171875 
L 45.40625 9.625 
Q 42.625 4.78125 38.28125 2.390625 
Q 33.9375 0 27.875 0 
Q 17.828125 0 11.671875 7.65625 
Q 5.515625 15.328125 5.515625 27.984375 
Q 5.515625 40.671875 11.671875 48.328125 
Q 17.828125 56 27.875 56 
Q 33.9375 56 38.28125 53.609375 
Q 42.625 51.21875 45.40625 46.390625 
L 45.40625 54.6875 
L 54.390625 54.6875 
z
" id="DejaVuSans-67"/>
      <path d="M 12.40625 8.296875 
L 28.515625 8.296875 
L 28.515625 63.921875 
L 10.984375 60.40625 
L 10.984375 69.390625 
L 28.421875 72.90625 
L 38.28125 72.90625 
L 38.28125 8.296875 
L 54.390625 8.296875 
L 54.390625 0 
L 12.40625 0 
z
" id="DejaVuSans-31"/>
      <path d="M 31 75.875 
Q 24.46875 64.65625 21.28125 53.65625 
Q 18.109375 42.671875 18.109375 31.390625 
Q 18.109375 20.125 21.3125 9.0625 
Q 24.515625 -2 31 -13.1875 
L 23.1875 -13.1875 
Q 15.875 -1.703125 12.234375 9.375 
Q 8.59375 20.453125 8.59375 31.390625 
Q 8.59375 42.28125 12.203125 53.3125 
Q 15.828125 64.359375 23.1875 75.875 
z
" id="DejaVuSans-28"/>
      <path d="M 51.125 44 
L 36.921875 44 
L 32.8125 27.6875 
L 47.125 27.6875 
z
M 43.796875 71.78125 
L 38.71875 51.515625 
L 52.984375 51.515625 
L 58.109375 71.78125 
L 65.921875 71.78125 
L 60.890625 51.515625 
L 76.125 51.515625 
L 76.125 44 
L 58.984375 44 
L 54.984375 27.6875 
L 70.515625 27.6875 
L 70.515625 20.21875 
L 53.078125 20.21875 
L 48 0 
L 40.1875 0 
L 45.21875 20.21875 
L 30.90625 20.21875 
L 25.875 0 
L 18.015625 0 
L 23.09375 20.21875 
L 7.71875 20.21875 
L 7.71875 27.6875 
L 24.90625 27.6875 
L 29 44 
L 13.28125 44 
L 13.28125 51.515625 
L 30.90625 51.515625 
L 35.890625 71.78125 
z
" id="DejaVuSans-23"/>
      <path id="DejaVuSans-20"/>
      <path d="M 37.109375 75.984375 
L 37.109375 68.5 
L 28.515625 68.5 
Q 23.6875 68.5 21.796875 66.546875 
Q 19.921875 64.59375 19.921875 59.515625 
L 19.921875 54.6875 
L 34.71875 54.6875 
L 34.71875 47.703125 
L 19.921875 47.703125 
L 19.921875 0 
L 10.890625 0 
L 10.890625 47.703125 
L 2.296875 47.703125 
L 2.296875 54.6875 
L 10.890625 54.6875 
L 10.890625 58.5 
Q 10.890625 67.625 15.140625 71.796875 
Q 19.390625 75.984375 28.609375 75.984375 
z
" id="DejaVuSans-66"/>
      <path d="M 4.890625 31.390625 
L 31.203125 31.390625 
L 31.203125 23.390625 
L 4.890625 23.390625 
z
" id="DejaVuSans-2d"/>
      <path d="M 56.203125 29.59375 
L 56.203125 25.203125 
L 14.890625 25.203125 
Q 15.484375 15.921875 20.484375 11.0625 
Q 25.484375 6.203125 34.421875 6.203125 
Q 39.59375 6.203125 44.453125 7.46875 
Q 49.3125 8.734375 54.109375 11.28125 
L 54.109375 2.78125 
Q 49.265625 0.734375 44.1875 -0.34375 
Q 39.109375 -1.421875 33.890625 -1.421875 
Q 20.796875 -1.421875 13.15625 6.1875 
Q 5.515625 13.8125 5.515625 26.8125 
Q 5.515625 40.234375 12.765625 48.109375 
Q 20.015625 56 32.328125 56 
Q 43.359375 56 49.78125 48.890625 
Q 56.203125 41.796875 56.203125 29.59375 
z
M 47.21875 32.234375 
Q 47.125 39.59375 43.09375 43.984375 
Q 39.0625 48.390625 32.421875 48.390625 
Q 24.90625 48.390625 20.390625 44.140625 
Q 15.875 39.890625 15.1875 32.171875 
z
" id="DejaVuSans-65"/>
      <path d="M 2.984375 54.6875 
L 12.5 54.6875 
L 29.59375 8.796875 
L 46.6875 54.6875 
L 56.203125 54.6875 
L 35.6875 0 
L 23.484375 0 
z
" id="DejaVuSans-76"/>
      <path d="M 34.28125 27.484375 
Q 23.390625 27.484375 19.1875 25 
Q 14.984375 22.515625 14.984375 16.5 
Q 14.984375 11.71875 18.140625 8.90625 
Q 21.296875 6.109375 26.703125 6.109375 
Q 34.1875 6.109375 38.703125 11.40625 
Q 43.21875 16.703125 43.21875 25.484375 
L 43.21875 27.484375 
z
M 52.203125 31.203125 
L 52.203125 0 
L 43.21875 0 
L 43.21875 8.296875 
Q 40.140625 3.328125 35.546875 0.953125 
Q 30.953125 -1.421875 24.3125 -1.421875 
Q 15.921875 -1.421875 10.953125 3.296875 
Q 6 8.015625 6 15.921875 
Q 6 25.140625 12.171875 29.828125 
Q 18.359375 34.515625 30.609375 34.515625 
L 43.21875 34.515625 
L 43.21875 35.40625 
Q 43.21875 41.609375 39.140625 45 
Q 35.0625 48.390625 27.6875 48.390625 
Q 23 48.390625 18.546875 47.265625 
Q 14.109375 46.140625 10.015625 43.890625 
L 10.015625 52.203125 
Q 14.9375 54.109375 19.578125 55.046875 
Q 24.21875 56 28.609375 56 
Q 40.484375 56 46.34375 49.84375 
Q 52.203125 43.703125 52.203125 31.203125 
z
" id="DejaVuSans-61"/>
      <path d="M 44.28125 53.078125 
L 44.28125 44.578125 
Q 40.484375 46.53125 36.375 47.5 
Q 32.28125 48.484375 27.875 48.484375 
Q 21.1875 48.484375 17.84375 46.4375 
Q 14.5 44.390625 14.5 40.28125 
Q 14.5 37.15625 16.890625 35.375 
Q 19.28125 33.59375 26.515625 31.984375 
L 29.59375 31.296875 
Q 39.15625 29.25 43.1875 25.515625 
Q 47.21875 21.78125 47.21875 15.09375 
Q 47.21875 7.46875 41.1875 3.015625 
Q 35.15625 -1.421875 24.609375 -1.421875 
Q 20.21875 -1.421875 15.453125 -0.5625 
Q 10.6875 0.296875 5.421875 2 
L 5.421875 11.28125 
Q 10.40625 8.6875 15.234375 7.390625 
Q 20.0625 6.109375 24.8125 6.109375 
Q 31.15625 6.109375 34.5625 8.28125 
Q 37.984375 10.453125 37.984375 14.40625 
Q 37.984375 18.0625 35.515625 20.015625 
Q 33.0625 21.96875 24.703125 23.78125 
L 21.578125 24.515625 
Q 13.234375 26.265625 9.515625 29.90625 
Q 5.8125 33.546875 5.8125 39.890625 
Q 5.8125 47.609375 11.28125 51.796875 
Q 16.75 56 26.8125 56 
Q 31.78125 56 36.171875 55.265625 
Q 40.578125 54.546875 44.28125 53.078125 
z
" id="DejaVuSans-73"/>
      <path d="M 25.390625 72.90625 
L 33.6875 72.90625 
L 8.296875 -9.28125 
L 0 -9.28125 
z
" id="DejaVuSans-2f"/>
      <path d="M 45.40625 46.390625 
L 45.40625 75.984375 
L 54.390625 75.984375 
L 54.390625 0 
L 45.40625 0 
L 45.40625 8.203125 
Q 42.578125 3.328125 38.25 0.953125 
Q 33.9375 -1.421875 27.875 -1.421875 
Q 17.96875 -1.421875 11.734375 6.484375 
Q 5.515625 14.40625 5.515625 27.296875 
Q 5.515625 40.1875 11.734375 48.09375 
Q 17.96875 56 27.875 56 
Q 33.9375 56 38.25 53.625 
Q 42.578125 51.265625 45.40625 46.390625 
z
M 14.796875 27.296875 
Q 14.796875 17.390625 18.875 11.75 
Q 22.953125 6.109375 30.078125 6.109375 
Q 37.203125 6.109375 41.296875 11.75 
Q 45.40625 17.390625 45.40625 27.296875 
Q 45.40625 37.203125 41.296875 42.84375 
Q 37.203125 48.484375 30.078125 48.484375 
Q 22.953125 48.484375 18.875 42.84375 
Q 14.796875 37.203125 14.796875 27.296875 
z
" id="DejaVuSans-64"/>
      <path d="M 9.421875 54.6875 
L 18.40625 54.6875 
L 18.40625 0 
L 9.421875 0 
z
M 9.421875 75.984375 
L 18.40625 75.984375 
L 18.40625 64.59375 
L 9.421875 64.59375 
z
" id="DejaVuSans-69"/>
      <path d="M 52 44.1875 
Q 55.375 50.25 60.0625 53.125 
Q 64.75 56 71.09375 56 
Q 79.640625 56 84.28125 50.015625 
Q 88.921875 44.046875 88.921875 33.015625 
L 88.921875 0 
L 79.890625 0 
L 79.890625 32.71875 
Q 79.890625 40.578125 77.09375 44.375 
Q 74.3125 48.1875 68.609375 48.1875 
Q 61.625 48.1875 57.5625 43.546875 
Q 53.515625 38.921875 53.515625 30.90625 
L 53.515625 0 
L 44.484375 0 
L 44.484375 32.71875 
Q 44.484375 40.625 41.703125 44.40625 
Q 38.921875 48.1875 33.109375 48.1875 
Q 26.21875 48.1875 22.15625 43.53125 
Q 18.109375 38.875 18.109375 30.90625 
L 18.109375 0 
L 9.078125 0 
L 9.078125 54.6875 
L 18.109375 54.6875 
L 18.109375 46.1875 
Q 21.1875 51.21875 25.484375 53.609375 
Q 29.78125 56 35.6875 56 
Q 41.65625 56 45.828125 52.96875 
Q 50 49.953125 52 44.1875 
z
" id="DejaVuSans-6d"/>
      <path d="M 54.890625 33.015625 
L 54.890625 0 
L 45.90625 0 
L 45.90625 32.71875 
Q 45.90625 40.484375 42.875 44.328125 
Q 39.84375 48.1875 33.796875 48.1875 
Q 26.515625 48.1875 22.3125 43.546875 
Q 18.109375 38.921875 18.109375 30.90625 
L 18.109375 0 
L 9.078125 0 
L 9.078125 54.6875 
L 18.109375 54.6875 
L 18.109375 46.1875 
Q 21.34375 51.125 25.703125 53.5625 
Q 30.078125 56 35.796875 56 
Q 45.21875 56 50.046875 50.171875 
Q 54.890625 44.34375 54.890625 33.015625 
z
" id="DejaVuSans-6e"/>
      <path d="M 8.015625 75.875 
L 15.828125 75.875 
Q 23.140625 64.359375 26.78125 53.3125 
Q 30.421875 42.28125 30.421875 31.390625 
Q 30.421875 20.453125 26.78125 9.375 
Q 23.140625 -1.703125 15.828125 -13.1875 
L 8.015625 -13.1875 
Q 14.5 -2 17.703125 9.0625 
Q 20.90625 20.125 20.90625 31.390625 
Q 20.90625 42.671875 17.703125 53.65625 
Q 14.5 64.65625 8.015625 75.875 
z
" id="DejaVuSans-29"/>
     </defs>
     <g transform="translate(107.571219 337.433594)scale(0.17 -0.17)">
      <use xlink:href="#DejaVuSans-6c"/>
      <use x="27.783203" xlink:href="#DejaVuSans-6f"/>
      <use x="88.964844" xlink:href="#DejaVuSans-67"/>
      <use x="152.441406" xlink:href="#DejaVuSans-31"/>
      <use x="216.064453" xlink:href="#DejaVuSans-30"/>
      <use x="279.6875" xlink:href="#DejaVuSans-28"/>
      <use x="318.701172" xlink:href="#DejaVuSans-23"/>
      <use x="402.490234" xlink:href="#DejaVuSans-20"/>
      <use x="434.277344" xlink:href="#DejaVuSans-66"/>
      <use x="469.404297" xlink:href="#DejaVuSans-2d"/>
      <use x="505.488281" xlink:href="#DejaVuSans-65"/>
      <use x="567.011719" xlink:href="#DejaVuSans-76"/>
      <use x="626.191406" xlink:href="#DejaVuSans-61"/>
      <use x="687.470703" xlink:href="#DejaVuSans-6c"/>
      <use x="715.253906" xlink:href="#DejaVuSans-73"/>
      <use x="767.353516" xlink:href="#DejaVuSans-20"/>
      <use x="799.140625" xlink:href="#DejaVuSans-2f"/>
      <use x="832.832031" xlink:href="#DejaVuSans-20"/>
      <use x="864.619141" xlink:href="#DejaVuSans-64"/>
      <use x="928.095703" xlink:href="#DejaVuSans-69"/>
      <use x="955.878906" xlink:href="#DejaVuSans-6d"/>
      <use x="1053.291016" xlink:href="#DejaVuSans-65"/>
      <use x="1114.814453" xlink:href="#DejaVuSans-6e"/>
      <use x="1178.193359" xlink:href="#DejaVuSans-73"/>
      <use x="1230.292969" xlink:href="#DejaVuSans-69"/>
      <use x="1258.076172" xlink:href="#DejaVuSans-6f"/>
      <use x="1319.257812" xlink:href="#DejaVuSans-6e"/>
      <use x="1382.636719" xlink:href="#DejaVuSans-29"/>
     </g>
    </g>
   </g>
   <g id="matplotlib.axis_2">
    <g id="ytick_1">
     <g id="line2d_11">
      <path clip-path="url(#p6249dae7b3)" d="M 56.84 294.16 
L 399.984 294.16 
" style="fill:none;stroke:#b0b0b0;stroke-linecap:square;stroke-width:0.8;"/>
     </g>
     <g id="line2d_12">
      <defs>
       <path d="M 0 0 
L -3.5 0 
" id="med6b912248" style="stroke:#000000;stroke-width:0.8;"/>
      </defs>
      <g>
       <use style="stroke:#000000;stroke-width:0.8;" x="56.84" xlink:href="#med6b912248" y="294.16"/>
      </g>
     </g>
     <g id="text_7">
      <!-- 0.0 -->
      <defs>
       <path d="M 10.6875 12.40625 
L 21 12.40625 
L 21 0 
L 10.6875 0 
z
" id="DejaVuSans-2e"/>
      </defs>
      <g transform="translate(24.395 300.23875)scale(0.16 -0.16)">
       <use xlink:href="#DejaVuSans-30"/>
       <use x="63.623047" xlink:href="#DejaVuSans-2e"/>
       <use x="95.410156" xlink:href="#DejaVuSans-30"/>
      </g>
     </g>
    </g>
    <g id="ytick_2">
     <g id="line2d_13">
      <path clip-path="url(#p6249dae7b3)" d="M 56.84 237.123411 
L 399.984 237.123411 
" style="fill:none;stroke:#b0b0b0;stroke-linecap:square;stroke-width:0.8;"/>
     </g>
     <g id="line2d_14">
      <g>
       <use style="stroke:#000000;stroke-width:0.8;" x="56.84" xlink:href="#med6b912248" y="237.123411"/>
      </g>
     </g>
     <g id="text_8">
      <!-- 0.2 -->
      <g transform="translate(24.395 243.202161)scale(0.16 -0.16)">
       <use xlink:href="#DejaVuSans-30"/>
       <use x="63.623047" xlink:href="#DejaVuSans-2e"/>
       <use x="95.410156" xlink:href="#DejaVuSans-32"/>
      </g>
     </g>
    </g>
    <g id="ytick_3">
     <g id="line2d_15">
      <path clip-path="url(#p6249dae7b3)" d="M 56.84 180.086823 
L 399.984 180.086823 
" style="fill:none;stroke:#b0b0b0;stroke-linecap:square;stroke-width:0.8;"/>
     </g>
     <g id="line2d_16">
      <g>
       <use style="stroke:#000000;stroke-width:0.8;" x="56.84" xlink:href="#med6b912248" y="180.086823"/>
      </g>
     </g>
     <g id="text_9">
      <!-- 0.4 -->
      <g transform="translate(24.395 186.165573)scale(0.16 -0.16)">
       <use xlink:href="#DejaVuSans-30"/>
       <use x="63.623047" xlink:href="#DejaVuSans-2e"/>
       <use x="95.410156" xlink:href="#DejaVuSans-34"/>
      </g>
     </g>
    </g>
    <g id="ytick_4">
     <g id="line2d_17">
      <path clip-path="url(#p6249dae7b3)" d="M 56.84 123.050234 
L 399.984 123.050234 
" style="fill:none;stroke:#b0b0b0;stroke-linecap:square;stroke-width:0.8;"/>
     </g>
     <g id="line2d_18">
      <g>
       <use style="stroke:#000000;stroke-width:0.8;" x="56.84" xlink:href="#med6b912248" y="123.050234"/>
      </g>
     </g>
     <g id="text_10">
      <!-- 0.6 -->
      <g transform="translate(24.395 129.128984)scale(0.16 -0.16)">
       <use xlink:href="#DejaVuSans-30"/>
       <use x="63.623047" xlink:href="#DejaVuSans-2e"/>
       <use x="95.410156" xlink:href="#DejaVuSans-36"/>
      </g>
     </g>
    </g>
    <g id="ytick_5">
     <g id="line2d_19">
      <path clip-path="url(#p6249dae7b3)" d="M 56.84 66.013646 
L 399.984 66.013646 
" style="fill:none;stroke:#b0b0b0;stroke-linecap:square;stroke-width:0.8;"/>
     </g>
     <g id="line2d_20">
      <g>
       <use style="stroke:#000000;stroke-width:0.8;" x="56.84" xlink:href="#med6b912248" y="66.013646"/>
      </g>
     </g>
     <g id="text_11">
      <!-- 0.8 -->
      <g transform="translate(24.395 72.092396)scale(0.16 -0.16)">
       <use xlink:href="#DejaVuSans-30"/>
       <use x="63.623047" xlink:href="#DejaVuSans-2e"/>
       <use x="95.410156" xlink:href="#DejaVuSans-38"/>
      </g>
     </g>
    </g>
    <g id="ytick_6">
     <g id="line2d_21">
      <path clip-path="url(#p6249dae7b3)" d="M 56.84 8.977057 
L 399.984 8.977057 
" style="fill:none;stroke:#b0b0b0;stroke-linecap:square;stroke-width:0.8;"/>
     </g>
     <g id="line2d_22">
      <g>
       <use style="stroke:#000000;stroke-width:0.8;" x="56.84" xlink:href="#med6b912248" y="8.977057"/>
      </g>
     </g>
     <g id="text_12">
      <!-- 1.0 -->
      <g transform="translate(24.395 15.055807)scale(0.16 -0.16)">
       <use xlink:href="#DejaVuSans-31"/>
       <use x="63.623047" xlink:href="#DejaVuSans-2e"/>
       <use x="95.410156" xlink:href="#DejaVuSans-30"/>
      </g>
     </g>
    </g>
    <g id="text_13">
     <!-- Fraction of function,target pairs -->
     <defs>
      <path d="M 9.8125 72.90625 
L 51.703125 72.90625 
L 51.703125 64.59375 
L 19.671875 64.59375 
L 19.671875 43.109375 
L 48.578125 43.109375 
L 48.578125 34.8125 
L 19.671875 34.8125 
L 19.671875 0 
L 9.8125 0 
z
" id="DejaVuSans-46"/>
      <path d="M 41.109375 46.296875 
Q 39.59375 47.171875 37.8125 47.578125 
Q 36.03125 48 33.890625 48 
Q 26.265625 48 22.1875 43.046875 
Q 18.109375 38.09375 18.109375 28.8125 
L 18.109375 0 
L 9.078125 0 
L 9.078125 54.6875 
L 18.109375 54.6875 
L 18.109375 46.1875 
Q 20.953125 51.171875 25.484375 53.578125 
Q 30.03125 56 36.53125 56 
Q 37.453125 56 38.578125 55.875 
Q 39.703125 55.765625 41.0625 55.515625 
z
" id="DejaVuSans-72"/>
      <path d="M 48.78125 52.59375 
L 48.78125 44.1875 
Q 44.96875 46.296875 41.140625 47.34375 
Q 37.3125 48.390625 33.40625 48.390625 
Q 24.65625 48.390625 19.8125 42.84375 
Q 14.984375 37.3125 14.984375 27.296875 
Q 14.984375 17.28125 19.8125 11.734375 
Q 24.65625 6.203125 33.40625 6.203125 
Q 37.3125 6.203125 41.140625 7.25 
Q 44.96875 8.296875 48.78125 10.40625 
L 48.78125 2.09375 
Q 45.015625 0.34375 40.984375 -0.53125 
Q 36.96875 -1.421875 32.421875 -1.421875 
Q 20.0625 -1.421875 12.78125 6.34375 
Q 5.515625 14.109375 5.515625 27.296875 
Q 5.515625 40.671875 12.859375 48.328125 
Q 20.21875 56 33.015625 56 
Q 37.15625 56 41.109375 55.140625 
Q 45.0625 54.296875 48.78125 52.59375 
z
" id="DejaVuSans-63"/>
      <path d="M 18.3125 70.21875 
L 18.3125 54.6875 
L 36.8125 54.6875 
L 36.8125 47.703125 
L 18.3125 47.703125 
L 18.3125 18.015625 
Q 18.3125 11.328125 20.140625 9.421875 
Q 21.96875 7.515625 27.59375 7.515625 
L 36.8125 7.515625 
L 36.8125 0 
L 27.59375 0 
Q 17.1875 0 13.234375 3.875 
Q 9.28125 7.765625 9.28125 18.015625 
L 9.28125 47.703125 
L 2.6875 47.703125 
L 2.6875 54.6875 
L 9.28125 54.6875 
L 9.28125 70.21875 
z
" id="DejaVuSans-74"/>
      <path d="M 8.5 21.578125 
L 8.5 54.6875 
L 17.484375 54.6875 
L 17.484375 21.921875 
Q 17.484375 14.15625 20.5 10.265625 
Q 23.53125 6.390625 29.59375 6.390625 
Q 36.859375 6.390625 41.078125 11.03125 
Q 45.3125 15.671875 45.3125 23.6875 
L 45.3125 54.6875 
L 54.296875 54.6875 
L 54.296875 0 
L 45.3125 0 
L 45.3125 8.40625 
Q 42.046875 3.421875 37.71875 1 
Q 33.40625 -1.421875 27.6875 -1.421875 
Q 18.265625 -1.421875 13.375 4.4375 
Q 8.5 10.296875 8.5 21.578125 
z
M 31.109375 56 
z
" id="DejaVuSans-75"/>
      <path d="M 11.71875 12.40625 
L 22.015625 12.40625 
L 22.015625 4 
L 14.015625 -11.625 
L 7.71875 -11.625 
L 11.71875 4 
z
" id="DejaVuSans-2c"/>
      <path d="M 18.109375 8.203125 
L 18.109375 -20.796875 
L 9.078125 -20.796875 
L 9.078125 54.6875 
L 18.109375 54.6875 
L 18.109375 46.390625 
Q 20.953125 51.265625 25.265625 53.625 
Q 29.59375 56 35.59375 56 
Q 45.5625 56 51.78125 48.09375 
Q 58.015625 40.1875 58.015625 27.296875 
Q 58.015625 14.40625 51.78125 6.484375 
Q 45.5625 -1.421875 35.59375 -1.421875 
Q 29.59375 -1.421875 25.265625 0.953125 
Q 20.953125 3.328125 18.109375 8.203125 
z
M 48.6875 27.296875 
Q 48.6875 37.203125 44.609375 42.84375 
Q 40.53125 48.484375 33.40625 48.484375 
Q 26.265625 48.484375 22.1875 42.84375 
Q 18.109375 37.203125 18.109375 27.296875 
Q 18.109375 17.390625 22.1875 11.75 
Q 26.265625 6.109375 33.40625 6.109375 
Q 40.53125 6.109375 44.609375 11.75 
Q 48.6875 17.390625 48.6875 27.296875 
z
" id="DejaVuSans-70"/>
     </defs>
     <g transform="translate(16.859531 285.281989)rotate(-90)scale(0.17 -0.17)">
      <use xlink:href="#DejaVuSans-46"/>
      <use x="57.410156" xlink:href="#DejaVuSans-72"/>
      <use x="98.523438" xlink:href="#DejaVuSans-61"/>
      <use x="159.802734" xlink:href="#DejaVuSans-63"/>
      <use x="214.783203" xlink:href="#DejaVuSans-74"/>
      <use x="253.992188" xlink:href="#DejaVuSans-69"/>
      <use x="281.775391" xlink:href="#DejaVuSans-6f"/>
      <use x="342.957031" xlink:href="#DejaVuSans-6e"/>
      <use x="406.335938" xlink:href="#DejaVuSans-20"/>
      <use x="438.123047" xlink:href="#DejaVuSans-6f"/>
      <use x="499.304688" xlink:href="#DejaVuSans-66"/>
      <use x="534.509766" xlink:href="#DejaVuSans-20"/>
      <use x="566.296875" xlink:href="#DejaVuSans-66"/>
      <use x="601.501953" xlink:href="#DejaVuSans-75"/>
      <use x="664.880859" xlink:href="#DejaVuSans-6e"/>
      <use x="728.259766" xlink:href="#DejaVuSans-63"/>
      <use x="783.240234" xlink:href="#DejaVuSans-74"/>
      <use x="822.449219" xlink:href="#DejaVuSans-69"/>
      <use x="850.232422" xlink:href="#DejaVuSans-6f"/>
      <use x="911.414062" xlink:href="#DejaVuSans-6e"/>
      <use x="974.792969" xlink:href="#DejaVuSans-2c"/>
      <use x="1006.580078" xlink:href="#DejaVuSans-74"/>
      <use x="1045.789062" xlink:href="#DejaVuSans-61"/>
      <use x="1107.068359" xlink:href="#DejaVuSans-72"/>
      <use x="1148.166016" xlink:href="#DejaVuSans-67"/>
      <use x="1211.642578" xlink:href="#DejaVuSans-65"/>
      <use x="1273.166016" xlink:href="#DejaVuSans-74"/>
      <use x="1312.375" xlink:href="#DejaVuSans-20"/>
      <use x="1344.162109" xlink:href="#DejaVuSans-70"/>
      <use x="1407.638672" xlink:href="#DejaVuSans-61"/>
      <use x="1468.917969" xlink:href="#DejaVuSans-69"/>
      <use x="1496.701172" xlink:href="#DejaVuSans-72"/>
      <use x="1537.814453" xlink:href="#DejaVuSans-73"/>
     </g>
    </g>
   </g>
   <g id="line2d_23">
    <defs>
     <path d="M 0 1.5 
C 0.397805 1.5 0.77937 1.341951 1.06066 1.06066 
C 1.341951 0.77937 1.5 0.397805 1.5 0 
C 1.5 -0.397805 1.341951 -0.77937 1.06066 -1.06066 
C 0.77937 -1.341951 0.397805 -1.5 0 -1.5 
C -0.397805 -1.5 -0.77937 -1.341951 -1.06066 -1.06066 
C -1.341951 -0.77937 -1.5 -0.397805 -1.5 0 
C -1.5 0.397805 -1.341951 0.77937 -1.06066 1.06066 
C -0.77937 1.341951 -0.397805 1.5 0 1.5 
z
" id="m1f9abc5cfc" style="stroke:#000080;"/>
    </defs>
    <g>
     <use style="fill:#000080;stroke:#000080;" x="248.965199" xlink:href="#m1f9abc5cfc" y="126.405328"/>
     <use style="fill:#000080;stroke:#000080;" x="248.965199" xlink:href="#m1f9abc5cfc" y="126.405328"/>
    </g>
   </g>
   <g id="line2d_24">
    <path d="M 103.897048 294.16 
L 103.897048 293.600818 
L 106.464335 293.600818 
L 106.464335 293.041636 
L 123.304037 293.041636 
L 123.304037 292.482453 
L 125.484475 292.482453 
L 125.484475 290.804907 
L 127.135154 290.804907 
L 127.135154 290.245724 
L 128.108547 290.245724 
L 128.108547 289.686542 
L 128.376816 289.686542 
L 128.376816 289.12736 
L 129.28406 289.12736 
L 129.28406 288.568178 
L 131.639644 288.568178 
L 131.639644 288.008995 
L 132.287602 288.008995 
L 132.393257 285.772266 
L 134.09652 285.772266 
L 134.09652 285.213084 
L 136.161058 285.213084 
L 136.161058 284.653902 
L 136.578812 284.653902 
L 136.578812 284.09472 
L 137.463585 284.09472 
L 137.463585 282.976355 
L 138.155041 282.976355 
L 138.155041 282.417173 
L 138.379474 282.417173 
L 138.379474 281.857991 
L 138.964001 281.857991 
L 138.964001 281.298808 
L 139.248968 281.298808 
L 139.248968 280.739626 
L 140.343767 280.739626 
L 140.343767 280.180444 
L 140.672053 280.180444 
L 140.672053 279.621262 
L 141.620849 279.621262 
L 141.620849 279.062079 
L 143.206792 279.062079 
L 143.262808 277.943715 
L 143.704475 277.943715 
L 143.704475 275.706986 
L 144.028425 275.706986 
L 144.028425 275.147804 
L 144.606909 275.147804 
L 144.606909 274.588622 
L 144.914419 274.588622 
L 144.914419 274.029439 
L 145.611221 274.029439 
L 145.611221 273.470257 
L 145.756926 273.470257 
L 145.756926 272.351893 
L 147.459115 272.351893 
L 147.459115 271.79271 
L 148.355084 271.79271 
L 148.355084 270.674346 
L 148.684472 270.674346 
L 148.684472 270.115164 
L 149.047634 270.115164 
L 149.047634 269.555981 
L 149.520201 269.555981 
L 149.520201 268.437617 
L 150.756442 268.437617 
L 150.756442 267.319252 
L 151.464536 267.319252 
L 151.464536 265.082523 
L 152.144579 265.082523 
L 152.177884 263.964159 
L 152.277414 263.964159 
L 152.277414 262.286612 
L 153.552124 262.286612 
L 153.552124 261.72743 
L 153.826344 261.72743 
L 153.826344 261.168248 
L 155.357971 261.168248 
L 155.357971 260.609066 
L 155.605009 260.609066 
L 155.605009 260.049883 
L 155.902195 260.049883 
L 155.902195 259.490701 
L 156.455652 259.490701 
L 156.455652 257.813154 
L 156.966667 257.813154 
L 156.966667 257.253972 
L 157.092079 257.253972 
L 157.092079 256.69479 
L 157.438436 256.69479 
L 157.48735 255.017243 
L 157.560461 255.017243 
L 157.560461 254.458061 
L 157.945213 254.458061 
L 158.040069 252.221332 
L 158.274941 252.221332 
L 158.274941 251.66215 
L 159.315795 251.66215 
L 159.315795 251.102967 
L 161.556152 251.102967 
L 161.556152 250.543785 
L 162.475293 250.543785 
L 162.475293 249.984603 
L 163.2607 249.984603 
L 163.2607 249.425421 
L 163.571926 249.425421 
L 163.571926 248.866238 
L 163.894435 248.866238 
L 163.894435 248.307056 
L 164.227497 248.307056 
L 164.227497 247.747874 
L 164.874844 247.747874 
L 164.874844 247.188692 
L 165.498667 247.188692 
L 165.498667 246.62951 
L 165.80228 246.62951 
L 165.80228 246.070327 
L 166.100616 246.070327 
L 166.100616 245.511145 
L 166.393857 245.511145 
L 166.393857 244.951963 
L 168.094859 244.951963 
L 168.094859 244.392781 
L 168.867201 244.392781 
L 168.867201 243.833598 
L 177.29936 243.833598 
L 177.29936 243.274416 
L 178.126391 243.274416 
L 178.126391 242.715234 
L 178.272571 242.715234 
L 178.272571 242.156052 
L 178.417518 242.156052 
L 178.417518 241.596869 
L 178.675378 241.596869 
L 178.675378 239.919323 
L 178.845158 239.919323 
L 178.845158 239.36014 
L 178.98537 239.36014 
L 178.98537 238.800958 
L 179.09672 238.800958 
L 179.09672 237.682594 
L 179.234901 237.682594 
L 179.234901 236.005047 
L 179.636172 236.005047 
L 179.636172 235.445865 
L 179.916213 235.445865 
L 179.916213 234.886682 
L 180.198267 234.886682 
L 180.198267 234.3275 
L 180.327893 234.3275 
L 180.327893 233.768318 
L 180.596963 233.768318 
L 180.596963 233.209136 
L 180.729932 233.209136 
L 180.729932 232.649954 
L 180.91188 232.649954 
L 180.980394 231.531589 
L 181.104268 231.531589 
L 181.104268 229.854042 
L 181.227254 229.854042 
L 181.227254 228.176496 
L 181.349366 228.176496 
L 181.349366 227.617313 
L 181.953102 227.617313 
L 182.000028 226.498949 
L 182.416683 226.498949 
L 182.416683 225.939767 
L 182.626928 225.939767 
L 182.626928 224.821402 
L 182.739511 224.821402 
L 182.739511 224.26222 
L 182.968024 224.26222 
L 182.968024 223.703038 
L 183.297044 223.703038 
L 183.302474 222.584673 
L 183.936752 222.584673 
L 183.936752 222.025491 
L 189.126564 222.025491 
L 189.126564 220.907126 
L 189.28058 220.907126 
L 189.364704 218.670397 
L 189.493908 218.670397 
L 189.569459 216.992851 
L 189.71957 216.992851 
L 189.71957 216.433669 
L 189.942304 216.433669 
L 189.942304 215.874486 
L 190.162185 215.874486 
L 190.249355 214.19694 
L 190.307224 214.19694 
L 190.393662 212.519393 
L 190.451047 212.519393 
L 190.451047 211.960211 
L 191.576992 211.960211 
L 191.587049 210.841846 
L 191.710603 210.841846 
L 191.710603 210.282664 
L 191.974744 210.282664 
L 191.97802 209.164299 
L 192.108558 209.164299 
L 192.108558 208.605117 
L 195.933821 208.605117 
L 195.933821 208.045935 
L 196.055669 208.045935 
L 196.130423 206.92757 
L 196.181788 206.92757 
L 196.181788 205.809206 
L 196.385726 205.809206 
L 196.385726 205.250024 
L 196.589775 205.250024 
L 196.687162 204.131659 
L 196.796376 204.131659 
L 196.84579 202.454112 
L 197.08345 202.454112 
L 197.08345 201.89493 
L 197.293846 201.89493 
L 197.339454 200.776566 
L 197.482687 200.776566 
L 197.572788 199.658201 
L 197.714096 199.658201 
L 197.76328 197.980655 
L 197.856577 197.980655 
L 197.903036 196.86229 
L 197.995578 196.86229 
L 197.995578 196.303108 
L 200.795412 196.303108 
L 200.877541 194.625561 
L 200.94374 194.625561 
L 200.94374 194.066379 
L 201.098503 194.066379 
L 201.136976 192.948014 
L 201.213666 192.948014 
L 201.251882 191.270468 
L 201.335661 191.270468 
L 201.335661 190.711285 
L 201.486946 190.711285 
L 201.486946 190.152103 
L 201.607021 190.152103 
L 201.607021 189.592921 
L 201.903587 189.592921 
L 201.971444 188.474556 
L 202.080916 188.474556 
L 202.080916 187.915374 
L 202.299585 187.915374 
L 202.371263 186.79701 
L 204.636327 186.79701 
L 204.636327 186.237828 
L 204.798548 186.237828 
L 204.860535 185.119463 
L 204.939245 185.119463 
L 205.032918 182.882734 
L 205.499725 182.882734 
L 205.499725 182.323552 
L 207.549721 182.323552 
L 207.620994 181.205187 
L 207.804409 181.205187 
L 207.804409 180.646005 
L 208.042528 180.646005 
L 208.042528 180.086823 
L 208.430103 180.086823 
L 208.430103 179.527641 
L 210.235376 179.527641 
L 210.235376 178.968458 
L 210.348115 178.968458 
L 210.415404 176.731729 
L 210.694073 176.731729 
L 210.797281 175.054183 
L 212.396388 175.054183 
L 212.456123 173.935818 
L 212.515651 173.935818 
L 212.618346 171.139907 
L 212.696927 171.139907 
L 212.696927 170.580725 
L 213.181023 170.580725 
L 213.181023 170.021543 
L 214.35475 170.021543 
L 214.461196 168.903178 
L 214.566986 168.903178 
L 214.570502 167.784814 
L 214.71052 167.784814 
L 214.759258 166.666449 
L 214.988036 166.666449 
L 215.090639 164.988902 
L 216.224512 164.988902 
L 216.288233 163.311356 
L 216.351718 163.311356 
L 216.426804 162.192991 
L 216.58772 162.192991 
L 216.638429 160.515444 
L 216.781167 160.515444 
L 216.781167 159.956262 
L 217.92496 159.956262 
L 217.985563 157.160351 
L 218.229411 157.160351 
L 218.300976 156.041987 
L 219.272772 156.041987 
L 219.383333 154.36444 
L 219.419145 154.36444 
L 219.511646 152.686893 
L 220.5993 152.686893 
L 220.5993 152.127711 
L 220.783853 152.127711 
L 220.783853 151.009346 
L 221.063639 151.009346 
L 221.111731 149.890982 
L 222.009328 149.890982 
L 222.068478 148.213435 
L 222.216031 148.213435 
L 222.216031 147.654253 
L 223.178694 147.654253 
L 223.178694 147.095071 
L 224.281456 147.095071 
L 224.281456 146.535888 
L 224.408755 146.535888 
L 224.408755 145.976706 
L 225.259278 145.976706 
L 225.362691 143.739977 
L 226.275293 143.739977 
L 226.356866 142.621613 
L 227.0673 142.621613 
L 227.0673 142.06243 
L 227.2853 142.06243 
L 227.2853 141.503248 
L 228.103087 141.503248 
L 228.103087 140.944066 
L 228.303662 140.944066 
L 228.303662 140.384884 
L 228.981136 140.384884 
L 228.981136 139.825702 
L 229.652978 139.825702 
L 229.652978 139.266519 
L 230.460116 139.266519 
L 230.550425 138.148155 
L 231.067744 138.148155 
L 231.067744 137.588973 
L 231.798233 137.588973 
L 231.798233 137.02979 
L 231.934283 137.02979 
L 231.934283 136.470608 
L 232.552942 136.470608 
L 232.585283 135.352244 
L 233.179238 135.352244 
L 233.247765 134.233879 
L 233.75103 134.233879 
L 233.75103 133.674697 
L 234.355539 133.674697 
L 234.448273 132.556332 
L 235.026191 132.556332 
L 235.026191 131.99715 
L 236.131256 131.99715 
L 236.131256 131.437968 
L 236.639269 131.437968 
L 236.639269 130.878786 
L 237.091075 130.878786 
L 237.091075 130.319603 
L 238.568798 130.319603 
L 238.607844 129.201239 
L 239.08245 129.201239 
L 239.08245 128.642057 
L 241.488598 128.642057 
L 241.488598 128.082874 
L 246.55053 128.082874 
L 246.55053 127.523692 
L 248.911066 127.523692 
L 248.965199 126.405328 
L 333.569032 126.405328 
L 333.569032 126.405328 
" style="fill:none;stroke:#000080;stroke-linecap:square;stroke-width:1.5;"/>
   </g>
   <g id="line2d_25">
    <defs>
     <path d="M 0 6 
C 1.591219 6 3.117479 5.367802 4.242641 4.242641 
C 5.367802 3.117479 6 1.591219 6 0 
C 6 -1.591219 5.367802 -3.117479 4.242641 -4.242641 
C 3.117479 -5.367802 1.591219 -6 0 -6 
C -1.591219 -6 -3.117479 -5.367802 -4.242641 -4.242641 
C -5.367802 -3.117479 -6 -1.591219 -6 0 
C -6 1.591219 -5.367802 3.117479 -4.242641 4.242641 
C -3.117479 5.367802 -1.591219 6 0 6 
z
" id="m77ba464360" style="stroke:#000080;stroke-width:1.5;"/>
    </defs>
    <g>
     <use style="fill-opacity:0;stroke:#000080;stroke-width:1.5;" x="156.455652" xlink:href="#m77ba464360" y="259.490701"/>
     <use style="fill-opacity:0;stroke:#000080;stroke-width:1.5;" x="201.213666" xlink:href="#m77ba464360" y="192.948014"/>
     <use style="fill-opacity:0;stroke:#000080;stroke-width:1.5;" x="231.798233" xlink:href="#m77ba464360" y="137.588973"/>
     <use style="fill-opacity:0;stroke:#000080;stroke-width:1.5;" x="248.965199" xlink:href="#m77ba464360" y="126.405328"/>
     <use style="fill-opacity:0;stroke:#000080;stroke-width:1.5;" x="333.569032" xlink:href="#m77ba464360" y="126.405328"/>
    </g>
   </g>
   <g id="line2d_26">
    <path style="fill:none;stroke:#000080;stroke-linecap:square;stroke-width:1.5;"/>
    <g/>
   </g>
   <g id="line2d_27">
    <path clip-path="url(#p6249dae7b3)" d="M 96.372719 294.16 
" style="fill:none;stroke:#000080;stroke-linecap:square;stroke-width:1.5;"/>
    <defs>
     <path d="M -12 12 
L 12 -12 
M -12 -12 
L 12 12 
" id="m614d9a0389" style="stroke:#000080;stroke-width:3;"/>
    </defs>
    <g clip-path="url(#p6249dae7b3)">
     <use style="fill:#000080;stroke:#000080;stroke-width:3;" x="96.372719" xlink:href="#m614d9a0389" y="294.16"/>
    </g>
   </g>
   <g id="line2d_28">
    <defs>
     <path d="M 0 1.5 
C 0.397805 1.5 0.77937 1.341951 1.06066 1.06066 
C 1.341951 0.77937 1.5 0.397805 1.5 0 
C 1.5 -0.397805 1.341951 -0.77937 1.06066 -1.06066 
C 0.77937 -1.341951 0.397805 -1.5 0 -1.5 
C -0.397805 -1.5 -0.77937 -1.341951 -1.06066 -1.06066 
C -1.341951 -0.77937 -1.5 -0.397805 -1.5 0 
C -1.5 0.397805 -1.341951 0.77937 -1.06066 1.06066 
C -0.77937 1.341951 -0.397805 1.5 0 1.5 
z
" id="m6e6ed05fbe" style="stroke:#ff00ff;"/>
    </defs>
    <g>
     <use style="fill:#ff00ff;stroke:#ff00ff;" x="223.209535" xlink:href="#m6e6ed05fbe" y="221.466309"/>
     <use style="fill:#ff00ff;stroke:#ff00ff;" x="223.209535" xlink:href="#m6e6ed05fbe" y="221.466309"/>
    </g>
   </g>
   <g id="line2d_29">
    <path d="M 56.84 294.16 
L 56.84 293.600818 
L 63.801366 293.600818 
L 63.801366 293.041636 
L 68.740534 293.041636 
L 68.740534 290.804907 
L 78.348489 290.804907 
L 78.348489 290.245724 
L 80.641068 290.245724 
L 80.641068 288.568178 
L 82.663267 288.568178 
L 82.663267 288.008995 
L 84.472185 288.008995 
L 84.472185 286.331449 
L 86.10855 286.331449 
L 86.10855 285.772266 
L 87.602435 285.772266 
L 87.602435 285.213084 
L 88.976675 285.213084 
L 88.976675 284.09472 
L 90.249023 284.09472 
L 90.249023 282.976355 
L 92.541603 282.976355 
L 92.541603 282.417173 
L 95.492072 282.417173 
L 95.492072 277.943715 
L 99.502969 277.943715 
L 99.502969 277.384533 
L 101.525167 277.384533 
L 101.525167 276.825351 
L 103.897048 276.825351 
L 103.897048 276.266168 
L 106.464335 276.266168 
L 106.464335 275.147804 
L 109.909618 275.147804 
L 109.909618 274.588622 
L 117.383526 274.588622 
L 117.383526 271.79271 
L 120.387068 271.79271 
L 120.387068 271.233528 
L 125.326236 271.233528 
L 125.326236 270.674346 
L 125.796644 270.674346 
L 125.796644 270.115164 
L 126.846595 270.115164 
L 126.846595 269.555981 
L 128.640957 269.555981 
L 128.640957 268.437617 
L 136.412928 268.437617 
L 136.412928 267.878435 
L 137.541803 267.878435 
L 137.541803 267.319252 
L 138.527482 267.319252 
L 138.527482 266.76007 
L 138.892015 266.76007 
L 138.892015 266.200888 
L 139.035688 266.200888 
L 139.035688 265.641706 
L 139.805092 265.641706 
L 139.805092 265.082523 
L 139.941354 265.082523 
L 139.941354 264.523341 
L 140.541491 264.523341 
L 140.541491 263.964159 
L 141.121357 263.964159 
L 141.121357 262.845795 
L 141.435238 262.845795 
L 141.435238 262.286612 
L 141.559202 262.286612 
L 141.559202 261.72743 
L 141.92581 261.72743 
L 141.92581 261.168248 
L 143.974856 261.168248 
L 143.974856 260.609066 
L 145.066133 260.609066 
L 145.066133 260.049883 
L 145.949296 260.049883 
L 146.044679 258.931519 
L 146.186767 258.931519 
L 146.186767 258.372337 
L 146.420998 258.372337 
L 146.513802 257.253972 
L 146.560017 257.253972 
L 146.560017 255.576425 
L 147.762996 255.576425 
L 147.762996 254.458061 
L 148.14596 254.458061 
L 148.14596 253.339696 
L 148.806382 253.339696 
L 148.806382 251.66215 
L 148.927432 251.66215 
L 148.927432 251.102967 
L 149.403273 251.102967 
L 149.403273 250.543785 
L 150.391134 250.543785 
L 150.391134 249.984603 
L 150.683999 249.984603 
L 150.683999 249.425421 
L 151.395026 249.425421 
L 151.395026 248.866238 
L 152.862772 248.866238 
L 152.862772 248.307056 
L 153.613442 248.307056 
L 153.613442 247.747874 
L 154.938174 247.747874 
L 154.938174 246.62951 
L 155.163342 246.62951 
L 155.163342 246.070327 
L 155.413176 246.070327 
L 155.413176 245.511145 
L 156.08867 245.511145 
L 156.08867 244.951963 
L 156.273141 244.951963 
L 156.299333 243.833598 
L 158.712534 243.833598 
L 158.712534 243.274416 
L 163.928033 243.274416 
L 163.928033 242.715234 
L 171.40194 242.715234 
L 171.40194 242.156052 
L 171.617768 242.156052 
L 171.617768 241.596869 
L 177.934475 241.596869 
L 177.934475 241.037687 
L 178.999328 241.037687 
L 178.999328 240.478505 
L 179.214245 240.478505 
L 179.214245 239.919323 
L 179.433308 239.919323 
L 179.433308 239.36014 
L 179.683164 239.36014 
L 179.683164 238.800958 
L 180.314975 238.800958 
L 180.314975 238.241776 
L 180.936826 238.241776 
L 180.936826 237.682594 
L 181.061014 237.682594 
L 181.067199 236.564229 
L 182.040982 236.564229 
L 182.040982 236.005047 
L 186.004821 236.005047 
L 186.004821 235.445865 
L 189.764348 235.445865 
L 189.764348 234.886682 
L 189.916466 234.886682 
L 189.916466 234.3275 
L 190.037932 234.3275 
L 190.037932 233.768318 
L 190.278314 233.768318 
L 190.278314 233.209136 
L 190.443885 233.209136 
L 190.479668 232.090771 
L 190.643318 232.090771 
L 190.692816 230.972407 
L 190.90335 230.972407 
L 190.90335 230.413225 
L 196.040162 230.413225 
L 196.102106 229.29486 
L 196.400924 229.29486 
L 196.46915 227.058131 
L 201.198355 227.058131 
L 201.301437 225.939767 
L 201.517044 225.939767 
L 201.517044 225.380584 
L 201.967783 225.380584 
L 201.967783 224.821402 
L 204.868268 224.821402 
L 204.868268 224.26222 
L 208.021952 224.26222 
L 208.088732 223.143855 
L 210.479085 223.143855 
L 210.479085 222.584673 
L 212.984587 222.584673 
L 212.984587 222.025491 
L 223.209535 222.025491 
L 223.209535 221.466309 
L 333.569032 221.466309 
L 333.569032 221.466309 
" style="fill:none;stroke:#ff00ff;stroke-linecap:square;stroke-width:1.5;"/>
   </g>
   <g id="line2d_30">
    <defs>
     <path d="M -0 8.485281 
L 5.091169 0 
L 0 -8.485281 
L -5.091169 -0 
z
" id="m819a82d7fd" style="stroke:#ff00ff;stroke-linejoin:miter;stroke-width:1.5;"/>
    </defs>
    <g>
     <use style="fill-opacity:0;stroke:#ff00ff;stroke-linejoin:miter;stroke-width:1.5;" x="138.527482" xlink:href="#m819a82d7fd" y="267.319252"/>
     <use style="fill-opacity:0;stroke:#ff00ff;stroke-linejoin:miter;stroke-width:1.5;" x="196.400924" xlink:href="#m819a82d7fd" y="229.29486"/>
     <use style="fill-opacity:0;stroke:#ff00ff;stroke-linejoin:miter;stroke-width:1.5;" x="223.209535" xlink:href="#m819a82d7fd" y="221.466309"/>
     <use style="fill-opacity:0;stroke:#ff00ff;stroke-linejoin:miter;stroke-width:1.5;" x="223.209535" xlink:href="#m819a82d7fd" y="221.466309"/>
     <use style="fill-opacity:0;stroke:#ff00ff;stroke-linejoin:miter;stroke-width:1.5;" x="333.569032" xlink:href="#m819a82d7fd" y="221.466309"/>
    </g>
   </g>
   <g id="line2d_31">
    <path style="fill:none;stroke:#ff00ff;stroke-linecap:square;stroke-width:1.5;"/>
    <g/>
   </g>
   <g id="line2d_32">
    <path clip-path="url(#p6249dae7b3)" d="M 96.372719 277.943715 
" style="fill:none;stroke:#ff00ff;stroke-linecap:square;stroke-width:1.5;"/>
    <defs>
     <path d="M -12 12 
L 12 -12 
M -12 -12 
L 12 12 
" id="m684e4b680c" style="stroke:#ff00ff;stroke-width:3;"/>
    </defs>
    <g clip-path="url(#p6249dae7b3)">
     <use style="fill:#ff00ff;stroke:#ff00ff;stroke-width:3;" x="96.372719" xlink:href="#m684e4b680c" y="277.943715"/>
    </g>
   </g>
   <g id="line2d_33">
    <defs>
     <path d="M 0 1.5 
C 0.397805 1.5 0.77937 1.341951 1.06066 1.06066 
C 1.341951 0.77937 1.5 0.397805 1.5 0 
C 1.5 -0.397805 1.341951 -0.77937 1.06066 -1.06066 
C 0.77937 -1.341951 0.397805 -1.5 0 -1.5 
C -0.397805 -1.5 -0.77937 -1.341951 -1.06066 -1.06066 
C -1.341951 -0.77937 -1.5 -0.397805 -1.5 0 
C -1.5 0.397805 -1.341951 0.77937 -1.06066 1.06066 
C -0.77937 1.341951 -0.397805 1.5 0 1.5 
z
" id="m0e4a9c2f3e" style="stroke:#ffa500;"/>
    </defs>
    <g>
     <use style="fill:#ffa500;stroke:#ffa500;" x="250.549604" xlink:href="#m0e4a9c2f3e" y="137.588973"/>
     <use style="fill:#ffa500;stroke:#ffa500;" x="250.549604" xlink:href="#m0e4a9c2f3e" y="137.588973"/>
    </g>
   </g>
   <g id="line2d_34">
    <path d="M 88.976675 294.16 
L 88.976675 293.600818 
L 126.99148 293.600818 
L 126.99148 293.041636 
L 131.966679 293.041636 
L 131.966679 292.482453 
L 134.000871 292.482453 
L 134.000871 290.804907 
L 135.819378 290.804907 
L 135.819378 290.245724 
L 136.161058 290.245724 
L 136.161058 287.449813 
L 136.824671 287.449813 
L 136.824671 283.535537 
L 137.463585 283.535537 
L 137.463585 282.417173 
L 137.619667 282.417173 
L 137.697178 281.298808 
L 137.774342 281.298808 
L 137.774342 280.180444 
L 138.379474 280.180444 
L 138.379474 279.062079 
L 139.248968 279.062079 
L 139.248968 277.943715 
L 139.805092 277.943715 
L 139.805092 277.384533 
L 140.606896 277.384533 
L 140.606896 276.825351 
L 142.519947 276.825351 
L 142.519947 275.706986 
L 142.694251 275.706986 
L 142.694251 274.588622 
L 142.980883 274.588622 
L 142.980883 274.029439 
L 143.595119 274.029439 
L 143.649884 272.911075 
L 145.611221 272.911075 
L 145.611221 272.351893 
L 146.233869 272.351893 
L 146.233869 271.79271 
L 147.060337 271.79271 
L 147.060337 270.674346 
L 147.67672 270.674346 
L 147.67672 269.555981 
L 147.848841 269.555981 
L 147.891602 267.319252 
L 148.019252 267.319252 
L 148.019252 266.200888 
L 148.643643 266.200888 
L 148.725205 263.404977 
L 148.806382 263.404977 
L 148.846827 262.286612 
L 149.206606 262.286612 
L 149.206606 261.168248 
L 149.442337 261.168248 
L 149.520201 259.490701 
L 149.636338 259.490701 
L 149.674876 257.813154 
L 149.942249 257.813154 
L 149.980108 256.69479 
L 150.205523 256.69479 
L 150.205523 256.135608 
L 150.391134 256.135608 
L 150.428016 255.017243 
L 150.720259 255.017243 
L 150.792549 253.898879 
L 151.114139 253.898879 
L 151.114139 253.339696 
L 152.144579 253.339696 
L 152.144579 252.780514 
L 152.50743 252.780514 
L 152.50743 252.221332 
L 152.798709 252.221332 
L 152.798709 251.66215 
L 154.420481 251.66215 
L 154.420481 251.102967 
L 155.413176 251.102967 
L 155.413176 250.543785 
L 155.794722 250.543785 
L 155.794722 249.984603 
L 156.325486 249.984603 
L 156.325486 249.425421 
L 156.636242 249.425421 
L 156.636242 248.866238 
L 157.438436 248.866238 
L 157.438436 248.307056 
L 159.727954 248.307056 
L 159.727954 247.188692 
L 160.23482 247.188692 
L 160.23482 246.62951 
L 160.421102 246.62951 
L 160.421102 246.070327 
L 161.32335 246.070327 
L 161.32335 245.511145 
L 161.709617 245.511145 
L 161.709617 244.951963 
L 162.80095 244.951963 
L 162.80095 244.392781 
L 162.925945 244.392781 
L 162.925945 242.715234 
L 163.961566 242.715234 
L 163.961566 242.156052 
L 164.342559 242.156052 
L 164.342559 241.037687 
L 165.559821 241.037687 
L 165.559821 240.478505 
L 168.055315 240.478505 
L 168.055315 239.919323 
L 168.31724 239.919323 
L 168.31724 239.36014 
L 168.829398 239.36014 
L 168.829398 238.800958 
L 169.485297 238.800958 
L 169.485297 237.682594 
L 171.692671 237.682594 
L 171.692671 237.123411 
L 172.526273 237.123411 
L 172.526273 236.564229 
L 172.788706 236.564229 
L 172.788706 236.005047 
L 172.987883 236.005047 
L 172.987883 235.445865 
L 174.620648 235.445865 
L 174.629648 234.3275 
L 174.808679 234.3275 
L 174.808679 233.768318 
L 174.932898 233.768318 
L 174.932898 233.209136 
L 175.343467 233.209136 
L 175.343467 232.649954 
L 175.659913 232.649954 
L 175.659913 232.090771 
L 176.647847 232.090771 
L 176.647847 231.531589 
L 177.860087 231.531589 
L 177.860087 230.972407 
L 178.008543 230.972407 
L 178.008543 229.854042 
L 178.126391 229.854042 
L 178.214248 228.735678 
L 178.258009 228.735678 
L 178.258009 227.617313 
L 178.795812 227.617313 
L 178.795812 227.058131 
L 178.936426 227.058131 
L 178.936426 226.498949 
L 179.075897 226.498949 
L 179.075897 225.939767 
L 179.214245 225.939767 
L 179.248658 224.26222 
L 179.406077 224.26222 
L 179.440109 223.143855 
L 179.52151 223.143855 
L 179.568816 221.466309 
L 180.172224 221.466309 
L 180.172224 220.907126 
L 180.385907 220.907126 
L 180.46936 219.788762 
L 180.520515 219.788762 
L 180.520515 219.22958 
L 181.823392 219.22958 
L 181.823392 218.670397 
L 182.058505 218.670397 
L 182.058505 218.111215 
L 182.393799 218.111215 
L 182.393799 217.552033 
L 183.067393 217.552033 
L 183.067393 216.992851 
L 183.852822 216.992851 
L 183.852822 216.433669 
L 184.139628 216.433669 
L 184.139628 215.874486 
L 184.952655 215.874486 
L 185.051016 214.756122 
L 185.148817 214.756122 
L 185.148817 214.19694 
L 185.342762 214.19694 
L 185.342762 213.637757 
L 187.08792 213.637757 
L 187.08792 213.078575 
L 187.640765 213.078575 
L 187.640765 212.519393 
L 187.842014 212.519393 
L 187.879487 211.401028 
L 189.064569 211.401028 
L 189.142028 210.282664 
L 189.326517 210.282664 
L 189.326517 209.723482 
L 189.727041 209.723482 
L 189.827585 208.605117 
L 189.960735 208.605117 
L 189.986506 207.486753 
L 190.129382 207.486753 
L 190.129382 206.92757 
L 190.307224 206.92757 
L 190.404437 205.250024 
L 191.056117 205.250024 
L 191.056117 204.690841 
L 191.255437 204.690841 
L 191.255437 204.131659 
L 191.506429 204.131659 
L 191.573639 203.013295 
L 192.095548 203.013295 
L 192.095548 202.454112 
L 192.225199 202.454112 
L 192.225199 201.89493 
L 193.179792 201.89493 
L 193.179792 201.335748 
L 193.362086 201.335748 
L 193.362086 200.776566 
L 194.362894 200.776566 
L 194.362894 200.217384 
L 195.189429 200.217384 
L 195.189429 199.658201 
L 195.459003 199.658201 
L 195.459003 199.099019 
L 195.72441 199.099019 
L 195.72441 198.539837 
L 196.276411 198.539837 
L 196.383192 195.743926 
L 196.448963 195.743926 
L 196.549661 194.066379 
L 196.612298 194.066379 
L 196.664737 192.948014 
L 196.734408 192.948014 
L 196.734408 192.388832 
L 197.819319 192.388832 
L 197.819319 191.82965 
L 198.540594 191.82965 
L 198.629772 190.711285 
L 198.674187 190.711285 
L 198.762675 189.033739 
L 199.852651 189.033739 
L 199.951762 186.79701 
L 200.03392 186.79701 
L 200.03392 186.237828 
L 200.582402 186.237828 
L 200.582402 185.678645 
L 200.976744 185.678645 
L 201.019361 184.001099 
L 201.135055 184.001099 
L 201.227051 182.882734 
L 201.931129 182.882734 
L 201.931129 182.323552 
L 202.090008 182.323552 
L 202.090008 181.76437 
L 202.864807 181.76437 
L 202.864807 181.205187 
L 203.413696 181.205187 
L 203.413696 180.646005 
L 203.827703 180.646005 
L 203.827703 180.086823 
L 203.971664 180.086823 
L 203.971664 179.527641 
L 205.401079 179.527641 
L 205.477355 178.409276 
L 205.585948 178.409276 
L 205.585948 177.850094 
L 205.714477 177.850094 
L 205.714477 177.290912 
L 205.882908 177.290912 
L 205.882908 176.731729 
L 206.344491 176.731729 
L 206.344491 176.172547 
L 207.695907 176.172547 
L 207.803106 173.935818 
L 208.302725 173.935818 
L 208.302725 173.376636 
L 208.848406 173.376636 
L 208.897387 172.258271 
L 208.970596 172.258271 
L 208.970596 171.139907 
L 209.660306 171.139907 
L 209.660306 170.580725 
L 209.776871 170.580725 
L 209.776871 170.021543 
L 209.989305 170.021543 
L 209.989305 169.46236 
L 210.400847 169.46236 
L 210.400847 168.903178 
L 210.550307 168.903178 
L 210.550307 168.343996 
L 211.396437 168.343996 
L 211.396437 167.784814 
L 212.554233 167.784814 
L 212.59963 166.666449 
L 213.8921 166.666449 
L 213.8921 166.107267 
L 214.500944 166.107267 
L 214.566107 164.988902 
L 215.261137 164.988902 
L 215.345335 163.870538 
L 216.418915 163.870538 
L 216.418915 163.311356 
L 216.963289 163.311356 
L 216.963289 162.752173 
L 217.592183 162.752173 
L 217.592183 162.192991 
L 218.65093 162.192991 
L 218.65093 161.633809 
L 218.830811 161.633809 
L 218.899235 159.956262 
L 218.992535 159.956262 
L 218.992535 159.39708 
L 220.02192 159.39708 
L 220.085766 157.719533 
L 220.289122 157.719533 
L 220.362648 155.482804 
L 221.878362 155.482804 
L 221.878362 154.923622 
L 222.473592 154.923622 
L 222.528956 153.805258 
L 223.724498 153.805258 
L 223.724498 153.246075 
L 223.999655 153.246075 
L 224.056387 152.127711 
L 224.686899 152.127711 
L 224.686899 151.568529 
L 224.985537 151.568529 
L 224.985537 151.009346 
L 226.901857 151.009346 
L 226.901857 150.450164 
L 227.141402 150.450164 
L 227.141402 149.890982 
L 227.887604 149.890982 
L 227.887604 149.3318 
L 228.594182 149.3318 
L 228.594182 148.772617 
L 229.174019 148.772617 
L 229.174019 148.213435 
L 230.102232 148.213435 
L 230.102232 147.654253 
L 230.812398 147.654253 
L 230.812398 147.095071 
L 231.396029 147.095071 
L 231.396029 146.535888 
L 232.323589 146.535888 
L 232.323589 145.976706 
L 232.831525 145.976706 
L 232.843654 144.858342 
L 233.456988 144.858342 
L 233.456988 144.299159 
L 234.854499 144.299159 
L 234.854499 143.739977 
L 235.023522 143.739977 
L 235.023522 143.180795 
L 235.712199 143.180795 
L 235.712199 142.621613 
L 236.771434 142.621613 
L 236.771434 142.06243 
L 237.359263 142.06243 
L 237.359263 141.503248 
L 239.225384 141.503248 
L 239.225384 140.944066 
L 240.001823 140.944066 
L 240.001823 140.384884 
L 241.397488 140.384884 
L 241.397488 139.825702 
L 242.156228 139.825702 
L 242.156228 139.266519 
L 242.492654 139.266519 
L 242.492654 138.707337 
L 243.271646 138.707337 
L 243.271646 138.148155 
L 250.549604 138.148155 
L 250.549604 137.588973 
L 333.569032 137.588973 
L 333.569032 137.588973 
" style="fill:none;stroke:#ffa500;stroke-linecap:square;stroke-width:1.5;"/>
   </g>
   <g id="line2d_35">
    <defs>
     <path d="M 0 -6 
L -1.347084 -1.854102 
L -5.706339 -1.854102 
L -2.179628 0.708204 
L -3.526712 4.854102 
L -0 2.291796 
L 3.526712 4.854102 
L 2.179628 0.708204 
L 5.706339 -1.854102 
L 1.347084 -1.854102 
z
" id="m3ce45b2256" style="stroke:#ffa500;stroke-linejoin:bevel;stroke-width:1.5;"/>
    </defs>
    <g>
     <use style="fill-opacity:0;stroke:#ffa500;stroke-linejoin:bevel;stroke-width:1.5;" x="178.258009" xlink:href="#m3ce45b2256" y="227.617313"/>
     <use style="fill-opacity:0;stroke:#ffa500;stroke-linejoin:bevel;stroke-width:1.5;" x="220.289122" xlink:href="#m3ce45b2256" y="157.719533"/>
     <use style="fill-opacity:0;stroke:#ffa500;stroke-linejoin:bevel;stroke-width:1.5;" x="250.549604" xlink:href="#m3ce45b2256" y="137.588973"/>
     <use style="fill-opacity:0;stroke:#ffa500;stroke-linejoin:bevel;stroke-width:1.5;" x="250.549604" xlink:href="#m3ce45b2256" y="137.588973"/>
     <use style="fill-opacity:0;stroke:#ffa500;stroke-linejoin:bevel;stroke-width:1.5;" x="333.569032" xlink:href="#m3ce45b2256" y="137.588973"/>
    </g>
   </g>
   <g id="line2d_36">
    <path style="fill:none;stroke:#ffa500;stroke-linecap:square;stroke-width:1.5;"/>
    <g/>
   </g>
   <g id="line2d_37">
    <path clip-path="url(#p6249dae7b3)" d="M 96.372719 293.600818 
" style="fill:none;stroke:#ffa500;stroke-linecap:square;stroke-width:1.5;"/>
    <defs>
     <path d="M -12 12 
L 12 -12 
M -12 -12 
L 12 12 
" id="mdcac207006" style="stroke:#ffa500;stroke-width:3;"/>
    </defs>
    <g clip-path="url(#p6249dae7b3)">
     <use style="fill:#ffa500;stroke:#ffa500;stroke-width:3;" x="96.372719" xlink:href="#mdcac207006" y="293.600818"/>
    </g>
   </g>
   <g id="line2d_38">
    <defs>
     <path d="M 0 1.5 
C 0.397805 1.5 0.77937 1.341951 1.06066 1.06066 
C 1.341951 0.77937 1.5 0.397805 1.5 0 
C 1.5 -0.397805 1.341951 -0.77937 1.06066 -1.06066 
C 0.77937 -1.341951 0.397805 -1.5 0 -1.5 
C -0.397805 -1.5 -0.77937 -1.341951 -1.06066 -1.06066 
C -1.341951 -0.77937 -1.5 -0.397805 -1.5 0 
C -1.5 0.397805 -1.341951 0.77937 -1.06066 1.06066 
C -0.77937 1.341951 -0.397805 1.5 0 1.5 
z
" id="mfca71c292e" style="stroke:#6495ed;"/>
    </defs>
    <g>
     <use style="fill:#6495ed;stroke:#6495ed;" x="251.713333" xlink:href="#mfca71c292e" y="159.956262"/>
     <use style="fill:#6495ed;stroke:#6495ed;" x="251.713333" xlink:href="#mfca71c292e" y="159.956262"/>
    </g>
   </g>
   <g id="line2d_39">
    <path d="M 101.525167 294.16 
L 101.525167 293.600818 
L 112.104369 293.600818 
L 112.104369 293.041636 
L 118.124742 293.041636 
L 118.124742 291.923271 
L 134.93419 291.923271 
L 134.93419 290.804907 
L 136.661157 290.804907 
L 136.661157 289.12736 
L 138.230179 289.12736 
L 138.230179 288.568178 
L 138.819725 288.568178 
L 138.819725 288.008995 
L 139.035688 288.008995 
L 139.035688 287.449813 
L 139.667741 287.449813 
L 139.667741 286.331449 
L 140.143739 286.331449 
L 140.143739 285.772266 
L 141.497332 285.772266 
L 141.497332 284.09472 
L 142.284754 284.09472 
L 142.284754 282.976355 
L 142.694251 282.976355 
L 142.694251 280.739626 
L 142.866804 280.739626 
L 142.866804 280.180444 
L 142.980883 280.180444 
L 142.980883 279.621262 
L 143.094209 279.621262 
L 143.094209 278.502897 
L 143.318642 278.502897 
L 143.318642 277.943715 
L 143.429767 277.943715 
L 143.429767 277.384533 
L 143.704475 277.384533 
L 143.813139 272.351893 
L 144.135064 272.351893 
L 144.135064 271.79271 
L 144.503169 271.79271 
L 144.503169 271.233528 
L 145.166536 271.233528 
L 145.216518 270.115164 
L 145.513393 270.115164 
L 145.513393 269.555981 
L 145.853381 269.555981 
L 145.901406 268.437617 
L 146.467463 268.437617 
L 146.560017 266.200888 
L 147.015451 266.200888 
L 147.015451 265.082523 
L 147.283023 265.082523 
L 147.283023 264.523341 
L 147.891602 264.523341 
L 147.976808 263.404977 
L 148.019252 263.404977 
L 148.019252 262.286612 
L 148.14596 262.286612 
L 148.14596 261.72743 
L 148.520568 261.72743 
L 148.520568 261.168248 
L 148.643643 261.168248 
L 148.725205 260.049883 
L 149.636338 260.049883 
L 149.636338 259.490701 
L 149.789975 259.490701 
L 149.789975 256.69479 
L 149.904307 256.69479 
L 149.904307 256.135608 
L 150.205523 256.135608 
L 150.205523 255.017243 
L 150.391134 255.017243 
L 150.391134 254.458061 
L 150.538191 254.458061 
L 150.538191 253.898879 
L 150.936222 253.898879 
L 150.936222 253.339696 
L 151.220011 253.339696 
L 151.255157 251.102967 
L 151.943379 251.102967 
L 151.943379 250.543785 
L 152.077774 250.543785 
L 152.077774 248.307056 
L 152.734406 248.307056 
L 152.734406 247.188692 
L 152.990185 247.188692 
L 152.990185 246.62951 
L 153.11666 246.62951 
L 153.148133 245.511145 
L 153.242209 245.511145 
L 153.242209 244.951963 
L 153.366847 244.951963 
L 153.366847 244.392781 
L 154.852969 244.392781 
L 154.852969 243.274416 
L 155.413176 243.274416 
L 155.495653 242.156052 
L 155.550418 242.156052 
L 155.550418 241.596869 
L 156.455652 241.596869 
L 156.455652 241.037687 
L 157.511755 241.037687 
L 157.511755 240.478505 
L 157.729852 240.478505 
L 157.729852 239.919323 
L 158.204816 239.919323 
L 158.204816 239.36014 
L 161.937274 239.36014 
L 161.937274 238.800958 
L 178.279848 238.800958 
L 178.279848 237.682594 
L 178.403078 237.682594 
L 178.424733 235.445865 
L 178.568407 235.445865 
L 178.568407 234.886682 
L 178.725071 234.886682 
L 178.725071 234.3275 
L 179.310429 234.3275 
L 179.337811 233.209136 
L 179.609261 233.209136 
L 179.609261 232.649954 
L 179.869856 232.649954 
L 179.869856 232.090771 
L 180.028278 232.090771 
L 180.080762 230.413225 
L 180.159188 230.413225 
L 180.237258 228.735678 
L 180.289108 228.735678 
L 180.289108 228.176496 
L 180.526899 228.176496 
L 180.546035 227.058131 
L 181.172019 227.058131 
L 181.172019 226.498949 
L 181.841137 226.498949 
L 181.841137 225.939767 
L 189.437026 225.939767 
L 189.437026 225.380584 
L 189.550602 225.380584 
L 189.652182 223.703038 
L 189.670927 223.703038 
L 189.700877 222.584673 
L 189.960735 222.584673 
L 189.960735 222.025491 
L 190.125733 222.025491 
L 190.213088 220.347944 
L 190.300001 220.347944 
L 190.372093 218.670397 
L 190.561688 218.670397 
L 190.586573 217.552033 
L 190.689285 217.552033 
L 190.689285 216.992851 
L 192.186406 216.992851 
L 192.186406 216.433669 
L 195.980588 216.433669 
L 195.980588 215.874486 
L 196.166395 215.874486 
L 196.166395 215.315304 
L 196.499386 215.315304 
L 196.58226 212.519393 
L 196.624798 212.519393 
L 196.682181 210.841846 
L 196.781524 210.841846 
L 196.880295 208.605117 
L 200.777762 208.605117 
L 200.879492 207.486753 
L 200.934021 207.486753 
L 200.992253 205.809206 
L 201.108129 205.809206 
L 201.184947 204.131659 
L 201.348952 204.131659 
L 201.348952 203.572477 
L 204.455144 203.572477 
L 204.534154 202.454112 
L 204.820269 202.454112 
L 204.926923 201.335748 
L 205.025259 201.335748 
L 205.025259 200.776566 
L 207.680163 200.776566 
L 207.78746 198.539837 
L 207.801803 198.539837 
L 207.905754 196.86229 
L 207.931644 196.86229 
L 207.931644 196.303108 
L 210.326751 196.303108 
L 210.431067 195.184743 
L 210.574721 195.184743 
L 210.68526 193.507197 
L 212.471024 193.507197 
L 212.579907 191.82965 
L 212.697907 191.82965 
L 212.749766 190.711285 
L 214.500944 190.711285 
L 214.500944 190.152103 
L 214.670382 190.152103 
L 214.670382 189.592921 
L 216.180566 189.592921 
L 216.180566 189.033739 
L 217.914115 189.033739 
L 218.015066 187.915374 
L 218.038775 187.915374 
L 218.038775 187.356192 
L 218.374357 187.356192 
L 218.472645 185.678645 
L 219.223925 185.678645 
L 219.223925 185.119463 
L 219.382669 185.119463 
L 219.382669 184.560281 
L 220.72317 184.560281 
L 220.833344 182.323552 
L 220.846762 182.323552 
L 220.954937 181.205187 
L 221.886397 181.205187 
L 221.955118 179.527641 
L 222.05371 179.527641 
L 222.05371 178.968458 
L 222.205895 178.968458 
L 222.205895 178.409276 
L 223.136598 178.409276 
L 223.242972 177.290912 
L 224.228469 177.290912 
L 224.301908 175.054183 
L 225.233327 175.054183 
L 225.337835 172.817454 
L 225.516652 172.817454 
L 225.525939 171.699089 
L 227.211398 171.699089 
L 227.211398 171.139907 
L 228.01778 171.139907 
L 228.01778 170.580725 
L 229.053863 170.580725 
L 229.062555 169.46236 
L 230.362675 169.46236 
L 230.362675 168.903178 
L 231.851948 168.903178 
L 231.851948 168.343996 
L 232.006362 168.343996 
L 232.057209 167.225631 
L 232.562189 167.225631 
L 232.562189 166.666449 
L 233.13191 166.666449 
L 233.195282 164.988902 
L 233.715053 164.988902 
L 233.715053 164.42972 
L 235.474343 164.42972 
L 235.474863 163.311356 
L 237.567477 163.311356 
L 237.581283 162.192991 
L 240.026578 162.192991 
L 240.026578 161.633809 
L 244.019511 161.633809 
L 244.019511 161.074627 
L 248.180321 161.074627 
L 248.180321 160.515444 
L 251.713333 160.515444 
L 251.713333 159.956262 
L 333.569032 159.956262 
L 333.569032 159.956262 
" style="fill:none;stroke:#6495ed;stroke-linecap:square;stroke-width:1.5;"/>
   </g>
   <g id="line2d_40">
    <defs>
     <path d="M -0 6 
L 6 -6 
L -6 -6 
z
" id="mfc9b510434" style="stroke:#6495ed;stroke-linejoin:miter;stroke-width:1.5;"/>
    </defs>
    <g>
     <use style="fill-opacity:0;stroke:#6495ed;stroke-linejoin:miter;stroke-width:1.5;" x="196.166395" xlink:href="#mfc9b510434" y="215.315304"/>
     <use style="fill-opacity:0;stroke:#6495ed;stroke-linejoin:miter;stroke-width:1.5;" x="251.713333" xlink:href="#mfc9b510434" y="160.515444"/>
     <use style="fill-opacity:0;stroke:#6495ed;stroke-linejoin:miter;stroke-width:1.5;" x="251.713333" xlink:href="#mfc9b510434" y="159.956262"/>
     <use style="fill-opacity:0;stroke:#6495ed;stroke-linejoin:miter;stroke-width:1.5;" x="251.713333" xlink:href="#mfc9b510434" y="159.956262"/>
     <use style="fill-opacity:0;stroke:#6495ed;stroke-linejoin:miter;stroke-width:1.5;" x="333.569032" xlink:href="#mfc9b510434" y="159.956262"/>
    </g>
   </g>
   <g id="line2d_41">
    <path style="fill:none;stroke:#6495ed;stroke-linecap:square;stroke-width:1.5;"/>
    <g/>
   </g>
   <g id="line2d_42">
    <path clip-path="url(#p6249dae7b3)" d="M 96.372719 294.16 
" style="fill:none;stroke:#6495ed;stroke-linecap:square;stroke-width:1.5;"/>
    <defs>
     <path d="M -12 12 
L 12 -12 
M -12 -12 
L 12 12 
" id="m1750ae34e2" style="stroke:#6495ed;stroke-width:3;"/>
    </defs>
    <g clip-path="url(#p6249dae7b3)">
     <use style="fill:#6495ed;stroke:#6495ed;stroke-width:3;" x="96.372719" xlink:href="#m1750ae34e2" y="294.16"/>
    </g>
   </g>
   <g id="line2d_43">
    <defs>
     <path d="M 0 1.5 
C 0.397805 1.5 0.77937 1.341951 1.06066 1.06066 
C 1.341951 0.77937 1.5 0.397805 1.5 0 
C 1.5 -0.397805 1.341951 -0.77937 1.06066 -1.06066 
C 0.77937 -1.341951 0.397805 -1.5 0 -1.5 
C -0.397805 -1.5 -0.77937 -1.341951 -1.06066 -1.06066 
C -1.341951 -0.77937 -1.5 -0.397805 -1.5 0 
C -1.5 0.397805 -1.341951 0.77937 -1.06066 1.06066 
C -0.77937 1.341951 -0.397805 1.5 0 1.5 
z
" id="ma82bcedabd" style="stroke:#ff0000;"/>
    </defs>
    <g>
     <use style="fill:#ff0000;stroke:#ff0000;" x="237.242123" xlink:href="#ma82bcedabd" y="98.446216"/>
     <use style="fill:#ff0000;stroke:#ff0000;" x="237.242123" xlink:href="#ma82bcedabd" y="98.446216"/>
    </g>
   </g>
   <g id="line2d_44">
    <path d="M 44.939466 294.16 
L 44.939466 271.233528 
L 56.84 271.233528 
L 56.84 264.523341 
L 63.801366 264.523341 
L 63.801366 257.253972 
L 68.740534 257.253972 
L 68.740534 251.102967 
L 72.57165 251.102967 
L 72.57165 249.984603 
L 75.7019 249.984603 
L 75.7019 246.62951 
L 78.348489 246.62951 
L 78.348489 243.833598 
L 80.641068 243.833598 
L 80.641068 242.715234 
L 82.663267 242.715234 
L 82.663267 242.156052 
L 86.10855 242.156052 
L 86.10855 240.478505 
L 88.976675 240.478505 
L 88.976675 239.919323 
L 90.249023 239.919323 
L 90.249023 238.800958 
L 91.433551 238.800958 
L 91.433551 237.682594 
L 93.582457 237.682594 
L 93.582457 236.564229 
L 95.492072 236.564229 
L 95.492072 236.005047 
L 97.210389 236.005047 
L 97.210389 235.445865 
L 98.77227 235.445865 
L 98.77227 233.768318 
L 99.502969 233.768318 
L 99.502969 233.209136 
L 104.970451 233.209136 
L 104.970451 232.090771 
L 105.980674 232.090771 
L 105.980674 230.972407 
L 106.934744 230.972407 
L 106.934744 230.413225 
L 107.838576 230.413225 
L 107.838576 227.058131 
L 108.697197 227.058131 
L 108.697197 226.498949 
L 109.514915 226.498949 
L 109.514915 225.939767 
L 112.444358 225.939767 
L 112.444358 225.380584 
L 113.104779 225.380584 
L 113.104779 224.821402 
L 114.353973 224.821402 
L 114.353973 224.26222 
L 114.946061 224.26222 
L 114.946061 223.703038 
L 115.518408 223.703038 
L 115.518408 222.025491 
L 118.364869 222.025491 
L 118.364869 220.907126 
L 119.957824 220.907126 
L 119.957824 220.347944 
L 121.613935 220.347944 
L 121.613935 218.670397 
L 122.942575 218.670397 
L 122.942575 218.111215 
L 125.166524 218.111215 
L 125.166524 217.552033 
L 125.796644 217.552033 
L 125.796644 216.992851 
L 126.846595 216.992851 
L 126.846595 216.433669 
L 128.108547 216.433669 
L 128.108547 215.874486 
L 129.534704 215.874486 
L 129.534704 215.315304 
L 130.735812 215.315304 
L 130.735812 213.078575 
L 131.529233 213.078575 
L 131.529233 212.519393 
L 132.287602 212.519393 
L 132.287602 211.960211 
L 132.809491 211.960211 
L 132.911992 210.282664 
L 133.514469 210.282664 
L 133.514469 209.164299 
L 135.382488 209.164299 
L 135.382488 208.045935 
L 135.991068 208.045935 
L 135.991068 203.572477 
L 136.412928 203.572477 
L 136.412928 203.013295 
L 137.385009 203.013295 
L 137.385009 201.89493 
L 137.619667 201.89493 
L 137.619667 201.335748 
L 139.107076 201.335748 
L 139.107076 200.776566 
L 139.248968 200.776566 
L 139.319477 198.539837 
L 139.667741 198.539837 
L 139.667741 197.980655 
L 139.873358 197.980655 
L 139.873358 197.421472 
L 140.80163 197.421472 
L 140.80163 196.86229 
L 140.99418 196.86229 
L 141.057886 194.625561 
L 141.310374 194.625561 
L 141.310374 194.066379 
L 142.10622 194.066379 
L 142.10622 193.507197 
L 142.284754 193.507197 
L 142.284754 192.948014 
L 142.519947 192.948014 
L 142.519947 192.388832 
L 143.813139 192.388832 
L 143.813139 191.82965 
L 143.974856 191.82965 
L 143.974856 190.711285 
L 144.451064 190.711285 
L 144.451064 190.152103 
L 145.01571 190.152103 
L 145.01571 189.592921 
L 145.853381 189.592921 
L 145.901406 187.356192 
L 146.834725 187.356192 
L 146.834725 186.79701 
L 147.060337 186.79701 
L 147.060337 185.678645 
L 147.371295 185.678645 
L 147.371295 185.119463 
L 147.633419 185.119463 
L 147.719912 184.001099 
L 147.934258 184.001099 
L 147.934258 183.441916 
L 148.27174 183.441916 
L 148.27174 182.882734 
L 149.403273 182.882734 
L 149.403273 182.323552 
L 149.789975 182.323552 
L 149.789975 181.205187 
L 150.31713 181.205187 
L 150.428016 180.086823 
L 151.705627 180.086823 
L 151.705627 179.527641 
L 152.244301 179.527641 
L 152.244301 178.968458 
L 153.796091 178.968458 
L 153.796091 177.850094 
L 154.096253 177.850094 
L 154.096253 176.731729 
L 154.244389 176.731729 
L 154.244389 176.172547 
L 154.565857 176.172547 
L 154.565857 175.613365 
L 154.681279 175.613365 
L 154.681279 174.495 
L 155.385596 174.495 
L 155.385596 173.935818 
L 155.821653 173.935818 
L 155.821653 173.376636 
L 156.246909 173.376636 
L 156.246909 172.817454 
L 156.661887 172.817454 
L 156.764082 170.580725 
L 157.166889 170.580725 
L 157.166889 170.021543 
L 158.575547 170.021543 
L 158.575547 168.903178 
L 159.027981 168.903178 
L 159.117054 167.784814 
L 159.577255 167.784814 
L 159.577255 167.225631 
L 159.792136 167.225631 
L 159.877342 164.988902 
L 159.919786 164.988902 
L 159.919786 163.870538 
L 160.706916 163.870538 
L 160.706916 163.311356 
L 162.254706 163.311356 
L 162.254706 162.752173 
L 168.651875 162.752173 
L 168.651875 162.192991 
L 172.848702 162.192991 
L 172.848702 161.074627 
L 175.778145 161.074627 
L 175.820174 159.956262 
L 175.945647 159.956262 
L 175.945647 159.39708 
L 177.993755 159.39708 
L 177.993755 158.278715 
L 178.163053 158.278715 
L 178.199637 157.160351 
L 178.287121 157.160351 
L 178.287121 156.041987 
L 178.446361 156.041987 
L 178.446361 155.482804 
L 178.575559 155.482804 
L 178.575559 154.923622 
L 178.950424 154.923622 
L 179.034174 153.246075 
L 179.09672 153.246075 
L 179.09672 152.686893 
L 179.289863 152.686893 
L 179.378803 151.009346 
L 179.474073 151.009346 
L 179.474073 150.450164 
L 179.642893 150.450164 
L 179.649611 149.3318 
L 179.975632 149.3318 
L 179.975632 148.772617 
L 180.217774 148.772617 
L 180.217774 148.213435 
L 180.673071 148.213435 
L 180.685723 147.095071 
L 180.85562 147.095071 
L 180.930593 145.976706 
L 181.202727 145.976706 
L 181.202727 145.417524 
L 181.379759 145.417524 
L 181.379759 144.858342 
L 181.752226 144.858342 
L 181.752226 144.299159 
L 181.982446 144.299159 
L 182.076009 143.180795 
L 182.09932 143.180795 
L 182.09932 142.06243 
L 182.284681 142.06243 
L 182.33071 140.944066 
L 182.445246 140.944066 
L 182.445246 139.825702 
L 182.87921 139.825702 
L 182.87921 139.266519 
L 188.012065 139.266519 
L 188.012065 138.148155 
L 189.337982 138.148155 
L 189.41422 137.02979 
L 189.689652 137.02979 
L 189.700877 135.911426 
L 189.849849 135.911426 
L 189.849849 135.352244 
L 189.971784 135.352244 
L 189.971784 134.793061 
L 190.468941 134.793061 
L 190.468941 134.233879 
L 190.600777 134.233879 
L 190.600777 133.674697 
L 190.787876 133.674697 
L 190.84746 132.556332 
L 191.265684 132.556332 
L 191.333842 131.437968 
L 191.40173 131.437968 
L 191.46935 129.760421 
L 191.576992 129.760421 
L 191.650607 128.642057 
L 195.300467 128.642057 
L 195.300467 128.082874 
L 195.782253 128.082874 
L 195.782253 127.523692 
L 196.168961 127.523692 
L 196.168961 126.96451 
L 196.557189 126.96451 
L 196.612298 125.846145 
L 196.717017 125.846145 
L 196.761701 124.727781 
L 196.83098 124.727781 
L 196.83098 124.168599 
L 197.257754 124.168599 
L 197.257754 123.609417 
L 197.496945 123.609417 
L 197.496945 123.050234 
L 200.627987 123.050234 
L 200.627987 122.491052 
L 200.988377 122.491052 
L 200.988377 121.93187 
L 201.824387 121.93187 
L 201.861269 120.813505 
L 203.322578 120.813505 
L 203.322578 120.254323 
L 205.241452 120.254323 
L 205.241452 119.695141 
L 205.362062 119.695141 
L 205.451967 118.576776 
L 205.588914 118.576776 
L 205.588914 118.017594 
L 207.931644 118.017594 
L 207.931644 117.458412 
L 208.206249 117.458412 
L 208.258362 116.340047 
L 208.324231 116.340047 
L 208.324231 115.780865 
L 210.624552 115.780865 
L 210.713884 114.662501 
L 210.867198 114.662501 
L 210.867198 114.103318 
L 213.073981 114.103318 
L 213.073981 113.544136 
L 213.879298 113.544136 
L 213.879298 112.984954 
L 214.822585 112.984954 
L 214.884816 111.307407 
L 214.943383 111.307407 
L 214.943383 110.748225 
L 215.650852 110.748225 
L 215.650852 110.189043 
L 215.912877 110.189043 
L 215.912877 109.629861 
L 216.566612 109.629861 
L 216.675779 108.511496 
L 218.249281 108.511496 
L 218.249281 107.952314 
L 218.930619 107.952314 
L 218.930619 107.393132 
L 219.254721 107.393132 
L 219.254721 106.833949 
L 221.039543 106.833949 
L 221.039543 106.274767 
L 222.198008 106.274767 
L 222.29914 104.59722 
L 224.874517 104.59722 
L 224.874517 104.038038 
L 225.415567 104.038038 
L 225.415567 103.478856 
L 226.307702 103.478856 
L 226.307702 102.919674 
L 226.440254 102.919674 
L 226.440254 102.360491 
L 227.663236 102.360491 
L 227.663236 101.801309 
L 231.917976 101.801309 
L 231.979288 100.682945 
L 232.278852 100.682945 
L 232.278852 100.123762 
L 234.386876 100.123762 
L 234.386876 99.56458 
L 236.588895 99.56458 
L 236.588895 99.005398 
L 237.242123 99.005398 
L 237.242123 98.446216 
L 333.569032 98.446216 
L 333.569032 98.446216 
" style="fill:none;stroke:#ff0000;stroke-linecap:square;stroke-width:1.5;"/>
   </g>
   <g id="line2d_45">
    <defs>
     <path d="M 0 -6 
L -5.196152 -3 
L -5.196152 3 
L -0 6 
L 5.196152 3 
L 5.196152 -3 
z
" id="m91cf6cd836" style="stroke:#ff0000;stroke-linejoin:miter;stroke-width:1.5;"/>
    </defs>
    <g>
     <use style="fill-opacity:0;stroke:#ff0000;stroke-linejoin:miter;stroke-width:1.5;" x="115.518408" xlink:href="#m91cf6cd836" y="223.703038"/>
     <use style="fill-opacity:0;stroke:#ff0000;stroke-linejoin:miter;stroke-width:1.5;" x="168.651875" xlink:href="#m91cf6cd836" y="162.752173"/>
     <use style="fill-opacity:0;stroke:#ff0000;stroke-linejoin:miter;stroke-width:1.5;" x="226.307702" xlink:href="#m91cf6cd836" y="102.919674"/>
     <use style="fill-opacity:0;stroke:#ff0000;stroke-linejoin:miter;stroke-width:1.5;" x="237.242123" xlink:href="#m91cf6cd836" y="98.446216"/>
     <use style="fill-opacity:0;stroke:#ff0000;stroke-linejoin:miter;stroke-width:1.5;" x="237.242123" xlink:href="#m91cf6cd836" y="98.446216"/>
     <use style="fill-opacity:0;stroke:#ff0000;stroke-linejoin:miter;stroke-width:1.5;" x="333.569032" xlink:href="#m91cf6cd836" y="98.446216"/>
    </g>
   </g>
   <g id="line2d_46">
    <path style="fill:none;stroke:#ff0000;stroke-linecap:square;stroke-width:1.5;"/>
    <g/>
   </g>
   <g id="line2d_47">
    <path clip-path="url(#p6249dae7b3)" d="M 96.372719 236.005047 
" style="fill:none;stroke:#ff0000;stroke-linecap:square;stroke-width:1.5;"/>
    <defs>
     <path d="M -12 12 
L 12 -12 
M -12 -12 
L 12 12 
" id="md90eaba66f" style="stroke:#ff0000;stroke-width:3;"/>
    </defs>
    <g clip-path="url(#p6249dae7b3)">
     <use style="fill:#ff0000;stroke:#ff0000;stroke-width:3;" x="96.372719" xlink:href="#md90eaba66f" y="236.005047"/>
    </g>
   </g>
   <g id="line2d_48">
    <path d="M 333.569032 221.466309 
L 364.009226 288.456341 
" style="fill:none;stroke:#ff00ff;stroke-linecap:square;stroke-width:1.5;"/>
    <g>
     <use style="fill-opacity:0;stroke:#ff00ff;stroke-linejoin:miter;stroke-width:1.5;" x="333.569032" xlink:href="#m819a82d7fd" y="221.466309"/>
     <use style="fill-opacity:0;stroke:#ff00ff;stroke-linejoin:miter;stroke-width:1.5;" x="364.009226" xlink:href="#m819a82d7fd" y="288.456341"/>
    </g>
   </g>
   <g id="line2d_49">
    <path d="M 333.569032 159.956262 
L 364.009226 220.012435 
" style="fill:none;stroke:#6495ed;stroke-linecap:square;stroke-width:1.5;"/>
    <g>
     <use style="fill-opacity:0;stroke:#6495ed;stroke-linejoin:miter;stroke-width:1.5;" x="333.569032" xlink:href="#mfc9b510434" y="159.956262"/>
     <use style="fill-opacity:0;stroke:#6495ed;stroke-linejoin:miter;stroke-width:1.5;" x="364.009226" xlink:href="#mfc9b510434" y="220.012435"/>
    </g>
   </g>
   <g id="line2d_50">
    <path d="M 333.569032 137.588973 
L 364.009226 151.568529 
" style="fill:none;stroke:#ffa500;stroke-linecap:square;stroke-width:1.5;"/>
    <g>
     <use style="fill-opacity:0;stroke:#ffa500;stroke-linejoin:bevel;stroke-width:1.5;" x="333.569032" xlink:href="#m3ce45b2256" y="137.588973"/>
     <use style="fill-opacity:0;stroke:#ffa500;stroke-linejoin:bevel;stroke-width:1.5;" x="364.009226" xlink:href="#m3ce45b2256" y="151.568529"/>
    </g>
   </g>
   <g id="line2d_51">
    <path d="M 333.569032 126.405328 
L 364.009226 83.124622 
" style="fill:none;stroke:#000080;stroke-linecap:square;stroke-width:1.5;"/>
    <g>
     <use style="fill-opacity:0;stroke:#000080;stroke-width:1.5;" x="333.569032" xlink:href="#m77ba464360" y="126.405328"/>
     <use style="fill-opacity:0;stroke:#000080;stroke-width:1.5;" x="364.009226" xlink:href="#m77ba464360" y="83.124622"/>
    </g>
   </g>
   <g id="line2d_52">
    <path d="M 333.569032 98.446216 
L 364.009226 14.680716 
" style="fill:none;stroke:#ff0000;stroke-linecap:square;stroke-width:1.5;"/>
    <g>
     <use style="fill-opacity:0;stroke:#ff0000;stroke-linejoin:miter;stroke-width:1.5;" x="333.569032" xlink:href="#m91cf6cd836" y="98.446216"/>
     <use style="fill-opacity:0;stroke:#ff0000;stroke-linejoin:miter;stroke-width:1.5;" x="364.009226" xlink:href="#m91cf6cd836" y="14.680716"/>
    </g>
   </g>
   <g id="line2d_53">
    <path d="M 333.569032 294.16 
L 333.569032 8.977057 
" style="fill:none;stroke:#000000;stroke-linecap:square;stroke-width:1.5;"/>
   </g>
   <g id="patch_3">
    <path d="M 56.84 294.16 
L 56.84 6.125228 
" style="fill:none;stroke:#000000;stroke-linecap:square;stroke-linejoin:miter;stroke-width:0.8;"/>
   </g>
   <g id="patch_4">
    <path d="M 399.984 294.16 
L 399.984 6.125228 
" style="fill:none;stroke:#000000;stroke-linecap:square;stroke-linejoin:miter;stroke-width:0.8;"/>
   </g>
   <g id="patch_5">
    <path d="M 56.84 294.16 
L 399.984 294.16 
" style="fill:none;stroke:#000000;stroke-linecap:square;stroke-linejoin:miter;stroke-width:0.8;"/>
   </g>
   <g id="patch_6">
    <path d="M 56.84 6.125228 
L 399.984 6.125228 
" style="fill:none;stroke:#000000;stroke-linecap:square;stroke-linejoin:miter;stroke-width:0.8;"/>
   </g>
   <g id="text_14">
    <!-- f13 -->
    <defs>
     <path d="M 40.578125 39.3125 
Q 47.65625 37.796875 51.625 33 
Q 55.609375 28.21875 55.609375 21.1875 
Q 55.609375 10.40625 48.1875 4.484375 
Q 40.765625 -1.421875 27.09375 -1.421875 
Q 22.515625 -1.421875 17.65625 -0.515625 
Q 12.796875 0.390625 7.625 2.203125 
L 7.625 11.71875 
Q 11.71875 9.328125 16.59375 8.109375 
Q 21.484375 6.890625 26.8125 6.890625 
Q 36.078125 6.890625 40.9375 10.546875 
Q 45.796875 14.203125 45.796875 21.1875 
Q 45.796875 27.640625 41.28125 31.265625 
Q 36.765625 34.90625 28.71875 34.90625 
L 20.21875 34.90625 
L 20.21875 43.015625 
L 29.109375 43.015625 
Q 36.375 43.015625 40.234375 45.921875 
Q 44.09375 48.828125 44.09375 54.296875 
Q 44.09375 59.90625 40.109375 62.90625 
Q 36.140625 65.921875 28.71875 65.921875 
Q 24.65625 65.921875 20.015625 65.03125 
Q 15.375 64.15625 9.8125 62.3125 
L 9.8125 71.09375 
Q 15.4375 72.65625 20.34375 73.4375 
Q 25.25 74.21875 29.59375 74.21875 
Q 40.828125 74.21875 47.359375 69.109375 
Q 53.90625 64.015625 53.90625 55.328125 
Q 53.90625 49.265625 50.4375 45.09375 
Q 46.96875 40.921875 40.578125 39.3125 
z
" id="DejaVuSans-33"/>
    </defs>
    <g transform="translate(369.543806 293.147279)scale(0.17 -0.17)">
     <use xlink:href="#DejaVuSans-66"/>
     <use x="35.205078" xlink:href="#DejaVuSans-31"/>
     <use x="98.828125" xlink:href="#DejaVuSans-33"/>
    </g>
   </g>
   <g id="text_15">
    <!-- f11 -->
    <g transform="translate(369.543806 224.703372)scale(0.17 -0.17)">
     <use xlink:href="#DejaVuSans-66"/>
     <use x="35.205078" xlink:href="#DejaVuSans-31"/>
     <use x="98.828125" xlink:href="#DejaVuSans-31"/>
    </g>
   </g>
   <g id="text_16">
    <!-- f10 -->
    <g transform="translate(369.543806 156.259466)scale(0.17 -0.17)">
     <use xlink:href="#DejaVuSans-66"/>
     <use x="35.205078" xlink:href="#DejaVuSans-31"/>
     <use x="98.828125" xlink:href="#DejaVuSans-30"/>
    </g>
   </g>
   <g id="text_17">
    <!-- f12 -->
    <g transform="translate(369.543806 87.81556)scale(0.17 -0.17)">
     <use xlink:href="#DejaVuSans-66"/>
     <use x="35.205078" xlink:href="#DejaVuSans-31"/>
     <use x="98.828125" xlink:href="#DejaVuSans-32"/>
    </g>
   </g>
   <g id="text_18">
    <!-- f14 -->
    <g transform="translate(369.543806 19.371654)scale(0.17 -0.17)">
     <use xlink:href="#DejaVuSans-66"/>
     <use x="35.205078" xlink:href="#DejaVuSans-31"/>
     <use x="98.828125" xlink:href="#DejaVuSans-34"/>
    </g>
   </g>
   <g id="text_19">
    <!-- bbob -->
    <defs>
     <path d="M 48.6875 27.296875 
Q 48.6875 37.203125 44.609375 42.84375 
Q 40.53125 48.484375 33.40625 48.484375 
Q 26.265625 48.484375 22.1875 42.84375 
Q 18.109375 37.203125 18.109375 27.296875 
Q 18.109375 17.390625 22.1875 11.75 
Q 26.265625 6.109375 33.40625 6.109375 
Q 40.53125 6.109375 44.609375 11.75 
Q 48.6875 17.390625 48.6875 27.296875 
z
M 18.109375 46.390625 
Q 20.953125 51.265625 25.265625 53.625 
Q 29.59375 56 35.59375 56 
Q 45.5625 56 51.78125 48.09375 
Q 58.015625 40.1875 58.015625 27.296875 
Q 58.015625 14.40625 51.78125 6.484375 
Q 45.5625 -1.421875 35.59375 -1.421875 
Q 29.59375 -1.421875 25.265625 0.953125 
Q 20.953125 3.328125 18.109375 8.203125 
L 18.109375 0 
L 9.078125 0 
L 9.078125 75.984375 
L 18.109375 75.984375 
z
" id="DejaVuSans-62"/>
    </defs>
    <g transform="translate(60.27144 16.755982)scale(0.102 -0.102)">
     <use xlink:href="#DejaVuSans-62"/>
     <use x="63.476562" xlink:href="#DejaVuSans-62"/>
     <use x="126.953125" xlink:href="#DejaVuSans-6f"/>
     <use x="188.134766" xlink:href="#DejaVuSans-62"/>
    </g>
    <!-- Ill-conditioned functions, 2-D -->
    <defs>
     <path d="M 9.8125 72.90625 
L 19.671875 72.90625 
L 19.671875 0 
L 9.8125 0 
z
" id="DejaVuSans-49"/>
     <path d="M 19.671875 64.796875 
L 19.671875 8.109375 
L 31.59375 8.109375 
Q 46.6875 8.109375 53.6875 14.9375 
Q 60.6875 21.78125 60.6875 36.53125 
Q 60.6875 51.171875 53.6875 57.984375 
Q 46.6875 64.796875 31.59375 64.796875 
z
M 9.8125 72.90625 
L 30.078125 72.90625 
Q 51.265625 72.90625 61.171875 64.09375 
Q 71.09375 55.28125 71.09375 36.53125 
Q 71.09375 17.671875 61.125 8.828125 
Q 51.171875 0 30.078125 0 
L 9.8125 0 
z
" id="DejaVuSans-44"/>
    </defs>
    <g transform="translate(60.27144 28.17775)scale(0.102 -0.102)">
     <use xlink:href="#DejaVuSans-49"/>
     <use x="29.492188" xlink:href="#DejaVuSans-6c"/>
     <use x="57.275391" xlink:href="#DejaVuSans-6c"/>
     <use x="85.058594" xlink:href="#DejaVuSans-2d"/>
     <use x="121.142578" xlink:href="#DejaVuSans-63"/>
     <use x="176.123047" xlink:href="#DejaVuSans-6f"/>
     <use x="237.304688" xlink:href="#DejaVuSans-6e"/>
     <use x="300.683594" xlink:href="#DejaVuSans-64"/>
     <use x="364.160156" xlink:href="#DejaVuSans-69"/>
     <use x="391.943359" xlink:href="#DejaVuSans-74"/>
     <use x="431.152344" xlink:href="#DejaVuSans-69"/>
     <use x="458.935547" xlink:href="#DejaVuSans-6f"/>
     <use x="520.117188" xlink:href="#DejaVuSans-6e"/>
     <use x="583.496094" xlink:href="#DejaVuSans-65"/>
     <use x="645.019531" xlink:href="#DejaVuSans-64"/>
     <use x="708.496094" xlink:href="#DejaVuSans-20"/>
     <use x="740.283203" xlink:href="#DejaVuSans-66"/>
     <use x="775.488281" xlink:href="#DejaVuSans-75"/>
     <use x="838.867188" xlink:href="#DejaVuSans-6e"/>
     <use x="902.246094" xlink:href="#DejaVuSans-63"/>
     <use x="957.226562" xlink:href="#DejaVuSans-74"/>
     <use x="996.435547" xlink:href="#DejaVuSans-69"/>
     <use x="1024.21875" xlink:href="#DejaVuSans-6f"/>
     <use x="1085.400391" xlink:href="#DejaVuSans-6e"/>
     <use x="1148.779297" xlink:href="#DejaVuSans-73"/>
     <use x="1200.878906" xlink:href="#DejaVuSans-2c"/>
     <use x="1232.666016" xlink:href="#DejaVuSans-20"/>
     <use x="1264.453125" xlink:href="#DejaVuSans-32"/>
     <use x="1328.076172" xlink:href="#DejaVuSans-2d"/>
     <use x="1364.160156" xlink:href="#DejaVuSans-44"/>
    </g>
    <!-- 51 targets: 100..1e-08 -->
    <defs>
     <path d="M 10.796875 72.90625 
L 49.515625 72.90625 
L 49.515625 64.59375 
L 19.828125 64.59375 
L 19.828125 46.734375 
Q 21.96875 47.46875 24.109375 47.828125 
Q 26.265625 48.1875 28.421875 48.1875 
Q 40.625 48.1875 47.75 41.5 
Q 54.890625 34.8125 54.890625 23.390625 
Q 54.890625 11.625 47.5625 5.09375 
Q 40.234375 -1.421875 26.90625 -1.421875 
Q 22.3125 -1.421875 17.546875 -0.640625 
Q 12.796875 0.140625 7.71875 1.703125 
L 7.71875 11.625 
Q 12.109375 9.234375 16.796875 8.0625 
Q 21.484375 6.890625 26.703125 6.890625 
Q 35.15625 6.890625 40.078125 11.328125 
Q 45.015625 15.765625 45.015625 23.390625 
Q 45.015625 31 40.078125 35.4375 
Q 35.15625 39.890625 26.703125 39.890625 
Q 22.75 39.890625 18.8125 39.015625 
Q 14.890625 38.140625 10.796875 36.28125 
z
" id="DejaVuSans-35"/>
     <path d="M 11.71875 12.40625 
L 22.015625 12.40625 
L 22.015625 0 
L 11.71875 0 
z
M 11.71875 51.703125 
L 22.015625 51.703125 
L 22.015625 39.3125 
L 11.71875 39.3125 
z
" id="DejaVuSans-3a"/>
    </defs>
    <g transform="translate(60.27144 39.599519)scale(0.102 -0.102)">
     <use xlink:href="#DejaVuSans-35"/>
     <use x="63.623047" xlink:href="#DejaVuSans-31"/>
     <use x="127.246094" xlink:href="#DejaVuSans-20"/>
     <use x="159.033203" xlink:href="#DejaVuSans-74"/>
     <use x="198.242188" xlink:href="#DejaVuSans-61"/>
     <use x="259.521484" xlink:href="#DejaVuSans-72"/>
     <use x="300.619141" xlink:href="#DejaVuSans-67"/>
     <use x="364.095703" xlink:href="#DejaVuSans-65"/>
     <use x="425.619141" xlink:href="#DejaVuSans-74"/>
     <use x="464.828125" xlink:href="#DejaVuSans-73"/>
     <use x="516.927734" xlink:href="#DejaVuSans-3a"/>
     <use x="550.619141" xlink:href="#DejaVuSans-20"/>
     <use x="582.40625" xlink:href="#DejaVuSans-31"/>
     <use x="646.029297" xlink:href="#DejaVuSans-30"/>
     <use x="709.652344" xlink:href="#DejaVuSans-30"/>
     <use x="773.275391" xlink:href="#DejaVuSans-2e"/>
     <use x="805.0625" xlink:href="#DejaVuSans-2e"/>
     <use x="836.849609" xlink:href="#DejaVuSans-31"/>
     <use x="900.472656" xlink:href="#DejaVuSans-65"/>
     <use x="961.996094" xlink:href="#DejaVuSans-2d"/>
     <use x="998.080078" xlink:href="#DejaVuSans-30"/>
     <use x="1061.703125" xlink:href="#DejaVuSans-38"/>
    </g>
    <!-- 30 instances -->
    <g transform="translate(60.27144 51.021288)scale(0.102 -0.102)">
     <use xlink:href="#DejaVuSans-33"/>
     <use x="63.623047" xlink:href="#DejaVuSans-30"/>
     <use x="127.246094" xlink:href="#DejaVuSans-20"/>
     <use x="159.033203" xlink:href="#DejaVuSans-69"/>
     <use x="186.816406" xlink:href="#DejaVuSans-6e"/>
     <use x="250.195312" xlink:href="#DejaVuSans-73"/>
     <use x="302.294922" xlink:href="#DejaVuSans-74"/>
     <use x="341.503906" xlink:href="#DejaVuSans-61"/>
     <use x="402.783203" xlink:href="#DejaVuSans-6e"/>
     <use x="466.162109" xlink:href="#DejaVuSans-63"/>
     <use x="521.142578" xlink:href="#DejaVuSans-65"/>
     <use x="582.666016" xlink:href="#DejaVuSans-73"/>
    </g>
   </g>
   <g id="text_20">
    <!-- v2.2.1.10 -->
    <g style="fill:#808080;" transform="translate(204.779188 289.199965)scale(0.1 -0.1)">
     <use xlink:href="#DejaVuSans-76"/>
     <use x="59.179688" xlink:href="#DejaVuSans-32"/>
     <use x="122.802734" xlink:href="#DejaVuSans-2e"/>
     <use x="154.589844" xlink:href="#DejaVuSans-32"/>
     <use x="218.212891" xlink:href="#DejaVuSans-2e"/>
     <use x="250" xlink:href="#DejaVuSans-31"/>
     <use x="313.623047" xlink:href="#DejaVuSans-2e"/>
     <use x="345.410156" xlink:href="#DejaVuSans-31"/>
     <use x="409.033203" xlink:href="#DejaVuSans-30"/>
    </g>
   </g>
  </g>
 </g>
 <defs>
  <clipPath id="p6249dae7b3">
   <rect height="288.034772" width="343.144" x="56.84" y="6.125228"/>
  </clipPath>
 </defs>
</svg>
