<?xml version="1.0" encoding="utf-8" standalone="no"?>
<!DOCTYPE svg PUBLIC "-//W3C//DTD SVG 1.1//EN"
  "http://www.w3.org/Graphics/SVG/1.1/DTD/svg11.dtd">
<!-- Created with matplotlib (http://matplotlib.org/) -->
<svg height="345.6pt" version="1.1" viewBox="0 0 460.8 345.6" width="460.8pt" xmlns="http://www.w3.org/2000/svg" xmlns:xlink="http://www.w3.org/1999/xlink">
 <defs>
  <style type="text/css">
*{stroke-linecap:butt;stroke-linejoin:round;}
  </style>
 </defs>
 <g id="figure_1">
  <g id="patch_1">
   <path d="M 0 345.6 
L 460.8 345.6 
L 460.8 0 
L 0 0 
z
" style="fill:#ffffff;"/>
  </g>
  <g id="axes_1">
   <g id="patch_2">
    <path d="M 5.52 291.28 
L 450.672 291.28 
L 450.672 5.52 
L 5.52 5.52 
z
" style="fill:#ffffff;"/>
   </g>
   <g id="matplotlib.axis_1">
    <g id="xtick_1">
     <g id="line2d_1">
      <path clip-path="url(#p625736610e)" d="M 5.410763 291.28 
L 5.410763 5.52 
" style="fill:none;stroke:#b0b0b0;stroke-linecap:square;stroke-width:0.8;"/>
     </g>
     <g id="line2d_2">
      <defs>
       <path d="M 0 0 
L 0 3.5 
" id="m7f0b44d6ed" style="stroke:#000000;stroke-width:0.8;"/>
      </defs>
      <g>
       <use style="stroke:#000000;stroke-width:0.8;" x="5.410763" xlink:href="#m7f0b44d6ed" y="291.28"/>
      </g>
     </g>
    </g>
    <g id="xtick_2">
     <g id="line2d_3">
      <path clip-path="url(#p625736610e)" d="M 106.523788 291.28 
L 106.523788 5.52 
" style="fill:none;stroke:#b0b0b0;stroke-linecap:square;stroke-width:0.8;"/>
     </g>
     <g id="line2d_4">
      <g>
       <use style="stroke:#000000;stroke-width:0.8;" x="106.523788" xlink:href="#m7f0b44d6ed" y="291.28"/>
      </g>
     </g>
     <g id="text_1">
      <!-- -4 -->
      <defs>
       <path d="M 4.890625 31.390625 
L 31.203125 31.390625 
L 31.203125 23.390625 
L 4.890625 23.390625 
z
" id="DejaVuSans-2d"/>
       <path d="M 37.796875 64.3125 
L 12.890625 25.390625 
L 37.796875 25.390625 
z
M 35.203125 72.90625 
L 47.609375 72.90625 
L 47.609375 25.390625 
L 58.015625 25.390625 
L 58.015625 17.1875 
L 47.609375 17.1875 
L 47.609375 0 
L 37.796875 0 
L 37.796875 17.1875 
L 4.890625 17.1875 
L 4.890625 26.703125 
z
" id="DejaVuSans-34"/>
      </defs>
      <g transform="translate(96.553475 313.476875)scale(0.2 -0.2)">
       <use xlink:href="#DejaVuSans-2d"/>
       <use x="36.083984" xlink:href="#DejaVuSans-34"/>
      </g>
     </g>
    </g>
    <g id="xtick_3">
     <g id="line2d_5">
      <path clip-path="url(#p625736610e)" d="M 207.636812 291.28 
L 207.636812 5.52 
" style="fill:none;stroke:#b0b0b0;stroke-linecap:square;stroke-width:0.8;"/>
     </g>
     <g id="line2d_6">
      <g>
       <use style="stroke:#000000;stroke-width:0.8;" x="207.636812" xlink:href="#m7f0b44d6ed" y="291.28"/>
      </g>
     </g>
     <g id="text_2">
      <!-- 0 -->
      <defs>
       <path d="M 31.78125 66.40625 
Q 24.171875 66.40625 20.328125 58.90625 
Q 16.5 51.421875 16.5 36.375 
Q 16.5 21.390625 20.328125 13.890625 
Q 24.171875 6.390625 31.78125 6.390625 
Q 39.453125 6.390625 43.28125 13.890625 
Q 47.125 21.390625 47.125 36.375 
Q 47.125 51.421875 43.28125 58.90625 
Q 39.453125 66.40625 31.78125 66.40625 
z
M 31.78125 74.21875 
Q 44.046875 74.21875 50.515625 64.515625 
Q 56.984375 54.828125 56.984375 36.375 
Q 56.984375 17.96875 50.515625 8.265625 
Q 44.046875 -1.421875 31.78125 -1.421875 
Q 19.53125 -1.421875 13.0625 8.265625 
Q 6.59375 17.96875 6.59375 36.375 
Q 6.59375 54.828125 13.0625 64.515625 
Q 19.53125 74.21875 31.78125 74.21875 
z
" id="DejaVuSans-30"/>
      </defs>
      <g transform="translate(201.274312 313.476875)scale(0.2 -0.2)">
       <use xlink:href="#DejaVuSans-30"/>
      </g>
     </g>
    </g>
    <g id="xtick_4">
     <g id="line2d_7">
      <path clip-path="url(#p625736610e)" d="M 308.749837 291.28 
L 308.749837 5.52 
" style="fill:none;stroke:#b0b0b0;stroke-linecap:square;stroke-width:0.8;"/>
     </g>
     <g id="line2d_8">
      <g>
       <use style="stroke:#000000;stroke-width:0.8;" x="308.749837" xlink:href="#m7f0b44d6ed" y="291.28"/>
      </g>
     </g>
     <g id="text_3">
      <!-- 4 -->
      <g transform="translate(302.387337 313.476875)scale(0.2 -0.2)">
       <use xlink:href="#DejaVuSans-34"/>
      </g>
     </g>
    </g>
    <g id="xtick_5">
     <g id="line2d_9">
      <path clip-path="url(#p625736610e)" d="M 409.862861 291.28 
L 409.862861 5.52 
" style="fill:none;stroke:#b0b0b0;stroke-linecap:square;stroke-width:0.8;"/>
     </g>
     <g id="line2d_10">
      <g>
       <use style="stroke:#000000;stroke-width:0.8;" x="409.862861" xlink:href="#m7f0b44d6ed" y="291.28"/>
      </g>
     </g>
     <g id="text_4">
      <!-- 8 -->
      <defs>
       <path d="M 31.78125 34.625 
Q 24.75 34.625 20.71875 30.859375 
Q 16.703125 27.09375 16.703125 20.515625 
Q 16.703125 13.921875 20.71875 10.15625 
Q 24.75 6.390625 31.78125 6.390625 
Q 38.8125 6.390625 42.859375 10.171875 
Q 46.921875 13.96875 46.921875 20.515625 
Q 46.921875 27.09375 42.890625 30.859375 
Q 38.875 34.625 31.78125 34.625 
z
M 21.921875 38.8125 
Q 15.578125 40.375 12.03125 44.71875 
Q 8.5 49.078125 8.5 55.328125 
Q 8.5 64.0625 14.71875 69.140625 
Q 20.953125 74.21875 31.78125 74.21875 
Q 42.671875 74.21875 48.875 69.140625 
Q 55.078125 64.0625 55.078125 55.328125 
Q 55.078125 49.078125 51.53125 44.71875 
Q 48 40.375 41.703125 38.8125 
Q 48.828125 37.15625 52.796875 32.3125 
Q 56.78125 27.484375 56.78125 20.515625 
Q 56.78125 9.90625 50.3125 4.234375 
Q 43.84375 -1.421875 31.78125 -1.421875 
Q 19.734375 -1.421875 13.25 4.234375 
Q 6.78125 9.90625 6.78125 20.515625 
Q 6.78125 27.484375 10.78125 32.3125 
Q 14.796875 37.15625 21.921875 38.8125 
z
M 18.3125 54.390625 
Q 18.3125 48.734375 21.84375 45.5625 
Q 25.390625 42.390625 31.78125 42.390625 
Q 38.140625 42.390625 41.71875 45.5625 
Q 45.3125 48.734375 45.3125 54.390625 
Q 45.3125 60.0625 41.71875 63.234375 
Q 38.140625 66.40625 31.78125 66.40625 
Q 25.390625 66.40625 21.84375 63.234375 
Q 18.3125 60.0625 18.3125 54.390625 
z
" id="DejaVuSans-38"/>
      </defs>
      <g transform="translate(403.500361 313.476875)scale(0.2 -0.2)">
       <use xlink:href="#DejaVuSans-38"/>
      </g>
     </g>
    </g>
    <g id="text_5">
     <!-- log10 of Df -->
     <defs>
      <path d="M 9.421875 75.984375 
L 18.40625 75.984375 
L 18.40625 0 
L 9.421875 0 
z
" id="DejaVuSans-6c"/>
      <path d="M 30.609375 48.390625 
Q 23.390625 48.390625 19.1875 42.75 
Q 14.984375 37.109375 14.984375 27.296875 
Q 14.984375 17.484375 19.15625 11.84375 
Q 23.34375 6.203125 30.609375 6.203125 
Q 37.796875 6.203125 41.984375 11.859375 
Q 46.1875 17.53125 46.1875 27.296875 
Q 46.1875 37.015625 41.984375 42.703125 
Q 37.796875 48.390625 30.609375 48.390625 
z
M 30.609375 56 
Q 42.328125 56 49.015625 48.375 
Q 55.71875 40.765625 55.71875 27.296875 
Q 55.71875 13.875 49.015625 6.21875 
Q 42.328125 -1.421875 30.609375 -1.421875 
Q 18.84375 -1.421875 12.171875 6.21875 
Q 5.515625 13.875 5.515625 27.296875 
Q 5.515625 40.765625 12.171875 48.375 
Q 18.84375 56 30.609375 56 
z
" id="DejaVuSans-6f"/>
      <path d="M 45.40625 27.984375 
Q 45.40625 37.75 41.375 43.109375 
Q 37.359375 48.484375 30.078125 48.484375 
Q 22.859375 48.484375 18.828125 43.109375 
Q 14.796875 37.75 14.796875 27.984375 
Q 14.796875 18.265625 18.828125 12.890625 
Q 22.859375 7.515625 30.078125 7.515625 
Q 37.359375 7.515625 41.375 12.890625 
Q 45.40625 18.265625 45.40625 27.984375 
z
M 54.390625 6.78125 
Q 54.390625 -7.171875 48.1875 -13.984375 
Q 42 -20.796875 29.203125 -20.796875 
Q 24.46875 -20.796875 20.265625 -20.09375 
Q 16.0625 -19.390625 12.109375 -17.921875 
L 12.109375 -9.1875 
Q 16.0625 -11.328125 19.921875 -12.34375 
Q 23.78125 -13.375 27.78125 -13.375 
Q 36.625 -13.375 41.015625 -8.765625 
Q 45.40625 -4.15625 45.40625 5.171875 
L 45.40625 9.625 
Q 42.625 4.78125 38.28125 2.390625 
Q 33.9375 0 27.875 0 
Q 17.828125 0 11.671875 7.65625 
Q 5.515625 15.328125 5.515625 27.984375 
Q 5.515625 40.671875 11.671875 48.328125 
Q 17.828125 56 27.875 56 
Q 33.9375 56 38.28125 53.609375 
Q 42.625 51.21875 45.40625 46.390625 
L 45.40625 54.6875 
L 54.390625 54.6875 
z
" id="DejaVuSans-67"/>
      <path d="M 12.40625 8.296875 
L 28.515625 8.296875 
L 28.515625 63.921875 
L 10.984375 60.40625 
L 10.984375 69.390625 
L 28.421875 72.90625 
L 38.28125 72.90625 
L 38.28125 8.296875 
L 54.390625 8.296875 
L 54.390625 0 
L 12.40625 0 
z
" id="DejaVuSans-31"/>
      <path id="DejaVuSans-20"/>
      <path d="M 37.109375 75.984375 
L 37.109375 68.5 
L 28.515625 68.5 
Q 23.6875 68.5 21.796875 66.546875 
Q 19.921875 64.59375 19.921875 59.515625 
L 19.921875 54.6875 
L 34.71875 54.6875 
L 34.71875 47.703125 
L 19.921875 47.703125 
L 19.921875 0 
L 10.890625 0 
L 10.890625 47.703125 
L 2.296875 47.703125 
L 2.296875 54.6875 
L 10.890625 54.6875 
L 10.890625 58.5 
Q 10.890625 67.625 15.140625 71.796875 
Q 19.390625 75.984375 28.609375 75.984375 
z
" id="DejaVuSans-66"/>
      <path d="M 19.671875 64.796875 
L 19.671875 8.109375 
L 31.59375 8.109375 
Q 46.6875 8.109375 53.6875 14.9375 
Q 60.6875 21.78125 60.6875 36.53125 
Q 60.6875 51.171875 53.6875 57.984375 
Q 46.6875 64.796875 31.59375 64.796875 
z
M 9.8125 72.90625 
L 30.078125 72.90625 
Q 51.265625 72.90625 61.171875 64.09375 
Q 71.09375 55.28125 71.09375 36.53125 
Q 71.09375 17.671875 61.125 8.828125 
Q 51.171875 0 30.078125 0 
L 9.8125 0 
z
" id="DejaVuSans-44"/>
     </defs>
     <g transform="translate(172.910063 336.833125)scale(0.2 -0.2)">
      <use xlink:href="#DejaVuSans-6c"/>
      <use x="27.783203" xlink:href="#DejaVuSans-6f"/>
      <use x="88.964844" xlink:href="#DejaVuSans-67"/>
      <use x="152.441406" xlink:href="#DejaVuSans-31"/>
      <use x="216.064453" xlink:href="#DejaVuSans-30"/>
      <use x="279.6875" xlink:href="#DejaVuSans-20"/>
      <use x="311.474609" xlink:href="#DejaVuSans-6f"/>
      <use x="372.65625" xlink:href="#DejaVuSans-66"/>
      <use x="407.861328" xlink:href="#DejaVuSans-20"/>
      <use x="439.648438" xlink:href="#DejaVuSans-44"/>
      <use x="516.650391" xlink:href="#DejaVuSans-66"/>
     </g>
    </g>
   </g>
   <g id="matplotlib.axis_2">
    <g id="ytick_1">
     <g id="line2d_11">
      <path clip-path="url(#p625736610e)" d="M 5.52 291.28 
L 450.672 291.28 
" style="fill:none;stroke:#b0b0b0;stroke-linecap:square;stroke-width:0.8;"/>
     </g>
     <g id="line2d_12">
      <defs>
       <path d="M 0 0 
L -3.5 0 
" id="me20fbc416d" style="stroke:#000000;stroke-width:0.8;"/>
      </defs>
      <g>
       <use style="stroke:#000000;stroke-width:0.8;" x="5.52" xlink:href="#me20fbc416d" y="291.28"/>
      </g>
     </g>
    </g>
    <g id="ytick_2">
     <g id="line2d_13">
      <path clip-path="url(#p625736610e)" d="M 5.52 234.693861 
L 450.672 234.693861 
" style="fill:none;stroke:#b0b0b0;stroke-linecap:square;stroke-width:0.8;"/>
     </g>
     <g id="line2d_14">
      <g>
       <use style="stroke:#000000;stroke-width:0.8;" x="5.52" xlink:href="#me20fbc416d" y="234.693861"/>
      </g>
     </g>
    </g>
    <g id="ytick_3">
     <g id="line2d_15">
      <path clip-path="url(#p625736610e)" d="M 5.52 178.107723 
L 450.672 178.107723 
" style="fill:none;stroke:#b0b0b0;stroke-linecap:square;stroke-width:0.8;"/>
     </g>
     <g id="line2d_16">
      <g>
       <use style="stroke:#000000;stroke-width:0.8;" x="5.52" xlink:href="#me20fbc416d" y="178.107723"/>
      </g>
     </g>
    </g>
    <g id="ytick_4">
     <g id="line2d_17">
      <path clip-path="url(#p625736610e)" d="M 5.52 121.521584 
L 450.672 121.521584 
" style="fill:none;stroke:#b0b0b0;stroke-linecap:square;stroke-width:0.8;"/>
     </g>
     <g id="line2d_18">
      <g>
       <use style="stroke:#000000;stroke-width:0.8;" x="5.52" xlink:href="#me20fbc416d" y="121.521584"/>
      </g>
     </g>
    </g>
    <g id="ytick_5">
     <g id="line2d_19">
      <path clip-path="url(#p625736610e)" d="M 5.52 64.935446 
L 450.672 64.935446 
" style="fill:none;stroke:#b0b0b0;stroke-linecap:square;stroke-width:0.8;"/>
     </g>
     <g id="line2d_20">
      <g>
       <use style="stroke:#000000;stroke-width:0.8;" x="5.52" xlink:href="#me20fbc416d" y="64.935446"/>
      </g>
     </g>
    </g>
    <g id="ytick_6">
     <g id="line2d_21">
      <path clip-path="url(#p625736610e)" d="M 5.52 8.349307 
L 450.672 8.349307 
" style="fill:none;stroke:#b0b0b0;stroke-linecap:square;stroke-width:0.8;"/>
     </g>
     <g id="line2d_22">
      <g>
       <use style="stroke:#000000;stroke-width:0.8;" x="5.52" xlink:href="#me20fbc416d" y="8.349307"/>
      </g>
     </g>
    </g>
   </g>
   <g id="line2d_23">
    <path clip-path="url(#p625736610e)" d="M 64.151381 291.28 
L 64.151381 287.507591 
L 81.385496 287.507591 
L 81.385496 283.735182 
L 91.796468 283.735182 
L 91.796468 279.962772 
L 119.338334 279.962772 
L 119.338334 276.190363 
L 122.114544 276.190363 
L 122.114544 272.417954 
L 132.700754 272.417954 
L 132.700754 268.645545 
L 148.457972 268.645545 
L 148.457972 264.873135 
L 157.288931 264.873135 
L 157.288931 261.100726 
L 173.150535 261.100726 
L 173.150535 257.328317 
L 178.345569 257.328317 
L 178.345569 253.555908 
L 200.290887 253.555908 
L 200.290887 249.783498 
L 203.653363 249.783498 
L 203.656457 242.23868 
L 205.103086 242.23868 
L 205.103086 238.466271 
L 205.21713 238.466271 
L 205.21713 234.693861 
L 205.676238 234.693861 
L 205.676238 230.921452 
L 205.870075 230.921452 
L 205.870075 227.149043 
L 206.285234 227.149043 
L 206.285234 223.376634 
L 207.517544 223.376634 
L 207.517544 219.604224 
L 208.08911 219.604224 
L 208.08911 215.831815 
L 208.628721 215.831815 
L 208.628721 212.059406 
L 208.875411 212.059406 
L 208.875411 208.286997 
L 209.129905 208.286997 
L 209.129905 204.514587 
L 209.242524 204.514587 
L 209.242524 200.742178 
L 209.360885 200.742178 
L 209.360885 196.969769 
L 210.052806 196.969769 
L 210.052806 193.19736 
L 210.299145 193.19736 
L 210.299145 189.42495 
L 210.79797 189.42495 
L 210.79797 185.652541 
L 210.969774 185.652541 
L 210.969774 181.880132 
L 211.101352 181.880132 
L 211.142938 174.335314 
L 211.318138 174.335314 
L 211.400849 166.790495 
L 211.767839 166.790495 
L 211.767839 163.018086 
L 211.927681 163.018086 
L 211.996486 151.700858 
L 212.079449 151.700858 
L 212.079449 147.928449 
L 212.205626 147.928449 
L 212.205626 144.15604 
L 212.605626 144.15604 
L 212.611965 136.611221 
L 212.866732 136.611221 
L 212.911808 129.066403 
L 212.989865 129.066403 
L 212.989865 125.293993 
L 213.526749 125.293993 
L 213.526749 121.521584 
L 214.272387 121.521584 
L 214.272387 117.749175 
L 214.547406 117.749175 
L 214.547406 113.976766 
L 214.871343 113.976766 
L 214.920628 106.431947 
L 215.026462 106.431947 
L 215.026462 102.659538 
L 215.883575 102.659538 
L 215.883575 98.887129 
L 216.594481 98.887129 
L 216.594481 95.114719 
L 217.587542 95.114719 
L 217.590752 87.569901 
L 218.11489 87.569901 
L 218.194445 80.025083 
L 223.322496 80.025083 
L 223.322496 76.252673 
L 224.677775 76.252673 
L 224.677775 72.480264 
L 225.464623 72.480264 
L 225.464623 68.707855 
L 226.909188 68.707855 
L 226.909188 64.935446 
L 231.195718 64.935446 
L 231.195718 61.163036 
L 235.343338 61.163036 
L 235.343338 57.390627 
L 235.927916 57.390627 
L 235.927916 53.618218 
L 236.254852 53.618218 
L 236.254852 49.845809 
L 236.602491 49.845809 
L 236.602491 46.073399 
L 236.742434 46.073399 
L 236.742434 42.30099 
L 236.916106 42.30099 
L 236.916106 38.528581 
L 237.618472 38.528581 
L 237.618472 34.756172 
L 238.074531 34.756172 
L 238.074531 30.983762 
L 238.481998 30.983762 
L 238.518808 23.438944 
L 238.995712 23.438944 
L 238.995712 19.666535 
L 239.513165 19.666535 
L 239.513165 15.894125 
L 240.125007 15.894125 
L 240.125007 12.121716 
L 240.263601 12.121716 
L 240.263601 8.349307 
L 240.263601 8.349307 
L 450.672 8.349307 
L 450.672 8.349307 
" style="fill:none;stroke:#ff0000;stroke-linecap:square;stroke-width:3;"/>
   </g>
   <g id="line2d_24">
    <path clip-path="url(#p625736610e)" d="M 227.324253 291.28 
L 227.324253 287.507591 
L 228.823289 287.507591 
L 228.823289 283.735182 
L 230.488293 283.735182 
L 230.488293 279.962772 
L 232.62204 279.962772 
L 232.62204 276.190363 
L 234.984696 276.190363 
L 234.984696 272.417954 
L 235.144612 272.417954 
L 235.144612 268.645545 
L 235.594462 268.645545 
L 235.594462 264.873135 
L 236.496105 264.873135 
L 236.496105 261.100726 
L 237.038712 261.100726 
L 237.038712 257.328317 
L 238.76501 257.328317 
L 238.76501 253.555908 
L 238.981596 253.555908 
L 238.981596 249.783498 
L 239.433353 249.783498 
L 239.433353 246.011089 
L 240.406359 246.011089 
L 240.406359 242.23868 
L 240.536255 242.23868 
L 240.536255 238.466271 
L 241.602081 238.466271 
L 241.602081 234.693861 
L 241.801759 234.693861 
L 241.801759 230.921452 
L 242.492711 230.921452 
L 242.492711 227.149043 
L 242.834797 227.149043 
L 242.834797 223.376634 
L 243.096304 223.376634 
L 243.096304 219.604224 
L 244.2719 219.604224 
L 244.2719 215.831815 
L 244.650546 215.831815 
L 244.650546 212.059406 
L 245.440537 212.059406 
L 245.440537 208.286997 
L 245.685586 208.286997 
L 245.685586 204.514587 
L 246.309184 204.514587 
L 246.400356 196.969769 
L 247.108934 196.969769 
L 247.108934 193.19736 
L 247.94178 193.19736 
L 247.94178 189.42495 
L 249.46398 189.42495 
L 249.46398 185.652541 
L 250.632251 185.652541 
L 250.632251 181.880132 
L 250.876466 181.880132 
L 250.876466 178.107723 
L 251.45718 178.107723 
L 251.45718 174.335314 
L 252.630791 174.335314 
L 252.630791 170.562904 
L 252.993398 170.562904 
L 252.993398 166.790495 
L 253.229655 166.790495 
L 253.229655 163.018086 
L 253.361809 163.018086 
L 253.401145 155.473267 
L 253.563963 155.473267 
L 253.661987 147.928449 
L 253.935404 147.928449 
L 253.935404 144.15604 
L 254.319767 144.15604 
L 254.319767 140.38363 
L 254.451755 140.38363 
L 254.522454 129.066403 
L 254.836386 129.066403 
L 254.936975 121.521584 
L 256.630192 121.521584 
L 256.630192 117.749175 
L 257.44578 117.749175 
L 257.45208 110.204356 
L 257.624836 110.204356 
L 257.624836 106.431947 
L 257.975345 106.431947 
L 257.975345 102.659538 
L 258.17072 102.659538 
L 258.17072 98.887129 
L 258.867921 98.887129 
L 258.936506 91.34231 
L 259.669514 91.34231 
L 259.669514 87.569901 
L 260.639683 87.569901 
L 260.639683 83.797492 
L 262.051147 83.797492 
L 262.051147 80.025083 
L 262.202984 80.025083 
L 262.202984 76.252673 
L 262.335819 76.252673 
L 262.361592 68.707855 
L 263.442081 68.707855 
L 263.442081 64.935446 
L 279.736919 64.935446 
L 279.736919 61.163036 
L 292.703204 61.163036 
L 292.703204 57.390627 
L 293.054257 57.390627 
L 293.054257 53.618218 
L 297.820481 53.618218 
L 297.820481 49.845809 
L 302.681797 49.845809 
L 302.718794 42.30099 
L 308.066672 42.30099 
L 308.066672 38.528581 
L 315.284967 38.528581 
L 315.284967 34.756172 
L 316.965068 34.756172 
L 316.965068 30.983762 
L 318.193243 30.983762 
L 318.193243 27.211353 
L 318.922833 27.211353 
L 318.922833 23.438944 
L 319.323587 23.438944 
L 319.323587 19.666535 
L 320.476292 19.666535 
L 320.476292 15.894125 
L 323.527476 15.894125 
L 323.527476 12.121716 
L 325.633755 12.121716 
L 325.633755 8.349307 
L 325.633755 8.349307 
L 450.672 8.349307 
L 450.672 8.349307 
" style="fill:none;stroke:#00bfbf;stroke-linecap:square;stroke-width:1.5;"/>
   </g>
   <g id="line2d_25">
    <path clip-path="url(#p625736610e)" d="M 225.570286 291.28 
L 225.570286 287.507591 
L 227.324253 287.507591 
L 227.324253 283.735182 
L 227.79918 283.735182 
L 227.79918 279.962772 
L 228.823289 279.962772 
L 228.823289 276.190363 
L 229.301246 276.190363 
L 229.301246 272.417954 
L 229.454554 272.417954 
L 229.454554 268.645545 
L 230.488293 268.645545 
L 230.488293 264.873135 
L 231.020633 264.873135 
L 231.020633 261.100726 
L 231.342837 261.100726 
L 231.342837 257.328317 
L 231.457932 257.328317 
L 231.457932 253.555908 
L 232.077176 253.555908 
L 232.077176 249.783498 
L 232.62204 249.783498 
L 232.62204 246.011089 
L 234.749168 246.011089 
L 234.749168 242.23868 
L 234.97852 242.23868 
L 234.97852 238.466271 
L 235.144612 238.466271 
L 235.144612 234.693861 
L 236.204406 234.693861 
L 236.204406 230.921452 
L 236.496105 230.921452 
L 236.496105 227.149043 
L 237.038712 227.149043 
L 237.038712 223.376634 
L 237.546872 223.376634 
L 237.546872 219.604224 
L 238.981596 219.604224 
L 238.981596 215.831815 
L 239.461838 215.831815 
L 239.461838 212.059406 
L 241.135787 212.059406 
L 241.135787 208.286997 
L 241.602081 208.286997 
L 241.602081 204.514587 
L 241.801759 204.514587 
L 241.801759 200.742178 
L 242.492711 200.742178 
L 242.492711 196.969769 
L 243.096304 196.969769 
L 243.096304 193.19736 
L 243.392337 193.19736 
L 243.392337 189.42495 
L 243.739132 189.42495 
L 243.739132 185.652541 
L 245.174384 185.652541 
L 245.174384 181.880132 
L 245.685586 181.880132 
L 245.744072 174.335314 
L 246.400356 174.335314 
L 246.400356 170.562904 
L 247.108934 170.562904 
L 247.108934 166.790495 
L 247.426277 166.790495 
L 247.426277 163.018086 
L 247.659304 163.018086 
L 247.659304 159.245677 
L 248.394623 159.245677 
L 248.394623 155.473267 
L 249.365353 155.473267 
L 249.46398 147.928449 
L 249.626521 147.928449 
L 249.626521 144.15604 
L 250.10888 144.15604 
L 250.10888 140.38363 
L 250.280275 140.38363 
L 250.280275 136.611221 
L 250.876466 136.611221 
L 250.913822 129.066403 
L 251.331892 129.066403 
L 251.331892 125.293993 
L 252.455246 125.293993 
L 252.455246 121.521584 
L 252.684924 121.521584 
L 252.684924 117.749175 
L 253.401145 117.749175 
L 253.474189 106.431947 
L 253.661987 106.431947 
L 253.661987 102.659538 
L 253.778622 102.659538 
L 253.778622 98.887129 
L 254.15902 98.887129 
L 254.15902 95.114719 
L 254.297237 95.114719 
L 254.366335 83.797492 
L 254.478715 83.797492 
L 254.490342 76.252673 
L 254.70014 76.252673 
L 254.70014 72.480264 
L 254.985762 72.480264 
L 254.985762 68.707855 
L 255.169488 68.707855 
L 255.169488 64.935446 
L 257.204721 64.935446 
L 257.204721 61.163036 
L 258.310376 61.163036 
L 258.310376 57.390627 
L 279.736919 57.390627 
L 279.736919 53.618218 
L 281.243913 53.618218 
L 281.243913 49.845809 
L 286.841947 49.845809 
L 286.841947 46.073399 
L 292.703204 46.073399 
L 292.703204 42.30099 
L 293.054257 42.30099 
L 293.054257 38.528581 
L 296.649757 38.528581 
L 296.649757 34.756172 
L 299.916025 34.756172 
L 299.916025 30.983762 
L 300.853936 30.983762 
L 300.853936 27.211353 
L 301.938183 27.211353 
L 301.938183 23.438944 
L 305.929193 23.438944 
L 305.979693 15.894125 
L 308.456332 15.894125 
L 308.456332 12.121716 
L 308.771376 12.121716 
L 308.771376 8.349307 
L 308.771376 8.349307 
L 450.672 8.349307 
L 450.672 8.349307 
" style="fill:none;stroke:#bf00bf;stroke-linecap:square;stroke-width:1.5;"/>
   </g>
   <g id="line2d_26">
    <path clip-path="url(#p625736610e)" d="M 221.190251 291.28 
L 221.190251 287.507591 
L 225.474466 287.507591 
L 225.570286 279.962772 
L 227.324253 279.962772 
L 227.324253 276.190363 
L 227.79918 276.190363 
L 227.79918 272.417954 
L 228.212016 272.417954 
L 228.313101 264.873135 
L 229.301246 264.873135 
L 229.301246 261.100726 
L 229.454554 261.100726 
L 229.454554 257.328317 
L 229.586579 257.328317 
L 229.586579 253.555908 
L 230.488293 253.555908 
L 230.488293 249.783498 
L 231.020633 249.783498 
L 231.020633 246.011089 
L 231.342837 246.011089 
L 231.43542 238.466271 
L 231.457932 238.466271 
L 231.457932 234.693861 
L 232.077176 234.693861 
L 232.077176 230.921452 
L 232.32978 230.921452 
L 232.32978 227.149043 
L 232.62204 227.149043 
L 232.62204 223.376634 
L 233.25504 223.376634 
L 233.25504 219.604224 
L 234.397565 219.604224 
L 234.397565 215.831815 
L 234.97852 215.831815 
L 234.97852 212.059406 
L 237.460052 212.059406 
L 237.546872 204.514587 
L 238.446985 204.514587 
L 238.446985 200.742178 
L 238.827493 200.742178 
L 238.827493 196.969769 
L 238.981596 196.969769 
L 238.981596 193.19736 
L 240.307211 193.19736 
L 240.307211 189.42495 
L 240.480944 189.42495 
L 240.480944 185.652541 
L 241.202116 185.652541 
L 241.267513 178.107723 
L 241.602081 178.107723 
L 241.602081 174.335314 
L 241.801759 174.335314 
L 241.851735 166.790495 
L 242.075831 166.790495 
L 242.075831 163.018086 
L 242.418097 163.018086 
L 242.418097 159.245677 
L 243.392337 159.245677 
L 243.392337 155.473267 
L 243.739132 155.473267 
L 243.739132 151.700858 
L 244.241543 151.700858 
L 244.241543 147.928449 
L 245.278979 147.928449 
L 245.278979 144.15604 
L 245.478321 144.15604 
L 245.478321 140.38363 
L 246.400356 140.38363 
L 246.400356 136.611221 
L 247.108934 136.611221 
L 247.108934 132.838812 
L 248.394623 132.838812 
L 248.394623 129.066403 
L 249.46398 129.066403 
L 249.46398 125.293993 
L 249.626521 125.293993 
L 249.735843 113.976766 
L 250.557285 113.976766 
L 250.557285 110.204356 
L 250.895269 110.204356 
L 250.913822 102.659538 
L 251.331892 102.659538 
L 251.331892 98.887129 
L 251.584777 98.887129 
L 251.584777 95.114719 
L 252.455246 95.114719 
L 252.455246 91.34231 
L 252.676587 91.34231 
L 252.684924 83.797492 
L 253.0476 83.797492 
L 253.0476 80.025083 
L 253.31526 80.025083 
L 253.31526 76.252673 
L 254.025589 76.252673 
L 254.025589 72.480264 
L 254.141206 72.480264 
L 254.141206 68.707855 
L 254.297237 68.707855 
L 254.297237 64.935446 
L 254.490342 64.935446 
L 254.490342 61.163036 
L 254.800165 61.163036 
L 254.800165 57.390627 
L 255.109798 57.390627 
L 255.109798 53.618218 
L 276.386251 53.618218 
L 276.386251 49.845809 
L 279.736919 49.845809 
L 279.736919 46.073399 
L 281.243913 46.073399 
L 281.243913 42.30099 
L 285.045501 42.30099 
L 285.045501 38.528581 
L 286.841947 38.528581 
L 286.841947 34.756172 
L 289.590973 34.756172 
L 289.590973 30.983762 
L 292.703204 30.983762 
L 292.703204 27.211353 
L 293.054257 27.211353 
L 293.054257 23.438944 
L 295.362487 23.438944 
L 295.362487 19.666535 
L 296.649757 19.666535 
L 296.649757 15.894125 
L 298.42158 15.894125 
L 298.42158 12.121716 
L 299.916025 12.121716 
L 299.916025 8.349307 
L 299.916025 8.349307 
L 450.672 8.349307 
L 450.672 8.349307 
" style="fill:none;stroke:#000000;stroke-linecap:square;stroke-width:1.5;"/>
   </g>
   <g id="line2d_27">
    <path clip-path="url(#p625736610e)" d="M 215.355485 291.28 
L 215.355485 287.507591 
L 220.112802 287.507591 
L 220.112802 283.735182 
L 220.377474 283.735182 
L 220.377474 279.962772 
L 220.824706 279.962772 
L 220.824706 276.190363 
L 221.133846 276.190363 
L 221.133846 272.417954 
L 221.627669 272.417954 
L 221.627669 268.645545 
L 222.234126 268.645545 
L 222.234126 264.873135 
L 223.008984 264.873135 
L 223.095662 253.555908 
L 223.173487 253.555908 
L 223.173487 249.783498 
L 224.336495 249.783498 
L 224.336495 246.011089 
L 224.827329 246.011089 
L 224.827329 242.23868 
L 225.121977 242.23868 
L 225.121977 238.466271 
L 225.570286 238.466271 
L 225.570286 234.693861 
L 225.831332 234.693861 
L 225.831332 230.921452 
L 226.017619 230.921452 
L 226.092566 223.376634 
L 226.457849 223.376634 
L 226.457849 219.604224 
L 227.546263 219.604224 
L 227.546263 215.831815 
L 228.313101 215.831815 
L 228.313101 212.059406 
L 229.473965 212.059406 
L 229.473965 208.286997 
L 230.886534 208.286997 
L 230.974784 200.742178 
L 231.71805 200.742178 
L 231.71805 196.969769 
L 232.830873 196.969769 
L 232.830873 193.19736 
L 234.431498 193.19736 
L 234.431498 189.42495 
L 235.238197 189.42495 
L 235.238197 185.652541 
L 235.800026 185.652541 
L 235.846119 178.107723 
L 236.248963 178.107723 
L 236.248963 174.335314 
L 236.372303 174.335314 
L 236.372303 170.562904 
L 236.586788 170.562904 
L 236.586788 166.790495 
L 236.770494 166.790495 
L 236.819982 159.245677 
L 237.854284 159.245677 
L 237.854284 155.473267 
L 238.621614 155.473267 
L 238.621614 151.700858 
L 239.148496 151.700858 
L 239.148496 147.928449 
L 239.413126 147.928449 
L 239.413126 144.15604 
L 239.532193 144.15604 
L 239.532193 140.38363 
L 240.718942 140.38363 
L 240.755495 132.838812 
L 240.958057 132.838812 
L 240.958057 129.066403 
L 241.4302 129.066403 
L 241.4302 125.293993 
L 241.731054 125.293993 
L 241.731054 121.521584 
L 241.929827 121.521584 
L 241.929827 117.749175 
L 242.875707 117.749175 
L 242.875707 113.976766 
L 243.670909 113.976766 
L 243.770546 102.659538 
L 244.659869 102.659538 
L 244.659869 98.887129 
L 244.998131 98.887129 
L 244.998131 95.114719 
L 245.477608 95.114719 
L 245.477608 91.34231 
L 245.662659 91.34231 
L 245.662659 87.569901 
L 246.454173 87.569901 
L 246.454173 83.797492 
L 247.288398 83.797492 
L 247.288398 80.025083 
L 247.432656 80.025083 
L 247.432656 76.252673 
L 247.655417 76.252673 
L 247.741651 68.707855 
L 247.950602 68.707855 
L 247.950602 64.935446 
L 248.163383 64.935446 
L 248.163383 61.163036 
L 248.301358 61.163036 
L 248.406358 53.618218 
L 248.811789 53.618218 
L 248.817498 46.073399 
L 249.743365 46.073399 
L 249.743365 42.30099 
L 251.322812 42.30099 
L 251.322812 38.528581 
L 251.592928 38.528581 
L 251.592928 34.756172 
L 256.777485 34.756172 
L 256.777485 30.983762 
L 257.809646 30.983762 
L 257.809646 27.211353 
L 259.345966 27.211353 
L 259.345966 23.438944 
L 265.665272 23.438944 
L 265.665272 19.666535 
L 268.985294 19.666535 
L 268.985294 15.894125 
L 292.940951 15.894125 
L 292.940951 12.121716 
L 295.381323 12.121716 
L 295.381323 8.349307 
L 295.381323 8.349307 
L 450.672 8.349307 
L 450.672 8.349307 
" style="fill:none;stroke:#00bfbf;stroke-linecap:square;stroke-width:1.5;"/>
   </g>
   <g id="line2d_28">
    <path clip-path="url(#p625736610e)" d="M 179.542298 291.28 
L 179.542298 287.507591 
L 211.685307 287.507591 
L 211.685307 283.735182 
L 212.323149 283.735182 
L 212.323149 279.962772 
L 213.058841 279.962772 
L 213.058841 276.190363 
L 213.785975 276.190363 
L 213.785975 272.417954 
L 214.179541 272.417954 
L 214.272387 264.873135 
L 214.373282 264.873135 
L 214.373282 261.100726 
L 214.492912 261.100726 
L 214.492912 257.328317 
L 214.871343 257.328317 
L 214.871343 253.555908 
L 215.123232 253.555908 
L 215.123232 249.783498 
L 215.393269 249.783498 
L 215.408926 242.23868 
L 216.129694 242.23868 
L 216.129694 238.466271 
L 216.392695 238.466271 
L 216.392695 234.693861 
L 216.838853 234.693861 
L 216.838853 230.921452 
L 217.196795 230.921452 
L 217.200089 223.376634 
L 217.507052 223.376634 
L 217.507052 219.604224 
L 217.723976 219.604224 
L 217.723976 215.831815 
L 217.995864 215.831815 
L 217.995864 212.059406 
L 218.51249 212.059406 
L 218.526603 204.514587 
L 218.795566 204.514587 
L 218.901404 196.969769 
L 219.030042 196.969769 
L 219.030042 193.19736 
L 219.440716 193.19736 
L 219.445726 185.652541 
L 219.712049 185.652541 
L 219.712049 181.880132 
L 220.058184 181.880132 
L 220.112802 174.335314 
L 220.231115 174.335314 
L 220.260112 166.790495 
L 220.366675 166.790495 
L 220.366675 163.018086 
L 220.620795 163.018086 
L 220.620795 159.245677 
L 222.093209 159.245677 
L 222.093209 155.473267 
L 223.082094 155.473267 
L 223.082094 151.700858 
L 224.599171 151.700858 
L 224.599171 147.928449 
L 225.328453 147.928449 
L 225.328453 144.15604 
L 226.393202 144.15604 
L 226.409374 136.611221 
L 227.251372 136.611221 
L 227.251372 132.838812 
L 228.751096 132.838812 
L 228.751096 129.066403 
L 229.601434 129.066403 
L 229.601434 125.293993 
L 229.882319 125.293993 
L 229.987498 110.204356 
L 230.198522 110.204356 
L 230.198522 106.431947 
L 231.12127 106.431947 
L 231.12127 102.659538 
L 231.592826 102.659538 
L 231.592826 98.887129 
L 231.782866 98.887129 
L 231.782866 95.114719 
L 232.375495 95.114719 
L 232.375495 91.34231 
L 233.507594 91.34231 
L 233.507594 87.569901 
L 233.934869 87.569901 
L 233.934869 83.797492 
L 234.767761 83.797492 
L 234.767761 80.025083 
L 235.445037 80.025083 
L 235.445037 76.252673 
L 235.97429 76.252673 
L 235.97429 72.480264 
L 236.197039 72.480264 
L 236.197039 68.707855 
L 240.301416 68.707855 
L 240.301416 64.935446 
L 242.17064 64.935446 
L 242.17064 61.163036 
L 242.523145 61.163036 
L 242.575173 53.618218 
L 243.215457 53.618218 
L 243.215457 49.845809 
L 243.426825 49.845809 
L 243.426825 46.073399 
L 243.599842 46.073399 
L 243.599842 42.30099 
L 243.749198 42.30099 
L 243.749198 38.528581 
L 243.969121 38.528581 
L 243.969121 34.756172 
L 245.204537 34.756172 
L 245.229198 27.211353 
L 245.376438 27.211353 
L 245.376438 23.438944 
L 245.568592 23.438944 
L 245.589792 15.894125 
L 246.438424 15.894125 
L 246.438424 12.121716 
L 281.087386 12.121716 
L 281.087386 8.349307 
L 281.087386 8.349307 
L 450.672 8.349307 
L 450.672 8.349307 
" style="fill:none;stroke:#bf00bf;stroke-linecap:square;stroke-width:1.5;"/>
   </g>
   <g id="line2d_29">
    <path clip-path="url(#p625736610e)" d="M 64.151381 291.28 
L 64.151381 287.507591 
L 93.560028 287.507591 
L 93.560028 283.735182 
L 133.414984 283.735182 
L 133.414984 279.962772 
L 143.913394 279.962772 
L 143.913394 276.190363 
L 145.903569 276.190363 
L 145.903569 272.417954 
L 146.043077 272.417954 
L 146.043077 268.645545 
L 171.935775 268.645545 
L 171.935775 264.873135 
L 178.94695 264.873135 
L 178.94695 261.100726 
L 180.77124 261.100726 
L 180.77124 257.328317 
L 185.95255 257.328317 
L 185.95255 253.555908 
L 200.754306 253.555908 
L 200.754306 249.783498 
L 203.656457 249.783498 
L 203.690256 242.23868 
L 205.103086 242.23868 
L 205.103086 238.466271 
L 205.676238 238.466271 
L 205.676238 234.693861 
L 206.175459 234.693861 
L 206.285234 227.149043 
L 206.673857 227.149043 
L 206.673857 223.376634 
L 207.517544 223.376634 
L 207.517544 219.604224 
L 209.030307 219.604224 
L 209.030307 215.831815 
L 209.242524 215.831815 
L 209.338084 208.286997 
L 210.052806 208.286997 
L 210.052806 204.514587 
L 210.299145 204.514587 
L 210.299145 200.742178 
L 211.101352 200.742178 
L 211.142938 193.19736 
L 211.668859 193.19736 
L 211.668859 189.42495 
L 211.850475 189.42495 
L 211.913924 178.107723 
L 211.969333 178.107723 
L 212.079449 170.562904 
L 212.205626 170.562904 
L 212.205626 166.790495 
L 212.911808 166.790495 
L 212.989865 155.473267 
L 214.000763 155.473267 
L 214.000763 151.700858 
L 214.16563 151.700858 
L 214.272387 140.38363 
L 214.398011 140.38363 
L 214.481593 132.838812 
L 214.613747 132.838812 
L 214.620977 125.293993 
L 214.871343 125.293993 
L 214.871343 121.521584 
L 215.011185 121.521584 
L 215.03672 113.976766 
L 215.234222 113.976766 
L 215.234222 110.204356 
L 215.693754 110.204356 
L 215.693754 106.431947 
L 215.994069 106.431947 
L 215.994069 102.659538 
L 216.759609 102.659538 
L 216.759609 98.887129 
L 217.283302 98.887129 
L 217.283302 95.114719 
L 217.590205 95.114719 
L 217.59953 87.569901 
L 218.169894 87.569901 
L 218.169894 83.797492 
L 218.391653 83.797492 
L 218.391653 80.025083 
L 223.42571 80.025083 
L 223.42571 76.252673 
L 224.702512 76.252673 
L 224.702512 72.480264 
L 225.64167 72.480264 
L 225.64167 68.707855 
L 226.909188 68.707855 
L 226.909188 64.935446 
L 234.767761 64.935446 
L 234.767761 61.163036 
L 235.343338 61.163036 
L 235.343338 57.390627 
L 235.927916 57.390627 
L 235.927916 53.618218 
L 236.254852 53.618218 
L 236.254852 49.845809 
L 236.948078 49.845809 
L 236.948078 46.073399 
L 238.074531 46.073399 
L 238.074531 42.30099 
L 238.211503 42.30099 
L 238.211503 38.528581 
L 238.506523 38.528581 
L 238.506523 34.756172 
L 239.786895 34.756172 
L 239.786895 30.983762 
L 239.905875 30.983762 
L 239.905875 27.211353 
L 240.301416 27.211353 
L 240.301416 23.438944 
L 240.576351 23.438944 
L 240.576351 19.666535 
L 241.38104 19.666535 
L 241.38104 15.894125 
L 242.194411 15.894125 
L 242.194411 12.121716 
L 242.442899 12.121716 
L 242.442899 8.349307 
L 242.442899 8.349307 
L 450.672 8.349307 
L 450.672 8.349307 
" style="fill:none;stroke:#000000;stroke-linecap:square;stroke-width:1.5;"/>
   </g>
   <g id="patch_3">
    <path d="M 5.52 291.28 
L 5.52 5.52 
" style="fill:none;stroke:#000000;stroke-linecap:square;stroke-linejoin:miter;stroke-width:0.8;"/>
   </g>
   <g id="patch_4">
    <path d="M 450.672 291.28 
L 450.672 5.52 
" style="fill:none;stroke:#000000;stroke-linecap:square;stroke-linejoin:miter;stroke-width:0.8;"/>
   </g>
   <g id="patch_5">
    <path d="M 5.52 291.28 
L 450.672 291.28 
" style="fill:none;stroke:#000000;stroke-linecap:square;stroke-linejoin:miter;stroke-width:0.8;"/>
   </g>
   <g id="patch_6">
    <path d="M 5.52 5.52 
L 450.672 5.52 
" style="fill:none;stroke:#000000;stroke-linecap:square;stroke-linejoin:miter;stroke-width:0.8;"/>
   </g>
   <g id="text_6">
    <!-- {f20-f24}, 5-D -->
    <defs>
     <path d="M 51.125 -9.28125 
L 51.125 -16.3125 
L 48.09375 -16.3125 
Q 35.9375 -16.3125 31.8125 -12.6875 
Q 27.6875 -9.078125 27.6875 1.703125 
L 27.6875 13.375 
Q 27.6875 20.75 25.046875 23.578125 
Q 22.40625 26.421875 15.484375 26.421875 
L 12.5 26.421875 
L 12.5 33.40625 
L 15.484375 33.40625 
Q 22.46875 33.40625 25.078125 36.203125 
Q 27.6875 39.015625 27.6875 46.296875 
L 27.6875 58.015625 
Q 27.6875 68.796875 31.8125 72.390625 
Q 35.9375 75.984375 48.09375 75.984375 
L 51.125 75.984375 
L 51.125 69 
L 47.796875 69 
Q 40.921875 69 38.8125 66.84375 
Q 36.71875 64.703125 36.71875 57.8125 
L 36.71875 45.703125 
Q 36.71875 38.03125 34.5 34.5625 
Q 32.28125 31.109375 26.90625 29.890625 
Q 32.328125 28.5625 34.515625 25.09375 
Q 36.71875 21.625 36.71875 14.015625 
L 36.71875 1.90625 
Q 36.71875 -4.984375 38.8125 -7.125 
Q 40.921875 -9.28125 47.796875 -9.28125 
z
" id="DejaVuSans-7b"/>
     <path d="M 19.1875 8.296875 
L 53.609375 8.296875 
L 53.609375 0 
L 7.328125 0 
L 7.328125 8.296875 
Q 12.9375 14.109375 22.625 23.890625 
Q 32.328125 33.6875 34.8125 36.53125 
Q 39.546875 41.84375 41.421875 45.53125 
Q 43.3125 49.21875 43.3125 52.78125 
Q 43.3125 58.59375 39.234375 62.25 
Q 35.15625 65.921875 28.609375 65.921875 
Q 23.96875 65.921875 18.8125 64.3125 
Q 13.671875 62.703125 7.8125 59.421875 
L 7.8125 69.390625 
Q 13.765625 71.78125 18.9375 73 
Q 24.125 74.21875 28.421875 74.21875 
Q 39.75 74.21875 46.484375 68.546875 
Q 53.21875 62.890625 53.21875 53.421875 
Q 53.21875 48.921875 51.53125 44.890625 
Q 49.859375 40.875 45.40625 35.40625 
Q 44.1875 33.984375 37.640625 27.21875 
Q 31.109375 20.453125 19.1875 8.296875 
z
" id="DejaVuSans-32"/>
     <path d="M 12.5 -9.28125 
L 15.921875 -9.28125 
Q 22.75 -9.28125 24.828125 -7.171875 
Q 26.90625 -5.078125 26.90625 1.90625 
L 26.90625 14.015625 
Q 26.90625 21.625 29.09375 25.09375 
Q 31.296875 28.5625 36.71875 29.890625 
Q 31.296875 31.109375 29.09375 34.5625 
Q 26.90625 38.03125 26.90625 45.703125 
L 26.90625 57.8125 
Q 26.90625 64.75 24.828125 66.875 
Q 22.75 69 15.921875 69 
L 12.5 69 
L 12.5 75.984375 
L 15.578125 75.984375 
Q 27.734375 75.984375 31.8125 72.390625 
Q 35.890625 68.796875 35.890625 58.015625 
L 35.890625 46.296875 
Q 35.890625 39.015625 38.515625 36.203125 
Q 41.15625 33.40625 48.09375 33.40625 
L 51.125 33.40625 
L 51.125 26.421875 
L 48.09375 26.421875 
Q 41.15625 26.421875 38.515625 23.578125 
Q 35.890625 20.75 35.890625 13.375 
L 35.890625 1.703125 
Q 35.890625 -9.078125 31.8125 -12.6875 
Q 27.734375 -16.3125 15.578125 -16.3125 
L 12.5 -16.3125 
z
" id="DejaVuSans-7d"/>
     <path d="M 11.71875 12.40625 
L 22.015625 12.40625 
L 22.015625 4 
L 14.015625 -11.625 
L 7.71875 -11.625 
L 11.71875 4 
z
" id="DejaVuSans-2c"/>
     <path d="M 10.796875 72.90625 
L 49.515625 72.90625 
L 49.515625 64.59375 
L 19.828125 64.59375 
L 19.828125 46.734375 
Q 21.96875 47.46875 24.109375 47.828125 
Q 26.265625 48.1875 28.421875 48.1875 
Q 40.625 48.1875 47.75 41.5 
Q 54.890625 34.8125 54.890625 23.390625 
Q 54.890625 11.625 47.5625 5.09375 
Q 40.234375 -1.421875 26.90625 -1.421875 
Q 22.3125 -1.421875 17.546875 -0.640625 
Q 12.796875 0.140625 7.71875 1.703125 
L 7.71875 11.625 
Q 12.109375 9.234375 16.796875 8.0625 
Q 21.484375 6.890625 26.703125 6.890625 
Q 35.15625 6.890625 40.078125 11.328125 
Q 45.015625 15.765625 45.015625 23.390625 
Q 45.015625 31 40.078125 35.4375 
Q 35.15625 39.890625 26.703125 39.890625 
Q 22.75 39.890625 18.8125 39.015625 
Q 14.890625 38.140625 10.796875 36.28125 
z
" id="DejaVuSans-35"/>
    </defs>
    <g transform="translate(296.06896 285.5648)scale(0.2 -0.2)">
     <use xlink:href="#DejaVuSans-7b"/>
     <use x="63.623047" xlink:href="#DejaVuSans-66"/>
     <use x="98.828125" xlink:href="#DejaVuSans-32"/>
     <use x="162.451172" xlink:href="#DejaVuSans-30"/>
     <use x="226.074219" xlink:href="#DejaVuSans-2d"/>
     <use x="262.158203" xlink:href="#DejaVuSans-66"/>
     <use x="297.363281" xlink:href="#DejaVuSans-32"/>
     <use x="360.986328" xlink:href="#DejaVuSans-34"/>
     <use x="424.609375" xlink:href="#DejaVuSans-7d"/>
     <use x="488.232422" xlink:href="#DejaVuSans-2c"/>
     <use x="520.019531" xlink:href="#DejaVuSans-20"/>
     <use x="551.806641" xlink:href="#DejaVuSans-35"/>
     <use x="615.429688" xlink:href="#DejaVuSans-2d"/>
     <use x="651.513672" xlink:href="#DejaVuSans-44"/>
    </g>
   </g>
   <g id="text_7">
    <!-- v2.2.1.10 -->
    <defs>
     <path d="M 2.984375 54.6875 
L 12.5 54.6875 
L 29.59375 8.796875 
L 46.6875 54.6875 
L 56.203125 54.6875 
L 35.6875 0 
L 23.484375 0 
z
" id="DejaVuSans-76"/>
     <path d="M 10.6875 12.40625 
L 21 12.40625 
L 21 0 
L 10.6875 0 
z
" id="DejaVuSans-2e"/>
    </defs>
    <g style="fill:#808080;" transform="translate(204.463188 286.342713)scale(0.1 -0.1)">
     <use xlink:href="#DejaVuSans-76"/>
     <use x="59.179688" xlink:href="#DejaVuSans-32"/>
     <use x="122.802734" xlink:href="#DejaVuSans-2e"/>
     <use x="154.589844" xlink:href="#DejaVuSans-32"/>
     <use x="218.212891" xlink:href="#DejaVuSans-2e"/>
     <use x="250" xlink:href="#DejaVuSans-31"/>
     <use x="313.623047" xlink:href="#DejaVuSans-2e"/>
     <use x="345.410156" xlink:href="#DejaVuSans-31"/>
     <use x="409.033203" xlink:href="#DejaVuSans-30"/>
    </g>
   </g>
  </g>
 </g>
 <defs>
  <clipPath id="p625736610e">
   <rect height="285.76" width="445.152" x="5.52" y="5.52"/>
  </clipPath>
 </defs>
</svg>
