<?xml version="1.0" encoding="utf-8" standalone="no"?>
<!DOCTYPE svg PUBLIC "-//W3C//DTD SVG 1.1//EN"
  "http://www.w3.org/Graphics/SVG/1.1/DTD/svg11.dtd">
<!-- Created with matplotlib (http://matplotlib.org/) -->
<svg height="345.6pt" version="1.1" viewBox="0 0 460.8 345.6" width="460.8pt" xmlns="http://www.w3.org/2000/svg" xmlns:xlink="http://www.w3.org/1999/xlink">
 <defs>
  <style type="text/css">
*{stroke-linecap:butt;stroke-linejoin:round;}
  </style>
 </defs>
 <g id="figure_1">
  <g id="patch_1">
   <path d="M 0 345.6 
L 460.8 345.6 
L 460.8 0 
L 0 0 
z
" style="fill:#ffffff;"/>
  </g>
  <g id="axes_1">
   <g id="patch_2">
    <path d="M 5.52 291.28 
L 450.672 291.28 
L 450.672 5.52 
L 5.52 5.52 
z
" style="fill:#ffffff;"/>
   </g>
   <g id="matplotlib.axis_1">
    <g id="xtick_1">
     <g id="line2d_1">
      <path clip-path="url(#pf0a3a596cd)" d="M 5.410763 291.28 
L 5.410763 5.52 
" style="fill:none;stroke:#b0b0b0;stroke-linecap:square;stroke-width:0.8;"/>
     </g>
     <g id="line2d_2">
      <defs>
       <path d="M 0 0 
L 0 3.5 
" id="m93146c4b6d" style="stroke:#000000;stroke-width:0.8;"/>
      </defs>
      <g>
       <use style="stroke:#000000;stroke-width:0.8;" x="5.410763" xlink:href="#m93146c4b6d" y="291.28"/>
      </g>
     </g>
    </g>
    <g id="xtick_2">
     <g id="line2d_3">
      <path clip-path="url(#pf0a3a596cd)" d="M 106.523788 291.28 
L 106.523788 5.52 
" style="fill:none;stroke:#b0b0b0;stroke-linecap:square;stroke-width:0.8;"/>
     </g>
     <g id="line2d_4">
      <g>
       <use style="stroke:#000000;stroke-width:0.8;" x="106.523788" xlink:href="#m93146c4b6d" y="291.28"/>
      </g>
     </g>
     <g id="text_1">
      <!-- -4 -->
      <defs>
       <path d="M 4.890625 31.390625 
L 31.203125 31.390625 
L 31.203125 23.390625 
L 4.890625 23.390625 
z
" id="DejaVuSans-2d"/>
       <path d="M 37.796875 64.3125 
L 12.890625 25.390625 
L 37.796875 25.390625 
z
M 35.203125 72.90625 
L 47.609375 72.90625 
L 47.609375 25.390625 
L 58.015625 25.390625 
L 58.015625 17.1875 
L 47.609375 17.1875 
L 47.609375 0 
L 37.796875 0 
L 37.796875 17.1875 
L 4.890625 17.1875 
L 4.890625 26.703125 
z
" id="DejaVuSans-34"/>
      </defs>
      <g transform="translate(96.553475 313.476875)scale(0.2 -0.2)">
       <use xlink:href="#DejaVuSans-2d"/>
       <use x="36.083984" xlink:href="#DejaVuSans-34"/>
      </g>
     </g>
    </g>
    <g id="xtick_3">
     <g id="line2d_5">
      <path clip-path="url(#pf0a3a596cd)" d="M 207.636812 291.28 
L 207.636812 5.52 
" style="fill:none;stroke:#b0b0b0;stroke-linecap:square;stroke-width:0.8;"/>
     </g>
     <g id="line2d_6">
      <g>
       <use style="stroke:#000000;stroke-width:0.8;" x="207.636812" xlink:href="#m93146c4b6d" y="291.28"/>
      </g>
     </g>
     <g id="text_2">
      <!-- 0 -->
      <defs>
       <path d="M 31.78125 66.40625 
Q 24.171875 66.40625 20.328125 58.90625 
Q 16.5 51.421875 16.5 36.375 
Q 16.5 21.390625 20.328125 13.890625 
Q 24.171875 6.390625 31.78125 6.390625 
Q 39.453125 6.390625 43.28125 13.890625 
Q 47.125 21.390625 47.125 36.375 
Q 47.125 51.421875 43.28125 58.90625 
Q 39.453125 66.40625 31.78125 66.40625 
z
M 31.78125 74.21875 
Q 44.046875 74.21875 50.515625 64.515625 
Q 56.984375 54.828125 56.984375 36.375 
Q 56.984375 17.96875 50.515625 8.265625 
Q 44.046875 -1.421875 31.78125 -1.421875 
Q 19.53125 -1.421875 13.0625 8.265625 
Q 6.59375 17.96875 6.59375 36.375 
Q 6.59375 54.828125 13.0625 64.515625 
Q 19.53125 74.21875 31.78125 74.21875 
z
" id="DejaVuSans-30"/>
      </defs>
      <g transform="translate(201.274312 313.476875)scale(0.2 -0.2)">
       <use xlink:href="#DejaVuSans-30"/>
      </g>
     </g>
    </g>
    <g id="xtick_4">
     <g id="line2d_7">
      <path clip-path="url(#pf0a3a596cd)" d="M 308.749837 291.28 
L 308.749837 5.52 
" style="fill:none;stroke:#b0b0b0;stroke-linecap:square;stroke-width:0.8;"/>
     </g>
     <g id="line2d_8">
      <g>
       <use style="stroke:#000000;stroke-width:0.8;" x="308.749837" xlink:href="#m93146c4b6d" y="291.28"/>
      </g>
     </g>
     <g id="text_3">
      <!-- 4 -->
      <g transform="translate(302.387337 313.476875)scale(0.2 -0.2)">
       <use xlink:href="#DejaVuSans-34"/>
      </g>
     </g>
    </g>
    <g id="xtick_5">
     <g id="line2d_9">
      <path clip-path="url(#pf0a3a596cd)" d="M 409.862861 291.28 
L 409.862861 5.52 
" style="fill:none;stroke:#b0b0b0;stroke-linecap:square;stroke-width:0.8;"/>
     </g>
     <g id="line2d_10">
      <g>
       <use style="stroke:#000000;stroke-width:0.8;" x="409.862861" xlink:href="#m93146c4b6d" y="291.28"/>
      </g>
     </g>
     <g id="text_4">
      <!-- 8 -->
      <defs>
       <path d="M 31.78125 34.625 
Q 24.75 34.625 20.71875 30.859375 
Q 16.703125 27.09375 16.703125 20.515625 
Q 16.703125 13.921875 20.71875 10.15625 
Q 24.75 6.390625 31.78125 6.390625 
Q 38.8125 6.390625 42.859375 10.171875 
Q 46.921875 13.96875 46.921875 20.515625 
Q 46.921875 27.09375 42.890625 30.859375 
Q 38.875 34.625 31.78125 34.625 
z
M 21.921875 38.8125 
Q 15.578125 40.375 12.03125 44.71875 
Q 8.5 49.078125 8.5 55.328125 
Q 8.5 64.0625 14.71875 69.140625 
Q 20.953125 74.21875 31.78125 74.21875 
Q 42.671875 74.21875 48.875 69.140625 
Q 55.078125 64.0625 55.078125 55.328125 
Q 55.078125 49.078125 51.53125 44.71875 
Q 48 40.375 41.703125 38.8125 
Q 48.828125 37.15625 52.796875 32.3125 
Q 56.78125 27.484375 56.78125 20.515625 
Q 56.78125 9.90625 50.3125 4.234375 
Q 43.84375 -1.421875 31.78125 -1.421875 
Q 19.734375 -1.421875 13.25 4.234375 
Q 6.78125 9.90625 6.78125 20.515625 
Q 6.78125 27.484375 10.78125 32.3125 
Q 14.796875 37.15625 21.921875 38.8125 
z
M 18.3125 54.390625 
Q 18.3125 48.734375 21.84375 45.5625 
Q 25.390625 42.390625 31.78125 42.390625 
Q 38.140625 42.390625 41.71875 45.5625 
Q 45.3125 48.734375 45.3125 54.390625 
Q 45.3125 60.0625 41.71875 63.234375 
Q 38.140625 66.40625 31.78125 66.40625 
Q 25.390625 66.40625 21.84375 63.234375 
Q 18.3125 60.0625 18.3125 54.390625 
z
" id="DejaVuSans-38"/>
      </defs>
      <g transform="translate(403.500361 313.476875)scale(0.2 -0.2)">
       <use xlink:href="#DejaVuSans-38"/>
      </g>
     </g>
    </g>
    <g id="text_5">
     <!-- log10 of Df -->
     <defs>
      <path d="M 9.421875 75.984375 
L 18.40625 75.984375 
L 18.40625 0 
L 9.421875 0 
z
" id="DejaVuSans-6c"/>
      <path d="M 30.609375 48.390625 
Q 23.390625 48.390625 19.1875 42.75 
Q 14.984375 37.109375 14.984375 27.296875 
Q 14.984375 17.484375 19.15625 11.84375 
Q 23.34375 6.203125 30.609375 6.203125 
Q 37.796875 6.203125 41.984375 11.859375 
Q 46.1875 17.53125 46.1875 27.296875 
Q 46.1875 37.015625 41.984375 42.703125 
Q 37.796875 48.390625 30.609375 48.390625 
z
M 30.609375 56 
Q 42.328125 56 49.015625 48.375 
Q 55.71875 40.765625 55.71875 27.296875 
Q 55.71875 13.875 49.015625 6.21875 
Q 42.328125 -1.421875 30.609375 -1.421875 
Q 18.84375 -1.421875 12.171875 6.21875 
Q 5.515625 13.875 5.515625 27.296875 
Q 5.515625 40.765625 12.171875 48.375 
Q 18.84375 56 30.609375 56 
z
" id="DejaVuSans-6f"/>
      <path d="M 45.40625 27.984375 
Q 45.40625 37.75 41.375 43.109375 
Q 37.359375 48.484375 30.078125 48.484375 
Q 22.859375 48.484375 18.828125 43.109375 
Q 14.796875 37.75 14.796875 27.984375 
Q 14.796875 18.265625 18.828125 12.890625 
Q 22.859375 7.515625 30.078125 7.515625 
Q 37.359375 7.515625 41.375 12.890625 
Q 45.40625 18.265625 45.40625 27.984375 
z
M 54.390625 6.78125 
Q 54.390625 -7.171875 48.1875 -13.984375 
Q 42 -20.796875 29.203125 -20.796875 
Q 24.46875 -20.796875 20.265625 -20.09375 
Q 16.0625 -19.390625 12.109375 -17.921875 
L 12.109375 -9.1875 
Q 16.0625 -11.328125 19.921875 -12.34375 
Q 23.78125 -13.375 27.78125 -13.375 
Q 36.625 -13.375 41.015625 -8.765625 
Q 45.40625 -4.15625 45.40625 5.171875 
L 45.40625 9.625 
Q 42.625 4.78125 38.28125 2.390625 
Q 33.9375 0 27.875 0 
Q 17.828125 0 11.671875 7.65625 
Q 5.515625 15.328125 5.515625 27.984375 
Q 5.515625 40.671875 11.671875 48.328125 
Q 17.828125 56 27.875 56 
Q 33.9375 56 38.28125 53.609375 
Q 42.625 51.21875 45.40625 46.390625 
L 45.40625 54.6875 
L 54.390625 54.6875 
z
" id="DejaVuSans-67"/>
      <path d="M 12.40625 8.296875 
L 28.515625 8.296875 
L 28.515625 63.921875 
L 10.984375 60.40625 
L 10.984375 69.390625 
L 28.421875 72.90625 
L 38.28125 72.90625 
L 38.28125 8.296875 
L 54.390625 8.296875 
L 54.390625 0 
L 12.40625 0 
z
" id="DejaVuSans-31"/>
      <path id="DejaVuSans-20"/>
      <path d="M 37.109375 75.984375 
L 37.109375 68.5 
L 28.515625 68.5 
Q 23.6875 68.5 21.796875 66.546875 
Q 19.921875 64.59375 19.921875 59.515625 
L 19.921875 54.6875 
L 34.71875 54.6875 
L 34.71875 47.703125 
L 19.921875 47.703125 
L 19.921875 0 
L 10.890625 0 
L 10.890625 47.703125 
L 2.296875 47.703125 
L 2.296875 54.6875 
L 10.890625 54.6875 
L 10.890625 58.5 
Q 10.890625 67.625 15.140625 71.796875 
Q 19.390625 75.984375 28.609375 75.984375 
z
" id="DejaVuSans-66"/>
      <path d="M 19.671875 64.796875 
L 19.671875 8.109375 
L 31.59375 8.109375 
Q 46.6875 8.109375 53.6875 14.9375 
Q 60.6875 21.78125 60.6875 36.53125 
Q 60.6875 51.171875 53.6875 57.984375 
Q 46.6875 64.796875 31.59375 64.796875 
z
M 9.8125 72.90625 
L 30.078125 72.90625 
Q 51.265625 72.90625 61.171875 64.09375 
Q 71.09375 55.28125 71.09375 36.53125 
Q 71.09375 17.671875 61.125 8.828125 
Q 51.171875 0 30.078125 0 
L 9.8125 0 
z
" id="DejaVuSans-44"/>
     </defs>
     <g transform="translate(172.910063 336.833125)scale(0.2 -0.2)">
      <use xlink:href="#DejaVuSans-6c"/>
      <use x="27.783203" xlink:href="#DejaVuSans-6f"/>
      <use x="88.964844" xlink:href="#DejaVuSans-67"/>
      <use x="152.441406" xlink:href="#DejaVuSans-31"/>
      <use x="216.064453" xlink:href="#DejaVuSans-30"/>
      <use x="279.6875" xlink:href="#DejaVuSans-20"/>
      <use x="311.474609" xlink:href="#DejaVuSans-6f"/>
      <use x="372.65625" xlink:href="#DejaVuSans-66"/>
      <use x="407.861328" xlink:href="#DejaVuSans-20"/>
      <use x="439.648438" xlink:href="#DejaVuSans-44"/>
      <use x="516.650391" xlink:href="#DejaVuSans-66"/>
     </g>
    </g>
   </g>
   <g id="matplotlib.axis_2">
    <g id="ytick_1">
     <g id="line2d_11">
      <path clip-path="url(#pf0a3a596cd)" d="M 5.52 291.28 
L 450.672 291.28 
" style="fill:none;stroke:#b0b0b0;stroke-linecap:square;stroke-width:0.8;"/>
     </g>
     <g id="line2d_12">
      <defs>
       <path d="M 0 0 
L -3.5 0 
" id="m188906f300" style="stroke:#000000;stroke-width:0.8;"/>
      </defs>
      <g>
       <use style="stroke:#000000;stroke-width:0.8;" x="5.52" xlink:href="#m188906f300" y="291.28"/>
      </g>
     </g>
    </g>
    <g id="ytick_2">
     <g id="line2d_13">
      <path clip-path="url(#pf0a3a596cd)" d="M 5.52 234.693861 
L 450.672 234.693861 
" style="fill:none;stroke:#b0b0b0;stroke-linecap:square;stroke-width:0.8;"/>
     </g>
     <g id="line2d_14">
      <g>
       <use style="stroke:#000000;stroke-width:0.8;" x="5.52" xlink:href="#m188906f300" y="234.693861"/>
      </g>
     </g>
    </g>
    <g id="ytick_3">
     <g id="line2d_15">
      <path clip-path="url(#pf0a3a596cd)" d="M 5.52 178.107723 
L 450.672 178.107723 
" style="fill:none;stroke:#b0b0b0;stroke-linecap:square;stroke-width:0.8;"/>
     </g>
     <g id="line2d_16">
      <g>
       <use style="stroke:#000000;stroke-width:0.8;" x="5.52" xlink:href="#m188906f300" y="178.107723"/>
      </g>
     </g>
    </g>
    <g id="ytick_4">
     <g id="line2d_17">
      <path clip-path="url(#pf0a3a596cd)" d="M 5.52 121.521584 
L 450.672 121.521584 
" style="fill:none;stroke:#b0b0b0;stroke-linecap:square;stroke-width:0.8;"/>
     </g>
     <g id="line2d_18">
      <g>
       <use style="stroke:#000000;stroke-width:0.8;" x="5.52" xlink:href="#m188906f300" y="121.521584"/>
      </g>
     </g>
    </g>
    <g id="ytick_5">
     <g id="line2d_19">
      <path clip-path="url(#pf0a3a596cd)" d="M 5.52 64.935446 
L 450.672 64.935446 
" style="fill:none;stroke:#b0b0b0;stroke-linecap:square;stroke-width:0.8;"/>
     </g>
     <g id="line2d_20">
      <g>
       <use style="stroke:#000000;stroke-width:0.8;" x="5.52" xlink:href="#m188906f300" y="64.935446"/>
      </g>
     </g>
    </g>
    <g id="ytick_6">
     <g id="line2d_21">
      <path clip-path="url(#pf0a3a596cd)" d="M 5.52 8.349307 
L 450.672 8.349307 
" style="fill:none;stroke:#b0b0b0;stroke-linecap:square;stroke-width:0.8;"/>
     </g>
     <g id="line2d_22">
      <g>
       <use style="stroke:#000000;stroke-width:0.8;" x="5.52" xlink:href="#m188906f300" y="8.349307"/>
      </g>
     </g>
    </g>
   </g>
   <g id="line2d_23">
    <path clip-path="url(#pf0a3a596cd)" d="M 129.000648 291.28 
L 129.000648 287.507591 
L 137.817106 287.507591 
L 137.817106 283.735182 
L 139.188656 283.735182 
L 139.28533 276.190363 
L 142.58211 276.190363 
L 142.58211 272.417954 
L 143.715954 272.417954 
L 143.715954 268.645545 
L 144.138781 268.645545 
L 144.138781 264.873135 
L 146.711697 264.873135 
L 146.711697 261.100726 
L 147.268895 261.100726 
L 147.268895 257.328317 
L 148.54355 257.328317 
L 148.54355 253.555908 
L 148.788334 253.555908 
L 148.788334 249.783498 
L 149.005499 249.783498 
L 149.005499 246.011089 
L 149.189961 246.011089 
L 149.189961 242.23868 
L 149.823777 242.23868 
L 149.823777 238.466271 
L 153.839554 238.466271 
L 153.839554 234.693861 
L 220.658517 234.693861 
L 220.658517 230.921452 
L 221.491069 230.921452 
L 221.491069 227.149043 
L 225.722682 227.149043 
L 225.73664 219.604224 
L 225.913386 219.604224 
L 225.986091 212.059406 
L 226.52584 212.059406 
L 226.52584 208.286997 
L 226.939263 208.286997 
L 226.939263 204.514587 
L 228.508845 204.514587 
L 228.508845 200.742178 
L 229.347981 200.742178 
L 229.395023 193.19736 
L 229.521403 193.19736 
L 229.521403 189.42495 
L 229.701973 189.42495 
L 229.702103 181.880132 
L 229.903927 181.880132 
L 229.903927 178.107723 
L 230.271628 178.107723 
L 230.271628 174.335314 
L 233.733737 174.335314 
L 233.733737 170.562904 
L 233.956207 170.562904 
L 233.992689 163.018086 
L 234.286928 163.018086 
L 234.286928 159.245677 
L 234.697455 159.245677 
L 234.697455 155.473267 
L 236.183536 155.473267 
L 236.183536 151.700858 
L 238.475175 151.700858 
L 238.475175 147.928449 
L 240.301258 147.928449 
L 240.301258 144.15604 
L 241.28443 144.15604 
L 241.28443 140.38363 
L 242.707591 140.38363 
L 242.792414 132.838812 
L 243.708482 132.838812 
L 243.787757 125.293993 
L 249.879242 125.293993 
L 249.879242 121.521584 
L 252.618542 121.521584 
L 252.618542 117.749175 
L 253.320834 117.749175 
L 253.320834 113.976766 
L 254.096348 113.976766 
L 254.096348 110.204356 
L 254.780926 110.204356 
L 254.795751 102.659538 
L 256.382101 102.659538 
L 256.382101 98.887129 
L 258.68682 98.887129 
L 258.68682 95.114719 
L 262.511696 95.114719 
L 262.511696 91.34231 
L 264.645632 91.34231 
L 264.645632 87.569901 
L 265.158068 87.569901 
L 265.158068 83.797492 
L 266.236952 83.797492 
L 266.236952 80.025083 
L 267.046948 80.025083 
L 267.046948 76.252673 
L 267.403596 76.252673 
L 267.403596 72.480264 
L 269.352661 72.480264 
L 269.352661 68.707855 
L 270.600792 68.707855 
L 270.600792 64.935446 
L 271.290952 64.935446 
L 271.290952 61.163036 
L 271.533658 61.163036 
L 271.533658 57.390627 
L 273.495533 57.390627 
L 273.495533 53.618218 
L 273.843533 53.618218 
L 273.843533 49.845809 
L 276.064994 49.845809 
L 276.064994 46.073399 
L 276.389955 46.073399 
L 276.468679 38.528581 
L 276.865341 38.528581 
L 276.865341 34.756172 
L 277.578498 34.756172 
L 277.578498 30.983762 
L 278.7159 30.983762 
L 278.7159 27.211353 
L 279.482496 27.211353 
L 279.482496 23.438944 
L 281.444842 23.438944 
L 281.444842 19.666535 
L 284.600593 19.666535 
L 284.600593 15.894125 
L 284.934369 15.894125 
L 284.934369 12.121716 
L 292.005786 12.121716 
L 292.005786 8.349307 
L 292.005786 8.349307 
L 450.672 8.349307 
L 450.672 8.349307 
" style="fill:none;stroke:#ff0000;stroke-linecap:square;stroke-width:3;"/>
   </g>
   <g id="line2d_24">
    <path clip-path="url(#pf0a3a596cd)" d="M 229.752103 291.28 
L 229.752103 287.507591 
L 231.550654 287.507591 
L 231.550654 283.735182 
L 233.446943 283.735182 
L 233.446943 279.962772 
L 234.156876 279.962772 
L 234.156876 276.190363 
L 236.486155 276.190363 
L 236.486155 272.417954 
L 239.023431 272.417954 
L 239.023431 268.645545 
L 240.933428 268.645545 
L 240.933428 264.873135 
L 242.032995 264.873135 
L 242.032995 261.100726 
L 244.604797 261.100726 
L 244.604797 257.328317 
L 245.857458 257.328317 
L 245.857458 253.555908 
L 248.305205 253.555908 
L 248.305205 249.783498 
L 252.32134 249.783498 
L 252.32134 246.011089 
L 254.247926 246.011089 
L 254.247926 242.23868 
L 256.115878 242.23868 
L 256.115878 238.466271 
L 256.444046 238.466271 
L 256.444046 234.693861 
L 265.656712 234.693861 
L 265.656712 230.921452 
L 275.778527 230.921452 
L 275.778527 227.149043 
L 280.336234 227.149043 
L 280.445804 219.604224 
L 281.107216 219.604224 
L 281.107216 215.831815 
L 282.637926 215.831815 
L 282.637926 212.059406 
L 284.321461 212.059406 
L 284.321461 208.286997 
L 284.760874 208.286997 
L 284.760874 204.514587 
L 284.905537 204.514587 
L 284.905537 200.742178 
L 285.691745 200.742178 
L 285.691745 196.969769 
L 287.274667 196.969769 
L 287.274667 193.19736 
L 287.900831 193.19736 
L 287.900831 189.42495 
L 290.050756 189.42495 
L 290.050756 185.652541 
L 290.761025 185.652541 
L 290.761025 181.880132 
L 293.328811 181.880132 
L 293.328811 178.107723 
L 293.896813 178.107723 
L 293.896813 174.335314 
L 324.458346 174.335314 
L 324.458346 170.562904 
L 332.471743 170.562904 
L 332.471743 166.790495 
L 337.172488 166.790495 
L 337.172488 163.018086 
L 339.70181 163.018086 
L 339.70181 159.245677 
L 349.573115 159.245677 
L 349.573115 155.473267 
L 352.212811 155.473267 
L 352.212811 151.700858 
L 355.205822 151.700858 
L 355.205822 147.928449 
L 356.187509 147.928449 
L 356.187509 144.15604 
L 367.052231 144.15604 
L 367.052231 140.38363 
L 368.268924 140.38363 
L 368.268924 136.611221 
L 369.436975 136.611221 
L 369.436975 132.838812 
L 369.602031 132.838812 
L 369.602031 129.066403 
L 370.297439 129.066403 
L 370.297439 125.293993 
L 370.784097 125.293993 
L 370.784097 121.521584 
L 372.584852 121.521584 
L 372.584852 117.749175 
L 373.178485 117.749175 
L 373.178485 113.976766 
L 373.647011 113.976766 
L 373.647011 110.204356 
L 374.752179 110.204356 
L 374.752179 106.431947 
L 375.042883 106.431947 
L 375.042883 102.659538 
L 376.471359 102.659538 
L 376.471359 98.887129 
L 376.71285 98.887129 
L 376.71285 95.114719 
L 377.508841 95.114719 
L 377.508841 91.34231 
L 378.863582 91.34231 
L 378.863582 87.569901 
L 379.449367 87.569901 
L 379.449367 83.797492 
L 379.789069 83.797492 
L 379.789069 80.025083 
L 385.716144 80.025083 
L 385.716144 76.252673 
L 386.77314 76.252673 
L 386.77314 72.480264 
L 390.103359 72.480264 
L 390.103359 68.707855 
L 391.460119 68.707855 
L 391.516149 61.163036 
L 394.79085 61.163036 
L 394.79085 57.390627 
L 397.393667 57.390627 
L 397.393667 53.618218 
L 398.601 53.618218 
L 398.601 49.845809 
L 400.630185 49.845809 
L 400.630185 46.073399 
L 401.325622 46.073399 
L 401.325622 42.30099 
L 402.401522 42.30099 
L 402.401522 38.528581 
L 402.780401 38.528581 
L 402.780401 34.756172 
L 404.98811 34.756172 
L 404.98811 30.983762 
L 407.116244 30.983762 
L 407.116244 27.211353 
L 407.638929 27.211353 
L 407.638929 23.438944 
L 410.181754 23.438944 
L 410.181754 19.666535 
L 411.463901 19.666535 
L 411.463901 15.894125 
L 411.979853 15.894125 
L 411.979853 12.121716 
L 432.266256 12.121716 
L 432.266256 8.349307 
L 432.266256 8.349307 
L 450.672 8.349307 
L 450.672 8.349307 
" style="fill:none;stroke:#00bfbf;stroke-linecap:square;stroke-width:1.5;"/>
   </g>
   <g id="line2d_25">
    <path clip-path="url(#pf0a3a596cd)" d="M 226.162792 291.28 
L 226.162792 287.507591 
L 228.37825 287.507591 
L 228.37825 283.735182 
L 229.752103 283.735182 
L 229.752103 279.962772 
L 231.550654 279.962772 
L 231.550654 276.190363 
L 232.44267 276.190363 
L 232.534954 268.645545 
L 232.857566 268.645545 
L 232.857566 264.873135 
L 233.446943 264.873135 
L 233.446943 261.100726 
L 239.803997 261.100726 
L 239.803997 257.328317 
L 240.933428 257.328317 
L 240.984556 249.783498 
L 242.032995 249.783498 
L 242.032995 246.011089 
L 242.979392 246.011089 
L 242.979392 242.23868 
L 245.916091 242.23868 
L 245.916091 238.466271 
L 256.444046 238.466271 
L 256.444046 234.693861 
L 257.19 234.693861 
L 257.199656 227.149043 
L 271.89404 227.149043 
L 271.89404 223.376634 
L 274.810475 223.376634 
L 274.810475 219.604224 
L 279.335297 219.604224 
L 279.335297 215.831815 
L 279.734964 215.831815 
L 279.734964 212.059406 
L 280.336234 212.059406 
L 280.336234 208.286997 
L 281.013478 208.286997 
L 281.107216 200.742178 
L 281.955872 200.742178 
L 281.955872 196.969769 
L 282.339603 196.969769 
L 282.370383 189.42495 
L 282.57369 189.42495 
L 282.57369 185.652541 
L 283.909744 185.652541 
L 283.909744 181.880132 
L 284.043126 181.880132 
L 284.043126 178.107723 
L 284.760874 178.107723 
L 284.760874 174.335314 
L 285.867977 174.335314 
L 285.867977 170.562904 
L 289.205485 170.562904 
L 289.205485 166.790495 
L 315.758009 166.790495 
L 315.758009 163.018086 
L 324.458346 163.018086 
L 324.458346 159.245677 
L 332.471743 159.245677 
L 332.471743 155.473267 
L 332.964276 155.473267 
L 332.964276 151.700858 
L 337.497329 151.700858 
L 337.497329 147.928449 
L 339.70181 147.928449 
L 339.70181 144.15604 
L 348.354393 144.15604 
L 348.354393 140.38363 
L 349.573115 140.38363 
L 349.573115 136.611221 
L 351.915913 136.611221 
L 351.915913 132.838812 
L 352.212811 132.838812 
L 352.212811 129.066403 
L 355.205822 129.066403 
L 355.205822 125.293993 
L 356.187509 125.293993 
L 356.187509 121.521584 
L 356.937001 121.521584 
L 356.937001 117.749175 
L 359.278398 117.749175 
L 359.278398 113.976766 
L 359.900251 113.976766 
L 359.900251 110.204356 
L 360.323072 110.204356 
L 360.323072 106.431947 
L 361.160755 106.431947 
L 361.160755 102.659538 
L 363.254761 102.659538 
L 363.254761 98.887129 
L 366.536089 98.887129 
L 366.536089 95.114719 
L 368.653532 95.114719 
L 368.653532 91.34231 
L 369.436975 91.34231 
L 369.436975 87.569901 
L 369.581144 87.569901 
L 369.581144 83.797492 
L 370.596983 83.797492 
L 370.596983 80.025083 
L 373.178485 80.025083 
L 373.178485 76.252673 
L 375.97678 76.252673 
L 375.97678 72.480264 
L 376.471359 72.480264 
L 376.471359 68.707855 
L 378.608863 68.707855 
L 378.608863 64.935446 
L 379.789069 64.935446 
L 379.789069 61.163036 
L 380.133634 61.163036 
L 380.133634 57.390627 
L 380.270499 57.390627 
L 380.270499 53.618218 
L 385.716144 53.618218 
L 385.716144 49.845809 
L 389.737349 49.845809 
L 389.737349 46.073399 
L 390.688522 46.073399 
L 390.688522 42.30099 
L 390.910271 42.30099 
L 390.910271 38.528581 
L 391.516149 38.528581 
L 391.516149 34.756172 
L 397.113113 34.756172 
L 397.113113 30.983762 
L 397.393667 30.983762 
L 397.439825 23.438944 
L 400.630185 23.438944 
L 400.630185 19.666535 
L 402.421441 19.666535 
L 402.421441 15.894125 
L 404.604502 15.894125 
L 404.604502 12.121716 
L 407.116244 12.121716 
L 407.116244 8.349307 
L 407.116244 8.349307 
L 450.672 8.349307 
L 450.672 8.349307 
" style="fill:none;stroke:#bf00bf;stroke-linecap:square;stroke-width:1.5;"/>
   </g>
   <g id="line2d_26">
    <path clip-path="url(#pf0a3a596cd)" d="M 202.747764 291.28 
L 202.747764 287.507591 
L 220.191131 287.507591 
L 220.191131 283.735182 
L 220.605196 283.735182 
L 220.605196 279.962772 
L 222.57312 279.962772 
L 222.57312 276.190363 
L 226.162792 276.190363 
L 226.162792 272.417954 
L 226.285527 272.417954 
L 226.285527 268.645545 
L 226.788782 268.645545 
L 226.788782 264.873135 
L 227.483046 264.873135 
L 227.483046 261.100726 
L 227.827523 261.100726 
L 227.827523 257.328317 
L 232.44267 257.328317 
L 232.44267 253.555908 
L 233.446943 253.555908 
L 233.446943 249.783498 
L 234.273449 249.783498 
L 234.273449 246.011089 
L 238.291283 246.011089 
L 238.291283 242.23868 
L 239.803997 242.23868 
L 239.803997 238.466271 
L 241.978694 238.466271 
L 241.978694 234.693861 
L 256.444046 234.693861 
L 256.444046 230.921452 
L 257.19 230.921452 
L 257.19 227.149043 
L 262.65082 227.149043 
L 262.65082 223.376634 
L 271.89404 223.376634 
L 271.89404 219.604224 
L 274.353091 219.604224 
L 274.353091 215.831815 
L 275.167255 215.831815 
L 275.167255 212.059406 
L 276.05945 212.059406 
L 276.05945 208.286997 
L 277.206268 208.286997 
L 277.206268 204.514587 
L 277.433037 204.514587 
L 277.433037 200.742178 
L 277.964014 200.742178 
L 277.964014 196.969769 
L 278.179164 196.969769 
L 278.179164 193.19736 
L 278.935975 193.19736 
L 278.935975 189.42495 
L 279.734964 189.42495 
L 279.734964 185.652541 
L 280.843669 185.652541 
L 280.843669 181.880132 
L 281.107216 181.880132 
L 281.107216 178.107723 
L 283.201157 178.107723 
L 283.201157 174.335314 
L 284.043126 174.335314 
L 284.043126 170.562904 
L 284.669477 170.562904 
L 284.760874 163.018086 
L 294.321288 163.018086 
L 294.321288 159.245677 
L 310.882048 159.245677 
L 310.882048 155.473267 
L 315.758009 155.473267 
L 315.758009 151.700858 
L 317.785065 151.700858 
L 317.785065 147.928449 
L 318.118437 147.928449 
L 318.118437 144.15604 
L 322.458095 144.15604 
L 322.458095 140.38363 
L 331.602077 140.38363 
L 331.602077 136.611221 
L 332.471743 136.611221 
L 332.471743 132.838812 
L 332.964276 132.838812 
L 332.964276 129.066403 
L 333.349 129.066403 
L 333.349 125.293993 
L 334.055723 125.293993 
L 334.055723 121.521584 
L 339.70181 121.521584 
L 339.70181 117.749175 
L 341.15506 117.749175 
L 341.15506 113.976766 
L 342.069636 113.976766 
L 342.069636 110.204356 
L 343.921915 110.204356 
L 343.921915 106.431947 
L 344.791029 106.431947 
L 344.791029 102.659538 
L 347.110591 102.659538 
L 347.110591 98.887129 
L 352.759343 98.887129 
L 352.759343 95.114719 
L 354.553376 95.114719 
L 354.553376 91.34231 
L 356.199414 91.34231 
L 356.199414 87.569901 
L 362.997411 87.569901 
L 362.997411 83.797492 
L 363.454438 83.797492 
L 363.454438 80.025083 
L 366.246363 80.025083 
L 366.355618 72.480264 
L 366.800448 72.480264 
L 366.800448 68.707855 
L 369.436975 68.707855 
L 369.436975 64.935446 
L 373.178485 64.935446 
L 373.178485 61.163036 
L 376.115535 61.163036 
L 376.115535 57.390627 
L 378.608863 57.390627 
L 378.608863 53.618218 
L 379.789069 53.618218 
L 379.789069 49.845809 
L 380.270499 49.845809 
L 380.270499 46.073399 
L 381.866527 46.073399 
L 381.866527 42.30099 
L 388.561449 42.30099 
L 388.561449 38.528581 
L 389.042468 38.528581 
L 389.042468 34.756172 
L 389.737349 34.756172 
L 389.737349 30.983762 
L 390.910271 30.983762 
L 390.910271 27.211353 
L 391.516149 27.211353 
L 391.516149 23.438944 
L 392.305973 23.438944 
L 392.305973 19.666535 
L 394.966221 19.666535 
L 394.966221 15.894125 
L 398.06474 15.894125 
L 398.06474 12.121716 
L 400.630185 12.121716 
L 400.630185 8.349307 
L 400.630185 8.349307 
L 450.672 8.349307 
L 450.672 8.349307 
" style="fill:none;stroke:#000000;stroke-linecap:square;stroke-width:1.5;"/>
   </g>
   <g id="line2d_27">
    <path clip-path="url(#pf0a3a596cd)" d="M 200.974177 291.28 
L 200.974177 287.507591 
L 217.871362 287.507591 
L 217.871362 283.735182 
L 218.776844 283.735182 
L 218.776844 279.962772 
L 219.278411 279.962772 
L 219.278411 276.190363 
L 220.106582 276.190363 
L 220.106582 272.417954 
L 221.087767 272.417954 
L 221.087767 268.645545 
L 221.86992 268.645545 
L 221.86992 264.873135 
L 222.996635 264.873135 
L 222.996635 261.100726 
L 223.627008 261.100726 
L 223.627008 257.328317 
L 224.853204 257.328317 
L 224.853204 253.555908 
L 225.427028 253.555908 
L 225.427028 249.783498 
L 226.978053 249.783498 
L 226.978053 246.011089 
L 227.183851 246.011089 
L 227.183851 242.23868 
L 228.823598 242.23868 
L 228.823598 238.466271 
L 239.684788 238.466271 
L 239.684788 234.693861 
L 247.978241 234.693861 
L 247.978241 230.921452 
L 248.939494 230.921452 
L 248.939494 227.149043 
L 254.854721 227.149043 
L 254.854721 223.376634 
L 257.19 223.376634 
L 257.19 219.604224 
L 263.406012 219.604224 
L 263.406012 215.831815 
L 264.943915 215.831815 
L 264.943915 212.059406 
L 266.215729 212.059406 
L 266.215729 208.286997 
L 268.797756 208.286997 
L 268.797756 204.514587 
L 269.054777 204.514587 
L 269.054777 200.742178 
L 271.239754 200.742178 
L 271.239754 196.969769 
L 271.48089 196.969769 
L 271.48089 193.19736 
L 273.279079 193.19736 
L 273.279079 189.42495 
L 273.709222 189.42495 
L 273.709222 185.652541 
L 275.196182 185.652541 
L 275.196182 181.880132 
L 275.823482 181.880132 
L 275.860655 174.335314 
L 276.064011 174.335314 
L 276.064011 170.562904 
L 276.221429 170.562904 
L 276.221429 166.790495 
L 278.638948 166.790495 
L 278.638948 163.018086 
L 279.198317 163.018086 
L 279.198317 159.245677 
L 282.332094 159.245677 
L 282.332094 155.473267 
L 282.961769 155.473267 
L 282.961769 151.700858 
L 284.52965 151.700858 
L 284.52965 147.928449 
L 303.406602 147.928449 
L 303.406602 144.15604 
L 309.462144 144.15604 
L 309.462144 140.38363 
L 312.848661 140.38363 
L 312.848661 136.611221 
L 313.550475 136.611221 
L 313.550475 132.838812 
L 315.533798 132.838812 
L 315.533798 129.066403 
L 316.260157 129.066403 
L 316.260157 125.293993 
L 323.164031 125.293993 
L 323.164031 121.521584 
L 323.779763 121.521584 
L 323.779763 117.749175 
L 326.411994 117.749175 
L 326.411994 113.976766 
L 329.146177 113.976766 
L 329.146177 110.204356 
L 329.332624 110.204356 
L 329.332624 106.431947 
L 329.570138 106.431947 
L 329.570138 102.659538 
L 333.237293 102.659538 
L 333.237293 98.887129 
L 339.26882 98.887129 
L 339.26882 95.114719 
L 339.629504 95.114719 
L 339.629504 91.34231 
L 339.823192 91.34231 
L 339.823192 87.569901 
L 341.956439 87.569901 
L 341.956439 83.797492 
L 349.136693 83.797492 
L 349.136693 80.025083 
L 353.473842 80.025083 
L 353.498232 72.480264 
L 354.732226 72.480264 
L 354.732226 68.707855 
L 361.706535 68.707855 
L 361.706535 64.935446 
L 366.314829 64.935446 
L 366.314829 61.163036 
L 368.608138 61.163036 
L 368.608138 57.390627 
L 369.245544 57.390627 
L 369.245544 53.618218 
L 369.420657 53.618218 
L 369.420657 49.845809 
L 374.742112 49.845809 
L 374.742112 46.073399 
L 377.699748 46.073399 
L 377.773125 38.528581 
L 380.581897 38.528581 
L 380.581897 34.756172 
L 382.792304 34.756172 
L 382.792304 30.983762 
L 383.941988 30.983762 
L 383.941988 27.211353 
L 385.256708 27.211353 
L 385.256708 23.438944 
L 386.304666 23.438944 
L 386.304666 19.666535 
L 388.150392 19.666535 
L 388.150392 15.894125 
L 388.64296 15.894125 
L 388.64296 12.121716 
L 395.998573 12.121716 
L 395.998573 8.349307 
L 395.998573 8.349307 
L 450.672 8.349307 
L 450.672 8.349307 
" style="fill:none;stroke:#00bfbf;stroke-linecap:square;stroke-width:1.5;"/>
   </g>
   <g id="line2d_28">
    <path clip-path="url(#pf0a3a596cd)" d="M 179.039129 291.28 
L 179.039129 287.507591 
L 194.215332 287.507591 
L 194.215332 283.735182 
L 209.056226 283.735182 
L 209.056226 279.962772 
L 210.133422 279.962772 
L 210.133422 276.190363 
L 210.621083 276.190363 
L 210.621083 272.417954 
L 212.637094 272.417954 
L 212.637094 268.645545 
L 213.330649 268.645545 
L 213.330649 264.873135 
L 214.685108 264.873135 
L 214.685108 261.100726 
L 214.855098 261.100726 
L 214.855098 257.328317 
L 215.218681 257.328317 
L 215.218681 253.555908 
L 216.895582 253.555908 
L 216.950008 246.011089 
L 218.750628 246.011089 
L 218.750628 242.23868 
L 219.166839 242.23868 
L 219.166839 238.466271 
L 221.719392 238.466271 
L 221.719392 234.693861 
L 228.518813 234.693861 
L 228.518813 230.921452 
L 229.549297 230.921452 
L 229.549297 227.149043 
L 235.278387 227.149043 
L 235.278387 223.376634 
L 237.07691 223.376634 
L 237.07691 219.604224 
L 239.134672 219.604224 
L 239.134672 215.831815 
L 239.514783 215.831815 
L 239.514783 212.059406 
L 240.428627 212.059406 
L 240.428627 208.286997 
L 243.991195 208.286997 
L 243.991195 204.514587 
L 244.14805 204.514587 
L 244.15407 196.969769 
L 246.219807 196.969769 
L 246.219807 193.19736 
L 248.824082 193.19736 
L 248.824082 189.42495 
L 250.541569 189.42495 
L 250.541569 185.652541 
L 253.990222 185.652541 
L 253.990222 181.880132 
L 261.159219 181.880132 
L 261.159219 178.107723 
L 262.945284 178.107723 
L 262.945284 174.335314 
L 263.813418 174.335314 
L 263.813418 170.562904 
L 263.971232 170.562904 
L 263.971232 166.790495 
L 264.288967 166.790495 
L 264.288967 163.018086 
L 264.871086 163.018086 
L 264.871086 159.245677 
L 266.053492 159.245677 
L 266.053492 155.473267 
L 266.302397 155.473267 
L 266.302397 151.700858 
L 268.123205 151.700858 
L 268.123205 147.928449 
L 269.632801 147.928449 
L 269.632801 144.15604 
L 273.367065 144.15604 
L 273.367065 140.38363 
L 273.951905 140.38363 
L 273.951905 136.611221 
L 274.619145 136.611221 
L 274.619145 132.838812 
L 275.906381 132.838812 
L 275.906381 129.066403 
L 277.978869 129.066403 
L 277.978869 125.293993 
L 279.743372 125.293993 
L 279.743372 121.521584 
L 293.240252 121.521584 
L 293.240252 117.749175 
L 293.834434 117.749175 
L 293.834434 113.976766 
L 296.792476 113.976766 
L 296.792476 110.204356 
L 296.920289 110.204356 
L 296.920289 106.431947 
L 302.235576 106.431947 
L 302.235576 102.659538 
L 308.091873 102.659538 
L 308.091873 98.887129 
L 310.620875 98.887129 
L 310.620875 95.114719 
L 314.364237 95.114719 
L 314.364237 91.34231 
L 316.582929 91.34231 
L 316.582929 87.569901 
L 324.566109 87.569901 
L 324.566109 83.797492 
L 327.975556 83.797492 
L 327.975556 80.025083 
L 333.044407 80.025083 
L 333.044407 76.252673 
L 334.49862 76.252673 
L 334.49862 72.480264 
L 341.42 72.480264 
L 341.42 68.707855 
L 342.380788 68.707855 
L 342.380788 64.935446 
L 342.776689 64.935446 
L 342.776689 61.163036 
L 348.242013 61.163036 
L 348.242013 57.390627 
L 349.332604 57.390627 
L 349.332604 53.618218 
L 356.826912 53.618218 
L 356.826912 49.845809 
L 357.434496 49.845809 
L 357.434496 46.073399 
L 359.060815 46.073399 
L 359.060815 42.30099 
L 364.349234 42.30099 
L 364.349234 38.528581 
L 371.234068 38.528581 
L 371.234068 34.756172 
L 371.639707 34.756172 
L 371.639707 30.983762 
L 371.913279 30.983762 
L 371.913279 27.211353 
L 374.322898 27.211353 
L 374.322898 23.438944 
L 377.52875 23.438944 
L 377.52875 19.666535 
L 379.748775 19.666535 
L 379.748775 15.894125 
L 381.821981 15.894125 
L 381.821981 12.121716 
L 385.101533 12.121716 
L 385.101533 8.349307 
L 385.101533 8.349307 
L 450.672 8.349307 
L 450.672 8.349307 
" style="fill:none;stroke:#bf00bf;stroke-linecap:square;stroke-width:1.5;"/>
   </g>
   <g id="line2d_29">
    <path clip-path="url(#pf0a3a596cd)" d="M 129.000648 291.28 
L 129.000648 287.507591 
L 139.28533 287.507591 
L 139.28533 283.735182 
L 141.167318 283.735182 
L 141.167318 279.962772 
L 142.58211 279.962772 
L 142.58211 276.190363 
L 143.715954 276.190363 
L 143.715954 272.417954 
L 147.268895 272.417954 
L 147.268895 268.645545 
L 148.653245 268.645545 
L 148.653245 264.873135 
L 151.454507 264.873135 
L 151.454507 261.100726 
L 151.753223 261.100726 
L 151.753223 257.328317 
L 153.800653 257.328317 
L 153.800653 253.555908 
L 155.964877 253.555908 
L 155.964877 249.783498 
L 162.771934 249.783498 
L 162.771934 246.011089 
L 168.896959 246.011089 
L 168.896959 242.23868 
L 176.007262 242.23868 
L 176.007262 238.466271 
L 187.765429 238.466271 
L 187.765429 234.693861 
L 226.939263 234.693861 
L 226.939263 230.921452 
L 227.273552 230.921452 
L 227.372971 223.376634 
L 228.281995 223.376634 
L 228.281995 219.604224 
L 228.508845 219.604224 
L 228.508845 215.831815 
L 229.521403 215.831815 
L 229.521403 212.059406 
L 230.249864 212.059406 
L 230.351329 200.742178 
L 230.813783 200.742178 
L 230.813783 196.969769 
L 231.850606 196.969769 
L 231.850606 193.19736 
L 232.836205 193.19736 
L 232.836205 189.42495 
L 234.371287 189.42495 
L 234.371287 185.652541 
L 234.69683 185.652541 
L 234.69683 181.880132 
L 235.194327 181.880132 
L 235.194327 178.107723 
L 235.518704 178.107723 
L 235.518704 174.335314 
L 236.183536 174.335314 
L 236.183536 170.562904 
L 238.304955 170.562904 
L 238.304955 166.790495 
L 238.475175 166.790495 
L 238.475175 163.018086 
L 240.813822 163.018086 
L 240.813822 159.245677 
L 241.45515 159.245677 
L 241.45515 155.473267 
L 242.792414 155.473267 
L 242.792414 151.700858 
L 243.378702 151.700858 
L 243.378702 147.928449 
L 243.814653 147.928449 
L 243.814653 144.15604 
L 244.15407 144.15604 
L 244.15407 140.38363 
L 244.569163 140.38363 
L 244.569163 136.611221 
L 249.365207 136.611221 
L 249.365207 132.838812 
L 250.423196 132.838812 
L 250.423196 129.066403 
L 253.496781 129.066403 
L 253.496781 125.293993 
L 256.382101 125.293993 
L 256.382101 121.521584 
L 256.715673 121.521584 
L 256.715673 117.749175 
L 259.807185 117.749175 
L 259.807185 113.976766 
L 260.735998 113.976766 
L 260.735998 110.204356 
L 261.81887 110.204356 
L 261.81887 106.431947 
L 269.138398 106.431947 
L 269.138398 102.659538 
L 269.871311 102.659538 
L 269.871311 98.887129 
L 270.353037 98.887129 
L 270.353037 95.114719 
L 271.290952 95.114719 
L 271.290952 91.34231 
L 271.622961 91.34231 
L 271.622961 87.569901 
L 273.419941 87.569901 
L 273.419941 83.797492 
L 273.871639 83.797492 
L 273.871639 80.025083 
L 275.377814 80.025083 
L 275.377814 76.252673 
L 275.992734 76.252673 
L 276.054706 68.707855 
L 276.333753 68.707855 
L 276.333753 64.935446 
L 276.502931 64.935446 
L 276.502931 61.163036 
L 277.540933 61.163036 
L 277.540933 57.390627 
L 279.222057 57.390627 
L 279.222057 53.618218 
L 279.482496 53.618218 
L 279.482496 49.845809 
L 281.370307 49.845809 
L 281.414446 42.30099 
L 284.054184 42.30099 
L 284.054184 38.528581 
L 284.56524 38.528581 
L 284.56524 34.756172 
L 284.916252 34.756172 
L 284.916252 30.983762 
L 289.581099 30.983762 
L 289.581099 27.211353 
L 291.124829 27.211353 
L 291.124829 23.438944 
L 295.793654 23.438944 
L 295.793654 19.666535 
L 301.093029 19.666535 
L 301.093029 15.894125 
L 301.803457 15.894125 
L 301.803457 12.121716 
L 348.980366 12.121716 
L 348.980366 8.349307 
L 348.980366 8.349307 
L 450.672 8.349307 
L 450.672 8.349307 
" style="fill:none;stroke:#000000;stroke-linecap:square;stroke-width:1.5;"/>
   </g>
   <g id="patch_3">
    <path d="M 5.52 291.28 
L 5.52 5.52 
" style="fill:none;stroke:#000000;stroke-linecap:square;stroke-linejoin:miter;stroke-width:0.8;"/>
   </g>
   <g id="patch_4">
    <path d="M 450.672 291.28 
L 450.672 5.52 
" style="fill:none;stroke:#000000;stroke-linecap:square;stroke-linejoin:miter;stroke-width:0.8;"/>
   </g>
   <g id="patch_5">
    <path d="M 5.52 291.28 
L 450.672 291.28 
" style="fill:none;stroke:#000000;stroke-linecap:square;stroke-linejoin:miter;stroke-width:0.8;"/>
   </g>
   <g id="patch_6">
    <path d="M 5.52 5.52 
L 450.672 5.52 
" style="fill:none;stroke:#000000;stroke-linecap:square;stroke-linejoin:miter;stroke-width:0.8;"/>
   </g>
   <g id="text_6">
    <!-- {f10-f14}, 5-D -->
    <defs>
     <path d="M 51.125 -9.28125 
L 51.125 -16.3125 
L 48.09375 -16.3125 
Q 35.9375 -16.3125 31.8125 -12.6875 
Q 27.6875 -9.078125 27.6875 1.703125 
L 27.6875 13.375 
Q 27.6875 20.75 25.046875 23.578125 
Q 22.40625 26.421875 15.484375 26.421875 
L 12.5 26.421875 
L 12.5 33.40625 
L 15.484375 33.40625 
Q 22.46875 33.40625 25.078125 36.203125 
Q 27.6875 39.015625 27.6875 46.296875 
L 27.6875 58.015625 
Q 27.6875 68.796875 31.8125 72.390625 
Q 35.9375 75.984375 48.09375 75.984375 
L 51.125 75.984375 
L 51.125 69 
L 47.796875 69 
Q 40.921875 69 38.8125 66.84375 
Q 36.71875 64.703125 36.71875 57.8125 
L 36.71875 45.703125 
Q 36.71875 38.03125 34.5 34.5625 
Q 32.28125 31.109375 26.90625 29.890625 
Q 32.328125 28.5625 34.515625 25.09375 
Q 36.71875 21.625 36.71875 14.015625 
L 36.71875 1.90625 
Q 36.71875 -4.984375 38.8125 -7.125 
Q 40.921875 -9.28125 47.796875 -9.28125 
z
" id="DejaVuSans-7b"/>
     <path d="M 12.5 -9.28125 
L 15.921875 -9.28125 
Q 22.75 -9.28125 24.828125 -7.171875 
Q 26.90625 -5.078125 26.90625 1.90625 
L 26.90625 14.015625 
Q 26.90625 21.625 29.09375 25.09375 
Q 31.296875 28.5625 36.71875 29.890625 
Q 31.296875 31.109375 29.09375 34.5625 
Q 26.90625 38.03125 26.90625 45.703125 
L 26.90625 57.8125 
Q 26.90625 64.75 24.828125 66.875 
Q 22.75 69 15.921875 69 
L 12.5 69 
L 12.5 75.984375 
L 15.578125 75.984375 
Q 27.734375 75.984375 31.8125 72.390625 
Q 35.890625 68.796875 35.890625 58.015625 
L 35.890625 46.296875 
Q 35.890625 39.015625 38.515625 36.203125 
Q 41.15625 33.40625 48.09375 33.40625 
L 51.125 33.40625 
L 51.125 26.421875 
L 48.09375 26.421875 
Q 41.15625 26.421875 38.515625 23.578125 
Q 35.890625 20.75 35.890625 13.375 
L 35.890625 1.703125 
Q 35.890625 -9.078125 31.8125 -12.6875 
Q 27.734375 -16.3125 15.578125 -16.3125 
L 12.5 -16.3125 
z
" id="DejaVuSans-7d"/>
     <path d="M 11.71875 12.40625 
L 22.015625 12.40625 
L 22.015625 4 
L 14.015625 -11.625 
L 7.71875 -11.625 
L 11.71875 4 
z
" id="DejaVuSans-2c"/>
     <path d="M 10.796875 72.90625 
L 49.515625 72.90625 
L 49.515625 64.59375 
L 19.828125 64.59375 
L 19.828125 46.734375 
Q 21.96875 47.46875 24.109375 47.828125 
Q 26.265625 48.1875 28.421875 48.1875 
Q 40.625 48.1875 47.75 41.5 
Q 54.890625 34.8125 54.890625 23.390625 
Q 54.890625 11.625 47.5625 5.09375 
Q 40.234375 -1.421875 26.90625 -1.421875 
Q 22.3125 -1.421875 17.546875 -0.640625 
Q 12.796875 0.140625 7.71875 1.703125 
L 7.71875 11.625 
Q 12.109375 9.234375 16.796875 8.0625 
Q 21.484375 6.890625 26.703125 6.890625 
Q 35.15625 6.890625 40.078125 11.328125 
Q 45.015625 15.765625 45.015625 23.390625 
Q 45.015625 31 40.078125 35.4375 
Q 35.15625 39.890625 26.703125 39.890625 
Q 22.75 39.890625 18.8125 39.015625 
Q 14.890625 38.140625 10.796875 36.28125 
z
" id="DejaVuSans-35"/>
    </defs>
    <g transform="translate(296.06896 285.5648)scale(0.2 -0.2)">
     <use xlink:href="#DejaVuSans-7b"/>
     <use x="63.623047" xlink:href="#DejaVuSans-66"/>
     <use x="98.828125" xlink:href="#DejaVuSans-31"/>
     <use x="162.451172" xlink:href="#DejaVuSans-30"/>
     <use x="226.074219" xlink:href="#DejaVuSans-2d"/>
     <use x="262.158203" xlink:href="#DejaVuSans-66"/>
     <use x="297.363281" xlink:href="#DejaVuSans-31"/>
     <use x="360.986328" xlink:href="#DejaVuSans-34"/>
     <use x="424.609375" xlink:href="#DejaVuSans-7d"/>
     <use x="488.232422" xlink:href="#DejaVuSans-2c"/>
     <use x="520.019531" xlink:href="#DejaVuSans-20"/>
     <use x="551.806641" xlink:href="#DejaVuSans-35"/>
     <use x="615.429688" xlink:href="#DejaVuSans-2d"/>
     <use x="651.513672" xlink:href="#DejaVuSans-44"/>
    </g>
   </g>
   <g id="text_7">
    <!-- v2.2.1.10 -->
    <defs>
     <path d="M 2.984375 54.6875 
L 12.5 54.6875 
L 29.59375 8.796875 
L 46.6875 54.6875 
L 56.203125 54.6875 
L 35.6875 0 
L 23.484375 0 
z
" id="DejaVuSans-76"/>
     <path d="M 19.1875 8.296875 
L 53.609375 8.296875 
L 53.609375 0 
L 7.328125 0 
L 7.328125 8.296875 
Q 12.9375 14.109375 22.625 23.890625 
Q 32.328125 33.6875 34.8125 36.53125 
Q 39.546875 41.84375 41.421875 45.53125 
Q 43.3125 49.21875 43.3125 52.78125 
Q 43.3125 58.59375 39.234375 62.25 
Q 35.15625 65.921875 28.609375 65.921875 
Q 23.96875 65.921875 18.8125 64.3125 
Q 13.671875 62.703125 7.8125 59.421875 
L 7.8125 69.390625 
Q 13.765625 71.78125 18.9375 73 
Q 24.125 74.21875 28.421875 74.21875 
Q 39.75 74.21875 46.484375 68.546875 
Q 53.21875 62.890625 53.21875 53.421875 
Q 53.21875 48.921875 51.53125 44.890625 
Q 49.859375 40.875 45.40625 35.40625 
Q 44.1875 33.984375 37.640625 27.21875 
Q 31.109375 20.453125 19.1875 8.296875 
z
" id="DejaVuSans-32"/>
     <path d="M 10.6875 12.40625 
L 21 12.40625 
L 21 0 
L 10.6875 0 
z
" id="DejaVuSans-2e"/>
    </defs>
    <g style="fill:#808080;" transform="translate(204.463188 286.342713)scale(0.1 -0.1)">
     <use xlink:href="#DejaVuSans-76"/>
     <use x="59.179688" xlink:href="#DejaVuSans-32"/>
     <use x="122.802734" xlink:href="#DejaVuSans-2e"/>
     <use x="154.589844" xlink:href="#DejaVuSans-32"/>
     <use x="218.212891" xlink:href="#DejaVuSans-2e"/>
     <use x="250" xlink:href="#DejaVuSans-31"/>
     <use x="313.623047" xlink:href="#DejaVuSans-2e"/>
     <use x="345.410156" xlink:href="#DejaVuSans-31"/>
     <use x="409.033203" xlink:href="#DejaVuSans-30"/>
    </g>
   </g>
  </g>
 </g>
 <defs>
  <clipPath id="pf0a3a596cd">
   <rect height="285.76" width="445.152" x="5.52" y="5.52"/>
  </clipPath>
 </defs>
</svg>
