<?xml version="1.0" encoding="utf-8" standalone="no"?>
<!DOCTYPE svg PUBLIC "-//W3C//DTD SVG 1.1//EN"
  "http://www.w3.org/Graphics/SVG/1.1/DTD/svg11.dtd">
<!-- Created with matplotlib (http://matplotlib.org/) -->
<svg height="345.6pt" version="1.1" viewBox="0 0 460.8 345.6" width="460.8pt" xmlns="http://www.w3.org/2000/svg" xmlns:xlink="http://www.w3.org/1999/xlink">
 <defs>
  <style type="text/css">
*{stroke-linecap:butt;stroke-linejoin:round;}
  </style>
 </defs>
 <g id="figure_1">
  <g id="patch_1">
   <path d="M 0 345.6 
L 460.8 345.6 
L 460.8 0 
L 0 0 
z
" style="fill:#ffffff;"/>
  </g>
  <g id="axes_1">
   <g id="patch_2">
    <path d="M 59.72 291.28 
L 450.672 291.28 
L 450.672 6.125228 
L 59.72 6.125228 
z
" style="fill:#ffffff;"/>
   </g>
   <g id="line2d_1">
    <path clip-path="url(#p8a7c878b75)" d="M 282.177589 291.28 
L 282.177589 287.515581 
L 282.177589 287.515581 
L 282.177589 283.751161 
L 282.508301 283.751161 
L 282.508301 279.986742 
L 282.508301 279.986742 
L 282.508301 276.222322 
L 282.508301 276.222322 
L 282.508301 272.457903 
L 282.672892 272.457903 
L 282.672892 268.693483 
L 282.672892 268.693483 
L 282.672892 264.929064 
L 283.163643 264.929064 
L 283.163643 261.164645 
L 284.609408 261.164645 
L 284.609408 257.400225 
L 284.609408 257.400225 
L 284.609408 253.635806 
L 285.551957 253.635806 
L 285.551957 249.871386 
L 286.017067 249.871386 
L 286.017067 246.106967 
L 287.688631 246.106967 
L 287.688631 242.342547 
L 289.598949 242.342547 
L 289.598949 238.578128 
L 291.16366 238.578128 
L 291.16366 234.813708 
L 303.053653 234.813708 
L 303.053653 231.049289 
L 304.273866 231.049289 
L 304.273866 227.28487 
L 304.601869 227.28487 
L 304.601869 223.52045 
L 304.601869 223.52045 
L 304.601869 219.756031 
L 304.819424 219.756031 
L 304.819424 215.991611 
L 305.359467 215.991611 
L 305.359467 212.227192 
L 305.466823 212.227192 
L 305.466823 208.462772 
L 306.106468 208.462772 
L 306.106468 204.698353 
L 306.106468 204.698353 
L 306.106468 200.933934 
L 306.843166 200.933934 
L 306.843166 197.169514 
L 307.155809 197.169514 
L 307.155809 193.405095 
L 307.155809 193.405095 
L 307.155809 189.640675 
L 307.87827 189.640675 
L 307.87827 185.876256 
L 320.992475 185.876256 
L 320.992475 182.111836 
L 321.312295 182.111836 
L 321.312295 178.347417 
L 329.087967 178.347417 
L 329.087967 174.582997 
L 330.111827 174.582997 
L 330.111827 170.818578 
L 332.427163 170.818578 
L 332.427163 167.054159 
L 333.769668 167.054159 
L 333.769668 163.289739 
L 334.52193 163.289739 
L 334.52193 159.52532 
L 334.646283 159.52532 
L 334.646283 155.7609 
L 335.691758 155.7609 
L 335.691758 151.996481 
L 339.510462 151.996481 
L 339.510462 148.232061 
L 349.840244 148.232061 
L 349.840244 144.467642 
L 358.21339 144.467642 
L 358.21339 140.703223 
L 361.204028 140.703223 
L 361.204028 136.938803 
L 365.97076 136.938803 
L 365.97076 133.174384 
L 371.010977 133.174384 
L 371.010977 129.409964 
L 371.010977 129.409964 
L 371.010977 129.409964 
L 450.672 129.409964 
" style="fill:none;stroke:#f5deb3;stroke-linecap:square;stroke-width:1.5;"/>
   </g>
   <g id="line2d_2">
    <path clip-path="url(#p8a7c878b75)" d="M 234.549484 291.28 
L 234.549484 279.986742 
L 234.549484 279.986742 
L 234.549484 268.693483 
L 234.952578 268.693483 
L 234.952578 257.400225 
L 234.952578 257.400225 
L 234.952578 246.106967 
L 234.952578 246.106967 
L 234.952578 234.813708 
L 376.898537 234.813708 
L 376.898537 223.52045 
L 384.520864 223.52045 
L 384.520864 212.227192 
L 384.910007 212.227192 
L 384.910007 200.933934 
L 393.053069 200.933934 
L 393.053069 189.640675 
L 396.105884 189.640675 
L 396.105884 178.347417 
L 428.038161 178.347417 
L 428.038161 167.054159 
L 461.8 167.054159 
" style="fill:none;stroke:#f5deb3;stroke-linecap:square;stroke-width:1.5;"/>
   </g>
   <g id="line2d_3">
    <path clip-path="url(#p8a7c878b75)" d="M 138.852097 291.28 
L 138.852097 287.515581 
L 138.852097 287.515581 
L 138.852097 283.751161 
L 138.852097 283.751161 
L 138.852097 279.986742 
L 138.852097 279.986742 
L 138.852097 276.222322 
L 138.852097 276.222322 
L 138.852097 272.457903 
L 138.852097 272.457903 
L 138.852097 268.693483 
L 138.852097 268.693483 
L 138.852097 264.929064 
L 138.852097 264.929064 
L 138.852097 261.164645 
L 138.852097 261.164645 
L 138.852097 257.400225 
L 138.852097 257.400225 
L 138.852097 253.635806 
L 138.852097 253.635806 
L 138.852097 249.871386 
L 138.852097 249.871386 
L 138.852097 246.106967 
L 138.852097 246.106967 
L 138.852097 242.342547 
L 138.852097 242.342547 
L 138.852097 238.578128 
L 138.852097 238.578128 
L 138.852097 234.813708 
L 138.852097 234.813708 
L 138.852097 231.049289 
L 138.852097 231.049289 
L 138.852097 227.28487 
L 138.852097 227.28487 
L 138.852097 223.52045 
L 138.852097 223.52045 
L 138.852097 219.756031 
L 141.226253 219.756031 
L 141.226253 215.991611 
L 141.226253 215.991611 
L 141.226253 212.227192 
L 141.226253 212.227192 
L 141.226253 208.462772 
L 143.499351 208.462772 
L 143.499351 204.698353 
L 143.499351 204.698353 
L 143.499351 200.933934 
L 145.679642 200.933934 
L 145.679642 197.169514 
L 145.679642 197.169514 
L 145.679642 193.405095 
L 145.679642 193.405095 
L 145.679642 189.640675 
L 147.77441 189.640675 
L 147.77441 185.876256 
L 149.790111 185.876256 
L 149.790111 182.111836 
L 158.864372 182.111836 
L 158.864372 178.347417 
L 461.8 178.347417 
" style="fill:none;stroke:#f5deb3;stroke-linecap:square;stroke-width:1.5;"/>
   </g>
   <g id="line2d_4">
    <path clip-path="url(#p8a7c878b75)" d="M 106.478548 291.28 
L 106.478548 287.515581 
L 128.134329 287.515581 
L 128.134329 283.751161 
L 141.226253 283.751161 
L 141.226253 279.986742 
L 143.499351 279.986742 
L 143.499351 276.222322 
L 149.790111 276.222322 
L 149.790111 272.457903 
L 155.417387 272.457903 
L 155.417387 268.693483 
L 158.864372 268.693483 
L 158.864372 264.929064 
L 160.507878 264.929064 
L 160.507878 261.164645 
L 160.507878 261.164645 
L 160.507878 257.400225 
L 160.507878 257.400225 
L 160.507878 253.635806 
L 165.155132 253.635806 
L 165.155132 249.871386 
L 169.430191 249.871386 
L 169.430191 246.106967 
L 170.782409 246.106967 
L 170.782409 242.342547 
L 174.645035 242.342547 
L 174.645035 238.578128 
L 182.700445 238.578128 
L 182.700445 234.813708 
L 291.303659 234.813708 
L 291.303659 231.049289 
L 294.294298 231.049289 
L 294.294298 227.28487 
L 296.113784 227.28487 
L 296.113784 223.52045 
L 296.748865 223.52045 
L 296.748865 219.756031 
L 296.87498 219.756031 
L 296.87498 215.991611 
L 297.251549 215.991611 
L 297.251549 212.227192 
L 297.501127 212.227192 
L 297.501127 208.462772 
L 298.242941 208.462772 
L 298.242941 204.698353 
L 298.48794 204.698353 
L 298.48794 200.933934 
L 298.974593 200.933934 
L 298.974593 197.169514 
L 300.17217 197.169514 
L 300.17217 193.405095 
L 302.828769 193.405095 
L 302.828769 189.640675 
L 303.053653 189.640675 
L 303.053653 185.876256 
L 303.943835 185.876256 
L 303.943835 182.111836 
L 306.843166 182.111836 
L 306.843166 178.347417 
L 356.632265 178.347417 
L 356.632265 174.582997 
L 359.398565 174.582997 
L 359.398565 170.818578 
L 359.437622 170.818578 
L 359.437622 167.054159 
L 359.437622 167.054159 
L 359.437622 163.289739 
L 360.058672 163.289739 
L 360.058672 159.52532 
L 360.786911 159.52532 
L 360.786911 155.7609 
L 360.862993 155.7609 
L 360.862993 151.996481 
L 361.279519 151.996481 
L 361.279519 148.232061 
L 362.62042 148.232061 
L 362.62042 144.467642 
L 363.856643 144.467642 
L 363.856643 140.703223 
L 365.554579 140.703223 
L 365.554579 136.938803 
L 365.901622 136.938803 
L 365.901622 133.174384 
L 368.401964 133.174384 
L 368.401964 129.409964 
L 368.599656 129.409964 
L 368.599656 125.645545 
L 369.706296 125.645545 
L 369.706296 121.881125 
L 369.706296 121.881125 
L 369.706296 121.881125 
L 450.672 121.881125 
" style="fill:none;stroke:#f5deb3;stroke-linecap:square;stroke-width:1.5;"/>
   </g>
   <g id="line2d_5">
    <path clip-path="url(#p8a7c878b75)" d="M 241.019772 291.28 
L 241.019772 287.515581 
L 252.578146 287.515581 
L 252.578146 283.751161 
L 253.15245 283.751161 
L 253.15245 279.986742 
L 255.115233 279.986742 
L 255.115233 276.222322 
L 261.099216 276.222322 
L 261.099216 272.457903 
L 261.099216 272.457903 
L 261.099216 268.693483 
L 261.832542 268.693483 
L 261.832542 264.929064 
L 265.582132 264.929064 
L 265.582132 261.164645 
L 274.903351 261.164645 
L 274.903351 257.400225 
L 277.680912 257.400225 
L 277.680912 253.635806 
L 282.011462 253.635806 
L 282.011462 249.871386 
L 284.609408 249.871386 
L 284.609408 246.106967 
L 286.171207 246.106967 
L 286.171207 242.342547 
L 295.341581 242.342547 
L 295.341581 238.578128 
L 309.493811 238.578128 
L 309.493811 234.813708 
L 312.302948 234.813708 
L 312.302948 231.049289 
L 313.238343 231.049289 
L 313.238343 227.28487 
L 313.238343 227.28487 
L 313.238343 223.52045 
L 314.157639 223.52045 
L 314.157639 219.756031 
L 315.418635 219.756031 
L 315.418635 215.991611 
L 316.737461 215.991611 
L 316.737461 212.227192 
L 317.513403 212.227192 
L 317.513403 208.462772 
L 317.769565 208.462772 
L 317.769565 204.698353 
L 318.109215 204.698353 
L 318.109215 200.933934 
L 319.446617 200.933934 
L 319.446617 197.169514 
L 319.446617 197.169514 
L 319.446617 193.405095 
L 320.589989 193.405095 
L 320.589989 189.640675 
L 321.630211 189.640675 
L 321.630211 185.876256 
L 322.260422 185.876256 
L 322.260422 182.111836 
L 327.832851 182.111836 
L 327.832851 178.347417 
L 461.8 178.347417 
" style="fill:none;stroke:#f5deb3;stroke-linecap:square;stroke-width:1.5;"/>
   </g>
   <g id="line2d_6"/>
   <g id="line2d_7">
    <path clip-path="url(#p8a7c878b75)" d="M 230.777819 291.28 
L 230.777819 287.515581 
L 232.487076 287.515581 
L 232.487076 283.751161 
L 236.535204 283.751161 
L 236.535204 279.986742 
L 238.449736 279.986742 
L 238.449736 276.222322 
L 239.566357 276.222322 
L 239.566357 272.457903 
L 242.084453 272.457903 
L 242.084453 264.929064 
L 242.78263 264.929064 
L 242.78263 261.164645 
L 243.128325 261.164645 
L 243.128325 257.400225 
L 243.813074 257.400225 
L 243.813074 253.635806 
L 245.816174 253.635806 
L 245.816174 249.871386 
L 247.111019 249.871386 
L 247.111019 246.106967 
L 247.429884 246.106967 
L 247.429884 242.342547 
L 248.375213 242.342547 
L 248.375213 238.578128 
L 251.9976 238.578128 
L 251.9976 234.813708 
L 330.716853 234.813708 
L 330.716853 231.049289 
L 331.05004 231.049289 
L 331.05004 227.28487 
L 331.710243 227.28487 
L 331.710243 223.52045 
L 332.037309 223.52045 
L 332.037309 219.756031 
L 332.685493 219.756031 
L 332.685493 215.991611 
L 333.198436 215.991611 
L 333.198436 212.227192 
L 333.706499 212.227192 
L 333.706499 208.462772 
L 334.209774 208.462772 
L 334.209774 204.698353 
L 334.646283 204.698353 
L 334.646283 200.933934 
L 334.832272 200.933934 
L 334.832272 197.169514 
L 336.537631 197.169514 
L 336.537631 193.405095 
L 336.836511 193.405095 
L 336.836511 189.640675 
L 337.370316 189.640675 
L 337.370316 185.876256 
L 339.340095 185.876256 
L 339.340095 182.111836 
L 340.632556 182.111836 
L 340.632556 178.347417 
L 387.21036 178.347417 
L 387.21036 174.582997 
L 387.741575 174.582997 
L 387.741575 170.818578 
L 387.85636 170.818578 
L 387.85636 167.054159 
L 388.403923 167.054159 
L 388.403923 163.289739 
L 389.058158 163.289739 
L 389.058158 159.52532 
L 389.859319 159.52532 
L 389.859319 155.7609 
L 390.123724 155.7609 
L 390.123724 151.996481 
L 390.408694 151.996481 
L 390.408694 148.232061 
L 391.103747 148.232061 
L 391.103747 144.467642 
L 391.853745 144.467642 
L 391.853745 140.703223 
L 393.364255 140.703223 
L 393.364255 136.938803 
L 393.7353 136.938803 
L 393.7353 133.174384 
L 394.833217 133.174384 
L 394.833217 129.409964 
L 396.321602 129.409964 
L 396.321602 125.645545 
L 433.0185 125.645545 
L 433.0185 121.881125 
L 461.8 121.881125 
L 461.8 121.881125 
" style="fill:none;stroke:#f5deb3;stroke-linecap:square;stroke-width:1.5;"/>
   </g>
   <g id="line2d_8">
    <path clip-path="url(#p8a7c878b75)" d="M 379.802551 291.28 
L 379.802551 287.515581 
L 381.093403 287.515581 
L 381.093403 283.751161 
L 381.765883 283.751161 
L 381.817264 276.222322 
L 381.919876 276.222322 
L 381.919876 272.457903 
L 382.226536 272.457903 
L 382.302926 264.929064 
L 382.353793 264.929064 
L 382.353793 261.164645 
L 383.361078 261.164645 
L 383.361078 257.400225 
L 383.535416 257.400225 
L 383.535416 253.635806 
L 384.374201 253.635806 
L 384.374201 249.871386 
L 384.545268 249.871386 
L 384.545268 246.106967 
L 386.036988 246.106967 
L 386.036988 242.342547 
L 401.449443 242.342547 
L 401.449443 238.578128 
L 401.59149 238.578128 
L 401.59149 234.813708 
L 461.8 234.813708 
L 461.8 234.813708 
" style="fill:none;stroke:#f5deb3;stroke-linecap:square;stroke-width:1.5;"/>
   </g>
   <g id="line2d_9">
    <path clip-path="url(#p8a7c878b75)" d="M 163.650533 291.28 
L 163.650533 287.515581 
L 169.430191 287.515581 
L 169.430191 283.751161 
L 173.388278 283.751161 
L 173.388278 279.986742 
L 179.395697 279.986742 
L 179.395697 276.222322 
L 180.520153 276.222322 
L 180.520153 272.457903 
L 193.321016 272.457903 
L 193.321016 268.693483 
L 196.713249 268.693483 
L 196.713249 264.929064 
L 204.356227 264.929064 
L 204.356227 261.164645 
L 204.356227 261.164645 
L 204.356227 257.400225 
L 207.803211 257.400225 
L 207.803211 253.635806 
L 207.803211 253.635806 
L 207.803211 249.871386 
L 211.041156 249.871386 
L 211.041156 246.106967 
L 211.665838 246.106967 
L 211.665838 242.342547 
L 212.283299 242.342547 
L 212.283299 238.578128 
L 212.893702 238.578128 
L 212.893702 234.813708 
L 319.529103 234.813708 
L 319.529103 231.049289 
L 319.7758 231.049289 
L 319.7758 227.28487 
L 321.312295 227.28487 
L 321.312295 223.52045 
L 322.883283 223.52045 
L 322.883283 219.756031 
L 323.498963 219.756031 
L 323.498963 215.991611 
L 323.651781 215.991611 
L 323.651781 212.227192 
L 324.559617 212.227192 
L 324.559617 208.462772 
L 325.082148 208.462772 
L 325.082148 204.698353 
L 325.304535 204.698353 
L 325.304535 200.933934 
L 326.619752 200.933934 
L 326.619752 197.169514 
L 326.83584 197.169514 
L 326.83584 193.405095 
L 328.044096 193.405095 
L 328.044096 189.640675 
L 331.44714 189.640675 
L 331.44714 185.876256 
L 331.513037 185.876256 
L 331.513037 182.111836 
L 331.972056 182.111836 
L 331.972056 178.347417 
L 377.653359 178.347417 
L 377.653359 174.582997 
L 378.588947 174.582997 
L 378.588947 170.818578 
L 378.697947 170.818578 
L 378.697947 167.054159 
L 378.915281 167.054159 
L 378.915281 163.289739 
L 380.041997 163.289739 
L 380.041997 159.52532 
L 382.073426 159.52532 
L 382.073426 155.7609 
L 383.386018 155.7609 
L 383.386018 151.996481 
L 384.982657 151.996481 
L 384.982657 148.232061 
L 385.15179 148.232061 
L 385.15179 144.467642 
L 385.46448 144.467642 
L 385.46448 140.703223 
L 386.462378 140.703223 
L 386.462378 136.938803 
L 387.303125 136.938803 
L 387.303125 133.174384 
L 387.580459 133.174384 
L 387.580459 129.409964 
L 387.741575 129.409964 
L 387.741575 125.645545 
L 390.079748 125.645545 
L 390.079748 121.881125 
L 461.8 121.881125 
" style="fill:none;stroke:#f5deb3;stroke-linecap:square;stroke-width:1.5;"/>
   </g>
   <g id="line2d_10">
    <path clip-path="url(#p8a7c878b75)" d="M 220.252692 291.28 
L 220.252692 287.515581 
L 229.90223 287.515581 
L 229.90223 283.751161 
L 230.341818 283.751161 
L 230.341818 272.457903 
L 232.064862 272.457903 
L 232.064862 268.693483 
L 233.32162 268.693483 
L 233.32162 264.929064 
L 238.824543 264.929064 
L 238.824543 261.164645 
L 239.566357 261.164645 
L 239.566357 257.400225 
L 246.790239 257.400225 
L 246.790239 253.635806 
L 250.518011 253.635806 
L 250.518011 249.871386 
L 259.34792 249.871386 
L 259.34792 246.106967 
L 259.601649 246.106967 
L 259.601649 242.342547 
L 268.44602 242.342547 
L 268.44602 238.578128 
L 269.507879 238.578128 
L 269.507879 234.813708 
L 461.8 234.813708 
L 461.8 234.813708 
" style="fill:none;stroke:#f5deb3;stroke-linecap:square;stroke-width:1.5;"/>
   </g>
   <g id="line2d_11">
    <path clip-path="url(#p8a7c878b75)" d="M 118.396584 291.28 
L 118.396584 287.515581 
L 133.761606 287.515581 
L 133.761606 283.751161 
L 136.367475 283.751161 
L 136.367475 279.986742 
L 136.367475 279.986742 
L 136.367475 276.222322 
L 136.367475 276.222322 
L 136.367475 272.457903 
L 138.852097 272.457903 
L 138.852097 268.693483 
L 138.852097 268.693483 
L 138.852097 264.929064 
L 141.226253 264.929064 
L 141.226253 261.164645 
L 141.226253 261.164645 
L 141.226253 257.400225 
L 149.790111 257.400225 
L 149.790111 253.635806 
L 149.790111 253.635806 
L 149.790111 249.871386 
L 160.507878 249.871386 
L 160.507878 246.106967 
L 160.507878 246.106967 
L 160.507878 242.342547 
L 166.618504 242.342547 
L 166.618504 238.578128 
L 168.042848 238.578128 
L 168.042848 234.813708 
L 283.32623 234.813708 
L 283.32623 231.049289 
L 287.538814 231.049289 
L 287.538814 227.28487 
L 287.538814 227.28487 
L 287.538814 223.52045 
L 287.98701 223.52045 
L 287.98701 219.756031 
L 289.018403 219.756031 
L 289.018403 215.991611 
L 289.886873 215.991611 
L 289.886873 212.227192 
L 290.030255 212.227192 
L 290.030255 208.462772 
L 291.023293 208.462772 
L 291.023293 204.698353 
L 291.303659 204.698353 
L 291.303659 200.933934 
L 293.896211 200.933934 
L 293.896211 197.169514 
L 293.896211 197.169514 
L 293.896211 193.405095 
L 294.951253 193.405095 
L 294.951253 189.640675 
L 295.211788 189.640675 
L 295.211788 185.876256 
L 297.501127 185.876256 
L 297.501127 182.111836 
L 297.873322 182.111836 
L 297.873322 178.347417 
L 461.8 178.347417 
" style="fill:none;stroke:#f5deb3;stroke-linecap:square;stroke-width:1.5;"/>
   </g>
   <g id="line2d_12">
    <path clip-path="url(#p8a7c878b75)" d="M 110.753607 291.28 
L 110.753607 287.515581 
L 110.753607 287.515581 
L 110.753607 283.751161 
L 110.753607 283.751161 
L 110.753607 279.986742 
L 110.753607 279.986742 
L 110.753607 276.222322 
L 110.753607 276.222322 
L 110.753607 272.457903 
L 110.753607 272.457903 
L 110.753607 268.693483 
L 110.753607 268.693483 
L 110.753607 264.929064 
L 110.753607 264.929064 
L 110.753607 261.164645 
L 110.753607 261.164645 
L 110.753607 257.400225 
L 110.753607 257.400225 
L 110.753607 253.635806 
L 110.753607 253.635806 
L 110.753607 249.871386 
L 110.753607 249.871386 
L 110.753607 246.106967 
L 110.753607 246.106967 
L 110.753607 242.342547 
L 110.753607 242.342547 
L 110.753607 238.578128 
L 110.753607 238.578128 
L 110.753607 234.813708 
L 131.022045 234.813708 
L 131.022045 231.049289 
L 131.022045 231.049289 
L 131.022045 227.28487 
L 145.679642 227.28487 
L 145.679642 223.52045 
L 157.168683 223.52045 
L 157.168683 219.756031 
L 157.168683 219.756031 
L 157.168683 215.991611 
L 157.168683 215.991611 
L 157.168683 212.227192 
L 157.168683 212.227192 
L 157.168683 208.462772 
L 157.168683 208.462772 
L 157.168683 204.698353 
L 157.168683 204.698353 
L 157.168683 200.933934 
L 157.168683 200.933934 
L 157.168683 197.169514 
L 157.168683 197.169514 
L 157.168683 193.405095 
L 166.618504 193.405095 
L 166.618504 189.640675 
L 166.618504 189.640675 
L 166.618504 185.876256 
L 166.618504 185.876256 
L 166.618504 182.111836 
L 174.645035 182.111836 
L 174.645035 178.347417 
L 306.843166 178.347417 
L 306.843166 174.582997 
L 308.082905 174.582997 
L 308.082905 170.818578 
L 309.29452 170.818578 
L 309.29452 167.054159 
L 309.890174 167.054159 
L 309.890174 163.289739 
L 312.208501 163.289739 
L 312.208501 159.52532 
L 319.115393 159.52532 
L 319.115393 155.7609 
L 320.102966 155.7609 
L 320.102966 151.996481 
L 323.345707 151.996481 
L 323.345707 148.232061 
L 323.880191 148.232061 
L 323.880191 144.467642 
L 323.880191 144.467642 
L 323.880191 140.703223 
L 329.499869 140.703223 
L 329.499869 136.938803 
L 330.716853 136.938803 
L 330.716853 133.174384 
L 331.05004 133.174384 
L 331.05004 129.409964 
L 339.226215 129.409964 
L 339.226215 125.645545 
L 339.56713 125.645545 
L 339.56713 121.881125 
L 339.56713 121.881125 
L 339.56713 121.881125 
L 450.672 121.881125 
" style="fill:none;stroke:#f5deb3;stroke-linecap:square;stroke-width:1.5;"/>
   </g>
   <g id="line2d_13">
    <path clip-path="url(#p8a7c878b75)" d="M 285.082762 291.28 
L 285.082762 287.515581 
L 285.082762 287.515581 
L 285.082762 283.751161 
L 285.082762 283.751161 
L 285.082762 279.986742 
L 289.598949 279.986742 
L 289.598949 276.222322 
L 289.598949 276.222322 
L 289.598949 272.457903 
L 289.598949 272.457903 
L 289.598949 268.693483 
L 290.030255 268.693483 
L 290.030255 264.929064 
L 290.030255 264.929064 
L 290.030255 261.164645 
L 290.030255 261.164645 
L 290.030255 257.400225 
L 299.576738 257.400225 
L 299.576738 253.635806 
L 299.576738 253.635806 
L 299.576738 249.871386 
L 299.576738 249.871386 
L 299.576738 246.106967 
L 305.573964 246.106967 
L 305.573964 242.342547 
L 305.573964 242.342547 
L 305.573964 238.578128 
L 305.573964 238.578128 
L 305.573964 234.813708 
L 397.079475 234.813708 
L 397.079475 231.049289 
L 398.601223 231.049289 
L 398.601223 227.28487 
L 398.601223 227.28487 
L 398.601223 223.52045 
L 399.34614 223.52045 
L 399.34614 219.756031 
L 401.644661 219.756031 
L 401.644661 215.991611 
L 401.644661 215.991611 
L 401.644661 212.227192 
L 403.575657 212.227192 
L 403.575657 208.462772 
L 403.575657 208.462772 
L 403.575657 204.698353 
L 403.609818 204.698353 
L 403.609818 200.933934 
L 403.609818 200.933934 
L 403.609818 197.169514 
L 403.609818 197.169514 
L 403.609818 193.405095 
L 404.439994 193.405095 
L 404.439994 189.640675 
L 404.439994 189.640675 
L 404.439994 185.876256 
L 406.92003 185.876256 
L 406.92003 182.111836 
L 409.930924 182.111836 
L 409.930924 178.347417 
L 418.541953 178.347417 
L 418.541953 174.582997 
L 418.541953 174.582997 
L 418.541953 170.818578 
L 419.463495 170.818578 
L 419.463495 167.054159 
L 419.463495 167.054159 
L 419.463495 163.289739 
L 419.476183 163.289739 
L 419.476183 159.52532 
L 419.564914 159.52532 
L 419.564914 155.7609 
L 420.866129 155.7609 
L 420.866129 151.996481 
L 421.456162 151.996481 
L 421.456162 148.232061 
L 421.456162 148.232061 
L 421.456162 144.467642 
L 421.456162 144.467642 
L 421.456162 140.703223 
L 421.894448 140.703223 
L 421.894448 136.938803 
L 427.495043 136.938803 
L 427.495043 133.174384 
L 427.495043 133.174384 
L 427.495043 129.409964 
L 432.464309 129.409964 
L 432.464309 125.645545 
L 432.464309 125.645545 
L 432.464309 121.881125 
L 432.464309 121.881125 
L 432.464309 121.881125 
L 450.672 121.881125 
" style="fill:none;stroke:#f5deb3;stroke-linecap:square;stroke-width:1.5;"/>
   </g>
   <g id="line2d_14">
    <path clip-path="url(#p8a7c878b75)" d="M 163.650533 291.28 
L 163.650533 287.515581 
L 163.650533 287.515581 
L 163.650533 283.751161 
L 165.155132 283.751161 
L 165.155132 279.986742 
L 168.042848 279.986742 
L 168.042848 276.222322 
L 172.101234 276.222322 
L 172.101234 272.457903 
L 172.101234 272.457903 
L 172.101234 268.693483 
L 172.101234 268.693483 
L 172.101234 264.929064 
L 175.872899 264.929064 
L 175.872899 261.164645 
L 178.247056 261.164645 
L 178.247056 257.400225 
L 178.247056 257.400225 
L 178.247056 253.635806 
L 178.247056 253.635806 
L 178.247056 249.871386 
L 178.247056 249.871386 
L 178.247056 246.106967 
L 178.247056 246.106967 
L 178.247056 242.342547 
L 178.247056 242.342547 
L 178.247056 238.578128 
L 178.247056 238.578128 
L 178.247056 234.813708 
L 243.471797 234.813708 
L 243.471797 231.049289 
L 247.111019 231.049289 
L 247.111019 227.28487 
L 250.217111 227.28487 
L 250.217111 223.52045 
L 251.9976 223.52045 
L 251.9976 219.756031 
L 251.9976 219.756031 
L 251.9976 215.991611 
L 253.15245 215.991611 
L 253.15245 212.227192 
L 253.720644 212.227192 
L 253.720644 208.462772 
L 254.282857 208.462772 
L 254.282857 204.698353 
L 256.474332 204.698353 
L 256.474332 200.933934 
L 257.537248 200.933934 
L 257.537248 197.169514 
L 259.854177 197.169514 
L 259.854177 193.405095 
L 260.604678 193.405095 
L 260.604678 189.640675 
L 262.315891 189.640675 
L 262.315891 185.876256 
L 262.315891 185.876256 
L 262.315891 182.111836 
L 270.754855 182.111836 
L 270.754855 178.347417 
L 385.53638 178.347417 
L 385.53638 174.582997 
L 393.673638 174.582997 
L 393.673638 170.818578 
L 408.345218 170.818578 
L 408.345218 167.054159 
L 428.543705 167.054159 
L 428.543705 163.289739 
L 440.767044 163.289739 
L 440.767044 159.52532 
L 441.199583 159.52532 
L 441.199583 155.7609 
L 442.360982 155.7609 
L 442.360982 151.996481 
L 445.201696 151.996481 
L 445.201696 148.232061 
L 461.8 148.232061 
" style="fill:none;stroke:#f5deb3;stroke-linecap:square;stroke-width:1.5;"/>
   </g>
   <g id="line2d_15">
    <path clip-path="url(#p8a7c878b75)" style="fill:none;stroke:#f5deb3;stroke-linecap:square;stroke-width:1.5;"/>
   </g>
   <g id="line2d_16">
    <path clip-path="url(#p8a7c878b75)" d="M 307.466633 291.28 
L 307.466633 287.515581 
L 312.866149 287.515581 
L 312.866149 279.986742 
L 318.193791 279.986742 
L 318.193791 276.222322 
L 321.550909 276.222322 
L 321.550909 272.457903 
L 323.037869 272.457903 
L 323.114995 261.164645 
L 323.19201 261.164645 
L 323.268914 253.635806 
L 323.651781 253.635806 
L 323.651781 249.871386 
L 325.304535 249.871386 
L 325.304535 246.106967 
L 325.45228 246.106967 
L 325.45228 242.342547 
L 329.225621 242.342547 
L 329.225621 238.578128 
L 334.894125 238.578128 
L 334.894125 234.813708 
L 372.376553 234.813708 
L 372.376553 231.049289 
L 374.33207 231.049289 
L 374.33207 227.28487 
L 375.327129 227.28487 
L 375.327129 223.52045 
L 375.558591 223.52045 
L 375.558591 219.756031 
L 375.989897 219.756031 
L 375.989897 215.991611 
L 378.260608 215.991611 
L 378.260608 212.227192 
L 380.465046 212.227192 
L 380.465046 208.462772 
L 380.780149 208.462772 
L 380.780149 204.698353 
L 382.404611 204.698353 
L 382.404611 200.933934 
L 383.286187 200.933934 
L 383.286187 197.169514 
L 383.832964 197.169514 
L 383.832964 193.405095 
L 384.496448 193.405095 
L 384.496448 189.640675 
L 384.885769 189.640675 
L 384.885769 185.876256 
L 386.084421 185.876256 
L 386.084421 182.111836 
L 386.273734 182.111836 
L 386.273734 178.347417 
L 386.415279 178.347417 
L 386.415279 174.582997 
L 387.187143 174.582997 
L 387.187143 170.818578 
L 387.603505 170.818578 
L 387.603505 167.054159 
L 389.770892 167.054159 
L 389.770892 163.289739 
L 391.06057 163.289739 
L 391.06057 159.52532 
L 392.171977 159.52532 
L 392.171977 155.7609 
L 393.260727 155.7609 
L 393.260727 151.996481 
L 394.164954 151.996481 
L 394.164954 148.232061 
L 396.302027 148.232061 
L 396.380283 140.703223 
L 396.458425 140.703223 
L 396.458425 136.938803 
L 397.291304 136.938803 
L 397.291304 133.174384 
L 397.750581 133.174384 
L 397.807714 125.645545 
L 398.35687 125.645545 
L 398.35687 121.881125 
L 398.844462 121.881125 
L 398.844462 118.116706 
L 399.659611 118.116706 
L 399.659611 114.352287 
L 400.571062 114.352287 
L 400.571062 110.587867 
L 401.360471 110.587867 
L 401.360471 106.823448 
L 401.626943 106.823448 
L 401.626943 103.059028 
L 403.25004 103.059028 
L 403.25004 99.294609 
L 403.76327 99.294609 
L 403.76327 95.530189 
L 404.271615 95.530189 
L 404.271615 91.76577 
L 406.257951 91.76577 
L 406.257951 88.00135 
L 409.763805 88.00135 
L 409.763805 84.236931 
L 412.071762 84.236931 
L 412.071762 80.472512 
L 421.247937 80.472512 
L 421.247937 76.708092 
L 433.234655 76.708092 
L 433.234655 72.943673 
L 433.751826 72.943673 
L 433.751826 69.179253 
L 461.8 69.179253 
L 461.8 69.179253 
" style="fill:none;stroke:#f5deb3;stroke-linecap:square;stroke-width:1.5;"/>
   </g>
   <g id="line2d_17">
    <path clip-path="url(#p8a7c878b75)" d="M 230.341818 291.28 
L 230.341818 287.515581 
L 236.143922 287.515581 
L 236.143922 283.751161 
L 248.686641 283.751161 
L 248.686641 279.986742 
L 259.854177 279.986742 
L 259.854177 276.222322 
L 261.589217 276.222322 
L 261.589217 272.457903 
L 276.58716 272.457903 
L 276.58716 268.693483 
L 281.172988 268.693483 
L 281.172988 264.929064 
L 281.341739 264.929064 
L 281.341739 261.164645 
L 284.450687 261.164645 
L 284.450687 257.400225 
L 298.974593 257.400225 
L 298.974593 253.635806 
L 310.283618 253.635806 
L 310.283618 249.871386 
L 310.965246 249.871386 
L 310.965246 246.106967 
L 311.446852 246.106967 
L 311.446852 242.342547 
L 341.239805 242.342547 
L 341.239805 238.578128 
L 341.622672 238.578128 
L 341.622672 234.813708 
L 446.921381 234.813708 
L 446.921381 231.049289 
L 447.921268 231.049289 
L 447.921268 227.28487 
L 449.325224 227.28487 
L 449.325224 223.52045 
L 450.664925 223.52045 
L 450.664925 219.756031 
L 451.360805 219.756031 
L 451.360805 215.991611 
L 452.582796 215.991611 
L 452.582796 212.227192 
L 452.732747 212.227192 
L 452.732747 208.462772 
L 455.775351 208.462772 
L 455.775351 204.698353 
L 457.377732 204.698353 
L 457.377732 200.933934 
L 457.577022 200.933934 
L 457.577022 197.169514 
L 460.090456 197.169514 
L 460.090456 193.405095 
L 460.291712 193.405095 
L 460.291712 189.640675 
L 460.586306 189.640675 
L 460.586306 185.876256 
L 461.788925 185.876256 
L 461.788925 182.111836 
L 461.8 182.111836 
" style="fill:none;stroke:#f5deb3;stroke-linecap:square;stroke-width:1.5;"/>
   </g>
   <g id="line2d_18">
    <path clip-path="url(#p8a7c878b75)" d="M 106.478548 291.28 
L 106.478548 287.515581 
L 106.478548 287.515581 
L 106.478548 283.751161 
L 106.478548 283.751161 
L 106.478548 279.986742 
L 106.478548 279.986742 
L 106.478548 276.222322 
L 106.478548 276.222322 
L 106.478548 272.457903 
L 106.478548 272.457903 
L 106.478548 268.693483 
L 106.478548 268.693483 
L 106.478548 264.929064 
L 106.478548 264.929064 
L 106.478548 261.164645 
L 106.478548 261.164645 
L 106.478548 257.400225 
L 106.478548 257.400225 
L 106.478548 253.635806 
L 106.478548 253.635806 
L 106.478548 249.871386 
L 106.478548 249.871386 
L 106.478548 246.106967 
L 106.478548 246.106967 
L 106.478548 242.342547 
L 106.478548 242.342547 
L 106.478548 238.578128 
L 106.478548 238.578128 
L 106.478548 234.813708 
L 110.753607 234.813708 
L 110.753607 231.049289 
L 110.753607 231.049289 
L 110.753607 227.28487 
L 110.753607 227.28487 
L 110.753607 223.52045 
L 110.753607 223.52045 
L 110.753607 219.756031 
L 110.753607 219.756031 
L 110.753607 215.991611 
L 114.711694 215.991611 
L 114.711694 212.227192 
L 118.396584 212.227192 
L 118.396584 208.462772 
L 121.843569 208.462772 
L 121.843569 204.698353 
L 121.843569 204.698353 
L 121.843569 200.933934 
L 125.081514 200.933934 
L 125.081514 197.169514 
L 125.081514 197.169514 
L 125.081514 193.405095 
L 125.081514 193.405095 
L 125.081514 189.640675 
L 125.081514 189.640675 
L 125.081514 185.876256 
L 128.134329 185.876256 
L 128.134329 182.111836 
L 136.367475 182.111836 
L 136.367475 178.347417 
L 461.8 178.347417 
" style="fill:none;stroke:#f5deb3;stroke-linecap:square;stroke-width:1.5;"/>
   </g>
   <g id="line2d_19">
    <path clip-path="url(#p8a7c878b75)" d="M 325.378458 291.28 
L 325.378458 287.515581 
L 334.708352 287.515581 
L 334.708352 283.751161 
L 344.590643 283.751161 
L 344.590643 279.986742 
L 360.097249 279.986742 
L 360.097249 276.222322 
L 360.938967 276.222322 
L 360.938967 272.457903 
L 363.604455 272.457903 
L 363.604455 268.693483 
L 367.469601 268.693483 
L 367.469601 264.929064 
L 369.7385 264.929064 
L 369.7385 261.164645 
L 371.355658 261.164645 
L 371.355658 257.400225 
L 374.538456 257.400225 
L 374.538456 253.635806 
L 376.926685 253.635806 
L 376.926685 249.871386 
L 379.61557 249.871386 
L 379.61557 246.106967 
L 380.858635 246.106967 
L 380.858635 242.342547 
L 387.993778 242.342547 
L 387.993778 238.578128 
L 397.425668 238.578128 
L 397.425668 234.813708 
L 461.8 234.813708 
L 461.8 234.813708 
" style="fill:none;stroke:#f5deb3;stroke-linecap:square;stroke-width:1.5;"/>
   </g>
   <g id="line2d_20">
    <path clip-path="url(#p8a7c878b75)" d="M 118.396584 291.28 
L 118.396584 287.515581 
L 125.081514 287.515581 
L 125.081514 283.751161 
L 128.134329 283.751161 
L 128.134329 279.986742 
L 128.134329 279.986742 
L 128.134329 276.222322 
L 136.367475 276.222322 
L 136.367475 272.457903 
L 141.226253 272.457903 
L 141.226253 268.693483 
L 143.499351 268.693483 
L 143.499351 264.929064 
L 147.77441 264.929064 
L 147.77441 261.164645 
L 149.790111 261.164645 
L 149.790111 257.400225 
L 149.790111 257.400225 
L 149.790111 253.635806 
L 151.732497 253.635806 
L 151.732497 249.871386 
L 155.417387 249.871386 
L 155.417387 246.106967 
L 158.864372 246.106967 
L 158.864372 242.342547 
L 160.507878 242.342547 
L 160.507878 238.578128 
L 165.155132 238.578128 
L 165.155132 234.813708 
L 254.561759 234.813708 
L 254.561759 231.049289 
L 259.34792 231.049289 
L 259.34792 227.28487 
L 259.601649 227.28487 
L 259.601649 223.52045 
L 260.355681 223.52045 
L 260.355681 219.756031 
L 261.344778 219.756031 
L 261.344778 215.991611 
L 262.555935 215.991611 
L 262.555935 212.227192 
L 263.505466 212.227192 
L 263.505466 208.462772 
L 264.206698 208.462772 
L 264.206698 204.698353 
L 266.25679 204.698353 
L 266.25679 200.933934 
L 266.701874 200.933934 
L 266.701874 197.169514 
L 269.085665 197.169514 
L 269.085665 193.405095 
L 270.342423 193.405095 
L 270.342423 189.640675 
L 272.572375 189.640675 
L 272.572375 185.876256 
L 275.470539 185.876256 
L 275.470539 182.111836 
L 275.658271 182.111836 
L 275.658271 178.347417 
L 297.251549 178.347417 
L 297.251549 174.582997 
L 311.829034 174.582997 
L 311.829034 170.818578 
L 315.329545 170.818578 
L 315.329545 167.054159 
L 317.341943 167.054159 
L 317.341943 163.289739 
L 324.858832 163.289739 
L 324.858832 159.52532 
L 325.45228 159.52532 
L 325.45228 155.7609 
L 328.394325 155.7609 
L 328.394325 151.996481 
L 334.52193 151.996481 
L 334.52193 148.232061 
L 336.297317 148.232061 
L 336.297317 144.467642 
L 347.451218 144.467642 
L 347.451218 140.703223 
L 350.995844 140.703223 
L 350.995844 136.938803 
L 355.84468 136.938803 
L 355.84468 133.174384 
L 361.279519 133.174384 
L 361.279519 129.409964 
L 372.007573 129.409964 
L 372.007573 125.645545 
L 379.3742 125.645545 
L 379.3742 121.881125 
L 455.549844 121.881125 
L 455.549844 118.116706 
L 461.8 118.116706 
" style="fill:none;stroke:#f5deb3;stroke-linecap:square;stroke-width:1.5;"/>
   </g>
   <g id="line2d_21">
    <path clip-path="url(#p8a7c878b75)" d="M 356.919525 291.28 
L 357.001317 272.457903 
L 357.042165 272.457903 
L 357.123769 261.164645 
L 357.164524 261.164645 
L 357.245942 249.871386 
L 367.83783 249.871386 
L 367.87118 193.405095 
L 368.335904 193.405095 
L 368.401964 136.938803 
L 368.796619 136.938803 
L 368.894829 121.881125 
L 369.058112 121.881125 
L 369.058112 118.116706 
L 369.188379 118.116706 
L 369.285872 103.059028 
L 369.350768 103.059028 
L 369.415586 95.530189 
L 369.512665 95.530189 
L 369.577287 88.00135 
L 369.802849 88.00135 
L 369.802849 84.236931 
L 369.963383 84.236931 
L 369.963383 72.943673 
L 370.251134 72.943673 
L 370.346708 65.414834 
L 370.410329 65.414834 
L 370.410329 61.650414 
L 375.731532 61.650414 
L 375.731532 57.885995 
L 375.846515 57.885995 
L 375.846515 50.357156 
L 378.205688 50.357156 
L 378.205688 46.592737 
L 378.370279 46.592737 
L 378.370279 35.299478 
L 378.806724 35.299478 
L 378.806724 27.770639 
L 379.050667 27.770639 
L 379.050667 20.241801 
L 379.050667 20.241801 
L 450.672 20.241801 
L 450.672 20.241801 
" style="fill:none;stroke:#f5deb3;stroke-linecap:square;stroke-width:1.5;"/>
   </g>
   <g id="line2d_22">
    <path clip-path="url(#p8a7c878b75)" d="M 128.134329 291.28 
L 128.134329 287.515581 
L 128.134329 287.515581 
L 128.134329 283.751161 
L 136.367475 283.751161 
L 136.367475 279.986742 
L 138.852097 279.986742 
L 138.852097 276.222322 
L 145.679642 276.222322 
L 145.679642 272.457903 
L 145.679642 272.457903 
L 145.679642 268.693483 
L 145.679642 268.693483 
L 145.679642 264.929064 
L 151.732497 264.929064 
L 151.732497 261.164645 
L 165.155132 261.164645 
L 165.155132 257.400225 
L 172.101234 257.400225 
L 172.101234 253.635806 
L 173.388278 253.635806 
L 173.388278 249.871386 
L 179.395697 249.871386 
L 179.395697 246.106967 
L 181.621424 246.106967 
L 181.621424 242.342547 
L 224.811739 242.342547 
L 224.811739 238.578128 
L 233.734052 238.578128 
L 233.734052 234.813708 
L 258.579422 234.813708 
L 258.579422 231.049289 
L 259.601649 231.049289 
L 259.601649 227.28487 
L 260.355681 227.28487 
L 260.355681 223.52045 
L 261.832542 223.52045 
L 261.832542 219.756031 
L 263.032811 219.756031 
L 263.032811 215.991611 
L 263.973976 215.991611 
L 263.973976 212.227192 
L 264.206698 212.227192 
L 264.206698 208.462772 
L 264.669123 208.462772 
L 264.669123 204.698353 
L 264.898843 204.698353 
L 264.898843 200.933934 
L 267.143279 200.933934 
L 267.143279 197.169514 
L 267.581066 197.169514 
L 267.581066 193.405095 
L 269.085665 193.405095 
L 269.085665 189.640675 
L 269.297189 189.640675 
L 269.297189 185.876256 
L 270.959883 185.876256 
L 270.959883 182.111836 
L 274.330075 182.111836 
L 274.330075 178.347417 
L 308.893695 178.347417 
L 308.893695 174.582997 
L 314.520971 174.582997 
L 314.520971 170.818578 
L 316.650545 170.818578 
L 316.650545 167.054159 
L 317.684314 167.054159 
L 317.684314 163.289739 
L 320.589989 163.289739 
L 320.589989 159.52532 
L 323.037869 159.52532 
L 323.037869 155.7609 
L 330.314265 155.7609 
L 330.314265 151.996481 
L 334.770348 151.996481 
L 334.770348 148.232061 
L 335.508743 148.232061 
L 335.508743 144.467642 
L 336.836511 144.467642 
L 336.836511 140.703223 
L 338.653144 140.703223 
L 338.653144 136.938803 
L 338.653144 136.938803 
L 338.653144 133.174384 
L 339.453733 133.174384 
L 339.453733 129.409964 
L 339.793203 129.409964 
L 339.793203 125.645545 
L 370.346708 125.645545 
L 370.346708 121.881125 
L 461.8 121.881125 
" style="fill:none;stroke:#f5deb3;stroke-linecap:square;stroke-width:1.5;"/>
   </g>
   <g id="line2d_23">
    <path clip-path="url(#p8a7c878b75)" d="M 208.466695 291.28 
L 208.466695 287.515581 
L 227.64832 287.515581 
L 227.64832 283.751161 
L 229.90223 283.751161 
L 229.90223 279.986742 
L 231.210288 279.986742 
L 231.210288 276.222322 
L 238.072281 276.222322 
L 238.072281 272.457903 
L 238.072281 272.457903 
L 238.072281 268.693483 
L 243.813074 268.693483 
L 243.813074 264.929064 
L 244.152185 264.929064 
L 244.152185 261.164645 
L 245.487498 261.164645 
L 245.487498 257.400225 
L 245.816174 257.400225 
L 245.816174 253.635806 
L 246.14284 253.635806 
L 246.14284 249.871386 
L 255.115233 249.871386 
L 255.115233 246.106967 
L 261.099216 246.106967 
L 261.099216 242.342547 
L 265.127578 242.342547 
L 265.127578 238.578128 
L 274.903351 238.578128 
L 274.903351 234.813708 
L 433.136511 234.813708 
L 433.136511 231.049289 
L 438.470246 231.049289 
L 438.470246 227.28487 
L 438.603426 227.28487 
L 438.603426 223.52045 
L 440.305212 223.52045 
L 440.305212 219.756031 
L 440.818113 219.756031 
L 440.818113 215.991611 
L 441.191135 215.991611 
L 441.191135 212.227192 
L 441.887775 212.227192 
L 441.887775 208.462772 
L 443.148605 208.462772 
L 443.148605 204.698353 
L 443.400481 204.698353 
L 443.400481 200.933934 
L 444.212964 200.933934 
L 444.212964 197.169514 
L 446.464103 197.169514 
L 446.464103 193.405095 
L 447.7721 193.405095 
L 447.7721 189.640675 
L 447.951052 189.640675 
L 447.951052 185.876256 
L 448.055165 185.876256 
L 448.055165 182.111836 
L 452.841538 182.111836 
L 452.841538 178.347417 
L 459.199426 178.347417 
L 459.199426 174.582997 
L 461.8 174.582997 
" style="fill:none;stroke:#f5deb3;stroke-linecap:square;stroke-width:1.5;"/>
   </g>
   <g id="line2d_24">
    <path clip-path="url(#p8a7c878b75)" d="M 257.537248 291.28 
L 257.537248 287.515581 
L 257.537248 287.515581 
L 257.537248 283.751161 
L 257.799704 283.751161 
L 257.799704 279.986742 
L 268.015294 279.986742 
L 268.015294 276.222322 
L 268.015294 276.222322 
L 268.015294 272.457903 
L 268.231091 272.457903 
L 268.231091 268.693483 
L 277.680912 268.693483 
L 277.680912 264.929064 
L 277.680912 264.929064 
L 277.680912 261.164645 
L 277.861047 261.164645 
L 277.861047 257.400225 
L 278.040575 257.400225 
L 278.040575 253.635806 
L 285.86248 253.635806 
L 285.86248 249.871386 
L 285.86248 249.871386 
L 285.86248 246.106967 
L 286.017067 246.106967 
L 286.017067 242.342547 
L 286.171207 242.342547 
L 286.171207 238.578128 
L 299.216266 238.578128 
L 299.216266 234.813708 
L 354.534206 234.813708 
L 354.534206 231.049289 
L 359.826624 231.049289 
L 359.826624 227.28487 
L 359.904085 227.28487 
L 359.904085 223.52045 
L 363.712681 223.52045 
L 363.712681 219.756031 
L 364.286214 219.756031 
L 364.286214 215.991611 
L 364.818365 215.991611 
L 364.818365 212.227192 
L 365.064898 212.227192 
L 365.064898 208.462772 
L 368.500902 208.462772 
L 368.500902 204.698353 
L 368.992858 204.698353 
L 368.992858 200.933934 
L 369.609568 200.933934 
L 369.609568 197.169514 
L 370.885085 197.169514 
L 370.885085 193.405095 
L 371.386883 193.405095 
L 371.386883 189.640675 
L 372.223121 189.640675 
L 372.223121 185.876256 
L 378.697947 185.876256 
L 378.697947 182.111836 
L 380.306795 182.111836 
L 380.306795 178.347417 
L 381.765883 178.347417 
L 381.765883 174.582997 
L 382.277475 174.582997 
L 382.277475 170.818578 
L 386.20282 170.818578 
L 386.20282 167.054159 
L 389.013295 167.054159 
L 389.013295 163.289739 
L 389.237235 163.289739 
L 389.237235 159.52532 
L 391.981266 159.52532 
L 391.981266 155.7609 
L 392.171977 155.7609 
L 392.171977 151.996481 
L 392.635313 151.996481 
L 392.635313 148.232061 
L 394.651791 148.232061 
L 394.651791 144.467642 
L 395.691624 144.467642 
L 395.691624 140.703223 
L 396.0469 140.703223 
L 396.0469 136.938803 
L 396.808654 136.938803 
L 396.808654 133.174384 
L 396.982911 133.174384 
L 396.982911 129.409964 
L 397.214373 129.409964 
L 397.214373 125.645545 
L 399.916389 125.645545 
L 399.916389 121.881125 
L 461.8 121.881125 
" style="fill:none;stroke:#f5deb3;stroke-linecap:square;stroke-width:1.5;"/>
   </g>
   <g id="line2d_25">
    <path clip-path="url(#p8a7c878b75)" d="M 221.299976 291.28 
L 221.299976 287.515581 
L 230.341818 287.515581 
L 230.341818 283.751161 
L 232.487076 283.751161 
L 232.487076 279.986742 
L 237.692139 279.986742 
L 237.692139 276.222322 
L 238.824543 276.222322 
L 238.824543 272.457903 
L 245.487498 272.457903 
L 245.487498 268.693483 
L 245.816174 268.693483 
L 245.816174 264.929064 
L 246.46752 264.929064 
L 246.46752 261.164645 
L 246.46752 261.164645 
L 246.46752 257.400225 
L 247.429884 257.400225 
L 247.429884 253.635806 
L 249.610175 253.635806 
L 249.610175 249.871386 
L 250.817226 249.871386 
L 250.817226 246.106967 
L 262.794905 246.106967 
L 262.794905 242.342547 
L 263.505466 242.342547 
L 263.505466 238.578128 
L 264.438411 238.578128 
L 264.438411 234.813708 
L 461.8 234.813708 
" style="fill:none;stroke:#f5deb3;stroke-linecap:square;stroke-width:1.5;"/>
   </g>
   <g id="line2d_26">
    <path clip-path="url(#p8a7c878b75)" d="M 317.85468 291.28 
L 317.85468 287.515581 
L 318.193791 287.515581 
L 318.193791 283.751161 
L 318.446718 283.751161 
L 318.446718 279.986742 
L 320.831844 279.986742 
L 320.831844 276.222322 
L 322.805821 276.222322 
L 322.805821 272.457903 
L 323.114995 272.457903 
L 323.114995 268.693483 
L 323.268914 268.693483 
L 323.345707 257.400225 
L 325.525999 257.400225 
L 325.525999 253.635806 
L 326.039206 253.635806 
L 326.039206 249.871386 
L 328.044096 249.871386 
L 328.044096 246.106967 
L 328.464096 246.106967 
L 328.464096 242.342547 
L 329.636467 242.342547 
L 329.636467 238.578128 
L 329.840711 238.578128 
L 329.840711 234.813708 
L 370.600738 234.813708 
L 370.600738 231.049289 
L 370.979532 231.049289 
L 370.979532 227.28487 
L 371.355658 227.28487 
L 371.355658 223.52045 
L 371.822122 223.52045 
L 371.822122 219.756031 
L 373.618344 219.756031 
L 373.618344 215.991611 
L 374.450103 215.991611 
L 374.450103 212.227192 
L 375.989897 212.227192 
L 375.989897 204.698353 
L 376.104326 204.698353 
L 376.104326 200.933934 
L 376.474536 200.933934 
L 376.502908 189.640675 
L 376.672822 189.640675 
L 376.672822 185.876256 
L 377.48654 185.876256 
L 377.48654 182.111836 
L 377.957846 182.111836 
L 377.957846 178.347417 
L 378.452384 178.347417 
L 378.452384 174.582997 
L 394.083381 174.582997 
L 394.083381 170.818578 
L 398.469787 170.818578 
L 398.469787 167.054159 
L 398.638716 167.054159 
L 398.638716 163.289739 
L 399.420064 163.289739 
L 399.420064 159.52532 
L 411.293759 159.52532 
L 411.293759 155.7609 
L 429.086913 155.7609 
L 429.086913 151.996481 
L 433.371754 151.996481 
L 433.371754 148.232061 
L 434.580498 148.232061 
L 434.580498 144.467642 
L 438.434675 144.467642 
L 438.434675 140.703223 
L 439.044977 140.703223 
L 439.044977 136.938803 
L 439.430546 136.938803 
L 439.430546 133.174384 
L 439.648385 133.174384 
L 439.648385 129.409964 
L 439.917277 129.409964 
L 439.969165 121.881125 
L 440.098664 121.881125 
L 440.098664 118.116706 
L 440.245051 118.116706 
L 440.245051 114.352287 
L 440.416759 114.352287 
L 440.416759 110.587867 
L 442.344449 110.587867 
L 442.344449 106.823448 
L 443.132314 106.823448 
L 443.132314 103.059028 
L 446.662737 103.059028 
L 446.662737 99.294609 
L 461.8 99.294609 
L 461.8 99.294609 
" style="fill:none;stroke:#f5deb3;stroke-linecap:square;stroke-width:1.5;"/>
   </g>
   <g id="line2d_27">
    <path clip-path="url(#p8a7c878b75)" d="M 297.625481 291.28 
L 297.625481 287.515581 
L 309.69236 287.515581 
L 309.69236 283.751161 
L 311.446852 283.751161 
L 311.446852 279.986742 
L 313.883508 279.986742 
L 313.883508 276.222322 
L 315.240305 276.222322 
L 315.240305 272.457903 
L 322.57276 272.457903 
L 322.57276 268.693483 
L 330.179392 268.693483 
L 330.179392 264.929064 
L 330.246871 264.929064 
L 330.246871 261.164645 
L 332.167576 261.164645 
L 332.167576 257.400225 
L 335.140822 257.400225 
L 335.140822 253.635806 
L 344.642172 253.635806 
L 344.642172 249.871386 
L 344.899073 249.871386 
L 344.899073 246.106967 
L 422.99844 246.106967 
L 422.99844 242.342547 
L 425.128826 242.342547 
L 425.128826 238.578128 
L 425.639928 238.578128 
L 425.639928 234.813708 
L 425.899281 234.813708 
L 425.899281 231.049289 
L 426.791695 231.049289 
L 426.791695 227.28487 
L 428.586509 227.28487 
L 428.586509 223.52045 
L 428.789365 223.52045 
L 428.789365 219.756031 
L 428.917089 219.756031 
L 428.917089 215.991611 
L 429.446007 215.991611 
L 429.446007 212.227192 
L 429.834062 212.227192 
L 429.834062 208.462772 
L 432.074929 208.462772 
L 432.074929 204.698353 
L 440.064162 204.698353 
L 440.064162 200.933934 
L 441.351411 200.933934 
L 441.351411 197.169514 
L 442.37751 197.169514 
L 442.37751 193.405095 
L 443.31936 193.405095 
L 443.31936 189.640675 
L 443.956879 189.640675 
L 443.956879 185.876256 
L 444.910933 185.876256 
L 444.910933 182.111836 
L 445.863728 182.111836 
L 445.863728 178.347417 
L 446.685609 178.347417 
L 446.685609 174.582997 
L 447.027518 174.582997 
L 447.027518 170.818578 
L 448.550627 170.818578 
L 448.550627 167.054159 
L 451.297916 167.054159 
L 451.297916 163.289739 
L 453.63041 163.289739 
L 453.63041 159.52532 
L 453.63041 159.52532 
" style="fill:none;stroke:#f5deb3;stroke-linecap:square;stroke-width:1.5;"/>
   </g>
   <g id="line2d_28">
    <path clip-path="url(#p8a7c878b75)" d="M 177.073169 291.28 
L 177.073169 287.515581 
L 197.528681 287.515581 
L 197.528681 283.751161 
L 211.665838 283.751161 
L 211.665838 279.986742 
L 211.665838 279.986742 
L 211.665838 276.222322 
L 212.893702 276.222322 
L 212.893702 272.457903 
L 218.642227 272.457903 
L 218.642227 268.693483 
L 223.334878 268.693483 
L 223.334878 264.929064 
L 223.334878 264.929064 
L 223.334878 261.164645 
L 223.831716 261.164645 
L 223.831716 257.400225 
L 232.905978 257.400225 
L 232.905978 253.635806 
L 233.32162 253.635806 
L 233.32162 249.871386 
L 233.32162 249.871386 
L 233.32162 246.106967 
L 241.377029 246.106967 
L 241.377029 242.342547 
L 253.437302 242.342547 
L 253.437302 238.578128 
L 260.105518 238.578128 
L 260.105518 234.813708 
L 337.605861 234.813708 
L 337.605861 231.049289 
L 338.073857 231.049289 
L 338.073857 227.28487 
L 338.480017 227.28487 
L 338.480017 223.52045 
L 338.768251 223.52045 
L 338.768251 219.756031 
L 339.112092 219.756031 
L 339.112092 215.991611 
L 340.632556 215.991611 
L 340.632556 212.227192 
L 340.854173 212.227192 
L 340.854173 208.462772 
L 341.239805 208.462772 
L 341.239805 204.698353 
L 341.894478 204.698353 
L 341.894478 200.933934 
L 342.272697 200.933934 
L 342.272697 197.169514 
L 343.549484 197.169514 
L 343.549484 193.405095 
L 343.863968 193.405095 
L 343.863968 189.640675 
L 347.792184 189.640675 
L 347.792184 185.876256 
L 349.933618 185.876256 
L 349.933618 182.111836 
L 351.857676 182.111836 
L 351.857676 178.347417 
L 356.919525 178.347417 
L 356.919525 174.582997 
L 363.060008 174.582997 
L 363.060008 170.818578 
L 364.641569 170.818578 
L 364.641569 167.054159 
L 365.484899 167.054159 
L 365.484899 163.289739 
L 367.603796 163.289739 
L 367.603796 159.52532 
L 369.609568 159.52532 
L 369.609568 155.7609 
L 370.916586 155.7609 
L 370.916586 151.996481 
L 371.604946 151.996481 
L 371.604946 148.232061 
L 371.667086 148.232061 
L 371.667086 144.467642 
L 372.100057 144.467642 
L 372.100057 140.703223 
L 373.408364 140.703223 
L 373.408364 136.938803 
L 374.802643 136.938803 
L 374.802643 133.174384 
L 376.842198 133.174384 
L 376.842198 129.409964 
L 382.6074 129.409964 
L 382.6074 125.645545 
L 384.934235 125.645545 
L 384.934235 121.881125 
L 461.454681 121.881125 
L 461.454681 118.116706 
L 461.8 118.116706 
" style="fill:none;stroke:#f5deb3;stroke-linecap:square;stroke-width:1.5;"/>
   </g>
   <g id="line2d_29">
    <path clip-path="url(#p8a7c878b75)" d="M 96.740803 291.28 
L 96.740803 287.515581 
L 96.740803 287.515581 
L 96.740803 283.751161 
L 96.740803 283.751161 
L 96.740803 279.986742 
L 96.740803 279.986742 
L 96.740803 276.222322 
L 96.740803 276.222322 
L 96.740803 272.457903 
L 96.740803 272.457903 
L 96.740803 268.693483 
L 96.740803 268.693483 
L 96.740803 264.929064 
L 96.740803 264.929064 
L 96.740803 261.164645 
L 96.740803 261.164645 
L 96.740803 257.400225 
L 96.740803 257.400225 
L 96.740803 253.635806 
L 96.740803 253.635806 
L 96.740803 249.871386 
L 96.740803 249.871386 
L 96.740803 246.106967 
L 96.740803 246.106967 
L 96.740803 242.342547 
L 96.740803 242.342547 
L 96.740803 238.578128 
L 96.740803 238.578128 
L 96.740803 234.813708 
L 121.843569 234.813708 
L 121.843569 231.049289 
L 121.843569 231.049289 
L 121.843569 227.28487 
L 121.843569 227.28487 
L 121.843569 223.52045 
L 125.081514 223.52045 
L 125.081514 219.756031 
L 125.081514 219.756031 
L 125.081514 215.991611 
L 125.081514 215.991611 
L 125.081514 212.227192 
L 125.081514 212.227192 
L 125.081514 208.462772 
L 125.081514 208.462772 
L 125.081514 204.698353 
L 125.081514 204.698353 
L 125.081514 200.933934 
L 186.810913 200.933934 
L 186.810913 197.169514 
L 186.810913 197.169514 
L 186.810913 193.405095 
L 186.810913 193.405095 
L 186.810913 189.640675 
L 187.790936 189.640675 
L 187.790936 185.876256 
L 187.790936 185.876256 
L 187.790936 182.111836 
L 187.790936 182.111836 
L 187.790936 178.347417 
L 328.184463 178.347417 
L 328.184463 174.582997 
L 328.184463 174.582997 
L 328.184463 170.818578 
L 328.184463 170.818578 
L 328.184463 167.054159 
L 347.058858 167.054159 
L 347.058858 163.289739 
L 347.058858 163.289739 
L 347.058858 159.52532 
L 347.058858 159.52532 
L 347.058858 155.7609 
L 347.840716 155.7609 
L 347.840716 151.996481 
L 347.840716 151.996481 
L 347.840716 148.232061 
L 347.840716 148.232061 
L 347.840716 144.467642 
L 461.8 144.467642 
" style="fill:none;stroke:#f5deb3;stroke-linecap:square;stroke-width:1.5;"/>
   </g>
   <g id="line2d_30">
    <path clip-path="url(#p8a7c878b75)" d="M 172.101234 291.28 
L 172.101234 287.515581 
L 177.073169 287.515581 
L 177.073169 283.751161 
L 200.671336 283.751161 
L 200.671336 279.986742 
L 201.428933 279.986742 
L 201.428933 276.222322 
L 205.761827 276.222322 
L 205.761827 272.457903 
L 208.466695 272.457903 
L 208.466695 268.693483 
L 209.769436 268.693483 
L 209.769436 264.929064 
L 209.769436 264.929064 
L 209.769436 261.164645 
L 210.409081 261.164645 
L 210.409081 257.400225 
L 210.409081 257.400225 
L 210.409081 253.635806 
L 210.409081 253.635806 
L 210.409081 249.871386 
L 212.893702 249.871386 
L 212.893702 246.106967 
L 213.497208 246.106967 
L 213.497208 242.342547 
L 214.093971 242.342547 
L 214.093971 238.578128 
L 214.093971 238.578128 
L 214.093971 234.813708 
L 214.093971 234.813708 
L 214.093971 231.049289 
L 214.68414 231.049289 
L 214.68414 227.28487 
L 215.267859 227.28487 
L 215.267859 223.52045 
L 215.267859 223.52045 
L 215.267859 219.756031 
L 215.845267 219.756031 
L 215.845267 215.991611 
L 216.981687 215.991611 
L 216.981687 212.227192 
L 217.540956 212.227192 
L 217.540956 208.462772 
L 218.09443 208.462772 
L 218.09443 204.698353 
L 220.778901 204.698353 
L 220.778901 200.933934 
L 221.816016 200.933934 
L 221.816016 197.169514 
L 222.833375 197.169514 
L 222.833375 193.405095 
L 222.833375 193.405095 
L 222.833375 189.640675 
L 223.831716 189.640675 
L 223.831716 185.876256 
L 224.323975 185.876256 
L 224.323975 182.111836 
L 229.012047 182.111836 
L 229.012047 178.347417 
L 238.449736 178.347417 
L 238.449736 174.582997 
L 238.449736 174.582997 
L 238.449736 170.818578 
L 238.449736 170.818578 
L 238.449736 167.054159 
L 238.449736 167.054159 
L 238.449736 163.289739 
L 238.449736 163.289739 
L 238.449736 159.52532 
L 238.449736 159.52532 
L 238.449736 155.7609 
L 238.449736 155.7609 
L 238.449736 151.996481 
L 238.449736 151.996481 
L 238.449736 148.232061 
L 238.449736 148.232061 
L 238.449736 144.467642 
L 238.449736 144.467642 
L 238.449736 140.703223 
L 238.449736 140.703223 
L 238.449736 136.938803 
L 238.449736 136.938803 
L 238.449736 133.174384 
L 238.449736 133.174384 
L 238.449736 129.409964 
L 238.449736 129.409964 
L 238.449736 125.645545 
L 238.449736 125.645545 
L 238.449736 121.881125 
L 238.449736 121.881125 
L 238.449736 121.881125 
L 450.672 121.881125 
" style="fill:none;stroke:#f5deb3;stroke-linecap:square;stroke-width:1.5;"/>
   </g>
   <g id="matplotlib.axis_1">
    <g id="xtick_1">
     <g id="line2d_31">
      <path clip-path="url(#p8a7c878b75)" d="M 59.72 291.28 
L 59.72 6.125228 
" style="fill:none;stroke:#b0b0b0;stroke-linecap:square;stroke-width:0.8;"/>
     </g>
     <g id="line2d_32">
      <defs>
       <path d="M 0 0 
L 0 3.5 
" id="m6dc49ec925" style="stroke:#000000;stroke-width:0.8;"/>
      </defs>
      <g>
       <use style="stroke:#000000;stroke-width:0.8;" x="59.72" xlink:href="#m6dc49ec925" y="291.28"/>
      </g>
     </g>
     <g id="text_1">
      <!-- 0 -->
      <defs>
       <path d="M 31.78125 66.40625 
Q 24.171875 66.40625 20.328125 58.90625 
Q 16.5 51.421875 16.5 36.375 
Q 16.5 21.390625 20.328125 13.890625 
Q 24.171875 6.390625 31.78125 6.390625 
Q 39.453125 6.390625 43.28125 13.890625 
Q 47.125 21.390625 47.125 36.375 
Q 47.125 51.421875 43.28125 58.90625 
Q 39.453125 66.40625 31.78125 66.40625 
z
M 31.78125 74.21875 
Q 44.046875 74.21875 50.515625 64.515625 
Q 56.984375 54.828125 56.984375 36.375 
Q 56.984375 17.96875 50.515625 8.265625 
Q 44.046875 -1.421875 31.78125 -1.421875 
Q 19.53125 -1.421875 13.0625 8.265625 
Q 6.59375 17.96875 6.59375 36.375 
Q 6.59375 54.828125 13.0625 64.515625 
Q 19.53125 74.21875 31.78125 74.21875 
z
" id="DejaVuSans-30"/>
      </defs>
      <g transform="translate(53.3575 313.476875)scale(0.2 -0.2)">
       <use xlink:href="#DejaVuSans-30"/>
      </g>
     </g>
    </g>
    <g id="xtick_2">
     <g id="line2d_33">
      <path clip-path="url(#p8a7c878b75)" d="M 305.68089 291.28 
L 305.68089 6.125228 
" style="fill:none;stroke:#b0b0b0;stroke-linecap:square;stroke-width:0.8;"/>
     </g>
     <g id="line2d_34">
      <g>
       <use style="stroke:#000000;stroke-width:0.8;" x="305.68089" xlink:href="#m6dc49ec925" y="291.28"/>
      </g>
     </g>
     <g id="text_2">
      <!-- 2 -->
      <defs>
       <path d="M 19.1875 8.296875 
L 53.609375 8.296875 
L 53.609375 0 
L 7.328125 0 
L 7.328125 8.296875 
Q 12.9375 14.109375 22.625 23.890625 
Q 32.328125 33.6875 34.8125 36.53125 
Q 39.546875 41.84375 41.421875 45.53125 
Q 43.3125 49.21875 43.3125 52.78125 
Q 43.3125 58.59375 39.234375 62.25 
Q 35.15625 65.921875 28.609375 65.921875 
Q 23.96875 65.921875 18.8125 64.3125 
Q 13.671875 62.703125 7.8125 59.421875 
L 7.8125 69.390625 
Q 13.765625 71.78125 18.9375 73 
Q 24.125 74.21875 28.421875 74.21875 
Q 39.75 74.21875 46.484375 68.546875 
Q 53.21875 62.890625 53.21875 53.421875 
Q 53.21875 48.921875 51.53125 44.890625 
Q 49.859375 40.875 45.40625 35.40625 
Q 44.1875 33.984375 37.640625 27.21875 
Q 31.109375 20.453125 19.1875 8.296875 
z
" id="DejaVuSans-32"/>
      </defs>
      <g transform="translate(299.31839 313.476875)scale(0.2 -0.2)">
       <use xlink:href="#DejaVuSans-32"/>
      </g>
     </g>
    </g>
    <g id="xtick_3">
     <g id="line2d_35">
      <defs>
       <path d="M 0 0 
L 0 2 
" id="m47dc221ac8" style="stroke:#000000;stroke-width:0.6;"/>
      </defs>
      <g>
       <use style="stroke:#000000;stroke-width:0.6;" x="96.740803" xlink:href="#m47dc221ac8" y="291.28"/>
      </g>
     </g>
    </g>
    <g id="xtick_4">
     <g id="line2d_36">
      <g>
       <use style="stroke:#000000;stroke-width:0.6;" x="118.396584" xlink:href="#m47dc221ac8" y="291.28"/>
      </g>
     </g>
    </g>
    <g id="xtick_5">
     <g id="line2d_37">
      <g>
       <use style="stroke:#000000;stroke-width:0.6;" x="133.761606" xlink:href="#m47dc221ac8" y="291.28"/>
      </g>
     </g>
    </g>
    <g id="xtick_6">
     <g id="line2d_38">
      <g>
       <use style="stroke:#000000;stroke-width:0.6;" x="145.679642" xlink:href="#m47dc221ac8" y="291.28"/>
      </g>
     </g>
    </g>
    <g id="xtick_7">
     <g id="line2d_39">
      <g>
       <use style="stroke:#000000;stroke-width:0.6;" x="155.417387" xlink:href="#m47dc221ac8" y="291.28"/>
      </g>
     </g>
    </g>
    <g id="xtick_8">
     <g id="line2d_40">
      <g>
       <use style="stroke:#000000;stroke-width:0.6;" x="163.650533" xlink:href="#m47dc221ac8" y="291.28"/>
      </g>
     </g>
    </g>
    <g id="xtick_9">
     <g id="line2d_41">
      <g>
       <use style="stroke:#000000;stroke-width:0.6;" x="170.782409" xlink:href="#m47dc221ac8" y="291.28"/>
      </g>
     </g>
    </g>
    <g id="xtick_10">
     <g id="line2d_42">
      <g>
       <use style="stroke:#000000;stroke-width:0.6;" x="177.073169" xlink:href="#m47dc221ac8" y="291.28"/>
      </g>
     </g>
    </g>
    <g id="xtick_11">
     <g id="line2d_43">
      <g>
       <use style="stroke:#000000;stroke-width:0.6;" x="219.721248" xlink:href="#m47dc221ac8" y="291.28"/>
      </g>
     </g>
    </g>
    <g id="xtick_12">
     <g id="line2d_44">
      <g>
       <use style="stroke:#000000;stroke-width:0.6;" x="241.377029" xlink:href="#m47dc221ac8" y="291.28"/>
      </g>
     </g>
    </g>
    <g id="xtick_13">
     <g id="line2d_45">
      <g>
       <use style="stroke:#000000;stroke-width:0.6;" x="256.742051" xlink:href="#m47dc221ac8" y="291.28"/>
      </g>
     </g>
    </g>
    <g id="xtick_14">
     <g id="line2d_46">
      <g>
       <use style="stroke:#000000;stroke-width:0.6;" x="268.660087" xlink:href="#m47dc221ac8" y="291.28"/>
      </g>
     </g>
    </g>
    <g id="xtick_15">
     <g id="line2d_47">
      <g>
       <use style="stroke:#000000;stroke-width:0.6;" x="278.397832" xlink:href="#m47dc221ac8" y="291.28"/>
      </g>
     </g>
    </g>
    <g id="xtick_16">
     <g id="line2d_48">
      <g>
       <use style="stroke:#000000;stroke-width:0.6;" x="286.630978" xlink:href="#m47dc221ac8" y="291.28"/>
      </g>
     </g>
    </g>
    <g id="xtick_17">
     <g id="line2d_49">
      <g>
       <use style="stroke:#000000;stroke-width:0.6;" x="293.762854" xlink:href="#m47dc221ac8" y="291.28"/>
      </g>
     </g>
    </g>
    <g id="xtick_18">
     <g id="line2d_50">
      <g>
       <use style="stroke:#000000;stroke-width:0.6;" x="300.053614" xlink:href="#m47dc221ac8" y="291.28"/>
      </g>
     </g>
    </g>
    <g id="xtick_19">
     <g id="line2d_51">
      <g>
       <use style="stroke:#000000;stroke-width:0.6;" x="342.701693" xlink:href="#m47dc221ac8" y="291.28"/>
      </g>
     </g>
    </g>
    <g id="xtick_20">
     <g id="line2d_52">
      <g>
       <use style="stroke:#000000;stroke-width:0.6;" x="364.357475" xlink:href="#m47dc221ac8" y="291.28"/>
      </g>
     </g>
    </g>
    <g id="xtick_21">
     <g id="line2d_53">
      <g>
       <use style="stroke:#000000;stroke-width:0.6;" x="379.722496" xlink:href="#m47dc221ac8" y="291.28"/>
      </g>
     </g>
    </g>
    <g id="xtick_22">
     <g id="line2d_54">
      <g>
       <use style="stroke:#000000;stroke-width:0.6;" x="391.640532" xlink:href="#m47dc221ac8" y="291.28"/>
      </g>
     </g>
    </g>
    <g id="xtick_23">
     <g id="line2d_55">
      <g>
       <use style="stroke:#000000;stroke-width:0.6;" x="401.378277" xlink:href="#m47dc221ac8" y="291.28"/>
      </g>
     </g>
    </g>
    <g id="xtick_24">
     <g id="line2d_56">
      <g>
       <use style="stroke:#000000;stroke-width:0.6;" x="409.611423" xlink:href="#m47dc221ac8" y="291.28"/>
      </g>
     </g>
    </g>
    <g id="xtick_25">
     <g id="line2d_57">
      <g>
       <use style="stroke:#000000;stroke-width:0.6;" x="416.743299" xlink:href="#m47dc221ac8" y="291.28"/>
      </g>
     </g>
    </g>
    <g id="xtick_26">
     <g id="line2d_58">
      <g>
       <use style="stroke:#000000;stroke-width:0.6;" x="423.034059" xlink:href="#m47dc221ac8" y="291.28"/>
      </g>
     </g>
    </g>
    <g id="text_3">
     <!-- log10 of FEvals / DIM -->
     <defs>
      <path d="M 9.421875 75.984375 
L 18.40625 75.984375 
L 18.40625 0 
L 9.421875 0 
z
" id="DejaVuSans-6c"/>
      <path d="M 30.609375 48.390625 
Q 23.390625 48.390625 19.1875 42.75 
Q 14.984375 37.109375 14.984375 27.296875 
Q 14.984375 17.484375 19.15625 11.84375 
Q 23.34375 6.203125 30.609375 6.203125 
Q 37.796875 6.203125 41.984375 11.859375 
Q 46.1875 17.53125 46.1875 27.296875 
Q 46.1875 37.015625 41.984375 42.703125 
Q 37.796875 48.390625 30.609375 48.390625 
z
M 30.609375 56 
Q 42.328125 56 49.015625 48.375 
Q 55.71875 40.765625 55.71875 27.296875 
Q 55.71875 13.875 49.015625 6.21875 
Q 42.328125 -1.421875 30.609375 -1.421875 
Q 18.84375 -1.421875 12.171875 6.21875 
Q 5.515625 13.875 5.515625 27.296875 
Q 5.515625 40.765625 12.171875 48.375 
Q 18.84375 56 30.609375 56 
z
" id="DejaVuSans-6f"/>
      <path d="M 45.40625 27.984375 
Q 45.40625 37.75 41.375 43.109375 
Q 37.359375 48.484375 30.078125 48.484375 
Q 22.859375 48.484375 18.828125 43.109375 
Q 14.796875 37.75 14.796875 27.984375 
Q 14.796875 18.265625 18.828125 12.890625 
Q 22.859375 7.515625 30.078125 7.515625 
Q 37.359375 7.515625 41.375 12.890625 
Q 45.40625 18.265625 45.40625 27.984375 
z
M 54.390625 6.78125 
Q 54.390625 -7.171875 48.1875 -13.984375 
Q 42 -20.796875 29.203125 -20.796875 
Q 24.46875 -20.796875 20.265625 -20.09375 
Q 16.0625 -19.390625 12.109375 -17.921875 
L 12.109375 -9.1875 
Q 16.0625 -11.328125 19.921875 -12.34375 
Q 23.78125 -13.375 27.78125 -13.375 
Q 36.625 -13.375 41.015625 -8.765625 
Q 45.40625 -4.15625 45.40625 5.171875 
L 45.40625 9.625 
Q 42.625 4.78125 38.28125 2.390625 
Q 33.9375 0 27.875 0 
Q 17.828125 0 11.671875 7.65625 
Q 5.515625 15.328125 5.515625 27.984375 
Q 5.515625 40.671875 11.671875 48.328125 
Q 17.828125 56 27.875 56 
Q 33.9375 56 38.28125 53.609375 
Q 42.625 51.21875 45.40625 46.390625 
L 45.40625 54.6875 
L 54.390625 54.6875 
z
" id="DejaVuSans-67"/>
      <path d="M 12.40625 8.296875 
L 28.515625 8.296875 
L 28.515625 63.921875 
L 10.984375 60.40625 
L 10.984375 69.390625 
L 28.421875 72.90625 
L 38.28125 72.90625 
L 38.28125 8.296875 
L 54.390625 8.296875 
L 54.390625 0 
L 12.40625 0 
z
" id="DejaVuSans-31"/>
      <path id="DejaVuSans-20"/>
      <path d="M 37.109375 75.984375 
L 37.109375 68.5 
L 28.515625 68.5 
Q 23.6875 68.5 21.796875 66.546875 
Q 19.921875 64.59375 19.921875 59.515625 
L 19.921875 54.6875 
L 34.71875 54.6875 
L 34.71875 47.703125 
L 19.921875 47.703125 
L 19.921875 0 
L 10.890625 0 
L 10.890625 47.703125 
L 2.296875 47.703125 
L 2.296875 54.6875 
L 10.890625 54.6875 
L 10.890625 58.5 
Q 10.890625 67.625 15.140625 71.796875 
Q 19.390625 75.984375 28.609375 75.984375 
z
" id="DejaVuSans-66"/>
      <path d="M 9.8125 72.90625 
L 51.703125 72.90625 
L 51.703125 64.59375 
L 19.671875 64.59375 
L 19.671875 43.109375 
L 48.578125 43.109375 
L 48.578125 34.8125 
L 19.671875 34.8125 
L 19.671875 0 
L 9.8125 0 
z
" id="DejaVuSans-46"/>
      <path d="M 9.8125 72.90625 
L 55.90625 72.90625 
L 55.90625 64.59375 
L 19.671875 64.59375 
L 19.671875 43.015625 
L 54.390625 43.015625 
L 54.390625 34.71875 
L 19.671875 34.71875 
L 19.671875 8.296875 
L 56.78125 8.296875 
L 56.78125 0 
L 9.8125 0 
z
" id="DejaVuSans-45"/>
      <path d="M 2.984375 54.6875 
L 12.5 54.6875 
L 29.59375 8.796875 
L 46.6875 54.6875 
L 56.203125 54.6875 
L 35.6875 0 
L 23.484375 0 
z
" id="DejaVuSans-76"/>
      <path d="M 34.28125 27.484375 
Q 23.390625 27.484375 19.1875 25 
Q 14.984375 22.515625 14.984375 16.5 
Q 14.984375 11.71875 18.140625 8.90625 
Q 21.296875 6.109375 26.703125 6.109375 
Q 34.1875 6.109375 38.703125 11.40625 
Q 43.21875 16.703125 43.21875 25.484375 
L 43.21875 27.484375 
z
M 52.203125 31.203125 
L 52.203125 0 
L 43.21875 0 
L 43.21875 8.296875 
Q 40.140625 3.328125 35.546875 0.953125 
Q 30.953125 -1.421875 24.3125 -1.421875 
Q 15.921875 -1.421875 10.953125 3.296875 
Q 6 8.015625 6 15.921875 
Q 6 25.140625 12.171875 29.828125 
Q 18.359375 34.515625 30.609375 34.515625 
L 43.21875 34.515625 
L 43.21875 35.40625 
Q 43.21875 41.609375 39.140625 45 
Q 35.0625 48.390625 27.6875 48.390625 
Q 23 48.390625 18.546875 47.265625 
Q 14.109375 46.140625 10.015625 43.890625 
L 10.015625 52.203125 
Q 14.9375 54.109375 19.578125 55.046875 
Q 24.21875 56 28.609375 56 
Q 40.484375 56 46.34375 49.84375 
Q 52.203125 43.703125 52.203125 31.203125 
z
" id="DejaVuSans-61"/>
      <path d="M 44.28125 53.078125 
L 44.28125 44.578125 
Q 40.484375 46.53125 36.375 47.5 
Q 32.28125 48.484375 27.875 48.484375 
Q 21.1875 48.484375 17.84375 46.4375 
Q 14.5 44.390625 14.5 40.28125 
Q 14.5 37.15625 16.890625 35.375 
Q 19.28125 33.59375 26.515625 31.984375 
L 29.59375 31.296875 
Q 39.15625 29.25 43.1875 25.515625 
Q 47.21875 21.78125 47.21875 15.09375 
Q 47.21875 7.46875 41.1875 3.015625 
Q 35.15625 -1.421875 24.609375 -1.421875 
Q 20.21875 -1.421875 15.453125 -0.5625 
Q 10.6875 0.296875 5.421875 2 
L 5.421875 11.28125 
Q 10.40625 8.6875 15.234375 7.390625 
Q 20.0625 6.109375 24.8125 6.109375 
Q 31.15625 6.109375 34.5625 8.28125 
Q 37.984375 10.453125 37.984375 14.40625 
Q 37.984375 18.0625 35.515625 20.015625 
Q 33.0625 21.96875 24.703125 23.78125 
L 21.578125 24.515625 
Q 13.234375 26.265625 9.515625 29.90625 
Q 5.8125 33.546875 5.8125 39.890625 
Q 5.8125 47.609375 11.28125 51.796875 
Q 16.75 56 26.8125 56 
Q 31.78125 56 36.171875 55.265625 
Q 40.578125 54.546875 44.28125 53.078125 
z
" id="DejaVuSans-73"/>
      <path d="M 25.390625 72.90625 
L 33.6875 72.90625 
L 8.296875 -9.28125 
L 0 -9.28125 
z
" id="DejaVuSans-2f"/>
      <path d="M 19.671875 64.796875 
L 19.671875 8.109375 
L 31.59375 8.109375 
Q 46.6875 8.109375 53.6875 14.9375 
Q 60.6875 21.78125 60.6875 36.53125 
Q 60.6875 51.171875 53.6875 57.984375 
Q 46.6875 64.796875 31.59375 64.796875 
z
M 9.8125 72.90625 
L 30.078125 72.90625 
Q 51.265625 72.90625 61.171875 64.09375 
Q 71.09375 55.28125 71.09375 36.53125 
Q 71.09375 17.671875 61.125 8.828125 
Q 51.171875 0 30.078125 0 
L 9.8125 0 
z
" id="DejaVuSans-44"/>
      <path d="M 9.8125 72.90625 
L 19.671875 72.90625 
L 19.671875 0 
L 9.8125 0 
z
" id="DejaVuSans-49"/>
      <path d="M 9.8125 72.90625 
L 24.515625 72.90625 
L 43.109375 23.296875 
L 61.8125 72.90625 
L 76.515625 72.90625 
L 76.515625 0 
L 66.890625 0 
L 66.890625 64.015625 
L 48.09375 14.015625 
L 38.1875 14.015625 
L 19.390625 64.015625 
L 19.390625 0 
L 9.8125 0 
z
" id="DejaVuSans-4d"/>
     </defs>
     <g transform="translate(150.122563 336.833125)scale(0.2 -0.2)">
      <use xlink:href="#DejaVuSans-6c"/>
      <use x="27.783203" xlink:href="#DejaVuSans-6f"/>
      <use x="88.964844" xlink:href="#DejaVuSans-67"/>
      <use x="152.441406" xlink:href="#DejaVuSans-31"/>
      <use x="216.064453" xlink:href="#DejaVuSans-30"/>
      <use x="279.6875" xlink:href="#DejaVuSans-20"/>
      <use x="311.474609" xlink:href="#DejaVuSans-6f"/>
      <use x="372.65625" xlink:href="#DejaVuSans-66"/>
      <use x="407.861328" xlink:href="#DejaVuSans-20"/>
      <use x="439.648438" xlink:href="#DejaVuSans-46"/>
      <use x="497.167969" xlink:href="#DejaVuSans-45"/>
      <use x="560.351562" xlink:href="#DejaVuSans-76"/>
      <use x="619.53125" xlink:href="#DejaVuSans-61"/>
      <use x="680.810547" xlink:href="#DejaVuSans-6c"/>
      <use x="708.59375" xlink:href="#DejaVuSans-73"/>
      <use x="760.693359" xlink:href="#DejaVuSans-20"/>
      <use x="792.480469" xlink:href="#DejaVuSans-2f"/>
      <use x="826.171875" xlink:href="#DejaVuSans-20"/>
      <use x="857.958984" xlink:href="#DejaVuSans-44"/>
      <use x="934.960938" xlink:href="#DejaVuSans-49"/>
      <use x="964.453125" xlink:href="#DejaVuSans-4d"/>
     </g>
    </g>
   </g>
   <g id="matplotlib.axis_2">
    <g id="ytick_1">
     <g id="line2d_59">
      <path clip-path="url(#p8a7c878b75)" d="M 59.72 291.28 
L 450.672 291.28 
" style="fill:none;stroke:#b0b0b0;stroke-linecap:square;stroke-width:0.8;"/>
     </g>
     <g id="line2d_60">
      <defs>
       <path d="M 0 0 
L -3.5 0 
" id="m79fbf2d5e4" style="stroke:#000000;stroke-width:0.8;"/>
      </defs>
      <g>
       <use style="stroke:#000000;stroke-width:0.8;" x="59.72" xlink:href="#m79fbf2d5e4" y="291.28"/>
      </g>
     </g>
     <g id="text_4">
      <!-- 0.0 -->
      <defs>
       <path d="M 10.6875 12.40625 
L 21 12.40625 
L 21 0 
L 10.6875 0 
z
" id="DejaVuSans-2e"/>
      </defs>
      <g transform="translate(27.275 297.35875)scale(0.16 -0.16)">
       <use xlink:href="#DejaVuSans-30"/>
       <use x="63.623047" xlink:href="#DejaVuSans-2e"/>
       <use x="95.410156" xlink:href="#DejaVuSans-30"/>
      </g>
     </g>
    </g>
    <g id="ytick_2">
     <g id="line2d_61">
      <path clip-path="url(#p8a7c878b75)" d="M 59.72 234.813708 
L 450.672 234.813708 
" style="fill:none;stroke:#b0b0b0;stroke-linecap:square;stroke-width:0.8;"/>
     </g>
     <g id="line2d_62">
      <g>
       <use style="stroke:#000000;stroke-width:0.8;" x="59.72" xlink:href="#m79fbf2d5e4" y="234.813708"/>
      </g>
     </g>
     <g id="text_5">
      <!-- 0.2 -->
      <g transform="translate(27.275 240.892458)scale(0.16 -0.16)">
       <use xlink:href="#DejaVuSans-30"/>
       <use x="63.623047" xlink:href="#DejaVuSans-2e"/>
       <use x="95.410156" xlink:href="#DejaVuSans-32"/>
      </g>
     </g>
    </g>
    <g id="ytick_3">
     <g id="line2d_63">
      <path clip-path="url(#p8a7c878b75)" d="M 59.72 178.347417 
L 450.672 178.347417 
" style="fill:none;stroke:#b0b0b0;stroke-linecap:square;stroke-width:0.8;"/>
     </g>
     <g id="line2d_64">
      <g>
       <use style="stroke:#000000;stroke-width:0.8;" x="59.72" xlink:href="#m79fbf2d5e4" y="178.347417"/>
      </g>
     </g>
     <g id="text_6">
      <!-- 0.4 -->
      <defs>
       <path d="M 37.796875 64.3125 
L 12.890625 25.390625 
L 37.796875 25.390625 
z
M 35.203125 72.90625 
L 47.609375 72.90625 
L 47.609375 25.390625 
L 58.015625 25.390625 
L 58.015625 17.1875 
L 47.609375 17.1875 
L 47.609375 0 
L 37.796875 0 
L 37.796875 17.1875 
L 4.890625 17.1875 
L 4.890625 26.703125 
z
" id="DejaVuSans-34"/>
      </defs>
      <g transform="translate(27.275 184.426167)scale(0.16 -0.16)">
       <use xlink:href="#DejaVuSans-30"/>
       <use x="63.623047" xlink:href="#DejaVuSans-2e"/>
       <use x="95.410156" xlink:href="#DejaVuSans-34"/>
      </g>
     </g>
    </g>
    <g id="ytick_4">
     <g id="line2d_65">
      <path clip-path="url(#p8a7c878b75)" d="M 59.72 121.881125 
L 450.672 121.881125 
" style="fill:none;stroke:#b0b0b0;stroke-linecap:square;stroke-width:0.8;"/>
     </g>
     <g id="line2d_66">
      <g>
       <use style="stroke:#000000;stroke-width:0.8;" x="59.72" xlink:href="#m79fbf2d5e4" y="121.881125"/>
      </g>
     </g>
     <g id="text_7">
      <!-- 0.6 -->
      <defs>
       <path d="M 33.015625 40.375 
Q 26.375 40.375 22.484375 35.828125 
Q 18.609375 31.296875 18.609375 23.390625 
Q 18.609375 15.53125 22.484375 10.953125 
Q 26.375 6.390625 33.015625 6.390625 
Q 39.65625 6.390625 43.53125 10.953125 
Q 47.40625 15.53125 47.40625 23.390625 
Q 47.40625 31.296875 43.53125 35.828125 
Q 39.65625 40.375 33.015625 40.375 
z
M 52.59375 71.296875 
L 52.59375 62.3125 
Q 48.875 64.0625 45.09375 64.984375 
Q 41.3125 65.921875 37.59375 65.921875 
Q 27.828125 65.921875 22.671875 59.328125 
Q 17.53125 52.734375 16.796875 39.40625 
Q 19.671875 43.65625 24.015625 45.921875 
Q 28.375 48.1875 33.59375 48.1875 
Q 44.578125 48.1875 50.953125 41.515625 
Q 57.328125 34.859375 57.328125 23.390625 
Q 57.328125 12.15625 50.6875 5.359375 
Q 44.046875 -1.421875 33.015625 -1.421875 
Q 20.359375 -1.421875 13.671875 8.265625 
Q 6.984375 17.96875 6.984375 36.375 
Q 6.984375 53.65625 15.1875 63.9375 
Q 23.390625 74.21875 37.203125 74.21875 
Q 40.921875 74.21875 44.703125 73.484375 
Q 48.484375 72.75 52.59375 71.296875 
z
" id="DejaVuSans-36"/>
      </defs>
      <g transform="translate(27.275 127.959875)scale(0.16 -0.16)">
       <use xlink:href="#DejaVuSans-30"/>
       <use x="63.623047" xlink:href="#DejaVuSans-2e"/>
       <use x="95.410156" xlink:href="#DejaVuSans-36"/>
      </g>
     </g>
    </g>
    <g id="ytick_5">
     <g id="line2d_67">
      <path clip-path="url(#p8a7c878b75)" d="M 59.72 65.414834 
L 450.672 65.414834 
" style="fill:none;stroke:#b0b0b0;stroke-linecap:square;stroke-width:0.8;"/>
     </g>
     <g id="line2d_68">
      <g>
       <use style="stroke:#000000;stroke-width:0.8;" x="59.72" xlink:href="#m79fbf2d5e4" y="65.414834"/>
      </g>
     </g>
     <g id="text_8">
      <!-- 0.8 -->
      <defs>
       <path d="M 31.78125 34.625 
Q 24.75 34.625 20.71875 30.859375 
Q 16.703125 27.09375 16.703125 20.515625 
Q 16.703125 13.921875 20.71875 10.15625 
Q 24.75 6.390625 31.78125 6.390625 
Q 38.8125 6.390625 42.859375 10.171875 
Q 46.921875 13.96875 46.921875 20.515625 
Q 46.921875 27.09375 42.890625 30.859375 
Q 38.875 34.625 31.78125 34.625 
z
M 21.921875 38.8125 
Q 15.578125 40.375 12.03125 44.71875 
Q 8.5 49.078125 8.5 55.328125 
Q 8.5 64.0625 14.71875 69.140625 
Q 20.953125 74.21875 31.78125 74.21875 
Q 42.671875 74.21875 48.875 69.140625 
Q 55.078125 64.0625 55.078125 55.328125 
Q 55.078125 49.078125 51.53125 44.71875 
Q 48 40.375 41.703125 38.8125 
Q 48.828125 37.15625 52.796875 32.3125 
Q 56.78125 27.484375 56.78125 20.515625 
Q 56.78125 9.90625 50.3125 4.234375 
Q 43.84375 -1.421875 31.78125 -1.421875 
Q 19.734375 -1.421875 13.25 4.234375 
Q 6.78125 9.90625 6.78125 20.515625 
Q 6.78125 27.484375 10.78125 32.3125 
Q 14.796875 37.15625 21.921875 38.8125 
z
M 18.3125 54.390625 
Q 18.3125 48.734375 21.84375 45.5625 
Q 25.390625 42.390625 31.78125 42.390625 
Q 38.140625 42.390625 41.71875 45.5625 
Q 45.3125 48.734375 45.3125 54.390625 
Q 45.3125 60.0625 41.71875 63.234375 
Q 38.140625 66.40625 31.78125 66.40625 
Q 25.390625 66.40625 21.84375 63.234375 
Q 18.3125 60.0625 18.3125 54.390625 
z
" id="DejaVuSans-38"/>
      </defs>
      <g transform="translate(27.275 71.493584)scale(0.16 -0.16)">
       <use xlink:href="#DejaVuSans-30"/>
       <use x="63.623047" xlink:href="#DejaVuSans-2e"/>
       <use x="95.410156" xlink:href="#DejaVuSans-38"/>
      </g>
     </g>
    </g>
    <g id="ytick_6">
     <g id="line2d_69">
      <path clip-path="url(#p8a7c878b75)" d="M 59.72 8.948542 
L 450.672 8.948542 
" style="fill:none;stroke:#b0b0b0;stroke-linecap:square;stroke-width:0.8;"/>
     </g>
     <g id="line2d_70">
      <g>
       <use style="stroke:#000000;stroke-width:0.8;" x="59.72" xlink:href="#m79fbf2d5e4" y="8.948542"/>
      </g>
     </g>
     <g id="text_9">
      <!-- 1.0 -->
      <g transform="translate(27.275 15.027292)scale(0.16 -0.16)">
       <use xlink:href="#DejaVuSans-31"/>
       <use x="63.623047" xlink:href="#DejaVuSans-2e"/>
       <use x="95.410156" xlink:href="#DejaVuSans-30"/>
      </g>
     </g>
    </g>
    <g id="text_10">
     <!-- proportion of trials -->
     <defs>
      <path d="M 18.109375 8.203125 
L 18.109375 -20.796875 
L 9.078125 -20.796875 
L 9.078125 54.6875 
L 18.109375 54.6875 
L 18.109375 46.390625 
Q 20.953125 51.265625 25.265625 53.625 
Q 29.59375 56 35.59375 56 
Q 45.5625 56 51.78125 48.09375 
Q 58.015625 40.1875 58.015625 27.296875 
Q 58.015625 14.40625 51.78125 6.484375 
Q 45.5625 -1.421875 35.59375 -1.421875 
Q 29.59375 -1.421875 25.265625 0.953125 
Q 20.953125 3.328125 18.109375 8.203125 
z
M 48.6875 27.296875 
Q 48.6875 37.203125 44.609375 42.84375 
Q 40.53125 48.484375 33.40625 48.484375 
Q 26.265625 48.484375 22.1875 42.84375 
Q 18.109375 37.203125 18.109375 27.296875 
Q 18.109375 17.390625 22.1875 11.75 
Q 26.265625 6.109375 33.40625 6.109375 
Q 40.53125 6.109375 44.609375 11.75 
Q 48.6875 17.390625 48.6875 27.296875 
z
" id="DejaVuSans-70"/>
      <path d="M 41.109375 46.296875 
Q 39.59375 47.171875 37.8125 47.578125 
Q 36.03125 48 33.890625 48 
Q 26.265625 48 22.1875 43.046875 
Q 18.109375 38.09375 18.109375 28.8125 
L 18.109375 0 
L 9.078125 0 
L 9.078125 54.6875 
L 18.109375 54.6875 
L 18.109375 46.1875 
Q 20.953125 51.171875 25.484375 53.578125 
Q 30.03125 56 36.53125 56 
Q 37.453125 56 38.578125 55.875 
Q 39.703125 55.765625 41.0625 55.515625 
z
" id="DejaVuSans-72"/>
      <path d="M 18.3125 70.21875 
L 18.3125 54.6875 
L 36.8125 54.6875 
L 36.8125 47.703125 
L 18.3125 47.703125 
L 18.3125 18.015625 
Q 18.3125 11.328125 20.140625 9.421875 
Q 21.96875 7.515625 27.59375 7.515625 
L 36.8125 7.515625 
L 36.8125 0 
L 27.59375 0 
Q 17.1875 0 13.234375 3.875 
Q 9.28125 7.765625 9.28125 18.015625 
L 9.28125 47.703125 
L 2.6875 47.703125 
L 2.6875 54.6875 
L 9.28125 54.6875 
L 9.28125 70.21875 
z
" id="DejaVuSans-74"/>
      <path d="M 9.421875 54.6875 
L 18.40625 54.6875 
L 18.40625 0 
L 9.421875 0 
z
M 9.421875 75.984375 
L 18.40625 75.984375 
L 18.40625 64.59375 
L 9.421875 64.59375 
z
" id="DejaVuSans-69"/>
      <path d="M 54.890625 33.015625 
L 54.890625 0 
L 45.90625 0 
L 45.90625 32.71875 
Q 45.90625 40.484375 42.875 44.328125 
Q 39.84375 48.1875 33.796875 48.1875 
Q 26.515625 48.1875 22.3125 43.546875 
Q 18.109375 38.921875 18.109375 30.90625 
L 18.109375 0 
L 9.078125 0 
L 9.078125 54.6875 
L 18.109375 54.6875 
L 18.109375 46.1875 
Q 21.34375 51.125 25.703125 53.5625 
Q 30.078125 56 35.796875 56 
Q 45.21875 56 50.046875 50.171875 
Q 54.890625 44.34375 54.890625 33.015625 
z
" id="DejaVuSans-6e"/>
     </defs>
     <g transform="translate(19.115625 241.930739)rotate(-90)scale(0.2 -0.2)">
      <use xlink:href="#DejaVuSans-70"/>
      <use x="63.476562" xlink:href="#DejaVuSans-72"/>
      <use x="104.558594" xlink:href="#DejaVuSans-6f"/>
      <use x="165.740234" xlink:href="#DejaVuSans-70"/>
      <use x="229.216797" xlink:href="#DejaVuSans-6f"/>
      <use x="290.398438" xlink:href="#DejaVuSans-72"/>
      <use x="331.511719" xlink:href="#DejaVuSans-74"/>
      <use x="370.720703" xlink:href="#DejaVuSans-69"/>
      <use x="398.503906" xlink:href="#DejaVuSans-6f"/>
      <use x="459.685547" xlink:href="#DejaVuSans-6e"/>
      <use x="523.064453" xlink:href="#DejaVuSans-20"/>
      <use x="554.851562" xlink:href="#DejaVuSans-6f"/>
      <use x="616.033203" xlink:href="#DejaVuSans-66"/>
      <use x="651.238281" xlink:href="#DejaVuSans-20"/>
      <use x="683.025391" xlink:href="#DejaVuSans-74"/>
      <use x="722.234375" xlink:href="#DejaVuSans-72"/>
      <use x="763.347656" xlink:href="#DejaVuSans-69"/>
      <use x="791.130859" xlink:href="#DejaVuSans-61"/>
      <use x="852.410156" xlink:href="#DejaVuSans-6c"/>
      <use x="880.193359" xlink:href="#DejaVuSans-73"/>
     </g>
    </g>
   </g>
   <g id="line2d_71">
    <path clip-path="url(#p8a7c878b75)" d="M -1 287.515581 
L 32.436942 287.515581 
L 32.436942 283.751161 
L 32.436942 283.751161 
L 32.436942 279.986742 
L 91.113526 279.986742 
L 91.113526 276.222322 
L 128.134329 276.222322 
L 128.134329 272.457903 
L 149.790111 272.457903 
L 149.790111 268.693483 
L 155.417387 268.693483 
L 155.417387 264.929064 
L 162.102317 264.929064 
L 162.102317 261.164645 
L 180.520153 261.164645 
L 180.520153 257.400225 
L 192.43819 257.400225 
L 192.43819 253.635806 
L 202.175935 253.635806 
L 202.175935 249.871386 
L 228.561329 249.871386 
L 228.561329 246.106967 
L 242.78263 246.106967 
L 242.78263 242.342547 
L 245.487498 242.342547 
L 245.487498 238.578128 
L 258.320778 238.578128 
L 258.320778 234.813708 
L 328.603365 234.813708 
L 328.603365 231.049289 
L 406.484951 231.049289 
L 406.484951 227.28487 
L 415.322564 227.28487 
L 415.322564 223.52045 
L 423.788313 223.52045 
L 423.788313 219.756031 
L 427.166502 219.756031 
L 427.166502 215.991611 
L 430.766373 215.991611 
L 430.766373 212.227192 
L 433.877918 212.227192 
L 433.877918 208.462772 
L 440.562278 208.462772 
L 440.562278 204.698353 
L 442.427062 204.698353 
L 442.427062 200.933934 
L 444.887289 200.933934 
L 444.887289 197.169514 
L 446.141663 197.169514 
L 446.141663 193.405095 
L 448.107145 193.405095 
L 448.107145 189.640675 
L 448.107145 189.640675 
L 448.107145 189.640675 
L 450.672 189.640675 
" style="fill:none;stroke:#000000;stroke-linecap:square;stroke-width:1.5;"/>
   </g>
   <g id="line2d_72">
    <path clip-path="url(#p8a7c878b75)" style="fill:none;stroke:#000000;stroke-linecap:square;stroke-width:1.5;"/>
   </g>
   <g id="line2d_73">
    <path clip-path="url(#p8a7c878b75)" d="M 330.850377 291.28 
L 330.850377 287.515581 
L 342.380269 287.515581 
L 342.380269 283.751161 
L 381.067369 283.751161 
L 381.067369 279.986742 
L 382.960441 279.986742 
L 382.960441 276.222322 
L 387.488175 276.222322 
L 387.488175 272.457903 
L 395.790549 272.457903 
L 395.790549 268.693483 
L 397.04087 268.693483 
L 397.04087 264.929064 
L 404.33903 264.929064 
L 404.33903 261.164645 
L 407.383423 261.164645 
L 407.383423 257.400225 
L 407.589853 257.400225 
L 407.589853 253.635806 
L 408.126005 253.635806 
L 408.126005 249.871386 
L 411.293759 249.871386 
L 411.293759 246.106967 
L 416.084989 246.106967 
L 416.084989 242.342547 
L 423.647699 242.342547 
L 423.647699 238.578128 
L 425.977966 238.578128 
L 425.977966 234.813708 
L 425.977966 234.813708 
L 425.977966 234.813708 
L 450.672 234.813708 
" style="fill:none;stroke:#00bfbf;stroke-linecap:square;stroke-width:1.5;"/>
   </g>
   <g id="line2d_74">
    <path clip-path="url(#p8a7c878b75)" style="fill:none;stroke:#00bfbf;stroke-linecap:square;stroke-width:1.5;"/>
   </g>
   <g id="line2d_75"/>
   <g id="line2d_76"/>
   <g id="line2d_77">
    <path clip-path="url(#p8a7c878b75)" d="M 450.672 291.28 
L 450.672 6.125228 
" style="fill:none;stroke:#000000;stroke-linecap:square;stroke-width:1.5;"/>
   </g>
   <g id="patch_3">
    <path d="M 59.72 291.28 
L 59.72 6.125228 
" style="fill:none;stroke:#000000;stroke-linecap:square;stroke-linejoin:miter;stroke-width:0.8;"/>
   </g>
   <g id="patch_4">
    <path d="M 450.672 291.28 
L 450.672 6.125228 
" style="fill:none;stroke:#000000;stroke-linecap:square;stroke-linejoin:miter;stroke-width:0.8;"/>
   </g>
   <g id="patch_5">
    <path d="M 59.72 291.28 
L 450.672 291.28 
" style="fill:none;stroke:#000000;stroke-linecap:square;stroke-linejoin:miter;stroke-width:0.8;"/>
   </g>
   <g id="patch_6">
    <path d="M 59.72 6.125228 
L 450.672 6.125228 
" style="fill:none;stroke:#000000;stroke-linecap:square;stroke-linejoin:miter;stroke-width:0.8;"/>
   </g>
   <g id="text_11">
    <!-- {f1-f5}, 5-D -->
    <defs>
     <path d="M 51.125 -9.28125 
L 51.125 -16.3125 
L 48.09375 -16.3125 
Q 35.9375 -16.3125 31.8125 -12.6875 
Q 27.6875 -9.078125 27.6875 1.703125 
L 27.6875 13.375 
Q 27.6875 20.75 25.046875 23.578125 
Q 22.40625 26.421875 15.484375 26.421875 
L 12.5 26.421875 
L 12.5 33.40625 
L 15.484375 33.40625 
Q 22.46875 33.40625 25.078125 36.203125 
Q 27.6875 39.015625 27.6875 46.296875 
L 27.6875 58.015625 
Q 27.6875 68.796875 31.8125 72.390625 
Q 35.9375 75.984375 48.09375 75.984375 
L 51.125 75.984375 
L 51.125 69 
L 47.796875 69 
Q 40.921875 69 38.8125 66.84375 
Q 36.71875 64.703125 36.71875 57.8125 
L 36.71875 45.703125 
Q 36.71875 38.03125 34.5 34.5625 
Q 32.28125 31.109375 26.90625 29.890625 
Q 32.328125 28.5625 34.515625 25.09375 
Q 36.71875 21.625 36.71875 14.015625 
L 36.71875 1.90625 
Q 36.71875 -4.984375 38.8125 -7.125 
Q 40.921875 -9.28125 47.796875 -9.28125 
z
" id="DejaVuSans-7b"/>
     <path d="M 4.890625 31.390625 
L 31.203125 31.390625 
L 31.203125 23.390625 
L 4.890625 23.390625 
z
" id="DejaVuSans-2d"/>
     <path d="M 10.796875 72.90625 
L 49.515625 72.90625 
L 49.515625 64.59375 
L 19.828125 64.59375 
L 19.828125 46.734375 
Q 21.96875 47.46875 24.109375 47.828125 
Q 26.265625 48.1875 28.421875 48.1875 
Q 40.625 48.1875 47.75 41.5 
Q 54.890625 34.8125 54.890625 23.390625 
Q 54.890625 11.625 47.5625 5.09375 
Q 40.234375 -1.421875 26.90625 -1.421875 
Q 22.3125 -1.421875 17.546875 -0.640625 
Q 12.796875 0.140625 7.71875 1.703125 
L 7.71875 11.625 
Q 12.109375 9.234375 16.796875 8.0625 
Q 21.484375 6.890625 26.703125 6.890625 
Q 35.15625 6.890625 40.078125 11.328125 
Q 45.015625 15.765625 45.015625 23.390625 
Q 45.015625 31 40.078125 35.4375 
Q 35.15625 39.890625 26.703125 39.890625 
Q 22.75 39.890625 18.8125 39.015625 
Q 14.890625 38.140625 10.796875 36.28125 
z
" id="DejaVuSans-35"/>
     <path d="M 12.5 -9.28125 
L 15.921875 -9.28125 
Q 22.75 -9.28125 24.828125 -7.171875 
Q 26.90625 -5.078125 26.90625 1.90625 
L 26.90625 14.015625 
Q 26.90625 21.625 29.09375 25.09375 
Q 31.296875 28.5625 36.71875 29.890625 
Q 31.296875 31.109375 29.09375 34.5625 
Q 26.90625 38.03125 26.90625 45.703125 
L 26.90625 57.8125 
Q 26.90625 64.75 24.828125 66.875 
Q 22.75 69 15.921875 69 
L 12.5 69 
L 12.5 75.984375 
L 15.578125 75.984375 
Q 27.734375 75.984375 31.8125 72.390625 
Q 35.890625 68.796875 35.890625 58.015625 
L 35.890625 46.296875 
Q 35.890625 39.015625 38.515625 36.203125 
Q 41.15625 33.40625 48.09375 33.40625 
L 51.125 33.40625 
L 51.125 26.421875 
L 48.09375 26.421875 
Q 41.15625 26.421875 38.515625 23.578125 
Q 35.890625 20.75 35.890625 13.375 
L 35.890625 1.703125 
Q 35.890625 -9.078125 31.8125 -12.6875 
Q 27.734375 -16.3125 15.578125 -16.3125 
L 12.5 -16.3125 
z
" id="DejaVuSans-7d"/>
     <path d="M 11.71875 12.40625 
L 22.015625 12.40625 
L 22.015625 4 
L 14.015625 -11.625 
L 7.71875 -11.625 
L 11.71875 4 
z
" id="DejaVuSans-2c"/>
    </defs>
    <g transform="translate(195.071 27.025198)scale(0.2 -0.2)">
     <use xlink:href="#DejaVuSans-7b"/>
     <use x="63.623047" xlink:href="#DejaVuSans-66"/>
     <use x="98.828125" xlink:href="#DejaVuSans-31"/>
     <use x="162.451172" xlink:href="#DejaVuSans-2d"/>
     <use x="198.535156" xlink:href="#DejaVuSans-66"/>
     <use x="233.740234" xlink:href="#DejaVuSans-35"/>
     <use x="297.363281" xlink:href="#DejaVuSans-7d"/>
     <use x="360.986328" xlink:href="#DejaVuSans-2c"/>
     <use x="392.773438" xlink:href="#DejaVuSans-20"/>
     <use x="424.560547" xlink:href="#DejaVuSans-35"/>
     <use x="488.183594" xlink:href="#DejaVuSans-2d"/>
     <use x="524.267578" xlink:href="#DejaVuSans-44"/>
    </g>
   </g>
   <g id="text_12">
    <!-- absolute targets -->
    <defs>
     <path d="M 48.6875 27.296875 
Q 48.6875 37.203125 44.609375 42.84375 
Q 40.53125 48.484375 33.40625 48.484375 
Q 26.265625 48.484375 22.1875 42.84375 
Q 18.109375 37.203125 18.109375 27.296875 
Q 18.109375 17.390625 22.1875 11.75 
Q 26.265625 6.109375 33.40625 6.109375 
Q 40.53125 6.109375 44.609375 11.75 
Q 48.6875 17.390625 48.6875 27.296875 
z
M 18.109375 46.390625 
Q 20.953125 51.265625 25.265625 53.625 
Q 29.59375 56 35.59375 56 
Q 45.5625 56 51.78125 48.09375 
Q 58.015625 40.1875 58.015625 27.296875 
Q 58.015625 14.40625 51.78125 6.484375 
Q 45.5625 -1.421875 35.59375 -1.421875 
Q 29.59375 -1.421875 25.265625 0.953125 
Q 20.953125 3.328125 18.109375 8.203125 
L 18.109375 0 
L 9.078125 0 
L 9.078125 75.984375 
L 18.109375 75.984375 
z
" id="DejaVuSans-62"/>
     <path d="M 8.5 21.578125 
L 8.5 54.6875 
L 17.484375 54.6875 
L 17.484375 21.921875 
Q 17.484375 14.15625 20.5 10.265625 
Q 23.53125 6.390625 29.59375 6.390625 
Q 36.859375 6.390625 41.078125 11.03125 
Q 45.3125 15.671875 45.3125 23.6875 
L 45.3125 54.6875 
L 54.296875 54.6875 
L 54.296875 0 
L 45.3125 0 
L 45.3125 8.40625 
Q 42.046875 3.421875 37.71875 1 
Q 33.40625 -1.421875 27.6875 -1.421875 
Q 18.265625 -1.421875 13.375 4.4375 
Q 8.5 10.296875 8.5 21.578125 
z
M 31.109375 56 
z
" id="DejaVuSans-75"/>
     <path d="M 56.203125 29.59375 
L 56.203125 25.203125 
L 14.890625 25.203125 
Q 15.484375 15.921875 20.484375 11.0625 
Q 25.484375 6.203125 34.421875 6.203125 
Q 39.59375 6.203125 44.453125 7.46875 
Q 49.3125 8.734375 54.109375 11.28125 
L 54.109375 2.78125 
Q 49.265625 0.734375 44.1875 -0.34375 
Q 39.109375 -1.421875 33.890625 -1.421875 
Q 20.796875 -1.421875 13.15625 6.1875 
Q 5.515625 13.8125 5.515625 26.8125 
Q 5.515625 40.234375 12.765625 48.109375 
Q 20.015625 56 32.328125 56 
Q 43.359375 56 49.78125 48.890625 
Q 56.203125 41.796875 56.203125 29.59375 
z
M 47.21875 32.234375 
Q 47.125 39.59375 43.09375 43.984375 
Q 39.0625 48.390625 32.421875 48.390625 
Q 24.90625 48.390625 20.390625 44.140625 
Q 15.875 39.890625 15.1875 32.171875 
z
" id="DejaVuSans-65"/>
    </defs>
    <g transform="translate(59.72 601.844603)scale(0.14 -0.14)">
     <use xlink:href="#DejaVuSans-61"/>
     <use x="61.279297" xlink:href="#DejaVuSans-62"/>
     <use x="124.755859" xlink:href="#DejaVuSans-73"/>
     <use x="176.855469" xlink:href="#DejaVuSans-6f"/>
     <use x="238.037109" xlink:href="#DejaVuSans-6c"/>
     <use x="265.820312" xlink:href="#DejaVuSans-75"/>
     <use x="329.199219" xlink:href="#DejaVuSans-74"/>
     <use x="368.408203" xlink:href="#DejaVuSans-65"/>
     <use x="429.931641" xlink:href="#DejaVuSans-20"/>
     <use x="461.71875" xlink:href="#DejaVuSans-74"/>
     <use x="500.927734" xlink:href="#DejaVuSans-61"/>
     <use x="562.207031" xlink:href="#DejaVuSans-72"/>
     <use x="603.304688" xlink:href="#DejaVuSans-67"/>
     <use x="666.78125" xlink:href="#DejaVuSans-65"/>
     <use x="728.304688" xlink:href="#DejaVuSans-74"/>
     <use x="767.513672" xlink:href="#DejaVuSans-73"/>
    </g>
   </g>
   <g id="text_13">
    <!-- v2.2.1.10 -->
    <g style="fill:#808080;" transform="translate(231.563188 286.348765)scale(0.1 -0.1)">
     <use xlink:href="#DejaVuSans-76"/>
     <use x="59.179688" xlink:href="#DejaVuSans-32"/>
     <use x="122.802734" xlink:href="#DejaVuSans-2e"/>
     <use x="154.589844" xlink:href="#DejaVuSans-32"/>
     <use x="218.212891" xlink:href="#DejaVuSans-2e"/>
     <use x="250" xlink:href="#DejaVuSans-31"/>
     <use x="313.623047" xlink:href="#DejaVuSans-2e"/>
     <use x="345.410156" xlink:href="#DejaVuSans-31"/>
     <use x="409.033203" xlink:href="#DejaVuSans-30"/>
    </g>
   </g>
   <g id="legend_1">
    <g id="patch_7">
     <path d="M 73.72 139.550228 
L 202.941875 139.550228 
Q 206.941875 139.550228 206.941875 135.550228 
L 206.941875 20.125228 
Q 206.941875 16.125228 202.941875 16.125228 
L 73.72 16.125228 
Q 69.72 16.125228 69.72 20.125228 
L 69.72 135.550228 
Q 69.72 139.550228 73.72 139.550228 
z
" style="fill:#ffffff;opacity:0.2;stroke:#cccccc;stroke-linejoin:miter;"/>
    </g>
    <g id="line2d_78">
     <path d="M 77.72 32.322103 
L 117.72 32.322103 
" style="fill:none;stroke:#000000;stroke-linecap:square;stroke-width:1.5;"/>
    </g>
    <g id="line2d_79"/>
    <g id="text_14">
     <!-- 1: 4/5 -->
     <defs>
      <path d="M 11.71875 12.40625 
L 22.015625 12.40625 
L 22.015625 0 
L 11.71875 0 
z
M 11.71875 51.703125 
L 22.015625 51.703125 
L 22.015625 39.3125 
L 11.71875 39.3125 
z
" id="DejaVuSans-3a"/>
     </defs>
     <g transform="translate(133.72 39.322103)scale(0.2 -0.2)">
      <use xlink:href="#DejaVuSans-31"/>
      <use x="63.623047" xlink:href="#DejaVuSans-3a"/>
      <use x="97.314453" xlink:href="#DejaVuSans-20"/>
      <use x="129.101562" xlink:href="#DejaVuSans-34"/>
      <use x="192.724609" xlink:href="#DejaVuSans-2f"/>
      <use x="226.416016" xlink:href="#DejaVuSans-35"/>
     </g>
    </g>
    <g id="line2d_80">
     <path d="M 77.72 61.678353 
L 117.72 61.678353 
" style="fill:none;stroke:#00bfbf;stroke-linecap:square;stroke-width:1.5;"/>
    </g>
    <g id="line2d_81"/>
    <g id="text_15">
     <!-- -1: 1/5 -->
     <g transform="translate(133.72 68.678353)scale(0.2 -0.2)">
      <use xlink:href="#DejaVuSans-2d"/>
      <use x="36.083984" xlink:href="#DejaVuSans-31"/>
      <use x="99.707031" xlink:href="#DejaVuSans-3a"/>
      <use x="133.398438" xlink:href="#DejaVuSans-20"/>
      <use x="165.185547" xlink:href="#DejaVuSans-31"/>
      <use x="228.808594" xlink:href="#DejaVuSans-2f"/>
      <use x="262.5" xlink:href="#DejaVuSans-35"/>
     </g>
    </g>
    <g id="line2d_82">
     <path d="M 77.72 91.034603 
L 117.72 91.034603 
" style="fill:none;stroke:#bf00bf;stroke-linecap:square;stroke-width:1.5;"/>
    </g>
    <g id="line2d_83"/>
    <g id="text_16">
     <!-- -4: 0/5 -->
     <g transform="translate(133.72 98.034603)scale(0.2 -0.2)">
      <use xlink:href="#DejaVuSans-2d"/>
      <use x="36.083984" xlink:href="#DejaVuSans-34"/>
      <use x="99.707031" xlink:href="#DejaVuSans-3a"/>
      <use x="133.398438" xlink:href="#DejaVuSans-20"/>
      <use x="165.185547" xlink:href="#DejaVuSans-30"/>
      <use x="228.808594" xlink:href="#DejaVuSans-2f"/>
      <use x="262.5" xlink:href="#DejaVuSans-35"/>
     </g>
    </g>
    <g id="line2d_84">
     <path d="M 77.72 120.390853 
L 117.72 120.390853 
" style="fill:none;stroke:#ff0000;stroke-linecap:square;stroke-width:3;"/>
    </g>
    <g id="line2d_85"/>
    <g id="text_17">
     <!-- -8: 0/5 -->
     <g transform="translate(133.72 127.390853)scale(0.2 -0.2)">
      <use xlink:href="#DejaVuSans-2d"/>
      <use x="36.083984" xlink:href="#DejaVuSans-38"/>
      <use x="99.707031" xlink:href="#DejaVuSans-3a"/>
      <use x="133.398438" xlink:href="#DejaVuSans-20"/>
      <use x="165.185547" xlink:href="#DejaVuSans-30"/>
      <use x="228.808594" xlink:href="#DejaVuSans-2f"/>
      <use x="262.5" xlink:href="#DejaVuSans-35"/>
     </g>
    </g>
   </g>
  </g>
 </g>
 <defs>
  <clipPath id="p8a7c878b75">
   <rect height="285.154772" width="390.952" x="59.72" y="6.125228"/>
  </clipPath>
 </defs>
</svg>
