<?xml version="1.0" encoding="utf-8" standalone="no"?>
<!DOCTYPE svg PUBLIC "-//W3C//DTD SVG 1.1//EN"
  "http://www.w3.org/Graphics/SVG/1.1/DTD/svg11.dtd">
<!-- Created with matplotlib (http://matplotlib.org/) -->
<svg height="345.6pt" version="1.1" viewBox="0 0 460.8 345.6" width="460.8pt" xmlns="http://www.w3.org/2000/svg" xmlns:xlink="http://www.w3.org/1999/xlink">
 <defs>
  <style type="text/css">
*{stroke-linecap:butt;stroke-linejoin:round;}
  </style>
 </defs>
 <g id="figure_1">
  <g id="patch_1">
   <path d="M 0 345.6 
L 460.8 345.6 
L 460.8 0 
L 0 0 
z
" style="fill:#ffffff;"/>
  </g>
  <g id="axes_1">
   <g id="patch_2">
    <path d="M 56.84 294.16 
L 399.984 294.16 
L 399.984 24.84 
L 56.84 24.84 
z
" style="fill:#ffffff;"/>
   </g>
   <g id="matplotlib.axis_1">
    <g id="xtick_1">
     <g id="line2d_1">
      <path clip-path="url(#p1ab7ebe6d8)" d="M 56.84 294.16 
L 56.84 24.84 
" style="fill:none;stroke:#b0b0b0;stroke-linecap:square;stroke-width:0.8;"/>
     </g>
     <g id="line2d_2">
      <defs>
       <path d="M 0 0 
L 0 3.5 
" id="mf125a0d16e" style="stroke:#000000;stroke-width:0.8;"/>
      </defs>
      <g>
       <use style="stroke:#000000;stroke-width:0.8;" x="56.84" xlink:href="#mf125a0d16e" y="294.16"/>
      </g>
     </g>
     <g id="text_1">
      <!-- 0 -->
      <defs>
       <path d="M 31.78125 66.40625 
Q 24.171875 66.40625 20.328125 58.90625 
Q 16.5 51.421875 16.5 36.375 
Q 16.5 21.390625 20.328125 13.890625 
Q 24.171875 6.390625 31.78125 6.390625 
Q 39.453125 6.390625 43.28125 13.890625 
Q 47.125 21.390625 47.125 36.375 
Q 47.125 51.421875 43.28125 58.90625 
Q 39.453125 66.40625 31.78125 66.40625 
z
M 31.78125 74.21875 
Q 44.046875 74.21875 50.515625 64.515625 
Q 56.984375 54.828125 56.984375 36.375 
Q 56.984375 17.96875 50.515625 8.265625 
Q 44.046875 -1.421875 31.78125 -1.421875 
Q 19.53125 -1.421875 13.0625 8.265625 
Q 6.59375 17.96875 6.59375 36.375 
Q 6.59375 54.828125 13.0625 64.515625 
Q 19.53125 74.21875 31.78125 74.21875 
z
" id="DejaVuSans-30"/>
      </defs>
      <g transform="translate(50.4775 316.356875)scale(0.2 -0.2)">
       <use xlink:href="#DejaVuSans-30"/>
      </g>
     </g>
    </g>
    <g id="xtick_2">
     <g id="line2d_3">
      <path clip-path="url(#p1ab7ebe6d8)" d="M 135.905438 294.16 
L 135.905438 24.84 
" style="fill:none;stroke:#b0b0b0;stroke-linecap:square;stroke-width:0.8;"/>
     </g>
     <g id="line2d_4">
      <g>
       <use style="stroke:#000000;stroke-width:0.8;" x="135.905438" xlink:href="#mf125a0d16e" y="294.16"/>
      </g>
     </g>
     <g id="text_2">
      <!-- 2 -->
      <defs>
       <path d="M 19.1875 8.296875 
L 53.609375 8.296875 
L 53.609375 0 
L 7.328125 0 
L 7.328125 8.296875 
Q 12.9375 14.109375 22.625 23.890625 
Q 32.328125 33.6875 34.8125 36.53125 
Q 39.546875 41.84375 41.421875 45.53125 
Q 43.3125 49.21875 43.3125 52.78125 
Q 43.3125 58.59375 39.234375 62.25 
Q 35.15625 65.921875 28.609375 65.921875 
Q 23.96875 65.921875 18.8125 64.3125 
Q 13.671875 62.703125 7.8125 59.421875 
L 7.8125 69.390625 
Q 13.765625 71.78125 18.9375 73 
Q 24.125 74.21875 28.421875 74.21875 
Q 39.75 74.21875 46.484375 68.546875 
Q 53.21875 62.890625 53.21875 53.421875 
Q 53.21875 48.921875 51.53125 44.890625 
Q 49.859375 40.875 45.40625 35.40625 
Q 44.1875 33.984375 37.640625 27.21875 
Q 31.109375 20.453125 19.1875 8.296875 
z
" id="DejaVuSans-32"/>
      </defs>
      <g transform="translate(129.542938 316.356875)scale(0.2 -0.2)">
       <use xlink:href="#DejaVuSans-32"/>
      </g>
     </g>
    </g>
    <g id="xtick_3">
     <g id="line2d_5">
      <path clip-path="url(#p1ab7ebe6d8)" d="M 214.970876 294.16 
L 214.970876 24.84 
" style="fill:none;stroke:#b0b0b0;stroke-linecap:square;stroke-width:0.8;"/>
     </g>
     <g id="line2d_6">
      <g>
       <use style="stroke:#000000;stroke-width:0.8;" x="214.970876" xlink:href="#mf125a0d16e" y="294.16"/>
      </g>
     </g>
     <g id="text_3">
      <!-- 4 -->
      <defs>
       <path d="M 37.796875 64.3125 
L 12.890625 25.390625 
L 37.796875 25.390625 
z
M 35.203125 72.90625 
L 47.609375 72.90625 
L 47.609375 25.390625 
L 58.015625 25.390625 
L 58.015625 17.1875 
L 47.609375 17.1875 
L 47.609375 0 
L 37.796875 0 
L 37.796875 17.1875 
L 4.890625 17.1875 
L 4.890625 26.703125 
z
" id="DejaVuSans-34"/>
      </defs>
      <g transform="translate(208.608376 316.356875)scale(0.2 -0.2)">
       <use xlink:href="#DejaVuSans-34"/>
      </g>
     </g>
    </g>
    <g id="xtick_4">
     <g id="line2d_7">
      <path clip-path="url(#p1ab7ebe6d8)" d="M 294.036313 294.16 
L 294.036313 24.84 
" style="fill:none;stroke:#b0b0b0;stroke-linecap:square;stroke-width:0.8;"/>
     </g>
     <g id="line2d_8">
      <g>
       <use style="stroke:#000000;stroke-width:0.8;" x="294.036313" xlink:href="#mf125a0d16e" y="294.16"/>
      </g>
     </g>
     <g id="text_4">
      <!-- 6 -->
      <defs>
       <path d="M 33.015625 40.375 
Q 26.375 40.375 22.484375 35.828125 
Q 18.609375 31.296875 18.609375 23.390625 
Q 18.609375 15.53125 22.484375 10.953125 
Q 26.375 6.390625 33.015625 6.390625 
Q 39.65625 6.390625 43.53125 10.953125 
Q 47.40625 15.53125 47.40625 23.390625 
Q 47.40625 31.296875 43.53125 35.828125 
Q 39.65625 40.375 33.015625 40.375 
z
M 52.59375 71.296875 
L 52.59375 62.3125 
Q 48.875 64.0625 45.09375 64.984375 
Q 41.3125 65.921875 37.59375 65.921875 
Q 27.828125 65.921875 22.671875 59.328125 
Q 17.53125 52.734375 16.796875 39.40625 
Q 19.671875 43.65625 24.015625 45.921875 
Q 28.375 48.1875 33.59375 48.1875 
Q 44.578125 48.1875 50.953125 41.515625 
Q 57.328125 34.859375 57.328125 23.390625 
Q 57.328125 12.15625 50.6875 5.359375 
Q 44.046875 -1.421875 33.015625 -1.421875 
Q 20.359375 -1.421875 13.671875 8.265625 
Q 6.984375 17.96875 6.984375 36.375 
Q 6.984375 53.65625 15.1875 63.9375 
Q 23.390625 74.21875 37.203125 74.21875 
Q 40.921875 74.21875 44.703125 73.484375 
Q 48.484375 72.75 52.59375 71.296875 
z
" id="DejaVuSans-36"/>
      </defs>
      <g transform="translate(287.673813 316.356875)scale(0.2 -0.2)">
       <use xlink:href="#DejaVuSans-36"/>
      </g>
     </g>
    </g>
    <g id="xtick_5">
     <g id="line2d_9">
      <path clip-path="url(#p1ab7ebe6d8)" d="M 373.101751 294.16 
L 373.101751 24.84 
" style="fill:none;stroke:#b0b0b0;stroke-linecap:square;stroke-width:0.8;"/>
     </g>
     <g id="line2d_10">
      <g>
       <use style="stroke:#000000;stroke-width:0.8;" x="373.101751" xlink:href="#mf125a0d16e" y="294.16"/>
      </g>
     </g>
     <g id="text_5">
      <!-- 8 -->
      <defs>
       <path d="M 31.78125 34.625 
Q 24.75 34.625 20.71875 30.859375 
Q 16.703125 27.09375 16.703125 20.515625 
Q 16.703125 13.921875 20.71875 10.15625 
Q 24.75 6.390625 31.78125 6.390625 
Q 38.8125 6.390625 42.859375 10.171875 
Q 46.921875 13.96875 46.921875 20.515625 
Q 46.921875 27.09375 42.890625 30.859375 
Q 38.875 34.625 31.78125 34.625 
z
M 21.921875 38.8125 
Q 15.578125 40.375 12.03125 44.71875 
Q 8.5 49.078125 8.5 55.328125 
Q 8.5 64.0625 14.71875 69.140625 
Q 20.953125 74.21875 31.78125 74.21875 
Q 42.671875 74.21875 48.875 69.140625 
Q 55.078125 64.0625 55.078125 55.328125 
Q 55.078125 49.078125 51.53125 44.71875 
Q 48 40.375 41.703125 38.8125 
Q 48.828125 37.15625 52.796875 32.3125 
Q 56.78125 27.484375 56.78125 20.515625 
Q 56.78125 9.90625 50.3125 4.234375 
Q 43.84375 -1.421875 31.78125 -1.421875 
Q 19.734375 -1.421875 13.25 4.234375 
Q 6.78125 9.90625 6.78125 20.515625 
Q 6.78125 27.484375 10.78125 32.3125 
Q 14.796875 37.15625 21.921875 38.8125 
z
M 18.3125 54.390625 
Q 18.3125 48.734375 21.84375 45.5625 
Q 25.390625 42.390625 31.78125 42.390625 
Q 38.140625 42.390625 41.71875 45.5625 
Q 45.3125 48.734375 45.3125 54.390625 
Q 45.3125 60.0625 41.71875 63.234375 
Q 38.140625 66.40625 31.78125 66.40625 
Q 25.390625 66.40625 21.84375 63.234375 
Q 18.3125 60.0625 18.3125 54.390625 
z
" id="DejaVuSans-38"/>
      </defs>
      <g transform="translate(366.739251 316.356875)scale(0.2 -0.2)">
       <use xlink:href="#DejaVuSans-38"/>
      </g>
     </g>
    </g>
    <g id="text_6">
     <!-- log10(# f-evals / dimension) -->
     <defs>
      <path d="M 9.421875 75.984375 
L 18.40625 75.984375 
L 18.40625 0 
L 9.421875 0 
z
" id="DejaVuSans-6c"/>
      <path d="M 30.609375 48.390625 
Q 23.390625 48.390625 19.1875 42.75 
Q 14.984375 37.109375 14.984375 27.296875 
Q 14.984375 17.484375 19.15625 11.84375 
Q 23.34375 6.203125 30.609375 6.203125 
Q 37.796875 6.203125 41.984375 11.859375 
Q 46.1875 17.53125 46.1875 27.296875 
Q 46.1875 37.015625 41.984375 42.703125 
Q 37.796875 48.390625 30.609375 48.390625 
z
M 30.609375 56 
Q 42.328125 56 49.015625 48.375 
Q 55.71875 40.765625 55.71875 27.296875 
Q 55.71875 13.875 49.015625 6.21875 
Q 42.328125 -1.421875 30.609375 -1.421875 
Q 18.84375 -1.421875 12.171875 6.21875 
Q 5.515625 13.875 5.515625 27.296875 
Q 5.515625 40.765625 12.171875 48.375 
Q 18.84375 56 30.609375 56 
z
" id="DejaVuSans-6f"/>
      <path d="M 45.40625 27.984375 
Q 45.40625 37.75 41.375 43.109375 
Q 37.359375 48.484375 30.078125 48.484375 
Q 22.859375 48.484375 18.828125 43.109375 
Q 14.796875 37.75 14.796875 27.984375 
Q 14.796875 18.265625 18.828125 12.890625 
Q 22.859375 7.515625 30.078125 7.515625 
Q 37.359375 7.515625 41.375 12.890625 
Q 45.40625 18.265625 45.40625 27.984375 
z
M 54.390625 6.78125 
Q 54.390625 -7.171875 48.1875 -13.984375 
Q 42 -20.796875 29.203125 -20.796875 
Q 24.46875 -20.796875 20.265625 -20.09375 
Q 16.0625 -19.390625 12.109375 -17.921875 
L 12.109375 -9.1875 
Q 16.0625 -11.328125 19.921875 -12.34375 
Q 23.78125 -13.375 27.78125 -13.375 
Q 36.625 -13.375 41.015625 -8.765625 
Q 45.40625 -4.15625 45.40625 5.171875 
L 45.40625 9.625 
Q 42.625 4.78125 38.28125 2.390625 
Q 33.9375 0 27.875 0 
Q 17.828125 0 11.671875 7.65625 
Q 5.515625 15.328125 5.515625 27.984375 
Q 5.515625 40.671875 11.671875 48.328125 
Q 17.828125 56 27.875 56 
Q 33.9375 56 38.28125 53.609375 
Q 42.625 51.21875 45.40625 46.390625 
L 45.40625 54.6875 
L 54.390625 54.6875 
z
" id="DejaVuSans-67"/>
      <path d="M 12.40625 8.296875 
L 28.515625 8.296875 
L 28.515625 63.921875 
L 10.984375 60.40625 
L 10.984375 69.390625 
L 28.421875 72.90625 
L 38.28125 72.90625 
L 38.28125 8.296875 
L 54.390625 8.296875 
L 54.390625 0 
L 12.40625 0 
z
" id="DejaVuSans-31"/>
      <path d="M 31 75.875 
Q 24.46875 64.65625 21.28125 53.65625 
Q 18.109375 42.671875 18.109375 31.390625 
Q 18.109375 20.125 21.3125 9.0625 
Q 24.515625 -2 31 -13.1875 
L 23.1875 -13.1875 
Q 15.875 -1.703125 12.234375 9.375 
Q 8.59375 20.453125 8.59375 31.390625 
Q 8.59375 42.28125 12.203125 53.3125 
Q 15.828125 64.359375 23.1875 75.875 
z
" id="DejaVuSans-28"/>
      <path d="M 51.125 44 
L 36.921875 44 
L 32.8125 27.6875 
L 47.125 27.6875 
z
M 43.796875 71.78125 
L 38.71875 51.515625 
L 52.984375 51.515625 
L 58.109375 71.78125 
L 65.921875 71.78125 
L 60.890625 51.515625 
L 76.125 51.515625 
L 76.125 44 
L 58.984375 44 
L 54.984375 27.6875 
L 70.515625 27.6875 
L 70.515625 20.21875 
L 53.078125 20.21875 
L 48 0 
L 40.1875 0 
L 45.21875 20.21875 
L 30.90625 20.21875 
L 25.875 0 
L 18.015625 0 
L 23.09375 20.21875 
L 7.71875 20.21875 
L 7.71875 27.6875 
L 24.90625 27.6875 
L 29 44 
L 13.28125 44 
L 13.28125 51.515625 
L 30.90625 51.515625 
L 35.890625 71.78125 
z
" id="DejaVuSans-23"/>
      <path id="DejaVuSans-20"/>
      <path d="M 37.109375 75.984375 
L 37.109375 68.5 
L 28.515625 68.5 
Q 23.6875 68.5 21.796875 66.546875 
Q 19.921875 64.59375 19.921875 59.515625 
L 19.921875 54.6875 
L 34.71875 54.6875 
L 34.71875 47.703125 
L 19.921875 47.703125 
L 19.921875 0 
L 10.890625 0 
L 10.890625 47.703125 
L 2.296875 47.703125 
L 2.296875 54.6875 
L 10.890625 54.6875 
L 10.890625 58.5 
Q 10.890625 67.625 15.140625 71.796875 
Q 19.390625 75.984375 28.609375 75.984375 
z
" id="DejaVuSans-66"/>
      <path d="M 4.890625 31.390625 
L 31.203125 31.390625 
L 31.203125 23.390625 
L 4.890625 23.390625 
z
" id="DejaVuSans-2d"/>
      <path d="M 56.203125 29.59375 
L 56.203125 25.203125 
L 14.890625 25.203125 
Q 15.484375 15.921875 20.484375 11.0625 
Q 25.484375 6.203125 34.421875 6.203125 
Q 39.59375 6.203125 44.453125 7.46875 
Q 49.3125 8.734375 54.109375 11.28125 
L 54.109375 2.78125 
Q 49.265625 0.734375 44.1875 -0.34375 
Q 39.109375 -1.421875 33.890625 -1.421875 
Q 20.796875 -1.421875 13.15625 6.1875 
Q 5.515625 13.8125 5.515625 26.8125 
Q 5.515625 40.234375 12.765625 48.109375 
Q 20.015625 56 32.328125 56 
Q 43.359375 56 49.78125 48.890625 
Q 56.203125 41.796875 56.203125 29.59375 
z
M 47.21875 32.234375 
Q 47.125 39.59375 43.09375 43.984375 
Q 39.0625 48.390625 32.421875 48.390625 
Q 24.90625 48.390625 20.390625 44.140625 
Q 15.875 39.890625 15.1875 32.171875 
z
" id="DejaVuSans-65"/>
      <path d="M 2.984375 54.6875 
L 12.5 54.6875 
L 29.59375 8.796875 
L 46.6875 54.6875 
L 56.203125 54.6875 
L 35.6875 0 
L 23.484375 0 
z
" id="DejaVuSans-76"/>
      <path d="M 34.28125 27.484375 
Q 23.390625 27.484375 19.1875 25 
Q 14.984375 22.515625 14.984375 16.5 
Q 14.984375 11.71875 18.140625 8.90625 
Q 21.296875 6.109375 26.703125 6.109375 
Q 34.1875 6.109375 38.703125 11.40625 
Q 43.21875 16.703125 43.21875 25.484375 
L 43.21875 27.484375 
z
M 52.203125 31.203125 
L 52.203125 0 
L 43.21875 0 
L 43.21875 8.296875 
Q 40.140625 3.328125 35.546875 0.953125 
Q 30.953125 -1.421875 24.3125 -1.421875 
Q 15.921875 -1.421875 10.953125 3.296875 
Q 6 8.015625 6 15.921875 
Q 6 25.140625 12.171875 29.828125 
Q 18.359375 34.515625 30.609375 34.515625 
L 43.21875 34.515625 
L 43.21875 35.40625 
Q 43.21875 41.609375 39.140625 45 
Q 35.0625 48.390625 27.6875 48.390625 
Q 23 48.390625 18.546875 47.265625 
Q 14.109375 46.140625 10.015625 43.890625 
L 10.015625 52.203125 
Q 14.9375 54.109375 19.578125 55.046875 
Q 24.21875 56 28.609375 56 
Q 40.484375 56 46.34375 49.84375 
Q 52.203125 43.703125 52.203125 31.203125 
z
" id="DejaVuSans-61"/>
      <path d="M 44.28125 53.078125 
L 44.28125 44.578125 
Q 40.484375 46.53125 36.375 47.5 
Q 32.28125 48.484375 27.875 48.484375 
Q 21.1875 48.484375 17.84375 46.4375 
Q 14.5 44.390625 14.5 40.28125 
Q 14.5 37.15625 16.890625 35.375 
Q 19.28125 33.59375 26.515625 31.984375 
L 29.59375 31.296875 
Q 39.15625 29.25 43.1875 25.515625 
Q 47.21875 21.78125 47.21875 15.09375 
Q 47.21875 7.46875 41.1875 3.015625 
Q 35.15625 -1.421875 24.609375 -1.421875 
Q 20.21875 -1.421875 15.453125 -0.5625 
Q 10.6875 0.296875 5.421875 2 
L 5.421875 11.28125 
Q 10.40625 8.6875 15.234375 7.390625 
Q 20.0625 6.109375 24.8125 6.109375 
Q 31.15625 6.109375 34.5625 8.28125 
Q 37.984375 10.453125 37.984375 14.40625 
Q 37.984375 18.0625 35.515625 20.015625 
Q 33.0625 21.96875 24.703125 23.78125 
L 21.578125 24.515625 
Q 13.234375 26.265625 9.515625 29.90625 
Q 5.8125 33.546875 5.8125 39.890625 
Q 5.8125 47.609375 11.28125 51.796875 
Q 16.75 56 26.8125 56 
Q 31.78125 56 36.171875 55.265625 
Q 40.578125 54.546875 44.28125 53.078125 
z
" id="DejaVuSans-73"/>
      <path d="M 25.390625 72.90625 
L 33.6875 72.90625 
L 8.296875 -9.28125 
L 0 -9.28125 
z
" id="DejaVuSans-2f"/>
      <path d="M 45.40625 46.390625 
L 45.40625 75.984375 
L 54.390625 75.984375 
L 54.390625 0 
L 45.40625 0 
L 45.40625 8.203125 
Q 42.578125 3.328125 38.25 0.953125 
Q 33.9375 -1.421875 27.875 -1.421875 
Q 17.96875 -1.421875 11.734375 6.484375 
Q 5.515625 14.40625 5.515625 27.296875 
Q 5.515625 40.1875 11.734375 48.09375 
Q 17.96875 56 27.875 56 
Q 33.9375 56 38.25 53.625 
Q 42.578125 51.265625 45.40625 46.390625 
z
M 14.796875 27.296875 
Q 14.796875 17.390625 18.875 11.75 
Q 22.953125 6.109375 30.078125 6.109375 
Q 37.203125 6.109375 41.296875 11.75 
Q 45.40625 17.390625 45.40625 27.296875 
Q 45.40625 37.203125 41.296875 42.84375 
Q 37.203125 48.484375 30.078125 48.484375 
Q 22.953125 48.484375 18.875 42.84375 
Q 14.796875 37.203125 14.796875 27.296875 
z
" id="DejaVuSans-64"/>
      <path d="M 9.421875 54.6875 
L 18.40625 54.6875 
L 18.40625 0 
L 9.421875 0 
z
M 9.421875 75.984375 
L 18.40625 75.984375 
L 18.40625 64.59375 
L 9.421875 64.59375 
z
" id="DejaVuSans-69"/>
      <path d="M 52 44.1875 
Q 55.375 50.25 60.0625 53.125 
Q 64.75 56 71.09375 56 
Q 79.640625 56 84.28125 50.015625 
Q 88.921875 44.046875 88.921875 33.015625 
L 88.921875 0 
L 79.890625 0 
L 79.890625 32.71875 
Q 79.890625 40.578125 77.09375 44.375 
Q 74.3125 48.1875 68.609375 48.1875 
Q 61.625 48.1875 57.5625 43.546875 
Q 53.515625 38.921875 53.515625 30.90625 
L 53.515625 0 
L 44.484375 0 
L 44.484375 32.71875 
Q 44.484375 40.625 41.703125 44.40625 
Q 38.921875 48.1875 33.109375 48.1875 
Q 26.21875 48.1875 22.15625 43.53125 
Q 18.109375 38.875 18.109375 30.90625 
L 18.109375 0 
L 9.078125 0 
L 9.078125 54.6875 
L 18.109375 54.6875 
L 18.109375 46.1875 
Q 21.1875 51.21875 25.484375 53.609375 
Q 29.78125 56 35.6875 56 
Q 41.65625 56 45.828125 52.96875 
Q 50 49.953125 52 44.1875 
z
" id="DejaVuSans-6d"/>
      <path d="M 54.890625 33.015625 
L 54.890625 0 
L 45.90625 0 
L 45.90625 32.71875 
Q 45.90625 40.484375 42.875 44.328125 
Q 39.84375 48.1875 33.796875 48.1875 
Q 26.515625 48.1875 22.3125 43.546875 
Q 18.109375 38.921875 18.109375 30.90625 
L 18.109375 0 
L 9.078125 0 
L 9.078125 54.6875 
L 18.109375 54.6875 
L 18.109375 46.1875 
Q 21.34375 51.125 25.703125 53.5625 
Q 30.078125 56 35.796875 56 
Q 45.21875 56 50.046875 50.171875 
Q 54.890625 44.34375 54.890625 33.015625 
z
" id="DejaVuSans-6e"/>
      <path d="M 8.015625 75.875 
L 15.828125 75.875 
Q 23.140625 64.359375 26.78125 53.3125 
Q 30.421875 42.28125 30.421875 31.390625 
Q 30.421875 20.453125 26.78125 9.375 
Q 23.140625 -1.703125 15.828125 -13.1875 
L 8.015625 -13.1875 
Q 14.5 -2 17.703125 9.0625 
Q 20.90625 20.125 20.90625 31.390625 
Q 20.90625 42.671875 17.703125 53.65625 
Q 14.5 64.65625 8.015625 75.875 
z
" id="DejaVuSans-29"/>
     </defs>
     <g transform="translate(107.571219 337.433594)scale(0.17 -0.17)">
      <use xlink:href="#DejaVuSans-6c"/>
      <use x="27.783203" xlink:href="#DejaVuSans-6f"/>
      <use x="88.964844" xlink:href="#DejaVuSans-67"/>
      <use x="152.441406" xlink:href="#DejaVuSans-31"/>
      <use x="216.064453" xlink:href="#DejaVuSans-30"/>
      <use x="279.6875" xlink:href="#DejaVuSans-28"/>
      <use x="318.701172" xlink:href="#DejaVuSans-23"/>
      <use x="402.490234" xlink:href="#DejaVuSans-20"/>
      <use x="434.277344" xlink:href="#DejaVuSans-66"/>
      <use x="469.404297" xlink:href="#DejaVuSans-2d"/>
      <use x="505.488281" xlink:href="#DejaVuSans-65"/>
      <use x="567.011719" xlink:href="#DejaVuSans-76"/>
      <use x="626.191406" xlink:href="#DejaVuSans-61"/>
      <use x="687.470703" xlink:href="#DejaVuSans-6c"/>
      <use x="715.253906" xlink:href="#DejaVuSans-73"/>
      <use x="767.353516" xlink:href="#DejaVuSans-20"/>
      <use x="799.140625" xlink:href="#DejaVuSans-2f"/>
      <use x="832.832031" xlink:href="#DejaVuSans-20"/>
      <use x="864.619141" xlink:href="#DejaVuSans-64"/>
      <use x="928.095703" xlink:href="#DejaVuSans-69"/>
      <use x="955.878906" xlink:href="#DejaVuSans-6d"/>
      <use x="1053.291016" xlink:href="#DejaVuSans-65"/>
      <use x="1114.814453" xlink:href="#DejaVuSans-6e"/>
      <use x="1178.193359" xlink:href="#DejaVuSans-73"/>
      <use x="1230.292969" xlink:href="#DejaVuSans-69"/>
      <use x="1258.076172" xlink:href="#DejaVuSans-6f"/>
      <use x="1319.257812" xlink:href="#DejaVuSans-6e"/>
      <use x="1382.636719" xlink:href="#DejaVuSans-29"/>
     </g>
    </g>
   </g>
   <g id="matplotlib.axis_2">
    <g id="ytick_1">
     <g id="line2d_11">
      <path clip-path="url(#p1ab7ebe6d8)" d="M 56.84 294.16 
L 399.984 294.16 
" style="fill:none;stroke:#b0b0b0;stroke-linecap:square;stroke-width:0.8;"/>
     </g>
     <g id="line2d_12">
      <defs>
       <path d="M 0 0 
L -3.5 0 
" id="mbf68a76067" style="stroke:#000000;stroke-width:0.8;"/>
      </defs>
      <g>
       <use style="stroke:#000000;stroke-width:0.8;" x="56.84" xlink:href="#mbf68a76067" y="294.16"/>
      </g>
     </g>
     <g id="text_7">
      <!-- 0.0 -->
      <defs>
       <path d="M 10.6875 12.40625 
L 21 12.40625 
L 21 0 
L 10.6875 0 
z
" id="DejaVuSans-2e"/>
      </defs>
      <g transform="translate(24.395 300.23875)scale(0.16 -0.16)">
       <use xlink:href="#DejaVuSans-30"/>
       <use x="63.623047" xlink:href="#DejaVuSans-2e"/>
       <use x="95.410156" xlink:href="#DejaVuSans-30"/>
      </g>
     </g>
    </g>
    <g id="ytick_2">
     <g id="line2d_13">
      <path clip-path="url(#p1ab7ebe6d8)" d="M 56.84 240.829307 
L 399.984 240.829307 
" style="fill:none;stroke:#b0b0b0;stroke-linecap:square;stroke-width:0.8;"/>
     </g>
     <g id="line2d_14">
      <g>
       <use style="stroke:#000000;stroke-width:0.8;" x="56.84" xlink:href="#mbf68a76067" y="240.829307"/>
      </g>
     </g>
     <g id="text_8">
      <!-- 0.2 -->
      <g transform="translate(24.395 246.908057)scale(0.16 -0.16)">
       <use xlink:href="#DejaVuSans-30"/>
       <use x="63.623047" xlink:href="#DejaVuSans-2e"/>
       <use x="95.410156" xlink:href="#DejaVuSans-32"/>
      </g>
     </g>
    </g>
    <g id="ytick_3">
     <g id="line2d_15">
      <path clip-path="url(#p1ab7ebe6d8)" d="M 56.84 187.498614 
L 399.984 187.498614 
" style="fill:none;stroke:#b0b0b0;stroke-linecap:square;stroke-width:0.8;"/>
     </g>
     <g id="line2d_16">
      <g>
       <use style="stroke:#000000;stroke-width:0.8;" x="56.84" xlink:href="#mbf68a76067" y="187.498614"/>
      </g>
     </g>
     <g id="text_9">
      <!-- 0.4 -->
      <g transform="translate(24.395 193.577364)scale(0.16 -0.16)">
       <use xlink:href="#DejaVuSans-30"/>
       <use x="63.623047" xlink:href="#DejaVuSans-2e"/>
       <use x="95.410156" xlink:href="#DejaVuSans-34"/>
      </g>
     </g>
    </g>
    <g id="ytick_4">
     <g id="line2d_17">
      <path clip-path="url(#p1ab7ebe6d8)" d="M 56.84 134.167921 
L 399.984 134.167921 
" style="fill:none;stroke:#b0b0b0;stroke-linecap:square;stroke-width:0.8;"/>
     </g>
     <g id="line2d_18">
      <g>
       <use style="stroke:#000000;stroke-width:0.8;" x="56.84" xlink:href="#mbf68a76067" y="134.167921"/>
      </g>
     </g>
     <g id="text_10">
      <!-- 0.6 -->
      <g transform="translate(24.395 140.246671)scale(0.16 -0.16)">
       <use xlink:href="#DejaVuSans-30"/>
       <use x="63.623047" xlink:href="#DejaVuSans-2e"/>
       <use x="95.410156" xlink:href="#DejaVuSans-36"/>
      </g>
     </g>
    </g>
    <g id="ytick_5">
     <g id="line2d_19">
      <path clip-path="url(#p1ab7ebe6d8)" d="M 56.84 80.837228 
L 399.984 80.837228 
" style="fill:none;stroke:#b0b0b0;stroke-linecap:square;stroke-width:0.8;"/>
     </g>
     <g id="line2d_20">
      <g>
       <use style="stroke:#000000;stroke-width:0.8;" x="56.84" xlink:href="#mbf68a76067" y="80.837228"/>
      </g>
     </g>
     <g id="text_11">
      <!-- 0.8 -->
      <g transform="translate(24.395 86.915978)scale(0.16 -0.16)">
       <use xlink:href="#DejaVuSans-30"/>
       <use x="63.623047" xlink:href="#DejaVuSans-2e"/>
       <use x="95.410156" xlink:href="#DejaVuSans-38"/>
      </g>
     </g>
    </g>
    <g id="ytick_6">
     <g id="line2d_21">
      <path clip-path="url(#p1ab7ebe6d8)" d="M 56.84 27.506535 
L 399.984 27.506535 
" style="fill:none;stroke:#b0b0b0;stroke-linecap:square;stroke-width:0.8;"/>
     </g>
     <g id="line2d_22">
      <g>
       <use style="stroke:#000000;stroke-width:0.8;" x="56.84" xlink:href="#mbf68a76067" y="27.506535"/>
      </g>
     </g>
     <g id="text_12">
      <!-- 1.0 -->
      <g transform="translate(24.395 33.585285)scale(0.16 -0.16)">
       <use xlink:href="#DejaVuSans-31"/>
       <use x="63.623047" xlink:href="#DejaVuSans-2e"/>
       <use x="95.410156" xlink:href="#DejaVuSans-30"/>
      </g>
     </g>
    </g>
    <g id="text_13">
     <!-- Fraction of function,target pairs -->
     <defs>
      <path d="M 9.8125 72.90625 
L 51.703125 72.90625 
L 51.703125 64.59375 
L 19.671875 64.59375 
L 19.671875 43.109375 
L 48.578125 43.109375 
L 48.578125 34.8125 
L 19.671875 34.8125 
L 19.671875 0 
L 9.8125 0 
z
" id="DejaVuSans-46"/>
      <path d="M 41.109375 46.296875 
Q 39.59375 47.171875 37.8125 47.578125 
Q 36.03125 48 33.890625 48 
Q 26.265625 48 22.1875 43.046875 
Q 18.109375 38.09375 18.109375 28.8125 
L 18.109375 0 
L 9.078125 0 
L 9.078125 54.6875 
L 18.109375 54.6875 
L 18.109375 46.1875 
Q 20.953125 51.171875 25.484375 53.578125 
Q 30.03125 56 36.53125 56 
Q 37.453125 56 38.578125 55.875 
Q 39.703125 55.765625 41.0625 55.515625 
z
" id="DejaVuSans-72"/>
      <path d="M 48.78125 52.59375 
L 48.78125 44.1875 
Q 44.96875 46.296875 41.140625 47.34375 
Q 37.3125 48.390625 33.40625 48.390625 
Q 24.65625 48.390625 19.8125 42.84375 
Q 14.984375 37.3125 14.984375 27.296875 
Q 14.984375 17.28125 19.8125 11.734375 
Q 24.65625 6.203125 33.40625 6.203125 
Q 37.3125 6.203125 41.140625 7.25 
Q 44.96875 8.296875 48.78125 10.40625 
L 48.78125 2.09375 
Q 45.015625 0.34375 40.984375 -0.53125 
Q 36.96875 -1.421875 32.421875 -1.421875 
Q 20.0625 -1.421875 12.78125 6.34375 
Q 5.515625 14.109375 5.515625 27.296875 
Q 5.515625 40.671875 12.859375 48.328125 
Q 20.21875 56 33.015625 56 
Q 37.15625 56 41.109375 55.140625 
Q 45.0625 54.296875 48.78125 52.59375 
z
" id="DejaVuSans-63"/>
      <path d="M 18.3125 70.21875 
L 18.3125 54.6875 
L 36.8125 54.6875 
L 36.8125 47.703125 
L 18.3125 47.703125 
L 18.3125 18.015625 
Q 18.3125 11.328125 20.140625 9.421875 
Q 21.96875 7.515625 27.59375 7.515625 
L 36.8125 7.515625 
L 36.8125 0 
L 27.59375 0 
Q 17.1875 0 13.234375 3.875 
Q 9.28125 7.765625 9.28125 18.015625 
L 9.28125 47.703125 
L 2.6875 47.703125 
L 2.6875 54.6875 
L 9.28125 54.6875 
L 9.28125 70.21875 
z
" id="DejaVuSans-74"/>
      <path d="M 8.5 21.578125 
L 8.5 54.6875 
L 17.484375 54.6875 
L 17.484375 21.921875 
Q 17.484375 14.15625 20.5 10.265625 
Q 23.53125 6.390625 29.59375 6.390625 
Q 36.859375 6.390625 41.078125 11.03125 
Q 45.3125 15.671875 45.3125 23.6875 
L 45.3125 54.6875 
L 54.296875 54.6875 
L 54.296875 0 
L 45.3125 0 
L 45.3125 8.40625 
Q 42.046875 3.421875 37.71875 1 
Q 33.40625 -1.421875 27.6875 -1.421875 
Q 18.265625 -1.421875 13.375 4.4375 
Q 8.5 10.296875 8.5 21.578125 
z
M 31.109375 56 
z
" id="DejaVuSans-75"/>
      <path d="M 11.71875 12.40625 
L 22.015625 12.40625 
L 22.015625 4 
L 14.015625 -11.625 
L 7.71875 -11.625 
L 11.71875 4 
z
" id="DejaVuSans-2c"/>
      <path d="M 18.109375 8.203125 
L 18.109375 -20.796875 
L 9.078125 -20.796875 
L 9.078125 54.6875 
L 18.109375 54.6875 
L 18.109375 46.390625 
Q 20.953125 51.265625 25.265625 53.625 
Q 29.59375 56 35.59375 56 
Q 45.5625 56 51.78125 48.09375 
Q 58.015625 40.1875 58.015625 27.296875 
Q 58.015625 14.40625 51.78125 6.484375 
Q 45.5625 -1.421875 35.59375 -1.421875 
Q 29.59375 -1.421875 25.265625 0.953125 
Q 20.953125 3.328125 18.109375 8.203125 
z
M 48.6875 27.296875 
Q 48.6875 37.203125 44.609375 42.84375 
Q 40.53125 48.484375 33.40625 48.484375 
Q 26.265625 48.484375 22.1875 42.84375 
Q 18.109375 37.203125 18.109375 27.296875 
Q 18.109375 17.390625 22.1875 11.75 
Q 26.265625 6.109375 33.40625 6.109375 
Q 40.53125 6.109375 44.609375 11.75 
Q 48.6875 17.390625 48.6875 27.296875 
z
" id="DejaVuSans-70"/>
     </defs>
     <g transform="translate(16.859531 294.639375)rotate(-90)scale(0.17 -0.17)">
      <use xlink:href="#DejaVuSans-46"/>
      <use x="57.410156" xlink:href="#DejaVuSans-72"/>
      <use x="98.523438" xlink:href="#DejaVuSans-61"/>
      <use x="159.802734" xlink:href="#DejaVuSans-63"/>
      <use x="214.783203" xlink:href="#DejaVuSans-74"/>
      <use x="253.992188" xlink:href="#DejaVuSans-69"/>
      <use x="281.775391" xlink:href="#DejaVuSans-6f"/>
      <use x="342.957031" xlink:href="#DejaVuSans-6e"/>
      <use x="406.335938" xlink:href="#DejaVuSans-20"/>
      <use x="438.123047" xlink:href="#DejaVuSans-6f"/>
      <use x="499.304688" xlink:href="#DejaVuSans-66"/>
      <use x="534.509766" xlink:href="#DejaVuSans-20"/>
      <use x="566.296875" xlink:href="#DejaVuSans-66"/>
      <use x="601.501953" xlink:href="#DejaVuSans-75"/>
      <use x="664.880859" xlink:href="#DejaVuSans-6e"/>
      <use x="728.259766" xlink:href="#DejaVuSans-63"/>
      <use x="783.240234" xlink:href="#DejaVuSans-74"/>
      <use x="822.449219" xlink:href="#DejaVuSans-69"/>
      <use x="850.232422" xlink:href="#DejaVuSans-6f"/>
      <use x="911.414062" xlink:href="#DejaVuSans-6e"/>
      <use x="974.792969" xlink:href="#DejaVuSans-2c"/>
      <use x="1006.580078" xlink:href="#DejaVuSans-74"/>
      <use x="1045.789062" xlink:href="#DejaVuSans-61"/>
      <use x="1107.068359" xlink:href="#DejaVuSans-72"/>
      <use x="1148.166016" xlink:href="#DejaVuSans-67"/>
      <use x="1211.642578" xlink:href="#DejaVuSans-65"/>
      <use x="1273.166016" xlink:href="#DejaVuSans-74"/>
      <use x="1312.375" xlink:href="#DejaVuSans-20"/>
      <use x="1344.162109" xlink:href="#DejaVuSans-70"/>
      <use x="1407.638672" xlink:href="#DejaVuSans-61"/>
      <use x="1468.917969" xlink:href="#DejaVuSans-69"/>
      <use x="1496.701172" xlink:href="#DejaVuSans-72"/>
      <use x="1537.814453" xlink:href="#DejaVuSans-73"/>
     </g>
    </g>
   </g>
   <g id="line2d_23">
    <defs>
     <path d="M 0 1.5 
C 0.397805 1.5 0.77937 1.341951 1.06066 1.06066 
C 1.341951 0.77937 1.5 0.397805 1.5 0 
C 1.5 -0.397805 1.341951 -0.77937 1.06066 -1.06066 
C 0.77937 -1.341951 0.397805 -1.5 0 -1.5 
C -0.397805 -1.5 -0.77937 -1.341951 -1.06066 -1.06066 
C -1.341951 -0.77937 -1.5 -0.397805 -1.5 0 
C -1.5 0.397805 -1.341951 0.77937 -1.06066 1.06066 
C -0.77937 1.341951 -0.397805 1.5 0 1.5 
z
" id="m3535d14b78" style="stroke:#00bfbf;"/>
    </defs>
    <g>
     <use style="fill:#00bfbf;stroke:#00bfbf;" x="243.568449" xlink:href="#m3535d14b78" y="27.506535"/>
     <use style="fill:#00bfbf;stroke:#00bfbf;" x="243.568449" xlink:href="#m3535d14b78" y="27.506535"/>
    </g>
   </g>
   <g id="line2d_24">
    <path d="M 44.939466 294.16 
L 44.939466 267.494653 
L 56.84 267.494653 
L 56.84 262.789004 
L 63.801366 262.789004 
L 63.801366 261.220454 
L 68.740534 261.220454 
L 68.740534 258.083355 
L 72.57165 258.083355 
L 72.57165 257.037655 
L 75.7019 257.037655 
L 75.7019 256.514805 
L 80.641068 256.514805 
L 80.641068 253.377705 
L 82.663267 253.377705 
L 82.663267 252.332005 
L 86.10855 252.332005 
L 86.10855 250.240606 
L 88.976675 250.240606 
L 88.976675 249.194906 
L 90.249023 249.194906 
L 90.249023 247.626356 
L 91.433551 247.626356 
L 91.433551 245.534956 
L 93.582457 245.534956 
L 93.582457 245.012106 
L 94.563801 245.012106 
L 94.563801 244.489256 
L 106.934744 244.489256 
L 106.934744 242.920707 
L 109.514915 242.920707 
L 109.514915 239.783607 
L 110.295451 239.783607 
L 110.295451 236.123658 
L 111.757512 236.123658 
L 111.757512 234.555108 
L 113.104779 234.555108 
L 113.104779 232.986558 
L 116.07229 232.986558 
L 116.07229 225.666659 
L 116.60886 225.666659 
L 116.60886 220.43816 
L 122.195986 220.43816 
L 122.195986 217.30106 
L 123.124257 217.30106 
L 123.124257 216.25536 
L 123.658047 216.25536 
L 123.658047 215.20966 
L 124.175739 215.20966 
L 124.175739 214.16396 
L 127.277634 214.16396 
L 127.277634 213.118261 
L 129.409839 213.118261 
L 129.409839 212.595411 
L 130.619413 212.595411 
L 130.619413 211.026861 
L 137.619667 211.026861 
L 137.619667 209.981161 
L 137.927636 209.981161 
L 137.927636 209.458311 
L 138.674225 209.458311 
L 138.674225 208.935461 
L 138.964001 208.935461 
L 138.964001 208.412611 
L 140.930236 208.412611 
L 140.930236 207.366911 
L 141.057886 207.366911 
L 141.057886 206.321211 
L 143.974856 206.321211 
L 143.974856 204.752662 
L 147.371295 204.752662 
L 147.371295 204.229812 
L 147.546488 204.229812 
L 147.546488 203.706962 
L 149.24612 203.706962 
L 149.24612 203.184112 
L 150.280008 203.184112 
L 150.280008 202.661262 
L 150.428016 202.661262 
L 150.428016 202.138412 
L 151.773893 202.138412 
L 151.773893 201.615562 
L 152.990185 201.615562 
L 153.053539 199.524162 
L 154.214864 199.524162 
L 154.244389 197.432763 
L 157.48735 197.432763 
L 157.48735 196.909913 
L 158.414337 196.909913 
L 158.414337 195.864213 
L 159.468797 195.864213 
L 159.468797 195.341363 
L 165.189589 195.341363 
L 165.236307 193.772813 
L 165.468009 193.772813 
L 165.468009 192.727113 
L 167.627742 192.727113 
L 167.627742 192.204263 
L 168.186777 192.204263 
L 168.186777 191.681413 
L 168.626364 191.681413 
L 168.626364 190.635713 
L 170.521865 190.635713 
L 170.521865 190.112864 
L 170.995363 190.112864 
L 170.995363 189.590014 
L 171.434488 189.590014 
L 171.542536 188.021464 
L 171.841504 188.021464 
L 171.841504 185.930064 
L 172.290729 185.930064 
L 172.290729 185.407214 
L 173.866054 185.407214 
L 173.875459 184.361514 
L 176.607798 184.361514 
L 176.631839 183.315814 
L 176.988463 183.315814 
L 177.019807 181.747265 
L 177.860087 181.747265 
L 177.860087 181.224415 
L 178.467962 181.224415 
L 178.467962 180.701565 
L 179.589051 180.701565 
L 179.676458 178.087315 
L 180.093858 178.087315 
L 180.100402 175.473065 
L 180.596963 175.473065 
L 180.596963 174.427366 
L 180.899394 174.427366 
L 180.899394 173.904516 
L 181.098095 173.904516 
L 181.098095 172.858816 
L 181.668824 172.858816 
L 181.668824 172.335966 
L 183.464599 172.335966 
L 183.464599 171.813116 
L 183.852822 171.813116 
L 183.852822 171.290266 
L 184.046291 171.290266 
L 184.046291 170.767416 
L 184.679221 170.767416 
L 184.679221 169.721716 
L 185.060821 169.721716 
L 185.134182 168.153166 
L 185.43892 168.153166 
L 185.43892 167.630316 
L 185.629633 167.630316 
L 185.629633 167.107467 
L 186.22148 167.107467 
L 186.271795 166.061767 
L 186.789171 166.061767 
L 186.789171 165.016067 
L 186.926011 165.016067 
L 186.934802 162.924667 
L 188.073861 162.924667 
L 188.082083 161.878967 
L 188.188621 161.878967 
L 188.278254 154.036218 
L 188.379545 154.036218 
L 188.423925 150.899119 
L 188.971154 150.899119 
L 188.971154 150.376269 
L 189.083966 150.376269 
L 189.083966 149.853419 
L 189.284413 149.853419 
L 189.284413 149.330569 
L 189.84614 149.330569 
L 189.84614 148.807719 
L 190.114783 148.807719 
L 190.118434 147.239169 
L 190.26022 147.239169 
L 190.26022 146.193469 
L 190.749211 146.193469 
L 190.829956 144.624919 
L 190.993786 144.624919 
L 191.018053 143.05637 
L 191.935381 143.05637 
L 192.043413 142.01067 
L 192.218739 142.01067 
L 192.302521 140.96497 
L 192.583095 140.96497 
L 192.583095 140.44212 
L 192.821774 140.44212 
L 192.821774 139.91927 
L 193.182846 139.91927 
L 193.182846 139.39642 
L 193.319723 139.39642 
L 193.319723 138.35072 
L 193.664641 138.35072 
L 193.664641 137.82787 
L 194.130395 137.82787 
L 194.139062 136.78217 
L 195.300467 136.78217 
L 195.375887 134.690771 
L 195.795372 134.690771 
L 195.894751 133.645071 
L 196.197168 133.645071 
L 196.197168 133.122221 
L 196.405987 133.122221 
L 196.408518 130.507971 
L 196.617299 130.507971 
L 196.712044 128.939421 
L 197.770295 128.939421 
L 197.788988 127.893722 
L 197.951682 127.893722 
L 197.951682 126.848022 
L 198.317867 126.848022 
L 198.326923 125.279472 
L 198.498072 125.279472 
L 198.500313 123.710922 
L 198.674187 123.710922 
L 198.674187 122.665222 
L 199.064505 122.665222 
L 199.064505 122.142372 
L 199.371771 122.142372 
L 199.393053 121.096672 
L 200.021621 121.096672 
L 200.107527 117.436723 
L 200.456914 117.436723 
L 200.456914 116.391023 
L 200.706979 116.391023 
L 200.78757 115.345323 
L 200.996129 115.345323 
L 200.996129 114.299623 
L 201.305243 114.299623 
L 201.305243 113.253924 
L 201.481297 113.253924 
L 201.481297 112.731074 
L 202.051792 112.731074 
L 202.144454 111.162524 
L 202.191502 111.162524 
L 202.191502 110.639674 
L 202.349791 110.639674 
L 202.349791 110.116824 
L 202.63038 110.116824 
L 202.697185 109.071124 
L 202.770721 109.071124 
L 202.770721 108.548274 
L 202.970472 108.548274 
L 202.979105 107.502574 
L 203.183283 107.502574 
L 203.183283 106.979724 
L 203.319194 106.979724 
L 203.319194 106.456874 
L 204.107964 106.456874 
L 204.135417 104.888325 
L 204.444054 104.888325 
L 204.497855 103.319775 
L 204.61751 103.319775 
L 204.619079 101.228375 
L 204.739452 101.228375 
L 204.739452 100.705525 
L 205.008397 100.705525 
L 205.008397 100.182675 
L 205.487798 100.182675 
L 205.596325 98.614125 
L 205.618541 98.614125 
L 205.618541 98.091275 
L 205.831821 98.091275 
L 205.833283 97.045576 
L 205.945465 97.045576 
L 206.000558 95.477026 
L 206.194867 95.477026 
L 206.297607 94.431326 
L 206.522335 94.431326 
L 206.522335 93.908476 
L 206.997335 93.908476 
L 206.997335 92.862776 
L 207.238752 92.862776 
L 207.238752 92.339926 
L 207.407615 92.339926 
L 207.407615 91.817076 
L 207.602544 91.817076 
L 207.655205 88.679977 
L 207.814831 88.679977 
L 207.814831 88.157127 
L 208.325495 88.157127 
L 208.325495 87.634277 
L 208.732749 87.634277 
L 208.732749 86.588577 
L 208.923046 86.588577 
L 208.971814 85.542877 
L 209.164309 85.542877 
L 209.167921 84.497177 
L 209.653287 84.497177 
L 209.653287 83.974327 
L 209.794288 83.974327 
L 209.794288 83.451477 
L 210.244423 83.451477 
L 210.327876 82.405778 
L 210.433303 82.405778 
L 210.433303 81.882928 
L 210.775374 81.882928 
L 210.816974 80.837228 
L 210.957449 80.837228 
L 211.034277 79.791528 
L 211.547992 79.791528 
L 211.555326 78.745828 
L 211.905744 78.745828 
L 211.905744 78.222978 
L 212.363444 78.222978 
L 212.403367 76.654428 
L 212.930533 76.654428 
L 212.930533 76.131578 
L 213.268455 76.131578 
L 213.3016 75.085878 
L 213.410058 75.085878 
L 213.410058 74.040179 
L 213.558894 74.040179 
L 213.561689 72.994479 
L 213.938657 72.994479 
L 213.938657 71.948779 
L 214.054046 71.948779 
L 214.054046 70.903079 
L 214.395632 70.903079 
L 214.410716 69.334529 
L 214.963148 69.334529 
L 215.024017 68.288829 
L 215.432466 68.288829 
L 215.432466 67.765979 
L 215.718378 67.765979 
L 215.718378 67.243129 
L 216.118049 67.243129 
L 216.118049 66.72028 
L 216.529807 66.72028 
L 216.529807 66.19743 
L 216.693648 66.19743 
L 216.693648 65.15173 
L 216.818209 65.15173 
L 216.912765 63.58318 
L 217.028139 63.58318 
L 217.088951 62.53748 
L 217.387586 62.53748 
L 217.45977 60.96893 
L 217.602496 60.96893 
L 217.637075 59.92323 
L 217.740393 59.92323 
L 217.740393 59.400381 
L 218.261334 59.400381 
L 218.261334 58.877531 
L 218.432696 58.877531 
L 218.432696 58.354681 
L 218.843833 58.354681 
L 218.843833 57.831831 
L 219.143327 57.831831 
L 219.251377 56.786131 
L 219.729034 56.786131 
L 219.758289 55.217581 
L 219.959761 55.217581 
L 219.959761 54.694731 
L 220.646241 54.694731 
L 220.646241 54.171881 
L 220.894249 54.171881 
L 220.980363 53.126181 
L 221.029292 53.126181 
L 221.029292 52.603331 
L 221.274244 52.603331 
L 221.274244 52.080481 
L 221.459369 52.080481 
L 221.47407 51.034782 
L 222.153433 51.034782 
L 222.153433 50.511932 
L 222.267741 50.511932 
L 222.287372 49.466232 
L 222.441955 49.466232 
L 222.441955 48.943382 
L 222.671523 48.943382 
L 222.771547 47.897682 
L 222.953155 47.897682 
L 222.953155 47.374832 
L 223.253574 47.374832 
L 223.253574 46.851982 
L 223.371337 46.851982 
L 223.412338 45.806282 
L 223.760035 45.806282 
L 223.760035 45.283432 
L 224.35616 45.283432 
L 224.35616 44.760582 
L 224.474027 44.760582 
L 224.474027 44.237732 
L 225.320461 44.237732 
L 225.320461 43.714883 
L 225.550988 43.714883 
L 225.550988 43.192033 
L 226.446415 43.192033 
L 226.535061 41.623483 
L 226.765495 41.623483 
L 226.765495 41.100633 
L 226.898858 41.100633 
L 226.931824 40.054933 
L 227.782911 40.054933 
L 227.782911 39.009233 
L 228.426813 39.009233 
L 228.469884 37.963533 
L 228.594958 37.963533 
L 228.624826 36.917833 
L 229.837776 36.917833 
L 229.837776 36.394983 
L 230.053802 36.394983 
L 230.053802 35.872134 
L 230.165765 35.872134 
L 230.165765 35.349284 
L 230.587108 35.349284 
L 230.587108 34.826434 
L 230.915128 34.826434 
L 230.915128 34.303584 
L 231.049582 34.303584 
L 231.049582 33.780734 
L 231.171635 33.780734 
L 231.171635 33.257884 
L 232.606502 33.257884 
L 232.606502 32.735034 
L 234.302999 32.735034 
L 234.302999 32.212184 
L 234.935998 32.212184 
L 234.935998 31.689334 
L 236.017497 31.689334 
L 236.017497 31.166484 
L 236.416461 31.166484 
L 236.416461 30.643634 
L 237.429954 30.643634 
L 237.429954 30.120784 
L 237.577833 30.120784 
L 237.578293 29.075084 
L 238.510717 29.075084 
L 238.510717 28.552235 
L 239.746419 28.552235 
L 239.746419 28.029385 
L 243.568449 28.029385 
L 243.568449 27.506535 
L 333.569032 27.506535 
L 333.569032 27.506535 
" style="fill:none;stroke:#00bfbf;stroke-linecap:square;stroke-width:1.5;"/>
   </g>
   <g id="line2d_25">
    <defs>
     <path d="M -6 0 
L 6 0 
M 0 6 
L 0 -6 
" id="me22e737315" style="stroke:#00bfbf;stroke-width:1.5;"/>
    </defs>
    <g>
     <use style="fill-opacity:0;stroke:#00bfbf;stroke-width:1.5;" x="153.053539" xlink:href="#me22e737315" y="200.047012"/>
     <use style="fill-opacity:0;stroke:#00bfbf;stroke-width:1.5;" x="195.894751" xlink:href="#me22e737315" y="134.167921"/>
     <use style="fill-opacity:0;stroke:#00bfbf;stroke-width:1.5;" x="217.637075" xlink:href="#me22e737315" y="60.44608"/>
     <use style="fill-opacity:0;stroke:#00bfbf;stroke-width:1.5;" x="243.568449" xlink:href="#me22e737315" y="27.506535"/>
     <use style="fill-opacity:0;stroke:#00bfbf;stroke-width:1.5;" x="243.568449" xlink:href="#me22e737315" y="27.506535"/>
     <use style="fill-opacity:0;stroke:#00bfbf;stroke-width:1.5;" x="333.569032" xlink:href="#me22e737315" y="27.506535"/>
    </g>
   </g>
   <g id="line2d_26">
    <path style="fill:none;stroke:#00bfbf;stroke-linecap:square;stroke-width:1.5;"/>
    <g/>
   </g>
   <g id="line2d_27">
    <path clip-path="url(#p1ab7ebe6d8)" d="M 188.012065 162.924667 
" style="fill:none;stroke:#00bfbf;stroke-linecap:square;stroke-width:1.5;"/>
    <defs>
     <path d="M -12 12 
L 12 -12 
M -12 -12 
L 12 12 
" id="mdb6274cb46" style="stroke:#00bfbf;stroke-width:3;"/>
    </defs>
    <g clip-path="url(#p1ab7ebe6d8)">
     <use style="fill:#00bfbf;stroke:#00bfbf;stroke-width:3;" x="188.012065" xlink:href="#mdb6274cb46" y="162.924667"/>
    </g>
   </g>
   <g id="line2d_28">
    <defs>
     <path d="M 0 1.5 
C 0.397805 1.5 0.77937 1.341951 1.06066 1.06066 
C 1.341951 0.77937 1.5 0.397805 1.5 0 
C 1.5 -0.397805 1.341951 -0.77937 1.06066 -1.06066 
C 0.77937 -1.341951 0.397805 -1.5 0 -1.5 
C -0.397805 -1.5 -0.77937 -1.341951 -1.06066 -1.06066 
C -1.341951 -0.77937 -1.5 -0.397805 -1.5 0 
C -1.5 0.397805 -1.341951 0.77937 -1.06066 1.06066 
C -0.77937 1.341951 -0.397805 1.5 0 1.5 
z
" id="mbb2a735d59" style="stroke:#008000;"/>
    </defs>
    <g>
     <use style="fill:#008000;stroke:#008000;" x="266.364738" xlink:href="#mbb2a735d59" y="132.076521"/>
     <use style="fill:#008000;stroke:#008000;" x="266.364738" xlink:href="#mbb2a735d59" y="132.076521"/>
    </g>
   </g>
   <g id="line2d_29">
    <path d="M 37.9781 294.16 
L 37.9781 276.383102 
L 49.878634 276.383102 
L 49.878634 270.631753 
L 56.84 270.631753 
L 56.84 269.586053 
L 61.779168 269.586053 
L 61.779168 266.448954 
L 68.740534 266.448954 
L 68.740534 265.926104 
L 71.387123 265.926104 
L 71.387123 265.403254 
L 73.679702 265.403254 
L 73.679702 263.311854 
L 79.147184 263.311854 
L 79.147184 261.743304 
L 80.641068 261.743304 
L 80.641068 261.220454 
L 82.015309 261.220454 
L 82.015309 258.083355 
L 83.287657 258.083355 
L 83.287657 256.514805 
L 85.580236 256.514805 
L 85.580236 255.991955 
L 86.621091 255.991955 
L 86.621091 254.423405 
L 87.602435 254.423405 
L 87.602435 253.377705 
L 89.411353 253.377705 
L 89.411353 252.854855 
L 90.249023 252.854855 
L 90.249023 251.286306 
L 105.143003 251.286306 
L 105.143003 250.240606 
L 106.143413 250.240606 
L 106.143413 249.717756 
L 107.088725 249.717756 
L 107.088725 249.194906 
L 107.691203 249.194906 
L 107.691203 248.149206 
L 113.425701 248.149206 
L 113.425701 247.103506 
L 114.848786 247.103506 
L 114.848786 245.012106 
L 117.214373 245.012106 
L 117.214373 244.489256 
L 117.881208 244.489256 
L 117.881208 242.397857 
L 118.523109 242.397857 
L 118.523109 241.875007 
L 119.73911 241.875007 
L 119.73911 241.352157 
L 123.774446 241.352157 
L 123.774446 240.829307 
L 133.775598 240.829307 
L 133.775598 240.306457 
L 135.962572 240.306457 
L 135.962572 239.260757 
L 136.189227 239.260757 
L 136.189227 237.692207 
L 140.409928 237.692207 
L 140.409928 237.169357 
L 148.534287 237.169357 
L 148.561691 236.123658 
L 161.613862 236.123658 
L 161.613862 235.600808 
L 163.594757 235.600808 
L 163.594757 235.077958 
L 164.440574 235.077958 
L 164.440574 234.555108 
L 165.81732 234.555108 
L 165.81732 234.032258 
L 166.194019 234.032258 
L 166.194019 233.509408 
L 166.533815 233.509408 
L 166.533815 232.463708 
L 170.291716 232.463708 
L 170.291716 231.418008 
L 170.891264 231.418008 
L 170.891264 230.895158 
L 171.520981 230.895158 
L 171.520981 230.372308 
L 176.875673 230.372308 
L 176.875673 229.326608 
L 177.301927 229.326608 
L 177.301927 228.803758 
L 177.506078 228.803758 
L 177.506078 228.280909 
L 178.491931 228.280909 
L 178.491931 226.712359 
L 179.442375 226.712359 
L 179.442375 226.189509 
L 179.969041 226.189509 
L 179.969041 225.666659 
L 182.250078 225.666659 
L 182.307711 224.620959 
L 182.410965 224.620959 
L 182.410965 224.098109 
L 182.866219 224.098109 
L 182.866219 223.575259 
L 184.987146 223.575259 
L 184.987146 223.052409 
L 185.21209 223.052409 
L 185.267061 220.96101 
L 185.395715 220.96101 
L 185.488391 219.91531 
L 185.975416 219.91531 
L 185.975416 218.86961 
L 187.053042 218.86961 
L 187.053042 218.34676 
L 188.058776 218.34676 
L 188.058776 217.30106 
L 188.726133 217.30106 
L 188.831383 213.64111 
L 189.05292 213.64111 
L 189.05292 213.118261 
L 189.653432 213.118261 
L 189.653432 212.595411 
L 191.354237 212.595411 
L 191.354237 212.072561 
L 191.72169 212.072561 
L 191.72169 211.549711 
L 192.077102 211.549711 
L 192.176694 210.504011 
L 192.258533 210.504011 
L 192.333567 209.458311 
L 193.190988 209.458311 
L 193.190988 208.935461 
L 193.830125 208.935461 
L 193.830125 208.412611 
L 195.231943 208.412611 
L 195.231943 207.889761 
L 195.950291 207.889761 
L 195.950291 207.366911 
L 196.95155 207.366911 
L 196.95155 206.321211 
L 197.29625 206.321211 
L 197.29625 205.798361 
L 197.531748 205.798361 
L 197.531748 205.275512 
L 197.731288 205.275512 
L 197.778086 204.229812 
L 199.93597 204.229812 
L 199.93597 203.706962 
L 200.056444 203.706962 
L 200.056444 203.184112 
L 200.327145 203.184112 
L 200.327145 202.661262 
L 200.440913 202.661262 
L 200.440913 202.138412 
L 202.065147 202.138412 
L 202.065147 201.615562 
L 202.726988 201.615562 
L 202.726988 201.092712 
L 204.246931 201.092712 
L 204.336475 199.001312 
L 204.587674 199.001312 
L 204.587674 198.478462 
L 204.957713 198.478462 
L 204.957713 197.955613 
L 205.285774 197.955613 
L 205.323961 196.387063 
L 205.990423 196.387063 
L 205.993319 195.341363 
L 206.221563 195.341363 
L 206.31088 193.772813 
L 206.563008 193.772813 
L 206.563008 193.249963 
L 206.919761 193.249963 
L 206.919761 192.727113 
L 207.151439 192.727113 
L 207.151439 189.590014 
L 207.438704 189.590014 
L 207.438704 189.067164 
L 209.030153 189.067164 
L 209.030153 188.544314 
L 209.881493 188.544314 
L 209.881493 188.021464 
L 210.663945 188.021464 
L 210.663945 187.498614 
L 211.32617 187.498614 
L 211.39256 185.407214 
L 211.525274 185.407214 
L 211.525274 183.838664 
L 212.021658 183.838664 
L 212.021658 181.747265 
L 212.238419 181.747265 
L 212.238419 181.224415 
L 212.92312 181.224415 
L 212.977197 180.178715 
L 214.731135 180.178715 
L 214.731135 179.655865 
L 215.151908 179.655865 
L 215.25579 178.610165 
L 215.41435 178.610165 
L 215.458352 177.564465 
L 215.811271 177.564465 
L 215.811271 177.041615 
L 215.985317 177.041615 
L 215.985317 176.518765 
L 216.242324 176.518765 
L 216.242324 175.995915 
L 216.453072 175.995915 
L 216.453072 175.473065 
L 217.51118 175.473065 
L 217.51118 173.904516 
L 218.365201 173.904516 
L 218.365201 173.381666 
L 218.583131 173.381666 
L 218.619725 172.335966 
L 218.782294 172.335966 
L 218.782294 171.813116 
L 219.059191 171.813116 
L 219.059191 171.290266 
L 219.451137 171.290266 
L 219.522406 170.244566 
L 220.478267 170.244566 
L 220.478267 169.721716 
L 220.724398 169.721716 
L 220.773856 168.676016 
L 221.070862 168.676016 
L 221.128132 167.630316 
L 221.257189 167.630316 
L 221.257189 167.107467 
L 221.665397 167.107467 
L 221.665397 166.584617 
L 222.064125 166.584617 
L 222.064125 166.061767 
L 222.273352 166.061767 
L 222.273352 165.538917 
L 222.89157 165.538917 
L 222.89157 165.016067 
L 224.461684 165.016067 
L 224.461684 163.970367 
L 225.120577 163.970367 
L 225.120577 163.447517 
L 225.464087 163.447517 
L 225.521141 162.401817 
L 225.828856 162.401817 
L 225.828856 161.878967 
L 226.238072 161.878967 
L 226.238072 161.356117 
L 227.628498 161.356117 
L 227.716164 160.310417 
L 228.145781 160.310417 
L 228.145781 159.787567 
L 228.482524 159.787567 
L 228.482524 159.264718 
L 228.959106 159.264718 
L 228.959106 158.741868 
L 229.077031 158.741868 
L 229.077031 158.219018 
L 229.553526 158.219018 
L 229.553526 157.696168 
L 230.035725 157.696168 
L 230.131366 156.127618 
L 230.471604 156.127618 
L 230.471604 155.604768 
L 231.67765 155.604768 
L 231.67765 155.081918 
L 232.113706 155.081918 
L 232.113706 154.559068 
L 232.398515 154.559068 
L 232.398515 154.036218 
L 233.38146 154.036218 
L 233.38146 153.513368 
L 234.01192 153.513368 
L 234.01192 152.990518 
L 234.562005 152.990518 
L 234.562005 152.467668 
L 234.809233 152.467668 
L 234.809233 151.944818 
L 235.208073 151.944818 
L 235.208073 151.421969 
L 235.49375 151.421969 
L 235.49375 150.899119 
L 236.391497 150.899119 
L 236.391497 150.376269 
L 236.704349 150.376269 
L 236.704349 149.853419 
L 237.572847 149.853419 
L 237.682958 148.807719 
L 238.436471 148.807719 
L 238.50447 147.762019 
L 239.075986 147.762019 
L 239.121187 146.716319 
L 239.487226 146.716319 
L 239.487226 146.193469 
L 239.974432 146.193469 
L 240.069944 145.147769 
L 240.167039 145.147769 
L 240.167039 144.624919 
L 240.322903 144.624919 
L 240.322903 144.10207 
L 240.571803 144.10207 
L 240.571803 143.57922 
L 241.650455 143.57922 
L 241.650455 143.05637 
L 241.919592 143.05637 
L 241.919592 142.53352 
L 242.305886 142.53352 
L 242.305886 142.01067 
L 243.666415 142.01067 
L 243.666415 141.48782 
L 244.108339 141.48782 
L 244.108339 140.96497 
L 244.432294 140.96497 
L 244.507651 139.91927 
L 246.609363 139.91927 
L 246.609363 139.39642 
L 247.102708 139.39642 
L 247.102708 138.87357 
L 247.643653 138.87357 
L 247.643653 138.35072 
L 247.847338 138.35072 
L 247.847338 137.82787 
L 249.102414 137.82787 
L 249.102414 137.30502 
L 249.227144 137.30502 
L 249.227144 136.78217 
L 250.487275 136.78217 
L 250.487275 136.259321 
L 251.366819 136.259321 
L 251.366819 135.736471 
L 255.193744 135.736471 
L 255.193744 135.213621 
L 256.513834 135.213621 
L 256.513834 134.690771 
L 257.2044 134.690771 
L 257.2044 134.167921 
L 258.096224 134.167921 
L 258.096224 133.645071 
L 258.376095 133.645071 
L 258.376095 133.122221 
L 264.133283 133.122221 
L 264.133283 132.599371 
L 266.364738 132.599371 
L 266.364738 132.076521 
L 333.569032 132.076521 
L 333.569032 132.076521 
" style="fill:none;stroke:#008000;stroke-linecap:square;stroke-width:1.5;"/>
   </g>
   <g id="line2d_30">
    <defs>
     <path d="M -0 6 
L 6 -6 
L -6 -6 
z
" id="m21fd1d69b5" style="stroke:#008000;stroke-linejoin:miter;stroke-width:1.5;"/>
    </defs>
    <g>
     <use style="fill-opacity:0;stroke:#008000;stroke-linejoin:miter;stroke-width:1.5;" x="71.387123" xlink:href="#m21fd1d69b5" y="265.926104"/>
     <use style="fill-opacity:0;stroke:#008000;stroke-linejoin:miter;stroke-width:1.5;" x="148.561691" xlink:href="#m21fd1d69b5" y="236.646507"/>
     <use style="fill-opacity:0;stroke:#008000;stroke-linejoin:miter;stroke-width:1.5;" x="206.31088" xlink:href="#m21fd1d69b5" y="193.772813"/>
     <use style="fill-opacity:0;stroke:#008000;stroke-linejoin:miter;stroke-width:1.5;" x="266.364738" xlink:href="#m21fd1d69b5" y="132.599371"/>
     <use style="fill-opacity:0;stroke:#008000;stroke-linejoin:miter;stroke-width:1.5;" x="266.364738" xlink:href="#m21fd1d69b5" y="132.076521"/>
     <use style="fill-opacity:0;stroke:#008000;stroke-linejoin:miter;stroke-width:1.5;" x="333.569032" xlink:href="#m21fd1d69b5" y="132.076521"/>
    </g>
   </g>
   <g id="line2d_31">
    <path style="fill:none;stroke:#008000;stroke-linecap:square;stroke-width:1.5;"/>
    <g/>
   </g>
   <g id="line2d_32">
    <path clip-path="url(#p1ab7ebe6d8)" d="M 188.012065 218.34676 
" style="fill:none;stroke:#008000;stroke-linecap:square;stroke-width:1.5;"/>
    <defs>
     <path d="M -12 12 
L 12 -12 
M -12 -12 
L 12 12 
" id="m68361d26ea" style="stroke:#008000;stroke-width:3;"/>
    </defs>
    <g clip-path="url(#p1ab7ebe6d8)">
     <use style="fill:#008000;stroke:#008000;stroke-width:3;" x="188.012065" xlink:href="#m68361d26ea" y="218.34676"/>
    </g>
   </g>
   <g id="line2d_33">
    <defs>
     <path d="M 0 1.5 
C 0.397805 1.5 0.77937 1.341951 1.06066 1.06066 
C 1.341951 0.77937 1.5 0.397805 1.5 0 
C 1.5 -0.397805 1.341951 -0.77937 1.06066 -1.06066 
C 0.77937 -1.341951 0.397805 -1.5 0 -1.5 
C -0.397805 -1.5 -0.77937 -1.341951 -1.06066 -1.06066 
C -1.341951 -0.77937 -1.5 -0.397805 -1.5 0 
C -1.5 0.397805 -1.341951 0.77937 -1.06066 1.06066 
C -0.77937 1.341951 -0.397805 1.5 0 1.5 
z
" id="m612ceb124f" style="stroke:#0000ff;"/>
    </defs>
    <g>
     <use style="fill:#0000ff;stroke:#0000ff;" x="253.236285" xlink:href="#m612ceb124f" y="215.73251"/>
     <use style="fill:#0000ff;stroke:#0000ff;" x="253.236285" xlink:href="#m612ceb124f" y="215.73251"/>
    </g>
   </g>
   <g id="line2d_34">
    <path d="M 29.207815 294.16 
L 29.207815 285.271551 
L 41.10835 285.271551 
L 41.10835 283.180151 
L 48.069716 283.180151 
L 48.069716 281.088752 
L 53.008884 281.088752 
L 53.008884 279.520202 
L 56.84 279.520202 
L 56.84 277.428802 
L 62.616839 277.428802 
L 62.616839 273.768853 
L 64.909418 273.768853 
L 64.909418 273.246003 
L 68.740534 273.246003 
L 68.740534 270.631753 
L 73.245025 270.631753 
L 73.245025 268.540353 
L 74.517373 268.540353 
L 74.517373 268.017503 
L 75.7019 268.017503 
L 75.7019 267.494653 
L 82.277434 267.494653 
L 82.277434 266.971804 
L 94.563801 266.971804 
L 94.563801 265.926104 
L 100.61102 265.926104 
L 100.61102 265.403254 
L 104.226174 265.403254 
L 104.226174 264.880404 
L 108.1007 264.880404 
L 108.1007 262.789004 
L 109.752824 262.789004 
L 109.752824 262.266154 
L 115.907994 262.266154 
L 115.907994 261.220454 
L 129.334482 261.220454 
L 129.334482 260.697604 
L 131.238797 260.697604 
L 131.238797 260.174754 
L 151.38806 260.174754 
L 151.38806 259.651904 
L 156.141579 259.651904 
L 156.141579 259.129055 
L 164.349111 259.129055 
L 164.349111 258.606205 
L 165.155248 258.606205 
L 165.155248 257.560505 
L 176.606194 257.560505 
L 176.606194 257.037655 
L 177.950798 257.037655 
L 177.950798 256.514805 
L 182.312313 256.514805 
L 182.319214 254.946255 
L 182.692316 254.946255 
L 182.692316 254.423405 
L 183.039848 254.423405 
L 183.039848 253.900555 
L 184.711263 253.900555 
L 184.711263 253.377705 
L 185.723259 253.377705 
L 185.723259 252.854855 
L 188.033513 252.854855 
L 188.033513 252.332005 
L 188.267685 252.332005 
L 188.267685 251.286306 
L 188.565973 251.286306 
L 188.652072 249.194906 
L 195.608667 249.194906 
L 195.608667 248.672056 
L 196.438861 248.672056 
L 196.438861 247.626356 
L 196.869951 247.626356 
L 196.869951 247.103506 
L 197.301055 247.103506 
L 197.301055 246.580656 
L 197.564272 246.580656 
L 197.564272 246.057806 
L 198.341401 246.057806 
L 198.341401 245.534956 
L 198.806308 245.534956 
L 198.806308 245.012106 
L 200.224241 245.012106 
L 200.224241 244.489256 
L 201.625334 244.489256 
L 201.625334 243.966407 
L 203.766812 243.966407 
L 203.766812 242.920707 
L 204.12767 242.920707 
L 204.12767 242.397857 
L 204.782706 242.397857 
L 204.782706 240.829307 
L 205.344626 240.829307 
L 205.344626 240.306457 
L 206.933842 240.306457 
L 206.933842 239.260757 
L 207.060594 239.260757 
L 207.082354 237.692207 
L 208.034558 237.692207 
L 208.034558 237.169357 
L 208.25887 237.169357 
L 208.25887 236.646507 
L 210.105261 236.646507 
L 210.105261 236.123658 
L 210.698477 236.123658 
L 210.698477 235.600808 
L 211.268897 235.600808 
L 211.268897 235.077958 
L 214.337835 235.077958 
L 214.337835 234.555108 
L 215.676906 234.555108 
L 215.676906 234.032258 
L 215.838933 234.032258 
L 215.838933 233.509408 
L 218.266577 233.509408 
L 218.266577 232.986558 
L 218.413599 232.986558 
L 218.504678 231.940858 
L 220.157627 231.940858 
L 220.157627 231.418008 
L 220.555826 231.418008 
L 220.555826 230.372308 
L 220.986653 230.372308 
L 220.986653 229.849458 
L 222.613318 229.849458 
L 222.613318 229.326608 
L 222.734557 229.326608 
L 222.734557 228.803758 
L 222.908879 228.803758 
L 222.908879 228.280909 
L 225.398926 228.280909 
L 225.398926 227.758059 
L 225.556457 227.758059 
L 225.556457 227.235209 
L 225.755848 227.235209 
L 225.755848 226.712359 
L 227.241837 226.712359 
L 227.241837 226.189509 
L 228.635596 226.189509 
L 228.635596 225.666659 
L 229.505534 225.666659 
L 229.505534 225.143809 
L 230.028537 225.143809 
L 230.028537 224.620959 
L 230.203914 224.620959 
L 230.203914 224.098109 
L 231.453381 224.098109 
L 231.453381 223.052409 
L 231.614858 223.052409 
L 231.614858 222.529559 
L 232.894442 222.529559 
L 232.894442 222.006709 
L 234.304781 222.006709 
L 234.304781 221.483859 
L 234.543639 221.483859 
L 234.543639 220.96101 
L 235.131625 220.96101 
L 235.131625 220.43816 
L 235.425488 220.43816 
L 235.425488 219.39246 
L 236.201245 219.39246 
L 236.201245 218.86961 
L 242.000774 218.86961 
L 242.000774 218.34676 
L 245.009895 218.34676 
L 245.009895 217.82391 
L 248.380978 217.82391 
L 248.380978 217.30106 
L 248.967261 217.30106 
L 248.967261 216.77821 
L 252.409532 216.77821 
L 252.409532 216.25536 
L 253.236285 216.25536 
L 253.236285 215.73251 
L 333.569032 215.73251 
L 333.569032 215.73251 
" style="fill:none;stroke:#0000ff;stroke-linecap:square;stroke-width:1.5;"/>
   </g>
   <g id="line2d_35">
    <defs>
     <path d="M 0 -6 
L -1.347084 -1.854102 
L -5.706339 -1.854102 
L -2.179628 0.708204 
L -3.526712 4.854102 
L -0 2.291796 
L 3.526712 4.854102 
L 2.179628 0.708204 
L 5.706339 -1.854102 
L 1.347084 -1.854102 
z
" id="mfc6b0ede67" style="stroke:#0000ff;stroke-linejoin:bevel;stroke-width:1.5;"/>
    </defs>
    <g>
     <use style="fill-opacity:0;stroke:#0000ff;stroke-linejoin:bevel;stroke-width:1.5;" x="108.1007" xlink:href="#mfc6b0ede67" y="262.789004"/>
     <use style="fill-opacity:0;stroke:#0000ff;stroke-linejoin:bevel;stroke-width:1.5;" x="195.608667" xlink:href="#mfc6b0ede67" y="249.194906"/>
     <use style="fill-opacity:0;stroke:#0000ff;stroke-linejoin:bevel;stroke-width:1.5;" x="236.201245" xlink:href="#mfc6b0ede67" y="219.39246"/>
     <use style="fill-opacity:0;stroke:#0000ff;stroke-linejoin:bevel;stroke-width:1.5;" x="253.236285" xlink:href="#mfc6b0ede67" y="215.73251"/>
     <use style="fill-opacity:0;stroke:#0000ff;stroke-linejoin:bevel;stroke-width:1.5;" x="253.236285" xlink:href="#mfc6b0ede67" y="215.73251"/>
     <use style="fill-opacity:0;stroke:#0000ff;stroke-linejoin:bevel;stroke-width:1.5;" x="333.569032" xlink:href="#mfc6b0ede67" y="215.73251"/>
    </g>
   </g>
   <g id="line2d_36">
    <path style="fill:none;stroke:#0000ff;stroke-linecap:square;stroke-width:1.5;"/>
    <g/>
   </g>
   <g id="line2d_37">
    <path clip-path="url(#p1ab7ebe6d8)" d="M 188.012065 252.854855 
" style="fill:none;stroke:#0000ff;stroke-linecap:square;stroke-width:1.5;"/>
    <defs>
     <path d="M -12 12 
L 12 -12 
M -12 -12 
L 12 12 
" id="md85f95ff8c" style="stroke:#0000ff;stroke-width:3;"/>
    </defs>
    <g clip-path="url(#p1ab7ebe6d8)">
     <use style="fill:#0000ff;stroke:#0000ff;stroke-width:3;" x="188.012065" xlink:href="#md85f95ff8c" y="252.854855"/>
    </g>
   </g>
   <g id="line2d_38">
    <defs>
     <path d="M 0 1.5 
C 0.397805 1.5 0.77937 1.341951 1.06066 1.06066 
C 1.341951 0.77937 1.5 0.397805 1.5 0 
C 1.5 -0.397805 1.341951 -0.77937 1.06066 -1.06066 
C 0.77937 -1.341951 0.397805 -1.5 0 -1.5 
C -0.397805 -1.5 -0.77937 -1.341951 -1.06066 -1.06066 
C -1.341951 -0.77937 -1.5 -0.397805 -1.5 0 
C -1.5 0.397805 -1.341951 0.77937 -1.06066 1.06066 
C -0.77937 1.341951 -0.397805 1.5 0 1.5 
z
" id="m382916174d" style="stroke:#000000;"/>
    </defs>
    <g>
     <use style="stroke:#000000;" x="258.151666" xlink:href="#m382916174d" y="247.103506"/>
     <use style="stroke:#000000;" x="258.151666" xlink:href="#m382916174d" y="247.103506"/>
    </g>
   </g>
   <g id="line2d_39">
    <path d="M 17.307281 294.16 
L 17.307281 287.885801 
L 41.10835 287.885801 
L 41.10835 286.840101 
L 50.716304 286.840101 
L 50.716304 285.271551 
L 67.859888 285.271551 
L 67.859888 284.225851 
L 76.264864 284.225851 
L 76.264864 282.134452 
L 81.065012 282.134452 
L 81.065012 281.088752 
L 85.793517 281.088752 
L 85.793517 280.565902 
L 93.582457 280.565902 
L 93.582457 279.520202 
L 99.64545 279.520202 
L 99.64545 278.997352 
L 100.744631 278.997352 
L 100.744631 278.474502 
L 102.026483 278.474502 
L 102.026483 277.951652 
L 102.752035 277.951652 
L 102.752035 277.428802 
L 119.957824 277.428802 
L 119.957824 276.905952 
L 121.771088 276.905952 
L 121.771088 276.383102 
L 123.232351 276.383102 
L 123.232351 275.860252 
L 125.765681 275.860252 
L 125.765681 275.337402 
L 164.84305 275.337402 
L 164.84305 274.814553 
L 166.274234 274.814553 
L 166.274234 273.768853 
L 173.671156 273.768853 
L 173.671156 273.246003 
L 174.636845 273.246003 
L 174.636845 272.723153 
L 176.86251 272.723153 
L 176.86251 272.200303 
L 178.715144 272.200303 
L 178.715144 271.677453 
L 180.859376 271.677453 
L 180.859376 271.154603 
L 182.378908 271.154603 
L 182.378908 270.108903 
L 184.366693 270.108903 
L 184.366693 269.586053 
L 184.969417 269.586053 
L 184.969417 269.063203 
L 188.037634 269.063203 
L 188.037634 268.017503 
L 188.402153 268.017503 
L 188.402153 267.494653 
L 188.463367 267.494653 
L 188.463367 266.971804 
L 192.276142 266.971804 
L 192.276142 266.448954 
L 196.461078 266.448954 
L 196.461078 265.926104 
L 196.621799 265.926104 
L 196.621799 265.403254 
L 199.606124 265.403254 
L 199.606124 264.880404 
L 199.920439 264.880404 
L 199.920439 264.357554 
L 203.282604 264.357554 
L 203.282604 263.834704 
L 208.416024 263.834704 
L 208.416024 262.789004 
L 209.629869 262.789004 
L 209.629869 262.266154 
L 211.819529 262.266154 
L 211.819529 261.220454 
L 212.982467 261.220454 
L 212.982467 260.697604 
L 213.677595 260.697604 
L 213.677595 260.174754 
L 214.43252 260.174754 
L 214.43252 258.606205 
L 216.586001 258.606205 
L 216.586001 258.083355 
L 217.011682 258.083355 
L 217.011682 257.560505 
L 217.770758 257.560505 
L 217.770758 257.037655 
L 220.039693 257.037655 
L 220.039693 256.514805 
L 220.945363 256.514805 
L 220.945363 255.991955 
L 222.966416 255.991955 
L 222.966416 255.469105 
L 225.738709 255.469105 
L 225.738709 254.946255 
L 226.265425 254.946255 
L 226.265425 254.423405 
L 226.589601 254.423405 
L 226.589601 253.377705 
L 228.64094 253.377705 
L 228.64094 252.854855 
L 231.794754 252.854855 
L 231.794754 252.332005 
L 232.417625 252.332005 
L 232.417625 251.809156 
L 236.307456 251.809156 
L 236.307456 251.286306 
L 237.112316 251.286306 
L 237.112316 250.763456 
L 239.150309 250.763456 
L 239.150309 250.240606 
L 239.834761 250.240606 
L 239.834761 249.717756 
L 240.511945 249.717756 
L 240.511945 249.194906 
L 243.588692 249.194906 
L 243.588692 248.672056 
L 246.094158 248.672056 
L 246.094158 248.149206 
L 246.7799 248.149206 
L 246.7799 247.626356 
L 258.151666 247.626356 
L 258.151666 247.103506 
L 333.569032 247.103506 
" style="fill:none;stroke:#000000;stroke-linecap:square;stroke-width:1.5;"/>
   </g>
   <g id="line2d_40">
    <defs>
     <path d="M 0 6 
C 1.591219 6 3.117479 5.367802 4.242641 4.242641 
C 5.367802 3.117479 6 1.591219 6 0 
C 6 -1.591219 5.367802 -3.117479 4.242641 -4.242641 
C 3.117479 -5.367802 1.591219 -6 0 -6 
C -1.591219 -6 -3.117479 -5.367802 -4.242641 -4.242641 
C -5.367802 -3.117479 -6 -1.591219 -6 0 
C -6 1.591219 -5.367802 3.117479 -4.242641 4.242641 
C -3.117479 5.367802 -1.591219 6 0 6 
z
" id="m609701143e" style="stroke:#000000;stroke-width:1.5;"/>
    </defs>
    <g>
     <use style="fill-opacity:0;stroke:#000000;stroke-width:1.5;" x="102.752035" xlink:href="#m609701143e" y="277.428802"/>
     <use style="fill-opacity:0;stroke:#000000;stroke-width:1.5;" x="174.636845" xlink:href="#m609701143e" y="272.723153"/>
     <use style="fill-opacity:0;stroke:#000000;stroke-width:1.5;" x="246.7799" xlink:href="#m609701143e" y="247.626356"/>
     <use style="fill-opacity:0;stroke:#000000;stroke-width:1.5;" x="258.151666" xlink:href="#m609701143e" y="247.103506"/>
     <use style="fill-opacity:0;stroke:#000000;stroke-width:1.5;" x="258.151666" xlink:href="#m609701143e" y="247.103506"/>
     <use style="fill-opacity:0;stroke:#000000;stroke-width:1.5;" x="333.569032" xlink:href="#m609701143e" y="247.103506"/>
    </g>
   </g>
   <g id="line2d_41">
    <path style="fill:none;stroke:#000000;stroke-linecap:square;stroke-width:1.5;"/>
    <g/>
   </g>
   <g id="line2d_42">
    <path clip-path="url(#p1ab7ebe6d8)" d="M 188.012065 269.063203 
" style="fill:none;stroke:#000000;stroke-linecap:square;stroke-width:1.5;"/>
    <defs>
     <path d="M -12 12 
L 12 -12 
M -12 -12 
L 12 12 
" id="m4da805336f" style="stroke:#000000;stroke-width:3;"/>
    </defs>
    <g clip-path="url(#p1ab7ebe6d8)">
     <use style="stroke:#000000;stroke-width:3;" x="188.012065" xlink:href="#m4da805336f" y="269.063203"/>
    </g>
   </g>
   <g id="line2d_43">
    <defs>
     <path d="M 0 1.5 
C 0.397805 1.5 0.77937 1.341951 1.06066 1.06066 
C 1.341951 0.77937 1.5 0.397805 1.5 0 
C 1.5 -0.397805 1.341951 -0.77937 1.06066 -1.06066 
C 0.77937 -1.341951 0.397805 -1.5 0 -1.5 
C -0.397805 -1.5 -0.77937 -1.341951 -1.06066 -1.06066 
C -1.341951 -0.77937 -1.5 -0.397805 -1.5 0 
C -1.5 0.397805 -1.341951 0.77937 -1.06066 1.06066 
C -0.77937 1.341951 -0.397805 1.5 0 1.5 
z
" id="m21e5c8a034" style="stroke:#ff0000;"/>
    </defs>
    <g>
     <use style="fill:#ff0000;stroke:#ff0000;" x="231.770958" xlink:href="#m21e5c8a034" y="278.474502"/>
     <use style="fill:#ff0000;stroke:#ff0000;" x="231.770958" xlink:href="#m21e5c8a034" y="278.474502"/>
    </g>
   </g>
   <g id="line2d_44">
    <path d="M 5.406747 294.16 
L 5.406747 288.931501 
L 107.750304 288.931501 
L 107.750304 288.408651 
L 113.865147 288.408651 
L 113.865147 287.885801 
L 126.329644 287.885801 
L 126.329644 286.840101 
L 150.723881 286.840101 
L 150.723881 286.317251 
L 157.489792 286.317251 
L 157.489792 285.794401 
L 159.581579 285.794401 
L 159.581579 285.271551 
L 168.28081 285.271551 
L 168.28081 284.748701 
L 178.699532 284.748701 
L 178.699532 284.225851 
L 181.301236 284.225851 
L 181.301236 283.180151 
L 183.98587 283.180151 
L 183.98587 282.657301 
L 198.017253 282.657301 
L 198.017253 282.134452 
L 204.649173 282.134452 
L 204.649173 281.611602 
L 206.489446 281.611602 
L 206.489446 281.088752 
L 209.688237 281.088752 
L 209.688237 280.565902 
L 210.365074 280.565902 
L 210.365074 280.043052 
L 214.495738 280.043052 
L 214.495738 279.520202 
L 217.822821 279.520202 
L 217.822821 278.997352 
L 231.770958 278.997352 
L 231.770958 278.474502 
L 333.569032 278.474502 
" style="fill:none;stroke:#ff0000;stroke-linecap:square;stroke-width:1.5;"/>
   </g>
   <g id="line2d_45">
    <defs>
     <path d="M -6 6 
L 6 6 
L 6 -6 
L -6 -6 
z
" id="me21055065a" style="stroke:#ff0000;stroke-linejoin:miter;stroke-width:1.5;"/>
    </defs>
    <g>
     <use style="fill-opacity:0;stroke:#ff0000;stroke-linejoin:miter;stroke-width:1.5;" x="126.329644" xlink:href="#me21055065a" y="287.885801"/>
     <use style="fill-opacity:0;stroke:#ff0000;stroke-linejoin:miter;stroke-width:1.5;" x="210.365074" xlink:href="#me21055065a" y="280.565902"/>
     <use style="fill-opacity:0;stroke:#ff0000;stroke-linejoin:miter;stroke-width:1.5;" x="231.770958" xlink:href="#me21055065a" y="278.997352"/>
     <use style="fill-opacity:0;stroke:#ff0000;stroke-linejoin:miter;stroke-width:1.5;" x="231.770958" xlink:href="#me21055065a" y="278.474502"/>
     <use style="fill-opacity:0;stroke:#ff0000;stroke-linejoin:miter;stroke-width:1.5;" x="333.569032" xlink:href="#me21055065a" y="278.474502"/>
    </g>
   </g>
   <g id="line2d_46">
    <path style="fill:none;stroke:#ff0000;stroke-linecap:square;stroke-width:1.5;"/>
    <g/>
   </g>
   <g id="line2d_47">
    <path clip-path="url(#p1ab7ebe6d8)" d="M 188.012065 282.657301 
" style="fill:none;stroke:#ff0000;stroke-linecap:square;stroke-width:1.5;"/>
    <defs>
     <path d="M -12 12 
L 12 -12 
M -12 -12 
L 12 12 
" id="m4dadee9b21" style="stroke:#ff0000;stroke-width:3;"/>
    </defs>
    <g clip-path="url(#p1ab7ebe6d8)">
     <use style="fill:#ff0000;stroke:#ff0000;stroke-width:3;" x="188.012065" xlink:href="#m4dadee9b21" y="282.657301"/>
    </g>
   </g>
   <g id="line2d_48">
    <path d="M 333.569032 278.474502 
L 364.009226 288.826931 
" style="fill:none;stroke:#ff0000;stroke-linecap:square;stroke-width:1.5;"/>
    <g>
     <use style="fill-opacity:0;stroke:#ff0000;stroke-linejoin:miter;stroke-width:1.5;" x="333.569032" xlink:href="#me21055065a" y="278.474502"/>
     <use style="fill-opacity:0;stroke:#ff0000;stroke-linejoin:miter;stroke-width:1.5;" x="364.009226" xlink:href="#me21055065a" y="288.826931"/>
    </g>
   </g>
   <g id="line2d_49">
    <path d="M 333.569032 247.103506 
L 364.009226 224.830099 
" style="fill:none;stroke:#000000;stroke-linecap:square;stroke-width:1.5;"/>
    <g>
     <use style="fill-opacity:0;stroke:#000000;stroke-width:1.5;" x="333.569032" xlink:href="#m609701143e" y="247.103506"/>
     <use style="fill-opacity:0;stroke:#000000;stroke-width:1.5;" x="364.009226" xlink:href="#m609701143e" y="224.830099"/>
    </g>
   </g>
   <g id="line2d_50">
    <path d="M 333.569032 215.73251 
L 364.009226 160.833267 
" style="fill:none;stroke:#0000ff;stroke-linecap:square;stroke-width:1.5;"/>
    <g>
     <use style="fill-opacity:0;stroke:#0000ff;stroke-linejoin:bevel;stroke-width:1.5;" x="333.569032" xlink:href="#mfc6b0ede67" y="215.73251"/>
     <use style="fill-opacity:0;stroke:#0000ff;stroke-linejoin:bevel;stroke-width:1.5;" x="364.009226" xlink:href="#mfc6b0ede67" y="160.833267"/>
    </g>
   </g>
   <g id="line2d_51">
    <path d="M 333.569032 132.076521 
L 364.009226 96.836436 
" style="fill:none;stroke:#008000;stroke-linecap:square;stroke-width:1.5;"/>
    <g>
     <use style="fill-opacity:0;stroke:#008000;stroke-linejoin:miter;stroke-width:1.5;" x="333.569032" xlink:href="#m21fd1d69b5" y="132.076521"/>
     <use style="fill-opacity:0;stroke:#008000;stroke-linejoin:miter;stroke-width:1.5;" x="364.009226" xlink:href="#m21fd1d69b5" y="96.836436"/>
    </g>
   </g>
   <g id="line2d_52">
    <path d="M 333.569032 27.506535 
L 364.009226 32.839604 
" style="fill:none;stroke:#00bfbf;stroke-linecap:square;stroke-width:1.5;"/>
    <g>
     <use style="fill-opacity:0;stroke:#00bfbf;stroke-width:1.5;" x="333.569032" xlink:href="#me22e737315" y="27.506535"/>
     <use style="fill-opacity:0;stroke:#00bfbf;stroke-width:1.5;" x="364.009226" xlink:href="#me22e737315" y="32.839604"/>
    </g>
   </g>
   <g id="line2d_53">
    <path d="M 333.569032 294.16 
L 333.569032 27.506535 
" style="fill:none;stroke:#000000;stroke-linecap:square;stroke-width:1.5;"/>
   </g>
   <g id="patch_3">
    <path d="M 56.84 294.16 
L 56.84 24.84 
" style="fill:none;stroke:#000000;stroke-linecap:square;stroke-linejoin:miter;stroke-width:0.8;"/>
   </g>
   <g id="patch_4">
    <path d="M 399.984 294.16 
L 399.984 24.84 
" style="fill:none;stroke:#000000;stroke-linecap:square;stroke-linejoin:miter;stroke-width:0.8;"/>
   </g>
   <g id="patch_5">
    <path d="M 56.84 294.16 
L 399.984 294.16 
" style="fill:none;stroke:#000000;stroke-linecap:square;stroke-linejoin:miter;stroke-width:0.8;"/>
   </g>
   <g id="patch_6">
    <path d="M 56.84 24.84 
L 399.984 24.84 
" style="fill:none;stroke:#000000;stroke-linecap:square;stroke-linejoin:miter;stroke-width:0.8;"/>
   </g>
   <g id="text_14">
    <!-- 20-D -->
    <defs>
     <path d="M 19.671875 64.796875 
L 19.671875 8.109375 
L 31.59375 8.109375 
Q 46.6875 8.109375 53.6875 14.9375 
Q 60.6875 21.78125 60.6875 36.53125 
Q 60.6875 51.171875 53.6875 57.984375 
Q 46.6875 64.796875 31.59375 64.796875 
z
M 9.8125 72.90625 
L 30.078125 72.90625 
Q 51.265625 72.90625 61.171875 64.09375 
Q 71.09375 55.28125 71.09375 36.53125 
Q 71.09375 17.671875 61.125 8.828125 
Q 51.171875 0 30.078125 0 
L 9.8125 0 
z
" id="DejaVuSans-44"/>
    </defs>
    <g transform="translate(369.543806 293.517868)scale(0.17 -0.17)">
     <use xlink:href="#DejaVuSans-32"/>
     <use x="63.623047" xlink:href="#DejaVuSans-30"/>
     <use x="127.246094" xlink:href="#DejaVuSans-2d"/>
     <use x="163.330078" xlink:href="#DejaVuSans-44"/>
    </g>
   </g>
   <g id="text_15">
    <!-- 10-D -->
    <g transform="translate(369.543806 229.521037)scale(0.17 -0.17)">
     <use xlink:href="#DejaVuSans-31"/>
     <use x="63.623047" xlink:href="#DejaVuSans-30"/>
     <use x="127.246094" xlink:href="#DejaVuSans-2d"/>
     <use x="163.330078" xlink:href="#DejaVuSans-44"/>
    </g>
   </g>
   <g id="text_16">
    <!-- 5-D -->
    <defs>
     <path d="M 10.796875 72.90625 
L 49.515625 72.90625 
L 49.515625 64.59375 
L 19.828125 64.59375 
L 19.828125 46.734375 
Q 21.96875 47.46875 24.109375 47.828125 
Q 26.265625 48.1875 28.421875 48.1875 
Q 40.625 48.1875 47.75 41.5 
Q 54.890625 34.8125 54.890625 23.390625 
Q 54.890625 11.625 47.5625 5.09375 
Q 40.234375 -1.421875 26.90625 -1.421875 
Q 22.3125 -1.421875 17.546875 -0.640625 
Q 12.796875 0.140625 7.71875 1.703125 
L 7.71875 11.625 
Q 12.109375 9.234375 16.796875 8.0625 
Q 21.484375 6.890625 26.703125 6.890625 
Q 35.15625 6.890625 40.078125 11.328125 
Q 45.015625 15.765625 45.015625 23.390625 
Q 45.015625 31 40.078125 35.4375 
Q 35.15625 39.890625 26.703125 39.890625 
Q 22.75 39.890625 18.8125 39.015625 
Q 14.890625 38.140625 10.796875 36.28125 
z
" id="DejaVuSans-35"/>
    </defs>
    <g transform="translate(369.543806 165.524205)scale(0.17 -0.17)">
     <use xlink:href="#DejaVuSans-35"/>
     <use x="63.623047" xlink:href="#DejaVuSans-2d"/>
     <use x="99.707031" xlink:href="#DejaVuSans-44"/>
    </g>
   </g>
   <g id="text_17">
    <!-- 3-D -->
    <defs>
     <path d="M 40.578125 39.3125 
Q 47.65625 37.796875 51.625 33 
Q 55.609375 28.21875 55.609375 21.1875 
Q 55.609375 10.40625 48.1875 4.484375 
Q 40.765625 -1.421875 27.09375 -1.421875 
Q 22.515625 -1.421875 17.65625 -0.515625 
Q 12.796875 0.390625 7.625 2.203125 
L 7.625 11.71875 
Q 11.71875 9.328125 16.59375 8.109375 
Q 21.484375 6.890625 26.8125 6.890625 
Q 36.078125 6.890625 40.9375 10.546875 
Q 45.796875 14.203125 45.796875 21.1875 
Q 45.796875 27.640625 41.28125 31.265625 
Q 36.765625 34.90625 28.71875 34.90625 
L 20.21875 34.90625 
L 20.21875 43.015625 
L 29.109375 43.015625 
Q 36.375 43.015625 40.234375 45.921875 
Q 44.09375 48.828125 44.09375 54.296875 
Q 44.09375 59.90625 40.109375 62.90625 
Q 36.140625 65.921875 28.71875 65.921875 
Q 24.65625 65.921875 20.015625 65.03125 
Q 15.375 64.15625 9.8125 62.3125 
L 9.8125 71.09375 
Q 15.4375 72.65625 20.34375 73.4375 
Q 25.25 74.21875 29.59375 74.21875 
Q 40.828125 74.21875 47.359375 69.109375 
Q 53.90625 64.015625 53.90625 55.328125 
Q 53.90625 49.265625 50.4375 45.09375 
Q 46.96875 40.921875 40.578125 39.3125 
z
" id="DejaVuSans-33"/>
    </defs>
    <g transform="translate(369.543806 101.527373)scale(0.17 -0.17)">
     <use xlink:href="#DejaVuSans-33"/>
     <use x="63.623047" xlink:href="#DejaVuSans-2d"/>
     <use x="99.707031" xlink:href="#DejaVuSans-44"/>
    </g>
   </g>
   <g id="text_18">
    <!-- 2-D -->
    <g transform="translate(369.543806 37.530541)scale(0.17 -0.17)">
     <use xlink:href="#DejaVuSans-32"/>
     <use x="63.623047" xlink:href="#DejaVuSans-2d"/>
     <use x="99.707031" xlink:href="#DejaVuSans-44"/>
    </g>
   </g>
   <g id="text_19">
    <!-- bbob f21 -->
    <defs>
     <path d="M 48.6875 27.296875 
Q 48.6875 37.203125 44.609375 42.84375 
Q 40.53125 48.484375 33.40625 48.484375 
Q 26.265625 48.484375 22.1875 42.84375 
Q 18.109375 37.203125 18.109375 27.296875 
Q 18.109375 17.390625 22.1875 11.75 
Q 26.265625 6.109375 33.40625 6.109375 
Q 40.53125 6.109375 44.609375 11.75 
Q 48.6875 17.390625 48.6875 27.296875 
z
M 18.109375 46.390625 
Q 20.953125 51.265625 25.265625 53.625 
Q 29.59375 56 35.59375 56 
Q 45.5625 56 51.78125 48.09375 
Q 58.015625 40.1875 58.015625 27.296875 
Q 58.015625 14.40625 51.78125 6.484375 
Q 45.5625 -1.421875 35.59375 -1.421875 
Q 29.59375 -1.421875 25.265625 0.953125 
Q 20.953125 3.328125 18.109375 8.203125 
L 18.109375 0 
L 9.078125 0 
L 9.078125 75.984375 
L 18.109375 75.984375 
z
" id="DejaVuSans-62"/>
    </defs>
    <g transform="translate(60.27144 35.283606)scale(0.102 -0.102)">
     <use xlink:href="#DejaVuSans-62"/>
     <use x="63.476562" xlink:href="#DejaVuSans-62"/>
     <use x="126.953125" xlink:href="#DejaVuSans-6f"/>
     <use x="188.134766" xlink:href="#DejaVuSans-62"/>
     <use x="251.611328" xlink:href="#DejaVuSans-20"/>
     <use x="283.398438" xlink:href="#DejaVuSans-66"/>
     <use x="318.603516" xlink:href="#DejaVuSans-32"/>
     <use x="382.226562" xlink:href="#DejaVuSans-31"/>
    </g>
    <!-- 51 targets: 100..1e-08 -->
    <defs>
     <path d="M 11.71875 12.40625 
L 22.015625 12.40625 
L 22.015625 0 
L 11.71875 0 
z
M 11.71875 51.703125 
L 22.015625 51.703125 
L 22.015625 39.3125 
L 11.71875 39.3125 
z
" id="DejaVuSans-3a"/>
    </defs>
    <g transform="translate(60.27144 46.705375)scale(0.102 -0.102)">
     <use xlink:href="#DejaVuSans-35"/>
     <use x="63.623047" xlink:href="#DejaVuSans-31"/>
     <use x="127.246094" xlink:href="#DejaVuSans-20"/>
     <use x="159.033203" xlink:href="#DejaVuSans-74"/>
     <use x="198.242188" xlink:href="#DejaVuSans-61"/>
     <use x="259.521484" xlink:href="#DejaVuSans-72"/>
     <use x="300.619141" xlink:href="#DejaVuSans-67"/>
     <use x="364.095703" xlink:href="#DejaVuSans-65"/>
     <use x="425.619141" xlink:href="#DejaVuSans-74"/>
     <use x="464.828125" xlink:href="#DejaVuSans-73"/>
     <use x="516.927734" xlink:href="#DejaVuSans-3a"/>
     <use x="550.619141" xlink:href="#DejaVuSans-20"/>
     <use x="582.40625" xlink:href="#DejaVuSans-31"/>
     <use x="646.029297" xlink:href="#DejaVuSans-30"/>
     <use x="709.652344" xlink:href="#DejaVuSans-30"/>
     <use x="773.275391" xlink:href="#DejaVuSans-2e"/>
     <use x="805.0625" xlink:href="#DejaVuSans-2e"/>
     <use x="836.849609" xlink:href="#DejaVuSans-31"/>
     <use x="900.472656" xlink:href="#DejaVuSans-65"/>
     <use x="961.996094" xlink:href="#DejaVuSans-2d"/>
     <use x="998.080078" xlink:href="#DejaVuSans-30"/>
     <use x="1061.703125" xlink:href="#DejaVuSans-38"/>
    </g>
    <!-- 15 instances -->
    <g transform="translate(60.27144 58.127144)scale(0.102 -0.102)">
     <use xlink:href="#DejaVuSans-31"/>
     <use x="63.623047" xlink:href="#DejaVuSans-35"/>
     <use x="127.246094" xlink:href="#DejaVuSans-20"/>
     <use x="159.033203" xlink:href="#DejaVuSans-69"/>
     <use x="186.816406" xlink:href="#DejaVuSans-6e"/>
     <use x="250.195312" xlink:href="#DejaVuSans-73"/>
     <use x="302.294922" xlink:href="#DejaVuSans-74"/>
     <use x="341.503906" xlink:href="#DejaVuSans-61"/>
     <use x="402.783203" xlink:href="#DejaVuSans-6e"/>
     <use x="466.162109" xlink:href="#DejaVuSans-63"/>
     <use x="521.142578" xlink:href="#DejaVuSans-65"/>
     <use x="582.666016" xlink:href="#DejaVuSans-73"/>
    </g>
   </g>
   <g id="text_20">
    <!-- v2.2.1.10 -->
    <g style="fill:#808080;" transform="translate(204.779188 289.387113)scale(0.1 -0.1)">
     <use xlink:href="#DejaVuSans-76"/>
     <use x="59.179688" xlink:href="#DejaVuSans-32"/>
     <use x="122.802734" xlink:href="#DejaVuSans-2e"/>
     <use x="154.589844" xlink:href="#DejaVuSans-32"/>
     <use x="218.212891" xlink:href="#DejaVuSans-2e"/>
     <use x="250" xlink:href="#DejaVuSans-31"/>
     <use x="313.623047" xlink:href="#DejaVuSans-2e"/>
     <use x="345.410156" xlink:href="#DejaVuSans-31"/>
     <use x="409.033203" xlink:href="#DejaVuSans-30"/>
    </g>
   </g>
   <g id="text_21">
    <!-- 21 Gallagher 101 peaks -->
    <defs>
     <path d="M 59.515625 10.40625 
L 59.515625 29.984375 
L 43.40625 29.984375 
L 43.40625 38.09375 
L 69.28125 38.09375 
L 69.28125 6.78125 
Q 63.578125 2.734375 56.6875 0.65625 
Q 49.8125 -1.421875 42 -1.421875 
Q 24.90625 -1.421875 15.25 8.5625 
Q 5.609375 18.5625 5.609375 36.375 
Q 5.609375 54.25 15.25 64.234375 
Q 24.90625 74.21875 42 74.21875 
Q 49.125 74.21875 55.546875 72.453125 
Q 61.96875 70.703125 67.390625 67.28125 
L 67.390625 56.78125 
Q 61.921875 61.421875 55.765625 63.765625 
Q 49.609375 66.109375 42.828125 66.109375 
Q 29.4375 66.109375 22.71875 58.640625 
Q 16.015625 51.171875 16.015625 36.375 
Q 16.015625 21.625 22.71875 14.15625 
Q 29.4375 6.6875 42.828125 6.6875 
Q 48.046875 6.6875 52.140625 7.59375 
Q 56.25 8.5 59.515625 10.40625 
z
" id="DejaVuSans-47"/>
     <path d="M 54.890625 33.015625 
L 54.890625 0 
L 45.90625 0 
L 45.90625 32.71875 
Q 45.90625 40.484375 42.875 44.328125 
Q 39.84375 48.1875 33.796875 48.1875 
Q 26.515625 48.1875 22.3125 43.546875 
Q 18.109375 38.921875 18.109375 30.90625 
L 18.109375 0 
L 9.078125 0 
L 9.078125 75.984375 
L 18.109375 75.984375 
L 18.109375 46.1875 
Q 21.34375 51.125 25.703125 53.5625 
Q 30.078125 56 35.796875 56 
Q 45.21875 56 50.046875 50.171875 
Q 54.890625 44.34375 54.890625 33.015625 
z
" id="DejaVuSans-68"/>
     <path d="M 9.078125 75.984375 
L 18.109375 75.984375 
L 18.109375 31.109375 
L 44.921875 54.6875 
L 56.390625 54.6875 
L 27.390625 29.109375 
L 57.625 0 
L 45.90625 0 
L 18.109375 26.703125 
L 18.109375 0 
L 9.078125 0 
z
" id="DejaVuSans-6b"/>
    </defs>
    <g transform="translate(108.9245 18.84)scale(0.2 -0.2)">
     <use xlink:href="#DejaVuSans-32"/>
     <use x="63.623047" xlink:href="#DejaVuSans-31"/>
     <use x="127.246094" xlink:href="#DejaVuSans-20"/>
     <use x="159.033203" xlink:href="#DejaVuSans-47"/>
     <use x="236.523438" xlink:href="#DejaVuSans-61"/>
     <use x="297.802734" xlink:href="#DejaVuSans-6c"/>
     <use x="325.585938" xlink:href="#DejaVuSans-6c"/>
     <use x="353.369141" xlink:href="#DejaVuSans-61"/>
     <use x="414.648438" xlink:href="#DejaVuSans-67"/>
     <use x="478.125" xlink:href="#DejaVuSans-68"/>
     <use x="541.503906" xlink:href="#DejaVuSans-65"/>
     <use x="603.027344" xlink:href="#DejaVuSans-72"/>
     <use x="644.140625" xlink:href="#DejaVuSans-20"/>
     <use x="675.927734" xlink:href="#DejaVuSans-31"/>
     <use x="739.550781" xlink:href="#DejaVuSans-30"/>
     <use x="803.173828" xlink:href="#DejaVuSans-31"/>
     <use x="866.796875" xlink:href="#DejaVuSans-20"/>
     <use x="898.583984" xlink:href="#DejaVuSans-70"/>
     <use x="962.060547" xlink:href="#DejaVuSans-65"/>
     <use x="1023.583984" xlink:href="#DejaVuSans-61"/>
     <use x="1084.863281" xlink:href="#DejaVuSans-6b"/>
     <use x="1142.773438" xlink:href="#DejaVuSans-73"/>
    </g>
   </g>
  </g>
 </g>
 <defs>
  <clipPath id="p1ab7ebe6d8">
   <rect height="269.32" width="343.144" x="56.84" y="24.84"/>
  </clipPath>
 </defs>
</svg>
