<?xml version="1.0" encoding="utf-8" standalone="no"?>
<!DOCTYPE svg PUBLIC "-//W3C//DTD SVG 1.1//EN"
  "http://www.w3.org/Graphics/SVG/1.1/DTD/svg11.dtd">
<!-- Created with matplotlib (http://matplotlib.org/) -->
<svg height="345.6pt" version="1.1" viewBox="0 0 460.8 345.6" width="460.8pt" xmlns="http://www.w3.org/2000/svg" xmlns:xlink="http://www.w3.org/1999/xlink">
 <defs>
  <style type="text/css">
*{stroke-linecap:butt;stroke-linejoin:round;}
  </style>
 </defs>
 <g id="figure_1">
  <g id="patch_1">
   <path d="M 0 345.6 
L 460.8 345.6 
L 460.8 0 
L 0 0 
z
" style="fill:#ffffff;"/>
  </g>
  <g id="axes_1">
   <g id="patch_2">
    <path d="M 56.84 294.16 
L 399.984 294.16 
L 399.984 24.84 
L 56.84 24.84 
z
" style="fill:#ffffff;"/>
   </g>
   <g id="matplotlib.axis_1">
    <g id="xtick_1">
     <g id="line2d_1">
      <path clip-path="url(#p141cd796a1)" d="M 56.84 294.16 
L 56.84 24.84 
" style="fill:none;stroke:#b0b0b0;stroke-linecap:square;stroke-width:0.8;"/>
     </g>
     <g id="line2d_2">
      <defs>
       <path d="M 0 0 
L 0 3.5 
" id="m1b971a783e" style="stroke:#000000;stroke-width:0.8;"/>
      </defs>
      <g>
       <use style="stroke:#000000;stroke-width:0.8;" x="56.84" xlink:href="#m1b971a783e" y="294.16"/>
      </g>
     </g>
     <g id="text_1">
      <!-- 0 -->
      <defs>
       <path d="M 31.78125 66.40625 
Q 24.171875 66.40625 20.328125 58.90625 
Q 16.5 51.421875 16.5 36.375 
Q 16.5 21.390625 20.328125 13.890625 
Q 24.171875 6.390625 31.78125 6.390625 
Q 39.453125 6.390625 43.28125 13.890625 
Q 47.125 21.390625 47.125 36.375 
Q 47.125 51.421875 43.28125 58.90625 
Q 39.453125 66.40625 31.78125 66.40625 
z
M 31.78125 74.21875 
Q 44.046875 74.21875 50.515625 64.515625 
Q 56.984375 54.828125 56.984375 36.375 
Q 56.984375 17.96875 50.515625 8.265625 
Q 44.046875 -1.421875 31.78125 -1.421875 
Q 19.53125 -1.421875 13.0625 8.265625 
Q 6.59375 17.96875 6.59375 36.375 
Q 6.59375 54.828125 13.0625 64.515625 
Q 19.53125 74.21875 31.78125 74.21875 
z
" id="DejaVuSans-30"/>
      </defs>
      <g transform="translate(50.4775 316.356875)scale(0.2 -0.2)">
       <use xlink:href="#DejaVuSans-30"/>
      </g>
     </g>
    </g>
    <g id="xtick_2">
     <g id="line2d_3">
      <path clip-path="url(#p141cd796a1)" d="M 135.905438 294.16 
L 135.905438 24.84 
" style="fill:none;stroke:#b0b0b0;stroke-linecap:square;stroke-width:0.8;"/>
     </g>
     <g id="line2d_4">
      <g>
       <use style="stroke:#000000;stroke-width:0.8;" x="135.905438" xlink:href="#m1b971a783e" y="294.16"/>
      </g>
     </g>
     <g id="text_2">
      <!-- 2 -->
      <defs>
       <path d="M 19.1875 8.296875 
L 53.609375 8.296875 
L 53.609375 0 
L 7.328125 0 
L 7.328125 8.296875 
Q 12.9375 14.109375 22.625 23.890625 
Q 32.328125 33.6875 34.8125 36.53125 
Q 39.546875 41.84375 41.421875 45.53125 
Q 43.3125 49.21875 43.3125 52.78125 
Q 43.3125 58.59375 39.234375 62.25 
Q 35.15625 65.921875 28.609375 65.921875 
Q 23.96875 65.921875 18.8125 64.3125 
Q 13.671875 62.703125 7.8125 59.421875 
L 7.8125 69.390625 
Q 13.765625 71.78125 18.9375 73 
Q 24.125 74.21875 28.421875 74.21875 
Q 39.75 74.21875 46.484375 68.546875 
Q 53.21875 62.890625 53.21875 53.421875 
Q 53.21875 48.921875 51.53125 44.890625 
Q 49.859375 40.875 45.40625 35.40625 
Q 44.1875 33.984375 37.640625 27.21875 
Q 31.109375 20.453125 19.1875 8.296875 
z
" id="DejaVuSans-32"/>
      </defs>
      <g transform="translate(129.542938 316.356875)scale(0.2 -0.2)">
       <use xlink:href="#DejaVuSans-32"/>
      </g>
     </g>
    </g>
    <g id="xtick_3">
     <g id="line2d_5">
      <path clip-path="url(#p141cd796a1)" d="M 214.970876 294.16 
L 214.970876 24.84 
" style="fill:none;stroke:#b0b0b0;stroke-linecap:square;stroke-width:0.8;"/>
     </g>
     <g id="line2d_6">
      <g>
       <use style="stroke:#000000;stroke-width:0.8;" x="214.970876" xlink:href="#m1b971a783e" y="294.16"/>
      </g>
     </g>
     <g id="text_3">
      <!-- 4 -->
      <defs>
       <path d="M 37.796875 64.3125 
L 12.890625 25.390625 
L 37.796875 25.390625 
z
M 35.203125 72.90625 
L 47.609375 72.90625 
L 47.609375 25.390625 
L 58.015625 25.390625 
L 58.015625 17.1875 
L 47.609375 17.1875 
L 47.609375 0 
L 37.796875 0 
L 37.796875 17.1875 
L 4.890625 17.1875 
L 4.890625 26.703125 
z
" id="DejaVuSans-34"/>
      </defs>
      <g transform="translate(208.608376 316.356875)scale(0.2 -0.2)">
       <use xlink:href="#DejaVuSans-34"/>
      </g>
     </g>
    </g>
    <g id="xtick_4">
     <g id="line2d_7">
      <path clip-path="url(#p141cd796a1)" d="M 294.036313 294.16 
L 294.036313 24.84 
" style="fill:none;stroke:#b0b0b0;stroke-linecap:square;stroke-width:0.8;"/>
     </g>
     <g id="line2d_8">
      <g>
       <use style="stroke:#000000;stroke-width:0.8;" x="294.036313" xlink:href="#m1b971a783e" y="294.16"/>
      </g>
     </g>
     <g id="text_4">
      <!-- 6 -->
      <defs>
       <path d="M 33.015625 40.375 
Q 26.375 40.375 22.484375 35.828125 
Q 18.609375 31.296875 18.609375 23.390625 
Q 18.609375 15.53125 22.484375 10.953125 
Q 26.375 6.390625 33.015625 6.390625 
Q 39.65625 6.390625 43.53125 10.953125 
Q 47.40625 15.53125 47.40625 23.390625 
Q 47.40625 31.296875 43.53125 35.828125 
Q 39.65625 40.375 33.015625 40.375 
z
M 52.59375 71.296875 
L 52.59375 62.3125 
Q 48.875 64.0625 45.09375 64.984375 
Q 41.3125 65.921875 37.59375 65.921875 
Q 27.828125 65.921875 22.671875 59.328125 
Q 17.53125 52.734375 16.796875 39.40625 
Q 19.671875 43.65625 24.015625 45.921875 
Q 28.375 48.1875 33.59375 48.1875 
Q 44.578125 48.1875 50.953125 41.515625 
Q 57.328125 34.859375 57.328125 23.390625 
Q 57.328125 12.15625 50.6875 5.359375 
Q 44.046875 -1.421875 33.015625 -1.421875 
Q 20.359375 -1.421875 13.671875 8.265625 
Q 6.984375 17.96875 6.984375 36.375 
Q 6.984375 53.65625 15.1875 63.9375 
Q 23.390625 74.21875 37.203125 74.21875 
Q 40.921875 74.21875 44.703125 73.484375 
Q 48.484375 72.75 52.59375 71.296875 
z
" id="DejaVuSans-36"/>
      </defs>
      <g transform="translate(287.673813 316.356875)scale(0.2 -0.2)">
       <use xlink:href="#DejaVuSans-36"/>
      </g>
     </g>
    </g>
    <g id="xtick_5">
     <g id="line2d_9">
      <path clip-path="url(#p141cd796a1)" d="M 373.101751 294.16 
L 373.101751 24.84 
" style="fill:none;stroke:#b0b0b0;stroke-linecap:square;stroke-width:0.8;"/>
     </g>
     <g id="line2d_10">
      <g>
       <use style="stroke:#000000;stroke-width:0.8;" x="373.101751" xlink:href="#m1b971a783e" y="294.16"/>
      </g>
     </g>
     <g id="text_5">
      <!-- 8 -->
      <defs>
       <path d="M 31.78125 34.625 
Q 24.75 34.625 20.71875 30.859375 
Q 16.703125 27.09375 16.703125 20.515625 
Q 16.703125 13.921875 20.71875 10.15625 
Q 24.75 6.390625 31.78125 6.390625 
Q 38.8125 6.390625 42.859375 10.171875 
Q 46.921875 13.96875 46.921875 20.515625 
Q 46.921875 27.09375 42.890625 30.859375 
Q 38.875 34.625 31.78125 34.625 
z
M 21.921875 38.8125 
Q 15.578125 40.375 12.03125 44.71875 
Q 8.5 49.078125 8.5 55.328125 
Q 8.5 64.0625 14.71875 69.140625 
Q 20.953125 74.21875 31.78125 74.21875 
Q 42.671875 74.21875 48.875 69.140625 
Q 55.078125 64.0625 55.078125 55.328125 
Q 55.078125 49.078125 51.53125 44.71875 
Q 48 40.375 41.703125 38.8125 
Q 48.828125 37.15625 52.796875 32.3125 
Q 56.78125 27.484375 56.78125 20.515625 
Q 56.78125 9.90625 50.3125 4.234375 
Q 43.84375 -1.421875 31.78125 -1.421875 
Q 19.734375 -1.421875 13.25 4.234375 
Q 6.78125 9.90625 6.78125 20.515625 
Q 6.78125 27.484375 10.78125 32.3125 
Q 14.796875 37.15625 21.921875 38.8125 
z
M 18.3125 54.390625 
Q 18.3125 48.734375 21.84375 45.5625 
Q 25.390625 42.390625 31.78125 42.390625 
Q 38.140625 42.390625 41.71875 45.5625 
Q 45.3125 48.734375 45.3125 54.390625 
Q 45.3125 60.0625 41.71875 63.234375 
Q 38.140625 66.40625 31.78125 66.40625 
Q 25.390625 66.40625 21.84375 63.234375 
Q 18.3125 60.0625 18.3125 54.390625 
z
" id="DejaVuSans-38"/>
      </defs>
      <g transform="translate(366.739251 316.356875)scale(0.2 -0.2)">
       <use xlink:href="#DejaVuSans-38"/>
      </g>
     </g>
    </g>
    <g id="text_6">
     <!-- log10(# f-evals / dimension) -->
     <defs>
      <path d="M 9.421875 75.984375 
L 18.40625 75.984375 
L 18.40625 0 
L 9.421875 0 
z
" id="DejaVuSans-6c"/>
      <path d="M 30.609375 48.390625 
Q 23.390625 48.390625 19.1875 42.75 
Q 14.984375 37.109375 14.984375 27.296875 
Q 14.984375 17.484375 19.15625 11.84375 
Q 23.34375 6.203125 30.609375 6.203125 
Q 37.796875 6.203125 41.984375 11.859375 
Q 46.1875 17.53125 46.1875 27.296875 
Q 46.1875 37.015625 41.984375 42.703125 
Q 37.796875 48.390625 30.609375 48.390625 
z
M 30.609375 56 
Q 42.328125 56 49.015625 48.375 
Q 55.71875 40.765625 55.71875 27.296875 
Q 55.71875 13.875 49.015625 6.21875 
Q 42.328125 -1.421875 30.609375 -1.421875 
Q 18.84375 -1.421875 12.171875 6.21875 
Q 5.515625 13.875 5.515625 27.296875 
Q 5.515625 40.765625 12.171875 48.375 
Q 18.84375 56 30.609375 56 
z
" id="DejaVuSans-6f"/>
      <path d="M 45.40625 27.984375 
Q 45.40625 37.75 41.375 43.109375 
Q 37.359375 48.484375 30.078125 48.484375 
Q 22.859375 48.484375 18.828125 43.109375 
Q 14.796875 37.75 14.796875 27.984375 
Q 14.796875 18.265625 18.828125 12.890625 
Q 22.859375 7.515625 30.078125 7.515625 
Q 37.359375 7.515625 41.375 12.890625 
Q 45.40625 18.265625 45.40625 27.984375 
z
M 54.390625 6.78125 
Q 54.390625 -7.171875 48.1875 -13.984375 
Q 42 -20.796875 29.203125 -20.796875 
Q 24.46875 -20.796875 20.265625 -20.09375 
Q 16.0625 -19.390625 12.109375 -17.921875 
L 12.109375 -9.1875 
Q 16.0625 -11.328125 19.921875 -12.34375 
Q 23.78125 -13.375 27.78125 -13.375 
Q 36.625 -13.375 41.015625 -8.765625 
Q 45.40625 -4.15625 45.40625 5.171875 
L 45.40625 9.625 
Q 42.625 4.78125 38.28125 2.390625 
Q 33.9375 0 27.875 0 
Q 17.828125 0 11.671875 7.65625 
Q 5.515625 15.328125 5.515625 27.984375 
Q 5.515625 40.671875 11.671875 48.328125 
Q 17.828125 56 27.875 56 
Q 33.9375 56 38.28125 53.609375 
Q 42.625 51.21875 45.40625 46.390625 
L 45.40625 54.6875 
L 54.390625 54.6875 
z
" id="DejaVuSans-67"/>
      <path d="M 12.40625 8.296875 
L 28.515625 8.296875 
L 28.515625 63.921875 
L 10.984375 60.40625 
L 10.984375 69.390625 
L 28.421875 72.90625 
L 38.28125 72.90625 
L 38.28125 8.296875 
L 54.390625 8.296875 
L 54.390625 0 
L 12.40625 0 
z
" id="DejaVuSans-31"/>
      <path d="M 31 75.875 
Q 24.46875 64.65625 21.28125 53.65625 
Q 18.109375 42.671875 18.109375 31.390625 
Q 18.109375 20.125 21.3125 9.0625 
Q 24.515625 -2 31 -13.1875 
L 23.1875 -13.1875 
Q 15.875 -1.703125 12.234375 9.375 
Q 8.59375 20.453125 8.59375 31.390625 
Q 8.59375 42.28125 12.203125 53.3125 
Q 15.828125 64.359375 23.1875 75.875 
z
" id="DejaVuSans-28"/>
      <path d="M 51.125 44 
L 36.921875 44 
L 32.8125 27.6875 
L 47.125 27.6875 
z
M 43.796875 71.78125 
L 38.71875 51.515625 
L 52.984375 51.515625 
L 58.109375 71.78125 
L 65.921875 71.78125 
L 60.890625 51.515625 
L 76.125 51.515625 
L 76.125 44 
L 58.984375 44 
L 54.984375 27.6875 
L 70.515625 27.6875 
L 70.515625 20.21875 
L 53.078125 20.21875 
L 48 0 
L 40.1875 0 
L 45.21875 20.21875 
L 30.90625 20.21875 
L 25.875 0 
L 18.015625 0 
L 23.09375 20.21875 
L 7.71875 20.21875 
L 7.71875 27.6875 
L 24.90625 27.6875 
L 29 44 
L 13.28125 44 
L 13.28125 51.515625 
L 30.90625 51.515625 
L 35.890625 71.78125 
z
" id="DejaVuSans-23"/>
      <path id="DejaVuSans-20"/>
      <path d="M 37.109375 75.984375 
L 37.109375 68.5 
L 28.515625 68.5 
Q 23.6875 68.5 21.796875 66.546875 
Q 19.921875 64.59375 19.921875 59.515625 
L 19.921875 54.6875 
L 34.71875 54.6875 
L 34.71875 47.703125 
L 19.921875 47.703125 
L 19.921875 0 
L 10.890625 0 
L 10.890625 47.703125 
L 2.296875 47.703125 
L 2.296875 54.6875 
L 10.890625 54.6875 
L 10.890625 58.5 
Q 10.890625 67.625 15.140625 71.796875 
Q 19.390625 75.984375 28.609375 75.984375 
z
" id="DejaVuSans-66"/>
      <path d="M 4.890625 31.390625 
L 31.203125 31.390625 
L 31.203125 23.390625 
L 4.890625 23.390625 
z
" id="DejaVuSans-2d"/>
      <path d="M 56.203125 29.59375 
L 56.203125 25.203125 
L 14.890625 25.203125 
Q 15.484375 15.921875 20.484375 11.0625 
Q 25.484375 6.203125 34.421875 6.203125 
Q 39.59375 6.203125 44.453125 7.46875 
Q 49.3125 8.734375 54.109375 11.28125 
L 54.109375 2.78125 
Q 49.265625 0.734375 44.1875 -0.34375 
Q 39.109375 -1.421875 33.890625 -1.421875 
Q 20.796875 -1.421875 13.15625 6.1875 
Q 5.515625 13.8125 5.515625 26.8125 
Q 5.515625 40.234375 12.765625 48.109375 
Q 20.015625 56 32.328125 56 
Q 43.359375 56 49.78125 48.890625 
Q 56.203125 41.796875 56.203125 29.59375 
z
M 47.21875 32.234375 
Q 47.125 39.59375 43.09375 43.984375 
Q 39.0625 48.390625 32.421875 48.390625 
Q 24.90625 48.390625 20.390625 44.140625 
Q 15.875 39.890625 15.1875 32.171875 
z
" id="DejaVuSans-65"/>
      <path d="M 2.984375 54.6875 
L 12.5 54.6875 
L 29.59375 8.796875 
L 46.6875 54.6875 
L 56.203125 54.6875 
L 35.6875 0 
L 23.484375 0 
z
" id="DejaVuSans-76"/>
      <path d="M 34.28125 27.484375 
Q 23.390625 27.484375 19.1875 25 
Q 14.984375 22.515625 14.984375 16.5 
Q 14.984375 11.71875 18.140625 8.90625 
Q 21.296875 6.109375 26.703125 6.109375 
Q 34.1875 6.109375 38.703125 11.40625 
Q 43.21875 16.703125 43.21875 25.484375 
L 43.21875 27.484375 
z
M 52.203125 31.203125 
L 52.203125 0 
L 43.21875 0 
L 43.21875 8.296875 
Q 40.140625 3.328125 35.546875 0.953125 
Q 30.953125 -1.421875 24.3125 -1.421875 
Q 15.921875 -1.421875 10.953125 3.296875 
Q 6 8.015625 6 15.921875 
Q 6 25.140625 12.171875 29.828125 
Q 18.359375 34.515625 30.609375 34.515625 
L 43.21875 34.515625 
L 43.21875 35.40625 
Q 43.21875 41.609375 39.140625 45 
Q 35.0625 48.390625 27.6875 48.390625 
Q 23 48.390625 18.546875 47.265625 
Q 14.109375 46.140625 10.015625 43.890625 
L 10.015625 52.203125 
Q 14.9375 54.109375 19.578125 55.046875 
Q 24.21875 56 28.609375 56 
Q 40.484375 56 46.34375 49.84375 
Q 52.203125 43.703125 52.203125 31.203125 
z
" id="DejaVuSans-61"/>
      <path d="M 44.28125 53.078125 
L 44.28125 44.578125 
Q 40.484375 46.53125 36.375 47.5 
Q 32.28125 48.484375 27.875 48.484375 
Q 21.1875 48.484375 17.84375 46.4375 
Q 14.5 44.390625 14.5 40.28125 
Q 14.5 37.15625 16.890625 35.375 
Q 19.28125 33.59375 26.515625 31.984375 
L 29.59375 31.296875 
Q 39.15625 29.25 43.1875 25.515625 
Q 47.21875 21.78125 47.21875 15.09375 
Q 47.21875 7.46875 41.1875 3.015625 
Q 35.15625 -1.421875 24.609375 -1.421875 
Q 20.21875 -1.421875 15.453125 -0.5625 
Q 10.6875 0.296875 5.421875 2 
L 5.421875 11.28125 
Q 10.40625 8.6875 15.234375 7.390625 
Q 20.0625 6.109375 24.8125 6.109375 
Q 31.15625 6.109375 34.5625 8.28125 
Q 37.984375 10.453125 37.984375 14.40625 
Q 37.984375 18.0625 35.515625 20.015625 
Q 33.0625 21.96875 24.703125 23.78125 
L 21.578125 24.515625 
Q 13.234375 26.265625 9.515625 29.90625 
Q 5.8125 33.546875 5.8125 39.890625 
Q 5.8125 47.609375 11.28125 51.796875 
Q 16.75 56 26.8125 56 
Q 31.78125 56 36.171875 55.265625 
Q 40.578125 54.546875 44.28125 53.078125 
z
" id="DejaVuSans-73"/>
      <path d="M 25.390625 72.90625 
L 33.6875 72.90625 
L 8.296875 -9.28125 
L 0 -9.28125 
z
" id="DejaVuSans-2f"/>
      <path d="M 45.40625 46.390625 
L 45.40625 75.984375 
L 54.390625 75.984375 
L 54.390625 0 
L 45.40625 0 
L 45.40625 8.203125 
Q 42.578125 3.328125 38.25 0.953125 
Q 33.9375 -1.421875 27.875 -1.421875 
Q 17.96875 -1.421875 11.734375 6.484375 
Q 5.515625 14.40625 5.515625 27.296875 
Q 5.515625 40.1875 11.734375 48.09375 
Q 17.96875 56 27.875 56 
Q 33.9375 56 38.25 53.625 
Q 42.578125 51.265625 45.40625 46.390625 
z
M 14.796875 27.296875 
Q 14.796875 17.390625 18.875 11.75 
Q 22.953125 6.109375 30.078125 6.109375 
Q 37.203125 6.109375 41.296875 11.75 
Q 45.40625 17.390625 45.40625 27.296875 
Q 45.40625 37.203125 41.296875 42.84375 
Q 37.203125 48.484375 30.078125 48.484375 
Q 22.953125 48.484375 18.875 42.84375 
Q 14.796875 37.203125 14.796875 27.296875 
z
" id="DejaVuSans-64"/>
      <path d="M 9.421875 54.6875 
L 18.40625 54.6875 
L 18.40625 0 
L 9.421875 0 
z
M 9.421875 75.984375 
L 18.40625 75.984375 
L 18.40625 64.59375 
L 9.421875 64.59375 
z
" id="DejaVuSans-69"/>
      <path d="M 52 44.1875 
Q 55.375 50.25 60.0625 53.125 
Q 64.75 56 71.09375 56 
Q 79.640625 56 84.28125 50.015625 
Q 88.921875 44.046875 88.921875 33.015625 
L 88.921875 0 
L 79.890625 0 
L 79.890625 32.71875 
Q 79.890625 40.578125 77.09375 44.375 
Q 74.3125 48.1875 68.609375 48.1875 
Q 61.625 48.1875 57.5625 43.546875 
Q 53.515625 38.921875 53.515625 30.90625 
L 53.515625 0 
L 44.484375 0 
L 44.484375 32.71875 
Q 44.484375 40.625 41.703125 44.40625 
Q 38.921875 48.1875 33.109375 48.1875 
Q 26.21875 48.1875 22.15625 43.53125 
Q 18.109375 38.875 18.109375 30.90625 
L 18.109375 0 
L 9.078125 0 
L 9.078125 54.6875 
L 18.109375 54.6875 
L 18.109375 46.1875 
Q 21.1875 51.21875 25.484375 53.609375 
Q 29.78125 56 35.6875 56 
Q 41.65625 56 45.828125 52.96875 
Q 50 49.953125 52 44.1875 
z
" id="DejaVuSans-6d"/>
      <path d="M 54.890625 33.015625 
L 54.890625 0 
L 45.90625 0 
L 45.90625 32.71875 
Q 45.90625 40.484375 42.875 44.328125 
Q 39.84375 48.1875 33.796875 48.1875 
Q 26.515625 48.1875 22.3125 43.546875 
Q 18.109375 38.921875 18.109375 30.90625 
L 18.109375 0 
L 9.078125 0 
L 9.078125 54.6875 
L 18.109375 54.6875 
L 18.109375 46.1875 
Q 21.34375 51.125 25.703125 53.5625 
Q 30.078125 56 35.796875 56 
Q 45.21875 56 50.046875 50.171875 
Q 54.890625 44.34375 54.890625 33.015625 
z
" id="DejaVuSans-6e"/>
      <path d="M 8.015625 75.875 
L 15.828125 75.875 
Q 23.140625 64.359375 26.78125 53.3125 
Q 30.421875 42.28125 30.421875 31.390625 
Q 30.421875 20.453125 26.78125 9.375 
Q 23.140625 -1.703125 15.828125 -13.1875 
L 8.015625 -13.1875 
Q 14.5 -2 17.703125 9.0625 
Q 20.90625 20.125 20.90625 31.390625 
Q 20.90625 42.671875 17.703125 53.65625 
Q 14.5 64.65625 8.015625 75.875 
z
" id="DejaVuSans-29"/>
     </defs>
     <g transform="translate(107.571219 337.433594)scale(0.17 -0.17)">
      <use xlink:href="#DejaVuSans-6c"/>
      <use x="27.783203" xlink:href="#DejaVuSans-6f"/>
      <use x="88.964844" xlink:href="#DejaVuSans-67"/>
      <use x="152.441406" xlink:href="#DejaVuSans-31"/>
      <use x="216.064453" xlink:href="#DejaVuSans-30"/>
      <use x="279.6875" xlink:href="#DejaVuSans-28"/>
      <use x="318.701172" xlink:href="#DejaVuSans-23"/>
      <use x="402.490234" xlink:href="#DejaVuSans-20"/>
      <use x="434.277344" xlink:href="#DejaVuSans-66"/>
      <use x="469.404297" xlink:href="#DejaVuSans-2d"/>
      <use x="505.488281" xlink:href="#DejaVuSans-65"/>
      <use x="567.011719" xlink:href="#DejaVuSans-76"/>
      <use x="626.191406" xlink:href="#DejaVuSans-61"/>
      <use x="687.470703" xlink:href="#DejaVuSans-6c"/>
      <use x="715.253906" xlink:href="#DejaVuSans-73"/>
      <use x="767.353516" xlink:href="#DejaVuSans-20"/>
      <use x="799.140625" xlink:href="#DejaVuSans-2f"/>
      <use x="832.832031" xlink:href="#DejaVuSans-20"/>
      <use x="864.619141" xlink:href="#DejaVuSans-64"/>
      <use x="928.095703" xlink:href="#DejaVuSans-69"/>
      <use x="955.878906" xlink:href="#DejaVuSans-6d"/>
      <use x="1053.291016" xlink:href="#DejaVuSans-65"/>
      <use x="1114.814453" xlink:href="#DejaVuSans-6e"/>
      <use x="1178.193359" xlink:href="#DejaVuSans-73"/>
      <use x="1230.292969" xlink:href="#DejaVuSans-69"/>
      <use x="1258.076172" xlink:href="#DejaVuSans-6f"/>
      <use x="1319.257812" xlink:href="#DejaVuSans-6e"/>
      <use x="1382.636719" xlink:href="#DejaVuSans-29"/>
     </g>
    </g>
   </g>
   <g id="matplotlib.axis_2">
    <g id="ytick_1">
     <g id="line2d_11">
      <path clip-path="url(#p141cd796a1)" d="M 56.84 294.16 
L 399.984 294.16 
" style="fill:none;stroke:#b0b0b0;stroke-linecap:square;stroke-width:0.8;"/>
     </g>
     <g id="line2d_12">
      <defs>
       <path d="M 0 0 
L -3.5 0 
" id="m37a7c16b79" style="stroke:#000000;stroke-width:0.8;"/>
      </defs>
      <g>
       <use style="stroke:#000000;stroke-width:0.8;" x="56.84" xlink:href="#m37a7c16b79" y="294.16"/>
      </g>
     </g>
     <g id="text_7">
      <!-- 0.0 -->
      <defs>
       <path d="M 10.6875 12.40625 
L 21 12.40625 
L 21 0 
L 10.6875 0 
z
" id="DejaVuSans-2e"/>
      </defs>
      <g transform="translate(24.395 300.23875)scale(0.16 -0.16)">
       <use xlink:href="#DejaVuSans-30"/>
       <use x="63.623047" xlink:href="#DejaVuSans-2e"/>
       <use x="95.410156" xlink:href="#DejaVuSans-30"/>
      </g>
     </g>
    </g>
    <g id="ytick_2">
     <g id="line2d_13">
      <path clip-path="url(#p141cd796a1)" d="M 56.84 240.829307 
L 399.984 240.829307 
" style="fill:none;stroke:#b0b0b0;stroke-linecap:square;stroke-width:0.8;"/>
     </g>
     <g id="line2d_14">
      <g>
       <use style="stroke:#000000;stroke-width:0.8;" x="56.84" xlink:href="#m37a7c16b79" y="240.829307"/>
      </g>
     </g>
     <g id="text_8">
      <!-- 0.2 -->
      <g transform="translate(24.395 246.908057)scale(0.16 -0.16)">
       <use xlink:href="#DejaVuSans-30"/>
       <use x="63.623047" xlink:href="#DejaVuSans-2e"/>
       <use x="95.410156" xlink:href="#DejaVuSans-32"/>
      </g>
     </g>
    </g>
    <g id="ytick_3">
     <g id="line2d_15">
      <path clip-path="url(#p141cd796a1)" d="M 56.84 187.498614 
L 399.984 187.498614 
" style="fill:none;stroke:#b0b0b0;stroke-linecap:square;stroke-width:0.8;"/>
     </g>
     <g id="line2d_16">
      <g>
       <use style="stroke:#000000;stroke-width:0.8;" x="56.84" xlink:href="#m37a7c16b79" y="187.498614"/>
      </g>
     </g>
     <g id="text_9">
      <!-- 0.4 -->
      <g transform="translate(24.395 193.577364)scale(0.16 -0.16)">
       <use xlink:href="#DejaVuSans-30"/>
       <use x="63.623047" xlink:href="#DejaVuSans-2e"/>
       <use x="95.410156" xlink:href="#DejaVuSans-34"/>
      </g>
     </g>
    </g>
    <g id="ytick_4">
     <g id="line2d_17">
      <path clip-path="url(#p141cd796a1)" d="M 56.84 134.167921 
L 399.984 134.167921 
" style="fill:none;stroke:#b0b0b0;stroke-linecap:square;stroke-width:0.8;"/>
     </g>
     <g id="line2d_18">
      <g>
       <use style="stroke:#000000;stroke-width:0.8;" x="56.84" xlink:href="#m37a7c16b79" y="134.167921"/>
      </g>
     </g>
     <g id="text_10">
      <!-- 0.6 -->
      <g transform="translate(24.395 140.246671)scale(0.16 -0.16)">
       <use xlink:href="#DejaVuSans-30"/>
       <use x="63.623047" xlink:href="#DejaVuSans-2e"/>
       <use x="95.410156" xlink:href="#DejaVuSans-36"/>
      </g>
     </g>
    </g>
    <g id="ytick_5">
     <g id="line2d_19">
      <path clip-path="url(#p141cd796a1)" d="M 56.84 80.837228 
L 399.984 80.837228 
" style="fill:none;stroke:#b0b0b0;stroke-linecap:square;stroke-width:0.8;"/>
     </g>
     <g id="line2d_20">
      <g>
       <use style="stroke:#000000;stroke-width:0.8;" x="56.84" xlink:href="#m37a7c16b79" y="80.837228"/>
      </g>
     </g>
     <g id="text_11">
      <!-- 0.8 -->
      <g transform="translate(24.395 86.915978)scale(0.16 -0.16)">
       <use xlink:href="#DejaVuSans-30"/>
       <use x="63.623047" xlink:href="#DejaVuSans-2e"/>
       <use x="95.410156" xlink:href="#DejaVuSans-38"/>
      </g>
     </g>
    </g>
    <g id="ytick_6">
     <g id="line2d_21">
      <path clip-path="url(#p141cd796a1)" d="M 56.84 27.506535 
L 399.984 27.506535 
" style="fill:none;stroke:#b0b0b0;stroke-linecap:square;stroke-width:0.8;"/>
     </g>
     <g id="line2d_22">
      <g>
       <use style="stroke:#000000;stroke-width:0.8;" x="56.84" xlink:href="#m37a7c16b79" y="27.506535"/>
      </g>
     </g>
     <g id="text_12">
      <!-- 1.0 -->
      <g transform="translate(24.395 33.585285)scale(0.16 -0.16)">
       <use xlink:href="#DejaVuSans-31"/>
       <use x="63.623047" xlink:href="#DejaVuSans-2e"/>
       <use x="95.410156" xlink:href="#DejaVuSans-30"/>
      </g>
     </g>
    </g>
    <g id="text_13">
     <!-- Fraction of function,target pairs -->
     <defs>
      <path d="M 9.8125 72.90625 
L 51.703125 72.90625 
L 51.703125 64.59375 
L 19.671875 64.59375 
L 19.671875 43.109375 
L 48.578125 43.109375 
L 48.578125 34.8125 
L 19.671875 34.8125 
L 19.671875 0 
L 9.8125 0 
z
" id="DejaVuSans-46"/>
      <path d="M 41.109375 46.296875 
Q 39.59375 47.171875 37.8125 47.578125 
Q 36.03125 48 33.890625 48 
Q 26.265625 48 22.1875 43.046875 
Q 18.109375 38.09375 18.109375 28.8125 
L 18.109375 0 
L 9.078125 0 
L 9.078125 54.6875 
L 18.109375 54.6875 
L 18.109375 46.1875 
Q 20.953125 51.171875 25.484375 53.578125 
Q 30.03125 56 36.53125 56 
Q 37.453125 56 38.578125 55.875 
Q 39.703125 55.765625 41.0625 55.515625 
z
" id="DejaVuSans-72"/>
      <path d="M 48.78125 52.59375 
L 48.78125 44.1875 
Q 44.96875 46.296875 41.140625 47.34375 
Q 37.3125 48.390625 33.40625 48.390625 
Q 24.65625 48.390625 19.8125 42.84375 
Q 14.984375 37.3125 14.984375 27.296875 
Q 14.984375 17.28125 19.8125 11.734375 
Q 24.65625 6.203125 33.40625 6.203125 
Q 37.3125 6.203125 41.140625 7.25 
Q 44.96875 8.296875 48.78125 10.40625 
L 48.78125 2.09375 
Q 45.015625 0.34375 40.984375 -0.53125 
Q 36.96875 -1.421875 32.421875 -1.421875 
Q 20.0625 -1.421875 12.78125 6.34375 
Q 5.515625 14.109375 5.515625 27.296875 
Q 5.515625 40.671875 12.859375 48.328125 
Q 20.21875 56 33.015625 56 
Q 37.15625 56 41.109375 55.140625 
Q 45.0625 54.296875 48.78125 52.59375 
z
" id="DejaVuSans-63"/>
      <path d="M 18.3125 70.21875 
L 18.3125 54.6875 
L 36.8125 54.6875 
L 36.8125 47.703125 
L 18.3125 47.703125 
L 18.3125 18.015625 
Q 18.3125 11.328125 20.140625 9.421875 
Q 21.96875 7.515625 27.59375 7.515625 
L 36.8125 7.515625 
L 36.8125 0 
L 27.59375 0 
Q 17.1875 0 13.234375 3.875 
Q 9.28125 7.765625 9.28125 18.015625 
L 9.28125 47.703125 
L 2.6875 47.703125 
L 2.6875 54.6875 
L 9.28125 54.6875 
L 9.28125 70.21875 
z
" id="DejaVuSans-74"/>
      <path d="M 8.5 21.578125 
L 8.5 54.6875 
L 17.484375 54.6875 
L 17.484375 21.921875 
Q 17.484375 14.15625 20.5 10.265625 
Q 23.53125 6.390625 29.59375 6.390625 
Q 36.859375 6.390625 41.078125 11.03125 
Q 45.3125 15.671875 45.3125 23.6875 
L 45.3125 54.6875 
L 54.296875 54.6875 
L 54.296875 0 
L 45.3125 0 
L 45.3125 8.40625 
Q 42.046875 3.421875 37.71875 1 
Q 33.40625 -1.421875 27.6875 -1.421875 
Q 18.265625 -1.421875 13.375 4.4375 
Q 8.5 10.296875 8.5 21.578125 
z
M 31.109375 56 
z
" id="DejaVuSans-75"/>
      <path d="M 11.71875 12.40625 
L 22.015625 12.40625 
L 22.015625 4 
L 14.015625 -11.625 
L 7.71875 -11.625 
L 11.71875 4 
z
" id="DejaVuSans-2c"/>
      <path d="M 18.109375 8.203125 
L 18.109375 -20.796875 
L 9.078125 -20.796875 
L 9.078125 54.6875 
L 18.109375 54.6875 
L 18.109375 46.390625 
Q 20.953125 51.265625 25.265625 53.625 
Q 29.59375 56 35.59375 56 
Q 45.5625 56 51.78125 48.09375 
Q 58.015625 40.1875 58.015625 27.296875 
Q 58.015625 14.40625 51.78125 6.484375 
Q 45.5625 -1.421875 35.59375 -1.421875 
Q 29.59375 -1.421875 25.265625 0.953125 
Q 20.953125 3.328125 18.109375 8.203125 
z
M 48.6875 27.296875 
Q 48.6875 37.203125 44.609375 42.84375 
Q 40.53125 48.484375 33.40625 48.484375 
Q 26.265625 48.484375 22.1875 42.84375 
Q 18.109375 37.203125 18.109375 27.296875 
Q 18.109375 17.390625 22.1875 11.75 
Q 26.265625 6.109375 33.40625 6.109375 
Q 40.53125 6.109375 44.609375 11.75 
Q 48.6875 17.390625 48.6875 27.296875 
z
" id="DejaVuSans-70"/>
     </defs>
     <g transform="translate(16.859531 294.639375)rotate(-90)scale(0.17 -0.17)">
      <use xlink:href="#DejaVuSans-46"/>
      <use x="57.410156" xlink:href="#DejaVuSans-72"/>
      <use x="98.523438" xlink:href="#DejaVuSans-61"/>
      <use x="159.802734" xlink:href="#DejaVuSans-63"/>
      <use x="214.783203" xlink:href="#DejaVuSans-74"/>
      <use x="253.992188" xlink:href="#DejaVuSans-69"/>
      <use x="281.775391" xlink:href="#DejaVuSans-6f"/>
      <use x="342.957031" xlink:href="#DejaVuSans-6e"/>
      <use x="406.335938" xlink:href="#DejaVuSans-20"/>
      <use x="438.123047" xlink:href="#DejaVuSans-6f"/>
      <use x="499.304688" xlink:href="#DejaVuSans-66"/>
      <use x="534.509766" xlink:href="#DejaVuSans-20"/>
      <use x="566.296875" xlink:href="#DejaVuSans-66"/>
      <use x="601.501953" xlink:href="#DejaVuSans-75"/>
      <use x="664.880859" xlink:href="#DejaVuSans-6e"/>
      <use x="728.259766" xlink:href="#DejaVuSans-63"/>
      <use x="783.240234" xlink:href="#DejaVuSans-74"/>
      <use x="822.449219" xlink:href="#DejaVuSans-69"/>
      <use x="850.232422" xlink:href="#DejaVuSans-6f"/>
      <use x="911.414062" xlink:href="#DejaVuSans-6e"/>
      <use x="974.792969" xlink:href="#DejaVuSans-2c"/>
      <use x="1006.580078" xlink:href="#DejaVuSans-74"/>
      <use x="1045.789062" xlink:href="#DejaVuSans-61"/>
      <use x="1107.068359" xlink:href="#DejaVuSans-72"/>
      <use x="1148.166016" xlink:href="#DejaVuSans-67"/>
      <use x="1211.642578" xlink:href="#DejaVuSans-65"/>
      <use x="1273.166016" xlink:href="#DejaVuSans-74"/>
      <use x="1312.375" xlink:href="#DejaVuSans-20"/>
      <use x="1344.162109" xlink:href="#DejaVuSans-70"/>
      <use x="1407.638672" xlink:href="#DejaVuSans-61"/>
      <use x="1468.917969" xlink:href="#DejaVuSans-69"/>
      <use x="1496.701172" xlink:href="#DejaVuSans-72"/>
      <use x="1537.814453" xlink:href="#DejaVuSans-73"/>
     </g>
    </g>
   </g>
   <g id="line2d_23">
    <defs>
     <path d="M 0 1.5 
C 0.397805 1.5 0.77937 1.341951 1.06066 1.06066 
C 1.341951 0.77937 1.5 0.397805 1.5 0 
C 1.5 -0.397805 1.341951 -0.77937 1.06066 -1.06066 
C 0.77937 -1.341951 0.397805 -1.5 0 -1.5 
C -0.397805 -1.5 -0.77937 -1.341951 -1.06066 -1.06066 
C -1.341951 -0.77937 -1.5 -0.397805 -1.5 0 
C -1.5 0.397805 -1.341951 0.77937 -1.06066 1.06066 
C -0.77937 1.341951 -0.397805 1.5 0 1.5 
z
" id="mf4381b69c9" style="stroke:#00bfbf;"/>
    </defs>
    <g>
     <use style="fill:#00bfbf;stroke:#00bfbf;" x="266.259128" xlink:href="#mf4381b69c9" y="27.506535"/>
     <use style="fill:#00bfbf;stroke:#00bfbf;" x="266.259128" xlink:href="#mf4381b69c9" y="27.506535"/>
    </g>
   </g>
   <g id="line2d_24">
    <path d="M 44.939466 294.16 
L 44.939466 286.317251 
L 56.84 286.317251 
L 56.84 281.611602 
L 63.801366 281.611602 
L 63.801366 279.520202 
L 68.740534 279.520202 
L 68.740534 278.474502 
L 72.57165 278.474502 
L 72.57165 273.246003 
L 75.7019 273.246003 
L 75.7019 261.743304 
L 78.348489 261.743304 
L 78.348489 258.606205 
L 80.641068 258.606205 
L 80.641068 255.469105 
L 82.663267 255.469105 
L 82.663267 254.423405 
L 87.602435 254.423405 
L 87.602435 249.717756 
L 90.249023 249.717756 
L 90.249023 246.057806 
L 92.541603 246.057806 
L 92.541603 245.012106 
L 93.582457 245.012106 
L 93.582457 242.920707 
L 94.563801 242.920707 
L 94.563801 241.875007 
L 98.009084 241.875007 
L 98.009084 241.352157 
L 99.502969 241.352157 
L 99.502969 239.783607 
L 103.334085 239.783607 
L 103.334085 238.215057 
L 106.464335 238.215057 
L 106.464335 236.646507 
L 110.672804 236.646507 
L 110.672804 234.032258 
L 112.777744 234.032258 
L 112.777744 231.940858 
L 117.383526 231.940858 
L 117.383526 230.372308 
L 117.63417 230.372308 
L 117.63417 229.326608 
L 122.758949 229.326608 
L 122.758949 225.666659 
L 127.698117 225.666659 
L 127.698117 222.529559 
L 134.566928 222.529559 
L 134.566928 220.43816 
L 135.29376 220.43816 
L 135.29376 219.39246 
L 137.85116 219.39246 
L 137.85116 218.34676 
L 138.747129 218.34676 
L 138.747129 217.30106 
L 145.756926 217.30106 
L 145.756926 216.77821 
L 147.060337 216.77821 
L 147.060337 215.20966 
L 151.943379 215.20966 
L 151.943379 214.68681 
L 167.668282 214.68681 
L 167.668282 212.595411 
L 169.750365 212.595411 
L 169.750365 206.844061 
L 172.788706 206.844061 
L 172.788706 206.321211 
L 181.122772 206.321211 
L 181.122772 205.798361 
L 181.597012 205.798361 
L 181.597012 205.275512 
L 183.437684 205.275512 
L 183.437684 204.229812 
L 184.253022 204.229812 
L 184.304318 202.661262 
L 184.923037 202.661262 
L 184.923037 201.615562 
L 186.926011 201.615562 
L 186.926011 201.092712 
L 188.069748 201.092712 
L 188.069748 199.524162 
L 188.39166 199.524162 
L 188.39166 198.478462 
L 188.790675 198.478462 
L 188.790675 196.909913 
L 188.908594 196.909913 
L 188.91251 195.864213 
L 189.230676 195.864213 
L 189.230676 195.341363 
L 189.364704 195.341363 
L 189.418023 191.681413 
L 189.524168 191.681413 
L 189.524168 190.635713 
L 192.59258 190.635713 
L 192.59258 189.067164 
L 193.103262 189.067164 
L 193.103262 182.792964 
L 195.990964 182.792964 
L 195.990964 182.270115 
L 196.811215 182.270115 
L 196.811215 180.701565 
L 199.941465 180.701565 
L 200.007262 178.087315 
L 200.103446 178.087315 
L 200.103446 177.564465 
L 200.290176 177.564465 
L 200.290176 177.041615 
L 200.602236 177.041615 
L 200.685292 175.473065 
L 202.355162 175.473065 
L 202.355162 174.950215 
L 202.646226 174.950215 
L 202.646226 169.198866 
L 202.902991 169.198866 
L 202.902991 168.676016 
L 204.361442 168.676016 
L 204.361442 168.153166 
L 204.644161 168.153166 
L 204.644161 167.630316 
L 204.869814 167.630316 
L 204.869814 166.584617 
L 205.480339 166.584617 
L 205.480339 166.061767 
L 206.893215 166.061767 
L 206.893215 165.538917 
L 207.126604 165.538917 
L 207.179391 164.493217 
L 207.289854 164.493217 
L 207.355525 162.401817 
L 208.743857 162.401817 
L 208.743857 160.310417 
L 209.779195 160.310417 
L 209.779195 159.787567 
L 210.778662 159.787567 
L 210.778662 159.264718 
L 210.958533 159.264718 
L 210.958533 158.741868 
L 211.827572 158.741868 
L 211.827572 157.696168 
L 213.077815 157.696168 
L 213.077815 156.650468 
L 213.234296 156.650468 
L 213.234296 152.990518 
L 214.036832 152.990518 
L 214.036832 152.467668 
L 214.341397 152.467668 
L 214.341397 150.899119 
L 214.470037 150.899119 
L 214.470037 150.376269 
L 214.955417 150.376269 
L 214.955417 149.330569 
L 215.655802 149.330569 
L 215.655802 148.807719 
L 216.663338 148.807719 
L 216.663338 148.284869 
L 216.790435 148.284869 
L 216.790435 145.670619 
L 217.445655 145.670619 
L 217.445655 145.147769 
L 217.695771 145.147769 
L 217.801651 144.10207 
L 218.091823 144.10207 
L 218.091823 143.57922 
L 218.784127 143.57922 
L 218.784127 143.05637 
L 219.016968 143.05637 
L 219.016968 142.53352 
L 219.627886 142.53352 
L 219.734889 137.82787 
L 219.830238 137.82787 
L 219.830238 137.30502 
L 220.288492 137.30502 
L 220.288492 136.78217 
L 220.931901 136.78217 
L 220.937966 135.736471 
L 222.155128 135.736471 
L 222.247525 127.893722 
L 222.329923 127.893722 
L 222.329923 126.848022 
L 222.814004 126.848022 
L 222.814004 125.802322 
L 222.989248 125.802322 
L 222.989248 125.279472 
L 223.286396 125.279472 
L 223.286396 124.756622 
L 224.357651 124.756622 
L 224.438949 120.050973 
L 225.093463 120.050973 
L 225.093463 119.528123 
L 226.309477 119.528123 
L 226.382057 114.299623 
L 226.828864 114.299623 
L 226.905713 113.253924 
L 226.967714 113.253924 
L 226.967714 112.731074 
L 228.12744 112.731074 
L 228.12744 111.685374 
L 228.469102 111.685374 
L 228.469102 110.639674 
L 228.871465 110.639674 
L 228.871465 110.116824 
L 229.313829 110.116824 
L 229.313829 109.593974 
L 229.651883 109.593974 
L 229.711646 107.502574 
L 230.195499 107.502574 
L 230.195499 105.934024 
L 231.161943 105.934024 
L 231.161943 103.842625 
L 231.559807 103.842625 
L 231.559807 103.319775 
L 231.790822 103.319775 
L 231.790822 102.796925 
L 232.448422 102.796925 
L 232.499216 100.705525 
L 233.032364 100.705525 
L 233.032364 100.182675 
L 233.692565 100.182675 
L 233.739813 97.045576 
L 233.986888 97.045576 
L 234.032203 95.999876 
L 234.603549 95.999876 
L 234.603549 95.477026 
L 234.852611 95.477026 
L 234.896776 91.817076 
L 235.217579 91.817076 
L 235.217579 90.771376 
L 235.980672 90.771376 
L 235.980672 88.157127 
L 236.237551 88.157127 
L 236.317957 87.111427 
L 237.000185 87.111427 
L 237.035127 83.974327 
L 237.20478 83.974327 
L 237.20478 83.451477 
L 237.318203 83.451477 
L 237.318203 82.405778 
L 237.925601 82.405778 
L 237.995575 79.268678 
L 238.156041 79.268678 
L 238.26337 78.222978 
L 238.352008 78.222978 
L 238.352008 77.700128 
L 238.838772 77.700128 
L 238.905128 75.085878 
L 239.159208 75.085878 
L 239.24335 74.040179 
L 239.277767 74.040179 
L 239.277767 73.517329 
L 239.705817 73.517329 
L 239.739118 70.380229 
L 240.531172 70.380229 
L 240.562911 68.811679 
L 241.348981 68.811679 
L 241.348981 66.72028 
L 241.697456 66.72028 
L 241.699265 65.67458 
L 242.071613 65.67458 
L 242.100631 64.62888 
L 242.820749 64.62888 
L 242.820749 62.01463 
L 243.023653 62.01463 
L 243.047929 60.96893 
L 243.485149 60.96893 
L 243.511875 59.92323 
L 244.176253 59.92323 
L 244.176253 58.877531 
L 244.815877 58.877531 
L 244.815877 56.263281 
L 244.969884 56.263281 
L 244.969884 55.740431 
L 245.102645 55.740431 
L 245.102645 55.217581 
L 245.432525 55.217581 
L 245.432525 53.649031 
L 246.027791 53.649031 
L 246.027791 53.126181 
L 246.580789 53.126181 
L 246.603108 52.080481 
L 247.15977 52.080481 
L 247.15977 50.511932 
L 247.698949 50.511932 
L 247.698949 49.989082 
L 247.82924 49.989082 
L 247.82924 49.466232 
L 247.941699 49.466232 
L 247.941699 48.420532 
L 248.221709 48.420532 
L 248.239894 46.329132 
L 248.729022 46.329132 
L 248.729022 45.806282 
L 248.851753 45.806282 
L 248.938154 44.760582 
L 249.221774 44.760582 
L 249.221774 43.714883 
L 249.915857 43.714883 
L 249.915857 43.192033 
L 250.376133 43.192033 
L 250.376133 42.669183 
L 250.620464 42.669183 
L 250.620464 42.146333 
L 251.062469 42.146333 
L 251.062469 40.054933 
L 251.493381 40.054933 
L 251.493381 39.532083 
L 252.324055 39.532083 
L 252.324055 39.009233 
L 253.116387 39.009233 
L 253.130062 37.440683 
L 253.499249 37.440683 
L 253.577798 36.394983 
L 254.240276 36.394983 
L 254.240276 35.872134 
L 254.585124 35.872134 
L 254.585124 35.349284 
L 255.109316 35.349284 
L 255.109316 34.826434 
L 256.288838 34.826434 
L 256.288838 34.303584 
L 256.595243 34.303584 
L 256.607702 33.257884 
L 256.740166 33.257884 
L 256.740166 32.735034 
L 256.908519 32.735034 
L 256.908519 32.212184 
L 257.530233 32.212184 
L 257.530233 31.689334 
L 258.405711 31.689334 
L 258.405711 31.166484 
L 258.68789 31.166484 
L 258.68789 30.643634 
L 258.965506 30.643634 
L 258.965506 30.120784 
L 261.519585 30.120784 
L 261.519585 29.597934 
L 261.98778 29.597934 
L 261.995938 28.552235 
L 263.320309 28.552235 
L 263.320309 28.029385 
L 266.259128 28.029385 
L 266.259128 27.506535 
L 333.569032 27.506535 
L 333.569032 27.506535 
" style="fill:none;stroke:#00bfbf;stroke-linecap:square;stroke-width:1.5;"/>
   </g>
   <g id="line2d_25">
    <defs>
     <path d="M -6 0 
L 6 0 
M 0 6 
L 0 -6 
" id="mf34369a22a" style="stroke:#00bfbf;stroke-width:1.5;"/>
    </defs>
    <g>
     <use style="fill-opacity:0;stroke:#00bfbf;stroke-width:1.5;" x="112.777744" xlink:href="#mf34369a22a" y="231.940858"/>
     <use style="fill-opacity:0;stroke:#00bfbf;stroke-width:1.5;" x="202.902991" xlink:href="#mf34369a22a" y="168.676016"/>
     <use style="fill-opacity:0;stroke:#00bfbf;stroke-width:1.5;" x="233.739813" xlink:href="#mf34369a22a" y="99.659825"/>
     <use style="fill-opacity:0;stroke:#00bfbf;stroke-width:1.5;" x="266.259128" xlink:href="#mf34369a22a" y="28.029385"/>
     <use style="fill-opacity:0;stroke:#00bfbf;stroke-width:1.5;" x="266.259128" xlink:href="#mf34369a22a" y="27.506535"/>
     <use style="fill-opacity:0;stroke:#00bfbf;stroke-width:1.5;" x="333.569032" xlink:href="#mf34369a22a" y="27.506535"/>
    </g>
   </g>
   <g id="line2d_26">
    <path style="fill:none;stroke:#00bfbf;stroke-linecap:square;stroke-width:1.5;"/>
    <g/>
   </g>
   <g id="line2d_27">
    <path clip-path="url(#p141cd796a1)" d="M 188.012065 201.092712 
" style="fill:none;stroke:#00bfbf;stroke-linecap:square;stroke-width:1.5;"/>
    <defs>
     <path d="M -12 12 
L 12 -12 
M -12 -12 
L 12 12 
" id="m184c184795" style="stroke:#00bfbf;stroke-width:3;"/>
    </defs>
    <g clip-path="url(#p141cd796a1)">
     <use style="fill:#00bfbf;stroke:#00bfbf;stroke-width:3;" x="188.012065" xlink:href="#m184c184795" y="201.092712"/>
    </g>
   </g>
   <g id="line2d_28">
    <defs>
     <path d="M 0 1.5 
C 0.397805 1.5 0.77937 1.341951 1.06066 1.06066 
C 1.341951 0.77937 1.5 0.397805 1.5 0 
C 1.5 -0.397805 1.341951 -0.77937 1.06066 -1.06066 
C 0.77937 -1.341951 0.397805 -1.5 0 -1.5 
C -0.397805 -1.5 -0.77937 -1.341951 -1.06066 -1.06066 
C -1.341951 -0.77937 -1.5 -0.397805 -1.5 0 
C -1.5 0.397805 -1.341951 0.77937 -1.06066 1.06066 
C -0.77937 1.341951 -0.397805 1.5 0 1.5 
z
" id="m5baeb5f2eb" style="stroke:#008000;"/>
    </defs>
    <g>
     <use style="fill:#008000;stroke:#008000;" x="261.446561" xlink:href="#m5baeb5f2eb" y="194.818513"/>
     <use style="fill:#008000;stroke:#008000;" x="261.446561" xlink:href="#m5baeb5f2eb" y="194.818513"/>
    </g>
   </g>
   <g id="line2d_29">
    <path d="M 37.9781 294.16 
L 37.9781 289.977201 
L 49.878634 289.977201 
L 49.878634 286.317251 
L 56.84 286.317251 
L 56.84 279.520202 
L 61.779168 279.520202 
L 61.779168 275.860252 
L 68.740534 275.860252 
L 68.740534 275.337402 
L 71.387123 275.337402 
L 71.387123 273.246003 
L 73.679702 273.246003 
L 73.679702 272.200303 
L 80.641068 272.200303 
L 80.641068 270.631753 
L 83.287657 270.631753 
L 83.287657 270.108903 
L 90.249023 270.108903 
L 90.249023 269.586053 
L 93.242469 269.586053 
L 93.242469 265.926104 
L 93.915843 265.926104 
L 93.915843 265.403254 
L 101.311887 265.403254 
L 101.311887 264.357554 
L 104.442137 264.357554 
L 104.442137 262.789004 
L 105.482991 262.789004 
L 105.482991 261.743304 
L 106.464335 261.743304 
L 106.464335 260.697604 
L 106.779369 260.697604 
L 106.779369 259.651904 
L 108.273253 259.651904 
L 108.273253 258.083355 
L 109.381305 258.083355 
L 109.381305 257.037655 
L 112.777744 257.037655 
L 112.777744 256.514805 
L 113.212421 256.514805 
L 113.212421 255.469105 
L 114.652569 255.469105 
L 114.652569 254.946255 
L 115.234619 254.946255 
L 115.234619 253.377705 
L 115.424332 253.377705 
L 115.424332 252.332005 
L 121.679591 252.332005 
L 121.679591 251.809156 
L 122.820376 251.809156 
L 122.820376 249.717756 
L 127.230272 249.717756 
L 127.230272 249.194906 
L 131.930648 249.194906 
L 131.930648 248.149206 
L 133.710687 248.149206 
L 133.710687 247.626356 
L 140.009081 247.626356 
L 140.009081 246.580656 
L 140.365849 246.580656 
L 140.365849 246.057806 
L 141.763839 246.057806 
L 141.763839 245.012106 
L 149.468331 245.012106 
L 149.571914 242.397857 
L 166.272282 242.397857 
L 166.272282 241.352157 
L 188.023067 241.352157 
L 188.031314 239.783607 
L 188.143628 239.783607 
L 188.143628 239.260757 
L 188.368769 239.260757 
L 188.393006 237.692207 
L 188.502986 237.692207 
L 188.502986 236.646507 
L 188.654723 236.646507 
L 188.654723 235.600808 
L 189.05033 235.600808 
L 189.05033 235.077958 
L 196.033266 235.077958 
L 196.033266 234.555108 
L 197.848046 234.555108 
L 197.848046 234.032258 
L 199.946958 234.032258 
L 199.946958 232.986558 
L 200.236935 232.986558 
L 200.236935 231.418008 
L 200.483549 231.418008 
L 200.49818 229.849458 
L 204.387434 229.849458 
L 204.387434 229.326608 
L 206.932562 229.326608 
L 207.03917 227.758059 
L 207.090869 227.758059 
L 207.090869 225.666659 
L 207.2567 225.666659 
L 207.2567 225.143809 
L 210.811871 225.143809 
L 210.811871 224.620959 
L 211.8571 224.620959 
L 211.937186 223.575259 
L 211.976067 223.575259 
L 212.073226 221.483859 
L 212.10842 221.483859 
L 212.10842 220.96101 
L 212.264569 220.96101 
L 212.264569 220.43816 
L 212.982338 220.43816 
L 212.982338 219.39246 
L 214.195928 219.39246 
L 214.195928 218.86961 
L 215.679432 218.86961 
L 215.788913 217.82391 
L 218.113521 217.82391 
L 218.113521 217.30106 
L 218.948332 217.30106 
L 218.971921 215.20966 
L 219.562748 215.20966 
L 219.562748 214.68681 
L 221.514383 214.68681 
L 221.514383 213.64111 
L 223.74116 213.64111 
L 223.804225 212.595411 
L 225.760306 212.595411 
L 225.808472 211.026861 
L 227.151258 211.026861 
L 227.151258 210.504011 
L 227.566781 210.504011 
L 227.610143 208.935461 
L 228.022062 208.935461 
L 228.022062 208.412611 
L 228.537924 208.412611 
L 228.537924 207.366911 
L 229.615583 207.366911 
L 229.615583 206.844061 
L 230.693367 206.844061 
L 230.729517 205.275512 
L 232.099573 205.275512 
L 232.129723 204.229812 
L 233.663884 204.229812 
L 233.663884 203.706962 
L 234.520818 203.706962 
L 234.520818 203.184112 
L 235.679595 203.184112 
L 235.679595 202.661262 
L 235.914052 202.661262 
L 235.914052 202.138412 
L 237.672742 202.138412 
L 237.672742 201.615562 
L 238.195221 201.615562 
L 238.195221 201.092712 
L 239.478029 201.092712 
L 239.497653 200.047012 
L 240.332835 200.047012 
L 240.332835 199.524162 
L 241.111423 199.524162 
L 241.111423 199.001312 
L 241.873316 199.001312 
L 241.873316 198.478462 
L 247.547464 198.478462 
L 247.547464 197.955613 
L 251.78576 197.955613 
L 251.78576 197.432763 
L 252.199107 197.432763 
L 252.199107 196.909913 
L 253.475265 196.909913 
L 253.475265 196.387063 
L 254.489739 196.387063 
L 254.489739 195.864213 
L 254.84347 195.864213 
L 254.84347 195.341363 
L 261.446561 195.341363 
L 261.446561 194.818513 
L 333.569032 194.818513 
L 333.569032 194.818513 
" style="fill:none;stroke:#008000;stroke-linecap:square;stroke-width:1.5;"/>
   </g>
   <g id="line2d_30">
    <defs>
     <path d="M -0 6 
L 6 -6 
L -6 -6 
z
" id="m84334b03dd" style="stroke:#008000;stroke-linejoin:miter;stroke-width:1.5;"/>
    </defs>
    <g>
     <use style="fill-opacity:0;stroke:#008000;stroke-linejoin:miter;stroke-width:1.5;" x="133.710687" xlink:href="#m84334b03dd" y="248.149206"/>
     <use style="fill-opacity:0;stroke:#008000;stroke-linejoin:miter;stroke-width:1.5;" x="199.946958" xlink:href="#m84334b03dd" y="234.032258"/>
     <use style="fill-opacity:0;stroke:#008000;stroke-linejoin:miter;stroke-width:1.5;" x="261.446561" xlink:href="#m84334b03dd" y="195.341363"/>
     <use style="fill-opacity:0;stroke:#008000;stroke-linejoin:miter;stroke-width:1.5;" x="261.446561" xlink:href="#m84334b03dd" y="194.818513"/>
     <use style="fill-opacity:0;stroke:#008000;stroke-linejoin:miter;stroke-width:1.5;" x="261.446561" xlink:href="#m84334b03dd" y="194.818513"/>
     <use style="fill-opacity:0;stroke:#008000;stroke-linejoin:miter;stroke-width:1.5;" x="333.569032" xlink:href="#m84334b03dd" y="194.818513"/>
    </g>
   </g>
   <g id="line2d_31">
    <path style="fill:none;stroke:#008000;stroke-linecap:square;stroke-width:1.5;"/>
    <g/>
   </g>
   <g id="line2d_32">
    <path clip-path="url(#p141cd796a1)" d="M 188.012065 241.352157 
" style="fill:none;stroke:#008000;stroke-linecap:square;stroke-width:1.5;"/>
    <defs>
     <path d="M -12 12 
L 12 -12 
M -12 -12 
L 12 12 
" id="m8a6fbc544b" style="stroke:#008000;stroke-width:3;"/>
    </defs>
    <g clip-path="url(#p141cd796a1)">
     <use style="fill:#008000;stroke:#008000;stroke-width:3;" x="188.012065" xlink:href="#m8a6fbc544b" y="241.352157"/>
    </g>
   </g>
   <g id="line2d_33">
    <defs>
     <path d="M 0 1.5 
C 0.397805 1.5 0.77937 1.341951 1.06066 1.06066 
C 1.341951 0.77937 1.5 0.397805 1.5 0 
C 1.5 -0.397805 1.341951 -0.77937 1.06066 -1.06066 
C 0.77937 -1.341951 0.397805 -1.5 0 -1.5 
C -0.397805 -1.5 -0.77937 -1.341951 -1.06066 -1.06066 
C -1.341951 -0.77937 -1.5 -0.397805 -1.5 0 
C -1.5 0.397805 -1.341951 0.77937 -1.06066 1.06066 
C -0.77937 1.341951 -0.397805 1.5 0 1.5 
z
" id="mfd3097b910" style="stroke:#0000ff;"/>
    </defs>
    <g>
     <use style="fill:#0000ff;stroke:#0000ff;" x="248.385735" xlink:href="#mfd3097b910" y="252.332005"/>
     <use style="fill:#0000ff;stroke:#0000ff;" x="248.385735" xlink:href="#mfd3097b910" y="252.332005"/>
    </g>
   </g>
   <g id="line2d_34">
    <path d="M 29.207815 294.16 
L 29.207815 292.0686 
L 41.10835 292.0686 
L 41.10835 291.0229 
L 48.069716 291.0229 
L 48.069716 289.977201 
L 53.008884 289.977201 
L 53.008884 289.454351 
L 66.931616 289.454351 
L 66.931616 288.931501 
L 70.3769 288.931501 
L 70.3769 285.794401 
L 75.7019 285.794401 
L 75.7019 284.748701 
L 76.809952 284.748701 
L 76.809952 280.043052 
L 82.277434 280.043052 
L 82.277434 279.520202 
L 83.771318 279.520202 
L 83.771318 278.997352 
L 84.472185 278.997352 
L 84.472185 277.951652 
L 102.149557 277.951652 
L 102.149557 277.428802 
L 103.334085 277.428802 
L 103.334085 275.337402 
L 104.442137 275.337402 
L 104.442137 272.723153 
L 106.464335 272.723153 
L 106.464335 271.154603 
L 107.392607 271.154603 
L 107.392607 270.108903 
L 107.926396 270.108903 
L 107.926396 269.586053 
L 125.765681 269.586053 
L 125.765681 268.540353 
L 127.305989 268.540353 
L 127.305989 267.494653 
L 141.877379 267.494653 
L 141.877379 266.971804 
L 181.015169 266.971804 
L 181.015169 266.448954 
L 188.05164 266.448954 
L 188.05164 264.880404 
L 188.081261 264.880404 
L 188.081261 264.357554 
L 188.128877 264.357554 
L 188.128877 263.834704 
L 188.463367 263.834704 
L 188.463367 261.743304 
L 188.585144 261.743304 
L 188.585144 260.697604 
L 189.142801 260.697604 
L 189.142801 260.174754 
L 190.801914 260.174754 
L 190.801914 259.651904 
L 196.768146 259.651904 
L 196.768146 259.129055 
L 199.971105 259.129055 
L 199.971105 258.606205 
L 199.986727 258.606205 
L 199.986727 258.083355 
L 200.201529 258.083355 
L 200.201529 257.560505 
L 204.842892 257.560505 
L 204.842892 257.037655 
L 206.887167 257.037655 
L 206.887167 256.514805 
L 207.025721 256.514805 
L 207.025721 255.991955 
L 215.667676 255.991955 
L 215.667676 255.469105 
L 218.781102 255.469105 
L 218.781102 254.946255 
L 230.678335 254.946255 
L 230.678335 254.423405 
L 231.601437 254.423405 
L 231.601437 253.900555 
L 236.313648 253.900555 
L 236.313648 253.377705 
L 237.314138 253.377705 
L 237.314138 252.854855 
L 248.385735 252.854855 
L 248.385735 252.332005 
L 333.569032 252.332005 
" style="fill:none;stroke:#0000ff;stroke-linecap:square;stroke-width:1.5;"/>
   </g>
   <g id="line2d_35">
    <defs>
     <path d="M 0 -6 
L -1.347084 -1.854102 
L -5.706339 -1.854102 
L -2.179628 0.708204 
L -3.526712 4.854102 
L -0 2.291796 
L 3.526712 4.854102 
L 2.179628 0.708204 
L 5.706339 -1.854102 
L 1.347084 -1.854102 
z
" id="mb28c2030f1" style="stroke:#0000ff;stroke-linejoin:bevel;stroke-width:1.5;"/>
    </defs>
    <g>
     <use style="fill-opacity:0;stroke:#0000ff;stroke-linejoin:bevel;stroke-width:1.5;" x="127.305989" xlink:href="#mb28c2030f1" y="268.540353"/>
     <use style="fill-opacity:0;stroke:#0000ff;stroke-linejoin:bevel;stroke-width:1.5;" x="181.015169" xlink:href="#mb28c2030f1" y="266.971804"/>
     <use style="fill-opacity:0;stroke:#0000ff;stroke-linejoin:bevel;stroke-width:1.5;" x="248.385735" xlink:href="#mb28c2030f1" y="252.854855"/>
     <use style="fill-opacity:0;stroke:#0000ff;stroke-linejoin:bevel;stroke-width:1.5;" x="248.385735" xlink:href="#mb28c2030f1" y="252.332005"/>
     <use style="fill-opacity:0;stroke:#0000ff;stroke-linejoin:bevel;stroke-width:1.5;" x="248.385735" xlink:href="#mb28c2030f1" y="252.332005"/>
     <use style="fill-opacity:0;stroke:#0000ff;stroke-linejoin:bevel;stroke-width:1.5;" x="333.569032" xlink:href="#mb28c2030f1" y="252.332005"/>
    </g>
   </g>
   <g id="line2d_36">
    <path style="fill:none;stroke:#0000ff;stroke-linecap:square;stroke-width:1.5;"/>
    <g/>
   </g>
   <g id="line2d_37">
    <path clip-path="url(#p141cd796a1)" d="M 188.012065 266.448954 
" style="fill:none;stroke:#0000ff;stroke-linecap:square;stroke-width:1.5;"/>
    <defs>
     <path d="M -12 12 
L 12 -12 
M -12 -12 
L 12 12 
" id="m6b267c51cc" style="stroke:#0000ff;stroke-width:3;"/>
    </defs>
    <g clip-path="url(#p141cd796a1)">
     <use style="fill:#0000ff;stroke:#0000ff;stroke-width:3;" x="188.012065" xlink:href="#m6b267c51cc" y="266.448954"/>
    </g>
   </g>
   <g id="line2d_38">
    <defs>
     <path d="M 0 1.5 
C 0.397805 1.5 0.77937 1.341951 1.06066 1.06066 
C 1.341951 0.77937 1.5 0.397805 1.5 0 
C 1.5 -0.397805 1.341951 -0.77937 1.06066 -1.06066 
C 0.77937 -1.341951 0.397805 -1.5 0 -1.5 
C -0.397805 -1.5 -0.77937 -1.341951 -1.06066 -1.06066 
C -1.341951 -0.77937 -1.5 -0.397805 -1.5 0 
C -1.5 0.397805 -1.341951 0.77937 -1.06066 1.06066 
C -0.77937 1.341951 -0.397805 1.5 0 1.5 
z
" id="mcefb5f30b0" style="stroke:#000000;"/>
    </defs>
    <g>
     <use style="stroke:#000000;" x="258.880124" xlink:href="#mcefb5f30b0" y="268.017503"/>
     <use style="stroke:#000000;" x="258.880124" xlink:href="#mcefb5f30b0" y="268.017503"/>
    </g>
   </g>
   <g id="line2d_39">
    <path d="M 85.145559 294.16 
L 85.145559 293.1143 
L 87.020384 293.1143 
L 87.020384 291.0229 
L 88.710486 291.0229 
L 88.710486 290.50005 
L 90.9695 290.50005 
L 90.9695 288.931501 
L 92.541603 288.931501 
L 92.541603 288.408651 
L 97.210389 288.408651 
L 97.210389 287.362951 
L 97.373129 287.362951 
L 97.373129 286.840101 
L 97.53434 286.840101 
L 97.53434 285.794401 
L 99.068291 285.794401 
L 99.068291 285.271551 
L 100.065932 285.271551 
L 100.065932 284.748701 
L 102.271756 284.748701 
L 102.271756 283.703001 
L 121.09302 283.703001 
L 121.09302 282.657301 
L 130.897457 282.657301 
L 130.897457 282.134452 
L 181.581414 282.134452 
L 181.581414 281.611602 
L 188.064811 281.611602 
L 188.064811 281.088752 
L 188.098517 281.088752 
L 188.098517 280.043052 
L 188.114114 280.043052 
L 188.114114 279.520202 
L 188.617844 279.520202 
L 188.617844 278.474502 
L 199.95588 278.474502 
L 199.95588 277.951652 
L 200.21816 277.951652 
L 200.21816 277.428802 
L 215.767128 277.428802 
L 215.767128 276.383102 
L 218.876959 276.383102 
L 218.876959 275.860252 
L 223.757154 275.860252 
L 223.757154 274.814553 
L 229.212787 274.814553 
L 229.212787 274.291703 
L 233.346485 274.291703 
L 233.346485 273.246003 
L 233.365608 273.246003 
L 233.365608 272.723153 
L 235.652696 272.723153 
L 235.652696 272.200303 
L 239.462726 272.200303 
L 239.462726 271.677453 
L 240.299568 271.677453 
L 240.299568 271.154603 
L 241.871656 271.154603 
L 241.871656 270.631753 
L 242.590076 270.631753 
L 242.590076 270.108903 
L 244.620588 270.108903 
L 244.620588 269.586053 
L 249.554053 269.586053 
L 249.554053 269.063203 
L 255.189296 269.063203 
L 255.189296 268.540353 
L 258.880124 268.540353 
L 258.880124 268.017503 
L 333.569032 268.017503 
" style="fill:none;stroke:#000000;stroke-linecap:square;stroke-width:1.5;"/>
   </g>
   <g id="line2d_40">
    <defs>
     <path d="M 0 6 
C 1.591219 6 3.117479 5.367802 4.242641 4.242641 
C 5.367802 3.117479 6 1.591219 6 0 
C 6 -1.591219 5.367802 -3.117479 4.242641 -4.242641 
C 3.117479 -5.367802 1.591219 -6 0 -6 
C -1.591219 -6 -3.117479 -5.367802 -4.242641 -4.242641 
C -5.367802 -3.117479 -6 -1.591219 -6 0 
C -6 1.591219 -5.367802 3.117479 -4.242641 4.242641 
C -3.117479 5.367802 -1.591219 6 0 6 
z
" id="md4dd128421" style="stroke:#000000;stroke-width:1.5;"/>
    </defs>
    <g>
     <use style="fill-opacity:0;stroke:#000000;stroke-width:1.5;" x="130.897457" xlink:href="#md4dd128421" y="282.134452"/>
     <use style="fill-opacity:0;stroke:#000000;stroke-width:1.5;" x="249.554053" xlink:href="#md4dd128421" y="269.586053"/>
     <use style="fill-opacity:0;stroke:#000000;stroke-width:1.5;" x="258.880124" xlink:href="#md4dd128421" y="268.017503"/>
     <use style="fill-opacity:0;stroke:#000000;stroke-width:1.5;" x="258.880124" xlink:href="#md4dd128421" y="268.017503"/>
     <use style="fill-opacity:0;stroke:#000000;stroke-width:1.5;" x="333.569032" xlink:href="#md4dd128421" y="268.017503"/>
    </g>
   </g>
   <g id="line2d_41">
    <path style="fill:none;stroke:#000000;stroke-linecap:square;stroke-width:1.5;"/>
    <g/>
   </g>
   <g id="line2d_42">
    <path clip-path="url(#p141cd796a1)" d="M 188.012065 281.611602 
" style="fill:none;stroke:#000000;stroke-linecap:square;stroke-width:1.5;"/>
    <defs>
     <path d="M -12 12 
L 12 -12 
M -12 -12 
L 12 12 
" id="md9dcb7c81a" style="stroke:#000000;stroke-width:3;"/>
    </defs>
    <g clip-path="url(#p141cd796a1)">
     <use style="stroke:#000000;stroke-width:3;" x="188.012065" xlink:href="#md9dcb7c81a" y="281.611602"/>
    </g>
   </g>
   <g id="line2d_43">
    <path clip-path="url(#p141cd796a1)" d="M 56.84 294.16 
L 56.84 294.16 
L 56.84 294.16 
L 56.84 294.16 
L 399.984 294.16 
" style="fill:none;stroke:#ff0000;stroke-linecap:square;stroke-width:1.5;"/>
   </g>
   <g id="line2d_44">
    <defs>
     <path d="M -6 6 
L 6 6 
L 6 -6 
L -6 -6 
z
" id="mcc0114e557" style="stroke:#ff0000;stroke-linejoin:miter;stroke-width:1.5;"/>
    </defs>
    <g clip-path="url(#p141cd796a1)">
     <use style="fill-opacity:0;stroke:#ff0000;stroke-linejoin:miter;stroke-width:1.5;" x="56.84" xlink:href="#mcc0114e557" y="294.16"/>
    </g>
   </g>
   <g id="line2d_45">
    <path clip-path="url(#p141cd796a1)" style="fill:none;stroke:#ff0000;stroke-linecap:square;stroke-width:1.5;"/>
    <g clip-path="url(#p141cd796a1)">
     <use style="fill-opacity:0;stroke:#ff0000;stroke-linejoin:miter;stroke-width:1.5;" x="-1" xlink:href="#mcc0114e557" y="560.813465"/>
     <use style="fill-opacity:0;stroke:#ff0000;stroke-linejoin:miter;stroke-width:1.5;" x="399.984" xlink:href="#mcc0114e557" y="560.813465"/>
    </g>
   </g>
   <g id="line2d_46">
    <path d="M 333.569032 294.16 
L 364.009226 288.826931 
" style="fill:none;stroke:#ff0000;stroke-linecap:square;stroke-width:1.5;"/>
    <g>
     <use style="fill-opacity:0;stroke:#ff0000;stroke-linejoin:miter;stroke-width:1.5;" x="333.569032" xlink:href="#mcc0114e557" y="294.16"/>
     <use style="fill-opacity:0;stroke:#ff0000;stroke-linejoin:miter;stroke-width:1.5;" x="364.009226" xlink:href="#mcc0114e557" y="288.826931"/>
    </g>
   </g>
   <g id="line2d_47">
    <path d="M 333.569032 268.017503 
L 364.009226 224.830099 
" style="fill:none;stroke:#000000;stroke-linecap:square;stroke-width:1.5;"/>
    <g>
     <use style="fill-opacity:0;stroke:#000000;stroke-width:1.5;" x="333.569032" xlink:href="#md4dd128421" y="268.017503"/>
     <use style="fill-opacity:0;stroke:#000000;stroke-width:1.5;" x="364.009226" xlink:href="#md4dd128421" y="224.830099"/>
    </g>
   </g>
   <g id="line2d_48">
    <path d="M 333.569032 252.332005 
L 364.009226 160.833267 
" style="fill:none;stroke:#0000ff;stroke-linecap:square;stroke-width:1.5;"/>
    <g>
     <use style="fill-opacity:0;stroke:#0000ff;stroke-linejoin:bevel;stroke-width:1.5;" x="333.569032" xlink:href="#mb28c2030f1" y="252.332005"/>
     <use style="fill-opacity:0;stroke:#0000ff;stroke-linejoin:bevel;stroke-width:1.5;" x="364.009226" xlink:href="#mb28c2030f1" y="160.833267"/>
    </g>
   </g>
   <g id="line2d_49">
    <path d="M 333.569032 194.818513 
L 364.009226 96.836436 
" style="fill:none;stroke:#008000;stroke-linecap:square;stroke-width:1.5;"/>
    <g>
     <use style="fill-opacity:0;stroke:#008000;stroke-linejoin:miter;stroke-width:1.5;" x="333.569032" xlink:href="#m84334b03dd" y="194.818513"/>
     <use style="fill-opacity:0;stroke:#008000;stroke-linejoin:miter;stroke-width:1.5;" x="364.009226" xlink:href="#m84334b03dd" y="96.836436"/>
    </g>
   </g>
   <g id="line2d_50">
    <path d="M 333.569032 27.506535 
L 364.009226 32.839604 
" style="fill:none;stroke:#00bfbf;stroke-linecap:square;stroke-width:1.5;"/>
    <g>
     <use style="fill-opacity:0;stroke:#00bfbf;stroke-width:1.5;" x="333.569032" xlink:href="#mf34369a22a" y="27.506535"/>
     <use style="fill-opacity:0;stroke:#00bfbf;stroke-width:1.5;" x="364.009226" xlink:href="#mf34369a22a" y="32.839604"/>
    </g>
   </g>
   <g id="line2d_51">
    <path d="M 333.569032 294.16 
L 333.569032 27.506535 
" style="fill:none;stroke:#000000;stroke-linecap:square;stroke-width:1.5;"/>
   </g>
   <g id="patch_3">
    <path d="M 56.84 294.16 
L 56.84 24.84 
" style="fill:none;stroke:#000000;stroke-linecap:square;stroke-linejoin:miter;stroke-width:0.8;"/>
   </g>
   <g id="patch_4">
    <path d="M 399.984 294.16 
L 399.984 24.84 
" style="fill:none;stroke:#000000;stroke-linecap:square;stroke-linejoin:miter;stroke-width:0.8;"/>
   </g>
   <g id="patch_5">
    <path d="M 56.84 294.16 
L 399.984 294.16 
" style="fill:none;stroke:#000000;stroke-linecap:square;stroke-linejoin:miter;stroke-width:0.8;"/>
   </g>
   <g id="patch_6">
    <path d="M 56.84 24.84 
L 399.984 24.84 
" style="fill:none;stroke:#000000;stroke-linecap:square;stroke-linejoin:miter;stroke-width:0.8;"/>
   </g>
   <g id="text_14">
    <!-- 20-D -->
    <defs>
     <path d="M 19.671875 64.796875 
L 19.671875 8.109375 
L 31.59375 8.109375 
Q 46.6875 8.109375 53.6875 14.9375 
Q 60.6875 21.78125 60.6875 36.53125 
Q 60.6875 51.171875 53.6875 57.984375 
Q 46.6875 64.796875 31.59375 64.796875 
z
M 9.8125 72.90625 
L 30.078125 72.90625 
Q 51.265625 72.90625 61.171875 64.09375 
Q 71.09375 55.28125 71.09375 36.53125 
Q 71.09375 17.671875 61.125 8.828125 
Q 51.171875 0 30.078125 0 
L 9.8125 0 
z
" id="DejaVuSans-44"/>
    </defs>
    <g transform="translate(369.543806 293.517868)scale(0.17 -0.17)">
     <use xlink:href="#DejaVuSans-32"/>
     <use x="63.623047" xlink:href="#DejaVuSans-30"/>
     <use x="127.246094" xlink:href="#DejaVuSans-2d"/>
     <use x="163.330078" xlink:href="#DejaVuSans-44"/>
    </g>
   </g>
   <g id="text_15">
    <!-- 10-D -->
    <g transform="translate(369.543806 229.521037)scale(0.17 -0.17)">
     <use xlink:href="#DejaVuSans-31"/>
     <use x="63.623047" xlink:href="#DejaVuSans-30"/>
     <use x="127.246094" xlink:href="#DejaVuSans-2d"/>
     <use x="163.330078" xlink:href="#DejaVuSans-44"/>
    </g>
   </g>
   <g id="text_16">
    <!-- 5-D -->
    <defs>
     <path d="M 10.796875 72.90625 
L 49.515625 72.90625 
L 49.515625 64.59375 
L 19.828125 64.59375 
L 19.828125 46.734375 
Q 21.96875 47.46875 24.109375 47.828125 
Q 26.265625 48.1875 28.421875 48.1875 
Q 40.625 48.1875 47.75 41.5 
Q 54.890625 34.8125 54.890625 23.390625 
Q 54.890625 11.625 47.5625 5.09375 
Q 40.234375 -1.421875 26.90625 -1.421875 
Q 22.3125 -1.421875 17.546875 -0.640625 
Q 12.796875 0.140625 7.71875 1.703125 
L 7.71875 11.625 
Q 12.109375 9.234375 16.796875 8.0625 
Q 21.484375 6.890625 26.703125 6.890625 
Q 35.15625 6.890625 40.078125 11.328125 
Q 45.015625 15.765625 45.015625 23.390625 
Q 45.015625 31 40.078125 35.4375 
Q 35.15625 39.890625 26.703125 39.890625 
Q 22.75 39.890625 18.8125 39.015625 
Q 14.890625 38.140625 10.796875 36.28125 
z
" id="DejaVuSans-35"/>
    </defs>
    <g transform="translate(369.543806 165.524205)scale(0.17 -0.17)">
     <use xlink:href="#DejaVuSans-35"/>
     <use x="63.623047" xlink:href="#DejaVuSans-2d"/>
     <use x="99.707031" xlink:href="#DejaVuSans-44"/>
    </g>
   </g>
   <g id="text_17">
    <!-- 3-D -->
    <defs>
     <path d="M 40.578125 39.3125 
Q 47.65625 37.796875 51.625 33 
Q 55.609375 28.21875 55.609375 21.1875 
Q 55.609375 10.40625 48.1875 4.484375 
Q 40.765625 -1.421875 27.09375 -1.421875 
Q 22.515625 -1.421875 17.65625 -0.515625 
Q 12.796875 0.390625 7.625 2.203125 
L 7.625 11.71875 
Q 11.71875 9.328125 16.59375 8.109375 
Q 21.484375 6.890625 26.8125 6.890625 
Q 36.078125 6.890625 40.9375 10.546875 
Q 45.796875 14.203125 45.796875 21.1875 
Q 45.796875 27.640625 41.28125 31.265625 
Q 36.765625 34.90625 28.71875 34.90625 
L 20.21875 34.90625 
L 20.21875 43.015625 
L 29.109375 43.015625 
Q 36.375 43.015625 40.234375 45.921875 
Q 44.09375 48.828125 44.09375 54.296875 
Q 44.09375 59.90625 40.109375 62.90625 
Q 36.140625 65.921875 28.71875 65.921875 
Q 24.65625 65.921875 20.015625 65.03125 
Q 15.375 64.15625 9.8125 62.3125 
L 9.8125 71.09375 
Q 15.4375 72.65625 20.34375 73.4375 
Q 25.25 74.21875 29.59375 74.21875 
Q 40.828125 74.21875 47.359375 69.109375 
Q 53.90625 64.015625 53.90625 55.328125 
Q 53.90625 49.265625 50.4375 45.09375 
Q 46.96875 40.921875 40.578125 39.3125 
z
" id="DejaVuSans-33"/>
    </defs>
    <g transform="translate(369.543806 101.527373)scale(0.17 -0.17)">
     <use xlink:href="#DejaVuSans-33"/>
     <use x="63.623047" xlink:href="#DejaVuSans-2d"/>
     <use x="99.707031" xlink:href="#DejaVuSans-44"/>
    </g>
   </g>
   <g id="text_18">
    <!-- 2-D -->
    <g transform="translate(369.543806 37.530541)scale(0.17 -0.17)">
     <use xlink:href="#DejaVuSans-32"/>
     <use x="63.623047" xlink:href="#DejaVuSans-2d"/>
     <use x="99.707031" xlink:href="#DejaVuSans-44"/>
    </g>
   </g>
   <g id="text_19">
    <!-- bbob f7 -->
    <defs>
     <path d="M 48.6875 27.296875 
Q 48.6875 37.203125 44.609375 42.84375 
Q 40.53125 48.484375 33.40625 48.484375 
Q 26.265625 48.484375 22.1875 42.84375 
Q 18.109375 37.203125 18.109375 27.296875 
Q 18.109375 17.390625 22.1875 11.75 
Q 26.265625 6.109375 33.40625 6.109375 
Q 40.53125 6.109375 44.609375 11.75 
Q 48.6875 17.390625 48.6875 27.296875 
z
M 18.109375 46.390625 
Q 20.953125 51.265625 25.265625 53.625 
Q 29.59375 56 35.59375 56 
Q 45.5625 56 51.78125 48.09375 
Q 58.015625 40.1875 58.015625 27.296875 
Q 58.015625 14.40625 51.78125 6.484375 
Q 45.5625 -1.421875 35.59375 -1.421875 
Q 29.59375 -1.421875 25.265625 0.953125 
Q 20.953125 3.328125 18.109375 8.203125 
L 18.109375 0 
L 9.078125 0 
L 9.078125 75.984375 
L 18.109375 75.984375 
z
" id="DejaVuSans-62"/>
     <path d="M 8.203125 72.90625 
L 55.078125 72.90625 
L 55.078125 68.703125 
L 28.609375 0 
L 18.3125 0 
L 43.21875 64.59375 
L 8.203125 64.59375 
z
" id="DejaVuSans-37"/>
    </defs>
    <g transform="translate(60.27144 35.283606)scale(0.102 -0.102)">
     <use xlink:href="#DejaVuSans-62"/>
     <use x="63.476562" xlink:href="#DejaVuSans-62"/>
     <use x="126.953125" xlink:href="#DejaVuSans-6f"/>
     <use x="188.134766" xlink:href="#DejaVuSans-62"/>
     <use x="251.611328" xlink:href="#DejaVuSans-20"/>
     <use x="283.398438" xlink:href="#DejaVuSans-66"/>
     <use x="318.603516" xlink:href="#DejaVuSans-37"/>
    </g>
    <!-- 51 targets: 100..1e-08 -->
    <defs>
     <path d="M 11.71875 12.40625 
L 22.015625 12.40625 
L 22.015625 0 
L 11.71875 0 
z
M 11.71875 51.703125 
L 22.015625 51.703125 
L 22.015625 39.3125 
L 11.71875 39.3125 
z
" id="DejaVuSans-3a"/>
    </defs>
    <g transform="translate(60.27144 46.705375)scale(0.102 -0.102)">
     <use xlink:href="#DejaVuSans-35"/>
     <use x="63.623047" xlink:href="#DejaVuSans-31"/>
     <use x="127.246094" xlink:href="#DejaVuSans-20"/>
     <use x="159.033203" xlink:href="#DejaVuSans-74"/>
     <use x="198.242188" xlink:href="#DejaVuSans-61"/>
     <use x="259.521484" xlink:href="#DejaVuSans-72"/>
     <use x="300.619141" xlink:href="#DejaVuSans-67"/>
     <use x="364.095703" xlink:href="#DejaVuSans-65"/>
     <use x="425.619141" xlink:href="#DejaVuSans-74"/>
     <use x="464.828125" xlink:href="#DejaVuSans-73"/>
     <use x="516.927734" xlink:href="#DejaVuSans-3a"/>
     <use x="550.619141" xlink:href="#DejaVuSans-20"/>
     <use x="582.40625" xlink:href="#DejaVuSans-31"/>
     <use x="646.029297" xlink:href="#DejaVuSans-30"/>
     <use x="709.652344" xlink:href="#DejaVuSans-30"/>
     <use x="773.275391" xlink:href="#DejaVuSans-2e"/>
     <use x="805.0625" xlink:href="#DejaVuSans-2e"/>
     <use x="836.849609" xlink:href="#DejaVuSans-31"/>
     <use x="900.472656" xlink:href="#DejaVuSans-65"/>
     <use x="961.996094" xlink:href="#DejaVuSans-2d"/>
     <use x="998.080078" xlink:href="#DejaVuSans-30"/>
     <use x="1061.703125" xlink:href="#DejaVuSans-38"/>
    </g>
    <!-- 15 instances -->
    <g transform="translate(60.27144 58.127144)scale(0.102 -0.102)">
     <use xlink:href="#DejaVuSans-31"/>
     <use x="63.623047" xlink:href="#DejaVuSans-35"/>
     <use x="127.246094" xlink:href="#DejaVuSans-20"/>
     <use x="159.033203" xlink:href="#DejaVuSans-69"/>
     <use x="186.816406" xlink:href="#DejaVuSans-6e"/>
     <use x="250.195312" xlink:href="#DejaVuSans-73"/>
     <use x="302.294922" xlink:href="#DejaVuSans-74"/>
     <use x="341.503906" xlink:href="#DejaVuSans-61"/>
     <use x="402.783203" xlink:href="#DejaVuSans-6e"/>
     <use x="466.162109" xlink:href="#DejaVuSans-63"/>
     <use x="521.142578" xlink:href="#DejaVuSans-65"/>
     <use x="582.666016" xlink:href="#DejaVuSans-73"/>
    </g>
   </g>
   <g id="text_20">
    <!-- v2.2.1.10 -->
    <g style="fill:#808080;" transform="translate(204.779188 289.387113)scale(0.1 -0.1)">
     <use xlink:href="#DejaVuSans-76"/>
     <use x="59.179688" xlink:href="#DejaVuSans-32"/>
     <use x="122.802734" xlink:href="#DejaVuSans-2e"/>
     <use x="154.589844" xlink:href="#DejaVuSans-32"/>
     <use x="218.212891" xlink:href="#DejaVuSans-2e"/>
     <use x="250" xlink:href="#DejaVuSans-31"/>
     <use x="313.623047" xlink:href="#DejaVuSans-2e"/>
     <use x="345.410156" xlink:href="#DejaVuSans-31"/>
     <use x="409.033203" xlink:href="#DejaVuSans-30"/>
    </g>
   </g>
   <g id="text_21">
    <!-- 7 Step-ellipsoid -->
    <defs>
     <path d="M 53.515625 70.515625 
L 53.515625 60.890625 
Q 47.90625 63.578125 42.921875 64.890625 
Q 37.9375 66.21875 33.296875 66.21875 
Q 25.25 66.21875 20.875 63.09375 
Q 16.5 59.96875 16.5 54.203125 
Q 16.5 49.359375 19.40625 46.890625 
Q 22.3125 44.4375 30.421875 42.921875 
L 36.375 41.703125 
Q 47.40625 39.59375 52.65625 34.296875 
Q 57.90625 29 57.90625 20.125 
Q 57.90625 9.515625 50.796875 4.046875 
Q 43.703125 -1.421875 29.984375 -1.421875 
Q 24.8125 -1.421875 18.96875 -0.25 
Q 13.140625 0.921875 6.890625 3.21875 
L 6.890625 13.375 
Q 12.890625 10.015625 18.65625 8.296875 
Q 24.421875 6.59375 29.984375 6.59375 
Q 38.421875 6.59375 43.015625 9.90625 
Q 47.609375 13.234375 47.609375 19.390625 
Q 47.609375 24.75 44.3125 27.78125 
Q 41.015625 30.8125 33.5 32.328125 
L 27.484375 33.5 
Q 16.453125 35.6875 11.515625 40.375 
Q 6.59375 45.0625 6.59375 53.421875 
Q 6.59375 63.09375 13.40625 68.65625 
Q 20.21875 74.21875 32.171875 74.21875 
Q 37.3125 74.21875 42.625 73.28125 
Q 47.953125 72.359375 53.515625 70.515625 
z
" id="DejaVuSans-53"/>
    </defs>
    <g transform="translate(151.202625 18.84)scale(0.2 -0.2)">
     <use xlink:href="#DejaVuSans-37"/>
     <use x="63.623047" xlink:href="#DejaVuSans-20"/>
     <use x="95.410156" xlink:href="#DejaVuSans-53"/>
     <use x="158.886719" xlink:href="#DejaVuSans-74"/>
     <use x="198.095703" xlink:href="#DejaVuSans-65"/>
     <use x="259.619141" xlink:href="#DejaVuSans-70"/>
     <use x="323.095703" xlink:href="#DejaVuSans-2d"/>
     <use x="359.179688" xlink:href="#DejaVuSans-65"/>
     <use x="420.703125" xlink:href="#DejaVuSans-6c"/>
     <use x="448.486328" xlink:href="#DejaVuSans-6c"/>
     <use x="476.269531" xlink:href="#DejaVuSans-69"/>
     <use x="504.052734" xlink:href="#DejaVuSans-70"/>
     <use x="567.529297" xlink:href="#DejaVuSans-73"/>
     <use x="619.628906" xlink:href="#DejaVuSans-6f"/>
     <use x="680.810547" xlink:href="#DejaVuSans-69"/>
     <use x="708.59375" xlink:href="#DejaVuSans-64"/>
    </g>
   </g>
  </g>
 </g>
 <defs>
  <clipPath id="p141cd796a1">
   <rect height="269.32" width="343.144" x="56.84" y="24.84"/>
  </clipPath>
 </defs>
</svg>
