<?xml version="1.0" encoding="utf-8" standalone="no"?>
<!DOCTYPE svg PUBLIC "-//W3C//DTD SVG 1.1//EN"
  "http://www.w3.org/Graphics/SVG/1.1/DTD/svg11.dtd">
<!-- Created with matplotlib (http://matplotlib.org/) -->
<svg height="345.6pt" version="1.1" viewBox="0 0 460.8 345.6" width="460.8pt" xmlns="http://www.w3.org/2000/svg" xmlns:xlink="http://www.w3.org/1999/xlink">
 <defs>
  <style type="text/css">
*{stroke-linecap:butt;stroke-linejoin:round;}
  </style>
 </defs>
 <g id="figure_1">
  <g id="patch_1">
   <path d="M 0 345.6 
L 460.8 345.6 
L 460.8 0 
L 0 0 
z
" style="fill:#ffffff;"/>
  </g>
  <g id="axes_1">
   <g id="patch_2">
    <path d="M 56.84 294.16 
L 399.984 294.16 
L 399.984 24.84 
L 56.84 24.84 
z
" style="fill:#ffffff;"/>
   </g>
   <g id="matplotlib.axis_1">
    <g id="xtick_1">
     <g id="line2d_1">
      <path clip-path="url(#p99226d7ad0)" d="M 56.84 294.16 
L 56.84 24.84 
" style="fill:none;stroke:#b0b0b0;stroke-linecap:square;stroke-width:0.8;"/>
     </g>
     <g id="line2d_2">
      <defs>
       <path d="M 0 0 
L 0 3.5 
" id="m7246d36431" style="stroke:#000000;stroke-width:0.8;"/>
      </defs>
      <g>
       <use style="stroke:#000000;stroke-width:0.8;" x="56.84" xlink:href="#m7246d36431" y="294.16"/>
      </g>
     </g>
     <g id="text_1">
      <!-- 0 -->
      <defs>
       <path d="M 31.78125 66.40625 
Q 24.171875 66.40625 20.328125 58.90625 
Q 16.5 51.421875 16.5 36.375 
Q 16.5 21.390625 20.328125 13.890625 
Q 24.171875 6.390625 31.78125 6.390625 
Q 39.453125 6.390625 43.28125 13.890625 
Q 47.125 21.390625 47.125 36.375 
Q 47.125 51.421875 43.28125 58.90625 
Q 39.453125 66.40625 31.78125 66.40625 
z
M 31.78125 74.21875 
Q 44.046875 74.21875 50.515625 64.515625 
Q 56.984375 54.828125 56.984375 36.375 
Q 56.984375 17.96875 50.515625 8.265625 
Q 44.046875 -1.421875 31.78125 -1.421875 
Q 19.53125 -1.421875 13.0625 8.265625 
Q 6.59375 17.96875 6.59375 36.375 
Q 6.59375 54.828125 13.0625 64.515625 
Q 19.53125 74.21875 31.78125 74.21875 
z
" id="DejaVuSans-30"/>
      </defs>
      <g transform="translate(50.4775 316.356875)scale(0.2 -0.2)">
       <use xlink:href="#DejaVuSans-30"/>
      </g>
     </g>
    </g>
    <g id="xtick_2">
     <g id="line2d_3">
      <path clip-path="url(#p99226d7ad0)" d="M 135.905438 294.16 
L 135.905438 24.84 
" style="fill:none;stroke:#b0b0b0;stroke-linecap:square;stroke-width:0.8;"/>
     </g>
     <g id="line2d_4">
      <g>
       <use style="stroke:#000000;stroke-width:0.8;" x="135.905438" xlink:href="#m7246d36431" y="294.16"/>
      </g>
     </g>
     <g id="text_2">
      <!-- 2 -->
      <defs>
       <path d="M 19.1875 8.296875 
L 53.609375 8.296875 
L 53.609375 0 
L 7.328125 0 
L 7.328125 8.296875 
Q 12.9375 14.109375 22.625 23.890625 
Q 32.328125 33.6875 34.8125 36.53125 
Q 39.546875 41.84375 41.421875 45.53125 
Q 43.3125 49.21875 43.3125 52.78125 
Q 43.3125 58.59375 39.234375 62.25 
Q 35.15625 65.921875 28.609375 65.921875 
Q 23.96875 65.921875 18.8125 64.3125 
Q 13.671875 62.703125 7.8125 59.421875 
L 7.8125 69.390625 
Q 13.765625 71.78125 18.9375 73 
Q 24.125 74.21875 28.421875 74.21875 
Q 39.75 74.21875 46.484375 68.546875 
Q 53.21875 62.890625 53.21875 53.421875 
Q 53.21875 48.921875 51.53125 44.890625 
Q 49.859375 40.875 45.40625 35.40625 
Q 44.1875 33.984375 37.640625 27.21875 
Q 31.109375 20.453125 19.1875 8.296875 
z
" id="DejaVuSans-32"/>
      </defs>
      <g transform="translate(129.542938 316.356875)scale(0.2 -0.2)">
       <use xlink:href="#DejaVuSans-32"/>
      </g>
     </g>
    </g>
    <g id="xtick_3">
     <g id="line2d_5">
      <path clip-path="url(#p99226d7ad0)" d="M 214.970876 294.16 
L 214.970876 24.84 
" style="fill:none;stroke:#b0b0b0;stroke-linecap:square;stroke-width:0.8;"/>
     </g>
     <g id="line2d_6">
      <g>
       <use style="stroke:#000000;stroke-width:0.8;" x="214.970876" xlink:href="#m7246d36431" y="294.16"/>
      </g>
     </g>
     <g id="text_3">
      <!-- 4 -->
      <defs>
       <path d="M 37.796875 64.3125 
L 12.890625 25.390625 
L 37.796875 25.390625 
z
M 35.203125 72.90625 
L 47.609375 72.90625 
L 47.609375 25.390625 
L 58.015625 25.390625 
L 58.015625 17.1875 
L 47.609375 17.1875 
L 47.609375 0 
L 37.796875 0 
L 37.796875 17.1875 
L 4.890625 17.1875 
L 4.890625 26.703125 
z
" id="DejaVuSans-34"/>
      </defs>
      <g transform="translate(208.608376 316.356875)scale(0.2 -0.2)">
       <use xlink:href="#DejaVuSans-34"/>
      </g>
     </g>
    </g>
    <g id="xtick_4">
     <g id="line2d_7">
      <path clip-path="url(#p99226d7ad0)" d="M 294.036313 294.16 
L 294.036313 24.84 
" style="fill:none;stroke:#b0b0b0;stroke-linecap:square;stroke-width:0.8;"/>
     </g>
     <g id="line2d_8">
      <g>
       <use style="stroke:#000000;stroke-width:0.8;" x="294.036313" xlink:href="#m7246d36431" y="294.16"/>
      </g>
     </g>
     <g id="text_4">
      <!-- 6 -->
      <defs>
       <path d="M 33.015625 40.375 
Q 26.375 40.375 22.484375 35.828125 
Q 18.609375 31.296875 18.609375 23.390625 
Q 18.609375 15.53125 22.484375 10.953125 
Q 26.375 6.390625 33.015625 6.390625 
Q 39.65625 6.390625 43.53125 10.953125 
Q 47.40625 15.53125 47.40625 23.390625 
Q 47.40625 31.296875 43.53125 35.828125 
Q 39.65625 40.375 33.015625 40.375 
z
M 52.59375 71.296875 
L 52.59375 62.3125 
Q 48.875 64.0625 45.09375 64.984375 
Q 41.3125 65.921875 37.59375 65.921875 
Q 27.828125 65.921875 22.671875 59.328125 
Q 17.53125 52.734375 16.796875 39.40625 
Q 19.671875 43.65625 24.015625 45.921875 
Q 28.375 48.1875 33.59375 48.1875 
Q 44.578125 48.1875 50.953125 41.515625 
Q 57.328125 34.859375 57.328125 23.390625 
Q 57.328125 12.15625 50.6875 5.359375 
Q 44.046875 -1.421875 33.015625 -1.421875 
Q 20.359375 -1.421875 13.671875 8.265625 
Q 6.984375 17.96875 6.984375 36.375 
Q 6.984375 53.65625 15.1875 63.9375 
Q 23.390625 74.21875 37.203125 74.21875 
Q 40.921875 74.21875 44.703125 73.484375 
Q 48.484375 72.75 52.59375 71.296875 
z
" id="DejaVuSans-36"/>
      </defs>
      <g transform="translate(287.673813 316.356875)scale(0.2 -0.2)">
       <use xlink:href="#DejaVuSans-36"/>
      </g>
     </g>
    </g>
    <g id="xtick_5">
     <g id="line2d_9">
      <path clip-path="url(#p99226d7ad0)" d="M 373.101751 294.16 
L 373.101751 24.84 
" style="fill:none;stroke:#b0b0b0;stroke-linecap:square;stroke-width:0.8;"/>
     </g>
     <g id="line2d_10">
      <g>
       <use style="stroke:#000000;stroke-width:0.8;" x="373.101751" xlink:href="#m7246d36431" y="294.16"/>
      </g>
     </g>
     <g id="text_5">
      <!-- 8 -->
      <defs>
       <path d="M 31.78125 34.625 
Q 24.75 34.625 20.71875 30.859375 
Q 16.703125 27.09375 16.703125 20.515625 
Q 16.703125 13.921875 20.71875 10.15625 
Q 24.75 6.390625 31.78125 6.390625 
Q 38.8125 6.390625 42.859375 10.171875 
Q 46.921875 13.96875 46.921875 20.515625 
Q 46.921875 27.09375 42.890625 30.859375 
Q 38.875 34.625 31.78125 34.625 
z
M 21.921875 38.8125 
Q 15.578125 40.375 12.03125 44.71875 
Q 8.5 49.078125 8.5 55.328125 
Q 8.5 64.0625 14.71875 69.140625 
Q 20.953125 74.21875 31.78125 74.21875 
Q 42.671875 74.21875 48.875 69.140625 
Q 55.078125 64.0625 55.078125 55.328125 
Q 55.078125 49.078125 51.53125 44.71875 
Q 48 40.375 41.703125 38.8125 
Q 48.828125 37.15625 52.796875 32.3125 
Q 56.78125 27.484375 56.78125 20.515625 
Q 56.78125 9.90625 50.3125 4.234375 
Q 43.84375 -1.421875 31.78125 -1.421875 
Q 19.734375 -1.421875 13.25 4.234375 
Q 6.78125 9.90625 6.78125 20.515625 
Q 6.78125 27.484375 10.78125 32.3125 
Q 14.796875 37.15625 21.921875 38.8125 
z
M 18.3125 54.390625 
Q 18.3125 48.734375 21.84375 45.5625 
Q 25.390625 42.390625 31.78125 42.390625 
Q 38.140625 42.390625 41.71875 45.5625 
Q 45.3125 48.734375 45.3125 54.390625 
Q 45.3125 60.0625 41.71875 63.234375 
Q 38.140625 66.40625 31.78125 66.40625 
Q 25.390625 66.40625 21.84375 63.234375 
Q 18.3125 60.0625 18.3125 54.390625 
z
" id="DejaVuSans-38"/>
      </defs>
      <g transform="translate(366.739251 316.356875)scale(0.2 -0.2)">
       <use xlink:href="#DejaVuSans-38"/>
      </g>
     </g>
    </g>
    <g id="text_6">
     <!-- log10(# f-evals / dimension) -->
     <defs>
      <path d="M 9.421875 75.984375 
L 18.40625 75.984375 
L 18.40625 0 
L 9.421875 0 
z
" id="DejaVuSans-6c"/>
      <path d="M 30.609375 48.390625 
Q 23.390625 48.390625 19.1875 42.75 
Q 14.984375 37.109375 14.984375 27.296875 
Q 14.984375 17.484375 19.15625 11.84375 
Q 23.34375 6.203125 30.609375 6.203125 
Q 37.796875 6.203125 41.984375 11.859375 
Q 46.1875 17.53125 46.1875 27.296875 
Q 46.1875 37.015625 41.984375 42.703125 
Q 37.796875 48.390625 30.609375 48.390625 
z
M 30.609375 56 
Q 42.328125 56 49.015625 48.375 
Q 55.71875 40.765625 55.71875 27.296875 
Q 55.71875 13.875 49.015625 6.21875 
Q 42.328125 -1.421875 30.609375 -1.421875 
Q 18.84375 -1.421875 12.171875 6.21875 
Q 5.515625 13.875 5.515625 27.296875 
Q 5.515625 40.765625 12.171875 48.375 
Q 18.84375 56 30.609375 56 
z
" id="DejaVuSans-6f"/>
      <path d="M 45.40625 27.984375 
Q 45.40625 37.75 41.375 43.109375 
Q 37.359375 48.484375 30.078125 48.484375 
Q 22.859375 48.484375 18.828125 43.109375 
Q 14.796875 37.75 14.796875 27.984375 
Q 14.796875 18.265625 18.828125 12.890625 
Q 22.859375 7.515625 30.078125 7.515625 
Q 37.359375 7.515625 41.375 12.890625 
Q 45.40625 18.265625 45.40625 27.984375 
z
M 54.390625 6.78125 
Q 54.390625 -7.171875 48.1875 -13.984375 
Q 42 -20.796875 29.203125 -20.796875 
Q 24.46875 -20.796875 20.265625 -20.09375 
Q 16.0625 -19.390625 12.109375 -17.921875 
L 12.109375 -9.1875 
Q 16.0625 -11.328125 19.921875 -12.34375 
Q 23.78125 -13.375 27.78125 -13.375 
Q 36.625 -13.375 41.015625 -8.765625 
Q 45.40625 -4.15625 45.40625 5.171875 
L 45.40625 9.625 
Q 42.625 4.78125 38.28125 2.390625 
Q 33.9375 0 27.875 0 
Q 17.828125 0 11.671875 7.65625 
Q 5.515625 15.328125 5.515625 27.984375 
Q 5.515625 40.671875 11.671875 48.328125 
Q 17.828125 56 27.875 56 
Q 33.9375 56 38.28125 53.609375 
Q 42.625 51.21875 45.40625 46.390625 
L 45.40625 54.6875 
L 54.390625 54.6875 
z
" id="DejaVuSans-67"/>
      <path d="M 12.40625 8.296875 
L 28.515625 8.296875 
L 28.515625 63.921875 
L 10.984375 60.40625 
L 10.984375 69.390625 
L 28.421875 72.90625 
L 38.28125 72.90625 
L 38.28125 8.296875 
L 54.390625 8.296875 
L 54.390625 0 
L 12.40625 0 
z
" id="DejaVuSans-31"/>
      <path d="M 31 75.875 
Q 24.46875 64.65625 21.28125 53.65625 
Q 18.109375 42.671875 18.109375 31.390625 
Q 18.109375 20.125 21.3125 9.0625 
Q 24.515625 -2 31 -13.1875 
L 23.1875 -13.1875 
Q 15.875 -1.703125 12.234375 9.375 
Q 8.59375 20.453125 8.59375 31.390625 
Q 8.59375 42.28125 12.203125 53.3125 
Q 15.828125 64.359375 23.1875 75.875 
z
" id="DejaVuSans-28"/>
      <path d="M 51.125 44 
L 36.921875 44 
L 32.8125 27.6875 
L 47.125 27.6875 
z
M 43.796875 71.78125 
L 38.71875 51.515625 
L 52.984375 51.515625 
L 58.109375 71.78125 
L 65.921875 71.78125 
L 60.890625 51.515625 
L 76.125 51.515625 
L 76.125 44 
L 58.984375 44 
L 54.984375 27.6875 
L 70.515625 27.6875 
L 70.515625 20.21875 
L 53.078125 20.21875 
L 48 0 
L 40.1875 0 
L 45.21875 20.21875 
L 30.90625 20.21875 
L 25.875 0 
L 18.015625 0 
L 23.09375 20.21875 
L 7.71875 20.21875 
L 7.71875 27.6875 
L 24.90625 27.6875 
L 29 44 
L 13.28125 44 
L 13.28125 51.515625 
L 30.90625 51.515625 
L 35.890625 71.78125 
z
" id="DejaVuSans-23"/>
      <path id="DejaVuSans-20"/>
      <path d="M 37.109375 75.984375 
L 37.109375 68.5 
L 28.515625 68.5 
Q 23.6875 68.5 21.796875 66.546875 
Q 19.921875 64.59375 19.921875 59.515625 
L 19.921875 54.6875 
L 34.71875 54.6875 
L 34.71875 47.703125 
L 19.921875 47.703125 
L 19.921875 0 
L 10.890625 0 
L 10.890625 47.703125 
L 2.296875 47.703125 
L 2.296875 54.6875 
L 10.890625 54.6875 
L 10.890625 58.5 
Q 10.890625 67.625 15.140625 71.796875 
Q 19.390625 75.984375 28.609375 75.984375 
z
" id="DejaVuSans-66"/>
      <path d="M 4.890625 31.390625 
L 31.203125 31.390625 
L 31.203125 23.390625 
L 4.890625 23.390625 
z
" id="DejaVuSans-2d"/>
      <path d="M 56.203125 29.59375 
L 56.203125 25.203125 
L 14.890625 25.203125 
Q 15.484375 15.921875 20.484375 11.0625 
Q 25.484375 6.203125 34.421875 6.203125 
Q 39.59375 6.203125 44.453125 7.46875 
Q 49.3125 8.734375 54.109375 11.28125 
L 54.109375 2.78125 
Q 49.265625 0.734375 44.1875 -0.34375 
Q 39.109375 -1.421875 33.890625 -1.421875 
Q 20.796875 -1.421875 13.15625 6.1875 
Q 5.515625 13.8125 5.515625 26.8125 
Q 5.515625 40.234375 12.765625 48.109375 
Q 20.015625 56 32.328125 56 
Q 43.359375 56 49.78125 48.890625 
Q 56.203125 41.796875 56.203125 29.59375 
z
M 47.21875 32.234375 
Q 47.125 39.59375 43.09375 43.984375 
Q 39.0625 48.390625 32.421875 48.390625 
Q 24.90625 48.390625 20.390625 44.140625 
Q 15.875 39.890625 15.1875 32.171875 
z
" id="DejaVuSans-65"/>
      <path d="M 2.984375 54.6875 
L 12.5 54.6875 
L 29.59375 8.796875 
L 46.6875 54.6875 
L 56.203125 54.6875 
L 35.6875 0 
L 23.484375 0 
z
" id="DejaVuSans-76"/>
      <path d="M 34.28125 27.484375 
Q 23.390625 27.484375 19.1875 25 
Q 14.984375 22.515625 14.984375 16.5 
Q 14.984375 11.71875 18.140625 8.90625 
Q 21.296875 6.109375 26.703125 6.109375 
Q 34.1875 6.109375 38.703125 11.40625 
Q 43.21875 16.703125 43.21875 25.484375 
L 43.21875 27.484375 
z
M 52.203125 31.203125 
L 52.203125 0 
L 43.21875 0 
L 43.21875 8.296875 
Q 40.140625 3.328125 35.546875 0.953125 
Q 30.953125 -1.421875 24.3125 -1.421875 
Q 15.921875 -1.421875 10.953125 3.296875 
Q 6 8.015625 6 15.921875 
Q 6 25.140625 12.171875 29.828125 
Q 18.359375 34.515625 30.609375 34.515625 
L 43.21875 34.515625 
L 43.21875 35.40625 
Q 43.21875 41.609375 39.140625 45 
Q 35.0625 48.390625 27.6875 48.390625 
Q 23 48.390625 18.546875 47.265625 
Q 14.109375 46.140625 10.015625 43.890625 
L 10.015625 52.203125 
Q 14.9375 54.109375 19.578125 55.046875 
Q 24.21875 56 28.609375 56 
Q 40.484375 56 46.34375 49.84375 
Q 52.203125 43.703125 52.203125 31.203125 
z
" id="DejaVuSans-61"/>
      <path d="M 44.28125 53.078125 
L 44.28125 44.578125 
Q 40.484375 46.53125 36.375 47.5 
Q 32.28125 48.484375 27.875 48.484375 
Q 21.1875 48.484375 17.84375 46.4375 
Q 14.5 44.390625 14.5 40.28125 
Q 14.5 37.15625 16.890625 35.375 
Q 19.28125 33.59375 26.515625 31.984375 
L 29.59375 31.296875 
Q 39.15625 29.25 43.1875 25.515625 
Q 47.21875 21.78125 47.21875 15.09375 
Q 47.21875 7.46875 41.1875 3.015625 
Q 35.15625 -1.421875 24.609375 -1.421875 
Q 20.21875 -1.421875 15.453125 -0.5625 
Q 10.6875 0.296875 5.421875 2 
L 5.421875 11.28125 
Q 10.40625 8.6875 15.234375 7.390625 
Q 20.0625 6.109375 24.8125 6.109375 
Q 31.15625 6.109375 34.5625 8.28125 
Q 37.984375 10.453125 37.984375 14.40625 
Q 37.984375 18.0625 35.515625 20.015625 
Q 33.0625 21.96875 24.703125 23.78125 
L 21.578125 24.515625 
Q 13.234375 26.265625 9.515625 29.90625 
Q 5.8125 33.546875 5.8125 39.890625 
Q 5.8125 47.609375 11.28125 51.796875 
Q 16.75 56 26.8125 56 
Q 31.78125 56 36.171875 55.265625 
Q 40.578125 54.546875 44.28125 53.078125 
z
" id="DejaVuSans-73"/>
      <path d="M 25.390625 72.90625 
L 33.6875 72.90625 
L 8.296875 -9.28125 
L 0 -9.28125 
z
" id="DejaVuSans-2f"/>
      <path d="M 45.40625 46.390625 
L 45.40625 75.984375 
L 54.390625 75.984375 
L 54.390625 0 
L 45.40625 0 
L 45.40625 8.203125 
Q 42.578125 3.328125 38.25 0.953125 
Q 33.9375 -1.421875 27.875 -1.421875 
Q 17.96875 -1.421875 11.734375 6.484375 
Q 5.515625 14.40625 5.515625 27.296875 
Q 5.515625 40.1875 11.734375 48.09375 
Q 17.96875 56 27.875 56 
Q 33.9375 56 38.25 53.625 
Q 42.578125 51.265625 45.40625 46.390625 
z
M 14.796875 27.296875 
Q 14.796875 17.390625 18.875 11.75 
Q 22.953125 6.109375 30.078125 6.109375 
Q 37.203125 6.109375 41.296875 11.75 
Q 45.40625 17.390625 45.40625 27.296875 
Q 45.40625 37.203125 41.296875 42.84375 
Q 37.203125 48.484375 30.078125 48.484375 
Q 22.953125 48.484375 18.875 42.84375 
Q 14.796875 37.203125 14.796875 27.296875 
z
" id="DejaVuSans-64"/>
      <path d="M 9.421875 54.6875 
L 18.40625 54.6875 
L 18.40625 0 
L 9.421875 0 
z
M 9.421875 75.984375 
L 18.40625 75.984375 
L 18.40625 64.59375 
L 9.421875 64.59375 
z
" id="DejaVuSans-69"/>
      <path d="M 52 44.1875 
Q 55.375 50.25 60.0625 53.125 
Q 64.75 56 71.09375 56 
Q 79.640625 56 84.28125 50.015625 
Q 88.921875 44.046875 88.921875 33.015625 
L 88.921875 0 
L 79.890625 0 
L 79.890625 32.71875 
Q 79.890625 40.578125 77.09375 44.375 
Q 74.3125 48.1875 68.609375 48.1875 
Q 61.625 48.1875 57.5625 43.546875 
Q 53.515625 38.921875 53.515625 30.90625 
L 53.515625 0 
L 44.484375 0 
L 44.484375 32.71875 
Q 44.484375 40.625 41.703125 44.40625 
Q 38.921875 48.1875 33.109375 48.1875 
Q 26.21875 48.1875 22.15625 43.53125 
Q 18.109375 38.875 18.109375 30.90625 
L 18.109375 0 
L 9.078125 0 
L 9.078125 54.6875 
L 18.109375 54.6875 
L 18.109375 46.1875 
Q 21.1875 51.21875 25.484375 53.609375 
Q 29.78125 56 35.6875 56 
Q 41.65625 56 45.828125 52.96875 
Q 50 49.953125 52 44.1875 
z
" id="DejaVuSans-6d"/>
      <path d="M 54.890625 33.015625 
L 54.890625 0 
L 45.90625 0 
L 45.90625 32.71875 
Q 45.90625 40.484375 42.875 44.328125 
Q 39.84375 48.1875 33.796875 48.1875 
Q 26.515625 48.1875 22.3125 43.546875 
Q 18.109375 38.921875 18.109375 30.90625 
L 18.109375 0 
L 9.078125 0 
L 9.078125 54.6875 
L 18.109375 54.6875 
L 18.109375 46.1875 
Q 21.34375 51.125 25.703125 53.5625 
Q 30.078125 56 35.796875 56 
Q 45.21875 56 50.046875 50.171875 
Q 54.890625 44.34375 54.890625 33.015625 
z
" id="DejaVuSans-6e"/>
      <path d="M 8.015625 75.875 
L 15.828125 75.875 
Q 23.140625 64.359375 26.78125 53.3125 
Q 30.421875 42.28125 30.421875 31.390625 
Q 30.421875 20.453125 26.78125 9.375 
Q 23.140625 -1.703125 15.828125 -13.1875 
L 8.015625 -13.1875 
Q 14.5 -2 17.703125 9.0625 
Q 20.90625 20.125 20.90625 31.390625 
Q 20.90625 42.671875 17.703125 53.65625 
Q 14.5 64.65625 8.015625 75.875 
z
" id="DejaVuSans-29"/>
     </defs>
     <g transform="translate(107.571219 337.433594)scale(0.17 -0.17)">
      <use xlink:href="#DejaVuSans-6c"/>
      <use x="27.783203" xlink:href="#DejaVuSans-6f"/>
      <use x="88.964844" xlink:href="#DejaVuSans-67"/>
      <use x="152.441406" xlink:href="#DejaVuSans-31"/>
      <use x="216.064453" xlink:href="#DejaVuSans-30"/>
      <use x="279.6875" xlink:href="#DejaVuSans-28"/>
      <use x="318.701172" xlink:href="#DejaVuSans-23"/>
      <use x="402.490234" xlink:href="#DejaVuSans-20"/>
      <use x="434.277344" xlink:href="#DejaVuSans-66"/>
      <use x="469.404297" xlink:href="#DejaVuSans-2d"/>
      <use x="505.488281" xlink:href="#DejaVuSans-65"/>
      <use x="567.011719" xlink:href="#DejaVuSans-76"/>
      <use x="626.191406" xlink:href="#DejaVuSans-61"/>
      <use x="687.470703" xlink:href="#DejaVuSans-6c"/>
      <use x="715.253906" xlink:href="#DejaVuSans-73"/>
      <use x="767.353516" xlink:href="#DejaVuSans-20"/>
      <use x="799.140625" xlink:href="#DejaVuSans-2f"/>
      <use x="832.832031" xlink:href="#DejaVuSans-20"/>
      <use x="864.619141" xlink:href="#DejaVuSans-64"/>
      <use x="928.095703" xlink:href="#DejaVuSans-69"/>
      <use x="955.878906" xlink:href="#DejaVuSans-6d"/>
      <use x="1053.291016" xlink:href="#DejaVuSans-65"/>
      <use x="1114.814453" xlink:href="#DejaVuSans-6e"/>
      <use x="1178.193359" xlink:href="#DejaVuSans-73"/>
      <use x="1230.292969" xlink:href="#DejaVuSans-69"/>
      <use x="1258.076172" xlink:href="#DejaVuSans-6f"/>
      <use x="1319.257812" xlink:href="#DejaVuSans-6e"/>
      <use x="1382.636719" xlink:href="#DejaVuSans-29"/>
     </g>
    </g>
   </g>
   <g id="matplotlib.axis_2">
    <g id="ytick_1">
     <g id="line2d_11">
      <path clip-path="url(#p99226d7ad0)" d="M 56.84 294.16 
L 399.984 294.16 
" style="fill:none;stroke:#b0b0b0;stroke-linecap:square;stroke-width:0.8;"/>
     </g>
     <g id="line2d_12">
      <defs>
       <path d="M 0 0 
L -3.5 0 
" id="m6653fb0adb" style="stroke:#000000;stroke-width:0.8;"/>
      </defs>
      <g>
       <use style="stroke:#000000;stroke-width:0.8;" x="56.84" xlink:href="#m6653fb0adb" y="294.16"/>
      </g>
     </g>
     <g id="text_7">
      <!-- 0.0 -->
      <defs>
       <path d="M 10.6875 12.40625 
L 21 12.40625 
L 21 0 
L 10.6875 0 
z
" id="DejaVuSans-2e"/>
      </defs>
      <g transform="translate(24.395 300.23875)scale(0.16 -0.16)">
       <use xlink:href="#DejaVuSans-30"/>
       <use x="63.623047" xlink:href="#DejaVuSans-2e"/>
       <use x="95.410156" xlink:href="#DejaVuSans-30"/>
      </g>
     </g>
    </g>
    <g id="ytick_2">
     <g id="line2d_13">
      <path clip-path="url(#p99226d7ad0)" d="M 56.84 240.829307 
L 399.984 240.829307 
" style="fill:none;stroke:#b0b0b0;stroke-linecap:square;stroke-width:0.8;"/>
     </g>
     <g id="line2d_14">
      <g>
       <use style="stroke:#000000;stroke-width:0.8;" x="56.84" xlink:href="#m6653fb0adb" y="240.829307"/>
      </g>
     </g>
     <g id="text_8">
      <!-- 0.2 -->
      <g transform="translate(24.395 246.908057)scale(0.16 -0.16)">
       <use xlink:href="#DejaVuSans-30"/>
       <use x="63.623047" xlink:href="#DejaVuSans-2e"/>
       <use x="95.410156" xlink:href="#DejaVuSans-32"/>
      </g>
     </g>
    </g>
    <g id="ytick_3">
     <g id="line2d_15">
      <path clip-path="url(#p99226d7ad0)" d="M 56.84 187.498614 
L 399.984 187.498614 
" style="fill:none;stroke:#b0b0b0;stroke-linecap:square;stroke-width:0.8;"/>
     </g>
     <g id="line2d_16">
      <g>
       <use style="stroke:#000000;stroke-width:0.8;" x="56.84" xlink:href="#m6653fb0adb" y="187.498614"/>
      </g>
     </g>
     <g id="text_9">
      <!-- 0.4 -->
      <g transform="translate(24.395 193.577364)scale(0.16 -0.16)">
       <use xlink:href="#DejaVuSans-30"/>
       <use x="63.623047" xlink:href="#DejaVuSans-2e"/>
       <use x="95.410156" xlink:href="#DejaVuSans-34"/>
      </g>
     </g>
    </g>
    <g id="ytick_4">
     <g id="line2d_17">
      <path clip-path="url(#p99226d7ad0)" d="M 56.84 134.167921 
L 399.984 134.167921 
" style="fill:none;stroke:#b0b0b0;stroke-linecap:square;stroke-width:0.8;"/>
     </g>
     <g id="line2d_18">
      <g>
       <use style="stroke:#000000;stroke-width:0.8;" x="56.84" xlink:href="#m6653fb0adb" y="134.167921"/>
      </g>
     </g>
     <g id="text_10">
      <!-- 0.6 -->
      <g transform="translate(24.395 140.246671)scale(0.16 -0.16)">
       <use xlink:href="#DejaVuSans-30"/>
       <use x="63.623047" xlink:href="#DejaVuSans-2e"/>
       <use x="95.410156" xlink:href="#DejaVuSans-36"/>
      </g>
     </g>
    </g>
    <g id="ytick_5">
     <g id="line2d_19">
      <path clip-path="url(#p99226d7ad0)" d="M 56.84 80.837228 
L 399.984 80.837228 
" style="fill:none;stroke:#b0b0b0;stroke-linecap:square;stroke-width:0.8;"/>
     </g>
     <g id="line2d_20">
      <g>
       <use style="stroke:#000000;stroke-width:0.8;" x="56.84" xlink:href="#m6653fb0adb" y="80.837228"/>
      </g>
     </g>
     <g id="text_11">
      <!-- 0.8 -->
      <g transform="translate(24.395 86.915978)scale(0.16 -0.16)">
       <use xlink:href="#DejaVuSans-30"/>
       <use x="63.623047" xlink:href="#DejaVuSans-2e"/>
       <use x="95.410156" xlink:href="#DejaVuSans-38"/>
      </g>
     </g>
    </g>
    <g id="ytick_6">
     <g id="line2d_21">
      <path clip-path="url(#p99226d7ad0)" d="M 56.84 27.506535 
L 399.984 27.506535 
" style="fill:none;stroke:#b0b0b0;stroke-linecap:square;stroke-width:0.8;"/>
     </g>
     <g id="line2d_22">
      <g>
       <use style="stroke:#000000;stroke-width:0.8;" x="56.84" xlink:href="#m6653fb0adb" y="27.506535"/>
      </g>
     </g>
     <g id="text_12">
      <!-- 1.0 -->
      <g transform="translate(24.395 33.585285)scale(0.16 -0.16)">
       <use xlink:href="#DejaVuSans-31"/>
       <use x="63.623047" xlink:href="#DejaVuSans-2e"/>
       <use x="95.410156" xlink:href="#DejaVuSans-30"/>
      </g>
     </g>
    </g>
    <g id="text_13">
     <!-- Fraction of function,target pairs -->
     <defs>
      <path d="M 9.8125 72.90625 
L 51.703125 72.90625 
L 51.703125 64.59375 
L 19.671875 64.59375 
L 19.671875 43.109375 
L 48.578125 43.109375 
L 48.578125 34.8125 
L 19.671875 34.8125 
L 19.671875 0 
L 9.8125 0 
z
" id="DejaVuSans-46"/>
      <path d="M 41.109375 46.296875 
Q 39.59375 47.171875 37.8125 47.578125 
Q 36.03125 48 33.890625 48 
Q 26.265625 48 22.1875 43.046875 
Q 18.109375 38.09375 18.109375 28.8125 
L 18.109375 0 
L 9.078125 0 
L 9.078125 54.6875 
L 18.109375 54.6875 
L 18.109375 46.1875 
Q 20.953125 51.171875 25.484375 53.578125 
Q 30.03125 56 36.53125 56 
Q 37.453125 56 38.578125 55.875 
Q 39.703125 55.765625 41.0625 55.515625 
z
" id="DejaVuSans-72"/>
      <path d="M 48.78125 52.59375 
L 48.78125 44.1875 
Q 44.96875 46.296875 41.140625 47.34375 
Q 37.3125 48.390625 33.40625 48.390625 
Q 24.65625 48.390625 19.8125 42.84375 
Q 14.984375 37.3125 14.984375 27.296875 
Q 14.984375 17.28125 19.8125 11.734375 
Q 24.65625 6.203125 33.40625 6.203125 
Q 37.3125 6.203125 41.140625 7.25 
Q 44.96875 8.296875 48.78125 10.40625 
L 48.78125 2.09375 
Q 45.015625 0.34375 40.984375 -0.53125 
Q 36.96875 -1.421875 32.421875 -1.421875 
Q 20.0625 -1.421875 12.78125 6.34375 
Q 5.515625 14.109375 5.515625 27.296875 
Q 5.515625 40.671875 12.859375 48.328125 
Q 20.21875 56 33.015625 56 
Q 37.15625 56 41.109375 55.140625 
Q 45.0625 54.296875 48.78125 52.59375 
z
" id="DejaVuSans-63"/>
      <path d="M 18.3125 70.21875 
L 18.3125 54.6875 
L 36.8125 54.6875 
L 36.8125 47.703125 
L 18.3125 47.703125 
L 18.3125 18.015625 
Q 18.3125 11.328125 20.140625 9.421875 
Q 21.96875 7.515625 27.59375 7.515625 
L 36.8125 7.515625 
L 36.8125 0 
L 27.59375 0 
Q 17.1875 0 13.234375 3.875 
Q 9.28125 7.765625 9.28125 18.015625 
L 9.28125 47.703125 
L 2.6875 47.703125 
L 2.6875 54.6875 
L 9.28125 54.6875 
L 9.28125 70.21875 
z
" id="DejaVuSans-74"/>
      <path d="M 8.5 21.578125 
L 8.5 54.6875 
L 17.484375 54.6875 
L 17.484375 21.921875 
Q 17.484375 14.15625 20.5 10.265625 
Q 23.53125 6.390625 29.59375 6.390625 
Q 36.859375 6.390625 41.078125 11.03125 
Q 45.3125 15.671875 45.3125 23.6875 
L 45.3125 54.6875 
L 54.296875 54.6875 
L 54.296875 0 
L 45.3125 0 
L 45.3125 8.40625 
Q 42.046875 3.421875 37.71875 1 
Q 33.40625 -1.421875 27.6875 -1.421875 
Q 18.265625 -1.421875 13.375 4.4375 
Q 8.5 10.296875 8.5 21.578125 
z
M 31.109375 56 
z
" id="DejaVuSans-75"/>
      <path d="M 11.71875 12.40625 
L 22.015625 12.40625 
L 22.015625 4 
L 14.015625 -11.625 
L 7.71875 -11.625 
L 11.71875 4 
z
" id="DejaVuSans-2c"/>
      <path d="M 18.109375 8.203125 
L 18.109375 -20.796875 
L 9.078125 -20.796875 
L 9.078125 54.6875 
L 18.109375 54.6875 
L 18.109375 46.390625 
Q 20.953125 51.265625 25.265625 53.625 
Q 29.59375 56 35.59375 56 
Q 45.5625 56 51.78125 48.09375 
Q 58.015625 40.1875 58.015625 27.296875 
Q 58.015625 14.40625 51.78125 6.484375 
Q 45.5625 -1.421875 35.59375 -1.421875 
Q 29.59375 -1.421875 25.265625 0.953125 
Q 20.953125 3.328125 18.109375 8.203125 
z
M 48.6875 27.296875 
Q 48.6875 37.203125 44.609375 42.84375 
Q 40.53125 48.484375 33.40625 48.484375 
Q 26.265625 48.484375 22.1875 42.84375 
Q 18.109375 37.203125 18.109375 27.296875 
Q 18.109375 17.390625 22.1875 11.75 
Q 26.265625 6.109375 33.40625 6.109375 
Q 40.53125 6.109375 44.609375 11.75 
Q 48.6875 17.390625 48.6875 27.296875 
z
" id="DejaVuSans-70"/>
     </defs>
     <g transform="translate(16.859531 294.639375)rotate(-90)scale(0.17 -0.17)">
      <use xlink:href="#DejaVuSans-46"/>
      <use x="57.410156" xlink:href="#DejaVuSans-72"/>
      <use x="98.523438" xlink:href="#DejaVuSans-61"/>
      <use x="159.802734" xlink:href="#DejaVuSans-63"/>
      <use x="214.783203" xlink:href="#DejaVuSans-74"/>
      <use x="253.992188" xlink:href="#DejaVuSans-69"/>
      <use x="281.775391" xlink:href="#DejaVuSans-6f"/>
      <use x="342.957031" xlink:href="#DejaVuSans-6e"/>
      <use x="406.335938" xlink:href="#DejaVuSans-20"/>
      <use x="438.123047" xlink:href="#DejaVuSans-6f"/>
      <use x="499.304688" xlink:href="#DejaVuSans-66"/>
      <use x="534.509766" xlink:href="#DejaVuSans-20"/>
      <use x="566.296875" xlink:href="#DejaVuSans-66"/>
      <use x="601.501953" xlink:href="#DejaVuSans-75"/>
      <use x="664.880859" xlink:href="#DejaVuSans-6e"/>
      <use x="728.259766" xlink:href="#DejaVuSans-63"/>
      <use x="783.240234" xlink:href="#DejaVuSans-74"/>
      <use x="822.449219" xlink:href="#DejaVuSans-69"/>
      <use x="850.232422" xlink:href="#DejaVuSans-6f"/>
      <use x="911.414062" xlink:href="#DejaVuSans-6e"/>
      <use x="974.792969" xlink:href="#DejaVuSans-2c"/>
      <use x="1006.580078" xlink:href="#DejaVuSans-74"/>
      <use x="1045.789062" xlink:href="#DejaVuSans-61"/>
      <use x="1107.068359" xlink:href="#DejaVuSans-72"/>
      <use x="1148.166016" xlink:href="#DejaVuSans-67"/>
      <use x="1211.642578" xlink:href="#DejaVuSans-65"/>
      <use x="1273.166016" xlink:href="#DejaVuSans-74"/>
      <use x="1312.375" xlink:href="#DejaVuSans-20"/>
      <use x="1344.162109" xlink:href="#DejaVuSans-70"/>
      <use x="1407.638672" xlink:href="#DejaVuSans-61"/>
      <use x="1468.917969" xlink:href="#DejaVuSans-69"/>
      <use x="1496.701172" xlink:href="#DejaVuSans-72"/>
      <use x="1537.814453" xlink:href="#DejaVuSans-73"/>
     </g>
    </g>
   </g>
   <g id="line2d_23">
    <defs>
     <path d="M 0 1.5 
C 0.397805 1.5 0.77937 1.341951 1.06066 1.06066 
C 1.341951 0.77937 1.5 0.397805 1.5 0 
C 1.5 -0.397805 1.341951 -0.77937 1.06066 -1.06066 
C 0.77937 -1.341951 0.397805 -1.5 0 -1.5 
C -0.397805 -1.5 -0.77937 -1.341951 -1.06066 -1.06066 
C -1.341951 -0.77937 -1.5 -0.397805 -1.5 0 
C -1.5 0.397805 -1.341951 0.77937 -1.06066 1.06066 
C -0.77937 1.341951 -0.397805 1.5 0 1.5 
z
" id="m33118cd2f1" style="stroke:#00bfbf;"/>
    </defs>
    <g>
     <use style="fill:#00bfbf;stroke:#00bfbf;" x="259.66043" xlink:href="#m33118cd2f1" y="126.848022"/>
     <use style="fill:#00bfbf;stroke:#00bfbf;" x="259.66043" xlink:href="#m33118cd2f1" y="126.848022"/>
    </g>
   </g>
   <g id="line2d_24">
    <path d="M 44.939466 294.16 
L 44.939466 293.1143 
L 56.84 293.1143 
L 56.84 281.611602 
L 63.801366 281.611602 
L 63.801366 276.905952 
L 68.740534 276.905952 
L 68.740534 273.246003 
L 72.57165 273.246003 
L 72.57165 271.677453 
L 75.7019 271.677453 
L 75.7019 270.631753 
L 78.348489 270.631753 
L 78.348489 269.586053 
L 80.641068 269.586053 
L 80.641068 267.494653 
L 82.663267 267.494653 
L 82.663267 264.880404 
L 93.582457 264.880404 
L 93.582457 264.357554 
L 94.563801 264.357554 
L 94.563801 263.834704 
L 95.492072 263.834704 
L 95.492072 262.266154 
L 98.009084 262.266154 
L 98.009084 260.174754 
L 99.502969 260.174754 
L 99.502969 259.651904 
L 101.525167 259.651904 
L 101.525167 258.606205 
L 102.149557 258.606205 
L 102.149557 258.083355 
L 106.934744 258.083355 
L 106.934744 257.560505 
L 107.838576 257.560505 
L 107.838576 257.037655 
L 109.909618 257.037655 
L 109.909618 255.991955 
L 110.295451 255.991955 
L 110.295451 254.946255 
L 111.04204 254.946255 
L 111.04204 254.423405 
L 118.364869 254.423405 
L 118.364869 253.900555 
L 118.835278 253.900555 
L 118.835278 253.377705 
L 121.214642 253.377705 
L 121.214642 252.854855 
L 125.326236 252.854855 
L 125.326236 252.332005 
L 129.029702 252.332005 
L 129.029702 251.286306 
L 130.735812 251.286306 
L 130.735812 250.763456 
L 131.193675 250.763456 
L 131.193675 249.717756 
L 131.858358 249.717756 
L 131.858358 249.194906 
L 134.659483 249.194906 
L 134.659483 247.103506 
L 138.892015 247.103506 
L 138.892015 246.580656 
L 141.620849 246.580656 
L 141.620849 246.057806 
L 143.094209 246.057806 
L 143.094209 245.012106 
L 143.595119 245.012106 
L 143.595119 243.443557 
L 143.758893 243.443557 
L 143.758893 242.920707 
L 150.82858 242.920707 
L 150.82858 241.352157 
L 153.11666 241.352157 
L 153.11666 240.829307 
L 153.552124 240.829307 
L 153.552124 240.306457 
L 155.686571 240.306457 
L 155.794722 239.260757 
L 155.821653 239.260757 
L 155.821653 238.737907 
L 159.555618 238.737907 
L 159.555618 238.215057 
L 165.391122 238.215057 
L 165.391122 237.692207 
L 168.753542 237.692207 
L 168.753542 237.169357 
L 169.702474 237.169357 
L 169.702474 236.646507 
L 171.564065 236.646507 
L 171.585566 232.986558 
L 177.307061 232.986558 
L 177.307061 232.463708 
L 178.475156 232.463708 
L 178.475156 231.940858 
L 179.006303 231.940858 
L 179.006303 230.372308 
L 179.830021 230.372308 
L 179.916213 229.326608 
L 180.139615 229.326608 
L 180.139615 228.280909 
L 181.128936 228.280909 
L 181.128936 227.758059 
L 183.193535 227.758059 
L 183.193535 227.235209 
L 183.405331 227.235209 
L 183.432296 225.666659 
L 183.894838 225.666659 
L 183.894838 224.620959 
L 184.709263 224.620959 
L 184.709263 224.098109 
L 185.837001 224.098109 
L 185.837001 221.483859 
L 186.588572 221.483859 
L 186.588572 220.43816 
L 188.763044 220.43816 
L 188.763044 219.91531 
L 189.257566 219.91531 
L 189.257566 218.86961 
L 189.875786 218.86961 
L 189.875786 218.34676 
L 190.443885 218.34676 
L 190.443885 217.82391 
L 191.007657 217.82391 
L 191.007657 217.30106 
L 192.098802 217.30106 
L 192.098802 216.77821 
L 192.437004 216.77821 
L 192.437004 216.25536 
L 192.567276 216.25536 
L 192.567276 215.73251 
L 193.587264 215.73251 
L 193.593228 213.118261 
L 195.381261 213.118261 
L 195.381261 212.595411 
L 195.584256 212.595411 
L 195.584256 212.072561 
L 196.33751 212.072561 
L 196.33751 211.026861 
L 196.813687 211.026861 
L 196.813687 208.935461 
L 197.671826 208.935461 
L 197.671826 208.412611 
L 198.676405 208.412611 
L 198.676405 207.889761 
L 199.215602 207.889761 
L 199.215602 206.321211 
L 200.292195 206.321211 
L 200.292195 205.798361 
L 200.869736 205.798361 
L 200.926242 204.752662 
L 201.171529 204.752662 
L 201.183031 201.615562 
L 202.267231 201.615562 
L 202.340836 200.569862 
L 202.925514 200.569862 
L 202.928976 199.524162 
L 204.628489 199.524162 
L 204.628489 199.001312 
L 205.471385 199.001312 
L 205.471385 198.478462 
L 205.608177 198.478462 
L 205.608177 197.955613 
L 205.842051 197.955613 
L 205.842051 197.432763 
L 206.059803 197.432763 
L 206.059803 196.387063 
L 206.179117 196.387063 
L 206.179117 195.864213 
L 206.412458 195.864213 
L 206.412458 194.818513 
L 207.127959 194.818513 
L 207.127959 194.295663 
L 207.726042 194.295663 
L 207.726042 193.772813 
L 207.931644 193.772813 
L 207.931644 193.249963 
L 208.346972 193.249963 
L 208.346972 192.727113 
L 208.53033 192.727113 
L 208.53033 191.681413 
L 208.94013 191.681413 
L 208.942569 190.635713 
L 209.696526 190.635713 
L 209.696526 189.590014 
L 210.118477 189.590014 
L 210.118477 189.067164 
L 210.872648 189.067164 
L 210.872648 187.498614 
L 211.468171 187.498614 
L 211.468171 186.452914 
L 212.460098 186.452914 
L 212.460098 185.407214 
L 213.070145 185.407214 
L 213.070145 184.884364 
L 213.38748 184.884364 
L 213.38748 183.315814 
L 214.470921 183.315814 
L 214.470921 182.270115 
L 215.1604 182.270115 
L 215.1604 181.747265 
L 215.368837 181.747265 
L 215.368837 181.224415 
L 215.923437 181.224415 
L 216.033531 179.655865 
L 216.158951 179.655865 
L 216.162956 178.087315 
L 216.787346 178.087315 
L 216.787346 177.564465 
L 216.915065 177.564465 
L 216.915065 175.995915 
L 217.663513 175.995915 
L 217.663513 175.473065 
L 217.802379 175.473065 
L 217.802379 174.950215 
L 218.153268 174.950215 
L 218.153268 174.427366 
L 218.545297 174.427366 
L 218.545297 173.904516 
L 218.988459 173.904516 
L 218.988459 173.381666 
L 219.204482 173.381666 
L 219.204482 172.858816 
L 219.622649 172.858816 
L 219.622649 172.335966 
L 220.243718 172.335966 
L 220.243718 171.813116 
L 220.591257 171.813116 
L 220.591257 171.290266 
L 221.7903 171.290266 
L 221.793185 170.244566 
L 222.042341 170.244566 
L 222.042341 169.721716 
L 222.337191 169.721716 
L 222.338309 168.676016 
L 222.88724 168.676016 
L 222.88724 168.153166 
L 223.542053 168.153166 
L 223.542053 167.107467 
L 224.03716 167.107467 
L 224.039691 166.061767 
L 224.51888 166.061767 
L 224.51888 165.016067 
L 225.003253 165.016067 
L 225.003253 164.493217 
L 225.468746 164.493217 
L 225.468746 163.970367 
L 225.583405 163.970367 
L 225.583405 162.924667 
L 226.023714 162.924667 
L 226.023714 162.401817 
L 226.968141 162.401817 
L 226.968141 161.878967 
L 227.40763 161.878967 
L 227.40763 161.356117 
L 227.740528 161.356117 
L 227.806502 160.310417 
L 228.058684 160.310417 
L 228.058684 159.787567 
L 228.191152 159.787567 
L 228.191152 159.264718 
L 228.657736 159.264718 
L 228.657736 158.219018 
L 228.962906 158.219018 
L 229.056509 156.650468 
L 229.770477 156.650468 
L 229.770477 155.604768 
L 230.195853 155.604768 
L 230.195853 155.081918 
L 230.560815 155.081918 
L 230.560815 154.559068 
L 230.893409 154.559068 
L 230.945625 153.513368 
L 231.104345 153.513368 
L 231.104345 152.467668 
L 231.216016 152.467668 
L 231.216016 151.944818 
L 231.607432 151.944818 
L 231.607432 150.899119 
L 232.249067 150.899119 
L 232.249067 150.376269 
L 232.549243 150.376269 
L 232.549243 149.330569 
L 232.91172 149.330569 
L 232.91172 148.807719 
L 233.058128 148.807719 
L 233.058128 147.762019 
L 233.507221 147.762019 
L 233.508679 145.670619 
L 233.785784 145.670619 
L 233.785784 145.147769 
L 234.939755 145.147769 
L 234.939755 144.624919 
L 235.256076 144.624919 
L 235.256076 144.10207 
L 236.021024 144.10207 
L 236.021528 143.05637 
L 236.949429 143.05637 
L 237.038688 142.01067 
L 237.560339 142.01067 
L 237.560339 141.48782 
L 237.780927 141.48782 
L 237.817267 140.44212 
L 238.492622 140.44212 
L 238.492622 139.91927 
L 240.217814 139.91927 
L 240.217814 139.39642 
L 240.407919 139.39642 
L 240.407919 138.87357 
L 240.594206 138.87357 
L 240.594206 138.35072 
L 240.972909 138.35072 
L 240.972909 137.82787 
L 241.378507 137.82787 
L 241.378876 136.78217 
L 242.129246 136.78217 
L 242.129246 136.259321 
L 242.337649 136.259321 
L 242.337649 135.736471 
L 243.730309 135.736471 
L 243.730309 135.213621 
L 245.173299 135.213621 
L 245.173299 134.690771 
L 245.777463 134.690771 
L 245.777463 134.167921 
L 246.05056 134.167921 
L 246.05056 133.645071 
L 246.216614 133.645071 
L 246.216614 133.122221 
L 246.710759 133.122221 
L 246.710759 132.599371 
L 247.137109 132.599371 
L 247.137109 132.076521 
L 247.336607 132.076521 
L 247.336607 131.553671 
L 247.719352 131.553671 
L 247.719352 131.030821 
L 249.498946 131.030821 
L 249.498946 129.985121 
L 250.429219 129.985121 
L 250.429219 129.462271 
L 252.150966 129.462271 
L 252.150966 128.939421 
L 253.337667 128.939421 
L 253.337667 128.416572 
L 254.357555 128.416572 
L 254.357555 127.893722 
L 256.392966 127.893722 
L 256.392966 127.370872 
L 259.66043 127.370872 
L 259.66043 126.848022 
L 333.569032 126.848022 
L 333.569032 126.848022 
" style="fill:none;stroke:#00bfbf;stroke-linecap:square;stroke-width:1.5;"/>
   </g>
   <g id="line2d_25">
    <defs>
     <path d="M -6 0 
L 6 0 
M 0 6 
L 0 -6 
" id="m6b738d336d" style="stroke:#00bfbf;stroke-width:1.5;"/>
    </defs>
    <g>
     <use style="fill-opacity:0;stroke:#00bfbf;stroke-width:1.5;" x="82.663267" xlink:href="#m6b738d336d" y="267.494653"/>
     <use style="fill-opacity:0;stroke:#00bfbf;stroke-width:1.5;" x="141.620849" xlink:href="#m6b738d336d" y="246.057806"/>
     <use style="fill-opacity:0;stroke:#00bfbf;stroke-width:1.5;" x="208.53033" xlink:href="#m6b738d336d" y="192.727113"/>
     <use style="fill-opacity:0;stroke:#00bfbf;stroke-width:1.5;" x="247.719352" xlink:href="#m6b738d336d" y="131.030821"/>
     <use style="fill-opacity:0;stroke:#00bfbf;stroke-width:1.5;" x="259.66043" xlink:href="#m6b738d336d" y="126.848022"/>
     <use style="fill-opacity:0;stroke:#00bfbf;stroke-width:1.5;" x="333.569032" xlink:href="#m6b738d336d" y="126.848022"/>
    </g>
   </g>
   <g id="line2d_26">
    <path style="fill:none;stroke:#00bfbf;stroke-linecap:square;stroke-width:1.5;"/>
    <g/>
   </g>
   <g id="line2d_27">
    <path clip-path="url(#p99226d7ad0)" d="M 188.012065 220.43816 
" style="fill:none;stroke:#00bfbf;stroke-linecap:square;stroke-width:1.5;"/>
    <defs>
     <path d="M -12 12 
L 12 -12 
M -12 -12 
L 12 12 
" id="m683eb4b87a" style="stroke:#00bfbf;stroke-width:3;"/>
    </defs>
    <g clip-path="url(#p99226d7ad0)">
     <use style="fill:#00bfbf;stroke:#00bfbf;stroke-width:3;" x="188.012065" xlink:href="#m683eb4b87a" y="220.43816"/>
    </g>
   </g>
   <g id="line2d_28">
    <defs>
     <path d="M 0 1.5 
C 0.397805 1.5 0.77937 1.341951 1.06066 1.06066 
C 1.341951 0.77937 1.5 0.397805 1.5 0 
C 1.5 -0.397805 1.341951 -0.77937 1.06066 -1.06066 
C 0.77937 -1.341951 0.397805 -1.5 0 -1.5 
C -0.397805 -1.5 -0.77937 -1.341951 -1.06066 -1.06066 
C -1.341951 -0.77937 -1.5 -0.397805 -1.5 0 
C -1.5 0.397805 -1.341951 0.77937 -1.06066 1.06066 
C -0.77937 1.341951 -0.397805 1.5 0 1.5 
z
" id="m24c49c4a74" style="stroke:#008000;"/>
    </defs>
    <g>
     <use style="fill:#008000;stroke:#008000;" x="261.129935" xlink:href="#m24c49c4a74" y="215.73251"/>
     <use style="fill:#008000;stroke:#008000;" x="261.129935" xlink:href="#m24c49c4a74" y="215.73251"/>
    </g>
   </g>
   <g id="line2d_29">
    <path d="M 37.9781 294.16 
L 37.9781 288.931501 
L 49.878634 288.931501 
L 49.878634 284.748701 
L 56.84 284.748701 
L 56.84 280.565902 
L 61.779168 280.565902 
L 61.779168 279.520202 
L 65.610284 279.520202 
L 65.610284 277.428802 
L 68.740534 277.428802 
L 68.740534 274.291703 
L 71.387123 274.291703 
L 71.387123 272.723153 
L 75.7019 272.723153 
L 75.7019 270.108903 
L 82.015309 270.108903 
L 82.015309 268.540353 
L 83.287657 268.540353 
L 83.287657 267.494653 
L 87.602435 267.494653 
L 87.602435 266.971804 
L 92.541603 266.971804 
L 92.541603 266.448954 
L 96.935682 266.448954 
L 96.935682 265.926104 
L 99.019308 265.926104 
L 99.019308 265.403254 
L 107.088725 265.403254 
L 107.088725 264.880404 
L 108.557042 264.880404 
L 108.557042 264.357554 
L 114.050092 264.357554 
L 114.050092 263.834704 
L 115.981208 263.834704 
L 115.981208 263.311854 
L 118.523109 263.311854 
L 118.523109 262.789004 
L 119.293141 262.789004 
L 119.293141 262.266154 
L 136.019517 262.266154 
L 136.019517 261.743304 
L 138.155041 261.743304 
L 138.155041 261.220454 
L 140.143739 261.220454 
L 140.143739 260.174754 
L 141.966065 260.174754 
L 141.966065 259.651904 
L 146.092172 259.651904 
L 146.092172 259.129055 
L 146.49837 259.129055 
L 146.49837 257.560505 
L 147.283023 257.560505 
L 147.283023 257.037655 
L 149.520201 257.037655 
L 149.520201 256.514805 
L 149.726126 256.514805 
L 149.726126 255.991955 
L 157.785946 255.991955 
L 157.785946 255.469105 
L 160.186193 255.469105 
L 160.186193 254.946255 
L 161.264653 254.946255 
L 161.32986 253.377705 
L 162.254706 253.377705 
L 162.254706 251.809156 
L 163.549065 251.809156 
L 163.549065 250.763456 
L 164.922425 250.763456 
L 164.922425 250.240606 
L 166.125245 250.240606 
L 166.125245 249.194906 
L 170.33029 249.194906 
L 170.33029 248.672056 
L 172.888584 248.672056 
L 172.888584 248.149206 
L 176.503232 248.149206 
L 176.503232 247.626356 
L 177.10571 247.626356 
L 177.10571 247.103506 
L 181.829309 247.103506 
L 181.829309 246.580656 
L 188.047796 246.580656 
L 188.108096 245.534956 
L 188.532373 245.534956 
L 188.532373 244.489256 
L 190.736304 244.489256 
L 190.736304 243.966407 
L 191.110185 243.966407 
L 191.110185 243.443557 
L 192.064069 243.443557 
L 192.064069 242.920707 
L 192.243487 242.920707 
L 192.243487 242.397857 
L 193.739701 242.397857 
L 193.739701 241.875007 
L 195.663729 241.875007 
L 195.663729 240.829307 
L 196.151844 240.829307 
L 196.151844 240.306457 
L 201.570212 240.306457 
L 201.570212 239.783607 
L 201.728119 239.783607 
L 201.728119 239.260757 
L 203.014165 239.260757 
L 203.014165 238.737907 
L 203.193514 238.737907 
L 203.193514 237.692207 
L 203.94721 237.692207 
L 203.94721 237.169357 
L 205.203081 237.169357 
L 205.203081 236.646507 
L 206.885884 236.646507 
L 206.885884 236.123658 
L 207.236059 236.123658 
L 207.236059 235.600808 
L 207.969976 235.600808 
L 207.969976 234.032258 
L 208.276121 234.032258 
L 208.333499 232.986558 
L 208.994525 232.986558 
L 208.994525 232.463708 
L 209.666153 232.463708 
L 209.666153 231.940858 
L 210.035522 231.940858 
L 210.035522 231.418008 
L 210.575461 231.418008 
L 210.575461 230.895158 
L 212.661937 230.895158 
L 212.74488 229.849458 
L 213.948682 229.849458 
L 213.948682 229.326608 
L 216.393649 229.326608 
L 216.393649 228.280909 
L 217.316596 228.280909 
L 217.316596 227.758059 
L 219.489887 227.758059 
L 219.489887 227.235209 
L 220.227293 227.235209 
L 220.310521 226.189509 
L 220.724807 226.189509 
L 220.724807 225.666659 
L 221.49639 225.666659 
L 221.49639 225.143809 
L 222.36214 225.143809 
L 222.424168 224.098109 
L 224.814624 224.098109 
L 224.814624 223.575259 
L 226.717923 223.575259 
L 226.717923 223.052409 
L 227.060368 223.052409 
L 227.060368 222.529559 
L 227.554411 222.529559 
L 227.554411 222.006709 
L 228.482784 222.006709 
L 228.482784 221.483859 
L 229.988778 221.483859 
L 229.988778 220.96101 
L 232.977011 220.96101 
L 232.977011 220.43816 
L 234.18473 220.43816 
L 234.18473 219.91531 
L 237.181958 219.91531 
L 237.181958 219.39246 
L 237.847869 219.39246 
L 237.847869 218.86961 
L 241.254897 218.86961 
L 241.254897 218.34676 
L 241.63593 218.34676 
L 241.63593 217.82391 
L 244.296145 217.82391 
L 244.296145 217.30106 
L 248.414529 217.30106 
L 248.414529 216.77821 
L 252.476073 216.77821 
L 252.476073 216.25536 
L 261.129935 216.25536 
L 261.129935 215.73251 
L 333.569032 215.73251 
L 333.569032 215.73251 
" style="fill:none;stroke:#008000;stroke-linecap:square;stroke-width:1.5;"/>
   </g>
   <g id="line2d_30">
    <defs>
     <path d="M -0 6 
L 6 -6 
L -6 -6 
z
" id="m83ad85660c" style="stroke:#008000;stroke-linejoin:miter;stroke-width:1.5;"/>
    </defs>
    <g>
     <use style="fill-opacity:0;stroke:#008000;stroke-linejoin:miter;stroke-width:1.5;" x="82.015309" xlink:href="#m83ad85660c" y="268.540353"/>
     <use style="fill-opacity:0;stroke:#008000;stroke-linejoin:miter;stroke-width:1.5;" x="166.125245" xlink:href="#m83ad85660c" y="249.194906"/>
     <use style="fill-opacity:0;stroke:#008000;stroke-linejoin:miter;stroke-width:1.5;" x="224.814624" xlink:href="#m83ad85660c" y="224.098109"/>
     <use style="fill-opacity:0;stroke:#008000;stroke-linejoin:miter;stroke-width:1.5;" x="261.129935" xlink:href="#m83ad85660c" y="215.73251"/>
     <use style="fill-opacity:0;stroke:#008000;stroke-linejoin:miter;stroke-width:1.5;" x="261.129935" xlink:href="#m83ad85660c" y="215.73251"/>
     <use style="fill-opacity:0;stroke:#008000;stroke-linejoin:miter;stroke-width:1.5;" x="333.569032" xlink:href="#m83ad85660c" y="215.73251"/>
    </g>
   </g>
   <g id="line2d_31">
    <path style="fill:none;stroke:#008000;stroke-linecap:square;stroke-width:1.5;"/>
    <g/>
   </g>
   <g id="line2d_32">
    <path clip-path="url(#p99226d7ad0)" d="M 188.012065 246.580656 
" style="fill:none;stroke:#008000;stroke-linecap:square;stroke-width:1.5;"/>
    <defs>
     <path d="M -12 12 
L 12 -12 
M -12 -12 
L 12 12 
" id="md1a2cf53b9" style="stroke:#008000;stroke-width:3;"/>
    </defs>
    <g clip-path="url(#p99226d7ad0)">
     <use style="fill:#008000;stroke:#008000;stroke-width:3;" x="188.012065" xlink:href="#md1a2cf53b9" y="246.580656"/>
    </g>
   </g>
   <g id="line2d_33">
    <defs>
     <path d="M 0 1.5 
C 0.397805 1.5 0.77937 1.341951 1.06066 1.06066 
C 1.341951 0.77937 1.5 0.397805 1.5 0 
C 1.5 -0.397805 1.341951 -0.77937 1.06066 -1.06066 
C 0.77937 -1.341951 0.397805 -1.5 0 -1.5 
C -0.397805 -1.5 -0.77937 -1.341951 -1.06066 -1.06066 
C -1.341951 -0.77937 -1.5 -0.397805 -1.5 0 
C -1.5 0.397805 -1.341951 0.77937 -1.06066 1.06066 
C -0.77937 1.341951 -0.397805 1.5 0 1.5 
z
" id="mc3f7ed559a" style="stroke:#0000ff;"/>
    </defs>
    <g>
     <use style="fill:#0000ff;stroke:#0000ff;" x="256.023127" xlink:href="#mc3f7ed559a" y="241.875007"/>
     <use style="fill:#0000ff;stroke:#0000ff;" x="256.023127" xlink:href="#mc3f7ed559a" y="241.875007"/>
    </g>
   </g>
   <g id="line2d_34">
    <path d="M 29.207815 294.16 
L 29.207815 284.748701 
L 41.10835 284.748701 
L 41.10835 283.703001 
L 48.069716 283.703001 
L 48.069716 281.088752 
L 53.008884 281.088752 
L 53.008884 280.565902 
L 56.84 280.565902 
L 56.84 278.997352 
L 59.97025 278.997352 
L 59.97025 275.860252 
L 64.909418 275.860252 
L 64.909418 275.337402 
L 74.517373 275.337402 
L 74.517373 273.246003 
L 85.793517 273.246003 
L 85.793517 272.200303 
L 93.379273 272.200303 
L 93.379273 271.154603 
L 96.025862 271.154603 
L 96.025862 270.631753 
L 104.226174 270.631753 
L 104.226174 270.108903 
L 110.371588 270.108903 
L 110.371588 269.063203 
L 115.797583 269.063203 
L 115.797583 268.540353 
L 119.20254 268.540353 
L 119.20254 267.494653 
L 125.326236 267.494653 
L 125.326236 266.971804 
L 136.279057 266.971804 
L 136.279057 266.448954 
L 143.671741 266.448954 
L 143.671741 265.926104 
L 149.111399 265.926104 
L 149.111399 264.880404 
L 156.976734 264.880404 
L 156.976734 263.834704 
L 161.857937 263.834704 
L 161.857937 263.311854 
L 171.013145 263.311854 
L 171.013145 262.789004 
L 171.229497 262.789004 
L 171.229497 262.266154 
L 175.251725 262.266154 
L 175.251725 261.220454 
L 176.226703 261.220454 
L 176.226703 260.697604 
L 181.305506 260.697604 
L 181.305506 260.174754 
L 188.693374 260.174754 
L 188.693374 259.651904 
L 191.287524 259.651904 
L 191.287524 258.083355 
L 192.545738 258.083355 
L 192.545738 257.560505 
L 193.43627 257.560505 
L 193.43627 257.037655 
L 194.691587 257.037655 
L 194.691587 256.514805 
L 196.875863 256.514805 
L 196.875863 255.991955 
L 201.628322 255.991955 
L 201.628322 255.469105 
L 203.921088 255.469105 
L 203.921088 254.423405 
L 204.534785 254.423405 
L 204.534785 253.900555 
L 205.206922 253.900555 
L 205.206922 253.377705 
L 206.620068 253.377705 
L 206.620068 252.854855 
L 207.104086 252.854855 
L 207.104086 251.809156 
L 207.994394 251.809156 
L 207.994394 251.286306 
L 209.647435 251.286306 
L 209.647435 250.763456 
L 213.063623 250.763456 
L 213.063623 250.240606 
L 213.934098 250.240606 
L 213.934098 249.717756 
L 214.279306 249.717756 
L 214.279306 249.194906 
L 216.651822 249.194906 
L 216.651822 248.672056 
L 220.217178 248.672056 
L 220.217178 248.149206 
L 220.457326 248.149206 
L 220.457326 247.626356 
L 224.158938 247.626356 
L 224.158938 247.103506 
L 227.614144 247.103506 
L 227.614144 246.580656 
L 231.991015 246.580656 
L 231.991015 246.057806 
L 233.954812 246.057806 
L 233.954812 245.534956 
L 234.745064 245.534956 
L 234.745064 245.012106 
L 235.935466 245.012106 
L 235.935466 244.489256 
L 237.17819 244.489256 
L 237.17819 243.966407 
L 242.233062 243.966407 
L 242.233062 243.443557 
L 246.756704 243.443557 
L 246.756704 242.920707 
L 247.794634 242.920707 
L 247.794634 242.397857 
L 256.023127 242.397857 
L 256.023127 241.875007 
L 333.569032 241.875007 
" style="fill:none;stroke:#0000ff;stroke-linecap:square;stroke-width:1.5;"/>
   </g>
   <g id="line2d_35">
    <defs>
     <path d="M 0 -6 
L -1.347084 -1.854102 
L -5.706339 -1.854102 
L -2.179628 0.708204 
L -3.526712 4.854102 
L -0 2.291796 
L 3.526712 4.854102 
L 2.179628 0.708204 
L 5.706339 -1.854102 
L 1.347084 -1.854102 
z
" id="m38a9066bc8" style="stroke:#0000ff;stroke-linejoin:bevel;stroke-width:1.5;"/>
    </defs>
    <g>
     <use style="fill-opacity:0;stroke:#0000ff;stroke-linejoin:bevel;stroke-width:1.5;" x="115.797583" xlink:href="#m38a9066bc8" y="269.063203"/>
     <use style="fill-opacity:0;stroke:#0000ff;stroke-linejoin:bevel;stroke-width:1.5;" x="196.875863" xlink:href="#m38a9066bc8" y="255.991955"/>
     <use style="fill-opacity:0;stroke:#0000ff;stroke-linejoin:bevel;stroke-width:1.5;" x="247.794634" xlink:href="#m38a9066bc8" y="242.397857"/>
     <use style="fill-opacity:0;stroke:#0000ff;stroke-linejoin:bevel;stroke-width:1.5;" x="256.023127" xlink:href="#m38a9066bc8" y="241.875007"/>
     <use style="fill-opacity:0;stroke:#0000ff;stroke-linejoin:bevel;stroke-width:1.5;" x="256.023127" xlink:href="#m38a9066bc8" y="241.875007"/>
     <use style="fill-opacity:0;stroke:#0000ff;stroke-linejoin:bevel;stroke-width:1.5;" x="333.569032" xlink:href="#m38a9066bc8" y="241.875007"/>
    </g>
   </g>
   <g id="line2d_36">
    <path style="fill:none;stroke:#0000ff;stroke-linecap:square;stroke-width:1.5;"/>
    <g/>
   </g>
   <g id="line2d_37">
    <path clip-path="url(#p99226d7ad0)" d="M 188.012065 260.174754 
" style="fill:none;stroke:#0000ff;stroke-linecap:square;stroke-width:1.5;"/>
    <defs>
     <path d="M -12 12 
L 12 -12 
M -12 -12 
L 12 12 
" id="m1fac0767bd" style="stroke:#0000ff;stroke-width:3;"/>
    </defs>
    <g clip-path="url(#p99226d7ad0)">
     <use style="fill:#0000ff;stroke:#0000ff;stroke-width:3;" x="188.012065" xlink:href="#m1fac0767bd" y="260.174754"/>
    </g>
   </g>
   <g id="line2d_38">
    <defs>
     <path d="M 0 1.5 
C 0.397805 1.5 0.77937 1.341951 1.06066 1.06066 
C 1.341951 0.77937 1.5 0.397805 1.5 0 
C 1.5 -0.397805 1.341951 -0.77937 1.06066 -1.06066 
C 0.77937 -1.341951 0.397805 -1.5 0 -1.5 
C -0.397805 -1.5 -0.77937 -1.341951 -1.06066 -1.06066 
C -1.341951 -0.77937 -1.5 -0.397805 -1.5 0 
C -1.5 0.397805 -1.341951 0.77937 -1.06066 1.06066 
C -0.77937 1.341951 -0.397805 1.5 0 1.5 
z
" id="m6a91b28023" style="stroke:#000000;"/>
    </defs>
    <g>
     <use style="stroke:#000000;" x="219.700642" xlink:href="#m6a91b28023" y="262.789004"/>
     <use style="stroke:#000000;" x="219.700642" xlink:href="#m6a91b28023" y="262.789004"/>
    </g>
   </g>
   <g id="line2d_39">
    <path d="M 17.307281 294.16 
L 17.307281 286.317251 
L 29.207815 286.317251 
L 29.207815 284.225851 
L 36.169182 284.225851 
L 36.169182 283.703001 
L 41.10835 283.703001 
L 41.10835 283.180151 
L 48.069716 283.180151 
L 48.069716 282.657301 
L 50.716304 282.657301 
L 50.716304 281.088752 
L 58.476365 281.088752 
L 58.476365 280.565902 
L 66.931616 280.565902 
L 66.931616 279.520202 
L 75.7019 279.520202 
L 75.7019 277.428802 
L 77.850807 277.428802 
L 77.850807 276.905952 
L 83.409856 276.905952 
L 83.409856 275.860252 
L 89.496983 275.860252 
L 89.496983 275.337402 
L 126.729799 275.337402 
L 126.729799 274.814553 
L 128.823467 274.814553 
L 128.823467 274.291703 
L 130.943363 274.291703 
L 130.943363 273.768853 
L 131.836612 273.768853 
L 131.836612 273.246003 
L 146.271458 273.246003 
L 146.271458 272.723153 
L 146.346391 272.723153 
L 146.346391 272.200303 
L 152.217765 272.200303 
L 152.217765 271.677453 
L 162.354321 271.677453 
L 162.354321 271.154603 
L 163.0959 271.154603 
L 163.0959 270.631753 
L 175.136789 270.631753 
L 175.136789 270.108903 
L 175.274273 270.108903 
L 175.274273 269.586053 
L 180.296872 269.586053 
L 180.296872 268.540353 
L 183.282916 268.540353 
L 183.282916 268.017503 
L 184.65515 268.017503 
L 184.65515 266.971804 
L 188.651277 266.971804 
L 188.651277 266.448954 
L 194.654627 266.448954 
L 194.654627 265.926104 
L 194.698857 265.926104 
L 194.698857 265.403254 
L 198.316056 265.403254 
L 198.316056 264.880404 
L 208.678838 264.880404 
L 208.678838 264.357554 
L 216.749773 264.357554 
L 216.749773 263.834704 
L 217.194254 263.834704 
L 217.194254 263.311854 
L 219.700642 263.311854 
L 219.700642 262.789004 
L 333.569032 262.789004 
" style="fill:none;stroke:#000000;stroke-linecap:square;stroke-width:1.5;"/>
   </g>
   <g id="line2d_40">
    <defs>
     <path d="M 0 6 
C 1.591219 6 3.117479 5.367802 4.242641 4.242641 
C 5.367802 3.117479 6 1.591219 6 0 
C 6 -1.591219 5.367802 -3.117479 4.242641 -4.242641 
C 3.117479 -5.367802 1.591219 -6 0 -6 
C -1.591219 -6 -3.117479 -5.367802 -4.242641 -4.242641 
C -5.367802 -3.117479 -6 -1.591219 -6 0 
C -6 1.591219 -5.367802 3.117479 -4.242641 4.242641 
C -3.117479 5.367802 -1.591219 6 0 6 
z
" id="m76d303564a" style="stroke:#000000;stroke-width:1.5;"/>
    </defs>
    <g>
     <use style="fill-opacity:0;stroke:#000000;stroke-width:1.5;" x="77.850807" xlink:href="#m76d303564a" y="276.905952"/>
     <use style="fill-opacity:0;stroke:#000000;stroke-width:1.5;" x="152.217765" xlink:href="#m76d303564a" y="272.200303"/>
     <use style="fill-opacity:0;stroke:#000000;stroke-width:1.5;" x="219.700642" xlink:href="#m76d303564a" y="263.311854"/>
     <use style="fill-opacity:0;stroke:#000000;stroke-width:1.5;" x="219.700642" xlink:href="#m76d303564a" y="262.789004"/>
     <use style="fill-opacity:0;stroke:#000000;stroke-width:1.5;" x="219.700642" xlink:href="#m76d303564a" y="262.789004"/>
     <use style="fill-opacity:0;stroke:#000000;stroke-width:1.5;" x="333.569032" xlink:href="#m76d303564a" y="262.789004"/>
    </g>
   </g>
   <g id="line2d_41">
    <path style="fill:none;stroke:#000000;stroke-linecap:square;stroke-width:1.5;"/>
    <g/>
   </g>
   <g id="line2d_42">
    <path clip-path="url(#p99226d7ad0)" d="M 188.012065 266.971804 
" style="fill:none;stroke:#000000;stroke-linecap:square;stroke-width:1.5;"/>
    <defs>
     <path d="M -12 12 
L 12 -12 
M -12 -12 
L 12 12 
" id="m7cb1ea222a" style="stroke:#000000;stroke-width:3;"/>
    </defs>
    <g clip-path="url(#p99226d7ad0)">
     <use style="stroke:#000000;stroke-width:3;" x="188.012065" xlink:href="#m7cb1ea222a" y="266.971804"/>
    </g>
   </g>
   <g id="line2d_43">
    <defs>
     <path d="M 0 1.5 
C 0.397805 1.5 0.77937 1.341951 1.06066 1.06066 
C 1.341951 0.77937 1.5 0.397805 1.5 0 
C 1.5 -0.397805 1.341951 -0.77937 1.06066 -1.06066 
C 0.77937 -1.341951 0.397805 -1.5 0 -1.5 
C -0.397805 -1.5 -0.77937 -1.341951 -1.06066 -1.06066 
C -1.341951 -0.77937 -1.5 -0.397805 -1.5 0 
C -1.5 0.397805 -1.341951 0.77937 -1.06066 1.06066 
C -0.77937 1.341951 -0.397805 1.5 0 1.5 
z
" id="m20b7336510" style="stroke:#ff0000;"/>
    </defs>
    <g>
     <use style="fill:#ff0000;stroke:#ff0000;" x="210.66001" xlink:href="#m20b7336510" y="268.017503"/>
     <use style="fill:#ff0000;stroke:#ff0000;" x="210.66001" xlink:href="#m20b7336510" y="268.017503"/>
    </g>
   </g>
   <g id="line2d_44">
    <path d="M 5.406747 294.16 
L 5.406747 288.408651 
L 24.268647 288.408651 
L 24.268647 287.885801 
L 33.038932 287.885801 
L 33.038932 286.317251 
L 38.81577 286.317251 
L 38.81577 285.794401 
L 48.069716 285.794401 
L 48.069716 285.271551 
L 49.443956 285.271551 
L 49.443956 284.225851 
L 55.031082 284.225851 
L 55.031082 283.703001 
L 69.578205 283.703001 
L 69.578205 283.180151 
L 72.224793 283.180151 
L 72.224793 282.657301 
L 76.539571 282.657301 
L 76.539571 281.088752 
L 83.591538 281.088752 
L 83.591538 280.565902 
L 88.026378 280.565902 
L 88.026378 280.043052 
L 90.249023 280.043052 
L 90.249023 278.997352 
L 108.013769 278.997352 
L 108.013769 277.951652 
L 125.230587 277.951652 
L 125.230587 277.428802 
L 130.097667 277.428802 
L 130.097667 276.905952 
L 140.303947 276.905952 
L 140.303947 276.383102 
L 148.749598 276.383102 
L 148.749598 275.860252 
L 156.766629 275.860252 
L 156.766629 274.814553 
L 157.006899 274.814553 
L 157.006899 274.291703 
L 157.074576 274.291703 
L 157.074576 273.768853 
L 161.705797 273.768853 
L 161.705797 273.246003 
L 163.518726 273.246003 
L 163.518726 272.723153 
L 168.237775 272.723153 
L 168.237775 271.677453 
L 177.523572 271.677453 
L 177.523572 271.154603 
L 181.930767 271.154603 
L 181.930767 269.586053 
L 190.974347 269.586053 
L 190.974347 269.063203 
L 192.727641 269.063203 
L 192.727641 268.540353 
L 210.66001 268.540353 
L 210.66001 268.017503 
L 333.569032 268.017503 
" style="fill:none;stroke:#ff0000;stroke-linecap:square;stroke-width:1.5;"/>
   </g>
   <g id="line2d_45">
    <defs>
     <path d="M -6 6 
L 6 6 
L 6 -6 
L -6 -6 
z
" id="m33a1c4f5b7" style="stroke:#ff0000;stroke-linejoin:miter;stroke-width:1.5;"/>
    </defs>
    <g>
     <use style="fill-opacity:0;stroke:#ff0000;stroke-linejoin:miter;stroke-width:1.5;" x="140.303947" xlink:href="#m33a1c4f5b7" y="276.383102"/>
     <use style="fill-opacity:0;stroke:#ff0000;stroke-linejoin:miter;stroke-width:1.5;" x="192.727641" xlink:href="#m33a1c4f5b7" y="268.540353"/>
     <use style="fill-opacity:0;stroke:#ff0000;stroke-linejoin:miter;stroke-width:1.5;" x="210.66001" xlink:href="#m33a1c4f5b7" y="268.017503"/>
     <use style="fill-opacity:0;stroke:#ff0000;stroke-linejoin:miter;stroke-width:1.5;" x="210.66001" xlink:href="#m33a1c4f5b7" y="268.017503"/>
     <use style="fill-opacity:0;stroke:#ff0000;stroke-linejoin:miter;stroke-width:1.5;" x="333.569032" xlink:href="#m33a1c4f5b7" y="268.017503"/>
    </g>
   </g>
   <g id="line2d_46">
    <path style="fill:none;stroke:#ff0000;stroke-linecap:square;stroke-width:1.5;"/>
    <g/>
   </g>
   <g id="line2d_47">
    <path clip-path="url(#p99226d7ad0)" d="M 188.012065 269.586053 
" style="fill:none;stroke:#ff0000;stroke-linecap:square;stroke-width:1.5;"/>
    <defs>
     <path d="M -12 12 
L 12 -12 
M -12 -12 
L 12 12 
" id="ma552a4f938" style="stroke:#ff0000;stroke-width:3;"/>
    </defs>
    <g clip-path="url(#p99226d7ad0)">
     <use style="fill:#ff0000;stroke:#ff0000;stroke-width:3;" x="188.012065" xlink:href="#ma552a4f938" y="269.586053"/>
    </g>
   </g>
   <g id="line2d_48">
    <path d="M 333.569032 268.017503 
L 364.009226 288.826931 
" style="fill:none;stroke:#ff0000;stroke-linecap:square;stroke-width:1.5;"/>
    <g>
     <use style="fill-opacity:0;stroke:#ff0000;stroke-linejoin:miter;stroke-width:1.5;" x="333.569032" xlink:href="#m33a1c4f5b7" y="268.017503"/>
     <use style="fill-opacity:0;stroke:#ff0000;stroke-linejoin:miter;stroke-width:1.5;" x="364.009226" xlink:href="#m33a1c4f5b7" y="288.826931"/>
    </g>
   </g>
   <g id="line2d_49">
    <path d="M 333.569032 262.789004 
L 364.009226 224.830099 
" style="fill:none;stroke:#000000;stroke-linecap:square;stroke-width:1.5;"/>
    <g>
     <use style="fill-opacity:0;stroke:#000000;stroke-width:1.5;" x="333.569032" xlink:href="#m76d303564a" y="262.789004"/>
     <use style="fill-opacity:0;stroke:#000000;stroke-width:1.5;" x="364.009226" xlink:href="#m76d303564a" y="224.830099"/>
    </g>
   </g>
   <g id="line2d_50">
    <path d="M 333.569032 241.875007 
L 364.009226 160.833267 
" style="fill:none;stroke:#0000ff;stroke-linecap:square;stroke-width:1.5;"/>
    <g>
     <use style="fill-opacity:0;stroke:#0000ff;stroke-linejoin:bevel;stroke-width:1.5;" x="333.569032" xlink:href="#m38a9066bc8" y="241.875007"/>
     <use style="fill-opacity:0;stroke:#0000ff;stroke-linejoin:bevel;stroke-width:1.5;" x="364.009226" xlink:href="#m38a9066bc8" y="160.833267"/>
    </g>
   </g>
   <g id="line2d_51">
    <path d="M 333.569032 215.73251 
L 364.009226 96.836436 
" style="fill:none;stroke:#008000;stroke-linecap:square;stroke-width:1.5;"/>
    <g>
     <use style="fill-opacity:0;stroke:#008000;stroke-linejoin:miter;stroke-width:1.5;" x="333.569032" xlink:href="#m83ad85660c" y="215.73251"/>
     <use style="fill-opacity:0;stroke:#008000;stroke-linejoin:miter;stroke-width:1.5;" x="364.009226" xlink:href="#m83ad85660c" y="96.836436"/>
    </g>
   </g>
   <g id="line2d_52">
    <path d="M 333.569032 126.848022 
L 364.009226 32.839604 
" style="fill:none;stroke:#00bfbf;stroke-linecap:square;stroke-width:1.5;"/>
    <g>
     <use style="fill-opacity:0;stroke:#00bfbf;stroke-width:1.5;" x="333.569032" xlink:href="#m6b738d336d" y="126.848022"/>
     <use style="fill-opacity:0;stroke:#00bfbf;stroke-width:1.5;" x="364.009226" xlink:href="#m6b738d336d" y="32.839604"/>
    </g>
   </g>
   <g id="line2d_53">
    <path d="M 333.569032 294.16 
L 333.569032 27.506535 
" style="fill:none;stroke:#000000;stroke-linecap:square;stroke-width:1.5;"/>
   </g>
   <g id="patch_3">
    <path d="M 56.84 294.16 
L 56.84 24.84 
" style="fill:none;stroke:#000000;stroke-linecap:square;stroke-linejoin:miter;stroke-width:0.8;"/>
   </g>
   <g id="patch_4">
    <path d="M 399.984 294.16 
L 399.984 24.84 
" style="fill:none;stroke:#000000;stroke-linecap:square;stroke-linejoin:miter;stroke-width:0.8;"/>
   </g>
   <g id="patch_5">
    <path d="M 56.84 294.16 
L 399.984 294.16 
" style="fill:none;stroke:#000000;stroke-linecap:square;stroke-linejoin:miter;stroke-width:0.8;"/>
   </g>
   <g id="patch_6">
    <path d="M 56.84 24.84 
L 399.984 24.84 
" style="fill:none;stroke:#000000;stroke-linecap:square;stroke-linejoin:miter;stroke-width:0.8;"/>
   </g>
   <g id="text_14">
    <!-- 20-D -->
    <defs>
     <path d="M 19.671875 64.796875 
L 19.671875 8.109375 
L 31.59375 8.109375 
Q 46.6875 8.109375 53.6875 14.9375 
Q 60.6875 21.78125 60.6875 36.53125 
Q 60.6875 51.171875 53.6875 57.984375 
Q 46.6875 64.796875 31.59375 64.796875 
z
M 9.8125 72.90625 
L 30.078125 72.90625 
Q 51.265625 72.90625 61.171875 64.09375 
Q 71.09375 55.28125 71.09375 36.53125 
Q 71.09375 17.671875 61.125 8.828125 
Q 51.171875 0 30.078125 0 
L 9.8125 0 
z
" id="DejaVuSans-44"/>
    </defs>
    <g transform="translate(369.543806 293.517868)scale(0.17 -0.17)">
     <use xlink:href="#DejaVuSans-32"/>
     <use x="63.623047" xlink:href="#DejaVuSans-30"/>
     <use x="127.246094" xlink:href="#DejaVuSans-2d"/>
     <use x="163.330078" xlink:href="#DejaVuSans-44"/>
    </g>
   </g>
   <g id="text_15">
    <!-- 10-D -->
    <g transform="translate(369.543806 229.521037)scale(0.17 -0.17)">
     <use xlink:href="#DejaVuSans-31"/>
     <use x="63.623047" xlink:href="#DejaVuSans-30"/>
     <use x="127.246094" xlink:href="#DejaVuSans-2d"/>
     <use x="163.330078" xlink:href="#DejaVuSans-44"/>
    </g>
   </g>
   <g id="text_16">
    <!-- 5-D -->
    <defs>
     <path d="M 10.796875 72.90625 
L 49.515625 72.90625 
L 49.515625 64.59375 
L 19.828125 64.59375 
L 19.828125 46.734375 
Q 21.96875 47.46875 24.109375 47.828125 
Q 26.265625 48.1875 28.421875 48.1875 
Q 40.625 48.1875 47.75 41.5 
Q 54.890625 34.8125 54.890625 23.390625 
Q 54.890625 11.625 47.5625 5.09375 
Q 40.234375 -1.421875 26.90625 -1.421875 
Q 22.3125 -1.421875 17.546875 -0.640625 
Q 12.796875 0.140625 7.71875 1.703125 
L 7.71875 11.625 
Q 12.109375 9.234375 16.796875 8.0625 
Q 21.484375 6.890625 26.703125 6.890625 
Q 35.15625 6.890625 40.078125 11.328125 
Q 45.015625 15.765625 45.015625 23.390625 
Q 45.015625 31 40.078125 35.4375 
Q 35.15625 39.890625 26.703125 39.890625 
Q 22.75 39.890625 18.8125 39.015625 
Q 14.890625 38.140625 10.796875 36.28125 
z
" id="DejaVuSans-35"/>
    </defs>
    <g transform="translate(369.543806 165.524205)scale(0.17 -0.17)">
     <use xlink:href="#DejaVuSans-35"/>
     <use x="63.623047" xlink:href="#DejaVuSans-2d"/>
     <use x="99.707031" xlink:href="#DejaVuSans-44"/>
    </g>
   </g>
   <g id="text_17">
    <!-- 3-D -->
    <defs>
     <path d="M 40.578125 39.3125 
Q 47.65625 37.796875 51.625 33 
Q 55.609375 28.21875 55.609375 21.1875 
Q 55.609375 10.40625 48.1875 4.484375 
Q 40.765625 -1.421875 27.09375 -1.421875 
Q 22.515625 -1.421875 17.65625 -0.515625 
Q 12.796875 0.390625 7.625 2.203125 
L 7.625 11.71875 
Q 11.71875 9.328125 16.59375 8.109375 
Q 21.484375 6.890625 26.8125 6.890625 
Q 36.078125 6.890625 40.9375 10.546875 
Q 45.796875 14.203125 45.796875 21.1875 
Q 45.796875 27.640625 41.28125 31.265625 
Q 36.765625 34.90625 28.71875 34.90625 
L 20.21875 34.90625 
L 20.21875 43.015625 
L 29.109375 43.015625 
Q 36.375 43.015625 40.234375 45.921875 
Q 44.09375 48.828125 44.09375 54.296875 
Q 44.09375 59.90625 40.109375 62.90625 
Q 36.140625 65.921875 28.71875 65.921875 
Q 24.65625 65.921875 20.015625 65.03125 
Q 15.375 64.15625 9.8125 62.3125 
L 9.8125 71.09375 
Q 15.4375 72.65625 20.34375 73.4375 
Q 25.25 74.21875 29.59375 74.21875 
Q 40.828125 74.21875 47.359375 69.109375 
Q 53.90625 64.015625 53.90625 55.328125 
Q 53.90625 49.265625 50.4375 45.09375 
Q 46.96875 40.921875 40.578125 39.3125 
z
" id="DejaVuSans-33"/>
    </defs>
    <g transform="translate(369.543806 101.527373)scale(0.17 -0.17)">
     <use xlink:href="#DejaVuSans-33"/>
     <use x="63.623047" xlink:href="#DejaVuSans-2d"/>
     <use x="99.707031" xlink:href="#DejaVuSans-44"/>
    </g>
   </g>
   <g id="text_18">
    <!-- 2-D -->
    <g transform="translate(369.543806 37.530541)scale(0.17 -0.17)">
     <use xlink:href="#DejaVuSans-32"/>
     <use x="63.623047" xlink:href="#DejaVuSans-2d"/>
     <use x="99.707031" xlink:href="#DejaVuSans-44"/>
    </g>
   </g>
   <g id="text_19">
    <!-- bbob f16 -->
    <defs>
     <path d="M 48.6875 27.296875 
Q 48.6875 37.203125 44.609375 42.84375 
Q 40.53125 48.484375 33.40625 48.484375 
Q 26.265625 48.484375 22.1875 42.84375 
Q 18.109375 37.203125 18.109375 27.296875 
Q 18.109375 17.390625 22.1875 11.75 
Q 26.265625 6.109375 33.40625 6.109375 
Q 40.53125 6.109375 44.609375 11.75 
Q 48.6875 17.390625 48.6875 27.296875 
z
M 18.109375 46.390625 
Q 20.953125 51.265625 25.265625 53.625 
Q 29.59375 56 35.59375 56 
Q 45.5625 56 51.78125 48.09375 
Q 58.015625 40.1875 58.015625 27.296875 
Q 58.015625 14.40625 51.78125 6.484375 
Q 45.5625 -1.421875 35.59375 -1.421875 
Q 29.59375 -1.421875 25.265625 0.953125 
Q 20.953125 3.328125 18.109375 8.203125 
L 18.109375 0 
L 9.078125 0 
L 9.078125 75.984375 
L 18.109375 75.984375 
z
" id="DejaVuSans-62"/>
    </defs>
    <g transform="translate(60.27144 35.283606)scale(0.102 -0.102)">
     <use xlink:href="#DejaVuSans-62"/>
     <use x="63.476562" xlink:href="#DejaVuSans-62"/>
     <use x="126.953125" xlink:href="#DejaVuSans-6f"/>
     <use x="188.134766" xlink:href="#DejaVuSans-62"/>
     <use x="251.611328" xlink:href="#DejaVuSans-20"/>
     <use x="283.398438" xlink:href="#DejaVuSans-66"/>
     <use x="318.603516" xlink:href="#DejaVuSans-31"/>
     <use x="382.226562" xlink:href="#DejaVuSans-36"/>
    </g>
    <!-- 51 targets: 100..1e-08 -->
    <defs>
     <path d="M 11.71875 12.40625 
L 22.015625 12.40625 
L 22.015625 0 
L 11.71875 0 
z
M 11.71875 51.703125 
L 22.015625 51.703125 
L 22.015625 39.3125 
L 11.71875 39.3125 
z
" id="DejaVuSans-3a"/>
    </defs>
    <g transform="translate(60.27144 46.705375)scale(0.102 -0.102)">
     <use xlink:href="#DejaVuSans-35"/>
     <use x="63.623047" xlink:href="#DejaVuSans-31"/>
     <use x="127.246094" xlink:href="#DejaVuSans-20"/>
     <use x="159.033203" xlink:href="#DejaVuSans-74"/>
     <use x="198.242188" xlink:href="#DejaVuSans-61"/>
     <use x="259.521484" xlink:href="#DejaVuSans-72"/>
     <use x="300.619141" xlink:href="#DejaVuSans-67"/>
     <use x="364.095703" xlink:href="#DejaVuSans-65"/>
     <use x="425.619141" xlink:href="#DejaVuSans-74"/>
     <use x="464.828125" xlink:href="#DejaVuSans-73"/>
     <use x="516.927734" xlink:href="#DejaVuSans-3a"/>
     <use x="550.619141" xlink:href="#DejaVuSans-20"/>
     <use x="582.40625" xlink:href="#DejaVuSans-31"/>
     <use x="646.029297" xlink:href="#DejaVuSans-30"/>
     <use x="709.652344" xlink:href="#DejaVuSans-30"/>
     <use x="773.275391" xlink:href="#DejaVuSans-2e"/>
     <use x="805.0625" xlink:href="#DejaVuSans-2e"/>
     <use x="836.849609" xlink:href="#DejaVuSans-31"/>
     <use x="900.472656" xlink:href="#DejaVuSans-65"/>
     <use x="961.996094" xlink:href="#DejaVuSans-2d"/>
     <use x="998.080078" xlink:href="#DejaVuSans-30"/>
     <use x="1061.703125" xlink:href="#DejaVuSans-38"/>
    </g>
    <!-- 15 instances -->
    <g transform="translate(60.27144 58.127144)scale(0.102 -0.102)">
     <use xlink:href="#DejaVuSans-31"/>
     <use x="63.623047" xlink:href="#DejaVuSans-35"/>
     <use x="127.246094" xlink:href="#DejaVuSans-20"/>
     <use x="159.033203" xlink:href="#DejaVuSans-69"/>
     <use x="186.816406" xlink:href="#DejaVuSans-6e"/>
     <use x="250.195312" xlink:href="#DejaVuSans-73"/>
     <use x="302.294922" xlink:href="#DejaVuSans-74"/>
     <use x="341.503906" xlink:href="#DejaVuSans-61"/>
     <use x="402.783203" xlink:href="#DejaVuSans-6e"/>
     <use x="466.162109" xlink:href="#DejaVuSans-63"/>
     <use x="521.142578" xlink:href="#DejaVuSans-65"/>
     <use x="582.666016" xlink:href="#DejaVuSans-73"/>
    </g>
   </g>
   <g id="text_20">
    <!-- v2.2.1.10 -->
    <g style="fill:#808080;" transform="translate(204.779188 289.387113)scale(0.1 -0.1)">
     <use xlink:href="#DejaVuSans-76"/>
     <use x="59.179688" xlink:href="#DejaVuSans-32"/>
     <use x="122.802734" xlink:href="#DejaVuSans-2e"/>
     <use x="154.589844" xlink:href="#DejaVuSans-32"/>
     <use x="218.212891" xlink:href="#DejaVuSans-2e"/>
     <use x="250" xlink:href="#DejaVuSans-31"/>
     <use x="313.623047" xlink:href="#DejaVuSans-2e"/>
     <use x="345.410156" xlink:href="#DejaVuSans-31"/>
     <use x="409.033203" xlink:href="#DejaVuSans-30"/>
    </g>
   </g>
   <g id="text_21">
    <!-- 16 Weierstrass -->
    <defs>
     <path d="M 3.328125 72.90625 
L 13.28125 72.90625 
L 28.609375 11.28125 
L 43.890625 72.90625 
L 54.984375 72.90625 
L 70.3125 11.28125 
L 85.59375 72.90625 
L 95.609375 72.90625 
L 77.296875 0 
L 64.890625 0 
L 49.515625 63.28125 
L 33.984375 0 
L 21.578125 0 
z
" id="DejaVuSans-57"/>
    </defs>
    <g transform="translate(153.646375 18.84)scale(0.2 -0.2)">
     <use xlink:href="#DejaVuSans-31"/>
     <use x="63.623047" xlink:href="#DejaVuSans-36"/>
     <use x="127.246094" xlink:href="#DejaVuSans-20"/>
     <use x="159.033203" xlink:href="#DejaVuSans-57"/>
     <use x="257.832031" xlink:href="#DejaVuSans-65"/>
     <use x="319.355469" xlink:href="#DejaVuSans-69"/>
     <use x="347.138672" xlink:href="#DejaVuSans-65"/>
     <use x="408.662109" xlink:href="#DejaVuSans-72"/>
     <use x="449.775391" xlink:href="#DejaVuSans-73"/>
     <use x="501.875" xlink:href="#DejaVuSans-74"/>
     <use x="541.083984" xlink:href="#DejaVuSans-72"/>
     <use x="582.197266" xlink:href="#DejaVuSans-61"/>
     <use x="643.476562" xlink:href="#DejaVuSans-73"/>
     <use x="695.576172" xlink:href="#DejaVuSans-73"/>
    </g>
   </g>
  </g>
 </g>
 <defs>
  <clipPath id="p99226d7ad0">
   <rect height="269.32" width="343.144" x="56.84" y="24.84"/>
  </clipPath>
 </defs>
</svg>
