<?xml version="1.0" encoding="utf-8" standalone="no"?>
<!DOCTYPE svg PUBLIC "-//W3C//DTD SVG 1.1//EN"
  "http://www.w3.org/Graphics/SVG/1.1/DTD/svg11.dtd">
<!-- Created with matplotlib (http://matplotlib.org/) -->
<svg height="345.6pt" version="1.1" viewBox="0 0 460.8 345.6" width="460.8pt" xmlns="http://www.w3.org/2000/svg" xmlns:xlink="http://www.w3.org/1999/xlink">
 <defs>
  <style type="text/css">
*{stroke-linecap:butt;stroke-linejoin:round;}
  </style>
 </defs>
 <g id="figure_1">
  <g id="patch_1">
   <path d="M 0 345.6 
L 460.8 345.6 
L 460.8 0 
L 0 0 
z
" style="fill:#ffffff;"/>
  </g>
  <g id="axes_1">
   <g id="patch_2">
    <path d="M 56.84 294.16 
L 399.984 294.16 
L 399.984 24.84 
L 56.84 24.84 
z
" style="fill:#ffffff;"/>
   </g>
   <g id="matplotlib.axis_1">
    <g id="xtick_1">
     <g id="line2d_1">
      <path clip-path="url(#pcb9009ce64)" d="M 56.84 294.16 
L 56.84 24.84 
" style="fill:none;stroke:#b0b0b0;stroke-linecap:square;stroke-width:0.8;"/>
     </g>
     <g id="line2d_2">
      <defs>
       <path d="M 0 0 
L 0 3.5 
" id="me3307de5c5" style="stroke:#000000;stroke-width:0.8;"/>
      </defs>
      <g>
       <use style="stroke:#000000;stroke-width:0.8;" x="56.84" xlink:href="#me3307de5c5" y="294.16"/>
      </g>
     </g>
     <g id="text_1">
      <!-- 0 -->
      <defs>
       <path d="M 31.78125 66.40625 
Q 24.171875 66.40625 20.328125 58.90625 
Q 16.5 51.421875 16.5 36.375 
Q 16.5 21.390625 20.328125 13.890625 
Q 24.171875 6.390625 31.78125 6.390625 
Q 39.453125 6.390625 43.28125 13.890625 
Q 47.125 21.390625 47.125 36.375 
Q 47.125 51.421875 43.28125 58.90625 
Q 39.453125 66.40625 31.78125 66.40625 
z
M 31.78125 74.21875 
Q 44.046875 74.21875 50.515625 64.515625 
Q 56.984375 54.828125 56.984375 36.375 
Q 56.984375 17.96875 50.515625 8.265625 
Q 44.046875 -1.421875 31.78125 -1.421875 
Q 19.53125 -1.421875 13.0625 8.265625 
Q 6.59375 17.96875 6.59375 36.375 
Q 6.59375 54.828125 13.0625 64.515625 
Q 19.53125 74.21875 31.78125 74.21875 
z
" id="DejaVuSans-30"/>
      </defs>
      <g transform="translate(50.4775 316.356875)scale(0.2 -0.2)">
       <use xlink:href="#DejaVuSans-30"/>
      </g>
     </g>
    </g>
    <g id="xtick_2">
     <g id="line2d_3">
      <path clip-path="url(#pcb9009ce64)" d="M 135.905438 294.16 
L 135.905438 24.84 
" style="fill:none;stroke:#b0b0b0;stroke-linecap:square;stroke-width:0.8;"/>
     </g>
     <g id="line2d_4">
      <g>
       <use style="stroke:#000000;stroke-width:0.8;" x="135.905438" xlink:href="#me3307de5c5" y="294.16"/>
      </g>
     </g>
     <g id="text_2">
      <!-- 2 -->
      <defs>
       <path d="M 19.1875 8.296875 
L 53.609375 8.296875 
L 53.609375 0 
L 7.328125 0 
L 7.328125 8.296875 
Q 12.9375 14.109375 22.625 23.890625 
Q 32.328125 33.6875 34.8125 36.53125 
Q 39.546875 41.84375 41.421875 45.53125 
Q 43.3125 49.21875 43.3125 52.78125 
Q 43.3125 58.59375 39.234375 62.25 
Q 35.15625 65.921875 28.609375 65.921875 
Q 23.96875 65.921875 18.8125 64.3125 
Q 13.671875 62.703125 7.8125 59.421875 
L 7.8125 69.390625 
Q 13.765625 71.78125 18.9375 73 
Q 24.125 74.21875 28.421875 74.21875 
Q 39.75 74.21875 46.484375 68.546875 
Q 53.21875 62.890625 53.21875 53.421875 
Q 53.21875 48.921875 51.53125 44.890625 
Q 49.859375 40.875 45.40625 35.40625 
Q 44.1875 33.984375 37.640625 27.21875 
Q 31.109375 20.453125 19.1875 8.296875 
z
" id="DejaVuSans-32"/>
      </defs>
      <g transform="translate(129.542938 316.356875)scale(0.2 -0.2)">
       <use xlink:href="#DejaVuSans-32"/>
      </g>
     </g>
    </g>
    <g id="xtick_3">
     <g id="line2d_5">
      <path clip-path="url(#pcb9009ce64)" d="M 214.970876 294.16 
L 214.970876 24.84 
" style="fill:none;stroke:#b0b0b0;stroke-linecap:square;stroke-width:0.8;"/>
     </g>
     <g id="line2d_6">
      <g>
       <use style="stroke:#000000;stroke-width:0.8;" x="214.970876" xlink:href="#me3307de5c5" y="294.16"/>
      </g>
     </g>
     <g id="text_3">
      <!-- 4 -->
      <defs>
       <path d="M 37.796875 64.3125 
L 12.890625 25.390625 
L 37.796875 25.390625 
z
M 35.203125 72.90625 
L 47.609375 72.90625 
L 47.609375 25.390625 
L 58.015625 25.390625 
L 58.015625 17.1875 
L 47.609375 17.1875 
L 47.609375 0 
L 37.796875 0 
L 37.796875 17.1875 
L 4.890625 17.1875 
L 4.890625 26.703125 
z
" id="DejaVuSans-34"/>
      </defs>
      <g transform="translate(208.608376 316.356875)scale(0.2 -0.2)">
       <use xlink:href="#DejaVuSans-34"/>
      </g>
     </g>
    </g>
    <g id="xtick_4">
     <g id="line2d_7">
      <path clip-path="url(#pcb9009ce64)" d="M 294.036313 294.16 
L 294.036313 24.84 
" style="fill:none;stroke:#b0b0b0;stroke-linecap:square;stroke-width:0.8;"/>
     </g>
     <g id="line2d_8">
      <g>
       <use style="stroke:#000000;stroke-width:0.8;" x="294.036313" xlink:href="#me3307de5c5" y="294.16"/>
      </g>
     </g>
     <g id="text_4">
      <!-- 6 -->
      <defs>
       <path d="M 33.015625 40.375 
Q 26.375 40.375 22.484375 35.828125 
Q 18.609375 31.296875 18.609375 23.390625 
Q 18.609375 15.53125 22.484375 10.953125 
Q 26.375 6.390625 33.015625 6.390625 
Q 39.65625 6.390625 43.53125 10.953125 
Q 47.40625 15.53125 47.40625 23.390625 
Q 47.40625 31.296875 43.53125 35.828125 
Q 39.65625 40.375 33.015625 40.375 
z
M 52.59375 71.296875 
L 52.59375 62.3125 
Q 48.875 64.0625 45.09375 64.984375 
Q 41.3125 65.921875 37.59375 65.921875 
Q 27.828125 65.921875 22.671875 59.328125 
Q 17.53125 52.734375 16.796875 39.40625 
Q 19.671875 43.65625 24.015625 45.921875 
Q 28.375 48.1875 33.59375 48.1875 
Q 44.578125 48.1875 50.953125 41.515625 
Q 57.328125 34.859375 57.328125 23.390625 
Q 57.328125 12.15625 50.6875 5.359375 
Q 44.046875 -1.421875 33.015625 -1.421875 
Q 20.359375 -1.421875 13.671875 8.265625 
Q 6.984375 17.96875 6.984375 36.375 
Q 6.984375 53.65625 15.1875 63.9375 
Q 23.390625 74.21875 37.203125 74.21875 
Q 40.921875 74.21875 44.703125 73.484375 
Q 48.484375 72.75 52.59375 71.296875 
z
" id="DejaVuSans-36"/>
      </defs>
      <g transform="translate(287.673813 316.356875)scale(0.2 -0.2)">
       <use xlink:href="#DejaVuSans-36"/>
      </g>
     </g>
    </g>
    <g id="xtick_5">
     <g id="line2d_9">
      <path clip-path="url(#pcb9009ce64)" d="M 373.101751 294.16 
L 373.101751 24.84 
" style="fill:none;stroke:#b0b0b0;stroke-linecap:square;stroke-width:0.8;"/>
     </g>
     <g id="line2d_10">
      <g>
       <use style="stroke:#000000;stroke-width:0.8;" x="373.101751" xlink:href="#me3307de5c5" y="294.16"/>
      </g>
     </g>
     <g id="text_5">
      <!-- 8 -->
      <defs>
       <path d="M 31.78125 34.625 
Q 24.75 34.625 20.71875 30.859375 
Q 16.703125 27.09375 16.703125 20.515625 
Q 16.703125 13.921875 20.71875 10.15625 
Q 24.75 6.390625 31.78125 6.390625 
Q 38.8125 6.390625 42.859375 10.171875 
Q 46.921875 13.96875 46.921875 20.515625 
Q 46.921875 27.09375 42.890625 30.859375 
Q 38.875 34.625 31.78125 34.625 
z
M 21.921875 38.8125 
Q 15.578125 40.375 12.03125 44.71875 
Q 8.5 49.078125 8.5 55.328125 
Q 8.5 64.0625 14.71875 69.140625 
Q 20.953125 74.21875 31.78125 74.21875 
Q 42.671875 74.21875 48.875 69.140625 
Q 55.078125 64.0625 55.078125 55.328125 
Q 55.078125 49.078125 51.53125 44.71875 
Q 48 40.375 41.703125 38.8125 
Q 48.828125 37.15625 52.796875 32.3125 
Q 56.78125 27.484375 56.78125 20.515625 
Q 56.78125 9.90625 50.3125 4.234375 
Q 43.84375 -1.421875 31.78125 -1.421875 
Q 19.734375 -1.421875 13.25 4.234375 
Q 6.78125 9.90625 6.78125 20.515625 
Q 6.78125 27.484375 10.78125 32.3125 
Q 14.796875 37.15625 21.921875 38.8125 
z
M 18.3125 54.390625 
Q 18.3125 48.734375 21.84375 45.5625 
Q 25.390625 42.390625 31.78125 42.390625 
Q 38.140625 42.390625 41.71875 45.5625 
Q 45.3125 48.734375 45.3125 54.390625 
Q 45.3125 60.0625 41.71875 63.234375 
Q 38.140625 66.40625 31.78125 66.40625 
Q 25.390625 66.40625 21.84375 63.234375 
Q 18.3125 60.0625 18.3125 54.390625 
z
" id="DejaVuSans-38"/>
      </defs>
      <g transform="translate(366.739251 316.356875)scale(0.2 -0.2)">
       <use xlink:href="#DejaVuSans-38"/>
      </g>
     </g>
    </g>
    <g id="text_6">
     <!-- log10(# f-evals / dimension) -->
     <defs>
      <path d="M 9.421875 75.984375 
L 18.40625 75.984375 
L 18.40625 0 
L 9.421875 0 
z
" id="DejaVuSans-6c"/>
      <path d="M 30.609375 48.390625 
Q 23.390625 48.390625 19.1875 42.75 
Q 14.984375 37.109375 14.984375 27.296875 
Q 14.984375 17.484375 19.15625 11.84375 
Q 23.34375 6.203125 30.609375 6.203125 
Q 37.796875 6.203125 41.984375 11.859375 
Q 46.1875 17.53125 46.1875 27.296875 
Q 46.1875 37.015625 41.984375 42.703125 
Q 37.796875 48.390625 30.609375 48.390625 
z
M 30.609375 56 
Q 42.328125 56 49.015625 48.375 
Q 55.71875 40.765625 55.71875 27.296875 
Q 55.71875 13.875 49.015625 6.21875 
Q 42.328125 -1.421875 30.609375 -1.421875 
Q 18.84375 -1.421875 12.171875 6.21875 
Q 5.515625 13.875 5.515625 27.296875 
Q 5.515625 40.765625 12.171875 48.375 
Q 18.84375 56 30.609375 56 
z
" id="DejaVuSans-6f"/>
      <path d="M 45.40625 27.984375 
Q 45.40625 37.75 41.375 43.109375 
Q 37.359375 48.484375 30.078125 48.484375 
Q 22.859375 48.484375 18.828125 43.109375 
Q 14.796875 37.75 14.796875 27.984375 
Q 14.796875 18.265625 18.828125 12.890625 
Q 22.859375 7.515625 30.078125 7.515625 
Q 37.359375 7.515625 41.375 12.890625 
Q 45.40625 18.265625 45.40625 27.984375 
z
M 54.390625 6.78125 
Q 54.390625 -7.171875 48.1875 -13.984375 
Q 42 -20.796875 29.203125 -20.796875 
Q 24.46875 -20.796875 20.265625 -20.09375 
Q 16.0625 -19.390625 12.109375 -17.921875 
L 12.109375 -9.1875 
Q 16.0625 -11.328125 19.921875 -12.34375 
Q 23.78125 -13.375 27.78125 -13.375 
Q 36.625 -13.375 41.015625 -8.765625 
Q 45.40625 -4.15625 45.40625 5.171875 
L 45.40625 9.625 
Q 42.625 4.78125 38.28125 2.390625 
Q 33.9375 0 27.875 0 
Q 17.828125 0 11.671875 7.65625 
Q 5.515625 15.328125 5.515625 27.984375 
Q 5.515625 40.671875 11.671875 48.328125 
Q 17.828125 56 27.875 56 
Q 33.9375 56 38.28125 53.609375 
Q 42.625 51.21875 45.40625 46.390625 
L 45.40625 54.6875 
L 54.390625 54.6875 
z
" id="DejaVuSans-67"/>
      <path d="M 12.40625 8.296875 
L 28.515625 8.296875 
L 28.515625 63.921875 
L 10.984375 60.40625 
L 10.984375 69.390625 
L 28.421875 72.90625 
L 38.28125 72.90625 
L 38.28125 8.296875 
L 54.390625 8.296875 
L 54.390625 0 
L 12.40625 0 
z
" id="DejaVuSans-31"/>
      <path d="M 31 75.875 
Q 24.46875 64.65625 21.28125 53.65625 
Q 18.109375 42.671875 18.109375 31.390625 
Q 18.109375 20.125 21.3125 9.0625 
Q 24.515625 -2 31 -13.1875 
L 23.1875 -13.1875 
Q 15.875 -1.703125 12.234375 9.375 
Q 8.59375 20.453125 8.59375 31.390625 
Q 8.59375 42.28125 12.203125 53.3125 
Q 15.828125 64.359375 23.1875 75.875 
z
" id="DejaVuSans-28"/>
      <path d="M 51.125 44 
L 36.921875 44 
L 32.8125 27.6875 
L 47.125 27.6875 
z
M 43.796875 71.78125 
L 38.71875 51.515625 
L 52.984375 51.515625 
L 58.109375 71.78125 
L 65.921875 71.78125 
L 60.890625 51.515625 
L 76.125 51.515625 
L 76.125 44 
L 58.984375 44 
L 54.984375 27.6875 
L 70.515625 27.6875 
L 70.515625 20.21875 
L 53.078125 20.21875 
L 48 0 
L 40.1875 0 
L 45.21875 20.21875 
L 30.90625 20.21875 
L 25.875 0 
L 18.015625 0 
L 23.09375 20.21875 
L 7.71875 20.21875 
L 7.71875 27.6875 
L 24.90625 27.6875 
L 29 44 
L 13.28125 44 
L 13.28125 51.515625 
L 30.90625 51.515625 
L 35.890625 71.78125 
z
" id="DejaVuSans-23"/>
      <path id="DejaVuSans-20"/>
      <path d="M 37.109375 75.984375 
L 37.109375 68.5 
L 28.515625 68.5 
Q 23.6875 68.5 21.796875 66.546875 
Q 19.921875 64.59375 19.921875 59.515625 
L 19.921875 54.6875 
L 34.71875 54.6875 
L 34.71875 47.703125 
L 19.921875 47.703125 
L 19.921875 0 
L 10.890625 0 
L 10.890625 47.703125 
L 2.296875 47.703125 
L 2.296875 54.6875 
L 10.890625 54.6875 
L 10.890625 58.5 
Q 10.890625 67.625 15.140625 71.796875 
Q 19.390625 75.984375 28.609375 75.984375 
z
" id="DejaVuSans-66"/>
      <path d="M 4.890625 31.390625 
L 31.203125 31.390625 
L 31.203125 23.390625 
L 4.890625 23.390625 
z
" id="DejaVuSans-2d"/>
      <path d="M 56.203125 29.59375 
L 56.203125 25.203125 
L 14.890625 25.203125 
Q 15.484375 15.921875 20.484375 11.0625 
Q 25.484375 6.203125 34.421875 6.203125 
Q 39.59375 6.203125 44.453125 7.46875 
Q 49.3125 8.734375 54.109375 11.28125 
L 54.109375 2.78125 
Q 49.265625 0.734375 44.1875 -0.34375 
Q 39.109375 -1.421875 33.890625 -1.421875 
Q 20.796875 -1.421875 13.15625 6.1875 
Q 5.515625 13.8125 5.515625 26.8125 
Q 5.515625 40.234375 12.765625 48.109375 
Q 20.015625 56 32.328125 56 
Q 43.359375 56 49.78125 48.890625 
Q 56.203125 41.796875 56.203125 29.59375 
z
M 47.21875 32.234375 
Q 47.125 39.59375 43.09375 43.984375 
Q 39.0625 48.390625 32.421875 48.390625 
Q 24.90625 48.390625 20.390625 44.140625 
Q 15.875 39.890625 15.1875 32.171875 
z
" id="DejaVuSans-65"/>
      <path d="M 2.984375 54.6875 
L 12.5 54.6875 
L 29.59375 8.796875 
L 46.6875 54.6875 
L 56.203125 54.6875 
L 35.6875 0 
L 23.484375 0 
z
" id="DejaVuSans-76"/>
      <path d="M 34.28125 27.484375 
Q 23.390625 27.484375 19.1875 25 
Q 14.984375 22.515625 14.984375 16.5 
Q 14.984375 11.71875 18.140625 8.90625 
Q 21.296875 6.109375 26.703125 6.109375 
Q 34.1875 6.109375 38.703125 11.40625 
Q 43.21875 16.703125 43.21875 25.484375 
L 43.21875 27.484375 
z
M 52.203125 31.203125 
L 52.203125 0 
L 43.21875 0 
L 43.21875 8.296875 
Q 40.140625 3.328125 35.546875 0.953125 
Q 30.953125 -1.421875 24.3125 -1.421875 
Q 15.921875 -1.421875 10.953125 3.296875 
Q 6 8.015625 6 15.921875 
Q 6 25.140625 12.171875 29.828125 
Q 18.359375 34.515625 30.609375 34.515625 
L 43.21875 34.515625 
L 43.21875 35.40625 
Q 43.21875 41.609375 39.140625 45 
Q 35.0625 48.390625 27.6875 48.390625 
Q 23 48.390625 18.546875 47.265625 
Q 14.109375 46.140625 10.015625 43.890625 
L 10.015625 52.203125 
Q 14.9375 54.109375 19.578125 55.046875 
Q 24.21875 56 28.609375 56 
Q 40.484375 56 46.34375 49.84375 
Q 52.203125 43.703125 52.203125 31.203125 
z
" id="DejaVuSans-61"/>
      <path d="M 44.28125 53.078125 
L 44.28125 44.578125 
Q 40.484375 46.53125 36.375 47.5 
Q 32.28125 48.484375 27.875 48.484375 
Q 21.1875 48.484375 17.84375 46.4375 
Q 14.5 44.390625 14.5 40.28125 
Q 14.5 37.15625 16.890625 35.375 
Q 19.28125 33.59375 26.515625 31.984375 
L 29.59375 31.296875 
Q 39.15625 29.25 43.1875 25.515625 
Q 47.21875 21.78125 47.21875 15.09375 
Q 47.21875 7.46875 41.1875 3.015625 
Q 35.15625 -1.421875 24.609375 -1.421875 
Q 20.21875 -1.421875 15.453125 -0.5625 
Q 10.6875 0.296875 5.421875 2 
L 5.421875 11.28125 
Q 10.40625 8.6875 15.234375 7.390625 
Q 20.0625 6.109375 24.8125 6.109375 
Q 31.15625 6.109375 34.5625 8.28125 
Q 37.984375 10.453125 37.984375 14.40625 
Q 37.984375 18.0625 35.515625 20.015625 
Q 33.0625 21.96875 24.703125 23.78125 
L 21.578125 24.515625 
Q 13.234375 26.265625 9.515625 29.90625 
Q 5.8125 33.546875 5.8125 39.890625 
Q 5.8125 47.609375 11.28125 51.796875 
Q 16.75 56 26.8125 56 
Q 31.78125 56 36.171875 55.265625 
Q 40.578125 54.546875 44.28125 53.078125 
z
" id="DejaVuSans-73"/>
      <path d="M 25.390625 72.90625 
L 33.6875 72.90625 
L 8.296875 -9.28125 
L 0 -9.28125 
z
" id="DejaVuSans-2f"/>
      <path d="M 45.40625 46.390625 
L 45.40625 75.984375 
L 54.390625 75.984375 
L 54.390625 0 
L 45.40625 0 
L 45.40625 8.203125 
Q 42.578125 3.328125 38.25 0.953125 
Q 33.9375 -1.421875 27.875 -1.421875 
Q 17.96875 -1.421875 11.734375 6.484375 
Q 5.515625 14.40625 5.515625 27.296875 
Q 5.515625 40.1875 11.734375 48.09375 
Q 17.96875 56 27.875 56 
Q 33.9375 56 38.25 53.625 
Q 42.578125 51.265625 45.40625 46.390625 
z
M 14.796875 27.296875 
Q 14.796875 17.390625 18.875 11.75 
Q 22.953125 6.109375 30.078125 6.109375 
Q 37.203125 6.109375 41.296875 11.75 
Q 45.40625 17.390625 45.40625 27.296875 
Q 45.40625 37.203125 41.296875 42.84375 
Q 37.203125 48.484375 30.078125 48.484375 
Q 22.953125 48.484375 18.875 42.84375 
Q 14.796875 37.203125 14.796875 27.296875 
z
" id="DejaVuSans-64"/>
      <path d="M 9.421875 54.6875 
L 18.40625 54.6875 
L 18.40625 0 
L 9.421875 0 
z
M 9.421875 75.984375 
L 18.40625 75.984375 
L 18.40625 64.59375 
L 9.421875 64.59375 
z
" id="DejaVuSans-69"/>
      <path d="M 52 44.1875 
Q 55.375 50.25 60.0625 53.125 
Q 64.75 56 71.09375 56 
Q 79.640625 56 84.28125 50.015625 
Q 88.921875 44.046875 88.921875 33.015625 
L 88.921875 0 
L 79.890625 0 
L 79.890625 32.71875 
Q 79.890625 40.578125 77.09375 44.375 
Q 74.3125 48.1875 68.609375 48.1875 
Q 61.625 48.1875 57.5625 43.546875 
Q 53.515625 38.921875 53.515625 30.90625 
L 53.515625 0 
L 44.484375 0 
L 44.484375 32.71875 
Q 44.484375 40.625 41.703125 44.40625 
Q 38.921875 48.1875 33.109375 48.1875 
Q 26.21875 48.1875 22.15625 43.53125 
Q 18.109375 38.875 18.109375 30.90625 
L 18.109375 0 
L 9.078125 0 
L 9.078125 54.6875 
L 18.109375 54.6875 
L 18.109375 46.1875 
Q 21.1875 51.21875 25.484375 53.609375 
Q 29.78125 56 35.6875 56 
Q 41.65625 56 45.828125 52.96875 
Q 50 49.953125 52 44.1875 
z
" id="DejaVuSans-6d"/>
      <path d="M 54.890625 33.015625 
L 54.890625 0 
L 45.90625 0 
L 45.90625 32.71875 
Q 45.90625 40.484375 42.875 44.328125 
Q 39.84375 48.1875 33.796875 48.1875 
Q 26.515625 48.1875 22.3125 43.546875 
Q 18.109375 38.921875 18.109375 30.90625 
L 18.109375 0 
L 9.078125 0 
L 9.078125 54.6875 
L 18.109375 54.6875 
L 18.109375 46.1875 
Q 21.34375 51.125 25.703125 53.5625 
Q 30.078125 56 35.796875 56 
Q 45.21875 56 50.046875 50.171875 
Q 54.890625 44.34375 54.890625 33.015625 
z
" id="DejaVuSans-6e"/>
      <path d="M 8.015625 75.875 
L 15.828125 75.875 
Q 23.140625 64.359375 26.78125 53.3125 
Q 30.421875 42.28125 30.421875 31.390625 
Q 30.421875 20.453125 26.78125 9.375 
Q 23.140625 -1.703125 15.828125 -13.1875 
L 8.015625 -13.1875 
Q 14.5 -2 17.703125 9.0625 
Q 20.90625 20.125 20.90625 31.390625 
Q 20.90625 42.671875 17.703125 53.65625 
Q 14.5 64.65625 8.015625 75.875 
z
" id="DejaVuSans-29"/>
     </defs>
     <g transform="translate(107.571219 337.433594)scale(0.17 -0.17)">
      <use xlink:href="#DejaVuSans-6c"/>
      <use x="27.783203" xlink:href="#DejaVuSans-6f"/>
      <use x="88.964844" xlink:href="#DejaVuSans-67"/>
      <use x="152.441406" xlink:href="#DejaVuSans-31"/>
      <use x="216.064453" xlink:href="#DejaVuSans-30"/>
      <use x="279.6875" xlink:href="#DejaVuSans-28"/>
      <use x="318.701172" xlink:href="#DejaVuSans-23"/>
      <use x="402.490234" xlink:href="#DejaVuSans-20"/>
      <use x="434.277344" xlink:href="#DejaVuSans-66"/>
      <use x="469.404297" xlink:href="#DejaVuSans-2d"/>
      <use x="505.488281" xlink:href="#DejaVuSans-65"/>
      <use x="567.011719" xlink:href="#DejaVuSans-76"/>
      <use x="626.191406" xlink:href="#DejaVuSans-61"/>
      <use x="687.470703" xlink:href="#DejaVuSans-6c"/>
      <use x="715.253906" xlink:href="#DejaVuSans-73"/>
      <use x="767.353516" xlink:href="#DejaVuSans-20"/>
      <use x="799.140625" xlink:href="#DejaVuSans-2f"/>
      <use x="832.832031" xlink:href="#DejaVuSans-20"/>
      <use x="864.619141" xlink:href="#DejaVuSans-64"/>
      <use x="928.095703" xlink:href="#DejaVuSans-69"/>
      <use x="955.878906" xlink:href="#DejaVuSans-6d"/>
      <use x="1053.291016" xlink:href="#DejaVuSans-65"/>
      <use x="1114.814453" xlink:href="#DejaVuSans-6e"/>
      <use x="1178.193359" xlink:href="#DejaVuSans-73"/>
      <use x="1230.292969" xlink:href="#DejaVuSans-69"/>
      <use x="1258.076172" xlink:href="#DejaVuSans-6f"/>
      <use x="1319.257812" xlink:href="#DejaVuSans-6e"/>
      <use x="1382.636719" xlink:href="#DejaVuSans-29"/>
     </g>
    </g>
   </g>
   <g id="matplotlib.axis_2">
    <g id="ytick_1">
     <g id="line2d_11">
      <path clip-path="url(#pcb9009ce64)" d="M 56.84 294.16 
L 399.984 294.16 
" style="fill:none;stroke:#b0b0b0;stroke-linecap:square;stroke-width:0.8;"/>
     </g>
     <g id="line2d_12">
      <defs>
       <path d="M 0 0 
L -3.5 0 
" id="mbd50334fdf" style="stroke:#000000;stroke-width:0.8;"/>
      </defs>
      <g>
       <use style="stroke:#000000;stroke-width:0.8;" x="56.84" xlink:href="#mbd50334fdf" y="294.16"/>
      </g>
     </g>
     <g id="text_7">
      <!-- 0.0 -->
      <defs>
       <path d="M 10.6875 12.40625 
L 21 12.40625 
L 21 0 
L 10.6875 0 
z
" id="DejaVuSans-2e"/>
      </defs>
      <g transform="translate(24.395 300.23875)scale(0.16 -0.16)">
       <use xlink:href="#DejaVuSans-30"/>
       <use x="63.623047" xlink:href="#DejaVuSans-2e"/>
       <use x="95.410156" xlink:href="#DejaVuSans-30"/>
      </g>
     </g>
    </g>
    <g id="ytick_2">
     <g id="line2d_13">
      <path clip-path="url(#pcb9009ce64)" d="M 56.84 240.829307 
L 399.984 240.829307 
" style="fill:none;stroke:#b0b0b0;stroke-linecap:square;stroke-width:0.8;"/>
     </g>
     <g id="line2d_14">
      <g>
       <use style="stroke:#000000;stroke-width:0.8;" x="56.84" xlink:href="#mbd50334fdf" y="240.829307"/>
      </g>
     </g>
     <g id="text_8">
      <!-- 0.2 -->
      <g transform="translate(24.395 246.908057)scale(0.16 -0.16)">
       <use xlink:href="#DejaVuSans-30"/>
       <use x="63.623047" xlink:href="#DejaVuSans-2e"/>
       <use x="95.410156" xlink:href="#DejaVuSans-32"/>
      </g>
     </g>
    </g>
    <g id="ytick_3">
     <g id="line2d_15">
      <path clip-path="url(#pcb9009ce64)" d="M 56.84 187.498614 
L 399.984 187.498614 
" style="fill:none;stroke:#b0b0b0;stroke-linecap:square;stroke-width:0.8;"/>
     </g>
     <g id="line2d_16">
      <g>
       <use style="stroke:#000000;stroke-width:0.8;" x="56.84" xlink:href="#mbd50334fdf" y="187.498614"/>
      </g>
     </g>
     <g id="text_9">
      <!-- 0.4 -->
      <g transform="translate(24.395 193.577364)scale(0.16 -0.16)">
       <use xlink:href="#DejaVuSans-30"/>
       <use x="63.623047" xlink:href="#DejaVuSans-2e"/>
       <use x="95.410156" xlink:href="#DejaVuSans-34"/>
      </g>
     </g>
    </g>
    <g id="ytick_4">
     <g id="line2d_17">
      <path clip-path="url(#pcb9009ce64)" d="M 56.84 134.167921 
L 399.984 134.167921 
" style="fill:none;stroke:#b0b0b0;stroke-linecap:square;stroke-width:0.8;"/>
     </g>
     <g id="line2d_18">
      <g>
       <use style="stroke:#000000;stroke-width:0.8;" x="56.84" xlink:href="#mbd50334fdf" y="134.167921"/>
      </g>
     </g>
     <g id="text_10">
      <!-- 0.6 -->
      <g transform="translate(24.395 140.246671)scale(0.16 -0.16)">
       <use xlink:href="#DejaVuSans-30"/>
       <use x="63.623047" xlink:href="#DejaVuSans-2e"/>
       <use x="95.410156" xlink:href="#DejaVuSans-36"/>
      </g>
     </g>
    </g>
    <g id="ytick_5">
     <g id="line2d_19">
      <path clip-path="url(#pcb9009ce64)" d="M 56.84 80.837228 
L 399.984 80.837228 
" style="fill:none;stroke:#b0b0b0;stroke-linecap:square;stroke-width:0.8;"/>
     </g>
     <g id="line2d_20">
      <g>
       <use style="stroke:#000000;stroke-width:0.8;" x="56.84" xlink:href="#mbd50334fdf" y="80.837228"/>
      </g>
     </g>
     <g id="text_11">
      <!-- 0.8 -->
      <g transform="translate(24.395 86.915978)scale(0.16 -0.16)">
       <use xlink:href="#DejaVuSans-30"/>
       <use x="63.623047" xlink:href="#DejaVuSans-2e"/>
       <use x="95.410156" xlink:href="#DejaVuSans-38"/>
      </g>
     </g>
    </g>
    <g id="ytick_6">
     <g id="line2d_21">
      <path clip-path="url(#pcb9009ce64)" d="M 56.84 27.506535 
L 399.984 27.506535 
" style="fill:none;stroke:#b0b0b0;stroke-linecap:square;stroke-width:0.8;"/>
     </g>
     <g id="line2d_22">
      <g>
       <use style="stroke:#000000;stroke-width:0.8;" x="56.84" xlink:href="#mbd50334fdf" y="27.506535"/>
      </g>
     </g>
     <g id="text_12">
      <!-- 1.0 -->
      <g transform="translate(24.395 33.585285)scale(0.16 -0.16)">
       <use xlink:href="#DejaVuSans-31"/>
       <use x="63.623047" xlink:href="#DejaVuSans-2e"/>
       <use x="95.410156" xlink:href="#DejaVuSans-30"/>
      </g>
     </g>
    </g>
    <g id="text_13">
     <!-- Fraction of function,target pairs -->
     <defs>
      <path d="M 9.8125 72.90625 
L 51.703125 72.90625 
L 51.703125 64.59375 
L 19.671875 64.59375 
L 19.671875 43.109375 
L 48.578125 43.109375 
L 48.578125 34.8125 
L 19.671875 34.8125 
L 19.671875 0 
L 9.8125 0 
z
" id="DejaVuSans-46"/>
      <path d="M 41.109375 46.296875 
Q 39.59375 47.171875 37.8125 47.578125 
Q 36.03125 48 33.890625 48 
Q 26.265625 48 22.1875 43.046875 
Q 18.109375 38.09375 18.109375 28.8125 
L 18.109375 0 
L 9.078125 0 
L 9.078125 54.6875 
L 18.109375 54.6875 
L 18.109375 46.1875 
Q 20.953125 51.171875 25.484375 53.578125 
Q 30.03125 56 36.53125 56 
Q 37.453125 56 38.578125 55.875 
Q 39.703125 55.765625 41.0625 55.515625 
z
" id="DejaVuSans-72"/>
      <path d="M 48.78125 52.59375 
L 48.78125 44.1875 
Q 44.96875 46.296875 41.140625 47.34375 
Q 37.3125 48.390625 33.40625 48.390625 
Q 24.65625 48.390625 19.8125 42.84375 
Q 14.984375 37.3125 14.984375 27.296875 
Q 14.984375 17.28125 19.8125 11.734375 
Q 24.65625 6.203125 33.40625 6.203125 
Q 37.3125 6.203125 41.140625 7.25 
Q 44.96875 8.296875 48.78125 10.40625 
L 48.78125 2.09375 
Q 45.015625 0.34375 40.984375 -0.53125 
Q 36.96875 -1.421875 32.421875 -1.421875 
Q 20.0625 -1.421875 12.78125 6.34375 
Q 5.515625 14.109375 5.515625 27.296875 
Q 5.515625 40.671875 12.859375 48.328125 
Q 20.21875 56 33.015625 56 
Q 37.15625 56 41.109375 55.140625 
Q 45.0625 54.296875 48.78125 52.59375 
z
" id="DejaVuSans-63"/>
      <path d="M 18.3125 70.21875 
L 18.3125 54.6875 
L 36.8125 54.6875 
L 36.8125 47.703125 
L 18.3125 47.703125 
L 18.3125 18.015625 
Q 18.3125 11.328125 20.140625 9.421875 
Q 21.96875 7.515625 27.59375 7.515625 
L 36.8125 7.515625 
L 36.8125 0 
L 27.59375 0 
Q 17.1875 0 13.234375 3.875 
Q 9.28125 7.765625 9.28125 18.015625 
L 9.28125 47.703125 
L 2.6875 47.703125 
L 2.6875 54.6875 
L 9.28125 54.6875 
L 9.28125 70.21875 
z
" id="DejaVuSans-74"/>
      <path d="M 8.5 21.578125 
L 8.5 54.6875 
L 17.484375 54.6875 
L 17.484375 21.921875 
Q 17.484375 14.15625 20.5 10.265625 
Q 23.53125 6.390625 29.59375 6.390625 
Q 36.859375 6.390625 41.078125 11.03125 
Q 45.3125 15.671875 45.3125 23.6875 
L 45.3125 54.6875 
L 54.296875 54.6875 
L 54.296875 0 
L 45.3125 0 
L 45.3125 8.40625 
Q 42.046875 3.421875 37.71875 1 
Q 33.40625 -1.421875 27.6875 -1.421875 
Q 18.265625 -1.421875 13.375 4.4375 
Q 8.5 10.296875 8.5 21.578125 
z
M 31.109375 56 
z
" id="DejaVuSans-75"/>
      <path d="M 11.71875 12.40625 
L 22.015625 12.40625 
L 22.015625 4 
L 14.015625 -11.625 
L 7.71875 -11.625 
L 11.71875 4 
z
" id="DejaVuSans-2c"/>
      <path d="M 18.109375 8.203125 
L 18.109375 -20.796875 
L 9.078125 -20.796875 
L 9.078125 54.6875 
L 18.109375 54.6875 
L 18.109375 46.390625 
Q 20.953125 51.265625 25.265625 53.625 
Q 29.59375 56 35.59375 56 
Q 45.5625 56 51.78125 48.09375 
Q 58.015625 40.1875 58.015625 27.296875 
Q 58.015625 14.40625 51.78125 6.484375 
Q 45.5625 -1.421875 35.59375 -1.421875 
Q 29.59375 -1.421875 25.265625 0.953125 
Q 20.953125 3.328125 18.109375 8.203125 
z
M 48.6875 27.296875 
Q 48.6875 37.203125 44.609375 42.84375 
Q 40.53125 48.484375 33.40625 48.484375 
Q 26.265625 48.484375 22.1875 42.84375 
Q 18.109375 37.203125 18.109375 27.296875 
Q 18.109375 17.390625 22.1875 11.75 
Q 26.265625 6.109375 33.40625 6.109375 
Q 40.53125 6.109375 44.609375 11.75 
Q 48.6875 17.390625 48.6875 27.296875 
z
" id="DejaVuSans-70"/>
     </defs>
     <g transform="translate(16.859531 294.639375)rotate(-90)scale(0.17 -0.17)">
      <use xlink:href="#DejaVuSans-46"/>
      <use x="57.410156" xlink:href="#DejaVuSans-72"/>
      <use x="98.523438" xlink:href="#DejaVuSans-61"/>
      <use x="159.802734" xlink:href="#DejaVuSans-63"/>
      <use x="214.783203" xlink:href="#DejaVuSans-74"/>
      <use x="253.992188" xlink:href="#DejaVuSans-69"/>
      <use x="281.775391" xlink:href="#DejaVuSans-6f"/>
      <use x="342.957031" xlink:href="#DejaVuSans-6e"/>
      <use x="406.335938" xlink:href="#DejaVuSans-20"/>
      <use x="438.123047" xlink:href="#DejaVuSans-6f"/>
      <use x="499.304688" xlink:href="#DejaVuSans-66"/>
      <use x="534.509766" xlink:href="#DejaVuSans-20"/>
      <use x="566.296875" xlink:href="#DejaVuSans-66"/>
      <use x="601.501953" xlink:href="#DejaVuSans-75"/>
      <use x="664.880859" xlink:href="#DejaVuSans-6e"/>
      <use x="728.259766" xlink:href="#DejaVuSans-63"/>
      <use x="783.240234" xlink:href="#DejaVuSans-74"/>
      <use x="822.449219" xlink:href="#DejaVuSans-69"/>
      <use x="850.232422" xlink:href="#DejaVuSans-6f"/>
      <use x="911.414062" xlink:href="#DejaVuSans-6e"/>
      <use x="974.792969" xlink:href="#DejaVuSans-2c"/>
      <use x="1006.580078" xlink:href="#DejaVuSans-74"/>
      <use x="1045.789062" xlink:href="#DejaVuSans-61"/>
      <use x="1107.068359" xlink:href="#DejaVuSans-72"/>
      <use x="1148.166016" xlink:href="#DejaVuSans-67"/>
      <use x="1211.642578" xlink:href="#DejaVuSans-65"/>
      <use x="1273.166016" xlink:href="#DejaVuSans-74"/>
      <use x="1312.375" xlink:href="#DejaVuSans-20"/>
      <use x="1344.162109" xlink:href="#DejaVuSans-70"/>
      <use x="1407.638672" xlink:href="#DejaVuSans-61"/>
      <use x="1468.917969" xlink:href="#DejaVuSans-69"/>
      <use x="1496.701172" xlink:href="#DejaVuSans-72"/>
      <use x="1537.814453" xlink:href="#DejaVuSans-73"/>
     </g>
    </g>
   </g>
   <g id="line2d_23">
    <defs>
     <path d="M 0 1.5 
C 0.397805 1.5 0.77937 1.341951 1.06066 1.06066 
C 1.341951 0.77937 1.5 0.397805 1.5 0 
C 1.5 -0.397805 1.341951 -0.77937 1.06066 -1.06066 
C 0.77937 -1.341951 0.397805 -1.5 0 -1.5 
C -0.397805 -1.5 -0.77937 -1.341951 -1.06066 -1.06066 
C -1.341951 -0.77937 -1.5 -0.397805 -1.5 0 
C -1.5 0.397805 -1.341951 0.77937 -1.06066 1.06066 
C -0.77937 1.341951 -0.397805 1.5 0 1.5 
z
" id="mebc80c92d9" style="stroke:#00bfbf;"/>
    </defs>
    <g>
     <use style="fill:#00bfbf;stroke:#00bfbf;" x="269.302435" xlink:href="#mebc80c92d9" y="27.506535"/>
     <use style="fill:#00bfbf;stroke:#00bfbf;" x="269.302435" xlink:href="#mebc80c92d9" y="27.506535"/>
    </g>
   </g>
   <g id="line2d_24">
    <path d="M 44.939466 294.16 
L 44.939466 272.723153 
L 56.84 272.723153 
L 56.84 263.311854 
L 63.801366 263.311854 
L 63.801366 256.514805 
L 68.740534 256.514805 
L 68.740534 255.991955 
L 72.57165 255.991955 
L 72.57165 254.423405 
L 75.7019 254.423405 
L 75.7019 253.377705 
L 78.348489 253.377705 
L 78.348489 251.809156 
L 80.641068 251.809156 
L 80.641068 250.763456 
L 82.663267 250.763456 
L 82.663267 249.194906 
L 86.10855 249.194906 
L 86.10855 248.149206 
L 87.602435 248.149206 
L 87.602435 247.626356 
L 90.249023 247.626356 
L 90.249023 246.580656 
L 92.541603 246.580656 
L 92.541603 242.397857 
L 93.582457 242.397857 
L 93.582457 240.829307 
L 95.492072 240.829307 
L 95.492072 237.692207 
L 97.210389 237.692207 
L 97.210389 236.123658 
L 102.149557 236.123658 
L 102.149557 235.600808 
L 103.334085 235.600808 
L 103.334085 235.077958 
L 103.897048 235.077958 
L 103.897048 234.555108 
L 108.697197 234.555108 
L 108.697197 234.032258 
L 109.514915 234.032258 
L 109.514915 232.986558 
L 109.909618 232.986558 
L 109.909618 232.463708 
L 110.295451 232.463708 
L 110.295451 231.940858 
L 110.672804 231.940858 
L 110.672804 230.895158 
L 111.403503 230.895158 
L 111.403503 228.803758 
L 112.104369 228.803758 
L 112.104369 228.280909 
L 113.425701 228.280909 
L 113.425701 227.758059 
L 114.050092 227.758059 
L 114.050092 227.235209 
L 114.353973 227.235209 
L 114.353973 225.143809 
L 114.652569 225.143809 
L 114.652569 224.620959 
L 116.60886 224.620959 
L 116.60886 224.098109 
L 116.870985 224.098109 
L 116.870985 223.575259 
L 118.835278 223.575259 
L 118.835278 223.052409 
L 119.957824 223.052409 
L 119.957824 221.483859 
L 120.597731 221.483859 
L 120.597731 220.96101 
L 122.758949 220.96101 
L 122.758949 220.43816 
L 123.832351 220.43816 
L 123.832351 219.91531 
L 125.641269 219.91531 
L 125.641269 219.39246 
L 127.277634 219.39246 
L 127.277634 218.86961 
L 127.698117 218.86961 
L 127.698117 217.82391 
L 128.901096 217.82391 
L 128.901096 216.77821 
L 129.029702 216.77821 
L 129.029702 215.73251 
L 129.409839 215.73251 
L 129.409839 214.68681 
L 129.534704 214.68681 
L 129.534704 214.16396 
L 129.658667 214.16396 
L 129.658667 213.118261 
L 131.858358 213.118261 
L 131.858358 212.595411 
L 134.191638 212.595411 
L 134.191638 211.549711 
L 134.473872 211.549711 
L 134.473872 211.026861 
L 135.024791 211.026861 
L 135.024791 210.504011 
L 137.927636 210.504011 
L 137.927636 209.981161 
L 138.60101 209.981161 
L 138.60101 208.935461 
L 138.819725 208.935461 
L 138.819725 207.889761 
L 140.606896 207.889761 
L 140.606896 207.366911 
L 141.184594 207.366911 
L 141.184594 206.844061 
L 143.262808 206.844061 
L 143.262808 206.321211 
L 143.704475 206.321211 
L 143.704475 205.798361 
L 143.921119 205.798361 
L 143.921119 205.275512 
L 145.266355 205.275512 
L 145.266355 204.752662 
L 145.464269 204.752662 
L 145.464269 204.229812 
L 145.611221 204.229812 
L 145.708495 203.184112 
L 145.901406 203.184112 
L 145.901406 202.661262 
L 147.546488 202.661262 
L 147.546488 202.138412 
L 148.765841 202.138412 
L 148.765841 201.092712 
L 149.047634 201.092712 
L 149.047634 200.569862 
L 149.442337 200.569862 
L 149.442337 199.524162 
L 150.428016 199.524162 
L 150.428016 197.955613 
L 151.739794 197.955613 
L 151.841888 196.387063 
L 151.875785 196.387063 
L 151.977076 195.341363 
L 152.010708 195.341363 
L 152.077774 194.295663 
L 152.990185 194.295663 
L 152.990185 193.772813 
L 153.179549 193.772813 
L 153.179549 193.249963 
L 154.332661 193.249963 
L 154.332661 192.727113 
L 155.468205 192.727113 
L 155.468205 192.204263 
L 155.632239 192.204263 
L 155.713673 191.158563 
L 155.821653 191.158563 
L 155.821653 189.590014 
L 156.73859 189.590014 
L 156.764082 188.544314 
L 157.681625 188.544314 
L 157.681625 188.021464 
L 158.391182 188.021464 
L 158.391182 187.498614 
L 158.757954 187.498614 
L 158.757954 184.884364 
L 164.763306 184.884364 
L 164.763306 183.838664 
L 165.329363 183.838664 
L 165.329363 183.315814 
L 166.55303 183.315814 
L 166.55303 182.792964 
L 167.007861 182.792964 
L 167.007861 182.270115 
L 167.559961 182.270115 
L 167.559961 181.747265 
L 167.708727 181.747265 
L 167.708727 181.224415 
L 168.677348 181.224415 
L 168.677348 179.655865 
L 170.533292 179.655865 
L 170.533292 177.564465 
L 170.658488 177.564465 
L 170.658488 177.041615 
L 171.161354 177.041615 
L 171.161354 176.518765 
L 171.531762 176.518765 
L 171.531762 175.995915 
L 171.883791 175.995915 
L 171.894347 174.427366 
L 172.249433 174.427366 
L 172.259767 173.381666 
L 172.828727 173.381666 
L 172.828727 172.335966 
L 177.283948 172.335966 
L 177.283948 171.813116 
L 177.85263 171.813116 
L 177.85263 171.290266 
L 178.554093 171.290266 
L 178.554093 170.767416 
L 178.999328 170.767416 
L 178.999328 170.244566 
L 183.405331 170.244566 
L 183.432296 169.198866 
L 183.683722 169.198866 
L 183.715555 167.107467 
L 183.831775 167.107467 
L 183.86859 166.061767 
L 184.263294 166.061767 
L 184.263294 165.016067 
L 184.477588 165.016067 
L 184.477588 164.493217 
L 184.669195 164.493217 
L 184.669195 162.924667 
L 185.080415 162.924667 
L 185.080415 162.401817 
L 185.43892 162.401817 
L 185.496357 160.833267 
L 185.851048 160.833267 
L 185.893123 159.787567 
L 186.046521 159.787567 
L 186.055774 158.741868 
L 186.408273 158.741868 
L 186.408273 158.219018 
L 186.602019 158.219018 
L 186.602019 157.173318 
L 186.75368 157.173318 
L 186.76256 156.127618 
L 188.057404 156.127618 
L 188.090302 155.081918 
L 188.217191 155.081918 
L 188.314788 152.990518 
L 188.39166 152.990518 
L 188.39166 152.467668 
L 188.755141 152.467668 
L 188.755141 151.944818 
L 188.951628 151.944818 
L 188.963346 149.853419 
L 189.23452 149.853419 
L 189.23452 148.807719 
L 189.979147 148.807719 
L 190.008564 147.762019 
L 190.13303 147.762019 
L 190.13303 147.239169 
L 190.26022 147.239169 
L 190.26022 146.716319 
L 190.415204 146.716319 
L 190.415204 146.193469 
L 190.551012 146.193469 
L 190.551012 145.670619 
L 190.721037 145.670619 
L 190.721037 145.147769 
L 190.882412 145.147769 
L 190.882412 143.57922 
L 191.92224 143.57922 
L 191.955074 142.53352 
L 192.218739 142.53352 
L 192.321798 141.48782 
L 192.430624 141.48782 
L 192.459315 139.91927 
L 192.60206 139.91927 
L 192.60206 139.39642 
L 192.843591 139.39642 
L 192.843591 138.87357 
L 193.679482 138.87357 
L 193.780058 137.82787 
L 193.947359 137.82787 
L 193.947359 137.30502 
L 194.265685 137.30502 
L 194.265685 136.78217 
L 195.175838 136.78217 
L 195.175838 136.259321 
L 195.784878 136.259321 
L 195.784878 135.736471 
L 196.612298 135.736471 
L 196.612298 135.213621 
L 196.998075 135.213621 
L 197.024953 134.167921 
L 197.77497 134.167921 
L 197.77497 133.645071 
L 198.236154 133.645071 
L 198.322396 131.030821 
L 198.446457 131.030821 
L 198.509272 128.939421 
L 198.616424 128.939421 
L 198.674187 127.893722 
L 198.866069 127.893722 
L 198.866069 127.370872 
L 199.129423 127.370872 
L 199.200552 126.325172 
L 199.386671 126.325172 
L 199.386671 125.802322 
L 200.015469 125.802322 
L 200.015469 124.756622 
L 200.706979 124.756622 
L 200.706979 124.233772 
L 201.154261 124.233772 
L 201.228963 123.188072 
L 201.407688 123.188072 
L 201.407688 122.665222 
L 202.360531 122.665222 
L 202.360531 122.142372 
L 202.979105 122.142372 
L 202.979105 121.619522 
L 204.496275 121.619522 
L 204.496275 121.096672 
L 204.745683 121.096672 
L 204.745683 120.573823 
L 204.989984 120.573823 
L 204.989984 119.528123 
L 205.553294 119.528123 
L 205.553294 118.482423 
L 205.724777 118.482423 
L 205.830359 116.913873 
L 205.910578 116.913873 
L 205.954175 115.868173 
L 206.075664 115.868173 
L 206.075664 115.345323 
L 206.290492 115.345323 
L 206.290492 114.299623 
L 206.402563 114.299623 
L 206.405391 113.253924 
L 206.513908 113.253924 
L 206.525143 111.162524 
L 207.192901 111.162524 
L 207.196951 109.593974 
L 207.720805 109.593974 
L 207.720805 109.071124 
L 207.885014 109.071124 
L 207.885014 108.025424 
L 208.636184 108.025424 
L 208.636184 107.502574 
L 208.976683 107.502574 
L 209.020444 105.934024 
L 209.088295 105.934024 
L 209.088295 105.411175 
L 209.213598 105.411175 
L 209.213598 104.888325 
L 209.693024 104.888325 
L 209.693024 104.365475 
L 209.891497 104.365475 
L 209.891497 103.842625 
L 210.074005 103.842625 
L 210.074005 103.319775 
L 210.418761 103.319775 
L 210.41988 102.274075 
L 211.036436 102.274075 
L 211.134393 99.136975 
L 211.377398 99.136975 
L 211.387978 98.091275 
L 212.33244 98.091275 
L 212.33244 97.568426 
L 212.576947 97.568426 
L 212.576947 97.045576 
L 212.886973 97.045576 
L 212.886973 96.522726 
L 213.414758 96.522726 
L 213.414758 95.999876 
L 214.864097 95.999876 
L 214.864097 95.477026 
L 215.072727 95.477026 
L 215.167191 93.908476 
L 215.304971 93.908476 
L 215.362964 92.339926 
L 216.003649 92.339926 
L 216.024652 91.294226 
L 216.723129 91.294226 
L 216.723129 90.771376 
L 216.93728 90.771376 
L 216.93728 90.248526 
L 218.260625 90.248526 
L 218.299562 89.202827 
L 218.434099 89.202827 
L 218.540416 86.065727 
L 219.497803 86.065727 
L 219.497803 85.542877 
L 219.678208 85.542877 
L 219.678208 85.020027 
L 221.014809 85.020027 
L 221.014809 83.974327 
L 221.789146 83.974327 
L 221.789146 82.928627 
L 222.198572 82.928627 
L 222.198572 81.882928 
L 222.35451 81.882928 
L 222.405249 80.837228 
L 223.329711 80.837228 
L 223.412863 78.745828 
L 223.457955 78.745828 
L 223.538405 76.654428 
L 224.336768 76.654428 
L 224.395869 75.608728 
L 225.130555 75.608728 
L 225.130555 75.085878 
L 225.394997 75.085878 
L 225.420705 73.517329 
L 225.580166 73.517329 
L 225.580166 72.994479 
L 226.506148 72.994479 
L 226.506148 72.471629 
L 227.261401 72.471629 
L 227.261401 71.425929 
L 228.203469 71.425929 
L 228.203469 70.903079 
L 228.923722 70.903079 
L 228.923722 70.380229 
L 229.633255 70.380229 
L 229.633255 69.857379 
L 230.223063 69.857379 
L 230.223063 69.334529 
L 230.439207 69.334529 
L 230.439207 68.288829 
L 230.585725 68.288829 
L 230.585725 67.765979 
L 231.632496 67.765979 
L 231.632496 67.243129 
L 231.814011 67.243129 
L 231.831704 64.62888 
L 232.558183 64.62888 
L 232.558183 64.10603 
L 233.221692 64.10603 
L 233.221692 63.58318 
L 234.317749 63.58318 
L 234.395462 62.01463 
L 235.437636 62.01463 
L 235.437636 60.96893 
L 236.051729 60.96893 
L 236.051729 60.44608 
L 236.488927 60.44608 
L 236.488927 59.400381 
L 237.466812 59.400381 
L 237.54421 57.308981 
L 238.416106 57.308981 
L 238.416106 56.263281 
L 239.292764 56.263281 
L 239.304211 54.171881 
L 240.148628 54.171881 
L 240.148628 53.649031 
L 240.953453 53.649031 
L 241.006292 51.034782 
L 241.71229 51.034782 
L 241.722233 49.989082 
L 242.35107 49.989082 
L 242.45806 48.943382 
L 243.163642 48.943382 
L 243.163642 48.420532 
L 243.742684 48.420532 
L 243.742684 47.897682 
L 244.493354 47.897682 
L 244.536361 46.851982 
L 245.113328 46.851982 
L 245.113328 46.329132 
L 245.71957 46.329132 
L 245.71957 45.283432 
L 247.42668 45.283432 
L 247.42668 44.760582 
L 248.966265 44.760582 
L 248.966265 44.237732 
L 251.269745 44.237732 
L 251.275444 42.146333 
L 252.522027 42.146333 
L 252.522027 41.100633 
L 252.918222 41.100633 
L 252.918222 40.577783 
L 253.30548 40.577783 
L 253.30548 40.054933 
L 253.684195 40.054933 
L 253.684195 39.532083 
L 254.054736 39.532083 
L 254.054736 38.486383 
L 255.120665 38.486383 
L 255.120665 37.963533 
L 255.461759 37.963533 
L 255.461759 37.440683 
L 255.796208 37.440683 
L 255.796208 35.872134 
L 256.762157 35.872134 
L 256.762157 34.303584 
L 257.676642 34.303584 
L 257.676642 33.780734 
L 259.100219 33.780734 
L 259.100219 33.257884 
L 259.371299 33.257884 
L 259.371299 32.735034 
L 260.414743 32.735034 
L 260.414743 32.212184 
L 261.632623 32.212184 
L 261.632623 31.689334 
L 262.775638 31.689334 
L 262.775638 31.166484 
L 263.424933 31.166484 
L 263.424933 30.643634 
L 263.636021 30.643634 
L 263.636021 30.120784 
L 264.654199 30.120784 
L 264.654199 29.075084 
L 266.876537 29.075084 
L 266.876537 28.552235 
L 267.049374 28.552235 
L 267.049374 28.029385 
L 269.302435 28.029385 
L 269.302435 27.506535 
L 333.569032 27.506535 
L 333.569032 27.506535 
" style="fill:none;stroke:#00bfbf;stroke-linecap:square;stroke-width:1.5;"/>
   </g>
   <g id="line2d_25">
    <defs>
     <path d="M -6 0 
L 6 0 
M 0 6 
L 0 -6 
" id="ma38a8137b2" style="stroke:#00bfbf;stroke-width:1.5;"/>
    </defs>
    <g>
     <use style="fill-opacity:0;stroke:#00bfbf;stroke-width:1.5;" x="86.10855" xlink:href="#ma38a8137b2" y="248.149206"/>
     <use style="fill-opacity:0;stroke:#00bfbf;stroke-width:1.5;" x="157.681625" xlink:href="#ma38a8137b2" y="188.021464"/>
     <use style="fill-opacity:0;stroke:#00bfbf;stroke-width:1.5;" x="207.720805" xlink:href="#ma38a8137b2" y="109.593974"/>
     <use style="fill-opacity:0;stroke:#00bfbf;stroke-width:1.5;" x="255.461759" xlink:href="#ma38a8137b2" y="37.440683"/>
     <use style="fill-opacity:0;stroke:#00bfbf;stroke-width:1.5;" x="269.302435" xlink:href="#ma38a8137b2" y="27.506535"/>
     <use style="fill-opacity:0;stroke:#00bfbf;stroke-width:1.5;" x="333.569032" xlink:href="#ma38a8137b2" y="27.506535"/>
    </g>
   </g>
   <g id="line2d_26">
    <path style="fill:none;stroke:#00bfbf;stroke-linecap:square;stroke-width:1.5;"/>
    <g/>
   </g>
   <g id="line2d_27">
    <path clip-path="url(#pcb9009ce64)" d="M 188.012065 156.127618 
" style="fill:none;stroke:#00bfbf;stroke-linecap:square;stroke-width:1.5;"/>
    <defs>
     <path d="M -12 12 
L 12 -12 
M -12 -12 
L 12 12 
" id="m2e52ad270e" style="stroke:#00bfbf;stroke-width:3;"/>
    </defs>
    <g clip-path="url(#pcb9009ce64)">
     <use style="fill:#00bfbf;stroke:#00bfbf;stroke-width:3;" x="188.012065" xlink:href="#m2e52ad270e" y="156.127618"/>
    </g>
   </g>
   <g id="line2d_28">
    <defs>
     <path d="M 0 1.5 
C 0.397805 1.5 0.77937 1.341951 1.06066 1.06066 
C 1.341951 0.77937 1.5 0.397805 1.5 0 
C 1.5 -0.397805 1.341951 -0.77937 1.06066 -1.06066 
C 0.77937 -1.341951 0.397805 -1.5 0 -1.5 
C -0.397805 -1.5 -0.77937 -1.341951 -1.06066 -1.06066 
C -1.341951 -0.77937 -1.5 -0.397805 -1.5 0 
C -1.5 0.397805 -1.341951 0.77937 -1.06066 1.06066 
C -0.77937 1.341951 -0.397805 1.5 0 1.5 
z
" id="m99b30f0f29" style="stroke:#008000;"/>
    </defs>
    <g>
     <use style="fill:#008000;stroke:#008000;" x="260.566715" xlink:href="#m99b30f0f29" y="105.934024"/>
     <use style="fill:#008000;stroke:#008000;" x="260.566715" xlink:href="#m99b30f0f29" y="105.934024"/>
    </g>
   </g>
   <g id="line2d_29">
    <path d="M 37.9781 294.16 
L 37.9781 278.474502 
L 49.878634 278.474502 
L 49.878634 274.291703 
L 56.84 274.291703 
L 56.84 269.063203 
L 61.779168 269.063203 
L 61.779168 265.403254 
L 65.610284 265.403254 
L 65.610284 263.311854 
L 68.740534 263.311854 
L 68.740534 260.174754 
L 71.387123 260.174754 
L 71.387123 258.083355 
L 73.679702 258.083355 
L 73.679702 257.560505 
L 75.7019 257.560505 
L 75.7019 257.037655 
L 82.015309 257.037655 
L 82.015309 255.991955 
L 85.580236 255.991955 
L 85.580236 255.469105 
L 86.621091 255.469105 
L 86.621091 253.900555 
L 88.530706 253.900555 
L 88.530706 252.332005 
L 89.411353 252.332005 
L 89.411353 250.763456 
L 93.915843 250.763456 
L 93.915843 249.717756 
L 99.019308 249.717756 
L 99.019308 249.194906 
L 100.877209 249.194906 
L 100.877209 248.672056 
L 103.711438 248.672056 
L 103.711438 248.149206 
L 104.080674 248.149206 
L 104.080674 247.626356 
L 105.143003 247.626356 
L 105.143003 245.012106 
L 108.273253 245.012106 
L 108.273253 243.966407 
L 110.167801 243.966407 
L 110.167801 243.443557 
L 113.636365 243.443557 
L 113.636365 242.397857 
L 115.981208 242.397857 
L 115.981208 241.875007 
L 116.870985 241.875007 
L 116.870985 241.352157 
L 118.364869 241.352157 
L 118.364869 240.829307 
L 120.316268 240.829307 
L 120.316268 240.306457 
L 121.011458 240.306457 
L 121.011458 239.783607 
L 124.232309 239.783607 
L 124.232309 239.260757 
L 128.597214 239.260757 
L 128.597214 237.169357 
L 146.218183 237.169357 
L 146.218183 236.123658 
L 152.442025 236.123658 
L 152.442025 235.600808 
L 157.625188 235.600808 
L 157.625188 235.077958 
L 160.585006 235.077958 
L 160.585006 234.555108 
L 165.797263 234.555108 
L 165.797263 234.032258 
L 166.867016 234.032258 
L 166.867016 232.986558 
L 171.499398 232.986558 
L 171.499398 232.463708 
L 171.763704 232.463708 
L 171.763704 231.940858 
L 173.894254 231.940858 
L 173.894254 231.418008 
L 174.436602 231.418008 
L 174.436602 230.895158 
L 177.100516 230.895158 
L 177.100516 230.372308 
L 177.897321 230.372308 
L 177.936949 228.280909 
L 178.743964 228.280909 
L 178.743964 227.758059 
L 179.451437 227.758059 
L 179.451437 226.712359 
L 182.47566 226.712359 
L 182.574136 225.666659 
L 184.004644 225.666659 
L 184.004644 224.620959 
L 185.854169 224.620959 
L 185.854169 223.575259 
L 185.975416 223.575259 
L 185.975416 223.052409 
L 188.176361 223.052409 
L 188.282317 222.006709 
L 188.395697 222.006709 
L 188.395697 220.43816 
L 188.543047 220.43816 
L 188.543047 219.39246 
L 192.994513 219.39246 
L 192.994513 218.86961 
L 193.569358 218.86961 
L 193.642852 217.82391 
L 193.990145 217.82391 
L 193.990145 217.30106 
L 194.265685 217.30106 
L 194.265685 216.25536 
L 194.491657 216.25536 
L 194.491657 215.73251 
L 195.033856 215.73251 
L 195.033856 215.20966 
L 195.589565 215.20966 
L 195.603717 213.118261 
L 196.146705 213.118261 
L 196.160405 212.072561 
L 197.404853 212.072561 
L 197.404853 211.549711 
L 198.025547 211.549711 
L 198.025547 211.026861 
L 198.457691 211.026861 
L 198.457691 209.458311 
L 199.960682 209.458311 
L 199.960682 208.935461 
L 200.105487 208.935461 
L 200.180143 207.366911 
L 201.316022 207.366911 
L 201.316022 206.321211 
L 202.583933 206.321211 
L 202.583933 205.798361 
L 202.915122 205.798361 
L 202.957804 204.752662 
L 203.946123 204.752662 
L 203.946123 204.229812 
L 204.116043 204.229812 
L 204.124656 201.092712 
L 204.303483 201.092712 
L 204.303483 200.047012 
L 204.4657 200.047012 
L 204.4657 199.001312 
L 205.917852 199.001312 
L 205.917852 197.432763 
L 206.597527 197.432763 
L 206.597527 196.909913 
L 207.05279 196.909913 
L 207.05279 194.818513 
L 208.244819 194.818513 
L 208.244819 193.772813 
L 208.704331 193.772813 
L 208.704331 192.727113 
L 208.962883 192.727113 
L 208.962883 191.681413 
L 209.106022 191.681413 
L 209.106022 190.635713 
L 209.2208 190.635713 
L 209.315732 189.590014 
L 209.665374 189.590014 
L 209.665374 189.067164 
L 209.787324 189.067164 
L 209.793514 188.021464 
L 210.033234 188.021464 
L 210.033234 187.498614 
L 210.605006 187.498614 
L 210.605006 186.975764 
L 211.91737 186.975764 
L 211.947426 184.884364 
L 212.529181 184.884364 
L 212.529181 184.361514 
L 213.203875 184.361514 
L 213.203875 183.838664 
L 213.379947 183.838664 
L 213.379947 183.315814 
L 214.043176 183.315814 
L 214.048008 182.270115 
L 214.235398 182.270115 
L 214.235398 181.747265 
L 214.730555 181.747265 
L 214.730555 181.224415 
L 215.076994 181.224415 
L 215.076994 180.178715 
L 216.927836 180.178715 
L 217.017982 179.133015 
L 217.090469 179.133015 
L 217.090469 178.610165 
L 218.016504 178.610165 
L 218.016504 177.564465 
L 218.303097 177.564465 
L 218.303097 176.518765 
L 218.864145 176.518765 
L 218.864145 174.427366 
L 219.255167 174.427366 
L 219.255167 173.904516 
L 220.426699 173.904516 
L 220.426699 173.381666 
L 220.773448 173.381666 
L 220.773448 172.858816 
L 221.017827 172.858816 
L 221.128932 171.813116 
L 221.497956 171.813116 
L 221.497956 171.290266 
L 222.022048 171.290266 
L 222.022048 170.244566 
L 222.617718 170.244566 
L 222.617718 169.721716 
L 222.79424 169.721716 
L 222.846773 168.676016 
L 223.148331 168.676016 
L 223.148331 168.153166 
L 223.458304 168.153166 
L 223.458304 167.630316 
L 224.240647 167.630316 
L 224.240647 166.584617 
L 224.527082 166.584617 
L 224.631727 165.016067 
L 224.67048 165.016067 
L 224.67048 164.493217 
L 224.867444 164.493217 
L 224.97004 162.401817 
L 225.42304 162.401817 
L 225.42304 161.878967 
L 225.795681 161.878967 
L 225.795681 161.356117 
L 226.205085 161.356117 
L 226.205085 160.833267 
L 226.366446 160.833267 
L 226.366446 160.310417 
L 226.512577 160.310417 
L 226.55431 158.741868 
L 226.673692 158.741868 
L 226.673692 158.219018 
L 227.094014 158.219018 
L 227.094014 157.696168 
L 227.263499 157.696168 
L 227.263499 157.173318 
L 227.598627 157.173318 
L 227.598627 156.127618 
L 228.19857 156.127618 
L 228.245386 155.081918 
L 228.430864 155.081918 
L 228.517397 153.513368 
L 228.555054 153.513368 
L 228.555054 152.990518 
L 228.771851 152.990518 
L 228.771851 152.467668 
L 229.230105 152.467668 
L 229.230105 151.944818 
L 229.566004 151.944818 
L 229.566004 151.421969 
L 229.819229 151.421969 
L 229.819229 150.899119 
L 229.98854 150.899119 
L 230.067585 149.853419 
L 230.101994 149.853419 
L 230.101994 149.330569 
L 230.440951 149.330569 
L 230.440951 148.284869 
L 230.719915 148.284869 
L 230.719915 147.762019 
L 231.151242 147.762019 
L 231.151242 147.239169 
L 231.451015 147.239169 
L 231.522746 146.193469 
L 232.090707 146.193469 
L 232.090707 145.670619 
L 232.766794 145.670619 
L 232.833244 143.57922 
L 233.000856 143.57922 
L 233.000856 143.05637 
L 233.360099 143.05637 
L 233.360099 142.53352 
L 233.990385 142.53352 
L 234.050766 141.48782 
L 234.700035 141.48782 
L 234.700035 140.96497 
L 234.888167 140.96497 
L 234.888167 140.44212 
L 235.647874 140.44212 
L 235.647874 139.91927 
L 235.879714 139.91927 
L 235.97259 138.87357 
L 236.148018 138.87357 
L 236.228511 136.259321 
L 236.826245 136.259321 
L 236.826245 135.736471 
L 237.070629 135.736471 
L 237.070629 135.213621 
L 237.233832 135.213621 
L 237.233832 134.690771 
L 238.157598 134.690771 
L 238.158784 133.122221 
L 238.593031 133.122221 
L 238.593031 132.076521 
L 239.058829 132.076521 
L 239.059954 130.507971 
L 239.305252 130.507971 
L 239.305252 129.985121 
L 239.472261 129.985121 
L 239.472261 128.416572 
L 239.590937 128.416572 
L 239.590937 127.893722 
L 239.799193 127.893722 
L 239.894074 126.848022 
L 239.916173 126.848022 
L 239.916173 125.802322 
L 240.731712 125.802322 
L 240.753015 124.756622 
L 241.214115 124.756622 
L 241.214115 124.233772 
L 241.471551 124.233772 
L 241.471551 123.710922 
L 241.723137 123.710922 
L 241.723137 123.188072 
L 242.094972 123.188072 
L 242.094972 122.665222 
L 242.217969 122.665222 
L 242.217969 121.619522 
L 242.950341 121.619522 
L 242.950341 121.096672 
L 243.164473 121.096672 
L 243.164473 120.573823 
L 243.970538 120.573823 
L 243.970538 120.050973 
L 244.171239 120.050973 
L 244.222665 119.005273 
L 244.296041 119.005273 
L 244.296041 118.482423 
L 246.02329 118.482423 
L 246.121203 117.436723 
L 246.313434 117.436723 
L 246.313434 116.913873 
L 247.274899 116.913873 
L 247.274899 116.391023 
L 248.172296 116.391023 
L 248.172296 115.868173 
L 248.329955 115.868173 
L 248.355518 114.822473 
L 248.808867 114.822473 
L 248.808867 114.299623 
L 249.242623 114.299623 
L 249.242623 113.776773 
L 249.776237 113.776773 
L 249.776237 113.253924 
L 250.391629 113.253924 
L 250.391629 112.731074 
L 251.359329 112.731074 
L 251.359329 112.208224 
L 252.341459 112.208224 
L 252.341459 111.685374 
L 252.600051 111.685374 
L 252.600051 111.162524 
L 253.187653 111.162524 
L 253.187653 110.639674 
L 253.38003 110.639674 
L 253.38003 110.116824 
L 253.951711 110.116824 
L 253.951711 109.593974 
L 254.691534 109.593974 
L 254.691534 109.071124 
L 254.841114 109.071124 
L 254.841114 108.548274 
L 255.014696 108.548274 
L 255.014696 108.025424 
L 255.292469 108.025424 
L 255.292469 107.502574 
L 259.191251 107.502574 
L 259.191251 106.979724 
L 259.563804 106.979724 
L 259.563804 106.456874 
L 260.566715 106.456874 
L 260.566715 105.934024 
L 333.569032 105.934024 
L 333.569032 105.934024 
" style="fill:none;stroke:#008000;stroke-linecap:square;stroke-width:1.5;"/>
   </g>
   <g id="line2d_30">
    <defs>
     <path d="M -0 6 
L 6 -6 
L -6 -6 
z
" id="m2dd6ee988b" style="stroke:#008000;stroke-linejoin:miter;stroke-width:1.5;"/>
    </defs>
    <g>
     <use style="fill-opacity:0;stroke:#008000;stroke-linejoin:miter;stroke-width:1.5;" x="75.7019" xlink:href="#m2dd6ee988b" y="257.037655"/>
     <use style="fill-opacity:0;stroke:#008000;stroke-linejoin:miter;stroke-width:1.5;" x="152.442025" xlink:href="#m2dd6ee988b" y="236.123658"/>
     <use style="fill-opacity:0;stroke:#008000;stroke-linejoin:miter;stroke-width:1.5;" x="218.864145" xlink:href="#m2dd6ee988b" y="176.518765"/>
     <use style="fill-opacity:0;stroke:#008000;stroke-linejoin:miter;stroke-width:1.5;" x="260.566715" xlink:href="#m2dd6ee988b" y="106.456874"/>
     <use style="fill-opacity:0;stroke:#008000;stroke-linejoin:miter;stroke-width:1.5;" x="260.566715" xlink:href="#m2dd6ee988b" y="105.934024"/>
     <use style="fill-opacity:0;stroke:#008000;stroke-linejoin:miter;stroke-width:1.5;" x="333.569032" xlink:href="#m2dd6ee988b" y="105.934024"/>
    </g>
   </g>
   <g id="line2d_31">
    <path style="fill:none;stroke:#008000;stroke-linecap:square;stroke-width:1.5;"/>
    <g/>
   </g>
   <g id="line2d_32">
    <path clip-path="url(#pcb9009ce64)" d="M 188.012065 223.052409 
" style="fill:none;stroke:#008000;stroke-linecap:square;stroke-width:1.5;"/>
    <defs>
     <path d="M -12 12 
L 12 -12 
M -12 -12 
L 12 12 
" id="m58d58afbde" style="stroke:#008000;stroke-width:3;"/>
    </defs>
    <g clip-path="url(#pcb9009ce64)">
     <use style="fill:#008000;stroke:#008000;stroke-width:3;" x="188.012065" xlink:href="#m58d58afbde" y="223.052409"/>
    </g>
   </g>
   <g id="line2d_33">
    <defs>
     <path d="M 0 1.5 
C 0.397805 1.5 0.77937 1.341951 1.06066 1.06066 
C 1.341951 0.77937 1.5 0.397805 1.5 0 
C 1.5 -0.397805 1.341951 -0.77937 1.06066 -1.06066 
C 0.77937 -1.341951 0.397805 -1.5 0 -1.5 
C -0.397805 -1.5 -0.77937 -1.341951 -1.06066 -1.06066 
C -1.341951 -0.77937 -1.5 -0.397805 -1.5 0 
C -1.5 0.397805 -1.341951 0.77937 -1.06066 1.06066 
C -0.77937 1.341951 -0.397805 1.5 0 1.5 
z
" id="m0278e8c052" style="stroke:#0000ff;"/>
    </defs>
    <g>
     <use style="fill:#0000ff;stroke:#0000ff;" x="254.090281" xlink:href="#m0278e8c052" y="215.73251"/>
     <use style="fill:#0000ff;stroke:#0000ff;" x="254.090281" xlink:href="#m0278e8c052" y="215.73251"/>
    </g>
   </g>
   <g id="line2d_34">
    <path d="M 29.207815 294.16 
L 29.207815 286.317251 
L 41.10835 286.317251 
L 41.10835 281.611602 
L 48.069716 281.611602 
L 48.069716 278.997352 
L 53.008884 278.997352 
L 53.008884 276.905952 
L 56.84 276.905952 
L 56.84 275.337402 
L 59.97025 275.337402 
L 59.97025 274.814553 
L 66.931616 274.814553 
L 66.931616 273.768853 
L 68.740534 273.768853 
L 68.740534 273.246003 
L 70.3769 273.246003 
L 70.3769 272.200303 
L 71.870784 272.200303 
L 71.870784 271.677453 
L 73.245025 271.677453 
L 73.245025 271.154603 
L 85.145559 271.154603 
L 85.145559 270.108903 
L 87.602435 270.108903 
L 87.602435 269.586053 
L 92.106925 269.586053 
L 92.106925 269.063203 
L 94.177968 269.063203 
L 94.177968 268.017503 
L 94.563801 268.017503 
L 94.563801 266.448954 
L 95.31039 266.448954 
L 95.31039 263.311854 
L 95.671853 263.311854 
L 95.671853 262.266154 
L 99.21441 262.266154 
L 99.21441 261.220454 
L 103.785923 261.220454 
L 103.785923 260.697604 
L 111.403503 260.697604 
L 111.403503 259.129055 
L 112.104369 259.129055 
L 112.104369 258.083355 
L 116.342671 258.083355 
L 116.342671 256.514805 
L 128.027242 256.514805 
L 128.027242 255.991955 
L 129.976845 255.991955 
L 129.976845 255.469105 
L 134.548357 255.469105 
L 134.548357 254.423405 
L 137.479257 254.423405 
L 137.479257 253.377705 
L 141.998202 253.377705 
L 141.998202 252.854855 
L 151.82831 252.854855 
L 151.82831 252.332005 
L 161.011934 252.332005 
L 161.011934 251.286306 
L 165.167744 251.286306 
L 165.167744 250.763456 
L 168.163188 250.763456 
L 168.163188 250.240606 
L 169.912201 250.240606 
L 169.912201 249.717756 
L 170.658488 249.717756 
L 170.658488 248.672056 
L 172.868655 248.672056 
L 172.868655 247.626356 
L 174.415963 247.626356 
L 174.415963 247.103506 
L 185.747763 247.103506 
L 185.747763 246.580656 
L 186.962025 246.580656 
L 186.962025 246.057806 
L 188.058227 246.057806 
L 188.138712 243.443557 
L 188.578756 243.443557 
L 188.58674 242.397857 
L 189.981355 242.397857 
L 189.981355 241.875007 
L 193.959039 241.875007 
L 193.959039 241.352157 
L 194.426639 241.352157 
L 194.426639 239.783607 
L 196.754262 239.783607 
L 196.754262 239.260757 
L 197.231721 239.260757 
L 197.231721 238.215057 
L 197.789922 238.215057 
L 197.789922 237.169357 
L 199.935696 237.169357 
L 200.011366 235.600808 
L 200.064628 235.600808 
L 200.064628 234.032258 
L 203.417734 234.032258 
L 203.417734 232.986558 
L 205.488395 232.986558 
L 205.488395 232.463708 
L 206.889367 232.463708 
L 206.916285 231.418008 
L 207.064948 231.418008 
L 207.064948 230.895158 
L 211.879041 230.895158 
L 211.956569 229.849458 
L 214.449696 229.849458 
L 214.449696 229.326608 
L 214.826394 229.326608 
L 214.826394 228.803758 
L 215.653492 228.803758 
L 215.653492 228.280909 
L 216.800933 228.280909 
L 216.800933 227.758059 
L 218.095688 227.758059 
L 218.095688 227.235209 
L 218.58276 227.235209 
L 218.58276 226.712359 
L 218.870257 226.712359 
L 218.870257 226.189509 
L 220.840908 226.189509 
L 220.840908 225.666659 
L 221.42769 225.666659 
L 221.458781 224.620959 
L 221.716626 224.620959 
L 221.716626 224.098109 
L 222.407476 224.098109 
L 222.407476 223.575259 
L 223.570064 223.575259 
L 223.570064 223.052409 
L 225.498528 223.052409 
L 225.608278 222.006709 
L 229.07683 222.006709 
L 229.07683 221.483859 
L 229.369807 221.483859 
L 229.369807 220.96101 
L 231.739308 220.96101 
L 231.739308 220.43816 
L 231.961045 220.43816 
L 231.961045 219.91531 
L 233.033983 219.91531 
L 233.033983 219.39246 
L 233.868336 219.39246 
L 233.868336 218.86961 
L 235.54255 218.86961 
L 235.54255 218.34676 
L 235.984106 218.34676 
L 235.984106 217.82391 
L 238.504353 217.82391 
L 238.504353 217.30106 
L 241.795056 217.30106 
L 241.795056 216.77821 
L 246.932703 216.77821 
L 246.932703 216.25536 
L 254.090281 216.25536 
L 254.090281 215.73251 
L 333.569032 215.73251 
L 333.569032 215.73251 
" style="fill:none;stroke:#0000ff;stroke-linecap:square;stroke-width:1.5;"/>
   </g>
   <g id="line2d_35">
    <defs>
     <path d="M 0 -6 
L -1.347084 -1.854102 
L -5.706339 -1.854102 
L -2.179628 0.708204 
L -3.526712 4.854102 
L -0 2.291796 
L 3.526712 4.854102 
L 2.179628 0.708204 
L 5.706339 -1.854102 
L 1.347084 -1.854102 
z
" id="m93476fcaff" style="stroke:#0000ff;stroke-linejoin:bevel;stroke-width:1.5;"/>
    </defs>
    <g>
     <use style="fill-opacity:0;stroke:#0000ff;stroke-linejoin:bevel;stroke-width:1.5;" x="73.245025" xlink:href="#m93476fcaff" y="271.154603"/>
     <use style="fill-opacity:0;stroke:#0000ff;stroke-linejoin:bevel;stroke-width:1.5;" x="170.658488" xlink:href="#m93476fcaff" y="249.717756"/>
     <use style="fill-opacity:0;stroke:#0000ff;stroke-linejoin:bevel;stroke-width:1.5;" x="233.868336" xlink:href="#m93476fcaff" y="219.39246"/>
     <use style="fill-opacity:0;stroke:#0000ff;stroke-linejoin:bevel;stroke-width:1.5;" x="254.090281" xlink:href="#m93476fcaff" y="215.73251"/>
     <use style="fill-opacity:0;stroke:#0000ff;stroke-linejoin:bevel;stroke-width:1.5;" x="254.090281" xlink:href="#m93476fcaff" y="215.73251"/>
     <use style="fill-opacity:0;stroke:#0000ff;stroke-linejoin:bevel;stroke-width:1.5;" x="333.569032" xlink:href="#m93476fcaff" y="215.73251"/>
    </g>
   </g>
   <g id="line2d_36">
    <path style="fill:none;stroke:#0000ff;stroke-linecap:square;stroke-width:1.5;"/>
    <g/>
   </g>
   <g id="line2d_37">
    <path clip-path="url(#pcb9009ce64)" d="M 188.012065 246.057806 
" style="fill:none;stroke:#0000ff;stroke-linecap:square;stroke-width:1.5;"/>
    <defs>
     <path d="M -12 12 
L 12 -12 
M -12 -12 
L 12 12 
" id="mab07a342c4" style="stroke:#0000ff;stroke-width:3;"/>
    </defs>
    <g clip-path="url(#pcb9009ce64)">
     <use style="fill:#0000ff;stroke:#0000ff;stroke-width:3;" x="188.012065" xlink:href="#mab07a342c4" y="246.057806"/>
    </g>
   </g>
   <g id="line2d_38">
    <defs>
     <path d="M 0 1.5 
C 0.397805 1.5 0.77937 1.341951 1.06066 1.06066 
C 1.341951 0.77937 1.5 0.397805 1.5 0 
C 1.5 -0.397805 1.341951 -0.77937 1.06066 -1.06066 
C 0.77937 -1.341951 0.397805 -1.5 0 -1.5 
C -0.397805 -1.5 -0.77937 -1.341951 -1.06066 -1.06066 
C -1.341951 -0.77937 -1.5 -0.397805 -1.5 0 
C -1.5 0.397805 -1.341951 0.77937 -1.06066 1.06066 
C -0.77937 1.341951 -0.397805 1.5 0 1.5 
z
" id="m0d3e974088" style="stroke:#000000;"/>
    </defs>
    <g>
     <use style="stroke:#000000;" x="254.336261" xlink:href="#m0d3e974088" y="252.332005"/>
     <use style="stroke:#000000;" x="254.336261" xlink:href="#m0d3e974088" y="252.332005"/>
    </g>
   </g>
   <g id="line2d_39">
    <path d="M 17.307281 294.16 
L 17.307281 293.1143 
L 29.207815 293.1143 
L 29.207815 291.54575 
L 36.169182 291.54575 
L 36.169182 289.454351 
L 41.10835 289.454351 
L 41.10835 286.317251 
L 44.939466 286.317251 
L 44.939466 285.794401 
L 48.069716 285.794401 
L 48.069716 284.225851 
L 56.84 284.225851 
L 56.84 283.703001 
L 58.476365 283.703001 
L 58.476365 283.180151 
L 65.950272 283.180151 
L 65.950272 281.088752 
L 73.245025 281.088752 
L 73.245025 280.565902 
L 76.809952 280.565902 
L 76.809952 280.043052 
L 78.83215 280.043052 
L 78.83215 279.520202 
L 81.478739 279.520202 
L 81.478739 278.997352 
L 84.472185 278.997352 
L 84.472185 278.474502 
L 88.440105 278.474502 
L 88.440105 277.428802 
L 89.2388 277.428802 
L 89.2388 276.905952 
L 90.249023 276.905952 
L 90.249023 276.383102 
L 94.753514 276.383102 
L 94.753514 275.860252 
L 95.671853 275.860252 
L 95.671853 275.337402 
L 98.920918 275.337402 
L 98.920918 274.291703 
L 100.065932 274.291703 
L 100.065932 273.246003 
L 108.1007 273.246003 
L 108.1007 272.723153 
L 110.064994 272.723153 
L 110.064994 272.200303 
L 110.968826 272.200303 
L 110.968826 271.677453 
L 115.630623 271.677453 
L 115.630623 271.154603 
L 125.858403 271.154603 
L 125.858403 270.631753 
L 126.846595 270.631753 
L 126.846595 270.108903 
L 141.546846 270.108903 
L 141.546846 269.586053 
L 161.166377 269.586053 
L 161.166377 269.063203 
L 178.198175 269.063203 
L 178.198175 268.540353 
L 182.562424 268.540353 
L 182.562424 266.448954 
L 186.264486 266.448954 
L 186.264486 265.926104 
L 188.017017 265.926104 
L 188.017017 265.403254 
L 188.161639 265.403254 
L 188.161639 264.357554 
L 188.204136 264.357554 
L 188.204136 263.834704 
L 188.465779 263.834704 
L 188.465779 262.266154 
L 196.195118 262.266154 
L 196.195118 261.743304 
L 197.153384 261.743304 
L 197.153384 261.220454 
L 197.667593 261.220454 
L 197.667593 260.697604 
L 199.555211 260.697604 
L 199.555211 260.174754 
L 200.140955 260.174754 
L 200.140955 259.651904 
L 200.154389 259.651904 
L 200.154389 259.129055 
L 208.032243 259.129055 
L 208.032243 258.606205 
L 209.280214 258.606205 
L 209.280214 258.083355 
L 210.488896 258.083355 
L 210.488896 257.560505 
L 217.622516 257.560505 
L 217.622516 257.037655 
L 223.774435 257.037655 
L 223.774435 256.514805 
L 224.976528 256.514805 
L 224.976528 255.469105 
L 226.862909 255.469105 
L 226.862909 254.946255 
L 230.108702 254.946255 
L 230.108702 254.423405 
L 234.054589 254.423405 
L 234.054589 253.377705 
L 237.260929 253.377705 
L 237.260929 252.854855 
L 254.336261 252.854855 
L 254.336261 252.332005 
L 333.569032 252.332005 
" style="fill:none;stroke:#000000;stroke-linecap:square;stroke-width:1.5;"/>
   </g>
   <g id="line2d_40">
    <defs>
     <path d="M 0 6 
C 1.591219 6 3.117479 5.367802 4.242641 4.242641 
C 5.367802 3.117479 6 1.591219 6 0 
C 6 -1.591219 5.367802 -3.117479 4.242641 -4.242641 
C 3.117479 -5.367802 1.591219 -6 0 -6 
C -1.591219 -6 -3.117479 -5.367802 -4.242641 -4.242641 
C -5.367802 -3.117479 -6 -1.591219 -6 0 
C -6 1.591219 -5.367802 3.117479 -4.242641 4.242641 
C -3.117479 5.367802 -1.591219 6 0 6 
z
" id="mdffbe269b0" style="stroke:#000000;stroke-width:1.5;"/>
    </defs>
    <g>
     <use style="fill-opacity:0;stroke:#000000;stroke-width:1.5;" x="65.950272" xlink:href="#mdffbe269b0" y="283.180151"/>
     <use style="fill-opacity:0;stroke:#000000;stroke-width:1.5;" x="126.846595" xlink:href="#mdffbe269b0" y="270.631753"/>
     <use style="fill-opacity:0;stroke:#000000;stroke-width:1.5;" x="210.488896" xlink:href="#mdffbe269b0" y="257.560505"/>
     <use style="fill-opacity:0;stroke:#000000;stroke-width:1.5;" x="254.336261" xlink:href="#mdffbe269b0" y="252.854855"/>
     <use style="fill-opacity:0;stroke:#000000;stroke-width:1.5;" x="254.336261" xlink:href="#mdffbe269b0" y="252.332005"/>
     <use style="fill-opacity:0;stroke:#000000;stroke-width:1.5;" x="333.569032" xlink:href="#mdffbe269b0" y="252.332005"/>
    </g>
   </g>
   <g id="line2d_41">
    <path style="fill:none;stroke:#000000;stroke-linecap:square;stroke-width:1.5;"/>
    <g/>
   </g>
   <g id="line2d_42">
    <path clip-path="url(#pcb9009ce64)" d="M 188.012065 265.926104 
" style="fill:none;stroke:#000000;stroke-linecap:square;stroke-width:1.5;"/>
    <defs>
     <path d="M -12 12 
L 12 -12 
M -12 -12 
L 12 12 
" id="m456f6a3bf8" style="stroke:#000000;stroke-width:3;"/>
    </defs>
    <g clip-path="url(#pcb9009ce64)">
     <use style="stroke:#000000;stroke-width:3;" x="188.012065" xlink:href="#m456f6a3bf8" y="265.926104"/>
    </g>
   </g>
   <g id="line2d_43">
    <defs>
     <path d="M 0 1.5 
C 0.397805 1.5 0.77937 1.341951 1.06066 1.06066 
C 1.341951 0.77937 1.5 0.397805 1.5 0 
C 1.5 -0.397805 1.341951 -0.77937 1.06066 -1.06066 
C 0.77937 -1.341951 0.397805 -1.5 0 -1.5 
C -0.397805 -1.5 -0.77937 -1.341951 -1.06066 -1.06066 
C -1.341951 -0.77937 -1.5 -0.397805 -1.5 0 
C -1.5 0.397805 -1.341951 0.77937 -1.06066 1.06066 
C -0.77937 1.341951 -0.397805 1.5 0 1.5 
z
" id="m459993f0cf" style="stroke:#ff0000;"/>
    </defs>
    <g>
     <use style="fill:#ff0000;stroke:#ff0000;" x="251.287364" xlink:href="#m459993f0cf" y="273.246003"/>
     <use style="fill:#ff0000;stroke:#ff0000;" x="251.287364" xlink:href="#m459993f0cf" y="273.246003"/>
    </g>
   </g>
   <g id="line2d_44">
    <path d="M 58.476365 294.16 
L 58.476365 293.63715 
L 59.239551 293.63715 
L 59.239551 293.1143 
L 66.931616 293.1143 
L 66.931616 292.0686 
L 76.264864 292.0686 
L 76.264864 291.54575 
L 77.076141 291.54575 
L 77.076141 291.0229 
L 77.596449 291.0229 
L 77.596449 290.50005 
L 79.984854 290.50005 
L 79.984854 289.977201 
L 85.472594 289.977201 
L 85.472594 289.454351 
L 86.871735 289.454351 
L 86.871735 288.408651 
L 91.54763 288.408651 
L 91.54763 287.885801 
L 91.660956 287.885801 
L 91.660956 287.362951 
L 103.674073 287.362951 
L 103.674073 286.317251 
L 109.752824 286.317251 
L 109.752824 285.794401 
L 111.04204 285.794401 
L 111.04204 285.271551 
L 132.747696 285.271551 
L 132.747696 284.748701 
L 140.846752 284.748701 
L 140.846752 284.225851 
L 147.384496 284.225851 
L 147.384496 283.703001 
L 163.437753 283.703001 
L 163.437753 282.657301 
L 169.002607 282.657301 
L 169.002607 281.611602 
L 173.394914 281.611602 
L 173.394914 281.088752 
L 174.792642 281.088752 
L 174.792642 280.565902 
L 180.680664 280.565902 
L 180.680664 280.043052 
L 182.87086 280.043052 
L 182.87086 279.520202 
L 186.417333 279.520202 
L 186.417333 278.997352 
L 204.760003 278.997352 
L 204.760003 278.474502 
L 206.364343 278.474502 
L 206.364343 277.951652 
L 211.428121 277.951652 
L 211.428121 277.428802 
L 221.084155 277.428802 
L 221.084155 276.905952 
L 221.20214 276.905952 
L 221.20214 276.383102 
L 223.419215 276.383102 
L 223.419215 275.860252 
L 225.47438 275.860252 
L 225.47438 275.337402 
L 225.565814 275.337402 
L 225.565814 274.814553 
L 227.309627 274.814553 
L 227.309627 274.291703 
L 235.467607 274.291703 
L 235.467607 273.768853 
L 251.287364 273.768853 
L 251.287364 273.246003 
L 333.569032 273.246003 
" style="fill:none;stroke:#ff0000;stroke-linecap:square;stroke-width:1.5;"/>
   </g>
   <g id="line2d_45">
    <defs>
     <path d="M -6 6 
L 6 6 
L 6 -6 
L -6 -6 
z
" id="me45aa61701" style="stroke:#ff0000;stroke-linejoin:miter;stroke-width:1.5;"/>
    </defs>
    <g>
     <use style="fill-opacity:0;stroke:#ff0000;stroke-linejoin:miter;stroke-width:1.5;" x="103.674073" xlink:href="#me45aa61701" y="286.317251"/>
     <use style="fill-opacity:0;stroke:#ff0000;stroke-linejoin:miter;stroke-width:1.5;" x="169.002607" xlink:href="#me45aa61701" y="281.611602"/>
     <use style="fill-opacity:0;stroke:#ff0000;stroke-linejoin:miter;stroke-width:1.5;" x="251.287364" xlink:href="#me45aa61701" y="273.768853"/>
     <use style="fill-opacity:0;stroke:#ff0000;stroke-linejoin:miter;stroke-width:1.5;" x="251.287364" xlink:href="#me45aa61701" y="273.246003"/>
     <use style="fill-opacity:0;stroke:#ff0000;stroke-linejoin:miter;stroke-width:1.5;" x="333.569032" xlink:href="#me45aa61701" y="273.246003"/>
    </g>
   </g>
   <g id="line2d_46">
    <path style="fill:none;stroke:#ff0000;stroke-linecap:square;stroke-width:1.5;"/>
    <g/>
   </g>
   <g id="line2d_47">
    <path clip-path="url(#pcb9009ce64)" d="M 188.012065 278.997352 
" style="fill:none;stroke:#ff0000;stroke-linecap:square;stroke-width:1.5;"/>
    <defs>
     <path d="M -12 12 
L 12 -12 
M -12 -12 
L 12 12 
" id="m257e9a2b2c" style="stroke:#ff0000;stroke-width:3;"/>
    </defs>
    <g clip-path="url(#pcb9009ce64)">
     <use style="fill:#ff0000;stroke:#ff0000;stroke-width:3;" x="188.012065" xlink:href="#m257e9a2b2c" y="278.997352"/>
    </g>
   </g>
   <g id="line2d_48">
    <path d="M 333.569032 273.246003 
L 364.009226 288.826931 
" style="fill:none;stroke:#ff0000;stroke-linecap:square;stroke-width:1.5;"/>
    <g>
     <use style="fill-opacity:0;stroke:#ff0000;stroke-linejoin:miter;stroke-width:1.5;" x="333.569032" xlink:href="#me45aa61701" y="273.246003"/>
     <use style="fill-opacity:0;stroke:#ff0000;stroke-linejoin:miter;stroke-width:1.5;" x="364.009226" xlink:href="#me45aa61701" y="288.826931"/>
    </g>
   </g>
   <g id="line2d_49">
    <path d="M 333.569032 252.332005 
L 364.009226 224.830099 
" style="fill:none;stroke:#000000;stroke-linecap:square;stroke-width:1.5;"/>
    <g>
     <use style="fill-opacity:0;stroke:#000000;stroke-width:1.5;" x="333.569032" xlink:href="#mdffbe269b0" y="252.332005"/>
     <use style="fill-opacity:0;stroke:#000000;stroke-width:1.5;" x="364.009226" xlink:href="#mdffbe269b0" y="224.830099"/>
    </g>
   </g>
   <g id="line2d_50">
    <path d="M 333.569032 215.73251 
L 364.009226 160.833267 
" style="fill:none;stroke:#0000ff;stroke-linecap:square;stroke-width:1.5;"/>
    <g>
     <use style="fill-opacity:0;stroke:#0000ff;stroke-linejoin:bevel;stroke-width:1.5;" x="333.569032" xlink:href="#m93476fcaff" y="215.73251"/>
     <use style="fill-opacity:0;stroke:#0000ff;stroke-linejoin:bevel;stroke-width:1.5;" x="364.009226" xlink:href="#m93476fcaff" y="160.833267"/>
    </g>
   </g>
   <g id="line2d_51">
    <path d="M 333.569032 105.934024 
L 364.009226 96.836436 
" style="fill:none;stroke:#008000;stroke-linecap:square;stroke-width:1.5;"/>
    <g>
     <use style="fill-opacity:0;stroke:#008000;stroke-linejoin:miter;stroke-width:1.5;" x="333.569032" xlink:href="#m2dd6ee988b" y="105.934024"/>
     <use style="fill-opacity:0;stroke:#008000;stroke-linejoin:miter;stroke-width:1.5;" x="364.009226" xlink:href="#m2dd6ee988b" y="96.836436"/>
    </g>
   </g>
   <g id="line2d_52">
    <path d="M 333.569032 27.506535 
L 364.009226 32.839604 
" style="fill:none;stroke:#00bfbf;stroke-linecap:square;stroke-width:1.5;"/>
    <g>
     <use style="fill-opacity:0;stroke:#00bfbf;stroke-width:1.5;" x="333.569032" xlink:href="#ma38a8137b2" y="27.506535"/>
     <use style="fill-opacity:0;stroke:#00bfbf;stroke-width:1.5;" x="364.009226" xlink:href="#ma38a8137b2" y="32.839604"/>
    </g>
   </g>
   <g id="line2d_53">
    <path d="M 333.569032 294.16 
L 333.569032 27.506535 
" style="fill:none;stroke:#000000;stroke-linecap:square;stroke-width:1.5;"/>
   </g>
   <g id="patch_3">
    <path d="M 56.84 294.16 
L 56.84 24.84 
" style="fill:none;stroke:#000000;stroke-linecap:square;stroke-linejoin:miter;stroke-width:0.8;"/>
   </g>
   <g id="patch_4">
    <path d="M 399.984 294.16 
L 399.984 24.84 
" style="fill:none;stroke:#000000;stroke-linecap:square;stroke-linejoin:miter;stroke-width:0.8;"/>
   </g>
   <g id="patch_5">
    <path d="M 56.84 294.16 
L 399.984 294.16 
" style="fill:none;stroke:#000000;stroke-linecap:square;stroke-linejoin:miter;stroke-width:0.8;"/>
   </g>
   <g id="patch_6">
    <path d="M 56.84 24.84 
L 399.984 24.84 
" style="fill:none;stroke:#000000;stroke-linecap:square;stroke-linejoin:miter;stroke-width:0.8;"/>
   </g>
   <g id="text_14">
    <!-- 20-D -->
    <defs>
     <path d="M 19.671875 64.796875 
L 19.671875 8.109375 
L 31.59375 8.109375 
Q 46.6875 8.109375 53.6875 14.9375 
Q 60.6875 21.78125 60.6875 36.53125 
Q 60.6875 51.171875 53.6875 57.984375 
Q 46.6875 64.796875 31.59375 64.796875 
z
M 9.8125 72.90625 
L 30.078125 72.90625 
Q 51.265625 72.90625 61.171875 64.09375 
Q 71.09375 55.28125 71.09375 36.53125 
Q 71.09375 17.671875 61.125 8.828125 
Q 51.171875 0 30.078125 0 
L 9.8125 0 
z
" id="DejaVuSans-44"/>
    </defs>
    <g transform="translate(369.543806 293.517868)scale(0.17 -0.17)">
     <use xlink:href="#DejaVuSans-32"/>
     <use x="63.623047" xlink:href="#DejaVuSans-30"/>
     <use x="127.246094" xlink:href="#DejaVuSans-2d"/>
     <use x="163.330078" xlink:href="#DejaVuSans-44"/>
    </g>
   </g>
   <g id="text_15">
    <!-- 10-D -->
    <g transform="translate(369.543806 229.521037)scale(0.17 -0.17)">
     <use xlink:href="#DejaVuSans-31"/>
     <use x="63.623047" xlink:href="#DejaVuSans-30"/>
     <use x="127.246094" xlink:href="#DejaVuSans-2d"/>
     <use x="163.330078" xlink:href="#DejaVuSans-44"/>
    </g>
   </g>
   <g id="text_16">
    <!-- 5-D -->
    <defs>
     <path d="M 10.796875 72.90625 
L 49.515625 72.90625 
L 49.515625 64.59375 
L 19.828125 64.59375 
L 19.828125 46.734375 
Q 21.96875 47.46875 24.109375 47.828125 
Q 26.265625 48.1875 28.421875 48.1875 
Q 40.625 48.1875 47.75 41.5 
Q 54.890625 34.8125 54.890625 23.390625 
Q 54.890625 11.625 47.5625 5.09375 
Q 40.234375 -1.421875 26.90625 -1.421875 
Q 22.3125 -1.421875 17.546875 -0.640625 
Q 12.796875 0.140625 7.71875 1.703125 
L 7.71875 11.625 
Q 12.109375 9.234375 16.796875 8.0625 
Q 21.484375 6.890625 26.703125 6.890625 
Q 35.15625 6.890625 40.078125 11.328125 
Q 45.015625 15.765625 45.015625 23.390625 
Q 45.015625 31 40.078125 35.4375 
Q 35.15625 39.890625 26.703125 39.890625 
Q 22.75 39.890625 18.8125 39.015625 
Q 14.890625 38.140625 10.796875 36.28125 
z
" id="DejaVuSans-35"/>
    </defs>
    <g transform="translate(369.543806 165.524205)scale(0.17 -0.17)">
     <use xlink:href="#DejaVuSans-35"/>
     <use x="63.623047" xlink:href="#DejaVuSans-2d"/>
     <use x="99.707031" xlink:href="#DejaVuSans-44"/>
    </g>
   </g>
   <g id="text_17">
    <!-- 3-D -->
    <defs>
     <path d="M 40.578125 39.3125 
Q 47.65625 37.796875 51.625 33 
Q 55.609375 28.21875 55.609375 21.1875 
Q 55.609375 10.40625 48.1875 4.484375 
Q 40.765625 -1.421875 27.09375 -1.421875 
Q 22.515625 -1.421875 17.65625 -0.515625 
Q 12.796875 0.390625 7.625 2.203125 
L 7.625 11.71875 
Q 11.71875 9.328125 16.59375 8.109375 
Q 21.484375 6.890625 26.8125 6.890625 
Q 36.078125 6.890625 40.9375 10.546875 
Q 45.796875 14.203125 45.796875 21.1875 
Q 45.796875 27.640625 41.28125 31.265625 
Q 36.765625 34.90625 28.71875 34.90625 
L 20.21875 34.90625 
L 20.21875 43.015625 
L 29.109375 43.015625 
Q 36.375 43.015625 40.234375 45.921875 
Q 44.09375 48.828125 44.09375 54.296875 
Q 44.09375 59.90625 40.109375 62.90625 
Q 36.140625 65.921875 28.71875 65.921875 
Q 24.65625 65.921875 20.015625 65.03125 
Q 15.375 64.15625 9.8125 62.3125 
L 9.8125 71.09375 
Q 15.4375 72.65625 20.34375 73.4375 
Q 25.25 74.21875 29.59375 74.21875 
Q 40.828125 74.21875 47.359375 69.109375 
Q 53.90625 64.015625 53.90625 55.328125 
Q 53.90625 49.265625 50.4375 45.09375 
Q 46.96875 40.921875 40.578125 39.3125 
z
" id="DejaVuSans-33"/>
    </defs>
    <g transform="translate(369.543806 101.527373)scale(0.17 -0.17)">
     <use xlink:href="#DejaVuSans-33"/>
     <use x="63.623047" xlink:href="#DejaVuSans-2d"/>
     <use x="99.707031" xlink:href="#DejaVuSans-44"/>
    </g>
   </g>
   <g id="text_18">
    <!-- 2-D -->
    <g transform="translate(369.543806 37.530541)scale(0.17 -0.17)">
     <use xlink:href="#DejaVuSans-32"/>
     <use x="63.623047" xlink:href="#DejaVuSans-2d"/>
     <use x="99.707031" xlink:href="#DejaVuSans-44"/>
    </g>
   </g>
   <g id="text_19">
    <!-- bbob f1 -->
    <defs>
     <path d="M 48.6875 27.296875 
Q 48.6875 37.203125 44.609375 42.84375 
Q 40.53125 48.484375 33.40625 48.484375 
Q 26.265625 48.484375 22.1875 42.84375 
Q 18.109375 37.203125 18.109375 27.296875 
Q 18.109375 17.390625 22.1875 11.75 
Q 26.265625 6.109375 33.40625 6.109375 
Q 40.53125 6.109375 44.609375 11.75 
Q 48.6875 17.390625 48.6875 27.296875 
z
M 18.109375 46.390625 
Q 20.953125 51.265625 25.265625 53.625 
Q 29.59375 56 35.59375 56 
Q 45.5625 56 51.78125 48.09375 
Q 58.015625 40.1875 58.015625 27.296875 
Q 58.015625 14.40625 51.78125 6.484375 
Q 45.5625 -1.421875 35.59375 -1.421875 
Q 29.59375 -1.421875 25.265625 0.953125 
Q 20.953125 3.328125 18.109375 8.203125 
L 18.109375 0 
L 9.078125 0 
L 9.078125 75.984375 
L 18.109375 75.984375 
z
" id="DejaVuSans-62"/>
    </defs>
    <g transform="translate(60.27144 35.283606)scale(0.102 -0.102)">
     <use xlink:href="#DejaVuSans-62"/>
     <use x="63.476562" xlink:href="#DejaVuSans-62"/>
     <use x="126.953125" xlink:href="#DejaVuSans-6f"/>
     <use x="188.134766" xlink:href="#DejaVuSans-62"/>
     <use x="251.611328" xlink:href="#DejaVuSans-20"/>
     <use x="283.398438" xlink:href="#DejaVuSans-66"/>
     <use x="318.603516" xlink:href="#DejaVuSans-31"/>
    </g>
    <!-- 51 targets: 100..1e-08 -->
    <defs>
     <path d="M 11.71875 12.40625 
L 22.015625 12.40625 
L 22.015625 0 
L 11.71875 0 
z
M 11.71875 51.703125 
L 22.015625 51.703125 
L 22.015625 39.3125 
L 11.71875 39.3125 
z
" id="DejaVuSans-3a"/>
    </defs>
    <g transform="translate(60.27144 46.705375)scale(0.102 -0.102)">
     <use xlink:href="#DejaVuSans-35"/>
     <use x="63.623047" xlink:href="#DejaVuSans-31"/>
     <use x="127.246094" xlink:href="#DejaVuSans-20"/>
     <use x="159.033203" xlink:href="#DejaVuSans-74"/>
     <use x="198.242188" xlink:href="#DejaVuSans-61"/>
     <use x="259.521484" xlink:href="#DejaVuSans-72"/>
     <use x="300.619141" xlink:href="#DejaVuSans-67"/>
     <use x="364.095703" xlink:href="#DejaVuSans-65"/>
     <use x="425.619141" xlink:href="#DejaVuSans-74"/>
     <use x="464.828125" xlink:href="#DejaVuSans-73"/>
     <use x="516.927734" xlink:href="#DejaVuSans-3a"/>
     <use x="550.619141" xlink:href="#DejaVuSans-20"/>
     <use x="582.40625" xlink:href="#DejaVuSans-31"/>
     <use x="646.029297" xlink:href="#DejaVuSans-30"/>
     <use x="709.652344" xlink:href="#DejaVuSans-30"/>
     <use x="773.275391" xlink:href="#DejaVuSans-2e"/>
     <use x="805.0625" xlink:href="#DejaVuSans-2e"/>
     <use x="836.849609" xlink:href="#DejaVuSans-31"/>
     <use x="900.472656" xlink:href="#DejaVuSans-65"/>
     <use x="961.996094" xlink:href="#DejaVuSans-2d"/>
     <use x="998.080078" xlink:href="#DejaVuSans-30"/>
     <use x="1061.703125" xlink:href="#DejaVuSans-38"/>
    </g>
    <!-- 15 instances -->
    <g transform="translate(60.27144 58.127144)scale(0.102 -0.102)">
     <use xlink:href="#DejaVuSans-31"/>
     <use x="63.623047" xlink:href="#DejaVuSans-35"/>
     <use x="127.246094" xlink:href="#DejaVuSans-20"/>
     <use x="159.033203" xlink:href="#DejaVuSans-69"/>
     <use x="186.816406" xlink:href="#DejaVuSans-6e"/>
     <use x="250.195312" xlink:href="#DejaVuSans-73"/>
     <use x="302.294922" xlink:href="#DejaVuSans-74"/>
     <use x="341.503906" xlink:href="#DejaVuSans-61"/>
     <use x="402.783203" xlink:href="#DejaVuSans-6e"/>
     <use x="466.162109" xlink:href="#DejaVuSans-63"/>
     <use x="521.142578" xlink:href="#DejaVuSans-65"/>
     <use x="582.666016" xlink:href="#DejaVuSans-73"/>
    </g>
   </g>
   <g id="text_20">
    <!-- v2.2.1.10 -->
    <g style="fill:#808080;" transform="translate(204.779188 289.387113)scale(0.1 -0.1)">
     <use xlink:href="#DejaVuSans-76"/>
     <use x="59.179688" xlink:href="#DejaVuSans-32"/>
     <use x="122.802734" xlink:href="#DejaVuSans-2e"/>
     <use x="154.589844" xlink:href="#DejaVuSans-32"/>
     <use x="218.212891" xlink:href="#DejaVuSans-2e"/>
     <use x="250" xlink:href="#DejaVuSans-31"/>
     <use x="313.623047" xlink:href="#DejaVuSans-2e"/>
     <use x="345.410156" xlink:href="#DejaVuSans-31"/>
     <use x="409.033203" xlink:href="#DejaVuSans-30"/>
    </g>
   </g>
   <g id="text_21">
    <!-- 1 Sphere -->
    <defs>
     <path d="M 53.515625 70.515625 
L 53.515625 60.890625 
Q 47.90625 63.578125 42.921875 64.890625 
Q 37.9375 66.21875 33.296875 66.21875 
Q 25.25 66.21875 20.875 63.09375 
Q 16.5 59.96875 16.5 54.203125 
Q 16.5 49.359375 19.40625 46.890625 
Q 22.3125 44.4375 30.421875 42.921875 
L 36.375 41.703125 
Q 47.40625 39.59375 52.65625 34.296875 
Q 57.90625 29 57.90625 20.125 
Q 57.90625 9.515625 50.796875 4.046875 
Q 43.703125 -1.421875 29.984375 -1.421875 
Q 24.8125 -1.421875 18.96875 -0.25 
Q 13.140625 0.921875 6.890625 3.21875 
L 6.890625 13.375 
Q 12.890625 10.015625 18.65625 8.296875 
Q 24.421875 6.59375 29.984375 6.59375 
Q 38.421875 6.59375 43.015625 9.90625 
Q 47.609375 13.234375 47.609375 19.390625 
Q 47.609375 24.75 44.3125 27.78125 
Q 41.015625 30.8125 33.5 32.328125 
L 27.484375 33.5 
Q 16.453125 35.6875 11.515625 40.375 
Q 6.59375 45.0625 6.59375 53.421875 
Q 6.59375 63.09375 13.40625 68.65625 
Q 20.21875 74.21875 32.171875 74.21875 
Q 37.3125 74.21875 42.625 73.28125 
Q 47.953125 72.359375 53.515625 70.515625 
z
" id="DejaVuSans-53"/>
     <path d="M 54.890625 33.015625 
L 54.890625 0 
L 45.90625 0 
L 45.90625 32.71875 
Q 45.90625 40.484375 42.875 44.328125 
Q 39.84375 48.1875 33.796875 48.1875 
Q 26.515625 48.1875 22.3125 43.546875 
Q 18.109375 38.921875 18.109375 30.90625 
L 18.109375 0 
L 9.078125 0 
L 9.078125 75.984375 
L 18.109375 75.984375 
L 18.109375 46.1875 
Q 21.34375 51.125 25.703125 53.5625 
Q 30.078125 56 35.796875 56 
Q 45.21875 56 50.046875 50.171875 
Q 54.890625 44.34375 54.890625 33.015625 
z
" id="DejaVuSans-68"/>
    </defs>
    <g transform="translate(183.422938 18.84)scale(0.2 -0.2)">
     <use xlink:href="#DejaVuSans-31"/>
     <use x="63.623047" xlink:href="#DejaVuSans-20"/>
     <use x="95.410156" xlink:href="#DejaVuSans-53"/>
     <use x="158.886719" xlink:href="#DejaVuSans-70"/>
     <use x="222.363281" xlink:href="#DejaVuSans-68"/>
     <use x="285.742188" xlink:href="#DejaVuSans-65"/>
     <use x="347.265625" xlink:href="#DejaVuSans-72"/>
     <use x="388.347656" xlink:href="#DejaVuSans-65"/>
    </g>
   </g>
  </g>
 </g>
 <defs>
  <clipPath id="pcb9009ce64">
   <rect height="269.32" width="343.144" x="56.84" y="24.84"/>
  </clipPath>
 </defs>
</svg>
