<?xml version="1.0" encoding="utf-8" standalone="no"?>
<!DOCTYPE svg PUBLIC "-//W3C//DTD SVG 1.1//EN"
  "http://www.w3.org/Graphics/SVG/1.1/DTD/svg11.dtd">
<!-- Created with matplotlib (http://matplotlib.org/) -->
<svg height="345.6pt" version="1.1" viewBox="0 0 460.8 345.6" width="460.8pt" xmlns="http://www.w3.org/2000/svg" xmlns:xlink="http://www.w3.org/1999/xlink">
 <defs>
  <style type="text/css">
*{stroke-linecap:butt;stroke-linejoin:round;}
  </style>
 </defs>
 <g id="figure_1">
  <g id="patch_1">
   <path d="M 0 345.6 
L 460.8 345.6 
L 460.8 0 
L 0 0 
z
" style="fill:#ffffff;"/>
  </g>
  <g id="axes_1">
   <g id="patch_2">
    <path d="M 25.99 311.24 
L 450.072 311.24 
L 450.072 28.32 
L 25.99 28.32 
z
" style="fill:#ffffff;"/>
   </g>
   <g id="line2d_1">
    <path clip-path="url(#pcdf424de1e)" d="M 39.871088 204.414423 
L 93.2905 199.970944 
L 160.591 195.438903 
L 251.912088 184.434431 
L 343.233176 172.172543 
L 434.554264 165.372313 
" style="fill:none;stroke:#f5deb3;stroke-linecap:square;stroke-width:10;"/>
    <defs>
     <path d="M -0 17.67767 
L 10.606602 0 
L 0 -17.67767 
L -10.606602 -0 
z
" id="m0874749145" style="stroke:#000000;stroke-linejoin:miter;"/>
    </defs>
    <g clip-path="url(#pcdf424de1e)">
     <use style="fill:#f5deb3;stroke:#000000;stroke-linejoin:miter;" x="39.871088" xlink:href="#m0874749145" y="204.414423"/>
     <use style="fill:#f5deb3;stroke:#000000;stroke-linejoin:miter;" x="93.2905" xlink:href="#m0874749145" y="199.970944"/>
     <use style="fill:#f5deb3;stroke:#000000;stroke-linejoin:miter;" x="160.591" xlink:href="#m0874749145" y="195.438903"/>
     <use style="fill:#f5deb3;stroke:#000000;stroke-linejoin:miter;" x="251.912088" xlink:href="#m0874749145" y="184.434431"/>
     <use style="fill:#f5deb3;stroke:#000000;stroke-linejoin:miter;" x="343.233176" xlink:href="#m0874749145" y="172.172543"/>
     <use style="fill:#f5deb3;stroke:#000000;stroke-linejoin:miter;" x="434.554264" xlink:href="#m0874749145" y="165.372313"/>
    </g>
   </g>
   <g id="line2d_2">
    <defs>
     <path d="M -15 0 
L 15 0 
M 0 15 
L 0 -15 
" id="mb76427869f" style="stroke:#bfbf00;stroke-width:5;"/>
    </defs>
    <g clip-path="url(#pcdf424de1e)">
     <use style="fill:#bfbf00;stroke:#bfbf00;stroke-width:5;" x="39.871088" xlink:href="#mb76427869f" y="158.478282"/>
    </g>
   </g>
   <g id="line2d_3">
    <defs>
     <path d="M -15 0 
L 15 0 
M 0 15 
L 0 -15 
" id="m5a97a3a4e3" style="stroke:#008000;stroke-width:5;"/>
    </defs>
    <g clip-path="url(#pcdf424de1e)">
     <use style="fill:#008000;stroke:#008000;stroke-width:5;" x="93.2905" xlink:href="#m5a97a3a4e3" y="147.061246"/>
    </g>
   </g>
   <g id="line2d_4">
    <defs>
     <path d="M -15 0 
L 15 0 
M 0 15 
L 0 -15 
" id="m047478cf9f" style="stroke:#0000ff;stroke-width:5;"/>
    </defs>
    <g clip-path="url(#pcdf424de1e)">
     <use style="fill:#0000ff;stroke:#0000ff;stroke-width:5;" x="160.591" xlink:href="#m047478cf9f" y="155.442908"/>
    </g>
   </g>
   <g id="matplotlib.axis_1">
    <g id="xtick_1">
     <g id="line2d_5">
      <defs>
       <path d="M 0 0 
L 0 3.5 
" id="mcb4550298a" style="stroke:#000000;stroke-width:0.8;"/>
      </defs>
      <g>
       <use style="stroke:#000000;stroke-width:0.8;" x="39.871088" xlink:href="#mcb4550298a" y="311.24"/>
      </g>
     </g>
     <g id="text_1">
      <!-- 2 -->
      <defs>
       <path d="M 19.1875 8.296875 
L 53.609375 8.296875 
L 53.609375 0 
L 7.328125 0 
L 7.328125 8.296875 
Q 12.9375 14.109375 22.625 23.890625 
Q 32.328125 33.6875 34.8125 36.53125 
Q 39.546875 41.84375 41.421875 45.53125 
Q 43.3125 49.21875 43.3125 52.78125 
Q 43.3125 58.59375 39.234375 62.25 
Q 35.15625 65.921875 28.609375 65.921875 
Q 23.96875 65.921875 18.8125 64.3125 
Q 13.671875 62.703125 7.8125 59.421875 
L 7.8125 69.390625 
Q 13.765625 71.78125 18.9375 73 
Q 24.125 74.21875 28.421875 74.21875 
Q 39.75 74.21875 46.484375 68.546875 
Q 53.21875 62.890625 53.21875 53.421875 
Q 53.21875 48.921875 51.53125 44.890625 
Q 49.859375 40.875 45.40625 35.40625 
Q 44.1875 33.984375 37.640625 27.21875 
Q 31.109375 20.453125 19.1875 8.296875 
z
" id="DejaVuSans-32"/>
      </defs>
      <g transform="translate(32.236088 336.47625)scale(0.24 -0.24)">
       <use xlink:href="#DejaVuSans-32"/>
      </g>
     </g>
    </g>
    <g id="xtick_2">
     <g id="line2d_6">
      <g>
       <use style="stroke:#000000;stroke-width:0.8;" x="93.2905" xlink:href="#mcb4550298a" y="311.24"/>
      </g>
     </g>
     <g id="text_2">
      <!-- 3 -->
      <defs>
       <path d="M 40.578125 39.3125 
Q 47.65625 37.796875 51.625 33 
Q 55.609375 28.21875 55.609375 21.1875 
Q 55.609375 10.40625 48.1875 4.484375 
Q 40.765625 -1.421875 27.09375 -1.421875 
Q 22.515625 -1.421875 17.65625 -0.515625 
Q 12.796875 0.390625 7.625 2.203125 
L 7.625 11.71875 
Q 11.71875 9.328125 16.59375 8.109375 
Q 21.484375 6.890625 26.8125 6.890625 
Q 36.078125 6.890625 40.9375 10.546875 
Q 45.796875 14.203125 45.796875 21.1875 
Q 45.796875 27.640625 41.28125 31.265625 
Q 36.765625 34.90625 28.71875 34.90625 
L 20.21875 34.90625 
L 20.21875 43.015625 
L 29.109375 43.015625 
Q 36.375 43.015625 40.234375 45.921875 
Q 44.09375 48.828125 44.09375 54.296875 
Q 44.09375 59.90625 40.109375 62.90625 
Q 36.140625 65.921875 28.71875 65.921875 
Q 24.65625 65.921875 20.015625 65.03125 
Q 15.375 64.15625 9.8125 62.3125 
L 9.8125 71.09375 
Q 15.4375 72.65625 20.34375 73.4375 
Q 25.25 74.21875 29.59375 74.21875 
Q 40.828125 74.21875 47.359375 69.109375 
Q 53.90625 64.015625 53.90625 55.328125 
Q 53.90625 49.265625 50.4375 45.09375 
Q 46.96875 40.921875 40.578125 39.3125 
z
" id="DejaVuSans-33"/>
      </defs>
      <g transform="translate(85.6555 336.47625)scale(0.24 -0.24)">
       <use xlink:href="#DejaVuSans-33"/>
      </g>
     </g>
    </g>
    <g id="xtick_3">
     <g id="line2d_7">
      <g>
       <use style="stroke:#000000;stroke-width:0.8;" x="160.591" xlink:href="#mcb4550298a" y="311.24"/>
      </g>
     </g>
     <g id="text_3">
      <!-- 5 -->
      <defs>
       <path d="M 10.796875 72.90625 
L 49.515625 72.90625 
L 49.515625 64.59375 
L 19.828125 64.59375 
L 19.828125 46.734375 
Q 21.96875 47.46875 24.109375 47.828125 
Q 26.265625 48.1875 28.421875 48.1875 
Q 40.625 48.1875 47.75 41.5 
Q 54.890625 34.8125 54.890625 23.390625 
Q 54.890625 11.625 47.5625 5.09375 
Q 40.234375 -1.421875 26.90625 -1.421875 
Q 22.3125 -1.421875 17.546875 -0.640625 
Q 12.796875 0.140625 7.71875 1.703125 
L 7.71875 11.625 
Q 12.109375 9.234375 16.796875 8.0625 
Q 21.484375 6.890625 26.703125 6.890625 
Q 35.15625 6.890625 40.078125 11.328125 
Q 45.015625 15.765625 45.015625 23.390625 
Q 45.015625 31 40.078125 35.4375 
Q 35.15625 39.890625 26.703125 39.890625 
Q 22.75 39.890625 18.8125 39.015625 
Q 14.890625 38.140625 10.796875 36.28125 
z
" id="DejaVuSans-35"/>
      </defs>
      <g transform="translate(152.956 336.47625)scale(0.24 -0.24)">
       <use xlink:href="#DejaVuSans-35"/>
      </g>
     </g>
    </g>
    <g id="xtick_4">
     <g id="line2d_8">
      <g>
       <use style="stroke:#000000;stroke-width:0.8;" x="251.912088" xlink:href="#mcb4550298a" y="311.24"/>
      </g>
     </g>
     <g id="text_4">
      <!-- 10 -->
      <defs>
       <path d="M 12.40625 8.296875 
L 28.515625 8.296875 
L 28.515625 63.921875 
L 10.984375 60.40625 
L 10.984375 69.390625 
L 28.421875 72.90625 
L 38.28125 72.90625 
L 38.28125 8.296875 
L 54.390625 8.296875 
L 54.390625 0 
L 12.40625 0 
z
" id="DejaVuSans-31"/>
       <path d="M 31.78125 66.40625 
Q 24.171875 66.40625 20.328125 58.90625 
Q 16.5 51.421875 16.5 36.375 
Q 16.5 21.390625 20.328125 13.890625 
Q 24.171875 6.390625 31.78125 6.390625 
Q 39.453125 6.390625 43.28125 13.890625 
Q 47.125 21.390625 47.125 36.375 
Q 47.125 51.421875 43.28125 58.90625 
Q 39.453125 66.40625 31.78125 66.40625 
z
M 31.78125 74.21875 
Q 44.046875 74.21875 50.515625 64.515625 
Q 56.984375 54.828125 56.984375 36.375 
Q 56.984375 17.96875 50.515625 8.265625 
Q 44.046875 -1.421875 31.78125 -1.421875 
Q 19.53125 -1.421875 13.0625 8.265625 
Q 6.59375 17.96875 6.59375 36.375 
Q 6.59375 54.828125 13.0625 64.515625 
Q 19.53125 74.21875 31.78125 74.21875 
z
" id="DejaVuSans-30"/>
      </defs>
      <g transform="translate(236.642088 336.47625)scale(0.24 -0.24)">
       <use xlink:href="#DejaVuSans-31"/>
       <use x="63.623047" xlink:href="#DejaVuSans-30"/>
      </g>
     </g>
    </g>
    <g id="xtick_5">
     <g id="line2d_9">
      <g>
       <use style="stroke:#000000;stroke-width:0.8;" x="343.233176" xlink:href="#mcb4550298a" y="311.24"/>
      </g>
     </g>
     <g id="text_5">
      <!-- 20 -->
      <g transform="translate(327.963176 336.47625)scale(0.24 -0.24)">
       <use xlink:href="#DejaVuSans-32"/>
       <use x="63.623047" xlink:href="#DejaVuSans-30"/>
      </g>
     </g>
    </g>
    <g id="xtick_6">
     <g id="line2d_10">
      <g>
       <use style="stroke:#000000;stroke-width:0.8;" x="434.554264" xlink:href="#mcb4550298a" y="311.24"/>
      </g>
     </g>
     <g id="text_6">
      <!-- 40 -->
      <defs>
       <path d="M 37.796875 64.3125 
L 12.890625 25.390625 
L 37.796875 25.390625 
z
M 35.203125 72.90625 
L 47.609375 72.90625 
L 47.609375 25.390625 
L 58.015625 25.390625 
L 58.015625 17.1875 
L 47.609375 17.1875 
L 47.609375 0 
L 37.796875 0 
L 37.796875 17.1875 
L 4.890625 17.1875 
L 4.890625 26.703125 
z
" id="DejaVuSans-34"/>
      </defs>
      <g transform="translate(419.284264 336.47625)scale(0.24 -0.24)">
       <use xlink:href="#DejaVuSans-34"/>
       <use x="63.623047" xlink:href="#DejaVuSans-30"/>
      </g>
     </g>
    </g>
    <g id="xtick_7">
     <g id="line2d_11">
      <defs>
       <path d="M 0 0 
L 0 2 
" id="m4b92abea8e" style="stroke:#000000;stroke-width:0.6;"/>
      </defs>
      <g>
       <use style="stroke:#000000;stroke-width:0.6;" x="39.871088" xlink:href="#m4b92abea8e" y="311.24"/>
      </g>
     </g>
    </g>
    <g id="xtick_8">
     <g id="line2d_12">
      <g>
       <use style="stroke:#000000;stroke-width:0.6;" x="93.2905" xlink:href="#m4b92abea8e" y="311.24"/>
      </g>
     </g>
    </g>
    <g id="xtick_9">
     <g id="line2d_13">
      <g>
       <use style="stroke:#000000;stroke-width:0.6;" x="131.192176" xlink:href="#m4b92abea8e" y="311.24"/>
      </g>
     </g>
    </g>
    <g id="xtick_10">
     <g id="line2d_14">
      <g>
       <use style="stroke:#000000;stroke-width:0.6;" x="160.591" xlink:href="#m4b92abea8e" y="311.24"/>
      </g>
     </g>
    </g>
    <g id="xtick_11">
     <g id="line2d_15">
      <g>
       <use style="stroke:#000000;stroke-width:0.6;" x="184.611588" xlink:href="#m4b92abea8e" y="311.24"/>
      </g>
     </g>
    </g>
    <g id="xtick_12">
     <g id="line2d_16">
      <g>
       <use style="stroke:#000000;stroke-width:0.6;" x="204.920706" xlink:href="#m4b92abea8e" y="311.24"/>
      </g>
     </g>
    </g>
    <g id="xtick_13">
     <g id="line2d_17">
      <g>
       <use style="stroke:#000000;stroke-width:0.6;" x="222.513264" xlink:href="#m4b92abea8e" y="311.24"/>
      </g>
     </g>
    </g>
    <g id="xtick_14">
     <g id="line2d_18">
      <g>
       <use style="stroke:#000000;stroke-width:0.6;" x="238.031" xlink:href="#m4b92abea8e" y="311.24"/>
      </g>
     </g>
    </g>
    <g id="xtick_15">
     <g id="line2d_19">
      <g>
       <use style="stroke:#000000;stroke-width:0.6;" x="343.233176" xlink:href="#m4b92abea8e" y="311.24"/>
      </g>
     </g>
    </g>
    <g id="xtick_16">
     <g id="line2d_20">
      <g>
       <use style="stroke:#000000;stroke-width:0.6;" x="396.652588" xlink:href="#m4b92abea8e" y="311.24"/>
      </g>
     </g>
    </g>
    <g id="xtick_17">
     <g id="line2d_21">
      <g>
       <use style="stroke:#000000;stroke-width:0.6;" x="434.554264" xlink:href="#m4b92abea8e" y="311.24"/>
      </g>
     </g>
    </g>
   </g>
   <g id="matplotlib.axis_2">
    <g id="ytick_1">
     <g id="line2d_22">
      <path clip-path="url(#pcdf424de1e)" d="M 25.99 300.358462 
L 450.072 300.358462 
" style="fill:none;stroke:#b0b0b0;stroke-linecap:square;stroke-width:0.8;"/>
     </g>
     <g id="line2d_23">
      <defs>
       <path d="M 0 0 
L -3.5 0 
" id="m374afda856" style="stroke:#000000;stroke-width:0.8;"/>
      </defs>
      <g>
       <use style="stroke:#000000;stroke-width:0.8;" x="25.99" xlink:href="#m374afda856" y="300.358462"/>
      </g>
     </g>
     <g id="text_7">
      <!-- 0 -->
      <g transform="translate(3.72 309.476587)scale(0.24 -0.24)">
       <use xlink:href="#DejaVuSans-30"/>
      </g>
     </g>
    </g>
    <g id="ytick_2">
     <g id="line2d_24">
      <path clip-path="url(#pcdf424de1e)" d="M 25.99 245.950775 
L 450.072 245.950775 
" style="fill:none;stroke:#b0b0b0;stroke-linecap:square;stroke-width:0.8;"/>
     </g>
     <g id="line2d_25">
      <g>
       <use style="stroke:#000000;stroke-width:0.8;" x="25.99" xlink:href="#m374afda856" y="245.950775"/>
      </g>
     </g>
     <g id="text_8">
      <!-- 1 -->
      <g transform="translate(3.72 255.0689)scale(0.24 -0.24)">
       <use xlink:href="#DejaVuSans-31"/>
      </g>
     </g>
    </g>
    <g id="ytick_3">
     <g id="line2d_26">
      <path clip-path="url(#pcdf424de1e)" d="M 25.99 191.543087 
L 450.072 191.543087 
" style="fill:none;stroke:#b0b0b0;stroke-linecap:square;stroke-width:0.8;"/>
     </g>
     <g id="line2d_27">
      <g>
       <use style="stroke:#000000;stroke-width:0.8;" x="25.99" xlink:href="#m374afda856" y="191.543087"/>
      </g>
     </g>
     <g id="text_9">
      <!-- 2 -->
      <g transform="translate(3.72 200.661212)scale(0.24 -0.24)">
       <use xlink:href="#DejaVuSans-32"/>
      </g>
     </g>
    </g>
    <g id="ytick_4">
     <g id="line2d_28">
      <path clip-path="url(#pcdf424de1e)" d="M 25.99 137.135399 
L 450.072 137.135399 
" style="fill:none;stroke:#b0b0b0;stroke-linecap:square;stroke-width:0.8;"/>
     </g>
     <g id="line2d_29">
      <g>
       <use style="stroke:#000000;stroke-width:0.8;" x="25.99" xlink:href="#m374afda856" y="137.135399"/>
      </g>
     </g>
     <g id="text_10">
      <!-- 3 -->
      <g transform="translate(3.72 146.253524)scale(0.24 -0.24)">
       <use xlink:href="#DejaVuSans-33"/>
      </g>
     </g>
    </g>
    <g id="ytick_5">
     <g id="line2d_30">
      <path clip-path="url(#pcdf424de1e)" d="M 25.99 82.727711 
L 450.072 82.727711 
" style="fill:none;stroke:#b0b0b0;stroke-linecap:square;stroke-width:0.8;"/>
     </g>
     <g id="line2d_31">
      <g>
       <use style="stroke:#000000;stroke-width:0.8;" x="25.99" xlink:href="#m374afda856" y="82.727711"/>
      </g>
     </g>
     <g id="text_11">
      <!-- 4 -->
      <g transform="translate(3.72 91.845836)scale(0.24 -0.24)">
       <use xlink:href="#DejaVuSans-34"/>
      </g>
     </g>
    </g>
    <g id="ytick_6">
     <g id="line2d_32">
      <path clip-path="url(#pcdf424de1e)" d="M 25.99 28.320024 
L 450.072 28.320024 
" style="fill:none;stroke:#b0b0b0;stroke-linecap:square;stroke-width:0.8;"/>
     </g>
     <g id="line2d_33">
      <g>
       <use style="stroke:#000000;stroke-width:0.8;" x="25.99" xlink:href="#m374afda856" y="28.320024"/>
      </g>
     </g>
     <g id="text_12">
      <!-- 5 -->
      <g transform="translate(3.72 37.438149)scale(0.24 -0.24)">
       <use xlink:href="#DejaVuSans-35"/>
      </g>
     </g>
    </g>
   </g>
   <g id="line2d_34">
    <path clip-path="url(#pcdf424de1e)" d="M 36.731845 231.414579 
L 38.929315 230.784436 
L 36.731845 226.27 
L 43.010331 226.27 
L 40.812861 230.784436 
L 43.010331 231.414579 
L 36.731845 231.414579 
" style="fill:none;stroke:#000000;stroke-linecap:square;"/>
   </g>
   <g id="line2d_35">
    <path clip-path="url(#pcdf424de1e)" d="M 36.731845 231.414579 
L 43.010331 231.414579 
L 43.010331 226.27 
L 36.731845 226.27 
L 36.731845 231.414579 
" style="fill:none;"/>
    <defs>
     <path d="M 0 3 
C 0.795609 3 1.55874 2.683901 2.12132 2.12132 
C 2.683901 1.55874 3 0.795609 3 0 
C 3 -0.795609 2.683901 -1.55874 2.12132 -2.12132 
C 1.55874 -2.683901 0.795609 -3 0 -3 
C -0.795609 -3 -1.55874 -2.683901 -2.12132 -2.12132 
C -2.683901 -1.55874 -3 -0.795609 -3 0 
C -3 0.795609 -2.683901 1.55874 -2.12132 2.12132 
C -1.55874 2.683901 -0.795609 3 0 3 
z
" id="m3e8e909572" style="stroke:#000000;stroke-width:2;"/>
    </defs>
    <g clip-path="url(#pcdf424de1e)">
     <use style="stroke:#000000;stroke-width:2;" x="36.731845" xlink:href="#m3e8e909572" y="231.414579"/>
     <use style="stroke:#000000;stroke-width:2;" x="43.010331" xlink:href="#m3e8e909572" y="231.414579"/>
     <use style="stroke:#000000;stroke-width:2;" x="43.010331" xlink:href="#m3e8e909572" y="226.27"/>
     <use style="stroke:#000000;stroke-width:2;" x="36.731845" xlink:href="#m3e8e909572" y="226.27"/>
     <use style="stroke:#000000;stroke-width:2;" x="36.731845" xlink:href="#m3e8e909572" y="231.414579"/>
    </g>
   </g>
   <g id="line2d_36">
    <path clip-path="url(#pcdf424de1e)" d="M 36.731845 230.784436 
L 43.010331 230.784436 
" style="fill:none;stroke:#000000;stroke-linecap:square;stroke-width:2;"/>
   </g>
   <g id="line2d_37">
    <path clip-path="url(#pcdf424de1e)" d="M 90.151257 200.425361 
L 92.348727 191.075171 
L 90.151257 188.104074 
L 96.429743 188.104074 
L 94.232273 191.075171 
L 96.429743 200.425361 
L 90.151257 200.425361 
" style="fill:none;stroke:#000000;stroke-linecap:square;"/>
   </g>
   <g id="line2d_38">
    <path clip-path="url(#pcdf424de1e)" d="M 90.151257 200.425361 
L 96.429743 200.425361 
L 96.429743 188.104074 
L 90.151257 188.104074 
L 90.151257 200.425361 
" style="fill:none;"/>
    <g clip-path="url(#pcdf424de1e)">
     <use style="stroke:#000000;stroke-width:2;" x="90.151257" xlink:href="#m3e8e909572" y="200.425361"/>
     <use style="stroke:#000000;stroke-width:2;" x="96.429743" xlink:href="#m3e8e909572" y="200.425361"/>
     <use style="stroke:#000000;stroke-width:2;" x="96.429743" xlink:href="#m3e8e909572" y="188.104074"/>
     <use style="stroke:#000000;stroke-width:2;" x="90.151257" xlink:href="#m3e8e909572" y="188.104074"/>
     <use style="stroke:#000000;stroke-width:2;" x="90.151257" xlink:href="#m3e8e909572" y="200.425361"/>
    </g>
   </g>
   <g id="line2d_39">
    <path clip-path="url(#pcdf424de1e)" d="M 90.151257 191.075171 
L 96.429743 191.075171 
" style="fill:none;stroke:#000000;stroke-linecap:square;stroke-width:2;"/>
   </g>
   <g id="line2d_40">
    <path clip-path="url(#pcdf424de1e)" d="M 157.451757 134.209915 
L 159.649227 118.876272 
L 157.451757 109.802474 
L 163.730243 109.802474 
L 161.532773 118.876272 
L 163.730243 134.209915 
L 157.451757 134.209915 
" style="fill:none;stroke:#000000;stroke-linecap:square;"/>
   </g>
   <g id="line2d_41">
    <path clip-path="url(#pcdf424de1e)" d="M 157.451757 134.209915 
L 163.730243 134.209915 
L 163.730243 109.802474 
L 157.451757 109.802474 
L 157.451757 134.209915 
" style="fill:none;"/>
    <g clip-path="url(#pcdf424de1e)">
     <use style="stroke:#000000;stroke-width:2;" x="157.451757" xlink:href="#m3e8e909572" y="134.209915"/>
     <use style="stroke:#000000;stroke-width:2;" x="163.730243" xlink:href="#m3e8e909572" y="134.209915"/>
     <use style="stroke:#000000;stroke-width:2;" x="163.730243" xlink:href="#m3e8e909572" y="109.802474"/>
     <use style="stroke:#000000;stroke-width:2;" x="157.451757" xlink:href="#m3e8e909572" y="109.802474"/>
     <use style="stroke:#000000;stroke-width:2;" x="157.451757" xlink:href="#m3e8e909572" y="134.209915"/>
    </g>
   </g>
   <g id="line2d_42">
    <path clip-path="url(#pcdf424de1e)" d="M 157.451757 118.876272 
L 163.730243 118.876272 
" style="fill:none;stroke:#000000;stroke-linecap:square;stroke-width:2;"/>
   </g>
   <g id="line2d_43">
    <path clip-path="url(#pcdf424de1e)" d="M 39.871088 234.379796 
L 93.2905 171.284818 
" style="fill:none;stroke:#000000;stroke-linecap:square;stroke-width:4;"/>
   </g>
   <g id="line2d_44">
    <path clip-path="url(#pcdf424de1e)" d="M 93.2905 171.284818 
L 160.591 124.010582 
" style="fill:none;stroke:#000000;stroke-linecap:square;stroke-width:4;"/>
   </g>
   <g id="line2d_45">
    <path clip-path="url(#pcdf424de1e)" d="M 39.871088 234.379796 
L 93.2905 171.284818 
L 160.591 124.010582 
" style="fill:none;"/>
    <defs>
     <path d="M 0 10 
C 2.652031 10 5.195799 8.946337 7.071068 7.071068 
C 8.946337 5.195799 10 2.652031 10 0 
C 10 -2.652031 8.946337 -5.195799 7.071068 -7.071068 
C 5.195799 -8.946337 2.652031 -10 0 -10 
C -2.652031 -10 -5.195799 -8.946337 -7.071068 -7.071068 
C -8.946337 -5.195799 -10 -2.652031 -10 0 
C -10 2.652031 -8.946337 5.195799 -7.071068 7.071068 
C -5.195799 8.946337 -2.652031 10 0 10 
z
" id="m4c4b8947e9" style="stroke:#000000;stroke-width:2;"/>
    </defs>
    <g clip-path="url(#pcdf424de1e)">
     <use style="stroke:#000000;stroke-width:2;" x="39.871088" xlink:href="#m4c4b8947e9" y="234.379796"/>
     <use style="stroke:#000000;stroke-width:2;" x="93.2905" xlink:href="#m4c4b8947e9" y="171.284818"/>
     <use style="stroke:#000000;stroke-width:2;" x="160.591" xlink:href="#m4c4b8947e9" y="124.010582"/>
    </g>
   </g>
   <g id="line2d_46">
    <path clip-path="url(#pcdf424de1e)" d="M 35.685431 238.000286 
L 38.615391 197.718864 
L 35.685431 183.932589 
L 44.056745 183.932589 
L 41.126785 197.718864 
L 44.056745 238.000286 
L 35.685431 238.000286 
" style="fill:none;stroke:#0000ff;stroke-linecap:square;"/>
   </g>
   <g id="line2d_47">
    <path clip-path="url(#pcdf424de1e)" d="M 35.685431 238.000286 
L 44.056745 238.000286 
L 44.056745 183.932589 
L 35.685431 183.932589 
L 35.685431 238.000286 
" style="fill:none;"/>
    <defs>
     <path d="M 0 1.5 
C 0.397805 1.5 0.77937 1.341951 1.06066 1.06066 
C 1.341951 0.77937 1.5 0.397805 1.5 0 
C 1.5 -0.397805 1.341951 -0.77937 1.06066 -1.06066 
C 0.77937 -1.341951 0.397805 -1.5 0 -1.5 
C -0.397805 -1.5 -0.77937 -1.341951 -1.06066 -1.06066 
C -1.341951 -0.77937 -1.5 -0.397805 -1.5 0 
C -1.5 0.397805 -1.341951 0.77937 -1.06066 1.06066 
C -0.77937 1.341951 -0.397805 1.5 0 1.5 
z
" id="mafa1cdf0cb" style="stroke:#0000ff;"/>
    </defs>
    <g clip-path="url(#pcdf424de1e)">
     <use style="fill:#0000ff;stroke:#0000ff;" x="35.685431" xlink:href="#mafa1cdf0cb" y="238.000286"/>
     <use style="fill:#0000ff;stroke:#0000ff;" x="44.056745" xlink:href="#mafa1cdf0cb" y="238.000286"/>
     <use style="fill:#0000ff;stroke:#0000ff;" x="44.056745" xlink:href="#mafa1cdf0cb" y="183.932589"/>
     <use style="fill:#0000ff;stroke:#0000ff;" x="35.685431" xlink:href="#mafa1cdf0cb" y="183.932589"/>
     <use style="fill:#0000ff;stroke:#0000ff;" x="35.685431" xlink:href="#mafa1cdf0cb" y="238.000286"/>
    </g>
   </g>
   <g id="line2d_48">
    <path clip-path="url(#pcdf424de1e)" d="M 35.685431 197.718864 
L 44.056745 197.718864 
" style="fill:none;stroke:#0000ff;stroke-linecap:square;stroke-width:2;"/>
   </g>
   <g id="line2d_49">
    <path clip-path="url(#pcdf424de1e)" d="M 89.104843 177.918314 
L 92.034803 177.523391 
L 89.104843 133.72364 
L 97.476157 133.72364 
L 94.546197 177.523391 
L 97.476157 177.918314 
L 89.104843 177.918314 
" style="fill:none;stroke:#0000ff;stroke-linecap:square;"/>
   </g>
   <g id="line2d_50">
    <path clip-path="url(#pcdf424de1e)" d="M 89.104843 177.918314 
L 97.476157 177.918314 
L 97.476157 133.72364 
L 89.104843 133.72364 
L 89.104843 177.918314 
" style="fill:none;"/>
    <g clip-path="url(#pcdf424de1e)">
     <use style="fill:#0000ff;stroke:#0000ff;" x="89.104843" xlink:href="#mafa1cdf0cb" y="177.918314"/>
     <use style="fill:#0000ff;stroke:#0000ff;" x="97.476157" xlink:href="#mafa1cdf0cb" y="177.918314"/>
     <use style="fill:#0000ff;stroke:#0000ff;" x="97.476157" xlink:href="#mafa1cdf0cb" y="133.72364"/>
     <use style="fill:#0000ff;stroke:#0000ff;" x="89.104843" xlink:href="#mafa1cdf0cb" y="133.72364"/>
     <use style="fill:#0000ff;stroke:#0000ff;" x="89.104843" xlink:href="#mafa1cdf0cb" y="177.918314"/>
    </g>
   </g>
   <g id="line2d_51">
    <path clip-path="url(#pcdf424de1e)" d="M 89.104843 177.523391 
L 97.476157 177.523391 
" style="fill:none;stroke:#0000ff;stroke-linecap:square;stroke-width:2;"/>
   </g>
   <g id="line2d_52">
    <path clip-path="url(#pcdf424de1e)" d="M 156.405343 106.994625 
L 159.335303 71.746691 
L 156.405343 60.822143 
L 164.776657 60.822143 
L 161.846697 71.746691 
L 164.776657 106.994625 
L 156.405343 106.994625 
" style="fill:none;stroke:#0000ff;stroke-linecap:square;"/>
   </g>
   <g id="line2d_53">
    <path clip-path="url(#pcdf424de1e)" d="M 156.405343 106.994625 
L 164.776657 106.994625 
L 164.776657 60.822143 
L 156.405343 60.822143 
L 156.405343 106.994625 
" style="fill:none;"/>
    <g clip-path="url(#pcdf424de1e)">
     <use style="fill:#0000ff;stroke:#0000ff;" x="156.405343" xlink:href="#mafa1cdf0cb" y="106.994625"/>
     <use style="fill:#0000ff;stroke:#0000ff;" x="164.776657" xlink:href="#mafa1cdf0cb" y="106.994625"/>
     <use style="fill:#0000ff;stroke:#0000ff;" x="164.776657" xlink:href="#mafa1cdf0cb" y="60.822143"/>
     <use style="fill:#0000ff;stroke:#0000ff;" x="156.405343" xlink:href="#mafa1cdf0cb" y="60.822143"/>
     <use style="fill:#0000ff;stroke:#0000ff;" x="156.405343" xlink:href="#mafa1cdf0cb" y="106.994625"/>
    </g>
   </g>
   <g id="line2d_54">
    <path clip-path="url(#pcdf424de1e)" d="M 156.405343 71.746691 
L 164.776657 71.746691 
" style="fill:none;stroke:#0000ff;stroke-linecap:square;stroke-width:2;"/>
   </g>
   <g id="line2d_55">
    <path clip-path="url(#pcdf424de1e)" d="M 39.871088 189.47295 
L 93.2905 135.305042 
" style="fill:none;stroke:#0000ff;stroke-linecap:square;stroke-width:4;"/>
   </g>
   <g id="line2d_56">
    <path clip-path="url(#pcdf424de1e)" d="M 93.2905 135.305042 
L 160.591 73.319641 
" style="fill:none;stroke:#0000ff;stroke-linecap:square;stroke-width:4;"/>
   </g>
   <g id="line2d_57">
    <path clip-path="url(#pcdf424de1e)" d="M 39.871088 189.47295 
L 93.2905 135.305042 
L 160.591 73.319641 
" style="fill:none;"/>
    <defs>
     <path d="M 0 5 
C 1.326016 5 2.597899 4.473168 3.535534 3.535534 
C 4.473168 2.597899 5 1.326016 5 0 
C 5 -1.326016 4.473168 -2.597899 3.535534 -3.535534 
C 2.597899 -4.473168 1.326016 -5 0 -5 
C -1.326016 -5 -2.597899 -4.473168 -3.535534 -3.535534 
C -4.473168 -2.597899 -5 -1.326016 -5 0 
C -5 1.326016 -4.473168 2.597899 -3.535534 3.535534 
C -2.597899 4.473168 -1.326016 5 0 5 
z
" id="m61a75fb36e" style="stroke:#0000ff;"/>
    </defs>
    <g clip-path="url(#pcdf424de1e)">
     <use style="fill:#0000ff;stroke:#0000ff;" x="39.871088" xlink:href="#m61a75fb36e" y="189.47295"/>
     <use style="fill:#0000ff;stroke:#0000ff;" x="93.2905" xlink:href="#m61a75fb36e" y="135.305042"/>
     <use style="fill:#0000ff;stroke:#0000ff;" x="160.591" xlink:href="#m61a75fb36e" y="73.319641"/>
    </g>
   </g>
   <g id="line2d_58">
    <path clip-path="url(#pcdf424de1e)" d="M 34.639016 182.845047 
L 38.301466 164.54395 
L 34.639016 130.03549 
L 45.103159 130.03549 
L 41.440709 164.54395 
L 45.103159 182.845047 
L 34.639016 182.845047 
" style="fill:none;stroke:#00bfbf;stroke-linecap:square;"/>
   </g>
   <g id="line2d_59">
    <path clip-path="url(#pcdf424de1e)" d="M 34.639016 182.845047 
L 45.103159 182.845047 
L 45.103159 130.03549 
L 34.639016 130.03549 
L 34.639016 182.845047 
" style="fill:none;"/>
    <defs>
     <path d="M -0 3 
L 3 -3 
L -3 -3 
z
" id="m182c0dab02" style="stroke:#00bfbf;stroke-linejoin:miter;stroke-width:2;"/>
    </defs>
    <g clip-path="url(#pcdf424de1e)">
     <use style="fill:#00bfbf;stroke:#00bfbf;stroke-linejoin:miter;stroke-width:2;" x="34.639016" xlink:href="#m182c0dab02" y="182.845047"/>
     <use style="fill:#00bfbf;stroke:#00bfbf;stroke-linejoin:miter;stroke-width:2;" x="45.103159" xlink:href="#m182c0dab02" y="182.845047"/>
     <use style="fill:#00bfbf;stroke:#00bfbf;stroke-linejoin:miter;stroke-width:2;" x="45.103159" xlink:href="#m182c0dab02" y="130.03549"/>
     <use style="fill:#00bfbf;stroke:#00bfbf;stroke-linejoin:miter;stroke-width:2;" x="34.639016" xlink:href="#m182c0dab02" y="130.03549"/>
     <use style="fill:#00bfbf;stroke:#00bfbf;stroke-linejoin:miter;stroke-width:2;" x="34.639016" xlink:href="#m182c0dab02" y="182.845047"/>
    </g>
   </g>
   <g id="line2d_60">
    <path clip-path="url(#pcdf424de1e)" d="M 34.639016 164.54395 
L 45.103159 164.54395 
" style="fill:none;stroke:#00bfbf;stroke-linecap:square;stroke-width:2;"/>
   </g>
   <g id="line2d_61">
    <path clip-path="url(#pcdf424de1e)" d="M 88.058428 144.228921 
L 91.720878 117.447776 
L 88.058428 107.972279 
L 98.522571 107.972279 
L 94.860121 117.447776 
L 98.522571 144.228921 
L 88.058428 144.228921 
" style="fill:none;stroke:#00bfbf;stroke-linecap:square;"/>
   </g>
   <g id="line2d_62">
    <path clip-path="url(#pcdf424de1e)" d="M 88.058428 144.228921 
L 98.522571 144.228921 
L 98.522571 107.972279 
L 88.058428 107.972279 
L 88.058428 144.228921 
" style="fill:none;"/>
    <g clip-path="url(#pcdf424de1e)">
     <use style="fill:#00bfbf;stroke:#00bfbf;stroke-linejoin:miter;stroke-width:2;" x="88.058428" xlink:href="#m182c0dab02" y="144.228921"/>
     <use style="fill:#00bfbf;stroke:#00bfbf;stroke-linejoin:miter;stroke-width:2;" x="98.522571" xlink:href="#m182c0dab02" y="144.228921"/>
     <use style="fill:#00bfbf;stroke:#00bfbf;stroke-linejoin:miter;stroke-width:2;" x="98.522571" xlink:href="#m182c0dab02" y="107.972279"/>
     <use style="fill:#00bfbf;stroke:#00bfbf;stroke-linejoin:miter;stroke-width:2;" x="88.058428" xlink:href="#m182c0dab02" y="107.972279"/>
     <use style="fill:#00bfbf;stroke:#00bfbf;stroke-linejoin:miter;stroke-width:2;" x="88.058428" xlink:href="#m182c0dab02" y="144.228921"/>
    </g>
   </g>
   <g id="line2d_63">
    <path clip-path="url(#pcdf424de1e)" d="M 88.058428 117.447776 
L 98.522571 117.447776 
" style="fill:none;stroke:#00bfbf;stroke-linecap:square;stroke-width:2;"/>
   </g>
   <g id="line2d_64">
    <path clip-path="url(#pcdf424de1e)" d="M 39.871088 126.712477 
L 93.2905 100.713794 
" style="fill:none;stroke:#00bfbf;stroke-linecap:square;stroke-width:4;"/>
   </g>
   <g id="line2d_65">
    <path clip-path="url(#pcdf424de1e)" d="M 39.871088 126.712477 
L 93.2905 100.713794 
" style="fill:none;"/>
    <defs>
     <path d="M -0 10 
L 10 -10 
L -10 -10 
z
" id="m9e9b9347b0" style="stroke:#000000;stroke-linejoin:miter;stroke-width:2;"/>
    </defs>
    <g clip-path="url(#pcdf424de1e)">
     <use style="fill:#00bfbf;stroke:#000000;stroke-linejoin:miter;stroke-width:2;" x="39.871088" xlink:href="#m9e9b9347b0" y="126.712477"/>
     <use style="fill:#00bfbf;stroke:#000000;stroke-linejoin:miter;stroke-width:2;" x="93.2905" xlink:href="#m9e9b9347b0" y="100.713794"/>
    </g>
   </g>
   <g id="line2d_66">
    <path clip-path="url(#pcdf424de1e)" d="M 33.592602 109.430867 
L 37.987542 98.733312 
L 33.592602 94.693857 
L 46.149574 94.693857 
L 41.754634 98.733312 
L 46.149574 109.430867 
L 33.592602 109.430867 
" style="fill:none;stroke:#008000;stroke-linecap:square;"/>
   </g>
   <g id="line2d_67">
    <path clip-path="url(#pcdf424de1e)" d="M 33.592602 109.430867 
L 46.149574 109.430867 
L 46.149574 94.693857 
L 33.592602 94.693857 
L 33.592602 109.430867 
" style="fill:none;"/>
    <defs>
     <path d="M 0 1.5 
C 0.397805 1.5 0.77937 1.341951 1.06066 1.06066 
C 1.341951 0.77937 1.5 0.397805 1.5 0 
C 1.5 -0.397805 1.341951 -0.77937 1.06066 -1.06066 
C 0.77937 -1.341951 0.397805 -1.5 0 -1.5 
C -0.397805 -1.5 -0.77937 -1.341951 -1.06066 -1.06066 
C -1.341951 -0.77937 -1.5 -0.397805 -1.5 0 
C -1.5 0.397805 -1.341951 0.77937 -1.06066 1.06066 
C -0.77937 1.341951 -0.397805 1.5 0 1.5 
z
" id="m3bb11b2270" style="stroke:#008000;"/>
    </defs>
    <g clip-path="url(#pcdf424de1e)">
     <use style="fill:#008000;stroke:#008000;" x="33.592602" xlink:href="#m3bb11b2270" y="109.430867"/>
     <use style="fill:#008000;stroke:#008000;" x="46.149574" xlink:href="#m3bb11b2270" y="109.430867"/>
     <use style="fill:#008000;stroke:#008000;" x="46.149574" xlink:href="#m3bb11b2270" y="94.693857"/>
     <use style="fill:#008000;stroke:#008000;" x="33.592602" xlink:href="#m3bb11b2270" y="94.693857"/>
     <use style="fill:#008000;stroke:#008000;" x="33.592602" xlink:href="#m3bb11b2270" y="109.430867"/>
    </g>
   </g>
   <g id="line2d_68">
    <path clip-path="url(#pcdf424de1e)" d="M 33.592602 98.733312 
L 46.149574 98.733312 
" style="fill:none;stroke:#008000;stroke-linecap:square;stroke-width:2;"/>
   </g>
   <g id="line2d_69">
    <path clip-path="url(#pcdf424de1e)" d="M 87.012014 111.050649 
L 91.406954 102.594865 
L 87.012014 77.690631 
L 99.568986 77.690631 
L 95.174046 102.594865 
L 99.568986 111.050649 
L 87.012014 111.050649 
" style="fill:none;stroke:#008000;stroke-linecap:square;"/>
   </g>
   <g id="line2d_70">
    <path clip-path="url(#pcdf424de1e)" d="M 87.012014 111.050649 
L 99.568986 111.050649 
L 99.568986 77.690631 
L 87.012014 77.690631 
L 87.012014 111.050649 
" style="fill:none;"/>
    <g clip-path="url(#pcdf424de1e)">
     <use style="fill:#008000;stroke:#008000;" x="87.012014" xlink:href="#m3bb11b2270" y="111.050649"/>
     <use style="fill:#008000;stroke:#008000;" x="99.568986" xlink:href="#m3bb11b2270" y="111.050649"/>
     <use style="fill:#008000;stroke:#008000;" x="99.568986" xlink:href="#m3bb11b2270" y="77.690631"/>
     <use style="fill:#008000;stroke:#008000;" x="87.012014" xlink:href="#m3bb11b2270" y="77.690631"/>
     <use style="fill:#008000;stroke:#008000;" x="87.012014" xlink:href="#m3bb11b2270" y="111.050649"/>
    </g>
   </g>
   <g id="line2d_71">
    <path clip-path="url(#pcdf424de1e)" d="M 87.012014 102.594865 
L 99.568986 102.594865 
" style="fill:none;stroke:#008000;stroke-linecap:square;stroke-width:2;"/>
   </g>
   <g id="line2d_72">
    <path clip-path="url(#pcdf424de1e)" d="M 39.871088 98.877961 
L 93.2905 89.687622 
" style="fill:none;stroke:#008000;stroke-linecap:square;stroke-width:4;"/>
   </g>
   <g id="line2d_73">
    <path clip-path="url(#pcdf424de1e)" d="M 39.871088 98.877961 
L 93.2905 89.687622 
" style="fill:none;"/>
    <defs>
     <path d="M 0 5 
C 1.326016 5 2.597899 4.473168 3.535534 3.535534 
C 4.473168 2.597899 5 1.326016 5 0 
C 5 -1.326016 4.473168 -2.597899 3.535534 -3.535534 
C 2.597899 -4.473168 1.326016 -5 0 -5 
C -1.326016 -5 -2.597899 -4.473168 -3.535534 -3.535534 
C -4.473168 -2.597899 -5 -1.326016 -5 0 
C -5 1.326016 -4.473168 2.597899 -3.535534 3.535534 
C -2.597899 4.473168 -1.326016 5 0 5 
z
" id="mf058ab7d46" style="stroke:#008000;"/>
    </defs>
    <g clip-path="url(#pcdf424de1e)">
     <use style="fill:#008000;stroke:#008000;" x="39.871088" xlink:href="#mf058ab7d46" y="98.877961"/>
     <use style="fill:#008000;stroke:#008000;" x="93.2905" xlink:href="#mf058ab7d46" y="89.687622"/>
    </g>
   </g>
   <g id="line2d_74">
    <path clip-path="url(#pcdf424de1e)" d="M 32.546188 103.057668 
L 37.673618 96.57424 
L 32.546188 77.510892 
L 47.195988 77.510892 
L 42.068558 96.57424 
L 47.195988 103.057668 
L 32.546188 103.057668 
" style="fill:none;stroke:#bfbf00;stroke-linecap:square;"/>
   </g>
   <g id="line2d_75">
    <path clip-path="url(#pcdf424de1e)" d="M 32.546188 103.057668 
L 47.195988 103.057668 
L 47.195988 77.510892 
L 32.546188 77.510892 
L 32.546188 103.057668 
" style="fill:none;"/>
    <defs>
     <path d="M 0 -3 
L -3 3 
L 3 3 
z
" id="m6c368d460e" style="stroke:#bfbf00;stroke-linejoin:miter;stroke-width:2;"/>
    </defs>
    <g clip-path="url(#pcdf424de1e)">
     <use style="fill:#bfbf00;stroke:#bfbf00;stroke-linejoin:miter;stroke-width:2;" x="32.546188" xlink:href="#m6c368d460e" y="103.057668"/>
     <use style="fill:#bfbf00;stroke:#bfbf00;stroke-linejoin:miter;stroke-width:2;" x="47.195988" xlink:href="#m6c368d460e" y="103.057668"/>
     <use style="fill:#bfbf00;stroke:#bfbf00;stroke-linejoin:miter;stroke-width:2;" x="47.195988" xlink:href="#m6c368d460e" y="77.510892"/>
     <use style="fill:#bfbf00;stroke:#bfbf00;stroke-linejoin:miter;stroke-width:2;" x="32.546188" xlink:href="#m6c368d460e" y="77.510892"/>
     <use style="fill:#bfbf00;stroke:#bfbf00;stroke-linejoin:miter;stroke-width:2;" x="32.546188" xlink:href="#m6c368d460e" y="103.057668"/>
    </g>
   </g>
   <g id="line2d_76">
    <path clip-path="url(#pcdf424de1e)" d="M 32.546188 96.57424 
L 47.195988 96.57424 
" style="fill:none;stroke:#bfbf00;stroke-linecap:square;stroke-width:2;"/>
   </g>
   <g id="line2d_77">
    <path clip-path="url(#pcdf424de1e)" d="M 39.871088 88.522227 
" style="fill:none;"/>
    <defs>
     <path d="M 0 -10 
L -10 10 
L 10 10 
z
" id="m356e8e5216" style="stroke:#000000;stroke-linejoin:miter;stroke-width:2;"/>
    </defs>
    <g clip-path="url(#pcdf424de1e)">
     <use style="fill:#bfbf00;stroke:#000000;stroke-linejoin:miter;stroke-width:2;" x="39.871088" xlink:href="#m356e8e5216" y="88.522227"/>
    </g>
   </g>
   <g id="line2d_78"/>
   <g id="line2d_79"/>
   <g id="line2d_80"/>
   <g id="line2d_81"/>
   <g id="line2d_82"/>
   <g id="line2d_83"/>
   <g id="line2d_84"/>
   <g id="line2d_85">
    <defs>
     <path d="M -10 10 
L 10 -10 
M -10 -10 
L 10 10 
" id="mb5dd9ba2d9" style="stroke:#ff0000;"/>
    </defs>
    <g clip-path="url(#pcdf424de1e)">
     <use style="fill:#ff0000;stroke:#ff0000;" x="39.871088" xlink:href="#mb5dd9ba2d9" y="135.982538"/>
     <use style="fill:#ff0000;stroke:#ff0000;" x="93.2905" xlink:href="#mb5dd9ba2d9" y="136.36061"/>
     <use style="fill:#ff0000;stroke:#ff0000;" x="160.591" xlink:href="#mb5dd9ba2d9" y="136.667484"/>
     <use style="fill:#ff0000;stroke:#ff0000;" x="251.912088" xlink:href="#mb5dd9ba2d9" y="136.900283"/>
     <use style="fill:#ff0000;stroke:#ff0000;" x="343.233176" xlink:href="#mb5dd9ba2d9" y="137.017549"/>
     <use style="fill:#ff0000;stroke:#ff0000;" x="434.554264" xlink:href="#mb5dd9ba2d9" y="245.950775"/>
    </g>
   </g>
   <g id="line2d_86">
    <path clip-path="url(#pcdf424de1e)" d="M 85.403263 346.6 
L 461.8 279.093621 
" style="fill:none;stroke:#000000;stroke-dasharray:0.5,0.825;stroke-dashoffset:0;stroke-width:0.5;"/>
   </g>
   <g id="line2d_87">
    <path clip-path="url(#pcdf424de1e)" d="M -1 307.688651 
L 461.8 224.685933 
" style="fill:none;stroke:#000000;stroke-dasharray:0.5,0.825;stroke-dashoffset:0;stroke-width:0.5;"/>
   </g>
   <g id="line2d_88">
    <path clip-path="url(#pcdf424de1e)" d="M -1 253.280964 
L 461.8 170.278245 
" style="fill:none;stroke:#000000;stroke-dasharray:0.5,0.825;stroke-dashoffset:0;stroke-width:0.5;"/>
   </g>
   <g id="line2d_89">
    <path clip-path="url(#pcdf424de1e)" d="M -1 198.873276 
L 461.8 115.870558 
" style="fill:none;stroke:#000000;stroke-dasharray:0.5,0.825;stroke-dashoffset:0;stroke-width:0.5;"/>
   </g>
   <g id="line2d_90">
    <path clip-path="url(#pcdf424de1e)" d="M -1 144.465588 
L 461.8 61.46287 
" style="fill:none;stroke:#000000;stroke-dasharray:0.5,0.825;stroke-dashoffset:0;stroke-width:0.5;"/>
   </g>
   <g id="line2d_91">
    <path clip-path="url(#pcdf424de1e)" d="M -1 90.0579 
L 461.8 7.055182 
" style="fill:none;stroke:#000000;stroke-dasharray:0.5,0.825;stroke-dashoffset:0;stroke-width:0.5;"/>
   </g>
   <g id="line2d_92">
    <path clip-path="url(#pcdf424de1e)" d="M -1 35.650212 
L 203.35136 -1 
" style="fill:none;stroke:#000000;stroke-dasharray:0.5,0.825;stroke-dashoffset:0;stroke-width:0.5;"/>
   </g>
   <g id="line2d_93">
    <path clip-path="url(#pcdf424de1e)" style="fill:none;stroke:#000000;stroke-dasharray:0.5,0.825;stroke-dashoffset:0;stroke-width:0.5;"/>
   </g>
   <g id="line2d_94">
    <path clip-path="url(#pcdf424de1e)" style="fill:none;stroke:#000000;stroke-dasharray:0.5,0.825;stroke-dashoffset:0;stroke-width:0.5;"/>
   </g>
   <g id="patch_3">
    <path d="M 25.99 311.24 
L 25.99 28.32 
" style="fill:none;stroke:#000000;stroke-linecap:square;stroke-linejoin:miter;stroke-width:0.8;"/>
   </g>
   <g id="patch_4">
    <path d="M 450.072 311.24 
L 450.072 28.32 
" style="fill:none;stroke:#000000;stroke-linecap:square;stroke-linejoin:miter;stroke-width:0.8;"/>
   </g>
   <g id="patch_5">
    <path d="M 25.99 311.24 
L 450.072 311.24 
" style="fill:none;stroke:#000000;stroke-linecap:square;stroke-linejoin:miter;stroke-width:0.8;"/>
   </g>
   <g id="patch_6">
    <path d="M 25.99 28.32 
L 450.072 28.32 
" style="fill:none;stroke:#000000;stroke-linecap:square;stroke-linejoin:miter;stroke-width:0.8;"/>
   </g>
   <g id="text_13">
    <!-- 2 -->
    <g transform="translate(33.381338 74.698946)scale(0.204 -0.204)">
     <use xlink:href="#DejaVuSans-32"/>
    </g>
   </g>
   <g id="text_14">
    <!-- 2 -->
    <g transform="translate(86.80075 75.864342)scale(0.204 -0.204)">
     <use xlink:href="#DejaVuSans-32"/>
    </g>
   </g>
   <g id="text_15">
    <!-- 1 -->
    <g transform="translate(154.10125 59.49636)scale(0.204 -0.204)">
     <use xlink:href="#DejaVuSans-31"/>
    </g>
   </g>
   <g id="text_16">
    <!-- 30 instances -->
    <defs>
     <path id="DejaVuSans-20"/>
     <path d="M 9.421875 54.6875 
L 18.40625 54.6875 
L 18.40625 0 
L 9.421875 0 
z
M 9.421875 75.984375 
L 18.40625 75.984375 
L 18.40625 64.59375 
L 9.421875 64.59375 
z
" id="DejaVuSans-69"/>
     <path d="M 54.890625 33.015625 
L 54.890625 0 
L 45.90625 0 
L 45.90625 32.71875 
Q 45.90625 40.484375 42.875 44.328125 
Q 39.84375 48.1875 33.796875 48.1875 
Q 26.515625 48.1875 22.3125 43.546875 
Q 18.109375 38.921875 18.109375 30.90625 
L 18.109375 0 
L 9.078125 0 
L 9.078125 54.6875 
L 18.109375 54.6875 
L 18.109375 46.1875 
Q 21.34375 51.125 25.703125 53.5625 
Q 30.078125 56 35.796875 56 
Q 45.21875 56 50.046875 50.171875 
Q 54.890625 44.34375 54.890625 33.015625 
z
" id="DejaVuSans-6e"/>
     <path d="M 44.28125 53.078125 
L 44.28125 44.578125 
Q 40.484375 46.53125 36.375 47.5 
Q 32.28125 48.484375 27.875 48.484375 
Q 21.1875 48.484375 17.84375 46.4375 
Q 14.5 44.390625 14.5 40.28125 
Q 14.5 37.15625 16.890625 35.375 
Q 19.28125 33.59375 26.515625 31.984375 
L 29.59375 31.296875 
Q 39.15625 29.25 43.1875 25.515625 
Q 47.21875 21.78125 47.21875 15.09375 
Q 47.21875 7.46875 41.1875 3.015625 
Q 35.15625 -1.421875 24.609375 -1.421875 
Q 20.21875 -1.421875 15.453125 -0.5625 
Q 10.6875 0.296875 5.421875 2 
L 5.421875 11.28125 
Q 10.40625 8.6875 15.234375 7.390625 
Q 20.0625 6.109375 24.8125 6.109375 
Q 31.15625 6.109375 34.5625 8.28125 
Q 37.984375 10.453125 37.984375 14.40625 
Q 37.984375 18.0625 35.515625 20.015625 
Q 33.0625 21.96875 24.703125 23.78125 
L 21.578125 24.515625 
Q 13.234375 26.265625 9.515625 29.90625 
Q 5.8125 33.546875 5.8125 39.890625 
Q 5.8125 47.609375 11.28125 51.796875 
Q 16.75 56 26.8125 56 
Q 31.78125 56 36.171875 55.265625 
Q 40.578125 54.546875 44.28125 53.078125 
z
" id="DejaVuSans-73"/>
     <path d="M 18.3125 70.21875 
L 18.3125 54.6875 
L 36.8125 54.6875 
L 36.8125 47.703125 
L 18.3125 47.703125 
L 18.3125 18.015625 
Q 18.3125 11.328125 20.140625 9.421875 
Q 21.96875 7.515625 27.59375 7.515625 
L 36.8125 7.515625 
L 36.8125 0 
L 27.59375 0 
Q 17.1875 0 13.234375 3.875 
Q 9.28125 7.765625 9.28125 18.015625 
L 9.28125 47.703125 
L 2.6875 47.703125 
L 2.6875 54.6875 
L 9.28125 54.6875 
L 9.28125 70.21875 
z
" id="DejaVuSans-74"/>
     <path d="M 34.28125 27.484375 
Q 23.390625 27.484375 19.1875 25 
Q 14.984375 22.515625 14.984375 16.5 
Q 14.984375 11.71875 18.140625 8.90625 
Q 21.296875 6.109375 26.703125 6.109375 
Q 34.1875 6.109375 38.703125 11.40625 
Q 43.21875 16.703125 43.21875 25.484375 
L 43.21875 27.484375 
z
M 52.203125 31.203125 
L 52.203125 0 
L 43.21875 0 
L 43.21875 8.296875 
Q 40.140625 3.328125 35.546875 0.953125 
Q 30.953125 -1.421875 24.3125 -1.421875 
Q 15.921875 -1.421875 10.953125 3.296875 
Q 6 8.015625 6 15.921875 
Q 6 25.140625 12.171875 29.828125 
Q 18.359375 34.515625 30.609375 34.515625 
L 43.21875 34.515625 
L 43.21875 35.40625 
Q 43.21875 41.609375 39.140625 45 
Q 35.0625 48.390625 27.6875 48.390625 
Q 23 48.390625 18.546875 47.265625 
Q 14.109375 46.140625 10.015625 43.890625 
L 10.015625 52.203125 
Q 14.9375 54.109375 19.578125 55.046875 
Q 24.21875 56 28.609375 56 
Q 40.484375 56 46.34375 49.84375 
Q 52.203125 43.703125 52.203125 31.203125 
z
" id="DejaVuSans-61"/>
     <path d="M 48.78125 52.59375 
L 48.78125 44.1875 
Q 44.96875 46.296875 41.140625 47.34375 
Q 37.3125 48.390625 33.40625 48.390625 
Q 24.65625 48.390625 19.8125 42.84375 
Q 14.984375 37.3125 14.984375 27.296875 
Q 14.984375 17.28125 19.8125 11.734375 
Q 24.65625 6.203125 33.40625 6.203125 
Q 37.3125 6.203125 41.140625 7.25 
Q 44.96875 8.296875 48.78125 10.40625 
L 48.78125 2.09375 
Q 45.015625 0.34375 40.984375 -0.53125 
Q 36.96875 -1.421875 32.421875 -1.421875 
Q 20.0625 -1.421875 12.78125 6.34375 
Q 5.515625 14.109375 5.515625 27.296875 
Q 5.515625 40.671875 12.859375 48.328125 
Q 20.21875 56 33.015625 56 
Q 37.15625 56 41.109375 55.140625 
Q 45.0625 54.296875 48.78125 52.59375 
z
" id="DejaVuSans-63"/>
     <path d="M 56.203125 29.59375 
L 56.203125 25.203125 
L 14.890625 25.203125 
Q 15.484375 15.921875 20.484375 11.0625 
Q 25.484375 6.203125 34.421875 6.203125 
Q 39.59375 6.203125 44.453125 7.46875 
Q 49.3125 8.734375 54.109375 11.28125 
L 54.109375 2.78125 
Q 49.265625 0.734375 44.1875 -0.34375 
Q 39.109375 -1.421875 33.890625 -1.421875 
Q 20.796875 -1.421875 13.15625 6.1875 
Q 5.515625 13.8125 5.515625 26.8125 
Q 5.515625 40.234375 12.765625 48.109375 
Q 20.015625 56 32.328125 56 
Q 43.359375 56 49.78125 48.890625 
Q 56.203125 41.796875 56.203125 29.59375 
z
M 47.21875 32.234375 
Q 47.125 39.59375 43.09375 43.984375 
Q 39.0625 48.390625 32.421875 48.390625 
Q 24.90625 48.390625 20.390625 44.140625 
Q 15.875 39.890625 15.1875 32.171875 
z
" id="DejaVuSans-65"/>
    </defs>
    <g transform="translate(25.99 292.6515)scale(0.14 -0.14)">
     <use xlink:href="#DejaVuSans-33"/>
     <use x="63.623047" xlink:href="#DejaVuSans-30"/>
     <use x="127.246094" xlink:href="#DejaVuSans-20"/>
     <use x="159.033203" xlink:href="#DejaVuSans-69"/>
     <use x="186.816406" xlink:href="#DejaVuSans-6e"/>
     <use x="250.195312" xlink:href="#DejaVuSans-73"/>
     <use x="302.294922" xlink:href="#DejaVuSans-74"/>
     <use x="341.503906" xlink:href="#DejaVuSans-61"/>
     <use x="402.783203" xlink:href="#DejaVuSans-6e"/>
     <use x="466.162109" xlink:href="#DejaVuSans-63"/>
     <use x="521.142578" xlink:href="#DejaVuSans-65"/>
     <use x="582.666016" xlink:href="#DejaVuSans-73"/>
    </g>
    <!-- absolute targets -->
    <defs>
     <path d="M 48.6875 27.296875 
Q 48.6875 37.203125 44.609375 42.84375 
Q 40.53125 48.484375 33.40625 48.484375 
Q 26.265625 48.484375 22.1875 42.84375 
Q 18.109375 37.203125 18.109375 27.296875 
Q 18.109375 17.390625 22.1875 11.75 
Q 26.265625 6.109375 33.40625 6.109375 
Q 40.53125 6.109375 44.609375 11.75 
Q 48.6875 17.390625 48.6875 27.296875 
z
M 18.109375 46.390625 
Q 20.953125 51.265625 25.265625 53.625 
Q 29.59375 56 35.59375 56 
Q 45.5625 56 51.78125 48.09375 
Q 58.015625 40.1875 58.015625 27.296875 
Q 58.015625 14.40625 51.78125 6.484375 
Q 45.5625 -1.421875 35.59375 -1.421875 
Q 29.59375 -1.421875 25.265625 0.953125 
Q 20.953125 3.328125 18.109375 8.203125 
L 18.109375 0 
L 9.078125 0 
L 9.078125 75.984375 
L 18.109375 75.984375 
z
" id="DejaVuSans-62"/>
     <path d="M 30.609375 48.390625 
Q 23.390625 48.390625 19.1875 42.75 
Q 14.984375 37.109375 14.984375 27.296875 
Q 14.984375 17.484375 19.15625 11.84375 
Q 23.34375 6.203125 30.609375 6.203125 
Q 37.796875 6.203125 41.984375 11.859375 
Q 46.1875 17.53125 46.1875 27.296875 
Q 46.1875 37.015625 41.984375 42.703125 
Q 37.796875 48.390625 30.609375 48.390625 
z
M 30.609375 56 
Q 42.328125 56 49.015625 48.375 
Q 55.71875 40.765625 55.71875 27.296875 
Q 55.71875 13.875 49.015625 6.21875 
Q 42.328125 -1.421875 30.609375 -1.421875 
Q 18.84375 -1.421875 12.171875 6.21875 
Q 5.515625 13.875 5.515625 27.296875 
Q 5.515625 40.765625 12.171875 48.375 
Q 18.84375 56 30.609375 56 
z
" id="DejaVuSans-6f"/>
     <path d="M 9.421875 75.984375 
L 18.40625 75.984375 
L 18.40625 0 
L 9.421875 0 
z
" id="DejaVuSans-6c"/>
     <path d="M 8.5 21.578125 
L 8.5 54.6875 
L 17.484375 54.6875 
L 17.484375 21.921875 
Q 17.484375 14.15625 20.5 10.265625 
Q 23.53125 6.390625 29.59375 6.390625 
Q 36.859375 6.390625 41.078125 11.03125 
Q 45.3125 15.671875 45.3125 23.6875 
L 45.3125 54.6875 
L 54.296875 54.6875 
L 54.296875 0 
L 45.3125 0 
L 45.3125 8.40625 
Q 42.046875 3.421875 37.71875 1 
Q 33.40625 -1.421875 27.6875 -1.421875 
Q 18.265625 -1.421875 13.375 4.4375 
Q 8.5 10.296875 8.5 21.578125 
z
M 31.109375 56 
z
" id="DejaVuSans-75"/>
     <path d="M 41.109375 46.296875 
Q 39.59375 47.171875 37.8125 47.578125 
Q 36.03125 48 33.890625 48 
Q 26.265625 48 22.1875 43.046875 
Q 18.109375 38.09375 18.109375 28.8125 
L 18.109375 0 
L 9.078125 0 
L 9.078125 54.6875 
L 18.109375 54.6875 
L 18.109375 46.1875 
Q 20.953125 51.171875 25.484375 53.578125 
Q 30.03125 56 36.53125 56 
Q 37.453125 56 38.578125 55.875 
Q 39.703125 55.765625 41.0625 55.515625 
z
" id="DejaVuSans-72"/>
     <path d="M 45.40625 27.984375 
Q 45.40625 37.75 41.375 43.109375 
Q 37.359375 48.484375 30.078125 48.484375 
Q 22.859375 48.484375 18.828125 43.109375 
Q 14.796875 37.75 14.796875 27.984375 
Q 14.796875 18.265625 18.828125 12.890625 
Q 22.859375 7.515625 30.078125 7.515625 
Q 37.359375 7.515625 41.375 12.890625 
Q 45.40625 18.265625 45.40625 27.984375 
z
M 54.390625 6.78125 
Q 54.390625 -7.171875 48.1875 -13.984375 
Q 42 -20.796875 29.203125 -20.796875 
Q 24.46875 -20.796875 20.265625 -20.09375 
Q 16.0625 -19.390625 12.109375 -17.921875 
L 12.109375 -9.1875 
Q 16.0625 -11.328125 19.921875 -12.34375 
Q 23.78125 -13.375 27.78125 -13.375 
Q 36.625 -13.375 41.015625 -8.765625 
Q 45.40625 -4.15625 45.40625 5.171875 
L 45.40625 9.625 
Q 42.625 4.78125 38.28125 2.390625 
Q 33.9375 0 27.875 0 
Q 17.828125 0 11.671875 7.65625 
Q 5.515625 15.328125 5.515625 27.984375 
Q 5.515625 40.671875 11.671875 48.328125 
Q 17.828125 56 27.875 56 
Q 33.9375 56 38.28125 53.609375 
Q 42.625 51.21875 45.40625 46.390625 
L 45.40625 54.6875 
L 54.390625 54.6875 
z
" id="DejaVuSans-67"/>
    </defs>
    <g transform="translate(25.99 308.328437)scale(0.14 -0.14)">
     <use xlink:href="#DejaVuSans-61"/>
     <use x="61.279297" xlink:href="#DejaVuSans-62"/>
     <use x="124.755859" xlink:href="#DejaVuSans-73"/>
     <use x="176.855469" xlink:href="#DejaVuSans-6f"/>
     <use x="238.037109" xlink:href="#DejaVuSans-6c"/>
     <use x="265.820312" xlink:href="#DejaVuSans-75"/>
     <use x="329.199219" xlink:href="#DejaVuSans-74"/>
     <use x="368.408203" xlink:href="#DejaVuSans-65"/>
     <use x="429.931641" xlink:href="#DejaVuSans-20"/>
     <use x="461.71875" xlink:href="#DejaVuSans-74"/>
     <use x="500.927734" xlink:href="#DejaVuSans-61"/>
     <use x="562.207031" xlink:href="#DejaVuSans-72"/>
     <use x="603.304688" xlink:href="#DejaVuSans-67"/>
     <use x="666.78125" xlink:href="#DejaVuSans-65"/>
     <use x="728.304688" xlink:href="#DejaVuSans-74"/>
     <use x="767.513672" xlink:href="#DejaVuSans-73"/>
    </g>
   </g>
   <g id="text_17">
    <!-- v2.2.1.10 -->
    <defs>
     <path d="M 2.984375 54.6875 
L 12.5 54.6875 
L 29.59375 8.796875 
L 46.6875 54.6875 
L 56.203125 54.6875 
L 35.6875 0 
L 23.484375 0 
z
" id="DejaVuSans-76"/>
     <path d="M 10.6875 12.40625 
L 21 12.40625 
L 21 0 
L 10.6875 0 
z
" id="DejaVuSans-2e"/>
    </defs>
    <g style="fill:#808080;" transform="translate(214.398188 306.331112)scale(0.1 -0.1)">
     <use xlink:href="#DejaVuSans-76"/>
     <use x="59.179688" xlink:href="#DejaVuSans-32"/>
     <use x="122.802734" xlink:href="#DejaVuSans-2e"/>
     <use x="154.589844" xlink:href="#DejaVuSans-32"/>
     <use x="218.212891" xlink:href="#DejaVuSans-2e"/>
     <use x="250" xlink:href="#DejaVuSans-31"/>
     <use x="313.623047" xlink:href="#DejaVuSans-2e"/>
     <use x="345.410156" xlink:href="#DejaVuSans-31"/>
     <use x="409.033203" xlink:href="#DejaVuSans-30"/>
    </g>
   </g>
   <g id="text_18">
    <!-- 8 Rosenbrock original -->
    <defs>
     <path d="M 31.78125 34.625 
Q 24.75 34.625 20.71875 30.859375 
Q 16.703125 27.09375 16.703125 20.515625 
Q 16.703125 13.921875 20.71875 10.15625 
Q 24.75 6.390625 31.78125 6.390625 
Q 38.8125 6.390625 42.859375 10.171875 
Q 46.921875 13.96875 46.921875 20.515625 
Q 46.921875 27.09375 42.890625 30.859375 
Q 38.875 34.625 31.78125 34.625 
z
M 21.921875 38.8125 
Q 15.578125 40.375 12.03125 44.71875 
Q 8.5 49.078125 8.5 55.328125 
Q 8.5 64.0625 14.71875 69.140625 
Q 20.953125 74.21875 31.78125 74.21875 
Q 42.671875 74.21875 48.875 69.140625 
Q 55.078125 64.0625 55.078125 55.328125 
Q 55.078125 49.078125 51.53125 44.71875 
Q 48 40.375 41.703125 38.8125 
Q 48.828125 37.15625 52.796875 32.3125 
Q 56.78125 27.484375 56.78125 20.515625 
Q 56.78125 9.90625 50.3125 4.234375 
Q 43.84375 -1.421875 31.78125 -1.421875 
Q 19.734375 -1.421875 13.25 4.234375 
Q 6.78125 9.90625 6.78125 20.515625 
Q 6.78125 27.484375 10.78125 32.3125 
Q 14.796875 37.15625 21.921875 38.8125 
z
M 18.3125 54.390625 
Q 18.3125 48.734375 21.84375 45.5625 
Q 25.390625 42.390625 31.78125 42.390625 
Q 38.140625 42.390625 41.71875 45.5625 
Q 45.3125 48.734375 45.3125 54.390625 
Q 45.3125 60.0625 41.71875 63.234375 
Q 38.140625 66.40625 31.78125 66.40625 
Q 25.390625 66.40625 21.84375 63.234375 
Q 18.3125 60.0625 18.3125 54.390625 
z
" id="DejaVuSans-38"/>
     <path d="M 44.390625 34.1875 
Q 47.5625 33.109375 50.5625 29.59375 
Q 53.5625 26.078125 56.59375 19.921875 
L 66.609375 0 
L 56 0 
L 46.6875 18.703125 
Q 43.0625 26.03125 39.671875 28.421875 
Q 36.28125 30.8125 30.421875 30.8125 
L 19.671875 30.8125 
L 19.671875 0 
L 9.8125 0 
L 9.8125 72.90625 
L 32.078125 72.90625 
Q 44.578125 72.90625 50.734375 67.671875 
Q 56.890625 62.453125 56.890625 51.90625 
Q 56.890625 45.015625 53.6875 40.46875 
Q 50.484375 35.9375 44.390625 34.1875 
z
M 19.671875 64.796875 
L 19.671875 38.921875 
L 32.078125 38.921875 
Q 39.203125 38.921875 42.84375 42.21875 
Q 46.484375 45.515625 46.484375 51.90625 
Q 46.484375 58.296875 42.84375 61.546875 
Q 39.203125 64.796875 32.078125 64.796875 
z
" id="DejaVuSans-52"/>
     <path d="M 9.078125 75.984375 
L 18.109375 75.984375 
L 18.109375 31.109375 
L 44.921875 54.6875 
L 56.390625 54.6875 
L 27.390625 29.109375 
L 57.625 0 
L 45.90625 0 
L 18.109375 26.703125 
L 18.109375 0 
L 9.078125 0 
z
" id="DejaVuSans-6b"/>
    </defs>
    <g transform="translate(107.56475 22.32)scale(0.24 -0.24)">
     <use xlink:href="#DejaVuSans-38"/>
     <use x="63.623047" xlink:href="#DejaVuSans-20"/>
     <use x="95.410156" xlink:href="#DejaVuSans-52"/>
     <use x="164.830078" xlink:href="#DejaVuSans-6f"/>
     <use x="226.011719" xlink:href="#DejaVuSans-73"/>
     <use x="278.111328" xlink:href="#DejaVuSans-65"/>
     <use x="339.634766" xlink:href="#DejaVuSans-6e"/>
     <use x="403.013672" xlink:href="#DejaVuSans-62"/>
     <use x="466.490234" xlink:href="#DejaVuSans-72"/>
     <use x="507.572266" xlink:href="#DejaVuSans-6f"/>
     <use x="568.753906" xlink:href="#DejaVuSans-63"/>
     <use x="623.734375" xlink:href="#DejaVuSans-6b"/>
     <use x="681.644531" xlink:href="#DejaVuSans-20"/>
     <use x="713.431641" xlink:href="#DejaVuSans-6f"/>
     <use x="774.613281" xlink:href="#DejaVuSans-72"/>
     <use x="815.726562" xlink:href="#DejaVuSans-69"/>
     <use x="843.509766" xlink:href="#DejaVuSans-67"/>
     <use x="906.986328" xlink:href="#DejaVuSans-69"/>
     <use x="934.769531" xlink:href="#DejaVuSans-6e"/>
     <use x="998.148438" xlink:href="#DejaVuSans-61"/>
     <use x="1059.427734" xlink:href="#DejaVuSans-6c"/>
    </g>
   </g>
  </g>
 </g>
 <defs>
  <clipPath id="pcdf424de1e">
   <rect height="282.92" width="424.082" x="25.99" y="28.32"/>
  </clipPath>
 </defs>
</svg>
