<?xml version="1.0" encoding="utf-8" standalone="no"?>
<!DOCTYPE svg PUBLIC "-//W3C//DTD SVG 1.1//EN"
  "http://www.w3.org/Graphics/SVG/1.1/DTD/svg11.dtd">
<!-- Created with matplotlib (http://matplotlib.org/) -->
<svg height="345.6pt" version="1.1" viewBox="0 0 460.8 345.6" width="460.8pt" xmlns="http://www.w3.org/2000/svg" xmlns:xlink="http://www.w3.org/1999/xlink">
 <defs>
  <style type="text/css">
*{stroke-linecap:butt;stroke-linejoin:round;}
  </style>
 </defs>
 <g id="figure_1">
  <g id="patch_1">
   <path d="M 0 345.6 
L 460.8 345.6 
L 460.8 0 
L 0 0 
z
" style="fill:#ffffff;"/>
  </g>
  <g id="axes_1">
   <g id="patch_2">
    <path d="M 5.52 291.28 
L 450.672 291.28 
L 450.672 5.52 
L 5.52 5.52 
z
" style="fill:#ffffff;"/>
   </g>
   <g id="matplotlib.axis_1">
    <g id="xtick_1">
     <g id="line2d_1">
      <path clip-path="url(#pf2769968bd)" d="M 5.413143 291.28 
L 5.413143 5.52 
" style="fill:none;stroke:#b0b0b0;stroke-linecap:square;stroke-width:0.8;"/>
     </g>
     <g id="line2d_2">
      <defs>
       <path d="M 0 0 
L 0 3.5 
" id="mf6f24b1850" style="stroke:#000000;stroke-width:0.8;"/>
      </defs>
      <g>
       <use style="stroke:#000000;stroke-width:0.8;" x="5.413143" xlink:href="#mf6f24b1850" y="291.28"/>
      </g>
     </g>
    </g>
    <g id="xtick_2">
     <g id="line2d_3">
      <path clip-path="url(#pf2769968bd)" d="M 104.323017 291.28 
L 104.323017 5.52 
" style="fill:none;stroke:#b0b0b0;stroke-linecap:square;stroke-width:0.8;"/>
     </g>
     <g id="line2d_4">
      <g>
       <use style="stroke:#000000;stroke-width:0.8;" x="104.323017" xlink:href="#mf6f24b1850" y="291.28"/>
      </g>
     </g>
     <g id="text_1">
      <!-- -4 -->
      <defs>
       <path d="M 4.890625 31.390625 
L 31.203125 31.390625 
L 31.203125 23.390625 
L 4.890625 23.390625 
z
" id="DejaVuSans-2d"/>
       <path d="M 37.796875 64.3125 
L 12.890625 25.390625 
L 37.796875 25.390625 
z
M 35.203125 72.90625 
L 47.609375 72.90625 
L 47.609375 25.390625 
L 58.015625 25.390625 
L 58.015625 17.1875 
L 47.609375 17.1875 
L 47.609375 0 
L 37.796875 0 
L 37.796875 17.1875 
L 4.890625 17.1875 
L 4.890625 26.703125 
z
" id="DejaVuSans-34"/>
      </defs>
      <g transform="translate(94.352704 313.476875)scale(0.2 -0.2)">
       <use xlink:href="#DejaVuSans-2d"/>
       <use x="36.083984" xlink:href="#DejaVuSans-34"/>
      </g>
     </g>
    </g>
    <g id="xtick_3">
     <g id="line2d_5">
      <path clip-path="url(#pf2769968bd)" d="M 203.23289 291.28 
L 203.23289 5.52 
" style="fill:none;stroke:#b0b0b0;stroke-linecap:square;stroke-width:0.8;"/>
     </g>
     <g id="line2d_6">
      <g>
       <use style="stroke:#000000;stroke-width:0.8;" x="203.23289" xlink:href="#mf6f24b1850" y="291.28"/>
      </g>
     </g>
     <g id="text_2">
      <!-- 0 -->
      <defs>
       <path d="M 31.78125 66.40625 
Q 24.171875 66.40625 20.328125 58.90625 
Q 16.5 51.421875 16.5 36.375 
Q 16.5 21.390625 20.328125 13.890625 
Q 24.171875 6.390625 31.78125 6.390625 
Q 39.453125 6.390625 43.28125 13.890625 
Q 47.125 21.390625 47.125 36.375 
Q 47.125 51.421875 43.28125 58.90625 
Q 39.453125 66.40625 31.78125 66.40625 
z
M 31.78125 74.21875 
Q 44.046875 74.21875 50.515625 64.515625 
Q 56.984375 54.828125 56.984375 36.375 
Q 56.984375 17.96875 50.515625 8.265625 
Q 44.046875 -1.421875 31.78125 -1.421875 
Q 19.53125 -1.421875 13.0625 8.265625 
Q 6.59375 17.96875 6.59375 36.375 
Q 6.59375 54.828125 13.0625 64.515625 
Q 19.53125 74.21875 31.78125 74.21875 
z
" id="DejaVuSans-30"/>
      </defs>
      <g transform="translate(196.87039 313.476875)scale(0.2 -0.2)">
       <use xlink:href="#DejaVuSans-30"/>
      </g>
     </g>
    </g>
    <g id="xtick_4">
     <g id="line2d_7">
      <path clip-path="url(#pf2769968bd)" d="M 302.142764 291.28 
L 302.142764 5.52 
" style="fill:none;stroke:#b0b0b0;stroke-linecap:square;stroke-width:0.8;"/>
     </g>
     <g id="line2d_8">
      <g>
       <use style="stroke:#000000;stroke-width:0.8;" x="302.142764" xlink:href="#mf6f24b1850" y="291.28"/>
      </g>
     </g>
     <g id="text_3">
      <!-- 4 -->
      <g transform="translate(295.780264 313.476875)scale(0.2 -0.2)">
       <use xlink:href="#DejaVuSans-34"/>
      </g>
     </g>
    </g>
    <g id="xtick_5">
     <g id="line2d_9">
      <path clip-path="url(#pf2769968bd)" d="M 401.052637 291.28 
L 401.052637 5.52 
" style="fill:none;stroke:#b0b0b0;stroke-linecap:square;stroke-width:0.8;"/>
     </g>
     <g id="line2d_10">
      <g>
       <use style="stroke:#000000;stroke-width:0.8;" x="401.052637" xlink:href="#mf6f24b1850" y="291.28"/>
      </g>
     </g>
     <g id="text_4">
      <!-- 8 -->
      <defs>
       <path d="M 31.78125 34.625 
Q 24.75 34.625 20.71875 30.859375 
Q 16.703125 27.09375 16.703125 20.515625 
Q 16.703125 13.921875 20.71875 10.15625 
Q 24.75 6.390625 31.78125 6.390625 
Q 38.8125 6.390625 42.859375 10.171875 
Q 46.921875 13.96875 46.921875 20.515625 
Q 46.921875 27.09375 42.890625 30.859375 
Q 38.875 34.625 31.78125 34.625 
z
M 21.921875 38.8125 
Q 15.578125 40.375 12.03125 44.71875 
Q 8.5 49.078125 8.5 55.328125 
Q 8.5 64.0625 14.71875 69.140625 
Q 20.953125 74.21875 31.78125 74.21875 
Q 42.671875 74.21875 48.875 69.140625 
Q 55.078125 64.0625 55.078125 55.328125 
Q 55.078125 49.078125 51.53125 44.71875 
Q 48 40.375 41.703125 38.8125 
Q 48.828125 37.15625 52.796875 32.3125 
Q 56.78125 27.484375 56.78125 20.515625 
Q 56.78125 9.90625 50.3125 4.234375 
Q 43.84375 -1.421875 31.78125 -1.421875 
Q 19.734375 -1.421875 13.25 4.234375 
Q 6.78125 9.90625 6.78125 20.515625 
Q 6.78125 27.484375 10.78125 32.3125 
Q 14.796875 37.15625 21.921875 38.8125 
z
M 18.3125 54.390625 
Q 18.3125 48.734375 21.84375 45.5625 
Q 25.390625 42.390625 31.78125 42.390625 
Q 38.140625 42.390625 41.71875 45.5625 
Q 45.3125 48.734375 45.3125 54.390625 
Q 45.3125 60.0625 41.71875 63.234375 
Q 38.140625 66.40625 31.78125 66.40625 
Q 25.390625 66.40625 21.84375 63.234375 
Q 18.3125 60.0625 18.3125 54.390625 
z
" id="DejaVuSans-38"/>
      </defs>
      <g transform="translate(394.690137 313.476875)scale(0.2 -0.2)">
       <use xlink:href="#DejaVuSans-38"/>
      </g>
     </g>
    </g>
    <g id="text_5">
     <!-- log10 of Df -->
     <defs>
      <path d="M 9.421875 75.984375 
L 18.40625 75.984375 
L 18.40625 0 
L 9.421875 0 
z
" id="DejaVuSans-6c"/>
      <path d="M 30.609375 48.390625 
Q 23.390625 48.390625 19.1875 42.75 
Q 14.984375 37.109375 14.984375 27.296875 
Q 14.984375 17.484375 19.15625 11.84375 
Q 23.34375 6.203125 30.609375 6.203125 
Q 37.796875 6.203125 41.984375 11.859375 
Q 46.1875 17.53125 46.1875 27.296875 
Q 46.1875 37.015625 41.984375 42.703125 
Q 37.796875 48.390625 30.609375 48.390625 
z
M 30.609375 56 
Q 42.328125 56 49.015625 48.375 
Q 55.71875 40.765625 55.71875 27.296875 
Q 55.71875 13.875 49.015625 6.21875 
Q 42.328125 -1.421875 30.609375 -1.421875 
Q 18.84375 -1.421875 12.171875 6.21875 
Q 5.515625 13.875 5.515625 27.296875 
Q 5.515625 40.765625 12.171875 48.375 
Q 18.84375 56 30.609375 56 
z
" id="DejaVuSans-6f"/>
      <path d="M 45.40625 27.984375 
Q 45.40625 37.75 41.375 43.109375 
Q 37.359375 48.484375 30.078125 48.484375 
Q 22.859375 48.484375 18.828125 43.109375 
Q 14.796875 37.75 14.796875 27.984375 
Q 14.796875 18.265625 18.828125 12.890625 
Q 22.859375 7.515625 30.078125 7.515625 
Q 37.359375 7.515625 41.375 12.890625 
Q 45.40625 18.265625 45.40625 27.984375 
z
M 54.390625 6.78125 
Q 54.390625 -7.171875 48.1875 -13.984375 
Q 42 -20.796875 29.203125 -20.796875 
Q 24.46875 -20.796875 20.265625 -20.09375 
Q 16.0625 -19.390625 12.109375 -17.921875 
L 12.109375 -9.1875 
Q 16.0625 -11.328125 19.921875 -12.34375 
Q 23.78125 -13.375 27.78125 -13.375 
Q 36.625 -13.375 41.015625 -8.765625 
Q 45.40625 -4.15625 45.40625 5.171875 
L 45.40625 9.625 
Q 42.625 4.78125 38.28125 2.390625 
Q 33.9375 0 27.875 0 
Q 17.828125 0 11.671875 7.65625 
Q 5.515625 15.328125 5.515625 27.984375 
Q 5.515625 40.671875 11.671875 48.328125 
Q 17.828125 56 27.875 56 
Q 33.9375 56 38.28125 53.609375 
Q 42.625 51.21875 45.40625 46.390625 
L 45.40625 54.6875 
L 54.390625 54.6875 
z
" id="DejaVuSans-67"/>
      <path d="M 12.40625 8.296875 
L 28.515625 8.296875 
L 28.515625 63.921875 
L 10.984375 60.40625 
L 10.984375 69.390625 
L 28.421875 72.90625 
L 38.28125 72.90625 
L 38.28125 8.296875 
L 54.390625 8.296875 
L 54.390625 0 
L 12.40625 0 
z
" id="DejaVuSans-31"/>
      <path id="DejaVuSans-20"/>
      <path d="M 37.109375 75.984375 
L 37.109375 68.5 
L 28.515625 68.5 
Q 23.6875 68.5 21.796875 66.546875 
Q 19.921875 64.59375 19.921875 59.515625 
L 19.921875 54.6875 
L 34.71875 54.6875 
L 34.71875 47.703125 
L 19.921875 47.703125 
L 19.921875 0 
L 10.890625 0 
L 10.890625 47.703125 
L 2.296875 47.703125 
L 2.296875 54.6875 
L 10.890625 54.6875 
L 10.890625 58.5 
Q 10.890625 67.625 15.140625 71.796875 
Q 19.390625 75.984375 28.609375 75.984375 
z
" id="DejaVuSans-66"/>
      <path d="M 19.671875 64.796875 
L 19.671875 8.109375 
L 31.59375 8.109375 
Q 46.6875 8.109375 53.6875 14.9375 
Q 60.6875 21.78125 60.6875 36.53125 
Q 60.6875 51.171875 53.6875 57.984375 
Q 46.6875 64.796875 31.59375 64.796875 
z
M 9.8125 72.90625 
L 30.078125 72.90625 
Q 51.265625 72.90625 61.171875 64.09375 
Q 71.09375 55.28125 71.09375 36.53125 
Q 71.09375 17.671875 61.125 8.828125 
Q 51.171875 0 30.078125 0 
L 9.8125 0 
z
" id="DejaVuSans-44"/>
     </defs>
     <g transform="translate(172.910063 336.833125)scale(0.2 -0.2)">
      <use xlink:href="#DejaVuSans-6c"/>
      <use x="27.783203" xlink:href="#DejaVuSans-6f"/>
      <use x="88.964844" xlink:href="#DejaVuSans-67"/>
      <use x="152.441406" xlink:href="#DejaVuSans-31"/>
      <use x="216.064453" xlink:href="#DejaVuSans-30"/>
      <use x="279.6875" xlink:href="#DejaVuSans-20"/>
      <use x="311.474609" xlink:href="#DejaVuSans-6f"/>
      <use x="372.65625" xlink:href="#DejaVuSans-66"/>
      <use x="407.861328" xlink:href="#DejaVuSans-20"/>
      <use x="439.648438" xlink:href="#DejaVuSans-44"/>
      <use x="516.650391" xlink:href="#DejaVuSans-66"/>
     </g>
    </g>
   </g>
   <g id="matplotlib.axis_2">
    <g id="ytick_1">
     <g id="line2d_11">
      <path clip-path="url(#pf2769968bd)" d="M 5.52 291.28 
L 450.672 291.28 
" style="fill:none;stroke:#b0b0b0;stroke-linecap:square;stroke-width:0.8;"/>
     </g>
     <g id="line2d_12">
      <defs>
       <path d="M 0 0 
L -3.5 0 
" id="m271ec2753c" style="stroke:#000000;stroke-width:0.8;"/>
      </defs>
      <g>
       <use style="stroke:#000000;stroke-width:0.8;" x="5.52" xlink:href="#m271ec2753c" y="291.28"/>
      </g>
     </g>
    </g>
    <g id="ytick_2">
     <g id="line2d_13">
      <path clip-path="url(#pf2769968bd)" d="M 5.52 234.693861 
L 450.672 234.693861 
" style="fill:none;stroke:#b0b0b0;stroke-linecap:square;stroke-width:0.8;"/>
     </g>
     <g id="line2d_14">
      <g>
       <use style="stroke:#000000;stroke-width:0.8;" x="5.52" xlink:href="#m271ec2753c" y="234.693861"/>
      </g>
     </g>
    </g>
    <g id="ytick_3">
     <g id="line2d_15">
      <path clip-path="url(#pf2769968bd)" d="M 5.52 178.107723 
L 450.672 178.107723 
" style="fill:none;stroke:#b0b0b0;stroke-linecap:square;stroke-width:0.8;"/>
     </g>
     <g id="line2d_16">
      <g>
       <use style="stroke:#000000;stroke-width:0.8;" x="5.52" xlink:href="#m271ec2753c" y="178.107723"/>
      </g>
     </g>
    </g>
    <g id="ytick_4">
     <g id="line2d_17">
      <path clip-path="url(#pf2769968bd)" d="M 5.52 121.521584 
L 450.672 121.521584 
" style="fill:none;stroke:#b0b0b0;stroke-linecap:square;stroke-width:0.8;"/>
     </g>
     <g id="line2d_18">
      <g>
       <use style="stroke:#000000;stroke-width:0.8;" x="5.52" xlink:href="#m271ec2753c" y="121.521584"/>
      </g>
     </g>
    </g>
    <g id="ytick_5">
     <g id="line2d_19">
      <path clip-path="url(#pf2769968bd)" d="M 5.52 64.935446 
L 450.672 64.935446 
" style="fill:none;stroke:#b0b0b0;stroke-linecap:square;stroke-width:0.8;"/>
     </g>
     <g id="line2d_20">
      <g>
       <use style="stroke:#000000;stroke-width:0.8;" x="5.52" xlink:href="#m271ec2753c" y="64.935446"/>
      </g>
     </g>
    </g>
    <g id="ytick_6">
     <g id="line2d_21">
      <path clip-path="url(#pf2769968bd)" d="M 5.52 8.349307 
L 450.672 8.349307 
" style="fill:none;stroke:#b0b0b0;stroke-linecap:square;stroke-width:0.8;"/>
     </g>
     <g id="line2d_22">
      <g>
       <use style="stroke:#000000;stroke-width:0.8;" x="5.52" xlink:href="#m271ec2753c" y="8.349307"/>
      </g>
     </g>
    </g>
   </g>
   <g id="line2d_23">
    <path clip-path="url(#pf2769968bd)" d="M 191.65669 291.28 
L 191.65669 289.393795 
L 192.066182 289.393795 
L 192.066182 287.507591 
L 192.670536 287.507591 
L 192.670536 285.621386 
L 192.997682 285.621386 
L 192.997682 283.735182 
L 195.464997 283.735182 
L 195.464997 281.848977 
L 196.858978 281.848977 
L 196.858978 279.962772 
L 197.028805 279.962772 
L 197.028805 278.076568 
L 197.56195 278.076568 
L 197.56195 276.190363 
L 198.704823 276.190363 
L 198.704823 274.304158 
L 198.874516 274.304158 
L 198.874516 272.417954 
L 199.25353 272.417954 
L 199.25353 270.531749 
L 200.300979 270.531749 
L 200.401644 266.75934 
L 200.647424 266.75934 
L 200.647424 264.873135 
L 200.989508 264.873135 
L 200.989508 262.986931 
L 201.381872 262.986931 
L 201.381872 261.100726 
L 202.027473 261.100726 
L 202.027473 259.214521 
L 202.883016 259.214521 
L 202.883016 257.328317 
L 203.548974 257.328317 
L 203.548974 255.442112 
L 203.765871 255.442112 
L 203.765871 253.555908 
L 205.528566 253.555908 
L 205.629619 249.783498 
L 206.279218 249.783498 
L 206.279218 247.897294 
L 206.50254 247.897294 
L 206.50254 246.011089 
L 207.376927 246.011089 
L 207.376927 244.124884 
L 207.604649 244.124884 
L 207.604649 242.23868 
L 207.773154 242.23868 
L 207.773154 240.352475 
L 210.05018 240.352475 
L 210.05018 238.466271 
L 210.533924 238.466271 
L 210.533924 236.580066 
L 211.463855 236.580066 
L 211.463855 234.693861 
L 211.926216 234.693861 
L 212.034675 230.921452 
L 212.751328 230.921452 
L 212.805907 227.149043 
L 213.030923 227.149043 
L 213.030923 225.262838 
L 213.690577 225.262838 
L 213.690577 223.376634 
L 216.062987 223.376634 
L 216.062987 221.490429 
L 216.976872 221.490429 
L 216.976872 219.604224 
L 217.196318 219.604224 
L 217.196318 217.71802 
L 217.888415 217.71802 
L 217.888415 215.831815 
L 218.088186 215.831815 
L 218.137101 212.059406 
L 218.673132 212.059406 
L 218.673132 210.173201 
L 219.543896 210.173201 
L 219.543896 208.286997 
L 219.655611 208.286997 
L 219.707946 202.628383 
L 221.287964 202.628383 
L 221.287964 200.742178 
L 221.619576 200.742178 
L 221.619576 198.855974 
L 221.80315 198.855974 
L 221.896804 195.083564 
L 222.055383 195.083564 
L 222.055383 193.19736 
L 222.254305 193.19736 
L 222.254305 191.311155 
L 222.822337 191.311155 
L 222.822337 189.42495 
L 223.077764 189.42495 
L 223.091471 185.652541 
L 223.513768 185.652541 
L 223.591089 178.107723 
L 223.883165 178.107723 
L 223.972679 174.335314 
L 224.028483 174.335314 
L 224.096475 170.562904 
L 224.477193 170.562904 
L 224.477193 168.6767 
L 224.663516 168.6767 
L 224.766582 163.018086 
L 224.970079 163.018086 
L 225.057638 157.359472 
L 225.395398 157.359472 
L 225.395398 155.473267 
L 225.553341 155.473267 
L 225.633503 151.700858 
L 226.236021 151.700858 
L 226.236021 149.814653 
L 226.413533 149.814653 
L 226.509007 146.042244 
L 226.744612 146.042244 
L 226.744612 144.15604 
L 226.865755 144.15604 
L 226.865755 142.269835 
L 227.564436 142.269835 
L 227.62706 138.497426 
L 227.690777 138.497426 
L 227.753869 134.725017 
L 228.145958 134.725017 
L 228.217491 130.952607 
L 228.584132 130.952607 
L 228.584132 129.066403 
L 228.991842 129.066403 
L 228.991842 127.180198 
L 229.773818 127.180198 
L 229.859346 121.521584 
L 229.903874 121.521584 
L 229.935003 117.749175 
L 230.017671 117.749175 
L 230.017671 115.86297 
L 230.156 115.86297 
L 230.156 113.976766 
L 230.388726 113.976766 
L 230.388726 112.090561 
L 230.516895 112.090561 
L 230.516895 110.204356 
L 231.351966 110.204356 
L 231.351966 108.318152 
L 231.882581 108.318152 
L 231.882581 106.431947 
L 232.000653 106.431947 
L 232.032509 102.659538 
L 232.38887 102.659538 
L 232.38887 100.773333 
L 233.168329 100.773333 
L 233.168329 98.887129 
L 233.911065 98.887129 
L 233.911065 97.000924 
L 234.041076 97.000924 
L 234.041076 95.114719 
L 234.527502 95.114719 
L 234.527502 93.228515 
L 235.128506 93.228515 
L 235.237763 89.456106 
L 235.481976 89.456106 
L 235.481976 87.569901 
L 235.66777 87.569901 
L 235.771159 83.797492 
L 235.806272 83.797492 
L 235.806272 81.911287 
L 236.078957 81.911287 
L 236.153791 78.138878 
L 236.709052 78.138878 
L 236.709052 76.252673 
L 237.138311 76.252673 
L 237.23594 70.594059 
L 237.263401 70.594059 
L 237.35721 66.82165 
L 237.43526 66.82165 
L 237.509904 63.049241 
L 237.903524 63.049241 
L 238.01293 57.390627 
L 238.183143 57.390627 
L 238.183143 55.504422 
L 238.392236 55.504422 
L 238.392236 53.618218 
L 238.826873 53.618218 
L 238.826873 51.732013 
L 238.966444 51.732013 
L 238.966444 49.845809 
L 240.393429 49.845809 
L 240.393429 47.959604 
L 240.508818 47.959604 
L 240.508818 46.073399 
L 240.825078 46.073399 
L 240.825078 44.187195 
L 242.177728 44.187195 
L 242.177728 42.30099 
L 244.346686 42.30099 
L 244.346686 40.414785 
L 245.860157 40.414785 
L 245.860157 38.528581 
L 246.43996 38.528581 
L 246.43996 36.642376 
L 246.930305 36.642376 
L 246.930305 34.756172 
L 247.830149 34.756172 
L 247.895303 30.983762 
L 248.259459 30.983762 
L 248.259459 29.097558 
L 248.476457 29.097558 
L 248.476457 27.211353 
L 248.654954 27.211353 
L 248.654954 25.325149 
L 249.137108 25.325149 
L 249.137108 23.438944 
L 249.454403 23.438944 
L 249.454403 21.552739 
L 250.833311 21.552739 
L 250.833311 19.666535 
L 251.603311 19.666535 
L 251.642002 15.894125 
L 252.235388 15.894125 
L 252.235388 14.007921 
L 252.508864 14.007921 
L 252.508864 12.121716 
L 253.800698 12.121716 
L 253.800698 10.235512 
L 255.107817 10.235512 
L 255.107817 8.349307 
L 255.107817 8.349307 
L 450.672 8.349307 
L 450.672 8.349307 
" style="fill:none;stroke:#ff0000;stroke-linecap:square;stroke-width:3;"/>
   </g>
   <g id="line2d_24">
    <path clip-path="url(#pf2769968bd)" d="M 221.80315 291.28 
L 221.80315 289.393795 
L 225.44346 289.393795 
L 225.44346 287.507591 
L 227.246172 287.507591 
L 227.246172 285.621386 
L 227.647964 285.621386 
L 227.690777 281.848977 
L 227.882152 281.848977 
L 227.882152 279.962772 
L 228.767207 279.962772 
L 228.767207 278.076568 
L 229.728804 278.076568 
L 229.728804 276.190363 
L 230.069468 276.190363 
L 230.069468 274.304158 
L 230.785301 274.304158 
L 230.785301 272.417954 
L 231.506458 272.417954 
L 231.506458 270.531749 
L 231.981062 270.531749 
L 231.981062 268.645545 
L 232.605982 268.645545 
L 232.605982 266.75934 
L 232.928214 266.75934 
L 232.928214 264.873135 
L 233.087367 264.873135 
L 233.161878 261.100726 
L 233.772441 261.100726 
L 233.864695 257.328317 
L 234.080208 257.328317 
L 234.080208 255.442112 
L 234.413898 255.442112 
L 234.434556 251.669703 
L 234.74978 251.669703 
L 234.74978 249.783498 
L 235.25826 249.783498 
L 235.316546 246.011089 
L 235.604359 246.011089 
L 235.689917 242.23868 
L 235.942735 242.23868 
L 236.029988 238.466271 
L 236.21305 238.466271 
L 236.21305 236.580066 
L 236.426388 236.580066 
L 236.521188 232.807657 
L 237.05769 232.807657 
L 237.13948 229.035248 
L 237.235023 229.035248 
L 237.235023 227.149043 
L 237.51473 227.149043 
L 237.51473 225.262838 
L 237.692422 225.262838 
L 237.692422 223.376634 
L 237.832145 223.376634 
L 237.832145 221.490429 
L 238.028211 221.490429 
L 238.138799 215.831815 
L 238.2081 215.831815 
L 238.2081 213.945611 
L 238.368533 213.945611 
L 238.434672 210.173201 
L 238.698718 210.173201 
L 238.698718 208.286997 
L 239.32221 208.286997 
L 239.331779 204.514587 
L 239.650288 204.514587 
L 239.737574 200.742178 
L 239.7631 200.742178 
L 239.7631 198.855974 
L 239.951061 198.855974 
L 239.951061 196.969769 
L 240.731581 196.969769 
L 240.731581 195.083564 
L 240.860228 195.083564 
L 240.860228 193.19736 
L 241.484036 193.19736 
L 241.487598 189.42495 
L 241.602078 189.42495 
L 241.69617 185.652541 
L 241.841792 185.652541 
L 241.841792 183.766337 
L 242.118992 183.766337 
L 242.210397 179.993927 
L 242.444598 179.993927 
L 242.444598 178.107723 
L 243.019065 178.107723 
L 243.120397 168.6767 
L 243.180606 168.6767 
L 243.215599 164.90429 
L 244.07132 164.90429 
L 244.07132 163.018086 
L 244.242972 163.018086 
L 244.242972 161.131881 
L 244.771896 161.131881 
L 244.771896 159.245677 
L 244.952368 159.245677 
L 245.047674 155.473267 
L 245.15948 155.473267 
L 245.15948 153.587063 
L 245.305704 153.587063 
L 245.305704 151.700858 
L 245.483175 151.700858 
L 245.483175 149.814653 
L 245.902147 149.814653 
L 245.948356 146.042244 
L 246.170111 146.042244 
L 246.27543 142.269835 
L 246.313917 142.269835 
L 246.313917 140.38363 
L 246.559789 140.38363 
L 246.657521 132.838812 
L 247.007805 132.838812 
L 247.114458 127.180198 
L 248.042197 127.180198 
L 248.042197 125.293993 
L 248.312236 125.293993 
L 248.312236 123.407789 
L 248.767084 123.407789 
L 248.857009 119.63538 
L 248.883565 119.63538 
L 248.883565 117.749175 
L 249.331084 117.749175 
L 249.331084 115.86297 
L 249.777925 115.86297 
L 249.777925 113.976766 
L 250.069642 113.976766 
L 250.069642 112.090561 
L 250.402773 112.090561 
L 250.402773 110.204356 
L 250.567664 110.204356 
L 250.567664 108.318152 
L 250.705172 108.318152 
L 250.705172 106.431947 
L 250.886948 106.431947 
L 250.927761 102.659538 
L 251.231614 102.659538 
L 251.231614 100.773333 
L 251.363851 100.773333 
L 251.411993 97.000924 
L 251.541628 97.000924 
L 251.603311 93.228515 
L 251.720183 93.228515 
L 251.789915 89.456106 
L 252.355437 89.456106 
L 252.355437 87.569901 
L 252.501965 87.569901 
L 252.501965 85.683696 
L 252.764891 85.683696 
L 252.772873 81.911287 
L 252.991241 81.911287 
L 252.991241 80.025083 
L 253.359805 80.025083 
L 253.359805 78.138878 
L 253.587667 78.138878 
L 253.616283 74.366469 
L 253.75481 74.366469 
L 253.862336 70.594059 
L 254.373705 70.594059 
L 254.373705 68.707855 
L 254.885337 68.707855 
L 254.885337 66.82165 
L 255.41838 66.82165 
L 255.41838 64.935446 
L 255.755791 64.935446 
L 255.755791 63.049241 
L 256.014906 63.049241 
L 256.014906 61.163036 
L 256.306954 61.163036 
L 256.381954 57.390627 
L 256.430738 57.390627 
L 256.430738 55.504422 
L 256.631476 55.504422 
L 256.631476 53.618218 
L 256.935953 53.618218 
L 256.935953 51.732013 
L 257.185392 51.732013 
L 257.185392 49.845809 
L 257.70177 49.845809 
L 257.70177 47.959604 
L 258.283429 47.959604 
L 258.283429 46.073399 
L 259.106071 46.073399 
L 259.106071 44.187195 
L 259.324259 44.187195 
L 259.324259 42.30099 
L 259.449102 42.30099 
L 259.449102 40.414785 
L 259.599346 40.414785 
L 259.630919 34.756172 
L 259.750288 34.756172 
L 259.750288 32.869967 
L 260.778846 32.869967 
L 260.778846 30.983762 
L 260.987655 30.983762 
L 260.987655 29.097558 
L 261.193977 29.097558 
L 261.193977 27.211353 
L 261.335254 27.211353 
L 261.370007 23.438944 
L 262.05919 23.438944 
L 262.05919 21.552739 
L 263.694453 21.552739 
L 263.694453 19.666535 
L 265.206013 19.666535 
L 265.206013 17.78033 
L 265.362354 17.78033 
L 265.362354 15.894125 
L 266.99211 15.894125 
L 267.022568 12.121716 
L 269.430845 12.121716 
L 269.430845 10.235512 
L 274.367266 10.235512 
L 274.367266 8.349307 
L 274.367266 8.349307 
L 450.672 8.349307 
L 450.672 8.349307 
" style="fill:none;stroke:#00bfbf;stroke-linecap:square;stroke-width:1.5;"/>
   </g>
   <g id="line2d_25">
    <path clip-path="url(#pf2769968bd)" d="M 221.80315 291.28 
L 221.80315 289.393795 
L 223.857772 289.393795 
L 223.857772 287.507591 
L 224.18196 287.507591 
L 224.207167 283.735182 
L 224.762792 283.735182 
L 224.762792 281.848977 
L 225.44346 281.848977 
L 225.44346 279.962772 
L 225.943618 279.962772 
L 225.943618 278.076568 
L 226.315841 278.076568 
L 226.315841 276.190363 
L 226.973484 276.190363 
L 226.973484 274.304158 
L 227.472446 274.304158 
L 227.472446 272.417954 
L 227.594291 272.417954 
L 227.690777 266.75934 
L 227.882152 266.75934 
L 227.882152 264.873135 
L 227.998363 264.873135 
L 228.036964 261.100726 
L 228.579841 261.100726 
L 228.591897 257.328317 
L 229.334168 257.328317 
L 229.334168 255.442112 
L 229.728804 255.442112 
L 229.728804 253.555908 
L 229.890193 253.555908 
L 229.903874 249.783498 
L 230.069468 249.783498 
L 230.108707 246.011089 
L 230.516895 246.011089 
L 230.56449 240.352475 
L 231.271834 240.352475 
L 231.359816 236.580066 
L 231.397722 236.580066 
L 231.397722 234.693861 
L 231.623705 234.693861 
L 231.623705 232.807657 
L 231.867184 232.807657 
L 231.867184 230.921452 
L 232.058172 230.921452 
L 232.058172 229.035248 
L 232.171995 229.035248 
L 232.254739 225.262838 
L 232.406396 225.262838 
L 232.417735 221.490429 
L 232.605982 221.490429 
L 232.605982 219.604224 
L 232.965105 219.604224 
L 232.965105 217.71802 
L 233.153288 217.71802 
L 233.153288 215.831815 
L 233.31472 215.831815 
L 233.372169 210.173201 
L 233.531878 210.173201 
L 233.603046 206.400792 
L 233.947169 206.400792 
L 233.998433 202.628383 
L 234.524398 202.628383 
L 234.524398 200.742178 
L 234.848537 200.742178 
L 234.848537 198.855974 
L 235.156032 198.855974 
L 235.156032 196.969769 
L 235.316546 196.969769 
L 235.316546 195.083564 
L 235.481976 195.083564 
L 235.48922 191.311155 
L 235.689917 191.311155 
L 235.689917 189.42495 
L 235.806272 189.42495 
L 235.806272 187.538746 
L 236.063487 187.538746 
L 236.078957 183.766337 
L 236.613916 183.766337 
L 236.613916 181.880132 
L 237.13948 181.880132 
L 237.167776 178.107723 
L 237.43526 178.107723 
L 237.51473 174.335314 
L 237.692422 174.335314 
L 237.692422 172.449109 
L 237.832145 172.449109 
L 237.933261 168.6767 
L 238.028211 168.6767 
L 238.028211 166.790495 
L 238.434672 166.790495 
L 238.434672 164.90429 
L 238.698718 164.90429 
L 238.698718 163.018086 
L 239.32221 163.018086 
L 239.382823 159.245677 
L 239.633305 159.245677 
L 239.633305 157.359472 
L 239.7631 157.359472 
L 239.86 153.587063 
L 239.951061 153.587063 
L 239.951061 151.700858 
L 240.200416 151.700858 
L 240.200416 149.814653 
L 240.348881 149.814653 
L 240.348881 147.928449 
L 240.508818 147.928449 
L 240.508818 146.042244 
L 240.766881 146.042244 
L 240.804139 142.269835 
L 241.087496 142.269835 
L 241.188906 136.611221 
L 241.484036 136.611221 
L 241.484036 134.725017 
L 241.69617 134.725017 
L 241.69617 132.838812 
L 242.210397 132.838812 
L 242.210397 130.952607 
L 242.583085 130.952607 
L 242.583085 129.066403 
L 243.032928 129.066403 
L 243.04908 125.293993 
L 243.57454 125.293993 
L 243.57454 123.407789 
L 243.729572 123.407789 
L 243.80874 117.749175 
L 243.851619 117.749175 
L 243.896446 113.976766 
L 244.07132 113.976766 
L 244.07132 112.090561 
L 244.242972 112.090561 
L 244.242972 110.204356 
L 244.771896 110.204356 
L 244.771896 108.318152 
L 244.932781 108.318152 
L 244.952368 104.545743 
L 245.047674 104.545743 
L 245.110484 100.773333 
L 245.305704 100.773333 
L 245.305704 98.887129 
L 245.458947 98.887129 
L 245.458947 97.000924 
L 245.902147 97.000924 
L 245.902147 95.114719 
L 246.27543 95.114719 
L 246.27543 93.228515 
L 246.657521 93.228515 
L 246.72024 89.456106 
L 247.007805 89.456106 
L 247.007805 87.569901 
L 248.042197 87.569901 
L 248.042197 85.683696 
L 248.305942 85.683696 
L 248.305942 83.797492 
L 248.51936 83.797492 
L 248.51936 81.911287 
L 248.857009 81.911287 
L 248.947186 76.252673 
L 249.370234 76.252673 
L 249.395783 72.480264 
L 250.659818 72.480264 
L 250.659818 70.594059 
L 250.805863 70.594059 
L 250.886948 64.935446 
L 251.30881 64.935446 
L 251.411993 61.163036 
L 251.553601 61.163036 
L 251.603311 57.390627 
L 252.547502 57.390627 
L 252.624814 53.618218 
L 252.732269 53.618218 
L 252.732269 51.732013 
L 253.062638 51.732013 
L 253.062638 49.845809 
L 253.727797 49.845809 
L 253.727797 47.959604 
L 254.129975 47.959604 
L 254.129975 46.073399 
L 254.444118 46.073399 
L 254.444118 44.187195 
L 254.854605 44.187195 
L 254.854605 42.30099 
L 255.41838 42.30099 
L 255.41838 40.414785 
L 255.755791 40.414785 
L 255.755791 38.528581 
L 256.306954 38.528581 
L 256.306954 36.642376 
L 256.430738 36.642376 
L 256.430738 34.756172 
L 256.631476 34.756172 
L 256.631476 32.869967 
L 256.935953 32.869967 
L 256.935953 30.983762 
L 257.185392 30.983762 
L 257.185392 29.097558 
L 257.31071 29.097558 
L 257.31071 27.211353 
L 258.460667 27.211353 
L 258.460667 25.325149 
L 258.992393 25.325149 
L 258.992393 23.438944 
L 259.106071 23.438944 
L 259.106071 21.552739 
L 259.599346 21.552739 
L 259.599346 19.666535 
L 261.335254 19.666535 
L 261.370007 15.894125 
L 261.951467 15.894125 
L 261.951467 14.007921 
L 262.593258 14.007921 
L 262.593258 12.121716 
L 264.00083 12.121716 
L 264.00083 10.235512 
L 264.539746 10.235512 
L 264.539746 8.349307 
L 264.539746 8.349307 
L 450.672 8.349307 
L 450.672 8.349307 
" style="fill:none;stroke:#bf00bf;stroke-linecap:square;stroke-width:1.5;"/>
   </g>
   <g id="line2d_26">
    <path clip-path="url(#pf2769968bd)" d="M 217.095585 291.28 
L 217.095585 289.393795 
L 219.570794 289.393795 
L 219.570794 287.507591 
L 221.566227 287.507591 
L 221.674068 283.735182 
L 221.80315 283.735182 
L 221.80315 281.848977 
L 222.428718 281.848977 
L 222.428718 279.962772 
L 222.822337 279.962772 
L 222.822337 278.076568 
L 222.979122 278.076568 
L 222.979122 276.190363 
L 223.255075 276.190363 
L 223.255075 274.304158 
L 223.550106 274.304158 
L 223.550106 272.417954 
L 223.73535 272.417954 
L 223.73535 270.531749 
L 224.207167 270.531749 
L 224.207167 268.645545 
L 224.535701 268.645545 
L 224.535701 266.75934 
L 224.655004 266.75934 
L 224.762792 262.986931 
L 224.891739 262.986931 
L 224.891739 261.100726 
L 225.045227 261.100726 
L 225.045227 259.214521 
L 225.395398 259.214521 
L 225.475271 255.442112 
L 225.61433 255.442112 
L 225.633503 251.669703 
L 225.757664 251.669703 
L 225.757664 249.783498 
L 226.315841 249.783498 
L 226.315841 247.897294 
L 226.454248 247.897294 
L 226.558483 240.352475 
L 226.86503 240.352475 
L 226.880248 236.580066 
L 227.035349 236.580066 
L 227.035349 234.693861 
L 227.472446 234.693861 
L 227.576526 230.921452 
L 227.690777 230.921452 
L 227.690777 229.035248 
L 227.882152 229.035248 
L 227.882152 227.149043 
L 228.036964 227.149043 
L 228.133762 223.376634 
L 228.16788 223.376634 
L 228.217491 219.604224 
L 228.346954 219.604224 
L 228.346954 217.71802 
L 228.915791 217.71802 
L 228.915791 215.831815 
L 229.348888 215.831815 
L 229.400196 210.173201 
L 229.699401 210.173201 
L 229.699401 208.286997 
L 229.903874 208.286997 
L 229.935003 204.514587 
L 230.285817 204.514587 
L 230.285817 202.628383 
L 230.516895 202.628383 
L 230.56449 196.969769 
L 230.76726 196.969769 
L 230.866993 193.19736 
L 231.127337 193.19736 
L 231.17816 189.42495 
L 231.271834 189.42495 
L 231.271834 187.538746 
L 231.551438 187.538746 
L 231.623705 183.766337 
L 231.841075 183.766337 
L 231.841075 181.880132 
L 232.171995 181.880132 
L 232.171995 179.993927 
L 232.406396 179.993927 
L 232.406396 178.107723 
L 232.605982 178.107723 
L 232.697777 174.335314 
L 233.638147 174.335314 
L 233.704338 170.562904 
L 234.205347 170.562904 
L 234.205347 168.6767 
L 234.369704 168.6767 
L 234.369704 166.790495 
L 235.237763 166.790495 
L 235.237763 164.90429 
L 235.449992 164.90429 
L 235.548592 157.359472 
L 235.638753 157.359472 
L 235.638753 155.473267 
L 235.806272 155.473267 
L 235.862361 151.700858 
L 236.063487 151.700858 
L 236.078957 147.928449 
L 236.191545 147.928449 
L 236.191545 146.042244 
L 236.320817 146.042244 
L 236.320817 144.15604 
L 236.613916 144.15604 
L 236.613916 142.269835 
L 236.951901 142.269835 
L 236.951901 140.38363 
L 237.092365 140.38363 
L 237.13948 136.611221 
L 237.263401 136.611221 
L 237.263401 134.725017 
L 237.429563 134.725017 
L 237.43526 130.952607 
L 237.563295 130.952607 
L 237.563295 129.066403 
L 237.779323 129.066403 
L 237.779323 127.180198 
L 237.9209 127.180198 
L 237.933261 123.407789 
L 238.392236 123.407789 
L 238.392236 121.521584 
L 238.805309 121.521584 
L 238.805309 119.63538 
L 238.966444 119.63538 
L 238.966444 117.749175 
L 239.32221 117.749175 
L 239.32221 115.86297 
L 239.633305 115.86297 
L 239.633305 113.976766 
L 239.7631 113.976766 
L 239.7631 112.090561 
L 240.200416 112.090561 
L 240.200416 110.204356 
L 240.393429 110.204356 
L 240.419306 106.431947 
L 240.508818 106.431947 
L 240.579175 102.659538 
L 240.804139 102.659538 
L 240.895215 97.000924 
L 240.966192 97.000924 
L 240.966192 95.114719 
L 241.492699 95.114719 
L 241.492699 93.228515 
L 241.653603 93.228515 
L 241.685047 89.456106 
L 242.746709 89.456106 
L 242.746709 87.569901 
L 243.24733 87.569901 
L 243.24733 85.683696 
L 243.597095 85.683696 
L 243.597095 83.797492 
L 243.808562 83.797492 
L 243.896446 78.138878 
L 244.495694 78.138878 
L 244.582166 74.366469 
L 244.942102 74.366469 
L 245.047674 70.594059 
L 245.981638 70.594059 
L 245.981638 68.707855 
L 246.719023 68.707855 
L 246.719023 66.82165 
L 246.930305 66.82165 
L 246.930305 64.935446 
L 247.353841 64.935446 
L 247.353841 63.049241 
L 247.951687 63.049241 
L 247.951687 61.163036 
L 248.883565 61.163036 
L 248.883565 59.276832 
L 249.137108 59.276832 
L 249.137108 57.390627 
L 249.29686 57.390627 
L 249.29686 55.504422 
L 249.860028 55.504422 
L 249.860028 53.618218 
L 250.266995 53.618218 
L 250.266995 51.732013 
L 250.833311 51.732013 
L 250.886948 47.959604 
L 251.261207 47.959604 
L 251.261207 46.073399 
L 251.392108 46.073399 
L 251.411993 42.30099 
L 251.553601 42.30099 
L 251.603311 38.528581 
L 252.732269 38.528581 
L 252.732269 36.642376 
L 253.026998 36.642376 
L 253.062638 32.869967 
L 253.727797 32.869967 
L 253.800698 29.097558 
L 254.129975 29.097558 
L 254.129975 27.211353 
L 254.411168 27.211353 
L 254.411168 25.325149 
L 255.107817 25.325149 
L 255.107817 23.438944 
L 255.755791 23.438944 
L 255.755791 21.552739 
L 257.068033 21.552739 
L 257.068033 19.666535 
L 257.185392 19.666535 
L 257.21811 15.894125 
L 257.547605 15.894125 
L 257.620189 12.121716 
L 258.992393 12.121716 
L 258.992393 10.235512 
L 262.593258 10.235512 
L 262.593258 8.349307 
L 262.593258 8.349307 
L 450.672 8.349307 
L 450.672 8.349307 
" style="fill:none;stroke:#000000;stroke-linecap:square;stroke-width:1.5;"/>
   </g>
   <g id="line2d_27">
    <path clip-path="url(#pf2769968bd)" d="M 211.59073 291.28 
L 211.59073 289.393795 
L 213.690577 289.393795 
L 213.690577 287.507591 
L 213.819346 287.507591 
L 213.819346 285.621386 
L 216.87914 285.621386 
L 216.976872 281.848977 
L 217.888415 281.848977 
L 217.888415 279.962772 
L 218.774132 279.962772 
L 218.774132 278.076568 
L 218.888469 278.076568 
L 218.888469 276.190363 
L 219.396428 276.190363 
L 219.396428 274.304158 
L 219.543896 274.304158 
L 219.543896 272.417954 
L 221.287964 272.417954 
L 221.353465 268.645545 
L 221.619576 268.645545 
L 221.619576 266.75934 
L 221.80315 266.75934 
L 221.896804 261.100726 
L 222.055383 261.100726 
L 222.12541 257.328317 
L 222.428718 257.328317 
L 222.487131 253.555908 
L 222.735781 253.555908 
L 222.842381 247.897294 
L 222.936192 247.897294 
L 222.936192 246.011089 
L 223.513768 246.011089 
L 223.62149 238.466271 
L 223.750691 238.466271 
L 223.750691 236.580066 
L 223.883165 236.580066 
L 223.883165 234.693861 
L 224.096475 234.693861 
L 224.155724 230.921452 
L 224.465371 230.921452 
L 224.477193 227.149043 
L 224.613627 227.149043 
L 224.663516 223.376634 
L 224.762792 223.376634 
L 224.766582 219.604224 
L 225.057638 219.604224 
L 225.057638 217.71802 
L 225.395398 217.71802 
L 225.395398 215.831815 
L 225.545343 215.831815 
L 225.633503 210.173201 
L 225.929156 210.173201 
L 225.929156 208.286997 
L 226.44497 208.286997 
L 226.541009 202.628383 
L 226.572435 202.628383 
L 226.572435 200.742178 
L 226.744612 200.742178 
L 226.744612 198.855974 
L 226.865755 198.855974 
L 226.865755 196.969769 
L 227.035349 196.969769 
L 227.035349 195.083564 
L 227.212557 195.083564 
L 227.235999 191.311155 
L 227.472446 191.311155 
L 227.495526 187.538746 
L 227.690777 187.538746 
L 227.753869 183.766337 
L 228.217491 183.766337 
L 228.217491 181.880132 
L 228.584132 181.880132 
L 228.621565 178.107723 
L 229.672808 178.107723 
L 229.773818 174.335314 
L 229.903874 174.335314 
L 229.935003 170.562904 
L 230.017671 170.562904 
L 230.080557 166.790495 
L 230.143973 166.790495 
L 230.156 163.018086 
L 230.388726 163.018086 
L 230.388726 161.131881 
L 230.516895 161.131881 
L 230.516895 159.245677 
L 231.306658 159.245677 
L 231.351966 155.473267 
L 231.569313 155.473267 
L 231.569313 153.587063 
L 231.841075 153.587063 
L 231.841075 151.700858 
L 232.071309 151.700858 
L 232.071309 149.814653 
L 233.305474 149.814653 
L 233.305474 147.928449 
L 233.704338 147.928449 
L 233.704338 146.042244 
L 233.911065 146.042244 
L 233.911065 144.15604 
L 234.041076 144.15604 
L 234.041076 142.269835 
L 234.527502 142.269835 
L 234.527502 140.38363 
L 234.9136 140.38363 
L 234.9136 138.497426 
L 235.103741 138.497426 
L 235.103741 136.611221 
L 235.237763 136.611221 
L 235.261116 132.838812 
L 235.449992 132.838812 
L 235.481976 129.066403 
L 235.66777 129.066403 
L 235.66777 127.180198 
L 235.806272 127.180198 
L 235.806272 125.293993 
L 236.063487 125.293993 
L 236.078957 121.521584 
L 236.284566 121.521584 
L 236.306725 117.749175 
L 236.460879 117.749175 
L 236.460879 115.86297 
L 236.951901 115.86297 
L 236.951901 113.976766 
L 237.092365 113.976766 
L 237.200847 108.318152 
L 237.263401 108.318152 
L 237.263401 106.431947 
L 237.43526 106.431947 
L 237.473586 102.659538 
L 237.903524 102.659538 
L 238.01293 97.000924 
L 238.11131 97.000924 
L 238.183143 93.228515 
L 238.392236 93.228515 
L 238.392236 91.34231 
L 238.614263 91.34231 
L 238.614263 89.456106 
L 238.745412 89.456106 
L 238.826873 85.683696 
L 238.951817 85.683696 
L 239.02812 80.025083 
L 239.356565 80.025083 
L 239.356565 78.138878 
L 240.393429 78.138878 
L 240.393429 76.252673 
L 240.508818 76.252673 
L 240.508818 74.366469 
L 240.825078 74.366469 
L 240.825078 72.480264 
L 241.861821 72.480264 
L 241.861821 70.594059 
L 242.169837 70.594059 
L 242.169837 68.707855 
L 243.030925 68.707855 
L 243.030925 66.82165 
L 243.808562 66.82165 
L 243.896446 61.163036 
L 244.346686 61.163036 
L 244.346686 59.276832 
L 244.978634 59.276832 
L 244.978634 57.390627 
L 246.767325 57.390627 
L 246.79237 53.618218 
L 246.930305 53.618218 
L 246.930305 51.732013 
L 247.830149 51.732013 
L 247.895303 47.959604 
L 248.259459 47.959604 
L 248.259459 46.073399 
L 248.476457 46.073399 
L 248.531863 40.414785 
L 248.654954 40.414785 
L 248.654954 38.528581 
L 249.137108 38.528581 
L 249.137108 36.642376 
L 249.454403 36.642376 
L 249.554008 32.869967 
L 249.695363 32.869967 
L 249.695363 30.983762 
L 250.7404 30.983762 
L 250.833311 27.211353 
L 251.261207 27.211353 
L 251.261207 25.325149 
L 251.392108 25.325149 
L 251.392108 23.438944 
L 251.603311 23.438944 
L 251.642002 19.666535 
L 252.235388 19.666535 
L 252.235388 17.78033 
L 252.508864 17.78033 
L 252.508864 15.894125 
L 253.800698 15.894125 
L 253.800698 14.007921 
L 254.0709 14.007921 
L 254.129975 10.235512 
L 255.107817 10.235512 
L 255.107817 8.349307 
L 255.107817 8.349307 
L 450.672 8.349307 
L 450.672 8.349307 
" style="fill:none;stroke:#00bfbf;stroke-linecap:square;stroke-width:1.5;"/>
   </g>
   <g id="line2d_28">
    <path clip-path="url(#pf2769968bd)" d="M 198.057873 291.28 
L 198.057873 289.393795 
L 201.748106 289.393795 
L 201.748106 287.507591 
L 202.092083 287.507591 
L 202.092083 285.621386 
L 202.750404 285.621386 
L 202.750404 283.735182 
L 203.118451 283.735182 
L 203.118451 281.848977 
L 203.894892 281.848977 
L 203.894892 279.962772 
L 204.42271 279.962772 
L 204.42271 278.076568 
L 205.450178 278.076568 
L 205.532064 274.304158 
L 206.131739 274.304158 
L 206.131739 272.417954 
L 206.593664 272.417954 
L 206.593664 270.531749 
L 207.003166 270.531749 
L 207.102848 266.75934 
L 207.282799 266.75934 
L 207.282799 264.873135 
L 207.568285 264.873135 
L 207.568285 262.986931 
L 208.62981 262.986931 
L 208.62981 261.100726 
L 209.06107 261.100726 
L 209.06107 259.214521 
L 209.442464 259.214521 
L 209.442464 257.328317 
L 210.221434 257.328317 
L 210.221434 255.442112 
L 210.485077 255.442112 
L 210.485077 253.555908 
L 210.838931 253.555908 
L 210.838931 251.669703 
L 211.193318 251.669703 
L 211.193318 249.783498 
L 211.349614 249.783498 
L 211.349614 247.897294 
L 211.651747 247.897294 
L 211.651747 246.011089 
L 211.798193 246.011089 
L 211.861116 242.23868 
L 211.990226 242.23868 
L 211.990226 240.352475 
L 212.221627 240.352475 
L 212.221627 238.466271 
L 213.690577 238.466271 
L 213.690577 236.580066 
L 213.845044 236.580066 
L 213.845044 234.693861 
L 215.248178 234.693861 
L 215.248178 232.807657 
L 216.616672 232.807657 
L 216.616672 230.921452 
L 216.976872 230.921452 
L 216.976872 229.035248 
L 217.888415 229.035248 
L 217.888415 227.149043 
L 218.331292 227.149043 
L 218.331292 225.262838 
L 219.397764 225.262838 
L 219.503028 221.490429 
L 219.543896 221.490429 
L 219.543896 219.604224 
L 220.963148 219.604224 
L 220.963148 217.71802 
L 221.189268 217.71802 
L 221.287964 213.945611 
L 221.619576 213.945611 
L 221.619576 212.059406 
L 221.80315 212.059406 
L 221.896804 208.286997 
L 222.055383 208.286997 
L 222.055383 206.400792 
L 222.756133 206.400792 
L 222.822337 202.628383 
L 223.513768 202.628383 
L 223.587246 196.969769 
L 223.785084 196.969769 
L 223.883165 191.311155 
L 224.096475 191.311155 
L 224.096475 189.42495 
L 224.477193 189.42495 
L 224.477193 187.538746 
L 224.663516 187.538746 
L 224.766582 178.107723 
L 225.057638 178.107723 
L 225.057638 176.221518 
L 225.395398 176.221518 
L 225.395398 174.335314 
L 225.551276 174.335314 
L 225.633503 168.6767 
L 226.371073 168.6767 
L 226.371073 166.790495 
L 226.488557 166.790495 
L 226.552038 161.131881 
L 226.611784 161.131881 
L 226.611784 159.245677 
L 226.744612 159.245677 
L 226.744612 157.359472 
L 226.865755 157.359472 
L 226.865755 155.473267 
L 227.350946 155.473267 
L 227.350946 153.587063 
L 227.682748 153.587063 
L 227.753869 146.042244 
L 227.883202 146.042244 
L 227.883202 144.15604 
L 228.217491 144.15604 
L 228.217491 142.269835 
L 228.584132 142.269835 
L 228.680989 138.497426 
L 229.773818 138.497426 
L 229.773818 136.611221 
L 229.903874 136.611221 
L 229.935003 132.838812 
L 230.017671 132.838812 
L 230.017671 130.952607 
L 230.156 130.952607 
L 230.156 129.066403 
L 230.388726 129.066403 
L 230.388726 127.180198 
L 230.516895 127.180198 
L 230.516895 125.293993 
L 230.630878 125.293993 
L 230.722053 119.63538 
L 230.840361 119.63538 
L 230.840361 117.749175 
L 231.003929 117.749175 
L 231.003929 115.86297 
L 231.351966 115.86297 
L 231.351966 113.976766 
L 232.644095 113.976766 
L 232.644095 112.090561 
L 232.78281 112.090561 
L 232.78281 110.204356 
L 233.131844 110.204356 
L 233.131844 108.318152 
L 233.911065 108.318152 
L 233.911065 106.431947 
L 234.041076 106.431947 
L 234.041076 104.545743 
L 234.527502 104.545743 
L 234.527502 102.659538 
L 235.237763 102.659538 
L 235.257649 98.887129 
L 235.481976 98.887129 
L 235.481976 97.000924 
L 235.66777 97.000924 
L 235.66777 95.114719 
L 235.806272 95.114719 
L 235.806272 93.228515 
L 236.06112 93.228515 
L 236.136142 87.569901 
L 236.883029 87.569901 
L 236.883029 85.683696 
L 237.200847 85.683696 
L 237.272255 80.025083 
L 237.43526 80.025083 
L 237.43526 78.138878 
L 237.903524 78.138878 
L 238.01293 70.594059 
L 238.183143 70.594059 
L 238.190876 66.82165 
L 238.392236 66.82165 
L 238.392236 64.935446 
L 238.826873 64.935446 
L 238.895204 61.163036 
L 238.966444 61.163036 
L 239.032127 57.390627 
L 239.297517 57.390627 
L 239.31323 51.732013 
L 240.393429 51.732013 
L 240.393429 49.845809 
L 240.508818 49.845809 
L 240.602792 46.073399 
L 240.825078 46.073399 
L 240.825078 44.187195 
L 243.566627 44.187195 
L 243.566627 42.30099 
L 244.346686 42.30099 
L 244.346686 40.414785 
L 246.930305 40.414785 
L 246.930305 38.528581 
L 247.232667 38.528581 
L 247.232667 36.642376 
L 247.708399 36.642376 
L 247.708399 34.756172 
L 247.830149 34.756172 
L 247.895303 30.983762 
L 248.259459 30.983762 
L 248.259459 29.097558 
L 248.476457 29.097558 
L 248.476457 27.211353 
L 248.654954 27.211353 
L 248.654954 25.325149 
L 249.137108 25.325149 
L 249.137108 23.438944 
L 249.454403 23.438944 
L 249.454403 21.552739 
L 250.833311 21.552739 
L 250.833311 19.666535 
L 251.603311 19.666535 
L 251.642002 15.894125 
L 252.235388 15.894125 
L 252.235388 14.007921 
L 252.508864 14.007921 
L 252.508864 12.121716 
L 253.800698 12.121716 
L 253.800698 10.235512 
L 255.107817 10.235512 
L 255.107817 8.349307 
L 255.107817 8.349307 
L 450.672 8.349307 
L 450.672 8.349307 
" style="fill:none;stroke:#bf00bf;stroke-linecap:square;stroke-width:1.5;"/>
   </g>
   <g id="line2d_29">
    <path clip-path="url(#pf2769968bd)" d="M 191.65669 291.28 
L 191.65669 289.393795 
L 192.066182 289.393795 
L 192.066182 287.507591 
L 192.72919 287.507591 
L 192.72919 285.621386 
L 192.997682 285.621386 
L 192.997682 283.735182 
L 195.464997 283.735182 
L 195.464997 281.848977 
L 196.900987 281.848977 
L 196.900987 279.962772 
L 197.028805 279.962772 
L 197.028805 278.076568 
L 197.664129 278.076568 
L 197.664129 276.190363 
L 198.704823 276.190363 
L 198.704823 274.304158 
L 198.887846 274.304158 
L 198.887846 272.417954 
L 199.272579 272.417954 
L 199.272579 270.531749 
L 200.352714 270.531749 
L 200.352714 268.645545 
L 200.521163 268.645545 
L 200.521163 266.75934 
L 200.66859 266.75934 
L 200.66859 264.873135 
L 200.989508 264.873135 
L 200.989508 262.986931 
L 201.381872 262.986931 
L 201.381872 261.100726 
L 202.050173 261.100726 
L 202.050173 259.214521 
L 202.883016 259.214521 
L 202.883016 257.328317 
L 203.548974 257.328317 
L 203.548974 255.442112 
L 203.771 255.442112 
L 203.771 253.555908 
L 205.528566 253.555908 
L 205.528566 251.669703 
L 205.651717 251.669703 
L 205.651717 249.783498 
L 206.279218 249.783498 
L 206.279218 247.897294 
L 206.606231 247.897294 
L 206.606231 246.011089 
L 207.382152 246.011089 
L 207.382152 244.124884 
L 207.64247 244.124884 
L 207.64247 242.23868 
L 207.773154 242.23868 
L 207.773154 240.352475 
L 210.056291 240.352475 
L 210.056291 238.466271 
L 210.615895 238.466271 
L 210.615895 236.580066 
L 211.463855 236.580066 
L 211.463855 234.693861 
L 211.930392 234.693861 
L 211.930392 232.807657 
L 212.176653 232.807657 
L 212.176653 230.921452 
L 212.752008 230.921452 
L 212.805907 227.149043 
L 213.030923 227.149043 
L 213.030923 225.262838 
L 213.690577 225.262838 
L 213.690577 223.376634 
L 216.098862 223.376634 
L 216.098862 221.490429 
L 216.976872 221.490429 
L 216.976872 219.604224 
L 217.196318 219.604224 
L 217.196318 217.71802 
L 217.888415 217.71802 
L 217.888415 215.831815 
L 218.117604 215.831815 
L 218.137101 212.059406 
L 218.723257 212.059406 
L 218.723257 210.173201 
L 219.543896 210.173201 
L 219.543896 208.286997 
L 219.655611 208.286997 
L 219.71153 202.628383 
L 221.287964 202.628383 
L 221.287964 200.742178 
L 221.619576 200.742178 
L 221.619576 198.855974 
L 221.80315 198.855974 
L 221.896804 195.083564 
L 222.055383 195.083564 
L 222.055383 193.19736 
L 222.254305 193.19736 
L 222.254305 191.311155 
L 222.822337 191.311155 
L 222.822337 189.42495 
L 223.077764 189.42495 
L 223.135377 185.652541 
L 223.513768 185.652541 
L 223.600594 178.107723 
L 223.883165 178.107723 
L 223.984594 174.335314 
L 224.028483 174.335314 
L 224.096475 170.562904 
L 224.477193 170.562904 
L 224.477193 168.6767 
L 224.663516 168.6767 
L 224.766582 163.018086 
L 224.970079 163.018086 
L 225.057638 157.359472 
L 225.395398 157.359472 
L 225.395398 155.473267 
L 225.553341 155.473267 
L 225.633503 151.700858 
L 226.254274 151.700858 
L 226.254274 149.814653 
L 226.424502 149.814653 
L 226.509007 146.042244 
L 226.744612 146.042244 
L 226.744612 144.15604 
L 226.865755 144.15604 
L 226.865755 142.269835 
L 227.62706 142.269835 
L 227.690777 138.497426 
L 227.753869 138.497426 
L 227.803842 134.725017 
L 228.217491 134.725017 
L 228.217491 132.838812 
L 228.350599 132.838812 
L 228.350599 130.952607 
L 228.584132 130.952607 
L 228.584132 129.066403 
L 229.009684 129.066403 
L 229.009684 127.180198 
L 229.773818 127.180198 
L 229.859346 121.521584 
L 229.903874 121.521584 
L 229.935003 117.749175 
L 230.017671 117.749175 
L 230.017671 115.86297 
L 230.156 115.86297 
L 230.156 113.976766 
L 230.388726 113.976766 
L 230.388726 112.090561 
L 230.516895 112.090561 
L 230.516895 110.204356 
L 231.351966 110.204356 
L 231.351966 108.318152 
L 231.882581 108.318152 
L 231.882581 106.431947 
L 232.000653 106.431947 
L 232.043036 102.659538 
L 232.48947 102.659538 
L 232.48947 100.773333 
L 233.193255 100.773333 
L 233.193255 98.887129 
L 233.911065 98.887129 
L 233.911065 97.000924 
L 234.041076 97.000924 
L 234.041076 95.114719 
L 234.527502 95.114719 
L 234.527502 93.228515 
L 235.163023 93.228515 
L 235.237763 89.456106 
L 235.481976 89.456106 
L 235.481976 87.569901 
L 235.66777 87.569901 
L 235.66777 85.683696 
L 235.806272 85.683696 
L 235.843489 81.911287 
L 236.078957 81.911287 
L 236.078957 80.025083 
L 236.193632 80.025083 
L 236.193632 78.138878 
L 236.728539 78.138878 
L 236.728539 76.252673 
L 237.200847 76.252673 
L 237.263401 68.707855 
L 237.399463 68.707855 
L 237.43526 64.935446 
L 237.538491 64.935446 
L 237.538491 63.049241 
L 237.903524 63.049241 
L 238.01293 57.390627 
L 238.183143 57.390627 
L 238.183143 55.504422 
L 238.392236 55.504422 
L 238.392236 53.618218 
L 238.826873 53.618218 
L 238.826873 51.732013 
L 238.966444 51.732013 
L 238.966444 49.845809 
L 240.393429 49.845809 
L 240.393429 47.959604 
L 240.508818 47.959604 
L 240.508818 46.073399 
L 240.825078 46.073399 
L 240.825078 44.187195 
L 242.190537 44.187195 
L 242.190537 42.30099 
L 244.346686 42.30099 
L 244.346686 40.414785 
L 245.890412 40.414785 
L 245.890412 38.528581 
L 246.461478 38.528581 
L 246.461478 36.642376 
L 246.930305 36.642376 
L 246.930305 34.756172 
L 247.830149 34.756172 
L 247.895303 30.983762 
L 248.259459 30.983762 
L 248.259459 29.097558 
L 248.476457 29.097558 
L 248.476457 27.211353 
L 248.654954 27.211353 
L 248.654954 25.325149 
L 249.137108 25.325149 
L 249.137108 23.438944 
L 249.454403 23.438944 
L 249.454403 21.552739 
L 250.833311 21.552739 
L 250.833311 19.666535 
L 251.603311 19.666535 
L 251.642002 15.894125 
L 252.235388 15.894125 
L 252.235388 14.007921 
L 252.508864 14.007921 
L 252.508864 12.121716 
L 253.800698 12.121716 
L 253.800698 10.235512 
L 255.107817 10.235512 
L 255.107817 8.349307 
L 255.107817 8.349307 
L 450.672 8.349307 
L 450.672 8.349307 
" style="fill:none;stroke:#000000;stroke-linecap:square;stroke-width:1.5;"/>
   </g>
   <g id="patch_3">
    <path d="M 5.52 291.28 
L 5.52 5.52 
" style="fill:none;stroke:#000000;stroke-linecap:square;stroke-linejoin:miter;stroke-width:0.8;"/>
   </g>
   <g id="patch_4">
    <path d="M 450.672 291.28 
L 450.672 5.52 
" style="fill:none;stroke:#000000;stroke-linecap:square;stroke-linejoin:miter;stroke-width:0.8;"/>
   </g>
   <g id="patch_5">
    <path d="M 5.52 291.28 
L 450.672 291.28 
" style="fill:none;stroke:#000000;stroke-linecap:square;stroke-linejoin:miter;stroke-width:0.8;"/>
   </g>
   <g id="patch_6">
    <path d="M 5.52 5.52 
L 450.672 5.52 
" style="fill:none;stroke:#000000;stroke-linecap:square;stroke-linejoin:miter;stroke-width:0.8;"/>
   </g>
   <g id="text_6">
    <!-- {f15-f19}, 5-D -->
    <defs>
     <path d="M 51.125 -9.28125 
L 51.125 -16.3125 
L 48.09375 -16.3125 
Q 35.9375 -16.3125 31.8125 -12.6875 
Q 27.6875 -9.078125 27.6875 1.703125 
L 27.6875 13.375 
Q 27.6875 20.75 25.046875 23.578125 
Q 22.40625 26.421875 15.484375 26.421875 
L 12.5 26.421875 
L 12.5 33.40625 
L 15.484375 33.40625 
Q 22.46875 33.40625 25.078125 36.203125 
Q 27.6875 39.015625 27.6875 46.296875 
L 27.6875 58.015625 
Q 27.6875 68.796875 31.8125 72.390625 
Q 35.9375 75.984375 48.09375 75.984375 
L 51.125 75.984375 
L 51.125 69 
L 47.796875 69 
Q 40.921875 69 38.8125 66.84375 
Q 36.71875 64.703125 36.71875 57.8125 
L 36.71875 45.703125 
Q 36.71875 38.03125 34.5 34.5625 
Q 32.28125 31.109375 26.90625 29.890625 
Q 32.328125 28.5625 34.515625 25.09375 
Q 36.71875 21.625 36.71875 14.015625 
L 36.71875 1.90625 
Q 36.71875 -4.984375 38.8125 -7.125 
Q 40.921875 -9.28125 47.796875 -9.28125 
z
" id="DejaVuSans-7b"/>
     <path d="M 10.796875 72.90625 
L 49.515625 72.90625 
L 49.515625 64.59375 
L 19.828125 64.59375 
L 19.828125 46.734375 
Q 21.96875 47.46875 24.109375 47.828125 
Q 26.265625 48.1875 28.421875 48.1875 
Q 40.625 48.1875 47.75 41.5 
Q 54.890625 34.8125 54.890625 23.390625 
Q 54.890625 11.625 47.5625 5.09375 
Q 40.234375 -1.421875 26.90625 -1.421875 
Q 22.3125 -1.421875 17.546875 -0.640625 
Q 12.796875 0.140625 7.71875 1.703125 
L 7.71875 11.625 
Q 12.109375 9.234375 16.796875 8.0625 
Q 21.484375 6.890625 26.703125 6.890625 
Q 35.15625 6.890625 40.078125 11.328125 
Q 45.015625 15.765625 45.015625 23.390625 
Q 45.015625 31 40.078125 35.4375 
Q 35.15625 39.890625 26.703125 39.890625 
Q 22.75 39.890625 18.8125 39.015625 
Q 14.890625 38.140625 10.796875 36.28125 
z
" id="DejaVuSans-35"/>
     <path d="M 10.984375 1.515625 
L 10.984375 10.5 
Q 14.703125 8.734375 18.5 7.8125 
Q 22.3125 6.890625 25.984375 6.890625 
Q 35.75 6.890625 40.890625 13.453125 
Q 46.046875 20.015625 46.78125 33.40625 
Q 43.953125 29.203125 39.59375 26.953125 
Q 35.25 24.703125 29.984375 24.703125 
Q 19.046875 24.703125 12.671875 31.3125 
Q 6.296875 37.9375 6.296875 49.421875 
Q 6.296875 60.640625 12.9375 67.421875 
Q 19.578125 74.21875 30.609375 74.21875 
Q 43.265625 74.21875 49.921875 64.515625 
Q 56.59375 54.828125 56.59375 36.375 
Q 56.59375 19.140625 48.40625 8.859375 
Q 40.234375 -1.421875 26.421875 -1.421875 
Q 22.703125 -1.421875 18.890625 -0.6875 
Q 15.09375 0.046875 10.984375 1.515625 
z
M 30.609375 32.421875 
Q 37.25 32.421875 41.125 36.953125 
Q 45.015625 41.5 45.015625 49.421875 
Q 45.015625 57.28125 41.125 61.84375 
Q 37.25 66.40625 30.609375 66.40625 
Q 23.96875 66.40625 20.09375 61.84375 
Q 16.21875 57.28125 16.21875 49.421875 
Q 16.21875 41.5 20.09375 36.953125 
Q 23.96875 32.421875 30.609375 32.421875 
z
" id="DejaVuSans-39"/>
     <path d="M 12.5 -9.28125 
L 15.921875 -9.28125 
Q 22.75 -9.28125 24.828125 -7.171875 
Q 26.90625 -5.078125 26.90625 1.90625 
L 26.90625 14.015625 
Q 26.90625 21.625 29.09375 25.09375 
Q 31.296875 28.5625 36.71875 29.890625 
Q 31.296875 31.109375 29.09375 34.5625 
Q 26.90625 38.03125 26.90625 45.703125 
L 26.90625 57.8125 
Q 26.90625 64.75 24.828125 66.875 
Q 22.75 69 15.921875 69 
L 12.5 69 
L 12.5 75.984375 
L 15.578125 75.984375 
Q 27.734375 75.984375 31.8125 72.390625 
Q 35.890625 68.796875 35.890625 58.015625 
L 35.890625 46.296875 
Q 35.890625 39.015625 38.515625 36.203125 
Q 41.15625 33.40625 48.09375 33.40625 
L 51.125 33.40625 
L 51.125 26.421875 
L 48.09375 26.421875 
Q 41.15625 26.421875 38.515625 23.578125 
Q 35.890625 20.75 35.890625 13.375 
L 35.890625 1.703125 
Q 35.890625 -9.078125 31.8125 -12.6875 
Q 27.734375 -16.3125 15.578125 -16.3125 
L 12.5 -16.3125 
z
" id="DejaVuSans-7d"/>
     <path d="M 11.71875 12.40625 
L 22.015625 12.40625 
L 22.015625 4 
L 14.015625 -11.625 
L 7.71875 -11.625 
L 11.71875 4 
z
" id="DejaVuSans-2c"/>
    </defs>
    <g transform="translate(296.06896 285.5648)scale(0.2 -0.2)">
     <use xlink:href="#DejaVuSans-7b"/>
     <use x="63.623047" xlink:href="#DejaVuSans-66"/>
     <use x="98.828125" xlink:href="#DejaVuSans-31"/>
     <use x="162.451172" xlink:href="#DejaVuSans-35"/>
     <use x="226.074219" xlink:href="#DejaVuSans-2d"/>
     <use x="262.158203" xlink:href="#DejaVuSans-66"/>
     <use x="297.363281" xlink:href="#DejaVuSans-31"/>
     <use x="360.986328" xlink:href="#DejaVuSans-39"/>
     <use x="424.609375" xlink:href="#DejaVuSans-7d"/>
     <use x="488.232422" xlink:href="#DejaVuSans-2c"/>
     <use x="520.019531" xlink:href="#DejaVuSans-20"/>
     <use x="551.806641" xlink:href="#DejaVuSans-35"/>
     <use x="615.429688" xlink:href="#DejaVuSans-2d"/>
     <use x="651.513672" xlink:href="#DejaVuSans-44"/>
    </g>
   </g>
   <g id="text_7">
    <!-- v2.2.1.10 -->
    <defs>
     <path d="M 2.984375 54.6875 
L 12.5 54.6875 
L 29.59375 8.796875 
L 46.6875 54.6875 
L 56.203125 54.6875 
L 35.6875 0 
L 23.484375 0 
z
" id="DejaVuSans-76"/>
     <path d="M 19.1875 8.296875 
L 53.609375 8.296875 
L 53.609375 0 
L 7.328125 0 
L 7.328125 8.296875 
Q 12.9375 14.109375 22.625 23.890625 
Q 32.328125 33.6875 34.8125 36.53125 
Q 39.546875 41.84375 41.421875 45.53125 
Q 43.3125 49.21875 43.3125 52.78125 
Q 43.3125 58.59375 39.234375 62.25 
Q 35.15625 65.921875 28.609375 65.921875 
Q 23.96875 65.921875 18.8125 64.3125 
Q 13.671875 62.703125 7.8125 59.421875 
L 7.8125 69.390625 
Q 13.765625 71.78125 18.9375 73 
Q 24.125 74.21875 28.421875 74.21875 
Q 39.75 74.21875 46.484375 68.546875 
Q 53.21875 62.890625 53.21875 53.421875 
Q 53.21875 48.921875 51.53125 44.890625 
Q 49.859375 40.875 45.40625 35.40625 
Q 44.1875 33.984375 37.640625 27.21875 
Q 31.109375 20.453125 19.1875 8.296875 
z
" id="DejaVuSans-32"/>
     <path d="M 10.6875 12.40625 
L 21 12.40625 
L 21 0 
L 10.6875 0 
z
" id="DejaVuSans-2e"/>
    </defs>
    <g style="fill:#808080;" transform="translate(204.463188 286.342713)scale(0.1 -0.1)">
     <use xlink:href="#DejaVuSans-76"/>
     <use x="59.179688" xlink:href="#DejaVuSans-32"/>
     <use x="122.802734" xlink:href="#DejaVuSans-2e"/>
     <use x="154.589844" xlink:href="#DejaVuSans-32"/>
     <use x="218.212891" xlink:href="#DejaVuSans-2e"/>
     <use x="250" xlink:href="#DejaVuSans-31"/>
     <use x="313.623047" xlink:href="#DejaVuSans-2e"/>
     <use x="345.410156" xlink:href="#DejaVuSans-31"/>
     <use x="409.033203" xlink:href="#DejaVuSans-30"/>
    </g>
   </g>
  </g>
 </g>
 <defs>
  <clipPath id="pf2769968bd">
   <rect height="285.76" width="445.152" x="5.52" y="5.52"/>
  </clipPath>
 </defs>
</svg>
