<?xml version="1.0" encoding="utf-8" standalone="no"?>
<!DOCTYPE svg PUBLIC "-//W3C//DTD SVG 1.1//EN"
  "http://www.w3.org/Graphics/SVG/1.1/DTD/svg11.dtd">
<!-- Created with matplotlib (http://matplotlib.org/) -->
<svg height="345.6pt" version="1.1" viewBox="0 0 460.8 345.6" width="460.8pt" xmlns="http://www.w3.org/2000/svg" xmlns:xlink="http://www.w3.org/1999/xlink">
 <defs>
  <style type="text/css">
*{stroke-linecap:butt;stroke-linejoin:round;}
  </style>
 </defs>
 <g id="figure_1">
  <g id="patch_1">
   <path d="M 0 345.6 
L 460.8 345.6 
L 460.8 0 
L 0 0 
z
" style="fill:#ffffff;"/>
  </g>
  <g id="axes_1">
   <g id="patch_2">
    <path d="M 5.52 291.28 
L 450.672 291.28 
L 450.672 5.52 
L 5.52 5.52 
z
" style="fill:#ffffff;"/>
   </g>
   <g id="matplotlib.axis_1">
    <g id="xtick_1">
     <g id="line2d_1">
      <path clip-path="url(#p4165414734)" d="M 5.410932 291.28 
L 5.410932 5.52 
" style="fill:none;stroke:#b0b0b0;stroke-linecap:square;stroke-width:0.8;"/>
     </g>
     <g id="line2d_2">
      <defs>
       <path d="M 0 0 
L 0 3.5 
" id="mb5c11cf4d3" style="stroke:#000000;stroke-width:0.8;"/>
      </defs>
      <g>
       <use style="stroke:#000000;stroke-width:0.8;" x="5.410932" xlink:href="#mb5c11cf4d3" y="291.28"/>
      </g>
     </g>
    </g>
    <g id="xtick_2">
     <g id="line2d_3">
      <path clip-path="url(#p4165414734)" d="M 106.367335 291.28 
L 106.367335 5.52 
" style="fill:none;stroke:#b0b0b0;stroke-linecap:square;stroke-width:0.8;"/>
     </g>
     <g id="line2d_4">
      <g>
       <use style="stroke:#000000;stroke-width:0.8;" x="106.367335" xlink:href="#mb5c11cf4d3" y="291.28"/>
      </g>
     </g>
     <g id="text_1">
      <!-- -4 -->
      <defs>
       <path d="M 4.890625 31.390625 
L 31.203125 31.390625 
L 31.203125 23.390625 
L 4.890625 23.390625 
z
" id="DejaVuSans-2d"/>
       <path d="M 37.796875 64.3125 
L 12.890625 25.390625 
L 37.796875 25.390625 
z
M 35.203125 72.90625 
L 47.609375 72.90625 
L 47.609375 25.390625 
L 58.015625 25.390625 
L 58.015625 17.1875 
L 47.609375 17.1875 
L 47.609375 0 
L 37.796875 0 
L 37.796875 17.1875 
L 4.890625 17.1875 
L 4.890625 26.703125 
z
" id="DejaVuSans-34"/>
      </defs>
      <g transform="translate(96.397023 313.476875)scale(0.2 -0.2)">
       <use xlink:href="#DejaVuSans-2d"/>
       <use x="36.083984" xlink:href="#DejaVuSans-34"/>
      </g>
     </g>
    </g>
    <g id="xtick_3">
     <g id="line2d_5">
      <path clip-path="url(#p4165414734)" d="M 207.323738 291.28 
L 207.323738 5.52 
" style="fill:none;stroke:#b0b0b0;stroke-linecap:square;stroke-width:0.8;"/>
     </g>
     <g id="line2d_6">
      <g>
       <use style="stroke:#000000;stroke-width:0.8;" x="207.323738" xlink:href="#mb5c11cf4d3" y="291.28"/>
      </g>
     </g>
     <g id="text_2">
      <!-- 0 -->
      <defs>
       <path d="M 31.78125 66.40625 
Q 24.171875 66.40625 20.328125 58.90625 
Q 16.5 51.421875 16.5 36.375 
Q 16.5 21.390625 20.328125 13.890625 
Q 24.171875 6.390625 31.78125 6.390625 
Q 39.453125 6.390625 43.28125 13.890625 
Q 47.125 21.390625 47.125 36.375 
Q 47.125 51.421875 43.28125 58.90625 
Q 39.453125 66.40625 31.78125 66.40625 
z
M 31.78125 74.21875 
Q 44.046875 74.21875 50.515625 64.515625 
Q 56.984375 54.828125 56.984375 36.375 
Q 56.984375 17.96875 50.515625 8.265625 
Q 44.046875 -1.421875 31.78125 -1.421875 
Q 19.53125 -1.421875 13.0625 8.265625 
Q 6.59375 17.96875 6.59375 36.375 
Q 6.59375 54.828125 13.0625 64.515625 
Q 19.53125 74.21875 31.78125 74.21875 
z
" id="DejaVuSans-30"/>
      </defs>
      <g transform="translate(200.961238 313.476875)scale(0.2 -0.2)">
       <use xlink:href="#DejaVuSans-30"/>
      </g>
     </g>
    </g>
    <g id="xtick_4">
     <g id="line2d_7">
      <path clip-path="url(#p4165414734)" d="M 308.280141 291.28 
L 308.280141 5.52 
" style="fill:none;stroke:#b0b0b0;stroke-linecap:square;stroke-width:0.8;"/>
     </g>
     <g id="line2d_8">
      <g>
       <use style="stroke:#000000;stroke-width:0.8;" x="308.280141" xlink:href="#mb5c11cf4d3" y="291.28"/>
      </g>
     </g>
     <g id="text_3">
      <!-- 4 -->
      <g transform="translate(301.917641 313.476875)scale(0.2 -0.2)">
       <use xlink:href="#DejaVuSans-34"/>
      </g>
     </g>
    </g>
    <g id="xtick_5">
     <g id="line2d_9">
      <path clip-path="url(#p4165414734)" d="M 409.236544 291.28 
L 409.236544 5.52 
" style="fill:none;stroke:#b0b0b0;stroke-linecap:square;stroke-width:0.8;"/>
     </g>
     <g id="line2d_10">
      <g>
       <use style="stroke:#000000;stroke-width:0.8;" x="409.236544" xlink:href="#mb5c11cf4d3" y="291.28"/>
      </g>
     </g>
     <g id="text_4">
      <!-- 8 -->
      <defs>
       <path d="M 31.78125 34.625 
Q 24.75 34.625 20.71875 30.859375 
Q 16.703125 27.09375 16.703125 20.515625 
Q 16.703125 13.921875 20.71875 10.15625 
Q 24.75 6.390625 31.78125 6.390625 
Q 38.8125 6.390625 42.859375 10.171875 
Q 46.921875 13.96875 46.921875 20.515625 
Q 46.921875 27.09375 42.890625 30.859375 
Q 38.875 34.625 31.78125 34.625 
z
M 21.921875 38.8125 
Q 15.578125 40.375 12.03125 44.71875 
Q 8.5 49.078125 8.5 55.328125 
Q 8.5 64.0625 14.71875 69.140625 
Q 20.953125 74.21875 31.78125 74.21875 
Q 42.671875 74.21875 48.875 69.140625 
Q 55.078125 64.0625 55.078125 55.328125 
Q 55.078125 49.078125 51.53125 44.71875 
Q 48 40.375 41.703125 38.8125 
Q 48.828125 37.15625 52.796875 32.3125 
Q 56.78125 27.484375 56.78125 20.515625 
Q 56.78125 9.90625 50.3125 4.234375 
Q 43.84375 -1.421875 31.78125 -1.421875 
Q 19.734375 -1.421875 13.25 4.234375 
Q 6.78125 9.90625 6.78125 20.515625 
Q 6.78125 27.484375 10.78125 32.3125 
Q 14.796875 37.15625 21.921875 38.8125 
z
M 18.3125 54.390625 
Q 18.3125 48.734375 21.84375 45.5625 
Q 25.390625 42.390625 31.78125 42.390625 
Q 38.140625 42.390625 41.71875 45.5625 
Q 45.3125 48.734375 45.3125 54.390625 
Q 45.3125 60.0625 41.71875 63.234375 
Q 38.140625 66.40625 31.78125 66.40625 
Q 25.390625 66.40625 21.84375 63.234375 
Q 18.3125 60.0625 18.3125 54.390625 
z
" id="DejaVuSans-38"/>
      </defs>
      <g transform="translate(402.874044 313.476875)scale(0.2 -0.2)">
       <use xlink:href="#DejaVuSans-38"/>
      </g>
     </g>
    </g>
    <g id="text_5">
     <!-- log10 of Df -->
     <defs>
      <path d="M 9.421875 75.984375 
L 18.40625 75.984375 
L 18.40625 0 
L 9.421875 0 
z
" id="DejaVuSans-6c"/>
      <path d="M 30.609375 48.390625 
Q 23.390625 48.390625 19.1875 42.75 
Q 14.984375 37.109375 14.984375 27.296875 
Q 14.984375 17.484375 19.15625 11.84375 
Q 23.34375 6.203125 30.609375 6.203125 
Q 37.796875 6.203125 41.984375 11.859375 
Q 46.1875 17.53125 46.1875 27.296875 
Q 46.1875 37.015625 41.984375 42.703125 
Q 37.796875 48.390625 30.609375 48.390625 
z
M 30.609375 56 
Q 42.328125 56 49.015625 48.375 
Q 55.71875 40.765625 55.71875 27.296875 
Q 55.71875 13.875 49.015625 6.21875 
Q 42.328125 -1.421875 30.609375 -1.421875 
Q 18.84375 -1.421875 12.171875 6.21875 
Q 5.515625 13.875 5.515625 27.296875 
Q 5.515625 40.765625 12.171875 48.375 
Q 18.84375 56 30.609375 56 
z
" id="DejaVuSans-6f"/>
      <path d="M 45.40625 27.984375 
Q 45.40625 37.75 41.375 43.109375 
Q 37.359375 48.484375 30.078125 48.484375 
Q 22.859375 48.484375 18.828125 43.109375 
Q 14.796875 37.75 14.796875 27.984375 
Q 14.796875 18.265625 18.828125 12.890625 
Q 22.859375 7.515625 30.078125 7.515625 
Q 37.359375 7.515625 41.375 12.890625 
Q 45.40625 18.265625 45.40625 27.984375 
z
M 54.390625 6.78125 
Q 54.390625 -7.171875 48.1875 -13.984375 
Q 42 -20.796875 29.203125 -20.796875 
Q 24.46875 -20.796875 20.265625 -20.09375 
Q 16.0625 -19.390625 12.109375 -17.921875 
L 12.109375 -9.1875 
Q 16.0625 -11.328125 19.921875 -12.34375 
Q 23.78125 -13.375 27.78125 -13.375 
Q 36.625 -13.375 41.015625 -8.765625 
Q 45.40625 -4.15625 45.40625 5.171875 
L 45.40625 9.625 
Q 42.625 4.78125 38.28125 2.390625 
Q 33.9375 0 27.875 0 
Q 17.828125 0 11.671875 7.65625 
Q 5.515625 15.328125 5.515625 27.984375 
Q 5.515625 40.671875 11.671875 48.328125 
Q 17.828125 56 27.875 56 
Q 33.9375 56 38.28125 53.609375 
Q 42.625 51.21875 45.40625 46.390625 
L 45.40625 54.6875 
L 54.390625 54.6875 
z
" id="DejaVuSans-67"/>
      <path d="M 12.40625 8.296875 
L 28.515625 8.296875 
L 28.515625 63.921875 
L 10.984375 60.40625 
L 10.984375 69.390625 
L 28.421875 72.90625 
L 38.28125 72.90625 
L 38.28125 8.296875 
L 54.390625 8.296875 
L 54.390625 0 
L 12.40625 0 
z
" id="DejaVuSans-31"/>
      <path id="DejaVuSans-20"/>
      <path d="M 37.109375 75.984375 
L 37.109375 68.5 
L 28.515625 68.5 
Q 23.6875 68.5 21.796875 66.546875 
Q 19.921875 64.59375 19.921875 59.515625 
L 19.921875 54.6875 
L 34.71875 54.6875 
L 34.71875 47.703125 
L 19.921875 47.703125 
L 19.921875 0 
L 10.890625 0 
L 10.890625 47.703125 
L 2.296875 47.703125 
L 2.296875 54.6875 
L 10.890625 54.6875 
L 10.890625 58.5 
Q 10.890625 67.625 15.140625 71.796875 
Q 19.390625 75.984375 28.609375 75.984375 
z
" id="DejaVuSans-66"/>
      <path d="M 19.671875 64.796875 
L 19.671875 8.109375 
L 31.59375 8.109375 
Q 46.6875 8.109375 53.6875 14.9375 
Q 60.6875 21.78125 60.6875 36.53125 
Q 60.6875 51.171875 53.6875 57.984375 
Q 46.6875 64.796875 31.59375 64.796875 
z
M 9.8125 72.90625 
L 30.078125 72.90625 
Q 51.265625 72.90625 61.171875 64.09375 
Q 71.09375 55.28125 71.09375 36.53125 
Q 71.09375 17.671875 61.125 8.828125 
Q 51.171875 0 30.078125 0 
L 9.8125 0 
z
" id="DejaVuSans-44"/>
     </defs>
     <g transform="translate(172.910063 336.833125)scale(0.2 -0.2)">
      <use xlink:href="#DejaVuSans-6c"/>
      <use x="27.783203" xlink:href="#DejaVuSans-6f"/>
      <use x="88.964844" xlink:href="#DejaVuSans-67"/>
      <use x="152.441406" xlink:href="#DejaVuSans-31"/>
      <use x="216.064453" xlink:href="#DejaVuSans-30"/>
      <use x="279.6875" xlink:href="#DejaVuSans-20"/>
      <use x="311.474609" xlink:href="#DejaVuSans-6f"/>
      <use x="372.65625" xlink:href="#DejaVuSans-66"/>
      <use x="407.861328" xlink:href="#DejaVuSans-20"/>
      <use x="439.648438" xlink:href="#DejaVuSans-44"/>
      <use x="516.650391" xlink:href="#DejaVuSans-66"/>
     </g>
    </g>
   </g>
   <g id="matplotlib.axis_2">
    <g id="ytick_1">
     <g id="line2d_11">
      <path clip-path="url(#p4165414734)" d="M 5.52 291.28 
L 450.672 291.28 
" style="fill:none;stroke:#b0b0b0;stroke-linecap:square;stroke-width:0.8;"/>
     </g>
     <g id="line2d_12">
      <defs>
       <path d="M 0 0 
L -3.5 0 
" id="m6feeaddbfb" style="stroke:#000000;stroke-width:0.8;"/>
      </defs>
      <g>
       <use style="stroke:#000000;stroke-width:0.8;" x="5.52" xlink:href="#m6feeaddbfb" y="291.28"/>
      </g>
     </g>
    </g>
    <g id="ytick_2">
     <g id="line2d_13">
      <path clip-path="url(#p4165414734)" d="M 5.52 234.693861 
L 450.672 234.693861 
" style="fill:none;stroke:#b0b0b0;stroke-linecap:square;stroke-width:0.8;"/>
     </g>
     <g id="line2d_14">
      <g>
       <use style="stroke:#000000;stroke-width:0.8;" x="5.52" xlink:href="#m6feeaddbfb" y="234.693861"/>
      </g>
     </g>
    </g>
    <g id="ytick_3">
     <g id="line2d_15">
      <path clip-path="url(#p4165414734)" d="M 5.52 178.107723 
L 450.672 178.107723 
" style="fill:none;stroke:#b0b0b0;stroke-linecap:square;stroke-width:0.8;"/>
     </g>
     <g id="line2d_16">
      <g>
       <use style="stroke:#000000;stroke-width:0.8;" x="5.52" xlink:href="#m6feeaddbfb" y="178.107723"/>
      </g>
     </g>
    </g>
    <g id="ytick_4">
     <g id="line2d_17">
      <path clip-path="url(#p4165414734)" d="M 5.52 121.521584 
L 450.672 121.521584 
" style="fill:none;stroke:#b0b0b0;stroke-linecap:square;stroke-width:0.8;"/>
     </g>
     <g id="line2d_18">
      <g>
       <use style="stroke:#000000;stroke-width:0.8;" x="5.52" xlink:href="#m6feeaddbfb" y="121.521584"/>
      </g>
     </g>
    </g>
    <g id="ytick_5">
     <g id="line2d_19">
      <path clip-path="url(#p4165414734)" d="M 5.52 64.935446 
L 450.672 64.935446 
" style="fill:none;stroke:#b0b0b0;stroke-linecap:square;stroke-width:0.8;"/>
     </g>
     <g id="line2d_20">
      <g>
       <use style="stroke:#000000;stroke-width:0.8;" x="5.52" xlink:href="#m6feeaddbfb" y="64.935446"/>
      </g>
     </g>
    </g>
    <g id="ytick_6">
     <g id="line2d_21">
      <path clip-path="url(#p4165414734)" d="M 5.52 8.349307 
L 450.672 8.349307 
" style="fill:none;stroke:#b0b0b0;stroke-linecap:square;stroke-width:0.8;"/>
     </g>
     <g id="line2d_22">
      <g>
       <use style="stroke:#000000;stroke-width:0.8;" x="5.52" xlink:href="#m6feeaddbfb" y="8.349307"/>
      </g>
     </g>
    </g>
   </g>
   <g id="line2d_23">
    <path clip-path="url(#p4165414734)" d="M 236.834558 291.28 
L 236.834558 289.393795 
L 238.494438 289.393795 
L 238.494438 287.507591 
L 243.544703 287.507591 
L 243.544703 285.621386 
L 244.171368 285.621386 
L 244.171368 283.735182 
L 245.145882 283.735182 
L 245.145882 281.848977 
L 245.327804 281.848977 
L 245.327804 279.962772 
L 245.477147 279.962772 
L 245.477147 278.076568 
L 245.642562 278.076568 
L 245.642562 276.190363 
L 246.402019 276.190363 
L 246.402019 274.304158 
L 247.256537 274.304158 
L 247.256537 272.417954 
L 247.520266 272.417954 
L 247.572416 268.645545 
L 247.711351 268.645545 
L 247.804181 264.873135 
L 249.156139 264.873135 
L 249.156139 262.986931 
L 256.006648 262.986931 
L 256.006648 261.100726 
L 256.775973 261.100726 
L 256.775973 259.214521 
L 257.298691 259.214521 
L 257.298691 257.328317 
L 257.767581 257.328317 
L 257.767581 255.442112 
L 257.997886 255.442112 
L 258.055734 251.669703 
L 259.368615 251.669703 
L 259.383694 247.897294 
L 260.070015 247.897294 
L 260.106946 242.23868 
L 260.731629 242.23868 
L 260.785187 234.693861 
L 261.037102 234.693861 
L 261.037102 232.807657 
L 261.868879 232.807657 
L 261.868879 230.921452 
L 263.725323 230.921452 
L 263.725323 229.035248 
L 263.906793 229.035248 
L 263.906793 227.149043 
L 264.240398 227.149043 
L 264.240398 225.262838 
L 265.100319 225.262838 
L 265.100319 223.376634 
L 265.421366 223.376634 
L 265.421366 221.490429 
L 265.563087 221.490429 
L 265.580224 217.71802 
L 265.804406 217.71802 
L 265.889414 210.173201 
L 265.978076 210.173201 
L 266.067177 206.400792 
L 266.487351 206.400792 
L 266.487351 204.514587 
L 266.662351 204.514587 
L 266.662351 202.628383 
L 266.797185 202.628383 
L 266.797185 200.742178 
L 266.96025 200.742178 
L 267.028367 193.19736 
L 267.133736 193.19736 
L 267.244659 189.42495 
L 267.274789 189.42495 
L 267.274789 187.538746 
L 267.399744 187.538746 
L 267.504254 174.335314 
L 267.560274 174.335314 
L 267.649909 166.790495 
L 267.674732 166.790495 
L 267.742523 161.131881 
L 267.857506 161.131881 
L 267.962299 153.587063 
L 267.995911 153.587063 
L 268.06867 147.928449 
L 268.133967 147.928449 
L 268.147304 142.269835 
L 268.388952 142.269835 
L 268.388952 140.38363 
L 268.604077 140.38363 
L 268.604077 138.497426 
L 270.116369 138.497426 
L 270.116369 136.611221 
L 270.552494 136.611221 
L 270.552494 134.725017 
L 270.941196 134.725017 
L 270.941196 132.838812 
L 271.621629 132.838812 
L 271.621629 130.952607 
L 271.763055 130.952607 
L 271.763055 129.066403 
L 271.933818 129.066403 
L 271.933818 127.180198 
L 272.563895 127.180198 
L 272.670735 123.407789 
L 273.982528 123.407789 
L 273.982528 121.521584 
L 274.447929 121.521584 
L 274.447929 119.63538 
L 275.19343 119.63538 
L 275.19343 117.749175 
L 275.40892 117.749175 
L 275.40892 115.86297 
L 276.475002 115.86297 
L 276.475002 113.976766 
L 277.020663 113.976766 
L 277.020663 112.090561 
L 278.005284 112.090561 
L 278.005284 110.204356 
L 278.170635 110.204356 
L 278.170635 108.318152 
L 278.47492 108.318152 
L 278.573216 104.545743 
L 278.799577 104.545743 
L 278.870322 95.114719 
L 279.091136 95.114719 
L 279.091136 93.228515 
L 280.188626 93.228515 
L 280.285463 87.569901 
L 280.403021 87.569901 
L 280.403021 85.683696 
L 281.051174 85.683696 
L 281.108948 81.911287 
L 281.226879 81.911287 
L 281.249769 78.138878 
L 281.433709 78.138878 
L 281.433709 76.252673 
L 281.598517 76.252673 
L 281.598809 72.480264 
L 281.975531 72.480264 
L 281.975531 70.594059 
L 282.430068 70.594059 
L 282.430068 68.707855 
L 283.164082 68.707855 
L 283.164082 66.82165 
L 284.115064 66.82165 
L 284.115064 64.935446 
L 319.225922 64.935446 
L 319.225922 63.049241 
L 329.855068 63.049241 
L 329.855068 61.163036 
L 334.991123 61.163036 
L 334.991123 59.276832 
L 337.636878 59.276832 
L 337.636878 57.390627 
L 340.198776 57.390627 
L 340.198776 55.504422 
L 342.178432 55.504422 
L 342.178432 53.618218 
L 346.671223 53.618218 
L 346.671223 51.732013 
L 347.58288 51.732013 
L 347.58288 49.845809 
L 349.136765 49.845809 
L 349.136765 47.959604 
L 353.328063 47.959604 
L 353.328063 46.073399 
L 353.628404 46.073399 
L 353.628404 44.187195 
L 354.265683 44.187195 
L 354.265683 42.30099 
L 355.19239 42.30099 
L 355.19239 40.414785 
L 358.554007 40.414785 
L 358.554007 38.528581 
L 360.011554 38.528581 
L 360.011554 36.642376 
L 361.576549 36.642376 
L 361.576549 34.756172 
L 362.555821 34.756172 
L 362.555821 32.869967 
L 362.900504 32.869967 
L 362.900504 30.983762 
L 363.454794 30.983762 
L 363.454794 29.097558 
L 364.152358 29.097558 
L 364.152358 27.211353 
L 364.442909 27.211353 
L 364.442909 25.325149 
L 364.755764 25.325149 
L 364.755764 23.438944 
L 366.330082 23.438944 
L 366.330082 21.552739 
L 369.075217 21.552739 
L 369.075217 19.666535 
L 369.285374 19.666535 
L 369.285374 17.78033 
L 369.4554 17.78033 
L 369.4554 15.894125 
L 369.794988 15.894125 
L 369.794988 14.007921 
L 370.405106 14.007921 
L 370.405106 12.121716 
L 371.308549 12.121716 
L 371.308549 10.235512 
L 373.59703 10.235512 
L 373.59703 8.349307 
L 373.59703 8.349307 
L 450.672 8.349307 
L 450.672 8.349307 
" style="fill:none;stroke:#ff0000;stroke-linecap:square;stroke-width:3;"/>
   </g>
   <g id="line2d_24">
    <path clip-path="url(#p4165414734)" d="M 256.901331 291.28 
L 256.901331 289.393795 
L 257.319434 289.393795 
L 257.319434 287.507591 
L 258.951116 287.507591 
L 258.951116 285.621386 
L 259.110319 285.621386 
L 259.200305 281.848977 
L 259.582609 281.848977 
L 259.582609 279.962772 
L 260.021593 279.962772 
L 260.021593 278.076568 
L 260.811784 278.076568 
L 260.811784 276.190363 
L 260.974986 276.190363 
L 260.974986 274.304158 
L 261.177742 274.304158 
L 261.256186 270.531749 
L 261.345893 270.531749 
L 261.345893 268.645545 
L 261.569748 268.645545 
L 261.662066 262.986931 
L 261.696138 262.986931 
L 261.696138 261.100726 
L 262.207005 261.100726 
L 262.207005 259.214521 
L 262.397281 259.214521 
L 262.397281 257.328317 
L 262.584462 257.328317 
L 262.584462 255.442112 
L 263.49248 255.442112 
L 263.560368 251.669703 
L 263.776469 251.669703 
L 263.776469 249.783498 
L 263.989947 249.783498 
L 263.989947 247.897294 
L 264.141987 247.897294 
L 264.225435 242.23868 
L 264.287402 242.23868 
L 264.3954 238.466271 
L 264.449457 238.466271 
L 264.449457 236.580066 
L 266.301581 236.580066 
L 266.301581 234.693861 
L 267.016126 234.693861 
L 267.016126 232.807657 
L 267.905497 232.807657 
L 267.905497 230.921452 
L 268.880046 230.921452 
L 268.948421 225.262838 
L 269.043297 225.262838 
L 269.043297 223.376634 
L 269.374706 223.376634 
L 269.383332 219.604224 
L 269.548819 219.604224 
L 269.548846 215.831815 
L 269.702879 215.831815 
L 269.702879 213.945611 
L 269.881728 213.945611 
L 269.911431 210.173201 
L 270.00652 210.173201 
L 270.016669 206.400792 
L 270.246994 206.400792 
L 270.246994 204.514587 
L 270.486095 204.514587 
L 270.486095 202.628383 
L 270.665122 202.628383 
L 270.685428 198.855974 
L 270.808439 198.855974 
L 270.808439 196.969769 
L 270.965894 196.969769 
L 271.047294 193.19736 
L 271.082391 193.19736 
L 271.176749 187.538746 
L 271.222906 187.538746 
L 271.286867 183.766337 
L 271.381619 183.766337 
L 271.43662 179.993927 
L 271.667644 179.993927 
L 271.667644 178.107723 
L 275.430964 178.107723 
L 275.430964 176.221518 
L 277.607108 176.221518 
L 277.607108 174.335314 
L 278.281505 174.335314 
L 278.281505 172.449109 
L 278.5955 172.449109 
L 278.5955 170.562904 
L 278.849599 170.562904 
L 278.849599 168.6767 
L 279.587864 168.6767 
L 279.587864 166.790495 
L 279.765325 166.790495 
L 279.765325 164.90429 
L 280.106799 164.90429 
L 280.106799 163.018086 
L 280.294118 163.018086 
L 280.294118 161.131881 
L 280.438694 161.131881 
L 280.438694 159.245677 
L 281.06834 159.245677 
L 281.108948 155.473267 
L 281.645721 155.473267 
L 281.645721 153.587063 
L 281.984816 153.587063 
L 282.0392 149.814653 
L 282.190473 149.814653 
L 282.289631 144.15604 
L 282.481687 144.15604 
L 282.520972 140.38363 
L 282.73682 140.38363 
L 282.813071 136.611221 
L 282.943988 136.611221 
L 282.943988 134.725017 
L 283.17855 134.725017 
L 283.17855 132.838812 
L 283.458777 132.838812 
L 283.560949 129.066403 
L 283.596049 129.066403 
L 283.636068 125.293993 
L 283.885446 125.293993 
L 283.885446 123.407789 
L 284.104991 123.407789 
L 284.104991 121.521584 
L 284.254605 121.521584 
L 284.325638 115.86297 
L 284.40879 115.86297 
L 284.470049 112.090561 
L 284.545366 112.090561 
L 284.545366 110.204356 
L 284.737888 110.204356 
L 284.778196 104.545743 
L 284.865075 104.545743 
L 284.90792 98.887129 
L 285.240616 98.887129 
L 285.240616 97.000924 
L 285.608429 97.000924 
L 285.608429 95.114719 
L 285.725033 95.114719 
L 285.763762 91.34231 
L 285.848501 91.34231 
L 285.879476 87.569901 
L 286.543236 87.569901 
L 286.580115 83.797492 
L 286.904154 83.797492 
L 287.00182 78.138878 
L 287.415366 78.138878 
L 287.415366 76.252673 
L 288.450484 76.252673 
L 288.506342 72.480264 
L 288.877011 72.480264 
L 288.877011 70.594059 
L 290.729173 70.594059 
L 290.729173 68.707855 
L 291.29905 68.707855 
L 291.29905 66.82165 
L 292.360123 66.82165 
L 292.360123 64.935446 
L 361.998404 64.935446 
L 361.998404 63.049241 
L 365.514164 63.049241 
L 365.514164 61.163036 
L 367.826522 61.163036 
L 367.826522 59.276832 
L 368.806544 59.276832 
L 368.806544 57.390627 
L 369.818648 57.390627 
L 369.818648 55.504422 
L 371.454838 55.504422 
L 371.454838 53.618218 
L 371.667944 53.618218 
L 371.667944 51.732013 
L 371.968287 51.732013 
L 371.968287 49.845809 
L 373.107731 49.845809 
L 373.107731 47.959604 
L 374.086537 47.959604 
L 374.160341 44.187195 
L 374.826901 44.187195 
L 374.826901 42.30099 
L 375.455827 42.30099 
L 375.455827 40.414785 
L 376.366982 40.414785 
L 376.366982 38.528581 
L 376.965569 38.528581 
L 377.074317 34.756172 
L 377.57107 34.756172 
L 377.57107 32.869967 
L 379.19439 32.869967 
L 379.19439 30.983762 
L 380.586879 30.983762 
L 380.586879 29.097558 
L 381.027118 29.097558 
L 381.027118 27.211353 
L 381.511631 27.211353 
L 381.553606 23.438944 
L 381.818834 23.438944 
L 381.906149 19.666535 
L 382.290235 19.666535 
L 382.290235 17.78033 
L 382.504055 17.78033 
L 382.504055 15.894125 
L 382.73153 15.894125 
L 382.73153 14.007921 
L 383.65756 14.007921 
L 383.65756 12.121716 
L 384.137331 12.121716 
L 384.137331 10.235512 
L 388.906937 10.235512 
L 388.906937 8.349307 
L 388.906937 8.349307 
L 450.672 8.349307 
L 450.672 8.349307 
" style="fill:none;stroke:#00bfbf;stroke-linecap:square;stroke-width:1.5;"/>
   </g>
   <g id="line2d_25">
    <path clip-path="url(#p4165414734)" d="M 255.40135 291.28 
L 255.40135 289.393795 
L 256.413863 289.393795 
L 256.413863 287.507591 
L 256.901331 287.507591 
L 256.901331 285.621386 
L 257.319434 285.621386 
L 257.319434 283.735182 
L 258.055734 283.735182 
L 258.055734 281.848977 
L 258.627606 281.848977 
L 258.627606 279.962772 
L 259.200305 279.962772 
L 259.200305 278.076568 
L 259.337065 278.076568 
L 259.337065 276.190363 
L 259.582609 276.190363 
L 259.582609 274.304158 
L 260.257857 274.304158 
L 260.327219 270.531749 
L 260.81144 270.531749 
L 260.853532 266.75934 
L 261.177742 266.75934 
L 261.256186 262.986931 
L 261.345893 262.986931 
L 261.388948 259.214521 
L 261.569748 259.214521 
L 261.662066 255.442112 
L 261.696138 255.442112 
L 261.696138 253.555908 
L 262.341617 253.555908 
L 262.341617 251.669703 
L 262.584462 251.669703 
L 262.584462 249.783498 
L 263.560368 249.783498 
L 263.654947 246.011089 
L 263.723036 246.011089 
L 263.776469 240.352475 
L 264.141987 240.352475 
L 264.141987 238.466271 
L 264.3954 238.466271 
L 264.449457 234.693861 
L 266.301581 234.693861 
L 266.301581 232.807657 
L 267.466866 232.807657 
L 267.466866 230.921452 
L 267.64385 230.921452 
L 267.64385 229.035248 
L 267.905497 229.035248 
L 267.905497 227.149043 
L 268.017665 227.149043 
L 268.017665 225.262838 
L 268.470113 225.262838 
L 268.470113 223.376634 
L 268.60398 223.376634 
L 268.60398 221.490429 
L 268.717421 221.490429 
L 268.717421 219.604224 
L 268.880046 219.604224 
L 268.948421 213.945611 
L 269.043297 213.945611 
L 269.043297 212.059406 
L 269.374706 212.059406 
L 269.383332 208.286997 
L 269.548819 208.286997 
L 269.548846 204.514587 
L 269.911431 204.514587 
L 270.016669 196.969769 
L 270.078519 196.969769 
L 270.078519 195.083564 
L 270.233898 195.083564 
L 270.233898 193.19736 
L 270.486095 193.19736 
L 270.486095 191.311155 
L 270.665122 191.311155 
L 270.768074 187.538746 
L 270.855153 187.538746 
L 270.855153 185.652541 
L 271.024178 185.652541 
L 271.058144 181.880132 
L 271.135664 181.880132 
L 271.135664 179.993927 
L 271.381619 179.993927 
L 271.381619 178.107723 
L 275.430964 178.107723 
L 275.430964 176.221518 
L 276.836541 176.221518 
L 276.836541 174.335314 
L 277.607108 174.335314 
L 277.607108 172.449109 
L 277.776039 172.449109 
L 277.776039 170.562904 
L 277.912414 170.562904 
L 277.912414 168.6767 
L 278.407293 168.6767 
L 278.407293 166.790495 
L 278.5955 166.790495 
L 278.5955 164.90429 
L 278.849599 164.90429 
L 278.849599 163.018086 
L 279.587864 163.018086 
L 279.587864 161.131881 
L 279.784562 161.131881 
L 279.78839 157.359472 
L 280.048883 157.359472 
L 280.121785 151.700858 
L 280.234678 151.700858 
L 280.294118 147.928449 
L 280.438694 147.928449 
L 280.438694 146.042244 
L 280.625725 146.042244 
L 280.625725 144.15604 
L 280.796183 144.15604 
L 280.799909 140.38363 
L 280.91176 140.38363 
L 280.91176 138.497426 
L 281.077732 138.497426 
L 281.108948 134.725017 
L 281.223039 134.725017 
L 281.223039 132.838812 
L 281.645721 132.838812 
L 281.687505 127.180198 
L 281.819456 127.180198 
L 281.927271 121.521584 
L 281.975531 121.521584 
L 282.074941 113.976766 
L 282.184055 113.976766 
L 282.289631 110.204356 
L 282.520972 110.204356 
L 282.520972 108.318152 
L 282.736842 108.318152 
L 282.813071 104.545743 
L 283.17855 104.545743 
L 283.17855 102.659538 
L 283.426775 102.659538 
L 283.495726 97.000924 
L 283.989866 97.000924 
L 284.091937 93.228515 
L 284.104991 93.228515 
L 284.115064 89.456106 
L 284.40879 89.456106 
L 284.470049 85.683696 
L 284.545366 85.683696 
L 284.545366 83.797492 
L 284.95834 83.797492 
L 284.95834 81.911287 
L 285.240616 81.911287 
L 285.240616 80.025083 
L 285.608429 80.025083 
L 285.608429 78.138878 
L 285.763762 78.138878 
L 285.763762 76.252673 
L 285.918834 76.252673 
L 285.918834 74.366469 
L 286.207999 74.366469 
L 286.207999 72.480264 
L 287.00182 72.480264 
L 287.00182 70.594059 
L 287.933391 70.594059 
L 287.933391 68.707855 
L 288.450484 68.707855 
L 288.506342 64.935446 
L 361.736109 64.935446 
L 361.736109 63.049241 
L 361.998404 63.049241 
L 361.998404 61.163036 
L 365.514164 61.163036 
L 365.514164 59.276832 
L 367.826522 59.276832 
L 367.826522 57.390627 
L 368.806544 57.390627 
L 368.806544 55.504422 
L 369.537043 55.504422 
L 369.537043 53.618218 
L 369.794988 53.618218 
L 369.818648 49.845809 
L 370.541496 49.845809 
L 370.635715 46.073399 
L 370.765124 46.073399 
L 370.765124 44.187195 
L 371.454838 44.187195 
L 371.454838 42.30099 
L 371.667944 42.30099 
L 371.667944 40.414785 
L 371.968287 40.414785 
L 371.968287 38.528581 
L 372.730084 38.528581 
L 372.730084 36.642376 
L 373.107731 36.642376 
L 373.107731 34.756172 
L 373.59703 34.756172 
L 373.59703 32.869967 
L 374.160341 32.869967 
L 374.160341 30.983762 
L 374.596098 30.983762 
L 374.596098 29.097558 
L 374.826901 29.097558 
L 374.826901 27.211353 
L 375.455827 27.211353 
L 375.455827 25.325149 
L 376.799921 25.325149 
L 376.799921 23.438944 
L 378.057444 23.438944 
L 378.057444 21.552739 
L 379.19439 21.552739 
L 379.19439 19.666535 
L 379.772665 19.666535 
L 379.879581 15.894125 
L 380.249138 15.894125 
L 380.249138 14.007921 
L 380.866027 14.007921 
L 380.866027 12.121716 
L 381.511631 12.121716 
L 381.511631 10.235512 
L 382.340227 10.235512 
L 382.340227 8.349307 
L 382.340227 8.349307 
L 450.672 8.349307 
L 450.672 8.349307 
" style="fill:none;stroke:#bf00bf;stroke-linecap:square;stroke-width:1.5;"/>
   </g>
   <g id="line2d_26">
    <path clip-path="url(#p4165414734)" d="M 252.994648 291.28 
L 252.994648 289.393795 
L 254.766148 289.393795 
L 254.766148 287.507591 
L 255.40135 287.507591 
L 255.40135 285.621386 
L 256.413863 285.621386 
L 256.413863 283.735182 
L 257.319434 283.735182 
L 257.319434 281.848977 
L 257.489338 281.848977 
L 257.489338 279.962772 
L 258.055734 279.962772 
L 258.055734 278.076568 
L 258.472347 278.076568 
L 258.472347 276.190363 
L 258.730732 276.190363 
L 258.80559 272.417954 
L 259.005379 272.417954 
L 259.005379 270.531749 
L 259.128953 270.531749 
L 259.200305 266.75934 
L 259.582609 266.75934 
L 259.582609 264.873135 
L 260.04754 264.873135 
L 260.04754 262.986931 
L 260.446021 262.986931 
L 260.537558 259.214521 
L 260.731629 259.214521 
L 260.736085 255.442112 
L 260.853532 255.442112 
L 260.853532 253.555908 
L 261.037102 253.555908 
L 261.037102 251.669703 
L 261.177742 251.669703 
L 261.256186 247.897294 
L 261.381555 247.897294 
L 261.381555 246.011089 
L 261.662066 246.011089 
L 261.696138 242.23868 
L 261.907853 242.23868 
L 261.937383 238.466271 
L 263.122827 238.466271 
L 263.122827 236.580066 
L 263.560368 236.580066 
L 263.560368 234.693861 
L 266.301581 234.693861 
L 266.301581 232.807657 
L 266.912756 232.807657 
L 266.912756 230.921452 
L 267.028367 230.921452 
L 267.028367 229.035248 
L 267.466866 229.035248 
L 267.466866 227.149043 
L 267.64385 227.149043 
L 267.64385 225.262838 
L 267.880092 225.262838 
L 267.985685 219.604224 
L 268.05655 219.604224 
L 268.109804 213.945611 
L 268.373031 213.945611 
L 268.388952 210.173201 
L 268.60398 210.173201 
L 268.654534 204.514587 
L 268.751793 204.514587 
L 268.751793 202.628383 
L 268.880046 202.628383 
L 268.948421 196.969769 
L 269.043297 196.969769 
L 269.043297 195.083564 
L 269.201347 195.083564 
L 269.201347 193.19736 
L 269.374706 193.19736 
L 269.374706 191.311155 
L 269.548819 191.311155 
L 269.548819 189.42495 
L 269.836498 189.42495 
L 269.836498 187.538746 
L 269.953848 187.538746 
L 270.00652 181.880132 
L 270.078519 181.880132 
L 270.078519 179.993927 
L 270.665122 179.993927 
L 270.665122 178.107723 
L 274.102508 178.107723 
L 274.102508 176.221518 
L 274.447929 176.221518 
L 274.447929 174.335314 
L 275.125358 174.335314 
L 275.125358 172.449109 
L 275.419173 172.449109 
L 275.430964 168.6767 
L 276.836541 168.6767 
L 276.836541 166.790495 
L 277.607108 166.790495 
L 277.607108 164.90429 
L 277.772553 164.90429 
L 277.776039 161.131881 
L 278.009268 161.131881 
L 278.009268 159.245677 
L 278.368925 159.245677 
L 278.368925 157.359472 
L 278.5955 157.359472 
L 278.5955 155.473267 
L 278.805596 155.473267 
L 278.849599 149.814653 
L 279.2266 149.814653 
L 279.2266 147.928449 
L 279.587864 147.928449 
L 279.674663 144.15604 
L 279.78839 144.15604 
L 279.78839 142.269835 
L 280.106799 142.269835 
L 280.121785 138.497426 
L 280.249862 138.497426 
L 280.285463 134.725017 
L 280.416078 134.725017 
L 280.438694 130.952607 
L 280.625725 130.952607 
L 280.679585 125.293993 
L 280.796183 125.293993 
L 280.799909 121.521584 
L 280.91176 121.521584 
L 280.94109 117.749175 
L 281.028743 117.749175 
L 281.108948 110.204356 
L 281.182985 110.204356 
L 281.223039 106.431947 
L 281.299888 106.431947 
L 281.299888 104.545743 
L 281.437414 104.545743 
L 281.437414 102.659538 
L 281.598809 102.659538 
L 281.598809 100.773333 
L 281.743103 100.773333 
L 281.808049 95.114719 
L 281.975531 95.114719 
L 282.016555 89.456106 
L 282.103662 89.456106 
L 282.103662 87.569901 
L 282.378977 87.569901 
L 282.378977 85.683696 
L 282.617565 85.683696 
L 282.676734 80.025083 
L 282.736842 80.025083 
L 282.736842 78.138878 
L 283.164082 78.138878 
L 283.17855 74.366469 
L 284.091937 74.366469 
L 284.115064 70.594059 
L 284.567785 70.594059 
L 284.567785 68.707855 
L 285.003108 68.707855 
L 285.003108 66.82165 
L 285.240616 66.82165 
L 285.240616 64.935446 
L 355.682916 64.935446 
L 355.682916 63.049241 
L 361.576549 63.049241 
L 361.576549 61.163036 
L 361.736109 61.163036 
L 361.736109 59.276832 
L 362.583161 59.276832 
L 362.583161 57.390627 
L 363.454794 57.390627 
L 363.454794 55.504422 
L 365.48333 55.504422 
L 365.57286 49.845809 
L 365.863468 49.845809 
L 365.863468 47.959604 
L 367.640453 47.959604 
L 367.640453 46.073399 
L 367.826522 46.073399 
L 367.826522 44.187195 
L 368.806544 44.187195 
L 368.806544 42.30099 
L 369.794988 42.30099 
L 369.794988 40.414785 
L 370.00749 40.414785 
L 370.00749 38.528581 
L 370.541496 38.528581 
L 370.635715 34.756172 
L 370.657115 34.756172 
L 370.765124 30.983762 
L 370.796826 30.983762 
L 370.796826 29.097558 
L 371.308549 29.097558 
L 371.308549 27.211353 
L 371.667944 27.211353 
L 371.667944 25.325149 
L 371.936377 25.325149 
L 371.968287 21.552739 
L 372.876759 21.552739 
L 372.876759 19.666535 
L 373.107731 19.666535 
L 373.107731 17.78033 
L 373.59703 17.78033 
L 373.59703 15.894125 
L 374.783141 15.894125 
L 374.826901 12.121716 
L 375.455827 12.121716 
L 375.455827 10.235512 
L 376.676261 10.235512 
L 376.676261 8.349307 
L 376.676261 8.349307 
L 450.672 8.349307 
L 450.672 8.349307 
" style="fill:none;stroke:#000000;stroke-linecap:square;stroke-width:1.5;"/>
   </g>
   <g id="line2d_27">
    <path clip-path="url(#p4165414734)" d="M 249.075429 291.28 
L 249.075429 289.393795 
L 251.289665 289.393795 
L 251.289665 287.507591 
L 252.369775 287.507591 
L 252.432776 281.848977 
L 253.814163 281.848977 
L 253.868955 276.190363 
L 255.276629 276.190363 
L 255.361495 270.531749 
L 255.447178 270.531749 
L 255.447178 268.645545 
L 256.006648 268.645545 
L 256.006648 266.75934 
L 256.124921 266.75934 
L 256.124921 264.873135 
L 256.775973 264.873135 
L 256.775973 262.986931 
L 257.298691 262.986931 
L 257.298691 261.100726 
L 257.767581 261.100726 
L 257.767581 259.214521 
L 257.930596 259.214521 
L 257.997886 255.442112 
L 258.055734 255.442112 
L 258.055734 253.555908 
L 258.223313 253.555908 
L 258.223313 251.669703 
L 259.368615 251.669703 
L 259.383694 247.897294 
L 260.070015 247.897294 
L 260.101727 244.124884 
L 260.731629 244.124884 
L 260.785187 238.466271 
L 261.037102 238.466271 
L 261.037102 236.580066 
L 261.868879 236.580066 
L 261.868879 234.693861 
L 265.563087 234.693861 
L 265.563087 232.807657 
L 265.856258 232.807657 
L 265.856258 230.921452 
L 266.300803 230.921452 
L 266.300803 229.035248 
L 266.96627 229.035248 
L 267.028367 225.262838 
L 267.133736 225.262838 
L 267.244659 221.490429 
L 267.414429 221.490429 
L 267.488074 215.831815 
L 267.62206 215.831815 
L 267.642739 212.059406 
L 267.876054 212.059406 
L 267.962299 204.514587 
L 268.06867 204.514587 
L 268.142552 198.855974 
L 268.282641 198.855974 
L 268.388952 195.083564 
L 268.604077 195.083564 
L 268.704635 185.652541 
L 269.043297 185.652541 
L 269.043297 183.766337 
L 269.186896 183.766337 
L 269.186896 181.880132 
L 269.725393 181.880132 
L 269.725393 179.993927 
L 269.913557 179.993927 
L 269.913557 178.107723 
L 271.838637 178.107723 
L 271.838637 176.221518 
L 272.829291 176.221518 
L 272.829291 174.335314 
L 272.98356 174.335314 
L 272.98356 172.449109 
L 273.234646 172.449109 
L 273.234646 170.562904 
L 273.41575 170.562904 
L 273.495012 166.790495 
L 273.552297 166.790495 
L 273.552297 164.90429 
L 273.947863 164.90429 
L 273.947863 163.018086 
L 274.194865 163.018086 
L 274.194865 161.131881 
L 274.447929 161.131881 
L 274.454486 157.359472 
L 274.882393 157.359472 
L 274.941354 153.587063 
L 275.19343 153.587063 
L 275.19343 151.700858 
L 275.406817 151.700858 
L 275.40892 147.928449 
L 275.723859 147.928449 
L 275.770195 142.269835 
L 275.957356 142.269835 
L 276.014015 138.497426 
L 276.088863 138.497426 
L 276.19242 130.952607 
L 276.34367 130.952607 
L 276.37137 127.180198 
L 276.475002 127.180198 
L 276.559251 123.407789 
L 277.020663 123.407789 
L 277.030665 119.63538 
L 278.005284 119.63538 
L 278.005284 117.749175 
L 278.170635 117.749175 
L 278.198475 113.976766 
L 278.426317 113.976766 
L 278.521929 108.318152 
L 278.573216 108.318152 
L 278.573216 106.431947 
L 278.769726 106.431947 
L 278.870322 95.114719 
L 279.091136 95.114719 
L 279.091136 93.228515 
L 280.188626 93.228515 
L 280.285463 87.569901 
L 280.403021 87.569901 
L 280.403021 85.683696 
L 281.051174 85.683696 
L 281.108948 81.911287 
L 281.226879 81.911287 
L 281.249769 78.138878 
L 281.433709 78.138878 
L 281.433709 76.252673 
L 281.598517 76.252673 
L 281.598809 72.480264 
L 281.975531 72.480264 
L 281.975531 70.594059 
L 282.430068 70.594059 
L 282.430068 68.707855 
L 283.164082 68.707855 
L 283.164082 66.82165 
L 284.115064 66.82165 
L 284.115064 64.935446 
L 355.667103 64.935446 
L 355.756493 61.163036 
L 357.321511 61.163036 
L 357.321511 59.276832 
L 359.322997 59.276832 
L 359.322997 57.390627 
L 359.451664 57.390627 
L 359.451664 55.504422 
L 360.011554 55.504422 
L 360.011554 53.618218 
L 360.679195 53.618218 
L 360.679195 51.732013 
L 361.576549 51.732013 
L 361.679475 47.959604 
L 362.555821 47.959604 
L 362.555821 46.073399 
L 362.680334 46.073399 
L 362.680334 44.187195 
L 363.415305 44.187195 
L 363.454794 40.414785 
L 363.833145 40.414785 
L 363.833145 38.528581 
L 364.02067 38.528581 
L 364.02067 36.642376 
L 364.152358 36.642376 
L 364.152358 34.756172 
L 364.442909 34.756172 
L 364.509675 30.983762 
L 364.755764 30.983762 
L 364.755764 29.097558 
L 365.568634 29.097558 
L 365.626077 25.325149 
L 366.114121 25.325149 
L 366.114121 23.438944 
L 366.330082 23.438944 
L 366.330082 21.552739 
L 369.075217 21.552739 
L 369.075217 19.666535 
L 369.285374 19.666535 
L 369.285374 17.78033 
L 369.4554 17.78033 
L 369.4554 15.894125 
L 369.794988 15.894125 
L 369.794988 14.007921 
L 370.405106 14.007921 
L 370.405106 12.121716 
L 371.308549 12.121716 
L 371.308549 10.235512 
L 373.59703 10.235512 
L 373.59703 8.349307 
L 373.59703 8.349307 
L 450.672 8.349307 
L 450.672 8.349307 
" style="fill:none;stroke:#00bfbf;stroke-linecap:square;stroke-width:1.5;"/>
   </g>
   <g id="line2d_28">
    <path clip-path="url(#p4165414734)" d="M 237.967385 291.28 
L 237.967385 289.393795 
L 239.527201 289.393795 
L 239.527201 287.507591 
L 244.350193 287.507591 
L 244.350193 285.621386 
L 244.981994 285.621386 
L 244.981994 283.735182 
L 245.907385 283.735182 
L 245.907385 281.848977 
L 246.073556 281.848977 
L 246.073556 279.962772 
L 246.232532 279.962772 
L 246.232532 278.076568 
L 246.373194 278.076568 
L 246.373194 276.190363 
L 247.106228 276.190363 
L 247.106228 274.304158 
L 247.954497 274.304158 
L 247.954497 272.417954 
L 248.203856 272.417954 
L 248.230749 268.645545 
L 248.385515 268.645545 
L 248.472265 264.873135 
L 249.790224 264.873135 
L 249.790224 262.986931 
L 256.006648 262.986931 
L 256.006648 261.100726 
L 256.775973 261.100726 
L 256.775973 259.214521 
L 257.298691 259.214521 
L 257.298691 257.328317 
L 257.767581 257.328317 
L 257.767581 255.442112 
L 257.997886 255.442112 
L 258.055734 251.669703 
L 259.368615 251.669703 
L 259.383694 247.897294 
L 260.070015 247.897294 
L 260.101727 244.124884 
L 260.731629 244.124884 
L 260.785187 238.466271 
L 261.037102 238.466271 
L 261.037102 236.580066 
L 261.868879 236.580066 
L 261.868879 234.693861 
L 263.607703 234.693861 
L 263.607703 232.807657 
L 264.535114 232.807657 
L 264.535114 230.921452 
L 265.563087 230.921452 
L 265.563087 229.035248 
L 265.856258 229.035248 
L 265.856258 227.149043 
L 266.280703 227.149043 
L 266.280703 225.262838 
L 266.662559 225.262838 
L 266.748803 221.490429 
L 266.867823 221.490429 
L 266.96627 217.71802 
L 267.028367 217.71802 
L 267.133736 213.945611 
L 267.160841 213.945611 
L 267.244659 210.173201 
L 267.313798 210.173201 
L 267.414429 206.400792 
L 267.466866 206.400792 
L 267.468666 202.628383 
L 267.592183 202.628383 
L 267.693053 195.083564 
L 267.751719 195.083564 
L 267.85871 183.766337 
L 267.880092 183.766337 
L 267.962299 174.335314 
L 268.043454 174.335314 
L 268.142552 164.90429 
L 268.341303 164.90429 
L 268.436498 159.245677 
L 268.604077 159.245677 
L 268.604077 157.359472 
L 269.011569 157.359472 
L 269.011569 155.473267 
L 269.147383 155.473267 
L 269.160537 151.700858 
L 269.379609 151.700858 
L 269.379609 149.814653 
L 269.907823 149.814653 
L 269.909726 146.042244 
L 270.157962 146.042244 
L 270.157962 144.15604 
L 270.590259 144.15604 
L 270.590259 142.269835 
L 270.969924 142.269835 
L 270.969924 140.38363 
L 271.122124 140.38363 
L 271.122124 138.497426 
L 271.574286 138.497426 
L 271.574286 136.611221 
L 272.041366 136.611221 
L 272.041366 134.725017 
L 272.987066 134.725017 
L 272.987066 132.838812 
L 273.171727 132.838812 
L 273.171727 130.952607 
L 273.493219 130.952607 
L 273.493355 127.180198 
L 273.866721 127.180198 
L 273.866721 125.293993 
L 274.124895 125.293993 
L 274.124895 123.407789 
L 274.447929 123.407789 
L 274.447929 121.521584 
L 275.19343 121.521584 
L 275.19343 119.63538 
L 275.40892 119.63538 
L 275.40892 117.749175 
L 275.768772 117.749175 
L 275.768772 115.86297 
L 276.475002 115.86297 
L 276.475002 113.976766 
L 277.020663 113.976766 
L 277.020663 112.090561 
L 278.005284 112.090561 
L 278.005284 110.204356 
L 278.170635 110.204356 
L 278.170635 108.318152 
L 278.47492 108.318152 
L 278.573216 104.545743 
L 278.799577 104.545743 
L 278.870322 95.114719 
L 279.091136 95.114719 
L 279.091136 93.228515 
L 280.188626 93.228515 
L 280.285463 87.569901 
L 280.403021 87.569901 
L 280.403021 85.683696 
L 281.051174 85.683696 
L 281.108948 81.911287 
L 281.226879 81.911287 
L 281.249769 78.138878 
L 281.433709 78.138878 
L 281.433709 76.252673 
L 281.598517 76.252673 
L 281.598809 72.480264 
L 281.975531 72.480264 
L 281.975531 70.594059 
L 282.430068 70.594059 
L 282.430068 68.707855 
L 283.164082 68.707855 
L 283.164082 66.82165 
L 284.115064 66.82165 
L 284.115064 64.935446 
L 327.387694 64.935446 
L 327.387694 63.049241 
L 335.018011 63.049241 
L 335.018011 61.163036 
L 337.234291 61.163036 
L 337.234291 59.276832 
L 340.176454 59.276832 
L 340.176454 57.390627 
L 344.041847 57.390627 
L 344.041847 55.504422 
L 346.16143 55.504422 
L 346.16143 53.618218 
L 349.202936 53.618218 
L 349.202936 51.732013 
L 349.730734 51.732013 
L 349.730734 49.845809 
L 351.561298 49.845809 
L 351.561298 47.959604 
L 355.363743 47.959604 
L 355.454867 44.187195 
L 355.628723 44.187195 
L 355.628723 42.30099 
L 356.455962 42.30099 
L 356.455962 40.414785 
L 359.372214 40.414785 
L 359.372214 38.528581 
L 360.011554 38.528581 
L 360.011554 36.642376 
L 361.576549 36.642376 
L 361.576549 34.756172 
L 362.555821 34.756172 
L 362.555821 32.869967 
L 363.454794 32.869967 
L 363.454794 30.983762 
L 364.152358 30.983762 
L 364.152358 29.097558 
L 364.442909 29.097558 
L 364.442909 27.211353 
L 364.755764 27.211353 
L 364.755764 25.325149 
L 365.321896 25.325149 
L 365.321896 23.438944 
L 366.330082 23.438944 
L 366.330082 21.552739 
L 369.075217 21.552739 
L 369.075217 19.666535 
L 369.285374 19.666535 
L 369.285374 17.78033 
L 369.4554 17.78033 
L 369.4554 15.894125 
L 369.794988 15.894125 
L 369.794988 14.007921 
L 370.405106 14.007921 
L 370.405106 12.121716 
L 371.308549 12.121716 
L 371.308549 10.235512 
L 373.59703 10.235512 
L 373.59703 8.349307 
L 373.59703 8.349307 
L 450.672 8.349307 
L 450.672 8.349307 
" style="fill:none;stroke:#bf00bf;stroke-linecap:square;stroke-width:1.5;"/>
   </g>
   <g id="line2d_29">
    <path clip-path="url(#p4165414734)" d="M 236.841784 291.28 
L 236.841784 289.393795 
L 238.500848 289.393795 
L 238.500848 287.507591 
L 243.548542 287.507591 
L 243.548542 285.621386 
L 244.176219 285.621386 
L 244.176219 283.735182 
L 245.148147 283.735182 
L 245.148147 281.848977 
L 245.331519 281.848977 
L 245.331519 279.962772 
L 245.481284 279.962772 
L 245.481284 278.076568 
L 245.646476 278.076568 
L 245.646476 276.190363 
L 246.407452 276.190363 
L 246.407452 274.304158 
L 247.261115 274.304158 
L 247.261115 272.417954 
L 247.5241 272.417954 
L 247.575468 268.645545 
L 247.714739 268.645545 
L 247.807963 264.873135 
L 249.159113 264.873135 
L 249.159113 262.986931 
L 256.006648 262.986931 
L 256.006648 261.100726 
L 256.775973 261.100726 
L 256.775973 259.214521 
L 257.298691 259.214521 
L 257.298691 257.328317 
L 257.767581 257.328317 
L 257.767581 255.442112 
L 257.997886 255.442112 
L 258.055734 251.669703 
L 259.368615 251.669703 
L 259.383694 247.897294 
L 260.070015 247.897294 
L 260.125366 242.23868 
L 260.731629 242.23868 
L 260.785187 234.693861 
L 261.037102 234.693861 
L 261.037102 232.807657 
L 261.868879 232.807657 
L 261.868879 230.921452 
L 263.739766 230.921452 
L 263.739766 229.035248 
L 263.917989 229.035248 
L 263.917989 227.149043 
L 264.253914 227.149043 
L 264.253914 225.262838 
L 265.11132 225.262838 
L 265.11132 223.376634 
L 265.430823 223.376634 
L 265.430823 221.490429 
L 265.563087 221.490429 
L 265.586252 217.71802 
L 265.816471 217.71802 
L 265.901862 210.173201 
L 265.984429 210.173201 
L 266.068268 206.400792 
L 266.502276 206.400792 
L 266.502276 204.514587 
L 266.66351 204.514587 
L 266.66351 202.628383 
L 266.80992 202.628383 
L 266.80992 200.742178 
L 266.961441 200.742178 
L 267.028367 193.19736 
L 267.133736 193.19736 
L 267.244659 189.42495 
L 267.275462 189.42495 
L 267.275462 187.538746 
L 267.401465 187.538746 
L 267.505187 174.335314 
L 267.561545 174.335314 
L 267.650809 166.790495 
L 267.675398 166.790495 
L 267.743062 161.131881 
L 267.858472 161.131881 
L 267.967236 153.587063 
L 268.008567 153.587063 
L 268.077197 147.928449 
L 268.133967 147.928449 
L 268.153356 142.269835 
L 268.388952 142.269835 
L 268.388952 140.38363 
L 268.604077 140.38363 
L 268.604077 138.497426 
L 270.124704 138.497426 
L 270.124704 136.611221 
L 270.561646 136.611221 
L 270.561646 134.725017 
L 270.953308 134.725017 
L 270.953308 132.838812 
L 271.63044 132.838812 
L 271.63044 130.952607 
L 271.7734 130.952607 
L 271.7734 129.066403 
L 271.937878 129.066403 
L 271.937878 127.180198 
L 272.572748 127.180198 
L 272.677474 123.407789 
L 273.987996 123.407789 
L 273.987996 121.521584 
L 274.447929 121.521584 
L 274.447929 119.63538 
L 275.19343 119.63538 
L 275.19343 117.749175 
L 275.40892 117.749175 
L 275.40892 115.86297 
L 276.475002 115.86297 
L 276.475002 113.976766 
L 277.020663 113.976766 
L 277.020663 112.090561 
L 278.005284 112.090561 
L 278.005284 110.204356 
L 278.170635 110.204356 
L 278.170635 108.318152 
L 278.47492 108.318152 
L 278.573216 104.545743 
L 278.799577 104.545743 
L 278.870322 95.114719 
L 279.091136 95.114719 
L 279.091136 93.228515 
L 280.188626 93.228515 
L 280.285463 87.569901 
L 280.403021 87.569901 
L 280.403021 85.683696 
L 281.051174 85.683696 
L 281.108948 81.911287 
L 281.226879 81.911287 
L 281.249769 78.138878 
L 281.433709 78.138878 
L 281.433709 76.252673 
L 281.598517 76.252673 
L 281.598809 72.480264 
L 281.975531 72.480264 
L 281.975531 70.594059 
L 282.430068 70.594059 
L 282.430068 68.707855 
L 283.164082 68.707855 
L 283.164082 66.82165 
L 284.115064 66.82165 
L 284.115064 64.935446 
L 319.249244 64.935446 
L 319.249244 63.049241 
L 329.877212 63.049241 
L 329.877212 61.163036 
L 334.998771 61.163036 
L 334.998771 59.276832 
L 337.646065 59.276832 
L 337.646065 57.390627 
L 340.222683 57.390627 
L 340.222683 55.504422 
L 342.211872 55.504422 
L 342.211872 53.618218 
L 346.688714 53.618218 
L 346.688714 51.732013 
L 347.592298 51.732013 
L 347.592298 49.845809 
L 349.145919 49.845809 
L 349.145919 47.959604 
L 353.339811 47.959604 
L 353.339811 46.073399 
L 353.638936 46.073399 
L 353.638936 44.187195 
L 354.275338 44.187195 
L 354.275338 42.30099 
L 355.202821 42.30099 
L 355.202821 40.414785 
L 358.558884 40.414785 
L 358.558884 38.528581 
L 360.011554 38.528581 
L 360.011554 36.642376 
L 361.576549 36.642376 
L 361.576549 34.756172 
L 362.555821 34.756172 
L 362.555821 32.869967 
L 362.918427 32.869967 
L 362.918427 30.983762 
L 363.454794 30.983762 
L 363.454794 29.097558 
L 364.152358 29.097558 
L 364.152358 27.211353 
L 364.442909 27.211353 
L 364.442909 25.325149 
L 364.755764 25.325149 
L 364.755764 23.438944 
L 366.330082 23.438944 
L 366.330082 21.552739 
L 369.075217 21.552739 
L 369.075217 19.666535 
L 369.285374 19.666535 
L 369.285374 17.78033 
L 369.4554 17.78033 
L 369.4554 15.894125 
L 369.794988 15.894125 
L 369.794988 14.007921 
L 370.405106 14.007921 
L 370.405106 12.121716 
L 371.308549 12.121716 
L 371.308549 10.235512 
L 373.59703 10.235512 
L 373.59703 8.349307 
L 373.59703 8.349307 
L 450.672 8.349307 
L 450.672 8.349307 
" style="fill:none;stroke:#000000;stroke-linecap:square;stroke-width:1.5;"/>
   </g>
   <g id="patch_3">
    <path d="M 5.52 291.28 
L 5.52 5.52 
" style="fill:none;stroke:#000000;stroke-linecap:square;stroke-linejoin:miter;stroke-width:0.8;"/>
   </g>
   <g id="patch_4">
    <path d="M 450.672 291.28 
L 450.672 5.52 
" style="fill:none;stroke:#000000;stroke-linecap:square;stroke-linejoin:miter;stroke-width:0.8;"/>
   </g>
   <g id="patch_5">
    <path d="M 5.52 291.28 
L 450.672 291.28 
" style="fill:none;stroke:#000000;stroke-linecap:square;stroke-linejoin:miter;stroke-width:0.8;"/>
   </g>
   <g id="patch_6">
    <path d="M 5.52 5.52 
L 450.672 5.52 
" style="fill:none;stroke:#000000;stroke-linecap:square;stroke-linejoin:miter;stroke-width:0.8;"/>
   </g>
   <g id="text_6">
    <!-- {f1-f5}, 20-D -->
    <defs>
     <path d="M 51.125 -9.28125 
L 51.125 -16.3125 
L 48.09375 -16.3125 
Q 35.9375 -16.3125 31.8125 -12.6875 
Q 27.6875 -9.078125 27.6875 1.703125 
L 27.6875 13.375 
Q 27.6875 20.75 25.046875 23.578125 
Q 22.40625 26.421875 15.484375 26.421875 
L 12.5 26.421875 
L 12.5 33.40625 
L 15.484375 33.40625 
Q 22.46875 33.40625 25.078125 36.203125 
Q 27.6875 39.015625 27.6875 46.296875 
L 27.6875 58.015625 
Q 27.6875 68.796875 31.8125 72.390625 
Q 35.9375 75.984375 48.09375 75.984375 
L 51.125 75.984375 
L 51.125 69 
L 47.796875 69 
Q 40.921875 69 38.8125 66.84375 
Q 36.71875 64.703125 36.71875 57.8125 
L 36.71875 45.703125 
Q 36.71875 38.03125 34.5 34.5625 
Q 32.28125 31.109375 26.90625 29.890625 
Q 32.328125 28.5625 34.515625 25.09375 
Q 36.71875 21.625 36.71875 14.015625 
L 36.71875 1.90625 
Q 36.71875 -4.984375 38.8125 -7.125 
Q 40.921875 -9.28125 47.796875 -9.28125 
z
" id="DejaVuSans-7b"/>
     <path d="M 10.796875 72.90625 
L 49.515625 72.90625 
L 49.515625 64.59375 
L 19.828125 64.59375 
L 19.828125 46.734375 
Q 21.96875 47.46875 24.109375 47.828125 
Q 26.265625 48.1875 28.421875 48.1875 
Q 40.625 48.1875 47.75 41.5 
Q 54.890625 34.8125 54.890625 23.390625 
Q 54.890625 11.625 47.5625 5.09375 
Q 40.234375 -1.421875 26.90625 -1.421875 
Q 22.3125 -1.421875 17.546875 -0.640625 
Q 12.796875 0.140625 7.71875 1.703125 
L 7.71875 11.625 
Q 12.109375 9.234375 16.796875 8.0625 
Q 21.484375 6.890625 26.703125 6.890625 
Q 35.15625 6.890625 40.078125 11.328125 
Q 45.015625 15.765625 45.015625 23.390625 
Q 45.015625 31 40.078125 35.4375 
Q 35.15625 39.890625 26.703125 39.890625 
Q 22.75 39.890625 18.8125 39.015625 
Q 14.890625 38.140625 10.796875 36.28125 
z
" id="DejaVuSans-35"/>
     <path d="M 12.5 -9.28125 
L 15.921875 -9.28125 
Q 22.75 -9.28125 24.828125 -7.171875 
Q 26.90625 -5.078125 26.90625 1.90625 
L 26.90625 14.015625 
Q 26.90625 21.625 29.09375 25.09375 
Q 31.296875 28.5625 36.71875 29.890625 
Q 31.296875 31.109375 29.09375 34.5625 
Q 26.90625 38.03125 26.90625 45.703125 
L 26.90625 57.8125 
Q 26.90625 64.75 24.828125 66.875 
Q 22.75 69 15.921875 69 
L 12.5 69 
L 12.5 75.984375 
L 15.578125 75.984375 
Q 27.734375 75.984375 31.8125 72.390625 
Q 35.890625 68.796875 35.890625 58.015625 
L 35.890625 46.296875 
Q 35.890625 39.015625 38.515625 36.203125 
Q 41.15625 33.40625 48.09375 33.40625 
L 51.125 33.40625 
L 51.125 26.421875 
L 48.09375 26.421875 
Q 41.15625 26.421875 38.515625 23.578125 
Q 35.890625 20.75 35.890625 13.375 
L 35.890625 1.703125 
Q 35.890625 -9.078125 31.8125 -12.6875 
Q 27.734375 -16.3125 15.578125 -16.3125 
L 12.5 -16.3125 
z
" id="DejaVuSans-7d"/>
     <path d="M 11.71875 12.40625 
L 22.015625 12.40625 
L 22.015625 4 
L 14.015625 -11.625 
L 7.71875 -11.625 
L 11.71875 4 
z
" id="DejaVuSans-2c"/>
     <path d="M 19.1875 8.296875 
L 53.609375 8.296875 
L 53.609375 0 
L 7.328125 0 
L 7.328125 8.296875 
Q 12.9375 14.109375 22.625 23.890625 
Q 32.328125 33.6875 34.8125 36.53125 
Q 39.546875 41.84375 41.421875 45.53125 
Q 43.3125 49.21875 43.3125 52.78125 
Q 43.3125 58.59375 39.234375 62.25 
Q 35.15625 65.921875 28.609375 65.921875 
Q 23.96875 65.921875 18.8125 64.3125 
Q 13.671875 62.703125 7.8125 59.421875 
L 7.8125 69.390625 
Q 13.765625 71.78125 18.9375 73 
Q 24.125 74.21875 28.421875 74.21875 
Q 39.75 74.21875 46.484375 68.546875 
Q 53.21875 62.890625 53.21875 53.421875 
Q 53.21875 48.921875 51.53125 44.890625 
Q 49.859375 40.875 45.40625 35.40625 
Q 44.1875 33.984375 37.640625 27.21875 
Q 31.109375 20.453125 19.1875 8.296875 
z
" id="DejaVuSans-32"/>
    </defs>
    <g transform="translate(308.79396 285.5648)scale(0.2 -0.2)">
     <use xlink:href="#DejaVuSans-7b"/>
     <use x="63.623047" xlink:href="#DejaVuSans-66"/>
     <use x="98.828125" xlink:href="#DejaVuSans-31"/>
     <use x="162.451172" xlink:href="#DejaVuSans-2d"/>
     <use x="198.535156" xlink:href="#DejaVuSans-66"/>
     <use x="233.740234" xlink:href="#DejaVuSans-35"/>
     <use x="297.363281" xlink:href="#DejaVuSans-7d"/>
     <use x="360.986328" xlink:href="#DejaVuSans-2c"/>
     <use x="392.773438" xlink:href="#DejaVuSans-20"/>
     <use x="424.560547" xlink:href="#DejaVuSans-32"/>
     <use x="488.183594" xlink:href="#DejaVuSans-30"/>
     <use x="551.806641" xlink:href="#DejaVuSans-2d"/>
     <use x="587.890625" xlink:href="#DejaVuSans-44"/>
    </g>
   </g>
   <g id="text_7">
    <!-- v2.2.1.10 -->
    <defs>
     <path d="M 2.984375 54.6875 
L 12.5 54.6875 
L 29.59375 8.796875 
L 46.6875 54.6875 
L 56.203125 54.6875 
L 35.6875 0 
L 23.484375 0 
z
" id="DejaVuSans-76"/>
     <path d="M 10.6875 12.40625 
L 21 12.40625 
L 21 0 
L 10.6875 0 
z
" id="DejaVuSans-2e"/>
    </defs>
    <g style="fill:#808080;" transform="translate(204.463188 286.342713)scale(0.1 -0.1)">
     <use xlink:href="#DejaVuSans-76"/>
     <use x="59.179688" xlink:href="#DejaVuSans-32"/>
     <use x="122.802734" xlink:href="#DejaVuSans-2e"/>
     <use x="154.589844" xlink:href="#DejaVuSans-32"/>
     <use x="218.212891" xlink:href="#DejaVuSans-2e"/>
     <use x="250" xlink:href="#DejaVuSans-31"/>
     <use x="313.623047" xlink:href="#DejaVuSans-2e"/>
     <use x="345.410156" xlink:href="#DejaVuSans-31"/>
     <use x="409.033203" xlink:href="#DejaVuSans-30"/>
    </g>
   </g>
  </g>
 </g>
 <defs>
  <clipPath id="p4165414734">
   <rect height="285.76" width="445.152" x="5.52" y="5.52"/>
  </clipPath>
 </defs>
</svg>
