<?xml version="1.0" encoding="utf-8" standalone="no"?>
<!DOCTYPE svg PUBLIC "-//W3C//DTD SVG 1.1//EN"
  "http://www.w3.org/Graphics/SVG/1.1/DTD/svg11.dtd">
<!-- Created with matplotlib (http://matplotlib.org/) -->
<svg height="345.6pt" version="1.1" viewBox="0 0 460.8 345.6" width="460.8pt" xmlns="http://www.w3.org/2000/svg" xmlns:xlink="http://www.w3.org/1999/xlink">
 <defs>
  <style type="text/css">
*{stroke-linecap:butt;stroke-linejoin:round;}
  </style>
 </defs>
 <g id="figure_1">
  <g id="patch_1">
   <path d="M 0 345.6 
L 460.8 345.6 
L 460.8 0 
L 0 0 
z
" style="fill:#ffffff;"/>
  </g>
  <g id="axes_1">
   <g id="patch_2">
    <path d="M 5.52 291.28 
L 450.672 291.28 
L 450.672 5.52 
L 5.52 5.52 
z
" style="fill:#ffffff;"/>
   </g>
   <g id="matplotlib.axis_1">
    <g id="xtick_1">
     <g id="line2d_1">
      <path clip-path="url(#p7c81046cce)" d="M 5.410932 291.28 
L 5.410932 5.52 
" style="fill:none;stroke:#b0b0b0;stroke-linecap:square;stroke-width:0.8;"/>
     </g>
     <g id="line2d_2">
      <defs>
       <path d="M 0 0 
L 0 3.5 
" id="m1f565193d4" style="stroke:#000000;stroke-width:0.8;"/>
      </defs>
      <g>
       <use style="stroke:#000000;stroke-width:0.8;" x="5.410932" xlink:href="#m1f565193d4" y="291.28"/>
      </g>
     </g>
    </g>
    <g id="xtick_2">
     <g id="line2d_3">
      <path clip-path="url(#p7c81046cce)" d="M 106.367335 291.28 
L 106.367335 5.52 
" style="fill:none;stroke:#b0b0b0;stroke-linecap:square;stroke-width:0.8;"/>
     </g>
     <g id="line2d_4">
      <g>
       <use style="stroke:#000000;stroke-width:0.8;" x="106.367335" xlink:href="#m1f565193d4" y="291.28"/>
      </g>
     </g>
     <g id="text_1">
      <!-- -4 -->
      <defs>
       <path d="M 4.890625 31.390625 
L 31.203125 31.390625 
L 31.203125 23.390625 
L 4.890625 23.390625 
z
" id="DejaVuSans-2d"/>
       <path d="M 37.796875 64.3125 
L 12.890625 25.390625 
L 37.796875 25.390625 
z
M 35.203125 72.90625 
L 47.609375 72.90625 
L 47.609375 25.390625 
L 58.015625 25.390625 
L 58.015625 17.1875 
L 47.609375 17.1875 
L 47.609375 0 
L 37.796875 0 
L 37.796875 17.1875 
L 4.890625 17.1875 
L 4.890625 26.703125 
z
" id="DejaVuSans-34"/>
      </defs>
      <g transform="translate(96.397023 313.476875)scale(0.2 -0.2)">
       <use xlink:href="#DejaVuSans-2d"/>
       <use x="36.083984" xlink:href="#DejaVuSans-34"/>
      </g>
     </g>
    </g>
    <g id="xtick_3">
     <g id="line2d_5">
      <path clip-path="url(#p7c81046cce)" d="M 207.323738 291.28 
L 207.323738 5.52 
" style="fill:none;stroke:#b0b0b0;stroke-linecap:square;stroke-width:0.8;"/>
     </g>
     <g id="line2d_6">
      <g>
       <use style="stroke:#000000;stroke-width:0.8;" x="207.323738" xlink:href="#m1f565193d4" y="291.28"/>
      </g>
     </g>
     <g id="text_2">
      <!-- 0 -->
      <defs>
       <path d="M 31.78125 66.40625 
Q 24.171875 66.40625 20.328125 58.90625 
Q 16.5 51.421875 16.5 36.375 
Q 16.5 21.390625 20.328125 13.890625 
Q 24.171875 6.390625 31.78125 6.390625 
Q 39.453125 6.390625 43.28125 13.890625 
Q 47.125 21.390625 47.125 36.375 
Q 47.125 51.421875 43.28125 58.90625 
Q 39.453125 66.40625 31.78125 66.40625 
z
M 31.78125 74.21875 
Q 44.046875 74.21875 50.515625 64.515625 
Q 56.984375 54.828125 56.984375 36.375 
Q 56.984375 17.96875 50.515625 8.265625 
Q 44.046875 -1.421875 31.78125 -1.421875 
Q 19.53125 -1.421875 13.0625 8.265625 
Q 6.59375 17.96875 6.59375 36.375 
Q 6.59375 54.828125 13.0625 64.515625 
Q 19.53125 74.21875 31.78125 74.21875 
z
" id="DejaVuSans-30"/>
      </defs>
      <g transform="translate(200.961238 313.476875)scale(0.2 -0.2)">
       <use xlink:href="#DejaVuSans-30"/>
      </g>
     </g>
    </g>
    <g id="xtick_4">
     <g id="line2d_7">
      <path clip-path="url(#p7c81046cce)" d="M 308.280141 291.28 
L 308.280141 5.52 
" style="fill:none;stroke:#b0b0b0;stroke-linecap:square;stroke-width:0.8;"/>
     </g>
     <g id="line2d_8">
      <g>
       <use style="stroke:#000000;stroke-width:0.8;" x="308.280141" xlink:href="#m1f565193d4" y="291.28"/>
      </g>
     </g>
     <g id="text_3">
      <!-- 4 -->
      <g transform="translate(301.917641 313.476875)scale(0.2 -0.2)">
       <use xlink:href="#DejaVuSans-34"/>
      </g>
     </g>
    </g>
    <g id="xtick_5">
     <g id="line2d_9">
      <path clip-path="url(#p7c81046cce)" d="M 409.236544 291.28 
L 409.236544 5.52 
" style="fill:none;stroke:#b0b0b0;stroke-linecap:square;stroke-width:0.8;"/>
     </g>
     <g id="line2d_10">
      <g>
       <use style="stroke:#000000;stroke-width:0.8;" x="409.236544" xlink:href="#m1f565193d4" y="291.28"/>
      </g>
     </g>
     <g id="text_4">
      <!-- 8 -->
      <defs>
       <path d="M 31.78125 34.625 
Q 24.75 34.625 20.71875 30.859375 
Q 16.703125 27.09375 16.703125 20.515625 
Q 16.703125 13.921875 20.71875 10.15625 
Q 24.75 6.390625 31.78125 6.390625 
Q 38.8125 6.390625 42.859375 10.171875 
Q 46.921875 13.96875 46.921875 20.515625 
Q 46.921875 27.09375 42.890625 30.859375 
Q 38.875 34.625 31.78125 34.625 
z
M 21.921875 38.8125 
Q 15.578125 40.375 12.03125 44.71875 
Q 8.5 49.078125 8.5 55.328125 
Q 8.5 64.0625 14.71875 69.140625 
Q 20.953125 74.21875 31.78125 74.21875 
Q 42.671875 74.21875 48.875 69.140625 
Q 55.078125 64.0625 55.078125 55.328125 
Q 55.078125 49.078125 51.53125 44.71875 
Q 48 40.375 41.703125 38.8125 
Q 48.828125 37.15625 52.796875 32.3125 
Q 56.78125 27.484375 56.78125 20.515625 
Q 56.78125 9.90625 50.3125 4.234375 
Q 43.84375 -1.421875 31.78125 -1.421875 
Q 19.734375 -1.421875 13.25 4.234375 
Q 6.78125 9.90625 6.78125 20.515625 
Q 6.78125 27.484375 10.78125 32.3125 
Q 14.796875 37.15625 21.921875 38.8125 
z
M 18.3125 54.390625 
Q 18.3125 48.734375 21.84375 45.5625 
Q 25.390625 42.390625 31.78125 42.390625 
Q 38.140625 42.390625 41.71875 45.5625 
Q 45.3125 48.734375 45.3125 54.390625 
Q 45.3125 60.0625 41.71875 63.234375 
Q 38.140625 66.40625 31.78125 66.40625 
Q 25.390625 66.40625 21.84375 63.234375 
Q 18.3125 60.0625 18.3125 54.390625 
z
" id="DejaVuSans-38"/>
      </defs>
      <g transform="translate(402.874044 313.476875)scale(0.2 -0.2)">
       <use xlink:href="#DejaVuSans-38"/>
      </g>
     </g>
    </g>
    <g id="text_5">
     <!-- log10 of Df -->
     <defs>
      <path d="M 9.421875 75.984375 
L 18.40625 75.984375 
L 18.40625 0 
L 9.421875 0 
z
" id="DejaVuSans-6c"/>
      <path d="M 30.609375 48.390625 
Q 23.390625 48.390625 19.1875 42.75 
Q 14.984375 37.109375 14.984375 27.296875 
Q 14.984375 17.484375 19.15625 11.84375 
Q 23.34375 6.203125 30.609375 6.203125 
Q 37.796875 6.203125 41.984375 11.859375 
Q 46.1875 17.53125 46.1875 27.296875 
Q 46.1875 37.015625 41.984375 42.703125 
Q 37.796875 48.390625 30.609375 48.390625 
z
M 30.609375 56 
Q 42.328125 56 49.015625 48.375 
Q 55.71875 40.765625 55.71875 27.296875 
Q 55.71875 13.875 49.015625 6.21875 
Q 42.328125 -1.421875 30.609375 -1.421875 
Q 18.84375 -1.421875 12.171875 6.21875 
Q 5.515625 13.875 5.515625 27.296875 
Q 5.515625 40.765625 12.171875 48.375 
Q 18.84375 56 30.609375 56 
z
" id="DejaVuSans-6f"/>
      <path d="M 45.40625 27.984375 
Q 45.40625 37.75 41.375 43.109375 
Q 37.359375 48.484375 30.078125 48.484375 
Q 22.859375 48.484375 18.828125 43.109375 
Q 14.796875 37.75 14.796875 27.984375 
Q 14.796875 18.265625 18.828125 12.890625 
Q 22.859375 7.515625 30.078125 7.515625 
Q 37.359375 7.515625 41.375 12.890625 
Q 45.40625 18.265625 45.40625 27.984375 
z
M 54.390625 6.78125 
Q 54.390625 -7.171875 48.1875 -13.984375 
Q 42 -20.796875 29.203125 -20.796875 
Q 24.46875 -20.796875 20.265625 -20.09375 
Q 16.0625 -19.390625 12.109375 -17.921875 
L 12.109375 -9.1875 
Q 16.0625 -11.328125 19.921875 -12.34375 
Q 23.78125 -13.375 27.78125 -13.375 
Q 36.625 -13.375 41.015625 -8.765625 
Q 45.40625 -4.15625 45.40625 5.171875 
L 45.40625 9.625 
Q 42.625 4.78125 38.28125 2.390625 
Q 33.9375 0 27.875 0 
Q 17.828125 0 11.671875 7.65625 
Q 5.515625 15.328125 5.515625 27.984375 
Q 5.515625 40.671875 11.671875 48.328125 
Q 17.828125 56 27.875 56 
Q 33.9375 56 38.28125 53.609375 
Q 42.625 51.21875 45.40625 46.390625 
L 45.40625 54.6875 
L 54.390625 54.6875 
z
" id="DejaVuSans-67"/>
      <path d="M 12.40625 8.296875 
L 28.515625 8.296875 
L 28.515625 63.921875 
L 10.984375 60.40625 
L 10.984375 69.390625 
L 28.421875 72.90625 
L 38.28125 72.90625 
L 38.28125 8.296875 
L 54.390625 8.296875 
L 54.390625 0 
L 12.40625 0 
z
" id="DejaVuSans-31"/>
      <path id="DejaVuSans-20"/>
      <path d="M 37.109375 75.984375 
L 37.109375 68.5 
L 28.515625 68.5 
Q 23.6875 68.5 21.796875 66.546875 
Q 19.921875 64.59375 19.921875 59.515625 
L 19.921875 54.6875 
L 34.71875 54.6875 
L 34.71875 47.703125 
L 19.921875 47.703125 
L 19.921875 0 
L 10.890625 0 
L 10.890625 47.703125 
L 2.296875 47.703125 
L 2.296875 54.6875 
L 10.890625 54.6875 
L 10.890625 58.5 
Q 10.890625 67.625 15.140625 71.796875 
Q 19.390625 75.984375 28.609375 75.984375 
z
" id="DejaVuSans-66"/>
      <path d="M 19.671875 64.796875 
L 19.671875 8.109375 
L 31.59375 8.109375 
Q 46.6875 8.109375 53.6875 14.9375 
Q 60.6875 21.78125 60.6875 36.53125 
Q 60.6875 51.171875 53.6875 57.984375 
Q 46.6875 64.796875 31.59375 64.796875 
z
M 9.8125 72.90625 
L 30.078125 72.90625 
Q 51.265625 72.90625 61.171875 64.09375 
Q 71.09375 55.28125 71.09375 36.53125 
Q 71.09375 17.671875 61.125 8.828125 
Q 51.171875 0 30.078125 0 
L 9.8125 0 
z
" id="DejaVuSans-44"/>
     </defs>
     <g transform="translate(172.910063 336.833125)scale(0.2 -0.2)">
      <use xlink:href="#DejaVuSans-6c"/>
      <use x="27.783203" xlink:href="#DejaVuSans-6f"/>
      <use x="88.964844" xlink:href="#DejaVuSans-67"/>
      <use x="152.441406" xlink:href="#DejaVuSans-31"/>
      <use x="216.064453" xlink:href="#DejaVuSans-30"/>
      <use x="279.6875" xlink:href="#DejaVuSans-20"/>
      <use x="311.474609" xlink:href="#DejaVuSans-6f"/>
      <use x="372.65625" xlink:href="#DejaVuSans-66"/>
      <use x="407.861328" xlink:href="#DejaVuSans-20"/>
      <use x="439.648438" xlink:href="#DejaVuSans-44"/>
      <use x="516.650391" xlink:href="#DejaVuSans-66"/>
     </g>
    </g>
   </g>
   <g id="matplotlib.axis_2">
    <g id="ytick_1">
     <g id="line2d_11">
      <path clip-path="url(#p7c81046cce)" d="M 5.52 291.28 
L 450.672 291.28 
" style="fill:none;stroke:#b0b0b0;stroke-linecap:square;stroke-width:0.8;"/>
     </g>
     <g id="line2d_12">
      <defs>
       <path d="M 0 0 
L -3.5 0 
" id="m68ac8166dd" style="stroke:#000000;stroke-width:0.8;"/>
      </defs>
      <g>
       <use style="stroke:#000000;stroke-width:0.8;" x="5.52" xlink:href="#m68ac8166dd" y="291.28"/>
      </g>
     </g>
    </g>
    <g id="ytick_2">
     <g id="line2d_13">
      <path clip-path="url(#p7c81046cce)" d="M 5.52 234.693861 
L 450.672 234.693861 
" style="fill:none;stroke:#b0b0b0;stroke-linecap:square;stroke-width:0.8;"/>
     </g>
     <g id="line2d_14">
      <g>
       <use style="stroke:#000000;stroke-width:0.8;" x="5.52" xlink:href="#m68ac8166dd" y="234.693861"/>
      </g>
     </g>
    </g>
    <g id="ytick_3">
     <g id="line2d_15">
      <path clip-path="url(#p7c81046cce)" d="M 5.52 178.107723 
L 450.672 178.107723 
" style="fill:none;stroke:#b0b0b0;stroke-linecap:square;stroke-width:0.8;"/>
     </g>
     <g id="line2d_16">
      <g>
       <use style="stroke:#000000;stroke-width:0.8;" x="5.52" xlink:href="#m68ac8166dd" y="178.107723"/>
      </g>
     </g>
    </g>
    <g id="ytick_4">
     <g id="line2d_17">
      <path clip-path="url(#p7c81046cce)" d="M 5.52 121.521584 
L 450.672 121.521584 
" style="fill:none;stroke:#b0b0b0;stroke-linecap:square;stroke-width:0.8;"/>
     </g>
     <g id="line2d_18">
      <g>
       <use style="stroke:#000000;stroke-width:0.8;" x="5.52" xlink:href="#m68ac8166dd" y="121.521584"/>
      </g>
     </g>
    </g>
    <g id="ytick_5">
     <g id="line2d_19">
      <path clip-path="url(#p7c81046cce)" d="M 5.52 64.935446 
L 450.672 64.935446 
" style="fill:none;stroke:#b0b0b0;stroke-linecap:square;stroke-width:0.8;"/>
     </g>
     <g id="line2d_20">
      <g>
       <use style="stroke:#000000;stroke-width:0.8;" x="5.52" xlink:href="#m68ac8166dd" y="64.935446"/>
      </g>
     </g>
    </g>
    <g id="ytick_6">
     <g id="line2d_21">
      <path clip-path="url(#p7c81046cce)" d="M 5.52 8.349307 
L 450.672 8.349307 
" style="fill:none;stroke:#b0b0b0;stroke-linecap:square;stroke-width:0.8;"/>
     </g>
     <g id="line2d_22">
      <g>
       <use style="stroke:#000000;stroke-width:0.8;" x="5.52" xlink:href="#m68ac8166dd" y="8.349307"/>
      </g>
     </g>
    </g>
   </g>
   <g id="line2d_23">
    <path clip-path="url(#p7c81046cce)" d="M 201.08852 291.28 
L 201.08852 289.393795 
L 203.515453 289.393795 
L 203.515453 287.507591 
L 208.794459 287.507591 
L 208.794459 285.621386 
L 209.586551 285.621386 
L 209.586551 283.735182 
L 209.916328 283.735182 
L 209.916328 281.848977 
L 212.009541 281.848977 
L 212.009541 279.962772 
L 212.967938 279.962772 
L 212.967938 278.076568 
L 213.158945 278.076568 
L 213.239022 274.304158 
L 215.815209 274.304158 
L 215.815209 272.417954 
L 216.840207 272.417954 
L 216.840207 270.531749 
L 217.222414 270.531749 
L 217.222414 268.645545 
L 219.616942 268.645545 
L 219.616942 266.75934 
L 219.755494 266.75934 
L 219.755494 264.873135 
L 221.649992 264.873135 
L 221.649992 262.986931 
L 222.959557 262.986931 
L 222.959557 261.100726 
L 223.452993 261.100726 
L 223.452993 259.214521 
L 224.01509 259.214521 
L 224.034679 255.442112 
L 224.168352 255.442112 
L 224.168352 253.555908 
L 224.896653 253.555908 
L 224.896653 251.669703 
L 225.596911 251.669703 
L 225.596911 249.783498 
L 225.7261 249.783498 
L 225.7261 247.897294 
L 226.310162 247.897294 
L 226.310162 246.011089 
L 226.965862 246.011089 
L 226.965862 244.124884 
L 228.097573 244.124884 
L 228.097573 242.23868 
L 228.402681 242.23868 
L 228.402681 240.352475 
L 229.982889 240.352475 
L 229.982889 238.466271 
L 231.5102 238.466271 
L 231.5102 236.580066 
L 231.910912 236.580066 
L 231.910912 234.693861 
L 232.78314 234.693861 
L 232.78314 232.807657 
L 233.070174 232.807657 
L 233.070174 230.921452 
L 233.45875 230.921452 
L 233.45875 229.035248 
L 233.81946 229.035248 
L 233.81946 227.149043 
L 234.478951 227.149043 
L 234.478951 225.262838 
L 234.809251 225.262838 
L 234.809251 223.376634 
L 235.112244 223.376634 
L 235.134407 219.604224 
L 235.283492 219.604224 
L 235.283492 217.71802 
L 235.641292 217.71802 
L 235.641292 215.831815 
L 235.931002 215.831815 
L 236.011148 212.059406 
L 236.054482 212.059406 
L 236.054482 210.173201 
L 236.299848 210.173201 
L 236.299848 208.286997 
L 236.754374 208.286997 
L 236.754374 206.400792 
L 236.964723 206.400792 
L 237.042697 202.628383 
L 237.164289 202.628383 
L 237.194857 198.855974 
L 237.370066 198.855974 
L 237.370066 196.969769 
L 237.719115 196.969769 
L 237.719115 195.083564 
L 237.855586 195.083564 
L 237.945929 191.311155 
L 238.56525 191.311155 
L 238.611054 187.538746 
L 238.763466 187.538746 
L 238.763466 185.652541 
L 238.952399 185.652541 
L 238.952399 183.766337 
L 239.323543 183.766337 
L 239.323543 181.880132 
L 239.626645 181.880132 
L 239.626645 179.993927 
L 239.813501 179.993927 
L 239.910115 176.221518 
L 239.997304 176.221518 
L 239.997304 174.335314 
L 240.242518 174.335314 
L 240.242518 172.449109 
L 240.508944 172.449109 
L 240.508944 170.562904 
L 240.690189 170.562904 
L 240.785395 164.90429 
L 240.887191 164.90429 
L 240.984718 157.359472 
L 241.001785 157.359472 
L 241.001785 155.473267 
L 241.953162 155.473267 
L 241.953162 153.587063 
L 242.096603 153.587063 
L 242.096603 151.700858 
L 242.301955 151.700858 
L 242.301955 149.814653 
L 242.424058 149.814653 
L 242.424058 147.928449 
L 242.652959 147.928449 
L 242.652959 146.042244 
L 242.986945 146.042244 
L 242.986945 144.15604 
L 243.144614 144.15604 
L 243.250217 140.38363 
L 243.411558 140.38363 
L 243.411558 138.497426 
L 243.530918 138.497426 
L 243.617119 134.725017 
L 243.769665 134.725017 
L 243.769665 132.838812 
L 243.905541 132.838812 
L 243.905541 130.952607 
L 244.020773 130.952607 
L 244.059875 127.180198 
L 244.264594 127.180198 
L 244.264594 125.293993 
L 244.697156 125.293993 
L 244.804509 115.86297 
L 245.240535 115.86297 
L 245.240535 113.976766 
L 245.405027 113.976766 
L 245.470485 110.204356 
L 245.567345 110.204356 
L 245.573516 106.431947 
L 246.08193 106.431947 
L 246.139237 100.773333 
L 246.273915 100.773333 
L 246.273915 98.887129 
L 246.829121 98.887129 
L 246.867142 95.114719 
L 247.235614 95.114719 
L 247.235614 93.228515 
L 247.617148 93.228515 
L 247.668041 87.569901 
L 247.92267 87.569901 
L 247.92267 85.683696 
L 248.093328 85.683696 
L 248.093328 83.797492 
L 249.105962 83.797492 
L 249.105962 81.911287 
L 249.834818 81.911287 
L 249.834818 80.025083 
L 250.211928 80.025083 
L 250.257368 76.252673 
L 250.495419 76.252673 
L 250.495419 74.366469 
L 251.236723 74.366469 
L 251.236723 72.480264 
L 252.541366 72.480264 
L 252.580158 68.707855 
L 252.808032 68.707855 
L 252.808032 66.82165 
L 255.078448 66.82165 
L 255.078448 64.935446 
L 263.486519 64.935446 
L 263.57826 61.163036 
L 263.604063 61.163036 
L 263.604063 59.276832 
L 264.123279 59.276832 
L 264.139999 55.504422 
L 265.324336 55.504422 
L 265.324336 53.618218 
L 265.442146 53.618218 
L 265.442146 51.732013 
L 265.798445 51.732013 
L 265.852313 47.959604 
L 266.61438 47.959604 
L 266.61438 46.073399 
L 266.782186 46.073399 
L 266.782186 44.187195 
L 268.088826 44.187195 
L 268.088826 42.30099 
L 268.972087 42.30099 
L 268.972087 40.414785 
L 270.31281 40.414785 
L 270.31281 38.528581 
L 273.190718 38.528581 
L 273.190718 36.642376 
L 274.556609 36.642376 
L 274.556609 34.756172 
L 275.967155 34.756172 
L 275.967155 32.869967 
L 277.179971 32.869967 
L 277.195282 29.097558 
L 277.680984 29.097558 
L 277.751139 25.325149 
L 278.102978 25.325149 
L 278.195538 21.552739 
L 278.287381 21.552739 
L 278.32452 17.78033 
L 278.748521 17.78033 
L 278.748521 15.894125 
L 279.031094 15.894125 
L 279.043211 12.121716 
L 279.301094 12.121716 
L 279.392871 8.349307 
L 279.392871 8.349307 
L 450.672 8.349307 
L 450.672 8.349307 
" style="fill:none;stroke:#ff0000;stroke-linecap:square;stroke-width:3;"/>
   </g>
   <g id="line2d_24">
    <path clip-path="url(#p7c81046cce)" d="M 233.070174 291.28 
L 233.070174 289.393795 
L 235.205703 289.393795 
L 235.205703 287.507591 
L 235.827979 287.507591 
L 235.827979 285.621386 
L 236.211028 285.621386 
L 236.211028 283.735182 
L 236.626689 283.735182 
L 236.626689 281.848977 
L 237.39393 281.848977 
L 237.467058 278.076568 
L 237.534587 278.076568 
L 237.592009 274.304158 
L 237.66583 274.304158 
L 237.66583 272.417954 
L 237.871121 272.417954 
L 237.88992 268.645545 
L 238.03237 268.645545 
L 238.10741 264.873135 
L 238.144409 264.873135 
L 238.167627 261.100726 
L 238.337895 261.100726 
L 238.421387 253.555908 
L 238.552094 253.555908 
L 238.65866 247.897294 
L 238.68012 247.897294 
L 238.749437 244.124884 
L 239.18745 244.124884 
L 239.274 240.352475 
L 239.461716 240.352475 
L 239.492792 236.580066 
L 239.622888 236.580066 
L 239.622888 234.693861 
L 239.981854 234.693861 
L 239.993202 230.921452 
L 240.125309 230.921452 
L 240.230223 227.149043 
L 240.290549 227.149043 
L 240.335048 223.376634 
L 240.483949 223.376634 
L 240.536053 219.604224 
L 241.104306 219.604224 
L 241.148567 215.831815 
L 241.28041 215.831815 
L 241.281671 212.059406 
L 241.953162 212.059406 
L 242.046904 206.400792 
L 243.48242 206.400792 
L 243.592721 202.628383 
L 243.643561 202.628383 
L 243.645069 198.855974 
L 244.558835 198.855974 
L 244.558835 196.969769 
L 244.811985 196.969769 
L 244.85668 193.19736 
L 244.939959 193.19736 
L 244.939959 191.311155 
L 245.311023 191.311155 
L 245.311023 189.42495 
L 245.552437 189.42495 
L 245.552437 187.538746 
L 245.900504 187.538746 
L 245.900504 185.652541 
L 246.425832 185.652541 
L 246.425832 183.766337 
L 247.160926 183.766337 
L 247.160926 181.880132 
L 247.717451 181.880132 
L 247.731966 176.221518 
L 247.86242 176.221518 
L 247.86242 174.335314 
L 248.022973 174.335314 
L 248.022973 172.449109 
L 248.293604 172.449109 
L 248.400733 166.790495 
L 248.533154 166.790495 
L 248.577696 163.018086 
L 249.080387 163.018086 
L 249.149029 157.359472 
L 249.290256 157.359472 
L 249.290256 155.473267 
L 249.588748 155.473267 
L 249.588748 153.587063 
L 249.962448 153.587063 
L 249.962448 151.700858 
L 250.254746 151.700858 
L 250.307556 147.928449 
L 250.421134 147.928449 
L 250.517156 136.611221 
L 250.896127 136.611221 
L 250.941015 132.838812 
L 251.093325 132.838812 
L 251.161685 129.066403 
L 251.236723 129.066403 
L 251.293835 125.293993 
L 251.429046 125.293993 
L 251.462962 121.521584 
L 251.72288 121.521584 
L 251.755762 117.749175 
L 251.964336 117.749175 
L 252.040815 112.090561 
L 252.095252 112.090561 
L 252.095252 110.204356 
L 252.23164 110.204356 
L 252.313298 106.431947 
L 252.657355 106.431947 
L 252.657355 104.545743 
L 252.983437 104.545743 
L 252.983437 102.659538 
L 253.258494 102.659538 
L 253.316879 97.000924 
L 253.522918 97.000924 
L 253.522918 95.114719 
L 253.894078 95.114719 
L 253.956339 91.34231 
L 254.165031 91.34231 
L 254.239719 87.569901 
L 254.834043 87.569901 
L 254.834043 85.683696 
L 256.006045 85.683696 
L 256.006045 83.797492 
L 257.47433 83.797492 
L 257.54471 80.025083 
L 258.464905 80.025083 
L 258.471082 76.252673 
L 258.660115 76.252673 
L 258.660115 74.366469 
L 259.914765 74.366469 
L 259.914765 72.480264 
L 261.26917 72.480264 
L 261.26917 70.594059 
L 262.380488 70.594059 
L 262.380488 68.707855 
L 263.900903 68.707855 
L 263.900903 66.82165 
L 267.959767 66.82165 
L 267.959767 64.935446 
L 274.556609 64.935446 
L 274.556609 63.049241 
L 276.453151 63.049241 
L 276.453151 61.163036 
L 277.593316 61.163036 
L 277.593316 59.276832 
L 278.605145 59.276832 
L 278.605145 57.390627 
L 279.003108 57.390627 
L 279.003108 55.504422 
L 279.116353 55.504422 
L 279.166394 51.732013 
L 279.301094 51.732013 
L 279.392871 46.073399 
L 279.843836 46.073399 
L 279.843836 44.187195 
L 280.690118 44.187195 
L 280.690118 42.30099 
L 281.269385 42.30099 
L 281.269385 40.414785 
L 281.457659 40.414785 
L 281.457659 38.528581 
L 281.769405 38.528581 
L 281.769405 36.642376 
L 281.950871 36.642376 
L 282.025329 30.983762 
L 282.111697 30.983762 
L 282.111697 29.097558 
L 283.043819 29.097558 
L 283.043819 27.211353 
L 283.561757 27.211353 
L 283.624907 23.438944 
L 283.768164 23.438944 
L 283.768164 21.552739 
L 284.719754 21.552739 
L 284.719754 19.666535 
L 285.27186 19.666535 
L 285.27186 17.78033 
L 285.986861 17.78033 
L 285.986861 15.894125 
L 286.260728 15.894125 
L 286.260728 14.007921 
L 286.994973 14.007921 
L 286.994973 12.121716 
L 288.981861 12.121716 
L 288.986057 8.349307 
L 288.986057 8.349307 
L 450.672 8.349307 
L 450.672 8.349307 
" style="fill:none;stroke:#00bfbf;stroke-linecap:square;stroke-width:1.5;"/>
   </g>
   <g id="line2d_25">
    <path clip-path="url(#p7c81046cce)" d="M 233.070174 291.28 
L 233.070174 289.393795 
L 233.81946 289.393795 
L 233.81946 287.507591 
L 234.054833 287.507591 
L 234.054833 285.621386 
L 234.809251 285.621386 
L 234.809251 283.735182 
L 235.171602 283.735182 
L 235.205703 279.962772 
L 236.087353 279.962772 
L 236.087353 278.076568 
L 236.211028 278.076568 
L 236.268957 274.304158 
L 236.415384 274.304158 
L 236.457437 268.645545 
L 236.872282 268.645545 
L 236.872282 266.75934 
L 237.39393 266.75934 
L 237.39393 264.873135 
L 237.534587 264.873135 
L 237.561517 261.100726 
L 237.66583 261.100726 
L 237.66583 259.214521 
L 237.871121 259.214521 
L 237.88992 255.442112 
L 238.03237 255.442112 
L 238.10741 251.669703 
L 238.144409 251.669703 
L 238.167627 247.897294 
L 238.337895 247.897294 
L 238.413222 244.124884 
L 238.552094 244.124884 
L 238.606774 240.352475 
L 238.68012 240.352475 
L 238.749437 236.580066 
L 239.094317 236.580066 
L 239.18745 232.807657 
L 239.274 232.807657 
L 239.274 230.921452 
L 239.461716 230.921452 
L 239.552566 227.149043 
L 239.981854 227.149043 
L 239.993202 223.376634 
L 240.230223 223.376634 
L 240.335048 215.831815 
L 240.483949 215.831815 
L 240.483949 213.945611 
L 240.994185 213.945611 
L 241.104306 208.286997 
L 241.148567 208.286997 
L 241.148567 206.400792 
L 241.28041 206.400792 
L 241.28041 204.514587 
L 241.465166 204.514587 
L 241.465166 202.628383 
L 241.579305 202.628383 
L 241.579305 200.742178 
L 241.953162 200.742178 
L 241.953162 198.855974 
L 243.195044 198.855974 
L 243.195044 196.969769 
L 243.454977 196.969769 
L 243.48242 193.19736 
L 243.643561 193.19736 
L 243.645069 189.42495 
L 244.156916 189.42495 
L 244.156916 187.538746 
L 244.408904 187.538746 
L 244.408904 185.652541 
L 244.85668 185.652541 
L 244.85668 183.766337 
L 245.184956 183.766337 
L 245.290406 179.993927 
L 245.690302 179.993927 
L 245.719761 176.221518 
L 246.425832 176.221518 
L 246.425832 174.335314 
L 246.867142 174.335314 
L 246.867142 172.449109 
L 247.160926 172.449109 
L 247.258952 168.6767 
L 247.717451 168.6767 
L 247.731966 163.018086 
L 247.86242 163.018086 
L 247.86242 161.131881 
L 248.069182 161.131881 
L 248.069182 159.245677 
L 248.349692 159.245677 
L 248.394076 155.473267 
L 248.577696 155.473267 
L 248.577696 153.587063 
L 248.859686 153.587063 
L 248.859686 151.700858 
L 248.988429 151.700858 
L 249.080387 146.042244 
L 249.22626 146.042244 
L 249.294853 140.38363 
L 249.438561 140.38363 
L 249.536774 136.611221 
L 249.588748 136.611221 
L 249.696948 132.838812 
L 249.834406 132.838812 
L 249.934933 125.293993 
L 249.962448 125.293993 
L 250.037098 119.63538 
L 250.096381 119.63538 
L 250.096381 117.749175 
L 250.211928 117.749175 
L 250.307556 112.090561 
L 250.517156 112.090561 
L 250.568303 108.318152 
L 250.833459 108.318152 
L 250.896018 104.545743 
L 251.035376 104.545743 
L 251.109596 100.773333 
L 251.148221 100.773333 
L 251.236723 95.114719 
L 252.001178 95.114719 
L 252.03189 91.34231 
L 252.23164 91.34231 
L 252.295745 87.569901 
L 252.393223 87.569901 
L 252.393223 85.683696 
L 252.983437 85.683696 
L 252.983437 83.797492 
L 253.258494 83.797492 
L 253.258494 81.911287 
L 254.240526 81.911287 
L 254.240526 80.025083 
L 254.443267 80.025083 
L 254.443267 78.138878 
L 255.411401 78.138878 
L 255.411401 76.252673 
L 256.351731 76.252673 
L 256.351731 74.366469 
L 257.003457 74.366469 
L 257.003457 72.480264 
L 258.471082 72.480264 
L 258.492368 68.707855 
L 258.660115 68.707855 
L 258.660115 66.82165 
L 261.046351 66.82165 
L 261.046351 64.935446 
L 274.556609 64.935446 
L 274.594802 61.163036 
L 276.212247 61.163036 
L 276.212247 59.276832 
L 276.453151 59.276832 
L 276.506416 55.504422 
L 278.605145 55.504422 
L 278.605145 53.618218 
L 278.748521 53.618218 
L 278.748521 51.732013 
L 279.003108 51.732013 
L 279.043211 47.959604 
L 279.116353 47.959604 
L 279.187603 42.30099 
L 279.301094 42.30099 
L 279.392871 36.642376 
L 279.843836 36.642376 
L 279.843836 34.756172 
L 280.074219 34.756172 
L 280.074219 32.869967 
L 280.539482 32.869967 
L 280.539482 30.983762 
L 280.690118 30.983762 
L 280.690118 29.097558 
L 281.269385 29.097558 
L 281.294795 25.325149 
L 281.457659 25.325149 
L 281.457659 23.438944 
L 281.769405 23.438944 
L 281.838879 19.666535 
L 281.900476 19.666535 
L 281.950871 15.894125 
L 283.043819 15.894125 
L 283.043819 14.007921 
L 284.315309 14.007921 
L 284.315309 12.121716 
L 285.27186 12.121716 
L 285.27186 10.235512 
L 285.986861 10.235512 
L 285.986861 8.349307 
L 285.986861 8.349307 
L 450.672 8.349307 
L 450.672 8.349307 
" style="fill:none;stroke:#bf00bf;stroke-linecap:square;stroke-width:1.5;"/>
   </g>
   <g id="line2d_26">
    <path clip-path="url(#p7c81046cce)" d="M 231.674213 291.28 
L 231.674213 289.393795 
L 232.708594 289.393795 
L 232.78314 285.621386 
L 233.070174 285.621386 
L 233.070174 283.735182 
L 233.81946 283.735182 
L 233.81946 281.848977 
L 234.054833 281.848977 
L 234.054833 279.962772 
L 234.376177 279.962772 
L 234.376177 278.076568 
L 234.809251 278.076568 
L 234.809251 276.190363 
L 235.171602 276.190363 
L 235.205703 272.417954 
L 235.283492 272.417954 
L 235.283492 270.531749 
L 235.504459 270.531749 
L 235.504459 268.645545 
L 235.641292 268.645545 
L 235.641292 266.75934 
L 235.801059 266.75934 
L 235.801059 264.873135 
L 235.919193 264.873135 
L 235.919193 262.986931 
L 236.076965 262.986931 
L 236.076965 261.100726 
L 236.211028 261.100726 
L 236.211028 259.214521 
L 236.415384 259.214521 
L 236.526307 251.669703 
L 236.636536 251.669703 
L 236.636536 249.783498 
L 236.780357 249.783498 
L 236.872282 246.011089 
L 237.071308 246.011089 
L 237.171207 242.23868 
L 237.323271 242.23868 
L 237.323271 240.352475 
L 237.509482 240.352475 
L 237.561517 234.693861 
L 237.628857 234.693861 
L 237.647934 230.921452 
L 237.871121 230.921452 
L 237.88992 227.149043 
L 238.337895 227.149043 
L 238.413222 223.376634 
L 238.606774 223.376634 
L 238.627287 219.604224 
L 239.017199 219.604224 
L 239.017199 217.71802 
L 239.18745 217.71802 
L 239.262299 213.945611 
L 239.714988 213.945611 
L 239.714988 212.059406 
L 240.335048 212.059406 
L 240.335048 210.173201 
L 240.483949 210.173201 
L 240.483949 208.286997 
L 241.001785 208.286997 
L 241.079144 204.514587 
L 241.148567 204.514587 
L 241.148567 202.628383 
L 241.28041 202.628383 
L 241.285164 198.855974 
L 241.465166 198.855974 
L 241.465166 196.969769 
L 241.579305 196.969769 
L 241.579305 195.083564 
L 241.953162 195.083564 
L 241.953162 193.19736 
L 242.455941 193.19736 
L 242.455941 191.311155 
L 242.766833 191.311155 
L 242.875266 185.652541 
L 242.975456 185.652541 
L 242.986945 181.880132 
L 243.203002 181.880132 
L 243.203002 179.993927 
L 243.454977 179.993927 
L 243.454977 178.107723 
L 243.755446 178.107723 
L 243.755446 176.221518 
L 245.240535 176.221518 
L 245.331052 172.449109 
L 245.660668 172.449109 
L 245.719761 166.790495 
L 246.19326 166.790495 
L 246.19326 164.90429 
L 246.705629 164.90429 
L 246.705629 163.018086 
L 246.867142 163.018086 
L 246.867142 161.131881 
L 247.156958 161.131881 
L 247.258952 155.473267 
L 247.395877 155.473267 
L 247.473655 151.700858 
L 247.717451 151.700858 
L 247.731966 146.042244 
L 247.86242 146.042244 
L 247.86242 144.15604 
L 248.069182 144.15604 
L 248.069182 142.269835 
L 248.190049 142.269835 
L 248.229167 138.497426 
L 248.3742 138.497426 
L 248.394076 134.725017 
L 248.547156 134.725017 
L 248.605734 129.066403 
L 248.688247 129.066403 
L 248.688247 127.180198 
L 248.922994 127.180198 
L 249.026926 121.521584 
L 249.080387 121.521584 
L 249.080387 119.63538 
L 249.285783 119.63538 
L 249.391089 113.976766 
L 249.447339 113.976766 
L 249.536774 108.318152 
L 249.767706 108.318152 
L 249.878007 102.659538 
L 250.00722 102.659538 
L 250.00722 100.773333 
L 250.204369 100.773333 
L 250.307556 93.228515 
L 250.546698 93.228515 
L 250.546698 91.34231 
L 250.896018 91.34231 
L 250.978518 87.569901 
L 251.236723 87.569901 
L 251.236723 85.683696 
L 251.628827 85.683696 
L 251.628827 83.797492 
L 252.23164 83.797492 
L 252.260026 80.025083 
L 252.541366 80.025083 
L 252.541366 78.138878 
L 252.893713 78.138878 
L 252.893713 76.252673 
L 254.209837 76.252673 
L 254.209837 74.366469 
L 254.443267 74.366469 
L 254.443267 72.480264 
L 254.757305 72.480264 
L 254.757305 70.594059 
L 255.411401 70.594059 
L 255.411401 68.707855 
L 256.351731 68.707855 
L 256.351731 66.82165 
L 259.047092 66.82165 
L 259.047092 64.935446 
L 274.556609 64.935446 
L 274.594802 61.163036 
L 275.012701 61.163036 
L 275.012701 59.276832 
L 275.815504 59.276832 
L 275.815504 57.390627 
L 275.932175 57.390627 
L 275.932175 55.504422 
L 276.212247 55.504422 
L 276.212247 53.618218 
L 276.493497 53.618218 
L 276.506416 49.845809 
L 276.803167 49.845809 
L 276.803167 47.959604 
L 277.012271 47.959604 
L 277.012271 46.073399 
L 277.195282 46.073399 
L 277.195282 44.187195 
L 277.680984 44.187195 
L 277.680984 42.30099 
L 277.837346 42.30099 
L 277.837346 40.414785 
L 278.195538 40.414785 
L 278.195538 38.528581 
L 278.605145 38.528581 
L 278.689104 34.756172 
L 278.748521 34.756172 
L 278.748521 32.869967 
L 279.031094 32.869967 
L 279.043211 29.097558 
L 279.187603 29.097558 
L 279.187603 27.211353 
L 279.301094 27.211353 
L 279.392871 19.666535 
L 279.445838 19.666535 
L 279.505909 15.894125 
L 279.843836 15.894125 
L 279.843836 14.007921 
L 280.95593 14.007921 
L 280.95593 12.121716 
L 281.269385 12.121716 
L 281.269385 10.235512 
L 281.838879 10.235512 
L 281.838879 8.349307 
L 281.838879 8.349307 
L 450.672 8.349307 
L 450.672 8.349307 
" style="fill:none;stroke:#000000;stroke-linecap:square;stroke-width:1.5;"/>
   </g>
   <g id="line2d_27">
    <path clip-path="url(#p7c81046cce)" d="M 231.504154 291.28 
L 231.527195 287.507591 
L 231.660941 287.507591 
L 231.683315 283.735182 
L 231.912339 283.735182 
L 231.912339 281.848977 
L 232.176075 281.848977 
L 232.176075 279.962772 
L 232.317495 279.962772 
L 232.317495 278.076568 
L 232.617994 278.076568 
L 232.617994 276.190363 
L 232.78314 276.190363 
L 232.879313 268.645545 
L 233.070174 268.645545 
L 233.179358 262.986931 
L 233.189373 262.986931 
L 233.283203 259.214521 
L 233.393037 259.214521 
L 233.492095 253.555908 
L 233.566106 253.555908 
L 233.566106 251.669703 
L 233.749035 251.669703 
L 233.81946 247.897294 
L 233.928402 247.897294 
L 234.038396 244.124884 
L 234.229311 244.124884 
L 234.229311 242.23868 
L 234.47199 242.23868 
L 234.514619 236.580066 
L 234.640027 236.580066 
L 234.640027 234.693861 
L 234.809251 234.693861 
L 234.809251 232.807657 
L 235.112244 232.807657 
L 235.19678 229.035248 
L 235.283492 229.035248 
L 235.283492 227.149043 
L 235.641292 227.149043 
L 235.641292 225.262838 
L 236.011148 225.262838 
L 236.06432 221.490429 
L 236.154315 221.490429 
L 236.261152 217.71802 
L 236.754374 217.71802 
L 236.754374 215.831815 
L 236.964723 215.831815 
L 237.042697 212.059406 
L 237.194857 212.059406 
L 237.194857 210.173201 
L 237.370066 210.173201 
L 237.370066 208.286997 
L 237.719115 208.286997 
L 237.719115 206.400792 
L 237.855586 206.400792 
L 237.945929 202.628383 
L 238.56525 202.628383 
L 238.611054 198.855974 
L 238.763466 198.855974 
L 238.763466 196.969769 
L 238.952399 196.969769 
L 238.952399 195.083564 
L 239.323543 195.083564 
L 239.323543 193.19736 
L 239.910115 193.19736 
L 239.910115 191.311155 
L 240.242518 191.311155 
L 240.242518 189.42495 
L 240.508944 189.42495 
L 240.508944 187.538746 
L 240.714626 187.538746 
L 240.714626 185.652541 
L 240.887191 185.652541 
L 240.984718 181.880132 
L 241.001785 181.880132 
L 241.001785 179.993927 
L 241.953162 179.993927 
L 241.953162 178.107723 
L 242.986945 178.107723 
L 242.986945 176.221518 
L 243.160633 176.221518 
L 243.250217 172.449109 
L 243.617119 172.449109 
L 243.617119 170.562904 
L 244.264594 170.562904 
L 244.264594 168.6767 
L 244.716359 168.6767 
L 244.716359 166.790495 
L 245.114012 166.790495 
L 245.114012 164.90429 
L 245.240535 164.90429 
L 245.240535 163.018086 
L 245.405027 163.018086 
L 245.470485 157.359472 
L 245.525978 157.359472 
L 245.573516 151.700858 
L 245.650913 151.700858 
L 245.650913 149.814653 
L 245.81913 149.814653 
L 245.859099 146.042244 
L 246.020876 146.042244 
L 246.09609 140.38363 
L 246.135508 140.38363 
L 246.135508 138.497426 
L 246.273915 138.497426 
L 246.293256 134.725017 
L 246.759307 134.725017 
L 246.867142 129.066403 
L 246.901852 129.066403 
L 246.983649 125.293993 
L 247.059964 125.293993 
L 247.156958 119.63538 
L 247.235614 119.63538 
L 247.23858 115.86297 
L 247.580534 115.86297 
L 247.668041 108.318152 
L 247.703748 108.318152 
L 247.737492 104.545743 
L 247.827504 104.545743 
L 247.92267 98.887129 
L 248.093328 98.887129 
L 248.144599 93.228515 
L 248.428757 93.228515 
L 248.448673 89.456106 
L 249.105962 89.456106 
L 249.203915 85.683696 
L 249.834818 85.683696 
L 249.834818 83.797492 
L 250.20108 83.797492 
L 250.257368 78.138878 
L 250.495419 78.138878 
L 250.495419 76.252673 
L 251.236723 76.252673 
L 251.236723 74.366469 
L 252.291897 74.366469 
L 252.291897 72.480264 
L 252.541366 72.480264 
L 252.580158 68.707855 
L 252.808032 68.707855 
L 252.808032 66.82165 
L 255.078448 66.82165 
L 255.078448 64.935446 
L 273.037328 64.935446 
L 273.075054 61.163036 
L 274.001713 61.163036 
L 274.001713 59.276832 
L 274.431541 59.276832 
L 274.431541 57.390627 
L 274.556609 57.390627 
L 274.587899 53.618218 
L 274.745914 53.618218 
L 274.791884 49.845809 
L 275.002019 49.845809 
L 275.002019 47.959604 
L 275.15836 47.959604 
L 275.15836 46.073399 
L 275.31559 46.073399 
L 275.31559 44.187195 
L 275.638325 44.187195 
L 275.685066 40.414785 
L 275.967155 40.414785 
L 275.967155 38.528581 
L 276.099246 38.528581 
L 276.099246 36.642376 
L 277.10535 36.642376 
L 277.195282 30.983762 
L 277.530109 30.983762 
L 277.530109 29.097558 
L 277.680984 29.097558 
L 277.751139 25.325149 
L 278.102978 25.325149 
L 278.195538 21.552739 
L 278.287381 21.552739 
L 278.32452 17.78033 
L 278.748521 17.78033 
L 278.748521 15.894125 
L 279.031094 15.894125 
L 279.043211 12.121716 
L 279.301094 12.121716 
L 279.392871 8.349307 
L 279.392871 8.349307 
L 450.672 8.349307 
L 450.672 8.349307 
" style="fill:none;stroke:#00bfbf;stroke-linecap:square;stroke-width:1.5;"/>
   </g>
   <g id="line2d_28">
    <path clip-path="url(#p7c81046cce)" d="M 215.02222 291.28 
L 215.02222 289.393795 
L 218.387921 289.393795 
L 218.387921 287.507591 
L 218.97821 287.507591 
L 218.97821 285.621386 
L 219.357262 285.621386 
L 219.357262 283.735182 
L 219.782657 283.735182 
L 219.782657 281.848977 
L 219.922445 281.848977 
L 219.922445 279.962772 
L 221.495629 279.962772 
L 221.495629 278.076568 
L 221.705278 278.076568 
L 221.705278 276.190363 
L 221.9301 276.190363 
L 221.949266 270.531749 
L 222.460471 270.531749 
L 222.549974 266.75934 
L 223.965094 266.75934 
L 223.965094 264.873135 
L 224.873301 264.873135 
L 224.873301 262.986931 
L 225.568725 262.986931 
L 225.673467 259.214521 
L 226.695231 259.214521 
L 226.695231 257.328317 
L 226.934376 257.328317 
L 226.969764 253.555908 
L 227.968549 253.555908 
L 228.042852 249.783498 
L 228.256766 249.783498 
L 228.256766 247.897294 
L 228.659961 247.897294 
L 228.659961 246.011089 
L 229.325203 246.011089 
L 229.325203 244.124884 
L 231.053822 244.124884 
L 231.053822 242.23868 
L 231.509568 242.23868 
L 231.509568 240.352475 
L 232.023913 240.352475 
L 232.023913 238.466271 
L 232.78314 238.466271 
L 232.78314 236.580066 
L 233.070174 236.580066 
L 233.070174 234.693861 
L 233.241522 234.693861 
L 233.241522 232.807657 
L 233.81946 232.807657 
L 233.81946 230.921452 
L 234.40228 230.921452 
L 234.478951 227.149043 
L 234.809251 227.149043 
L 234.809251 225.262838 
L 235.112244 225.262838 
L 235.112244 223.376634 
L 235.283492 223.376634 
L 235.283492 221.490429 
L 235.641292 221.490429 
L 235.71332 217.71802 
L 236.011148 217.71802 
L 236.011148 215.831815 
L 236.739245 215.831815 
L 236.754374 212.059406 
L 236.964723 212.059406 
L 237.042697 208.286997 
L 237.194857 208.286997 
L 237.194857 206.400792 
L 237.370066 206.400792 
L 237.370066 204.514587 
L 237.580142 204.514587 
L 237.580142 202.628383 
L 237.719115 202.628383 
L 237.719115 200.742178 
L 237.855586 200.742178 
L 237.945929 196.969769 
L 238.56525 196.969769 
L 238.611054 193.19736 
L 238.763466 193.19736 
L 238.763466 191.311155 
L 238.928191 191.311155 
L 238.988597 185.652541 
L 239.323543 185.652541 
L 239.323543 183.766337 
L 239.910115 183.766337 
L 239.910115 181.880132 
L 240.242518 181.880132 
L 240.322299 178.107723 
L 240.508944 178.107723 
L 240.508944 176.221518 
L 240.714626 176.221518 
L 240.714626 174.335314 
L 240.887191 174.335314 
L 240.984718 170.562904 
L 241.001785 170.562904 
L 241.001785 168.6767 
L 241.87984 168.6767 
L 241.957077 163.018086 
L 242.908556 163.018086 
L 242.986945 159.245677 
L 243.134751 159.245677 
L 243.22067 155.473267 
L 243.250217 155.473267 
L 243.250217 153.587063 
L 243.434515 153.587063 
L 243.434515 151.700858 
L 243.617119 151.700858 
L 243.617119 149.814653 
L 244.078218 149.814653 
L 244.078218 147.928449 
L 244.264594 147.928449 
L 244.298716 142.269835 
L 244.463926 142.269835 
L 244.463926 140.38363 
L 244.633016 140.38363 
L 244.716359 136.611221 
L 244.979208 136.611221 
L 244.979208 134.725017 
L 245.094133 134.725017 
L 245.19042 130.952607 
L 245.240535 130.952607 
L 245.32906 127.180198 
L 245.405027 127.180198 
L 245.470485 123.407789 
L 245.573516 123.407789 
L 245.638765 119.63538 
L 245.754097 119.63538 
L 245.754097 117.749175 
L 245.915613 117.749175 
L 245.915613 115.86297 
L 246.08193 115.86297 
L 246.135508 112.090561 
L 246.273915 112.090561 
L 246.287099 108.318152 
L 246.413443 108.318152 
L 246.462929 102.659538 
L 246.829121 102.659538 
L 246.867142 98.887129 
L 247.206494 98.887129 
L 247.235727 93.228515 
L 247.617148 93.228515 
L 247.668041 87.569901 
L 247.92267 87.569901 
L 247.92267 85.683696 
L 248.093328 85.683696 
L 248.093328 83.797492 
L 249.105962 83.797492 
L 249.105962 81.911287 
L 249.834818 81.911287 
L 249.834818 80.025083 
L 250.211928 80.025083 
L 250.257368 76.252673 
L 250.495419 76.252673 
L 250.495419 74.366469 
L 251.236723 74.366469 
L 251.236723 72.480264 
L 252.541366 72.480264 
L 252.580158 68.707855 
L 252.808032 68.707855 
L 252.808032 66.82165 
L 255.078448 66.82165 
L 255.078448 64.935446 
L 265.910473 64.935446 
L 265.910473 63.049241 
L 267.404329 63.049241 
L 267.404329 61.163036 
L 267.535036 61.163036 
L 267.535036 59.276832 
L 267.847894 59.276832 
L 267.847894 57.390627 
L 268.001411 57.390627 
L 268.001411 55.504422 
L 268.292206 55.504422 
L 268.292206 53.618218 
L 268.822994 53.618218 
L 268.822994 51.732013 
L 268.968052 51.732013 
L 268.968052 49.845809 
L 269.426748 49.845809 
L 269.454226 46.073399 
L 269.55194 46.073399 
L 269.55194 44.187195 
L 269.717118 44.187195 
L 269.717118 42.30099 
L 270.968126 42.30099 
L 270.968126 40.414785 
L 271.998348 40.414785 
L 271.998348 38.528581 
L 274.556609 38.528581 
L 274.556609 36.642376 
L 275.269761 36.642376 
L 275.269761 34.756172 
L 275.967155 34.756172 
L 275.967155 32.869967 
L 277.179971 32.869967 
L 277.195282 29.097558 
L 277.680984 29.097558 
L 277.751139 25.325149 
L 278.102978 25.325149 
L 278.195538 21.552739 
L 278.287381 21.552739 
L 278.32452 17.78033 
L 278.748521 17.78033 
L 278.748521 15.894125 
L 279.031094 15.894125 
L 279.043211 12.121716 
L 279.301094 12.121716 
L 279.392871 8.349307 
L 279.392871 8.349307 
L 450.672 8.349307 
L 450.672 8.349307 
" style="fill:none;stroke:#bf00bf;stroke-linecap:square;stroke-width:1.5;"/>
   </g>
   <g id="line2d_29">
    <path clip-path="url(#p7c81046cce)" d="M 201.08852 291.28 
L 201.08852 289.393795 
L 203.515453 289.393795 
L 203.515453 287.507591 
L 208.794459 287.507591 
L 208.794459 285.621386 
L 209.586551 285.621386 
L 209.586551 283.735182 
L 209.916328 283.735182 
L 209.916328 281.848977 
L 212.009541 281.848977 
L 212.009541 279.962772 
L 212.967938 279.962772 
L 212.967938 278.076568 
L 213.158945 278.076568 
L 213.239022 274.304158 
L 215.815209 274.304158 
L 215.815209 272.417954 
L 216.840207 272.417954 
L 216.840207 270.531749 
L 217.222414 270.531749 
L 217.222414 268.645545 
L 219.616942 268.645545 
L 219.616942 266.75934 
L 219.755494 266.75934 
L 219.755494 264.873135 
L 221.664159 264.873135 
L 221.664159 262.986931 
L 222.970231 262.986931 
L 222.970231 261.100726 
L 223.460227 261.100726 
L 223.460227 259.214521 
L 224.043106 259.214521 
L 224.051805 255.442112 
L 224.175796 255.442112 
L 224.175796 253.555908 
L 224.90387 253.555908 
L 224.90387 251.669703 
L 225.596911 251.669703 
L 225.596911 249.783498 
L 225.732724 249.783498 
L 225.732724 247.897294 
L 226.318407 247.897294 
L 226.318407 246.011089 
L 226.973195 246.011089 
L 226.973195 244.124884 
L 228.114184 244.124884 
L 228.114184 242.23868 
L 228.407989 242.23868 
L 228.407989 240.352475 
L 229.994148 240.352475 
L 229.994148 238.466271 
L 231.5102 238.466271 
L 231.5102 236.580066 
L 231.923964 236.580066 
L 231.923964 234.693861 
L 232.78314 234.693861 
L 232.78314 232.807657 
L 233.070174 232.807657 
L 233.070174 230.921452 
L 233.463691 230.921452 
L 233.463691 229.035248 
L 233.81946 229.035248 
L 233.81946 227.149043 
L 234.478951 227.149043 
L 234.478951 225.262838 
L 234.809251 225.262838 
L 234.809251 223.376634 
L 235.112244 223.376634 
L 235.138072 219.604224 
L 235.283492 219.604224 
L 235.283492 217.71802 
L 235.641292 217.71802 
L 235.641292 215.831815 
L 235.93604 215.831815 
L 236.011148 212.059406 
L 236.070054 212.059406 
L 236.070054 210.173201 
L 236.302741 210.173201 
L 236.302741 208.286997 
L 236.754374 208.286997 
L 236.754374 206.400792 
L 236.964723 206.400792 
L 237.042697 202.628383 
L 237.167346 202.628383 
L 237.194857 198.855974 
L 237.370066 198.855974 
L 237.370066 196.969769 
L 237.719115 196.969769 
L 237.719115 195.083564 
L 237.855586 195.083564 
L 237.945929 191.311155 
L 238.56525 191.311155 
L 238.611054 187.538746 
L 238.763466 187.538746 
L 238.763466 185.652541 
L 238.952399 185.652541 
L 238.952399 183.766337 
L 239.323543 183.766337 
L 239.323543 181.880132 
L 239.635241 181.880132 
L 239.635241 179.993927 
L 239.816333 179.993927 
L 239.910115 176.221518 
L 240.008328 176.221518 
L 240.008328 174.335314 
L 240.242518 174.335314 
L 240.242518 172.449109 
L 240.508944 172.449109 
L 240.508944 170.562904 
L 240.698973 170.562904 
L 240.790748 164.90429 
L 240.887191 164.90429 
L 240.984718 157.359472 
L 241.001785 157.359472 
L 241.001785 155.473267 
L 241.953162 155.473267 
L 241.953162 153.587063 
L 242.096603 153.587063 
L 242.096603 151.700858 
L 242.307808 151.700858 
L 242.307808 149.814653 
L 242.441605 149.814653 
L 242.441605 147.928449 
L 242.652959 147.928449 
L 242.652959 146.042244 
L 242.986945 146.042244 
L 242.986945 144.15604 
L 243.144614 144.15604 
L 243.250217 140.38363 
L 243.411558 140.38363 
L 243.411558 138.497426 
L 243.530918 138.497426 
L 243.617119 134.725017 
L 243.769665 134.725017 
L 243.769665 132.838812 
L 243.905541 132.838812 
L 243.905541 130.952607 
L 244.020773 130.952607 
L 244.059875 127.180198 
L 244.264594 127.180198 
L 244.264594 125.293993 
L 244.697156 125.293993 
L 244.79054 117.749175 
L 244.813179 117.749175 
L 244.813179 115.86297 
L 245.240535 115.86297 
L 245.240535 113.976766 
L 245.405027 113.976766 
L 245.470485 110.204356 
L 245.567345 110.204356 
L 245.573516 106.431947 
L 246.08193 106.431947 
L 246.139237 100.773333 
L 246.273915 100.773333 
L 246.273915 98.887129 
L 246.829121 98.887129 
L 246.867142 95.114719 
L 247.235614 95.114719 
L 247.235614 93.228515 
L 247.617148 93.228515 
L 247.668041 87.569901 
L 247.92267 87.569901 
L 247.92267 85.683696 
L 248.093328 85.683696 
L 248.093328 83.797492 
L 249.105962 83.797492 
L 249.105962 81.911287 
L 249.834818 81.911287 
L 249.834818 80.025083 
L 250.211928 80.025083 
L 250.257368 76.252673 
L 250.495419 76.252673 
L 250.495419 74.366469 
L 251.236723 74.366469 
L 251.236723 72.480264 
L 252.541366 72.480264 
L 252.580158 68.707855 
L 252.808032 68.707855 
L 252.808032 66.82165 
L 255.078448 66.82165 
L 255.078448 64.935446 
L 263.514914 64.935446 
L 263.625687 59.276832 
L 264.138225 59.276832 
L 264.157672 55.504422 
L 265.335997 55.504422 
L 265.335997 53.618218 
L 265.460813 53.618218 
L 265.460813 51.732013 
L 265.806844 51.732013 
L 265.863909 47.959604 
L 266.628411 47.959604 
L 266.628411 46.073399 
L 266.80273 46.073399 
L 266.80273 44.187195 
L 268.094221 44.187195 
L 268.094221 42.30099 
L 268.980305 42.30099 
L 268.980305 40.414785 
L 270.318083 40.414785 
L 270.318083 38.528581 
L 273.201126 38.528581 
L 273.201126 36.642376 
L 274.556609 36.642376 
L 274.556609 34.756172 
L 275.967155 34.756172 
L 275.967155 32.869967 
L 277.179971 32.869967 
L 277.195282 29.097558 
L 277.680984 29.097558 
L 277.751139 25.325149 
L 278.102978 25.325149 
L 278.195538 21.552739 
L 278.287381 21.552739 
L 278.32452 17.78033 
L 278.748521 17.78033 
L 278.748521 15.894125 
L 279.031094 15.894125 
L 279.043211 12.121716 
L 279.301094 12.121716 
L 279.392871 8.349307 
L 279.392871 8.349307 
L 450.672 8.349307 
L 450.672 8.349307 
" style="fill:none;stroke:#000000;stroke-linecap:square;stroke-width:1.5;"/>
   </g>
   <g id="patch_3">
    <path d="M 5.52 291.28 
L 5.52 5.52 
" style="fill:none;stroke:#000000;stroke-linecap:square;stroke-linejoin:miter;stroke-width:0.8;"/>
   </g>
   <g id="patch_4">
    <path d="M 450.672 291.28 
L 450.672 5.52 
" style="fill:none;stroke:#000000;stroke-linecap:square;stroke-linejoin:miter;stroke-width:0.8;"/>
   </g>
   <g id="patch_5">
    <path d="M 5.52 291.28 
L 450.672 291.28 
" style="fill:none;stroke:#000000;stroke-linecap:square;stroke-linejoin:miter;stroke-width:0.8;"/>
   </g>
   <g id="patch_6">
    <path d="M 5.52 5.52 
L 450.672 5.52 
" style="fill:none;stroke:#000000;stroke-linecap:square;stroke-linejoin:miter;stroke-width:0.8;"/>
   </g>
   <g id="text_6">
    <!-- {f15-f19}, 20-D -->
    <defs>
     <path d="M 51.125 -9.28125 
L 51.125 -16.3125 
L 48.09375 -16.3125 
Q 35.9375 -16.3125 31.8125 -12.6875 
Q 27.6875 -9.078125 27.6875 1.703125 
L 27.6875 13.375 
Q 27.6875 20.75 25.046875 23.578125 
Q 22.40625 26.421875 15.484375 26.421875 
L 12.5 26.421875 
L 12.5 33.40625 
L 15.484375 33.40625 
Q 22.46875 33.40625 25.078125 36.203125 
Q 27.6875 39.015625 27.6875 46.296875 
L 27.6875 58.015625 
Q 27.6875 68.796875 31.8125 72.390625 
Q 35.9375 75.984375 48.09375 75.984375 
L 51.125 75.984375 
L 51.125 69 
L 47.796875 69 
Q 40.921875 69 38.8125 66.84375 
Q 36.71875 64.703125 36.71875 57.8125 
L 36.71875 45.703125 
Q 36.71875 38.03125 34.5 34.5625 
Q 32.28125 31.109375 26.90625 29.890625 
Q 32.328125 28.5625 34.515625 25.09375 
Q 36.71875 21.625 36.71875 14.015625 
L 36.71875 1.90625 
Q 36.71875 -4.984375 38.8125 -7.125 
Q 40.921875 -9.28125 47.796875 -9.28125 
z
" id="DejaVuSans-7b"/>
     <path d="M 10.796875 72.90625 
L 49.515625 72.90625 
L 49.515625 64.59375 
L 19.828125 64.59375 
L 19.828125 46.734375 
Q 21.96875 47.46875 24.109375 47.828125 
Q 26.265625 48.1875 28.421875 48.1875 
Q 40.625 48.1875 47.75 41.5 
Q 54.890625 34.8125 54.890625 23.390625 
Q 54.890625 11.625 47.5625 5.09375 
Q 40.234375 -1.421875 26.90625 -1.421875 
Q 22.3125 -1.421875 17.546875 -0.640625 
Q 12.796875 0.140625 7.71875 1.703125 
L 7.71875 11.625 
Q 12.109375 9.234375 16.796875 8.0625 
Q 21.484375 6.890625 26.703125 6.890625 
Q 35.15625 6.890625 40.078125 11.328125 
Q 45.015625 15.765625 45.015625 23.390625 
Q 45.015625 31 40.078125 35.4375 
Q 35.15625 39.890625 26.703125 39.890625 
Q 22.75 39.890625 18.8125 39.015625 
Q 14.890625 38.140625 10.796875 36.28125 
z
" id="DejaVuSans-35"/>
     <path d="M 10.984375 1.515625 
L 10.984375 10.5 
Q 14.703125 8.734375 18.5 7.8125 
Q 22.3125 6.890625 25.984375 6.890625 
Q 35.75 6.890625 40.890625 13.453125 
Q 46.046875 20.015625 46.78125 33.40625 
Q 43.953125 29.203125 39.59375 26.953125 
Q 35.25 24.703125 29.984375 24.703125 
Q 19.046875 24.703125 12.671875 31.3125 
Q 6.296875 37.9375 6.296875 49.421875 
Q 6.296875 60.640625 12.9375 67.421875 
Q 19.578125 74.21875 30.609375 74.21875 
Q 43.265625 74.21875 49.921875 64.515625 
Q 56.59375 54.828125 56.59375 36.375 
Q 56.59375 19.140625 48.40625 8.859375 
Q 40.234375 -1.421875 26.421875 -1.421875 
Q 22.703125 -1.421875 18.890625 -0.6875 
Q 15.09375 0.046875 10.984375 1.515625 
z
M 30.609375 32.421875 
Q 37.25 32.421875 41.125 36.953125 
Q 45.015625 41.5 45.015625 49.421875 
Q 45.015625 57.28125 41.125 61.84375 
Q 37.25 66.40625 30.609375 66.40625 
Q 23.96875 66.40625 20.09375 61.84375 
Q 16.21875 57.28125 16.21875 49.421875 
Q 16.21875 41.5 20.09375 36.953125 
Q 23.96875 32.421875 30.609375 32.421875 
z
" id="DejaVuSans-39"/>
     <path d="M 12.5 -9.28125 
L 15.921875 -9.28125 
Q 22.75 -9.28125 24.828125 -7.171875 
Q 26.90625 -5.078125 26.90625 1.90625 
L 26.90625 14.015625 
Q 26.90625 21.625 29.09375 25.09375 
Q 31.296875 28.5625 36.71875 29.890625 
Q 31.296875 31.109375 29.09375 34.5625 
Q 26.90625 38.03125 26.90625 45.703125 
L 26.90625 57.8125 
Q 26.90625 64.75 24.828125 66.875 
Q 22.75 69 15.921875 69 
L 12.5 69 
L 12.5 75.984375 
L 15.578125 75.984375 
Q 27.734375 75.984375 31.8125 72.390625 
Q 35.890625 68.796875 35.890625 58.015625 
L 35.890625 46.296875 
Q 35.890625 39.015625 38.515625 36.203125 
Q 41.15625 33.40625 48.09375 33.40625 
L 51.125 33.40625 
L 51.125 26.421875 
L 48.09375 26.421875 
Q 41.15625 26.421875 38.515625 23.578125 
Q 35.890625 20.75 35.890625 13.375 
L 35.890625 1.703125 
Q 35.890625 -9.078125 31.8125 -12.6875 
Q 27.734375 -16.3125 15.578125 -16.3125 
L 12.5 -16.3125 
z
" id="DejaVuSans-7d"/>
     <path d="M 11.71875 12.40625 
L 22.015625 12.40625 
L 22.015625 4 
L 14.015625 -11.625 
L 7.71875 -11.625 
L 11.71875 4 
z
" id="DejaVuSans-2c"/>
     <path d="M 19.1875 8.296875 
L 53.609375 8.296875 
L 53.609375 0 
L 7.328125 0 
L 7.328125 8.296875 
Q 12.9375 14.109375 22.625 23.890625 
Q 32.328125 33.6875 34.8125 36.53125 
Q 39.546875 41.84375 41.421875 45.53125 
Q 43.3125 49.21875 43.3125 52.78125 
Q 43.3125 58.59375 39.234375 62.25 
Q 35.15625 65.921875 28.609375 65.921875 
Q 23.96875 65.921875 18.8125 64.3125 
Q 13.671875 62.703125 7.8125 59.421875 
L 7.8125 69.390625 
Q 13.765625 71.78125 18.9375 73 
Q 24.125 74.21875 28.421875 74.21875 
Q 39.75 74.21875 46.484375 68.546875 
Q 53.21875 62.890625 53.21875 53.421875 
Q 53.21875 48.921875 51.53125 44.890625 
Q 49.859375 40.875 45.40625 35.40625 
Q 44.1875 33.984375 37.640625 27.21875 
Q 31.109375 20.453125 19.1875 8.296875 
z
" id="DejaVuSans-32"/>
    </defs>
    <g transform="translate(283.34396 285.5648)scale(0.2 -0.2)">
     <use xlink:href="#DejaVuSans-7b"/>
     <use x="63.623047" xlink:href="#DejaVuSans-66"/>
     <use x="98.828125" xlink:href="#DejaVuSans-31"/>
     <use x="162.451172" xlink:href="#DejaVuSans-35"/>
     <use x="226.074219" xlink:href="#DejaVuSans-2d"/>
     <use x="262.158203" xlink:href="#DejaVuSans-66"/>
     <use x="297.363281" xlink:href="#DejaVuSans-31"/>
     <use x="360.986328" xlink:href="#DejaVuSans-39"/>
     <use x="424.609375" xlink:href="#DejaVuSans-7d"/>
     <use x="488.232422" xlink:href="#DejaVuSans-2c"/>
     <use x="520.019531" xlink:href="#DejaVuSans-20"/>
     <use x="551.806641" xlink:href="#DejaVuSans-32"/>
     <use x="615.429688" xlink:href="#DejaVuSans-30"/>
     <use x="679.052734" xlink:href="#DejaVuSans-2d"/>
     <use x="715.136719" xlink:href="#DejaVuSans-44"/>
    </g>
   </g>
   <g id="text_7">
    <!-- v2.2.1.10 -->
    <defs>
     <path d="M 2.984375 54.6875 
L 12.5 54.6875 
L 29.59375 8.796875 
L 46.6875 54.6875 
L 56.203125 54.6875 
L 35.6875 0 
L 23.484375 0 
z
" id="DejaVuSans-76"/>
     <path d="M 10.6875 12.40625 
L 21 12.40625 
L 21 0 
L 10.6875 0 
z
" id="DejaVuSans-2e"/>
    </defs>
    <g style="fill:#808080;" transform="translate(204.463188 286.342713)scale(0.1 -0.1)">
     <use xlink:href="#DejaVuSans-76"/>
     <use x="59.179688" xlink:href="#DejaVuSans-32"/>
     <use x="122.802734" xlink:href="#DejaVuSans-2e"/>
     <use x="154.589844" xlink:href="#DejaVuSans-32"/>
     <use x="218.212891" xlink:href="#DejaVuSans-2e"/>
     <use x="250" xlink:href="#DejaVuSans-31"/>
     <use x="313.623047" xlink:href="#DejaVuSans-2e"/>
     <use x="345.410156" xlink:href="#DejaVuSans-31"/>
     <use x="409.033203" xlink:href="#DejaVuSans-30"/>
    </g>
   </g>
  </g>
 </g>
 <defs>
  <clipPath id="p7c81046cce">
   <rect height="285.76" width="445.152" x="5.52" y="5.52"/>
  </clipPath>
 </defs>
</svg>
