<?xml version="1.0" encoding="utf-8" standalone="no"?>
<!DOCTYPE svg PUBLIC "-//W3C//DTD SVG 1.1//EN"
  "http://www.w3.org/Graphics/SVG/1.1/DTD/svg11.dtd">
<!-- Created with matplotlib (http://matplotlib.org/) -->
<svg height="345.6pt" version="1.1" viewBox="0 0 460.8 345.6" width="460.8pt" xmlns="http://www.w3.org/2000/svg" xmlns:xlink="http://www.w3.org/1999/xlink">
 <defs>
  <style type="text/css">
*{stroke-linecap:butt;stroke-linejoin:round;}
  </style>
 </defs>
 <g id="figure_1">
  <g id="patch_1">
   <path d="M 0 345.6 
L 460.8 345.6 
L 460.8 0 
L 0 0 
z
" style="fill:#ffffff;"/>
  </g>
  <g id="axes_1">
   <g id="patch_2">
    <path d="M 59.72 291.28 
L 450.672 291.28 
L 450.672 6.125228 
L 59.72 6.125228 
z
" style="fill:#ffffff;"/>
   </g>
   <g id="line2d_1">
    <path clip-path="url(#p2f5a13a087)" d="M 294.775344 291.28 
L 294.775344 287.515581 
L 294.775344 287.515581 
L 294.775344 283.751161 
L 295.124783 283.751161 
L 295.124783 279.986742 
L 295.124783 279.986742 
L 295.124783 276.222322 
L 295.124783 276.222322 
L 295.124783 272.457903 
L 295.298695 272.457903 
L 295.298695 268.693483 
L 295.298695 268.693483 
L 295.298695 264.929064 
L 295.817238 264.929064 
L 295.817238 261.164645 
L 297.344876 261.164645 
L 297.344876 257.400225 
L 297.344876 257.400225 
L 297.344876 253.635806 
L 298.340802 253.635806 
L 298.340802 249.871386 
L 298.83225 249.871386 
L 298.83225 246.106967 
L 300.598476 246.106967 
L 300.598476 242.342547 
L 302.616975 242.342547 
L 302.616975 238.578128 
L 304.270295 238.578128 
L 304.270295 234.813708 
L 316.833617 234.813708 
L 316.833617 231.049289 
L 318.122931 231.049289 
L 318.122931 227.28487 
L 318.469509 227.28487 
L 318.469509 223.52045 
L 318.469509 223.52045 
L 318.469509 219.756031 
L 318.699384 219.756031 
L 318.699384 215.991611 
L 319.270009 215.991611 
L 319.270009 212.227192 
L 319.383445 212.227192 
L 319.383445 208.462772 
L 320.059313 208.462772 
L 320.059313 204.698353 
L 320.059313 204.698353 
L 320.059313 200.933934 
L 320.83773 200.933934 
L 320.83773 197.169514 
L 321.168078 197.169514 
L 321.168078 193.405095 
L 321.168078 193.405095 
L 321.168078 189.640675 
L 321.931452 189.640675 
L 321.931452 185.876256 
L 335.788314 185.876256 
L 335.788314 182.111836 
L 336.126245 182.111836 
L 336.126245 178.347417 
L 344.342253 178.347417 
L 344.342253 174.582997 
L 345.424094 174.582997 
L 345.424094 170.818578 
L 347.870546 170.818578 
L 347.870546 167.054159 
L 349.289078 167.054159 
L 349.289078 163.289739 
L 350.08394 163.289739 
L 350.08394 159.52532 
L 350.215336 159.52532 
L 350.215336 155.7609 
L 351.320015 155.7609 
L 351.320015 151.996481 
L 355.354972 151.996481 
L 355.354972 148.232061 
L 366.269729 148.232061 
L 366.269729 144.467642 
L 375.117045 144.467642 
L 375.117045 140.703223 
L 378.277044 140.703223 
L 378.277044 136.938803 
L 383.313715 136.938803 
L 383.313715 133.174384 
L 388.639359 133.174384 
L 388.639359 129.409964 
L 388.639359 129.409964 
L 388.639359 129.409964 
L 450.672 129.409964 
" style="fill:none;stroke:#f5deb3;stroke-linecap:square;stroke-width:1.5;"/>
   </g>
   <g id="line2d_2">
    <path clip-path="url(#p2f5a13a087)" d="M 244.450063 291.28 
L 244.450063 279.986742 
L 244.450063 279.986742 
L 244.450063 268.693483 
L 244.875984 268.693483 
L 244.875984 257.400225 
L 244.875984 257.400225 
L 244.875984 246.106967 
L 244.875984 246.106967 
L 244.875984 234.813708 
L 394.860331 234.813708 
L 394.860331 223.52045 
L 402.914309 223.52045 
L 402.914309 212.227192 
L 403.32549 212.227192 
L 403.32549 200.933934 
L 411.929692 200.933934 
L 411.929692 189.640675 
L 415.155388 189.640675 
L 415.155388 178.347417 
L 448.895988 178.347417 
L 448.895988 167.054159 
L 461.8 167.054159 
" style="fill:none;stroke:#f5deb3;stroke-linecap:square;stroke-width:1.5;"/>
   </g>
   <g id="line2d_3">
    <path clip-path="url(#p2f5a13a087)" d="M 143.333341 291.28 
L 143.333341 287.515581 
L 143.333341 287.515581 
L 143.333341 283.751161 
L 143.333341 283.751161 
L 143.333341 279.986742 
L 143.333341 279.986742 
L 143.333341 276.222322 
L 143.333341 276.222322 
L 143.333341 272.457903 
L 143.333341 272.457903 
L 143.333341 268.693483 
L 143.333341 268.693483 
L 143.333341 264.929064 
L 143.333341 264.929064 
L 143.333341 261.164645 
L 143.333341 261.164645 
L 143.333341 257.400225 
L 143.333341 257.400225 
L 143.333341 253.635806 
L 143.333341 253.635806 
L 143.333341 249.871386 
L 143.333341 249.871386 
L 143.333341 246.106967 
L 143.333341 246.106967 
L 143.333341 242.342547 
L 143.333341 242.342547 
L 143.333341 238.578128 
L 143.333341 238.578128 
L 143.333341 234.813708 
L 143.333341 234.813708 
L 143.333341 231.049289 
L 143.333341 231.049289 
L 143.333341 227.28487 
L 143.333341 227.28487 
L 143.333341 223.52045 
L 143.333341 223.52045 
L 143.333341 219.756031 
L 145.841945 219.756031 
L 145.841945 215.991611 
L 145.841945 215.991611 
L 145.841945 212.227192 
L 145.841945 212.227192 
L 145.841945 208.462772 
L 148.243768 208.462772 
L 148.243768 204.698353 
L 148.243768 204.698353 
L 148.243768 200.933934 
L 150.54753 200.933934 
L 150.54753 197.169514 
L 150.54753 197.169514 
L 150.54753 193.405095 
L 150.54753 193.405095 
L 150.54753 189.640675 
L 152.760924 189.640675 
L 152.760924 185.876256 
L 154.890773 185.876256 
L 154.890773 182.111836 
L 164.47891 182.111836 
L 164.47891 178.347417 
L 461.8 178.347417 
" style="fill:none;stroke:#f5deb3;stroke-linecap:square;stroke-width:1.5;"/>
   </g>
   <g id="line2d_4">
    <path clip-path="url(#p2f5a13a087)" d="M 109.12648 291.28 
L 109.12648 287.515581 
L 132.008627 287.515581 
L 132.008627 283.751161 
L 145.841945 283.751161 
L 145.841945 279.986742 
L 148.243768 279.986742 
L 148.243768 276.222322 
L 154.890773 276.222322 
L 154.890773 272.457903 
L 160.836722 272.457903 
L 160.836722 268.693483 
L 164.47891 268.693483 
L 164.47891 264.929064 
L 166.215487 264.929064 
L 166.215487 261.164645 
L 166.215487 261.164645 
L 166.215487 257.400225 
L 166.215487 257.400225 
L 166.215487 253.635806 
L 171.125915 253.635806 
L 171.125915 249.871386 
L 175.64307 249.871386 
L 175.64307 246.106967 
L 177.071863 246.106967 
L 177.071863 242.342547 
L 181.153231 242.342547 
L 181.153231 238.578128 
L 189.664817 238.578128 
L 189.664817 234.813708 
L 304.418223 234.813708 
L 304.418223 231.049289 
L 307.578221 231.049289 
L 307.578221 227.28487 
L 309.500744 227.28487 
L 309.500744 223.52045 
L 310.17179 223.52045 
L 310.17179 219.756031 
L 310.305047 219.756031 
L 310.305047 215.991611 
L 310.70294 215.991611 
L 310.70294 212.227192 
L 310.966653 212.227192 
L 310.966653 208.462772 
L 311.750475 208.462772 
L 311.750475 204.698353 
L 312.009349 204.698353 
L 312.009349 200.933934 
L 312.52356 200.933934 
L 312.52356 197.169514 
L 313.788957 197.169514 
L 313.788957 193.405095 
L 316.595998 193.405095 
L 316.595998 189.640675 
L 316.833617 189.640675 
L 316.833617 185.876256 
L 317.774211 185.876256 
L 317.774211 182.111836 
L 320.83773 182.111836 
L 320.83773 178.347417 
L 373.446382 178.347417 
L 373.446382 174.582997 
L 376.369337 174.582997 
L 376.369337 170.818578 
L 376.410606 170.818578 
L 376.410606 167.054159 
L 376.410606 167.054159 
L 376.410606 163.289739 
L 377.066826 163.289739 
L 377.066826 159.52532 
L 377.836305 159.52532 
L 377.836305 155.7609 
L 377.916696 155.7609 
L 377.916696 151.996481 
L 378.35681 151.996481 
L 378.35681 148.232061 
L 379.773645 148.232061 
L 379.773645 144.467642 
L 381.079875 144.467642 
L 381.079875 140.703223 
L 382.873965 140.703223 
L 382.873965 136.938803 
L 383.240661 136.938803 
L 383.240661 133.174384 
L 385.882598 133.174384 
L 385.882598 129.409964 
L 386.091485 129.409964 
L 386.091485 125.645545 
L 387.260794 125.645545 
L 387.260794 121.881125 
L 387.260794 121.881125 
L 387.260794 121.881125 
L 450.672 121.881125 
" style="fill:none;stroke:#f5deb3;stroke-linecap:square;stroke-width:1.5;"/>
   </g>
   <g id="line2d_5">
    <path clip-path="url(#p2f5a13a087)" d="M 251.286763 291.28 
L 251.286763 287.515581 
L 263.499687 287.515581 
L 263.499687 283.751161 
L 264.106513 283.751161 
L 264.106513 279.986742 
L 266.180448 279.986742 
L 266.180448 276.222322 
L 272.503304 276.222322 
L 272.503304 272.457903 
L 272.503304 272.457903 
L 272.503304 268.693483 
L 273.278158 268.693483 
L 273.278158 264.929064 
L 277.240087 264.929064 
L 277.240087 261.164645 
L 287.089166 261.164645 
L 287.089166 257.400225 
L 290.024021 257.400225 
L 290.024021 253.635806 
L 294.599809 253.635806 
L 294.599809 249.871386 
L 297.344876 249.871386 
L 297.344876 246.106967 
L 298.99512 246.106967 
L 298.99512 242.342547 
L 308.684812 242.342547 
L 308.684812 238.578128 
L 323.638481 238.578128 
L 323.638481 234.813708 
L 326.606699 234.813708 
L 326.606699 231.049289 
L 327.595066 231.049289 
L 327.595066 227.28487 
L 327.595066 227.28487 
L 327.595066 223.52045 
L 328.566421 223.52045 
L 328.566421 219.756031 
L 329.898827 219.756031 
L 329.898827 215.991611 
L 331.292338 215.991611 
L 331.292338 212.227192 
L 332.112222 212.227192 
L 332.112222 208.462772 
L 332.38289 208.462772 
L 332.38289 204.698353 
L 332.741774 204.698353 
L 332.741774 200.933934 
L 334.154914 200.933934 
L 334.154914 197.169514 
L 334.154914 197.169514 
L 334.154914 193.405095 
L 335.363034 193.405095 
L 335.363034 189.640675 
L 336.462164 189.640675 
L 336.462164 185.876256 
L 337.128064 185.876256 
L 337.128064 182.111836 
L 343.016059 182.111836 
L 343.016059 178.347417 
L 461.8 178.347417 
" style="fill:none;stroke:#f5deb3;stroke-linecap:square;stroke-width:1.5;"/>
   </g>
   <g id="line2d_6"/>
   <g id="line2d_7">
    <path clip-path="url(#p2f5a13a087)" d="M 240.464809 291.28 
L 240.464809 287.515581 
L 242.270861 287.515581 
L 242.270861 283.751161 
L 246.548234 283.751161 
L 246.548234 279.986742 
L 248.571186 279.986742 
L 248.571186 276.222322 
L 249.751041 276.222322 
L 249.751041 272.457903 
L 252.411737 272.457903 
L 252.411737 264.929064 
L 253.149451 264.929064 
L 253.149451 261.164645 
L 253.514723 261.164645 
L 253.514723 257.400225 
L 254.23825 257.400225 
L 254.23825 253.635806 
L 256.354785 253.635806 
L 256.354785 249.871386 
L 257.722956 249.871386 
L 257.722956 246.106967 
L 258.059879 246.106967 
L 258.059879 242.342547 
L 259.058742 242.342547 
L 259.058742 238.578128 
L 262.886264 238.578128 
L 262.886264 234.813708 
L 346.063382 234.813708 
L 346.063382 231.049289 
L 346.415437 231.049289 
L 346.415437 227.28487 
L 347.113027 227.28487 
L 347.113027 223.52045 
L 347.458615 223.52045 
L 347.458615 219.756031 
L 348.143506 219.756031 
L 348.143506 215.991611 
L 348.685496 215.991611 
L 348.685496 212.227192 
L 349.222331 212.227192 
L 349.222331 208.462772 
L 349.754107 208.462772 
L 349.754107 204.698353 
L 350.215336 204.698353 
L 350.215336 200.933934 
L 350.411857 200.933934 
L 350.411857 197.169514 
L 352.21379 197.169514 
L 352.21379 193.405095 
L 352.529596 193.405095 
L 352.529596 189.640675 
L 353.09363 189.640675 
L 353.09363 185.876256 
L 355.174958 185.876256 
L 355.174958 182.111836 
L 356.54061 182.111836 
L 356.54061 178.347417 
L 405.756112 178.347417 
L 405.756112 174.582997 
L 406.317409 174.582997 
L 406.317409 170.818578 
L 406.438695 170.818578 
L 406.438695 167.054159 
L 407.017266 167.054159 
L 407.017266 163.289739 
L 407.70855 163.289739 
L 407.70855 159.52532 
L 408.555081 159.52532 
L 408.555081 155.7609 
L 408.834459 155.7609 
L 408.834459 151.996481 
L 409.135567 151.996481 
L 409.135567 148.232061 
L 409.869981 148.232061 
L 409.869981 144.467642 
L 410.662451 144.467642 
L 410.662451 140.703223 
L 412.258501 140.703223 
L 412.258501 136.938803 
L 412.650559 136.938803 
L 412.650559 133.174384 
L 413.81065 133.174384 
L 413.81065 129.409964 
L 415.383322 129.409964 
L 415.383322 125.645545 
L 454.158363 125.645545 
L 454.158363 121.881125 
L 461.8 121.881125 
L 461.8 121.881125 
" style="fill:none;stroke:#f5deb3;stroke-linecap:square;stroke-width:1.5;"/>
   </g>
   <g id="line2d_8">
    <path clip-path="url(#p2f5a13a087)" d="M 397.928799 291.28 
L 397.928799 287.515581 
L 399.292752 287.515581 
L 399.292752 283.751161 
L 400.003315 283.751161 
L 400.057605 276.222322 
L 400.166028 276.222322 
L 400.166028 272.457903 
L 400.490054 272.457903 
L 400.57077 264.929064 
L 400.624517 264.929064 
L 400.624517 261.164645 
L 401.688845 261.164645 
L 401.688845 257.400225 
L 401.873056 257.400225 
L 401.873056 253.635806 
L 402.759341 253.635806 
L 402.759341 249.871386 
L 402.940096 249.871386 
L 402.940096 246.106967 
L 404.516292 246.106967 
L 404.516292 242.342547 
L 420.801553 242.342547 
L 420.801553 238.578128 
L 420.951644 238.578128 
L 420.951644 234.813708 
L 461.8 234.813708 
L 461.8 234.813708 
" style="fill:none;stroke:#f5deb3;stroke-linecap:square;stroke-width:1.5;"/>
   </g>
   <g id="line2d_9">
    <path clip-path="url(#p2f5a13a087)" d="M 169.536111 291.28 
L 169.536111 287.515581 
L 175.64307 287.515581 
L 175.64307 283.751161 
L 179.825303 283.751161 
L 179.825303 279.986742 
L 186.172921 279.986742 
L 186.172921 276.222322 
L 187.361056 276.222322 
L 187.361056 272.457903 
L 200.88683 272.457903 
L 200.88683 268.693483 
L 204.471166 268.693483 
L 204.471166 264.929064 
L 212.546964 264.929064 
L 212.546964 261.164645 
L 212.546964 261.164645 
L 212.546964 257.400225 
L 216.189151 257.400225 
L 216.189151 253.635806 
L 216.189151 253.635806 
L 216.189151 249.871386 
L 219.61046 249.871386 
L 219.61046 246.106967 
L 220.270518 246.106967 
L 220.270518 242.342547 
L 220.922946 242.342547 
L 220.922946 238.578128 
L 221.567916 238.578128 
L 221.567916 234.813708 
L 334.242071 234.813708 
L 334.242071 231.049289 
L 334.502738 231.049289 
L 334.502738 227.28487 
L 336.126245 227.28487 
L 336.126245 223.52045 
L 337.786197 223.52045 
L 337.786197 219.756031 
L 338.436744 219.756031 
L 338.436744 215.991611 
L 338.598216 215.991611 
L 338.598216 212.227192 
L 339.557462 212.227192 
L 339.557462 208.462772 
L 340.109584 208.462772 
L 340.109584 204.698353 
L 340.344565 204.698353 
L 340.344565 200.933934 
L 341.734262 200.933934 
L 341.734262 197.169514 
L 341.962588 197.169514 
L 341.962588 193.405095 
L 343.239267 193.405095 
L 343.239267 189.640675 
L 346.835025 189.640675 
L 346.835025 185.876256 
L 346.904654 185.876256 
L 346.904654 182.111836 
L 347.389667 182.111836 
L 347.389667 178.347417 
L 395.657898 178.347417 
L 395.657898 174.582997 
L 396.646469 174.582997 
L 396.646469 170.818578 
L 396.761641 170.818578 
L 396.761641 167.054159 
L 396.991283 167.054159 
L 396.991283 163.289739 
L 398.181805 163.289739 
L 398.181805 159.52532 
L 400.328273 159.52532 
L 400.328273 155.7609 
L 401.715198 155.7609 
L 401.715198 151.996481 
L 403.402254 151.996481 
L 403.402254 148.232061 
L 403.580965 148.232061 
L 403.580965 144.467642 
L 403.911363 144.467642 
L 403.911363 140.703223 
L 404.965771 140.703223 
L 404.965771 136.938803 
L 405.85413 136.938803 
L 405.85413 133.174384 
L 406.147169 133.174384 
L 406.147169 129.409964 
L 406.317409 129.409964 
L 406.317409 125.645545 
L 408.787992 125.645545 
L 408.787992 121.881125 
L 461.8 121.881125 
" style="fill:none;stroke:#f5deb3;stroke-linecap:square;stroke-width:1.5;"/>
   </g>
   <g id="line2d_10">
    <path clip-path="url(#p2f5a13a087)" d="M 229.343645 291.28 
L 229.343645 287.515581 
L 239.539635 287.515581 
L 239.539635 283.751161 
L 240.004118 283.751161 
L 240.004118 272.457903 
L 241.824737 272.457903 
L 241.824737 268.693483 
L 243.152665 268.693483 
L 243.152665 264.929064 
L 248.967218 264.929064 
L 248.967218 261.164645 
L 249.751041 261.164645 
L 249.751041 257.400225 
L 257.384011 257.400225 
L 257.384011 253.635806 
L 261.322887 253.635806 
L 261.322887 249.871386 
L 270.652833 249.871386 
L 270.652833 246.106967 
L 270.92093 246.106967 
L 270.92093 242.342547 
L 280.266157 242.342547 
L 280.266157 238.578128 
L 281.388149 238.578128 
L 281.388149 234.813708 
L 461.8 234.813708 
L 461.8 234.813708 
" style="fill:none;stroke:#f5deb3;stroke-linecap:square;stroke-width:1.5;"/>
   </g>
   <g id="line2d_11">
    <path clip-path="url(#p2f5a13a087)" d="M 121.719434 291.28 
L 121.719434 287.515581 
L 137.954576 287.515581 
L 137.954576 283.751161 
L 140.708015 283.751161 
L 140.708015 279.986742 
L 140.708015 279.986742 
L 140.708015 276.222322 
L 140.708015 276.222322 
L 140.708015 272.457903 
L 143.333341 272.457903 
L 143.333341 268.693483 
L 143.333341 268.693483 
L 143.333341 264.929064 
L 145.841945 264.929064 
L 145.841945 261.164645 
L 145.841945 261.164645 
L 145.841945 257.400225 
L 154.890773 257.400225 
L 154.890773 253.635806 
L 154.890773 253.635806 
L 154.890773 249.871386 
L 166.215487 249.871386 
L 166.215487 246.106967 
L 166.215487 246.106967 
L 166.215487 242.342547 
L 172.672157 242.342547 
L 172.672157 238.578128 
L 174.177161 238.578128 
L 174.177161 234.813708 
L 295.989032 234.813708 
L 295.989032 231.049289 
L 300.440175 231.049289 
L 300.440175 227.28487 
L 300.440175 227.28487 
L 300.440175 223.52045 
L 300.913752 223.52045 
L 300.913752 219.756031 
L 302.003552 219.756031 
L 302.003552 215.991611 
L 302.921203 215.991611 
L 302.921203 212.227192 
L 303.072705 212.227192 
L 303.072705 208.462772 
L 304.121979 208.462772 
L 304.121979 204.698353 
L 304.418223 204.698353 
L 304.418223 200.933934 
L 307.157591 200.933934 
L 307.157591 197.169514 
L 307.157591 197.169514 
L 307.157591 193.405095 
L 308.272379 193.405095 
L 308.272379 189.640675 
L 308.547669 189.640675 
L 308.547669 185.876256 
L 310.966653 185.876256 
L 310.966653 182.111836 
L 311.359925 182.111836 
L 311.359925 178.347417 
L 461.8 178.347417 
" style="fill:none;stroke:#f5deb3;stroke-linecap:square;stroke-width:1.5;"/>
   </g>
   <g id="line2d_12">
    <path clip-path="url(#p2f5a13a087)" d="M 113.643636 291.28 
L 113.643636 287.515581 
L 113.643636 287.515581 
L 113.643636 283.751161 
L 113.643636 283.751161 
L 113.643636 279.986742 
L 113.643636 279.986742 
L 113.643636 276.222322 
L 113.643636 276.222322 
L 113.643636 272.457903 
L 113.643636 272.457903 
L 113.643636 268.693483 
L 113.643636 268.693483 
L 113.643636 264.929064 
L 113.643636 264.929064 
L 113.643636 261.164645 
L 113.643636 261.164645 
L 113.643636 257.400225 
L 113.643636 257.400225 
L 113.643636 253.635806 
L 113.643636 253.635806 
L 113.643636 249.871386 
L 113.643636 249.871386 
L 113.643636 246.106967 
L 113.643636 246.106967 
L 113.643636 242.342547 
L 113.643636 242.342547 
L 113.643636 238.578128 
L 113.643636 238.578128 
L 113.643636 234.813708 
L 135.059874 234.813708 
L 135.059874 231.049289 
L 135.059874 231.049289 
L 135.059874 227.28487 
L 150.54753 227.28487 
L 150.54753 223.52045 
L 162.687193 223.52045 
L 162.687193 219.756031 
L 162.687193 219.756031 
L 162.687193 215.991611 
L 162.687193 215.991611 
L 162.687193 212.227192 
L 162.687193 212.227192 
L 162.687193 208.462772 
L 162.687193 208.462772 
L 162.687193 204.698353 
L 162.687193 204.698353 
L 162.687193 200.933934 
L 162.687193 200.933934 
L 162.687193 197.169514 
L 162.687193 197.169514 
L 162.687193 193.405095 
L 172.672157 193.405095 
L 172.672157 189.640675 
L 172.672157 189.640675 
L 172.672157 185.876256 
L 172.672157 185.876256 
L 172.672157 182.111836 
L 181.153231 182.111836 
L 181.153231 178.347417 
L 320.83773 178.347417 
L 320.83773 174.582997 
L 322.147676 174.582997 
L 322.147676 170.818578 
L 323.427904 170.818578 
L 323.427904 167.054159 
L 324.05729 167.054159 
L 324.05729 163.289739 
L 326.506903 163.289739 
L 326.506903 159.52532 
L 333.804933 159.52532 
L 333.804933 155.7609 
L 334.848432 155.7609 
L 334.848432 151.996481 
L 338.274809 151.996481 
L 338.274809 148.232061 
L 338.83956 148.232061 
L 338.83956 144.467642 
L 338.83956 144.467642 
L 338.83956 140.703223 
L 344.777481 140.703223 
L 344.777481 136.938803 
L 346.063382 136.938803 
L 346.063382 133.174384 
L 346.415437 133.174384 
L 346.415437 129.409964 
L 355.054629 129.409964 
L 355.054629 125.645545 
L 355.414849 125.645545 
L 355.414849 121.881125 
L 355.414849 121.881125 
L 355.414849 121.881125 
L 450.672 121.881125 
" style="fill:none;stroke:#f5deb3;stroke-linecap:square;stroke-width:1.5;"/>
   </g>
   <g id="line2d_13">
    <path clip-path="url(#p2f5a13a087)" d="M 297.845036 291.28 
L 297.845036 287.515581 
L 297.845036 287.515581 
L 297.845036 283.751161 
L 297.845036 283.751161 
L 297.845036 279.986742 
L 302.616975 279.986742 
L 302.616975 276.222322 
L 302.616975 276.222322 
L 302.616975 272.457903 
L 302.616975 272.457903 
L 302.616975 268.693483 
L 303.072705 268.693483 
L 303.072705 264.929064 
L 303.072705 264.929064 
L 303.072705 261.164645 
L 303.072705 261.164645 
L 303.072705 257.400225 
L 313.159805 257.400225 
L 313.159805 253.635806 
L 313.159805 253.635806 
L 313.159805 249.871386 
L 313.159805 249.871386 
L 313.159805 246.106967 
L 319.496653 246.106967 
L 319.496653 242.342547 
L 319.496653 242.342547 
L 319.496653 238.578128 
L 319.496653 238.578128 
L 319.496653 234.813708 
L 416.184114 234.813708 
L 416.184114 231.049289 
L 417.792038 231.049289 
L 417.792038 227.28487 
L 417.792038 227.28487 
L 417.792038 223.52045 
L 418.57914 223.52045 
L 418.57914 219.756031 
L 421.007825 219.756031 
L 421.007825 215.991611 
L 421.007825 215.991611 
L 421.007825 212.227192 
L 423.048174 212.227192 
L 423.048174 208.462772 
L 423.048174 208.462772 
L 423.048174 204.698353 
L 423.084269 204.698353 
L 423.084269 200.933934 
L 423.084269 200.933934 
L 423.084269 197.169514 
L 423.084269 197.169514 
L 423.084269 193.405095 
L 423.961458 193.405095 
L 423.961458 189.640675 
L 423.961458 189.640675 
L 423.961458 185.876256 
L 426.581939 185.876256 
L 426.581939 182.111836 
L 429.763339 182.111836 
L 429.763339 178.347417 
L 438.86201 178.347417 
L 438.86201 174.582997 
L 438.86201 174.582997 
L 438.86201 170.818578 
L 439.835739 170.818578 
L 439.835739 167.054159 
L 439.835739 167.054159 
L 439.835739 163.289739 
L 439.849146 163.289739 
L 439.849146 159.52532 
L 439.942901 159.52532 
L 439.942901 155.7609 
L 441.317804 155.7609 
L 441.317804 151.996481 
L 441.941251 151.996481 
L 441.941251 148.232061 
L 441.941251 148.232061 
L 441.941251 144.467642 
L 441.941251 144.467642 
L 441.941251 140.703223 
L 442.404357 140.703223 
L 442.404357 136.938803 
L 448.322113 136.938803 
L 448.322113 133.174384 
L 448.322113 133.174384 
L 448.322113 129.409964 
L 453.572788 129.409964 
L 453.572788 125.645545 
L 453.572788 125.645545 
L 453.572788 121.881125 
L 453.572788 121.881125 
" style="fill:none;stroke:#f5deb3;stroke-linecap:square;stroke-width:1.5;"/>
   </g>
   <g id="line2d_14">
    <path clip-path="url(#p2f5a13a087)" d="M 169.536111 291.28 
L 169.536111 287.515581 
L 169.536111 287.515581 
L 169.536111 283.751161 
L 171.125915 283.751161 
L 171.125915 279.986742 
L 174.177161 279.986742 
L 174.177161 276.222322 
L 178.465374 276.222322 
L 178.465374 272.457903 
L 178.465374 272.457903 
L 178.465374 268.693483 
L 178.465374 268.693483 
L 178.465374 264.929064 
L 182.450628 264.929064 
L 182.450628 261.164645 
L 184.959233 261.164645 
L 184.959233 257.400225 
L 184.959233 257.400225 
L 184.959233 253.635806 
L 184.959233 253.635806 
L 184.959233 249.871386 
L 184.959233 249.871386 
L 184.959233 246.106967 
L 184.959233 246.106967 
L 184.959233 242.342547 
L 184.959233 242.342547 
L 184.959233 238.578128 
L 184.959233 238.578128 
L 184.959233 234.813708 
L 253.877646 234.813708 
L 253.877646 231.049289 
L 257.722956 231.049289 
L 257.722956 227.28487 
L 261.004946 227.28487 
L 261.004946 223.52045 
L 262.886264 223.52045 
L 262.886264 219.756031 
L 262.886264 219.756031 
L 262.886264 215.991611 
L 264.106513 215.991611 
L 264.106513 212.227192 
L 264.706884 212.227192 
L 264.706884 208.462772 
L 265.300935 208.462772 
L 265.300935 204.698353 
L 267.616514 204.698353 
L 267.616514 200.933934 
L 268.739622 200.933934 
L 268.739622 197.169514 
L 271.187759 197.169514 
L 271.187759 193.405095 
L 271.98076 193.405095 
L 271.98076 189.640675 
L 273.788879 189.640675 
L 273.788879 185.876256 
L 273.788879 185.876256 
L 273.788879 182.111836 
L 282.705741 182.111836 
L 282.705741 178.347417 
L 403.987334 178.347417 
L 403.987334 174.582997 
L 412.585404 174.582997 
L 412.585404 170.818578 
L 428.087835 170.818578 
L 428.087835 167.054159 
L 449.43016 167.054159 
L 449.43016 163.289739 
L 461.8 163.289739 
" style="fill:none;stroke:#f5deb3;stroke-linecap:square;stroke-width:1.5;"/>
   </g>
   <g id="line2d_15">
    <path clip-path="url(#p2f5a13a087)" style="fill:none;stroke:#f5deb3;stroke-linecap:square;stroke-width:1.5;"/>
   </g>
   <g id="line2d_16">
    <path clip-path="url(#p2f5a13a087)" d="M 321.496504 291.28 
L 321.496504 287.515581 
L 327.201794 287.515581 
L 327.201794 279.986742 
L 332.83114 279.986742 
L 332.83114 276.222322 
L 336.378372 276.222322 
L 336.378372 272.457903 
L 337.949538 272.457903 
L 338.031032 261.164645 
L 338.112408 261.164645 
L 338.193667 253.635806 
L 338.598216 253.635806 
L 338.598216 249.871386 
L 340.344565 249.871386 
L 340.344565 246.106967 
L 340.500676 246.106967 
L 340.500676 242.342547 
L 344.487702 242.342547 
L 344.487702 238.578128 
L 350.477213 238.578128 
L 350.477213 234.813708 
L 390.082268 234.813708 
L 390.082268 231.049289 
L 392.148525 231.049289 
L 392.148525 227.28487 
L 393.199935 227.28487 
L 393.199935 223.52045 
L 393.444504 223.52045 
L 393.444504 219.756031 
L 393.900235 219.756031 
L 393.900235 215.991611 
L 396.299536 215.991611 
L 396.299536 212.227192 
L 398.628811 212.227192 
L 398.628811 208.462772 
L 398.961758 208.462772 
L 398.961758 204.698353 
L 400.678213 204.698353 
L 400.678213 200.933934 
L 401.609713 200.933934 
L 401.609713 197.169514 
L 402.187454 197.169514 
L 402.187454 193.405095 
L 402.888511 193.405095 
L 402.888511 189.640675 
L 403.299879 189.640675 
L 403.299879 185.876256 
L 404.566411 185.876256 
L 404.566411 182.111836 
L 404.766445 182.111836 
L 404.766445 178.347417 
L 404.916006 178.347417 
L 404.916006 174.582997 
L 405.73158 174.582997 
L 405.73158 170.818578 
L 406.171521 170.818578 
L 406.171521 167.054159 
L 408.461647 167.054159 
L 408.461647 163.289739 
L 409.824359 163.289739 
L 409.824359 159.52532 
L 410.998705 159.52532 
L 410.998705 155.7609 
L 412.149111 155.7609 
L 412.149111 151.996481 
L 413.104543 151.996481 
L 413.104543 148.232061 
L 415.362639 148.232061 
L 415.445327 140.703223 
L 415.527894 140.703223 
L 415.527894 136.938803 
L 416.407939 136.938803 
L 416.407939 133.174384 
L 416.893224 133.174384 
L 416.953593 125.645545 
L 417.533848 125.645545 
L 417.533848 121.881125 
L 418.049052 121.881125 
L 418.049052 118.116706 
L 418.910363 118.116706 
L 418.910363 114.352287 
L 419.873429 114.352287 
L 419.873429 110.587867 
L 420.707542 110.587867 
L 420.707542 106.823448 
L 420.989105 106.823448 
L 420.989105 103.059028 
L 422.704117 103.059028 
L 422.704117 99.294609 
L 423.246411 99.294609 
L 423.246411 95.530189 
L 423.783544 95.530189 
L 423.783544 91.76577 
L 425.882366 91.76577 
L 425.882366 88.00135 
L 429.586756 88.00135 
L 429.586756 84.236931 
L 432.025413 84.236931 
L 432.025413 80.472512 
L 441.721233 80.472512 
L 441.721233 76.708092 
L 454.386758 76.708092 
L 454.386758 72.943673 
L 454.933217 72.943673 
L 454.933217 69.179253 
L 461.8 69.179253 
L 461.8 69.179253 
" style="fill:none;stroke:#f5deb3;stroke-linecap:square;stroke-width:1.5;"/>
   </g>
   <g id="line2d_17">
    <path clip-path="url(#p2f5a13a087)" d="M 240.004118 291.28 
L 240.004118 287.515581 
L 246.134794 287.515581 
L 246.134794 283.751161 
L 259.387806 283.751161 
L 259.387806 279.986742 
L 271.187759 279.986742 
L 271.187759 276.222322 
L 273.021054 276.222322 
L 273.021054 272.457903 
L 288.868329 272.457903 
L 288.868329 268.693483 
L 293.713852 268.693483 
L 293.713852 264.929064 
L 293.89216 264.929064 
L 293.89216 261.164645 
L 297.177167 261.164645 
L 297.177167 257.400225 
L 312.52356 257.400225 
L 312.52356 253.635806 
L 324.473014 253.635806 
L 324.473014 249.871386 
L 325.193243 249.871386 
L 325.193243 246.106967 
L 325.702122 246.106967 
L 325.702122 242.342547 
L 357.182248 242.342547 
L 357.182248 238.578128 
L 357.586797 238.578128 
L 357.586797 234.813708 
L 461.8 234.813708 
" style="fill:none;stroke:#f5deb3;stroke-linecap:square;stroke-width:1.5;"/>
   </g>
   <g id="line2d_18">
    <path clip-path="url(#p2f5a13a087)" d="M 109.12648 291.28 
L 109.12648 287.515581 
L 109.12648 287.515581 
L 109.12648 283.751161 
L 109.12648 283.751161 
L 109.12648 279.986742 
L 109.12648 279.986742 
L 109.12648 276.222322 
L 109.12648 276.222322 
L 109.12648 272.457903 
L 109.12648 272.457903 
L 109.12648 268.693483 
L 109.12648 268.693483 
L 109.12648 264.929064 
L 109.12648 264.929064 
L 109.12648 261.164645 
L 109.12648 261.164645 
L 109.12648 257.400225 
L 109.12648 257.400225 
L 109.12648 253.635806 
L 109.12648 253.635806 
L 109.12648 249.871386 
L 109.12648 249.871386 
L 109.12648 246.106967 
L 109.12648 246.106967 
L 109.12648 242.342547 
L 109.12648 242.342547 
L 109.12648 238.578128 
L 109.12648 238.578128 
L 109.12648 234.813708 
L 113.643636 234.813708 
L 113.643636 231.049289 
L 113.643636 231.049289 
L 113.643636 227.28487 
L 113.643636 227.28487 
L 113.643636 223.52045 
L 113.643636 223.52045 
L 113.643636 219.756031 
L 113.643636 219.756031 
L 113.643636 215.991611 
L 117.825869 215.991611 
L 117.825869 212.227192 
L 121.719434 212.227192 
L 121.719434 208.462772 
L 125.361622 208.462772 
L 125.361622 204.698353 
L 125.361622 204.698353 
L 125.361622 200.933934 
L 128.782931 200.933934 
L 128.782931 197.169514 
L 128.782931 197.169514 
L 128.782931 193.405095 
L 128.782931 193.405095 
L 128.782931 189.640675 
L 128.782931 189.640675 
L 128.782931 185.876256 
L 132.008627 185.876256 
L 132.008627 182.111836 
L 140.708015 182.111836 
L 140.708015 178.347417 
L 461.8 178.347417 
" style="fill:none;stroke:#f5deb3;stroke-linecap:square;stroke-width:1.5;"/>
   </g>
   <g id="line2d_19">
    <path clip-path="url(#p2f5a13a087)" d="M 340.422674 291.28 
L 340.422674 287.515581 
L 350.280919 287.515581 
L 350.280919 283.751161 
L 360.722843 283.751161 
L 360.722843 279.986742 
L 377.107588 279.986742 
L 377.107588 276.222322 
L 377.996972 276.222322 
L 377.996972 272.457903 
L 380.813406 272.457903 
L 380.813406 268.693483 
L 384.897435 268.693483 
L 384.897435 264.929064 
L 387.294821 264.929064 
L 387.294821 261.164645 
L 389.00356 261.164645 
L 389.00356 257.400225 
L 392.366599 257.400225 
L 392.366599 253.635806 
L 394.890073 253.635806 
L 394.890073 249.871386 
L 397.731229 249.871386 
L 397.731229 246.106967 
L 399.044689 246.106967 
L 399.044689 242.342547 
L 406.583895 242.342547 
L 406.583895 238.578128 
L 416.549912 238.578128 
L 416.549912 234.813708 
L 461.8 234.813708 
L 461.8 234.813708 
" style="fill:none;stroke:#f5deb3;stroke-linecap:square;stroke-width:1.5;"/>
   </g>
   <g id="line2d_20">
    <path clip-path="url(#p2f5a13a087)" d="M 121.719434 291.28 
L 121.719434 287.515581 
L 128.782931 287.515581 
L 128.782931 283.751161 
L 132.008627 283.751161 
L 132.008627 279.986742 
L 132.008627 279.986742 
L 132.008627 276.222322 
L 140.708015 276.222322 
L 140.708015 272.457903 
L 145.841945 272.457903 
L 145.841945 268.693483 
L 148.243768 268.693483 
L 148.243768 264.929064 
L 152.760924 264.929064 
L 152.760924 261.164645 
L 154.890773 261.164645 
L 154.890773 257.400225 
L 154.890773 257.400225 
L 154.890773 253.635806 
L 156.943157 253.635806 
L 156.943157 249.871386 
L 160.836722 249.871386 
L 160.836722 246.106967 
L 164.47891 246.106967 
L 164.47891 242.342547 
L 166.215487 242.342547 
L 166.215487 238.578128 
L 171.125915 238.578128 
L 171.125915 234.813708 
L 265.595632 234.813708 
L 265.595632 231.049289 
L 270.652833 231.049289 
L 270.652833 227.28487 
L 270.92093 227.28487 
L 270.92093 223.52045 
L 271.717663 223.52045 
L 271.717663 219.756031 
L 272.762773 219.756031 
L 272.762773 215.991611 
L 274.042517 215.991611 
L 274.042517 212.227192 
L 275.04582 212.227192 
L 275.04582 208.462772 
L 275.786763 208.462772 
L 275.786763 204.698353 
L 277.952951 204.698353 
L 277.952951 200.933934 
L 278.42324 200.933934 
L 278.42324 197.169514 
L 280.942025 197.169514 
L 280.942025 193.405095 
L 282.269953 193.405095 
L 282.269953 189.640675 
L 284.626187 189.640675 
L 284.626187 185.876256 
L 287.688474 185.876256 
L 287.688474 182.111836 
L 287.886838 182.111836 
L 287.886838 178.347417 
L 310.70294 178.347417 
L 310.70294 174.582997 
L 326.105947 174.582997 
L 326.105947 170.818578 
L 329.804692 170.818578 
L 329.804692 167.054159 
L 331.931052 167.054159 
L 331.931052 163.289739 
L 339.873622 163.289739 
L 339.873622 159.52532 
L 340.500676 159.52532 
L 340.500676 155.7609 
L 343.609329 155.7609 
L 343.609329 151.996481 
L 350.08394 151.996481 
L 350.08394 148.232061 
L 351.959867 148.232061 
L 351.959867 144.467642 
L 363.745413 144.467642 
L 363.745413 140.703223 
L 367.490771 140.703223 
L 367.490771 136.938803 
L 372.614196 136.938803 
L 372.614196 133.174384 
L 378.35681 133.174384 
L 378.35681 129.409964 
L 389.692392 129.409964 
L 389.692392 125.645545 
L 397.47619 125.645545 
L 397.47619 121.881125 
L 461.8 121.881125 
" style="fill:none;stroke:#f5deb3;stroke-linecap:square;stroke-width:1.5;"/>
   </g>
   <g id="line2d_21">
    <path clip-path="url(#p2f5a13a087)" d="M 373.749909 291.28 
L 373.836333 272.457903 
L 373.879495 272.457903 
L 373.96572 261.164645 
L 374.008783 261.164645 
L 374.094811 249.871386 
L 385.286517 249.871386 
L 385.321755 193.405095 
L 385.812797 193.405095 
L 385.882598 136.938803 
L 386.299602 136.938803 
L 386.403374 121.881125 
L 386.575903 121.881125 
L 386.575903 118.116706 
L 386.713548 118.116706 
L 386.816561 103.059028 
L 386.885133 103.059028 
L 386.953621 95.530189 
L 387.056198 95.530189 
L 387.124479 88.00135 
L 387.362814 88.00135 
L 387.362814 84.236931 
L 387.53244 84.236931 
L 387.53244 72.943673 
L 387.836486 72.943673 
L 387.937472 65.414834 
L 388.004696 65.414834 
L 388.004696 61.650414 
L 393.627238 61.650414 
L 393.627238 57.885995 
L 393.748733 57.885995 
L 393.748733 50.357156 
L 396.241506 50.357156 
L 396.241506 46.592737 
L 396.415417 46.592737 
L 396.415417 35.299478 
L 396.876579 35.299478 
L 396.876579 27.770639 
L 397.134335 27.770639 
L 397.134335 20.241801 
L 397.134335 20.241801 
L 450.672 20.241801 
L 450.672 20.241801 
" style="fill:none;stroke:#f5deb3;stroke-linecap:square;stroke-width:1.5;"/>
   </g>
   <g id="line2d_22">
    <path clip-path="url(#p2f5a13a087)" d="M 132.008627 291.28 
L 132.008627 287.515581 
L 132.008627 287.515581 
L 132.008627 283.751161 
L 140.708015 283.751161 
L 140.708015 279.986742 
L 143.333341 279.986742 
L 143.333341 276.222322 
L 150.54753 276.222322 
L 150.54753 272.457903 
L 150.54753 272.457903 
L 150.54753 268.693483 
L 150.54753 268.693483 
L 150.54753 264.929064 
L 156.943157 264.929064 
L 156.943157 261.164645 
L 171.125915 261.164645 
L 171.125915 257.400225 
L 178.465374 257.400225 
L 178.465374 253.635806 
L 179.825303 253.635806 
L 179.825303 249.871386 
L 186.172921 249.871386 
L 186.172921 246.106967 
L 188.524691 246.106967 
L 188.524691 242.342547 
L 234.16087 242.342547 
L 234.16087 238.578128 
L 243.588453 238.578128 
L 243.588453 234.813708 
L 269.840814 234.813708 
L 269.840814 231.049289 
L 270.92093 231.049289 
L 270.92093 227.28487 
L 271.717663 227.28487 
L 271.717663 223.52045 
L 273.278158 223.52045 
L 273.278158 219.756031 
L 274.546398 219.756031 
L 274.546398 215.991611 
L 275.540861 215.991611 
L 275.540861 212.227192 
L 275.786763 212.227192 
L 275.786763 208.462772 
L 276.275375 208.462772 
L 276.275375 204.698353 
L 276.518103 204.698353 
L 276.518103 200.933934 
L 278.889642 200.933934 
L 278.889642 197.169514 
L 279.352221 197.169514 
L 279.352221 193.405095 
L 280.942025 193.405095 
L 280.942025 189.640675 
L 281.165528 189.640675 
L 281.165528 185.876256 
L 282.92238 185.876256 
L 282.92238 182.111836 
L 286.483425 182.111836 
L 286.483425 178.347417 
L 323.00438 178.347417 
L 323.00438 174.582997 
L 328.950329 174.582997 
L 328.950329 170.818578 
L 331.2005 170.818578 
L 331.2005 167.054159 
L 332.292812 167.054159 
L 332.292812 163.289739 
L 335.363034 163.289739 
L 335.363034 159.52532 
L 337.949538 159.52532 
L 337.949538 155.7609 
L 345.637995 155.7609 
L 345.637995 151.996481 
L 350.346426 151.996481 
L 350.346426 148.232061 
L 351.126636 148.232061 
L 351.126636 144.467642 
L 352.529596 144.467642 
L 352.529596 140.703223 
L 354.449105 140.703223 
L 354.449105 136.938803 
L 354.449105 136.938803 
L 354.449105 133.174384 
L 355.295031 133.174384 
L 355.295031 129.409964 
L 355.653725 129.409964 
L 355.653725 125.645545 
L 387.937472 125.645545 
L 387.937472 121.881125 
L 461.8 121.881125 
" style="fill:none;stroke:#f5deb3;stroke-linecap:square;stroke-width:1.5;"/>
   </g>
   <g id="line2d_23">
    <path clip-path="url(#p2f5a13a087)" d="M 216.890208 291.28 
L 216.890208 287.515581 
L 237.158087 287.515581 
L 237.158087 283.751161 
L 239.539635 283.751161 
L 239.539635 279.986742 
L 240.921769 279.986742 
L 240.921769 276.222322 
L 248.172356 276.222322 
L 248.172356 272.457903 
L 248.172356 272.457903 
L 248.172356 268.693483 
L 254.23825 268.693483 
L 254.23825 264.929064 
L 254.596564 264.929064 
L 254.596564 261.164645 
L 256.007496 261.164645 
L 256.007496 257.400225 
L 256.354785 257.400225 
L 256.354785 253.635806 
L 256.69995 253.635806 
L 256.69995 249.871386 
L 266.180448 249.871386 
L 266.180448 246.106967 
L 272.503304 246.106967 
L 272.503304 242.342547 
L 276.759792 242.342547 
L 276.759792 238.578128 
L 287.089166 238.578128 
L 287.089166 234.813708 
L 454.283057 234.813708 
L 454.283057 231.049289 
L 459.91884 231.049289 
L 459.91884 227.28487 
L 460.059563 227.28487 
L 460.059563 223.52045 
L 461.8 223.52045 
" style="fill:none;stroke:#f5deb3;stroke-linecap:square;stroke-width:1.5;"/>
   </g>
   <g id="line2d_24">
    <path clip-path="url(#p2f5a13a087)" d="M 268.739622 291.28 
L 268.739622 287.515581 
L 268.739622 287.515581 
L 268.739622 283.751161 
L 269.016941 283.751161 
L 269.016941 279.986742 
L 279.811039 279.986742 
L 279.811039 276.222322 
L 279.811039 276.222322 
L 279.811039 272.457903 
L 280.039057 272.457903 
L 280.039057 268.693483 
L 290.024021 268.693483 
L 290.024021 264.929064 
L 290.024021 264.929064 
L 290.024021 261.164645 
L 290.214356 261.164645 
L 290.214356 257.400225 
L 290.404051 257.400225 
L 290.404051 253.635806 
L 298.668909 253.635806 
L 298.668909 249.871386 
L 298.668909 249.871386 
L 298.668909 246.106967 
L 298.83225 246.106967 
L 298.83225 242.342547 
L 298.99512 242.342547 
L 298.99512 238.578128 
L 312.778919 238.578128 
L 312.778919 234.813708 
L 371.229509 234.813708 
L 371.229509 231.049289 
L 376.821637 231.049289 
L 376.821637 227.28487 
L 376.903485 227.28487 
L 376.903485 223.52045 
L 380.927761 223.52045 
L 380.927761 219.756031 
L 381.533773 219.756031 
L 381.533773 215.991611 
L 382.096059 215.991611 
L 382.096059 212.227192 
L 382.356554 212.227192 
L 382.356554 208.462772 
L 385.987138 208.462772 
L 385.987138 204.698353 
L 386.506954 204.698353 
L 386.506954 200.933934 
L 387.158589 200.933934 
L 387.158589 197.169514 
L 388.506338 197.169514 
L 388.506338 193.405095 
L 389.036553 193.405095 
L 389.036553 189.640675 
L 389.920146 189.640675 
L 389.920146 185.876256 
L 396.761641 185.876256 
L 396.761641 182.111836 
L 398.461599 182.111836 
L 398.461599 178.347417 
L 400.003315 178.347417 
L 400.003315 174.582997 
L 400.543878 174.582997 
L 400.543878 170.818578 
L 404.691515 170.818578 
L 404.691515 167.054159 
L 407.661147 167.054159 
L 407.661147 163.289739 
L 407.897769 163.289739 
L 407.897769 159.52532 
L 410.797193 159.52532 
L 410.797193 155.7609 
L 410.998705 155.7609 
L 410.998705 151.996481 
L 411.48828 151.996481 
L 411.48828 148.232061 
L 413.61895 148.232061 
L 413.61895 144.467642 
L 414.717669 144.467642 
L 414.717669 140.703223 
L 415.093065 140.703223 
L 415.093065 136.938803 
L 415.897956 136.938803 
L 415.897956 133.174384 
L 416.082081 133.174384 
L 416.082081 129.409964 
L 416.326651 129.409964 
L 416.326651 125.645545 
L 419.181682 125.645545 
L 419.181682 121.881125 
L 461.8 121.881125 
" style="fill:none;stroke:#f5deb3;stroke-linecap:square;stroke-width:1.5;"/>
   </g>
   <g id="line2d_25">
    <path clip-path="url(#p2f5a13a087)" d="M 230.450236 291.28 
L 230.450236 287.515581 
L 240.004118 287.515581 
L 240.004118 283.751161 
L 242.270861 283.751161 
L 242.270861 279.986742 
L 247.770686 279.986742 
L 247.770686 276.222322 
L 248.967218 276.222322 
L 248.967218 272.457903 
L 256.007496 272.457903 
L 256.007496 268.693483 
L 256.354785 268.693483 
L 256.354785 264.929064 
L 257.043017 264.929064 
L 257.043017 261.164645 
L 257.043017 261.164645 
L 257.043017 257.400225 
L 258.059879 257.400225 
L 258.059879 253.635806 
L 260.36364 253.635806 
L 260.36364 249.871386 
L 261.639046 249.871386 
L 261.639046 246.106967 
L 274.29502 246.106967 
L 274.29502 242.342547 
L 275.04582 242.342547 
L 275.04582 238.578128 
L 276.031598 238.578128 
L 276.031598 234.813708 
L 461.8 234.813708 
" style="fill:none;stroke:#f5deb3;stroke-linecap:square;stroke-width:1.5;"/>
   </g>
   <g id="line2d_26">
    <path clip-path="url(#p2f5a13a087)" d="M 332.472825 291.28 
L 332.472825 287.515581 
L 332.83114 287.515581 
L 332.83114 283.751161 
L 333.09839 283.751161 
L 333.09839 279.986742 
L 335.618586 279.986742 
L 335.618586 276.222322 
L 337.704349 276.222322 
L 337.704349 272.457903 
L 338.031032 272.457903 
L 338.031032 268.693483 
L 338.193667 268.693483 
L 338.274809 257.400225 
L 340.57857 257.400225 
L 340.57857 253.635806 
L 341.12084 253.635806 
L 341.12084 249.871386 
L 343.239267 249.871386 
L 343.239267 246.106967 
L 343.683051 246.106967 
L 343.683051 242.342547 
L 344.921814 242.342547 
L 344.921814 238.578128 
L 345.137624 238.578128 
L 345.137624 234.813708 
L 388.205888 234.813708 
L 388.205888 231.049289 
L 388.606133 231.049289 
L 388.606133 227.28487 
L 389.00356 227.28487 
L 389.00356 223.52045 
L 389.496439 223.52045 
L 389.496439 219.756031 
L 391.394381 219.756031 
L 391.394381 215.991611 
L 392.273242 215.991611 
L 392.273242 212.227192 
L 393.900235 212.227192 
L 393.900235 204.698353 
L 394.021144 204.698353 
L 394.021144 200.933934 
L 394.412319 200.933934 
L 394.442297 189.640675 
L 394.621834 189.640675 
L 394.621834 185.876256 
L 395.481633 185.876256 
L 395.481633 182.111836 
L 395.979629 182.111836 
L 395.979629 178.347417 
L 396.502173 178.347417 
L 396.502173 174.582997 
L 413.018351 174.582997 
L 413.018351 170.818578 
L 417.653159 170.818578 
L 417.653159 167.054159 
L 417.831655 167.054159 
L 417.831655 163.289739 
L 418.65725 163.289739 
L 418.65725 159.52532 
L 431.203351 159.52532 
L 431.203351 155.7609 
L 450.00413 155.7609 
L 450.00413 151.996481 
L 454.531621 151.996481 
L 454.531621 148.232061 
L 455.808817 148.232061 
L 455.808817 144.467642 
L 459.881255 144.467642 
L 459.881255 140.703223 
L 460.526119 140.703223 
L 460.526119 136.938803 
L 460.933522 136.938803 
L 460.933522 133.174384 
L 461.163697 133.174384 
L 461.163697 129.409964 
L 461.447817 129.409964 
L 461.502643 121.881125 
L 461.639476 121.881125 
L 461.639476 118.116706 
L 461.794153 118.116706 
L 461.794153 114.352287 
L 461.8 114.352287 
" style="fill:none;stroke:#f5deb3;stroke-linecap:square;stroke-width:1.5;"/>
   </g>
   <g id="line2d_27">
    <path clip-path="url(#p2f5a13a087)" d="M 311.098048 291.28 
L 311.098048 287.515581 
L 323.848274 287.515581 
L 323.848274 283.751161 
L 325.702122 283.751161 
L 325.702122 279.986742 
L 328.276766 279.986742 
L 328.276766 276.222322 
L 329.710399 276.222322 
L 329.710399 272.457903 
L 337.45809 272.457903 
L 337.45809 268.693483 
L 345.495484 268.693483 
L 345.495484 264.929064 
L 345.566785 264.929064 
L 345.566785 261.164645 
L 347.59626 261.164645 
L 347.59626 257.400225 
L 350.73788 257.400225 
L 350.73788 253.635806 
L 360.77729 253.635806 
L 360.77729 249.871386 
L 361.04874 249.871386 
L 361.04874 246.106967 
L 443.570868 246.106967 
L 443.570868 242.342547 
L 445.821898 242.342547 
L 445.821898 238.578128 
L 446.361943 238.578128 
L 446.361943 234.813708 
L 446.635983 234.813708 
L 446.635983 231.049289 
L 447.578935 231.049289 
L 447.578935 227.28487 
L 449.475389 227.28487 
L 449.475389 223.52045 
L 449.689732 223.52045 
L 449.689732 219.756031 
L 449.824689 219.756031 
L 449.824689 215.991611 
L 450.38356 215.991611 
L 450.38356 212.227192 
L 450.79359 212.227192 
L 450.79359 208.462772 
L 453.161357 208.462772 
L 453.161357 204.698353 
L 461.603019 204.698353 
L 461.603019 200.933934 
L 461.8 200.933934 
" style="fill:none;stroke:#f5deb3;stroke-linecap:square;stroke-width:1.5;"/>
   </g>
   <g id="line2d_28">
    <path clip-path="url(#p2f5a13a087)" d="M 183.718869 291.28 
L 183.718869 287.515581 
L 205.332775 287.515581 
L 205.332775 283.751161 
L 220.270518 283.751161 
L 220.270518 279.986742 
L 220.270518 279.986742 
L 220.270518 276.222322 
L 221.567916 276.222322 
L 221.567916 272.457903 
L 227.641979 272.457903 
L 227.641979 268.693483 
L 232.600375 268.693483 
L 232.600375 264.929064 
L 232.600375 264.929064 
L 232.600375 261.164645 
L 233.125349 261.164645 
L 233.125349 257.400225 
L 242.713485 257.400225 
L 242.713485 253.635806 
L 243.152665 253.635806 
L 243.152665 249.871386 
L 243.152665 249.871386 
L 243.152665 246.106967 
L 251.664252 246.106967 
L 251.664252 242.342547 
L 264.407497 242.342547 
L 264.407497 238.578128 
L 271.453333 238.578128 
L 271.453333 234.813708 
L 353.342514 234.813708 
L 353.342514 231.049289 
L 353.837013 231.049289 
L 353.837013 227.28487 
L 354.266173 227.28487 
L 354.266173 223.52045 
L 354.57073 223.52045 
L 354.57073 219.756031 
L 354.934043 219.756031 
L 354.934043 215.991611 
L 356.54061 215.991611 
L 356.54061 212.227192 
L 356.774778 212.227192 
L 356.774778 208.462772 
L 357.182248 208.462772 
L 357.182248 204.698353 
L 357.873995 204.698353 
L 357.873995 200.933934 
L 358.273633 200.933934 
L 358.273633 197.169514 
L 359.622724 197.169514 
L 359.622724 193.405095 
L 359.955018 193.405095 
L 359.955018 189.640675 
L 364.105688 189.640675 
L 364.105688 185.876256 
L 366.368391 185.876256 
L 366.368391 182.111836 
L 368.401408 182.111836 
L 368.401408 178.347417 
L 373.749909 178.347417 
L 373.749909 174.582997 
L 380.238128 174.582997 
L 380.238128 170.818578 
L 381.909252 170.818578 
L 381.909252 167.054159 
L 382.800339 167.054159 
L 382.800339 163.289739 
L 385.03923 163.289739 
L 385.03923 159.52532 
L 387.158589 159.52532 
L 387.158589 155.7609 
L 388.539623 155.7609 
L 388.539623 151.996481 
L 389.266964 151.996481 
L 389.266964 148.232061 
L 389.332624 148.232061 
L 389.332624 144.467642 
L 389.790113 144.467642 
L 389.790113 140.703223 
L 391.17251 140.703223 
L 391.17251 136.938803 
L 392.645747 136.938803 
L 392.645747 133.174384 
L 394.800801 133.174384 
L 394.800801 129.409964 
L 400.892487 129.409964 
L 400.892487 125.645545 
L 403.35109 125.645545 
L 403.35109 121.881125 
L 461.8 121.881125 
" style="fill:none;stroke:#f5deb3;stroke-linecap:square;stroke-width:1.5;"/>
   </g>
   <g id="line2d_29">
    <path clip-path="url(#p2f5a13a087)" d="M 98.837288 291.28 
L 98.837288 287.515581 
L 98.837288 287.515581 
L 98.837288 283.751161 
L 98.837288 283.751161 
L 98.837288 279.986742 
L 98.837288 279.986742 
L 98.837288 276.222322 
L 98.837288 276.222322 
L 98.837288 272.457903 
L 98.837288 272.457903 
L 98.837288 268.693483 
L 98.837288 268.693483 
L 98.837288 264.929064 
L 98.837288 264.929064 
L 98.837288 261.164645 
L 98.837288 261.164645 
L 98.837288 257.400225 
L 98.837288 257.400225 
L 98.837288 253.635806 
L 98.837288 253.635806 
L 98.837288 249.871386 
L 98.837288 249.871386 
L 98.837288 246.106967 
L 98.837288 246.106967 
L 98.837288 242.342547 
L 98.837288 242.342547 
L 98.837288 238.578128 
L 98.837288 238.578128 
L 98.837288 234.813708 
L 125.361622 234.813708 
L 125.361622 231.049289 
L 125.361622 231.049289 
L 125.361622 227.28487 
L 125.361622 227.28487 
L 125.361622 223.52045 
L 128.782931 223.52045 
L 128.782931 219.756031 
L 128.782931 219.756031 
L 128.782931 215.991611 
L 128.782931 215.991611 
L 128.782931 212.227192 
L 128.782931 212.227192 
L 128.782931 208.462772 
L 128.782931 208.462772 
L 128.782931 204.698353 
L 128.782931 204.698353 
L 128.782931 200.933934 
L 194.008061 200.933934 
L 194.008061 197.169514 
L 194.008061 197.169514 
L 194.008061 193.405095 
L 194.008061 193.405095 
L 194.008061 189.640675 
L 195.043582 189.640675 
L 195.043582 185.876256 
L 195.043582 185.876256 
L 195.043582 182.111836 
L 195.043582 182.111836 
L 195.043582 178.347417 
L 343.387583 178.347417 
L 343.387583 174.582997 
L 343.387583 174.582997 
L 343.387583 170.818578 
L 343.387583 170.818578 
L 343.387583 167.054159 
L 363.330834 167.054159 
L 363.330834 163.289739 
L 363.330834 163.289739 
L 363.330834 159.52532 
L 363.330834 159.52532 
L 363.330834 155.7609 
L 364.156968 155.7609 
L 364.156968 151.996481 
L 364.156968 151.996481 
L 364.156968 148.232061 
L 364.156968 148.232061 
L 364.156968 144.467642 
L 461.8 144.467642 
" style="fill:none;stroke:#f5deb3;stroke-linecap:square;stroke-width:1.5;"/>
   </g>
   <g id="line2d_30">
    <path clip-path="url(#p2f5a13a087)" d="M 178.465374 291.28 
L 178.465374 287.515581 
L 183.718869 287.515581 
L 183.718869 283.751161 
L 208.653398 283.751161 
L 208.653398 279.986742 
L 209.453899 279.986742 
L 209.453899 276.222322 
L 214.032163 276.222322 
L 214.032163 272.457903 
L 216.890208 272.457903 
L 216.890208 268.693483 
L 218.266723 268.693483 
L 218.266723 264.929064 
L 218.266723 264.929064 
L 218.266723 261.164645 
L 218.942591 261.164645 
L 218.942591 257.400225 
L 218.942591 257.400225 
L 218.942591 253.635806 
L 218.942591 253.635806 
L 218.942591 249.871386 
L 221.567916 249.871386 
L 221.567916 246.106967 
L 222.205599 246.106967 
L 222.205599 242.342547 
L 222.836156 242.342547 
L 222.836156 238.578128 
L 222.836156 238.578128 
L 222.836156 234.813708 
L 222.836156 234.813708 
L 222.836156 231.049289 
L 223.459746 231.049289 
L 223.459746 227.28487 
L 224.076521 227.28487 
L 224.076521 223.52045 
L 224.076521 223.52045 
L 224.076521 219.756031 
L 224.686628 219.756031 
L 224.686628 215.991611 
L 225.887403 215.991611 
L 225.887403 212.227192 
L 226.478344 212.227192 
L 226.478344 208.462772 
L 227.063161 208.462772 
L 227.063161 204.698353 
L 229.899653 204.698353 
L 229.899653 200.933934 
L 230.995499 200.933934 
L 230.995499 197.169514 
L 232.070471 197.169514 
L 232.070471 193.405095 
L 232.070471 193.405095 
L 232.070471 189.640675 
L 233.125349 189.640675 
L 233.125349 185.876256 
L 233.645485 185.876256 
L 233.645485 182.111836 
L 238.599041 182.111836 
L 238.599041 178.347417 
L 248.571186 178.347417 
L 248.571186 174.582997 
L 248.571186 174.582997 
L 248.571186 170.818578 
L 248.571186 170.818578 
L 248.571186 167.054159 
L 248.571186 167.054159 
L 248.571186 163.289739 
L 248.571186 163.289739 
L 248.571186 159.52532 
L 248.571186 159.52532 
L 248.571186 155.7609 
L 248.571186 155.7609 
L 248.571186 151.996481 
L 248.571186 151.996481 
L 248.571186 148.232061 
L 248.571186 148.232061 
L 248.571186 144.467642 
L 248.571186 144.467642 
L 248.571186 140.703223 
L 248.571186 140.703223 
L 248.571186 136.938803 
L 248.571186 136.938803 
L 248.571186 133.174384 
L 248.571186 133.174384 
L 248.571186 129.409964 
L 248.571186 129.409964 
L 248.571186 125.645545 
L 248.571186 125.645545 
L 248.571186 121.881125 
L 248.571186 121.881125 
L 248.571186 121.881125 
L 450.672 121.881125 
" style="fill:none;stroke:#f5deb3;stroke-linecap:square;stroke-width:1.5;"/>
   </g>
   <g id="matplotlib.axis_1">
    <g id="xtick_1">
     <g id="line2d_31">
      <path clip-path="url(#p2f5a13a087)" d="M 59.72 291.28 
L 59.72 6.125228 
" style="fill:none;stroke:#b0b0b0;stroke-linecap:square;stroke-width:0.8;"/>
     </g>
     <g id="line2d_32">
      <defs>
       <path d="M 0 0 
L 0 3.5 
" id="m6335fd74f1" style="stroke:#000000;stroke-width:0.8;"/>
      </defs>
      <g>
       <use style="stroke:#000000;stroke-width:0.8;" x="59.72" xlink:href="#m6335fd74f1" y="291.28"/>
      </g>
     </g>
     <g id="text_1">
      <!-- 0 -->
      <defs>
       <path d="M 31.78125 66.40625 
Q 24.171875 66.40625 20.328125 58.90625 
Q 16.5 51.421875 16.5 36.375 
Q 16.5 21.390625 20.328125 13.890625 
Q 24.171875 6.390625 31.78125 6.390625 
Q 39.453125 6.390625 43.28125 13.890625 
Q 47.125 21.390625 47.125 36.375 
Q 47.125 51.421875 43.28125 58.90625 
Q 39.453125 66.40625 31.78125 66.40625 
z
M 31.78125 74.21875 
Q 44.046875 74.21875 50.515625 64.515625 
Q 56.984375 54.828125 56.984375 36.375 
Q 56.984375 17.96875 50.515625 8.265625 
Q 44.046875 -1.421875 31.78125 -1.421875 
Q 19.53125 -1.421875 13.0625 8.265625 
Q 6.59375 17.96875 6.59375 36.375 
Q 6.59375 54.828125 13.0625 64.515625 
Q 19.53125 74.21875 31.78125 74.21875 
z
" id="DejaVuSans-30"/>
      </defs>
      <g transform="translate(53.3575 313.476875)scale(0.2 -0.2)">
       <use xlink:href="#DejaVuSans-30"/>
      </g>
     </g>
    </g>
    <g id="xtick_2">
     <g id="line2d_33">
      <path clip-path="url(#p2f5a13a087)" d="M 319.609635 291.28 
L 319.609635 6.125228 
" style="fill:none;stroke:#b0b0b0;stroke-linecap:square;stroke-width:0.8;"/>
     </g>
     <g id="line2d_34">
      <g>
       <use style="stroke:#000000;stroke-width:0.8;" x="319.609635" xlink:href="#m6335fd74f1" y="291.28"/>
      </g>
     </g>
     <g id="text_2">
      <!-- 2 -->
      <defs>
       <path d="M 19.1875 8.296875 
L 53.609375 8.296875 
L 53.609375 0 
L 7.328125 0 
L 7.328125 8.296875 
Q 12.9375 14.109375 22.625 23.890625 
Q 32.328125 33.6875 34.8125 36.53125 
Q 39.546875 41.84375 41.421875 45.53125 
Q 43.3125 49.21875 43.3125 52.78125 
Q 43.3125 58.59375 39.234375 62.25 
Q 35.15625 65.921875 28.609375 65.921875 
Q 23.96875 65.921875 18.8125 64.3125 
Q 13.671875 62.703125 7.8125 59.421875 
L 7.8125 69.390625 
Q 13.765625 71.78125 18.9375 73 
Q 24.125 74.21875 28.421875 74.21875 
Q 39.75 74.21875 46.484375 68.546875 
Q 53.21875 62.890625 53.21875 53.421875 
Q 53.21875 48.921875 51.53125 44.890625 
Q 49.859375 40.875 45.40625 35.40625 
Q 44.1875 33.984375 37.640625 27.21875 
Q 31.109375 20.453125 19.1875 8.296875 
z
" id="DejaVuSans-32"/>
      </defs>
      <g transform="translate(313.247135 313.476875)scale(0.2 -0.2)">
       <use xlink:href="#DejaVuSans-32"/>
      </g>
     </g>
    </g>
    <g id="xtick_3">
     <g id="line2d_35">
      <defs>
       <path d="M 0 0 
L 0 2 
" id="md41442027c" style="stroke:#000000;stroke-width:0.6;"/>
      </defs>
      <g>
       <use style="stroke:#000000;stroke-width:0.6;" x="98.837288" xlink:href="#md41442027c" y="291.28"/>
      </g>
     </g>
    </g>
    <g id="xtick_4">
     <g id="line2d_36">
      <g>
       <use style="stroke:#000000;stroke-width:0.6;" x="121.719434" xlink:href="#md41442027c" y="291.28"/>
      </g>
     </g>
    </g>
    <g id="xtick_5">
     <g id="line2d_37">
      <g>
       <use style="stroke:#000000;stroke-width:0.6;" x="137.954576" xlink:href="#md41442027c" y="291.28"/>
      </g>
     </g>
    </g>
    <g id="xtick_6">
     <g id="line2d_38">
      <g>
       <use style="stroke:#000000;stroke-width:0.6;" x="150.54753" xlink:href="#md41442027c" y="291.28"/>
      </g>
     </g>
    </g>
    <g id="xtick_7">
     <g id="line2d_39">
      <g>
       <use style="stroke:#000000;stroke-width:0.6;" x="160.836722" xlink:href="#md41442027c" y="291.28"/>
      </g>
     </g>
    </g>
    <g id="xtick_8">
     <g id="line2d_40">
      <g>
       <use style="stroke:#000000;stroke-width:0.6;" x="169.536111" xlink:href="#md41442027c" y="291.28"/>
      </g>
     </g>
    </g>
    <g id="xtick_9">
     <g id="line2d_41">
      <g>
       <use style="stroke:#000000;stroke-width:0.6;" x="177.071863" xlink:href="#md41442027c" y="291.28"/>
      </g>
     </g>
    </g>
    <g id="xtick_10">
     <g id="line2d_42">
      <g>
       <use style="stroke:#000000;stroke-width:0.6;" x="183.718869" xlink:href="#md41442027c" y="291.28"/>
      </g>
     </g>
    </g>
    <g id="xtick_11">
     <g id="line2d_43">
      <g>
       <use style="stroke:#000000;stroke-width:0.6;" x="228.782105" xlink:href="#md41442027c" y="291.28"/>
      </g>
     </g>
    </g>
    <g id="xtick_12">
     <g id="line2d_44">
      <g>
       <use style="stroke:#000000;stroke-width:0.6;" x="251.664252" xlink:href="#md41442027c" y="291.28"/>
      </g>
     </g>
    </g>
    <g id="xtick_13">
     <g id="line2d_45">
      <g>
       <use style="stroke:#000000;stroke-width:0.6;" x="267.899393" xlink:href="#md41442027c" y="291.28"/>
      </g>
     </g>
    </g>
    <g id="xtick_14">
     <g id="line2d_46">
      <g>
       <use style="stroke:#000000;stroke-width:0.6;" x="280.492347" xlink:href="#md41442027c" y="291.28"/>
      </g>
     </g>
    </g>
    <g id="xtick_15">
     <g id="line2d_47">
      <g>
       <use style="stroke:#000000;stroke-width:0.6;" x="290.78154" xlink:href="#md41442027c" y="291.28"/>
      </g>
     </g>
    </g>
    <g id="xtick_16">
     <g id="line2d_48">
      <g>
       <use style="stroke:#000000;stroke-width:0.6;" x="299.480928" xlink:href="#md41442027c" y="291.28"/>
      </g>
     </g>
    </g>
    <g id="xtick_17">
     <g id="line2d_49">
      <g>
       <use style="stroke:#000000;stroke-width:0.6;" x="307.016681" xlink:href="#md41442027c" y="291.28"/>
      </g>
     </g>
    </g>
    <g id="xtick_18">
     <g id="line2d_50">
      <g>
       <use style="stroke:#000000;stroke-width:0.6;" x="313.663686" xlink:href="#md41442027c" y="291.28"/>
      </g>
     </g>
    </g>
    <g id="xtick_19">
     <g id="line2d_51">
      <g>
       <use style="stroke:#000000;stroke-width:0.6;" x="358.726923" xlink:href="#md41442027c" y="291.28"/>
      </g>
     </g>
    </g>
    <g id="xtick_20">
     <g id="line2d_52">
      <g>
       <use style="stroke:#000000;stroke-width:0.6;" x="381.609069" xlink:href="#md41442027c" y="291.28"/>
      </g>
     </g>
    </g>
    <g id="xtick_21">
     <g id="line2d_53">
      <g>
       <use style="stroke:#000000;stroke-width:0.6;" x="397.84421" xlink:href="#md41442027c" y="291.28"/>
      </g>
     </g>
    </g>
    <g id="xtick_22">
     <g id="line2d_54">
      <g>
       <use style="stroke:#000000;stroke-width:0.6;" x="410.437164" xlink:href="#md41442027c" y="291.28"/>
      </g>
     </g>
    </g>
    <g id="xtick_23">
     <g id="line2d_55">
      <g>
       <use style="stroke:#000000;stroke-width:0.6;" x="420.726357" xlink:href="#md41442027c" y="291.28"/>
      </g>
     </g>
    </g>
    <g id="xtick_24">
     <g id="line2d_56">
      <g>
       <use style="stroke:#000000;stroke-width:0.6;" x="429.425745" xlink:href="#md41442027c" y="291.28"/>
      </g>
     </g>
    </g>
    <g id="xtick_25">
     <g id="line2d_57">
      <g>
       <use style="stroke:#000000;stroke-width:0.6;" x="436.961498" xlink:href="#md41442027c" y="291.28"/>
      </g>
     </g>
    </g>
    <g id="xtick_26">
     <g id="line2d_58">
      <g>
       <use style="stroke:#000000;stroke-width:0.6;" x="443.608503" xlink:href="#md41442027c" y="291.28"/>
      </g>
     </g>
    </g>
    <g id="text_3">
     <!-- log10 of FEvals / DIM -->
     <defs>
      <path d="M 9.421875 75.984375 
L 18.40625 75.984375 
L 18.40625 0 
L 9.421875 0 
z
" id="DejaVuSans-6c"/>
      <path d="M 30.609375 48.390625 
Q 23.390625 48.390625 19.1875 42.75 
Q 14.984375 37.109375 14.984375 27.296875 
Q 14.984375 17.484375 19.15625 11.84375 
Q 23.34375 6.203125 30.609375 6.203125 
Q 37.796875 6.203125 41.984375 11.859375 
Q 46.1875 17.53125 46.1875 27.296875 
Q 46.1875 37.015625 41.984375 42.703125 
Q 37.796875 48.390625 30.609375 48.390625 
z
M 30.609375 56 
Q 42.328125 56 49.015625 48.375 
Q 55.71875 40.765625 55.71875 27.296875 
Q 55.71875 13.875 49.015625 6.21875 
Q 42.328125 -1.421875 30.609375 -1.421875 
Q 18.84375 -1.421875 12.171875 6.21875 
Q 5.515625 13.875 5.515625 27.296875 
Q 5.515625 40.765625 12.171875 48.375 
Q 18.84375 56 30.609375 56 
z
" id="DejaVuSans-6f"/>
      <path d="M 45.40625 27.984375 
Q 45.40625 37.75 41.375 43.109375 
Q 37.359375 48.484375 30.078125 48.484375 
Q 22.859375 48.484375 18.828125 43.109375 
Q 14.796875 37.75 14.796875 27.984375 
Q 14.796875 18.265625 18.828125 12.890625 
Q 22.859375 7.515625 30.078125 7.515625 
Q 37.359375 7.515625 41.375 12.890625 
Q 45.40625 18.265625 45.40625 27.984375 
z
M 54.390625 6.78125 
Q 54.390625 -7.171875 48.1875 -13.984375 
Q 42 -20.796875 29.203125 -20.796875 
Q 24.46875 -20.796875 20.265625 -20.09375 
Q 16.0625 -19.390625 12.109375 -17.921875 
L 12.109375 -9.1875 
Q 16.0625 -11.328125 19.921875 -12.34375 
Q 23.78125 -13.375 27.78125 -13.375 
Q 36.625 -13.375 41.015625 -8.765625 
Q 45.40625 -4.15625 45.40625 5.171875 
L 45.40625 9.625 
Q 42.625 4.78125 38.28125 2.390625 
Q 33.9375 0 27.875 0 
Q 17.828125 0 11.671875 7.65625 
Q 5.515625 15.328125 5.515625 27.984375 
Q 5.515625 40.671875 11.671875 48.328125 
Q 17.828125 56 27.875 56 
Q 33.9375 56 38.28125 53.609375 
Q 42.625 51.21875 45.40625 46.390625 
L 45.40625 54.6875 
L 54.390625 54.6875 
z
" id="DejaVuSans-67"/>
      <path d="M 12.40625 8.296875 
L 28.515625 8.296875 
L 28.515625 63.921875 
L 10.984375 60.40625 
L 10.984375 69.390625 
L 28.421875 72.90625 
L 38.28125 72.90625 
L 38.28125 8.296875 
L 54.390625 8.296875 
L 54.390625 0 
L 12.40625 0 
z
" id="DejaVuSans-31"/>
      <path id="DejaVuSans-20"/>
      <path d="M 37.109375 75.984375 
L 37.109375 68.5 
L 28.515625 68.5 
Q 23.6875 68.5 21.796875 66.546875 
Q 19.921875 64.59375 19.921875 59.515625 
L 19.921875 54.6875 
L 34.71875 54.6875 
L 34.71875 47.703125 
L 19.921875 47.703125 
L 19.921875 0 
L 10.890625 0 
L 10.890625 47.703125 
L 2.296875 47.703125 
L 2.296875 54.6875 
L 10.890625 54.6875 
L 10.890625 58.5 
Q 10.890625 67.625 15.140625 71.796875 
Q 19.390625 75.984375 28.609375 75.984375 
z
" id="DejaVuSans-66"/>
      <path d="M 9.8125 72.90625 
L 51.703125 72.90625 
L 51.703125 64.59375 
L 19.671875 64.59375 
L 19.671875 43.109375 
L 48.578125 43.109375 
L 48.578125 34.8125 
L 19.671875 34.8125 
L 19.671875 0 
L 9.8125 0 
z
" id="DejaVuSans-46"/>
      <path d="M 9.8125 72.90625 
L 55.90625 72.90625 
L 55.90625 64.59375 
L 19.671875 64.59375 
L 19.671875 43.015625 
L 54.390625 43.015625 
L 54.390625 34.71875 
L 19.671875 34.71875 
L 19.671875 8.296875 
L 56.78125 8.296875 
L 56.78125 0 
L 9.8125 0 
z
" id="DejaVuSans-45"/>
      <path d="M 2.984375 54.6875 
L 12.5 54.6875 
L 29.59375 8.796875 
L 46.6875 54.6875 
L 56.203125 54.6875 
L 35.6875 0 
L 23.484375 0 
z
" id="DejaVuSans-76"/>
      <path d="M 34.28125 27.484375 
Q 23.390625 27.484375 19.1875 25 
Q 14.984375 22.515625 14.984375 16.5 
Q 14.984375 11.71875 18.140625 8.90625 
Q 21.296875 6.109375 26.703125 6.109375 
Q 34.1875 6.109375 38.703125 11.40625 
Q 43.21875 16.703125 43.21875 25.484375 
L 43.21875 27.484375 
z
M 52.203125 31.203125 
L 52.203125 0 
L 43.21875 0 
L 43.21875 8.296875 
Q 40.140625 3.328125 35.546875 0.953125 
Q 30.953125 -1.421875 24.3125 -1.421875 
Q 15.921875 -1.421875 10.953125 3.296875 
Q 6 8.015625 6 15.921875 
Q 6 25.140625 12.171875 29.828125 
Q 18.359375 34.515625 30.609375 34.515625 
L 43.21875 34.515625 
L 43.21875 35.40625 
Q 43.21875 41.609375 39.140625 45 
Q 35.0625 48.390625 27.6875 48.390625 
Q 23 48.390625 18.546875 47.265625 
Q 14.109375 46.140625 10.015625 43.890625 
L 10.015625 52.203125 
Q 14.9375 54.109375 19.578125 55.046875 
Q 24.21875 56 28.609375 56 
Q 40.484375 56 46.34375 49.84375 
Q 52.203125 43.703125 52.203125 31.203125 
z
" id="DejaVuSans-61"/>
      <path d="M 44.28125 53.078125 
L 44.28125 44.578125 
Q 40.484375 46.53125 36.375 47.5 
Q 32.28125 48.484375 27.875 48.484375 
Q 21.1875 48.484375 17.84375 46.4375 
Q 14.5 44.390625 14.5 40.28125 
Q 14.5 37.15625 16.890625 35.375 
Q 19.28125 33.59375 26.515625 31.984375 
L 29.59375 31.296875 
Q 39.15625 29.25 43.1875 25.515625 
Q 47.21875 21.78125 47.21875 15.09375 
Q 47.21875 7.46875 41.1875 3.015625 
Q 35.15625 -1.421875 24.609375 -1.421875 
Q 20.21875 -1.421875 15.453125 -0.5625 
Q 10.6875 0.296875 5.421875 2 
L 5.421875 11.28125 
Q 10.40625 8.6875 15.234375 7.390625 
Q 20.0625 6.109375 24.8125 6.109375 
Q 31.15625 6.109375 34.5625 8.28125 
Q 37.984375 10.453125 37.984375 14.40625 
Q 37.984375 18.0625 35.515625 20.015625 
Q 33.0625 21.96875 24.703125 23.78125 
L 21.578125 24.515625 
Q 13.234375 26.265625 9.515625 29.90625 
Q 5.8125 33.546875 5.8125 39.890625 
Q 5.8125 47.609375 11.28125 51.796875 
Q 16.75 56 26.8125 56 
Q 31.78125 56 36.171875 55.265625 
Q 40.578125 54.546875 44.28125 53.078125 
z
" id="DejaVuSans-73"/>
      <path d="M 25.390625 72.90625 
L 33.6875 72.90625 
L 8.296875 -9.28125 
L 0 -9.28125 
z
" id="DejaVuSans-2f"/>
      <path d="M 19.671875 64.796875 
L 19.671875 8.109375 
L 31.59375 8.109375 
Q 46.6875 8.109375 53.6875 14.9375 
Q 60.6875 21.78125 60.6875 36.53125 
Q 60.6875 51.171875 53.6875 57.984375 
Q 46.6875 64.796875 31.59375 64.796875 
z
M 9.8125 72.90625 
L 30.078125 72.90625 
Q 51.265625 72.90625 61.171875 64.09375 
Q 71.09375 55.28125 71.09375 36.53125 
Q 71.09375 17.671875 61.125 8.828125 
Q 51.171875 0 30.078125 0 
L 9.8125 0 
z
" id="DejaVuSans-44"/>
      <path d="M 9.8125 72.90625 
L 19.671875 72.90625 
L 19.671875 0 
L 9.8125 0 
z
" id="DejaVuSans-49"/>
      <path d="M 9.8125 72.90625 
L 24.515625 72.90625 
L 43.109375 23.296875 
L 61.8125 72.90625 
L 76.515625 72.90625 
L 76.515625 0 
L 66.890625 0 
L 66.890625 64.015625 
L 48.09375 14.015625 
L 38.1875 14.015625 
L 19.390625 64.015625 
L 19.390625 0 
L 9.8125 0 
z
" id="DejaVuSans-4d"/>
     </defs>
     <g transform="translate(150.122563 336.833125)scale(0.2 -0.2)">
      <use xlink:href="#DejaVuSans-6c"/>
      <use x="27.783203" xlink:href="#DejaVuSans-6f"/>
      <use x="88.964844" xlink:href="#DejaVuSans-67"/>
      <use x="152.441406" xlink:href="#DejaVuSans-31"/>
      <use x="216.064453" xlink:href="#DejaVuSans-30"/>
      <use x="279.6875" xlink:href="#DejaVuSans-20"/>
      <use x="311.474609" xlink:href="#DejaVuSans-6f"/>
      <use x="372.65625" xlink:href="#DejaVuSans-66"/>
      <use x="407.861328" xlink:href="#DejaVuSans-20"/>
      <use x="439.648438" xlink:href="#DejaVuSans-46"/>
      <use x="497.167969" xlink:href="#DejaVuSans-45"/>
      <use x="560.351562" xlink:href="#DejaVuSans-76"/>
      <use x="619.53125" xlink:href="#DejaVuSans-61"/>
      <use x="680.810547" xlink:href="#DejaVuSans-6c"/>
      <use x="708.59375" xlink:href="#DejaVuSans-73"/>
      <use x="760.693359" xlink:href="#DejaVuSans-20"/>
      <use x="792.480469" xlink:href="#DejaVuSans-2f"/>
      <use x="826.171875" xlink:href="#DejaVuSans-20"/>
      <use x="857.958984" xlink:href="#DejaVuSans-44"/>
      <use x="934.960938" xlink:href="#DejaVuSans-49"/>
      <use x="964.453125" xlink:href="#DejaVuSans-4d"/>
     </g>
    </g>
   </g>
   <g id="matplotlib.axis_2">
    <g id="ytick_1">
     <g id="line2d_59">
      <path clip-path="url(#p2f5a13a087)" d="M 59.72 291.28 
L 450.672 291.28 
" style="fill:none;stroke:#b0b0b0;stroke-linecap:square;stroke-width:0.8;"/>
     </g>
     <g id="line2d_60">
      <defs>
       <path d="M 0 0 
L -3.5 0 
" id="m35087e4557" style="stroke:#000000;stroke-width:0.8;"/>
      </defs>
      <g>
       <use style="stroke:#000000;stroke-width:0.8;" x="59.72" xlink:href="#m35087e4557" y="291.28"/>
      </g>
     </g>
     <g id="text_4">
      <!-- 0.0 -->
      <defs>
       <path d="M 10.6875 12.40625 
L 21 12.40625 
L 21 0 
L 10.6875 0 
z
" id="DejaVuSans-2e"/>
      </defs>
      <g transform="translate(27.275 297.35875)scale(0.16 -0.16)">
       <use xlink:href="#DejaVuSans-30"/>
       <use x="63.623047" xlink:href="#DejaVuSans-2e"/>
       <use x="95.410156" xlink:href="#DejaVuSans-30"/>
      </g>
     </g>
    </g>
    <g id="ytick_2">
     <g id="line2d_61">
      <path clip-path="url(#p2f5a13a087)" d="M 59.72 234.813708 
L 450.672 234.813708 
" style="fill:none;stroke:#b0b0b0;stroke-linecap:square;stroke-width:0.8;"/>
     </g>
     <g id="line2d_62">
      <g>
       <use style="stroke:#000000;stroke-width:0.8;" x="59.72" xlink:href="#m35087e4557" y="234.813708"/>
      </g>
     </g>
     <g id="text_5">
      <!-- 0.2 -->
      <g transform="translate(27.275 240.892458)scale(0.16 -0.16)">
       <use xlink:href="#DejaVuSans-30"/>
       <use x="63.623047" xlink:href="#DejaVuSans-2e"/>
       <use x="95.410156" xlink:href="#DejaVuSans-32"/>
      </g>
     </g>
    </g>
    <g id="ytick_3">
     <g id="line2d_63">
      <path clip-path="url(#p2f5a13a087)" d="M 59.72 178.347417 
L 450.672 178.347417 
" style="fill:none;stroke:#b0b0b0;stroke-linecap:square;stroke-width:0.8;"/>
     </g>
     <g id="line2d_64">
      <g>
       <use style="stroke:#000000;stroke-width:0.8;" x="59.72" xlink:href="#m35087e4557" y="178.347417"/>
      </g>
     </g>
     <g id="text_6">
      <!-- 0.4 -->
      <defs>
       <path d="M 37.796875 64.3125 
L 12.890625 25.390625 
L 37.796875 25.390625 
z
M 35.203125 72.90625 
L 47.609375 72.90625 
L 47.609375 25.390625 
L 58.015625 25.390625 
L 58.015625 17.1875 
L 47.609375 17.1875 
L 47.609375 0 
L 37.796875 0 
L 37.796875 17.1875 
L 4.890625 17.1875 
L 4.890625 26.703125 
z
" id="DejaVuSans-34"/>
      </defs>
      <g transform="translate(27.275 184.426167)scale(0.16 -0.16)">
       <use xlink:href="#DejaVuSans-30"/>
       <use x="63.623047" xlink:href="#DejaVuSans-2e"/>
       <use x="95.410156" xlink:href="#DejaVuSans-34"/>
      </g>
     </g>
    </g>
    <g id="ytick_4">
     <g id="line2d_65">
      <path clip-path="url(#p2f5a13a087)" d="M 59.72 121.881125 
L 450.672 121.881125 
" style="fill:none;stroke:#b0b0b0;stroke-linecap:square;stroke-width:0.8;"/>
     </g>
     <g id="line2d_66">
      <g>
       <use style="stroke:#000000;stroke-width:0.8;" x="59.72" xlink:href="#m35087e4557" y="121.881125"/>
      </g>
     </g>
     <g id="text_7">
      <!-- 0.6 -->
      <defs>
       <path d="M 33.015625 40.375 
Q 26.375 40.375 22.484375 35.828125 
Q 18.609375 31.296875 18.609375 23.390625 
Q 18.609375 15.53125 22.484375 10.953125 
Q 26.375 6.390625 33.015625 6.390625 
Q 39.65625 6.390625 43.53125 10.953125 
Q 47.40625 15.53125 47.40625 23.390625 
Q 47.40625 31.296875 43.53125 35.828125 
Q 39.65625 40.375 33.015625 40.375 
z
M 52.59375 71.296875 
L 52.59375 62.3125 
Q 48.875 64.0625 45.09375 64.984375 
Q 41.3125 65.921875 37.59375 65.921875 
Q 27.828125 65.921875 22.671875 59.328125 
Q 17.53125 52.734375 16.796875 39.40625 
Q 19.671875 43.65625 24.015625 45.921875 
Q 28.375 48.1875 33.59375 48.1875 
Q 44.578125 48.1875 50.953125 41.515625 
Q 57.328125 34.859375 57.328125 23.390625 
Q 57.328125 12.15625 50.6875 5.359375 
Q 44.046875 -1.421875 33.015625 -1.421875 
Q 20.359375 -1.421875 13.671875 8.265625 
Q 6.984375 17.96875 6.984375 36.375 
Q 6.984375 53.65625 15.1875 63.9375 
Q 23.390625 74.21875 37.203125 74.21875 
Q 40.921875 74.21875 44.703125 73.484375 
Q 48.484375 72.75 52.59375 71.296875 
z
" id="DejaVuSans-36"/>
      </defs>
      <g transform="translate(27.275 127.959875)scale(0.16 -0.16)">
       <use xlink:href="#DejaVuSans-30"/>
       <use x="63.623047" xlink:href="#DejaVuSans-2e"/>
       <use x="95.410156" xlink:href="#DejaVuSans-36"/>
      </g>
     </g>
    </g>
    <g id="ytick_5">
     <g id="line2d_67">
      <path clip-path="url(#p2f5a13a087)" d="M 59.72 65.414834 
L 450.672 65.414834 
" style="fill:none;stroke:#b0b0b0;stroke-linecap:square;stroke-width:0.8;"/>
     </g>
     <g id="line2d_68">
      <g>
       <use style="stroke:#000000;stroke-width:0.8;" x="59.72" xlink:href="#m35087e4557" y="65.414834"/>
      </g>
     </g>
     <g id="text_8">
      <!-- 0.8 -->
      <defs>
       <path d="M 31.78125 34.625 
Q 24.75 34.625 20.71875 30.859375 
Q 16.703125 27.09375 16.703125 20.515625 
Q 16.703125 13.921875 20.71875 10.15625 
Q 24.75 6.390625 31.78125 6.390625 
Q 38.8125 6.390625 42.859375 10.171875 
Q 46.921875 13.96875 46.921875 20.515625 
Q 46.921875 27.09375 42.890625 30.859375 
Q 38.875 34.625 31.78125 34.625 
z
M 21.921875 38.8125 
Q 15.578125 40.375 12.03125 44.71875 
Q 8.5 49.078125 8.5 55.328125 
Q 8.5 64.0625 14.71875 69.140625 
Q 20.953125 74.21875 31.78125 74.21875 
Q 42.671875 74.21875 48.875 69.140625 
Q 55.078125 64.0625 55.078125 55.328125 
Q 55.078125 49.078125 51.53125 44.71875 
Q 48 40.375 41.703125 38.8125 
Q 48.828125 37.15625 52.796875 32.3125 
Q 56.78125 27.484375 56.78125 20.515625 
Q 56.78125 9.90625 50.3125 4.234375 
Q 43.84375 -1.421875 31.78125 -1.421875 
Q 19.734375 -1.421875 13.25 4.234375 
Q 6.78125 9.90625 6.78125 20.515625 
Q 6.78125 27.484375 10.78125 32.3125 
Q 14.796875 37.15625 21.921875 38.8125 
z
M 18.3125 54.390625 
Q 18.3125 48.734375 21.84375 45.5625 
Q 25.390625 42.390625 31.78125 42.390625 
Q 38.140625 42.390625 41.71875 45.5625 
Q 45.3125 48.734375 45.3125 54.390625 
Q 45.3125 60.0625 41.71875 63.234375 
Q 38.140625 66.40625 31.78125 66.40625 
Q 25.390625 66.40625 21.84375 63.234375 
Q 18.3125 60.0625 18.3125 54.390625 
z
" id="DejaVuSans-38"/>
      </defs>
      <g transform="translate(27.275 71.493584)scale(0.16 -0.16)">
       <use xlink:href="#DejaVuSans-30"/>
       <use x="63.623047" xlink:href="#DejaVuSans-2e"/>
       <use x="95.410156" xlink:href="#DejaVuSans-38"/>
      </g>
     </g>
    </g>
    <g id="ytick_6">
     <g id="line2d_69">
      <path clip-path="url(#p2f5a13a087)" d="M 59.72 8.948542 
L 450.672 8.948542 
" style="fill:none;stroke:#b0b0b0;stroke-linecap:square;stroke-width:0.8;"/>
     </g>
     <g id="line2d_70">
      <g>
       <use style="stroke:#000000;stroke-width:0.8;" x="59.72" xlink:href="#m35087e4557" y="8.948542"/>
      </g>
     </g>
     <g id="text_9">
      <!-- 1.0 -->
      <g transform="translate(27.275 15.027292)scale(0.16 -0.16)">
       <use xlink:href="#DejaVuSans-31"/>
       <use x="63.623047" xlink:href="#DejaVuSans-2e"/>
       <use x="95.410156" xlink:href="#DejaVuSans-30"/>
      </g>
     </g>
    </g>
    <g id="text_10">
     <!-- proportion of trials -->
     <defs>
      <path d="M 18.109375 8.203125 
L 18.109375 -20.796875 
L 9.078125 -20.796875 
L 9.078125 54.6875 
L 18.109375 54.6875 
L 18.109375 46.390625 
Q 20.953125 51.265625 25.265625 53.625 
Q 29.59375 56 35.59375 56 
Q 45.5625 56 51.78125 48.09375 
Q 58.015625 40.1875 58.015625 27.296875 
Q 58.015625 14.40625 51.78125 6.484375 
Q 45.5625 -1.421875 35.59375 -1.421875 
Q 29.59375 -1.421875 25.265625 0.953125 
Q 20.953125 3.328125 18.109375 8.203125 
z
M 48.6875 27.296875 
Q 48.6875 37.203125 44.609375 42.84375 
Q 40.53125 48.484375 33.40625 48.484375 
Q 26.265625 48.484375 22.1875 42.84375 
Q 18.109375 37.203125 18.109375 27.296875 
Q 18.109375 17.390625 22.1875 11.75 
Q 26.265625 6.109375 33.40625 6.109375 
Q 40.53125 6.109375 44.609375 11.75 
Q 48.6875 17.390625 48.6875 27.296875 
z
" id="DejaVuSans-70"/>
      <path d="M 41.109375 46.296875 
Q 39.59375 47.171875 37.8125 47.578125 
Q 36.03125 48 33.890625 48 
Q 26.265625 48 22.1875 43.046875 
Q 18.109375 38.09375 18.109375 28.8125 
L 18.109375 0 
L 9.078125 0 
L 9.078125 54.6875 
L 18.109375 54.6875 
L 18.109375 46.1875 
Q 20.953125 51.171875 25.484375 53.578125 
Q 30.03125 56 36.53125 56 
Q 37.453125 56 38.578125 55.875 
Q 39.703125 55.765625 41.0625 55.515625 
z
" id="DejaVuSans-72"/>
      <path d="M 18.3125 70.21875 
L 18.3125 54.6875 
L 36.8125 54.6875 
L 36.8125 47.703125 
L 18.3125 47.703125 
L 18.3125 18.015625 
Q 18.3125 11.328125 20.140625 9.421875 
Q 21.96875 7.515625 27.59375 7.515625 
L 36.8125 7.515625 
L 36.8125 0 
L 27.59375 0 
Q 17.1875 0 13.234375 3.875 
Q 9.28125 7.765625 9.28125 18.015625 
L 9.28125 47.703125 
L 2.6875 47.703125 
L 2.6875 54.6875 
L 9.28125 54.6875 
L 9.28125 70.21875 
z
" id="DejaVuSans-74"/>
      <path d="M 9.421875 54.6875 
L 18.40625 54.6875 
L 18.40625 0 
L 9.421875 0 
z
M 9.421875 75.984375 
L 18.40625 75.984375 
L 18.40625 64.59375 
L 9.421875 64.59375 
z
" id="DejaVuSans-69"/>
      <path d="M 54.890625 33.015625 
L 54.890625 0 
L 45.90625 0 
L 45.90625 32.71875 
Q 45.90625 40.484375 42.875 44.328125 
Q 39.84375 48.1875 33.796875 48.1875 
Q 26.515625 48.1875 22.3125 43.546875 
Q 18.109375 38.921875 18.109375 30.90625 
L 18.109375 0 
L 9.078125 0 
L 9.078125 54.6875 
L 18.109375 54.6875 
L 18.109375 46.1875 
Q 21.34375 51.125 25.703125 53.5625 
Q 30.078125 56 35.796875 56 
Q 45.21875 56 50.046875 50.171875 
Q 54.890625 44.34375 54.890625 33.015625 
z
" id="DejaVuSans-6e"/>
     </defs>
     <g transform="translate(19.115625 241.930739)rotate(-90)scale(0.2 -0.2)">
      <use xlink:href="#DejaVuSans-70"/>
      <use x="63.476562" xlink:href="#DejaVuSans-72"/>
      <use x="104.558594" xlink:href="#DejaVuSans-6f"/>
      <use x="165.740234" xlink:href="#DejaVuSans-70"/>
      <use x="229.216797" xlink:href="#DejaVuSans-6f"/>
      <use x="290.398438" xlink:href="#DejaVuSans-72"/>
      <use x="331.511719" xlink:href="#DejaVuSans-74"/>
      <use x="370.720703" xlink:href="#DejaVuSans-69"/>
      <use x="398.503906" xlink:href="#DejaVuSans-6f"/>
      <use x="459.685547" xlink:href="#DejaVuSans-6e"/>
      <use x="523.064453" xlink:href="#DejaVuSans-20"/>
      <use x="554.851562" xlink:href="#DejaVuSans-6f"/>
      <use x="616.033203" xlink:href="#DejaVuSans-66"/>
      <use x="651.238281" xlink:href="#DejaVuSans-20"/>
      <use x="683.025391" xlink:href="#DejaVuSans-74"/>
      <use x="722.234375" xlink:href="#DejaVuSans-72"/>
      <use x="763.347656" xlink:href="#DejaVuSans-69"/>
      <use x="791.130859" xlink:href="#DejaVuSans-61"/>
      <use x="852.410156" xlink:href="#DejaVuSans-6c"/>
      <use x="880.193359" xlink:href="#DejaVuSans-73"/>
     </g>
    </g>
   </g>
   <g id="line2d_71">
    <path clip-path="url(#p2f5a13a087)" d="M -1 289.39779 
L 8.009758 289.39779 
L 8.009758 287.515581 
L 47.127046 287.515581 
L 47.127046 285.633371 
L 59.72 285.633371 
L 59.72 283.751161 
L 59.72 283.751161 
L 59.72 281.868951 
L 78.708581 281.868951 
L 78.708581 279.986742 
L 78.708581 279.986742 
L 78.708581 278.104532 
L 104.216053 278.104532 
L 104.216053 276.222322 
L 121.719434 276.222322 
L 121.719434 274.340113 
L 125.361622 274.340113 
L 125.361622 272.457903 
L 125.361622 272.457903 
L 125.361622 270.575693 
L 135.059874 270.575693 
L 135.059874 268.693483 
L 143.333341 268.693483 
L 143.333341 266.811274 
L 145.841945 266.811274 
L 145.841945 264.929064 
L 156.943157 264.929064 
L 156.943157 263.046854 
L 166.215487 263.046854 
L 166.215487 261.164645 
L 167.900219 261.164645 
L 167.900219 259.282435 
L 178.465374 259.282435 
L 178.465374 257.400225 
L 184.959233 257.400225 
L 184.959233 255.518015 
L 188.524691 255.518015 
L 188.524691 253.635806 
L 225.887403 253.635806 
L 225.887403 251.753596 
L 236.669475 251.753596 
L 236.669475 249.871386 
L 238.1228 249.871386 
L 238.1228 247.989176 
L 246.548234 247.989176 
L 246.548234 246.106967 
L 332.112222 246.106967 
L 332.112222 244.224757 
L 332.112222 244.224757 
L 332.112222 244.224757 
L 450.672 244.224757 
" style="fill:none;stroke:#000000;stroke-linecap:square;stroke-width:1.5;"/>
   </g>
   <g id="line2d_72">
    <path clip-path="url(#p2f5a13a087)" style="fill:none;stroke:#000000;stroke-linecap:square;stroke-width:1.5;"/>
   </g>
   <g id="line2d_73">
    <path clip-path="url(#p2f5a13a087)" d="M 335.703514 291.28 
L 335.703514 289.39779 
L 335.703514 289.39779 
L 335.703514 289.39779 
L 450.672 289.39779 
" style="fill:none;stroke:#00bfbf;stroke-linecap:square;stroke-width:1.5;"/>
   </g>
   <g id="line2d_74">
    <path clip-path="url(#p2f5a13a087)" style="fill:none;stroke:#00bfbf;stroke-linecap:square;stroke-width:1.5;"/>
   </g>
   <g id="line2d_75"/>
   <g id="line2d_76"/>
   <g id="line2d_77">
    <path clip-path="url(#p2f5a13a087)" d="M 450.672 291.28 
L 450.672 6.125228 
" style="fill:none;stroke:#000000;stroke-linecap:square;stroke-width:1.5;"/>
   </g>
   <g id="patch_3">
    <path d="M 59.72 291.28 
L 59.72 6.125228 
" style="fill:none;stroke:#000000;stroke-linecap:square;stroke-linejoin:miter;stroke-width:0.8;"/>
   </g>
   <g id="patch_4">
    <path d="M 450.672 291.28 
L 450.672 6.125228 
" style="fill:none;stroke:#000000;stroke-linecap:square;stroke-linejoin:miter;stroke-width:0.8;"/>
   </g>
   <g id="patch_5">
    <path d="M 59.72 291.28 
L 450.672 291.28 
" style="fill:none;stroke:#000000;stroke-linecap:square;stroke-linejoin:miter;stroke-width:0.8;"/>
   </g>
   <g id="patch_6">
    <path d="M 59.72 6.125228 
L 450.672 6.125228 
" style="fill:none;stroke:#000000;stroke-linecap:square;stroke-linejoin:miter;stroke-width:0.8;"/>
   </g>
   <g id="text_11">
    <!-- {f1-f5}, 5-D -->
    <defs>
     <path d="M 51.125 -9.28125 
L 51.125 -16.3125 
L 48.09375 -16.3125 
Q 35.9375 -16.3125 31.8125 -12.6875 
Q 27.6875 -9.078125 27.6875 1.703125 
L 27.6875 13.375 
Q 27.6875 20.75 25.046875 23.578125 
Q 22.40625 26.421875 15.484375 26.421875 
L 12.5 26.421875 
L 12.5 33.40625 
L 15.484375 33.40625 
Q 22.46875 33.40625 25.078125 36.203125 
Q 27.6875 39.015625 27.6875 46.296875 
L 27.6875 58.015625 
Q 27.6875 68.796875 31.8125 72.390625 
Q 35.9375 75.984375 48.09375 75.984375 
L 51.125 75.984375 
L 51.125 69 
L 47.796875 69 
Q 40.921875 69 38.8125 66.84375 
Q 36.71875 64.703125 36.71875 57.8125 
L 36.71875 45.703125 
Q 36.71875 38.03125 34.5 34.5625 
Q 32.28125 31.109375 26.90625 29.890625 
Q 32.328125 28.5625 34.515625 25.09375 
Q 36.71875 21.625 36.71875 14.015625 
L 36.71875 1.90625 
Q 36.71875 -4.984375 38.8125 -7.125 
Q 40.921875 -9.28125 47.796875 -9.28125 
z
" id="DejaVuSans-7b"/>
     <path d="M 4.890625 31.390625 
L 31.203125 31.390625 
L 31.203125 23.390625 
L 4.890625 23.390625 
z
" id="DejaVuSans-2d"/>
     <path d="M 10.796875 72.90625 
L 49.515625 72.90625 
L 49.515625 64.59375 
L 19.828125 64.59375 
L 19.828125 46.734375 
Q 21.96875 47.46875 24.109375 47.828125 
Q 26.265625 48.1875 28.421875 48.1875 
Q 40.625 48.1875 47.75 41.5 
Q 54.890625 34.8125 54.890625 23.390625 
Q 54.890625 11.625 47.5625 5.09375 
Q 40.234375 -1.421875 26.90625 -1.421875 
Q 22.3125 -1.421875 17.546875 -0.640625 
Q 12.796875 0.140625 7.71875 1.703125 
L 7.71875 11.625 
Q 12.109375 9.234375 16.796875 8.0625 
Q 21.484375 6.890625 26.703125 6.890625 
Q 35.15625 6.890625 40.078125 11.328125 
Q 45.015625 15.765625 45.015625 23.390625 
Q 45.015625 31 40.078125 35.4375 
Q 35.15625 39.890625 26.703125 39.890625 
Q 22.75 39.890625 18.8125 39.015625 
Q 14.890625 38.140625 10.796875 36.28125 
z
" id="DejaVuSans-35"/>
     <path d="M 12.5 -9.28125 
L 15.921875 -9.28125 
Q 22.75 -9.28125 24.828125 -7.171875 
Q 26.90625 -5.078125 26.90625 1.90625 
L 26.90625 14.015625 
Q 26.90625 21.625 29.09375 25.09375 
Q 31.296875 28.5625 36.71875 29.890625 
Q 31.296875 31.109375 29.09375 34.5625 
Q 26.90625 38.03125 26.90625 45.703125 
L 26.90625 57.8125 
Q 26.90625 64.75 24.828125 66.875 
Q 22.75 69 15.921875 69 
L 12.5 69 
L 12.5 75.984375 
L 15.578125 75.984375 
Q 27.734375 75.984375 31.8125 72.390625 
Q 35.890625 68.796875 35.890625 58.015625 
L 35.890625 46.296875 
Q 35.890625 39.015625 38.515625 36.203125 
Q 41.15625 33.40625 48.09375 33.40625 
L 51.125 33.40625 
L 51.125 26.421875 
L 48.09375 26.421875 
Q 41.15625 26.421875 38.515625 23.578125 
Q 35.890625 20.75 35.890625 13.375 
L 35.890625 1.703125 
Q 35.890625 -9.078125 31.8125 -12.6875 
Q 27.734375 -16.3125 15.578125 -16.3125 
L 12.5 -16.3125 
z
" id="DejaVuSans-7d"/>
     <path d="M 11.71875 12.40625 
L 22.015625 12.40625 
L 22.015625 4 
L 14.015625 -11.625 
L 7.71875 -11.625 
L 11.71875 4 
z
" id="DejaVuSans-2c"/>
    </defs>
    <g transform="translate(195.071 27.025198)scale(0.2 -0.2)">
     <use xlink:href="#DejaVuSans-7b"/>
     <use x="63.623047" xlink:href="#DejaVuSans-66"/>
     <use x="98.828125" xlink:href="#DejaVuSans-31"/>
     <use x="162.451172" xlink:href="#DejaVuSans-2d"/>
     <use x="198.535156" xlink:href="#DejaVuSans-66"/>
     <use x="233.740234" xlink:href="#DejaVuSans-35"/>
     <use x="297.363281" xlink:href="#DejaVuSans-7d"/>
     <use x="360.986328" xlink:href="#DejaVuSans-2c"/>
     <use x="392.773438" xlink:href="#DejaVuSans-20"/>
     <use x="424.560547" xlink:href="#DejaVuSans-35"/>
     <use x="488.183594" xlink:href="#DejaVuSans-2d"/>
     <use x="524.267578" xlink:href="#DejaVuSans-44"/>
    </g>
   </g>
   <g id="text_12">
    <!-- absolute targets -->
    <defs>
     <path d="M 48.6875 27.296875 
Q 48.6875 37.203125 44.609375 42.84375 
Q 40.53125 48.484375 33.40625 48.484375 
Q 26.265625 48.484375 22.1875 42.84375 
Q 18.109375 37.203125 18.109375 27.296875 
Q 18.109375 17.390625 22.1875 11.75 
Q 26.265625 6.109375 33.40625 6.109375 
Q 40.53125 6.109375 44.609375 11.75 
Q 48.6875 17.390625 48.6875 27.296875 
z
M 18.109375 46.390625 
Q 20.953125 51.265625 25.265625 53.625 
Q 29.59375 56 35.59375 56 
Q 45.5625 56 51.78125 48.09375 
Q 58.015625 40.1875 58.015625 27.296875 
Q 58.015625 14.40625 51.78125 6.484375 
Q 45.5625 -1.421875 35.59375 -1.421875 
Q 29.59375 -1.421875 25.265625 0.953125 
Q 20.953125 3.328125 18.109375 8.203125 
L 18.109375 0 
L 9.078125 0 
L 9.078125 75.984375 
L 18.109375 75.984375 
z
" id="DejaVuSans-62"/>
     <path d="M 8.5 21.578125 
L 8.5 54.6875 
L 17.484375 54.6875 
L 17.484375 21.921875 
Q 17.484375 14.15625 20.5 10.265625 
Q 23.53125 6.390625 29.59375 6.390625 
Q 36.859375 6.390625 41.078125 11.03125 
Q 45.3125 15.671875 45.3125 23.6875 
L 45.3125 54.6875 
L 54.296875 54.6875 
L 54.296875 0 
L 45.3125 0 
L 45.3125 8.40625 
Q 42.046875 3.421875 37.71875 1 
Q 33.40625 -1.421875 27.6875 -1.421875 
Q 18.265625 -1.421875 13.375 4.4375 
Q 8.5 10.296875 8.5 21.578125 
z
M 31.109375 56 
z
" id="DejaVuSans-75"/>
     <path d="M 56.203125 29.59375 
L 56.203125 25.203125 
L 14.890625 25.203125 
Q 15.484375 15.921875 20.484375 11.0625 
Q 25.484375 6.203125 34.421875 6.203125 
Q 39.59375 6.203125 44.453125 7.46875 
Q 49.3125 8.734375 54.109375 11.28125 
L 54.109375 2.78125 
Q 49.265625 0.734375 44.1875 -0.34375 
Q 39.109375 -1.421875 33.890625 -1.421875 
Q 20.796875 -1.421875 13.15625 6.1875 
Q 5.515625 13.8125 5.515625 26.8125 
Q 5.515625 40.234375 12.765625 48.109375 
Q 20.015625 56 32.328125 56 
Q 43.359375 56 49.78125 48.890625 
Q 56.203125 41.796875 56.203125 29.59375 
z
M 47.21875 32.234375 
Q 47.125 39.59375 43.09375 43.984375 
Q 39.0625 48.390625 32.421875 48.390625 
Q 24.90625 48.390625 20.390625 44.140625 
Q 15.875 39.890625 15.1875 32.171875 
z
" id="DejaVuSans-65"/>
    </defs>
    <g transform="translate(59.72 601.844603)scale(0.14 -0.14)">
     <use xlink:href="#DejaVuSans-61"/>
     <use x="61.279297" xlink:href="#DejaVuSans-62"/>
     <use x="124.755859" xlink:href="#DejaVuSans-73"/>
     <use x="176.855469" xlink:href="#DejaVuSans-6f"/>
     <use x="238.037109" xlink:href="#DejaVuSans-6c"/>
     <use x="265.820312" xlink:href="#DejaVuSans-75"/>
     <use x="329.199219" xlink:href="#DejaVuSans-74"/>
     <use x="368.408203" xlink:href="#DejaVuSans-65"/>
     <use x="429.931641" xlink:href="#DejaVuSans-20"/>
     <use x="461.71875" xlink:href="#DejaVuSans-74"/>
     <use x="500.927734" xlink:href="#DejaVuSans-61"/>
     <use x="562.207031" xlink:href="#DejaVuSans-72"/>
     <use x="603.304688" xlink:href="#DejaVuSans-67"/>
     <use x="666.78125" xlink:href="#DejaVuSans-65"/>
     <use x="728.304688" xlink:href="#DejaVuSans-74"/>
     <use x="767.513672" xlink:href="#DejaVuSans-73"/>
    </g>
   </g>
   <g id="text_13">
    <!-- v2.2.1.10 -->
    <g style="fill:#808080;" transform="translate(231.563188 286.348765)scale(0.1 -0.1)">
     <use xlink:href="#DejaVuSans-76"/>
     <use x="59.179688" xlink:href="#DejaVuSans-32"/>
     <use x="122.802734" xlink:href="#DejaVuSans-2e"/>
     <use x="154.589844" xlink:href="#DejaVuSans-32"/>
     <use x="218.212891" xlink:href="#DejaVuSans-2e"/>
     <use x="250" xlink:href="#DejaVuSans-31"/>
     <use x="313.623047" xlink:href="#DejaVuSans-2e"/>
     <use x="345.410156" xlink:href="#DejaVuSans-31"/>
     <use x="409.033203" xlink:href="#DejaVuSans-30"/>
    </g>
   </g>
   <g id="legend_1">
    <g id="patch_7">
     <path d="M 73.72 139.550228 
L 202.941875 139.550228 
Q 206.941875 139.550228 206.941875 135.550228 
L 206.941875 20.125228 
Q 206.941875 16.125228 202.941875 16.125228 
L 73.72 16.125228 
Q 69.72 16.125228 69.72 20.125228 
L 69.72 135.550228 
Q 69.72 139.550228 73.72 139.550228 
z
" style="fill:#ffffff;opacity:0.2;stroke:#cccccc;stroke-linejoin:miter;"/>
    </g>
    <g id="line2d_78">
     <path d="M 77.72 32.322103 
L 117.72 32.322103 
" style="fill:none;stroke:#000000;stroke-linecap:square;stroke-width:1.5;"/>
    </g>
    <g id="line2d_79"/>
    <g id="text_14">
     <!-- 1: 2/5 -->
     <defs>
      <path d="M 11.71875 12.40625 
L 22.015625 12.40625 
L 22.015625 0 
L 11.71875 0 
z
M 11.71875 51.703125 
L 22.015625 51.703125 
L 22.015625 39.3125 
L 11.71875 39.3125 
z
" id="DejaVuSans-3a"/>
     </defs>
     <g transform="translate(133.72 39.322103)scale(0.2 -0.2)">
      <use xlink:href="#DejaVuSans-31"/>
      <use x="63.623047" xlink:href="#DejaVuSans-3a"/>
      <use x="97.314453" xlink:href="#DejaVuSans-20"/>
      <use x="129.101562" xlink:href="#DejaVuSans-32"/>
      <use x="192.724609" xlink:href="#DejaVuSans-2f"/>
      <use x="226.416016" xlink:href="#DejaVuSans-35"/>
     </g>
    </g>
    <g id="line2d_80">
     <path d="M 77.72 61.678353 
L 117.72 61.678353 
" style="fill:none;stroke:#00bfbf;stroke-linecap:square;stroke-width:1.5;"/>
    </g>
    <g id="line2d_81"/>
    <g id="text_15">
     <!-- -1: 1/5 -->
     <g transform="translate(133.72 68.678353)scale(0.2 -0.2)">
      <use xlink:href="#DejaVuSans-2d"/>
      <use x="36.083984" xlink:href="#DejaVuSans-31"/>
      <use x="99.707031" xlink:href="#DejaVuSans-3a"/>
      <use x="133.398438" xlink:href="#DejaVuSans-20"/>
      <use x="165.185547" xlink:href="#DejaVuSans-31"/>
      <use x="228.808594" xlink:href="#DejaVuSans-2f"/>
      <use x="262.5" xlink:href="#DejaVuSans-35"/>
     </g>
    </g>
    <g id="line2d_82">
     <path d="M 77.72 91.034603 
L 117.72 91.034603 
" style="fill:none;stroke:#bf00bf;stroke-linecap:square;stroke-width:1.5;"/>
    </g>
    <g id="line2d_83"/>
    <g id="text_16">
     <!-- -4: 0/5 -->
     <g transform="translate(133.72 98.034603)scale(0.2 -0.2)">
      <use xlink:href="#DejaVuSans-2d"/>
      <use x="36.083984" xlink:href="#DejaVuSans-34"/>
      <use x="99.707031" xlink:href="#DejaVuSans-3a"/>
      <use x="133.398438" xlink:href="#DejaVuSans-20"/>
      <use x="165.185547" xlink:href="#DejaVuSans-30"/>
      <use x="228.808594" xlink:href="#DejaVuSans-2f"/>
      <use x="262.5" xlink:href="#DejaVuSans-35"/>
     </g>
    </g>
    <g id="line2d_84">
     <path d="M 77.72 120.390853 
L 117.72 120.390853 
" style="fill:none;stroke:#ff0000;stroke-linecap:square;stroke-width:3;"/>
    </g>
    <g id="line2d_85"/>
    <g id="text_17">
     <!-- -8: 0/5 -->
     <g transform="translate(133.72 127.390853)scale(0.2 -0.2)">
      <use xlink:href="#DejaVuSans-2d"/>
      <use x="36.083984" xlink:href="#DejaVuSans-38"/>
      <use x="99.707031" xlink:href="#DejaVuSans-3a"/>
      <use x="133.398438" xlink:href="#DejaVuSans-20"/>
      <use x="165.185547" xlink:href="#DejaVuSans-30"/>
      <use x="228.808594" xlink:href="#DejaVuSans-2f"/>
      <use x="262.5" xlink:href="#DejaVuSans-35"/>
     </g>
    </g>
   </g>
  </g>
 </g>
 <defs>
  <clipPath id="p2f5a13a087">
   <rect height="285.154772" width="390.952" x="59.72" y="6.125228"/>
  </clipPath>
 </defs>
</svg>
