<?xml version="1.0" encoding="utf-8" standalone="no"?>
<!DOCTYPE svg PUBLIC "-//W3C//DTD SVG 1.1//EN"
  "http://www.w3.org/Graphics/SVG/1.1/DTD/svg11.dtd">
<!-- Created with matplotlib (http://matplotlib.org/) -->
<svg height="345.6pt" version="1.1" viewBox="0 0 460.8 345.6" width="460.8pt" xmlns="http://www.w3.org/2000/svg" xmlns:xlink="http://www.w3.org/1999/xlink">
 <defs>
  <style type="text/css">
*{stroke-linecap:butt;stroke-linejoin:round;}
  </style>
 </defs>
 <g id="figure_1">
  <g id="patch_1">
   <path d="M 0 345.6 
L 460.8 345.6 
L 460.8 0 
L 0 0 
z
" style="fill:#ffffff;"/>
  </g>
  <g id="axes_1">
   <g id="patch_2">
    <path d="M 5.52 291.28 
L 450.672 291.28 
L 450.672 5.52 
L 5.52 5.52 
z
" style="fill:#ffffff;"/>
   </g>
   <g id="matplotlib.axis_1">
    <g id="xtick_1">
     <g id="line2d_1">
      <path clip-path="url(#p4fb9126a7c)" d="M 5.411309 291.28 
L 5.411309 5.52 
" style="fill:none;stroke:#b0b0b0;stroke-linecap:square;stroke-width:0.8;"/>
     </g>
     <g id="line2d_2">
      <defs>
       <path d="M 0 0 
L 0 3.5 
" id="m18ea46b7b2" style="stroke:#000000;stroke-width:0.8;"/>
      </defs>
      <g>
       <use style="stroke:#000000;stroke-width:0.8;" x="5.411309" xlink:href="#m18ea46b7b2" y="291.28"/>
      </g>
     </g>
    </g>
    <g id="xtick_2">
     <g id="line2d_3">
      <path clip-path="url(#p4fb9126a7c)" d="M 106.019083 291.28 
L 106.019083 5.52 
" style="fill:none;stroke:#b0b0b0;stroke-linecap:square;stroke-width:0.8;"/>
     </g>
     <g id="line2d_4">
      <g>
       <use style="stroke:#000000;stroke-width:0.8;" x="106.019083" xlink:href="#m18ea46b7b2" y="291.28"/>
      </g>
     </g>
     <g id="text_1">
      <!-- -4 -->
      <defs>
       <path d="M 4.890625 31.390625 
L 31.203125 31.390625 
L 31.203125 23.390625 
L 4.890625 23.390625 
z
" id="DejaVuSans-2d"/>
       <path d="M 37.796875 64.3125 
L 12.890625 25.390625 
L 37.796875 25.390625 
z
M 35.203125 72.90625 
L 47.609375 72.90625 
L 47.609375 25.390625 
L 58.015625 25.390625 
L 58.015625 17.1875 
L 47.609375 17.1875 
L 47.609375 0 
L 37.796875 0 
L 37.796875 17.1875 
L 4.890625 17.1875 
L 4.890625 26.703125 
z
" id="DejaVuSans-34"/>
      </defs>
      <g transform="translate(96.04877 313.476875)scale(0.2 -0.2)">
       <use xlink:href="#DejaVuSans-2d"/>
       <use x="36.083984" xlink:href="#DejaVuSans-34"/>
      </g>
     </g>
    </g>
    <g id="xtick_3">
     <g id="line2d_5">
      <path clip-path="url(#p4fb9126a7c)" d="M 206.626857 291.28 
L 206.626857 5.52 
" style="fill:none;stroke:#b0b0b0;stroke-linecap:square;stroke-width:0.8;"/>
     </g>
     <g id="line2d_6">
      <g>
       <use style="stroke:#000000;stroke-width:0.8;" x="206.626857" xlink:href="#m18ea46b7b2" y="291.28"/>
      </g>
     </g>
     <g id="text_2">
      <!-- 0 -->
      <defs>
       <path d="M 31.78125 66.40625 
Q 24.171875 66.40625 20.328125 58.90625 
Q 16.5 51.421875 16.5 36.375 
Q 16.5 21.390625 20.328125 13.890625 
Q 24.171875 6.390625 31.78125 6.390625 
Q 39.453125 6.390625 43.28125 13.890625 
Q 47.125 21.390625 47.125 36.375 
Q 47.125 51.421875 43.28125 58.90625 
Q 39.453125 66.40625 31.78125 66.40625 
z
M 31.78125 74.21875 
Q 44.046875 74.21875 50.515625 64.515625 
Q 56.984375 54.828125 56.984375 36.375 
Q 56.984375 17.96875 50.515625 8.265625 
Q 44.046875 -1.421875 31.78125 -1.421875 
Q 19.53125 -1.421875 13.0625 8.265625 
Q 6.59375 17.96875 6.59375 36.375 
Q 6.59375 54.828125 13.0625 64.515625 
Q 19.53125 74.21875 31.78125 74.21875 
z
" id="DejaVuSans-30"/>
      </defs>
      <g transform="translate(200.264357 313.476875)scale(0.2 -0.2)">
       <use xlink:href="#DejaVuSans-30"/>
      </g>
     </g>
    </g>
    <g id="xtick_4">
     <g id="line2d_7">
      <path clip-path="url(#p4fb9126a7c)" d="M 307.234631 291.28 
L 307.234631 5.52 
" style="fill:none;stroke:#b0b0b0;stroke-linecap:square;stroke-width:0.8;"/>
     </g>
     <g id="line2d_8">
      <g>
       <use style="stroke:#000000;stroke-width:0.8;" x="307.234631" xlink:href="#m18ea46b7b2" y="291.28"/>
      </g>
     </g>
     <g id="text_3">
      <!-- 4 -->
      <g transform="translate(300.872131 313.476875)scale(0.2 -0.2)">
       <use xlink:href="#DejaVuSans-34"/>
      </g>
     </g>
    </g>
    <g id="xtick_5">
     <g id="line2d_9">
      <path clip-path="url(#p4fb9126a7c)" d="M 407.842405 291.28 
L 407.842405 5.52 
" style="fill:none;stroke:#b0b0b0;stroke-linecap:square;stroke-width:0.8;"/>
     </g>
     <g id="line2d_10">
      <g>
       <use style="stroke:#000000;stroke-width:0.8;" x="407.842405" xlink:href="#m18ea46b7b2" y="291.28"/>
      </g>
     </g>
     <g id="text_4">
      <!-- 8 -->
      <defs>
       <path d="M 31.78125 34.625 
Q 24.75 34.625 20.71875 30.859375 
Q 16.703125 27.09375 16.703125 20.515625 
Q 16.703125 13.921875 20.71875 10.15625 
Q 24.75 6.390625 31.78125 6.390625 
Q 38.8125 6.390625 42.859375 10.171875 
Q 46.921875 13.96875 46.921875 20.515625 
Q 46.921875 27.09375 42.890625 30.859375 
Q 38.875 34.625 31.78125 34.625 
z
M 21.921875 38.8125 
Q 15.578125 40.375 12.03125 44.71875 
Q 8.5 49.078125 8.5 55.328125 
Q 8.5 64.0625 14.71875 69.140625 
Q 20.953125 74.21875 31.78125 74.21875 
Q 42.671875 74.21875 48.875 69.140625 
Q 55.078125 64.0625 55.078125 55.328125 
Q 55.078125 49.078125 51.53125 44.71875 
Q 48 40.375 41.703125 38.8125 
Q 48.828125 37.15625 52.796875 32.3125 
Q 56.78125 27.484375 56.78125 20.515625 
Q 56.78125 9.90625 50.3125 4.234375 
Q 43.84375 -1.421875 31.78125 -1.421875 
Q 19.734375 -1.421875 13.25 4.234375 
Q 6.78125 9.90625 6.78125 20.515625 
Q 6.78125 27.484375 10.78125 32.3125 
Q 14.796875 37.15625 21.921875 38.8125 
z
M 18.3125 54.390625 
Q 18.3125 48.734375 21.84375 45.5625 
Q 25.390625 42.390625 31.78125 42.390625 
Q 38.140625 42.390625 41.71875 45.5625 
Q 45.3125 48.734375 45.3125 54.390625 
Q 45.3125 60.0625 41.71875 63.234375 
Q 38.140625 66.40625 31.78125 66.40625 
Q 25.390625 66.40625 21.84375 63.234375 
Q 18.3125 60.0625 18.3125 54.390625 
z
" id="DejaVuSans-38"/>
      </defs>
      <g transform="translate(401.479905 313.476875)scale(0.2 -0.2)">
       <use xlink:href="#DejaVuSans-38"/>
      </g>
     </g>
    </g>
    <g id="text_5">
     <!-- log10 of Df -->
     <defs>
      <path d="M 9.421875 75.984375 
L 18.40625 75.984375 
L 18.40625 0 
L 9.421875 0 
z
" id="DejaVuSans-6c"/>
      <path d="M 30.609375 48.390625 
Q 23.390625 48.390625 19.1875 42.75 
Q 14.984375 37.109375 14.984375 27.296875 
Q 14.984375 17.484375 19.15625 11.84375 
Q 23.34375 6.203125 30.609375 6.203125 
Q 37.796875 6.203125 41.984375 11.859375 
Q 46.1875 17.53125 46.1875 27.296875 
Q 46.1875 37.015625 41.984375 42.703125 
Q 37.796875 48.390625 30.609375 48.390625 
z
M 30.609375 56 
Q 42.328125 56 49.015625 48.375 
Q 55.71875 40.765625 55.71875 27.296875 
Q 55.71875 13.875 49.015625 6.21875 
Q 42.328125 -1.421875 30.609375 -1.421875 
Q 18.84375 -1.421875 12.171875 6.21875 
Q 5.515625 13.875 5.515625 27.296875 
Q 5.515625 40.765625 12.171875 48.375 
Q 18.84375 56 30.609375 56 
z
" id="DejaVuSans-6f"/>
      <path d="M 45.40625 27.984375 
Q 45.40625 37.75 41.375 43.109375 
Q 37.359375 48.484375 30.078125 48.484375 
Q 22.859375 48.484375 18.828125 43.109375 
Q 14.796875 37.75 14.796875 27.984375 
Q 14.796875 18.265625 18.828125 12.890625 
Q 22.859375 7.515625 30.078125 7.515625 
Q 37.359375 7.515625 41.375 12.890625 
Q 45.40625 18.265625 45.40625 27.984375 
z
M 54.390625 6.78125 
Q 54.390625 -7.171875 48.1875 -13.984375 
Q 42 -20.796875 29.203125 -20.796875 
Q 24.46875 -20.796875 20.265625 -20.09375 
Q 16.0625 -19.390625 12.109375 -17.921875 
L 12.109375 -9.1875 
Q 16.0625 -11.328125 19.921875 -12.34375 
Q 23.78125 -13.375 27.78125 -13.375 
Q 36.625 -13.375 41.015625 -8.765625 
Q 45.40625 -4.15625 45.40625 5.171875 
L 45.40625 9.625 
Q 42.625 4.78125 38.28125 2.390625 
Q 33.9375 0 27.875 0 
Q 17.828125 0 11.671875 7.65625 
Q 5.515625 15.328125 5.515625 27.984375 
Q 5.515625 40.671875 11.671875 48.328125 
Q 17.828125 56 27.875 56 
Q 33.9375 56 38.28125 53.609375 
Q 42.625 51.21875 45.40625 46.390625 
L 45.40625 54.6875 
L 54.390625 54.6875 
z
" id="DejaVuSans-67"/>
      <path d="M 12.40625 8.296875 
L 28.515625 8.296875 
L 28.515625 63.921875 
L 10.984375 60.40625 
L 10.984375 69.390625 
L 28.421875 72.90625 
L 38.28125 72.90625 
L 38.28125 8.296875 
L 54.390625 8.296875 
L 54.390625 0 
L 12.40625 0 
z
" id="DejaVuSans-31"/>
      <path id="DejaVuSans-20"/>
      <path d="M 37.109375 75.984375 
L 37.109375 68.5 
L 28.515625 68.5 
Q 23.6875 68.5 21.796875 66.546875 
Q 19.921875 64.59375 19.921875 59.515625 
L 19.921875 54.6875 
L 34.71875 54.6875 
L 34.71875 47.703125 
L 19.921875 47.703125 
L 19.921875 0 
L 10.890625 0 
L 10.890625 47.703125 
L 2.296875 47.703125 
L 2.296875 54.6875 
L 10.890625 54.6875 
L 10.890625 58.5 
Q 10.890625 67.625 15.140625 71.796875 
Q 19.390625 75.984375 28.609375 75.984375 
z
" id="DejaVuSans-66"/>
      <path d="M 19.671875 64.796875 
L 19.671875 8.109375 
L 31.59375 8.109375 
Q 46.6875 8.109375 53.6875 14.9375 
Q 60.6875 21.78125 60.6875 36.53125 
Q 60.6875 51.171875 53.6875 57.984375 
Q 46.6875 64.796875 31.59375 64.796875 
z
M 9.8125 72.90625 
L 30.078125 72.90625 
Q 51.265625 72.90625 61.171875 64.09375 
Q 71.09375 55.28125 71.09375 36.53125 
Q 71.09375 17.671875 61.125 8.828125 
Q 51.171875 0 30.078125 0 
L 9.8125 0 
z
" id="DejaVuSans-44"/>
     </defs>
     <g transform="translate(172.910063 336.833125)scale(0.2 -0.2)">
      <use xlink:href="#DejaVuSans-6c"/>
      <use x="27.783203" xlink:href="#DejaVuSans-6f"/>
      <use x="88.964844" xlink:href="#DejaVuSans-67"/>
      <use x="152.441406" xlink:href="#DejaVuSans-31"/>
      <use x="216.064453" xlink:href="#DejaVuSans-30"/>
      <use x="279.6875" xlink:href="#DejaVuSans-20"/>
      <use x="311.474609" xlink:href="#DejaVuSans-6f"/>
      <use x="372.65625" xlink:href="#DejaVuSans-66"/>
      <use x="407.861328" xlink:href="#DejaVuSans-20"/>
      <use x="439.648438" xlink:href="#DejaVuSans-44"/>
      <use x="516.650391" xlink:href="#DejaVuSans-66"/>
     </g>
    </g>
   </g>
   <g id="matplotlib.axis_2">
    <g id="ytick_1">
     <g id="line2d_11">
      <path clip-path="url(#p4fb9126a7c)" d="M 5.52 291.28 
L 450.672 291.28 
" style="fill:none;stroke:#b0b0b0;stroke-linecap:square;stroke-width:0.8;"/>
     </g>
     <g id="line2d_12">
      <defs>
       <path d="M 0 0 
L -3.5 0 
" id="m1244c1ba0e" style="stroke:#000000;stroke-width:0.8;"/>
      </defs>
      <g>
       <use style="stroke:#000000;stroke-width:0.8;" x="5.52" xlink:href="#m1244c1ba0e" y="291.28"/>
      </g>
     </g>
    </g>
    <g id="ytick_2">
     <g id="line2d_13">
      <path clip-path="url(#p4fb9126a7c)" d="M 5.52 234.693861 
L 450.672 234.693861 
" style="fill:none;stroke:#b0b0b0;stroke-linecap:square;stroke-width:0.8;"/>
     </g>
     <g id="line2d_14">
      <g>
       <use style="stroke:#000000;stroke-width:0.8;" x="5.52" xlink:href="#m1244c1ba0e" y="234.693861"/>
      </g>
     </g>
    </g>
    <g id="ytick_3">
     <g id="line2d_15">
      <path clip-path="url(#p4fb9126a7c)" d="M 5.52 178.107723 
L 450.672 178.107723 
" style="fill:none;stroke:#b0b0b0;stroke-linecap:square;stroke-width:0.8;"/>
     </g>
     <g id="line2d_16">
      <g>
       <use style="stroke:#000000;stroke-width:0.8;" x="5.52" xlink:href="#m1244c1ba0e" y="178.107723"/>
      </g>
     </g>
    </g>
    <g id="ytick_4">
     <g id="line2d_17">
      <path clip-path="url(#p4fb9126a7c)" d="M 5.52 121.521584 
L 450.672 121.521584 
" style="fill:none;stroke:#b0b0b0;stroke-linecap:square;stroke-width:0.8;"/>
     </g>
     <g id="line2d_18">
      <g>
       <use style="stroke:#000000;stroke-width:0.8;" x="5.52" xlink:href="#m1244c1ba0e" y="121.521584"/>
      </g>
     </g>
    </g>
    <g id="ytick_5">
     <g id="line2d_19">
      <path clip-path="url(#p4fb9126a7c)" d="M 5.52 64.935446 
L 450.672 64.935446 
" style="fill:none;stroke:#b0b0b0;stroke-linecap:square;stroke-width:0.8;"/>
     </g>
     <g id="line2d_20">
      <g>
       <use style="stroke:#000000;stroke-width:0.8;" x="5.52" xlink:href="#m1244c1ba0e" y="64.935446"/>
      </g>
     </g>
    </g>
    <g id="ytick_6">
     <g id="line2d_21">
      <path clip-path="url(#p4fb9126a7c)" d="M 5.52 8.349307 
L 450.672 8.349307 
" style="fill:none;stroke:#b0b0b0;stroke-linecap:square;stroke-width:0.8;"/>
     </g>
     <g id="line2d_22">
      <g>
       <use style="stroke:#000000;stroke-width:0.8;" x="5.52" xlink:href="#m1244c1ba0e" y="8.349307"/>
      </g>
     </g>
    </g>
   </g>
   <g id="line2d_23">
    <path clip-path="url(#p4fb9126a7c)" d="M 238.601642 291.28 
L 238.601642 290.101122 
L 245.810146 290.101122 
L 245.810146 288.922244 
L 251.180735 288.922244 
L 251.180735 287.743366 
L 251.312606 287.743366 
L 251.312606 286.564488 
L 253.459574 286.564488 
L 253.517786 283.027855 
L 254.317628 283.027855 
L 254.317628 281.848977 
L 255.1481 281.848977 
L 255.1481 280.670099 
L 255.282833 280.670099 
L 255.282833 279.491221 
L 255.631208 279.491221 
L 255.631208 278.312343 
L 255.819292 278.312343 
L 255.819292 277.133465 
L 256.231591 277.133465 
L 256.24985 274.77571 
L 256.608377 274.77571 
L 256.677111 270.060198 
L 257.648693 270.060198 
L 257.648693 268.88132 
L 258.006543 268.88132 
L 258.006543 267.702442 
L 258.491145 267.702442 
L 258.508641 265.344686 
L 258.637149 265.344686 
L 258.637149 264.165809 
L 258.858697 264.165809 
L 258.858697 262.986931 
L 259.027751 262.986931 
L 259.027751 261.808053 
L 259.19128 261.808053 
L 259.19128 260.629175 
L 259.651495 260.629175 
L 259.651495 259.450297 
L 259.954497 259.450297 
L 260.052155 257.092541 
L 260.152503 257.092541 
L 260.152503 255.913663 
L 260.53493 255.913663 
L 260.53493 254.734785 
L 260.906442 254.734785 
L 260.906442 253.555908 
L 261.272236 253.555908 
L 261.272236 252.37703 
L 261.418844 252.37703 
L 261.418844 251.198152 
L 261.728446 251.198152 
L 261.728446 250.019274 
L 261.846277 250.019274 
L 261.911579 247.661518 
L 262.090986 247.661518 
L 262.090986 246.48264 
L 262.810602 246.48264 
L 262.810602 245.303762 
L 263.21148 245.303762 
L 263.21148 244.124884 
L 263.360453 244.124884 
L 263.360453 242.946007 
L 263.480304 242.946007 
L 263.480304 241.767129 
L 263.728904 241.767129 
L 263.774474 239.409373 
L 264.153129 239.409373 
L 264.153129 238.230495 
L 264.279674 238.230495 
L 264.279674 237.051617 
L 265.338973 237.051617 
L 265.338973 235.872739 
L 266.220371 235.872739 
L 266.220371 234.693861 
L 266.630668 234.693861 
L 266.673328 232.336106 
L 267.052192 232.336106 
L 267.052192 231.157228 
L 267.185818 231.157228 
L 267.267335 228.799472 
L 267.532599 228.799472 
L 267.532599 227.620594 
L 267.97359 227.620594 
L 267.97359 226.441716 
L 268.16547 226.441716 
L 268.226776 224.08396 
L 269.162795 224.08396 
L 269.162795 222.905083 
L 269.390384 222.905083 
L 269.390384 221.726205 
L 269.830386 221.726205 
L 269.900656 219.368449 
L 270.407016 219.368449 
L 270.491167 217.010693 
L 270.540263 217.010693 
L 270.540263 215.831815 
L 270.7565 215.831815 
L 270.7565 214.652937 
L 270.944309 214.652937 
L 270.944309 213.474059 
L 271.176738 213.474059 
L 271.176738 212.295182 
L 271.314367 212.295182 
L 271.314367 211.116304 
L 271.667309 211.116304 
L 271.667309 209.937426 
L 272.768261 209.937426 
L 272.768261 208.758548 
L 272.934064 208.758548 
L 272.934064 207.57967 
L 273.05012 207.57967 
L 273.14596 205.221914 
L 273.300046 205.221914 
L 273.300046 204.043036 
L 273.815951 204.043036 
L 273.834281 201.685281 
L 273.937523 201.685281 
L 273.937523 200.506403 
L 274.079742 200.506403 
L 274.079742 199.327525 
L 274.348508 199.327525 
L 274.348508 198.148647 
L 274.521354 198.148647 
L 274.554591 195.790891 
L 274.660608 195.790891 
L 274.766456 192.254257 
L 275.829834 192.254257 
L 275.829834 191.07538 
L 276.561692 191.07538 
L 276.561692 189.896502 
L 276.74057 189.896502 
L 276.74057 188.717624 
L 277.253023 188.717624 
L 277.346897 185.18099 
L 277.641569 185.18099 
L 277.641569 184.002112 
L 277.78118 184.002112 
L 277.78118 182.823234 
L 277.974992 182.823234 
L 277.974992 181.644356 
L 278.228063 181.644356 
L 278.228063 180.465479 
L 278.676785 180.465479 
L 278.765065 178.107723 
L 278.985057 178.107723 
L 279.089019 175.749967 
L 279.206699 175.749967 
L 279.206699 174.571089 
L 279.700162 174.571089 
L 279.700162 173.392211 
L 279.886718 173.392211 
L 279.886718 172.213333 
L 280.310987 172.213333 
L 280.310987 171.034455 
L 280.850427 171.034455 
L 280.850427 169.855578 
L 281.060663 169.855578 
L 281.067493 167.497822 
L 281.212552 167.497822 
L 281.212552 166.318944 
L 282.095291 166.318944 
L 282.095291 165.140066 
L 282.536106 165.140066 
L 282.536106 163.961188 
L 282.729027 163.961188 
L 282.729027 162.78231 
L 283.910025 162.78231 
L 283.910025 161.603432 
L 285.163231 161.603432 
L 285.24012 159.245677 
L 285.439076 159.245677 
L 285.439489 156.887921 
L 287.081318 156.887921 
L 287.081318 155.709043 
L 288.411643 155.709043 
L 288.411643 154.530165 
L 290.337638 154.530165 
L 290.337638 153.351287 
L 291.916253 153.351287 
L 291.967237 150.993531 
L 292.320764 150.993531 
L 292.320764 149.814653 
L 292.457472 149.814653 
L 292.457472 148.635776 
L 292.691492 148.635776 
L 292.691492 147.456898 
L 293.091819 147.456898 
L 293.091819 146.27802 
L 294.083611 146.27802 
L 294.174327 143.920264 
L 294.70409 143.920264 
L 294.70409 142.741386 
L 294.842279 142.741386 
L 294.842279 141.562508 
L 295.057297 141.562508 
L 295.057297 140.38363 
L 296.378998 140.38363 
L 296.378998 139.204752 
L 297.217315 139.204752 
L 297.217315 138.025875 
L 297.381797 138.025875 
L 297.381797 136.846997 
L 298.907528 136.846997 
L 298.907528 135.668119 
L 299.031713 135.668119 
L 299.031713 134.489241 
L 299.548576 134.489241 
L 299.548576 133.310363 
L 299.665509 133.310363 
L 299.665509 132.131485 
L 301.023422 132.131485 
L 301.023422 130.952607 
L 302.351213 130.952607 
L 302.351213 129.773729 
L 302.592223 129.773729 
L 302.681838 127.415974 
L 302.977714 127.415974 
L 302.977714 126.237096 
L 303.150002 126.237096 
L 303.150002 125.058218 
L 303.561051 125.058218 
L 303.62443 122.700462 
L 304.433795 122.700462 
L 304.433795 121.521584 
L 305.661992 121.521584 
L 305.661992 120.342706 
L 306.345531 120.342706 
L 306.44195 116.806073 
L 306.590261 116.806073 
L 306.590261 115.627195 
L 307.479579 115.627195 
L 307.479579 114.448317 
L 307.764376 114.448317 
L 307.764376 113.269439 
L 308.61558 113.269439 
L 308.61558 112.090561 
L 308.812847 112.090561 
L 308.812847 110.911683 
L 309.691022 110.911683 
L 309.691022 109.732805 
L 309.802466 109.732805 
L 309.904398 107.37505 
L 310.119093 107.37505 
L 310.119093 106.196172 
L 310.386134 106.196172 
L 310.494392 103.838416 
L 310.973657 103.838416 
L 310.973657 102.659538 
L 311.586761 102.659538 
L 311.586761 101.48066 
L 311.936359 101.48066 
L 311.936359 100.301782 
L 312.439559 100.301782 
L 312.439559 99.122904 
L 312.848376 99.122904 
L 312.848376 97.944026 
L 313.388194 97.944026 
L 313.388194 96.765149 
L 314.466746 96.765149 
L 314.466746 95.586271 
L 314.864638 95.586271 
L 314.864638 94.407393 
L 315.602565 94.407393 
L 315.602565 93.228515 
L 315.818804 93.228515 
L 315.818804 92.049637 
L 316.861272 92.049637 
L 316.861272 90.870759 
L 317.094454 90.870759 
L 317.094454 89.691881 
L 319.637514 89.691881 
L 319.637514 88.513003 
L 320.308081 88.513003 
L 320.308081 87.334125 
L 320.639365 87.334125 
L 320.639365 86.155248 
L 321.440836 86.155248 
L 321.440836 84.97637 
L 321.910029 84.97637 
L 321.910029 83.797492 
L 322.570001 83.797492 
L 322.570001 82.618614 
L 323.096682 82.618614 
L 323.096682 81.439736 
L 324.014975 81.439736 
L 324.014975 80.260858 
L 324.275581 80.260858 
L 324.275581 79.08198 
L 324.734608 79.08198 
L 324.734608 77.903102 
L 325.250279 77.903102 
L 325.250279 76.724224 
L 325.988172 76.724224 
L 325.988172 75.545347 
L 326.541682 75.545347 
L 326.541682 74.366469 
L 326.701134 74.366469 
L 326.754954 68.472079 
L 327.23461 68.472079 
L 327.23461 67.293201 
L 327.992422 67.293201 
L 327.992422 66.114323 
L 328.260015 66.114323 
L 328.260015 64.935446 
L 328.398945 64.935446 
L 328.398945 63.756568 
L 328.603209 63.756568 
L 328.603209 62.57769 
L 328.796912 62.57769 
L 328.812313 60.219934 
L 328.954931 60.219934 
L 328.954931 59.041056 
L 329.387085 59.041056 
L 329.434047 56.6833 
L 329.648706 56.6833 
L 329.648706 55.504422 
L 330.031844 55.504422 
L 330.031844 54.325545 
L 330.189022 54.325545 
L 330.189022 53.146667 
L 330.858236 53.146667 
L 330.946047 50.788911 
L 331.04106 50.788911 
L 331.04106 49.610033 
L 331.254736 49.610033 
L 331.361201 47.252277 
L 332.183457 47.252277 
L 332.183457 46.073399 
L 332.312332 46.073399 
L 332.381635 43.715644 
L 332.915391 43.715644 
L 332.915391 42.536766 
L 333.580542 42.536766 
L 333.651463 40.17901 
L 334.093437 40.17901 
L 334.093437 39.000132 
L 334.254711 39.000132 
L 334.254711 37.821254 
L 334.476187 37.821254 
L 334.476187 36.642376 
L 335.033838 36.642376 
L 335.033838 35.463498 
L 335.739373 35.463498 
L 335.739373 34.28462 
L 336.102028 34.28462 
L 336.168656 30.747987 
L 336.82775 30.747987 
L 336.82775 29.569109 
L 337.508032 29.569109 
L 337.562814 27.211353 
L 338.474356 27.211353 
L 338.474356 26.032475 
L 338.704503 26.032475 
L 338.704503 24.853597 
L 338.861726 24.853597 
L 338.953695 22.495842 
L 339.259203 22.495842 
L 339.259203 21.316964 
L 339.512784 21.316964 
L 339.512784 20.138086 
L 341.570801 20.138086 
L 341.570801 18.959208 
L 342.214844 18.959208 
L 342.306884 16.601452 
L 344.143663 16.601452 
L 344.143663 15.422574 
L 344.469771 15.422574 
L 344.469771 14.243696 
L 345.9395 14.243696 
L 345.982601 10.707063 
L 348.492206 10.707063 
L 348.492206 9.528185 
L 351.601624 9.528185 
L 351.601624 8.349307 
L 351.601624 8.349307 
L 450.672 8.349307 
L 450.672 8.349307 
" style="fill:none;stroke:#ff0000;stroke-linecap:square;stroke-width:3;"/>
   </g>
   <g id="line2d_24">
    <path clip-path="url(#p4fb9126a7c)" d="M 271.800927 291.28 
L 271.800927 290.101122 
L 272.428163 290.101122 
L 272.428163 288.922244 
L 273.644907 288.922244 
L 273.644907 287.743366 
L 273.905214 287.743366 
L 273.905214 286.564488 
L 274.042327 286.564488 
L 274.042327 285.385611 
L 274.475983 285.385611 
L 274.475983 284.206733 
L 274.901723 284.206733 
L 274.901723 283.027855 
L 275.224321 283.027855 
L 275.227951 280.670099 
L 275.380541 280.670099 
L 275.380541 279.491221 
L 275.835025 279.491221 
L 275.835025 278.312343 
L 276.452053 278.312343 
L 276.452053 277.133465 
L 276.829515 277.133465 
L 276.857137 274.77571 
L 277.50975 274.77571 
L 277.50975 273.596832 
L 277.648262 273.596832 
L 277.662382 270.060198 
L 277.935851 270.060198 
L 277.972369 267.702442 
L 278.116309 267.702442 
L 278.219465 265.344686 
L 278.246226 265.344686 
L 278.246226 264.165809 
L 278.408185 264.165809 
L 278.408185 262.986931 
L 278.631686 262.986931 
L 278.691021 260.629175 
L 278.905476 260.629175 
L 278.905476 259.450297 
L 279.166665 259.450297 
L 279.18166 257.092541 
L 279.490917 257.092541 
L 279.490917 255.913663 
L 279.602071 255.913663 
L 279.665975 253.555908 
L 279.750039 253.555908 
L 279.750039 252.37703 
L 280.226955 252.37703 
L 280.233129 250.019274 
L 280.479042 250.019274 
L 280.479511 247.661518 
L 280.616837 247.661518 
L 280.636296 245.303762 
L 281.181706 245.303762 
L 281.181706 244.124884 
L 281.327387 244.124884 
L 281.327387 242.946007 
L 282.034499 242.946007 
L 282.095291 240.588251 
L 282.551409 240.588251 
L 282.551409 239.409373 
L 282.99196 239.409373 
L 282.99196 238.230495 
L 283.126636 238.230495 
L 283.126636 237.051617 
L 283.919937 237.051617 
L 283.939665 234.693861 
L 284.559034 234.693861 
L 284.58493 232.336106 
L 284.912148 232.336106 
L 284.912148 231.157228 
L 285.079963 231.157228 
L 285.079963 229.97835 
L 285.206407 229.97835 
L 285.302978 227.620594 
L 285.414161 227.620594 
L 285.414161 226.441716 
L 286.693234 226.441716 
L 286.693234 225.262838 
L 287.030424 225.262838 
L 287.030424 224.08396 
L 287.145559 224.08396 
L 287.145559 222.905083 
L 287.583262 222.905083 
L 287.583262 221.726205 
L 290.836436 221.726205 
L 290.836436 220.547327 
L 315.650625 220.547327 
L 315.650625 219.368449 
L 320.319234 219.368449 
L 320.319234 218.189571 
L 320.962785 218.189571 
L 320.962785 217.010693 
L 321.214877 217.010693 
L 321.214877 215.831815 
L 321.395157 215.831815 
L 321.395157 214.652937 
L 322.191504 214.652937 
L 322.191504 213.474059 
L 322.450637 213.474059 
L 322.450637 212.295182 
L 322.570001 212.295182 
L 322.570001 211.116304 
L 322.900344 211.116304 
L 322.900344 209.937426 
L 323.335627 209.937426 
L 323.335627 208.758548 
L 323.941034 208.758548 
L 324.017935 205.221914 
L 324.160282 205.221914 
L 324.208557 202.864158 
L 324.455592 202.864158 
L 324.455592 201.685281 
L 324.672344 201.685281 
L 324.672344 200.506403 
L 325.083449 200.506403 
L 325.083449 199.327525 
L 325.606675 199.327525 
L 325.606675 198.148647 
L 326.215847 198.148647 
L 326.215847 196.969769 
L 326.347266 196.969769 
L 326.361829 194.612013 
L 326.608686 194.612013 
L 326.608686 193.433135 
L 326.801751 193.433135 
L 326.889065 191.07538 
L 327.068297 191.07538 
L 327.068297 189.896502 
L 327.439618 189.896502 
L 327.478753 187.538746 
L 327.706844 187.538746 
L 327.726687 185.18099 
L 328.067312 185.18099 
L 328.067312 184.002112 
L 328.207304 184.002112 
L 328.207304 182.823234 
L 328.652585 182.823234 
L 328.652585 181.644356 
L 329.006143 181.644356 
L 329.006143 180.465479 
L 329.271479 180.465479 
L 329.271479 179.286601 
L 329.434047 179.286601 
L 329.434047 178.107723 
L 329.870675 178.107723 
L 329.882983 175.749967 
L 330.588614 175.749967 
L 330.588614 174.571089 
L 330.768251 174.571089 
L 330.768251 173.392211 
L 330.970496 173.392211 
L 331.023079 171.034455 
L 331.254736 171.034455 
L 331.360234 168.6767 
L 331.89761 168.6767 
L 331.937429 166.318944 
L 332.101668 166.318944 
L 332.10257 163.961188 
L 332.323954 163.961188 
L 332.323954 162.78231 
L 332.508557 162.78231 
L 332.610183 160.424554 
L 332.852356 160.424554 
L 332.852356 159.245677 
L 333.022198 159.245677 
L 333.022198 158.066799 
L 333.57171 158.066799 
L 333.624865 155.709043 
L 333.840944 155.709043 
L 333.840944 154.530165 
L 334.5578 154.530165 
L 334.5578 153.351287 
L 334.836758 153.351287 
L 334.873956 150.993531 
L 334.965623 150.993531 
L 335.067401 148.635776 
L 335.19899 148.635776 
L 335.19899 147.456898 
L 335.399467 147.456898 
L 335.438511 145.099142 
L 335.599435 145.099142 
L 335.686288 140.38363 
L 335.775107 140.38363 
L 335.775107 139.204752 
L 336.040781 139.204752 
L 336.079889 136.846997 
L 336.699339 136.846997 
L 336.699339 135.668119 
L 337.387215 135.668119 
L 337.387215 134.489241 
L 337.668876 134.489241 
L 337.704047 132.131485 
L 337.906268 132.131485 
L 337.957895 129.773729 
L 338.208112 129.773729 
L 338.208112 128.594851 
L 338.513762 128.594851 
L 338.543333 126.237096 
L 338.853561 126.237096 
L 338.92661 122.700462 
L 339.180953 122.700462 
L 339.180953 121.521584 
L 339.299843 121.521584 
L 339.299843 120.342706 
L 339.446589 120.342706 
L 339.446589 119.163828 
L 339.636412 119.163828 
L 339.67513 116.806073 
L 339.934777 116.806073 
L 339.934777 115.627195 
L 340.074064 115.627195 
L 340.074064 114.448317 
L 340.196717 114.448317 
L 340.208084 112.090561 
L 340.468606 112.090561 
L 340.562194 109.732805 
L 340.617533 109.732805 
L 340.617533 108.553927 
L 340.893395 108.553927 
L 340.943684 106.196172 
L 341.035952 106.196172 
L 341.035952 105.017294 
L 341.151634 105.017294 
L 341.151634 103.838416 
L 341.705487 103.838416 
L 341.761345 101.48066 
L 342.088674 101.48066 
L 342.088674 100.301782 
L 342.290008 100.301782 
L 342.290008 99.122904 
L 342.485397 99.122904 
L 342.485397 97.944026 
L 342.820313 97.944026 
L 342.820313 96.765149 
L 342.956986 96.765149 
L 342.969363 94.407393 
L 343.111208 94.407393 
L 343.111208 93.228515 
L 343.45462 93.228515 
L 343.558964 90.870759 
L 343.603908 90.870759 
L 343.603908 89.691881 
L 343.933787 89.691881 
L 343.956742 87.334125 
L 344.13415 87.334125 
L 344.13415 86.155248 
L 344.389769 86.155248 
L 344.39608 83.797492 
L 344.711489 83.797492 
L 344.786636 81.439736 
L 344.899657 81.439736 
L 344.986754 77.903102 
L 345.021945 77.903102 
L 345.021945 76.724224 
L 345.239471 76.724224 
L 345.3266 74.366469 
L 345.751872 74.366469 
L 345.751872 73.187591 
L 345.864772 73.187591 
L 345.958971 69.650957 
L 346.349118 69.650957 
L 346.460055 64.935446 
L 346.512982 64.935446 
L 346.512982 63.756568 
L 346.791221 63.756568 
L 346.842804 61.398812 
L 346.990659 61.398812 
L 346.990659 60.219934 
L 347.263524 60.219934 
L 347.263524 59.041056 
L 347.416419 59.041056 
L 347.416419 57.862178 
L 347.986645 57.862178 
L 347.996883 55.504422 
L 348.569584 55.504422 
L 348.583001 53.146667 
L 348.872329 53.146667 
L 348.926915 50.788911 
L 349.042684 50.788911 
L 349.091735 48.431155 
L 349.322294 48.431155 
L 349.363869 46.073399 
L 349.786785 46.073399 
L 349.786785 44.894521 
L 350.171094 44.894521 
L 350.242242 42.536766 
L 350.35793 42.536766 
L 350.35793 41.357888 
L 350.765698 41.357888 
L 350.765698 40.17901 
L 350.89428 40.17901 
L 350.94977 35.463498 
L 351.43465 35.463498 
L 351.54078 31.926865 
L 351.624702 31.926865 
L 351.674162 28.390231 
L 351.899774 28.390231 
L 351.899774 27.211353 
L 352.040578 27.211353 
L 352.040578 26.032475 
L 352.325022 26.032475 
L 352.325022 24.853597 
L 352.64906 24.853597 
L 352.64906 23.674719 
L 354.940036 23.674719 
L 354.940036 22.495842 
L 355.914793 22.495842 
L 355.914793 21.316964 
L 356.038593 21.316964 
L 356.038593 20.138086 
L 356.38768 20.138086 
L 356.468067 17.78033 
L 357.493776 17.78033 
L 357.493776 16.601452 
L 357.845986 16.601452 
L 357.845986 15.422574 
L 358.082417 15.422574 
L 358.082417 14.243696 
L 358.468438 14.243696 
L 358.559924 10.707063 
L 358.639002 10.707063 
L 358.639002 9.528185 
L 358.755174 9.528185 
L 358.755174 8.349307 
L 358.755174 8.349307 
L 450.672 8.349307 
L 450.672 8.349307 
" style="fill:none;stroke:#00bfbf;stroke-linecap:square;stroke-width:1.5;"/>
   </g>
   <g id="line2d_25">
    <path clip-path="url(#p4fb9126a7c)" d="M 268.107155 291.28 
L 268.107155 290.101122 
L 271.800927 290.101122 
L 271.800927 288.922244 
L 272.428163 288.922244 
L 272.428163 287.743366 
L 272.711232 287.743366 
L 272.711232 286.564488 
L 273.187332 286.564488 
L 273.187332 285.385611 
L 273.339604 285.385611 
L 273.339604 284.206733 
L 273.468955 284.206733 
L 273.493321 281.848977 
L 273.905214 281.848977 
L 273.905214 280.670099 
L 274.042327 280.670099 
L 274.042327 279.491221 
L 274.159013 279.491221 
L 274.159013 278.312343 
L 274.475983 278.312343 
L 274.475983 277.133465 
L 274.788216 277.133465 
L 274.788216 275.954587 
L 274.901723 275.954587 
L 274.901723 274.77571 
L 275.224321 274.77571 
L 275.227951 272.417954 
L 275.380541 272.417954 
L 275.380541 271.239076 
L 275.680786 271.239076 
L 275.680786 270.060198 
L 275.835025 270.060198 
L 275.835025 268.88132 
L 276.651701 268.88132 
L 276.651701 267.702442 
L 276.829515 267.702442 
L 276.857137 265.344686 
L 277.578653 265.344686 
L 277.672853 255.913663 
L 277.78118 255.913663 
L 277.842055 253.555908 
L 278.085122 253.555908 
L 278.085122 252.37703 
L 278.219465 252.37703 
L 278.246226 250.019274 
L 278.618487 250.019274 
L 278.691021 247.661518 
L 279.148583 247.661518 
L 279.18166 242.946007 
L 279.339759 242.946007 
L 279.339759 241.767129 
L 279.490917 241.767129 
L 279.490917 240.588251 
L 279.665975 240.588251 
L 279.665975 239.409373 
L 279.870796 239.409373 
L 279.870796 238.230495 
L 280.047891 238.230495 
L 280.047891 237.051617 
L 280.479511 237.051617 
L 280.479511 235.872739 
L 280.616837 235.872739 
L 280.636296 233.514983 
L 281.26913 233.514983 
L 281.320882 231.157228 
L 281.927255 231.157228 
L 282.034499 228.799472 
L 282.095291 228.799472 
L 282.095291 227.620594 
L 282.502852 227.620594 
L 282.502852 226.441716 
L 283.278541 226.441716 
L 283.278541 225.262838 
L 284.550232 225.262838 
L 284.58493 222.905083 
L 285.206407 222.905083 
L 285.206407 221.726205 
L 285.690636 221.726205 
L 285.690636 220.547327 
L 315.650625 220.547327 
L 315.650625 219.368449 
L 320.319234 219.368449 
L 320.319234 218.189571 
L 320.962785 218.189571 
L 320.962785 217.010693 
L 321.214877 217.010693 
L 321.24503 214.652937 
L 322.191504 214.652937 
L 322.191504 213.474059 
L 322.450637 213.474059 
L 322.450637 212.295182 
L 322.570001 212.295182 
L 322.60904 209.937426 
L 322.855631 209.937426 
L 322.900344 207.57967 
L 323.121262 207.57967 
L 323.121262 206.400792 
L 323.335627 206.400792 
L 323.335627 205.221914 
L 323.941034 205.221914 
L 324.017935 200.506403 
L 324.160282 200.506403 
L 324.220889 196.969769 
L 324.373332 196.969769 
L 324.482246 193.433135 
L 324.672344 193.433135 
L 324.672344 192.254257 
L 325.083449 192.254257 
L 325.179465 189.896502 
L 325.606675 189.896502 
L 325.707724 186.359868 
L 326.215847 186.359868 
L 326.215847 185.18099 
L 326.347266 185.18099 
L 326.361829 182.823234 
L 326.608686 182.823234 
L 326.613869 180.465479 
L 326.801751 180.465479 
L 326.889065 178.107723 
L 327.068297 178.107723 
L 327.068297 176.928845 
L 327.439618 176.928845 
L 327.483197 172.213333 
L 327.60806 172.213333 
L 327.706844 169.855578 
L 327.726687 169.855578 
L 327.726687 168.6767 
L 327.96825 168.6767 
L 327.96825 167.497822 
L 328.796912 167.497822 
L 328.808537 165.140066 
L 328.954931 165.140066 
L 329.006143 162.78231 
L 329.434047 162.78231 
L 329.451835 160.424554 
L 329.739874 160.424554 
L 329.768031 156.887921 
L 330.284382 156.887921 
L 330.284382 155.709043 
L 330.588614 155.709043 
L 330.588614 154.530165 
L 330.768251 154.530165 
L 330.858236 152.172409 
L 331.023079 152.172409 
L 331.023079 150.993531 
L 331.254736 150.993531 
L 331.362684 146.27802 
L 331.672222 146.27802 
L 331.672222 145.099142 
L 331.937429 145.099142 
L 331.937429 143.920264 
L 332.101668 143.920264 
L 332.101668 142.741386 
L 332.323954 142.741386 
L 332.323954 141.562508 
L 332.610183 141.562508 
L 332.610183 140.38363 
L 332.792558 140.38363 
L 332.792558 139.204752 
L 333.305491 139.204752 
L 333.305491 138.025875 
L 333.485817 138.025875 
L 333.57171 135.668119 
L 333.624865 135.668119 
L 333.695939 133.310363 
L 333.840944 133.310363 
L 333.95179 130.952607 
L 333.981381 130.952607 
L 334.079311 128.594851 
L 334.784658 128.594851 
L 334.784658 127.415974 
L 334.965623 127.415974 
L 334.965623 126.237096 
L 335.171651 126.237096 
L 335.19899 123.87934 
L 335.399467 123.87934 
L 335.399467 122.700462 
L 335.599435 122.700462 
L 335.686288 119.163828 
L 335.775107 119.163828 
L 335.775107 117.98495 
L 336.040781 117.98495 
L 336.083548 114.448317 
L 336.699339 114.448317 
L 336.792215 112.090561 
L 337.18807 112.090561 
L 337.18807 110.911683 
L 337.454029 110.911683 
L 337.454029 109.732805 
L 337.582391 109.732805 
L 337.668876 107.37505 
L 337.795058 107.37505 
L 337.795058 106.196172 
L 337.957895 106.196172 
L 337.957895 105.017294 
L 338.148544 105.017294 
L 338.224416 101.48066 
L 338.543333 101.48066 
L 338.543333 100.301782 
L 338.704503 100.301782 
L 338.704503 99.122904 
L 338.92497 99.122904 
L 338.92497 97.944026 
L 339.180953 97.944026 
L 339.216091 95.586271 
L 339.377479 95.586271 
L 339.377479 94.407393 
L 339.582642 94.407393 
L 339.67513 92.049637 
L 339.864996 92.049637 
L 339.948563 88.513003 
L 340.208084 88.513003 
L 340.208084 87.334125 
L 340.530798 87.334125 
L 340.530798 86.155248 
L 340.767537 86.155248 
L 340.767537 84.97637 
L 340.893395 84.97637 
L 340.893395 83.797492 
L 341.282339 83.797492 
L 341.282339 82.618614 
L 341.619835 82.618614 
L 341.619835 81.439736 
L 342.088674 81.439736 
L 342.088674 80.260858 
L 342.686806 80.260858 
L 342.686806 79.08198 
L 342.969363 79.08198 
L 342.969363 77.903102 
L 343.111208 77.903102 
L 343.166753 75.545347 
L 343.599122 75.545347 
L 343.603908 73.187591 
L 343.894969 73.187591 
L 343.956742 69.650957 
L 344.090978 69.650957 
L 344.13415 67.293201 
L 344.39608 67.293201 
L 344.39608 66.114323 
L 344.630889 66.114323 
L 344.630889 64.935446 
L 344.761387 64.935446 
L 344.761387 63.756568 
L 344.930384 63.756568 
L 345.021945 56.6833 
L 345.064024 56.6833 
L 345.139034 51.967789 
L 345.3266 51.967789 
L 345.3266 50.788911 
L 345.444753 50.788911 
L 345.494941 48.431155 
L 345.710588 48.431155 
L 345.710588 47.252277 
L 345.978461 47.252277 
L 345.978461 46.073399 
L 346.460055 46.073399 
L 346.471448 43.715644 
L 346.602408 43.715644 
L 346.602408 42.536766 
L 347.263524 42.536766 
L 347.263524 41.357888 
L 347.416419 41.357888 
L 347.416419 40.17901 
L 348.138608 40.17901 
L 348.138608 39.000132 
L 348.72625 39.000132 
L 348.72625 37.821254 
L 348.926915 37.821254 
L 348.926915 36.642376 
L 349.042684 36.642376 
L 349.042684 35.463498 
L 349.363869 35.463498 
L 349.363869 34.28462 
L 349.786785 34.28462 
L 349.786785 33.105743 
L 350.307828 33.105743 
L 350.35793 30.747987 
L 351.406275 30.747987 
L 351.478338 24.853597 
L 351.54078 24.853597 
L 351.627954 21.316964 
L 351.699079 21.316964 
L 351.722796 18.959208 
L 351.853176 18.959208 
L 351.853176 17.78033 
L 352.106127 17.78033 
L 352.106127 16.601452 
L 352.325022 16.601452 
L 352.325022 15.422574 
L 353.35019 15.422574 
L 353.35019 14.243696 
L 354.098705 14.243696 
L 354.098705 13.064818 
L 355.211113 13.064818 
L 355.211113 11.885941 
L 355.914793 11.885941 
L 355.914793 10.707063 
L 357.085819 10.707063 
L 357.085819 9.528185 
L 358.423693 9.528185 
L 358.423693 8.349307 
L 358.423693 8.349307 
L 450.672 8.349307 
L 450.672 8.349307 
" style="fill:none;stroke:#bf00bf;stroke-linecap:square;stroke-width:1.5;"/>
   </g>
   <g id="line2d_26">
    <path clip-path="url(#p4fb9126a7c)" d="M 268.107155 291.28 
L 268.107155 290.101122 
L 268.364176 290.101122 
L 268.364176 288.922244 
L 269.134707 288.922244 
L 269.134707 287.743366 
L 269.416112 287.743366 
L 269.416112 286.564488 
L 269.725043 286.564488 
L 269.725043 285.385611 
L 270.083295 285.385611 
L 270.083295 284.206733 
L 270.876617 284.206733 
L 270.876617 283.027855 
L 271.006334 283.027855 
L 271.006334 281.848977 
L 271.203133 281.848977 
L 271.244311 279.491221 
L 271.800927 279.491221 
L 271.800927 278.312343 
L 272.428163 278.312343 
L 272.428163 277.133465 
L 273.062978 277.133465 
L 273.120013 274.77571 
L 273.247383 274.77571 
L 273.339604 272.417954 
L 273.468955 272.417954 
L 273.493321 270.060198 
L 273.67426 270.060198 
L 273.67426 268.88132 
L 273.815951 268.88132 
L 273.859795 266.523564 
L 274.020732 266.523564 
L 274.069726 264.165809 
L 274.159013 264.165809 
L 274.159013 262.986931 
L 274.348508 262.986931 
L 274.357093 260.629175 
L 274.805765 260.629175 
L 274.805765 259.450297 
L 275.112085 259.450297 
L 275.112085 258.271419 
L 275.224321 258.271419 
L 275.224321 257.092541 
L 275.390224 257.092541 
L 275.468326 254.734785 
L 275.547772 254.734785 
L 275.628006 252.37703 
L 276.194834 252.37703 
L 276.194834 251.198152 
L 276.361743 251.198152 
L 276.450379 247.661518 
L 276.71223 247.661518 
L 276.71223 246.48264 
L 277.206247 246.48264 
L 277.206247 245.303762 
L 277.324006 245.303762 
L 277.431785 242.946007 
L 277.578653 242.946007 
L 277.672853 240.588251 
L 277.78118 240.588251 
L 277.858037 238.230495 
L 278.24296 238.230495 
L 278.24296 237.051617 
L 278.56801 237.051617 
L 278.56801 235.872739 
L 278.750075 235.872739 
L 278.750075 234.693861 
L 278.874295 234.693861 
L 278.985377 232.336106 
L 279.092678 232.336106 
L 279.092678 231.157228 
L 279.339759 231.157228 
L 279.350446 228.799472 
L 279.490917 228.799472 
L 279.490917 227.620594 
L 279.928924 227.620594 
L 279.928924 226.441716 
L 280.047891 226.441716 
L 280.047891 225.262838 
L 280.616837 225.262838 
L 280.702225 222.905083 
L 282.095291 222.905083 
L 282.095291 221.726205 
L 283.278541 221.726205 
L 283.278541 220.547327 
L 294.592475 220.547327 
L 294.592475 219.368449 
L 309.516881 219.368449 
L 309.516881 218.189571 
L 310.119093 218.189571 
L 310.119093 217.010693 
L 311.704249 217.010693 
L 311.704249 215.831815 
L 312.404726 215.831815 
L 312.404726 214.652937 
L 314.253147 214.652937 
L 314.253147 213.474059 
L 315.385347 213.474059 
L 315.475813 211.116304 
L 315.650625 211.116304 
L 315.650625 209.937426 
L 315.921663 209.937426 
L 316.022301 207.57967 
L 319.087269 207.57967 
L 319.14914 205.221914 
L 319.500835 205.221914 
L 319.598693 202.864158 
L 320.361389 202.864158 
L 320.361389 201.685281 
L 320.518344 201.685281 
L 320.518344 200.506403 
L 320.929138 200.506403 
L 321.030405 195.790891 
L 321.198069 195.790891 
L 321.24503 192.254257 
L 321.34659 192.254257 
L 321.34659 191.07538 
L 321.461705 191.07538 
L 321.560355 187.538746 
L 322.003571 187.538746 
L 322.003571 186.359868 
L 322.210486 186.359868 
L 322.210486 185.18099 
L 322.450637 185.18099 
L 322.450637 184.002112 
L 322.565075 184.002112 
L 322.614057 180.465479 
L 322.718807 180.465479 
L 322.718807 179.286601 
L 322.838707 179.286601 
L 322.900344 176.928845 
L 323.247468 176.928845 
L 323.335627 174.571089 
L 323.609238 174.571089 
L 323.657134 172.213333 
L 323.877776 172.213333 
L 323.941034 169.855578 
L 324.014975 169.855578 
L 324.014975 168.6767 
L 324.160282 168.6767 
L 324.264264 163.961188 
L 324.435309 163.961188 
L 324.435309 162.78231 
L 324.650753 162.78231 
L 324.734608 160.424554 
L 324.925938 160.424554 
L 324.925938 159.245677 
L 325.179465 159.245677 
L 325.207006 156.887921 
L 325.360245 156.887921 
L 325.360245 155.709043 
L 325.486537 155.709043 
L 325.486537 154.530165 
L 325.606675 154.530165 
L 325.606675 153.351287 
L 326.009404 153.351287 
L 326.010586 150.993531 
L 326.298731 150.993531 
L 326.298731 149.814653 
L 326.642226 149.814653 
L 326.642226 148.635776 
L 326.827669 148.635776 
L 326.827669 147.456898 
L 327.068297 147.456898 
L 327.068297 146.27802 
L 327.38874 146.27802 
L 327.38874 145.099142 
L 327.734258 145.099142 
L 327.734258 143.920264 
L 328.207722 143.920264 
L 328.318121 141.562508 
L 328.659439 141.562508 
L 328.659439 140.38363 
L 328.796912 140.38363 
L 328.796912 139.204752 
L 328.954931 139.204752 
L 328.954931 138.025875 
L 329.380255 138.025875 
L 329.434047 135.668119 
L 329.739874 135.668119 
L 329.768031 132.131485 
L 330.097264 132.131485 
L 330.097264 130.952607 
L 330.227394 130.952607 
L 330.227394 129.773729 
L 330.858236 129.773729 
L 330.858236 128.594851 
L 331.023079 128.594851 
L 331.057355 126.237096 
L 331.254736 126.237096 
L 331.254736 125.058218 
L 331.672222 125.058218 
L 331.672222 123.87934 
L 331.937429 123.87934 
L 331.937429 122.700462 
L 332.391664 122.700462 
L 332.476064 119.163828 
L 332.57232 119.163828 
L 332.679005 116.806073 
L 332.704879 116.806073 
L 332.792558 113.269439 
L 333.185215 113.269439 
L 333.185215 112.090561 
L 333.485817 112.090561 
L 333.485817 110.911683 
L 333.695939 110.911683 
L 333.695939 109.732805 
L 333.927501 109.732805 
L 333.95179 107.37505 
L 334.079311 107.37505 
L 334.171933 103.838416 
L 334.565805 103.838416 
L 334.565805 102.659538 
L 334.776714 102.659538 
L 334.776714 101.48066 
L 334.948649 101.48066 
L 334.948649 100.301782 
L 335.275693 100.301782 
L 335.275693 99.122904 
L 335.599435 99.122904 
L 335.599435 97.944026 
L 335.969536 97.944026 
L 335.969536 96.765149 
L 336.083548 96.765149 
L 336.083548 95.586271 
L 336.298023 95.586271 
L 336.323785 93.228515 
L 336.435853 93.228515 
L 336.488582 88.513003 
L 336.593854 88.513003 
L 336.593854 87.334125 
L 336.797092 87.334125 
L 336.830787 84.97637 
L 337.454029 84.97637 
L 337.562814 80.260858 
L 337.582391 80.260858 
L 337.582391 79.08198 
L 338.439481 79.08198 
L 338.439481 77.903102 
L 338.583226 77.903102 
L 338.663652 75.545347 
L 338.704503 75.545347 
L 338.753247 73.187591 
L 338.982647 73.187591 
L 338.99043 70.829835 
L 339.268561 70.829835 
L 339.268561 69.650957 
L 339.921554 69.650957 
L 339.921554 68.472079 
L 340.530798 68.472079 
L 340.530798 67.293201 
L 341.373154 67.293201 
L 341.373154 66.114323 
L 341.53783 66.114323 
L 341.53783 64.935446 
L 341.677762 64.935446 
L 341.677762 63.756568 
L 342.253665 63.756568 
L 342.253665 62.57769 
L 342.686806 62.57769 
L 342.686806 61.398812 
L 342.969363 61.398812 
L 343.050216 57.862178 
L 343.087363 57.862178 
L 343.166753 55.504422 
L 343.545676 55.504422 
L 343.545676 54.325545 
L 343.756358 54.325545 
L 343.805049 51.967789 
L 343.933787 51.967789 
L 343.933787 50.788911 
L 344.073925 50.788911 
L 344.128024 47.252277 
L 344.317147 47.252277 
L 344.317147 46.073399 
L 344.532242 46.073399 
L 344.532242 44.894521 
L 344.729192 44.894521 
L 344.729192 43.715644 
L 344.887345 43.715644 
L 344.993821 39.000132 
L 345.001023 39.000132 
L 345.06722 34.28462 
L 345.139034 34.28462 
L 345.139034 33.105743 
L 346.460055 33.105743 
L 346.529523 30.747987 
L 346.706214 30.747987 
L 346.736612 28.390231 
L 347.263524 28.390231 
L 347.263524 27.211353 
L 347.44191 27.211353 
L 347.44191 26.032475 
L 348.050605 26.032475 
L 348.050605 24.853597 
L 348.926915 24.853597 
L 348.926915 23.674719 
L 349.363869 23.674719 
L 349.363869 22.495842 
L 351.313461 22.495842 
L 351.313461 21.316964 
L 351.43465 21.316964 
L 351.474953 17.78033 
L 351.588021 17.78033 
L 351.699079 15.422574 
L 351.773446 15.422574 
L 351.853176 13.064818 
L 352.325022 13.064818 
L 352.325022 11.885941 
L 352.502243 11.885941 
L 352.502243 10.707063 
L 352.817292 10.707063 
L 352.880278 8.349307 
L 352.880278 8.349307 
L 450.672 8.349307 
L 450.672 8.349307 
" style="fill:none;stroke:#000000;stroke-linecap:square;stroke-width:1.5;"/>
   </g>
   <g id="line2d_27">
    <path clip-path="url(#p4fb9126a7c)" d="M 258.292118 291.28 
L 258.29557 288.922244 
L 259.330721 288.922244 
L 259.330721 287.743366 
L 259.502209 287.743366 
L 259.502209 286.564488 
L 261.491336 286.564488 
L 261.491336 285.385611 
L 262.712829 285.385611 
L 262.712829 284.206733 
L 263.294783 284.206733 
L 263.294783 283.027855 
L 263.489821 283.027855 
L 263.489821 281.848977 
L 263.868506 281.848977 
L 263.868506 280.670099 
L 264.679827 280.670099 
L 264.679827 279.491221 
L 265.233288 279.491221 
L 265.233288 278.312343 
L 265.942518 278.312343 
L 265.942518 277.133465 
L 267.000457 277.133465 
L 267.000457 275.954587 
L 267.112738 275.954587 
L 267.184697 273.596832 
L 267.281168 273.596832 
L 267.281168 272.417954 
L 267.520799 272.417954 
L 267.520799 271.239076 
L 267.7288 271.239076 
L 267.809728 267.702442 
L 267.853394 267.702442 
L 267.853394 266.523564 
L 268.096522 266.523564 
L 268.124975 264.165809 
L 268.300638 264.165809 
L 268.402825 261.808053 
L 268.554695 261.808053 
L 268.554695 260.629175 
L 268.708908 260.629175 
L 268.784805 258.271419 
L 269.180085 258.271419 
L 269.180085 257.092541 
L 269.295708 257.092541 
L 269.295708 255.913663 
L 269.64197 255.913663 
L 269.739686 253.555908 
L 270.36603 253.555908 
L 270.36603 252.37703 
L 270.944309 252.37703 
L 270.944309 251.198152 
L 271.066187 251.198152 
L 271.176738 247.661518 
L 271.252864 247.661518 
L 271.314367 245.303762 
L 271.559754 245.303762 
L 271.667309 242.946007 
L 271.697497 242.946007 
L 271.697497 241.767129 
L 272.107242 241.767129 
L 272.107242 240.588251 
L 272.650223 240.588251 
L 272.650223 239.409373 
L 272.934064 239.409373 
L 272.934064 238.230495 
L 273.815951 238.230495 
L 273.834281 235.872739 
L 274.348508 235.872739 
L 274.348508 234.693861 
L 274.554591 234.693861 
L 274.554591 233.514983 
L 275.034729 233.514983 
L 275.034729 232.336106 
L 275.547468 232.336106 
L 275.547468 231.157228 
L 275.829834 231.157228 
L 275.829834 229.97835 
L 276.300315 229.97835 
L 276.300315 228.799472 
L 277.641569 228.799472 
L 277.641569 227.620594 
L 277.78118 227.620594 
L 277.78118 226.441716 
L 277.974992 226.441716 
L 277.974992 225.262838 
L 278.228063 225.262838 
L 278.299406 222.905083 
L 279.004663 222.905083 
L 279.004663 221.726205 
L 282.095291 221.726205 
L 282.095291 220.547327 
L 287.715753 220.547327 
L 287.715753 219.368449 
L 288.175251 219.368449 
L 288.175251 218.189571 
L 292.08858 218.189571 
L 292.138422 215.831815 
L 292.423524 215.831815 
L 292.423524 214.652937 
L 293.843707 214.652937 
L 293.843707 213.474059 
L 296.246765 213.474059 
L 296.246765 212.295182 
L 297.033904 212.295182 
L 297.033904 211.116304 
L 298.29108 211.116304 
L 298.29108 209.937426 
L 298.656652 209.937426 
L 298.656652 208.758548 
L 299.47982 208.758548 
L 299.47982 207.57967 
L 299.808529 207.57967 
L 299.808529 206.400792 
L 299.955752 206.400792 
L 299.955752 205.221914 
L 300.508778 205.221914 
L 300.508778 204.043036 
L 300.820008 204.043036 
L 300.92965 201.685281 
L 300.976626 201.685281 
L 300.976626 200.506403 
L 301.125631 200.506403 
L 301.125631 199.327525 
L 301.474238 199.327525 
L 301.474238 198.148647 
L 301.779648 198.148647 
L 301.779648 196.969769 
L 301.941434 196.969769 
L 301.993376 193.433135 
L 302.420219 193.433135 
L 302.420219 192.254257 
L 302.916942 192.254257 
L 302.956177 189.896502 
L 304.729453 189.896502 
L 304.763369 187.538746 
L 304.969688 187.538746 
L 305.062259 185.18099 
L 305.673447 185.18099 
L 305.673447 184.002112 
L 306.01874 184.002112 
L 306.01874 182.823234 
L 306.290657 182.823234 
L 306.290657 181.644356 
L 306.609731 181.644356 
L 306.609731 180.465479 
L 307.501821 180.465479 
L 307.552904 176.928845 
L 309.019959 176.928845 
L 309.068326 174.571089 
L 309.266617 174.571089 
L 309.266617 173.392211 
L 309.485357 173.392211 
L 309.485357 172.213333 
L 309.92559 172.213333 
L 309.969128 169.855578 
L 310.119093 169.855578 
L 310.141103 167.497822 
L 310.437804 167.497822 
L 310.437804 166.318944 
L 311.301144 166.318944 
L 311.301144 165.140066 
L 311.488811 165.140066 
L 311.488811 163.961188 
L 311.967127 163.961188 
L 311.967127 162.78231 
L 312.232661 162.78231 
L 312.232661 161.603432 
L 312.565879 161.603432 
L 312.565879 160.424554 
L 312.721341 160.424554 
L 312.782255 158.066799 
L 312.920625 158.066799 
L 313.001679 154.530165 
L 313.114249 154.530165 
L 313.114249 153.351287 
L 313.479894 153.351287 
L 313.479894 152.172409 
L 313.716877 152.172409 
L 313.788259 148.635776 
L 314.656381 148.635776 
L 314.656381 147.456898 
L 316.467485 147.456898 
L 316.516527 145.099142 
L 317.279645 145.099142 
L 317.279645 143.920264 
L 318.185749 143.920264 
L 318.185749 142.741386 
L 318.445502 142.741386 
L 318.445502 141.562508 
L 318.983591 141.562508 
L 318.983591 140.38363 
L 319.155582 140.38363 
L 319.155582 139.204752 
L 319.300703 139.204752 
L 319.300703 138.025875 
L 319.600059 138.025875 
L 319.600059 136.846997 
L 319.767412 136.846997 
L 319.855284 133.310363 
L 320.668271 133.310363 
L 320.668271 132.131485 
L 320.862392 132.131485 
L 320.862392 130.952607 
L 321.300766 130.952607 
L 321.300766 129.773729 
L 321.786615 129.773729 
L 321.786615 128.594851 
L 322.362799 128.594851 
L 322.362799 127.415974 
L 322.570001 127.415974 
L 322.570001 126.237096 
L 322.757007 126.237096 
L 322.757007 125.058218 
L 322.941173 125.058218 
L 322.941173 123.87934 
L 324.014975 123.87934 
L 324.014975 122.700462 
L 324.144003 122.700462 
L 324.15595 120.342706 
L 324.722027 120.342706 
L 324.734608 117.98495 
L 324.850141 117.98495 
L 324.878028 114.448317 
L 325.250279 114.448317 
L 325.337617 112.090561 
L 325.540377 112.090561 
L 325.540377 110.911683 
L 325.870425 110.911683 
L 325.870425 109.732805 
L 325.988172 109.732805 
L 325.988172 108.553927 
L 326.183841 108.553927 
L 326.183841 107.37505 
L 326.34059 107.37505 
L 326.34059 106.196172 
L 326.541682 106.196172 
L 326.541682 105.017294 
L 327.047173 105.017294 
L 327.136482 102.659538 
L 327.380001 102.659538 
L 327.390886 100.301782 
L 327.992422 100.301782 
L 327.992422 99.122904 
L 328.21237 99.122904 
L 328.260015 96.765149 
L 328.796912 96.765149 
L 328.796912 95.586271 
L 328.954931 95.586271 
L 328.954931 94.407393 
L 329.387085 94.407393 
L 329.434047 92.049637 
L 329.648706 92.049637 
L 329.708206 89.691881 
L 330.031844 89.691881 
L 330.125576 86.155248 
L 330.189022 86.155248 
L 330.235214 83.797492 
L 330.825054 83.797492 
L 330.858236 81.439736 
L 330.946047 81.439736 
L 331.04106 79.08198 
L 331.254736 79.08198 
L 331.361201 76.724224 
L 331.635128 76.724224 
L 331.635128 75.545347 
L 331.7872 75.545347 
L 331.7872 74.366469 
L 332.183457 74.366469 
L 332.183457 73.187591 
L 332.312332 73.187591 
L 332.381635 70.829835 
L 332.960725 70.829835 
L 332.960725 69.650957 
L 334.010211 69.650957 
L 334.093437 67.293201 
L 334.12603 67.293201 
L 334.12603 66.114323 
L 334.254711 66.114323 
L 334.254711 64.935446 
L 334.745833 64.935446 
L 334.745833 63.756568 
L 334.900905 63.756568 
L 334.900905 62.57769 
L 335.142917 62.57769 
L 335.142917 61.398812 
L 335.297613 61.398812 
L 335.297613 60.219934 
L 335.599368 60.219934 
L 335.599368 59.041056 
L 335.739373 59.041056 
L 335.739373 57.862178 
L 336.102028 57.862178 
L 336.172972 53.146667 
L 336.433311 53.146667 
L 336.433311 51.967789 
L 336.82775 51.967789 
L 336.82775 50.788911 
L 337.076615 50.788911 
L 337.076615 49.610033 
L 337.508032 49.610033 
L 337.562814 47.252277 
L 337.701974 47.252277 
L 337.701974 46.073399 
L 338.023077 46.073399 
L 338.023077 44.894521 
L 338.704503 44.894521 
L 338.704503 43.715644 
L 338.861726 43.715644 
L 338.953695 40.17901 
L 339.000486 40.17901 
L 339.000486 39.000132 
L 339.259203 39.000132 
L 339.259203 37.821254 
L 339.394705 37.821254 
L 339.394705 36.642376 
L 340.01845 36.642376 
L 340.01845 35.463498 
L 340.210229 35.463498 
L 340.210229 34.28462 
L 340.367955 34.28462 
L 340.367955 33.105743 
L 340.563496 33.105743 
L 340.584852 30.747987 
L 340.807141 30.747987 
L 340.807141 29.569109 
L 341.15703 29.569109 
L 341.15703 28.390231 
L 341.570801 28.390231 
L 341.570801 27.211353 
L 341.892676 27.211353 
L 341.96284 24.853597 
L 342.214844 24.853597 
L 342.214844 23.674719 
L 343.180287 23.674719 
L 343.180287 22.495842 
L 344.143663 22.495842 
L 344.143663 21.316964 
L 344.98816 21.316964 
L 344.98816 20.138086 
L 345.269179 20.138086 
L 345.269179 18.959208 
L 345.43859 18.959208 
L 345.43859 17.78033 
L 345.9395 17.78033 
L 345.982601 14.243696 
L 348.492206 14.243696 
L 348.492206 13.064818 
L 348.712555 13.064818 
L 348.712555 11.885941 
L 349.343089 11.885941 
L 349.343089 10.707063 
L 350.598977 10.707063 
L 350.598977 9.528185 
L 351.601624 9.528185 
L 351.601624 8.349307 
L 351.601624 8.349307 
L 450.672 8.349307 
L 450.672 8.349307 
" style="fill:none;stroke:#00bfbf;stroke-linecap:square;stroke-width:1.5;"/>
   </g>
   <g id="line2d_28">
    <path clip-path="url(#p4fb9126a7c)" d="M 245.810146 291.28 
L 245.810146 290.101122 
L 251.399756 290.101122 
L 251.399756 288.922244 
L 253.494356 288.922244 
L 253.494356 287.743366 
L 254.430031 287.743366 
L 254.430031 286.564488 
L 255.1481 286.564488 
L 255.1481 285.385611 
L 255.282833 285.385611 
L 255.282833 284.206733 
L 255.819292 284.206733 
L 255.877293 281.848977 
L 256.24985 281.848977 
L 256.24985 280.670099 
L 257.333433 280.670099 
L 257.333433 279.491221 
L 257.648693 279.491221 
L 257.648693 278.312343 
L 258.607853 278.312343 
L 258.637149 275.954587 
L 258.950408 275.954587 
L 259.027751 273.596832 
L 259.651495 273.596832 
L 259.651495 272.417954 
L 260.152503 272.417954 
L 260.152503 271.239076 
L 260.53493 271.239076 
L 260.53493 270.060198 
L 260.790852 270.060198 
L 260.790852 268.88132 
L 261.272236 268.88132 
L 261.272236 267.702442 
L 261.573136 267.702442 
L 261.653508 265.344686 
L 262.359103 265.344686 
L 262.427036 261.808053 
L 263.028903 261.808053 
L 263.028903 260.629175 
L 263.822459 260.629175 
L 263.822459 259.450297 
L 264.158846 259.450297 
L 264.158846 258.271419 
L 264.328727 258.271419 
L 264.328727 257.092541 
L 264.578307 257.092541 
L 264.578307 255.913663 
L 265.906458 255.913663 
L 265.961655 253.555908 
L 266.223787 253.555908 
L 266.223787 252.37703 
L 266.911335 252.37703 
L 266.911335 251.198152 
L 267.282713 251.198152 
L 267.282713 250.019274 
L 267.872477 250.019274 
L 267.97359 247.661518 
L 268.975337 247.661518 
L 268.975337 246.48264 
L 269.390384 246.48264 
L 269.390384 245.303762 
L 269.969579 245.303762 
L 269.969579 244.124884 
L 270.129316 244.124884 
L 270.129316 242.946007 
L 270.425918 242.946007 
L 270.425918 241.767129 
L 270.608633 241.767129 
L 270.608633 240.588251 
L 270.816211 240.588251 
L 270.816211 239.409373 
L 270.944309 239.409373 
L 271.036396 237.051617 
L 271.176738 237.051617 
L 271.176738 235.872739 
L 271.314367 235.872739 
L 271.314367 234.693861 
L 271.667309 234.693861 
L 271.667309 233.514983 
L 271.857546 233.514983 
L 271.857546 232.336106 
L 272.295003 232.336106 
L 272.295003 231.157228 
L 272.934064 231.157228 
L 272.934064 229.97835 
L 273.208737 229.97835 
L 273.255272 227.620594 
L 273.815951 227.620594 
L 273.834281 225.262838 
L 274.348508 225.262838 
L 274.437761 222.905083 
L 274.485963 222.905083 
L 274.554591 220.547327 
L 275.515278 220.547327 
L 275.515278 219.368449 
L 275.829834 219.368449 
L 275.829834 218.189571 
L 277.639993 218.189571 
L 277.641569 215.831815 
L 277.78118 215.831815 
L 277.78118 214.652937 
L 277.974992 214.652937 
L 277.974992 213.474059 
L 278.228063 213.474059 
L 278.228063 212.295182 
L 279.329079 212.295182 
L 279.418394 209.937426 
L 279.667371 209.937426 
L 279.667371 208.758548 
L 280.247288 208.758548 
L 280.247288 207.57967 
L 280.558459 207.57967 
L 280.558459 206.400792 
L 281.264144 206.400792 
L 281.318644 204.043036 
L 281.763968 204.043036 
L 281.824877 201.685281 
L 281.88257 201.685281 
L 281.88257 200.506403 
L 282.095291 200.506403 
L 282.095291 199.327525 
L 283.476347 199.327525 
L 283.584124 196.969769 
L 284.380567 196.969769 
L 284.380567 195.790891 
L 284.63221 195.790891 
L 284.63221 194.612013 
L 285.06907 194.612013 
L 285.06907 193.433135 
L 286.154726 193.433135 
L 286.154726 192.254257 
L 287.751665 192.254257 
L 287.751665 191.07538 
L 288.471 191.07538 
L 288.471 189.896502 
L 288.717297 189.896502 
L 288.717297 188.717624 
L 289.072466 188.717624 
L 289.072466 187.538746 
L 289.743991 187.538746 
L 289.743991 186.359868 
L 290.780322 186.359868 
L 290.780322 185.18099 
L 291.036534 185.18099 
L 291.036534 184.002112 
L 291.198455 184.002112 
L 291.198455 182.823234 
L 291.635706 182.823234 
L 291.635706 181.644356 
L 292.054972 181.644356 
L 292.054972 180.465479 
L 293.076881 180.465479 
L 293.076881 179.286601 
L 294.43507 179.286601 
L 294.43507 178.107723 
L 294.957068 178.107723 
L 294.957068 176.928845 
L 295.160526 176.928845 
L 295.160526 175.749967 
L 296.393693 175.749967 
L 296.393693 174.571089 
L 296.512374 174.571089 
L 296.538095 172.213333 
L 297.096538 172.213333 
L 297.190024 169.855578 
L 297.679706 169.855578 
L 297.763384 167.497822 
L 297.972627 167.497822 
L 298.053567 165.140066 
L 298.630968 165.140066 
L 298.661151 162.78231 
L 299.271272 162.78231 
L 299.303819 160.424554 
L 300.128186 160.424554 
L 300.128186 159.245677 
L 301.22446 159.245677 
L 301.307462 156.887921 
L 301.45918 156.887921 
L 301.45918 155.709043 
L 302.121268 155.709043 
L 302.121268 154.530165 
L 303.915797 154.530165 
L 303.915797 153.351287 
L 304.253927 153.351287 
L 304.253927 152.172409 
L 304.535182 152.172409 
L 304.590153 149.814653 
L 305.366376 149.814653 
L 305.476712 147.456898 
L 306.10545 147.456898 
L 306.10545 146.27802 
L 306.856071 146.27802 
L 306.856071 145.099142 
L 307.76 145.099142 
L 307.794383 142.741386 
L 308.132324 142.741386 
L 308.135378 140.38363 
L 308.740121 140.38363 
L 308.740121 139.204752 
L 308.959437 139.204752 
L 308.959437 138.025875 
L 309.309886 138.025875 
L 309.309886 136.846997 
L 309.793059 136.846997 
L 309.793059 135.668119 
L 310.119093 135.668119 
L 310.119093 134.489241 
L 310.262466 134.489241 
L 310.262466 133.310363 
L 310.486811 133.310363 
L 310.486811 132.131485 
L 310.661714 132.131485 
L 310.771243 128.594851 
L 310.952807 128.594851 
L 310.952807 127.415974 
L 312.420618 127.415974 
L 312.420618 126.237096 
L 313.496198 126.237096 
L 313.496198 125.058218 
L 314.260184 125.058218 
L 314.260184 123.87934 
L 314.44375 123.87934 
L 314.44375 122.700462 
L 315.312753 122.700462 
L 315.379634 120.342706 
L 316.316172 120.342706 
L 316.316172 119.163828 
L 316.553732 119.163828 
L 316.553732 117.98495 
L 317.07933 117.98495 
L 317.138455 115.627195 
L 317.818892 115.627195 
L 317.818892 114.448317 
L 318.664644 114.448317 
L 318.701629 112.090561 
L 319.055484 112.090561 
L 319.055484 110.911683 
L 319.384285 110.911683 
L 319.384285 109.732805 
L 319.921497 109.732805 
L 319.921497 108.553927 
L 320.469118 108.553927 
L 320.469118 107.37505 
L 320.590967 107.37505 
L 320.590967 106.196172 
L 321.936522 106.196172 
L 321.936522 105.017294 
L 322.480436 105.017294 
L 322.570001 101.48066 
L 322.736399 101.48066 
L 322.747513 99.122904 
L 323.119413 99.122904 
L 323.119413 97.944026 
L 324.014975 97.944026 
L 324.014975 96.765149 
L 324.170568 96.765149 
L 324.228493 94.407393 
L 324.734608 94.407393 
L 324.734608 93.228515 
L 325.250279 93.228515 
L 325.250279 92.049637 
L 325.988172 92.049637 
L 325.988172 90.870759 
L 326.24365 90.870759 
L 326.24365 89.691881 
L 326.541682 89.691881 
L 326.541682 88.513003 
L 326.762466 88.513003 
L 326.762466 87.334125 
L 327.314794 87.334125 
L 327.418527 83.797492 
L 327.573753 83.797492 
L 327.573753 82.618614 
L 327.992422 82.618614 
L 327.992422 81.439736 
L 328.260015 81.439736 
L 328.260015 80.260858 
L 328.796912 80.260858 
L 328.796912 79.08198 
L 328.954931 79.08198 
L 328.954931 77.903102 
L 329.266234 77.903102 
L 329.356992 75.545347 
L 329.387085 75.545347 
L 329.434047 73.187591 
L 329.545353 73.187591 
L 329.648706 70.829835 
L 330.031844 70.829835 
L 330.031844 69.650957 
L 330.189022 69.650957 
L 330.189022 68.472079 
L 330.858236 68.472079 
L 330.946047 66.114323 
L 331.02877 66.114323 
L 331.04106 63.756568 
L 331.254736 63.756568 
L 331.361201 61.398812 
L 332.183457 61.398812 
L 332.183457 60.219934 
L 332.312332 60.219934 
L 332.381635 57.862178 
L 333.469388 57.862178 
L 333.469388 56.6833 
L 333.61709 56.6833 
L 333.672643 54.325545 
L 333.824777 54.325545 
L 333.824777 53.146667 
L 334.093437 53.146667 
L 334.134489 50.788911 
L 334.241501 50.788911 
L 334.254711 48.431155 
L 335.194304 48.431155 
L 335.221716 46.073399 
L 335.418046 46.073399 
L 335.418046 44.894521 
L 335.658107 44.894521 
L 335.739373 42.536766 
L 336.102028 42.536766 
L 336.168656 37.821254 
L 336.214089 37.821254 
L 336.214089 36.642376 
L 336.725 36.642376 
L 336.82775 34.28462 
L 337.508032 34.28462 
L 337.562814 31.926865 
L 337.769642 31.926865 
L 337.769642 30.747987 
L 338.334752 30.747987 
L 338.334752 29.569109 
L 338.678532 29.569109 
L 338.704503 27.211353 
L 338.861726 27.211353 
L 338.953695 24.853597 
L 339.259203 24.853597 
L 339.259203 23.674719 
L 341.386906 23.674719 
L 341.386906 22.495842 
L 341.570801 22.495842 
L 341.570801 21.316964 
L 342.214844 21.316964 
L 342.214844 20.138086 
L 343.269093 20.138086 
L 343.269093 18.959208 
L 344.143663 18.959208 
L 344.143663 17.78033 
L 344.72286 17.78033 
L 344.72286 16.601452 
L 345.797107 16.601452 
L 345.797107 15.422574 
L 345.9395 15.422574 
L 345.982601 11.885941 
L 348.492206 11.885941 
L 348.492206 10.707063 
L 349.376453 10.707063 
L 349.376453 9.528185 
L 351.601624 9.528185 
L 351.601624 8.349307 
L 351.601624 8.349307 
L 450.672 8.349307 
L 450.672 8.349307 
" style="fill:none;stroke:#bf00bf;stroke-linecap:square;stroke-width:1.5;"/>
   </g>
   <g id="line2d_29">
    <path clip-path="url(#p4fb9126a7c)" d="M 238.601642 291.28 
L 238.601642 290.101122 
L 245.810146 290.101122 
L 245.810146 288.922244 
L 251.180735 288.922244 
L 251.180735 287.743366 
L 251.312606 287.743366 
L 251.312606 286.564488 
L 253.459574 286.564488 
L 253.517786 283.027855 
L 254.317628 283.027855 
L 254.317628 281.848977 
L 255.1481 281.848977 
L 255.1481 280.670099 
L 255.282833 280.670099 
L 255.282833 279.491221 
L 255.631208 279.491221 
L 255.631208 278.312343 
L 255.819292 278.312343 
L 255.819292 277.133465 
L 256.231591 277.133465 
L 256.24985 274.77571 
L 256.612307 274.77571 
L 256.677111 270.060198 
L 257.648693 270.060198 
L 257.648693 268.88132 
L 258.006543 268.88132 
L 258.006543 267.702442 
L 258.491145 267.702442 
L 258.508641 265.344686 
L 258.637149 265.344686 
L 258.637149 264.165809 
L 258.858697 264.165809 
L 258.858697 262.986931 
L 259.027751 262.986931 
L 259.027751 261.808053 
L 259.19128 261.808053 
L 259.19128 260.629175 
L 259.651495 260.629175 
L 259.651495 259.450297 
L 259.954497 259.450297 
L 260.052155 257.092541 
L 260.152503 257.092541 
L 260.152503 255.913663 
L 260.53493 255.913663 
L 260.53493 254.734785 
L 260.910922 254.734785 
L 260.910922 253.555908 
L 261.272236 253.555908 
L 261.272236 252.37703 
L 261.418844 252.37703 
L 261.418844 251.198152 
L 261.728446 251.198152 
L 261.728446 250.019274 
L 261.846277 250.019274 
L 261.911579 247.661518 
L 262.090986 247.661518 
L 262.090986 246.48264 
L 262.810602 246.48264 
L 262.810602 245.303762 
L 263.21148 245.303762 
L 263.21148 244.124884 
L 263.360453 244.124884 
L 263.360453 242.946007 
L 263.480304 242.946007 
L 263.480304 241.767129 
L 263.728904 241.767129 
L 263.774474 239.409373 
L 264.153129 239.409373 
L 264.153129 238.230495 
L 264.279674 238.230495 
L 264.279674 237.051617 
L 265.338973 237.051617 
L 265.338973 235.872739 
L 266.220371 235.872739 
L 266.220371 234.693861 
L 266.652321 234.693861 
L 266.673328 232.336106 
L 267.052192 232.336106 
L 267.052192 231.157228 
L 267.185818 231.157228 
L 267.267335 228.799472 
L 267.532599 228.799472 
L 267.532599 227.620594 
L 267.97359 227.620594 
L 267.97359 226.441716 
L 268.188972 226.441716 
L 268.24094 224.08396 
L 269.162795 224.08396 
L 269.162795 222.905083 
L 269.390384 222.905083 
L 269.390384 221.726205 
L 269.830386 221.726205 
L 269.900656 219.368449 
L 270.407016 219.368449 
L 270.491167 217.010693 
L 270.540263 217.010693 
L 270.540263 215.831815 
L 270.775008 215.831815 
L 270.775008 214.652937 
L 270.944309 214.652937 
L 270.944309 213.474059 
L 271.176738 213.474059 
L 271.176738 212.295182 
L 271.314367 212.295182 
L 271.314367 211.116304 
L 271.667309 211.116304 
L 271.667309 209.937426 
L 272.768261 209.937426 
L 272.768261 208.758548 
L 272.934064 208.758548 
L 272.934064 207.57967 
L 273.05012 207.57967 
L 273.14596 205.221914 
L 273.300046 205.221914 
L 273.300046 204.043036 
L 273.815951 204.043036 
L 273.834281 201.685281 
L 273.937523 201.685281 
L 273.937523 200.506403 
L 274.079742 200.506403 
L 274.079742 199.327525 
L 274.348508 199.327525 
L 274.348508 198.148647 
L 274.521354 198.148647 
L 274.554591 195.790891 
L 274.660608 195.790891 
L 274.766456 192.254257 
L 275.829834 192.254257 
L 275.829834 191.07538 
L 276.561692 191.07538 
L 276.561692 189.896502 
L 276.754367 189.896502 
L 276.754367 188.717624 
L 277.253023 188.717624 
L 277.362889 185.18099 
L 277.641569 185.18099 
L 277.641569 184.002112 
L 277.78118 184.002112 
L 277.78118 182.823234 
L 277.974992 182.823234 
L 277.974992 181.644356 
L 278.228063 181.644356 
L 278.228063 180.465479 
L 278.676785 180.465479 
L 278.676785 179.286601 
L 278.797382 179.286601 
L 278.797382 178.107723 
L 278.99786 178.107723 
L 279.089019 175.749967 
L 279.206699 175.749967 
L 279.206699 174.571089 
L 279.704049 174.571089 
L 279.704049 173.392211 
L 279.909548 173.392211 
L 279.909548 172.213333 
L 280.310987 172.213333 
L 280.310987 171.034455 
L 280.850427 171.034455 
L 280.850427 169.855578 
L 281.060663 169.855578 
L 281.067493 167.497822 
L 281.236655 167.497822 
L 281.236655 166.318944 
L 282.095291 166.318944 
L 282.095291 165.140066 
L 282.536106 165.140066 
L 282.536106 163.961188 
L 282.743186 163.961188 
L 282.743186 162.78231 
L 283.920618 162.78231 
L 283.920618 161.603432 
L 285.183486 161.603432 
L 285.24012 159.245677 
L 285.439076 159.245677 
L 285.449083 156.887921 
L 287.081318 156.887921 
L 287.081318 155.709043 
L 288.411643 155.709043 
L 288.411643 154.530165 
L 290.337638 154.530165 
L 290.337638 153.351287 
L 291.916253 153.351287 
L 291.967237 150.993531 
L 292.320764 150.993531 
L 292.320764 149.814653 
L 292.457472 149.814653 
L 292.457472 148.635776 
L 292.704645 148.635776 
L 292.704645 147.456898 
L 293.091819 147.456898 
L 293.091819 146.27802 
L 294.095701 146.27802 
L 294.174327 143.920264 
L 294.70409 143.920264 
L 294.70409 142.741386 
L 294.842279 142.741386 
L 294.842279 141.562508 
L 295.067695 141.562508 
L 295.067695 140.38363 
L 296.378998 140.38363 
L 296.378998 139.204752 
L 297.227253 139.204752 
L 297.227253 138.025875 
L 297.381797 138.025875 
L 297.381797 136.846997 
L 298.907528 136.846997 
L 298.907528 135.668119 
L 299.048759 135.668119 
L 299.048759 134.489241 
L 299.557832 134.489241 
L 299.665509 132.131485 
L 301.023422 132.131485 
L 301.023422 130.952607 
L 302.351213 130.952607 
L 302.351213 129.773729 
L 302.611066 129.773729 
L 302.690016 127.415974 
L 302.977714 127.415974 
L 302.977714 126.237096 
L 303.150002 126.237096 
L 303.150002 125.058218 
L 303.570795 125.058218 
L 303.62443 122.700462 
L 304.433795 122.700462 
L 304.433795 121.521584 
L 305.673649 121.521584 
L 305.673649 120.342706 
L 306.345531 120.342706 
L 306.44195 116.806073 
L 306.590261 116.806073 
L 306.590261 115.627195 
L 307.479579 115.627195 
L 307.479579 114.448317 
L 307.764376 114.448317 
L 307.764376 113.269439 
L 308.622696 113.269439 
L 308.622696 112.090561 
L 308.819509 112.090561 
L 308.819509 110.911683 
L 309.691022 110.911683 
L 309.691022 109.732805 
L 309.802466 109.732805 
L 309.904398 107.37505 
L 310.119093 107.37505 
L 310.119093 106.196172 
L 310.386134 106.196172 
L 310.494392 103.838416 
L 310.977168 103.838416 
L 310.977168 102.659538 
L 311.586761 102.659538 
L 311.586761 101.48066 
L 311.936359 101.48066 
L 311.936359 100.301782 
L 312.447868 100.301782 
L 312.447868 99.122904 
L 312.855545 99.122904 
L 312.855545 97.944026 
L 313.388194 97.944026 
L 313.388194 96.765149 
L 314.476522 96.765149 
L 314.476522 95.586271 
L 314.872171 95.586271 
L 314.872171 94.407393 
L 315.602565 94.407393 
L 315.602565 93.228515 
L 315.818804 93.228515 
L 315.818804 92.049637 
L 316.886302 92.049637 
L 316.886302 90.870759 
L 317.094454 90.870759 
L 317.094454 89.691881 
L 319.64964 89.691881 
L 319.64964 88.513003 
L 320.308081 88.513003 
L 320.308081 87.334125 
L 320.639365 87.334125 
L 320.639365 86.155248 
L 321.440836 86.155248 
L 321.440836 84.97637 
L 321.910029 84.97637 
L 321.910029 83.797492 
L 322.570001 83.797492 
L 322.570001 82.618614 
L 323.117632 82.618614 
L 323.117632 81.439736 
L 324.014975 81.439736 
L 324.014975 80.260858 
L 324.286749 80.260858 
L 324.286749 79.08198 
L 324.734608 79.08198 
L 324.734608 77.903102 
L 325.250279 77.903102 
L 325.250279 76.724224 
L 325.988172 76.724224 
L 325.988172 75.545347 
L 326.541682 75.545347 
L 326.541682 74.366469 
L 326.701134 74.366469 
L 326.754954 68.472079 
L 327.23461 68.472079 
L 327.23461 67.293201 
L 327.992422 67.293201 
L 327.992422 66.114323 
L 328.260015 66.114323 
L 328.260015 64.935446 
L 328.398945 64.935446 
L 328.398945 63.756568 
L 328.603209 63.756568 
L 328.603209 62.57769 
L 328.796912 62.57769 
L 328.812313 60.219934 
L 328.954931 60.219934 
L 328.954931 59.041056 
L 329.387085 59.041056 
L 329.434047 56.6833 
L 329.648706 56.6833 
L 329.648706 55.504422 
L 330.031844 55.504422 
L 330.031844 54.325545 
L 330.189022 54.325545 
L 330.189022 53.146667 
L 330.858236 53.146667 
L 330.946047 50.788911 
L 331.04106 50.788911 
L 331.04106 49.610033 
L 331.254736 49.610033 
L 331.361201 47.252277 
L 332.183457 47.252277 
L 332.183457 46.073399 
L 332.312332 46.073399 
L 332.381635 43.715644 
L 332.920562 43.715644 
L 332.920562 42.536766 
L 333.586125 42.536766 
L 333.651463 40.17901 
L 334.093437 40.17901 
L 334.093437 39.000132 
L 334.254711 39.000132 
L 334.254711 37.821254 
L 334.481541 37.821254 
L 334.481541 36.642376 
L 335.038117 36.642376 
L 335.038117 35.463498 
L 335.739373 35.463498 
L 335.739373 34.28462 
L 336.102028 34.28462 
L 336.168656 30.747987 
L 336.82775 30.747987 
L 336.82775 29.569109 
L 337.508032 29.569109 
L 337.562814 27.211353 
L 338.474356 27.211353 
L 338.474356 26.032475 
L 338.704503 26.032475 
L 338.704503 24.853597 
L 338.861726 24.853597 
L 338.953695 22.495842 
L 339.259203 22.495842 
L 339.259203 21.316964 
L 339.512784 21.316964 
L 339.512784 20.138086 
L 341.570801 20.138086 
L 341.570801 18.959208 
L 342.214844 18.959208 
L 342.312976 16.601452 
L 344.143663 16.601452 
L 344.143663 15.422574 
L 344.469771 15.422574 
L 344.469771 14.243696 
L 345.9395 14.243696 
L 345.982601 10.707063 
L 348.492206 10.707063 
L 348.492206 9.528185 
L 351.601624 9.528185 
L 351.601624 8.349307 
L 351.601624 8.349307 
L 450.672 8.349307 
L 450.672 8.349307 
" style="fill:none;stroke:#000000;stroke-linecap:square;stroke-width:1.5;"/>
   </g>
   <g id="patch_3">
    <path d="M 5.52 291.28 
L 5.52 5.52 
" style="fill:none;stroke:#000000;stroke-linecap:square;stroke-linejoin:miter;stroke-width:0.8;"/>
   </g>
   <g id="patch_4">
    <path d="M 450.672 291.28 
L 450.672 5.52 
" style="fill:none;stroke:#000000;stroke-linecap:square;stroke-linejoin:miter;stroke-width:0.8;"/>
   </g>
   <g id="patch_5">
    <path d="M 5.52 291.28 
L 450.672 291.28 
" style="fill:none;stroke:#000000;stroke-linecap:square;stroke-linejoin:miter;stroke-width:0.8;"/>
   </g>
   <g id="patch_6">
    <path d="M 5.52 5.52 
L 450.672 5.52 
" style="fill:none;stroke:#000000;stroke-linecap:square;stroke-linejoin:miter;stroke-width:0.8;"/>
   </g>
   <g id="text_6">
    <!-- {f6-f9}, 20-D -->
    <defs>
     <path d="M 51.125 -9.28125 
L 51.125 -16.3125 
L 48.09375 -16.3125 
Q 35.9375 -16.3125 31.8125 -12.6875 
Q 27.6875 -9.078125 27.6875 1.703125 
L 27.6875 13.375 
Q 27.6875 20.75 25.046875 23.578125 
Q 22.40625 26.421875 15.484375 26.421875 
L 12.5 26.421875 
L 12.5 33.40625 
L 15.484375 33.40625 
Q 22.46875 33.40625 25.078125 36.203125 
Q 27.6875 39.015625 27.6875 46.296875 
L 27.6875 58.015625 
Q 27.6875 68.796875 31.8125 72.390625 
Q 35.9375 75.984375 48.09375 75.984375 
L 51.125 75.984375 
L 51.125 69 
L 47.796875 69 
Q 40.921875 69 38.8125 66.84375 
Q 36.71875 64.703125 36.71875 57.8125 
L 36.71875 45.703125 
Q 36.71875 38.03125 34.5 34.5625 
Q 32.28125 31.109375 26.90625 29.890625 
Q 32.328125 28.5625 34.515625 25.09375 
Q 36.71875 21.625 36.71875 14.015625 
L 36.71875 1.90625 
Q 36.71875 -4.984375 38.8125 -7.125 
Q 40.921875 -9.28125 47.796875 -9.28125 
z
" id="DejaVuSans-7b"/>
     <path d="M 33.015625 40.375 
Q 26.375 40.375 22.484375 35.828125 
Q 18.609375 31.296875 18.609375 23.390625 
Q 18.609375 15.53125 22.484375 10.953125 
Q 26.375 6.390625 33.015625 6.390625 
Q 39.65625 6.390625 43.53125 10.953125 
Q 47.40625 15.53125 47.40625 23.390625 
Q 47.40625 31.296875 43.53125 35.828125 
Q 39.65625 40.375 33.015625 40.375 
z
M 52.59375 71.296875 
L 52.59375 62.3125 
Q 48.875 64.0625 45.09375 64.984375 
Q 41.3125 65.921875 37.59375 65.921875 
Q 27.828125 65.921875 22.671875 59.328125 
Q 17.53125 52.734375 16.796875 39.40625 
Q 19.671875 43.65625 24.015625 45.921875 
Q 28.375 48.1875 33.59375 48.1875 
Q 44.578125 48.1875 50.953125 41.515625 
Q 57.328125 34.859375 57.328125 23.390625 
Q 57.328125 12.15625 50.6875 5.359375 
Q 44.046875 -1.421875 33.015625 -1.421875 
Q 20.359375 -1.421875 13.671875 8.265625 
Q 6.984375 17.96875 6.984375 36.375 
Q 6.984375 53.65625 15.1875 63.9375 
Q 23.390625 74.21875 37.203125 74.21875 
Q 40.921875 74.21875 44.703125 73.484375 
Q 48.484375 72.75 52.59375 71.296875 
z
" id="DejaVuSans-36"/>
     <path d="M 10.984375 1.515625 
L 10.984375 10.5 
Q 14.703125 8.734375 18.5 7.8125 
Q 22.3125 6.890625 25.984375 6.890625 
Q 35.75 6.890625 40.890625 13.453125 
Q 46.046875 20.015625 46.78125 33.40625 
Q 43.953125 29.203125 39.59375 26.953125 
Q 35.25 24.703125 29.984375 24.703125 
Q 19.046875 24.703125 12.671875 31.3125 
Q 6.296875 37.9375 6.296875 49.421875 
Q 6.296875 60.640625 12.9375 67.421875 
Q 19.578125 74.21875 30.609375 74.21875 
Q 43.265625 74.21875 49.921875 64.515625 
Q 56.59375 54.828125 56.59375 36.375 
Q 56.59375 19.140625 48.40625 8.859375 
Q 40.234375 -1.421875 26.421875 -1.421875 
Q 22.703125 -1.421875 18.890625 -0.6875 
Q 15.09375 0.046875 10.984375 1.515625 
z
M 30.609375 32.421875 
Q 37.25 32.421875 41.125 36.953125 
Q 45.015625 41.5 45.015625 49.421875 
Q 45.015625 57.28125 41.125 61.84375 
Q 37.25 66.40625 30.609375 66.40625 
Q 23.96875 66.40625 20.09375 61.84375 
Q 16.21875 57.28125 16.21875 49.421875 
Q 16.21875 41.5 20.09375 36.953125 
Q 23.96875 32.421875 30.609375 32.421875 
z
" id="DejaVuSans-39"/>
     <path d="M 12.5 -9.28125 
L 15.921875 -9.28125 
Q 22.75 -9.28125 24.828125 -7.171875 
Q 26.90625 -5.078125 26.90625 1.90625 
L 26.90625 14.015625 
Q 26.90625 21.625 29.09375 25.09375 
Q 31.296875 28.5625 36.71875 29.890625 
Q 31.296875 31.109375 29.09375 34.5625 
Q 26.90625 38.03125 26.90625 45.703125 
L 26.90625 57.8125 
Q 26.90625 64.75 24.828125 66.875 
Q 22.75 69 15.921875 69 
L 12.5 69 
L 12.5 75.984375 
L 15.578125 75.984375 
Q 27.734375 75.984375 31.8125 72.390625 
Q 35.890625 68.796875 35.890625 58.015625 
L 35.890625 46.296875 
Q 35.890625 39.015625 38.515625 36.203125 
Q 41.15625 33.40625 48.09375 33.40625 
L 51.125 33.40625 
L 51.125 26.421875 
L 48.09375 26.421875 
Q 41.15625 26.421875 38.515625 23.578125 
Q 35.890625 20.75 35.890625 13.375 
L 35.890625 1.703125 
Q 35.890625 -9.078125 31.8125 -12.6875 
Q 27.734375 -16.3125 15.578125 -16.3125 
L 12.5 -16.3125 
z
" id="DejaVuSans-7d"/>
     <path d="M 11.71875 12.40625 
L 22.015625 12.40625 
L 22.015625 4 
L 14.015625 -11.625 
L 7.71875 -11.625 
L 11.71875 4 
z
" id="DejaVuSans-2c"/>
     <path d="M 19.1875 8.296875 
L 53.609375 8.296875 
L 53.609375 0 
L 7.328125 0 
L 7.328125 8.296875 
Q 12.9375 14.109375 22.625 23.890625 
Q 32.328125 33.6875 34.8125 36.53125 
Q 39.546875 41.84375 41.421875 45.53125 
Q 43.3125 49.21875 43.3125 52.78125 
Q 43.3125 58.59375 39.234375 62.25 
Q 35.15625 65.921875 28.609375 65.921875 
Q 23.96875 65.921875 18.8125 64.3125 
Q 13.671875 62.703125 7.8125 59.421875 
L 7.8125 69.390625 
Q 13.765625 71.78125 18.9375 73 
Q 24.125 74.21875 28.421875 74.21875 
Q 39.75 74.21875 46.484375 68.546875 
Q 53.21875 62.890625 53.21875 53.421875 
Q 53.21875 48.921875 51.53125 44.890625 
Q 49.859375 40.875 45.40625 35.40625 
Q 44.1875 33.984375 37.640625 27.21875 
Q 31.109375 20.453125 19.1875 8.296875 
z
" id="DejaVuSans-32"/>
    </defs>
    <g transform="translate(308.79396 285.5648)scale(0.2 -0.2)">
     <use xlink:href="#DejaVuSans-7b"/>
     <use x="63.623047" xlink:href="#DejaVuSans-66"/>
     <use x="98.828125" xlink:href="#DejaVuSans-36"/>
     <use x="162.451172" xlink:href="#DejaVuSans-2d"/>
     <use x="198.535156" xlink:href="#DejaVuSans-66"/>
     <use x="233.740234" xlink:href="#DejaVuSans-39"/>
     <use x="297.363281" xlink:href="#DejaVuSans-7d"/>
     <use x="360.986328" xlink:href="#DejaVuSans-2c"/>
     <use x="392.773438" xlink:href="#DejaVuSans-20"/>
     <use x="424.560547" xlink:href="#DejaVuSans-32"/>
     <use x="488.183594" xlink:href="#DejaVuSans-30"/>
     <use x="551.806641" xlink:href="#DejaVuSans-2d"/>
     <use x="587.890625" xlink:href="#DejaVuSans-44"/>
    </g>
   </g>
   <g id="text_7">
    <!-- v2.2.1.10 -->
    <defs>
     <path d="M 2.984375 54.6875 
L 12.5 54.6875 
L 29.59375 8.796875 
L 46.6875 54.6875 
L 56.203125 54.6875 
L 35.6875 0 
L 23.484375 0 
z
" id="DejaVuSans-76"/>
     <path d="M 10.6875 12.40625 
L 21 12.40625 
L 21 0 
L 10.6875 0 
z
" id="DejaVuSans-2e"/>
    </defs>
    <g style="fill:#808080;" transform="translate(204.463188 286.342713)scale(0.1 -0.1)">
     <use xlink:href="#DejaVuSans-76"/>
     <use x="59.179688" xlink:href="#DejaVuSans-32"/>
     <use x="122.802734" xlink:href="#DejaVuSans-2e"/>
     <use x="154.589844" xlink:href="#DejaVuSans-32"/>
     <use x="218.212891" xlink:href="#DejaVuSans-2e"/>
     <use x="250" xlink:href="#DejaVuSans-31"/>
     <use x="313.623047" xlink:href="#DejaVuSans-2e"/>
     <use x="345.410156" xlink:href="#DejaVuSans-31"/>
     <use x="409.033203" xlink:href="#DejaVuSans-30"/>
    </g>
   </g>
  </g>
 </g>
 <defs>
  <clipPath id="p4fb9126a7c">
   <rect height="285.76" width="445.152" x="5.52" y="5.52"/>
  </clipPath>
 </defs>
</svg>
