<?xml version="1.0" encoding="utf-8" standalone="no"?>
<!DOCTYPE svg PUBLIC "-//W3C//DTD SVG 1.1//EN"
  "http://www.w3.org/Graphics/SVG/1.1/DTD/svg11.dtd">
<!-- Created with matplotlib (http://matplotlib.org/) -->
<svg height="345.6pt" version="1.1" viewBox="0 0 460.8 345.6" width="460.8pt" xmlns="http://www.w3.org/2000/svg" xmlns:xlink="http://www.w3.org/1999/xlink">
 <defs>
  <style type="text/css">
*{stroke-linecap:butt;stroke-linejoin:round;}
  </style>
 </defs>
 <g id="figure_1">
  <g id="patch_1">
   <path d="M 0 345.6 
L 460.8 345.6 
L 460.8 0 
L 0 0 
z
" style="fill:#ffffff;"/>
  </g>
  <g id="axes_1">
   <g id="patch_2">
    <path d="M 5.52 291.28 
L 450.672 291.28 
L 450.672 5.52 
L 5.52 5.52 
z
" style="fill:#ffffff;"/>
   </g>
   <g id="matplotlib.axis_1">
    <g id="xtick_1">
     <g id="line2d_1">
      <path clip-path="url(#pf73009b0b8)" d="M 5.411309 291.28 
L 5.411309 5.52 
" style="fill:none;stroke:#b0b0b0;stroke-linecap:square;stroke-width:0.8;"/>
     </g>
     <g id="line2d_2">
      <defs>
       <path d="M 0 0 
L 0 3.5 
" id="ma3cad10352" style="stroke:#000000;stroke-width:0.8;"/>
      </defs>
      <g>
       <use style="stroke:#000000;stroke-width:0.8;" x="5.411309" xlink:href="#ma3cad10352" y="291.28"/>
      </g>
     </g>
    </g>
    <g id="xtick_2">
     <g id="line2d_3">
      <path clip-path="url(#pf73009b0b8)" d="M 106.019083 291.28 
L 106.019083 5.52 
" style="fill:none;stroke:#b0b0b0;stroke-linecap:square;stroke-width:0.8;"/>
     </g>
     <g id="line2d_4">
      <g>
       <use style="stroke:#000000;stroke-width:0.8;" x="106.019083" xlink:href="#ma3cad10352" y="291.28"/>
      </g>
     </g>
     <g id="text_1">
      <!-- -4 -->
      <defs>
       <path d="M 4.890625 31.390625 
L 31.203125 31.390625 
L 31.203125 23.390625 
L 4.890625 23.390625 
z
" id="DejaVuSans-2d"/>
       <path d="M 37.796875 64.3125 
L 12.890625 25.390625 
L 37.796875 25.390625 
z
M 35.203125 72.90625 
L 47.609375 72.90625 
L 47.609375 25.390625 
L 58.015625 25.390625 
L 58.015625 17.1875 
L 47.609375 17.1875 
L 47.609375 0 
L 37.796875 0 
L 37.796875 17.1875 
L 4.890625 17.1875 
L 4.890625 26.703125 
z
" id="DejaVuSans-34"/>
      </defs>
      <g transform="translate(96.04877 313.476875)scale(0.2 -0.2)">
       <use xlink:href="#DejaVuSans-2d"/>
       <use x="36.083984" xlink:href="#DejaVuSans-34"/>
      </g>
     </g>
    </g>
    <g id="xtick_3">
     <g id="line2d_5">
      <path clip-path="url(#pf73009b0b8)" d="M 206.626857 291.28 
L 206.626857 5.52 
" style="fill:none;stroke:#b0b0b0;stroke-linecap:square;stroke-width:0.8;"/>
     </g>
     <g id="line2d_6">
      <g>
       <use style="stroke:#000000;stroke-width:0.8;" x="206.626857" xlink:href="#ma3cad10352" y="291.28"/>
      </g>
     </g>
     <g id="text_2">
      <!-- 0 -->
      <defs>
       <path d="M 31.78125 66.40625 
Q 24.171875 66.40625 20.328125 58.90625 
Q 16.5 51.421875 16.5 36.375 
Q 16.5 21.390625 20.328125 13.890625 
Q 24.171875 6.390625 31.78125 6.390625 
Q 39.453125 6.390625 43.28125 13.890625 
Q 47.125 21.390625 47.125 36.375 
Q 47.125 51.421875 43.28125 58.90625 
Q 39.453125 66.40625 31.78125 66.40625 
z
M 31.78125 74.21875 
Q 44.046875 74.21875 50.515625 64.515625 
Q 56.984375 54.828125 56.984375 36.375 
Q 56.984375 17.96875 50.515625 8.265625 
Q 44.046875 -1.421875 31.78125 -1.421875 
Q 19.53125 -1.421875 13.0625 8.265625 
Q 6.59375 17.96875 6.59375 36.375 
Q 6.59375 54.828125 13.0625 64.515625 
Q 19.53125 74.21875 31.78125 74.21875 
z
" id="DejaVuSans-30"/>
      </defs>
      <g transform="translate(200.264357 313.476875)scale(0.2 -0.2)">
       <use xlink:href="#DejaVuSans-30"/>
      </g>
     </g>
    </g>
    <g id="xtick_4">
     <g id="line2d_7">
      <path clip-path="url(#pf73009b0b8)" d="M 307.234631 291.28 
L 307.234631 5.52 
" style="fill:none;stroke:#b0b0b0;stroke-linecap:square;stroke-width:0.8;"/>
     </g>
     <g id="line2d_8">
      <g>
       <use style="stroke:#000000;stroke-width:0.8;" x="307.234631" xlink:href="#ma3cad10352" y="291.28"/>
      </g>
     </g>
     <g id="text_3">
      <!-- 4 -->
      <g transform="translate(300.872131 313.476875)scale(0.2 -0.2)">
       <use xlink:href="#DejaVuSans-34"/>
      </g>
     </g>
    </g>
    <g id="xtick_5">
     <g id="line2d_9">
      <path clip-path="url(#pf73009b0b8)" d="M 407.842405 291.28 
L 407.842405 5.52 
" style="fill:none;stroke:#b0b0b0;stroke-linecap:square;stroke-width:0.8;"/>
     </g>
     <g id="line2d_10">
      <g>
       <use style="stroke:#000000;stroke-width:0.8;" x="407.842405" xlink:href="#ma3cad10352" y="291.28"/>
      </g>
     </g>
     <g id="text_4">
      <!-- 8 -->
      <defs>
       <path d="M 31.78125 34.625 
Q 24.75 34.625 20.71875 30.859375 
Q 16.703125 27.09375 16.703125 20.515625 
Q 16.703125 13.921875 20.71875 10.15625 
Q 24.75 6.390625 31.78125 6.390625 
Q 38.8125 6.390625 42.859375 10.171875 
Q 46.921875 13.96875 46.921875 20.515625 
Q 46.921875 27.09375 42.890625 30.859375 
Q 38.875 34.625 31.78125 34.625 
z
M 21.921875 38.8125 
Q 15.578125 40.375 12.03125 44.71875 
Q 8.5 49.078125 8.5 55.328125 
Q 8.5 64.0625 14.71875 69.140625 
Q 20.953125 74.21875 31.78125 74.21875 
Q 42.671875 74.21875 48.875 69.140625 
Q 55.078125 64.0625 55.078125 55.328125 
Q 55.078125 49.078125 51.53125 44.71875 
Q 48 40.375 41.703125 38.8125 
Q 48.828125 37.15625 52.796875 32.3125 
Q 56.78125 27.484375 56.78125 20.515625 
Q 56.78125 9.90625 50.3125 4.234375 
Q 43.84375 -1.421875 31.78125 -1.421875 
Q 19.734375 -1.421875 13.25 4.234375 
Q 6.78125 9.90625 6.78125 20.515625 
Q 6.78125 27.484375 10.78125 32.3125 
Q 14.796875 37.15625 21.921875 38.8125 
z
M 18.3125 54.390625 
Q 18.3125 48.734375 21.84375 45.5625 
Q 25.390625 42.390625 31.78125 42.390625 
Q 38.140625 42.390625 41.71875 45.5625 
Q 45.3125 48.734375 45.3125 54.390625 
Q 45.3125 60.0625 41.71875 63.234375 
Q 38.140625 66.40625 31.78125 66.40625 
Q 25.390625 66.40625 21.84375 63.234375 
Q 18.3125 60.0625 18.3125 54.390625 
z
" id="DejaVuSans-38"/>
      </defs>
      <g transform="translate(401.479905 313.476875)scale(0.2 -0.2)">
       <use xlink:href="#DejaVuSans-38"/>
      </g>
     </g>
    </g>
    <g id="text_5">
     <!-- log10 of Df -->
     <defs>
      <path d="M 9.421875 75.984375 
L 18.40625 75.984375 
L 18.40625 0 
L 9.421875 0 
z
" id="DejaVuSans-6c"/>
      <path d="M 30.609375 48.390625 
Q 23.390625 48.390625 19.1875 42.75 
Q 14.984375 37.109375 14.984375 27.296875 
Q 14.984375 17.484375 19.15625 11.84375 
Q 23.34375 6.203125 30.609375 6.203125 
Q 37.796875 6.203125 41.984375 11.859375 
Q 46.1875 17.53125 46.1875 27.296875 
Q 46.1875 37.015625 41.984375 42.703125 
Q 37.796875 48.390625 30.609375 48.390625 
z
M 30.609375 56 
Q 42.328125 56 49.015625 48.375 
Q 55.71875 40.765625 55.71875 27.296875 
Q 55.71875 13.875 49.015625 6.21875 
Q 42.328125 -1.421875 30.609375 -1.421875 
Q 18.84375 -1.421875 12.171875 6.21875 
Q 5.515625 13.875 5.515625 27.296875 
Q 5.515625 40.765625 12.171875 48.375 
Q 18.84375 56 30.609375 56 
z
" id="DejaVuSans-6f"/>
      <path d="M 45.40625 27.984375 
Q 45.40625 37.75 41.375 43.109375 
Q 37.359375 48.484375 30.078125 48.484375 
Q 22.859375 48.484375 18.828125 43.109375 
Q 14.796875 37.75 14.796875 27.984375 
Q 14.796875 18.265625 18.828125 12.890625 
Q 22.859375 7.515625 30.078125 7.515625 
Q 37.359375 7.515625 41.375 12.890625 
Q 45.40625 18.265625 45.40625 27.984375 
z
M 54.390625 6.78125 
Q 54.390625 -7.171875 48.1875 -13.984375 
Q 42 -20.796875 29.203125 -20.796875 
Q 24.46875 -20.796875 20.265625 -20.09375 
Q 16.0625 -19.390625 12.109375 -17.921875 
L 12.109375 -9.1875 
Q 16.0625 -11.328125 19.921875 -12.34375 
Q 23.78125 -13.375 27.78125 -13.375 
Q 36.625 -13.375 41.015625 -8.765625 
Q 45.40625 -4.15625 45.40625 5.171875 
L 45.40625 9.625 
Q 42.625 4.78125 38.28125 2.390625 
Q 33.9375 0 27.875 0 
Q 17.828125 0 11.671875 7.65625 
Q 5.515625 15.328125 5.515625 27.984375 
Q 5.515625 40.671875 11.671875 48.328125 
Q 17.828125 56 27.875 56 
Q 33.9375 56 38.28125 53.609375 
Q 42.625 51.21875 45.40625 46.390625 
L 45.40625 54.6875 
L 54.390625 54.6875 
z
" id="DejaVuSans-67"/>
      <path d="M 12.40625 8.296875 
L 28.515625 8.296875 
L 28.515625 63.921875 
L 10.984375 60.40625 
L 10.984375 69.390625 
L 28.421875 72.90625 
L 38.28125 72.90625 
L 38.28125 8.296875 
L 54.390625 8.296875 
L 54.390625 0 
L 12.40625 0 
z
" id="DejaVuSans-31"/>
      <path id="DejaVuSans-20"/>
      <path d="M 37.109375 75.984375 
L 37.109375 68.5 
L 28.515625 68.5 
Q 23.6875 68.5 21.796875 66.546875 
Q 19.921875 64.59375 19.921875 59.515625 
L 19.921875 54.6875 
L 34.71875 54.6875 
L 34.71875 47.703125 
L 19.921875 47.703125 
L 19.921875 0 
L 10.890625 0 
L 10.890625 47.703125 
L 2.296875 47.703125 
L 2.296875 54.6875 
L 10.890625 54.6875 
L 10.890625 58.5 
Q 10.890625 67.625 15.140625 71.796875 
Q 19.390625 75.984375 28.609375 75.984375 
z
" id="DejaVuSans-66"/>
      <path d="M 19.671875 64.796875 
L 19.671875 8.109375 
L 31.59375 8.109375 
Q 46.6875 8.109375 53.6875 14.9375 
Q 60.6875 21.78125 60.6875 36.53125 
Q 60.6875 51.171875 53.6875 57.984375 
Q 46.6875 64.796875 31.59375 64.796875 
z
M 9.8125 72.90625 
L 30.078125 72.90625 
Q 51.265625 72.90625 61.171875 64.09375 
Q 71.09375 55.28125 71.09375 36.53125 
Q 71.09375 17.671875 61.125 8.828125 
Q 51.171875 0 30.078125 0 
L 9.8125 0 
z
" id="DejaVuSans-44"/>
     </defs>
     <g transform="translate(172.910063 336.833125)scale(0.2 -0.2)">
      <use xlink:href="#DejaVuSans-6c"/>
      <use x="27.783203" xlink:href="#DejaVuSans-6f"/>
      <use x="88.964844" xlink:href="#DejaVuSans-67"/>
      <use x="152.441406" xlink:href="#DejaVuSans-31"/>
      <use x="216.064453" xlink:href="#DejaVuSans-30"/>
      <use x="279.6875" xlink:href="#DejaVuSans-20"/>
      <use x="311.474609" xlink:href="#DejaVuSans-6f"/>
      <use x="372.65625" xlink:href="#DejaVuSans-66"/>
      <use x="407.861328" xlink:href="#DejaVuSans-20"/>
      <use x="439.648438" xlink:href="#DejaVuSans-44"/>
      <use x="516.650391" xlink:href="#DejaVuSans-66"/>
     </g>
    </g>
   </g>
   <g id="matplotlib.axis_2">
    <g id="ytick_1">
     <g id="line2d_11">
      <path clip-path="url(#pf73009b0b8)" d="M 5.52 291.28 
L 450.672 291.28 
" style="fill:none;stroke:#b0b0b0;stroke-linecap:square;stroke-width:0.8;"/>
     </g>
     <g id="line2d_12">
      <defs>
       <path d="M 0 0 
L -3.5 0 
" id="m4e2345932a" style="stroke:#000000;stroke-width:0.8;"/>
      </defs>
      <g>
       <use style="stroke:#000000;stroke-width:0.8;" x="5.52" xlink:href="#m4e2345932a" y="291.28"/>
      </g>
     </g>
    </g>
    <g id="ytick_2">
     <g id="line2d_13">
      <path clip-path="url(#pf73009b0b8)" d="M 5.52 234.693861 
L 450.672 234.693861 
" style="fill:none;stroke:#b0b0b0;stroke-linecap:square;stroke-width:0.8;"/>
     </g>
     <g id="line2d_14">
      <g>
       <use style="stroke:#000000;stroke-width:0.8;" x="5.52" xlink:href="#m4e2345932a" y="234.693861"/>
      </g>
     </g>
    </g>
    <g id="ytick_3">
     <g id="line2d_15">
      <path clip-path="url(#pf73009b0b8)" d="M 5.52 178.107723 
L 450.672 178.107723 
" style="fill:none;stroke:#b0b0b0;stroke-linecap:square;stroke-width:0.8;"/>
     </g>
     <g id="line2d_16">
      <g>
       <use style="stroke:#000000;stroke-width:0.8;" x="5.52" xlink:href="#m4e2345932a" y="178.107723"/>
      </g>
     </g>
    </g>
    <g id="ytick_4">
     <g id="line2d_17">
      <path clip-path="url(#pf73009b0b8)" d="M 5.52 121.521584 
L 450.672 121.521584 
" style="fill:none;stroke:#b0b0b0;stroke-linecap:square;stroke-width:0.8;"/>
     </g>
     <g id="line2d_18">
      <g>
       <use style="stroke:#000000;stroke-width:0.8;" x="5.52" xlink:href="#m4e2345932a" y="121.521584"/>
      </g>
     </g>
    </g>
    <g id="ytick_5">
     <g id="line2d_19">
      <path clip-path="url(#pf73009b0b8)" d="M 5.52 64.935446 
L 450.672 64.935446 
" style="fill:none;stroke:#b0b0b0;stroke-linecap:square;stroke-width:0.8;"/>
     </g>
     <g id="line2d_20">
      <g>
       <use style="stroke:#000000;stroke-width:0.8;" x="5.52" xlink:href="#m4e2345932a" y="64.935446"/>
      </g>
     </g>
    </g>
    <g id="ytick_6">
     <g id="line2d_21">
      <path clip-path="url(#pf73009b0b8)" d="M 5.52 8.349307 
L 450.672 8.349307 
" style="fill:none;stroke:#b0b0b0;stroke-linecap:square;stroke-width:0.8;"/>
     </g>
     <g id="line2d_22">
      <g>
       <use style="stroke:#000000;stroke-width:0.8;" x="5.52" xlink:href="#m4e2345932a" y="8.349307"/>
      </g>
     </g>
    </g>
   </g>
   <g id="line2d_23">
    <path clip-path="url(#pf73009b0b8)" d="M 231.593949 291.28 
L 231.593949 290.336898 
L 232.438639 290.336898 
L 232.438639 289.393795 
L 234.851323 289.393795 
L 234.851323 288.450693 
L 236.035768 288.450693 
L 236.035768 287.507591 
L 237.125951 287.507591 
L 237.125951 286.564488 
L 237.296517 286.564488 
L 237.385593 284.678284 
L 237.491877 284.678284 
L 237.491877 283.735182 
L 237.62309 283.735182 
L 237.689916 281.848977 
L 238.079569 281.848977 
L 238.079569 280.905875 
L 238.283348 280.905875 
L 238.283348 279.962772 
L 238.521418 279.962772 
L 238.542077 278.076568 
L 238.804654 278.076568 
L 238.804654 277.133465 
L 239.064343 277.133465 
L 239.064343 276.190363 
L 240.214126 276.190363 
L 240.294933 273.361056 
L 241.319722 273.361056 
L 241.319722 272.417954 
L 242.12583 272.417954 
L 242.12583 271.474851 
L 242.722741 271.474851 
L 242.722741 270.531749 
L 243.347242 270.531749 
L 243.347242 269.588647 
L 244.31839 269.588647 
L 244.31839 268.645545 
L 244.499684 268.645545 
L 244.499684 267.702442 
L 244.648512 267.702442 
L 244.648512 266.75934 
L 244.813355 266.75934 
L 244.813355 265.816238 
L 245.372492 265.816238 
L 245.372492 264.873135 
L 245.57019 264.873135 
L 245.630241 262.986931 
L 246.010927 262.986931 
L 246.014641 261.100726 
L 246.322789 261.100726 
L 246.421757 259.214521 
L 246.684575 259.214521 
L 246.736545 257.328317 
L 246.80889 257.328317 
L 246.875 255.442112 
L 246.951903 255.442112 
L 246.96751 253.555908 
L 247.283489 253.555908 
L 247.283489 252.612805 
L 248.3148 252.612805 
L 248.359745 250.726601 
L 250.692116 250.726601 
L 250.692116 249.783498 
L 251.160492 249.783498 
L 251.160492 248.840396 
L 255.141652 248.840396 
L 255.141652 247.897294 
L 255.90832 247.897294 
L 255.90832 246.954191 
L 256.429233 246.954191 
L 256.429233 246.011089 
L 256.896504 246.011089 
L 256.896504 245.067987 
L 257.126013 245.067987 
L 257.183662 243.181782 
L 258.492009 243.181782 
L 258.534729 240.352475 
L 258.909439 240.352475 
L 258.909439 239.409373 
L 259.190987 239.409373 
L 259.22779 236.580066 
L 259.850316 236.580066 
L 259.90369 232.807657 
L 260.154734 232.807657 
L 260.154734 231.864554 
L 260.983639 231.864554 
L 260.983639 230.921452 
L 261.889617 230.921452 
L 261.889617 229.97835 
L 262.833672 229.97835 
L 262.833672 229.035248 
L 263.014516 229.035248 
L 263.014516 228.092145 
L 263.346968 228.092145 
L 263.346968 227.149043 
L 264.140254 227.149043 
L 264.20392 225.262838 
L 264.369572 225.262838 
L 264.414725 223.376634 
L 264.523858 223.376634 
L 264.523858 222.433531 
L 264.66509 222.433531 
L 264.682168 220.547327 
L 264.814842 220.547327 
L 264.905575 216.774917 
L 264.928798 216.774917 
L 264.992099 213.002508 
L 265.059012 213.002508 
L 265.167439 209.230099 
L 265.240157 209.230099 
L 265.295768 207.343894 
L 265.385733 207.343894 
L 265.445293 203.571485 
L 265.520133 203.571485 
L 265.586162 199.799076 
L 265.65649 199.799076 
L 265.760931 196.026667 
L 265.894926 196.026667 
L 266.000278 190.368053 
L 266.016516 190.368053 
L 266.12531 184.709439 
L 266.13792 184.709439 
L 266.230315 180.93703 
L 266.261551 180.93703 
L 266.370881 176.221518 
L 266.495404 176.221518 
L 266.599554 166.790495 
L 266.607352 166.790495 
L 266.70864 163.018086 
L 266.722875 163.018086 
L 266.824777 156.41637 
L 266.837 156.41637 
L 266.858912 154.530165 
L 266.951585 154.530165 
L 267.056017 149.814653 
L 267.089513 149.814653 
L 267.16202 146.985347 
L 267.20589 146.985347 
L 267.304894 141.326733 
L 267.452422 141.326733 
L 267.494809 137.554323 
L 267.571723 137.554323 
L 267.574336 134.725017 
L 267.695579 134.725017 
L 267.752904 131.89571 
L 267.807019 131.89571 
L 267.807019 130.952607 
L 267.977478 130.952607 
L 267.977478 130.009505 
L 268.214471 130.009505 
L 268.287535 127.180198 
L 268.402557 127.180198 
L 268.482479 124.350891 
L 269.202648 124.350891 
L 269.284542 121.521584 
L 269.353874 121.521584 
L 269.353874 120.578482 
L 269.637267 120.578482 
L 269.674395 118.692277 
L 269.962277 118.692277 
L 270.024627 115.86297 
L 270.282371 115.86297 
L 270.282371 114.919868 
L 270.70271 114.919868 
L 270.70271 113.976766 
L 270.843648 113.976766 
L 270.847999 112.090561 
L 271.013821 112.090561 
L 271.028142 110.204356 
L 271.321142 110.204356 
L 271.321142 109.261254 
L 271.601299 109.261254 
L 271.641723 107.37505 
L 271.748194 107.37505 
L 271.748194 106.431947 
L 271.99878 106.431947 
L 271.99878 105.488845 
L 272.400094 105.488845 
L 272.430759 103.60264 
L 273.055456 103.60264 
L 273.089927 101.716436 
L 273.214677 101.716436 
L 273.314896 99.830231 
L 273.51925 99.830231 
L 273.51925 98.887129 
L 273.946948 98.887129 
L 273.997251 97.000924 
L 274.262177 97.000924 
L 274.35744 94.171617 
L 274.476923 94.171617 
L 274.476923 93.228515 
L 274.868174 93.228515 
L 274.892664 91.34231 
L 275.539323 91.34231 
L 275.539323 90.399208 
L 276.083099 90.399208 
L 276.083099 89.456106 
L 277.06432 89.456106 
L 277.06432 88.513003 
L 277.229101 88.513003 
L 277.229101 87.569901 
L 277.532335 87.569901 
L 277.630291 85.683696 
L 277.855871 85.683696 
L 277.926371 80.968185 
L 278.146423 80.968185 
L 278.146423 80.025083 
L 278.60784 80.025083 
L 278.60784 79.08198 
L 279.240123 79.08198 
L 279.336626 76.252673 
L 279.453778 76.252673 
L 279.453778 75.309571 
L 280.099692 75.309571 
L 280.157267 73.423366 
L 280.274791 73.423366 
L 280.297601 71.537162 
L 280.480907 71.537162 
L 280.480907 70.594059 
L 280.645145 70.594059 
L 280.645436 68.707855 
L 281.020857 68.707855 
L 281.020857 67.764752 
L 281.473825 67.764752 
L 281.473825 66.82165 
L 282.205304 66.82165 
L 282.205304 65.878548 
L 283.153002 65.878548 
L 283.153002 64.935446 
L 318.142613 64.935446 
L 318.142613 63.992343 
L 324.180207 63.992343 
L 324.180207 63.049241 
L 326.323035 63.049241 
L 326.323035 62.106139 
L 328.735054 62.106139 
L 328.735054 61.163036 
L 329.391717 61.163036 
L 329.422458 59.276832 
L 331.6765 59.276832 
L 331.6765 58.333729 
L 333.853373 58.333729 
L 333.853373 57.390627 
L 335.830199 57.390627 
L 335.830199 56.447525 
L 336.489991 56.447525 
L 336.489991 55.504422 
L 337.542681 55.504422 
L 337.542681 54.56132 
L 338.168719 54.56132 
L 338.168719 53.618218 
L 338.913727 53.618218 
L 338.913727 52.675116 
L 339.043042 52.675116 
L 339.043042 51.732013 
L 340.682102 51.732013 
L 340.682102 50.788911 
L 341.015861 50.788911 
L 341.026781 48.902706 
L 341.49598 48.902706 
L 341.49598 47.959604 
L 341.839924 47.959604 
L 341.947738 46.073399 
L 344.061325 46.073399 
L 344.131618 44.187195 
L 344.385153 44.187195 
L 344.493876 42.30099 
L 344.772134 42.30099 
L 344.772134 41.357888 
L 345.33466 41.357888 
L 345.33466 40.414785 
L 345.493138 40.414785 
L 345.493138 39.471683 
L 345.65763 39.471683 
L 345.65763 38.528581 
L 346.401647 38.528581 
L 346.401647 37.585479 
L 346.889667 37.585479 
L 346.889667 36.642376 
L 347.006615 36.642376 
L 347.006615 35.699274 
L 347.950166 35.699274 
L 347.950166 34.756172 
L 348.062375 34.756172 
L 348.062375 33.813069 
L 352.12699 33.813069 
L 352.12699 32.869967 
L 352.426294 32.869967 
L 352.426294 31.926865 
L 352.708712 31.926865 
L 352.708712 30.983762 
L 353.061372 30.983762 
L 353.061372 30.04066 
L 353.275152 30.04066 
L 353.275152 29.097558 
L 353.818615 29.097558 
L 353.818615 28.154455 
L 353.98488 28.154455 
L 353.98488 27.211353 
L 356.2223 27.211353 
L 356.2223 26.268251 
L 357.272856 26.268251 
L 357.334888 24.382046 
L 358.787401 24.382046 
L 358.787401 23.438944 
L 359.44734 23.438944 
L 359.44734 22.495842 
L 360.346992 22.495842 
L 360.346992 21.552739 
L 361.322883 21.552739 
L 361.322883 20.609637 
L 361.666376 20.609637 
L 361.666376 19.666535 
L 362.218751 19.666535 
L 362.218751 18.723432 
L 362.913906 18.723432 
L 362.913906 17.78033 
L 363.203454 17.78033 
L 363.203454 16.837228 
L 363.515229 16.837228 
L 363.515229 15.894125 
L 365.08411 15.894125 
L 365.08411 14.951023 
L 367.819765 14.951023 
L 367.819765 14.007921 
L 368.029197 14.007921 
L 368.029197 13.064818 
L 368.198635 13.064818 
L 368.198635 12.121716 
L 368.53705 12.121716 
L 368.53705 11.178614 
L 369.145062 11.178614 
L 369.145062 10.235512 
L 370.045385 10.235512 
L 370.045385 9.292409 
L 372.325963 9.292409 
L 372.325963 8.349307 
L 372.325963 8.349307 
L 450.672 8.349307 
L 450.672 8.349307 
" style="fill:none;stroke:#ff0000;stroke-linecap:square;stroke-width:3;"/>
   </g>
   <g id="line2d_24">
    <path clip-path="url(#pf73009b0b8)" d="M 256.033245 291.28 
L 256.033245 290.336898 
L 256.449904 290.336898 
L 256.449904 289.393795 
L 256.840274 289.393795 
L 256.840274 288.450693 
L 256.981874 288.450693 
L 256.981874 287.507591 
L 257.596116 287.507591 
L 257.688804 285.621386 
L 258.016589 285.621386 
L 258.075951 283.735182 
L 258.166958 283.735182 
L 258.269203 280.905875 
L 258.324281 280.905875 
L 258.324281 279.962772 
L 258.705264 279.962772 
L 258.705264 279.01967 
L 258.93312 279.01967 
L 259.006271 277.133465 
L 259.125118 277.133465 
L 259.142732 275.247261 
L 259.930194 275.247261 
L 259.930194 274.304158 
L 260.081571 274.304158 
L 260.122785 271.474851 
L 260.256164 271.474851 
L 260.294889 269.588647 
L 260.373061 269.588647 
L 260.462459 266.75934 
L 260.490331 266.75934 
L 260.490331 265.816238 
L 260.637956 265.816238 
L 260.729633 262.043828 
L 260.77754 262.043828 
L 260.82737 259.214521 
L 261.183232 259.214521 
L 261.183232 258.271419 
L 261.320597 258.271419 
L 261.320597 257.328317 
L 261.510216 257.328317 
L 261.584406 255.442112 
L 261.696751 255.442112 
L 261.696751 254.49901 
L 262.032902 254.49901 
L 262.032902 253.555908 
L 262.333968 253.555908 
L 262.333968 252.612805 
L 262.601633 252.612805 
L 262.669287 249.783498 
L 262.826961 249.783498 
L 262.884642 247.897294 
L 263.097382 247.897294 
L 263.097382 246.954191 
L 263.248897 246.954191 
L 263.332057 244.124884 
L 263.39381 244.124884 
L 263.501436 241.295578 
L 263.507532 241.295578 
L 263.555305 239.409373 
L 264.095981 239.409373 
L 264.095981 238.466271 
L 264.82845 238.466271 
L 264.838577 236.580066 
L 265.401034 236.580066 
L 265.401034 235.636964 
L 265.535532 235.636964 
L 265.535532 234.693861 
L 266.113111 234.693861 
L 266.113111 233.750759 
L 266.999411 233.750759 
L 266.999411 232.807657 
L 267.667557 232.807657 
L 267.667557 231.864554 
L 267.932157 231.864554 
L 268.038733 227.149043 
L 268.133281 227.149043 
L 268.133281 226.205941 
L 268.33814 226.205941 
L 268.384498 224.319736 
L 268.463546 224.319736 
L 268.472142 222.433531 
L 268.594718 222.433531 
L 268.637085 219.604224 
L 268.790586 219.604224 
L 268.790586 218.661122 
L 268.968818 218.661122 
L 269.044587 215.831815 
L 269.093178 215.831815 
L 269.188499 212.059406 
L 269.303328 212.059406 
L 269.384942 207.343894 
L 269.531477 207.343894 
L 269.571098 205.45769 
L 269.749506 205.45769 
L 269.794422 200.742178 
L 269.892329 200.742178 
L 269.900851 198.855974 
L 270.036954 198.855974 
L 270.130359 195.083564 
L 270.165334 195.083564 
L 270.259366 191.311155 
L 270.305364 191.311155 
L 270.41263 186.595644 
L 270.463529 186.595644 
L 270.51834 184.709439 
L 270.589565 184.709439 
L 270.652365 182.823234 
L 270.748566 182.823234 
L 270.748566 181.880132 
L 271.017288 181.880132 
L 271.081745 179.050825 
L 271.142779 179.050825 
L 271.142779 178.107723 
L 274.49889 178.107723 
L 274.49889 177.16462 
L 276.248657 177.16462 
L 276.248657 176.221518 
L 276.570558 176.221518 
L 276.667519 174.335314 
L 276.877441 174.335314 
L 276.877441 173.392211 
L 277.339588 173.392211 
L 277.339588 172.449109 
L 277.538664 172.449109 
L 277.538664 171.506007 
L 277.652499 171.506007 
L 277.652499 170.562904 
L 277.773683 170.562904 
L 277.773683 169.619802 
L 277.90572 169.619802 
L 277.90572 168.6767 
L 278.471178 168.6767 
L 278.471178 167.733597 
L 278.641436 167.733597 
L 278.641436 166.790495 
L 278.818284 166.790495 
L 278.818284 165.847393 
L 278.936689 165.847393 
L 278.958792 163.961188 
L 279.083328 163.961188 
L 279.158578 161.131881 
L 279.201514 161.131881 
L 279.310617 159.245677 
L 279.345251 159.245677 
L 279.424045 156.41637 
L 279.489328 156.41637 
L 279.582486 154.530165 
L 279.717085 154.530165 
L 279.73424 152.64396 
L 279.876002 152.64396 
L 279.876002 151.700858 
L 279.987519 151.700858 
L 279.987519 150.757756 
L 280.116799 150.757756 
L 280.186864 146.985347 
L 280.290059 146.985347 
L 280.34261 144.15604 
L 280.417708 144.15604 
L 280.417708 143.212937 
L 280.599271 143.212937 
L 280.692186 141.326733 
L 280.768816 141.326733 
L 280.862768 138.497426 
L 280.881969 138.497426 
L 280.917258 136.611221 
L 281.03011 136.611221 
L 281.088338 132.838812 
L 281.235057 132.838812 
L 281.333873 130.009505 
L 281.459674 130.009505 
L 281.564415 124.350891 
L 281.586744 124.350891 
L 281.586744 123.407789 
L 281.779518 123.407789 
L 281.855505 121.521584 
L 281.98597 121.521584 
L 282.031873 119.63538 
L 282.15223 119.63538 
L 282.222469 115.86297 
L 282.467234 115.86297 
L 282.549042 113.033663 
L 282.600801 113.033663 
L 282.67566 110.204356 
L 282.924177 110.204356 
L 282.924177 109.261254 
L 283.073127 109.261254 
L 283.142964 106.431947 
L 283.292061 106.431947 
L 283.382443 101.716436 
L 283.445714 101.716436 
L 283.506761 99.830231 
L 283.581818 99.830231 
L 283.581818 98.887129 
L 283.724752 98.887129 
L 283.813844 94.171617 
L 283.900423 94.171617 
L 283.94312 91.34231 
L 284.167445 91.34231 
L 284.274667 88.513003 
L 284.348255 88.513003 
L 284.348255 87.569901 
L 284.476376 87.569901 
L 284.483363 85.683696 
L 284.64121 85.683696 
L 284.64121 84.740594 
L 284.757411 84.740594 
L 284.796007 82.854389 
L 284.880453 82.854389 
L 284.937139 80.025083 
L 285.572788 80.025083 
L 285.641443 77.195776 
L 285.69059 77.195776 
L 285.69059 76.252673 
L 285.923952 76.252673 
L 286.029789 72.480264 
L 286.441907 72.480264 
L 286.441907 71.537162 
L 287.316318 71.537162 
L 287.316318 70.594059 
L 287.473451 70.594059 
L 287.529116 68.707855 
L 287.898505 68.707855 
L 287.898505 67.764752 
L 289.744271 67.764752 
L 289.744271 66.82165 
L 290.312179 66.82165 
L 290.312179 65.878548 
L 291.369589 65.878548 
L 291.369589 64.935446 
L 360.76739 64.935446 
L 360.76739 63.992343 
L 364.271009 63.992343 
L 364.271009 63.049241 
L 366.243414 63.049241 
L 366.243414 62.106139 
L 366.423046 62.106139 
L 366.423046 61.163036 
L 366.575383 61.163036 
L 366.575383 60.219934 
L 367.165104 60.219934 
L 367.165104 59.276832 
L 367.55202 59.276832 
L 367.55202 58.333729 
L 368.066148 58.333729 
L 368.066148 57.390627 
L 368.560629 57.390627 
L 368.560629 56.447525 
L 369.108556 56.447525 
L 369.108556 55.504422 
L 369.853483 55.504422 
L 369.853483 54.56132 
L 370.191169 54.56132 
L 370.191169 53.618218 
L 370.403539 53.618218 
L 370.403539 52.675116 
L 370.702845 52.675116 
L 370.702845 51.732013 
L 371.148537 51.732013 
L 371.148537 50.788911 
L 371.838354 50.788911 
L 371.857108 48.902706 
L 372.137713 48.902706 
L 372.137713 47.959604 
L 372.81378 47.959604 
L 372.887329 46.073399 
L 373.289192 46.073399 
L 373.289192 45.130297 
L 373.551587 45.130297 
L 373.551587 44.187195 
L 373.903663 44.187195 
L 373.903663 43.244092 
L 374.178341 43.244092 
L 374.178341 42.30099 
L 375.08635 42.30099 
L 375.08635 41.357888 
L 375.230765 41.357888 
L 375.230765 40.414785 
L 375.353596 40.414785 
L 375.353596 39.471683 
L 375.501338 39.471683 
L 375.501338 38.528581 
L 375.68287 38.528581 
L 375.791242 35.699274 
L 375.893684 35.699274 
L 375.992474 33.813069 
L 376.099078 33.813069 
L 376.099078 32.869967 
L 376.28628 32.869967 
L 376.28628 31.926865 
L 376.996043 31.926865 
L 376.996043 30.983762 
L 377.785837 30.983762 
L 377.785837 30.04066 
L 377.903994 30.04066 
L 377.966452 28.154455 
L 378.311347 28.154455 
L 378.311347 27.211353 
L 379.024596 27.211353 
L 379.024596 26.268251 
L 379.291674 26.268251 
L 379.291674 25.325149 
L 379.548643 25.325149 
L 379.548643 24.382046 
L 379.730393 24.382046 
L 379.744677 22.495842 
L 380.213233 22.495842 
L 380.255063 20.609637 
L 380.519375 20.609637 
L 380.606388 18.723432 
L 380.989148 18.723432 
L 380.989148 17.78033 
L 381.202229 17.78033 
L 381.202229 16.837228 
L 381.428919 16.837228 
L 381.428919 15.894125 
L 382.24525 15.894125 
L 382.351751 13.064818 
L 382.829866 13.064818 
L 382.829866 12.121716 
L 383.778395 12.121716 
L 383.778395 11.178614 
L 384.447069 11.178614 
L 384.447069 10.235512 
L 387.373246 10.235512 
L 387.373246 9.292409 
L 387.583001 9.292409 
L 387.583001 8.349307 
L 387.583001 8.349307 
L 450.672 8.349307 
L 450.672 8.349307 
" style="fill:none;stroke:#00bfbf;stroke-linecap:square;stroke-width:1.5;"/>
   </g>
   <g id="line2d_25">
    <path clip-path="url(#pf73009b0b8)" d="M 253.443769 291.28 
L 253.443769 290.336898 
L 254.538444 290.336898 
L 254.538444 289.393795 
L 255.517117 289.393795 
L 255.54746 287.507591 
L 256.033245 287.507591 
L 256.033245 286.564488 
L 256.449904 286.564488 
L 256.490874 284.678284 
L 256.646085 284.678284 
L 256.646085 283.735182 
L 256.79521 283.735182 
L 256.79521 282.792079 
L 256.981874 282.792079 
L 256.981874 281.848977 
L 257.183662 281.848977 
L 257.183662 280.905875 
L 257.457459 280.905875 
L 257.457459 279.962772 
L 257.596116 279.962772 
L 257.688804 277.133465 
L 257.753559 277.133465 
L 257.769148 275.247261 
L 258.016589 275.247261 
L 258.016589 274.304158 
L 258.269203 274.304158 
L 258.324281 272.417954 
L 258.460568 272.417954 
L 258.550587 270.531749 
L 258.705264 270.531749 
L 258.789716 268.645545 
L 258.93312 268.645545 
L 258.93312 267.702442 
L 259.125118 267.702442 
L 259.125118 266.75934 
L 259.37818 266.75934 
L 259.447303 264.873135 
L 259.504239 264.873135 
L 259.504239 263.930033 
L 259.869704 263.930033 
L 259.971798 261.100726 
L 260.232457 261.100726 
L 260.336609 257.328317 
L 260.373061 257.328317 
L 260.462459 254.49901 
L 260.505365 254.49901 
L 260.564395 252.612805 
L 260.637956 252.612805 
L 260.685541 250.726601 
L 260.77754 250.726601 
L 260.811495 248.840396 
L 260.947849 248.840396 
L 260.947849 247.897294 
L 261.171196 247.897294 
L 261.183232 246.011089 
L 261.290089 246.011089 
L 261.290089 245.067987 
L 261.454744 245.067987 
L 261.454744 244.124884 
L 261.696751 244.124884 
L 261.696751 243.181782 
L 262.074267 243.181782 
L 262.074267 242.23868 
L 262.669287 242.23868 
L 262.763539 240.352475 
L 262.831393 240.352475 
L 262.884642 237.523168 
L 263.248897 237.523168 
L 263.248897 236.580066 
L 263.501436 236.580066 
L 263.555305 234.693861 
L 265.401034 234.693861 
L 265.401034 233.750759 
L 266.562294 233.750759 
L 266.562294 232.807657 
L 266.738667 232.807657 
L 266.738667 231.864554 
L 266.999411 231.864554 
L 266.999411 230.921452 
L 267.111191 230.921452 
L 267.111191 229.97835 
L 267.562078 229.97835 
L 267.667557 228.092145 
L 267.695482 228.092145 
L 267.695482 227.149043 
L 267.808531 227.149043 
L 267.808531 226.205941 
L 267.932157 226.205941 
L 268.038733 221.490429 
L 268.133281 221.490429 
L 268.133281 220.547327 
L 268.27579 220.547327 
L 268.384498 217.71802 
L 268.424688 217.71802 
L 268.472142 214.888713 
L 268.594718 214.888713 
L 268.637085 212.059406 
L 268.801391 212.059406 
L 268.801391 211.116304 
L 268.92853 211.116304 
L 269.036077 208.286997 
L 269.075992 208.286997 
L 269.17365 202.628383 
L 269.188499 202.628383 
L 269.237289 200.742178 
L 269.303328 200.742178 
L 269.328043 196.969769 
L 269.509012 196.969769 
L 269.571098 194.140462 
L 269.749506 194.140462 
L 269.852103 190.368053 
L 269.883925 190.368053 
L 269.938881 187.538746 
L 270.005529 187.538746 
L 270.107322 183.766337 
L 270.141171 183.766337 
L 270.218423 181.880132 
L 270.333623 181.880132 
L 270.41263 179.993927 
L 270.463529 179.993927 
L 270.500198 178.107723 
L 274.49889 178.107723 
L 274.49889 177.16462 
L 275.002628 177.16462 
L 275.002628 176.221518 
L 275.637082 176.221518 
L 275.637082 175.278416 
L 275.750481 175.278416 
L 275.750481 174.335314 
L 275.899614 174.335314 
L 275.899614 173.392211 
L 276.155769 173.392211 
L 276.248657 171.506007 
L 276.35012 171.506007 
L 276.35012 170.562904 
L 276.570558 170.562904 
L 276.667519 168.6767 
L 276.684114 168.6767 
L 276.684114 167.733597 
L 276.835867 167.733597 
L 276.877441 165.847393 
L 276.971772 165.847393 
L 276.971772 164.90429 
L 277.085149 164.90429 
L 277.127173 163.018086 
L 277.415442 163.018086 
L 277.464942 160.188779 
L 277.538664 160.188779 
L 277.623525 157.359472 
L 277.652499 157.359472 
L 277.652499 156.41637 
L 277.90572 156.41637 
L 277.90572 155.473267 
L 278.306861 155.473267 
L 278.306861 154.530165 
L 278.471178 154.530165 
L 278.5689 152.64396 
L 278.641436 152.64396 
L 278.641436 151.700858 
L 278.804001 151.700858 
L 278.841269 148.871551 
L 279.002005 148.871551 
L 279.100863 145.099142 
L 279.158578 145.099142 
L 279.201514 142.269835 
L 279.286016 142.269835 
L 279.345251 140.38363 
L 279.424045 140.38363 
L 279.522121 137.554323 
L 279.582486 137.554323 
L 279.675712 134.725017 
L 279.717085 134.725017 
L 279.73424 132.838812 
L 279.845582 132.838812 
L 279.876002 130.009505 
L 279.96076 130.009505 
L 279.987519 128.1233 
L 280.126159 128.1233 
L 280.23425 123.407789 
L 280.270964 123.407789 
L 280.34261 119.63538 
L 280.692186 119.63538 
L 280.793341 114.919868 
L 280.862768 114.919868 
L 280.972764 109.261254 
L 281.012698 109.261254 
L 281.119924 103.60264 
L 281.228661 103.60264 
L 281.333873 101.716436 
L 281.459674 101.716436 
L 281.564415 97.000924 
L 281.779539 97.000924 
L 281.85588 93.228515 
L 282.168389 93.228515 
L 282.219722 91.34231 
L 282.467089 91.34231 
L 282.535803 88.513003 
L 283.028236 88.513003 
L 283.129955 84.740594 
L 283.142964 84.740594 
L 283.153002 82.854389 
L 283.349992 82.854389 
L 283.449129 80.025083 
L 283.506761 80.025083 
L 283.581818 77.195776 
L 283.993366 77.195776 
L 284.086952 75.309571 
L 284.274667 75.309571 
L 284.274667 74.366469 
L 284.64121 74.366469 
L 284.64121 73.423366 
L 284.796007 73.423366 
L 284.796007 72.480264 
L 284.937139 72.480264 
L 284.950543 70.594059 
L 285.23871 70.594059 
L 285.23871 69.650957 
L 285.69059 69.650957 
L 285.69059 68.707855 
L 286.029789 68.707855 
L 286.029789 67.764752 
L 286.958143 67.764752 
L 286.958143 66.82165 
L 287.473451 66.82165 
L 287.529116 64.935446 
L 360.506001 64.935446 
L 360.506001 63.992343 
L 360.76739 63.992343 
L 360.76739 63.049241 
L 361.242502 63.049241 
L 361.242502 62.106139 
L 362.901646 62.106139 
L 362.901646 61.163036 
L 363.631897 61.163036 
L 363.631897 60.219934 
L 364.271009 60.219934 
L 364.271009 59.276832 
L 366.423046 59.276832 
L 366.506349 57.390627 
L 366.575383 57.390627 
L 366.575383 56.447525 
L 367.165104 56.447525 
L 367.165104 55.504422 
L 367.55202 55.504422 
L 367.569933 53.618218 
L 368.066148 53.618218 
L 368.066148 52.675116 
L 368.279996 52.675116 
L 368.283424 50.788911 
L 368.53705 50.788911 
L 368.646961 47.959604 
L 369.280981 47.959604 
L 369.374874 46.073399 
L 369.503836 46.073399 
L 369.581592 44.187195 
L 369.853483 44.187195 
L 369.953545 42.30099 
L 370.191169 42.30099 
L 370.191169 41.357888 
L 370.403539 41.357888 
L 370.403539 40.414785 
L 370.702845 40.414785 
L 370.794213 37.585479 
L 371.145587 37.585479 
L 371.145587 36.642376 
L 371.462011 36.642376 
L 371.462011 35.699274 
L 371.613918 35.699274 
L 371.613918 34.756172 
L 371.838354 34.756172 
L 371.838354 33.813069 
L 372.030363 33.813069 
L 372.139558 30.983762 
L 372.325963 30.983762 
L 372.325963 30.04066 
L 372.455225 30.04066 
L 372.455225 29.097558 
L 372.887329 29.097558 
L 372.887329 28.154455 
L 373.321581 28.154455 
L 373.321581 27.211353 
L 373.551587 27.211353 
L 373.551587 26.268251 
L 373.779374 26.268251 
L 373.779374 25.325149 
L 373.903663 25.325149 
L 373.903663 24.382046 
L 374.178341 24.382046 
L 374.178341 23.438944 
L 374.313071 23.438944 
L 374.4238 21.552739 
L 375.353596 21.552739 
L 375.353596 20.609637 
L 375.517793 20.609637 
L 375.602087 18.723432 
L 376.099078 18.723432 
L 376.099078 17.78033 
L 376.70328 17.78033 
L 376.770975 15.894125 
L 376.996043 15.894125 
L 376.996043 14.951023 
L 377.903994 14.951023 
L 377.903994 14.007921 
L 378.480272 14.007921 
L 378.586819 12.121716 
L 378.9551 12.121716 
L 378.9551 11.178614 
L 379.569858 11.178614 
L 379.569858 10.235512 
L 380.213233 10.235512 
L 380.213233 9.292409 
L 381.038968 9.292409 
L 381.038968 8.349307 
L 381.038968 8.349307 
L 450.672 8.349307 
L 450.672 8.349307 
" style="fill:none;stroke:#bf00bf;stroke-linecap:square;stroke-width:1.5;"/>
   </g>
   <g id="line2d_26">
    <path clip-path="url(#pf73009b0b8)" d="M 248.287621 291.28 
L 248.287621 290.336898 
L 252.140053 290.336898 
L 252.140053 289.393795 
L 252.446291 289.393795 
L 252.446291 288.450693 
L 253.420891 288.450693 
L 253.420891 287.507591 
L 253.905435 287.507591 
L 253.905435 286.564488 
L 254.538444 286.564488 
L 254.538444 285.621386 
L 255.330822 285.621386 
L 255.330822 284.678284 
L 255.453591 284.678284 
L 255.54746 281.848977 
L 255.574429 281.848977 
L 255.574429 280.905875 
L 255.756574 280.905875 
L 255.797488 279.01967 
L 255.957839 279.01967 
L 255.957839 278.076568 
L 256.449904 278.076568 
L 256.477178 275.247261 
L 256.619221 275.247261 
L 256.637157 273.361056 
L 256.765611 273.361056 
L 256.793263 271.474851 
L 256.980812 271.474851 
L 257.085407 268.645545 
L 257.183662 268.645545 
L 257.183662 267.702442 
L 257.598836 267.702442 
L 257.688804 265.816238 
L 257.769148 265.816238 
L 257.856329 263.930033 
L 257.928743 263.930033 
L 257.993839 261.100726 
L 258.112885 261.100726 
L 258.130028 259.214521 
L 258.253175 259.214521 
L 258.324281 256.385215 
L 258.616315 256.385215 
L 258.705264 254.49901 
L 258.789234 254.49901 
L 258.789234 253.555908 
L 258.906339 253.555908 
L 258.906339 252.612805 
L 259.168589 252.612805 
L 259.168589 251.669703 
L 259.565694 251.669703 
L 259.656915 249.783498 
L 259.850316 249.783498 
L 259.854756 247.897294 
L 259.971798 247.897294 
L 260.004499 245.067987 
L 260.154734 245.067987 
L 260.154734 244.124884 
L 260.294889 244.124884 
L 260.373061 242.23868 
L 260.497998 242.23868 
L 260.497998 241.295578 
L 260.77754 241.295578 
L 260.811495 239.409373 
L 261.022479 239.409373 
L 261.051906 237.523168 
L 261.1742 237.523168 
L 261.1742 236.580066 
L 262.233256 236.580066 
L 262.233256 235.636964 
L 262.669287 235.636964 
L 262.669287 234.693861 
L 265.401034 234.693861 
L 265.401034 233.750759 
L 266.010098 233.750759 
L 266.010098 232.807657 
L 266.12531 232.807657 
L 266.12531 231.864554 
L 266.562294 231.864554 
L 266.610527 229.97835 
L 266.738667 229.97835 
L 266.738667 229.035248 
L 266.974094 229.035248 
L 267.079322 226.205941 
L 267.149943 226.205941 
L 267.238292 222.433531 
L 267.328672 222.433531 
L 267.328672 221.490429 
L 267.465331 221.490429 
L 267.555316 218.661122 
L 267.664762 218.661122 
L 267.751969 213.945611 
L 267.842785 213.945611 
L 267.932103 212.059406 
L 267.967107 212.059406 
L 268.042308 206.400792 
L 268.095718 206.400792 
L 268.133281 203.571485 
L 268.251619 203.571485 
L 268.33814 198.855974 
L 268.384498 198.855974 
L 268.468829 194.140462 
L 268.594718 194.140462 
L 268.637058 192.254257 
L 268.844625 192.254257 
L 268.923744 189.42495 
L 269.003121 189.42495 
L 269.11199 183.766337 
L 269.164929 183.766337 
L 269.164929 182.823234 
L 269.531164 182.823234 
L 269.531164 181.880132 
L 269.749506 181.880132 
L 269.749506 180.93703 
L 269.919951 180.93703 
L 269.919951 179.993927 
L 270.061943 179.993927 
L 270.061943 179.050825 
L 270.323739 179.050825 
L 270.323739 178.107723 
L 273.175022 178.107723 
L 273.175022 177.16462 
L 273.51925 177.16462 
L 273.51925 176.221518 
L 273.794829 176.221518 
L 273.794829 175.278416 
L 274.19434 175.278416 
L 274.19434 174.335314 
L 274.48714 174.335314 
L 274.49889 172.449109 
L 274.706296 172.449109 
L 274.753458 170.562904 
L 275.002628 170.562904 
L 275.002628 169.619802 
L 275.171432 169.619802 
L 275.171432 168.6767 
L 275.353131 168.6767 
L 275.353131 167.733597 
L 275.478515 167.733597 
L 275.478515 166.790495 
L 275.637082 166.790495 
L 275.720408 164.90429 
L 275.899614 164.90429 
L 275.899614 163.961188 
L 276.053517 163.961188 
L 276.160704 161.131881 
L 276.227249 161.131881 
L 276.25863 157.359472 
L 276.35012 157.359472 
L 276.35012 156.41637 
L 276.558571 156.41637 
L 276.667519 153.587063 
L 276.832393 153.587063 
L 276.877441 150.757756 
L 276.978796 150.757756 
L 277.085149 147.928449 
L 277.126738 147.928449 
L 277.127173 146.042244 
L 277.426706 146.042244 
L 277.444115 144.15604 
L 277.538664 144.15604 
L 277.538664 143.212937 
L 277.652499 143.212937 
L 277.652499 142.269835 
L 277.794455 142.269835 
L 277.900543 137.554323 
L 277.90572 137.554323 
L 277.90572 136.611221 
L 278.034732 136.611221 
L 278.073353 134.725017 
L 278.208163 134.725017 
L 278.306861 130.952607 
L 278.492875 130.952607 
L 278.499413 129.066403 
L 278.641436 129.066403 
L 278.727935 126.237096 
L 278.841269 126.237096 
L 278.88219 123.407789 
L 279.084776 123.407789 
L 279.173513 118.692277 
L 279.225936 118.692277 
L 279.336626 115.86297 
L 279.35282 115.86297 
L 279.410263 113.033663 
L 279.46679 113.033663 
L 279.489328 110.204356 
L 279.675712 110.204356 
L 279.729386 106.431947 
L 279.824995 106.431947 
L 279.849295 103.60264 
L 279.96076 103.60264 
L 279.989989 101.716436 
L 280.0754 101.716436 
L 280.157267 96.057822 
L 280.231048 96.057822 
L 280.334478 93.228515 
L 280.347548 93.228515 
L 280.44304 91.34231 
L 280.484599 91.34231 
L 280.484599 90.399208 
L 280.615278 90.399208 
L 280.645436 88.513003 
L 280.789232 88.513003 
L 280.853953 85.683696 
L 280.922197 85.683696 
L 281.020857 82.854389 
L 281.049 82.854389 
L 281.148546 79.08198 
L 281.343465 79.08198 
L 281.42291 77.195776 
L 281.660674 77.195776 
L 281.719639 74.366469 
L 281.779539 74.366469 
L 281.779539 73.423366 
L 282.205304 73.423366 
L 282.219722 71.537162 
L 282.392786 71.537162 
L 282.392786 70.594059 
L 282.634731 70.594059 
L 282.634731 69.650957 
L 283.129955 69.650957 
L 283.153002 67.764752 
L 283.60416 67.764752 
L 283.60416 66.82165 
L 284.03798 66.82165 
L 284.03798 65.878548 
L 284.274667 65.878548 
L 284.274667 64.935446 
L 354.473711 64.935446 
L 354.473711 63.992343 
L 355.398784 63.992343 
L 355.398784 63.049241 
L 355.917551 63.049241 
L 355.917551 62.106139 
L 357.747795 62.106139 
L 357.747795 61.163036 
L 360.346992 61.163036 
L 360.346992 60.219934 
L 360.506001 60.219934 
L 360.506001 59.276832 
L 361.03154 59.276832 
L 361.138628 57.390627 
L 361.242502 57.390627 
L 361.350128 55.504422 
L 361.744762 55.504422 
L 361.744762 54.56132 
L 362.218751 54.56132 
L 362.218751 53.618218 
L 362.874852 53.618218 
L 362.874852 52.675116 
L 363.631897 52.675116 
L 363.631897 51.732013 
L 364.063564 51.732013 
L 364.063564 50.788911 
L 364.240282 50.788911 
L 364.329503 47.959604 
L 364.619107 47.959604 
L 364.619107 47.016502 
L 365.53331 47.016502 
L 365.53331 46.073399 
L 366.389956 46.073399 
L 366.493442 43.244092 
L 366.552285 43.244092 
L 366.575383 41.357888 
L 367.189949 41.357888 
L 367.189949 40.414785 
L 367.43241 40.414785 
L 367.43241 39.471683 
L 367.55202 39.471683 
L 367.569933 37.585479 
L 368.008013 37.585479 
L 368.008013 36.642376 
L 368.53705 36.642376 
L 368.646961 34.756172 
L 368.748818 34.756172 
L 368.748818 33.813069 
L 369.126574 33.813069 
L 369.126574 32.869967 
L 369.280981 32.869967 
L 369.374874 30.04066 
L 369.396201 30.04066 
L 369.503836 28.154455 
L 369.535429 28.154455 
L 369.570725 26.268251 
L 369.758513 26.268251 
L 369.814783 24.382046 
L 369.953545 24.382046 
L 370.045385 22.495842 
L 370.403539 22.495842 
L 370.403539 21.552739 
L 370.671045 21.552739 
L 370.743105 18.723432 
L 371.020517 18.723432 
L 371.020517 17.78033 
L 371.608179 17.78033 
L 371.608179 16.837228 
L 371.838354 16.837228 
L 371.838354 15.894125 
L 372.325963 15.894125 
L 372.325963 14.951023 
L 373.507978 14.951023 
L 373.59585 12.121716 
L 374.178341 12.121716 
L 374.178341 11.178614 
L 374.369807 11.178614 
L 374.369807 10.235512 
L 375.394561 10.235512 
L 375.394561 9.292409 
L 376.099078 9.292409 
L 376.099078 8.349307 
L 376.099078 8.349307 
L 450.672 8.349307 
L 450.672 8.349307 
" style="fill:none;stroke:#000000;stroke-linecap:square;stroke-width:1.5;"/>
   </g>
   <g id="line2d_27">
    <path clip-path="url(#pf73009b0b8)" d="M 242.442929 291.28 
L 242.442929 290.336898 
L 243.147411 290.336898 
L 243.147411 289.393795 
L 246.506172 289.393795 
L 246.506172 288.450693 
L 247.038559 288.450693 
L 247.038559 287.507591 
L 247.2534 287.507591 
L 247.299218 285.621386 
L 247.384411 285.621386 
L 247.384411 284.678284 
L 247.708709 284.678284 
L 247.77949 282.792079 
L 248.194509 282.792079 
L 248.260279 279.962772 
L 248.345162 279.962772 
L 248.345162 279.01967 
L 248.585402 279.01967 
L 248.585402 278.076568 
L 248.872576 278.076568 
L 248.8879 276.190363 
L 249.093564 276.190363 
L 249.093564 275.247261 
L 249.314394 275.247261 
L 249.314394 274.304158 
L 250.440957 274.304158 
L 250.440957 273.361056 
L 250.746653 273.361056 
L 250.746653 272.417954 
L 251.517338 272.417954 
L 251.580121 269.588647 
L 252.532028 269.588647 
L 252.624788 267.702442 
L 252.956738 267.702442 
L 253.011341 264.873135 
L 253.170076 264.873135 
L 253.210576 262.986931 
L 253.359934 262.986931 
L 253.402927 261.100726 
L 253.626592 261.100726 
L 253.626592 260.157624 
L 254.128177 260.157624 
L 254.128177 259.214521 
L 254.414154 259.214521 
L 254.498727 256.385215 
L 254.584114 256.385215 
L 254.584114 255.442112 
L 254.933026 255.442112 
L 254.933026 254.49901 
L 255.141652 254.49901 
L 255.141652 253.555908 
L 255.259516 253.555908 
L 255.259516 252.612805 
L 255.417552 252.612805 
L 255.417552 251.669703 
L 255.90832 251.669703 
L 256.005519 249.783498 
L 256.289587 249.783498 
L 256.289587 248.840396 
L 256.429233 248.840396 
L 256.429233 247.897294 
L 256.896504 247.897294 
L 256.896504 246.954191 
L 257.058955 246.954191 
L 257.126013 245.067987 
L 257.183662 245.067987 
L 257.183662 244.124884 
L 257.350662 244.124884 
L 257.350662 243.181782 
L 258.492009 243.181782 
L 258.507036 241.295578 
L 259.190987 241.295578 
L 259.22259 239.409373 
L 259.850316 239.409373 
L 259.90369 236.580066 
L 260.154734 236.580066 
L 260.154734 235.636964 
L 260.983639 235.636964 
L 260.983639 234.693861 
L 264.66509 234.693861 
L 264.66509 233.750759 
L 264.957248 233.750759 
L 264.957248 232.807657 
L 265.400258 232.807657 
L 265.400258 231.864554 
L 266.063427 231.864554 
L 266.12531 229.97835 
L 266.230315 229.97835 
L 266.340855 228.092145 
L 266.510038 228.092145 
L 266.58926 224.319736 
L 266.716952 224.319736 
L 266.73756 222.433531 
L 266.97007 222.433531 
L 267.056017 218.661122 
L 267.107115 218.661122 
L 267.16202 215.831815 
L 267.218873 215.831815 
L 267.235648 213.002508 
L 267.334691 213.002508 
L 267.409032 209.230099 
L 267.481197 209.230099 
L 267.583947 206.400792 
L 267.658916 206.400792 
L 267.745017 199.799076 
L 267.79579 199.799076 
L 267.79579 198.855974 
L 267.909107 198.855974 
L 268.01778 196.026667 
L 268.068233 196.026667 
L 268.133281 194.140462 
L 268.201385 194.140462 
L 268.276385 190.368053 
L 268.319655 190.368053 
L 268.40829 186.595644 
L 268.446669 186.595644 
L 268.497631 184.709439 
L 268.75819 184.709439 
L 268.852985 181.880132 
L 268.980259 181.880132 
L 269.016228 178.107723 
L 269.416655 178.107723 
L 269.416655 177.16462 
L 270.164151 177.16462 
L 270.164151 176.221518 
L 270.314568 176.221518 
L 270.37295 174.335314 
L 270.918968 174.335314 
L 270.918968 173.392211 
L 271.320282 173.392211 
L 271.320282 172.449109 
L 271.553201 172.449109 
L 271.553201 171.506007 
L 271.906202 171.506007 
L 271.960984 169.619802 
L 272.053096 169.619802 
L 272.104432 165.847393 
L 272.207947 165.847393 
L 272.310157 163.961188 
L 272.334126 163.961188 
L 272.336331 162.074983 
L 272.490636 162.074983 
L 272.569624 158.302574 
L 272.626711 158.302574 
L 272.626711 157.359472 
L 272.740043 157.359472 
L 272.819095 153.587063 
L 272.921606 153.587063 
L 273.020911 150.757756 
L 273.098716 150.757756 
L 273.200634 146.042244 
L 273.26706 146.042244 
L 273.371965 144.15604 
L 273.469519 144.15604 
L 273.525785 139.440528 
L 273.661173 139.440528 
L 273.685946 137.554323 
L 273.8789 137.554323 
L 273.952213 133.781914 
L 274.010971 133.781914 
L 274.016141 131.89571 
L 274.262177 131.89571 
L 274.262177 130.952607 
L 274.423653 130.952607 
L 274.476923 127.180198 
L 274.567605 127.180198 
L 274.648229 124.350891 
L 274.742391 124.350891 
L 274.851237 119.63538 
L 275.023465 119.63538 
L 275.079928 117.749175 
L 275.154517 117.749175 
L 275.257717 113.976766 
L 275.408445 113.976766 
L 275.436049 112.090561 
L 275.539323 112.090561 
L 275.623282 110.204356 
L 275.678772 110.204356 
L 275.678772 109.261254 
L 275.84657 109.261254 
L 275.853345 107.37505 
L 276.013039 107.37505 
L 276.093068 103.60264 
L 276.13852 103.60264 
L 276.13852 102.659538 
L 276.324866 102.659538 
L 276.324866 101.716436 
L 276.676869 101.716436 
L 276.676869 100.773333 
L 276.824714 100.773333 
L 276.928351 98.887129 
L 276.977557 98.887129 
L 277.06432 96.057822 
L 277.229101 96.057822 
L 277.273776 93.228515 
L 277.4839 93.228515 
L 277.579181 90.399208 
L 277.630291 90.399208 
L 277.643494 88.513003 
L 277.82262 88.513003 
L 277.926371 81.911287 
L 277.97755 81.911287 
L 277.97755 80.968185 
L 278.146423 80.968185 
L 278.146423 80.025083 
L 279.240123 80.025083 
L 279.336626 77.195776 
L 279.453778 77.195776 
L 279.453778 76.252673 
L 280.099692 76.252673 
L 280.157267 74.366469 
L 280.274791 74.366469 
L 280.297601 72.480264 
L 280.480907 72.480264 
L 280.480907 71.537162 
L 280.645145 71.537162 
L 280.645436 69.650957 
L 281.020857 69.650957 
L 281.020857 68.707855 
L 281.407619 68.707855 
L 281.473825 66.82165 
L 282.205304 66.82165 
L 282.205304 65.878548 
L 283.153002 65.878548 
L 283.153002 64.935446 
L 340.932891 64.935446 
L 340.932891 63.992343 
L 347.472626 63.992343 
L 347.472626 63.049241 
L 350.045952 63.049241 
L 350.045952 62.106139 
L 354.457953 62.106139 
L 354.547035 60.219934 
L 354.883068 60.219934 
L 354.883068 59.276832 
L 355.273458 59.276832 
L 355.338819 57.390627 
L 355.422836 57.390627 
L 355.422836 56.447525 
L 355.918335 56.447525 
L 355.918335 55.504422 
L 356.106648 55.504422 
L 356.106648 54.56132 
L 356.77372 54.56132 
L 356.77372 53.618218 
L 357.065471 53.618218 
L 357.105536 51.732013 
L 357.54486 51.732013 
L 357.54486 50.788911 
L 357.6922 50.788911 
L 357.6922 49.845809 
L 358.101223 49.845809 
L 358.191634 47.959604 
L 358.229445 47.959604 
L 358.229445 47.016502 
L 358.383026 47.016502 
L 358.383026 46.073399 
L 358.566233 46.073399 
L 358.566233 45.130297 
L 358.787401 45.130297 
L 358.787401 44.187195 
L 358.923594 44.187195 
L 358.923594 43.244092 
L 359.338706 43.244092 
L 359.432539 41.357888 
L 359.452736 41.357888 
L 359.452736 40.414785 
L 359.676703 40.414785 
L 359.676703 39.471683 
L 360.304492 39.471683 
L 360.346992 37.585479 
L 360.449562 37.585479 
L 360.449562 36.642376 
L 360.930019 36.642376 
L 360.930019 35.699274 
L 361.322883 35.699274 
L 361.322883 34.756172 
L 361.446965 34.756172 
L 361.446965 33.813069 
L 362.179399 33.813069 
L 362.218751 31.926865 
L 362.595795 31.926865 
L 362.595795 30.983762 
L 362.782672 30.983762 
L 362.790046 29.097558 
L 362.913906 29.097558 
L 362.913906 28.154455 
L 363.051944 28.154455 
L 363.051944 27.211353 
L 363.203454 27.211353 
L 363.269989 25.325149 
L 363.515229 25.325149 
L 363.515229 24.382046 
L 364.325291 24.382046 
L 364.382536 22.495842 
L 364.579814 22.495842 
L 364.579814 21.552739 
L 364.868894 21.552739 
L 364.868894 20.609637 
L 365.08411 20.609637 
L 365.08411 19.666535 
L 365.529345 19.666535 
L 365.529345 18.723432 
L 367.132172 18.723432 
L 367.132172 17.78033 
L 367.447185 17.78033 
L 367.447185 16.837228 
L 367.819765 16.837228 
L 367.819765 15.894125 
L 368.029197 15.894125 
L 368.029197 14.951023 
L 368.198635 14.951023 
L 368.198635 14.007921 
L 368.53705 14.007921 
L 368.53705 13.064818 
L 368.803534 13.064818 
L 368.803534 12.121716 
L 369.136487 12.121716 
L 369.145062 10.235512 
L 370.045385 10.235512 
L 370.045385 9.292409 
L 372.325963 9.292409 
L 372.325963 8.349307 
L 372.325963 8.349307 
L 450.672 8.349307 
L 450.672 8.349307 
" style="fill:none;stroke:#00bfbf;stroke-linecap:square;stroke-width:1.5;"/>
   </g>
   <g id="line2d_28">
    <path clip-path="url(#pf73009b0b8)" d="M 237.164683 291.28 
L 237.164683 290.336898 
L 238.719112 290.336898 
L 238.719112 289.393795 
L 240.794475 289.393795 
L 240.794475 288.450693 
L 241.377958 288.450693 
L 241.377958 287.507591 
L 242.837356 287.507591 
L 242.837356 286.564488 
L 243.52545 286.564488 
L 243.52545 285.621386 
L 244.155069 285.621386 
L 244.155069 284.678284 
L 244.588994 284.678284 
L 244.588994 283.735182 
L 244.781779 283.735182 
L 244.824515 281.848977 
L 244.895644 281.848977 
L 244.895644 280.905875 
L 245.077264 280.905875 
L 245.102875 279.01967 
L 245.242861 279.01967 
L 245.242861 278.076568 
L 245.401288 278.076568 
L 245.426185 276.190363 
L 245.541465 276.190363 
L 245.553285 274.304158 
L 245.652749 274.304158 
L 245.652749 273.361056 
L 245.848692 273.361056 
L 245.848692 272.417954 
L 245.974402 272.417954 
L 245.974402 271.474851 
L 246.209193 271.474851 
L 246.271968 269.588647 
L 246.879243 269.588647 
L 246.929637 267.702442 
L 246.991555 267.702442 
L 246.991555 266.75934 
L 247.117307 266.75934 
L 247.117307 265.816238 
L 247.365804 265.816238 
L 247.392605 263.930033 
L 247.546836 263.930033 
L 247.633287 262.043828 
L 247.754864 262.043828 
L 247.754864 261.100726 
L 248.163591 261.100726 
L 248.163591 260.157624 
L 248.946695 260.157624 
L 248.946695 259.214521 
L 250.623709 259.214521 
L 250.623709 258.271419 
L 251.009228 258.271419 
L 251.009228 257.328317 
L 251.232262 257.328317 
L 251.304676 255.442112 
L 251.439156 255.442112 
L 251.439156 254.49901 
L 252.020566 254.49901 
L 252.020566 253.555908 
L 252.169174 253.555908 
L 252.169174 252.612805 
L 252.394276 252.612805 
L 252.394276 251.669703 
L 253.203911 251.669703 
L 253.203911 250.726601 
L 255.141652 250.726601 
L 255.150838 248.840396 
L 255.444755 248.840396 
L 255.444755 247.897294 
L 255.90832 247.897294 
L 255.90832 246.954191 
L 256.429233 246.954191 
L 256.429233 246.011089 
L 256.896504 246.011089 
L 256.896504 245.067987 
L 257.126013 245.067987 
L 257.183662 243.181782 
L 258.492009 243.181782 
L 258.507036 241.295578 
L 259.190987 241.295578 
L 259.22259 239.409373 
L 259.850316 239.409373 
L 259.90369 236.580066 
L 260.154734 236.580066 
L 260.154734 235.636964 
L 260.983639 235.636964 
L 260.983639 234.693861 
L 262.350505 234.693861 
L 262.350505 233.750759 
L 262.716459 233.750759 
L 262.716459 232.807657 
L 263.499731 232.807657 
L 263.499731 231.864554 
L 263.640667 231.864554 
L 263.640667 230.921452 
L 264.66509 230.921452 
L 264.66509 229.97835 
L 264.957248 229.97835 
L 264.957248 229.035248 
L 265.380227 229.035248 
L 265.380227 228.092145 
L 265.567485 228.092145 
L 265.567485 227.149043 
L 265.760765 227.149043 
L 265.846712 225.262838 
L 265.96532 225.262838 
L 266.063427 223.376634 
L 266.12531 223.376634 
L 266.230315 220.547327 
L 266.257327 220.547327 
L 266.340855 218.661122 
L 266.409755 218.661122 
L 266.510038 216.774917 
L 266.562294 216.774917 
L 266.65903 213.002508 
L 266.687179 213.002508 
L 266.7877 207.343894 
L 266.802659 207.343894 
L 266.904762 201.685281 
L 266.919111 201.685281 
L 267.022287 193.19736 
L 267.051612 193.19736 
L 267.16202 186.595644 
L 267.18983 186.595644 
L 267.251387 181.880132 
L 267.304516 181.880132 
L 267.372879 179.050825 
L 267.433712 179.050825 
L 267.528578 174.335314 
L 267.564164 174.335314 
L 267.64992 170.562904 
L 267.695579 170.562904 
L 267.795492 166.790495 
L 267.811443 166.790495 
L 267.811443 165.847393 
L 268.009929 165.847393 
L 268.117801 160.188779 
L 268.128055 160.188779 
L 268.237008 158.302574 
L 268.250117 158.302574 
L 268.347683 156.41637 
L 268.366012 156.41637 
L 268.468432 154.530165 
L 268.527155 154.530165 
L 268.627624 151.700858 
L 268.705821 151.700858 
L 268.779127 149.814653 
L 268.85533 149.814653 
L 268.951905 145.099142 
L 268.972703 145.099142 
L 268.996719 142.269835 
L 269.145856 142.269835 
L 269.244098 139.440528 
L 269.351041 139.440528 
L 269.351041 138.497426 
L 269.477621 138.497426 
L 269.541742 134.725017 
L 269.632318 134.725017 
L 269.674902 132.838812 
L 269.809504 132.838812 
L 269.809504 131.89571 
L 270.021769 131.89571 
L 270.074114 129.066403 
L 270.20493 129.066403 
L 270.20493 128.1233 
L 270.341151 128.1233 
L 270.341151 127.180198 
L 270.493963 127.180198 
L 270.493963 126.237096 
L 270.65553 126.237096 
L 270.750011 123.407789 
L 270.817197 123.407789 
L 270.817197 122.464686 
L 271.01596 122.464686 
L 271.120997 118.692277 
L 271.612594 118.692277 
L 271.612594 117.749175 
L 271.742786 117.749175 
L 271.742786 116.806073 
L 271.974413 116.806073 
L 272.063432 114.919868 
L 272.247456 114.919868 
L 272.327971 113.033663 
L 272.567837 113.033663 
L 272.599948 110.204356 
L 272.752064 110.204356 
L 272.752064 109.261254 
L 272.940049 109.261254 
L 272.940049 108.318152 
L 273.197331 108.318152 
L 273.197331 107.37505 
L 273.517435 107.37505 
L 273.597877 104.545743 
L 273.691369 104.545743 
L 273.691369 103.60264 
L 273.811825 103.60264 
L 273.811825 102.659538 
L 274.051056 102.659538 
L 274.051056 101.716436 
L 274.262177 101.716436 
L 274.262177 100.773333 
L 274.476923 100.773333 
L 274.585736 97.944026 
L 274.812195 97.944026 
L 274.905059 95.114719 
L 275.417125 95.114719 
L 275.417125 94.171617 
L 275.539323 94.171617 
L 275.624343 92.285413 
L 275.885944 92.285413 
L 275.885944 91.34231 
L 276.083099 91.34231 
L 276.083099 90.399208 
L 276.32664 90.399208 
L 276.32664 89.456106 
L 277.06432 89.456106 
L 277.06432 88.513003 
L 277.229101 88.513003 
L 277.229101 87.569901 
L 277.532335 87.569901 
L 277.630291 85.683696 
L 277.855871 85.683696 
L 277.926371 80.968185 
L 278.146423 80.968185 
L 278.146423 80.025083 
L 279.240123 80.025083 
L 279.336626 77.195776 
L 279.453778 77.195776 
L 279.453778 76.252673 
L 279.628165 76.252673 
L 279.628165 75.309571 
L 280.099692 75.309571 
L 280.157267 73.423366 
L 280.274791 73.423366 
L 280.297601 71.537162 
L 280.480907 71.537162 
L 280.480907 70.594059 
L 280.645145 70.594059 
L 280.645436 68.707855 
L 281.020857 68.707855 
L 281.020857 67.764752 
L 281.473825 67.764752 
L 281.473825 66.82165 
L 282.205304 66.82165 
L 282.205304 65.878548 
L 283.153002 65.878548 
L 283.153002 64.935446 
L 326.2762 64.935446 
L 326.2762 63.992343 
L 333.196661 63.992343 
L 333.196661 63.049241 
L 333.880168 63.049241 
L 333.880168 62.106139 
L 336.088795 62.106139 
L 336.088795 61.163036 
L 339.020797 61.163036 
L 339.020797 60.219934 
L 342.58058 60.219934 
L 342.58058 59.276832 
L 342.872842 59.276832 
L 342.872842 58.333729 
L 344.985105 58.333729 
L 344.985105 57.390627 
L 346.430572 57.390627 
L 346.430572 56.447525 
L 348.016108 56.447525 
L 348.016108 55.504422 
L 348.542084 55.504422 
L 348.542084 54.56132 
L 348.874545 54.56132 
L 348.874545 53.618218 
L 350.366327 53.618218 
L 350.366327 52.675116 
L 350.506659 52.675116 
L 350.506659 51.732013 
L 351.168084 51.732013 
L 351.168084 50.788911 
L 351.599006 50.788911 
L 351.599006 49.845809 
L 351.896478 49.845809 
L 351.896478 48.902706 
L 352.093334 48.902706 
L 352.093334 47.959604 
L 352.580114 47.959604 
L 352.580114 47.016502 
L 353.211587 47.016502 
L 353.315749 45.130297 
L 354.15564 45.130297 
L 354.24645 43.244092 
L 354.384047 43.244092 
L 354.424726 40.414785 
L 355.10897 40.414785 
L 355.10897 39.471683 
L 355.230063 39.471683 
L 355.252917 36.642376 
L 355.582244 36.642376 
L 355.582244 35.699274 
L 356.772883 35.699274 
L 356.772883 34.756172 
L 356.983335 34.756172 
L 356.983335 33.813069 
L 357.970464 33.813069 
L 358.035801 31.926865 
L 358.150269 31.926865 
L 358.150269 30.983762 
L 358.470595 30.983762 
L 358.470595 30.04066 
L 358.718274 30.04066 
L 358.787401 28.154455 
L 360.346992 28.154455 
L 360.346992 27.211353 
L 361.020936 27.211353 
L 361.020936 26.268251 
L 361.322883 26.268251 
L 361.322883 25.325149 
L 362.218751 25.325149 
L 362.218751 24.382046 
L 362.467173 24.382046 
L 362.467173 23.438944 
L 362.689253 23.438944 
L 362.689253 22.495842 
L 362.913906 22.495842 
L 362.913906 21.552739 
L 363.203454 21.552739 
L 363.203454 20.609637 
L 363.515229 20.609637 
L 363.515229 19.666535 
L 364.079405 19.666535 
L 364.079405 18.723432 
L 364.967665 18.723432 
L 364.967665 17.78033 
L 365.08411 17.78033 
L 365.08411 16.837228 
L 366.577952 16.837228 
L 366.577952 15.894125 
L 366.849216 15.894125 
L 366.849216 14.951023 
L 367.819765 14.951023 
L 367.819765 14.007921 
L 368.029197 14.007921 
L 368.029197 13.064818 
L 368.198635 13.064818 
L 368.198635 12.121716 
L 368.53705 12.121716 
L 368.53705 11.178614 
L 369.145062 11.178614 
L 369.145062 10.235512 
L 370.045385 10.235512 
L 370.045385 9.292409 
L 372.325963 9.292409 
L 372.325963 8.349307 
L 372.325963 8.349307 
L 450.672 8.349307 
L 450.672 8.349307 
" style="fill:none;stroke:#bf00bf;stroke-linecap:square;stroke-width:1.5;"/>
   </g>
   <g id="line2d_29">
    <path clip-path="url(#pf73009b0b8)" d="M 231.593949 291.28 
L 231.593949 290.336898 
L 232.438639 290.336898 
L 232.438639 289.393795 
L 234.851323 289.393795 
L 234.851323 288.450693 
L 236.042969 288.450693 
L 236.042969 287.507591 
L 237.125951 287.507591 
L 237.125951 286.564488 
L 237.296517 286.564488 
L 237.385593 284.678284 
L 237.491877 284.678284 
L 237.491877 283.735182 
L 237.62309 283.735182 
L 237.696304 281.848977 
L 238.079569 281.848977 
L 238.079569 280.905875 
L 238.283348 280.905875 
L 238.283348 279.962772 
L 238.521418 279.962772 
L 238.542077 278.076568 
L 238.804654 278.076568 
L 238.804654 277.133465 
L 239.064343 277.133465 
L 239.064343 276.190363 
L 240.214126 276.190363 
L 240.294933 273.361056 
L 241.319722 273.361056 
L 241.319722 272.417954 
L 242.12583 272.417954 
L 242.12583 271.474851 
L 242.726567 271.474851 
L 242.726567 270.531749 
L 243.352077 270.531749 
L 243.352077 269.588647 
L 244.320648 269.588647 
L 244.320648 268.645545 
L 244.503387 268.645545 
L 244.503387 267.702442 
L 244.652634 267.702442 
L 244.652634 266.75934 
L 244.817256 266.75934 
L 244.817256 265.816238 
L 245.372492 265.816238 
L 245.372492 264.873135 
L 245.575605 264.873135 
L 245.630241 262.986931 
L 246.010927 262.986931 
L 246.014641 261.100726 
L 246.322789 261.100726 
L 246.426319 259.214521 
L 246.688397 259.214521 
L 246.739587 257.328317 
L 246.80889 257.328317 
L 246.878377 255.442112 
L 246.951903 255.442112 
L 246.971279 253.555908 
L 247.283489 253.555908 
L 247.283489 252.612805 
L 248.317763 252.612805 
L 248.359745 250.726601 
L 250.692116 250.726601 
L 250.692116 249.783498 
L 251.160492 249.783498 
L 251.160492 248.840396 
L 255.141652 248.840396 
L 255.141652 247.897294 
L 255.90832 247.897294 
L 255.90832 246.954191 
L 256.429233 246.954191 
L 256.429233 246.011089 
L 256.896504 246.011089 
L 256.896504 245.067987 
L 257.126013 245.067987 
L 257.183662 243.181782 
L 258.492009 243.181782 
L 258.534729 240.352475 
L 258.909439 240.352475 
L 258.909439 239.409373 
L 259.190987 239.409373 
L 259.246146 236.580066 
L 259.850316 236.580066 
L 259.90369 232.807657 
L 260.154734 232.807657 
L 260.154734 231.864554 
L 260.983639 231.864554 
L 260.983639 230.921452 
L 261.889617 230.921452 
L 261.889617 229.97835 
L 262.848065 229.97835 
L 262.848065 229.035248 
L 263.025673 229.035248 
L 263.025673 228.092145 
L 263.360437 228.092145 
L 263.360437 227.149043 
L 264.140254 227.149043 
L 264.214883 225.262838 
L 264.369572 225.262838 
L 264.414725 223.376634 
L 264.533282 223.376634 
L 264.533282 222.433531 
L 264.66509 222.433531 
L 264.688175 220.547327 
L 264.814842 220.547327 
L 264.917599 216.774917 
L 264.937958 216.774917 
L 265.002695 213.002508 
L 265.059012 213.002508 
L 265.168526 209.230099 
L 265.240157 209.230099 
L 265.295768 207.343894 
L 265.385733 207.343894 
L 265.445293 203.571485 
L 265.520133 203.571485 
L 265.601036 199.799076 
L 265.65649 199.799076 
L 265.761713 196.026667 
L 265.907617 196.026667 
L 266.016516 189.42495 
L 266.049955 189.42495 
L 266.13792 183.766337 
L 266.167467 183.766337 
L 266.27664 179.050825 
L 266.317076 179.050825 
L 266.371551 176.221518 
L 266.496379 176.221518 
L 266.607352 165.847393 
L 266.632522 165.847393 
L 266.73093 161.131881 
L 266.745602 161.131881 
L 266.837536 155.473267 
L 266.858912 155.473267 
L 266.952548 153.587063 
L 266.974094 153.587063 
L 267.060937 149.814653 
L 267.102125 149.814653 
L 267.21125 145.099142 
L 267.227092 145.099142 
L 267.304894 141.326733 
L 267.452422 141.326733 
L 267.494809 137.554323 
L 267.571723 137.554323 
L 267.574336 134.725017 
L 267.695579 134.725017 
L 267.752904 131.89571 
L 267.807019 131.89571 
L 267.807019 130.952607 
L 267.977478 130.952607 
L 267.977478 130.009505 
L 268.214471 130.009505 
L 268.287535 127.180198 
L 268.402557 127.180198 
L 268.482479 124.350891 
L 269.210955 124.350891 
L 269.284542 121.521584 
L 269.353874 121.521584 
L 269.353874 120.578482 
L 269.646388 120.578482 
L 269.674395 118.692277 
L 269.962277 118.692277 
L 270.036697 115.86297 
L 270.282371 115.86297 
L 270.282371 114.919868 
L 270.71149 114.919868 
L 270.71149 113.976766 
L 270.847999 113.976766 
L 270.853957 112.090561 
L 271.017867 112.090561 
L 271.028142 110.204356 
L 271.321142 110.204356 
L 271.321142 109.261254 
L 271.601299 109.261254 
L 271.650545 107.37505 
L 271.754909 107.37505 
L 271.754909 106.431947 
L 271.99878 106.431947 
L 271.99878 105.488845 
L 272.400094 105.488845 
L 272.430759 103.60264 
L 273.060905 103.60264 
L 273.089927 101.716436 
L 273.214677 101.716436 
L 273.314896 99.830231 
L 273.51925 99.830231 
L 273.51925 98.887129 
L 273.946948 98.887129 
L 273.997251 97.000924 
L 274.262177 97.000924 
L 274.35744 94.171617 
L 274.476923 94.171617 
L 274.476923 93.228515 
L 274.868174 93.228515 
L 274.892664 91.34231 
L 275.539323 91.34231 
L 275.539323 90.399208 
L 276.083099 90.399208 
L 276.083099 89.456106 
L 277.06432 89.456106 
L 277.06432 88.513003 
L 277.229101 88.513003 
L 277.229101 87.569901 
L 277.532335 87.569901 
L 277.630291 85.683696 
L 277.855871 85.683696 
L 277.926371 80.968185 
L 278.146423 80.968185 
L 278.146423 80.025083 
L 278.60784 80.025083 
L 278.60784 79.08198 
L 279.240123 79.08198 
L 279.336626 76.252673 
L 279.453778 76.252673 
L 279.453778 75.309571 
L 280.099692 75.309571 
L 280.157267 73.423366 
L 280.274791 73.423366 
L 280.297601 71.537162 
L 280.480907 71.537162 
L 280.480907 70.594059 
L 280.645145 70.594059 
L 280.645436 68.707855 
L 281.020857 68.707855 
L 281.020857 67.764752 
L 281.473825 67.764752 
L 281.473825 66.82165 
L 282.205304 66.82165 
L 282.205304 65.878548 
L 283.153002 65.878548 
L 283.153002 64.935446 
L 318.165854 64.935446 
L 318.165854 63.992343 
L 324.180207 63.992343 
L 324.180207 63.049241 
L 326.323035 63.049241 
L 326.323035 62.106139 
L 328.757121 62.106139 
L 328.757121 61.163036 
L 329.391717 61.163036 
L 329.422458 59.276832 
L 331.6765 59.276832 
L 331.6765 58.333729 
L 333.860994 58.333729 
L 333.860994 57.390627 
L 335.830199 57.390627 
L 335.830199 56.447525 
L 336.499146 56.447525 
L 336.499146 55.504422 
L 337.542681 55.504422 
L 337.542681 54.56132 
L 338.168719 54.56132 
L 338.168719 53.618218 
L 338.913727 53.618218 
L 338.913727 52.675116 
L 339.066866 52.675116 
L 339.066866 51.732013 
L 340.682102 51.732013 
L 340.682102 50.788911 
L 341.026781 50.788911 
L 341.049187 48.902706 
L 341.49598 48.902706 
L 341.49598 47.959604 
L 341.839924 47.959604 
L 341.947738 46.073399 
L 344.061325 46.073399 
L 344.131618 44.187195 
L 344.385153 44.187195 
L 344.493876 42.30099 
L 344.772134 42.30099 
L 344.772134 41.357888 
L 345.33466 41.357888 
L 345.33466 40.414785 
L 345.510569 40.414785 
L 345.510569 39.471683 
L 345.65763 39.471683 
L 345.65763 38.528581 
L 346.411033 38.528581 
L 346.411033 37.585479 
L 346.889667 37.585479 
L 346.889667 36.642376 
L 347.006615 36.642376 
L 347.006615 35.699274 
L 347.959289 35.699274 
L 348.062375 33.813069 
L 352.138698 33.813069 
L 352.138698 32.869967 
L 352.436789 32.869967 
L 352.436789 31.926865 
L 352.708712 31.926865 
L 352.708712 30.983762 
L 353.070994 30.983762 
L 353.070994 30.04066 
L 353.275152 30.04066 
L 353.275152 29.097558 
L 353.818615 29.097558 
L 353.818615 28.154455 
L 353.995274 28.154455 
L 353.995274 27.211353 
L 356.2223 27.211353 
L 356.2223 26.268251 
L 357.272856 26.268251 
L 357.339748 24.382046 
L 358.787401 24.382046 
L 358.787401 23.438944 
L 359.44734 23.438944 
L 359.44734 22.495842 
L 360.346992 22.495842 
L 360.346992 21.552739 
L 361.322883 21.552739 
L 361.322883 20.609637 
L 361.684236 20.609637 
L 361.684236 19.666535 
L 362.218751 19.666535 
L 362.218751 18.723432 
L 362.913906 18.723432 
L 362.913906 17.78033 
L 363.203454 17.78033 
L 363.203454 16.837228 
L 363.515229 16.837228 
L 363.515229 15.894125 
L 365.08411 15.894125 
L 365.08411 14.951023 
L 367.819765 14.951023 
L 367.819765 14.007921 
L 368.029197 14.007921 
L 368.029197 13.064818 
L 368.198635 13.064818 
L 368.198635 12.121716 
L 368.53705 12.121716 
L 368.53705 11.178614 
L 369.145062 11.178614 
L 369.145062 10.235512 
L 370.045385 10.235512 
L 370.045385 9.292409 
L 372.325963 9.292409 
L 372.325963 8.349307 
L 372.325963 8.349307 
L 450.672 8.349307 
L 450.672 8.349307 
" style="fill:none;stroke:#000000;stroke-linecap:square;stroke-width:1.5;"/>
   </g>
   <g id="patch_3">
    <path d="M 5.52 291.28 
L 5.52 5.52 
" style="fill:none;stroke:#000000;stroke-linecap:square;stroke-linejoin:miter;stroke-width:0.8;"/>
   </g>
   <g id="patch_4">
    <path d="M 450.672 291.28 
L 450.672 5.52 
" style="fill:none;stroke:#000000;stroke-linecap:square;stroke-linejoin:miter;stroke-width:0.8;"/>
   </g>
   <g id="patch_5">
    <path d="M 5.52 291.28 
L 450.672 291.28 
" style="fill:none;stroke:#000000;stroke-linecap:square;stroke-linejoin:miter;stroke-width:0.8;"/>
   </g>
   <g id="patch_6">
    <path d="M 5.52 5.52 
L 450.672 5.52 
" style="fill:none;stroke:#000000;stroke-linecap:square;stroke-linejoin:miter;stroke-width:0.8;"/>
   </g>
   <g id="text_6">
    <!-- {f1-f5}, 20-D -->
    <defs>
     <path d="M 51.125 -9.28125 
L 51.125 -16.3125 
L 48.09375 -16.3125 
Q 35.9375 -16.3125 31.8125 -12.6875 
Q 27.6875 -9.078125 27.6875 1.703125 
L 27.6875 13.375 
Q 27.6875 20.75 25.046875 23.578125 
Q 22.40625 26.421875 15.484375 26.421875 
L 12.5 26.421875 
L 12.5 33.40625 
L 15.484375 33.40625 
Q 22.46875 33.40625 25.078125 36.203125 
Q 27.6875 39.015625 27.6875 46.296875 
L 27.6875 58.015625 
Q 27.6875 68.796875 31.8125 72.390625 
Q 35.9375 75.984375 48.09375 75.984375 
L 51.125 75.984375 
L 51.125 69 
L 47.796875 69 
Q 40.921875 69 38.8125 66.84375 
Q 36.71875 64.703125 36.71875 57.8125 
L 36.71875 45.703125 
Q 36.71875 38.03125 34.5 34.5625 
Q 32.28125 31.109375 26.90625 29.890625 
Q 32.328125 28.5625 34.515625 25.09375 
Q 36.71875 21.625 36.71875 14.015625 
L 36.71875 1.90625 
Q 36.71875 -4.984375 38.8125 -7.125 
Q 40.921875 -9.28125 47.796875 -9.28125 
z
" id="DejaVuSans-7b"/>
     <path d="M 10.796875 72.90625 
L 49.515625 72.90625 
L 49.515625 64.59375 
L 19.828125 64.59375 
L 19.828125 46.734375 
Q 21.96875 47.46875 24.109375 47.828125 
Q 26.265625 48.1875 28.421875 48.1875 
Q 40.625 48.1875 47.75 41.5 
Q 54.890625 34.8125 54.890625 23.390625 
Q 54.890625 11.625 47.5625 5.09375 
Q 40.234375 -1.421875 26.90625 -1.421875 
Q 22.3125 -1.421875 17.546875 -0.640625 
Q 12.796875 0.140625 7.71875 1.703125 
L 7.71875 11.625 
Q 12.109375 9.234375 16.796875 8.0625 
Q 21.484375 6.890625 26.703125 6.890625 
Q 35.15625 6.890625 40.078125 11.328125 
Q 45.015625 15.765625 45.015625 23.390625 
Q 45.015625 31 40.078125 35.4375 
Q 35.15625 39.890625 26.703125 39.890625 
Q 22.75 39.890625 18.8125 39.015625 
Q 14.890625 38.140625 10.796875 36.28125 
z
" id="DejaVuSans-35"/>
     <path d="M 12.5 -9.28125 
L 15.921875 -9.28125 
Q 22.75 -9.28125 24.828125 -7.171875 
Q 26.90625 -5.078125 26.90625 1.90625 
L 26.90625 14.015625 
Q 26.90625 21.625 29.09375 25.09375 
Q 31.296875 28.5625 36.71875 29.890625 
Q 31.296875 31.109375 29.09375 34.5625 
Q 26.90625 38.03125 26.90625 45.703125 
L 26.90625 57.8125 
Q 26.90625 64.75 24.828125 66.875 
Q 22.75 69 15.921875 69 
L 12.5 69 
L 12.5 75.984375 
L 15.578125 75.984375 
Q 27.734375 75.984375 31.8125 72.390625 
Q 35.890625 68.796875 35.890625 58.015625 
L 35.890625 46.296875 
Q 35.890625 39.015625 38.515625 36.203125 
Q 41.15625 33.40625 48.09375 33.40625 
L 51.125 33.40625 
L 51.125 26.421875 
L 48.09375 26.421875 
Q 41.15625 26.421875 38.515625 23.578125 
Q 35.890625 20.75 35.890625 13.375 
L 35.890625 1.703125 
Q 35.890625 -9.078125 31.8125 -12.6875 
Q 27.734375 -16.3125 15.578125 -16.3125 
L 12.5 -16.3125 
z
" id="DejaVuSans-7d"/>
     <path d="M 11.71875 12.40625 
L 22.015625 12.40625 
L 22.015625 4 
L 14.015625 -11.625 
L 7.71875 -11.625 
L 11.71875 4 
z
" id="DejaVuSans-2c"/>
     <path d="M 19.1875 8.296875 
L 53.609375 8.296875 
L 53.609375 0 
L 7.328125 0 
L 7.328125 8.296875 
Q 12.9375 14.109375 22.625 23.890625 
Q 32.328125 33.6875 34.8125 36.53125 
Q 39.546875 41.84375 41.421875 45.53125 
Q 43.3125 49.21875 43.3125 52.78125 
Q 43.3125 58.59375 39.234375 62.25 
Q 35.15625 65.921875 28.609375 65.921875 
Q 23.96875 65.921875 18.8125 64.3125 
Q 13.671875 62.703125 7.8125 59.421875 
L 7.8125 69.390625 
Q 13.765625 71.78125 18.9375 73 
Q 24.125 74.21875 28.421875 74.21875 
Q 39.75 74.21875 46.484375 68.546875 
Q 53.21875 62.890625 53.21875 53.421875 
Q 53.21875 48.921875 51.53125 44.890625 
Q 49.859375 40.875 45.40625 35.40625 
Q 44.1875 33.984375 37.640625 27.21875 
Q 31.109375 20.453125 19.1875 8.296875 
z
" id="DejaVuSans-32"/>
    </defs>
    <g transform="translate(308.79396 285.5648)scale(0.2 -0.2)">
     <use xlink:href="#DejaVuSans-7b"/>
     <use x="63.623047" xlink:href="#DejaVuSans-66"/>
     <use x="98.828125" xlink:href="#DejaVuSans-31"/>
     <use x="162.451172" xlink:href="#DejaVuSans-2d"/>
     <use x="198.535156" xlink:href="#DejaVuSans-66"/>
     <use x="233.740234" xlink:href="#DejaVuSans-35"/>
     <use x="297.363281" xlink:href="#DejaVuSans-7d"/>
     <use x="360.986328" xlink:href="#DejaVuSans-2c"/>
     <use x="392.773438" xlink:href="#DejaVuSans-20"/>
     <use x="424.560547" xlink:href="#DejaVuSans-32"/>
     <use x="488.183594" xlink:href="#DejaVuSans-30"/>
     <use x="551.806641" xlink:href="#DejaVuSans-2d"/>
     <use x="587.890625" xlink:href="#DejaVuSans-44"/>
    </g>
   </g>
   <g id="text_7">
    <!-- v2.2.1.10 -->
    <defs>
     <path d="M 2.984375 54.6875 
L 12.5 54.6875 
L 29.59375 8.796875 
L 46.6875 54.6875 
L 56.203125 54.6875 
L 35.6875 0 
L 23.484375 0 
z
" id="DejaVuSans-76"/>
     <path d="M 10.6875 12.40625 
L 21 12.40625 
L 21 0 
L 10.6875 0 
z
" id="DejaVuSans-2e"/>
    </defs>
    <g style="fill:#808080;" transform="translate(204.463188 286.342713)scale(0.1 -0.1)">
     <use xlink:href="#DejaVuSans-76"/>
     <use x="59.179688" xlink:href="#DejaVuSans-32"/>
     <use x="122.802734" xlink:href="#DejaVuSans-2e"/>
     <use x="154.589844" xlink:href="#DejaVuSans-32"/>
     <use x="218.212891" xlink:href="#DejaVuSans-2e"/>
     <use x="250" xlink:href="#DejaVuSans-31"/>
     <use x="313.623047" xlink:href="#DejaVuSans-2e"/>
     <use x="345.410156" xlink:href="#DejaVuSans-31"/>
     <use x="409.033203" xlink:href="#DejaVuSans-30"/>
    </g>
   </g>
  </g>
 </g>
 <defs>
  <clipPath id="pf73009b0b8">
   <rect height="285.76" width="445.152" x="5.52" y="5.52"/>
  </clipPath>
 </defs>
</svg>
