<?xml version="1.0" encoding="utf-8" standalone="no"?>
<!DOCTYPE svg PUBLIC "-//W3C//DTD SVG 1.1//EN"
  "http://www.w3.org/Graphics/SVG/1.1/DTD/svg11.dtd">
<!-- Created with matplotlib (http://matplotlib.org/) -->
<svg height="345.6pt" version="1.1" viewBox="0 0 460.8 345.6" width="460.8pt" xmlns="http://www.w3.org/2000/svg" xmlns:xlink="http://www.w3.org/1999/xlink">
 <defs>
  <style type="text/css">
*{stroke-linecap:butt;stroke-linejoin:round;}
  </style>
 </defs>
 <g id="figure_1">
  <g id="patch_1">
   <path d="M 0 345.6 
L 460.8 345.6 
L 460.8 0 
L 0 0 
z
" style="fill:#ffffff;"/>
  </g>
  <g id="axes_1">
   <g id="patch_2">
    <path d="M 5.52 291.28 
L 450.672 291.28 
L 450.672 5.52 
L 5.52 5.52 
z
" style="fill:#ffffff;"/>
   </g>
   <g id="matplotlib.axis_1">
    <g id="xtick_1">
     <g id="line2d_1">
      <path clip-path="url(#pbef8246a22)" d="M 5.410932 291.28 
L 5.410932 5.52 
" style="fill:none;stroke:#b0b0b0;stroke-linecap:square;stroke-width:0.8;"/>
     </g>
     <g id="line2d_2">
      <defs>
       <path d="M 0 0 
L 0 3.5 
" id="m52382b2efb" style="stroke:#000000;stroke-width:0.8;"/>
      </defs>
      <g>
       <use style="stroke:#000000;stroke-width:0.8;" x="5.410932" xlink:href="#m52382b2efb" y="291.28"/>
      </g>
     </g>
    </g>
    <g id="xtick_2">
     <g id="line2d_3">
      <path clip-path="url(#pbef8246a22)" d="M 106.367335 291.28 
L 106.367335 5.52 
" style="fill:none;stroke:#b0b0b0;stroke-linecap:square;stroke-width:0.8;"/>
     </g>
     <g id="line2d_4">
      <g>
       <use style="stroke:#000000;stroke-width:0.8;" x="106.367335" xlink:href="#m52382b2efb" y="291.28"/>
      </g>
     </g>
     <g id="text_1">
      <!-- -4 -->
      <defs>
       <path d="M 4.890625 31.390625 
L 31.203125 31.390625 
L 31.203125 23.390625 
L 4.890625 23.390625 
z
" id="DejaVuSans-2d"/>
       <path d="M 37.796875 64.3125 
L 12.890625 25.390625 
L 37.796875 25.390625 
z
M 35.203125 72.90625 
L 47.609375 72.90625 
L 47.609375 25.390625 
L 58.015625 25.390625 
L 58.015625 17.1875 
L 47.609375 17.1875 
L 47.609375 0 
L 37.796875 0 
L 37.796875 17.1875 
L 4.890625 17.1875 
L 4.890625 26.703125 
z
" id="DejaVuSans-34"/>
      </defs>
      <g transform="translate(96.397023 313.476875)scale(0.2 -0.2)">
       <use xlink:href="#DejaVuSans-2d"/>
       <use x="36.083984" xlink:href="#DejaVuSans-34"/>
      </g>
     </g>
    </g>
    <g id="xtick_3">
     <g id="line2d_5">
      <path clip-path="url(#pbef8246a22)" d="M 207.323738 291.28 
L 207.323738 5.52 
" style="fill:none;stroke:#b0b0b0;stroke-linecap:square;stroke-width:0.8;"/>
     </g>
     <g id="line2d_6">
      <g>
       <use style="stroke:#000000;stroke-width:0.8;" x="207.323738" xlink:href="#m52382b2efb" y="291.28"/>
      </g>
     </g>
     <g id="text_2">
      <!-- 0 -->
      <defs>
       <path d="M 31.78125 66.40625 
Q 24.171875 66.40625 20.328125 58.90625 
Q 16.5 51.421875 16.5 36.375 
Q 16.5 21.390625 20.328125 13.890625 
Q 24.171875 6.390625 31.78125 6.390625 
Q 39.453125 6.390625 43.28125 13.890625 
Q 47.125 21.390625 47.125 36.375 
Q 47.125 51.421875 43.28125 58.90625 
Q 39.453125 66.40625 31.78125 66.40625 
z
M 31.78125 74.21875 
Q 44.046875 74.21875 50.515625 64.515625 
Q 56.984375 54.828125 56.984375 36.375 
Q 56.984375 17.96875 50.515625 8.265625 
Q 44.046875 -1.421875 31.78125 -1.421875 
Q 19.53125 -1.421875 13.0625 8.265625 
Q 6.59375 17.96875 6.59375 36.375 
Q 6.59375 54.828125 13.0625 64.515625 
Q 19.53125 74.21875 31.78125 74.21875 
z
" id="DejaVuSans-30"/>
      </defs>
      <g transform="translate(200.961238 313.476875)scale(0.2 -0.2)">
       <use xlink:href="#DejaVuSans-30"/>
      </g>
     </g>
    </g>
    <g id="xtick_4">
     <g id="line2d_7">
      <path clip-path="url(#pbef8246a22)" d="M 308.280141 291.28 
L 308.280141 5.52 
" style="fill:none;stroke:#b0b0b0;stroke-linecap:square;stroke-width:0.8;"/>
     </g>
     <g id="line2d_8">
      <g>
       <use style="stroke:#000000;stroke-width:0.8;" x="308.280141" xlink:href="#m52382b2efb" y="291.28"/>
      </g>
     </g>
     <g id="text_3">
      <!-- 4 -->
      <g transform="translate(301.917641 313.476875)scale(0.2 -0.2)">
       <use xlink:href="#DejaVuSans-34"/>
      </g>
     </g>
    </g>
    <g id="xtick_5">
     <g id="line2d_9">
      <path clip-path="url(#pbef8246a22)" d="M 409.236544 291.28 
L 409.236544 5.52 
" style="fill:none;stroke:#b0b0b0;stroke-linecap:square;stroke-width:0.8;"/>
     </g>
     <g id="line2d_10">
      <g>
       <use style="stroke:#000000;stroke-width:0.8;" x="409.236544" xlink:href="#m52382b2efb" y="291.28"/>
      </g>
     </g>
     <g id="text_4">
      <!-- 8 -->
      <defs>
       <path d="M 31.78125 34.625 
Q 24.75 34.625 20.71875 30.859375 
Q 16.703125 27.09375 16.703125 20.515625 
Q 16.703125 13.921875 20.71875 10.15625 
Q 24.75 6.390625 31.78125 6.390625 
Q 38.8125 6.390625 42.859375 10.171875 
Q 46.921875 13.96875 46.921875 20.515625 
Q 46.921875 27.09375 42.890625 30.859375 
Q 38.875 34.625 31.78125 34.625 
z
M 21.921875 38.8125 
Q 15.578125 40.375 12.03125 44.71875 
Q 8.5 49.078125 8.5 55.328125 
Q 8.5 64.0625 14.71875 69.140625 
Q 20.953125 74.21875 31.78125 74.21875 
Q 42.671875 74.21875 48.875 69.140625 
Q 55.078125 64.0625 55.078125 55.328125 
Q 55.078125 49.078125 51.53125 44.71875 
Q 48 40.375 41.703125 38.8125 
Q 48.828125 37.15625 52.796875 32.3125 
Q 56.78125 27.484375 56.78125 20.515625 
Q 56.78125 9.90625 50.3125 4.234375 
Q 43.84375 -1.421875 31.78125 -1.421875 
Q 19.734375 -1.421875 13.25 4.234375 
Q 6.78125 9.90625 6.78125 20.515625 
Q 6.78125 27.484375 10.78125 32.3125 
Q 14.796875 37.15625 21.921875 38.8125 
z
M 18.3125 54.390625 
Q 18.3125 48.734375 21.84375 45.5625 
Q 25.390625 42.390625 31.78125 42.390625 
Q 38.140625 42.390625 41.71875 45.5625 
Q 45.3125 48.734375 45.3125 54.390625 
Q 45.3125 60.0625 41.71875 63.234375 
Q 38.140625 66.40625 31.78125 66.40625 
Q 25.390625 66.40625 21.84375 63.234375 
Q 18.3125 60.0625 18.3125 54.390625 
z
" id="DejaVuSans-38"/>
      </defs>
      <g transform="translate(402.874044 313.476875)scale(0.2 -0.2)">
       <use xlink:href="#DejaVuSans-38"/>
      </g>
     </g>
    </g>
    <g id="text_5">
     <!-- log10 of Df -->
     <defs>
      <path d="M 9.421875 75.984375 
L 18.40625 75.984375 
L 18.40625 0 
L 9.421875 0 
z
" id="DejaVuSans-6c"/>
      <path d="M 30.609375 48.390625 
Q 23.390625 48.390625 19.1875 42.75 
Q 14.984375 37.109375 14.984375 27.296875 
Q 14.984375 17.484375 19.15625 11.84375 
Q 23.34375 6.203125 30.609375 6.203125 
Q 37.796875 6.203125 41.984375 11.859375 
Q 46.1875 17.53125 46.1875 27.296875 
Q 46.1875 37.015625 41.984375 42.703125 
Q 37.796875 48.390625 30.609375 48.390625 
z
M 30.609375 56 
Q 42.328125 56 49.015625 48.375 
Q 55.71875 40.765625 55.71875 27.296875 
Q 55.71875 13.875 49.015625 6.21875 
Q 42.328125 -1.421875 30.609375 -1.421875 
Q 18.84375 -1.421875 12.171875 6.21875 
Q 5.515625 13.875 5.515625 27.296875 
Q 5.515625 40.765625 12.171875 48.375 
Q 18.84375 56 30.609375 56 
z
" id="DejaVuSans-6f"/>
      <path d="M 45.40625 27.984375 
Q 45.40625 37.75 41.375 43.109375 
Q 37.359375 48.484375 30.078125 48.484375 
Q 22.859375 48.484375 18.828125 43.109375 
Q 14.796875 37.75 14.796875 27.984375 
Q 14.796875 18.265625 18.828125 12.890625 
Q 22.859375 7.515625 30.078125 7.515625 
Q 37.359375 7.515625 41.375 12.890625 
Q 45.40625 18.265625 45.40625 27.984375 
z
M 54.390625 6.78125 
Q 54.390625 -7.171875 48.1875 -13.984375 
Q 42 -20.796875 29.203125 -20.796875 
Q 24.46875 -20.796875 20.265625 -20.09375 
Q 16.0625 -19.390625 12.109375 -17.921875 
L 12.109375 -9.1875 
Q 16.0625 -11.328125 19.921875 -12.34375 
Q 23.78125 -13.375 27.78125 -13.375 
Q 36.625 -13.375 41.015625 -8.765625 
Q 45.40625 -4.15625 45.40625 5.171875 
L 45.40625 9.625 
Q 42.625 4.78125 38.28125 2.390625 
Q 33.9375 0 27.875 0 
Q 17.828125 0 11.671875 7.65625 
Q 5.515625 15.328125 5.515625 27.984375 
Q 5.515625 40.671875 11.671875 48.328125 
Q 17.828125 56 27.875 56 
Q 33.9375 56 38.28125 53.609375 
Q 42.625 51.21875 45.40625 46.390625 
L 45.40625 54.6875 
L 54.390625 54.6875 
z
" id="DejaVuSans-67"/>
      <path d="M 12.40625 8.296875 
L 28.515625 8.296875 
L 28.515625 63.921875 
L 10.984375 60.40625 
L 10.984375 69.390625 
L 28.421875 72.90625 
L 38.28125 72.90625 
L 38.28125 8.296875 
L 54.390625 8.296875 
L 54.390625 0 
L 12.40625 0 
z
" id="DejaVuSans-31"/>
      <path id="DejaVuSans-20"/>
      <path d="M 37.109375 75.984375 
L 37.109375 68.5 
L 28.515625 68.5 
Q 23.6875 68.5 21.796875 66.546875 
Q 19.921875 64.59375 19.921875 59.515625 
L 19.921875 54.6875 
L 34.71875 54.6875 
L 34.71875 47.703125 
L 19.921875 47.703125 
L 19.921875 0 
L 10.890625 0 
L 10.890625 47.703125 
L 2.296875 47.703125 
L 2.296875 54.6875 
L 10.890625 54.6875 
L 10.890625 58.5 
Q 10.890625 67.625 15.140625 71.796875 
Q 19.390625 75.984375 28.609375 75.984375 
z
" id="DejaVuSans-66"/>
      <path d="M 19.671875 64.796875 
L 19.671875 8.109375 
L 31.59375 8.109375 
Q 46.6875 8.109375 53.6875 14.9375 
Q 60.6875 21.78125 60.6875 36.53125 
Q 60.6875 51.171875 53.6875 57.984375 
Q 46.6875 64.796875 31.59375 64.796875 
z
M 9.8125 72.90625 
L 30.078125 72.90625 
Q 51.265625 72.90625 61.171875 64.09375 
Q 71.09375 55.28125 71.09375 36.53125 
Q 71.09375 17.671875 61.125 8.828125 
Q 51.171875 0 30.078125 0 
L 9.8125 0 
z
" id="DejaVuSans-44"/>
     </defs>
     <g transform="translate(172.910063 336.833125)scale(0.2 -0.2)">
      <use xlink:href="#DejaVuSans-6c"/>
      <use x="27.783203" xlink:href="#DejaVuSans-6f"/>
      <use x="88.964844" xlink:href="#DejaVuSans-67"/>
      <use x="152.441406" xlink:href="#DejaVuSans-31"/>
      <use x="216.064453" xlink:href="#DejaVuSans-30"/>
      <use x="279.6875" xlink:href="#DejaVuSans-20"/>
      <use x="311.474609" xlink:href="#DejaVuSans-6f"/>
      <use x="372.65625" xlink:href="#DejaVuSans-66"/>
      <use x="407.861328" xlink:href="#DejaVuSans-20"/>
      <use x="439.648438" xlink:href="#DejaVuSans-44"/>
      <use x="516.650391" xlink:href="#DejaVuSans-66"/>
     </g>
    </g>
   </g>
   <g id="matplotlib.axis_2">
    <g id="ytick_1">
     <g id="line2d_11">
      <path clip-path="url(#pbef8246a22)" d="M 5.52 291.28 
L 450.672 291.28 
" style="fill:none;stroke:#b0b0b0;stroke-linecap:square;stroke-width:0.8;"/>
     </g>
     <g id="line2d_12">
      <defs>
       <path d="M 0 0 
L -3.5 0 
" id="m5c8feb2e07" style="stroke:#000000;stroke-width:0.8;"/>
      </defs>
      <g>
       <use style="stroke:#000000;stroke-width:0.8;" x="5.52" xlink:href="#m5c8feb2e07" y="291.28"/>
      </g>
     </g>
    </g>
    <g id="ytick_2">
     <g id="line2d_13">
      <path clip-path="url(#pbef8246a22)" d="M 5.52 234.693861 
L 450.672 234.693861 
" style="fill:none;stroke:#b0b0b0;stroke-linecap:square;stroke-width:0.8;"/>
     </g>
     <g id="line2d_14">
      <g>
       <use style="stroke:#000000;stroke-width:0.8;" x="5.52" xlink:href="#m5c8feb2e07" y="234.693861"/>
      </g>
     </g>
    </g>
    <g id="ytick_3">
     <g id="line2d_15">
      <path clip-path="url(#pbef8246a22)" d="M 5.52 178.107723 
L 450.672 178.107723 
" style="fill:none;stroke:#b0b0b0;stroke-linecap:square;stroke-width:0.8;"/>
     </g>
     <g id="line2d_16">
      <g>
       <use style="stroke:#000000;stroke-width:0.8;" x="5.52" xlink:href="#m5c8feb2e07" y="178.107723"/>
      </g>
     </g>
    </g>
    <g id="ytick_4">
     <g id="line2d_17">
      <path clip-path="url(#pbef8246a22)" d="M 5.52 121.521584 
L 450.672 121.521584 
" style="fill:none;stroke:#b0b0b0;stroke-linecap:square;stroke-width:0.8;"/>
     </g>
     <g id="line2d_18">
      <g>
       <use style="stroke:#000000;stroke-width:0.8;" x="5.52" xlink:href="#m5c8feb2e07" y="121.521584"/>
      </g>
     </g>
    </g>
    <g id="ytick_5">
     <g id="line2d_19">
      <path clip-path="url(#pbef8246a22)" d="M 5.52 64.935446 
L 450.672 64.935446 
" style="fill:none;stroke:#b0b0b0;stroke-linecap:square;stroke-width:0.8;"/>
     </g>
     <g id="line2d_20">
      <g>
       <use style="stroke:#000000;stroke-width:0.8;" x="5.52" xlink:href="#m5c8feb2e07" y="64.935446"/>
      </g>
     </g>
    </g>
    <g id="ytick_6">
     <g id="line2d_21">
      <path clip-path="url(#pbef8246a22)" d="M 5.52 8.349307 
L 450.672 8.349307 
" style="fill:none;stroke:#b0b0b0;stroke-linecap:square;stroke-width:0.8;"/>
     </g>
     <g id="line2d_22">
      <g>
       <use style="stroke:#000000;stroke-width:0.8;" x="5.52" xlink:href="#m5c8feb2e07" y="8.349307"/>
      </g>
     </g>
    </g>
   </g>
   <g id="line2d_23">
    <path clip-path="url(#pbef8246a22)" d="M 232.377347 291.28 
L 232.377347 290.02253 
L 236.834558 290.02253 
L 236.834558 288.765061 
L 237.928518 288.765061 
L 237.928518 287.507591 
L 238.189061 287.507591 
L 238.295713 284.992651 
L 238.427381 284.992651 
L 238.494438 282.477712 
L 241.027395 282.477712 
L 241.108482 278.705303 
L 243.544703 278.705303 
L 243.544703 277.447833 
L 244.171368 277.447833 
L 244.171368 276.190363 
L 245.145882 276.190363 
L 245.145882 274.932893 
L 245.327804 274.932893 
L 245.327804 273.675424 
L 245.477147 273.675424 
L 245.477147 272.417954 
L 245.642562 272.417954 
L 245.642562 271.160484 
L 246.203635 271.160484 
L 246.203635 269.903014 
L 246.402019 269.903014 
L 246.402019 268.645545 
L 246.844284 268.645545 
L 246.84801 266.130605 
L 247.256537 266.130605 
L 247.256537 264.873135 
L 247.520266 264.873135 
L 247.572416 262.358196 
L 247.711351 262.358196 
L 247.804181 258.585787 
L 249.156139 258.585787 
L 249.201241 256.070847 
L 251.541694 256.070847 
L 251.541694 254.813377 
L 252.011692 254.813377 
L 252.011692 253.555908 
L 256.006648 253.555908 
L 256.006648 252.298438 
L 256.775973 252.298438 
L 256.775973 251.040968 
L 257.298691 251.040968 
L 257.298691 249.783498 
L 257.767581 249.783498 
L 257.767581 248.526029 
L 257.997886 248.526029 
L 258.055734 246.011089 
L 259.368615 246.011089 
L 259.411483 242.23868 
L 260.070015 242.23868 
L 260.106946 238.466271 
L 260.731629 238.466271 
L 260.785187 233.436392 
L 261.037102 233.436392 
L 261.037102 232.178922 
L 261.868879 232.178922 
L 261.868879 230.921452 
L 263.725323 230.921452 
L 263.725323 229.663982 
L 263.906793 229.663982 
L 263.906793 228.406513 
L 264.240398 228.406513 
L 264.240398 227.149043 
L 265.100319 227.149043 
L 265.100319 225.891573 
L 265.311855 225.891573 
L 265.421366 223.376634 
L 265.563087 223.376634 
L 265.580224 220.861694 
L 265.713358 220.861694 
L 265.804406 215.831815 
L 265.827709 215.831815 
L 265.889414 212.059406 
L 265.978076 212.059406 
L 266.067177 208.286997 
L 266.140147 208.286997 
L 266.140147 207.029527 
L 266.345994 207.029527 
L 266.421093 204.514587 
L 266.475984 204.514587 
L 266.557923 200.742178 
L 266.662351 200.742178 
L 266.662726 198.227239 
L 266.797185 198.227239 
L 266.902902 194.454829 
L 266.952751 194.454829 
L 267.028367 188.167481 
L 267.084677 188.167481 
L 267.133736 185.652541 
L 267.244659 185.652541 
L 267.274789 183.137602 
L 267.399744 183.137602 
L 267.504254 171.820374 
L 267.512079 171.820374 
L 267.613719 168.047965 
L 267.628003 168.047965 
L 267.698931 163.018086 
L 267.742523 163.018086 
L 267.764512 160.503146 
L 267.857506 160.503146 
L 267.962299 154.215798 
L 267.995911 154.215798 
L 268.06867 150.443388 
L 268.112691 150.443388 
L 268.212039 144.15604 
L 268.360078 144.15604 
L 268.402612 140.38363 
L 268.479792 140.38363 
L 268.482414 136.611221 
L 268.604077 136.611221 
L 268.60846 134.096282 
L 268.886954 134.096282 
L 268.886954 132.838812 
L 269.128067 132.838812 
L 269.198084 130.323872 
L 269.313505 130.323872 
L 269.381007 127.808933 
L 270.116369 127.808933 
L 270.198546 124.036524 
L 270.268119 124.036524 
L 270.268119 122.779054 
L 270.552494 122.779054 
L 270.552494 121.521584 
L 270.87863 121.521584 
L 270.941196 119.006645 
L 271.199834 119.006645 
L 271.199834 117.749175 
L 271.621629 117.749175 
L 271.621629 116.491705 
L 271.763055 116.491705 
L 271.763055 115.234235 
L 271.933818 115.234235 
L 271.948189 112.719296 
L 272.563895 112.719296 
L 272.670735 110.204356 
L 273.355666 110.204356 
L 273.355666 108.946887 
L 273.982528 108.946887 
L 274.017118 106.431947 
L 274.447929 106.431947 
L 274.447929 105.174477 
L 275.19343 105.174477 
L 275.284962 102.659538 
L 275.40892 102.659538 
L 275.40892 101.402068 
L 275.801527 101.402068 
L 275.801527 100.144598 
L 276.475002 100.144598 
L 276.475002 98.887129 
L 277.020663 98.887129 
L 277.020663 97.629659 
L 278.005284 97.629659 
L 278.005284 96.372189 
L 278.170635 96.372189 
L 278.170635 95.114719 
L 278.47492 95.114719 
L 278.573216 92.59978 
L 278.799577 92.59978 
L 278.870322 86.312431 
L 279.091136 86.312431 
L 279.091136 85.054961 
L 279.554152 85.054961 
L 279.554152 83.797492 
L 280.188626 83.797492 
L 280.285463 80.025083 
L 280.403021 80.025083 
L 280.403021 78.767613 
L 281.051174 78.767613 
L 281.108948 76.252673 
L 281.226879 76.252673 
L 281.249769 73.737734 
L 281.433709 73.737734 
L 281.433709 72.480264 
L 281.598517 72.480264 
L 281.598809 69.965325 
L 281.975531 69.965325 
L 281.975531 68.707855 
L 282.430068 68.707855 
L 282.430068 67.450385 
L 283.164082 67.450385 
L 283.164082 66.192915 
L 284.115064 66.192915 
L 284.115064 64.935446 
L 319.225922 64.935446 
L 319.225922 63.677976 
L 329.855068 63.677976 
L 329.855068 62.420506 
L 330.514007 62.420506 
L 330.544855 59.905567 
L 332.806707 59.905567 
L 332.806707 58.648097 
L 334.991123 58.648097 
L 334.991123 57.390627 
L 337.636878 57.390627 
L 337.636878 56.133157 
L 338.693216 56.133157 
L 338.693216 54.875688 
L 339.321423 54.875688 
L 339.321423 53.618218 
L 340.069013 53.618218 
L 340.069013 52.360748 
L 340.198776 52.360748 
L 340.198776 51.103278 
L 341.843515 51.103278 
L 341.843515 49.845809 
L 342.178432 49.845809 
L 342.178432 48.588339 
L 342.660214 48.588339 
L 342.660214 47.330869 
L 343.113537 47.330869 
L 343.113537 46.073399 
L 345.304984 46.073399 
L 345.304984 44.81593 
L 345.559398 44.81593 
L 345.668498 42.30099 
L 346.671223 42.30099 
L 346.671223 41.04352 
L 347.58288 41.04352 
L 347.58288 39.786051 
L 348.072591 39.786051 
L 348.072591 38.528581 
L 349.136765 38.528581 
L 349.136765 37.271111 
L 349.249363 37.271111 
L 349.249363 36.013641 
L 353.328063 36.013641 
L 353.328063 34.756172 
L 353.628404 34.756172 
L 353.628404 33.498702 
L 354.265683 33.498702 
L 354.265683 32.241232 
L 355.19239 32.241232 
L 355.19239 30.983762 
L 358.554007 30.983762 
L 358.554007 29.726293 
L 360.011554 29.726293 
L 360.011554 28.468823 
L 360.67378 28.468823 
L 360.67378 27.211353 
L 361.576549 27.211353 
L 361.576549 25.953883 
L 362.555821 25.953883 
L 362.555821 24.696414 
L 362.900504 24.696414 
L 362.900504 23.438944 
L 363.454794 23.438944 
L 363.454794 22.181474 
L 364.152358 22.181474 
L 364.152358 20.924004 
L 364.442909 20.924004 
L 364.442909 19.666535 
L 364.755764 19.666535 
L 364.755764 18.409065 
L 366.330082 18.409065 
L 366.330082 17.151595 
L 369.075217 17.151595 
L 369.075217 15.894125 
L 369.285374 15.894125 
L 369.285374 14.636656 
L 369.4554 14.636656 
L 369.4554 13.379186 
L 369.794988 13.379186 
L 369.794988 12.121716 
L 370.405106 12.121716 
L 370.405106 10.864246 
L 371.308549 10.864246 
L 371.308549 9.606777 
L 373.59703 9.606777 
L 373.59703 8.349307 
L 373.59703 8.349307 
L 450.672 8.349307 
L 450.672 8.349307 
" style="fill:none;stroke:#ff0000;stroke-linecap:square;stroke-width:3;"/>
   </g>
   <g id="line2d_24">
    <path clip-path="url(#pbef8246a22)" d="M 256.901331 291.28 
L 256.901331 290.02253 
L 257.319434 290.02253 
L 257.319434 288.765061 
L 258.562627 288.765061 
L 258.562627 287.507591 
L 258.951116 287.507591 
L 259.042438 284.992651 
L 259.110319 284.992651 
L 259.200305 281.220242 
L 259.582609 281.220242 
L 259.582609 279.962772 
L 259.811254 279.962772 
L 259.884659 277.447833 
L 260.003918 277.447833 
L 260.021593 274.932893 
L 260.811784 274.932893 
L 260.811784 273.675424 
L 260.974986 273.675424 
L 261.005042 271.160484 
L 261.177742 271.160484 
L 261.256186 268.645545 
L 261.345893 268.645545 
L 261.373861 266.130605 
L 261.521999 266.130605 
L 261.613993 261.100726 
L 261.662066 261.100726 
L 261.712068 257.328317 
L 262.207005 257.328317 
L 262.207005 256.070847 
L 262.397281 256.070847 
L 262.397281 254.813377 
L 262.584462 254.813377 
L 262.584462 253.555908 
L 263.223887 253.555908 
L 263.223887 252.298438 
L 263.49248 252.298438 
L 263.560368 249.783498 
L 263.718589 249.783498 
L 263.776469 247.268559 
L 263.989947 247.268559 
L 263.989947 246.011089 
L 264.141987 246.011089 
L 264.225435 242.23868 
L 264.287402 242.23868 
L 264.3954 239.72374 
L 264.449457 239.72374 
L 264.449457 238.466271 
L 264.992006 238.466271 
L 264.992006 237.208801 
L 266.301581 237.208801 
L 266.301581 235.951331 
L 266.436545 235.951331 
L 266.436545 234.693861 
L 267.016126 234.693861 
L 267.016126 233.436392 
L 267.905497 233.436392 
L 267.905497 232.178922 
L 268.880046 232.178922 
L 268.948421 228.406513 
L 269.043297 228.406513 
L 269.043297 227.149043 
L 269.248865 227.149043 
L 269.248865 225.891573 
L 269.374706 225.891573 
L 269.383332 223.376634 
L 269.548819 223.376634 
L 269.548846 220.861694 
L 269.702879 220.861694 
L 269.702879 219.604224 
L 269.881728 219.604224 
L 269.95776 215.831815 
L 270.00652 215.831815 
L 270.102171 212.059406 
L 270.217397 212.059406 
L 270.299295 207.029527 
L 270.486095 207.029527 
L 270.486095 205.772057 
L 270.665122 205.772057 
L 270.710193 199.484708 
L 270.808439 199.484708 
L 270.816991 196.969769 
L 270.953566 196.969769 
L 271.047294 193.19736 
L 271.082391 193.19736 
L 271.176749 189.42495 
L 271.222906 189.42495 
L 271.286867 186.910011 
L 271.381619 186.910011 
L 271.43662 184.395072 
L 271.57111 184.395072 
L 271.667644 181.880132 
L 271.937297 181.880132 
L 272.001977 178.107723 
L 275.430964 178.107723 
L 275.430964 176.850253 
L 277.186794 176.850253 
L 277.186794 175.592783 
L 277.607108 175.592783 
L 277.607108 174.335314 
L 277.817757 174.335314 
L 277.817757 173.077844 
L 278.281505 173.077844 
L 278.281505 171.820374 
L 278.481271 171.820374 
L 278.481271 170.562904 
L 278.5955 170.562904 
L 278.5955 169.305435 
L 278.717104 169.305435 
L 278.717104 168.047965 
L 278.849599 168.047965 
L 278.849599 166.790495 
L 279.417016 166.790495 
L 279.417016 165.533025 
L 279.587864 165.533025 
L 279.587864 164.275556 
L 279.765325 164.275556 
L 279.765325 163.018086 
L 279.884141 163.018086 
L 279.90632 160.503146 
L 280.106799 160.503146 
L 280.106799 159.245677 
L 280.294118 159.245677 
L 280.294118 157.988207 
L 280.438694 157.988207 
L 280.532176 155.473267 
L 280.826709 155.473267 
L 280.826709 154.215798 
L 281.06834 154.215798 
L 281.108948 151.700858 
L 281.2422 151.700858 
L 281.294933 147.928449 
L 281.370291 147.928449 
L 281.370291 146.670979 
L 281.645721 146.670979 
L 281.645721 145.413509 
L 281.871573 145.413509 
L 281.871573 144.15604 
L 281.984816 144.15604 
L 282.0392 140.38363 
L 282.190473 140.38363 
L 282.289631 136.611221 
L 282.415868 136.611221 
L 282.520972 132.838812 
L 282.543378 132.838812 
L 282.543378 131.581342 
L 282.73682 131.581342 
L 282.813071 129.066403 
L 282.943988 129.066403 
L 282.99005 126.551463 
L 283.110824 126.551463 
L 283.17855 122.779054 
L 283.458777 122.779054 
L 283.560949 119.006645 
L 283.596049 119.006645 
L 283.636068 116.491705 
L 283.885446 116.491705 
L 283.885446 115.234235 
L 284.038887 115.234235 
L 284.104991 112.719296 
L 284.254605 112.719296 
L 284.325638 107.689417 
L 284.40879 107.689417 
L 284.470049 105.174477 
L 284.545366 105.174477 
L 284.545366 103.917008 
L 284.688795 103.917008 
L 284.778196 98.887129 
L 284.865075 98.887129 
L 284.90792 95.114719 
L 285.211932 95.114719 
L 285.314459 91.34231 
L 285.443024 91.34231 
L 285.450035 88.827371 
L 285.608429 88.827371 
L 285.608429 87.569901 
L 285.725033 87.569901 
L 285.763762 85.054961 
L 285.848501 85.054961 
L 285.879476 82.540022 
L 286.543236 82.540022 
L 286.580115 80.025083 
L 286.661445 80.025083 
L 286.661445 78.767613 
L 286.895616 78.767613 
L 287.00182 73.737734 
L 287.415366 73.737734 
L 287.415366 72.480264 
L 288.450484 72.480264 
L 288.506342 69.965325 
L 288.877011 69.965325 
L 288.877011 68.707855 
L 290.729173 68.707855 
L 290.729173 67.450385 
L 291.29905 67.450385 
L 291.29905 66.192915 
L 292.360123 66.192915 
L 292.360123 64.935446 
L 361.998404 64.935446 
L 361.998404 63.677976 
L 365.514164 63.677976 
L 365.514164 62.420506 
L 367.673658 62.420506 
L 367.673658 61.163036 
L 367.826522 61.163036 
L 367.826522 59.905567 
L 368.806544 59.905567 
L 368.806544 58.648097 
L 369.322454 58.648097 
L 369.322454 57.390627 
L 369.818648 57.390627 
L 369.818648 56.133157 
L 370.368474 56.133157 
L 370.368474 54.875688 
L 371.454838 54.875688 
L 371.454838 53.618218 
L 371.667944 53.618218 
L 371.667944 52.360748 
L 371.968287 52.360748 
L 371.968287 51.103278 
L 373.107731 51.103278 
L 373.107731 49.845809 
L 373.408127 49.845809 
L 373.408127 48.588339 
L 374.086537 48.588339 
L 374.160341 46.073399 
L 374.563597 46.073399 
L 374.563597 44.81593 
L 374.826901 44.81593 
L 374.826901 43.55846 
L 375.180197 43.55846 
L 375.180197 42.30099 
L 375.455827 42.30099 
L 375.455827 41.04352 
L 376.366982 41.04352 
L 376.366982 39.786051 
L 376.783408 39.786051 
L 376.783408 38.528581 
L 376.965569 38.528581 
L 377.074317 34.756172 
L 377.38322 34.756172 
L 377.38322 33.498702 
L 377.57107 33.498702 
L 377.57107 32.241232 
L 379.075823 32.241232 
L 379.075823 30.983762 
L 379.19439 30.983762 
L 379.19439 29.726293 
L 380.318875 29.726293 
L 380.318875 28.468823 
L 380.586879 28.468823 
L 380.586879 27.211353 
L 381.027118 27.211353 
L 381.041451 24.696414 
L 381.511631 24.696414 
L 381.553606 22.181474 
L 381.818834 22.181474 
L 381.906149 19.666535 
L 382.290235 19.666535 
L 382.290235 18.409065 
L 382.504055 18.409065 
L 382.504055 17.151595 
L 382.73153 17.151595 
L 382.73153 15.894125 
L 383.55069 15.894125 
L 383.65756 13.379186 
L 384.137331 13.379186 
L 384.137331 12.121716 
L 385.089147 12.121716 
L 385.089147 10.864246 
L 385.760138 10.864246 
L 385.760138 9.606777 
L 388.906937 9.606777 
L 388.906937 8.349307 
L 388.906937 8.349307 
L 450.672 8.349307 
L 450.672 8.349307 
" style="fill:none;stroke:#00bfbf;stroke-linecap:square;stroke-width:1.5;"/>
   </g>
   <g id="line2d_25">
    <path clip-path="url(#pbef8246a22)" d="M 254.302882 291.28 
L 254.302882 290.02253 
L 255.40135 290.02253 
L 255.40135 288.765061 
L 256.413863 288.765061 
L 256.413863 287.507591 
L 256.901331 287.507591 
L 256.901331 286.250121 
L 257.319434 286.250121 
L 257.360546 283.735182 
L 257.516294 283.735182 
L 257.516294 282.477712 
L 258.055734 282.477712 
L 258.055734 281.220242 
L 258.33048 281.220242 
L 258.33048 279.962772 
L 258.562627 279.962772 
L 258.627606 277.447833 
L 259.145037 277.447833 
L 259.200305 274.932893 
L 259.337065 274.932893 
L 259.427396 272.417954 
L 259.582609 272.417954 
L 259.582609 271.160484 
L 259.811254 271.160484 
L 259.811254 269.903014 
L 260.003918 269.903014 
L 260.003918 268.645545 
L 260.257857 268.645545 
L 260.327219 266.130605 
L 260.751084 266.130605 
L 260.853532 262.358196 
L 261.115094 262.358196 
L 261.219607 257.328317 
L 261.256186 257.328317 
L 261.345893 254.813377 
L 261.388948 254.813377 
L 261.388948 253.555908 
L 261.521999 253.555908 
L 261.569748 251.040968 
L 261.662066 251.040968 
L 261.696138 248.526029 
L 262.341617 248.526029 
L 262.341617 247.268559 
L 262.584462 247.268559 
L 262.584462 246.011089 
L 262.963287 246.011089 
L 262.963287 244.753619 
L 263.560368 244.753619 
L 263.654947 242.23868 
L 263.723036 242.23868 
L 263.776469 238.466271 
L 264.141987 238.466271 
L 264.141987 237.208801 
L 264.3954 237.208801 
L 264.449457 234.693861 
L 266.301581 234.693861 
L 266.301581 233.436392 
L 267.466866 233.436392 
L 267.466866 232.178922 
L 267.64385 232.178922 
L 267.64385 230.921452 
L 267.905497 230.921452 
L 267.905497 229.663982 
L 268.017665 229.663982 
L 268.017665 228.406513 
L 268.470113 228.406513 
L 268.470113 227.149043 
L 268.60398 227.149043 
L 268.60398 225.891573 
L 268.717421 225.891573 
L 268.717421 224.634103 
L 268.880046 224.634103 
L 268.948421 220.861694 
L 269.043297 220.861694 
L 269.043297 219.604224 
L 269.186299 219.604224 
L 269.248865 217.089285 
L 269.335713 217.089285 
L 269.383332 213.316876 
L 269.548819 213.316876 
L 269.548846 210.801936 
L 269.713721 210.801936 
L 269.713721 209.544466 
L 269.841301 209.544466 
L 269.911431 207.029527 
L 269.989273 207.029527 
L 270.078519 201.999648 
L 270.102171 201.999648 
L 270.102171 200.742178 
L 270.217397 200.742178 
L 270.242199 196.969769 
L 270.486095 196.969769 
L 270.486095 195.712299 
L 270.665122 195.712299 
L 270.768074 190.68242 
L 270.800007 190.68242 
L 270.855153 186.910011 
L 270.953566 186.910011 
L 271.058144 181.880132 
L 271.135664 181.880132 
L 271.135664 180.622662 
L 271.381619 180.622662 
L 271.418415 178.107723 
L 275.430964 178.107723 
L 275.430964 176.850253 
L 275.936447 176.850253 
L 275.936447 175.592783 
L 276.686892 175.592783 
L 276.686892 174.335314 
L 276.836541 174.335314 
L 276.836541 173.077844 
L 277.093584 173.077844 
L 277.186794 170.562904 
L 277.607108 170.562904 
L 277.607108 169.305435 
L 277.776039 169.305435 
L 277.817757 166.790495 
L 277.912414 166.790495 
L 277.912414 165.533025 
L 278.026184 165.533025 
L 278.068354 163.018086 
L 278.386394 163.018086 
L 278.494945 157.988207 
L 278.566426 157.988207 
L 278.5955 155.473267 
L 278.849599 155.473267 
L 278.849599 154.215798 
L 279.417016 154.215798 
L 279.515077 151.700858 
L 279.587864 151.700858 
L 279.587864 150.443388 
L 279.784562 150.443388 
L 279.78839 147.928449 
L 280.048883 147.928449 
L 280.121785 144.15604 
L 280.234678 144.15604 
L 280.294118 141.6411 
L 280.438694 141.6411 
L 280.532176 137.868691 
L 280.625725 137.868691 
L 280.625725 136.611221 
L 280.796183 136.611221 
L 280.826709 132.838812 
L 280.91176 132.838812 
L 280.91176 131.581342 
L 281.077732 131.581342 
L 281.120657 127.808933 
L 281.223039 127.808933 
L 281.294933 122.779054 
L 281.645721 122.779054 
L 281.687505 119.006645 
L 281.819456 119.006645 
L 281.927271 113.976766 
L 281.967343 113.976766 
L 282.074941 107.689417 
L 282.184055 107.689417 
L 282.289631 105.174477 
L 282.415868 105.174477 
L 282.520972 102.659538 
L 282.736842 102.659538 
L 282.813447 97.629659 
L 283.12704 97.629659 
L 283.17855 95.114719 
L 283.426775 95.114719 
L 283.495726 91.34231 
L 283.989866 91.34231 
L 284.091937 87.569901 
L 284.104991 87.569901 
L 284.115064 85.054961 
L 284.312737 85.054961 
L 284.40879 82.540022 
L 284.470049 82.540022 
L 284.545366 80.025083 
L 284.95834 80.025083 
L 285.05225 77.510143 
L 285.240616 77.510143 
L 285.240616 76.252673 
L 285.608429 76.252673 
L 285.608429 74.995204 
L 285.763762 74.995204 
L 285.763762 73.737734 
L 285.918834 73.737734 
L 285.918834 72.480264 
L 286.207999 72.480264 
L 286.207999 71.222794 
L 286.661445 71.222794 
L 286.661445 69.965325 
L 287.00182 69.965325 
L 287.00182 68.707855 
L 287.933391 68.707855 
L 287.933391 67.450385 
L 288.450484 67.450385 
L 288.506342 64.935446 
L 361.736109 64.935446 
L 361.736109 63.677976 
L 361.998404 63.677976 
L 361.998404 62.420506 
L 362.475162 62.420506 
L 362.475162 61.163036 
L 364.140056 61.163036 
L 364.140056 59.905567 
L 365.514164 59.905567 
L 365.514164 58.648097 
L 367.673658 58.648097 
L 367.673658 57.390627 
L 367.826522 57.390627 
L 367.826522 56.133157 
L 368.806544 56.133157 
L 368.824519 53.618218 
L 369.322454 53.618218 
L 369.322454 52.360748 
L 369.537043 52.360748 
L 369.537043 51.103278 
L 369.794988 51.103278 
L 369.905279 47.330869 
L 370.541496 47.330869 
L 370.635715 44.81593 
L 370.765124 44.81593 
L 370.765124 43.55846 
L 371.454838 43.55846 
L 371.454838 42.30099 
L 371.667944 42.30099 
L 371.667944 41.04352 
L 371.968287 41.04352 
L 371.968287 39.786051 
L 372.412564 39.786051 
L 372.412564 38.528581 
L 372.730084 38.528581 
L 372.730084 37.271111 
L 372.882517 37.271111 
L 372.882517 36.013641 
L 373.107731 36.013641 
L 373.107731 34.756172 
L 373.300405 34.756172 
L 373.409979 30.983762 
L 373.59703 30.983762 
L 373.59703 29.726293 
L 373.72674 29.726293 
L 373.72674 28.468823 
L 374.160341 28.468823 
L 374.160341 27.211353 
L 374.596098 27.211353 
L 374.596098 25.953883 
L 374.826901 25.953883 
L 374.826901 24.696414 
L 375.180197 24.696414 
L 375.180197 23.438944 
L 375.455827 23.438944 
L 375.455827 22.181474 
L 376.799921 22.181474 
L 376.884506 19.666535 
L 377.38322 19.666535 
L 377.38322 18.409065 
L 378.057444 18.409065 
L 378.057444 17.151595 
L 379.19439 17.151595 
L 379.19439 15.894125 
L 379.772665 15.894125 
L 379.879581 13.379186 
L 380.249138 13.379186 
L 380.249138 12.121716 
L 380.866027 12.121716 
L 380.866027 10.864246 
L 381.511631 10.864246 
L 381.511631 9.606777 
L 382.340227 9.606777 
L 382.340227 8.349307 
L 382.340227 8.349307 
L 450.672 8.349307 
L 450.672 8.349307 
" style="fill:none;stroke:#bf00bf;stroke-linecap:square;stroke-width:1.5;"/>
   </g>
   <g id="line2d_26">
    <path clip-path="url(#pbef8246a22)" d="M 249.128866 291.28 
L 249.128866 290.02253 
L 252.994648 290.02253 
L 252.994648 288.765061 
L 254.279924 288.765061 
L 254.279924 287.507591 
L 254.766148 287.507591 
L 254.766148 286.250121 
L 255.40135 286.250121 
L 255.40135 284.992651 
L 256.319668 284.992651 
L 256.413863 282.477712 
L 256.664757 282.477712 
L 256.664757 281.220242 
L 257.319434 281.220242 
L 257.346803 277.447833 
L 257.489338 277.447833 
L 257.507336 274.932893 
L 257.636234 274.932893 
L 257.636234 273.675424 
L 257.852181 273.675424 
L 257.957139 271.160484 
L 258.055734 271.160484 
L 258.055734 269.903014 
L 258.472347 269.903014 
L 258.562627 267.388075 
L 258.730732 267.388075 
L 258.80559 263.615666 
L 259.005379 263.615666 
L 259.005379 262.358196 
L 259.128953 262.358196 
L 259.200305 259.843256 
L 259.582609 259.843256 
L 259.66687 257.328317 
L 259.78438 257.328317 
L 259.78438 256.070847 
L 260.04754 256.070847 
L 260.04754 254.813377 
L 260.446021 254.813377 
L 260.537558 252.298438 
L 260.731629 252.298438 
L 260.736085 249.783498 
L 260.853532 249.783498 
L 260.859773 247.268559 
L 261.037102 247.268559 
L 261.037102 246.011089 
L 261.177742 246.011089 
L 261.256186 243.49615 
L 261.381555 243.49615 
L 261.381555 242.23868 
L 261.662066 242.23868 
L 261.696138 239.72374 
L 261.907853 239.72374 
L 261.937383 237.208801 
L 263.122827 237.208801 
L 263.122827 235.951331 
L 263.560368 235.951331 
L 263.560368 234.693861 
L 266.301581 234.693861 
L 266.301581 233.436392 
L 266.912756 233.436392 
L 266.912756 232.178922 
L 267.028367 232.178922 
L 267.028367 230.921452 
L 267.466866 230.921452 
L 267.466866 229.663982 
L 267.64385 229.663982 
L 267.64385 228.406513 
L 267.880092 228.406513 
L 267.985685 224.634103 
L 268.05655 224.634103 
L 268.145206 219.604224 
L 268.373031 219.604224 
L 268.463328 215.831815 
L 268.60398 215.831815 
L 268.660663 210.801936 
L 268.751793 210.801936 
L 268.751793 209.544466 
L 268.876547 209.544466 
L 268.952008 203.257118 
L 269.005603 203.257118 
L 269.043297 199.484708 
L 269.162044 199.484708 
L 269.248865 194.454829 
L 269.327924 194.454829 
L 269.374706 190.68242 
L 269.548819 190.68242 
L 269.548819 189.42495 
L 269.836498 189.42495 
L 269.91615 186.910011 
L 269.953848 186.910011 
L 270.025397 181.880132 
L 270.078519 181.880132 
L 270.078519 180.622662 
L 270.665122 180.622662 
L 270.665122 179.365193 
L 270.978642 179.365193 
L 270.978642 178.107723 
L 274.102508 178.107723 
L 274.102508 176.850253 
L 274.447929 176.850253 
L 274.447929 175.592783 
L 275.125358 175.592783 
L 275.125358 174.335314 
L 275.419173 174.335314 
L 275.430964 171.820374 
L 275.686414 171.820374 
L 275.686414 170.562904 
L 275.936447 170.562904 
L 275.936447 169.305435 
L 276.105836 169.305435 
L 276.105836 168.047965 
L 276.288164 168.047965 
L 276.288164 166.790495 
L 276.413983 166.790495 
L 276.413983 165.533025 
L 276.656714 165.533025 
L 276.656714 164.275556 
L 276.836541 164.275556 
L 276.836541 163.018086 
L 276.990978 163.018086 
L 277.098536 160.503146 
L 277.183221 160.503146 
L 277.186794 157.988207 
L 277.497782 157.988207 
L 277.607108 155.473267 
L 277.772553 155.473267 
L 277.817757 151.700858 
L 278.009268 151.700858 
L 278.068354 147.928449 
L 278.368925 147.928449 
L 278.386394 145.413509 
L 278.481271 145.413509 
L 278.481271 144.15604 
L 278.5955 144.15604 
L 278.5955 142.89857 
L 278.805596 142.89857 
L 278.849599 136.611221 
L 279.017813 136.611221 
L 279.017813 135.353751 
L 279.2266 135.353751 
L 279.2266 134.096282 
L 279.445349 134.096282 
L 279.445349 132.838812 
L 279.587864 132.838812 
L 279.674663 130.323872 
L 279.78839 130.323872 
L 279.829453 126.551463 
L 280.106799 126.551463 
L 280.17439 121.521584 
L 280.249862 121.521584 
L 280.301713 117.749175 
L 280.416078 117.749175 
L 280.438694 115.234235 
L 280.625725 115.234235 
L 280.679585 111.461826 
L 280.796183 111.461826 
L 280.799909 108.946887 
L 280.91176 108.946887 
L 280.94109 106.431947 
L 281.028743 106.431947 
L 281.108948 100.144598 
L 281.182985 100.144598 
L 281.286773 96.372189 
L 281.299888 96.372189 
L 281.299888 95.114719 
L 281.437414 95.114719 
L 281.437414 93.85725 
L 281.598809 93.85725 
L 281.598809 92.59978 
L 281.743103 92.59978 
L 281.808049 88.827371 
L 281.975531 88.827371 
L 282.016555 85.054961 
L 282.103662 85.054961 
L 282.103662 83.797492 
L 282.299256 83.797492 
L 282.378977 81.282552 
L 282.617565 81.282552 
L 282.676734 77.510143 
L 282.736842 77.510143 
L 282.736842 76.252673 
L 283.164082 76.252673 
L 283.17855 73.737734 
L 283.352214 73.737734 
L 283.352214 72.480264 
L 283.594997 72.480264 
L 283.594997 71.222794 
L 284.091937 71.222794 
L 284.115064 68.707855 
L 284.567785 68.707855 
L 284.567785 67.450385 
L 285.003108 67.450385 
L 285.003108 66.192915 
L 285.240616 66.192915 
L 285.240616 64.935446 
L 355.682916 64.935446 
L 355.682916 63.677976 
L 357.131759 63.677976 
L 357.131759 62.420506 
L 361.576549 62.420506 
L 361.576549 61.163036 
L 361.736109 61.163036 
L 361.736109 59.905567 
L 362.370928 59.905567 
L 362.475162 57.390627 
L 362.583161 57.390627 
L 362.583161 56.133157 
L 362.979163 56.133157 
L 362.979163 54.875688 
L 363.454794 54.875688 
L 363.454794 53.618218 
L 364.113168 53.618218 
L 364.113168 52.360748 
L 365.306 52.360748 
L 365.306 51.103278 
L 365.48333 51.103278 
L 365.57286 47.330869 
L 365.863468 47.330869 
L 365.863468 46.073399 
L 367.640453 46.073399 
L 367.640453 44.81593 
L 367.803344 44.81593 
L 367.826522 42.30099 
L 368.68652 42.30099 
L 368.68652 41.04352 
L 368.806544 41.04352 
L 368.824519 38.528581 
L 369.264117 38.528581 
L 369.264117 37.271111 
L 369.794988 37.271111 
L 369.905279 34.756172 
L 370.00749 34.756172 
L 370.00749 33.498702 
L 370.541496 33.498702 
L 370.635715 29.726293 
L 370.657115 29.726293 
L 370.765124 27.211353 
L 370.796826 27.211353 
L 370.796826 25.953883 
L 371.020683 25.953883 
L 371.020683 24.696414 
L 371.308549 24.696414 
L 371.308549 23.438944 
L 371.667944 23.438944 
L 371.667944 22.181474 
L 371.936377 22.181474 
L 371.968287 19.666535 
L 372.876759 19.666535 
L 372.876759 18.409065 
L 373.107731 18.409065 
L 373.107731 17.151595 
L 373.59703 17.151595 
L 373.59703 15.894125 
L 374.783141 15.894125 
L 374.871317 12.121716 
L 375.455827 12.121716 
L 375.455827 10.864246 
L 376.676261 10.864246 
L 376.676261 9.606777 
L 377.38322 9.606777 
L 377.38322 8.349307 
L 377.38322 8.349307 
L 450.672 8.349307 
L 450.672 8.349307 
" style="fill:none;stroke:#000000;stroke-linecap:square;stroke-width:1.5;"/>
   </g>
   <g id="line2d_27">
    <path clip-path="url(#pbef8246a22)" d="M 243.263921 291.28 
L 243.263921 290.02253 
L 247.341244 290.02253 
L 247.341244 288.765061 
L 248.091062 288.765061 
L 248.137039 286.250121 
L 248.222527 286.250121 
L 248.222527 284.992651 
L 249.035432 284.992651 
L 249.075429 282.477712 
L 249.42768 282.477712 
L 249.42768 281.220242 
L 251.289665 281.220242 
L 251.289665 279.962772 
L 252.369775 279.962772 
L 252.432776 276.190363 
L 253.481063 276.190363 
L 253.481063 274.932893 
L 253.814163 274.932893 
L 253.868955 271.160484 
L 254.02824 271.160484 
L 254.068881 268.645545 
L 254.261898 268.645545 
L 254.261898 267.388075 
L 254.486339 267.388075 
L 254.486339 266.130605 
L 254.989661 266.130605 
L 254.989661 264.873135 
L 255.276629 264.873135 
L 255.361495 261.100726 
L 255.447178 261.100726 
L 255.447178 259.843256 
L 256.006648 259.843256 
L 256.006648 258.585787 
L 256.124921 258.585787 
L 256.124921 257.328317 
L 256.775973 257.328317 
L 256.873509 254.813377 
L 257.158561 254.813377 
L 257.158561 253.555908 
L 257.298691 253.555908 
L 257.298691 252.298438 
L 257.767581 252.298438 
L 257.767581 251.040968 
L 257.930596 251.040968 
L 257.997886 248.526029 
L 258.055734 248.526029 
L 258.055734 247.268559 
L 258.223313 247.268559 
L 258.223313 246.011089 
L 259.368615 246.011089 
L 259.383694 243.49615 
L 260.070015 243.49615 
L 260.101727 240.98121 
L 260.731629 240.98121 
L 260.785187 237.208801 
L 261.037102 237.208801 
L 261.037102 235.951331 
L 261.868879 235.951331 
L 261.868879 234.693861 
L 265.563087 234.693861 
L 265.563087 233.436392 
L 265.856258 233.436392 
L 265.856258 232.178922 
L 266.300803 232.178922 
L 266.300803 230.921452 
L 266.96627 230.921452 
L 267.028367 228.406513 
L 267.133736 228.406513 
L 267.244659 225.891573 
L 267.414429 225.891573 
L 267.488074 222.119164 
L 267.62206 222.119164 
L 267.642739 219.604224 
L 267.876054 219.604224 
L 267.962299 214.574345 
L 268.06867 214.574345 
L 268.142552 209.544466 
L 268.282641 209.544466 
L 268.388952 204.514587 
L 268.443328 204.514587 
L 268.492059 201.999648 
L 268.604077 201.999648 
L 268.704635 193.19736 
L 268.851246 193.19736 
L 268.851246 191.93989 
L 268.978022 191.93989 
L 269.043297 189.42495 
L 269.186896 189.42495 
L 269.230316 186.910011 
L 269.302746 186.910011 
L 269.319258 184.395072 
L 269.67037 184.395072 
L 269.765494 180.622662 
L 269.893209 180.622662 
L 269.929303 176.850253 
L 271.232142 176.850253 
L 271.232142 175.592783 
L 271.838637 175.592783 
L 271.838637 174.335314 
L 272.829291 174.335314 
L 272.884263 171.820374 
L 272.976694 171.820374 
L 272.991358 168.047965 
L 273.132082 168.047965 
L 273.234646 165.533025 
L 273.258698 165.533025 
L 273.258698 164.275556 
L 273.41575 164.275556 
L 273.495012 160.503146 
L 273.552297 160.503146 
L 273.552297 159.245677 
L 273.721636 159.245677 
L 273.745348 156.730737 
L 273.932327 156.730737 
L 274.025938 152.958328 
L 274.051806 152.958328 
L 274.128209 149.185919 
L 274.194865 149.185919 
L 274.300134 146.670979 
L 274.436427 146.670979 
L 274.454486 142.89857 
L 274.590343 142.89857 
L 274.590343 141.6411 
L 274.808825 141.6411 
L 274.882393 137.868691 
L 274.941354 137.868691 
L 274.941354 136.611221 
L 275.19343 136.611221 
L 275.19343 135.353751 
L 275.375403 135.353751 
L 275.40892 131.581342 
L 275.499916 131.581342 
L 275.566802 129.066403 
L 275.675309 129.066403 
L 275.770195 124.036524 
L 275.957356 124.036524 
L 276.014015 121.521584 
L 276.088863 121.521584 
L 276.19242 116.491705 
L 276.34367 116.491705 
L 276.37137 113.976766 
L 276.475002 113.976766 
L 276.559251 111.461826 
L 276.783314 111.461826 
L 276.783314 110.204356 
L 277.020663 110.204356 
L 277.076275 106.431947 
L 277.263267 106.431947 
L 277.263267 105.174477 
L 277.61649 105.174477 
L 277.61649 103.917008 
L 277.941407 103.917008 
L 278.005284 101.402068 
L 278.170635 101.402068 
L 278.198475 98.887129 
L 278.426317 98.887129 
L 278.521929 95.114719 
L 278.573216 95.114719 
L 278.573216 93.85725 
L 278.769726 93.85725 
L 278.870322 86.312431 
L 279.091136 86.312431 
L 279.091136 85.054961 
L 280.188626 85.054961 
L 280.285463 81.282552 
L 280.403021 81.282552 
L 280.403021 80.025083 
L 281.051174 80.025083 
L 281.108948 77.510143 
L 281.226879 77.510143 
L 281.249769 74.995204 
L 281.433709 74.995204 
L 281.433709 73.737734 
L 281.598517 73.737734 
L 281.598809 71.222794 
L 281.975531 71.222794 
L 281.975531 69.965325 
L 282.363633 69.965325 
L 282.430068 67.450385 
L 283.164082 67.450385 
L 283.164082 66.192915 
L 284.115064 66.192915 
L 284.115064 64.935446 
L 351.239814 64.935446 
L 351.239814 63.677976 
L 355.667103 63.677976 
L 355.756493 61.163036 
L 356.485434 61.163036 
L 356.551022 58.648097 
L 356.635329 58.648097 
L 356.635329 57.390627 
L 357.132546 57.390627 
L 357.132546 56.133157 
L 357.321511 56.133157 
L 357.321511 54.875688 
L 357.990894 54.875688 
L 357.990894 53.618218 
L 358.283657 53.618218 
L 358.283657 52.360748 
L 358.912558 52.360748 
L 358.912558 51.103278 
L 359.322997 51.103278 
L 359.322997 49.845809 
L 359.451664 49.845809 
L 359.451664 48.588339 
L 359.605778 48.588339 
L 359.605778 47.330869 
L 359.789619 47.330869 
L 359.789619 46.073399 
L 360.011554 46.073399 
L 360.011554 44.81593 
L 360.564769 44.81593 
L 360.658927 42.30099 
L 360.679195 42.30099 
L 360.679195 41.04352 
L 361.576549 41.04352 
L 361.679475 38.528581 
L 362.555821 38.528581 
L 362.555821 37.271111 
L 362.680334 37.271111 
L 362.680334 36.013641 
L 363.415305 36.013641 
L 363.454794 33.498702 
L 363.833145 33.498702 
L 363.833145 32.241232 
L 364.02067 32.241232 
L 364.028069 29.726293 
L 364.152358 29.726293 
L 364.152358 28.468823 
L 364.290874 28.468823 
L 364.290874 27.211353 
L 364.442909 27.211353 
L 364.509675 24.696414 
L 364.755764 24.696414 
L 364.755764 23.438944 
L 365.568634 23.438944 
L 365.626077 20.924004 
L 366.114121 20.924004 
L 366.114121 19.666535 
L 366.330082 19.666535 
L 366.330082 18.409065 
L 369.075217 18.409065 
L 369.075217 17.151595 
L 369.285374 17.151595 
L 369.285374 15.894125 
L 369.4554 15.894125 
L 369.4554 14.636656 
L 369.794988 14.636656 
L 369.794988 13.379186 
L 370.396502 13.379186 
L 370.405106 10.864246 
L 371.308549 10.864246 
L 371.308549 9.606777 
L 373.59703 9.606777 
L 373.59703 8.349307 
L 373.59703 8.349307 
L 450.672 8.349307 
L 450.672 8.349307 
" style="fill:none;stroke:#00bfbf;stroke-linecap:square;stroke-width:1.5;"/>
   </g>
   <g id="line2d_28">
    <path clip-path="url(#pbef8246a22)" d="M 237.967385 291.28 
L 237.967385 290.02253 
L 239.527201 290.02253 
L 239.527201 288.765061 
L 241.609755 288.765061 
L 241.609755 287.507591 
L 244.350193 287.507591 
L 244.350193 286.250121 
L 244.981994 286.250121 
L 244.981994 284.992651 
L 245.417423 284.992651 
L 245.417423 283.735182 
L 245.610876 283.735182 
L 245.610876 282.477712 
L 245.725135 282.477712 
L 245.725135 281.220242 
L 245.907385 281.220242 
L 245.933085 278.705303 
L 246.073556 278.705303 
L 246.073556 277.447833 
L 246.232532 277.447833 
L 246.232532 276.190363 
L 246.373194 276.190363 
L 246.373194 274.932893 
L 247.106228 274.932893 
L 247.106228 273.675424 
L 247.715608 273.675424 
L 247.766177 271.160484 
L 247.828309 271.160484 
L 247.828309 269.903014 
L 247.954497 269.903014 
L 247.954497 268.645545 
L 248.203856 268.645545 
L 248.230749 266.130605 
L 248.385515 266.130605 
L 248.472265 263.615666 
L 249.790224 263.615666 
L 249.790224 262.358196 
L 251.47305 262.358196 
L 251.47305 261.100726 
L 252.083711 261.100726 
L 252.156376 258.585787 
L 253.02387 258.585787 
L 253.02387 257.328317 
L 254.062192 257.328317 
L 254.062192 256.070847 
L 256.006648 256.070847 
L 256.015866 253.555908 
L 256.310801 253.555908 
L 256.310801 252.298438 
L 256.775973 252.298438 
L 256.775973 251.040968 
L 257.298691 251.040968 
L 257.298691 249.783498 
L 257.767581 249.783498 
L 257.767581 248.526029 
L 257.997886 248.526029 
L 258.055734 246.011089 
L 259.368615 246.011089 
L 259.383694 243.49615 
L 260.070015 243.49615 
L 260.101727 240.98121 
L 260.731629 240.98121 
L 260.785187 237.208801 
L 261.037102 237.208801 
L 261.037102 235.951331 
L 261.868879 235.951331 
L 261.868879 234.693861 
L 263.607703 234.693861 
L 263.607703 233.436392 
L 264.39369 233.436392 
L 264.39369 232.178922 
L 264.535114 232.178922 
L 264.535114 230.921452 
L 265.563087 230.921452 
L 265.563087 229.663982 
L 265.856258 229.663982 
L 265.856258 228.406513 
L 266.280703 228.406513 
L 266.280703 227.149043 
L 266.662559 227.149043 
L 266.748803 224.634103 
L 266.867823 224.634103 
L 266.96627 222.119164 
L 267.028367 222.119164 
L 267.133736 219.604224 
L 267.160841 219.604224 
L 267.244659 217.089285 
L 267.313798 217.089285 
L 267.414429 214.574345 
L 267.466866 214.574345 
L 267.563937 209.544466 
L 267.592183 209.544466 
L 267.693053 204.514587 
L 267.751719 204.514587 
L 267.85871 193.19736 
L 267.880092 193.19736 
L 267.962299 185.652541 
L 267.99554 185.652541 
L 268.096576 178.107723 
L 268.133967 178.107723 
L 268.157279 174.335314 
L 268.280259 174.335314 
L 268.388952 169.305435 
L 268.436498 169.305435 
L 268.536078 166.790495 
L 268.604077 166.790495 
L 268.647392 164.275556 
L 268.919517 164.275556 
L 269.027762 159.245677 
L 269.147383 159.245677 
L 269.258441 155.473267 
L 269.379609 155.473267 
L 269.438535 152.958328 
L 269.61782 152.958328 
L 269.69138 150.443388 
L 269.772139 150.443388 
L 269.864757 146.670979 
L 269.907823 146.670979 
L 269.909726 144.15604 
L 270.157962 144.15604 
L 270.157962 142.89857 
L 270.392294 142.89857 
L 270.456637 137.868691 
L 270.547528 137.868691 
L 270.590259 135.353751 
L 270.725328 135.353751 
L 270.725328 134.096282 
L 270.938328 134.096282 
L 270.990854 130.323872 
L 271.122124 130.323872 
L 271.122124 129.066403 
L 271.412159 129.066403 
L 271.412159 127.808933 
L 271.574286 127.808933 
L 271.669094 124.036524 
L 271.985835 124.036524 
L 272.041366 120.264114 
L 272.534666 120.264114 
L 272.534666 119.006645 
L 272.987066 119.006645 
L 272.987066 117.749175 
L 273.171727 117.749175 
L 273.171727 116.491705 
L 273.493219 116.491705 
L 273.493355 113.976766 
L 273.866721 113.976766 
L 273.866721 112.719296 
L 274.124895 112.719296 
L 274.124895 111.461826 
L 274.446107 111.461826 
L 274.447929 108.946887 
L 274.741518 108.946887 
L 274.741518 107.689417 
L 275.19343 107.689417 
L 275.19343 106.431947 
L 275.40892 106.431947 
L 275.471948 103.917008 
L 275.768772 103.917008 
L 275.83854 101.402068 
L 276.35238 101.402068 
L 276.35238 100.144598 
L 276.475002 100.144598 
L 276.475002 98.887129 
L 277.020663 98.887129 
L 277.020663 97.629659 
L 278.005284 97.629659 
L 278.005284 96.372189 
L 278.170635 96.372189 
L 278.170635 95.114719 
L 278.47492 95.114719 
L 278.573216 92.59978 
L 278.799577 92.59978 
L 278.870322 86.312431 
L 279.091136 86.312431 
L 279.091136 85.054961 
L 280.188626 85.054961 
L 280.285463 81.282552 
L 280.403021 81.282552 
L 280.403021 80.025083 
L 280.578013 80.025083 
L 280.578013 78.767613 
L 281.051174 78.767613 
L 281.108948 76.252673 
L 281.226879 76.252673 
L 281.249769 73.737734 
L 281.433709 73.737734 
L 281.433709 72.480264 
L 281.598517 72.480264 
L 281.598809 69.965325 
L 281.975531 69.965325 
L 281.975531 68.707855 
L 282.430068 68.707855 
L 282.430068 67.450385 
L 283.164082 67.450385 
L 283.164082 66.192915 
L 284.115064 66.192915 
L 284.115064 64.935446 
L 327.387694 64.935446 
L 327.387694 63.677976 
L 335.018011 63.677976 
L 335.018011 62.420506 
L 337.234291 62.420506 
L 337.234291 61.163036 
L 340.176454 61.163036 
L 340.176454 59.905567 
L 344.041847 59.905567 
L 344.041847 58.648097 
L 346.16143 58.648097 
L 346.16143 57.390627 
L 347.611905 57.390627 
L 347.611905 56.133157 
L 349.202936 56.133157 
L 349.202936 54.875688 
L 349.730734 54.875688 
L 349.730734 53.618218 
L 350.064347 53.618218 
L 350.064347 52.360748 
L 351.561298 52.360748 
L 351.561298 51.103278 
L 351.702117 51.103278 
L 351.702117 49.845809 
L 352.365834 49.845809 
L 352.365834 48.588339 
L 352.798249 48.588339 
L 352.798249 47.330869 
L 353.29429 47.330869 
L 353.29429 46.073399 
L 354.416418 46.073399 
L 354.520941 43.55846 
L 355.363743 43.55846 
L 355.454867 41.04352 
L 355.592941 41.04352 
L 355.628723 38.528581 
L 356.320376 38.528581 
L 356.320376 37.271111 
L 356.455962 37.271111 
L 356.464822 34.756172 
L 357.990055 34.756172 
L 357.990055 33.498702 
L 359.257349 33.498702 
L 359.257349 32.241232 
L 359.372214 32.241232 
L 359.372214 30.983762 
L 359.942187 30.983762 
L 360.011554 28.468823 
L 361.576549 28.468823 
L 361.576549 27.211353 
L 362.555821 27.211353 
L 362.555821 25.953883 
L 363.454794 25.953883 
L 363.454794 24.696414 
L 364.152358 24.696414 
L 364.152358 23.438944 
L 364.442909 23.438944 
L 364.442909 22.181474 
L 364.755764 22.181474 
L 364.755764 20.924004 
L 365.321896 20.924004 
L 365.321896 19.666535 
L 366.330082 19.666535 
L 366.330082 18.409065 
L 367.8291 18.409065 
L 367.8291 17.151595 
L 369.075217 17.151595 
L 369.075217 15.894125 
L 369.285374 15.894125 
L 369.285374 14.636656 
L 369.4554 14.636656 
L 369.4554 13.379186 
L 369.794988 13.379186 
L 369.794988 12.121716 
L 370.405106 12.121716 
L 370.405106 10.864246 
L 371.308549 10.864246 
L 371.308549 9.606777 
L 373.59703 9.606777 
L 373.59703 8.349307 
L 373.59703 8.349307 
L 450.672 8.349307 
L 450.672 8.349307 
" style="fill:none;stroke:#bf00bf;stroke-linecap:square;stroke-width:1.5;"/>
   </g>
   <g id="line2d_29">
    <path clip-path="url(#pbef8246a22)" d="M 232.377347 291.28 
L 232.377347 290.02253 
L 236.841784 290.02253 
L 236.841784 288.765061 
L 237.928518 288.765061 
L 237.928518 287.507591 
L 238.189061 287.507591 
L 238.295713 284.992651 
L 238.427381 284.992651 
L 238.500848 282.477712 
L 241.027395 282.477712 
L 241.108482 278.705303 
L 243.548542 278.705303 
L 243.548542 277.447833 
L 244.176219 277.447833 
L 244.176219 276.190363 
L 245.148147 276.190363 
L 245.148147 274.932893 
L 245.331519 274.932893 
L 245.331519 273.675424 
L 245.481284 273.675424 
L 245.481284 272.417954 
L 245.646476 272.417954 
L 245.646476 271.160484 
L 246.203635 271.160484 
L 246.203635 269.903014 
L 246.407452 269.903014 
L 246.407452 268.645545 
L 246.844284 268.645545 
L 246.84801 266.130605 
L 247.261115 266.130605 
L 247.261115 264.873135 
L 247.5241 264.873135 
L 247.575468 262.358196 
L 247.714739 262.358196 
L 247.807963 258.585787 
L 249.159113 258.585787 
L 249.201241 256.070847 
L 251.541694 256.070847 
L 251.541694 254.813377 
L 252.011692 254.813377 
L 252.011692 253.555908 
L 256.006648 253.555908 
L 256.006648 252.298438 
L 256.775973 252.298438 
L 256.775973 251.040968 
L 257.298691 251.040968 
L 257.298691 249.783498 
L 257.767581 249.783498 
L 257.767581 248.526029 
L 257.997886 248.526029 
L 258.055734 246.011089 
L 259.368615 246.011089 
L 259.411483 242.23868 
L 260.070015 242.23868 
L 260.125366 238.466271 
L 260.731629 238.466271 
L 260.785187 233.436392 
L 261.037102 233.436392 
L 261.037102 232.178922 
L 261.868879 232.178922 
L 261.868879 230.921452 
L 263.739766 230.921452 
L 263.739766 229.663982 
L 263.917989 229.663982 
L 263.917989 228.406513 
L 264.253914 228.406513 
L 264.253914 227.149043 
L 265.11132 227.149043 
L 265.11132 225.891573 
L 265.311855 225.891573 
L 265.311855 224.634103 
L 265.430823 224.634103 
L 265.430823 223.376634 
L 265.563087 223.376634 
L 265.586252 220.861694 
L 265.713358 220.861694 
L 265.816471 215.831815 
L 265.836901 215.831815 
L 265.901862 212.059406 
L 265.980263 212.059406 
L 266.068268 208.286997 
L 266.140147 208.286997 
L 266.140147 207.029527 
L 266.345994 207.029527 
L 266.421093 204.514587 
L 266.475984 204.514587 
L 266.557923 200.742178 
L 266.662726 200.742178 
L 266.66351 198.227239 
L 266.80992 198.227239 
L 266.902902 194.454829 
L 266.952751 194.454829 
L 267.028367 188.167481 
L 267.084677 188.167481 
L 267.133736 185.652541 
L 267.244659 185.652541 
L 267.275462 183.137602 
L 267.400722 183.137602 
L 267.505187 171.820374 
L 267.512079 171.820374 
L 267.614908 168.047965 
L 267.636086 168.047965 
L 267.743062 161.760616 
L 267.764512 161.760616 
L 267.858472 159.245677 
L 267.880092 159.245677 
L 267.967236 154.215798 
L 268.008567 154.215798 
L 268.112691 149.185919 
L 268.133967 149.185919 
L 268.212039 144.15604 
L 268.360078 144.15604 
L 268.402612 140.38363 
L 268.479792 140.38363 
L 268.482414 136.611221 
L 268.604077 136.611221 
L 268.60846 134.096282 
L 268.886954 134.096282 
L 268.886954 132.838812 
L 269.128067 132.838812 
L 269.198084 130.323872 
L 269.313505 130.323872 
L 269.381007 127.808933 
L 270.124704 127.808933 
L 270.198546 124.036524 
L 270.268119 124.036524 
L 270.268119 122.779054 
L 270.561646 122.779054 
L 270.561646 121.521584 
L 270.87863 121.521584 
L 270.953308 119.006645 
L 271.199834 119.006645 
L 271.199834 117.749175 
L 271.63044 117.749175 
L 271.63044 116.491705 
L 271.7734 116.491705 
L 271.7734 115.234235 
L 271.937878 115.234235 
L 271.948189 112.719296 
L 272.572748 112.719296 
L 272.677474 110.204356 
L 273.355666 110.204356 
L 273.355666 108.946887 
L 273.987996 108.946887 
L 274.017118 106.431947 
L 274.447929 106.431947 
L 274.447929 105.174477 
L 275.19343 105.174477 
L 275.284962 102.659538 
L 275.40892 102.659538 
L 275.40892 101.402068 
L 275.801527 101.402068 
L 275.801527 100.144598 
L 276.475002 100.144598 
L 276.475002 98.887129 
L 277.020663 98.887129 
L 277.020663 97.629659 
L 278.005284 97.629659 
L 278.005284 96.372189 
L 278.170635 96.372189 
L 278.170635 95.114719 
L 278.47492 95.114719 
L 278.573216 92.59978 
L 278.799577 92.59978 
L 278.870322 86.312431 
L 279.091136 86.312431 
L 279.091136 85.054961 
L 279.554152 85.054961 
L 279.554152 83.797492 
L 280.188626 83.797492 
L 280.285463 80.025083 
L 280.403021 80.025083 
L 280.403021 78.767613 
L 281.051174 78.767613 
L 281.108948 76.252673 
L 281.226879 76.252673 
L 281.249769 73.737734 
L 281.433709 73.737734 
L 281.433709 72.480264 
L 281.598517 72.480264 
L 281.598809 69.965325 
L 281.975531 69.965325 
L 281.975531 68.707855 
L 282.430068 68.707855 
L 282.430068 67.450385 
L 283.164082 67.450385 
L 283.164082 66.192915 
L 284.115064 66.192915 
L 284.115064 64.935446 
L 319.249244 64.935446 
L 319.249244 63.677976 
L 329.877212 63.677976 
L 329.877212 62.420506 
L 330.514007 62.420506 
L 330.544855 59.905567 
L 332.806707 59.905567 
L 332.806707 58.648097 
L 334.998771 58.648097 
L 334.998771 57.390627 
L 337.646065 57.390627 
L 337.646065 56.133157 
L 338.693216 56.133157 
L 338.693216 54.875688 
L 339.321423 54.875688 
L 339.321423 53.618218 
L 340.069013 53.618218 
L 340.069013 52.360748 
L 340.222683 52.360748 
L 340.222683 51.103278 
L 341.843515 51.103278 
L 341.843515 49.845809 
L 342.211872 49.845809 
L 342.211872 48.588339 
L 342.660214 48.588339 
L 342.660214 47.330869 
L 343.113537 47.330869 
L 343.113537 46.073399 
L 345.304984 46.073399 
L 345.304984 44.81593 
L 345.559398 44.81593 
L 345.668498 42.30099 
L 346.688714 42.30099 
L 346.688714 41.04352 
L 347.592298 41.04352 
L 347.592298 39.786051 
L 348.072591 39.786051 
L 348.072591 38.528581 
L 349.145919 38.528581 
L 349.249363 36.013641 
L 353.339811 36.013641 
L 353.339811 34.756172 
L 353.638936 34.756172 
L 353.638936 33.498702 
L 354.275338 33.498702 
L 354.275338 32.241232 
L 355.202821 32.241232 
L 355.202821 30.983762 
L 358.558884 30.983762 
L 358.558884 29.726293 
L 360.011554 29.726293 
L 360.011554 28.468823 
L 360.67378 28.468823 
L 360.67378 27.211353 
L 361.576549 27.211353 
L 361.576549 25.953883 
L 362.555821 25.953883 
L 362.555821 24.696414 
L 362.918427 24.696414 
L 362.918427 23.438944 
L 363.454794 23.438944 
L 363.454794 22.181474 
L 364.152358 22.181474 
L 364.152358 20.924004 
L 364.442909 20.924004 
L 364.442909 19.666535 
L 364.755764 19.666535 
L 364.755764 18.409065 
L 366.330082 18.409065 
L 366.330082 17.151595 
L 369.075217 17.151595 
L 369.075217 15.894125 
L 369.285374 15.894125 
L 369.285374 14.636656 
L 369.4554 14.636656 
L 369.4554 13.379186 
L 369.794988 13.379186 
L 369.794988 12.121716 
L 370.405106 12.121716 
L 370.405106 10.864246 
L 371.308549 10.864246 
L 371.308549 9.606777 
L 373.59703 9.606777 
L 373.59703 8.349307 
L 373.59703 8.349307 
L 450.672 8.349307 
L 450.672 8.349307 
" style="fill:none;stroke:#000000;stroke-linecap:square;stroke-width:1.5;"/>
   </g>
   <g id="patch_3">
    <path d="M 5.52 291.28 
L 5.52 5.52 
" style="fill:none;stroke:#000000;stroke-linecap:square;stroke-linejoin:miter;stroke-width:0.8;"/>
   </g>
   <g id="patch_4">
    <path d="M 450.672 291.28 
L 450.672 5.52 
" style="fill:none;stroke:#000000;stroke-linecap:square;stroke-linejoin:miter;stroke-width:0.8;"/>
   </g>
   <g id="patch_5">
    <path d="M 5.52 291.28 
L 450.672 291.28 
" style="fill:none;stroke:#000000;stroke-linecap:square;stroke-linejoin:miter;stroke-width:0.8;"/>
   </g>
   <g id="patch_6">
    <path d="M 5.52 5.52 
L 450.672 5.52 
" style="fill:none;stroke:#000000;stroke-linecap:square;stroke-linejoin:miter;stroke-width:0.8;"/>
   </g>
   <g id="text_6">
    <!-- {f1-f5}, 20-D -->
    <defs>
     <path d="M 51.125 -9.28125 
L 51.125 -16.3125 
L 48.09375 -16.3125 
Q 35.9375 -16.3125 31.8125 -12.6875 
Q 27.6875 -9.078125 27.6875 1.703125 
L 27.6875 13.375 
Q 27.6875 20.75 25.046875 23.578125 
Q 22.40625 26.421875 15.484375 26.421875 
L 12.5 26.421875 
L 12.5 33.40625 
L 15.484375 33.40625 
Q 22.46875 33.40625 25.078125 36.203125 
Q 27.6875 39.015625 27.6875 46.296875 
L 27.6875 58.015625 
Q 27.6875 68.796875 31.8125 72.390625 
Q 35.9375 75.984375 48.09375 75.984375 
L 51.125 75.984375 
L 51.125 69 
L 47.796875 69 
Q 40.921875 69 38.8125 66.84375 
Q 36.71875 64.703125 36.71875 57.8125 
L 36.71875 45.703125 
Q 36.71875 38.03125 34.5 34.5625 
Q 32.28125 31.109375 26.90625 29.890625 
Q 32.328125 28.5625 34.515625 25.09375 
Q 36.71875 21.625 36.71875 14.015625 
L 36.71875 1.90625 
Q 36.71875 -4.984375 38.8125 -7.125 
Q 40.921875 -9.28125 47.796875 -9.28125 
z
" id="DejaVuSans-7b"/>
     <path d="M 10.796875 72.90625 
L 49.515625 72.90625 
L 49.515625 64.59375 
L 19.828125 64.59375 
L 19.828125 46.734375 
Q 21.96875 47.46875 24.109375 47.828125 
Q 26.265625 48.1875 28.421875 48.1875 
Q 40.625 48.1875 47.75 41.5 
Q 54.890625 34.8125 54.890625 23.390625 
Q 54.890625 11.625 47.5625 5.09375 
Q 40.234375 -1.421875 26.90625 -1.421875 
Q 22.3125 -1.421875 17.546875 -0.640625 
Q 12.796875 0.140625 7.71875 1.703125 
L 7.71875 11.625 
Q 12.109375 9.234375 16.796875 8.0625 
Q 21.484375 6.890625 26.703125 6.890625 
Q 35.15625 6.890625 40.078125 11.328125 
Q 45.015625 15.765625 45.015625 23.390625 
Q 45.015625 31 40.078125 35.4375 
Q 35.15625 39.890625 26.703125 39.890625 
Q 22.75 39.890625 18.8125 39.015625 
Q 14.890625 38.140625 10.796875 36.28125 
z
" id="DejaVuSans-35"/>
     <path d="M 12.5 -9.28125 
L 15.921875 -9.28125 
Q 22.75 -9.28125 24.828125 -7.171875 
Q 26.90625 -5.078125 26.90625 1.90625 
L 26.90625 14.015625 
Q 26.90625 21.625 29.09375 25.09375 
Q 31.296875 28.5625 36.71875 29.890625 
Q 31.296875 31.109375 29.09375 34.5625 
Q 26.90625 38.03125 26.90625 45.703125 
L 26.90625 57.8125 
Q 26.90625 64.75 24.828125 66.875 
Q 22.75 69 15.921875 69 
L 12.5 69 
L 12.5 75.984375 
L 15.578125 75.984375 
Q 27.734375 75.984375 31.8125 72.390625 
Q 35.890625 68.796875 35.890625 58.015625 
L 35.890625 46.296875 
Q 35.890625 39.015625 38.515625 36.203125 
Q 41.15625 33.40625 48.09375 33.40625 
L 51.125 33.40625 
L 51.125 26.421875 
L 48.09375 26.421875 
Q 41.15625 26.421875 38.515625 23.578125 
Q 35.890625 20.75 35.890625 13.375 
L 35.890625 1.703125 
Q 35.890625 -9.078125 31.8125 -12.6875 
Q 27.734375 -16.3125 15.578125 -16.3125 
L 12.5 -16.3125 
z
" id="DejaVuSans-7d"/>
     <path d="M 11.71875 12.40625 
L 22.015625 12.40625 
L 22.015625 4 
L 14.015625 -11.625 
L 7.71875 -11.625 
L 11.71875 4 
z
" id="DejaVuSans-2c"/>
     <path d="M 19.1875 8.296875 
L 53.609375 8.296875 
L 53.609375 0 
L 7.328125 0 
L 7.328125 8.296875 
Q 12.9375 14.109375 22.625 23.890625 
Q 32.328125 33.6875 34.8125 36.53125 
Q 39.546875 41.84375 41.421875 45.53125 
Q 43.3125 49.21875 43.3125 52.78125 
Q 43.3125 58.59375 39.234375 62.25 
Q 35.15625 65.921875 28.609375 65.921875 
Q 23.96875 65.921875 18.8125 64.3125 
Q 13.671875 62.703125 7.8125 59.421875 
L 7.8125 69.390625 
Q 13.765625 71.78125 18.9375 73 
Q 24.125 74.21875 28.421875 74.21875 
Q 39.75 74.21875 46.484375 68.546875 
Q 53.21875 62.890625 53.21875 53.421875 
Q 53.21875 48.921875 51.53125 44.890625 
Q 49.859375 40.875 45.40625 35.40625 
Q 44.1875 33.984375 37.640625 27.21875 
Q 31.109375 20.453125 19.1875 8.296875 
z
" id="DejaVuSans-32"/>
    </defs>
    <g transform="translate(308.79396 285.5648)scale(0.2 -0.2)">
     <use xlink:href="#DejaVuSans-7b"/>
     <use x="63.623047" xlink:href="#DejaVuSans-66"/>
     <use x="98.828125" xlink:href="#DejaVuSans-31"/>
     <use x="162.451172" xlink:href="#DejaVuSans-2d"/>
     <use x="198.535156" xlink:href="#DejaVuSans-66"/>
     <use x="233.740234" xlink:href="#DejaVuSans-35"/>
     <use x="297.363281" xlink:href="#DejaVuSans-7d"/>
     <use x="360.986328" xlink:href="#DejaVuSans-2c"/>
     <use x="392.773438" xlink:href="#DejaVuSans-20"/>
     <use x="424.560547" xlink:href="#DejaVuSans-32"/>
     <use x="488.183594" xlink:href="#DejaVuSans-30"/>
     <use x="551.806641" xlink:href="#DejaVuSans-2d"/>
     <use x="587.890625" xlink:href="#DejaVuSans-44"/>
    </g>
   </g>
   <g id="text_7">
    <!-- v2.2.1.10 -->
    <defs>
     <path d="M 2.984375 54.6875 
L 12.5 54.6875 
L 29.59375 8.796875 
L 46.6875 54.6875 
L 56.203125 54.6875 
L 35.6875 0 
L 23.484375 0 
z
" id="DejaVuSans-76"/>
     <path d="M 10.6875 12.40625 
L 21 12.40625 
L 21 0 
L 10.6875 0 
z
" id="DejaVuSans-2e"/>
    </defs>
    <g style="fill:#808080;" transform="translate(204.463188 286.342713)scale(0.1 -0.1)">
     <use xlink:href="#DejaVuSans-76"/>
     <use x="59.179688" xlink:href="#DejaVuSans-32"/>
     <use x="122.802734" xlink:href="#DejaVuSans-2e"/>
     <use x="154.589844" xlink:href="#DejaVuSans-32"/>
     <use x="218.212891" xlink:href="#DejaVuSans-2e"/>
     <use x="250" xlink:href="#DejaVuSans-31"/>
     <use x="313.623047" xlink:href="#DejaVuSans-2e"/>
     <use x="345.410156" xlink:href="#DejaVuSans-31"/>
     <use x="409.033203" xlink:href="#DejaVuSans-30"/>
    </g>
   </g>
  </g>
 </g>
 <defs>
  <clipPath id="pbef8246a22">
   <rect height="285.76" width="445.152" x="5.52" y="5.52"/>
  </clipPath>
 </defs>
</svg>
