<?xml version="1.0" encoding="utf-8" standalone="no"?>
<!DOCTYPE svg PUBLIC "-//W3C//DTD SVG 1.1//EN"
  "http://www.w3.org/Graphics/SVG/1.1/DTD/svg11.dtd">
<!-- Created with matplotlib (http://matplotlib.org/) -->
<svg height="345.6pt" version="1.1" viewBox="0 0 460.8 345.6" width="460.8pt" xmlns="http://www.w3.org/2000/svg" xmlns:xlink="http://www.w3.org/1999/xlink">
 <defs>
  <style type="text/css">
*{stroke-linecap:butt;stroke-linejoin:round;}
  </style>
 </defs>
 <g id="figure_1">
  <g id="patch_1">
   <path d="M 0 345.6 
L 460.8 345.6 
L 460.8 0 
L 0 0 
z
" style="fill:#ffffff;"/>
  </g>
  <g id="axes_1">
   <g id="patch_2">
    <path d="M 5.52 291.28 
L 450.672 291.28 
L 450.672 5.52 
L 5.52 5.52 
z
" style="fill:#ffffff;"/>
   </g>
   <g id="matplotlib.axis_1">
    <g id="xtick_1">
     <g id="line2d_1">
      <path clip-path="url(#p98e93a1082)" d="M 5.411309 291.28 
L 5.411309 5.52 
" style="fill:none;stroke:#b0b0b0;stroke-linecap:square;stroke-width:0.8;"/>
     </g>
     <g id="line2d_2">
      <defs>
       <path d="M 0 0 
L 0 3.5 
" id="m84c8d0730a" style="stroke:#000000;stroke-width:0.8;"/>
      </defs>
      <g>
       <use style="stroke:#000000;stroke-width:0.8;" x="5.411309" xlink:href="#m84c8d0730a" y="291.28"/>
      </g>
     </g>
    </g>
    <g id="xtick_2">
     <g id="line2d_3">
      <path clip-path="url(#p98e93a1082)" d="M 106.019083 291.28 
L 106.019083 5.52 
" style="fill:none;stroke:#b0b0b0;stroke-linecap:square;stroke-width:0.8;"/>
     </g>
     <g id="line2d_4">
      <g>
       <use style="stroke:#000000;stroke-width:0.8;" x="106.019083" xlink:href="#m84c8d0730a" y="291.28"/>
      </g>
     </g>
     <g id="text_1">
      <!-- -4 -->
      <defs>
       <path d="M 4.890625 31.390625 
L 31.203125 31.390625 
L 31.203125 23.390625 
L 4.890625 23.390625 
z
" id="DejaVuSans-2d"/>
       <path d="M 37.796875 64.3125 
L 12.890625 25.390625 
L 37.796875 25.390625 
z
M 35.203125 72.90625 
L 47.609375 72.90625 
L 47.609375 25.390625 
L 58.015625 25.390625 
L 58.015625 17.1875 
L 47.609375 17.1875 
L 47.609375 0 
L 37.796875 0 
L 37.796875 17.1875 
L 4.890625 17.1875 
L 4.890625 26.703125 
z
" id="DejaVuSans-34"/>
      </defs>
      <g transform="translate(96.04877 313.476875)scale(0.2 -0.2)">
       <use xlink:href="#DejaVuSans-2d"/>
       <use x="36.083984" xlink:href="#DejaVuSans-34"/>
      </g>
     </g>
    </g>
    <g id="xtick_3">
     <g id="line2d_5">
      <path clip-path="url(#p98e93a1082)" d="M 206.626857 291.28 
L 206.626857 5.52 
" style="fill:none;stroke:#b0b0b0;stroke-linecap:square;stroke-width:0.8;"/>
     </g>
     <g id="line2d_6">
      <g>
       <use style="stroke:#000000;stroke-width:0.8;" x="206.626857" xlink:href="#m84c8d0730a" y="291.28"/>
      </g>
     </g>
     <g id="text_2">
      <!-- 0 -->
      <defs>
       <path d="M 31.78125 66.40625 
Q 24.171875 66.40625 20.328125 58.90625 
Q 16.5 51.421875 16.5 36.375 
Q 16.5 21.390625 20.328125 13.890625 
Q 24.171875 6.390625 31.78125 6.390625 
Q 39.453125 6.390625 43.28125 13.890625 
Q 47.125 21.390625 47.125 36.375 
Q 47.125 51.421875 43.28125 58.90625 
Q 39.453125 66.40625 31.78125 66.40625 
z
M 31.78125 74.21875 
Q 44.046875 74.21875 50.515625 64.515625 
Q 56.984375 54.828125 56.984375 36.375 
Q 56.984375 17.96875 50.515625 8.265625 
Q 44.046875 -1.421875 31.78125 -1.421875 
Q 19.53125 -1.421875 13.0625 8.265625 
Q 6.59375 17.96875 6.59375 36.375 
Q 6.59375 54.828125 13.0625 64.515625 
Q 19.53125 74.21875 31.78125 74.21875 
z
" id="DejaVuSans-30"/>
      </defs>
      <g transform="translate(200.264357 313.476875)scale(0.2 -0.2)">
       <use xlink:href="#DejaVuSans-30"/>
      </g>
     </g>
    </g>
    <g id="xtick_4">
     <g id="line2d_7">
      <path clip-path="url(#p98e93a1082)" d="M 307.234631 291.28 
L 307.234631 5.52 
" style="fill:none;stroke:#b0b0b0;stroke-linecap:square;stroke-width:0.8;"/>
     </g>
     <g id="line2d_8">
      <g>
       <use style="stroke:#000000;stroke-width:0.8;" x="307.234631" xlink:href="#m84c8d0730a" y="291.28"/>
      </g>
     </g>
     <g id="text_3">
      <!-- 4 -->
      <g transform="translate(300.872131 313.476875)scale(0.2 -0.2)">
       <use xlink:href="#DejaVuSans-34"/>
      </g>
     </g>
    </g>
    <g id="xtick_5">
     <g id="line2d_9">
      <path clip-path="url(#p98e93a1082)" d="M 407.842405 291.28 
L 407.842405 5.52 
" style="fill:none;stroke:#b0b0b0;stroke-linecap:square;stroke-width:0.8;"/>
     </g>
     <g id="line2d_10">
      <g>
       <use style="stroke:#000000;stroke-width:0.8;" x="407.842405" xlink:href="#m84c8d0730a" y="291.28"/>
      </g>
     </g>
     <g id="text_4">
      <!-- 8 -->
      <defs>
       <path d="M 31.78125 34.625 
Q 24.75 34.625 20.71875 30.859375 
Q 16.703125 27.09375 16.703125 20.515625 
Q 16.703125 13.921875 20.71875 10.15625 
Q 24.75 6.390625 31.78125 6.390625 
Q 38.8125 6.390625 42.859375 10.171875 
Q 46.921875 13.96875 46.921875 20.515625 
Q 46.921875 27.09375 42.890625 30.859375 
Q 38.875 34.625 31.78125 34.625 
z
M 21.921875 38.8125 
Q 15.578125 40.375 12.03125 44.71875 
Q 8.5 49.078125 8.5 55.328125 
Q 8.5 64.0625 14.71875 69.140625 
Q 20.953125 74.21875 31.78125 74.21875 
Q 42.671875 74.21875 48.875 69.140625 
Q 55.078125 64.0625 55.078125 55.328125 
Q 55.078125 49.078125 51.53125 44.71875 
Q 48 40.375 41.703125 38.8125 
Q 48.828125 37.15625 52.796875 32.3125 
Q 56.78125 27.484375 56.78125 20.515625 
Q 56.78125 9.90625 50.3125 4.234375 
Q 43.84375 -1.421875 31.78125 -1.421875 
Q 19.734375 -1.421875 13.25 4.234375 
Q 6.78125 9.90625 6.78125 20.515625 
Q 6.78125 27.484375 10.78125 32.3125 
Q 14.796875 37.15625 21.921875 38.8125 
z
M 18.3125 54.390625 
Q 18.3125 48.734375 21.84375 45.5625 
Q 25.390625 42.390625 31.78125 42.390625 
Q 38.140625 42.390625 41.71875 45.5625 
Q 45.3125 48.734375 45.3125 54.390625 
Q 45.3125 60.0625 41.71875 63.234375 
Q 38.140625 66.40625 31.78125 66.40625 
Q 25.390625 66.40625 21.84375 63.234375 
Q 18.3125 60.0625 18.3125 54.390625 
z
" id="DejaVuSans-38"/>
      </defs>
      <g transform="translate(401.479905 313.476875)scale(0.2 -0.2)">
       <use xlink:href="#DejaVuSans-38"/>
      </g>
     </g>
    </g>
    <g id="text_5">
     <!-- log10 of Df -->
     <defs>
      <path d="M 9.421875 75.984375 
L 18.40625 75.984375 
L 18.40625 0 
L 9.421875 0 
z
" id="DejaVuSans-6c"/>
      <path d="M 30.609375 48.390625 
Q 23.390625 48.390625 19.1875 42.75 
Q 14.984375 37.109375 14.984375 27.296875 
Q 14.984375 17.484375 19.15625 11.84375 
Q 23.34375 6.203125 30.609375 6.203125 
Q 37.796875 6.203125 41.984375 11.859375 
Q 46.1875 17.53125 46.1875 27.296875 
Q 46.1875 37.015625 41.984375 42.703125 
Q 37.796875 48.390625 30.609375 48.390625 
z
M 30.609375 56 
Q 42.328125 56 49.015625 48.375 
Q 55.71875 40.765625 55.71875 27.296875 
Q 55.71875 13.875 49.015625 6.21875 
Q 42.328125 -1.421875 30.609375 -1.421875 
Q 18.84375 -1.421875 12.171875 6.21875 
Q 5.515625 13.875 5.515625 27.296875 
Q 5.515625 40.765625 12.171875 48.375 
Q 18.84375 56 30.609375 56 
z
" id="DejaVuSans-6f"/>
      <path d="M 45.40625 27.984375 
Q 45.40625 37.75 41.375 43.109375 
Q 37.359375 48.484375 30.078125 48.484375 
Q 22.859375 48.484375 18.828125 43.109375 
Q 14.796875 37.75 14.796875 27.984375 
Q 14.796875 18.265625 18.828125 12.890625 
Q 22.859375 7.515625 30.078125 7.515625 
Q 37.359375 7.515625 41.375 12.890625 
Q 45.40625 18.265625 45.40625 27.984375 
z
M 54.390625 6.78125 
Q 54.390625 -7.171875 48.1875 -13.984375 
Q 42 -20.796875 29.203125 -20.796875 
Q 24.46875 -20.796875 20.265625 -20.09375 
Q 16.0625 -19.390625 12.109375 -17.921875 
L 12.109375 -9.1875 
Q 16.0625 -11.328125 19.921875 -12.34375 
Q 23.78125 -13.375 27.78125 -13.375 
Q 36.625 -13.375 41.015625 -8.765625 
Q 45.40625 -4.15625 45.40625 5.171875 
L 45.40625 9.625 
Q 42.625 4.78125 38.28125 2.390625 
Q 33.9375 0 27.875 0 
Q 17.828125 0 11.671875 7.65625 
Q 5.515625 15.328125 5.515625 27.984375 
Q 5.515625 40.671875 11.671875 48.328125 
Q 17.828125 56 27.875 56 
Q 33.9375 56 38.28125 53.609375 
Q 42.625 51.21875 45.40625 46.390625 
L 45.40625 54.6875 
L 54.390625 54.6875 
z
" id="DejaVuSans-67"/>
      <path d="M 12.40625 8.296875 
L 28.515625 8.296875 
L 28.515625 63.921875 
L 10.984375 60.40625 
L 10.984375 69.390625 
L 28.421875 72.90625 
L 38.28125 72.90625 
L 38.28125 8.296875 
L 54.390625 8.296875 
L 54.390625 0 
L 12.40625 0 
z
" id="DejaVuSans-31"/>
      <path id="DejaVuSans-20"/>
      <path d="M 37.109375 75.984375 
L 37.109375 68.5 
L 28.515625 68.5 
Q 23.6875 68.5 21.796875 66.546875 
Q 19.921875 64.59375 19.921875 59.515625 
L 19.921875 54.6875 
L 34.71875 54.6875 
L 34.71875 47.703125 
L 19.921875 47.703125 
L 19.921875 0 
L 10.890625 0 
L 10.890625 47.703125 
L 2.296875 47.703125 
L 2.296875 54.6875 
L 10.890625 54.6875 
L 10.890625 58.5 
Q 10.890625 67.625 15.140625 71.796875 
Q 19.390625 75.984375 28.609375 75.984375 
z
" id="DejaVuSans-66"/>
      <path d="M 19.671875 64.796875 
L 19.671875 8.109375 
L 31.59375 8.109375 
Q 46.6875 8.109375 53.6875 14.9375 
Q 60.6875 21.78125 60.6875 36.53125 
Q 60.6875 51.171875 53.6875 57.984375 
Q 46.6875 64.796875 31.59375 64.796875 
z
M 9.8125 72.90625 
L 30.078125 72.90625 
Q 51.265625 72.90625 61.171875 64.09375 
Q 71.09375 55.28125 71.09375 36.53125 
Q 71.09375 17.671875 61.125 8.828125 
Q 51.171875 0 30.078125 0 
L 9.8125 0 
z
" id="DejaVuSans-44"/>
     </defs>
     <g transform="translate(172.910063 336.833125)scale(0.2 -0.2)">
      <use xlink:href="#DejaVuSans-6c"/>
      <use x="27.783203" xlink:href="#DejaVuSans-6f"/>
      <use x="88.964844" xlink:href="#DejaVuSans-67"/>
      <use x="152.441406" xlink:href="#DejaVuSans-31"/>
      <use x="216.064453" xlink:href="#DejaVuSans-30"/>
      <use x="279.6875" xlink:href="#DejaVuSans-20"/>
      <use x="311.474609" xlink:href="#DejaVuSans-6f"/>
      <use x="372.65625" xlink:href="#DejaVuSans-66"/>
      <use x="407.861328" xlink:href="#DejaVuSans-20"/>
      <use x="439.648438" xlink:href="#DejaVuSans-44"/>
      <use x="516.650391" xlink:href="#DejaVuSans-66"/>
     </g>
    </g>
   </g>
   <g id="matplotlib.axis_2">
    <g id="ytick_1">
     <g id="line2d_11">
      <path clip-path="url(#p98e93a1082)" d="M 5.52 291.28 
L 450.672 291.28 
" style="fill:none;stroke:#b0b0b0;stroke-linecap:square;stroke-width:0.8;"/>
     </g>
     <g id="line2d_12">
      <defs>
       <path d="M 0 0 
L -3.5 0 
" id="m2fdbed1904" style="stroke:#000000;stroke-width:0.8;"/>
      </defs>
      <g>
       <use style="stroke:#000000;stroke-width:0.8;" x="5.52" xlink:href="#m2fdbed1904" y="291.28"/>
      </g>
     </g>
    </g>
    <g id="ytick_2">
     <g id="line2d_13">
      <path clip-path="url(#p98e93a1082)" d="M 5.52 234.693861 
L 450.672 234.693861 
" style="fill:none;stroke:#b0b0b0;stroke-linecap:square;stroke-width:0.8;"/>
     </g>
     <g id="line2d_14">
      <g>
       <use style="stroke:#000000;stroke-width:0.8;" x="5.52" xlink:href="#m2fdbed1904" y="234.693861"/>
      </g>
     </g>
    </g>
    <g id="ytick_3">
     <g id="line2d_15">
      <path clip-path="url(#p98e93a1082)" d="M 5.52 178.107723 
L 450.672 178.107723 
" style="fill:none;stroke:#b0b0b0;stroke-linecap:square;stroke-width:0.8;"/>
     </g>
     <g id="line2d_16">
      <g>
       <use style="stroke:#000000;stroke-width:0.8;" x="5.52" xlink:href="#m2fdbed1904" y="178.107723"/>
      </g>
     </g>
    </g>
    <g id="ytick_4">
     <g id="line2d_17">
      <path clip-path="url(#p98e93a1082)" d="M 5.52 121.521584 
L 450.672 121.521584 
" style="fill:none;stroke:#b0b0b0;stroke-linecap:square;stroke-width:0.8;"/>
     </g>
     <g id="line2d_18">
      <g>
       <use style="stroke:#000000;stroke-width:0.8;" x="5.52" xlink:href="#m2fdbed1904" y="121.521584"/>
      </g>
     </g>
    </g>
    <g id="ytick_5">
     <g id="line2d_19">
      <path clip-path="url(#p98e93a1082)" d="M 5.52 64.935446 
L 450.672 64.935446 
" style="fill:none;stroke:#b0b0b0;stroke-linecap:square;stroke-width:0.8;"/>
     </g>
     <g id="line2d_20">
      <g>
       <use style="stroke:#000000;stroke-width:0.8;" x="5.52" xlink:href="#m2fdbed1904" y="64.935446"/>
      </g>
     </g>
    </g>
    <g id="ytick_6">
     <g id="line2d_21">
      <path clip-path="url(#p98e93a1082)" d="M 5.52 8.349307 
L 450.672 8.349307 
" style="fill:none;stroke:#b0b0b0;stroke-linecap:square;stroke-width:0.8;"/>
     </g>
     <g id="line2d_22">
      <g>
       <use style="stroke:#000000;stroke-width:0.8;" x="5.52" xlink:href="#m2fdbed1904" y="8.349307"/>
      </g>
     </g>
    </g>
   </g>
   <g id="line2d_23">
    <path clip-path="url(#p98e93a1082)" d="M 219.506857 291.28 
L 219.506857 290.336898 
L 220.568346 290.336898 
L 220.568346 289.393795 
L 220.975502 289.393795 
L 220.975502 288.450693 
L 221.406779 288.450693 
L 221.406779 287.507591 
L 223.148798 287.507591 
L 223.148798 286.564488 
L 223.688934 286.564488 
L 223.688934 285.621386 
L 225.707719 285.621386 
L 225.707719 284.678284 
L 225.883126 284.678284 
L 225.883126 283.735182 
L 226.250491 283.735182 
L 226.282314 281.848977 
L 226.572733 281.848977 
L 226.572733 280.905875 
L 226.942397 280.905875 
L 226.942397 279.962772 
L 227.11392 279.962772 
L 227.11392 279.01967 
L 227.791221 279.01967 
L 227.85626 277.133465 
L 228.420559 277.133465 
L 228.420559 276.190363 
L 229.169882 276.190363 
L 229.272759 272.417954 
L 229.447422 272.417954 
L 229.537301 270.531749 
L 230.194579 270.531749 
L 230.194579 269.588647 
L 230.603861 269.588647 
L 230.642168 267.702442 
L 231.427841 267.702442 
L 231.427841 266.75934 
L 232.361256 266.75934 
L 232.382633 264.873135 
L 232.557386 264.873135 
L 232.557386 263.930033 
L 232.809585 263.930033 
L 232.809585 262.986931 
L 233.029551 262.986931 
L 233.105494 261.100726 
L 233.186818 261.100726 
L 233.257144 259.214521 
L 233.392745 259.214521 
L 233.392745 258.271419 
L 234.04115 258.271419 
L 234.04115 257.328317 
L 234.838106 257.328317 
L 234.838106 256.385215 
L 234.980544 256.385215 
L 234.980544 255.442112 
L 235.295148 255.442112 
L 235.295148 254.49901 
L 235.530272 254.49901 
L 235.530272 253.555908 
L 235.884809 253.555908 
L 235.884809 252.612805 
L 236.041674 252.612805 
L 236.041674 251.669703 
L 236.2316 251.669703 
L 236.2316 250.726601 
L 236.495597 250.726601 
L 236.495597 249.783498 
L 239.124389 249.783498 
L 239.124389 248.840396 
L 240.902304 248.840396 
L 240.902304 247.897294 
L 242.324207 247.897294 
L 242.324207 246.954191 
L 242.680139 246.954191 
L 242.680139 246.011089 
L 243.801984 246.011089 
L 243.801984 245.067987 
L 244.867509 245.067987 
L 244.867509 244.124884 
L 246.110481 244.124884 
L 246.121493 241.295578 
L 246.364266 241.295578 
L 246.364266 240.352475 
L 246.688148 240.352475 
L 246.688148 239.409373 
L 247.526714 239.409373 
L 247.526714 238.466271 
L 247.664762 238.466271 
L 247.664762 237.523168 
L 248.88391 237.523168 
L 248.88391 236.580066 
L 249.056488 236.580066 
L 249.056488 235.636964 
L 251.325525 235.636964 
L 251.325525 234.693861 
L 255.427925 234.693861 
L 255.427925 233.750759 
L 256.274045 233.750759 
L 256.274045 232.807657 
L 256.728014 232.807657 
L 256.728014 231.864554 
L 257.637786 231.864554 
L 257.637786 230.921452 
L 258.367977 230.921452 
L 258.367977 229.97835 
L 258.649012 229.97835 
L 258.649012 229.035248 
L 259.512053 229.035248 
L 259.616295 227.149043 
L 259.639527 227.149043 
L 259.67547 225.262838 
L 259.752184 225.262838 
L 259.817172 223.376634 
L 260.196578 223.376634 
L 260.248864 221.490429 
L 260.574085 221.490429 
L 260.574085 220.547327 
L 260.976946 220.547327 
L 261.025201 218.661122 
L 261.29555 218.661122 
L 261.296293 216.774917 
L 261.572167 216.774917 
L 261.572167 215.831815 
L 261.890672 215.831815 
L 261.890672 214.888713 
L 262.436206 214.888713 
L 262.436206 213.945611 
L 262.679869 213.945611 
L 262.679869 213.002508 
L 262.945639 213.002508 
L 262.957369 211.116304 
L 263.192326 211.116304 
L 263.249189 209.230099 
L 263.579707 209.230099 
L 263.579707 208.286997 
L 263.730067 208.286997 
L 263.730067 207.343894 
L 263.925594 207.343894 
L 263.925594 206.400792 
L 264.30817 206.400792 
L 264.331973 204.514587 
L 264.520136 204.514587 
L 264.580609 202.628383 
L 264.725451 202.628383 
L 264.725451 201.685281 
L 265.077619 201.685281 
L 265.077619 200.742178 
L 265.236947 200.742178 
L 265.309177 198.855974 
L 265.38102 198.855974 
L 265.398041 196.026667 
L 265.740078 196.026667 
L 265.740078 195.083564 
L 265.962979 195.083564 
L 265.962979 194.140462 
L 266.146891 194.140462 
L 266.146891 193.19736 
L 266.266526 193.19736 
L 266.266526 192.254257 
L 266.764455 192.254257 
L 266.764455 191.311155 
L 266.897146 191.311155 
L 266.897146 190.368053 
L 267.067054 190.368053 
L 267.067054 189.42495 
L 267.53655 189.42495 
L 267.53655 188.481848 
L 268.124447 188.481848 
L 268.124447 187.538746 
L 269.332508 187.538746 
L 269.332508 186.595644 
L 274.359847 186.595644 
L 274.359847 185.652541 
L 275.04726 185.652541 
L 275.04726 184.709439 
L 275.655561 184.709439 
L 275.655561 183.766337 
L 277.270798 183.766337 
L 277.366745 181.880132 
L 277.647911 181.880132 
L 277.647911 180.93703 
L 278.460096 180.93703 
L 278.551839 178.107723 
L 279.084434 178.107723 
L 279.16115 176.221518 
L 279.598173 176.221518 
L 279.598173 175.278416 
L 279.839683 175.278416 
L 279.839683 174.335314 
L 279.960674 174.335314 
L 279.960674 173.392211 
L 280.078049 173.392211 
L 280.078049 172.449109 
L 280.22657 172.449109 
L 280.289176 170.562904 
L 280.555478 170.562904 
L 280.555478 169.619802 
L 280.836697 169.619802 
L 280.836697 168.6767 
L 281.111156 168.6767 
L 281.172295 164.90429 
L 281.312869 164.90429 
L 281.312869 163.961188 
L 281.651834 163.961188 
L 281.651834 163.018086 
L 281.781503 163.018086 
L 281.792518 160.188779 
L 281.919142 160.188779 
L 282.016654 158.302574 
L 282.038967 158.302574 
L 282.038967 157.359472 
L 282.247165 157.359472 
L 282.339053 155.473267 
L 282.440416 155.473267 
L 282.533498 153.587063 
L 282.613159 153.587063 
L 282.652178 151.700858 
L 282.880925 151.700858 
L 282.914666 148.871551 
L 283.128571 148.871551 
L 283.15631 146.985347 
L 283.411625 146.985347 
L 283.462355 145.099142 
L 285.149053 145.099142 
L 285.247487 142.269835 
L 285.31157 142.269835 
L 285.31157 141.326733 
L 285.558639 141.326733 
L 285.66648 138.497426 
L 285.829796 138.497426 
L 285.829796 137.554323 
L 286.954824 137.554323 
L 286.954824 136.611221 
L 287.84601 136.611221 
L 287.84601 135.668119 
L 288.628628 135.668119 
L 288.72446 133.781914 
L 288.766993 133.781914 
L 288.766993 132.838812 
L 289.081547 132.838812 
L 289.081547 131.89571 
L 289.232873 131.89571 
L 289.232873 130.952607 
L 289.346594 130.952607 
L 289.387038 129.066403 
L 289.680278 129.066403 
L 289.680278 128.1233 
L 289.967017 128.1233 
L 290.031785 126.237096 
L 290.104001 126.237096 
L 290.104001 125.293993 
L 290.287786 125.293993 
L 290.287786 124.350891 
L 290.712533 124.350891 
L 290.712533 123.407789 
L 295.559704 123.407789 
L 295.559704 122.464686 
L 296.262314 122.464686 
L 296.262314 121.521584 
L 318.905792 121.521584 
L 318.905792 120.578482 
L 328.835844 120.578482 
L 328.835844 119.63538 
L 329.456117 119.63538 
L 329.456117 118.692277 
L 330.326878 118.692277 
L 330.326878 117.749175 
L 331.914464 117.749175 
L 331.999774 115.86297 
L 332.832176 115.86297 
L 332.832176 114.919868 
L 333.046959 114.919868 
L 333.046959 113.976766 
L 333.771519 113.976766 
L 333.771519 113.033663 
L 333.933477 113.033663 
L 333.933477 112.090561 
L 335.447061 112.090561 
L 335.447061 111.147459 
L 335.865109 111.147459 
L 335.865109 110.204356 
L 336.095077 110.204356 
L 336.095077 109.261254 
L 336.753624 109.261254 
L 336.848956 107.37505 
L 337.13275 107.37505 
L 337.13275 106.431947 
L 337.684108 106.431947 
L 337.684108 105.488845 
L 337.942982 105.488845 
L 337.942982 104.545743 
L 338.222648 104.545743 
L 338.222648 103.60264 
L 339.040514 103.60264 
L 339.040514 102.659538 
L 339.86202 102.659538 
L 339.86202 101.716436 
L 340.125535 101.716436 
L 340.125535 100.773333 
L 340.455658 100.773333 
L 340.46627 98.887129 
L 342.702899 98.887129 
L 342.702899 97.944026 
L 343.317683 97.944026 
L 343.317683 97.000924 
L 344.504146 97.000924 
L 344.504146 96.057822 
L 345.300269 96.057822 
L 345.300269 95.114719 
L 345.442176 95.114719 
L 345.519012 92.285413 
L 346.70971 92.285413 
L 346.70971 91.34231 
L 347.674296 91.34231 
L 347.674296 90.399208 
L 348.038324 90.399208 
L 348.105072 88.513003 
L 348.511939 88.513003 
L 348.511939 87.569901 
L 349.172645 87.569901 
L 349.237224 85.683696 
L 349.578483 85.683696 
L 349.578483 84.740594 
L 350.15691 84.740594 
L 350.15691 83.797492 
L 350.870813 83.797492 
L 350.870813 82.854389 
L 351.183285 82.854389 
L 351.183285 81.911287 
L 352.277095 81.911287 
L 352.277095 80.968185 
L 353.686079 80.968185 
L 353.686079 80.025083 
L 355.001913 80.025083 
L 355.001913 79.08198 
L 356.286741 79.08198 
L 356.286741 78.138878 
L 356.982454 78.138878 
L 356.982454 77.195776 
L 357.310538 77.195776 
L 357.310538 76.252673 
L 358.315083 76.252673 
L 358.315083 75.309571 
L 358.894491 75.309571 
L 358.894491 74.366469 
L 362.758059 74.366469 
L 362.818471 72.480264 
L 362.912271 72.480264 
L 362.912271 71.537162 
L 363.710778 71.537162 
L 363.710778 70.594059 
L 365.378157 70.594059 
L 365.432448 68.707855 
L 368.368485 68.707855 
L 368.368485 67.764752 
L 368.905586 67.764752 
L 368.905586 66.82165 
L 369.899421 66.82165 
L 369.899421 65.878548 
L 370.296229 65.878548 
L 370.296229 64.935446 
L 376.537911 64.935446 
L 376.537911 63.992343 
L 380.037701 63.992343 
L 380.037701 63.049241 
L 383.12526 63.049241 
L 383.12526 62.106139 
L 383.47194 62.106139 
L 383.47194 61.163036 
L 384.536931 61.163036 
L 384.536931 60.219934 
L 385.930857 60.219934 
L 385.930857 59.276832 
L 387.740701 59.276832 
L 387.744101 57.390627 
L 390.346636 57.390627 
L 390.346636 56.447525 
L 390.77394 56.447525 
L 390.77394 55.504422 
L 392.011723 55.504422 
L 392.011723 54.56132 
L 392.4855 54.56132 
L 392.559878 52.675116 
L 393.941947 52.675116 
L 393.941947 51.732013 
L 394.107655 51.732013 
L 394.107655 50.788911 
L 394.561016 50.788911 
L 394.561016 49.845809 
L 394.819986 49.845809 
L 394.819986 48.902706 
L 395.715121 48.902706 
L 395.715121 47.959604 
L 395.827268 47.959604 
L 395.827268 47.016502 
L 396.158935 47.016502 
L 396.158935 46.073399 
L 397.094612 46.073399 
L 397.116739 44.187195 
L 397.507916 44.187195 
L 397.507916 43.244092 
L 397.796078 43.244092 
L 397.843906 41.357888 
L 398.456993 41.357888 
L 398.549114 39.471683 
L 399.046122 39.471683 
L 399.046122 38.528581 
L 399.325035 38.528581 
L 399.371259 36.642376 
L 399.792813 36.642376 
L 399.792813 35.699274 
L 400.207026 35.699274 
L 400.207026 34.756172 
L 400.513797 34.756172 
L 400.513797 33.813069 
L 401.119879 33.813069 
L 401.119879 32.869967 
L 402.149575 32.869967 
L 402.162114 30.983762 
L 402.402932 30.983762 
L 402.480785 29.097558 
L 402.623921 29.097558 
L 402.623921 28.154455 
L 403.12614 28.154455 
L 403.12614 27.211353 
L 403.290656 27.211353 
L 403.290656 26.268251 
L 403.695668 26.268251 
L 403.695668 25.325149 
L 405.534713 25.325149 
L 405.534713 24.382046 
L 405.717527 24.382046 
L 405.717527 23.438944 
L 405.982104 23.438944 
L 405.982104 22.495842 
L 408.127467 22.495842 
L 408.127467 21.552739 
L 408.405203 21.552739 
L 408.405203 20.609637 
L 409.324613 20.609637 
L 409.324613 19.666535 
L 410.825352 19.666535 
L 410.825352 18.723432 
L 411.208277 18.723432 
L 411.208277 17.78033 
L 411.568449 17.78033 
L 411.568449 16.837228 
L 411.726835 16.837228 
L 411.726835 15.894125 
L 412.475617 15.894125 
L 412.475617 14.951023 
L 412.813674 14.951023 
L 412.813674 14.007921 
L 413.86019 14.007921 
L 413.86019 13.064818 
L 415.61948 13.064818 
L 415.61948 12.121716 
L 416.568686 12.121716 
L 416.667488 10.235512 
L 417.33255 10.235512 
L 417.33255 9.292409 
L 418.52089 9.292409 
L 418.52089 8.349307 
L 418.52089 8.349307 
L 450.672 8.349307 
L 450.672 8.349307 
" style="fill:none;stroke:#ff0000;stroke-linecap:square;stroke-width:3;"/>
   </g>
   <g id="line2d_24">
    <path clip-path="url(#p98e93a1082)" d="M 240.902304 291.28 
L 240.902304 290.336898 
L 242.247044 290.336898 
L 242.247044 289.393795 
L 243.171719 289.393795 
L 243.171719 288.450693 
L 244.351697 288.450693 
L 244.444312 286.564488 
L 244.555105 286.564488 
L 244.555105 285.621386 
L 244.813268 285.621386 
L 244.867509 283.735182 
L 245.173835 283.735182 
L 245.173835 282.792079 
L 245.39251 282.792079 
L 245.39251 281.848977 
L 246.379357 281.848977 
L 246.379357 280.905875 
L 246.808338 280.905875 
L 246.823365 279.01967 
L 247.353836 279.01967 
L 247.353836 278.076568 
L 247.610815 278.076568 
L 247.610815 277.133465 
L 248.143765 277.133465 
L 248.183433 275.247261 
L 248.45469 275.247261 
L 248.45469 274.304158 
L 248.808822 274.304158 
L 248.88391 272.417954 
L 249.012033 272.417954 
L 249.113736 270.531749 
L 249.222534 270.531749 
L 249.224986 268.645545 
L 249.368354 268.645545 
L 249.45902 266.75934 
L 249.607345 266.75934 
L 249.669035 264.873135 
L 249.773081 264.873135 
L 249.773081 263.930033 
L 250.038008 263.930033 
L 250.038008 262.986931 
L 250.360502 262.986931 
L 250.414755 261.100726 
L 250.624983 261.100726 
L 250.726947 257.328317 
L 250.764985 257.328317 
L 250.764985 256.385215 
L 251.107132 256.385215 
L 251.107132 255.442112 
L 251.451115 255.442112 
L 251.451115 254.49901 
L 251.576552 254.49901 
L 251.576552 253.555908 
L 251.783819 253.555908 
L 251.783819 252.612805 
L 252.248322 252.612805 
L 252.269799 250.726601 
L 252.752742 250.726601 
L 252.770168 248.840396 
L 253.003724 248.840396 
L 253.003724 247.897294 
L 253.117327 247.897294 
L 253.117327 246.954191 
L 253.383414 246.954191 
L 253.383414 246.011089 
L 253.777519 246.011089 
L 253.777519 245.067987 
L 254.167546 245.067987 
L 254.167546 244.124884 
L 255.503838 244.124884 
L 255.53464 242.23868 
L 255.708425 242.23868 
L 255.708425 241.295578 
L 255.849452 241.295578 
L 255.849452 240.352475 
L 256.463197 240.352475 
L 256.507413 238.466271 
L 257.044528 238.466271 
L 257.044528 237.523168 
L 257.283267 237.523168 
L 257.283267 236.580066 
L 259.937234 236.580066 
L 259.937234 235.636964 
L 261.389635 235.636964 
L 261.389635 234.693861 
L 265.39454 234.693861 
L 265.39454 233.750759 
L 267.393948 233.750759 
L 267.393948 232.807657 
L 269.332508 232.807657 
L 269.332508 231.864554 
L 270.593203 231.864554 
L 270.593203 230.921452 
L 279.458809 230.921452 
L 279.458809 229.97835 
L 281.720849 229.97835 
L 281.720849 229.035248 
L 287.314 229.035248 
L 287.314 228.092145 
L 288.330581 228.092145 
L 288.330581 227.149043 
L 289.196708 227.149043 
L 289.196708 226.205941 
L 289.367384 226.205941 
L 289.367384 225.262838 
L 289.517683 225.262838 
L 289.517683 224.319736 
L 289.645431 224.319736 
L 289.682128 222.433531 
L 289.763833 222.433531 
L 289.861763 219.604224 
L 289.951049 219.604224 
L 290.032828 216.774917 
L 290.087418 216.774917 
L 290.117746 214.888713 
L 290.231029 214.888713 
L 290.323995 213.002508 
L 290.442613 213.002508 
L 290.523501 211.116304 
L 290.563805 211.116304 
L 290.597681 209.230099 
L 290.805745 209.230099 
L 290.892838 206.400792 
L 290.961923 206.400792 
L 291.057775 203.571485 
L 291.076266 203.571485 
L 291.160165 199.799076 
L 291.202517 199.799076 
L 291.294538 197.912871 
L 291.336949 197.912871 
L 291.39975 196.026667 
L 291.508237 196.026667 
L 291.518679 194.140462 
L 291.722837 194.140462 
L 291.77679 192.254257 
L 291.89203 192.254257 
L 291.998309 189.42495 
L 292.017866 189.42495 
L 292.083958 184.709439 
L 292.235676 184.709439 
L 292.317858 182.823234 
L 292.397829 182.823234 
L 292.397829 181.880132 
L 292.519877 181.880132 
L 292.629523 178.107723 
L 292.742431 178.107723 
L 292.768317 176.221518 
L 292.904627 176.221518 
L 292.904627 175.278416 
L 293.13363 175.278416 
L 293.13363 174.335314 
L 293.27167 174.335314 
L 293.27167 173.392211 
L 293.983252 173.392211 
L 293.983252 172.449109 
L 297.186438 172.449109 
L 297.186438 171.506007 
L 301.542965 171.506007 
L 301.547637 169.619802 
L 311.000559 169.619802 
L 311.000559 168.6767 
L 312.197349 168.6767 
L 312.197349 167.733597 
L 313.157137 167.733597 
L 313.157137 166.790495 
L 313.908751 166.790495 
L 313.908751 165.847393 
L 315.046107 165.847393 
L 315.046107 164.90429 
L 315.647551 164.90429 
L 315.647551 163.961188 
L 317.841536 163.961188 
L 317.841536 163.018086 
L 319.000643 163.018086 
L 319.000643 162.074983 
L 319.479785 162.074983 
L 319.479785 161.131881 
L 321.430686 161.131881 
L 321.430686 160.188779 
L 321.743638 160.188779 
L 321.743638 159.245677 
L 326.518553 159.245677 
L 326.518553 158.302574 
L 328.627814 158.302574 
L 328.627814 157.359472 
L 331.308006 157.359472 
L 331.308006 156.41637 
L 332.313444 156.41637 
L 332.313444 155.473267 
L 333.386581 155.473267 
L 333.386581 154.530165 
L 333.623481 154.530165 
L 333.623481 153.587063 
L 334.317419 153.587063 
L 334.317419 152.64396 
L 334.68309 152.64396 
L 334.68309 151.700858 
L 335.07592 151.700858 
L 335.07592 150.757756 
L 337.098045 150.757756 
L 337.098045 149.814653 
L 337.711016 149.814653 
L 337.711016 148.871551 
L 337.907238 148.871551 
L 337.907238 147.928449 
L 339.568711 147.928449 
L 339.568711 146.985347 
L 340.430961 146.985347 
L 340.430961 146.042244 
L 340.763102 146.042244 
L 340.763102 145.099142 
L 341.11711 145.099142 
L 341.11711 144.15604 
L 342.627983 144.15604 
L 342.627983 143.212937 
L 343.051456 143.212937 
L 343.051456 142.269835 
L 347.629121 142.269835 
L 347.629121 141.326733 
L 348.164966 141.326733 
L 348.164966 140.38363 
L 348.511939 140.38363 
L 348.511939 139.440528 
L 349.466537 139.440528 
L 349.466537 138.497426 
L 349.676179 138.497426 
L 349.676179 137.554323 
L 350.453373 137.554323 
L 350.453373 136.611221 
L 352.426978 136.611221 
L 352.426978 135.668119 
L 354.074197 135.668119 
L 354.074197 134.725017 
L 354.277975 134.725017 
L 354.277975 133.781914 
L 354.728768 133.781914 
L 354.728768 132.838812 
L 355.337496 132.838812 
L 355.337496 131.89571 
L 357.365474 131.89571 
L 357.365474 130.952607 
L 357.822726 130.952607 
L 357.822726 130.009505 
L 358.706796 130.009505 
L 358.706796 129.066403 
L 360.422003 129.066403 
L 360.422003 128.1233 
L 360.822762 128.1233 
L 360.822762 127.180198 
L 361.638394 127.180198 
L 361.638394 126.237096 
L 362.557429 126.237096 
L 362.65497 124.350891 
L 363.817259 124.350891 
L 363.817259 123.407789 
L 364.17498 123.407789 
L 364.277746 121.521584 
L 365.170119 121.521584 
L 365.234006 119.63538 
L 365.378157 119.63538 
L 365.378157 118.692277 
L 365.58725 118.692277 
L 365.58725 117.749175 
L 365.741376 117.749175 
L 365.741376 116.806073 
L 366.445552 116.806073 
L 366.445552 115.86297 
L 368.319345 115.86297 
L 368.319345 114.919868 
L 368.431059 114.919868 
L 368.431059 113.976766 
L 368.753268 113.976766 
L 368.753268 113.033663 
L 368.941778 113.033663 
L 368.941778 112.090561 
L 369.070429 112.090561 
L 369.070429 111.147459 
L 369.43356 111.147459 
L 369.43356 110.204356 
L 369.612169 110.204356 
L 369.612169 109.261254 
L 369.938626 109.261254 
L 369.938626 108.318152 
L 370.086611 108.318152 
L 370.128828 105.488845 
L 370.575222 105.488845 
L 370.575222 104.545743 
L 370.869031 104.545743 
L 370.869031 103.60264 
L 371.18301 103.60264 
L 371.18301 102.659538 
L 371.351361 102.659538 
L 371.351361 101.716436 
L 372.536303 101.716436 
L 372.536303 100.773333 
L 372.755736 100.773333 
L 372.755736 99.830231 
L 372.962314 99.830231 
L 372.962314 98.887129 
L 373.281948 98.887129 
L 373.281948 97.944026 
L 373.408593 97.944026 
L 373.504476 95.114719 
L 373.987099 95.114719 
L 373.987099 94.171617 
L 374.744086 94.171617 
L 374.744086 93.228515 
L 375.097299 93.228515 
L 375.097299 92.285413 
L 375.890399 92.285413 
L 375.890399 91.34231 
L 376.12813 91.34231 
L 376.12813 90.399208 
L 376.251005 90.399208 
L 376.267724 88.513003 
L 376.971936 88.513003 
L 376.971936 87.569901 
L 377.312504 87.569901 
L 377.312504 86.626799 
L 378.187901 86.626799 
L 378.294827 84.740594 
L 378.463856 84.740594 
L 378.463856 83.797492 
L 378.82291 83.797492 
L 378.82291 82.854389 
L 379.237551 82.854389 
L 379.237551 81.911287 
L 379.59394 81.911287 
L 379.59394 80.968185 
L 380.159366 80.968185 
L 380.197902 79.08198 
L 380.494368 79.08198 
L 380.494368 78.138878 
L 380.755678 78.138878 
L 380.825809 76.252673 
L 380.970472 76.252673 
L 381.026306 74.366469 
L 381.183227 74.366469 
L 381.288891 72.480264 
L 381.393083 72.480264 
L 381.393083 71.537162 
L 381.667089 71.537162 
L 381.667089 70.594059 
L 382.308745 70.594059 
L 382.308745 69.650957 
L 383.839163 69.650957 
L 383.888477 67.764752 
L 384.452993 67.764752 
L 384.452993 66.82165 
L 385.549712 66.82165 
L 385.549712 65.878548 
L 385.699964 65.878548 
L 385.699964 64.935446 
L 405.941784 64.935446 
L 405.941784 63.992343 
L 410.591235 63.992343 
L 410.591235 63.049241 
L 411.416509 63.049241 
L 411.416509 62.106139 
L 412.442072 62.106139 
L 412.541755 60.219934 
L 412.566066 60.219934 
L 412.566066 59.276832 
L 412.838514 59.276832 
L 412.838514 58.333729 
L 413.044177 58.333729 
L 413.047125 56.447525 
L 413.182803 56.447525 
L 413.285961 54.56132 
L 413.313275 54.56132 
L 413.313275 53.618218 
L 413.858619 53.618218 
L 413.858619 52.675116 
L 414.263403 52.675116 
L 414.312681 50.788911 
L 414.958543 50.788911 
L 414.958543 49.845809 
L 415.69385 49.845809 
L 415.698703 47.016502 
L 416.012848 47.016502 
L 416.042912 45.130297 
L 416.220658 45.130297 
L 416.309996 42.30099 
L 416.371544 42.30099 
L 416.371544 41.357888 
L 416.698171 41.357888 
L 416.785085 38.528581 
L 417.040433 38.528581 
L 417.040433 37.585479 
L 417.879497 37.585479 
L 417.968063 35.699274 
L 418.157608 35.699274 
L 418.157608 34.756172 
L 419.231189 34.756172 
L 419.258938 32.869967 
L 419.401569 32.869967 
L 419.401569 31.926865 
L 420.400017 31.926865 
L 420.400017 30.983762 
L 420.635402 30.983762 
L 420.635402 30.04066 
L 420.871912 30.04066 
L 420.95826 28.154455 
L 420.998816 28.154455 
L 420.998816 27.211353 
L 421.227425 27.211353 
L 421.227425 26.268251 
L 421.611206 26.268251 
L 421.611206 25.325149 
L 421.839183 25.325149 
L 421.839183 24.382046 
L 422.007835 24.382046 
L 422.007835 23.438944 
L 422.445048 23.438944 
L 422.445048 22.495842 
L 422.564956 22.495842 
L 422.564956 21.552739 
L 423.561302 21.552739 
L 423.561302 20.609637 
L 423.902661 20.609637 
L 423.902661 19.666535 
L 424.421593 19.666535 
L 424.421593 18.723432 
L 425.064134 18.723432 
L 425.064134 17.78033 
L 425.692535 17.78033 
L 425.763211 15.894125 
L 426.914713 15.894125 
L 426.914713 14.951023 
L 428.996635 14.951023 
L 429.098244 13.064818 
L 430.173441 13.064818 
L 430.173441 12.121716 
L 432.06736 12.121716 
L 432.06736 11.178614 
L 436.798785 11.178614 
L 436.893924 9.292409 
L 438.213489 9.292409 
L 438.213489 8.349307 
L 438.213489 8.349307 
L 450.672 8.349307 
L 450.672 8.349307 
" style="fill:none;stroke:#00bfbf;stroke-linecap:square;stroke-width:1.5;"/>
   </g>
   <g id="line2d_25">
    <path clip-path="url(#p98e93a1082)" d="M 240.902304 291.28 
L 240.902304 290.336898 
L 242.084538 290.336898 
L 242.084538 289.393795 
L 242.247044 289.393795 
L 242.247044 288.450693 
L 243.082733 288.450693 
L 243.171719 286.564488 
L 243.780702 286.564488 
L 243.780702 285.621386 
L 244.351697 285.621386 
L 244.444312 283.735182 
L 244.555105 283.735182 
L 244.645847 281.848977 
L 244.848743 281.848977 
L 244.867509 279.962772 
L 244.997967 279.962772 
L 245.07338 278.076568 
L 245.173835 278.076568 
L 245.229577 276.190363 
L 245.39251 276.190363 
L 245.425619 274.304158 
L 245.531196 274.304158 
L 245.531196 273.361056 
L 245.724764 273.361056 
L 245.724764 272.417954 
L 245.856731 272.417954 
L 245.856731 271.474851 
L 246.136162 271.474851 
L 246.136162 270.531749 
L 246.267399 270.531749 
L 246.267399 269.588647 
L 246.379357 269.588647 
L 246.470208 267.702442 
L 246.615818 267.702442 
L 246.688148 264.873135 
L 246.823365 264.873135 
L 246.823365 263.930033 
L 247.082528 263.930033 
L 247.082528 262.986931 
L 247.230853 262.986931 
L 247.258926 261.100726 
L 247.664762 261.100726 
L 247.726763 259.214521 
L 247.811969 259.214521 
L 247.811969 258.271419 
L 248.072781 258.271419 
L 248.183433 255.442112 
L 248.468196 255.442112 
L 248.468196 254.49901 
L 248.808822 254.49901 
L 248.88391 250.726601 
L 248.921022 250.726601 
L 248.921022 249.783498 
L 249.177677 249.783498 
L 249.216886 247.897294 
L 249.45902 247.897294 
L 249.45902 246.954191 
L 249.59312 246.954191 
L 249.669035 245.067987 
L 249.782233 245.067987 
L 249.782233 244.124884 
L 250.21442 244.124884 
L 250.21442 243.181782 
L 250.328726 243.181782 
L 250.401631 241.295578 
L 250.624983 241.295578 
L 250.624983 240.352475 
L 251.488923 240.352475 
L 251.488923 239.409373 
L 252.752742 239.409373 
L 252.752742 238.466271 
L 254.328156 238.466271 
L 254.419769 236.580066 
L 255.726529 236.580066 
L 255.726529 235.636964 
L 257.283267 235.636964 
L 257.283267 234.693861 
L 260.503669 234.693861 
L 260.503669 233.750759 
L 265.39454 233.750759 
L 265.39454 232.807657 
L 267.393948 232.807657 
L 267.393948 231.864554 
L 267.985808 231.864554 
L 267.985808 230.921452 
L 269.332508 230.921452 
L 269.332508 229.97835 
L 279.458809 229.97835 
L 279.458809 229.035248 
L 280.912177 229.035248 
L 280.912177 228.092145 
L 281.720849 228.092145 
L 281.720849 227.149043 
L 283.7297 227.149043 
L 283.7297 226.205941 
L 285.463197 226.205941 
L 285.463197 225.262838 
L 286.954824 225.262838 
L 286.956082 222.433531 
L 287.223183 222.433531 
L 287.314 220.547327 
L 287.470557 220.547327 
L 287.470557 219.604224 
L 288.019902 219.604224 
L 288.019902 218.661122 
L 288.176165 218.661122 
L 288.176165 217.71802 
L 288.327338 217.71802 
L 288.361718 214.888713 
L 288.81751 214.888713 
L 288.81751 213.945611 
L 289.189998 213.945611 
L 289.206457 212.059406 
L 289.517683 212.059406 
L 289.517683 211.116304 
L 289.682128 211.116304 
L 289.787021 207.343894 
L 289.814825 207.343894 
L 289.902386 204.514587 
L 289.951049 204.514587 
L 290.032828 201.685281 
L 290.087418 201.685281 
L 290.124877 198.855974 
L 290.231029 198.855974 
L 290.323995 196.969769 
L 290.36969 196.969769 
L 290.442613 195.083564 
L 290.54018 195.083564 
L 290.563805 192.254257 
L 290.681771 192.254257 
L 290.681771 191.311155 
L 290.816823 191.311155 
L 290.92113 188.481848 
L 291.000181 188.481848 
L 291.100807 183.766337 
L 291.202517 183.766337 
L 291.202517 182.823234 
L 291.327706 182.823234 
L 291.39975 179.993927 
L 291.469426 179.993927 
L 291.579251 176.221518 
L 291.722837 176.221518 
L 291.722837 175.278416 
L 291.892403 175.278416 
L 291.897848 173.392211 
L 292.235676 173.392211 
L 292.235676 172.449109 
L 292.519877 172.449109 
L 292.524951 170.562904 
L 292.725324 170.562904 
L 292.725324 169.619802 
L 293.176061 169.619802 
L 293.27167 167.733597 
L 293.630796 167.733597 
L 293.630796 166.790495 
L 296.262314 166.790495 
L 296.262314 165.847393 
L 296.688381 165.847393 
L 296.688381 164.90429 
L 297.186438 164.90429 
L 297.186438 163.961188 
L 297.630873 163.961188 
L 297.630873 163.018086 
L 301.542965 163.018086 
L 301.542965 162.074983 
L 303.420495 162.074983 
L 303.420495 161.131881 
L 306.399539 161.131881 
L 306.399539 160.188779 
L 307.019375 160.188779 
L 307.019375 159.245677 
L 309.385027 159.245677 
L 309.385027 158.302574 
L 309.66981 158.302574 
L 309.66981 157.359472 
L 311.000559 157.359472 
L 311.000559 156.41637 
L 312.197349 156.41637 
L 312.197349 155.473267 
L 312.461983 155.473267 
L 312.461983 154.530165 
L 313.157137 154.530165 
L 313.157137 153.587063 
L 313.908751 153.587063 
L 313.908751 152.64396 
L 315.647551 152.64396 
L 315.647551 151.700858 
L 317.841536 151.700858 
L 317.841536 150.757756 
L 319.252602 150.757756 
L 319.252602 149.814653 
L 319.479785 149.814653 
L 319.479785 148.871551 
L 321.430686 148.871551 
L 321.430686 147.928449 
L 322.372031 147.928449 
L 322.372031 146.985347 
L 323.859472 146.985347 
L 323.859472 146.042244 
L 324.112913 146.042244 
L 324.112913 145.099142 
L 325.691336 145.099142 
L 325.691336 144.15604 
L 326.518553 144.15604 
L 326.518553 143.212937 
L 328.634151 143.212937 
L 328.634151 142.269835 
L 328.948354 142.269835 
L 328.948354 141.326733 
L 329.419537 141.326733 
L 329.512641 139.440528 
L 331.262389 139.440528 
L 331.262389 138.497426 
L 332.662318 138.497426 
L 332.662318 137.554323 
L 333.623481 137.554323 
L 333.705208 135.668119 
L 334.317419 135.668119 
L 334.317419 134.725017 
L 334.68309 134.725017 
L 334.68309 133.781914 
L 335.07592 133.781914 
L 335.07592 132.838812 
L 335.982821 132.838812 
L 335.982821 131.89571 
L 336.33656 131.89571 
L 336.33656 130.952607 
L 337.098045 130.952607 
L 337.098045 130.009505 
L 337.907238 130.009505 
L 337.907238 129.066403 
L 340.512633 129.066403 
L 340.512633 128.1233 
L 342.593094 128.1233 
L 342.593094 127.180198 
L 343.051456 127.180198 
L 343.051456 126.237096 
L 343.9196 126.237096 
L 343.9196 125.293993 
L 346.795311 125.293993 
L 346.795311 124.350891 
L 348.511939 124.350891 
L 348.511939 123.407789 
L 349.615678 123.407789 
L 349.615678 122.464686 
L 350.177994 122.464686 
L 350.177994 121.521584 
L 354.728768 121.521584 
L 354.728768 120.578482 
L 359.464907 120.578482 
L 359.464907 119.63538 
L 360.422003 119.63538 
L 360.422003 118.692277 
L 361.929818 118.692277 
L 361.929818 117.749175 
L 362.342971 117.749175 
L 362.342971 116.806073 
L 362.65497 116.806073 
L 362.65497 115.86297 
L 363.716917 115.86297 
L 363.817259 113.976766 
L 364.17498 113.976766 
L 364.17498 113.033663 
L 364.456057 113.033663 
L 364.456057 112.090561 
L 364.792833 112.090561 
L 364.792833 111.147459 
L 365.234006 111.147459 
L 365.234006 110.204356 
L 365.378157 110.204356 
L 365.378157 109.261254 
L 365.741376 109.261254 
L 365.741376 108.318152 
L 366.033657 108.318152 
L 366.033657 107.37505 
L 367.197109 107.37505 
L 367.197109 106.431947 
L 367.489194 106.431947 
L 367.489194 105.488845 
L 367.852272 105.488845 
L 367.852272 104.545743 
L 368.319345 104.545743 
L 368.373353 101.716436 
L 368.431059 101.716436 
L 368.431059 100.773333 
L 368.753268 100.773333 
L 368.753268 99.830231 
L 369.070429 99.830231 
L 369.070429 98.887129 
L 369.43356 98.887129 
L 369.43356 97.944026 
L 369.938626 97.944026 
L 369.997377 96.057822 
L 370.086611 96.057822 
L 370.128828 94.171617 
L 370.271277 94.171617 
L 370.366197 92.285413 
L 370.454986 92.285413 
L 370.454986 91.34231 
L 370.575222 91.34231 
L 370.575222 90.399208 
L 371.252162 90.399208 
L 371.252162 89.456106 
L 371.72757 89.456106 
L 371.827564 87.569901 
L 371.89625 87.569901 
L 371.931674 85.683696 
L 372.312835 85.683696 
L 372.312835 84.740594 
L 372.962314 84.740594 
L 372.962314 83.797492 
L 373.281948 83.797492 
L 373.281948 82.854389 
L 373.482667 82.854389 
L 373.504476 80.968185 
L 373.987099 80.968185 
L 374.093339 79.08198 
L 375.019126 79.08198 
L 375.097299 77.195776 
L 375.275924 77.195776 
L 375.275924 76.252673 
L 375.890399 76.252673 
L 375.922064 73.423366 
L 376.474253 73.423366 
L 376.49802 71.537162 
L 376.882855 71.537162 
L 376.971936 69.650957 
L 377.553149 69.650957 
L 377.553149 68.707855 
L 378.086086 68.707855 
L 378.086086 67.764752 
L 378.708548 67.764752 
L 378.708548 66.82165 
L 380.287672 66.82165 
L 380.287672 65.878548 
L 380.970472 65.878548 
L 380.970472 64.935446 
L 400.716546 64.935446 
L 400.716546 63.992343 
L 405.941784 63.992343 
L 405.941784 63.049241 
L 408.717211 63.049241 
L 408.717211 62.106139 
L 410.591235 62.106139 
L 410.591235 61.163036 
L 410.954415 61.163036 
L 410.954415 60.219934 
L 411.58901 60.219934 
L 411.58901 59.276832 
L 411.767672 59.276832 
L 411.861652 56.447525 
L 412.541755 56.447525 
L 412.546296 54.56132 
L 412.838514 54.56132 
L 412.838514 53.618218 
L 413.082151 53.618218 
L 413.182803 51.732013 
L 413.281338 51.732013 
L 413.313275 48.902706 
L 413.510917 48.902706 
L 413.56328 46.073399 
L 413.819728 46.073399 
L 413.819728 45.130297 
L 414.137774 45.130297 
L 414.137774 44.187195 
L 414.312681 44.187195 
L 414.312681 43.244092 
L 414.958543 43.244092 
L 414.958543 42.30099 
L 415.487505 42.30099 
L 415.487505 41.357888 
L 415.61948 41.357888 
L 415.698703 37.585479 
L 415.825964 37.585479 
L 415.825964 36.642376 
L 416.042912 36.642376 
L 416.042912 35.699274 
L 416.220658 35.699274 
L 416.309996 32.869967 
L 416.371544 32.869967 
L 416.371544 31.926865 
L 416.698171 31.926865 
L 416.785085 29.097558 
L 417.040433 29.097558 
L 417.040433 28.154455 
L 417.175704 28.154455 
L 417.238387 26.268251 
L 417.968063 26.268251 
L 417.968063 25.325149 
L 419.258938 25.325149 
L 419.362121 23.438944 
L 419.401569 23.438944 
L 419.401569 22.495842 
L 419.968697 22.495842 
L 419.968697 21.552739 
L 420.168146 21.552739 
L 420.168146 20.609637 
L 420.400017 20.609637 
L 420.471106 18.723432 
L 420.635402 18.723432 
L 420.635402 17.78033 
L 420.998816 17.78033 
L 420.998816 16.837228 
L 422.007835 16.837228 
L 422.007835 15.894125 
L 423.552606 15.894125 
L 423.552606 14.951023 
L 425.064134 14.951023 
L 425.064134 14.007921 
L 425.526897 14.007921 
L 425.526897 13.064818 
L 426.914713 13.064818 
L 426.914713 12.121716 
L 428.58624 12.121716 
L 428.58624 11.178614 
L 428.996635 11.178614 
L 428.996635 10.235512 
L 430.173441 10.235512 
L 430.173441 9.292409 
L 432.06736 9.292409 
L 432.06736 8.349307 
L 432.06736 8.349307 
L 450.672 8.349307 
L 450.672 8.349307 
" style="fill:none;stroke:#bf00bf;stroke-linecap:square;stroke-width:1.5;"/>
   </g>
   <g id="line2d_26">
    <path clip-path="url(#p98e93a1082)" d="M 237.068372 291.28 
L 237.068372 290.336898 
L 238.716632 290.336898 
L 238.716632 289.393795 
L 239.420692 289.393795 
L 239.420692 288.450693 
L 240.754339 288.450693 
L 240.754339 287.507591 
L 240.902304 287.507591 
L 240.902304 286.564488 
L 241.03652 286.564488 
L 241.03652 285.621386 
L 241.833852 285.621386 
L 241.833852 284.678284 
L 242.081473 284.678284 
L 242.081473 283.735182 
L 242.247044 283.735182 
L 242.247044 282.792079 
L 242.529925 282.792079 
L 242.583039 280.905875 
L 242.93454 280.905875 
L 242.93454 279.962772 
L 243.171368 279.962772 
L 243.171368 279.01967 
L 243.320914 279.01967 
L 243.39791 276.190363 
L 243.801984 276.190363 
L 243.801984 275.247261 
L 244.104653 275.247261 
L 244.104653 274.304158 
L 244.351697 274.304158 
L 244.444312 271.474851 
L 244.471535 271.474851 
L 244.555105 267.702442 
L 244.626748 267.702442 
L 244.626748 266.75934 
L 244.823424 266.75934 
L 244.867509 262.986931 
L 244.997967 262.986931 
L 244.997967 262.043828 
L 245.221466 262.043828 
L 245.229577 260.157624 
L 245.350519 260.157624 
L 245.350519 259.214521 
L 245.594516 259.214521 
L 245.594516 258.271419 
L 245.788379 258.271419 
L 245.866793 256.385215 
L 246.103417 256.385215 
L 246.140596 253.555908 
L 246.267399 253.555908 
L 246.364266 251.669703 
L 246.379357 251.669703 
L 246.432075 249.783498 
L 246.540261 249.783498 
L 246.576582 247.897294 
L 246.688148 247.897294 
L 246.688148 246.954191 
L 247.031259 246.954191 
L 247.082528 244.124884 
L 247.664762 244.124884 
L 247.678475 242.23868 
L 248.808822 242.23868 
L 248.88391 240.352475 
L 248.921022 240.352475 
L 248.921022 239.409373 
L 249.45902 239.409373 
L 249.45902 238.466271 
L 249.669035 238.466271 
L 249.669035 237.523168 
L 249.782233 237.523168 
L 249.782233 236.580066 
L 251.325525 236.580066 
L 251.325525 235.636964 
L 251.488923 235.636964 
L 251.488923 234.693861 
L 260.503669 234.693861 
L 260.503669 233.750759 
L 263.575554 233.750759 
L 263.575554 232.807657 
L 264.071699 232.807657 
L 264.071699 231.864554 
L 264.725573 231.864554 
L 264.725573 230.921452 
L 265.308094 230.921452 
L 265.39454 229.035248 
L 267.393948 229.035248 
L 267.393948 228.092145 
L 267.985808 228.092145 
L 267.985808 227.149043 
L 268.863866 227.149043 
L 268.863866 226.205941 
L 269.332508 226.205941 
L 269.332508 225.262838 
L 269.735777 225.262838 
L 269.805735 223.376634 
L 273.464008 223.376634 
L 273.464008 222.433531 
L 273.733568 222.433531 
L 273.733568 221.490429 
L 274.093758 221.490429 
L 274.093758 220.547327 
L 275.04726 220.547327 
L 275.04726 219.604224 
L 278.782648 219.604224 
L 278.782648 218.661122 
L 279.458809 218.661122 
L 279.458809 217.71802 
L 280.912177 217.71802 
L 280.912177 216.774917 
L 281.720849 216.774917 
L 281.720849 215.831815 
L 282.046736 215.831815 
L 282.046736 214.888713 
L 282.847031 214.888713 
L 282.847031 213.945611 
L 284.729807 213.945611 
L 284.729807 213.002508 
L 285.463197 213.002508 
L 285.463197 212.059406 
L 286.290399 212.059406 
L 286.290399 211.116304 
L 286.414615 211.116304 
L 286.414615 210.173201 
L 286.639199 210.173201 
L 286.639199 209.230099 
L 286.954824 209.230099 
L 286.956082 206.400792 
L 287.223183 206.400792 
L 287.311002 204.514587 
L 287.428919 204.514587 
L 287.470557 202.628383 
L 287.579439 202.628383 
L 287.579439 201.685281 
L 287.959182 201.685281 
L 288.016093 198.855974 
L 288.213085 198.855974 
L 288.213085 197.912871 
L 288.327338 197.912871 
L 288.417391 193.19736 
L 288.517095 193.19736 
L 288.612034 190.368053 
L 288.628628 190.368053 
L 288.70484 188.481848 
L 288.965502 188.481848 
L 289.045949 185.652541 
L 289.101471 185.652541 
L 289.189998 183.766337 
L 289.232873 183.766337 
L 289.293362 179.993927 
L 289.517683 179.993927 
L 289.595153 177.16462 
L 289.682128 177.16462 
L 289.703057 175.278416 
L 289.814825 175.278416 
L 289.826321 173.392211 
L 289.927601 173.392211 
L 289.927601 172.449109 
L 290.117746 172.449109 
L 290.124877 170.562904 
L 290.286442 170.562904 
L 290.368012 167.733597 
L 290.41432 167.733597 
L 290.494894 164.90429 
L 290.555061 164.90429 
L 290.555061 163.961188 
L 290.82868 163.961188 
L 290.82868 163.018086 
L 291.056182 163.018086 
L 291.058782 160.188779 
L 291.173138 160.188779 
L 291.202517 158.302574 
L 291.373567 158.302574 
L 291.479184 156.41637 
L 291.722837 156.41637 
L 291.722837 155.473267 
L 291.947835 155.473267 
L 291.947835 154.530165 
L 292.524951 154.530165 
L 292.524951 153.587063 
L 292.862245 153.587063 
L 292.862245 152.64396 
L 293.336654 152.64396 
L 293.336654 151.700858 
L 294.708629 151.700858 
L 294.708629 150.757756 
L 295.133801 150.757756 
L 295.133801 149.814653 
L 295.581733 149.814653 
L 295.632279 147.928449 
L 296.187385 147.928449 
L 296.262314 146.042244 
L 296.688381 146.042244 
L 296.688381 145.099142 
L 296.83995 145.099142 
L 296.83995 144.15604 
L 297.630873 144.15604 
L 297.630873 143.212937 
L 302.463381 143.212937 
L 302.463381 142.269835 
L 303.420495 142.269835 
L 303.420495 141.326733 
L 306.399539 141.326733 
L 306.399539 140.38363 
L 307.019375 140.38363 
L 307.019375 139.440528 
L 307.2511 139.440528 
L 307.2511 138.497426 
L 309.643554 138.497426 
L 309.643554 137.554323 
L 311.391628 137.554323 
L 311.391628 136.611221 
L 312.197349 136.611221 
L 312.197349 135.668119 
L 313.561342 135.668119 
L 313.561342 134.725017 
L 315.21799 134.725017 
L 315.21799 133.781914 
L 317.896716 133.781914 
L 317.987827 131.89571 
L 322.372031 131.89571 
L 322.372031 130.952607 
L 323.694669 130.952607 
L 323.694669 130.009505 
L 323.859472 130.009505 
L 323.859472 129.066403 
L 324.016289 129.066403 
L 324.016289 128.1233 
L 324.620156 128.1233 
L 324.620156 127.180198 
L 328.948354 127.180198 
L 328.948354 126.237096 
L 334.266795 126.237096 
L 334.266795 125.293993 
L 337.900844 125.293993 
L 337.900844 124.350891 
L 343.051456 124.350891 
L 343.051456 123.407789 
L 343.784865 123.407789 
L 343.784865 122.464686 
L 348.511939 122.464686 
L 348.511939 121.521584 
L 349.560957 121.521584 
L 349.560957 120.578482 
L 352.809989 120.578482 
L 352.809989 119.63538 
L 355.815262 119.63538 
L 355.815262 118.692277 
L 357.367996 118.692277 
L 357.367996 117.749175 
L 358.282131 117.749175 
L 358.282131 116.806073 
L 359.464907 116.806073 
L 359.464907 115.86297 
L 360.018785 115.86297 
L 360.067506 113.976766 
L 360.366899 113.976766 
L 360.422003 112.090561 
L 361.05044 112.090561 
L 361.05044 111.147459 
L 361.37329 111.147459 
L 361.37329 110.204356 
L 361.881164 110.204356 
L 361.932917 108.318152 
L 362.27958 108.318152 
L 362.342971 106.431947 
L 362.630916 106.431947 
L 362.65497 104.545743 
L 363.004534 104.545743 
L 363.004534 103.60264 
L 363.709591 103.60264 
L 363.709591 102.659538 
L 363.988746 102.659538 
L 363.988746 101.716436 
L 364.362055 101.716436 
L 364.362055 100.773333 
L 364.771946 100.773333 
L 364.792833 98.887129 
L 364.899152 98.887129 
L 364.89918 97.000924 
L 365.234006 97.000924 
L 365.234006 96.057822 
L 365.378157 96.057822 
L 365.378157 95.114719 
L 365.564944 95.114719 
L 365.564944 94.171617 
L 366.149836 94.171617 
L 366.149836 93.228515 
L 366.962834 93.228515 
L 366.962834 92.285413 
L 367.197109 92.285413 
L 367.197109 91.34231 
L 367.435013 91.34231 
L 367.435013 90.399208 
L 368.171495 90.399208 
L 368.171495 89.456106 
L 368.373353 89.456106 
L 368.447787 87.569901 
L 368.566519 87.569901 
L 368.566519 86.626799 
L 368.753268 86.626799 
L 368.753268 85.683696 
L 368.905586 85.683696 
L 368.905586 84.740594 
L 369.35837 84.740594 
L 369.466574 82.854389 
L 370.128828 82.854389 
L 370.128828 81.911287 
L 370.251703 81.911287 
L 370.296229 79.08198 
L 370.825344 79.08198 
L 370.825344 78.138878 
L 371.37674 78.138878 
L 371.37674 77.195776 
L 371.931674 77.195776 
L 371.931674 76.252673 
L 372.312835 76.252673 
L 372.380544 74.366469 
L 372.659877 74.366469 
L 372.659877 73.423366 
L 372.789409 73.423366 
L 372.789409 72.480264 
L 373.022471 72.480264 
L 373.022471 71.537162 
L 373.253771 71.537162 
L 373.253771 70.594059 
L 374.044402 70.594059 
L 374.044402 69.650957 
L 374.877843 69.650957 
L 374.877843 68.707855 
L 375.097299 68.707855 
L 375.10001 66.82165 
L 376.49802 66.82165 
L 376.49802 65.878548 
L 378.708548 65.878548 
L 378.708548 64.935446 
L 400.716546 64.935446 
L 400.716546 63.992343 
L 402.042411 63.992343 
L 402.042411 63.049241 
L 403.874062 63.049241 
L 403.964091 61.163036 
L 404.529868 61.163036 
L 404.529868 60.219934 
L 405.040091 60.219934 
L 405.040091 59.276832 
L 405.941784 59.276832 
L 405.941784 58.333729 
L 406.64043 58.333729 
L 406.702131 56.447525 
L 406.811816 56.447525 
L 406.811816 55.504422 
L 408.127467 55.504422 
L 408.127467 54.56132 
L 408.405203 54.56132 
L 408.405203 53.618218 
L 408.70252 53.618218 
L 408.70252 52.675116 
L 408.826433 52.675116 
L 408.826433 51.732013 
L 409.169607 51.732013 
L 409.169607 50.788911 
L 409.374961 50.788911 
L 409.374961 49.845809 
L 410.531707 49.845809 
L 410.531707 48.902706 
L 410.692231 48.902706 
L 410.692231 47.959604 
L 410.842971 47.959604 
L 410.842971 47.016502 
L 410.954415 47.016502 
L 410.954415 46.073399 
L 411.208277 46.073399 
L 411.293368 44.187195 
L 411.562258 44.187195 
L 411.562258 43.244092 
L 412.283967 43.244092 
L 412.283967 42.30099 
L 412.53377 42.30099 
L 412.541755 40.414785 
L 412.781048 40.414785 
L 412.855431 36.642376 
L 413.082151 36.642376 
L 413.082151 35.699274 
L 413.228474 35.699274 
L 413.281338 33.813069 
L 413.485806 33.813069 
L 413.510917 31.926865 
L 413.645549 31.926865 
L 413.645549 30.983762 
L 414.137774 30.983762 
L 414.137774 30.04066 
L 415.185851 30.04066 
L 415.29635 27.211353 
L 415.447688 27.211353 
L 415.447688 26.268251 
L 415.61948 26.268251 
L 415.698703 23.438944 
L 415.825964 23.438944 
L 415.825964 22.495842 
L 416.15768 22.495842 
L 416.223455 20.609637 
L 416.722556 20.609637 
L 416.722556 19.666535 
L 417.343432 19.666535 
L 417.343432 18.723432 
L 417.62401 18.723432 
L 417.62401 17.78033 
L 417.968063 17.78033 
L 418.033997 15.894125 
L 418.381607 15.894125 
L 418.381607 14.951023 
L 418.52089 14.951023 
L 418.52089 14.007921 
L 419.362121 14.007921 
L 419.362121 13.064818 
L 420.31601 13.064818 
L 420.31601 12.121716 
L 422.007835 12.121716 
L 422.007835 11.178614 
L 423.11391 11.178614 
L 423.11391 10.235512 
L 425.00247 10.235512 
L 425.00247 9.292409 
L 426.914713 9.292409 
L 426.914713 8.349307 
L 426.914713 8.349307 
L 450.672 8.349307 
L 450.672 8.349307 
" style="fill:none;stroke:#000000;stroke-linecap:square;stroke-width:1.5;"/>
   </g>
   <g id="line2d_27">
    <path clip-path="url(#p98e93a1082)" d="M 228.20313 291.28 
L 228.20313 290.336898 
L 229.382947 290.336898 
L 229.382947 289.393795 
L 231.064242 289.393795 
L 231.064242 288.450693 
L 233.072843 288.450693 
L 233.072843 287.507591 
L 234.584642 287.507591 
L 234.598123 285.621386 
L 235.278043 285.621386 
L 235.339903 283.735182 
L 235.424122 283.735182 
L 235.424122 282.792079 
L 235.799277 282.792079 
L 235.895204 280.905875 
L 236.127386 280.905875 
L 236.132137 279.01967 
L 236.534153 279.01967 
L 236.534153 278.076568 
L 236.692944 278.076568 
L 236.692944 277.133465 
L 236.863786 277.133465 
L 236.863786 276.190363 
L 237.237766 276.190363 
L 237.336399 273.361056 
L 237.56563 273.361056 
L 237.56563 272.417954 
L 237.794598 272.417954 
L 237.862871 270.531749 
L 237.961321 270.531749 
L 237.991062 268.645545 
L 238.92917 268.645545 
L 238.92917 267.702442 
L 239.140712 267.702442 
L 239.140712 266.75934 
L 239.298493 266.75934 
L 239.298493 265.816238 
L 239.739921 265.816238 
L 239.826945 263.930033 
L 239.901738 263.930033 
L 239.962169 262.043828 
L 240.18651 262.043828 
L 240.18651 261.100726 
L 240.349105 261.100726 
L 240.349105 260.157624 
L 240.461279 260.157624 
L 240.461279 259.214521 
L 240.902304 259.214521 
L 240.902304 258.271419 
L 241.37066 258.271419 
L 241.37066 257.328317 
L 241.482275 257.328317 
L 241.482275 256.385215 
L 241.684746 256.385215 
L 241.684746 255.442112 
L 241.826967 255.442112 
L 241.826967 254.49901 
L 241.963491 254.49901 
L 241.963491 253.555908 
L 242.324207 253.555908 
L 242.324207 252.612805 
L 242.517245 252.612805 
L 242.555187 250.726601 
L 242.680139 250.726601 
L 242.680139 249.783498 
L 243.302809 249.783498 
L 243.399678 247.897294 
L 243.801984 247.897294 
L 243.801984 246.954191 
L 244.867509 246.954191 
L 244.867509 246.011089 
L 245.590058 246.011089 
L 245.590058 245.067987 
L 246.110481 245.067987 
L 246.121493 242.23868 
L 246.312845 242.23868 
L 246.364266 240.352475 
L 246.688148 240.352475 
L 246.688148 239.409373 
L 247.526714 239.409373 
L 247.526714 238.466271 
L 247.664762 238.466271 
L 247.664762 237.523168 
L 248.88391 237.523168 
L 248.88391 236.580066 
L 249.056488 236.580066 
L 249.056488 235.636964 
L 251.325525 235.636964 
L 251.325525 234.693861 
L 258.523159 234.693861 
L 258.523159 233.750759 
L 258.89062 233.750759 
L 258.89062 232.807657 
L 259.193907 232.807657 
L 259.193907 231.864554 
L 260.492524 231.864554 
L 260.494089 229.97835 
L 261.145651 229.97835 
L 261.145651 229.035248 
L 261.350109 229.035248 
L 261.350109 228.092145 
L 261.938164 228.092145 
L 261.938164 227.149043 
L 262.248202 227.149043 
L 262.357525 225.262838 
L 263.132955 225.262838 
L 263.132955 224.319736 
L 263.477748 224.319736 
L 263.477748 223.376634 
L 263.715509 223.376634 
L 263.715509 222.433531 
L 264.30817 222.433531 
L 264.30817 221.490429 
L 265.211284 221.490429 
L 265.285556 219.604224 
L 265.39454 219.604224 
L 265.428987 217.71802 
L 265.740078 217.71802 
L 265.740078 216.774917 
L 266.033922 216.774917 
L 266.033922 215.831815 
L 266.146891 215.831815 
L 266.146891 214.888713 
L 266.317939 214.888713 
L 266.317939 213.945611 
L 266.897146 213.945611 
L 266.897146 213.002508 
L 267.425361 213.002508 
L 267.425361 212.059406 
L 268.290046 212.059406 
L 268.371152 209.230099 
L 268.781085 209.230099 
L 268.781085 208.286997 
L 269.332508 208.286997 
L 269.439071 206.400792 
L 269.825384 206.400792 
L 269.825384 205.45769 
L 272.554731 205.45769 
L 272.554731 204.514587 
L 272.98605 204.514587 
L 272.98605 203.571485 
L 273.523259 203.571485 
L 273.523259 202.628383 
L 275.04726 202.628383 
L 275.04726 201.685281 
L 275.655561 201.685281 
L 275.655561 200.742178 
L 277.189951 200.742178 
L 277.189951 199.799076 
L 277.366745 199.799076 
L 277.366745 198.855974 
L 277.647911 198.855974 
L 277.647911 197.912871 
L 278.37983 197.912871 
L 278.37983 196.969769 
L 280.836697 196.969769 
L 280.836697 196.026667 
L 280.991257 196.026667 
L 280.991257 195.083564 
L 282.572853 195.083564 
L 282.572853 194.140462 
L 282.796199 194.140462 
L 282.796199 193.19736 
L 282.952961 193.19736 
L 282.952961 192.254257 
L 283.343349 192.254257 
L 283.411625 189.42495 
L 283.598669 189.42495 
L 283.652362 187.538746 
L 283.887021 187.538746 
L 283.887021 186.595644 
L 284.058759 186.595644 
L 284.058759 185.652541 
L 284.340056 185.652541 
L 284.369391 183.766337 
L 284.68407 183.766337 
L 284.704113 181.880132 
L 284.806405 181.880132 
L 284.806405 180.93703 
L 285.039568 180.93703 
L 285.129951 178.107723 
L 285.329207 178.107723 
L 285.410795 175.278416 
L 285.66648 175.278416 
L 285.687735 173.392211 
L 285.783526 173.392211 
L 285.892775 167.733597 
L 285.942915 167.733597 
L 285.942915 166.790495 
L 286.120554 166.790495 
L 286.120554 165.847393 
L 286.24577 165.847393 
L 286.347347 162.074983 
L 286.404769 162.074983 
L 286.489232 158.302574 
L 286.578332 158.302574 
L 286.578332 157.359472 
L 286.876839 157.359472 
L 286.966947 153.587063 
L 287.074904 153.587063 
L 287.074904 152.64396 
L 287.197176 152.64396 
L 287.197176 151.700858 
L 287.640309 151.700858 
L 287.640309 150.757756 
L 287.84601 150.757756 
L 287.84601 149.814653 
L 288.031304 149.814653 
L 288.099846 147.928449 
L 288.614602 147.928449 
L 288.72446 145.099142 
L 288.766993 145.099142 
L 288.860056 143.212937 
L 288.987443 143.212937 
L 289.081547 141.326733 
L 289.232873 141.326733 
L 289.232873 140.38363 
L 289.346594 140.38363 
L 289.387038 138.497426 
L 289.680278 138.497426 
L 289.680278 137.554323 
L 289.880033 137.554323 
L 289.967017 135.668119 
L 290.031785 135.668119 
L 290.104001 133.781914 
L 290.287786 133.781914 
L 290.287786 132.838812 
L 290.439317 132.838812 
L 290.439317 131.89571 
L 290.712533 131.89571 
L 290.712533 130.952607 
L 292.505212 130.952607 
L 292.505212 130.009505 
L 293.726748 130.009505 
L 293.726748 129.066403 
L 295.559704 129.066403 
L 295.559704 128.1233 
L 296.262314 128.1233 
L 296.262314 127.180198 
L 296.443598 127.180198 
L 296.443598 126.237096 
L 296.861079 126.237096 
L 296.861079 125.293993 
L 300.10069 125.293993 
L 300.10069 124.350891 
L 305.647551 124.350891 
L 305.647551 123.407789 
L 309.517513 123.407789 
L 309.517513 122.464686 
L 314.412306 122.464686 
L 314.412306 121.521584 
L 341.56032 121.521584 
L 341.56032 120.578482 
L 346.756583 120.578482 
L 346.756583 119.63538 
L 347.342586 119.63538 
L 347.342586 118.692277 
L 348.511939 118.692277 
L 348.511939 117.749175 
L 348.87973 117.749175 
L 348.87973 116.806073 
L 351.475158 116.806073 
L 351.475158 115.86297 
L 352.458874 115.86297 
L 352.458874 114.919868 
L 353.075383 114.919868 
L 353.075383 113.976766 
L 353.922742 113.976766 
L 353.922742 113.033663 
L 354.567659 113.033663 
L 354.622209 111.147459 
L 355.295395 111.147459 
L 355.295395 110.204356 
L 355.635704 110.204356 
L 355.635704 109.261254 
L 356.149958 109.261254 
L 356.149958 108.318152 
L 356.286741 108.318152 
L 356.286741 107.37505 
L 356.405682 107.37505 
L 356.405682 106.431947 
L 356.982454 106.431947 
L 357.085502 104.545743 
L 357.68223 104.545743 
L 357.68223 103.60264 
L 357.869004 103.60264 
L 357.869004 102.659538 
L 358.315083 102.659538 
L 358.315083 101.716436 
L 358.894491 101.716436 
L 359.002734 99.830231 
L 359.359584 99.830231 
L 359.359584 98.887129 
L 359.496581 98.887129 
L 359.555316 97.000924 
L 360.202892 97.000924 
L 360.202892 96.057822 
L 360.419904 96.057822 
L 360.419904 95.114719 
L 360.691944 95.114719 
L 360.691944 94.171617 
L 360.892326 94.171617 
L 360.892326 93.228515 
L 361.099624 93.228515 
L 361.099624 92.285413 
L 361.548626 92.285413 
L 361.586786 90.399208 
L 361.694314 90.399208 
L 361.694314 89.456106 
L 362.27464 89.456106 
L 362.27464 88.513003 
L 362.652697 88.513003 
L 362.758059 86.626799 
L 362.818471 86.626799 
L 362.912271 84.740594 
L 363.160299 84.740594 
L 363.160299 83.797492 
L 363.414194 83.797492 
L 363.524987 81.911287 
L 363.593745 81.911287 
L 363.593745 80.968185 
L 363.710778 80.968185 
L 363.784518 79.08198 
L 363.856442 79.08198 
L 363.856442 78.138878 
L 364.374941 78.138878 
L 364.374941 77.195776 
L 365.378157 77.195776 
L 365.439753 74.366469 
L 365.659591 74.366469 
L 365.659591 73.423366 
L 365.839231 73.423366 
L 365.896418 71.537162 
L 366.444855 71.537162 
L 366.444855 70.594059 
L 366.606509 70.594059 
L 366.606509 69.650957 
L 368.368485 69.650957 
L 368.368485 68.707855 
L 368.905586 68.707855 
L 368.905586 67.764752 
L 369.376115 67.764752 
L 369.376115 66.82165 
L 369.899421 66.82165 
L 369.899421 65.878548 
L 370.296229 65.878548 
L 370.296229 64.935446 
L 392.90233 64.935446 
L 392.90233 63.992343 
L 397.437876 63.992343 
L 397.437876 63.049241 
L 397.679078 63.049241 
L 397.679078 62.106139 
L 398.294698 62.106139 
L 398.294698 61.163036 
L 399.177628 61.163036 
L 399.177628 60.219934 
L 399.409175 60.219934 
L 399.409175 59.276832 
L 399.736087 59.276832 
L 399.736087 58.333729 
L 400.326879 58.333729 
L 400.326879 57.390627 
L 400.712158 57.390627 
L 400.712158 56.447525 
L 400.917637 56.447525 
L 400.917637 55.504422 
L 401.321147 55.504422 
L 401.321147 54.56132 
L 401.674226 54.56132 
L 401.674226 53.618218 
L 402.30552 53.618218 
L 402.378032 51.732013 
L 403.477853 51.732013 
L 403.477853 50.788911 
L 403.674279 50.788911 
L 403.674279 49.845809 
L 403.820741 49.845809 
L 403.820741 48.902706 
L 405.68414 48.902706 
L 405.68414 47.959604 
L 405.847473 47.959604 
L 405.849462 46.073399 
L 406.501964 46.073399 
L 406.609722 43.244092 
L 407.004737 43.244092 
L 407.004737 42.30099 
L 407.611321 42.30099 
L 407.611321 41.357888 
L 407.948025 41.357888 
L 407.966434 39.471683 
L 408.127467 39.471683 
L 408.127467 38.528581 
L 408.287399 38.528581 
L 408.287399 37.585479 
L 408.405203 37.585479 
L 408.405203 36.642376 
L 408.61784 36.642376 
L 408.61784 35.699274 
L 408.824829 35.699274 
L 408.824829 34.756172 
L 409.066681 34.756172 
L 409.066681 33.813069 
L 409.213307 33.813069 
L 409.31029 31.926865 
L 409.324613 31.926865 
L 409.425964 28.154455 
L 409.608871 28.154455 
L 409.608871 27.211353 
L 409.832551 27.211353 
L 409.832551 26.268251 
L 410.593212 26.268251 
L 410.593212 25.325149 
L 410.825352 25.325149 
L 410.825352 24.382046 
L 411.208277 24.382046 
L 411.208277 23.438944 
L 411.568449 23.438944 
L 411.568449 22.495842 
L 411.726835 22.495842 
L 411.726835 21.552739 
L 411.901484 21.552739 
L 411.901484 20.609637 
L 412.103433 20.609637 
L 412.103433 19.666535 
L 412.410689 19.666535 
L 412.475617 16.837228 
L 412.813674 16.837228 
L 412.813674 15.894125 
L 413.698116 15.894125 
L 413.698116 14.951023 
L 413.86019 14.951023 
L 413.86019 14.007921 
L 415.61948 14.007921 
L 415.61948 13.064818 
L 416.318767 13.064818 
L 416.318767 12.121716 
L 416.568686 12.121716 
L 416.667488 10.235512 
L 417.33255 10.235512 
L 417.33255 9.292409 
L 418.52089 9.292409 
L 418.52089 8.349307 
L 418.52089 8.349307 
L 450.672 8.349307 
L 450.672 8.349307 
" style="fill:none;stroke:#00bfbf;stroke-linecap:square;stroke-width:1.5;"/>
   </g>
   <g id="line2d_28">
    <path clip-path="url(#p98e93a1082)" d="M 222.13748 291.28 
L 222.13748 290.336898 
L 224.189442 290.336898 
L 224.189442 289.393795 
L 224.64057 289.393795 
L 224.64057 288.450693 
L 226.284894 288.450693 
L 226.361063 286.564488 
L 226.457616 286.564488 
L 226.457616 285.621386 
L 226.862415 285.621386 
L 226.862415 284.678284 
L 227.257798 284.678284 
L 227.257798 283.735182 
L 227.38765 283.735182 
L 227.38765 282.792079 
L 227.673055 282.792079 
L 227.673055 281.848977 
L 230.164552 281.848977 
L 230.164552 280.905875 
L 231.428672 280.905875 
L 231.428672 279.962772 
L 231.622321 279.962772 
L 231.622321 279.01967 
L 231.804757 279.01967 
L 231.804757 278.076568 
L 231.957062 278.076568 
L 231.957062 277.133465 
L 232.630754 277.133465 
L 232.683097 274.304158 
L 233.024135 274.304158 
L 233.024135 273.361056 
L 233.339164 273.361056 
L 233.348076 271.474851 
L 233.603055 271.474851 
L 233.704277 268.645545 
L 233.788112 268.645545 
L 233.788112 267.702442 
L 234.672048 267.702442 
L 234.743509 264.873135 
L 235.694583 264.873135 
L 235.759623 262.986931 
L 236.180846 262.986931 
L 236.180846 262.043828 
L 236.294164 262.043828 
L 236.294164 261.100726 
L 236.665251 261.100726 
L 236.665251 260.157624 
L 237.708299 260.157624 
L 237.708299 259.214521 
L 238.094153 259.214521 
L 238.1729 257.328317 
L 239.10915 257.328317 
L 239.178238 255.442112 
L 239.311971 255.442112 
L 239.361782 253.555908 
L 240.074184 253.555908 
L 240.074184 252.612805 
L 240.274937 252.612805 
L 240.274937 251.669703 
L 240.526132 251.669703 
L 240.526132 250.726601 
L 240.650434 250.726601 
L 240.650434 249.783498 
L 240.902304 249.783498 
L 240.902304 248.840396 
L 242.324207 248.840396 
L 242.324207 247.897294 
L 242.680139 247.897294 
L 242.680139 246.954191 
L 243.801984 246.954191 
L 243.801984 246.011089 
L 244.860143 246.011089 
L 244.867509 244.124884 
L 246.110481 244.124884 
L 246.121493 241.295578 
L 246.364266 241.295578 
L 246.364266 240.352475 
L 246.688148 240.352475 
L 246.688148 239.409373 
L 247.526714 239.409373 
L 247.526714 238.466271 
L 247.664762 238.466271 
L 247.664762 237.523168 
L 248.88391 237.523168 
L 248.88391 236.580066 
L 249.056488 236.580066 
L 249.056488 235.636964 
L 251.325525 235.636964 
L 251.325525 234.693861 
L 255.668998 234.693861 
L 255.668998 233.750759 
L 257.236429 233.750759 
L 257.236429 232.807657 
L 257.751086 232.807657 
L 257.751086 231.864554 
L 258.27382 231.864554 
L 258.27382 230.921452 
L 259.077073 230.921452 
L 259.077073 229.97835 
L 259.388941 229.97835 
L 259.388941 229.035248 
L 259.839023 229.035248 
L 259.873242 227.149043 
L 260.295526 227.149043 
L 260.320202 225.262838 
L 260.433732 225.262838 
L 260.433732 224.319736 
L 260.690704 224.319736 
L 260.690704 223.376634 
L 260.859615 223.376634 
L 260.95957 221.490429 
L 261.228951 221.490429 
L 261.328079 219.604224 
L 261.480654 219.604224 
L 261.480654 218.661122 
L 261.748308 218.661122 
L 261.748308 217.71802 
L 262.066437 217.71802 
L 262.105001 215.831815 
L 262.217972 215.831815 
L 262.217972 214.888713 
L 263.210309 214.888713 
L 263.210309 213.945611 
L 263.405834 213.945611 
L 263.437629 211.116304 
L 263.864275 211.116304 
L 263.864275 210.173201 
L 264.104146 210.173201 
L 264.203499 207.343894 
L 264.30817 207.343894 
L 264.30817 206.400792 
L 264.531863 206.400792 
L 264.531863 205.45769 
L 265.129569 205.45769 
L 265.190956 203.571485 
L 265.247568 203.571485 
L 265.247568 202.628383 
L 265.39454 202.628383 
L 265.39454 201.685281 
L 265.507291 201.685281 
L 265.585132 199.799076 
L 265.740078 199.799076 
L 265.740078 198.855974 
L 266.023865 198.855974 
L 266.038015 196.969769 
L 266.146891 196.969769 
L 266.196578 195.083564 
L 266.470032 195.083564 
L 266.528512 193.19736 
L 266.897146 193.19736 
L 266.897146 192.254257 
L 267.669535 192.254257 
L 267.669535 191.311155 
L 268.640927 191.311155 
L 268.640927 190.368053 
L 269.332508 190.368053 
L 269.332508 189.42495 
L 270.24786 189.42495 
L 270.24786 188.481848 
L 275.04726 188.481848 
L 275.04726 187.538746 
L 275.655561 187.538746 
L 275.655561 186.595644 
L 277.362553 186.595644 
L 277.366745 184.709439 
L 277.647911 184.709439 
L 277.647911 183.766337 
L 279.075708 183.766337 
L 279.075708 182.823234 
L 279.919308 182.823234 
L 279.919308 181.880132 
L 280.126343 181.880132 
L 280.126343 180.93703 
L 280.498462 180.93703 
L 280.498462 179.993927 
L 280.836697 179.993927 
L 280.836697 179.050825 
L 281.542358 179.050825 
L 281.602736 176.221518 
L 282.16296 176.221518 
L 282.16296 175.278416 
L 282.371209 175.278416 
L 282.413405 173.392211 
L 282.554944 173.392211 
L 282.598717 171.506007 
L 282.838667 171.506007 
L 282.838667 170.562904 
L 283.034 170.562904 
L 283.034 169.619802 
L 283.244328 169.619802 
L 283.345545 167.733597 
L 283.411625 167.733597 
L 283.412958 165.847393 
L 283.531398 165.847393 
L 283.550271 163.961188 
L 283.703218 163.961188 
L 283.741004 162.074983 
L 283.848586 162.074983 
L 283.849306 160.188779 
L 284.064327 160.188779 
L 284.064327 159.245677 
L 284.589971 159.245677 
L 284.643764 157.359472 
L 284.790631 157.359472 
L 284.848878 154.530165 
L 284.934346 154.530165 
L 284.934346 153.587063 
L 285.07113 153.587063 
L 285.086699 151.700858 
L 285.200028 151.700858 
L 285.295552 146.985347 
L 285.603942 146.985347 
L 285.66648 145.099142 
L 285.768785 145.099142 
L 285.768785 144.15604 
L 285.902827 144.15604 
L 285.906497 142.269835 
L 286.218367 142.269835 
L 286.218367 141.326733 
L 286.954824 141.326733 
L 286.954824 140.38363 
L 287.388096 140.38363 
L 287.388096 139.440528 
L 287.78414 139.440528 
L 287.84601 137.554323 
L 287.933898 137.554323 
L 287.933898 136.611221 
L 288.049597 136.611221 
L 288.049597 135.668119 
L 288.628628 135.668119 
L 288.72446 133.781914 
L 288.766993 133.781914 
L 288.766993 132.838812 
L 289.081547 132.838812 
L 289.081547 131.89571 
L 289.232873 131.89571 
L 289.232873 130.952607 
L 289.346594 130.952607 
L 289.387038 129.066403 
L 289.680278 129.066403 
L 289.680278 128.1233 
L 289.967017 128.1233 
L 290.031785 126.237096 
L 290.104001 126.237096 
L 290.104001 125.293993 
L 290.287786 125.293993 
L 290.287786 124.350891 
L 290.712533 124.350891 
L 290.712533 123.407789 
L 295.559704 123.407789 
L 295.559704 122.464686 
L 296.262314 122.464686 
L 296.262314 121.521584 
L 333.817284 121.521584 
L 333.817284 120.578482 
L 335.378651 120.578482 
L 335.378651 119.63538 
L 337.867838 119.63538 
L 337.867838 118.692277 
L 338.764868 118.692277 
L 338.773186 116.806073 
L 338.973564 116.806073 
L 338.973564 115.86297 
L 339.495282 115.86297 
L 339.495282 114.919868 
L 339.720663 114.919868 
L 339.720663 113.976766 
L 339.930754 113.976766 
L 339.930754 113.033663 
L 341.320608 113.033663 
L 341.328622 111.147459 
L 341.611276 111.147459 
L 341.611276 110.204356 
L 344.56003 110.204356 
L 344.56003 109.261254 
L 346.094554 109.261254 
L 346.094554 108.318152 
L 346.244469 108.318152 
L 346.244469 107.37505 
L 346.490331 107.37505 
L 346.490331 106.431947 
L 347.158418 106.431947 
L 347.158418 105.488845 
L 347.430916 105.488845 
L 347.430916 104.545743 
L 347.715521 104.545743 
L 347.788126 102.659538 
L 347.950062 102.659538 
L 347.950062 101.716436 
L 348.511939 101.716436 
L 348.511939 100.773333 
L 349.703673 100.773333 
L 349.703673 99.830231 
L 350.214983 99.830231 
L 350.249735 97.944026 
L 350.33297 97.944026 
L 350.33297 97.000924 
L 351.366763 97.000924 
L 351.366763 96.057822 
L 352.506694 96.057822 
L 352.56042 94.171617 
L 354.165351 94.171617 
L 354.165351 93.228515 
L 354.311968 93.228515 
L 354.311968 92.285413 
L 356.184451 92.285413 
L 356.286741 90.399208 
L 356.982454 90.399208 
L 357.045089 88.513003 
L 357.689681 88.513003 
L 357.689681 87.569901 
L 358.300083 87.569901 
L 358.315083 85.683696 
L 358.751676 85.683696 
L 358.751676 84.740594 
L 358.894491 84.740594 
L 358.990161 81.911287 
L 359.84338 81.911287 
L 359.84338 80.968185 
L 360.683371 80.968185 
L 360.683371 80.025083 
L 360.92201 80.025083 
L 360.960511 78.138878 
L 361.048707 78.138878 
L 361.048707 77.195776 
L 362.758059 77.195776 
L 362.818471 75.309571 
L 362.912271 75.309571 
L 362.914882 73.423366 
L 363.642003 73.423366 
L 363.710778 71.537162 
L 365.378157 71.537162 
L 365.471421 68.707855 
L 368.368485 68.707855 
L 368.368485 67.764752 
L 368.905586 67.764752 
L 368.905586 66.82165 
L 369.899421 66.82165 
L 369.899421 65.878548 
L 370.296229 65.878548 
L 370.296229 64.935446 
L 384.839621 64.935446 
L 384.839621 63.992343 
L 388.112375 63.992343 
L 388.112375 63.049241 
L 388.805374 63.049241 
L 388.805374 62.106139 
L 391.312527 62.106139 
L 391.312527 61.163036 
L 391.488962 61.163036 
L 391.488962 60.219934 
L 392.430225 60.219934 
L 392.430225 59.276832 
L 393.942262 59.276832 
L 393.942262 58.333729 
L 394.923365 58.333729 
L 394.924427 56.447525 
L 395.431108 56.447525 
L 395.431108 55.504422 
L 395.615398 55.504422 
L 395.615398 54.56132 
L 396.743402 54.56132 
L 396.743402 53.618218 
L 397.102676 53.618218 
L 397.102676 52.675116 
L 397.845926 52.675116 
L 397.845926 51.732013 
L 398.199144 51.732013 
L 398.199144 50.788911 
L 398.492179 50.788911 
L 398.576163 48.902706 
L 399.164778 48.902706 
L 399.27562 46.073399 
L 400.057251 46.073399 
L 400.057251 45.130297 
L 400.559024 45.130297 
L 400.559024 44.187195 
L 400.913123 44.187195 
L 400.913123 43.244092 
L 402.644889 43.244092 
L 402.741556 41.357888 
L 403.145885 41.357888 
L 403.145885 40.414785 
L 403.401888 40.414785 
L 403.401888 39.471683 
L 403.710469 39.471683 
L 403.710469 38.528581 
L 404.13876 38.528581 
L 404.192493 36.642376 
L 404.534543 36.642376 
L 404.570541 34.756172 
L 405.943121 34.756172 
L 405.943121 33.813069 
L 406.252656 33.813069 
L 406.252656 32.869967 
L 406.560935 32.869967 
L 406.639762 30.983762 
L 406.962296 30.983762 
L 406.96496 29.097558 
L 407.398341 29.097558 
L 407.398341 28.154455 
L 407.6274 28.154455 
L 407.6274 27.211353 
L 407.995194 27.211353 
L 407.995194 26.268251 
L 408.127467 26.268251 
L 408.127467 25.325149 
L 408.405203 25.325149 
L 408.405203 24.382046 
L 408.608198 24.382046 
L 408.608198 23.438944 
L 408.982646 23.438944 
L 408.982646 22.495842 
L 409.324613 22.495842 
L 409.324613 21.552739 
L 410.485894 21.552739 
L 410.485894 20.609637 
L 410.7706 20.609637 
L 410.825352 18.723432 
L 411.208277 18.723432 
L 411.208277 17.78033 
L 411.568449 17.78033 
L 411.568449 16.837228 
L 411.726835 16.837228 
L 411.726835 15.894125 
L 412.475617 15.894125 
L 412.475617 14.951023 
L 412.813674 14.951023 
L 412.813674 14.007921 
L 413.86019 14.007921 
L 413.86019 13.064818 
L 415.61948 13.064818 
L 415.61948 12.121716 
L 416.568686 12.121716 
L 416.667488 10.235512 
L 417.33255 10.235512 
L 417.33255 9.292409 
L 418.52089 9.292409 
L 418.52089 8.349307 
L 418.52089 8.349307 
L 450.672 8.349307 
L 450.672 8.349307 
" style="fill:none;stroke:#bf00bf;stroke-linecap:square;stroke-width:1.5;"/>
   </g>
   <g id="line2d_29">
    <path clip-path="url(#p98e93a1082)" d="M 219.506857 291.28 
L 219.506857 290.336898 
L 220.568346 290.336898 
L 220.568346 289.393795 
L 220.980687 289.393795 
L 220.980687 288.450693 
L 221.406779 288.450693 
L 221.406779 287.507591 
L 223.153145 287.507591 
L 223.153145 286.564488 
L 223.693872 286.564488 
L 223.693872 285.621386 
L 225.709271 285.621386 
L 225.709271 284.678284 
L 225.883126 284.678284 
L 225.883126 283.735182 
L 226.250491 283.735182 
L 226.285215 281.848977 
L 226.578793 281.848977 
L 226.578793 280.905875 
L 226.946104 280.905875 
L 226.946104 279.962772 
L 227.11392 279.962772 
L 227.11392 279.01967 
L 227.791221 279.01967 
L 227.85626 277.133465 
L 228.420559 277.133465 
L 228.420559 276.190363 
L 229.169882 276.190363 
L 229.272759 272.417954 
L 229.447422 272.417954 
L 229.539542 270.531749 
L 230.194579 270.531749 
L 230.194579 269.588647 
L 230.603861 269.588647 
L 230.646766 267.702442 
L 231.427841 267.702442 
L 231.427841 266.75934 
L 232.361256 266.75934 
L 232.382633 264.873135 
L 232.557386 264.873135 
L 232.557386 263.930033 
L 232.812755 263.930033 
L 232.812755 262.986931 
L 233.029551 262.986931 
L 233.107681 261.100726 
L 233.188715 261.100726 
L 233.26128 259.214521 
L 233.392745 259.214521 
L 233.392745 258.271419 
L 234.043599 258.271419 
L 234.043599 257.328317 
L 234.838106 257.328317 
L 234.838106 256.385215 
L 234.980544 256.385215 
L 234.980544 255.442112 
L 235.298708 255.442112 
L 235.298708 254.49901 
L 235.530272 254.49901 
L 235.530272 253.555908 
L 235.884809 253.555908 
L 235.884809 252.612805 
L 236.041674 252.612805 
L 236.041674 251.669703 
L 236.2316 251.669703 
L 236.2316 250.726601 
L 236.495597 250.726601 
L 236.495597 249.783498 
L 239.124389 249.783498 
L 239.124389 248.840396 
L 240.902304 248.840396 
L 240.902304 247.897294 
L 242.324207 247.897294 
L 242.324207 246.954191 
L 242.680139 246.954191 
L 242.680139 246.011089 
L 243.801984 246.011089 
L 243.801984 245.067987 
L 244.867509 245.067987 
L 244.867509 244.124884 
L 246.110481 244.124884 
L 246.121493 241.295578 
L 246.364266 241.295578 
L 246.364266 240.352475 
L 246.688148 240.352475 
L 246.688148 239.409373 
L 247.526714 239.409373 
L 247.526714 238.466271 
L 247.664762 238.466271 
L 247.664762 237.523168 
L 248.88391 237.523168 
L 248.88391 236.580066 
L 249.056488 236.580066 
L 249.056488 235.636964 
L 251.325525 235.636964 
L 251.325525 234.693861 
L 255.428807 234.693861 
L 255.428807 233.750759 
L 256.274045 233.750759 
L 256.274045 232.807657 
L 256.728014 232.807657 
L 256.728014 231.864554 
L 257.637786 231.864554 
L 257.637786 230.921452 
L 258.367977 230.921452 
L 258.367977 229.97835 
L 258.649012 229.97835 
L 258.649012 229.035248 
L 259.512053 229.035248 
L 259.617086 227.149043 
L 259.640585 227.149043 
L 259.67547 225.262838 
L 259.752184 225.262838 
L 259.817172 223.376634 
L 260.196578 223.376634 
L 260.248864 221.490429 
L 260.574085 221.490429 
L 260.574085 220.547327 
L 260.976946 220.547327 
L 261.026099 218.661122 
L 261.29555 218.661122 
L 261.296546 216.774917 
L 261.572167 216.774917 
L 261.572167 215.831815 
L 261.892895 215.831815 
L 261.892895 214.888713 
L 262.436206 214.888713 
L 262.436206 213.945611 
L 262.679869 213.945611 
L 262.679869 213.002508 
L 262.945639 213.002508 
L 262.959597 211.116304 
L 263.192326 211.116304 
L 263.250179 209.230099 
L 263.579707 209.230099 
L 263.579707 208.286997 
L 263.730067 208.286997 
L 263.730067 207.343894 
L 263.927434 207.343894 
L 263.927434 206.400792 
L 264.30817 206.400792 
L 264.333167 204.514587 
L 264.520136 204.514587 
L 264.580609 202.628383 
L 264.725451 202.628383 
L 264.725451 201.685281 
L 265.078074 201.685281 
L 265.078074 200.742178 
L 265.236947 200.742178 
L 265.309177 198.855974 
L 265.382004 198.855974 
L 265.398041 196.026667 
L 265.740078 196.026667 
L 265.740078 195.083564 
L 265.962979 195.083564 
L 265.962979 194.140462 
L 266.146891 194.140462 
L 266.146891 193.19736 
L 266.267203 193.19736 
L 266.267203 192.254257 
L 266.765043 192.254257 
L 266.765043 191.311155 
L 266.897146 191.311155 
L 266.897146 190.368053 
L 267.067054 190.368053 
L 267.067054 189.42495 
L 267.53655 189.42495 
L 267.53655 188.481848 
L 268.124447 188.481848 
L 268.124447 187.538746 
L 269.332508 187.538746 
L 269.332508 186.595644 
L 274.359847 186.595644 
L 274.359847 185.652541 
L 275.04726 185.652541 
L 275.04726 184.709439 
L 275.655561 184.709439 
L 275.655561 183.766337 
L 277.270798 183.766337 
L 277.366745 181.880132 
L 277.647911 181.880132 
L 277.647911 180.93703 
L 278.460096 180.93703 
L 278.551839 178.107723 
L 279.084434 178.107723 
L 279.16115 176.221518 
L 279.600672 176.221518 
L 279.600672 175.278416 
L 279.839683 175.278416 
L 279.839683 174.335314 
L 279.964484 174.335314 
L 279.964484 173.392211 
L 280.078049 173.392211 
L 280.078049 172.449109 
L 280.22657 172.449109 
L 280.289176 170.562904 
L 280.555478 170.562904 
L 280.555478 169.619802 
L 280.836697 169.619802 
L 280.836697 168.6767 
L 281.113705 168.6767 
L 281.174634 164.90429 
L 281.312869 164.90429 
L 281.312869 163.961188 
L 281.651834 163.961188 
L 281.651834 163.018086 
L 281.781503 163.018086 
L 281.794137 160.188779 
L 281.921786 160.188779 
L 282.016654 158.302574 
L 282.042347 158.302574 
L 282.042347 157.359472 
L 282.247165 157.359472 
L 282.339053 155.473267 
L 282.440416 155.473267 
L 282.533498 153.587063 
L 282.613159 153.587063 
L 282.652178 151.700858 
L 282.880925 151.700858 
L 282.916648 148.871551 
L 283.128571 148.871551 
L 283.158032 146.985347 
L 283.411625 146.985347 
L 283.464402 145.099142 
L 285.149053 145.099142 
L 285.247487 142.269835 
L 285.313108 142.269835 
L 285.313108 141.326733 
L 285.558639 141.326733 
L 285.66648 138.497426 
L 285.831645 138.497426 
L 285.831645 137.554323 
L 286.954824 137.554323 
L 286.954824 136.611221 
L 287.84601 136.611221 
L 287.84601 135.668119 
L 288.628628 135.668119 
L 288.72446 133.781914 
L 288.766993 133.781914 
L 288.766993 132.838812 
L 289.081547 132.838812 
L 289.081547 131.89571 
L 289.232873 131.89571 
L 289.232873 130.952607 
L 289.346594 130.952607 
L 289.387038 129.066403 
L 289.680278 129.066403 
L 289.680278 128.1233 
L 289.967017 128.1233 
L 290.031785 126.237096 
L 290.104001 126.237096 
L 290.104001 125.293993 
L 290.287786 125.293993 
L 290.287786 124.350891 
L 290.712533 124.350891 
L 290.712533 123.407789 
L 295.559704 123.407789 
L 295.559704 122.464686 
L 296.262314 122.464686 
L 296.262314 121.521584 
L 318.905792 121.521584 
L 318.905792 120.578482 
L 328.835844 120.578482 
L 328.835844 119.63538 
L 329.456117 119.63538 
L 329.456117 118.692277 
L 330.342387 118.692277 
L 330.342387 117.749175 
L 331.914464 117.749175 
L 331.999774 115.86297 
L 332.832176 115.86297 
L 332.832176 114.919868 
L 333.046959 114.919868 
L 333.046959 113.976766 
L 333.771519 113.976766 
L 333.771519 113.033663 
L 333.938866 113.033663 
L 333.938866 112.090561 
L 335.447061 112.090561 
L 335.447061 111.147459 
L 335.887429 111.147459 
L 335.887429 110.204356 
L 336.100255 110.204356 
L 336.100255 109.261254 
L 336.753624 109.261254 
L 336.848956 107.37505 
L 337.144051 107.37505 
L 337.144051 106.431947 
L 337.684108 106.431947 
L 337.684108 105.488845 
L 337.948045 105.488845 
L 337.948045 104.545743 
L 338.231343 104.545743 
L 338.231343 103.60264 
L 339.040514 103.60264 
L 339.040514 102.659538 
L 339.87865 102.659538 
L 339.87865 101.716436 
L 340.125535 101.716436 
L 340.125535 100.773333 
L 340.455658 100.773333 
L 340.46627 98.887129 
L 342.714137 98.887129 
L 342.714137 97.944026 
L 343.317683 97.944026 
L 343.317683 97.000924 
L 344.504146 97.000924 
L 344.504146 96.057822 
L 345.300269 96.057822 
L 345.300269 95.114719 
L 345.442176 95.114719 
L 345.525499 92.285413 
L 346.724983 92.285413 
L 346.724983 91.34231 
L 347.674296 91.34231 
L 347.674296 90.399208 
L 348.061536 90.399208 
L 348.105072 88.513003 
L 348.511939 88.513003 
L 348.511939 87.569901 
L 349.178553 87.569901 
L 349.237224 85.683696 
L 349.578483 85.683696 
L 349.578483 84.740594 
L 350.164227 84.740594 
L 350.164227 83.797492 
L 350.870813 83.797492 
L 350.870813 82.854389 
L 351.183285 82.854389 
L 351.183285 81.911287 
L 352.277095 81.911287 
L 352.277095 80.968185 
L 353.686079 80.968185 
L 353.686079 80.025083 
L 355.001913 80.025083 
L 355.001913 79.08198 
L 356.286741 79.08198 
L 356.286741 78.138878 
L 356.982454 78.138878 
L 356.982454 77.195776 
L 357.31506 77.195776 
L 357.31506 76.252673 
L 358.315083 76.252673 
L 358.315083 75.309571 
L 358.894491 75.309571 
L 358.894491 74.366469 
L 362.758059 74.366469 
L 362.818471 72.480264 
L 362.912271 72.480264 
L 362.912271 71.537162 
L 363.710778 71.537162 
L 363.710778 70.594059 
L 365.378157 70.594059 
L 365.432448 68.707855 
L 368.368485 68.707855 
L 368.368485 67.764752 
L 368.905586 67.764752 
L 368.905586 66.82165 
L 369.899421 66.82165 
L 369.899421 65.878548 
L 370.296229 65.878548 
L 370.296229 64.935446 
L 376.537911 64.935446 
L 376.537911 63.992343 
L 380.037701 63.992343 
L 380.037701 63.049241 
L 383.12526 63.049241 
L 383.12526 62.106139 
L 383.480724 62.106139 
L 383.480724 61.163036 
L 384.536931 61.163036 
L 384.536931 60.219934 
L 385.930857 60.219934 
L 385.930857 59.276832 
L 387.740701 59.276832 
L 387.74779 57.390627 
L 390.354127 57.390627 
L 390.354127 56.447525 
L 390.77394 56.447525 
L 390.77394 55.504422 
L 392.011723 55.504422 
L 392.011723 54.56132 
L 392.4855 54.56132 
L 392.559878 52.675116 
L 393.941947 52.675116 
L 393.941947 51.732013 
L 394.112981 51.732013 
L 394.112981 50.788911 
L 394.561016 50.788911 
L 394.561016 49.845809 
L 394.824967 49.845809 
L 394.824967 48.902706 
L 395.715121 48.902706 
L 395.715121 47.959604 
L 395.831614 47.959604 
L 395.831614 47.016502 
L 396.164944 47.016502 
L 396.164944 46.073399 
L 397.102461 46.073399 
L 397.116739 44.187195 
L 397.507916 44.187195 
L 397.507916 43.244092 
L 397.800188 43.244092 
L 397.843906 41.357888 
L 398.456993 41.357888 
L 398.552451 39.471683 
L 399.046122 39.471683 
L 399.046122 38.528581 
L 399.325035 38.528581 
L 399.371259 36.642376 
L 399.79835 36.642376 
L 399.79835 35.699274 
L 400.207026 35.699274 
L 400.207026 34.756172 
L 400.513797 34.756172 
L 400.513797 33.813069 
L 401.119879 33.813069 
L 401.119879 32.869967 
L 402.149575 32.869967 
L 402.165326 30.983762 
L 402.402932 30.983762 
L 402.485204 29.097558 
L 402.623921 29.097558 
L 402.623921 28.154455 
L 403.130275 28.154455 
L 403.130275 27.211353 
L 403.290656 27.211353 
L 403.290656 26.268251 
L 403.695668 26.268251 
L 403.695668 25.325149 
L 405.537404 25.325149 
L 405.537404 24.382046 
L 405.717527 24.382046 
L 405.717527 23.438944 
L 405.982104 23.438944 
L 405.982104 22.495842 
L 408.127467 22.495842 
L 408.127467 21.552739 
L 408.405203 21.552739 
L 408.405203 20.609637 
L 409.324613 20.609637 
L 409.324613 19.666535 
L 410.825352 19.666535 
L 410.825352 18.723432 
L 411.208277 18.723432 
L 411.208277 17.78033 
L 411.568449 17.78033 
L 411.568449 16.837228 
L 411.726835 16.837228 
L 411.726835 15.894125 
L 412.475617 15.894125 
L 412.475617 14.951023 
L 412.813674 14.951023 
L 412.813674 14.007921 
L 413.86019 14.007921 
L 413.86019 13.064818 
L 415.61948 13.064818 
L 415.61948 12.121716 
L 416.568686 12.121716 
L 416.667488 10.235512 
L 417.33255 10.235512 
L 417.33255 9.292409 
L 418.52089 9.292409 
L 418.52089 8.349307 
L 418.52089 8.349307 
L 450.672 8.349307 
L 450.672 8.349307 
" style="fill:none;stroke:#000000;stroke-linecap:square;stroke-width:1.5;"/>
   </g>
   <g id="patch_3">
    <path d="M 5.52 291.28 
L 5.52 5.52 
" style="fill:none;stroke:#000000;stroke-linecap:square;stroke-linejoin:miter;stroke-width:0.8;"/>
   </g>
   <g id="patch_4">
    <path d="M 450.672 291.28 
L 450.672 5.52 
" style="fill:none;stroke:#000000;stroke-linecap:square;stroke-linejoin:miter;stroke-width:0.8;"/>
   </g>
   <g id="patch_5">
    <path d="M 5.52 291.28 
L 450.672 291.28 
" style="fill:none;stroke:#000000;stroke-linecap:square;stroke-linejoin:miter;stroke-width:0.8;"/>
   </g>
   <g id="patch_6">
    <path d="M 5.52 5.52 
L 450.672 5.52 
" style="fill:none;stroke:#000000;stroke-linecap:square;stroke-linejoin:miter;stroke-width:0.8;"/>
   </g>
   <g id="text_6">
    <!-- {f10-f14}, 20-D -->
    <defs>
     <path d="M 51.125 -9.28125 
L 51.125 -16.3125 
L 48.09375 -16.3125 
Q 35.9375 -16.3125 31.8125 -12.6875 
Q 27.6875 -9.078125 27.6875 1.703125 
L 27.6875 13.375 
Q 27.6875 20.75 25.046875 23.578125 
Q 22.40625 26.421875 15.484375 26.421875 
L 12.5 26.421875 
L 12.5 33.40625 
L 15.484375 33.40625 
Q 22.46875 33.40625 25.078125 36.203125 
Q 27.6875 39.015625 27.6875 46.296875 
L 27.6875 58.015625 
Q 27.6875 68.796875 31.8125 72.390625 
Q 35.9375 75.984375 48.09375 75.984375 
L 51.125 75.984375 
L 51.125 69 
L 47.796875 69 
Q 40.921875 69 38.8125 66.84375 
Q 36.71875 64.703125 36.71875 57.8125 
L 36.71875 45.703125 
Q 36.71875 38.03125 34.5 34.5625 
Q 32.28125 31.109375 26.90625 29.890625 
Q 32.328125 28.5625 34.515625 25.09375 
Q 36.71875 21.625 36.71875 14.015625 
L 36.71875 1.90625 
Q 36.71875 -4.984375 38.8125 -7.125 
Q 40.921875 -9.28125 47.796875 -9.28125 
z
" id="DejaVuSans-7b"/>
     <path d="M 12.5 -9.28125 
L 15.921875 -9.28125 
Q 22.75 -9.28125 24.828125 -7.171875 
Q 26.90625 -5.078125 26.90625 1.90625 
L 26.90625 14.015625 
Q 26.90625 21.625 29.09375 25.09375 
Q 31.296875 28.5625 36.71875 29.890625 
Q 31.296875 31.109375 29.09375 34.5625 
Q 26.90625 38.03125 26.90625 45.703125 
L 26.90625 57.8125 
Q 26.90625 64.75 24.828125 66.875 
Q 22.75 69 15.921875 69 
L 12.5 69 
L 12.5 75.984375 
L 15.578125 75.984375 
Q 27.734375 75.984375 31.8125 72.390625 
Q 35.890625 68.796875 35.890625 58.015625 
L 35.890625 46.296875 
Q 35.890625 39.015625 38.515625 36.203125 
Q 41.15625 33.40625 48.09375 33.40625 
L 51.125 33.40625 
L 51.125 26.421875 
L 48.09375 26.421875 
Q 41.15625 26.421875 38.515625 23.578125 
Q 35.890625 20.75 35.890625 13.375 
L 35.890625 1.703125 
Q 35.890625 -9.078125 31.8125 -12.6875 
Q 27.734375 -16.3125 15.578125 -16.3125 
L 12.5 -16.3125 
z
" id="DejaVuSans-7d"/>
     <path d="M 11.71875 12.40625 
L 22.015625 12.40625 
L 22.015625 4 
L 14.015625 -11.625 
L 7.71875 -11.625 
L 11.71875 4 
z
" id="DejaVuSans-2c"/>
     <path d="M 19.1875 8.296875 
L 53.609375 8.296875 
L 53.609375 0 
L 7.328125 0 
L 7.328125 8.296875 
Q 12.9375 14.109375 22.625 23.890625 
Q 32.328125 33.6875 34.8125 36.53125 
Q 39.546875 41.84375 41.421875 45.53125 
Q 43.3125 49.21875 43.3125 52.78125 
Q 43.3125 58.59375 39.234375 62.25 
Q 35.15625 65.921875 28.609375 65.921875 
Q 23.96875 65.921875 18.8125 64.3125 
Q 13.671875 62.703125 7.8125 59.421875 
L 7.8125 69.390625 
Q 13.765625 71.78125 18.9375 73 
Q 24.125 74.21875 28.421875 74.21875 
Q 39.75 74.21875 46.484375 68.546875 
Q 53.21875 62.890625 53.21875 53.421875 
Q 53.21875 48.921875 51.53125 44.890625 
Q 49.859375 40.875 45.40625 35.40625 
Q 44.1875 33.984375 37.640625 27.21875 
Q 31.109375 20.453125 19.1875 8.296875 
z
" id="DejaVuSans-32"/>
    </defs>
    <g transform="translate(283.34396 285.5648)scale(0.2 -0.2)">
     <use xlink:href="#DejaVuSans-7b"/>
     <use x="63.623047" xlink:href="#DejaVuSans-66"/>
     <use x="98.828125" xlink:href="#DejaVuSans-31"/>
     <use x="162.451172" xlink:href="#DejaVuSans-30"/>
     <use x="226.074219" xlink:href="#DejaVuSans-2d"/>
     <use x="262.158203" xlink:href="#DejaVuSans-66"/>
     <use x="297.363281" xlink:href="#DejaVuSans-31"/>
     <use x="360.986328" xlink:href="#DejaVuSans-34"/>
     <use x="424.609375" xlink:href="#DejaVuSans-7d"/>
     <use x="488.232422" xlink:href="#DejaVuSans-2c"/>
     <use x="520.019531" xlink:href="#DejaVuSans-20"/>
     <use x="551.806641" xlink:href="#DejaVuSans-32"/>
     <use x="615.429688" xlink:href="#DejaVuSans-30"/>
     <use x="679.052734" xlink:href="#DejaVuSans-2d"/>
     <use x="715.136719" xlink:href="#DejaVuSans-44"/>
    </g>
   </g>
   <g id="text_7">
    <!-- v2.2.1.10 -->
    <defs>
     <path d="M 2.984375 54.6875 
L 12.5 54.6875 
L 29.59375 8.796875 
L 46.6875 54.6875 
L 56.203125 54.6875 
L 35.6875 0 
L 23.484375 0 
z
" id="DejaVuSans-76"/>
     <path d="M 10.6875 12.40625 
L 21 12.40625 
L 21 0 
L 10.6875 0 
z
" id="DejaVuSans-2e"/>
    </defs>
    <g style="fill:#808080;" transform="translate(204.463188 286.342713)scale(0.1 -0.1)">
     <use xlink:href="#DejaVuSans-76"/>
     <use x="59.179688" xlink:href="#DejaVuSans-32"/>
     <use x="122.802734" xlink:href="#DejaVuSans-2e"/>
     <use x="154.589844" xlink:href="#DejaVuSans-32"/>
     <use x="218.212891" xlink:href="#DejaVuSans-2e"/>
     <use x="250" xlink:href="#DejaVuSans-31"/>
     <use x="313.623047" xlink:href="#DejaVuSans-2e"/>
     <use x="345.410156" xlink:href="#DejaVuSans-31"/>
     <use x="409.033203" xlink:href="#DejaVuSans-30"/>
    </g>
   </g>
  </g>
 </g>
 <defs>
  <clipPath id="p98e93a1082">
   <rect height="285.76" width="445.152" x="5.52" y="5.52"/>
  </clipPath>
 </defs>
</svg>
