<?xml version="1.0" encoding="utf-8" standalone="no"?>
<!DOCTYPE svg PUBLIC "-//W3C//DTD SVG 1.1//EN"
  "http://www.w3.org/Graphics/SVG/1.1/DTD/svg11.dtd">
<!-- Created with matplotlib (http://matplotlib.org/) -->
<svg height="345.6pt" version="1.1" viewBox="0 0 460.8 345.6" width="460.8pt" xmlns="http://www.w3.org/2000/svg" xmlns:xlink="http://www.w3.org/1999/xlink">
 <defs>
  <style type="text/css">
*{stroke-linecap:butt;stroke-linejoin:round;}
  </style>
 </defs>
 <g id="figure_1">
  <g id="patch_1">
   <path d="M 0 345.6 
L 460.8 345.6 
L 460.8 0 
L 0 0 
z
" style="fill:#ffffff;"/>
  </g>
  <g id="axes_1">
   <g id="patch_2">
    <path d="M 5.52 291.28 
L 450.672 291.28 
L 450.672 5.52 
L 5.52 5.52 
z
" style="fill:#ffffff;"/>
   </g>
   <g id="matplotlib.axis_1">
    <g id="xtick_1">
     <g id="line2d_1">
      <path clip-path="url(#p42f7920d59)" d="M 5.413143 291.28 
L 5.413143 5.52 
" style="fill:none;stroke:#b0b0b0;stroke-linecap:square;stroke-width:0.8;"/>
     </g>
     <g id="line2d_2">
      <defs>
       <path d="M 0 0 
L 0 3.5 
" id="m0a3055e43c" style="stroke:#000000;stroke-width:0.8;"/>
      </defs>
      <g>
       <use style="stroke:#000000;stroke-width:0.8;" x="5.413143" xlink:href="#m0a3055e43c" y="291.28"/>
      </g>
     </g>
    </g>
    <g id="xtick_2">
     <g id="line2d_3">
      <path clip-path="url(#p42f7920d59)" d="M 104.323017 291.28 
L 104.323017 5.52 
" style="fill:none;stroke:#b0b0b0;stroke-linecap:square;stroke-width:0.8;"/>
     </g>
     <g id="line2d_4">
      <g>
       <use style="stroke:#000000;stroke-width:0.8;" x="104.323017" xlink:href="#m0a3055e43c" y="291.28"/>
      </g>
     </g>
     <g id="text_1">
      <!-- -4 -->
      <defs>
       <path d="M 4.890625 31.390625 
L 31.203125 31.390625 
L 31.203125 23.390625 
L 4.890625 23.390625 
z
" id="DejaVuSans-2d"/>
       <path d="M 37.796875 64.3125 
L 12.890625 25.390625 
L 37.796875 25.390625 
z
M 35.203125 72.90625 
L 47.609375 72.90625 
L 47.609375 25.390625 
L 58.015625 25.390625 
L 58.015625 17.1875 
L 47.609375 17.1875 
L 47.609375 0 
L 37.796875 0 
L 37.796875 17.1875 
L 4.890625 17.1875 
L 4.890625 26.703125 
z
" id="DejaVuSans-34"/>
      </defs>
      <g transform="translate(94.352704 313.476875)scale(0.2 -0.2)">
       <use xlink:href="#DejaVuSans-2d"/>
       <use x="36.083984" xlink:href="#DejaVuSans-34"/>
      </g>
     </g>
    </g>
    <g id="xtick_3">
     <g id="line2d_5">
      <path clip-path="url(#p42f7920d59)" d="M 203.23289 291.28 
L 203.23289 5.52 
" style="fill:none;stroke:#b0b0b0;stroke-linecap:square;stroke-width:0.8;"/>
     </g>
     <g id="line2d_6">
      <g>
       <use style="stroke:#000000;stroke-width:0.8;" x="203.23289" xlink:href="#m0a3055e43c" y="291.28"/>
      </g>
     </g>
     <g id="text_2">
      <!-- 0 -->
      <defs>
       <path d="M 31.78125 66.40625 
Q 24.171875 66.40625 20.328125 58.90625 
Q 16.5 51.421875 16.5 36.375 
Q 16.5 21.390625 20.328125 13.890625 
Q 24.171875 6.390625 31.78125 6.390625 
Q 39.453125 6.390625 43.28125 13.890625 
Q 47.125 21.390625 47.125 36.375 
Q 47.125 51.421875 43.28125 58.90625 
Q 39.453125 66.40625 31.78125 66.40625 
z
M 31.78125 74.21875 
Q 44.046875 74.21875 50.515625 64.515625 
Q 56.984375 54.828125 56.984375 36.375 
Q 56.984375 17.96875 50.515625 8.265625 
Q 44.046875 -1.421875 31.78125 -1.421875 
Q 19.53125 -1.421875 13.0625 8.265625 
Q 6.59375 17.96875 6.59375 36.375 
Q 6.59375 54.828125 13.0625 64.515625 
Q 19.53125 74.21875 31.78125 74.21875 
z
" id="DejaVuSans-30"/>
      </defs>
      <g transform="translate(196.87039 313.476875)scale(0.2 -0.2)">
       <use xlink:href="#DejaVuSans-30"/>
      </g>
     </g>
    </g>
    <g id="xtick_4">
     <g id="line2d_7">
      <path clip-path="url(#p42f7920d59)" d="M 302.142764 291.28 
L 302.142764 5.52 
" style="fill:none;stroke:#b0b0b0;stroke-linecap:square;stroke-width:0.8;"/>
     </g>
     <g id="line2d_8">
      <g>
       <use style="stroke:#000000;stroke-width:0.8;" x="302.142764" xlink:href="#m0a3055e43c" y="291.28"/>
      </g>
     </g>
     <g id="text_3">
      <!-- 4 -->
      <g transform="translate(295.780264 313.476875)scale(0.2 -0.2)">
       <use xlink:href="#DejaVuSans-34"/>
      </g>
     </g>
    </g>
    <g id="xtick_5">
     <g id="line2d_9">
      <path clip-path="url(#p42f7920d59)" d="M 401.052637 291.28 
L 401.052637 5.52 
" style="fill:none;stroke:#b0b0b0;stroke-linecap:square;stroke-width:0.8;"/>
     </g>
     <g id="line2d_10">
      <g>
       <use style="stroke:#000000;stroke-width:0.8;" x="401.052637" xlink:href="#m0a3055e43c" y="291.28"/>
      </g>
     </g>
     <g id="text_4">
      <!-- 8 -->
      <defs>
       <path d="M 31.78125 34.625 
Q 24.75 34.625 20.71875 30.859375 
Q 16.703125 27.09375 16.703125 20.515625 
Q 16.703125 13.921875 20.71875 10.15625 
Q 24.75 6.390625 31.78125 6.390625 
Q 38.8125 6.390625 42.859375 10.171875 
Q 46.921875 13.96875 46.921875 20.515625 
Q 46.921875 27.09375 42.890625 30.859375 
Q 38.875 34.625 31.78125 34.625 
z
M 21.921875 38.8125 
Q 15.578125 40.375 12.03125 44.71875 
Q 8.5 49.078125 8.5 55.328125 
Q 8.5 64.0625 14.71875 69.140625 
Q 20.953125 74.21875 31.78125 74.21875 
Q 42.671875 74.21875 48.875 69.140625 
Q 55.078125 64.0625 55.078125 55.328125 
Q 55.078125 49.078125 51.53125 44.71875 
Q 48 40.375 41.703125 38.8125 
Q 48.828125 37.15625 52.796875 32.3125 
Q 56.78125 27.484375 56.78125 20.515625 
Q 56.78125 9.90625 50.3125 4.234375 
Q 43.84375 -1.421875 31.78125 -1.421875 
Q 19.734375 -1.421875 13.25 4.234375 
Q 6.78125 9.90625 6.78125 20.515625 
Q 6.78125 27.484375 10.78125 32.3125 
Q 14.796875 37.15625 21.921875 38.8125 
z
M 18.3125 54.390625 
Q 18.3125 48.734375 21.84375 45.5625 
Q 25.390625 42.390625 31.78125 42.390625 
Q 38.140625 42.390625 41.71875 45.5625 
Q 45.3125 48.734375 45.3125 54.390625 
Q 45.3125 60.0625 41.71875 63.234375 
Q 38.140625 66.40625 31.78125 66.40625 
Q 25.390625 66.40625 21.84375 63.234375 
Q 18.3125 60.0625 18.3125 54.390625 
z
" id="DejaVuSans-38"/>
      </defs>
      <g transform="translate(394.690137 313.476875)scale(0.2 -0.2)">
       <use xlink:href="#DejaVuSans-38"/>
      </g>
     </g>
    </g>
    <g id="text_5">
     <!-- log10 of Df -->
     <defs>
      <path d="M 9.421875 75.984375 
L 18.40625 75.984375 
L 18.40625 0 
L 9.421875 0 
z
" id="DejaVuSans-6c"/>
      <path d="M 30.609375 48.390625 
Q 23.390625 48.390625 19.1875 42.75 
Q 14.984375 37.109375 14.984375 27.296875 
Q 14.984375 17.484375 19.15625 11.84375 
Q 23.34375 6.203125 30.609375 6.203125 
Q 37.796875 6.203125 41.984375 11.859375 
Q 46.1875 17.53125 46.1875 27.296875 
Q 46.1875 37.015625 41.984375 42.703125 
Q 37.796875 48.390625 30.609375 48.390625 
z
M 30.609375 56 
Q 42.328125 56 49.015625 48.375 
Q 55.71875 40.765625 55.71875 27.296875 
Q 55.71875 13.875 49.015625 6.21875 
Q 42.328125 -1.421875 30.609375 -1.421875 
Q 18.84375 -1.421875 12.171875 6.21875 
Q 5.515625 13.875 5.515625 27.296875 
Q 5.515625 40.765625 12.171875 48.375 
Q 18.84375 56 30.609375 56 
z
" id="DejaVuSans-6f"/>
      <path d="M 45.40625 27.984375 
Q 45.40625 37.75 41.375 43.109375 
Q 37.359375 48.484375 30.078125 48.484375 
Q 22.859375 48.484375 18.828125 43.109375 
Q 14.796875 37.75 14.796875 27.984375 
Q 14.796875 18.265625 18.828125 12.890625 
Q 22.859375 7.515625 30.078125 7.515625 
Q 37.359375 7.515625 41.375 12.890625 
Q 45.40625 18.265625 45.40625 27.984375 
z
M 54.390625 6.78125 
Q 54.390625 -7.171875 48.1875 -13.984375 
Q 42 -20.796875 29.203125 -20.796875 
Q 24.46875 -20.796875 20.265625 -20.09375 
Q 16.0625 -19.390625 12.109375 -17.921875 
L 12.109375 -9.1875 
Q 16.0625 -11.328125 19.921875 -12.34375 
Q 23.78125 -13.375 27.78125 -13.375 
Q 36.625 -13.375 41.015625 -8.765625 
Q 45.40625 -4.15625 45.40625 5.171875 
L 45.40625 9.625 
Q 42.625 4.78125 38.28125 2.390625 
Q 33.9375 0 27.875 0 
Q 17.828125 0 11.671875 7.65625 
Q 5.515625 15.328125 5.515625 27.984375 
Q 5.515625 40.671875 11.671875 48.328125 
Q 17.828125 56 27.875 56 
Q 33.9375 56 38.28125 53.609375 
Q 42.625 51.21875 45.40625 46.390625 
L 45.40625 54.6875 
L 54.390625 54.6875 
z
" id="DejaVuSans-67"/>
      <path d="M 12.40625 8.296875 
L 28.515625 8.296875 
L 28.515625 63.921875 
L 10.984375 60.40625 
L 10.984375 69.390625 
L 28.421875 72.90625 
L 38.28125 72.90625 
L 38.28125 8.296875 
L 54.390625 8.296875 
L 54.390625 0 
L 12.40625 0 
z
" id="DejaVuSans-31"/>
      <path id="DejaVuSans-20"/>
      <path d="M 37.109375 75.984375 
L 37.109375 68.5 
L 28.515625 68.5 
Q 23.6875 68.5 21.796875 66.546875 
Q 19.921875 64.59375 19.921875 59.515625 
L 19.921875 54.6875 
L 34.71875 54.6875 
L 34.71875 47.703125 
L 19.921875 47.703125 
L 19.921875 0 
L 10.890625 0 
L 10.890625 47.703125 
L 2.296875 47.703125 
L 2.296875 54.6875 
L 10.890625 54.6875 
L 10.890625 58.5 
Q 10.890625 67.625 15.140625 71.796875 
Q 19.390625 75.984375 28.609375 75.984375 
z
" id="DejaVuSans-66"/>
      <path d="M 19.671875 64.796875 
L 19.671875 8.109375 
L 31.59375 8.109375 
Q 46.6875 8.109375 53.6875 14.9375 
Q 60.6875 21.78125 60.6875 36.53125 
Q 60.6875 51.171875 53.6875 57.984375 
Q 46.6875 64.796875 31.59375 64.796875 
z
M 9.8125 72.90625 
L 30.078125 72.90625 
Q 51.265625 72.90625 61.171875 64.09375 
Q 71.09375 55.28125 71.09375 36.53125 
Q 71.09375 17.671875 61.125 8.828125 
Q 51.171875 0 30.078125 0 
L 9.8125 0 
z
" id="DejaVuSans-44"/>
     </defs>
     <g transform="translate(172.910063 336.833125)scale(0.2 -0.2)">
      <use xlink:href="#DejaVuSans-6c"/>
      <use x="27.783203" xlink:href="#DejaVuSans-6f"/>
      <use x="88.964844" xlink:href="#DejaVuSans-67"/>
      <use x="152.441406" xlink:href="#DejaVuSans-31"/>
      <use x="216.064453" xlink:href="#DejaVuSans-30"/>
      <use x="279.6875" xlink:href="#DejaVuSans-20"/>
      <use x="311.474609" xlink:href="#DejaVuSans-6f"/>
      <use x="372.65625" xlink:href="#DejaVuSans-66"/>
      <use x="407.861328" xlink:href="#DejaVuSans-20"/>
      <use x="439.648438" xlink:href="#DejaVuSans-44"/>
      <use x="516.650391" xlink:href="#DejaVuSans-66"/>
     </g>
    </g>
   </g>
   <g id="matplotlib.axis_2">
    <g id="ytick_1">
     <g id="line2d_11">
      <path clip-path="url(#p42f7920d59)" d="M 5.52 291.28 
L 450.672 291.28 
" style="fill:none;stroke:#b0b0b0;stroke-linecap:square;stroke-width:0.8;"/>
     </g>
     <g id="line2d_12">
      <defs>
       <path d="M 0 0 
L -3.5 0 
" id="m5093f3e940" style="stroke:#000000;stroke-width:0.8;"/>
      </defs>
      <g>
       <use style="stroke:#000000;stroke-width:0.8;" x="5.52" xlink:href="#m5093f3e940" y="291.28"/>
      </g>
     </g>
    </g>
    <g id="ytick_2">
     <g id="line2d_13">
      <path clip-path="url(#p42f7920d59)" d="M 5.52 234.693861 
L 450.672 234.693861 
" style="fill:none;stroke:#b0b0b0;stroke-linecap:square;stroke-width:0.8;"/>
     </g>
     <g id="line2d_14">
      <g>
       <use style="stroke:#000000;stroke-width:0.8;" x="5.52" xlink:href="#m5093f3e940" y="234.693861"/>
      </g>
     </g>
    </g>
    <g id="ytick_3">
     <g id="line2d_15">
      <path clip-path="url(#p42f7920d59)" d="M 5.52 178.107723 
L 450.672 178.107723 
" style="fill:none;stroke:#b0b0b0;stroke-linecap:square;stroke-width:0.8;"/>
     </g>
     <g id="line2d_16">
      <g>
       <use style="stroke:#000000;stroke-width:0.8;" x="5.52" xlink:href="#m5093f3e940" y="178.107723"/>
      </g>
     </g>
    </g>
    <g id="ytick_4">
     <g id="line2d_17">
      <path clip-path="url(#p42f7920d59)" d="M 5.52 121.521584 
L 450.672 121.521584 
" style="fill:none;stroke:#b0b0b0;stroke-linecap:square;stroke-width:0.8;"/>
     </g>
     <g id="line2d_18">
      <g>
       <use style="stroke:#000000;stroke-width:0.8;" x="5.52" xlink:href="#m5093f3e940" y="121.521584"/>
      </g>
     </g>
    </g>
    <g id="ytick_5">
     <g id="line2d_19">
      <path clip-path="url(#p42f7920d59)" d="M 5.52 64.935446 
L 450.672 64.935446 
" style="fill:none;stroke:#b0b0b0;stroke-linecap:square;stroke-width:0.8;"/>
     </g>
     <g id="line2d_20">
      <g>
       <use style="stroke:#000000;stroke-width:0.8;" x="5.52" xlink:href="#m5093f3e940" y="64.935446"/>
      </g>
     </g>
    </g>
    <g id="ytick_6">
     <g id="line2d_21">
      <path clip-path="url(#p42f7920d59)" d="M 5.52 8.349307 
L 450.672 8.349307 
" style="fill:none;stroke:#b0b0b0;stroke-linecap:square;stroke-width:0.8;"/>
     </g>
     <g id="line2d_22">
      <g>
       <use style="stroke:#000000;stroke-width:0.8;" x="5.52" xlink:href="#m5093f3e940" y="8.349307"/>
      </g>
     </g>
    </g>
   </g>
   <g id="line2d_23">
    <path clip-path="url(#p42f7920d59)" d="M 167.310199 291.28 
L 167.310199 290.02253 
L 172.886592 290.02253 
L 172.886592 288.765061 
L 179.19958 288.765061 
L 179.19958 287.507591 
L 184.788058 287.507591 
L 184.788058 286.250121 
L 188.72034 286.250121 
L 188.72034 284.992651 
L 192.597147 284.992651 
L 192.597147 283.735182 
L 196.206953 283.735182 
L 196.206953 282.477712 
L 199.485392 282.477712 
L 199.485392 281.220242 
L 202.739305 281.220242 
L 202.739305 279.962772 
L 203.137937 279.962772 
L 203.137937 278.705303 
L 203.371888 278.705303 
L 203.371888 277.447833 
L 204.548305 277.447833 
L 204.548305 276.190363 
L 205.926201 276.190363 
L 205.926201 274.932893 
L 206.226222 274.932893 
L 206.226222 273.675424 
L 206.499315 273.675424 
L 206.499315 272.417954 
L 206.886829 272.417954 
L 206.886829 271.160484 
L 207.323142 271.160484 
L 207.323142 269.903014 
L 207.539608 269.903014 
L 207.539608 268.645545 
L 208.22166 268.645545 
L 208.22166 267.388075 
L 208.524537 267.388075 
L 208.524537 266.130605 
L 209.221779 266.130605 
L 209.221779 264.873135 
L 211.573663 264.873135 
L 211.573663 263.615666 
L 213.343613 263.615666 
L 213.343613 262.358196 
L 214.183782 262.358196 
L 214.183782 261.100726 
L 217.321456 261.100726 
L 217.321456 259.843256 
L 218.098884 259.843256 
L 218.098884 258.585787 
L 218.76781 258.585787 
L 218.76781 257.328317 
L 220.265447 257.328317 
L 220.265447 256.070847 
L 220.533813 256.070847 
L 220.533813 254.813377 
L 220.8627 254.813377 
L 220.8627 253.555908 
L 221.116324 253.555908 
L 221.116324 252.298438 
L 222.094889 252.298438 
L 222.094889 251.040968 
L 222.853186 251.040968 
L 222.892414 248.526029 
L 223.306569 248.526029 
L 223.306569 247.268559 
L 224.095629 247.268559 
L 224.095629 246.011089 
L 224.259353 246.011089 
L 224.259353 244.753619 
L 225.176245 244.753619 
L 225.176245 243.49615 
L 225.336066 243.49615 
L 225.336066 242.23868 
L 225.469313 242.23868 
L 225.469313 240.98121 
L 225.861166 240.98121 
L 225.861166 239.72374 
L 226.088957 239.72374 
L 226.088957 238.466271 
L 226.989593 238.466271 
L 226.989593 237.208801 
L 227.265518 237.208801 
L 227.265518 235.951331 
L 228.578752 235.951331 
L 228.66955 233.436392 
L 228.933145 233.436392 
L 228.933145 232.178922 
L 229.160554 232.178922 
L 229.160554 230.921452 
L 230.626173 230.921452 
L 230.666025 228.406513 
L 231.522591 228.406513 
L 231.523069 225.891573 
L 232.261145 225.891573 
L 232.261145 224.634103 
L 232.446703 224.634103 
L 232.446703 223.376634 
L 232.918261 223.376634 
L 232.918261 222.119164 
L 233.926248 222.119164 
L 233.984896 218.346755 
L 234.12875 218.346755 
L 234.222214 215.831815 
L 234.488751 215.831815 
L 234.488751 214.574345 
L 234.815933 214.574345 
L 234.815933 213.316876 
L 234.996735 213.316876 
L 235.010988 210.801936 
L 235.339002 210.801936 
L 235.416683 207.029527 
L 235.58053 207.029527 
L 235.58053 205.772057 
L 235.704762 205.772057 
L 235.717923 203.257118 
L 235.858746 203.257118 
L 235.944598 200.742178 
L 236.366868 200.742178 
L 236.377272 198.227239 
L 236.72759 198.227239 
L 236.72759 196.969769 
L 236.924906 196.969769 
L 236.924906 195.712299 
L 237.310168 195.712299 
L 237.351452 193.19736 
L 237.748974 193.19736 
L 237.748974 191.93989 
L 238.250267 191.93989 
L 238.250267 190.68242 
L 239.159843 190.68242 
L 239.159843 189.42495 
L 239.340865 189.42495 
L 239.391285 186.910011 
L 239.708007 186.910011 
L 239.708007 185.652541 
L 239.937918 185.652541 
L 240.012892 181.880132 
L 240.057481 181.880132 
L 240.057481 180.622662 
L 240.169811 180.622662 
L 240.24779 176.850253 
L 240.409748 176.850253 
L 240.501755 173.077844 
L 241.051389 173.077844 
L 241.127097 169.305435 
L 241.210708 169.305435 
L 241.210708 168.047965 
L 241.475152 168.047965 
L 241.552437 165.533025 
L 241.680278 165.533025 
L 241.754191 163.018086 
L 241.86446 163.018086 
L 241.959524 156.730737 
L 242.145977 156.730737 
L 242.252091 150.443388 
L 242.3492 150.443388 
L 242.448936 145.413509 
L 242.707801 145.413509 
L 242.707801 144.15604 
L 242.834817 144.15604 
L 242.923154 139.126161 
L 243.018606 139.126161 
L 243.069254 136.611221 
L 243.218601 136.611221 
L 243.267603 134.096282 
L 243.46181 134.096282 
L 243.477707 131.581342 
L 243.653777 131.581342 
L 243.681028 129.066403 
L 243.770088 129.066403 
L 243.770088 127.808933 
L 243.894746 127.808933 
L 243.894746 126.551463 
L 244.03567 126.551463 
L 244.03567 125.293993 
L 244.198716 125.293993 
L 244.30047 121.521584 
L 244.415941 121.521584 
L 244.415941 120.264114 
L 244.533941 120.264114 
L 244.620394 115.234235 
L 245.030554 115.234235 
L 245.030554 113.976766 
L 245.363509 113.976766 
L 245.363509 112.719296 
L 245.553907 112.719296 
L 245.602452 108.946887 
L 245.923454 108.946887 
L 245.923454 107.689417 
L 246.378049 107.689417 
L 246.378049 106.431947 
L 246.615321 106.431947 
L 246.725054 103.917008 
L 247.164919 103.917008 
L 247.164919 102.659538 
L 247.326924 102.659538 
L 247.326924 101.402068 
L 247.641275 101.402068 
L 247.705091 98.887129 
L 247.839524 98.887129 
L 247.839524 97.629659 
L 248.053675 97.629659 
L 248.053675 96.372189 
L 248.4058 96.372189 
L 248.4058 95.114719 
L 248.810128 95.114719 
L 248.893795 92.59978 
L 248.956025 92.59978 
L 248.956025 91.34231 
L 249.157711 91.34231 
L 249.157711 90.08484 
L 249.911582 90.08484 
L 249.911582 88.827371 
L 250.279761 88.827371 
L 250.279761 87.569901 
L 250.428361 87.569901 
L 250.428361 86.312431 
L 250.798397 86.312431 
L 250.849872 83.797492 
L 250.931874 83.797492 
L 250.931874 82.540022 
L 251.173983 82.540022 
L 251.173983 81.282552 
L 251.899869 81.282552 
L 251.899869 80.025083 
L 252.508845 80.025083 
L 252.508845 78.767613 
L 252.828632 78.767613 
L 252.828632 77.510143 
L 253.619067 77.510143 
L 253.682286 74.995204 
L 253.878605 74.995204 
L 253.920968 72.480264 
L 254.044043 72.480264 
L 254.044043 71.222794 
L 254.474823 71.222794 
L 254.492923 68.707855 
L 255.734129 68.707855 
L 255.734129 67.450385 
L 256.146899 67.450385 
L 256.146899 66.192915 
L 257.773716 66.192915 
L 257.773716 64.935446 
L 259.008716 64.935446 
L 259.008716 63.677976 
L 259.219347 63.677976 
L 259.219347 62.420506 
L 261.008259 62.420506 
L 261.008259 61.163036 
L 263.488752 61.163036 
L 263.488752 59.905567 
L 263.962195 59.905567 
L 263.962195 58.648097 
L 264.825431 58.648097 
L 264.825431 57.390627 
L 265.42499 57.390627 
L 265.44934 54.875688 
L 272.380678 54.875688 
L 272.451397 52.360748 
L 274.243291 52.360748 
L 274.243291 51.103278 
L 275.641927 51.103278 
L 275.641927 49.845809 
L 276.237346 49.845809 
L 276.237346 48.588339 
L 278.81534 48.588339 
L 278.81534 47.330869 
L 279.235481 47.330869 
L 279.235481 46.073399 
L 279.779518 46.073399 
L 279.779518 44.81593 
L 292.299787 44.81593 
L 292.299787 43.55846 
L 292.841675 43.55846 
L 292.841675 42.30099 
L 293.450132 42.30099 
L 293.450132 41.04352 
L 294.579081 41.04352 
L 294.579081 39.786051 
L 295.377242 39.786051 
L 295.453171 37.271111 
L 295.882514 37.271111 
L 295.882514 36.013641 
L 298.060988 36.013641 
L 298.060988 34.756172 
L 299.309509 34.756172 
L 299.309509 33.498702 
L 300.210455 33.498702 
L 300.210455 32.241232 
L 305.721103 32.241232 
L 305.721103 30.983762 
L 306.069615 30.983762 
L 306.069615 29.726293 
L 307.644883 29.726293 
L 307.644883 28.468823 
L 307.815719 28.468823 
L 307.815719 27.211353 
L 309.127362 27.211353 
L 309.127362 25.953883 
L 310.326304 25.953883 
L 310.326304 24.696414 
L 313.946805 24.696414 
L 313.946805 23.438944 
L 314.092055 23.438944 
L 314.092055 22.181474 
L 314.904285 22.181474 
L 314.904285 20.924004 
L 315.144591 20.924004 
L 315.144591 19.666535 
L 326.533986 19.666535 
L 326.533986 18.409065 
L 328.098475 18.409065 
L 328.098475 17.151595 
L 328.731798 17.151595 
L 328.731798 15.894125 
L 330.736283 15.894125 
L 330.736283 14.636656 
L 330.853972 14.636656 
L 330.853972 13.379186 
L 331.250652 13.379186 
L 331.250652 12.121716 
L 335.052678 12.121716 
L 335.088216 9.606777 
L 340.045438 9.606777 
L 340.045438 8.349307 
L 340.045438 8.349307 
L 450.672 8.349307 
L 450.672 8.349307 
" style="fill:none;stroke:#ff0000;stroke-linecap:square;stroke-width:3;"/>
   </g>
   <g id="line2d_24">
    <path clip-path="url(#p42f7920d59)" d="M 220.143261 291.28 
L 220.143261 290.02253 
L 225.263871 290.02253 
L 225.308045 287.507591 
L 228.753576 287.507591 
L 228.753576 286.250121 
L 233.140978 286.250121 
L 233.140978 284.992651 
L 235.718772 284.992651 
L 235.718772 283.735182 
L 237.896559 283.735182 
L 237.896559 282.477712 
L 238.118281 282.477712 
L 238.118281 281.220242 
L 238.456432 281.220242 
L 238.456432 279.962772 
L 239.184737 279.962772 
L 239.184737 278.705303 
L 239.423401 278.705303 
L 239.423401 277.447833 
L 239.737459 277.447833 
L 239.737459 276.190363 
L 239.960617 276.190363 
L 239.960617 274.932893 
L 240.585312 274.932893 
L 240.585312 273.675424 
L 240.783332 273.675424 
L 240.783332 272.417954 
L 241.237378 272.417954 
L 241.237378 271.160484 
L 242.175116 271.160484 
L 242.272582 268.645545 
L 242.368013 268.645545 
L 242.368013 267.388075 
L 243.168476 267.388075 
L 243.168476 266.130605 
L 243.300691 266.130605 
L 243.300691 264.873135 
L 243.471106 264.873135 
L 243.471106 263.615666 
L 243.817563 263.615666 
L 243.873252 261.100726 
L 243.951619 261.100726 
L 243.951619 259.843256 
L 244.379309 259.843256 
L 244.44206 256.070847 
L 244.57685 256.070847 
L 244.57685 254.813377 
L 244.98548 254.813377 
L 244.98548 253.555908 
L 245.378377 253.555908 
L 245.378377 252.298438 
L 245.658921 252.298438 
L 245.747521 249.783498 
L 246.029434 249.783498 
L 246.074663 246.011089 
L 246.700528 246.011089 
L 246.80982 243.49615 
L 247.071281 243.49615 
L 247.071281 242.23868 
L 247.7523 242.23868 
L 247.768489 239.72374 
L 248.126239 239.72374 
L 248.126239 238.466271 
L 248.786036 238.466271 
L 248.81843 235.951331 
L 249.093494 235.951331 
L 249.147547 233.436392 
L 249.249466 233.436392 
L 249.249466 232.178922 
L 250.149332 232.178922 
L 250.186879 229.663982 
L 250.279761 229.663982 
L 250.323028 225.891573 
L 250.394495 225.891573 
L 250.394495 224.634103 
L 250.571993 224.634103 
L 250.571993 223.376634 
L 250.777952 223.376634 
L 250.786277 220.861694 
L 250.894601 220.861694 
L 250.894601 219.604224 
L 251.026719 219.604224 
L 251.124409 217.089285 
L 251.175389 217.089285 
L 251.175389 215.831815 
L 251.402245 215.831815 
L 251.484023 212.059406 
L 251.514386 212.059406 
L 251.514386 210.801936 
L 251.796532 210.801936 
L 251.855798 207.029527 
L 252.205048 207.029527 
L 252.238338 204.514587 
L 252.351574 204.514587 
L 252.351574 203.257118 
L 252.586525 203.257118 
L 252.614105 200.742178 
L 252.713252 200.742178 
L 252.713252 199.484708 
L 252.828632 199.484708 
L 252.900273 196.969769 
L 253.151348 196.969769 
L 253.151348 195.712299 
L 253.351104 195.712299 
L 253.366299 193.19736 
L 253.498737 193.19736 
L 253.498737 191.93989 
L 253.673932 191.93989 
L 253.762645 188.167481 
L 253.809055 188.167481 
L 253.862155 185.652541 
L 254.031171 185.652541 
L 254.089431 181.880132 
L 254.213404 181.880132 
L 254.279471 178.107723 
L 254.385241 178.107723 
L 254.474823 175.592783 
L 254.574831 175.592783 
L 254.645932 171.820374 
L 254.697219 171.820374 
L 254.697219 170.562904 
L 255.003456 170.562904 
L 255.086492 165.533025 
L 255.182313 165.533025 
L 255.182313 164.275556 
L 255.934281 164.275556 
L 256.00276 161.760616 
L 256.838494 161.760616 
L 256.838494 160.503146 
L 257.274315 160.503146 
L 257.274315 159.245677 
L 257.419228 159.245677 
L 257.419228 157.988207 
L 257.563389 157.988207 
L 257.671017 155.473267 
L 257.844055 155.473267 
L 257.94841 152.958328 
L 258.229308 152.958328 
L 258.229308 151.700858 
L 258.76716 151.700858 
L 258.76716 150.443388 
L 258.890867 150.443388 
L 258.967143 147.928449 
L 259.502605 147.928449 
L 259.502605 146.670979 
L 259.832053 146.670979 
L 259.838535 144.15604 
L 259.995596 144.15604 
L 259.995596 142.89857 
L 260.409108 142.89857 
L 260.409108 141.6411 
L 260.529659 141.6411 
L 260.529659 140.38363 
L 260.663001 140.38363 
L 260.663001 139.126161 
L 260.839633 139.126161 
L 260.839633 137.868691 
L 261.098106 137.868691 
L 261.098106 136.611221 
L 261.222461 136.611221 
L 261.253939 134.096282 
L 261.394182 134.096282 
L 261.478916 131.581342 
L 261.649871 131.581342 
L 261.649871 130.323872 
L 261.987201 130.323872 
L 262.002907 127.808933 
L 262.284132 127.808933 
L 262.284132 126.551463 
L 262.42645 126.551463 
L 262.42645 125.293993 
L 262.575752 125.293993 
L 262.644027 122.779054 
L 262.897297 122.779054 
L 262.907321 120.264114 
L 263.065216 120.264114 
L 263.065216 119.006645 
L 263.932101 119.006645 
L 263.978941 116.491705 
L 264.220781 116.491705 
L 264.220781 115.234235 
L 264.648139 115.234235 
L 264.648139 113.976766 
L 264.768902 113.976766 
L 264.768902 112.719296 
L 265.383696 112.719296 
L 265.383696 111.461826 
L 265.89991 111.461826 
L 266.005531 108.946887 
L 266.01641 108.946887 
L 266.121275 105.174477 
L 266.943742 105.174477 
L 266.975021 102.659538 
L 267.092796 102.659538 
L 267.092796 101.402068 
L 267.864908 101.402068 
L 267.864908 100.144598 
L 268.048574 100.144598 
L 268.143197 95.114719 
L 268.750994 95.114719 
L 268.750994 93.85725 
L 269.286648 93.85725 
L 269.286648 92.59978 
L 269.746601 92.59978 
L 269.746601 91.34231 
L 270.165662 91.34231 
L 270.165662 90.08484 
L 270.462726 90.08484 
L 270.462726 88.827371 
L 270.890695 88.827371 
L 270.890695 87.569901 
L 271.180111 87.569901 
L 271.180111 86.312431 
L 271.477983 86.312431 
L 271.477983 85.054961 
L 271.612862 85.054961 
L 271.612862 83.797492 
L 272.370475 83.797492 
L 272.370475 82.540022 
L 272.6977 82.540022 
L 272.6977 81.282552 
L 273.842307 81.282552 
L 273.842307 80.025083 
L 274.231285 80.025083 
L 274.234215 77.510143 
L 275.058412 77.510143 
L 275.058412 76.252673 
L 275.516438 76.252673 
L 275.516438 74.995204 
L 275.74607 74.995204 
L 275.74607 73.737734 
L 277.173121 73.737734 
L 277.173121 72.480264 
L 277.709593 72.480264 
L 277.709593 71.222794 
L 278.436542 71.222794 
L 278.436542 69.965325 
L 279.555455 69.965325 
L 279.555455 68.707855 
L 281.864724 68.707855 
L 281.864724 67.450385 
L 282.305553 67.450385 
L 282.305553 66.192915 
L 282.65544 66.192915 
L 282.65544 64.935446 
L 317.767526 64.935446 
L 317.767526 63.677976 
L 320.528437 63.677976 
L 320.528437 62.420506 
L 326.282153 62.420506 
L 326.282153 61.163036 
L 326.893194 61.163036 
L 326.893194 59.905567 
L 327.633855 59.905567 
L 327.633855 58.648097 
L 329.673863 58.648097 
L 329.673863 57.390627 
L 331.250652 57.390627 
L 331.250652 56.133157 
L 333.455293 56.133157 
L 333.455293 54.875688 
L 341.504218 54.875688 
L 341.504218 53.618218 
L 342.403015 53.618218 
L 342.403015 52.360748 
L 342.740432 52.360748 
L 342.740432 51.103278 
L 342.909355 51.103278 
L 342.909355 49.845809 
L 343.751765 49.845809 
L 343.751765 48.588339 
L 347.126785 48.588339 
L 347.126785 47.330869 
L 349.677208 47.330869 
L 349.677208 46.073399 
L 350.259189 46.073399 
L 350.259189 44.81593 
L 350.38669 44.81593 
L 350.38669 43.55846 
L 351.877344 43.55846 
L 351.877344 42.30099 
L 353.117417 42.30099 
L 353.117417 41.04352 
L 353.457737 41.04352 
L 353.457737 39.786051 
L 353.944017 39.786051 
L 353.944017 38.528581 
L 356.135327 38.528581 
L 356.135327 37.271111 
L 357.205708 37.271111 
L 357.205708 36.013641 
L 359.129739 36.013641 
L 359.129739 34.756172 
L 359.306304 34.756172 
L 359.306304 33.498702 
L 359.449439 33.498702 
L 359.449439 32.241232 
L 359.876584 32.241232 
L 359.940977 29.726293 
L 361.908024 29.726293 
L 361.908024 28.468823 
L 364.85474 28.468823 
L 364.85474 27.211353 
L 369.553763 27.211353 
L 369.553763 25.953883 
L 371.558384 25.953883 
L 371.558384 24.696414 
L 371.956666 24.696414 
L 371.956666 23.438944 
L 374.736663 23.438944 
L 374.736663 22.181474 
L 376.104773 22.181474 
L 376.104773 20.924004 
L 377.60426 20.924004 
L 377.60426 19.666535 
L 380.166944 19.666535 
L 380.166944 18.409065 
L 381.094374 18.409065 
L 381.187927 15.894125 
L 382.921287 15.894125 
L 382.921287 14.636656 
L 385.756229 14.636656 
L 385.756229 13.379186 
L 387.649674 13.379186 
L 387.649674 12.121716 
L 389.785685 12.121716 
L 389.785685 10.864246 
L 392.763626 10.864246 
L 392.763626 9.606777 
L 394.91514 9.606777 
L 394.91514 8.349307 
L 394.91514 8.349307 
L 450.672 8.349307 
L 450.672 8.349307 
" style="fill:none;stroke:#00bfbf;stroke-linecap:square;stroke-width:1.5;"/>
   </g>
   <g id="line2d_25">
    <path clip-path="url(#p42f7920d59)" d="M 220.143261 291.28 
L 220.143261 290.02253 
L 220.6346 290.02253 
L 220.6346 288.765061 
L 223.911537 288.765061 
L 223.911537 287.507591 
L 224.815814 287.507591 
L 224.815814 286.250121 
L 225.263871 286.250121 
L 225.308045 283.735182 
L 227.105348 283.735182 
L 227.105348 282.477712 
L 228.677306 282.477712 
L 228.753576 279.962772 
L 229.53823 279.962772 
L 229.53823 278.705303 
L 232.181216 278.705303 
L 232.181216 277.447833 
L 233.140978 277.447833 
L 233.140978 276.190363 
L 234.552227 276.190363 
L 234.552227 274.932893 
L 234.825254 274.932893 
L 234.825254 273.675424 
L 235.718772 273.675424 
L 235.718772 272.417954 
L 236.548561 272.417954 
L 236.548561 271.160484 
L 237.229451 271.160484 
L 237.229451 269.903014 
L 237.352206 269.903014 
L 237.352206 268.645545 
L 237.896559 268.645545 
L 237.896559 267.388075 
L 238.048469 267.388075 
L 238.118281 264.873135 
L 238.456432 264.873135 
L 238.456432 263.615666 
L 238.773442 263.615666 
L 238.773442 262.358196 
L 238.990613 262.358196 
L 238.990613 261.100726 
L 239.184737 261.100726 
L 239.259327 258.585787 
L 239.423401 258.585787 
L 239.423401 257.328317 
L 240.042549 257.328317 
L 240.042549 256.070847 
L 240.501755 256.070847 
L 240.501755 254.813377 
L 240.783332 254.813377 
L 240.783332 253.555908 
L 241.268196 253.555908 
L 241.319173 251.040968 
L 241.390629 251.040968 
L 241.390629 249.783498 
L 241.543922 249.783498 
L 241.543922 248.526029 
L 241.769619 248.526029 
L 241.769619 247.268559 
L 242.175116 247.268559 
L 242.175116 246.011089 
L 242.368013 246.011089 
L 242.368013 244.753619 
L 242.576125 244.753619 
L 242.576125 243.49615 
L 243.286795 243.49615 
L 243.286795 242.23868 
L 243.817563 242.23868 
L 243.817563 240.98121 
L 244.004916 240.98121 
L 244.004916 239.72374 
L 244.272916 239.72374 
L 244.272916 238.466271 
L 244.44206 238.466271 
L 244.44206 237.208801 
L 244.57685 237.208801 
L 244.57685 235.951331 
L 245.228877 235.951331 
L 245.228877 234.693861 
L 245.363509 234.693861 
L 245.363509 233.436392 
L 245.813161 233.436392 
L 245.844352 230.921452 
L 246.074663 230.921452 
L 246.074663 229.663982 
L 246.327466 229.663982 
L 246.407382 224.634103 
L 246.460877 224.634103 
L 246.46979 222.119164 
L 246.702009 222.119164 
L 246.80982 218.346755 
L 246.903525 218.346755 
L 246.909431 215.831815 
L 247.533753 215.831815 
L 247.533753 214.574345 
L 247.7523 214.574345 
L 247.847059 210.801936 
L 248.114619 210.801936 
L 248.131527 208.286997 
L 248.757238 208.286997 
L 248.845465 204.514587 
L 248.883125 204.514587 
L 248.892954 201.999648 
L 249.093494 201.999648 
L 249.093494 200.742178 
L 249.249242 200.742178 
L 249.358747 196.969769 
L 249.880914 196.969769 
L 249.880914 195.712299 
L 250.149332 195.712299 
L 250.225958 191.93989 
L 250.279761 191.93989 
L 250.331059 188.167481 
L 250.405161 188.167481 
L 250.45349 185.652541 
L 250.571993 185.652541 
L 250.595685 183.137602 
L 250.686987 183.137602 
L 250.698965 180.622662 
L 250.810742 180.622662 
L 250.894601 178.107723 
L 251.1637 178.107723 
L 251.210863 174.335314 
L 251.390271 174.335314 
L 251.390271 173.077844 
L 251.551912 173.077844 
L 251.551912 171.820374 
L 251.796532 171.820374 
L 251.827147 169.305435 
L 252.019592 169.305435 
L 252.04014 166.790495 
L 252.205048 166.790495 
L 252.205048 165.533025 
L 252.488455 165.533025 
L 252.488455 164.275556 
L 252.828632 164.275556 
L 252.828632 163.018086 
L 253.035607 163.018086 
L 253.145918 159.245677 
L 253.336105 159.245677 
L 253.336105 157.988207 
L 253.554916 157.988207 
L 253.554916 156.730737 
L 253.673932 156.730737 
L 253.673932 155.473267 
L 253.809055 155.473267 
L 253.862155 152.958328 
L 254.031171 152.958328 
L 254.039182 150.443388 
L 254.213404 150.443388 
L 254.213404 149.185919 
L 254.474823 149.185919 
L 254.474823 147.928449 
L 254.697219 147.928449 
L 254.718583 145.413509 
L 255.235785 145.413509 
L 255.315247 141.6411 
L 255.359443 141.6411 
L 255.359443 140.38363 
L 255.645796 140.38363 
L 255.746417 137.868691 
L 255.971583 137.868691 
L 255.971583 136.611221 
L 256.445704 136.611221 
L 256.494293 134.096282 
L 256.609216 134.096282 
L 256.719102 131.581342 
L 256.941253 131.581342 
L 256.98262 129.066403 
L 257.528171 129.066403 
L 257.528171 127.808933 
L 257.676441 127.808933 
L 257.676441 126.551463 
L 257.878775 126.551463 
L 257.94841 124.036524 
L 258.08192 124.036524 
L 258.08192 122.779054 
L 258.229308 122.779054 
L 258.229308 121.521584 
L 258.448533 121.521584 
L 258.512628 119.006645 
L 258.76716 119.006645 
L 258.840698 115.234235 
L 258.890867 115.234235 
L 258.890867 113.976766 
L 259.043001 113.976766 
L 259.043001 112.719296 
L 259.333954 112.719296 
L 259.333954 111.461826 
L 259.502605 111.461826 
L 259.546229 107.689417 
L 259.783416 107.689417 
L 259.832053 102.659538 
L 259.995596 102.659538 
L 259.995596 101.402068 
L 260.187266 101.402068 
L 260.187266 100.144598 
L 260.888913 100.144598 
L 260.888913 98.887129 
L 261.063072 98.887129 
L 261.098106 96.372189 
L 261.253939 96.372189 
L 261.256207 93.85725 
L 261.478916 93.85725 
L 261.478916 92.59978 
L 261.649871 92.59978 
L 261.649871 91.34231 
L 262.002907 91.34231 
L 262.002907 90.08484 
L 262.42645 90.08484 
L 262.42645 88.827371 
L 262.907321 88.827371 
L 262.907321 87.569901 
L 263.488752 87.569901 
L 263.488752 86.312431 
L 263.932101 86.312431 
L 264.042572 83.797492 
L 264.06857 83.797492 
L 264.06857 82.540022 
L 264.181745 82.540022 
L 264.220781 80.025083 
L 264.34129 80.025083 
L 264.34129 78.767613 
L 264.635986 78.767613 
L 264.635986 77.510143 
L 265.154389 77.510143 
L 265.154389 76.252673 
L 265.357264 76.252673 
L 265.357264 74.995204 
L 265.522865 74.995204 
L 265.522865 73.737734 
L 267.699114 73.737734 
L 267.699114 72.480264 
L 269.368663 72.480264 
L 269.368663 71.222794 
L 270.165662 71.222794 
L 270.165662 69.965325 
L 272.370475 69.965325 
L 272.370475 68.707855 
L 272.6977 68.707855 
L 272.6977 67.450385 
L 277.581903 67.450385 
L 277.581903 66.192915 
L 278.436542 66.192915 
L 278.436542 64.935446 
L 313.831752 64.935446 
L 313.831752 63.677976 
L 314.904285 63.677976 
L 314.904285 62.420506 
L 317.767526 62.420506 
L 317.767526 61.163036 
L 326.282153 61.163036 
L 326.282153 59.905567 
L 326.893194 59.905567 
L 326.893194 58.648097 
L 327.633855 58.648097 
L 327.633855 57.390627 
L 329.673863 57.390627 
L 329.673863 56.133157 
L 330.361561 56.133157 
L 330.361561 54.875688 
L 331.250652 54.875688 
L 331.250652 53.618218 
L 332.302772 53.618218 
L 332.302772 52.360748 
L 332.544202 52.360748 
L 332.544202 51.103278 
L 333.455293 51.103278 
L 333.455293 49.845809 
L 333.758971 49.845809 
L 333.758971 48.588339 
L 337.67612 48.588339 
L 337.67612 47.330869 
L 339.258365 47.330869 
L 339.258365 46.073399 
L 339.399902 46.073399 
L 339.399902 44.81593 
L 340.045438 44.81593 
L 340.045438 43.55846 
L 341.504218 43.55846 
L 341.504218 42.30099 
L 342.403015 42.30099 
L 342.403015 41.04352 
L 342.909355 41.04352 
L 342.909355 39.786051 
L 343.050816 39.786051 
L 343.050816 38.528581 
L 343.751765 38.528581 
L 343.751765 37.271111 
L 344.398284 37.271111 
L 344.44425 34.756172 
L 345.229189 34.756172 
L 345.229189 33.498702 
L 347.126785 33.498702 
L 347.126785 32.241232 
L 347.244433 32.241232 
L 347.244433 30.983762 
L 349.965574 30.983762 
L 349.965574 29.726293 
L 350.259189 29.726293 
L 350.259189 28.468823 
L 350.38669 28.468823 
L 350.38669 27.211353 
L 352.268857 27.211353 
L 352.268857 25.953883 
L 353.223958 25.953883 
L 353.291531 23.438944 
L 353.457737 23.438944 
L 353.457737 22.181474 
L 353.944017 22.181474 
L 353.944017 20.924004 
L 356.135327 20.924004 
L 356.135327 19.666535 
L 356.437111 19.666535 
L 356.437111 18.409065 
L 356.69169 18.409065 
L 356.69169 17.151595 
L 357.110124 17.151595 
L 357.110124 15.894125 
L 358.587704 15.894125 
L 358.587704 14.636656 
L 359.134177 14.636656 
L 359.134177 13.379186 
L 359.306304 13.379186 
L 359.306304 12.121716 
L 360.888513 12.121716 
L 360.888513 10.864246 
L 367.295131 10.864246 
L 367.295131 9.606777 
L 378.364011 9.606777 
L 378.364011 8.349307 
L 378.364011 8.349307 
L 450.672 8.349307 
L 450.672 8.349307 
" style="fill:none;stroke:#bf00bf;stroke-linecap:square;stroke-width:1.5;"/>
   </g>
   <g id="line2d_26">
    <path clip-path="url(#p42f7920d59)" d="M 218.76781 291.28 
L 218.76781 290.02253 
L 220.143261 290.02253 
L 220.143261 288.765061 
L 220.6346 288.765061 
L 220.6346 287.507591 
L 223.541729 287.507591 
L 223.541729 286.250121 
L 223.774997 286.250121 
L 223.774997 284.992651 
L 223.911537 284.992651 
L 223.911537 283.735182 
L 224.815814 283.735182 
L 224.815814 282.477712 
L 225.263871 282.477712 
L 225.308045 279.962772 
L 225.948895 279.962772 
L 225.948895 278.705303 
L 227.105348 278.705303 
L 227.105348 277.447833 
L 227.265518 277.447833 
L 227.265518 276.190363 
L 228.677306 276.190363 
L 228.677306 274.932893 
L 229.53823 274.932893 
L 229.53823 273.675424 
L 230.209006 273.675424 
L 230.209006 272.417954 
L 231.40335 272.417954 
L 231.40335 271.160484 
L 231.953497 271.160484 
L 231.953497 269.903014 
L 232.181216 269.903014 
L 232.181216 268.645545 
L 232.816232 268.645545 
L 232.816232 267.388075 
L 234.349338 267.388075 
L 234.349338 266.130605 
L 234.552227 266.130605 
L 234.557233 263.615666 
L 234.825254 263.615666 
L 234.922921 261.100726 
L 235.021855 261.100726 
L 235.021855 259.843256 
L 235.209343 259.843256 
L 235.209343 258.585787 
L 235.526236 258.585787 
L 235.526236 257.328317 
L 235.718772 257.328317 
L 235.718772 256.070847 
L 236.230102 256.070847 
L 236.230102 254.813377 
L 237.095828 254.813377 
L 237.095828 253.555908 
L 237.229451 253.555908 
L 237.229451 252.298438 
L 237.352206 252.298438 
L 237.352206 251.040968 
L 237.503644 251.040968 
L 237.503644 249.783498 
L 237.754208 249.783498 
L 237.754208 248.526029 
L 238.118281 248.526029 
L 238.118281 247.268559 
L 238.250267 247.268559 
L 238.250267 246.011089 
L 238.490422 246.011089 
L 238.490422 244.753619 
L 238.773442 244.753619 
L 238.800375 242.23868 
L 239.259327 242.23868 
L 239.259327 240.98121 
L 240.501755 240.98121 
L 240.501755 239.72374 
L 241.048084 239.72374 
L 241.048084 238.466271 
L 241.268196 238.466271 
L 241.268196 237.208801 
L 241.390629 237.208801 
L 241.390629 235.951331 
L 241.680278 235.951331 
L 241.680278 234.693861 
L 241.92751 234.693861 
L 241.92751 233.436392 
L 242.69878 233.436392 
L 242.69878 232.178922 
L 242.891236 232.178922 
L 242.908302 229.663982 
L 243.367244 229.663982 
L 243.367244 228.406513 
L 243.817563 228.406513 
L 243.900834 225.891573 
L 244.074398 225.891573 
L 244.074398 224.634103 
L 244.30047 224.634103 
L 244.30047 223.376634 
L 244.44206 223.376634 
L 244.44206 222.119164 
L 244.57685 222.119164 
L 244.57685 220.861694 
L 244.804062 220.861694 
L 244.804062 219.604224 
L 245.228877 219.604224 
L 245.228877 218.346755 
L 245.363509 218.346755 
L 245.363509 217.089285 
L 245.813161 217.089285 
L 245.844352 214.574345 
L 246.049031 214.574345 
L 246.148611 212.059406 
L 246.251458 212.059406 
L 246.360855 208.286997 
L 246.407382 208.286997 
L 246.506852 204.514587 
L 246.604262 204.514587 
L 246.647002 201.999648 
L 246.76809 201.999648 
L 246.80982 199.484708 
L 246.896609 199.484708 
L 246.896609 198.227239 
L 247.164919 198.227239 
L 247.203516 195.712299 
L 247.415638 195.712299 
L 247.475071 193.19736 
L 247.533753 193.19736 
L 247.533753 191.93989 
L 247.839524 191.93989 
L 247.942567 189.42495 
L 248.053675 189.42495 
L 248.114619 186.910011 
L 248.263918 186.910011 
L 248.263918 185.652541 
L 248.43121 185.652541 
L 248.53266 183.137602 
L 248.691388 183.137602 
L 248.790596 179.365193 
L 248.892954 179.365193 
L 248.912119 176.850253 
L 249.093494 176.850253 
L 249.093494 175.592783 
L 249.249242 175.592783 
L 249.249242 174.335314 
L 250.279761 174.335314 
L 250.314123 171.820374 
L 250.423638 171.820374 
L 250.428361 169.305435 
L 250.595685 169.305435 
L 250.706308 164.275556 
L 250.797738 164.275556 
L 250.894601 161.760616 
L 250.938036 161.760616 
L 251.009471 159.245677 
L 251.1637 159.245677 
L 251.173983 156.730737 
L 251.366918 156.730737 
L 251.366918 155.473267 
L 251.493778 155.473267 
L 251.551912 152.958328 
L 251.758175 152.958328 
L 251.827147 150.443388 
L 252.160649 150.443388 
L 252.205048 147.928449 
L 252.311851 147.928449 
L 252.311851 146.670979 
L 252.429386 146.670979 
L 252.535056 142.89857 
L 252.74955 142.89857 
L 252.828632 139.126161 
L 252.92964 139.126161 
L 253.028949 135.353751 
L 253.040942 135.353751 
L 253.040942 134.096282 
L 253.336105 134.096282 
L 253.336105 132.838812 
L 253.463565 132.838812 
L 253.463565 131.581342 
L 253.619067 131.581342 
L 253.619067 130.323872 
L 253.790674 130.323872 
L 253.862155 126.551463 
L 254.031171 126.551463 
L 254.044043 124.036524 
L 254.207716 124.036524 
L 254.213404 121.521584 
L 254.336284 121.521584 
L 254.336284 120.264114 
L 254.474632 120.264114 
L 254.568021 116.491705 
L 254.605639 116.491705 
L 254.697219 113.976766 
L 254.835203 113.976766 
L 254.926942 110.204356 
L 255.235785 110.204356 
L 255.315247 106.431947 
L 255.486018 106.431947 
L 255.486018 105.174477 
L 255.734129 105.174477 
L 255.746417 102.659538 
L 255.963856 102.659538 
L 255.963856 101.402068 
L 256.146899 101.402068 
L 256.146899 100.144598 
L 256.405965 100.144598 
L 256.487885 97.629659 
L 256.609216 97.629659 
L 256.691578 95.114719 
L 256.728562 95.114719 
L 256.728562 93.85725 
L 256.98262 93.85725 
L 256.98262 92.59978 
L 257.146237 92.59978 
L 257.146237 91.34231 
L 257.386472 91.34231 
L 257.386472 90.08484 
L 257.691745 90.08484 
L 257.691745 88.827371 
L 258.415815 88.827371 
L 258.512628 86.312431 
L 258.782424 86.312431 
L 258.782424 85.054961 
L 259.266119 85.054961 
L 259.266119 83.797492 
L 259.502605 83.797492 
L 259.546229 80.025083 
L 259.812181 80.025083 
L 259.83857 76.252673 
L 260.459413 76.252673 
L 260.459413 74.995204 
L 260.888913 74.995204 
L 260.888913 73.737734 
L 261.063072 73.737734 
L 261.063072 72.480264 
L 261.701732 72.480264 
L 261.701732 71.222794 
L 262.072355 71.222794 
L 262.072355 69.965325 
L 263.036238 69.965325 
L 263.036238 68.707855 
L 263.488752 68.707855 
L 263.488752 67.450385 
L 267.462148 67.450385 
L 267.462148 66.192915 
L 268.555743 66.192915 
L 268.555743 64.935446 
L 307.644883 64.935446 
L 307.644883 63.677976 
L 310.046869 63.677976 
L 310.046869 62.420506 
L 311.386023 62.420506 
L 311.386023 61.163036 
L 313.831752 61.163036 
L 313.831752 59.905567 
L 314.331854 59.905567 
L 314.331854 58.648097 
L 314.904285 58.648097 
L 314.904285 57.390627 
L 317.767526 57.390627 
L 317.767526 56.133157 
L 320.841935 56.133157 
L 320.841935 54.875688 
L 324.255952 54.875688 
L 324.255952 53.618218 
L 324.966559 53.618218 
L 324.966559 52.360748 
L 325.879781 52.360748 
L 325.879781 51.103278 
L 326.282153 51.103278 
L 326.282153 49.845809 
L 326.551815 49.845809 
L 326.551815 48.588339 
L 327.559875 48.588339 
L 327.633855 46.073399 
L 329.673863 46.073399 
L 329.673863 44.81593 
L 331.250652 44.81593 
L 331.250652 43.55846 
L 331.68591 43.55846 
L 331.68591 42.30099 
L 332.544202 42.30099 
L 332.544202 41.04352 
L 333.455293 41.04352 
L 333.455293 39.786051 
L 333.758971 39.786051 
L 333.758971 38.528581 
L 335.088216 38.528581 
L 335.088216 37.271111 
L 335.92774 37.271111 
L 335.92774 36.013641 
L 338.046786 36.013641 
L 338.046786 34.756172 
L 338.889712 34.756172 
L 338.889712 33.498702 
L 339.164655 33.498702 
L 339.258365 30.983762 
L 339.666466 30.983762 
L 339.666466 29.726293 
L 340.045438 29.726293 
L 340.045438 28.468823 
L 340.198313 28.468823 
L 340.198313 27.211353 
L 341.688966 27.211353 
L 341.688966 25.953883 
L 342.135429 25.953883 
L 342.135429 24.696414 
L 342.403015 24.696414 
L 342.403015 23.438944 
L 342.51815 23.438944 
L 342.51815 22.181474 
L 342.909355 22.181474 
L 342.909355 20.924004 
L 343.754489 20.924004 
L 343.838783 17.151595 
L 344.54113 17.151595 
L 344.54113 15.894125 
L 347.126785 15.894125 
L 347.126785 14.636656 
L 347.244433 14.636656 
L 347.244433 13.379186 
L 348.934807 13.379186 
L 348.934807 12.121716 
L 350.259189 12.121716 
L 350.259189 10.864246 
L 355.033652 10.864246 
L 355.033652 9.606777 
L 357.110124 9.606777 
L 357.110124 8.349307 
L 357.110124 8.349307 
L 450.672 8.349307 
L 450.672 8.349307 
" style="fill:none;stroke:#000000;stroke-linecap:square;stroke-width:1.5;"/>
   </g>
   <g id="line2d_27">
    <path clip-path="url(#p42f7920d59)" d="M 208.256847 291.28 
L 208.256847 290.02253 
L 214.183782 290.02253 
L 214.183782 288.765061 
L 218.76781 288.765061 
L 218.76781 287.507591 
L 220.143261 287.507591 
L 220.143261 286.250121 
L 221.116324 286.250121 
L 221.116324 284.992651 
L 221.534768 284.992651 
L 221.58118 282.477712 
L 222.692388 282.477712 
L 222.692388 281.220242 
L 223.541729 281.220242 
L 223.541729 279.962772 
L 223.755382 279.962772 
L 223.774997 277.447833 
L 223.911537 277.447833 
L 223.911537 276.190363 
L 224.259353 276.190363 
L 224.259353 274.932893 
L 224.815814 274.932893 
L 224.815814 273.675424 
L 224.995878 273.675424 
L 225.029748 271.160484 
L 225.176245 271.160484 
L 225.263871 268.645545 
L 225.308045 268.645545 
L 225.308045 267.388075 
L 225.469313 267.388075 
L 225.469313 266.130605 
L 226.088957 266.130605 
L 226.088957 264.873135 
L 226.575195 264.873135 
L 226.575195 263.615666 
L 226.881852 263.615666 
L 226.989593 261.100726 
L 227.130225 261.100726 
L 227.130225 259.843256 
L 227.265518 259.843256 
L 227.265518 258.585787 
L 228.265327 258.585787 
L 228.265327 257.328317 
L 229.174623 257.328317 
L 229.174623 256.070847 
L 229.53823 256.070847 
L 229.53823 254.813377 
L 229.837881 254.813377 
L 229.837881 253.555908 
L 230.037026 253.555908 
L 230.037026 252.298438 
L 230.24044 252.298438 
L 230.274446 249.783498 
L 230.626173 249.783498 
L 230.626173 248.526029 
L 231.605307 248.526029 
L 231.605307 247.268559 
L 232.181216 247.268559 
L 232.181216 246.011089 
L 232.816232 246.011089 
L 232.816232 244.753619 
L 233.926248 244.753619 
L 233.983559 242.23868 
L 234.557233 242.23868 
L 234.630438 239.72374 
L 235.209343 239.72374 
L 235.209343 238.466271 
L 235.368943 238.466271 
L 235.368943 237.208801 
L 235.58053 237.208801 
L 235.58053 235.951331 
L 236.366868 235.951331 
L 236.366868 234.693861 
L 236.72759 234.693861 
L 236.72759 233.436392 
L 238.250267 233.436392 
L 238.250267 232.178922 
L 238.576834 232.178922 
L 238.576834 230.921452 
L 239.391285 230.921452 
L 239.391285 229.663982 
L 240.169811 229.663982 
L 240.24779 227.149043 
L 240.501755 227.149043 
L 240.501755 225.891573 
L 241.680278 225.891573 
L 241.680278 224.634103 
L 242.221666 224.634103 
L 242.252091 222.119164 
L 242.427833 222.119164 
L 242.448936 219.604224 
L 242.69878 219.604224 
L 242.707801 217.089285 
L 242.84147 217.089285 
L 242.908302 214.574345 
L 243.439369 214.574345 
L 243.439369 213.316876 
L 243.770009 213.316876 
L 243.770009 212.059406 
L 243.972 212.059406 
L 244.074398 209.544466 
L 244.272835 209.544466 
L 244.37625 201.999648 
L 244.57685 201.999648 
L 244.687079 199.484708 
L 244.804062 199.484708 
L 244.804062 198.227239 
L 244.953371 198.227239 
L 244.953371 196.969769 
L 245.124526 196.969769 
L 245.228877 194.454829 
L 245.265469 194.454829 
L 245.363509 191.93989 
L 245.441509 191.93989 
L 245.441509 190.68242 
L 245.567665 190.68242 
L 245.596922 188.167481 
L 245.702083 188.167481 
L 245.813161 184.395072 
L 245.844352 184.395072 
L 245.844352 183.137602 
L 246.103097 183.137602 
L 246.103097 181.880132 
L 246.298575 181.880132 
L 246.298575 180.622662 
L 246.45295 180.622662 
L 246.506852 178.107723 
L 246.566396 178.107723 
L 246.658802 175.592783 
L 246.719652 175.592783 
L 246.798641 170.562904 
L 246.945799 170.562904 
L 247.009145 168.047965 
L 247.164919 168.047965 
L 247.236802 165.533025 
L 247.334538 165.533025 
L 247.4408 163.018086 
L 247.641275 163.018086 
L 247.705091 160.503146 
L 247.839524 160.503146 
L 247.859411 157.988207 
L 248.053675 157.988207 
L 248.053675 156.730737 
L 248.191761 156.730737 
L 248.247093 152.958328 
L 248.309734 152.958328 
L 248.309734 151.700858 
L 248.438098 151.700858 
L 248.53266 149.185919 
L 248.810128 149.185919 
L 248.810128 147.928449 
L 249.074469 147.928449 
L 249.157711 145.413509 
L 249.249242 145.413509 
L 249.249242 144.15604 
L 249.382485 144.15604 
L 249.45023 140.38363 
L 249.640436 140.38363 
L 249.640436 139.126161 
L 249.782002 139.126161 
L 249.841949 136.611221 
L 249.911582 136.611221 
L 249.912057 134.096282 
L 250.279761 134.096282 
L 250.279761 132.838812 
L 250.423638 132.838812 
L 250.428361 130.323872 
L 250.554795 130.323872 
L 250.595685 127.808933 
L 250.798397 127.808933 
L 250.849872 124.036524 
L 250.910092 124.036524 
L 250.910092 122.779054 
L 251.165835 122.779054 
L 251.269242 119.006645 
L 251.337871 119.006645 
L 251.337871 117.749175 
L 251.758175 117.749175 
L 251.827147 115.234235 
L 251.899869 115.234235 
L 251.899869 113.976766 
L 252.117585 113.976766 
L 252.160649 111.461826 
L 252.311851 111.461826 
L 252.409926 108.946887 
L 252.508845 108.946887 
L 252.535056 106.431947 
L 252.74955 106.431947 
L 252.828632 103.917008 
L 252.92964 103.917008 
L 252.942399 101.402068 
L 253.510189 101.402068 
L 253.619067 97.629659 
L 253.658628 97.629659 
L 253.682286 95.114719 
L 253.866913 95.114719 
L 253.920968 91.34231 
L 254.044043 91.34231 
L 254.044043 90.08484 
L 254.204886 90.08484 
L 254.212886 87.569901 
L 254.474823 87.569901 
L 254.492923 85.054961 
L 254.697219 85.054961 
L 254.758813 82.540022 
L 255.528038 82.540022 
L 255.528038 81.282552 
L 255.669472 81.282552 
L 255.734129 77.510143 
L 255.963856 77.510143 
L 255.963856 76.252673 
L 256.146899 76.252673 
L 256.146899 74.995204 
L 256.529077 74.995204 
L 256.609216 72.480264 
L 256.642241 72.480264 
L 256.728562 69.965325 
L 257.773716 69.965325 
L 257.773716 68.707855 
L 259.008716 68.707855 
L 259.008716 67.450385 
L 259.219347 67.450385 
L 259.219347 66.192915 
L 263.488752 66.192915 
L 263.488752 64.935446 
L 289.635543 64.935446 
L 289.635543 63.677976 
L 291.932336 63.677976 
L 291.932336 62.420506 
L 294.4551 62.420506 
L 294.4551 61.163036 
L 299.586596 61.163036 
L 299.586596 59.905567 
L 300.177216 59.905567 
L 300.177216 58.648097 
L 306.069615 58.648097 
L 306.069615 57.390627 
L 307.010909 57.390627 
L 307.010909 56.133157 
L 307.644883 56.133157 
L 307.644883 54.875688 
L 308.001646 54.875688 
L 308.001646 53.618218 
L 309.127362 53.618218 
L 309.127362 52.360748 
L 311.386023 52.360748 
L 311.386023 51.103278 
L 311.998066 51.103278 
L 311.998066 49.845809 
L 313.946805 49.845809 
L 313.946805 48.588339 
L 314.17184 48.588339 
L 314.17184 47.330869 
L 314.331854 47.330869 
L 314.331854 46.073399 
L 314.784486 46.073399 
L 314.784486 44.81593 
L 314.904285 44.81593 
L 314.904285 43.55846 
L 315.144591 43.55846 
L 315.144591 42.30099 
L 315.310314 42.30099 
L 315.310314 41.04352 
L 317.767526 41.04352 
L 317.767526 39.786051 
L 320.841935 39.786051 
L 320.841935 38.528581 
L 323.701 38.528581 
L 323.701 37.271111 
L 324.292221 37.271111 
L 324.292221 36.013641 
L 324.732297 36.013641 
L 324.766064 33.498702 
L 324.843658 33.498702 
L 324.843658 32.241232 
L 324.966559 32.241232 
L 324.966559 30.983762 
L 325.895546 30.983762 
L 325.895546 29.726293 
L 326.533986 29.726293 
L 326.607741 27.211353 
L 328.098475 27.211353 
L 328.109864 24.696414 
L 328.731798 24.696414 
L 328.731798 23.438944 
L 329.680861 23.438944 
L 329.680861 22.181474 
L 330.431442 22.181474 
L 330.431442 20.924004 
L 330.736283 20.924004 
L 330.736283 19.666535 
L 330.853972 19.666535 
L 330.853972 18.409065 
L 331.250652 18.409065 
L 331.261288 15.894125 
L 332.710129 15.894125 
L 332.710129 14.636656 
L 333.455293 14.636656 
L 333.455293 13.379186 
L 335.052678 13.379186 
L 335.088216 10.864246 
L 340.045438 10.864246 
L 340.045438 9.606777 
L 343.835102 9.606777 
L 343.835102 8.349307 
L 343.835102 8.349307 
L 450.672 8.349307 
L 450.672 8.349307 
" style="fill:none;stroke:#00bfbf;stroke-linecap:square;stroke-width:1.5;"/>
   </g>
   <g id="line2d_28">
    <path clip-path="url(#p42f7920d59)" d="M 186.494533 291.28 
L 186.494533 290.02253 
L 191.455783 290.02253 
L 191.455783 288.765061 
L 194.104341 288.765061 
L 194.104341 287.507591 
L 194.609904 287.507591 
L 194.609904 286.250121 
L 197.669008 286.250121 
L 197.669008 284.992651 
L 198.617043 284.992651 
L 198.617043 283.735182 
L 201.532212 283.735182 
L 201.532212 282.477712 
L 202.934156 282.477712 
L 202.934156 281.220242 
L 205.871253 281.220242 
L 205.871253 279.962772 
L 206.199445 279.962772 
L 206.199445 278.705303 
L 207.021286 278.705303 
L 207.021286 277.447833 
L 208.298713 277.447833 
L 208.387394 274.932893 
L 209.710553 274.932893 
L 209.710553 273.675424 
L 210.353232 273.675424 
L 210.353232 272.417954 
L 212.766589 272.417954 
L 212.766589 271.160484 
L 213.531687 271.160484 
L 213.540434 268.645545 
L 214.160545 268.645545 
L 214.183782 266.130605 
L 214.468404 266.130605 
L 214.468404 264.873135 
L 214.691729 264.873135 
L 214.691729 263.615666 
L 218.140725 263.615666 
L 218.140725 262.358196 
L 218.76781 262.358196 
L 218.76781 261.100726 
L 221.116324 261.100726 
L 221.116324 259.843256 
L 221.434762 259.843256 
L 221.434762 258.585787 
L 223.000029 258.585787 
L 223.000029 257.328317 
L 223.746174 257.328317 
L 223.746174 256.070847 
L 224.259353 256.070847 
L 224.296511 253.555908 
L 225.176245 253.555908 
L 225.176245 252.298438 
L 225.469313 252.298438 
L 225.469313 251.040968 
L 225.892892 251.040968 
L 225.892892 249.783498 
L 226.088957 249.783498 
L 226.17418 247.268559 
L 226.24799 247.268559 
L 226.24799 246.011089 
L 226.989593 246.011089 
L 226.989593 244.753619 
L 227.265518 244.753619 
L 227.265518 243.49615 
L 228.771786 243.49615 
L 228.771786 242.23868 
L 230.575643 242.23868 
L 230.626173 238.466271 
L 231.094025 238.466271 
L 231.094025 237.208801 
L 232.997827 237.208801 
L 232.997827 235.951331 
L 233.926248 235.951331 
L 233.983559 233.436392 
L 234.230429 233.436392 
L 234.230429 232.178922 
L 234.347613 232.178922 
L 234.347613 230.921452 
L 234.54608 230.921452 
L 234.54608 229.663982 
L 235.291444 229.663982 
L 235.368943 227.149043 
L 235.548662 227.149043 
L 235.58053 224.634103 
L 236.366868 224.634103 
L 236.434608 222.119164 
L 236.615807 222.119164 
L 236.721466 218.346755 
L 236.72759 218.346755 
L 236.72759 217.089285 
L 237.480751 217.089285 
L 237.480751 215.831815 
L 238.250267 215.831815 
L 238.250267 214.574345 
L 238.422803 214.574345 
L 238.422803 213.316876 
L 238.896368 213.316876 
L 238.896368 212.059406 
L 239.056382 212.059406 
L 239.056382 210.801936 
L 239.363446 210.801936 
L 239.391285 208.286997 
L 239.972053 208.286997 
L 240.003375 205.772057 
L 240.169811 205.772057 
L 240.24779 203.257118 
L 240.302565 203.257118 
L 240.302565 201.999648 
L 240.443948 201.999648 
L 240.501755 198.227239 
L 240.627128 198.227239 
L 240.627128 196.969769 
L 240.829873 196.969769 
L 240.901475 194.454829 
L 241.012945 194.454829 
L 241.012945 193.19736 
L 241.223663 193.19736 
L 241.223663 191.93989 
L 241.394369 191.93989 
L 241.424148 189.42495 
L 241.609295 189.42495 
L 241.680278 185.652541 
L 242.067031 185.652541 
L 242.177194 181.880132 
L 242.209101 181.880132 
L 242.257245 176.850253 
L 242.417804 176.850253 
L 242.448936 173.077844 
L 242.544886 173.077844 
L 242.622616 169.305435 
L 242.664476 169.305435 
L 242.707801 166.790495 
L 242.986467 166.790495 
L 242.986467 165.533025 
L 243.103671 165.533025 
L 243.167135 163.018086 
L 243.220728 163.018086 
L 243.251488 159.245677 
L 243.379917 159.245677 
L 243.413332 156.730737 
L 243.504487 156.730737 
L 243.504487 155.473267 
L 243.69571 155.473267 
L 243.806047 150.443388 
L 243.864885 150.443388 
L 243.864885 149.185919 
L 244.146274 149.185919 
L 244.236466 144.15604 
L 244.272835 144.15604 
L 244.33236 140.38363 
L 244.580733 140.38363 
L 244.580733 139.126161 
L 244.701695 139.126161 
L 244.739516 136.611221 
L 244.837731 136.611221 
L 244.888955 134.096282 
L 244.994617 134.096282 
L 244.994617 132.838812 
L 245.151444 132.838812 
L 245.170126 129.066403 
L 245.311026 129.066403 
L 245.363509 126.551463 
L 245.469832 126.551463 
L 245.567665 122.779054 
L 245.652673 122.779054 
L 245.720478 119.006645 
L 246.051887 119.006645 
L 246.051887 117.749175 
L 246.538446 117.749175 
L 246.62447 113.976766 
L 247.164919 113.976766 
L 247.257075 111.461826 
L 247.641275 111.461826 
L 247.705091 107.689417 
L 247.839524 107.689417 
L 247.868418 105.174477 
L 248.053675 105.174477 
L 248.053675 103.917008 
L 248.629719 103.917008 
L 248.693372 101.402068 
L 248.741274 101.402068 
L 248.810128 98.887129 
L 249.157711 98.887129 
L 249.157711 97.629659 
L 249.324472 97.629659 
L 249.324472 96.372189 
L 249.911582 96.372189 
L 249.911582 95.114719 
L 250.279761 95.114719 
L 250.279761 93.85725 
L 250.428361 93.85725 
L 250.478905 91.34231 
L 250.646806 91.34231 
L 250.646806 90.08484 
L 250.798397 90.08484 
L 250.849872 87.569901 
L 251.173983 87.569901 
L 251.173983 86.312431 
L 251.899869 86.312431 
L 251.899869 85.054961 
L 252.508845 85.054961 
L 252.508845 83.797492 
L 252.828632 83.797492 
L 252.8601 81.282552 
L 253.619067 81.282552 
L 253.682286 78.767613 
L 253.878605 78.767613 
L 253.920968 76.252673 
L 254.044043 76.252673 
L 254.044043 74.995204 
L 254.474823 74.995204 
L 254.492923 72.480264 
L 255.734129 72.480264 
L 255.734129 71.222794 
L 256.146899 71.222794 
L 256.146899 69.965325 
L 257.773716 69.965325 
L 257.773716 68.707855 
L 259.008716 68.707855 
L 259.008716 67.450385 
L 259.219347 67.450385 
L 259.219347 66.192915 
L 261.159058 66.192915 
L 261.159058 64.935446 
L 263.488752 64.935446 
L 263.488752 63.677976 
L 266.483491 63.677976 
L 266.483491 62.420506 
L 270.974707 62.420506 
L 270.974707 61.163036 
L 271.354481 61.163036 
L 271.354481 59.905567 
L 274.767401 59.905567 
L 274.767401 58.648097 
L 276.45738 58.648097 
L 276.45738 57.390627 
L 276.83516 57.390627 
L 276.83516 56.133157 
L 278.325938 56.133157 
L 278.325938 54.875688 
L 283.737478 54.875688 
L 283.737478 53.618218 
L 284.150928 53.618218 
L 284.150928 52.360748 
L 284.628673 52.360748 
L 284.628673 51.103278 
L 285.466084 51.103278 
L 285.466084 49.845809 
L 288.608404 49.845809 
L 288.608404 48.588339 
L 291.120949 48.588339 
L 291.120949 47.330869 
L 292.814858 47.330869 
L 292.814858 46.073399 
L 295.30737 46.073399 
L 295.30737 44.81593 
L 296.679283 44.81593 
L 296.679283 43.55846 
L 298.120045 43.55846 
L 298.120045 42.30099 
L 298.765437 42.30099 
L 298.765437 41.04352 
L 300.475599 41.04352 
L 300.475599 39.786051 
L 301.054908 39.786051 
L 301.054908 38.528581 
L 303.222796 38.528581 
L 303.222796 37.271111 
L 304.182788 37.271111 
L 304.182788 36.013641 
L 304.480762 36.013641 
L 304.480762 34.756172 
L 305.08801 34.756172 
L 305.08801 33.498702 
L 306.069615 33.498702 
L 306.069615 32.241232 
L 306.230422 32.241232 
L 306.230422 30.983762 
L 307.644883 30.983762 
L 307.75277 28.468823 
L 309.127362 28.468823 
L 309.127362 27.211353 
L 311.861148 27.211353 
L 311.861148 25.953883 
L 313.946805 25.953883 
L 313.946805 24.696414 
L 314.904285 24.696414 
L 314.904285 23.438944 
L 315.144591 23.438944 
L 315.144591 22.181474 
L 316.725867 22.181474 
L 316.725867 20.924004 
L 320.817516 20.924004 
L 320.817516 19.666535 
L 326.533986 19.666535 
L 326.533986 18.409065 
L 328.098475 18.409065 
L 328.098475 17.151595 
L 328.731798 17.151595 
L 328.731798 15.894125 
L 330.736283 15.894125 
L 330.736283 14.636656 
L 330.853972 14.636656 
L 330.853972 13.379186 
L 331.250652 13.379186 
L 331.250652 12.121716 
L 335.052678 12.121716 
L 335.088216 9.606777 
L 340.045438 9.606777 
L 340.045438 8.349307 
L 340.045438 8.349307 
L 450.672 8.349307 
L 450.672 8.349307 
" style="fill:none;stroke:#bf00bf;stroke-linecap:square;stroke-width:1.5;"/>
   </g>
   <g id="line2d_29">
    <path clip-path="url(#p42f7920d59)" d="M 167.310199 291.28 
L 167.310199 290.02253 
L 172.947684 290.02253 
L 172.947684 288.765061 
L 179.247869 288.765061 
L 179.247869 287.507591 
L 184.788058 287.507591 
L 184.788058 286.250121 
L 188.751332 286.250121 
L 188.751332 284.992651 
L 192.634028 284.992651 
L 192.634028 283.735182 
L 196.238173 283.735182 
L 196.238173 282.477712 
L 199.515525 282.477712 
L 199.515525 281.220242 
L 202.760898 281.220242 
L 202.760898 279.962772 
L 203.163246 279.962772 
L 203.163246 278.705303 
L 203.406677 278.705303 
L 203.406677 277.447833 
L 204.571557 277.447833 
L 204.571557 276.190363 
L 205.937938 276.190363 
L 205.937938 274.932893 
L 206.226222 274.932893 
L 206.226222 273.675424 
L 206.52145 273.675424 
L 206.52145 272.417954 
L 206.886829 272.417954 
L 206.886829 271.160484 
L 207.483605 271.160484 
L 207.539608 268.645545 
L 208.22166 268.645545 
L 208.22166 267.388075 
L 208.524537 267.388075 
L 208.524537 266.130605 
L 209.234244 266.130605 
L 209.234244 264.873135 
L 211.591776 264.873135 
L 211.591776 263.615666 
L 213.343613 263.615666 
L 213.343613 262.358196 
L 214.183782 262.358196 
L 214.183782 261.100726 
L 217.321456 261.100726 
L 217.321456 259.843256 
L 218.098884 259.843256 
L 218.098884 258.585787 
L 218.76781 258.585787 
L 218.76781 257.328317 
L 220.265447 257.328317 
L 220.265447 256.070847 
L 220.533813 256.070847 
L 220.533813 254.813377 
L 220.8627 254.813377 
L 220.8627 253.555908 
L 221.116324 253.555908 
L 221.116324 252.298438 
L 222.109711 252.298438 
L 222.109711 251.040968 
L 222.853186 251.040968 
L 222.892414 248.526029 
L 223.306569 248.526029 
L 223.306569 247.268559 
L 224.095629 247.268559 
L 224.095629 246.011089 
L 224.259353 246.011089 
L 224.259353 244.753619 
L 225.176245 244.753619 
L 225.176245 243.49615 
L 225.336066 243.49615 
L 225.336066 242.23868 
L 225.469313 242.23868 
L 225.469313 240.98121 
L 225.861166 240.98121 
L 225.861166 239.72374 
L 226.088957 239.72374 
L 226.088957 238.466271 
L 226.989593 238.466271 
L 226.989593 237.208801 
L 227.265518 237.208801 
L 227.265518 235.951331 
L 228.597978 235.951331 
L 228.597978 234.693861 
L 228.789709 234.693861 
L 228.789709 233.436392 
L 228.933145 233.436392 
L 228.933145 232.178922 
L 229.171109 232.178922 
L 229.171109 230.921452 
L 230.626173 230.921452 
L 230.728856 228.406513 
L 231.522591 228.406513 
L 231.523069 225.891573 
L 232.261145 225.891573 
L 232.261145 224.634103 
L 232.552247 224.634103 
L 232.552247 223.376634 
L 233.013236 223.376634 
L 233.013236 222.119164 
L 233.926248 222.119164 
L 234.025001 218.346755 
L 234.16453 218.346755 
L 234.222214 215.831815 
L 234.493672 215.831815 
L 234.493672 214.574345 
L 234.815933 214.574345 
L 234.815933 213.316876 
L 235.021937 213.316876 
L 235.084857 210.801936 
L 235.356616 210.801936 
L 235.441974 207.029527 
L 235.58053 207.029527 
L 235.58053 205.772057 
L 235.74476 205.772057 
L 235.787969 203.257118 
L 235.937631 203.257118 
L 236.019491 200.742178 
L 236.366868 200.742178 
L 236.377272 198.227239 
L 236.72759 198.227239 
L 236.72759 196.969769 
L 236.970092 196.969769 
L 236.970092 195.712299 
L 237.310168 195.712299 
L 237.351452 193.19736 
L 237.748974 193.19736 
L 237.748974 191.93989 
L 238.250267 191.93989 
L 238.250267 190.68242 
L 239.170202 190.68242 
L 239.170202 189.42495 
L 239.340865 189.42495 
L 239.391285 186.910011 
L 239.708007 186.910011 
L 239.708007 185.652541 
L 239.937918 185.652541 
L 240.01752 181.880132 
L 240.057481 181.880132 
L 240.057481 180.622662 
L 240.169811 180.622662 
L 240.24779 176.850253 
L 240.412941 176.850253 
L 240.501755 173.077844 
L 241.051389 173.077844 
L 241.127097 169.305435 
L 241.210708 169.305435 
L 241.210708 168.047965 
L 241.480229 168.047965 
L 241.589566 165.533025 
L 241.680278 165.533025 
L 241.781967 163.018086 
L 241.868558 163.018086 
L 241.959524 156.730737 
L 242.145977 156.730737 
L 242.252091 150.443388 
L 242.375698 150.443388 
L 242.452169 145.413509 
L 242.707801 145.413509 
L 242.707801 144.15604 
L 242.860351 144.15604 
L 242.925299 139.126161 
L 243.02091 139.126161 
L 243.069254 136.611221 
L 243.221759 136.611221 
L 243.270776 134.096282 
L 243.478665 134.096282 
L 243.480459 131.581342 
L 243.653777 131.581342 
L 243.685365 129.066403 
L 243.770088 129.066403 
L 243.770088 127.808933 
L 243.894746 127.808933 
L 243.894746 126.551463 
L 244.061323 126.551463 
L 244.061323 125.293993 
L 244.200194 125.293993 
L 244.30047 121.521584 
L 244.415941 121.521584 
L 244.415941 120.264114 
L 244.533941 120.264114 
L 244.620394 115.234235 
L 245.030554 115.234235 
L 245.030554 113.976766 
L 245.363509 113.976766 
L 245.363509 112.719296 
L 245.553907 112.719296 
L 245.602452 108.946887 
L 245.923454 108.946887 
L 245.923454 107.689417 
L 246.378049 107.689417 
L 246.378049 106.431947 
L 246.676183 106.431947 
L 246.676183 105.174477 
L 246.958452 105.174477 
L 246.958452 103.917008 
L 247.164919 103.917008 
L 247.164919 102.659538 
L 247.326924 102.659538 
L 247.326924 101.402068 
L 247.641275 101.402068 
L 247.705091 98.887129 
L 247.839524 98.887129 
L 247.839524 97.629659 
L 248.053675 97.629659 
L 248.053675 96.372189 
L 248.421615 96.372189 
L 248.421615 95.114719 
L 248.810128 95.114719 
L 248.893795 92.59978 
L 248.956025 92.59978 
L 248.956025 91.34231 
L 249.157711 91.34231 
L 249.157711 90.08484 
L 249.911582 90.08484 
L 249.911582 88.827371 
L 250.279761 88.827371 
L 250.279761 87.569901 
L 250.428361 87.569901 
L 250.428361 86.312431 
L 250.798397 86.312431 
L 250.849872 83.797492 
L 250.931874 83.797492 
L 250.931874 82.540022 
L 251.173983 82.540022 
L 251.173983 81.282552 
L 251.899869 81.282552 
L 251.899869 80.025083 
L 252.508845 80.025083 
L 252.508845 78.767613 
L 252.828632 78.767613 
L 252.828632 77.510143 
L 253.619067 77.510143 
L 253.682286 74.995204 
L 253.878605 74.995204 
L 253.920968 72.480264 
L 254.044043 72.480264 
L 254.044043 71.222794 
L 254.474823 71.222794 
L 254.492923 68.707855 
L 255.734129 68.707855 
L 255.734129 67.450385 
L 256.146899 67.450385 
L 256.146899 66.192915 
L 257.773716 66.192915 
L 257.773716 64.935446 
L 259.008716 64.935446 
L 259.008716 63.677976 
L 259.219347 63.677976 
L 259.219347 62.420506 
L 261.025075 62.420506 
L 261.025075 61.163036 
L 263.488752 61.163036 
L 263.488752 59.905567 
L 264.592593 59.905567 
L 264.592593 58.648097 
L 264.825431 58.648097 
L 264.825431 57.390627 
L 265.432116 57.390627 
L 265.44934 54.875688 
L 272.380678 54.875688 
L 272.468782 52.360748 
L 274.306269 52.360748 
L 274.306269 51.103278 
L 275.648025 51.103278 
L 275.648025 49.845809 
L 276.237346 49.845809 
L 276.237346 48.588339 
L 278.81534 48.588339 
L 278.81534 47.330869 
L 279.235481 47.330869 
L 279.235481 46.073399 
L 279.779518 46.073399 
L 279.779518 44.81593 
L 292.308805 44.81593 
L 292.308805 43.55846 
L 292.841675 43.55846 
L 292.841675 42.30099 
L 293.469134 42.30099 
L 293.469134 41.04352 
L 294.715334 41.04352 
L 294.715334 39.786051 
L 295.377242 39.786051 
L 295.478731 37.271111 
L 295.882514 37.271111 
L 295.882514 36.013641 
L 298.060988 36.013641 
L 298.060988 34.756172 
L 299.309509 34.756172 
L 299.309509 33.498702 
L 300.213124 33.498702 
L 300.213124 32.241232 
L 305.727144 32.241232 
L 305.727144 30.983762 
L 306.069615 30.983762 
L 306.069615 29.726293 
L 307.644883 29.726293 
L 307.644883 28.468823 
L 307.815719 28.468823 
L 307.815719 27.211353 
L 309.127362 27.211353 
L 309.127362 25.953883 
L 310.326304 25.953883 
L 310.326304 24.696414 
L 313.946805 24.696414 
L 313.946805 23.438944 
L 314.149106 23.438944 
L 314.149106 22.181474 
L 314.904285 22.181474 
L 314.904285 20.924004 
L 315.144591 20.924004 
L 315.144591 19.666535 
L 326.533986 19.666535 
L 326.533986 18.409065 
L 328.098475 18.409065 
L 328.098475 17.151595 
L 328.731798 17.151595 
L 328.731798 15.894125 
L 330.736283 15.894125 
L 330.736283 14.636656 
L 330.853972 14.636656 
L 330.853972 13.379186 
L 331.250652 13.379186 
L 331.250652 12.121716 
L 335.052678 12.121716 
L 335.088216 9.606777 
L 340.045438 9.606777 
L 340.045438 8.349307 
L 340.045438 8.349307 
L 450.672 8.349307 
L 450.672 8.349307 
" style="fill:none;stroke:#000000;stroke-linecap:square;stroke-width:1.5;"/>
   </g>
   <g id="patch_3">
    <path d="M 5.52 291.28 
L 5.52 5.52 
" style="fill:none;stroke:#000000;stroke-linecap:square;stroke-linejoin:miter;stroke-width:0.8;"/>
   </g>
   <g id="patch_4">
    <path d="M 450.672 291.28 
L 450.672 5.52 
" style="fill:none;stroke:#000000;stroke-linecap:square;stroke-linejoin:miter;stroke-width:0.8;"/>
   </g>
   <g id="patch_5">
    <path d="M 5.52 291.28 
L 450.672 291.28 
" style="fill:none;stroke:#000000;stroke-linecap:square;stroke-linejoin:miter;stroke-width:0.8;"/>
   </g>
   <g id="patch_6">
    <path d="M 5.52 5.52 
L 450.672 5.52 
" style="fill:none;stroke:#000000;stroke-linecap:square;stroke-linejoin:miter;stroke-width:0.8;"/>
   </g>
   <g id="text_6">
    <!-- {f1-f5}, 5-D -->
    <defs>
     <path d="M 51.125 -9.28125 
L 51.125 -16.3125 
L 48.09375 -16.3125 
Q 35.9375 -16.3125 31.8125 -12.6875 
Q 27.6875 -9.078125 27.6875 1.703125 
L 27.6875 13.375 
Q 27.6875 20.75 25.046875 23.578125 
Q 22.40625 26.421875 15.484375 26.421875 
L 12.5 26.421875 
L 12.5 33.40625 
L 15.484375 33.40625 
Q 22.46875 33.40625 25.078125 36.203125 
Q 27.6875 39.015625 27.6875 46.296875 
L 27.6875 58.015625 
Q 27.6875 68.796875 31.8125 72.390625 
Q 35.9375 75.984375 48.09375 75.984375 
L 51.125 75.984375 
L 51.125 69 
L 47.796875 69 
Q 40.921875 69 38.8125 66.84375 
Q 36.71875 64.703125 36.71875 57.8125 
L 36.71875 45.703125 
Q 36.71875 38.03125 34.5 34.5625 
Q 32.28125 31.109375 26.90625 29.890625 
Q 32.328125 28.5625 34.515625 25.09375 
Q 36.71875 21.625 36.71875 14.015625 
L 36.71875 1.90625 
Q 36.71875 -4.984375 38.8125 -7.125 
Q 40.921875 -9.28125 47.796875 -9.28125 
z
" id="DejaVuSans-7b"/>
     <path d="M 10.796875 72.90625 
L 49.515625 72.90625 
L 49.515625 64.59375 
L 19.828125 64.59375 
L 19.828125 46.734375 
Q 21.96875 47.46875 24.109375 47.828125 
Q 26.265625 48.1875 28.421875 48.1875 
Q 40.625 48.1875 47.75 41.5 
Q 54.890625 34.8125 54.890625 23.390625 
Q 54.890625 11.625 47.5625 5.09375 
Q 40.234375 -1.421875 26.90625 -1.421875 
Q 22.3125 -1.421875 17.546875 -0.640625 
Q 12.796875 0.140625 7.71875 1.703125 
L 7.71875 11.625 
Q 12.109375 9.234375 16.796875 8.0625 
Q 21.484375 6.890625 26.703125 6.890625 
Q 35.15625 6.890625 40.078125 11.328125 
Q 45.015625 15.765625 45.015625 23.390625 
Q 45.015625 31 40.078125 35.4375 
Q 35.15625 39.890625 26.703125 39.890625 
Q 22.75 39.890625 18.8125 39.015625 
Q 14.890625 38.140625 10.796875 36.28125 
z
" id="DejaVuSans-35"/>
     <path d="M 12.5 -9.28125 
L 15.921875 -9.28125 
Q 22.75 -9.28125 24.828125 -7.171875 
Q 26.90625 -5.078125 26.90625 1.90625 
L 26.90625 14.015625 
Q 26.90625 21.625 29.09375 25.09375 
Q 31.296875 28.5625 36.71875 29.890625 
Q 31.296875 31.109375 29.09375 34.5625 
Q 26.90625 38.03125 26.90625 45.703125 
L 26.90625 57.8125 
Q 26.90625 64.75 24.828125 66.875 
Q 22.75 69 15.921875 69 
L 12.5 69 
L 12.5 75.984375 
L 15.578125 75.984375 
Q 27.734375 75.984375 31.8125 72.390625 
Q 35.890625 68.796875 35.890625 58.015625 
L 35.890625 46.296875 
Q 35.890625 39.015625 38.515625 36.203125 
Q 41.15625 33.40625 48.09375 33.40625 
L 51.125 33.40625 
L 51.125 26.421875 
L 48.09375 26.421875 
Q 41.15625 26.421875 38.515625 23.578125 
Q 35.890625 20.75 35.890625 13.375 
L 35.890625 1.703125 
Q 35.890625 -9.078125 31.8125 -12.6875 
Q 27.734375 -16.3125 15.578125 -16.3125 
L 12.5 -16.3125 
z
" id="DejaVuSans-7d"/>
     <path d="M 11.71875 12.40625 
L 22.015625 12.40625 
L 22.015625 4 
L 14.015625 -11.625 
L 7.71875 -11.625 
L 11.71875 4 
z
" id="DejaVuSans-2c"/>
    </defs>
    <g transform="translate(321.51896 285.5648)scale(0.2 -0.2)">
     <use xlink:href="#DejaVuSans-7b"/>
     <use x="63.623047" xlink:href="#DejaVuSans-66"/>
     <use x="98.828125" xlink:href="#DejaVuSans-31"/>
     <use x="162.451172" xlink:href="#DejaVuSans-2d"/>
     <use x="198.535156" xlink:href="#DejaVuSans-66"/>
     <use x="233.740234" xlink:href="#DejaVuSans-35"/>
     <use x="297.363281" xlink:href="#DejaVuSans-7d"/>
     <use x="360.986328" xlink:href="#DejaVuSans-2c"/>
     <use x="392.773438" xlink:href="#DejaVuSans-20"/>
     <use x="424.560547" xlink:href="#DejaVuSans-35"/>
     <use x="488.183594" xlink:href="#DejaVuSans-2d"/>
     <use x="524.267578" xlink:href="#DejaVuSans-44"/>
    </g>
   </g>
   <g id="text_7">
    <!-- v2.2.1.10 -->
    <defs>
     <path d="M 2.984375 54.6875 
L 12.5 54.6875 
L 29.59375 8.796875 
L 46.6875 54.6875 
L 56.203125 54.6875 
L 35.6875 0 
L 23.484375 0 
z
" id="DejaVuSans-76"/>
     <path d="M 19.1875 8.296875 
L 53.609375 8.296875 
L 53.609375 0 
L 7.328125 0 
L 7.328125 8.296875 
Q 12.9375 14.109375 22.625 23.890625 
Q 32.328125 33.6875 34.8125 36.53125 
Q 39.546875 41.84375 41.421875 45.53125 
Q 43.3125 49.21875 43.3125 52.78125 
Q 43.3125 58.59375 39.234375 62.25 
Q 35.15625 65.921875 28.609375 65.921875 
Q 23.96875 65.921875 18.8125 64.3125 
Q 13.671875 62.703125 7.8125 59.421875 
L 7.8125 69.390625 
Q 13.765625 71.78125 18.9375 73 
Q 24.125 74.21875 28.421875 74.21875 
Q 39.75 74.21875 46.484375 68.546875 
Q 53.21875 62.890625 53.21875 53.421875 
Q 53.21875 48.921875 51.53125 44.890625 
Q 49.859375 40.875 45.40625 35.40625 
Q 44.1875 33.984375 37.640625 27.21875 
Q 31.109375 20.453125 19.1875 8.296875 
z
" id="DejaVuSans-32"/>
     <path d="M 10.6875 12.40625 
L 21 12.40625 
L 21 0 
L 10.6875 0 
z
" id="DejaVuSans-2e"/>
    </defs>
    <g style="fill:#808080;" transform="translate(204.463188 286.342713)scale(0.1 -0.1)">
     <use xlink:href="#DejaVuSans-76"/>
     <use x="59.179688" xlink:href="#DejaVuSans-32"/>
     <use x="122.802734" xlink:href="#DejaVuSans-2e"/>
     <use x="154.589844" xlink:href="#DejaVuSans-32"/>
     <use x="218.212891" xlink:href="#DejaVuSans-2e"/>
     <use x="250" xlink:href="#DejaVuSans-31"/>
     <use x="313.623047" xlink:href="#DejaVuSans-2e"/>
     <use x="345.410156" xlink:href="#DejaVuSans-31"/>
     <use x="409.033203" xlink:href="#DejaVuSans-30"/>
    </g>
   </g>
  </g>
 </g>
 <defs>
  <clipPath id="p42f7920d59">
   <rect height="285.76" width="445.152" x="5.52" y="5.52"/>
  </clipPath>
 </defs>
</svg>
