<?xml version="1.0" encoding="utf-8" standalone="no"?>
<!DOCTYPE svg PUBLIC "-//W3C//DTD SVG 1.1//EN"
  "http://www.w3.org/Graphics/SVG/1.1/DTD/svg11.dtd">
<!-- Created with matplotlib (http://matplotlib.org/) -->
<svg height="345.6pt" version="1.1" viewBox="0 0 460.8 345.6" width="460.8pt" xmlns="http://www.w3.org/2000/svg" xmlns:xlink="http://www.w3.org/1999/xlink">
 <defs>
  <style type="text/css">
*{stroke-linecap:butt;stroke-linejoin:round;}
  </style>
 </defs>
 <g id="figure_1">
  <g id="patch_1">
   <path d="M 0 345.6 
L 460.8 345.6 
L 460.8 0 
L 0 0 
z
" style="fill:#ffffff;"/>
  </g>
  <g id="axes_1">
   <g id="patch_2">
    <path d="M 5.52 291.28 
L 450.672 291.28 
L 450.672 5.52 
L 5.52 5.52 
z
" style="fill:#ffffff;"/>
   </g>
   <g id="matplotlib.axis_1">
    <g id="xtick_1">
     <g id="line2d_1">
      <path clip-path="url(#p9b362014d3)" d="M 5.413143 291.28 
L 5.413143 5.52 
" style="fill:none;stroke:#b0b0b0;stroke-linecap:square;stroke-width:0.8;"/>
     </g>
     <g id="line2d_2">
      <defs>
       <path d="M 0 0 
L 0 3.5 
" id="m4004be637b" style="stroke:#000000;stroke-width:0.8;"/>
      </defs>
      <g>
       <use style="stroke:#000000;stroke-width:0.8;" x="5.413143" xlink:href="#m4004be637b" y="291.28"/>
      </g>
     </g>
    </g>
    <g id="xtick_2">
     <g id="line2d_3">
      <path clip-path="url(#p9b362014d3)" d="M 104.323017 291.28 
L 104.323017 5.52 
" style="fill:none;stroke:#b0b0b0;stroke-linecap:square;stroke-width:0.8;"/>
     </g>
     <g id="line2d_4">
      <g>
       <use style="stroke:#000000;stroke-width:0.8;" x="104.323017" xlink:href="#m4004be637b" y="291.28"/>
      </g>
     </g>
     <g id="text_1">
      <!-- -4 -->
      <defs>
       <path d="M 4.890625 31.390625 
L 31.203125 31.390625 
L 31.203125 23.390625 
L 4.890625 23.390625 
z
" id="DejaVuSans-2d"/>
       <path d="M 37.796875 64.3125 
L 12.890625 25.390625 
L 37.796875 25.390625 
z
M 35.203125 72.90625 
L 47.609375 72.90625 
L 47.609375 25.390625 
L 58.015625 25.390625 
L 58.015625 17.1875 
L 47.609375 17.1875 
L 47.609375 0 
L 37.796875 0 
L 37.796875 17.1875 
L 4.890625 17.1875 
L 4.890625 26.703125 
z
" id="DejaVuSans-34"/>
      </defs>
      <g transform="translate(94.352704 313.476875)scale(0.2 -0.2)">
       <use xlink:href="#DejaVuSans-2d"/>
       <use x="36.083984" xlink:href="#DejaVuSans-34"/>
      </g>
     </g>
    </g>
    <g id="xtick_3">
     <g id="line2d_5">
      <path clip-path="url(#p9b362014d3)" d="M 203.23289 291.28 
L 203.23289 5.52 
" style="fill:none;stroke:#b0b0b0;stroke-linecap:square;stroke-width:0.8;"/>
     </g>
     <g id="line2d_6">
      <g>
       <use style="stroke:#000000;stroke-width:0.8;" x="203.23289" xlink:href="#m4004be637b" y="291.28"/>
      </g>
     </g>
     <g id="text_2">
      <!-- 0 -->
      <defs>
       <path d="M 31.78125 66.40625 
Q 24.171875 66.40625 20.328125 58.90625 
Q 16.5 51.421875 16.5 36.375 
Q 16.5 21.390625 20.328125 13.890625 
Q 24.171875 6.390625 31.78125 6.390625 
Q 39.453125 6.390625 43.28125 13.890625 
Q 47.125 21.390625 47.125 36.375 
Q 47.125 51.421875 43.28125 58.90625 
Q 39.453125 66.40625 31.78125 66.40625 
z
M 31.78125 74.21875 
Q 44.046875 74.21875 50.515625 64.515625 
Q 56.984375 54.828125 56.984375 36.375 
Q 56.984375 17.96875 50.515625 8.265625 
Q 44.046875 -1.421875 31.78125 -1.421875 
Q 19.53125 -1.421875 13.0625 8.265625 
Q 6.59375 17.96875 6.59375 36.375 
Q 6.59375 54.828125 13.0625 64.515625 
Q 19.53125 74.21875 31.78125 74.21875 
z
" id="DejaVuSans-30"/>
      </defs>
      <g transform="translate(196.87039 313.476875)scale(0.2 -0.2)">
       <use xlink:href="#DejaVuSans-30"/>
      </g>
     </g>
    </g>
    <g id="xtick_4">
     <g id="line2d_7">
      <path clip-path="url(#p9b362014d3)" d="M 302.142764 291.28 
L 302.142764 5.52 
" style="fill:none;stroke:#b0b0b0;stroke-linecap:square;stroke-width:0.8;"/>
     </g>
     <g id="line2d_8">
      <g>
       <use style="stroke:#000000;stroke-width:0.8;" x="302.142764" xlink:href="#m4004be637b" y="291.28"/>
      </g>
     </g>
     <g id="text_3">
      <!-- 4 -->
      <g transform="translate(295.780264 313.476875)scale(0.2 -0.2)">
       <use xlink:href="#DejaVuSans-34"/>
      </g>
     </g>
    </g>
    <g id="xtick_5">
     <g id="line2d_9">
      <path clip-path="url(#p9b362014d3)" d="M 401.052637 291.28 
L 401.052637 5.52 
" style="fill:none;stroke:#b0b0b0;stroke-linecap:square;stroke-width:0.8;"/>
     </g>
     <g id="line2d_10">
      <g>
       <use style="stroke:#000000;stroke-width:0.8;" x="401.052637" xlink:href="#m4004be637b" y="291.28"/>
      </g>
     </g>
     <g id="text_4">
      <!-- 8 -->
      <defs>
       <path d="M 31.78125 34.625 
Q 24.75 34.625 20.71875 30.859375 
Q 16.703125 27.09375 16.703125 20.515625 
Q 16.703125 13.921875 20.71875 10.15625 
Q 24.75 6.390625 31.78125 6.390625 
Q 38.8125 6.390625 42.859375 10.171875 
Q 46.921875 13.96875 46.921875 20.515625 
Q 46.921875 27.09375 42.890625 30.859375 
Q 38.875 34.625 31.78125 34.625 
z
M 21.921875 38.8125 
Q 15.578125 40.375 12.03125 44.71875 
Q 8.5 49.078125 8.5 55.328125 
Q 8.5 64.0625 14.71875 69.140625 
Q 20.953125 74.21875 31.78125 74.21875 
Q 42.671875 74.21875 48.875 69.140625 
Q 55.078125 64.0625 55.078125 55.328125 
Q 55.078125 49.078125 51.53125 44.71875 
Q 48 40.375 41.703125 38.8125 
Q 48.828125 37.15625 52.796875 32.3125 
Q 56.78125 27.484375 56.78125 20.515625 
Q 56.78125 9.90625 50.3125 4.234375 
Q 43.84375 -1.421875 31.78125 -1.421875 
Q 19.734375 -1.421875 13.25 4.234375 
Q 6.78125 9.90625 6.78125 20.515625 
Q 6.78125 27.484375 10.78125 32.3125 
Q 14.796875 37.15625 21.921875 38.8125 
z
M 18.3125 54.390625 
Q 18.3125 48.734375 21.84375 45.5625 
Q 25.390625 42.390625 31.78125 42.390625 
Q 38.140625 42.390625 41.71875 45.5625 
Q 45.3125 48.734375 45.3125 54.390625 
Q 45.3125 60.0625 41.71875 63.234375 
Q 38.140625 66.40625 31.78125 66.40625 
Q 25.390625 66.40625 21.84375 63.234375 
Q 18.3125 60.0625 18.3125 54.390625 
z
" id="DejaVuSans-38"/>
      </defs>
      <g transform="translate(394.690137 313.476875)scale(0.2 -0.2)">
       <use xlink:href="#DejaVuSans-38"/>
      </g>
     </g>
    </g>
    <g id="text_5">
     <!-- log10 of Df -->
     <defs>
      <path d="M 9.421875 75.984375 
L 18.40625 75.984375 
L 18.40625 0 
L 9.421875 0 
z
" id="DejaVuSans-6c"/>
      <path d="M 30.609375 48.390625 
Q 23.390625 48.390625 19.1875 42.75 
Q 14.984375 37.109375 14.984375 27.296875 
Q 14.984375 17.484375 19.15625 11.84375 
Q 23.34375 6.203125 30.609375 6.203125 
Q 37.796875 6.203125 41.984375 11.859375 
Q 46.1875 17.53125 46.1875 27.296875 
Q 46.1875 37.015625 41.984375 42.703125 
Q 37.796875 48.390625 30.609375 48.390625 
z
M 30.609375 56 
Q 42.328125 56 49.015625 48.375 
Q 55.71875 40.765625 55.71875 27.296875 
Q 55.71875 13.875 49.015625 6.21875 
Q 42.328125 -1.421875 30.609375 -1.421875 
Q 18.84375 -1.421875 12.171875 6.21875 
Q 5.515625 13.875 5.515625 27.296875 
Q 5.515625 40.765625 12.171875 48.375 
Q 18.84375 56 30.609375 56 
z
" id="DejaVuSans-6f"/>
      <path d="M 45.40625 27.984375 
Q 45.40625 37.75 41.375 43.109375 
Q 37.359375 48.484375 30.078125 48.484375 
Q 22.859375 48.484375 18.828125 43.109375 
Q 14.796875 37.75 14.796875 27.984375 
Q 14.796875 18.265625 18.828125 12.890625 
Q 22.859375 7.515625 30.078125 7.515625 
Q 37.359375 7.515625 41.375 12.890625 
Q 45.40625 18.265625 45.40625 27.984375 
z
M 54.390625 6.78125 
Q 54.390625 -7.171875 48.1875 -13.984375 
Q 42 -20.796875 29.203125 -20.796875 
Q 24.46875 -20.796875 20.265625 -20.09375 
Q 16.0625 -19.390625 12.109375 -17.921875 
L 12.109375 -9.1875 
Q 16.0625 -11.328125 19.921875 -12.34375 
Q 23.78125 -13.375 27.78125 -13.375 
Q 36.625 -13.375 41.015625 -8.765625 
Q 45.40625 -4.15625 45.40625 5.171875 
L 45.40625 9.625 
Q 42.625 4.78125 38.28125 2.390625 
Q 33.9375 0 27.875 0 
Q 17.828125 0 11.671875 7.65625 
Q 5.515625 15.328125 5.515625 27.984375 
Q 5.515625 40.671875 11.671875 48.328125 
Q 17.828125 56 27.875 56 
Q 33.9375 56 38.28125 53.609375 
Q 42.625 51.21875 45.40625 46.390625 
L 45.40625 54.6875 
L 54.390625 54.6875 
z
" id="DejaVuSans-67"/>
      <path d="M 12.40625 8.296875 
L 28.515625 8.296875 
L 28.515625 63.921875 
L 10.984375 60.40625 
L 10.984375 69.390625 
L 28.421875 72.90625 
L 38.28125 72.90625 
L 38.28125 8.296875 
L 54.390625 8.296875 
L 54.390625 0 
L 12.40625 0 
z
" id="DejaVuSans-31"/>
      <path id="DejaVuSans-20"/>
      <path d="M 37.109375 75.984375 
L 37.109375 68.5 
L 28.515625 68.5 
Q 23.6875 68.5 21.796875 66.546875 
Q 19.921875 64.59375 19.921875 59.515625 
L 19.921875 54.6875 
L 34.71875 54.6875 
L 34.71875 47.703125 
L 19.921875 47.703125 
L 19.921875 0 
L 10.890625 0 
L 10.890625 47.703125 
L 2.296875 47.703125 
L 2.296875 54.6875 
L 10.890625 54.6875 
L 10.890625 58.5 
Q 10.890625 67.625 15.140625 71.796875 
Q 19.390625 75.984375 28.609375 75.984375 
z
" id="DejaVuSans-66"/>
      <path d="M 19.671875 64.796875 
L 19.671875 8.109375 
L 31.59375 8.109375 
Q 46.6875 8.109375 53.6875 14.9375 
Q 60.6875 21.78125 60.6875 36.53125 
Q 60.6875 51.171875 53.6875 57.984375 
Q 46.6875 64.796875 31.59375 64.796875 
z
M 9.8125 72.90625 
L 30.078125 72.90625 
Q 51.265625 72.90625 61.171875 64.09375 
Q 71.09375 55.28125 71.09375 36.53125 
Q 71.09375 17.671875 61.125 8.828125 
Q 51.171875 0 30.078125 0 
L 9.8125 0 
z
" id="DejaVuSans-44"/>
     </defs>
     <g transform="translate(172.910063 336.833125)scale(0.2 -0.2)">
      <use xlink:href="#DejaVuSans-6c"/>
      <use x="27.783203" xlink:href="#DejaVuSans-6f"/>
      <use x="88.964844" xlink:href="#DejaVuSans-67"/>
      <use x="152.441406" xlink:href="#DejaVuSans-31"/>
      <use x="216.064453" xlink:href="#DejaVuSans-30"/>
      <use x="279.6875" xlink:href="#DejaVuSans-20"/>
      <use x="311.474609" xlink:href="#DejaVuSans-6f"/>
      <use x="372.65625" xlink:href="#DejaVuSans-66"/>
      <use x="407.861328" xlink:href="#DejaVuSans-20"/>
      <use x="439.648438" xlink:href="#DejaVuSans-44"/>
      <use x="516.650391" xlink:href="#DejaVuSans-66"/>
     </g>
    </g>
   </g>
   <g id="matplotlib.axis_2">
    <g id="ytick_1">
     <g id="line2d_11">
      <path clip-path="url(#p9b362014d3)" d="M 5.52 291.28 
L 450.672 291.28 
" style="fill:none;stroke:#b0b0b0;stroke-linecap:square;stroke-width:0.8;"/>
     </g>
     <g id="line2d_12">
      <defs>
       <path d="M 0 0 
L -3.5 0 
" id="m368d320f8e" style="stroke:#000000;stroke-width:0.8;"/>
      </defs>
      <g>
       <use style="stroke:#000000;stroke-width:0.8;" x="5.52" xlink:href="#m368d320f8e" y="291.28"/>
      </g>
     </g>
    </g>
    <g id="ytick_2">
     <g id="line2d_13">
      <path clip-path="url(#p9b362014d3)" d="M 5.52 234.693861 
L 450.672 234.693861 
" style="fill:none;stroke:#b0b0b0;stroke-linecap:square;stroke-width:0.8;"/>
     </g>
     <g id="line2d_14">
      <g>
       <use style="stroke:#000000;stroke-width:0.8;" x="5.52" xlink:href="#m368d320f8e" y="234.693861"/>
      </g>
     </g>
    </g>
    <g id="ytick_3">
     <g id="line2d_15">
      <path clip-path="url(#p9b362014d3)" d="M 5.52 178.107723 
L 450.672 178.107723 
" style="fill:none;stroke:#b0b0b0;stroke-linecap:square;stroke-width:0.8;"/>
     </g>
     <g id="line2d_16">
      <g>
       <use style="stroke:#000000;stroke-width:0.8;" x="5.52" xlink:href="#m368d320f8e" y="178.107723"/>
      </g>
     </g>
    </g>
    <g id="ytick_4">
     <g id="line2d_17">
      <path clip-path="url(#p9b362014d3)" d="M 5.52 121.521584 
L 450.672 121.521584 
" style="fill:none;stroke:#b0b0b0;stroke-linecap:square;stroke-width:0.8;"/>
     </g>
     <g id="line2d_18">
      <g>
       <use style="stroke:#000000;stroke-width:0.8;" x="5.52" xlink:href="#m368d320f8e" y="121.521584"/>
      </g>
     </g>
    </g>
    <g id="ytick_5">
     <g id="line2d_19">
      <path clip-path="url(#p9b362014d3)" d="M 5.52 64.935446 
L 450.672 64.935446 
" style="fill:none;stroke:#b0b0b0;stroke-linecap:square;stroke-width:0.8;"/>
     </g>
     <g id="line2d_20">
      <g>
       <use style="stroke:#000000;stroke-width:0.8;" x="5.52" xlink:href="#m368d320f8e" y="64.935446"/>
      </g>
     </g>
    </g>
    <g id="ytick_6">
     <g id="line2d_21">
      <path clip-path="url(#p9b362014d3)" d="M 5.52 8.349307 
L 450.672 8.349307 
" style="fill:none;stroke:#b0b0b0;stroke-linecap:square;stroke-width:0.8;"/>
     </g>
     <g id="line2d_22">
      <g>
       <use style="stroke:#000000;stroke-width:0.8;" x="5.52" xlink:href="#m368d320f8e" y="8.349307"/>
      </g>
     </g>
    </g>
   </g>
   <g id="line2d_23">
    <path clip-path="url(#p9b362014d3)" d="M 132.266382 291.28 
L 132.266382 290.02253 
L 158.126227 290.02253 
L 158.126227 288.765061 
L 162.842223 288.765061 
L 162.842223 287.507591 
L 170.599596 287.507591 
L 170.599596 286.250121 
L 170.765903 286.250121 
L 170.765903 284.992651 
L 172.259899 284.992651 
L 172.259899 283.735182 
L 182.666373 283.735182 
L 182.666373 282.477712 
L 184.467488 282.477712 
L 184.467488 281.220242 
L 186.734523 281.220242 
L 186.734523 279.962772 
L 188.926617 279.962772 
L 188.926617 278.705303 
L 190.653737 278.705303 
L 190.653737 277.447833 
L 194.110901 277.447833 
L 194.110901 276.190363 
L 196.867316 276.190363 
L 196.867316 274.932893 
L 197.676239 274.932893 
L 197.676239 273.675424 
L 198.742128 273.675424 
L 198.742128 272.417954 
L 199.438787 272.417954 
L 199.438787 271.160484 
L 201.277673 271.160484 
L 201.388478 268.645545 
L 203.297048 268.645545 
L 203.297048 267.388075 
L 207.3947 267.388075 
L 207.3947 266.130605 
L 207.53997 266.130605 
L 207.53997 264.873135 
L 209.554829 264.873135 
L 209.554829 263.615666 
L 210.170418 263.615666 
L 210.170418 262.358196 
L 212.106494 262.358196 
L 212.106494 261.100726 
L 212.362469 261.100726 
L 212.362469 259.843256 
L 213.213213 259.843256 
L 213.213213 258.585787 
L 213.529777 258.585787 
L 213.529777 257.328317 
L 214.278122 257.328317 
L 214.278122 256.070847 
L 214.448876 256.070847 
L 214.448876 254.813377 
L 215.083922 254.813377 
L 215.083922 253.555908 
L 215.810969 253.555908 
L 215.810969 252.298438 
L 216.605414 252.298438 
L 216.605414 251.040968 
L 217.031778 251.040968 
L 217.031778 249.783498 
L 219.238547 249.783498 
L 219.238547 248.526029 
L 219.475447 248.526029 
L 219.475447 247.268559 
L 219.867926 247.268559 
L 219.867926 246.011089 
L 221.011183 246.011089 
L 221.011183 244.753619 
L 222.572742 244.753619 
L 222.572742 243.49615 
L 223.44826 243.49615 
L 223.44826 242.23868 
L 223.801633 242.23868 
L 223.801633 240.98121 
L 224.410726 240.98121 
L 224.410726 239.72374 
L 224.599576 239.72374 
L 224.599576 238.466271 
L 226.221743 238.466271 
L 226.221743 237.208801 
L 226.49604 237.208801 
L 226.49604 235.951331 
L 227.63848 235.951331 
L 227.63848 234.693861 
L 228.668589 234.693861 
L 228.668589 233.436392 
L 228.910142 233.436392 
L 228.910142 232.178922 
L 229.365509 232.178922 
L 229.365509 230.921452 
L 229.900792 230.921452 
L 229.905918 228.406513 
L 230.012165 228.406513 
L 230.012165 227.149043 
L 230.60984 227.149043 
L 230.60984 225.891573 
L 233.069643 225.891573 
L 233.069643 224.634103 
L 233.294669 224.634103 
L 233.294669 223.376634 
L 234.373274 223.376634 
L 234.373274 222.119164 
L 234.704087 222.119164 
L 234.704087 220.861694 
L 235.28223 220.861694 
L 235.28223 219.604224 
L 235.49747 219.604224 
L 235.49747 218.346755 
L 236.332075 218.346755 
L 236.332075 217.089285 
L 237.162776 217.089285 
L 237.162776 215.831815 
L 237.406384 215.831815 
L 237.406384 214.574345 
L 237.876854 214.574345 
L 237.876854 213.316876 
L 239.074458 213.316876 
L 239.074458 212.059406 
L 239.760147 212.059406 
L 239.760147 210.801936 
L 240.141515 210.801936 
L 240.250872 208.286997 
L 240.457638 208.286997 
L 240.457638 207.029527 
L 241.373391 207.029527 
L 241.373391 205.772057 
L 242.056003 205.772057 
L 242.056003 204.514587 
L 242.897567 204.514587 
L 242.910824 201.999648 
L 243.724681 201.999648 
L 243.724681 200.742178 
L 244.275629 200.742178 
L 244.275629 199.484708 
L 244.76231 199.484708 
L 244.76231 198.227239 
L 245.56291 198.227239 
L 245.56291 196.969769 
L 245.749246 196.969769 
L 245.749246 195.712299 
L 246.059335 195.712299 
L 246.059335 194.454829 
L 246.333726 194.454829 
L 246.333726 193.19736 
L 246.461543 193.19736 
L 246.461543 191.93989 
L 247.066736 191.93989 
L 247.153959 189.42495 
L 247.218929 189.42495 
L 247.218929 188.167481 
L 247.649486 188.167481 
L 247.649486 186.910011 
L 248.895206 186.910011 
L 248.92983 184.395072 
L 249.935825 184.395072 
L 249.935825 183.137602 
L 250.943942 183.137602 
L 251.034866 180.622662 
L 251.780666 180.622662 
L 251.837784 178.107723 
L 251.905696 178.107723 
L 251.905696 176.850253 
L 252.259238 176.850253 
L 252.259238 175.592783 
L 254.258098 175.592783 
L 254.258098 174.335314 
L 254.868255 174.335314 
L 254.868255 173.077844 
L 257.231913 173.077844 
L 257.231913 171.820374 
L 257.881426 171.820374 
L 257.881426 170.562904 
L 259.072469 170.562904 
L 259.072469 169.305435 
L 259.522306 169.305435 
L 259.522306 168.047965 
L 261.394459 168.047965 
L 261.394459 166.790495 
L 261.545344 166.790495 
L 261.545344 165.533025 
L 261.918316 165.533025 
L 261.918316 164.275556 
L 262.374283 164.275556 
L 262.374283 163.018086 
L 264.441735 163.018086 
L 264.441735 161.760616 
L 265.596662 161.760616 
L 265.596662 160.503146 
L 266.413555 160.503146 
L 266.413555 159.245677 
L 266.539412 159.245677 
L 266.539412 157.988207 
L 266.693895 157.988207 
L 266.71152 155.473267 
L 267.333676 155.473267 
L 267.333676 154.215798 
L 267.465796 154.215798 
L 267.465796 152.958328 
L 268.606429 152.958328 
L 268.606429 151.700858 
L 268.838696 151.700858 
L 268.838696 150.443388 
L 269.016744 150.443388 
L 269.016744 149.185919 
L 269.288562 149.185919 
L 269.288562 147.928449 
L 269.61833 147.928449 
L 269.61833 146.670979 
L 270.079313 146.670979 
L 270.079313 145.413509 
L 270.228817 145.413509 
L 270.228817 144.15604 
L 271.150185 144.15604 
L 271.150185 142.89857 
L 272.776929 142.89857 
L 272.776929 141.6411 
L 272.954646 141.6411 
L 273.052671 139.126161 
L 273.155424 139.126161 
L 273.155424 137.868691 
L 273.471245 137.868691 
L 273.564867 135.353751 
L 275.201404 135.353751 
L 275.201404 134.096282 
L 275.393427 134.096282 
L 275.393427 132.838812 
L 277.236154 132.838812 
L 277.236154 131.581342 
L 278.031116 131.581342 
L 278.031116 130.323872 
L 282.505637 130.323872 
L 282.505637 129.066403 
L 284.075736 129.066403 
L 284.075736 127.808933 
L 285.943686 127.808933 
L 285.943686 126.551463 
L 287.995796 126.551463 
L 288.079836 124.036524 
L 288.25195 124.036524 
L 288.25195 122.779054 
L 292.082116 122.779054 
L 292.082116 121.521584 
L 294.244571 121.521584 
L 294.244571 120.264114 
L 294.796668 120.264114 
L 294.796668 119.006645 
L 295.673867 119.006645 
L 295.673867 117.749175 
L 297.936382 117.749175 
L 297.936382 116.491705 
L 299.387708 116.491705 
L 299.418519 113.976766 
L 299.556974 113.976766 
L 299.556974 112.719296 
L 301.009519 112.719296 
L 301.065614 110.204356 
L 301.785106 110.204356 
L 301.785106 108.946887 
L 302.576803 108.946887 
L 302.576803 107.689417 
L 303.66738 107.689417 
L 303.66738 106.431947 
L 303.780034 106.431947 
L 303.780034 105.174477 
L 305.164495 105.174477 
L 305.164495 103.917008 
L 305.396905 103.917008 
L 305.396905 102.659538 
L 306.646593 102.659538 
L 306.646593 101.402068 
L 306.963208 101.402068 
L 306.963208 100.144598 
L 307.843953 100.144598 
L 307.843953 98.887129 
L 308.145126 98.887129 
L 308.145126 97.629659 
L 308.361979 97.629659 
L 308.361979 96.372189 
L 308.843751 96.372189 
L 308.843751 95.114719 
L 309.47192 95.114719 
L 309.47192 93.85725 
L 309.753045 93.85725 
L 309.753045 92.59978 
L 311.869358 92.59978 
L 311.869358 91.34231 
L 315.950202 91.34231 
L 315.950202 90.08484 
L 316.359151 90.08484 
L 316.359151 88.827371 
L 317.363876 88.827371 
L 317.363876 87.569901 
L 318.021782 87.569901 
L 318.021782 86.312431 
L 318.78684 86.312431 
L 318.865419 83.797492 
L 319.030455 83.797492 
L 319.030455 82.540022 
L 320.559998 82.540022 
L 320.559998 81.282552 
L 324.757896 81.282552 
L 324.757896 80.025083 
L 326.313053 80.025083 
L 326.313053 78.767613 
L 327.189593 78.767613 
L 327.189593 77.510143 
L 329.23417 77.510143 
L 329.23417 76.252673 
L 329.56164 76.252673 
L 329.56164 74.995204 
L 329.735084 74.995204 
L 329.735084 73.737734 
L 330.885372 73.737734 
L 330.885372 72.480264 
L 331.377686 72.480264 
L 331.377686 71.222794 
L 332.973942 71.222794 
L 332.973942 69.965325 
L 333.218401 69.965325 
L 333.218401 68.707855 
L 333.833664 68.707855 
L 333.833664 67.450385 
L 334.500741 67.450385 
L 334.500741 66.192915 
L 336.10328 66.192915 
L 336.10328 64.935446 
L 336.565095 64.935446 
L 336.565095 63.677976 
L 336.689001 63.677976 
L 336.689001 62.420506 
L 338.154189 62.420506 
L 338.154189 61.163036 
L 338.990997 61.163036 
L 339.068683 58.648097 
L 340.655548 58.648097 
L 340.655548 57.390627 
L 342.034492 57.390627 
L 342.034492 56.133157 
L 342.150118 56.133157 
L 342.150118 54.875688 
L 342.77888 54.875688 
L 342.793596 52.360748 
L 344.134641 52.360748 
L 344.134641 51.103278 
L 346.53365 51.103278 
L 346.564091 48.588339 
L 346.814435 48.588339 
L 346.814435 47.330869 
L 350.860516 47.330869 
L 350.860516 46.073399 
L 351.31824 46.073399 
L 351.31824 44.81593 
L 353.216017 44.81593 
L 353.216017 43.55846 
L 354.215921 43.55846 
L 354.215921 42.30099 
L 355.640499 42.30099 
L 355.640499 41.04352 
L 355.75475 41.04352 
L 355.75475 39.786051 
L 356.177714 39.786051 
L 356.254924 37.271111 
L 356.486296 37.271111 
L 356.486296 36.013641 
L 357.755121 36.013641 
L 357.755121 34.756172 
L 357.903325 34.756172 
L 357.903325 33.498702 
L 358.529488 33.498702 
L 358.545923 30.983762 
L 359.822118 30.983762 
L 359.822118 29.726293 
L 360.649701 29.726293 
L 360.649701 28.468823 
L 360.992229 28.468823 
L 360.992229 27.211353 
L 361.753111 27.211353 
L 361.753111 25.953883 
L 362.081059 25.953883 
L 362.081059 24.696414 
L 362.248159 24.696414 
L 362.248159 23.438944 
L 367.091739 23.438944 
L 367.091739 22.181474 
L 368.604376 22.181474 
L 368.604376 20.924004 
L 369.329606 20.924004 
L 369.329606 19.666535 
L 369.466915 19.666535 
L 369.466915 18.409065 
L 370.560565 18.409065 
L 370.560565 17.151595 
L 371.59093 17.151595 
L 371.59093 15.894125 
L 373.843353 15.894125 
L 373.843353 14.636656 
L 374.262696 14.636656 
L 374.262696 13.379186 
L 378.743767 13.379186 
L 378.743767 12.121716 
L 378.991658 12.121716 
L 378.991658 10.864246 
L 379.635579 10.864246 
L 379.635579 9.606777 
L 381.229768 9.606777 
L 381.229768 8.349307 
L 381.229768 8.349307 
L 450.672 8.349307 
L 450.672 8.349307 
" style="fill:none;stroke:#ff0000;stroke-linecap:square;stroke-width:3;"/>
   </g>
   <g id="line2d_24">
    <path clip-path="url(#p9b362014d3)" d="M 219.867926 291.28 
L 219.867926 290.02253 
L 221.525378 290.02253 
L 221.525378 288.765061 
L 221.846667 288.765061 
L 221.846667 287.507591 
L 225.797416 287.507591 
L 225.797416 286.250121 
L 229.286559 286.250121 
L 229.286559 284.992651 
L 230.707752 284.992651 
L 230.707752 283.735182 
L 231.790623 283.735182 
L 231.790623 282.477712 
L 232.332914 282.477712 
L 232.332914 281.220242 
L 233.052422 281.220242 
L 233.052422 279.962772 
L 233.998554 279.962772 
L 233.998554 278.705303 
L 234.748768 278.705303 
L 234.748768 277.447833 
L 234.989667 277.447833 
L 234.989667 276.190363 
L 235.32777 276.190363 
L 235.32777 274.932893 
L 235.896516 274.932893 
L 235.896516 273.675424 
L 236.158689 273.675424 
L 236.158689 272.417954 
L 236.807349 272.417954 
L 236.807349 271.160484 
L 238.463585 271.160484 
L 238.511571 268.645545 
L 238.864497 268.645545 
L 238.933841 266.130605 
L 239.043942 266.130605 
L 239.043942 264.873135 
L 239.59108 264.873135 
L 239.59108 263.615666 
L 240.076799 263.615666 
L 240.076799 262.358196 
L 240.377734 262.358196 
L 240.377734 261.100726 
L 240.616606 261.100726 
L 240.616606 259.843256 
L 241.255315 259.843256 
L 241.323211 257.328317 
L 241.64962 257.328317 
L 241.64962 256.070847 
L 242.281622 256.070847 
L 242.363947 253.555908 
L 243.343354 253.555908 
L 243.343354 252.298438 
L 243.570821 252.298438 
L 243.570821 251.040968 
L 243.782745 251.040968 
L 243.791958 248.526029 
L 244.428982 248.526029 
L 244.428982 247.268559 
L 245.077873 247.268559 
L 245.077873 246.011089 
L 245.308104 246.011089 
L 245.35525 243.49615 
L 245.789304 243.49615 
L 245.789304 242.23868 
L 247.794923 242.23868 
L 247.865825 239.72374 
L 248.356306 239.72374 
L 248.356306 238.466271 
L 250.740055 238.466271 
L 250.740055 237.208801 
L 259.905912 237.208801 
L 259.905912 235.951331 
L 265.221453 235.951331 
L 265.221453 234.693861 
L 271.354518 234.693861 
L 271.376534 232.178922 
L 271.860618 232.178922 
L 271.860618 230.921452 
L 272.835286 230.921452 
L 272.835286 229.663982 
L 273.202536 229.663982 
L 273.202536 228.406513 
L 273.703939 228.406513 
L 273.703939 227.149043 
L 274.50652 227.149043 
L 274.50652 225.891573 
L 274.880754 225.891573 
L 274.880754 224.634103 
L 275.370539 224.634103 
L 275.370539 223.376634 
L 275.808546 223.376634 
L 275.89303 220.861694 
L 276.335831 220.861694 
L 276.411356 218.346755 
L 276.948196 218.346755 
L 276.948196 217.089285 
L 277.157863 217.089285 
L 277.157863 215.831815 
L 277.344632 215.831815 
L 277.422699 213.316876 
L 278.349837 213.316876 
L 278.433019 210.801936 
L 278.922051 210.801936 
L 279.005334 208.286997 
L 279.627425 208.286997 
L 279.627425 207.029527 
L 279.976955 207.029527 
L 280.05469 203.257118 
L 280.309785 203.257118 
L 280.309785 201.999648 
L 280.638582 201.999648 
L 280.638582 200.742178 
L 280.912454 200.742178 
L 280.932522 198.227239 
L 281.204935 198.227239 
L 281.204935 196.969769 
L 281.378033 196.969769 
L 281.378033 195.712299 
L 281.800299 195.712299 
L 281.812647 193.19736 
L 282.178184 193.19736 
L 282.254694 189.42495 
L 282.532745 189.42495 
L 282.556718 186.910011 
L 282.704762 186.910011 
L 282.704762 185.652541 
L 282.942516 185.652541 
L 282.942516 184.395072 
L 283.225432 184.395072 
L 283.225432 183.137602 
L 284.620305 183.137602 
L 284.620305 181.880132 
L 285.050742 181.880132 
L 285.139851 179.365193 
L 286.484829 179.365193 
L 286.484829 178.107723 
L 288.423854 178.107723 
L 288.423854 176.850253 
L 293.138424 176.850253 
L 293.138424 175.592783 
L 297.936382 175.592783 
L 297.936382 174.335314 
L 309.47192 174.335314 
L 309.47192 173.077844 
L 316.359151 173.077844 
L 316.359151 171.820374 
L 322.573235 171.820374 
L 322.573235 170.562904 
L 322.81611 170.562904 
L 322.81611 169.305435 
L 327.630346 169.305435 
L 327.630346 168.047965 
L 332.778005 168.047965 
L 332.778005 166.790495 
L 336.051814 166.790495 
L 336.051814 165.533025 
L 337.232275 165.533025 
L 337.294772 163.018086 
L 337.618312 163.018086 
L 337.618312 161.760616 
L 340.363843 161.760616 
L 340.363843 160.503146 
L 342.180419 160.503146 
L 342.180419 159.245677 
L 342.538224 159.245677 
L 342.538224 157.988207 
L 344.005009 157.988207 
L 344.005009 156.730737 
L 344.116328 156.730737 
L 344.116328 155.473267 
L 345.295717 155.473267 
L 345.295717 154.215798 
L 346.780551 154.215798 
L 346.780551 152.958328 
L 346.972608 152.958328 
L 346.972608 151.700858 
L 347.480006 151.700858 
L 347.480006 150.443388 
L 349.779647 150.443388 
L 349.779647 149.185919 
L 350.766461 149.185919 
L 350.766461 147.928449 
L 351.305618 147.928449 
L 351.305618 146.670979 
L 351.930413 146.670979 
L 351.930413 145.413509 
L 352.12367 145.413509 
L 352.18045 142.89857 
L 352.479927 142.89857 
L 352.479927 141.6411 
L 354.951204 141.6411 
L 354.951204 140.38363 
L 357.433198 140.38363 
L 357.433198 139.126161 
L 357.902002 139.126161 
L 357.902002 137.868691 
L 358.511107 137.868691 
L 358.511107 136.611221 
L 358.674277 136.611221 
L 358.708294 134.096282 
L 358.966007 134.096282 
L 359.07467 131.581342 
L 359.21192 131.581342 
L 359.21192 130.323872 
L 359.471197 130.323872 
L 359.471197 129.066403 
L 359.917125 129.066403 
L 359.917125 127.808933 
L 361.356445 127.808933 
L 361.356445 126.551463 
L 361.480732 126.551463 
L 361.581606 124.036524 
L 361.824509 124.036524 
L 361.925411 121.521584 
L 361.97445 121.521584 
L 361.98385 119.006645 
L 362.661276 119.006645 
L 362.661276 117.749175 
L 363.702612 117.749175 
L 363.702612 116.491705 
L 363.919698 116.491705 
L 363.919698 115.234235 
L 364.199417 115.234235 
L 364.272795 112.719296 
L 366.578356 112.719296 
L 366.67818 110.204356 
L 366.866824 110.204356 
L 366.940005 107.689417 
L 367.500852 107.689417 
L 367.500852 106.431947 
L 368.151549 106.431947 
L 368.151549 105.174477 
L 370.42157 105.174477 
L 370.42157 103.917008 
L 371.015441 103.917008 
L 371.078027 101.402068 
L 371.655795 101.402068 
L 371.655795 100.144598 
L 371.775219 100.144598 
L 371.775219 98.887129 
L 372.260069 98.887129 
L 372.260069 97.629659 
L 372.674566 97.629659 
L 372.674566 96.372189 
L 372.927634 96.372189 
L 372.92828 93.85725 
L 373.406386 93.85725 
L 373.406386 92.59978 
L 373.756727 92.59978 
L 373.756727 91.34231 
L 375.067761 91.34231 
L 375.067761 90.08484 
L 375.190039 90.08484 
L 375.190039 88.827371 
L 375.336108 88.827371 
L 375.336108 87.569901 
L 376.104878 87.569901 
L 376.104878 86.312431 
L 376.860802 86.312431 
L 376.860802 85.054961 
L 377.285875 85.054961 
L 377.285875 83.797492 
L 377.483817 83.797492 
L 377.483817 82.540022 
L 378.2893 82.540022 
L 378.2893 81.282552 
L 379.620701 81.282552 
L 379.620701 80.025083 
L 380.156696 80.025083 
L 380.156696 78.767613 
L 380.827701 78.767613 
L 380.827701 77.510143 
L 381.469111 77.510143 
L 381.469111 76.252673 
L 382.369106 76.252673 
L 382.369106 74.995204 
L 382.683048 74.995204 
L 382.683048 73.737734 
L 383.031772 73.737734 
L 383.031772 72.480264 
L 383.28474 72.480264 
L 383.28474 71.222794 
L 383.564306 71.222794 
L 383.564306 69.965325 
L 384.001013 69.965325 
L 384.001013 68.707855 
L 384.444241 68.707855 
L 384.544663 64.935446 
L 385.033427 64.935446 
L 385.033427 63.677976 
L 385.196596 63.677976 
L 385.196596 62.420506 
L 385.55919 62.420506 
L 385.652889 59.905567 
L 386.394972 59.905567 
L 386.394972 58.648097 
L 386.962615 58.648097 
L 386.962615 57.390627 
L 387.498552 57.390627 
L 387.543144 54.875688 
L 387.637558 54.875688 
L 387.637558 53.618218 
L 387.83642 53.618218 
L 387.83642 52.360748 
L 388.247946 52.360748 
L 388.247946 51.103278 
L 389.0633 51.103278 
L 389.0633 49.845809 
L 390.055338 49.845809 
L 390.055338 48.588339 
L 390.428781 48.588339 
L 390.453114 46.073399 
L 390.648412 46.073399 
L 390.648412 44.81593 
L 391.432491 44.81593 
L 391.432491 43.55846 
L 391.936727 43.55846 
L 391.936727 42.30099 
L 392.238998 42.30099 
L 392.238998 41.04352 
L 392.457306 41.04352 
L 392.49323 38.528581 
L 395.672109 38.528581 
L 395.672109 37.271111 
L 395.820696 37.271111 
L 395.820696 36.013641 
L 395.967914 36.013641 
L 395.967914 34.756172 
L 396.507357 34.756172 
L 396.547579 32.241232 
L 397.28903 32.241232 
L 397.28903 30.983762 
L 397.519774 30.983762 
L 397.519774 29.726293 
L 397.933945 29.726293 
L 398.004667 27.211353 
L 398.534656 27.211353 
L 398.628922 24.696414 
L 399.254374 24.696414 
L 399.254374 23.438944 
L 399.60464 23.438944 
L 399.60464 22.181474 
L 401.332707 22.181474 
L 401.332707 20.924004 
L 402.602553 20.924004 
L 402.602553 19.666535 
L 403.052899 19.666535 
L 403.052899 18.409065 
L 405.133687 18.409065 
L 405.133687 17.151595 
L 406.38349 17.151595 
L 406.38349 15.894125 
L 409.462408 15.894125 
L 409.462408 14.636656 
L 409.643329 14.636656 
L 409.643329 13.379186 
L 410.570121 13.379186 
L 410.570121 12.121716 
L 420.945457 12.121716 
L 420.945457 10.864246 
L 423.217766 10.864246 
L 423.217766 9.606777 
L 435.509828 9.606777 
L 435.509828 8.349307 
L 435.509828 8.349307 
L 450.672 8.349307 
L 450.672 8.349307 
" style="fill:none;stroke:#00bfbf;stroke-linecap:square;stroke-width:1.5;"/>
   </g>
   <g id="line2d_25">
    <path clip-path="url(#p9b362014d3)" d="M 211.716587 291.28 
L 211.716587 290.02253 
L 219.851316 290.02253 
L 219.867926 287.507591 
L 220.892409 287.507591 
L 220.892409 286.250121 
L 221.165173 286.250121 
L 221.165173 284.992651 
L 221.525378 284.992651 
L 221.525378 283.735182 
L 221.846667 283.735182 
L 221.846667 282.477712 
L 222.181271 282.477712 
L 222.181271 281.220242 
L 223.305116 281.220242 
L 223.305116 279.962772 
L 225.311176 279.962772 
L 225.311176 278.705303 
L 225.868918 278.705303 
L 225.868918 277.447833 
L 226.221743 277.447833 
L 226.221743 276.190363 
L 228.145693 276.190363 
L 228.145693 274.932893 
L 228.440257 274.932893 
L 228.440257 273.675424 
L 228.813067 273.675424 
L 228.813067 272.417954 
L 229.286559 272.417954 
L 229.353858 269.903014 
L 230.03026 269.903014 
L 230.03026 268.645545 
L 230.323609 268.645545 
L 230.323609 267.388075 
L 231.098883 267.388075 
L 231.098883 266.130605 
L 231.386906 266.130605 
L 231.386906 264.873135 
L 231.790623 264.873135 
L 231.790623 263.615666 
L 232.485727 263.615666 
L 232.485727 262.358196 
L 232.699276 262.358196 
L 232.713208 259.843256 
L 233.278719 259.843256 
L 233.278719 258.585787 
L 233.437574 258.585787 
L 233.437574 257.328317 
L 233.795055 257.328317 
L 233.795055 256.070847 
L 234.989667 256.070847 
L 234.989667 254.813377 
L 235.32777 254.813377 
L 235.32777 253.555908 
L 235.659761 253.555908 
L 235.659761 252.298438 
L 235.896516 252.298438 
L 235.896516 251.040968 
L 236.477996 251.040968 
L 236.477996 249.783498 
L 237.732234 249.783498 
L 237.798515 247.268559 
L 238.011076 247.268559 
L 238.011076 246.011089 
L 238.230098 246.011089 
L 238.230098 244.753619 
L 238.864497 244.753619 
L 238.864497 243.49615 
L 239.156383 243.49615 
L 239.156383 242.23868 
L 240.836225 242.23868 
L 240.836225 240.98121 
L 241.64962 240.98121 
L 241.64962 239.72374 
L 242.363947 239.72374 
L 242.363947 238.466271 
L 244.428982 238.466271 
L 244.428982 237.208801 
L 245.928784 237.208801 
L 245.928784 235.951331 
L 247.794923 235.951331 
L 247.794923 234.693861 
L 266.184966 234.693861 
L 266.184966 233.436392 
L 267.02884 233.436392 
L 267.02884 232.178922 
L 269.288562 232.178922 
L 269.327058 229.663982 
L 269.87751 229.663982 
L 269.988015 227.149043 
L 271.376534 227.149043 
L 271.376534 225.891573 
L 271.860618 225.891573 
L 271.860618 224.634103 
L 272.689196 224.634103 
L 272.689196 223.376634 
L 272.835286 223.376634 
L 272.835286 222.119164 
L 272.954646 222.119164 
L 272.954646 220.861694 
L 273.084232 220.861694 
L 273.111391 218.346755 
L 273.564867 218.346755 
L 273.564867 217.089285 
L 273.703939 217.089285 
L 273.703939 215.831815 
L 274.288772 215.831815 
L 274.288772 214.574345 
L 274.50652 214.574345 
L 274.50652 213.316876 
L 274.700729 213.316876 
L 274.700729 212.059406 
L 274.852002 212.059406 
L 274.852002 210.801936 
L 275.413307 210.801936 
L 275.413307 209.544466 
L 275.561227 209.544466 
L 275.561227 208.286997 
L 275.808546 208.286997 
L 275.89303 205.772057 
L 276.067399 205.772057 
L 276.067399 204.514587 
L 276.194461 204.514587 
L 276.291405 201.999648 
L 276.411356 201.999648 
L 276.411356 200.742178 
L 276.601533 200.742178 
L 276.601533 199.484708 
L 276.948196 199.484708 
L 277.024163 195.712299 
L 277.157863 195.712299 
L 277.212893 193.19736 
L 277.344632 193.19736 
L 277.422699 190.68242 
L 277.602435 190.68242 
L 277.602435 189.42495 
L 278.433019 189.42495 
L 278.433019 188.167481 
L 279.188226 188.167481 
L 279.188226 186.910011 
L 279.684338 186.910011 
L 279.684338 185.652541 
L 279.999706 185.652541 
L 279.999706 184.395072 
L 280.309785 184.395072 
L 280.309785 183.137602 
L 280.492229 183.137602 
L 280.492229 181.880132 
L 280.897538 181.880132 
L 280.897538 180.622662 
L 281.868159 180.622662 
L 281.868159 179.365193 
L 285.139851 179.365193 
L 285.139851 178.107723 
L 286.011427 178.107723 
L 286.011427 176.850253 
L 288.302314 176.850253 
L 288.302314 175.592783 
L 292.051163 175.592783 
L 292.051163 174.335314 
L 293.138424 174.335314 
L 293.138424 173.077844 
L 297.936382 173.077844 
L 297.936382 171.820374 
L 305.396905 171.820374 
L 305.396905 170.562904 
L 306.310608 170.562904 
L 306.310608 169.305435 
L 308.145126 169.305435 
L 308.145126 168.047965 
L 309.47192 168.047965 
L 309.47192 166.790495 
L 316.359151 166.790495 
L 316.359151 165.533025 
L 317.611984 165.533025 
L 317.611984 164.275556 
L 319.0725 164.275556 
L 319.0725 163.018086 
L 319.529071 163.018086 
L 319.584869 159.245677 
L 321.44766 159.245677 
L 321.44766 157.988207 
L 322.573235 157.988207 
L 322.573235 156.730737 
L 323.622771 156.730737 
L 323.622771 155.473267 
L 324.181642 155.473267 
L 324.181642 154.215798 
L 324.351226 154.215798 
L 324.351226 152.958328 
L 324.757896 152.958328 
L 324.757896 151.700858 
L 324.944094 151.700858 
L 324.944094 150.443388 
L 325.262722 150.443388 
L 325.262722 149.185919 
L 327.150871 149.185919 
L 327.150871 147.928449 
L 327.630346 147.928449 
L 327.630346 146.670979 
L 328.455662 146.670979 
L 328.551636 142.89857 
L 329.735084 142.89857 
L 329.801147 140.38363 
L 331.297374 140.38363 
L 331.297374 139.126161 
L 332.296671 139.126161 
L 332.296671 137.868691 
L 332.778005 137.868691 
L 332.778005 136.611221 
L 336.051814 136.611221 
L 336.051814 135.353751 
L 336.585265 135.353751 
L 336.585265 134.096282 
L 337.232275 134.096282 
L 337.294772 131.581342 
L 338.919597 131.581342 
L 338.919597 130.323872 
L 340.363843 130.323872 
L 340.363843 129.066403 
L 340.897408 129.066403 
L 340.897408 127.808933 
L 342.538224 127.808933 
L 342.538224 126.551463 
L 343.083146 126.551463 
L 343.083146 125.293993 
L 343.396317 125.293993 
L 343.396317 124.036524 
L 343.509024 124.036524 
L 343.509024 122.779054 
L 344.116328 122.779054 
L 344.116328 121.521584 
L 344.753834 121.521584 
L 344.753834 120.264114 
L 345.033338 120.264114 
L 345.033338 119.006645 
L 347.422866 119.006645 
L 347.422866 117.749175 
L 348.406392 117.749175 
L 348.406392 116.491705 
L 349.779647 116.491705 
L 349.779647 115.234235 
L 350.298807 115.234235 
L 350.298807 113.976766 
L 350.766461 113.976766 
L 350.766461 112.719296 
L 351.305618 112.719296 
L 351.305618 111.461826 
L 351.849653 111.461826 
L 351.930413 108.946887 
L 352.479927 108.946887 
L 352.479927 107.689417 
L 353.416909 107.689417 
L 353.416909 106.431947 
L 356.151833 106.431947 
L 356.151833 105.174477 
L 356.528002 105.174477 
L 356.528002 103.917008 
L 356.923993 103.917008 
L 356.923993 102.659538 
L 357.229553 102.659538 
L 357.229553 101.402068 
L 357.543789 101.402068 
L 357.543789 100.144598 
L 357.902002 100.144598 
L 357.902002 98.887129 
L 358.511107 98.887129 
L 358.529488 96.372189 
L 358.674277 96.372189 
L 358.708294 93.85725 
L 358.966007 93.85725 
L 358.966281 91.34231 
L 359.21192 91.34231 
L 359.289253 88.827371 
L 359.411681 88.827371 
L 359.411681 87.569901 
L 359.623261 87.569901 
L 359.623261 86.312431 
L 360.848147 86.312431 
L 360.848147 85.054961 
L 361.480732 85.054961 
L 361.581606 82.540022 
L 363.07043 82.540022 
L 363.07043 81.282552 
L 363.919698 81.282552 
L 363.919698 80.025083 
L 365.412002 80.025083 
L 365.412002 78.767613 
L 366.940005 78.767613 
L 366.940005 77.510143 
L 368.26327 77.510143 
L 368.26327 76.252673 
L 368.896132 76.252673 
L 368.896132 74.995204 
L 370.497895 74.995204 
L 370.497895 73.737734 
L 371.320167 73.737734 
L 371.320167 72.480264 
L 371.656475 72.480264 
L 371.656475 71.222794 
L 371.775219 71.222794 
L 371.775219 69.965325 
L 372.260069 69.965325 
L 372.275336 67.450385 
L 372.927634 67.450385 
L 372.927634 66.192915 
L 374.820055 66.192915 
L 374.839083 63.677976 
L 375.499209 63.677976 
L 375.499209 62.420506 
L 375.930395 62.420506 
L 375.930395 61.163036 
L 376.104878 61.163036 
L 376.104878 59.905567 
L 376.457787 59.905567 
L 376.457787 58.648097 
L 376.713769 58.648097 
L 376.713769 57.390627 
L 376.860802 57.390627 
L 376.860802 56.133157 
L 377.483817 56.133157 
L 377.483817 54.875688 
L 377.962655 54.875688 
L 377.962655 53.618218 
L 378.310332 53.618218 
L 378.310332 52.360748 
L 379.635579 52.360748 
L 379.635579 51.103278 
L 380.744903 51.103278 
L 380.744903 49.845809 
L 381.469111 49.845809 
L 381.469111 48.588339 
L 381.624998 48.588339 
L 381.624998 47.330869 
L 381.925196 47.330869 
L 381.925196 46.073399 
L 382.373556 46.073399 
L 382.373556 44.81593 
L 382.736928 44.81593 
L 382.736928 43.55846 
L 384.435112 43.55846 
L 384.525887 39.786051 
L 385.155925 39.786051 
L 385.155925 38.528581 
L 385.428575 38.528581 
L 385.469573 36.013641 
L 385.55919 36.013641 
L 385.55919 34.756172 
L 386.222228 34.756172 
L 386.279157 32.241232 
L 386.394972 32.241232 
L 386.487176 29.726293 
L 386.914814 29.726293 
L 386.914814 28.468823 
L 387.519286 28.468823 
L 387.543144 25.953883 
L 388.17121 25.953883 
L 388.247946 23.438944 
L 388.60012 23.438944 
L 388.60012 22.181474 
L 390.240509 22.181474 
L 390.240509 20.924004 
L 390.786976 20.924004 
L 390.786976 19.666535 
L 390.989133 19.666535 
L 390.989133 18.409065 
L 391.148276 18.409065 
L 391.148276 17.151595 
L 392.446913 17.151595 
L 392.49323 14.636656 
L 393.289999 14.636656 
L 393.289999 13.379186 
L 394.211799 13.379186 
L 394.211799 12.121716 
L 395.410672 12.121716 
L 395.410672 10.864246 
L 395.820696 10.864246 
L 395.820696 9.606777 
L 405.133687 9.606777 
L 405.133687 8.349307 
L 405.133687 8.349307 
L 450.672 8.349307 
L 450.672 8.349307 
" style="fill:none;stroke:#bf00bf;stroke-linecap:square;stroke-width:1.5;"/>
   </g>
   <g id="line2d_26">
    <path clip-path="url(#p9b362014d3)" d="M 211.716587 291.28 
L 211.716587 290.02253 
L 213.521322 290.02253 
L 213.521322 288.765061 
L 214.019639 288.765061 
L 214.019639 287.507591 
L 215.810969 287.507591 
L 215.912915 284.992651 
L 216.359222 284.992651 
L 216.359222 283.735182 
L 217.337965 283.735182 
L 217.337965 282.477712 
L 219.340175 282.477712 
L 219.340175 281.220242 
L 219.475447 281.220242 
L 219.475447 279.962772 
L 219.851316 279.962772 
L 219.867926 277.447833 
L 219.975233 277.447833 
L 219.975233 276.190363 
L 220.892409 276.190363 
L 220.892409 274.932893 
L 221.165173 274.932893 
L 221.165173 273.675424 
L 221.525378 273.675424 
L 221.600214 271.160484 
L 221.846667 271.160484 
L 221.846667 269.903014 
L 222.146938 269.903014 
L 222.146938 268.645545 
L 223.258958 268.645545 
L 223.258958 267.388075 
L 223.503638 267.388075 
L 223.503638 266.130605 
L 223.720359 266.130605 
L 223.720359 264.873135 
L 223.914787 264.873135 
L 223.914787 263.615666 
L 224.892924 263.615666 
L 224.892924 262.358196 
L 225.181223 262.358196 
L 225.181223 261.100726 
L 226.010763 261.100726 
L 226.010763 259.843256 
L 226.221743 259.843256 
L 226.221743 258.585787 
L 227.083187 258.585787 
L 227.083187 257.328317 
L 227.398065 257.328317 
L 227.398065 256.070847 
L 228.092707 256.070847 
L 228.092707 254.813377 
L 228.910142 254.813377 
L 228.910142 253.555908 
L 229.286559 253.555908 
L 229.286559 252.298438 
L 229.508685 252.298438 
L 229.508685 251.040968 
L 230.24764 251.040968 
L 230.337647 247.268559 
L 231.777775 247.268559 
L 231.777775 246.011089 
L 231.992654 246.011089 
L 231.992654 244.753619 
L 232.42412 244.753619 
L 232.42412 243.49615 
L 232.587292 243.49615 
L 232.587292 242.23868 
L 232.699276 242.23868 
L 232.699276 240.98121 
L 233.120436 240.98121 
L 233.120436 239.72374 
L 233.278719 239.72374 
L 233.278719 238.466271 
L 234.260097 238.466271 
L 234.260097 237.208801 
L 236.288729 237.208801 
L 236.288729 235.951331 
L 237.406384 235.951331 
L 237.406384 234.693861 
L 245.928784 234.693861 
L 245.928784 233.436392 
L 263.018998 233.436392 
L 263.018998 232.178922 
L 266.121685 232.178922 
L 266.184966 229.663982 
L 266.819942 229.663982 
L 266.819942 228.406513 
L 267.02884 228.406513 
L 267.02884 227.149043 
L 268.606429 227.149043 
L 268.606441 224.634103 
L 268.972116 224.634103 
L 268.972116 223.376634 
L 269.260356 223.376634 
L 269.362397 219.604224 
L 269.61833 219.604224 
L 269.61833 218.346755 
L 269.87751 218.346755 
L 269.988015 215.831815 
L 271.376534 215.831815 
L 271.449096 213.316876 
L 271.644053 213.316876 
L 271.644053 212.059406 
L 271.763537 212.059406 
L 271.860618 208.286997 
L 272.266684 208.286997 
L 272.266684 207.029527 
L 272.758986 207.029527 
L 272.835286 204.514587 
L 272.954646 204.514587 
L 272.954646 203.257118 
L 273.155424 203.257118 
L 273.155424 201.999648 
L 273.426972 201.999648 
L 273.426972 200.742178 
L 273.564867 200.742178 
L 273.564867 199.484708 
L 273.760082 199.484708 
L 273.869168 196.969769 
L 274.074903 196.969769 
L 274.074903 195.712299 
L 275.008581 195.712299 
L 275.008581 194.454829 
L 276.067399 194.454829 
L 276.093631 191.93989 
L 276.194461 191.93989 
L 276.291405 189.42495 
L 276.393142 189.42495 
L 276.411356 186.910011 
L 276.873205 186.910011 
L 276.873205 185.652541 
L 277.024163 185.652541 
L 277.024163 184.395072 
L 277.344632 184.395072 
L 277.344632 183.137602 
L 277.472116 183.137602 
L 277.472116 181.880132 
L 277.971644 181.880132 
L 277.971644 180.622662 
L 278.526802 180.622662 
L 278.526802 179.365193 
L 278.839064 179.365193 
L 278.839064 178.107723 
L 279.099613 178.107723 
L 279.099613 176.850253 
L 279.999706 176.850253 
L 279.999706 175.592783 
L 280.664523 175.592783 
L 280.664523 174.335314 
L 288.302314 174.335314 
L 288.302314 173.077844 
L 290.17645 173.077844 
L 290.17645 171.820374 
L 292.051163 171.820374 
L 292.051163 170.562904 
L 293.138424 170.562904 
L 293.138424 169.305435 
L 293.579454 169.305435 
L 293.579454 168.047965 
L 295.21742 168.047965 
L 295.21742 166.790495 
L 296.17196 166.790495 
L 296.17196 165.533025 
L 297.936382 165.533025 
L 297.936382 164.275556 
L 299.389771 164.275556 
L 299.389771 163.018086 
L 305.396905 163.018086 
L 305.396905 161.760616 
L 306.3062 161.760616 
L 306.310608 159.245677 
L 307.610302 159.245677 
L 307.610302 157.988207 
L 308.145126 157.988207 
L 308.145126 156.730737 
L 309.094123 156.730737 
L 309.094123 155.473267 
L 309.47192 155.473267 
L 309.47192 154.215798 
L 312.563262 154.215798 
L 312.563262 152.958328 
L 314.619424 152.958328 
L 314.619424 151.700858 
L 315.97403 151.700858 
L 315.97403 150.443388 
L 316.359151 150.443388 
L 316.359151 149.185919 
L 317.107218 149.185919 
L 317.107218 147.928449 
L 317.611984 147.928449 
L 317.611984 146.670979 
L 319.0725 146.670979 
L 319.175469 144.15604 
L 319.529071 144.15604 
L 319.529071 142.89857 
L 320.417749 142.89857 
L 320.417749 141.6411 
L 323.622771 141.6411 
L 323.622771 140.38363 
L 323.979331 140.38363 
L 324.046777 137.868691 
L 324.181642 137.868691 
L 324.181642 136.611221 
L 324.351226 136.611221 
L 324.351226 135.353751 
L 324.701261 135.353751 
L 324.757896 132.838812 
L 324.944094 132.838812 
L 324.944094 131.581342 
L 325.262722 131.581342 
L 325.262722 130.323872 
L 326.264902 130.323872 
L 326.264902 129.066403 
L 327.150871 129.066403 
L 327.150871 127.808933 
L 328.455662 127.808933 
L 328.455662 126.551463 
L 329.132605 126.551463 
L 329.132605 125.293993 
L 329.735084 125.293993 
L 329.801147 122.779054 
L 330.096723 122.779054 
L 330.096723 121.521584 
L 330.564658 121.521584 
L 330.564658 120.264114 
L 330.885372 120.264114 
L 330.885372 119.006645 
L 331.036842 119.006645 
L 331.036842 117.749175 
L 331.297374 117.749175 
L 331.297374 116.491705 
L 331.649857 116.491705 
L 331.649857 115.234235 
L 332.778005 115.234235 
L 332.778005 113.976766 
L 333.42579 113.976766 
L 333.42579 112.719296 
L 334.444074 112.719296 
L 334.500741 110.204356 
L 334.590481 110.204356 
L 334.590481 108.946887 
L 336.017014 108.946887 
L 336.051814 106.431947 
L 336.585265 106.431947 
L 336.679656 103.917008 
L 337.294772 103.917008 
L 337.294772 102.659538 
L 338.067593 102.659538 
L 338.067593 101.402068 
L 338.778082 101.402068 
L 338.778082 100.144598 
L 338.919597 100.144598 
L 338.990997 97.629659 
L 339.068683 97.629659 
L 339.068683 96.372189 
L 339.522703 96.372189 
L 339.522703 95.114719 
L 340.363843 95.114719 
L 340.363843 93.85725 
L 341.531786 93.85725 
L 341.531786 92.59978 
L 342.403095 92.59978 
L 342.403095 91.34231 
L 342.538224 91.34231 
L 342.538224 90.08484 
L 342.700156 90.08484 
L 342.700156 88.827371 
L 343.385899 88.827371 
L 343.385899 87.569901 
L 343.509024 87.569901 
L 343.509024 86.312431 
L 345.033338 86.312431 
L 345.033338 85.054961 
L 346.751759 85.054961 
L 346.751759 83.797492 
L 347.375124 83.797492 
L 347.375124 82.540022 
L 347.561888 82.540022 
L 347.561888 81.282552 
L 347.797215 81.282552 
L 347.797215 80.025083 
L 347.918541 80.025083 
L 347.918541 78.767613 
L 349.039992 78.767613 
L 349.039992 77.510143 
L 349.907584 77.510143 
L 349.907584 76.252673 
L 350.323446 76.252673 
L 350.323446 74.995204 
L 350.766461 74.995204 
L 350.766461 73.737734 
L 351.178419 73.737734 
L 351.178419 72.480264 
L 354.662022 72.480264 
L 354.662022 71.222794 
L 356.855936 71.222794 
L 356.855936 69.965325 
L 357.229553 69.965325 
L 357.229553 68.707855 
L 358.529488 68.707855 
L 358.529488 67.450385 
L 358.730563 67.450385 
L 358.730563 66.192915 
L 360.848147 66.192915 
L 360.848147 64.935446 
L 361.372221 64.935446 
L 361.372221 63.677976 
L 363.919698 63.677976 
L 363.919698 62.420506 
L 365.083582 62.420506 
L 365.083582 61.163036 
L 365.483115 61.163036 
L 365.483115 59.905567 
L 367.091739 59.905567 
L 367.091739 58.648097 
L 368.650869 58.648097 
L 368.650869 57.390627 
L 370.756259 57.390627 
L 370.756259 56.133157 
L 371.656475 56.133157 
L 371.656475 54.875688 
L 371.815372 54.875688 
L 371.815372 53.618218 
L 372.158597 53.618218 
L 372.158597 52.360748 
L 372.53826 52.360748 
L 372.53826 51.103278 
L 373.653086 51.103278 
L 373.653086 49.845809 
L 374.724375 49.845809 
L 374.724375 48.588339 
L 374.839083 48.588339 
L 374.839083 47.330869 
L 375.258111 47.330869 
L 375.258111 46.073399 
L 376.100531 46.073399 
L 376.104878 43.55846 
L 376.713769 43.55846 
L 376.713769 42.30099 
L 376.860802 42.30099 
L 376.860802 41.04352 
L 377.962655 41.04352 
L 377.962655 39.786051 
L 378.701695 39.786051 
L 378.701695 38.528581 
L 379.144375 38.528581 
L 379.144375 37.271111 
L 379.306709 37.271111 
L 379.342361 34.756172 
L 379.495723 34.756172 
L 379.495723 33.498702 
L 379.635579 33.498702 
L 379.66874 30.983762 
L 380.744903 30.983762 
L 380.744903 29.726293 
L 381.624998 29.726293 
L 381.624998 28.468823 
L 381.93336 28.468823 
L 381.945385 25.953883 
L 382.373556 25.953883 
L 382.373556 24.696414 
L 382.736928 24.696414 
L 382.736928 23.438944 
L 383.220468 23.438944 
L 383.220468 22.181474 
L 384.444241 22.181474 
L 384.444241 20.924004 
L 384.616172 20.924004 
L 384.616172 19.666535 
L 384.868016 19.666535 
L 384.868016 18.409065 
L 385.460802 18.409065 
L 385.469573 15.894125 
L 387.191005 15.894125 
L 387.191005 14.636656 
L 387.510938 14.636656 
L 387.519286 12.121716 
L 388.129808 12.121716 
L 388.162832 9.606777 
L 391.170735 9.606777 
L 391.170735 8.349307 
L 391.170735 8.349307 
L 450.672 8.349307 
L 450.672 8.349307 
" style="fill:none;stroke:#000000;stroke-linecap:square;stroke-width:1.5;"/>
   </g>
   <g id="line2d_27">
    <path clip-path="url(#p9b362014d3)" d="M 199.728233 291.28 
L 199.728233 290.02253 
L 208.048011 290.02253 
L 208.048011 288.765061 
L 209.970907 288.765061 
L 209.970907 287.507591 
L 210.675229 287.507591 
L 210.675229 286.250121 
L 211.650374 286.250121 
L 211.716587 283.735182 
L 212.106494 283.735182 
L 212.106494 282.477712 
L 212.861296 282.477712 
L 212.861296 281.220242 
L 213.058293 281.220242 
L 213.058293 279.962772 
L 213.521322 279.962772 
L 213.521322 278.705303 
L 214.019639 278.705303 
L 214.019639 277.447833 
L 214.833701 277.447833 
L 214.833701 276.190363 
L 215.810969 276.190363 
L 215.810969 274.932893 
L 216.101195 274.932893 
L 216.101195 273.675424 
L 216.359222 273.675424 
L 216.359222 272.417954 
L 216.605414 272.417954 
L 216.605414 271.160484 
L 217.011405 271.160484 
L 217.116562 267.388075 
L 217.510319 267.388075 
L 217.510319 266.130605 
L 219.475447 266.130605 
L 219.475447 264.873135 
L 219.867926 264.873135 
L 219.975233 262.358196 
L 220.019227 262.358196 
L 220.025702 259.843256 
L 220.782979 259.843256 
L 220.836578 256.070847 
L 221.011183 256.070847 
L 221.05994 253.555908 
L 221.526975 253.555908 
L 221.526975 252.298438 
L 221.846667 252.298438 
L 221.846667 251.040968 
L 222.572742 251.040968 
L 222.572742 249.783498 
L 222.989726 249.783498 
L 222.989726 248.526029 
L 223.801633 248.526029 
L 223.901132 246.011089 
L 224.410726 246.011089 
L 224.410726 244.753619 
L 224.838798 244.753619 
L 224.838798 243.49615 
L 226.221743 243.49615 
L 226.221743 242.23868 
L 226.49604 242.23868 
L 226.49604 240.98121 
L 226.822005 240.98121 
L 226.822005 239.72374 
L 227.63848 239.72374 
L 227.63848 238.466271 
L 228.910142 238.466271 
L 229.012219 235.951331 
L 229.900792 235.951331 
L 229.900792 234.693861 
L 237.406384 234.693861 
L 237.406384 233.436392 
L 242.075393 233.436392 
L 242.075393 232.178922 
L 247.887583 232.178922 
L 247.887583 230.921452 
L 249.502946 230.921452 
L 249.502946 229.663982 
L 252.320042 229.663982 
L 252.320042 228.406513 
L 254.085821 228.406513 
L 254.085821 227.149043 
L 255.165593 227.149043 
L 255.165593 225.891573 
L 255.766985 225.891573 
L 255.766985 224.634103 
L 257.231913 224.634103 
L 257.231913 223.376634 
L 259.694243 223.376634 
L 259.694243 222.119164 
L 261.394459 222.119164 
L 261.394459 220.861694 
L 261.545344 220.861694 
L 261.545344 219.604224 
L 261.895848 219.604224 
L 261.895848 218.346755 
L 263.018998 218.346755 
L 263.018998 217.089285 
L 263.859283 217.089285 
L 263.859283 215.831815 
L 264.10837 215.831815 
L 264.10837 214.574345 
L 264.366475 214.574345 
L 264.366475 213.316876 
L 265.318824 213.316876 
L 265.318824 212.059406 
L 265.596662 212.059406 
L 265.596662 210.801936 
L 266.121685 210.801936 
L 266.184966 208.286997 
L 266.557664 208.286997 
L 266.557664 207.029527 
L 266.693895 207.029527 
L 266.693895 205.772057 
L 266.819942 205.772057 
L 266.819942 204.514587 
L 267.02884 204.514587 
L 267.108699 201.999648 
L 267.333676 201.999648 
L 267.333676 200.742178 
L 268.591796 200.742178 
L 268.606429 198.227239 
L 268.889504 198.227239 
L 268.972116 195.712299 
L 269.215181 195.712299 
L 269.288562 191.93989 
L 269.61833 191.93989 
L 269.61833 190.68242 
L 270.398796 190.68242 
L 270.398796 189.42495 
L 270.651281 189.42495 
L 270.651281 188.167481 
L 270.827014 188.167481 
L 270.827014 186.910011 
L 271.577374 186.910011 
L 271.577374 185.652541 
L 271.763537 185.652541 
L 271.809721 183.137602 
L 272.007281 183.137602 
L 272.007281 181.880132 
L 272.726087 181.880132 
L 272.726087 180.622662 
L 272.954646 180.622662 
L 273.052671 178.107723 
L 273.155424 178.107723 
L 273.155424 176.850253 
L 273.426972 176.850253 
L 273.426972 175.592783 
L 273.564867 175.592783 
L 273.564867 174.335314 
L 274.407388 174.335314 
L 274.407388 173.077844 
L 275.056764 173.077844 
L 275.065345 170.562904 
L 275.393427 170.562904 
L 275.393427 169.305435 
L 275.632089 169.305435 
L 275.632089 168.047965 
L 277.236154 168.047965 
L 277.344632 165.533025 
L 278.031116 165.533025 
L 278.031116 164.275556 
L 284.075736 164.275556 
L 284.075736 163.018086 
L 284.395651 163.018086 
L 284.395651 161.760616 
L 287.595179 161.760616 
L 287.595179 160.503146 
L 288.25195 160.503146 
L 288.25195 159.245677 
L 289.697121 159.245677 
L 289.697121 157.988207 
L 290.689168 157.988207 
L 290.689168 156.730737 
L 291.223913 156.730737 
L 291.223913 155.473267 
L 291.342251 155.473267 
L 291.342251 154.215798 
L 291.978959 154.215798 
L 292.082116 151.700858 
L 293.138424 151.700858 
L 293.138424 150.443388 
L 293.579454 150.443388 
L 293.579454 149.185919 
L 294.244571 149.185919 
L 294.244571 147.928449 
L 295.673867 147.928449 
L 295.673867 146.670979 
L 296.17196 146.670979 
L 296.17196 145.413509 
L 297.936382 145.413509 
L 297.936382 144.15604 
L 299.387708 144.15604 
L 299.387708 142.89857 
L 301.065614 142.89857 
L 301.065614 141.6411 
L 301.580763 141.6411 
L 301.580763 140.38363 
L 303.780034 140.38363 
L 303.780034 139.126161 
L 304.795309 139.126161 
L 304.795309 137.868691 
L 305.396905 137.868691 
L 305.396905 136.611221 
L 308.145126 136.611221 
L 308.145126 135.353751 
L 308.666221 135.353751 
L 308.666221 134.096282 
L 309.47192 134.096282 
L 309.47192 132.838812 
L 309.597143 132.838812 
L 309.597143 131.581342 
L 309.753045 131.581342 
L 309.753045 130.323872 
L 310.249452 130.323872 
L 310.249452 129.066403 
L 311.296395 129.066403 
L 311.296395 127.808933 
L 311.786452 127.808933 
L 311.786452 126.551463 
L 312.843965 126.551463 
L 312.843965 125.293993 
L 314.619424 125.293993 
L 314.619424 124.036524 
L 316.359151 124.036524 
L 316.359151 122.779054 
L 318.311149 122.779054 
L 318.311149 121.521584 
L 318.865419 121.521584 
L 318.865419 120.264114 
L 319.0725 120.264114 
L 319.0725 119.006645 
L 319.683845 119.006645 
L 319.683845 117.749175 
L 323.622771 117.749175 
L 323.622771 116.491705 
L 323.979331 116.491705 
L 324.046777 113.976766 
L 324.181642 113.976766 
L 324.181642 112.719296 
L 324.741605 112.719296 
L 324.757896 110.204356 
L 324.944094 110.204356 
L 324.944094 108.946887 
L 325.262722 108.946887 
L 325.262722 107.689417 
L 326.313053 107.689417 
L 326.313053 106.431947 
L 327.150871 106.431947 
L 327.189593 103.917008 
L 328.114805 103.917008 
L 328.114805 102.659538 
L 328.916708 102.659538 
L 328.916708 101.402068 
L 329.132605 101.402068 
L 329.132605 100.144598 
L 329.735084 100.144598 
L 329.801973 97.629659 
L 329.993854 97.629659 
L 329.993854 96.372189 
L 330.543033 96.372189 
L 330.564658 93.85725 
L 330.885372 93.85725 
L 330.885372 92.59978 
L 331.125696 92.59978 
L 331.125696 91.34231 
L 331.25648 91.34231 
L 331.25648 90.08484 
L 332.060674 90.08484 
L 332.060674 88.827371 
L 332.563066 88.827371 
L 332.563066 87.569901 
L 332.910825 87.569901 
L 332.910825 86.312431 
L 333.42579 86.312431 
L 333.42579 85.054961 
L 333.833664 85.054961 
L 333.833664 83.797492 
L 334.500741 83.797492 
L 334.500741 82.540022 
L 335.599356 82.540022 
L 335.599356 81.282552 
L 336.051814 81.282552 
L 336.10328 78.767613 
L 336.689001 78.767613 
L 336.689001 77.510143 
L 338.80604 77.510143 
L 338.886057 74.995204 
L 338.990997 74.995204 
L 339.068683 72.480264 
L 340.924144 72.480264 
L 340.924144 71.222794 
L 341.56935 71.222794 
L 341.56935 69.965325 
L 342.150118 69.965325 
L 342.150118 68.707855 
L 342.793596 68.707855 
L 342.793596 67.450385 
L 346.751759 67.450385 
L 346.751759 66.192915 
L 351.178419 66.192915 
L 351.178419 64.935446 
L 352.688864 64.935446 
L 352.688864 63.677976 
L 354.662022 63.677976 
L 354.662022 62.420506 
L 356.177714 62.420506 
L 356.177714 61.163036 
L 356.855936 61.163036 
L 356.855936 59.905567 
L 357.268382 59.905567 
L 357.268382 58.648097 
L 358.529488 58.648097 
L 358.529488 57.390627 
L 359.822118 57.390627 
L 359.822118 56.133157 
L 361.753111 56.133157 
L 361.753111 54.875688 
L 362.248159 54.875688 
L 362.248159 53.618218 
L 363.919698 53.618218 
L 363.919698 52.360748 
L 364.765346 52.360748 
L 364.765346 51.103278 
L 365.083582 51.103278 
L 365.083582 49.845809 
L 365.365732 49.845809 
L 365.365732 48.588339 
L 366.980587 48.588339 
L 366.980587 47.330869 
L 367.091739 47.330869 
L 367.186785 44.81593 
L 367.869162 44.81593 
L 367.869162 43.55846 
L 368.090678 43.55846 
L 368.090678 42.30099 
L 368.519382 42.30099 
L 368.604376 39.786051 
L 368.851987 39.786051 
L 368.851987 38.528581 
L 370.560565 38.528581 
L 370.560565 37.271111 
L 370.729439 37.271111 
L 370.756259 34.756172 
L 371.59093 34.756172 
L 371.59093 33.498702 
L 373.515162 33.498702 
L 373.560691 30.983762 
L 373.653086 30.983762 
L 373.653086 29.726293 
L 373.843353 29.726293 
L 373.843353 28.468823 
L 374.179688 28.468823 
L 374.262696 25.953883 
L 374.47144 25.953883 
L 374.47144 24.696414 
L 374.724375 24.696414 
L 374.744398 22.181474 
L 375.009276 22.181474 
L 375.009276 20.924004 
L 375.267871 20.924004 
L 375.267871 19.666535 
L 376.713769 19.666535 
L 376.713769 18.409065 
L 378.743767 18.409065 
L 378.743767 17.151595 
L 378.965556 17.151595 
L 378.991658 14.636656 
L 379.635579 14.636656 
L 379.66874 12.121716 
L 380.56589 12.121716 
L 380.56589 10.864246 
L 381.229768 10.864246 
L 381.229768 9.606777 
L 382.736928 9.606777 
L 382.736928 8.349307 
L 382.736928 8.349307 
L 450.672 8.349307 
L 450.672 8.349307 
" style="fill:none;stroke:#00bfbf;stroke-linecap:square;stroke-width:1.5;"/>
   </g>
   <g id="line2d_28">
    <path clip-path="url(#p9b362014d3)" d="M 171.64454 291.28 
L 171.64454 290.02253 
L 180.901818 290.02253 
L 180.901818 288.765061 
L 187.262688 288.765061 
L 187.262688 287.507591 
L 188.582555 287.507591 
L 188.582555 286.250121 
L 189.251253 286.250121 
L 189.251253 284.992651 
L 190.655714 284.992651 
L 190.655714 283.735182 
L 192.257867 283.735182 
L 192.257867 282.477712 
L 193.948998 282.477712 
L 193.948998 281.220242 
L 196.841672 281.220242 
L 196.841672 279.962772 
L 198.33445 279.962772 
L 198.33445 278.705303 
L 198.932005 278.705303 
L 198.932005 277.447833 
L 200.820032 277.447833 
L 200.820032 276.190363 
L 201.281604 276.190363 
L 201.281604 274.932893 
L 201.885555 274.932893 
L 201.885555 273.675424 
L 203.769227 273.675424 
L 203.769227 272.417954 
L 204.252361 272.417954 
L 204.283573 269.903014 
L 204.725731 269.903014 
L 204.725731 268.645545 
L 207.808249 268.645545 
L 207.808249 267.388075 
L 208.470427 267.388075 
L 208.470427 266.130605 
L 210.255761 266.130605 
L 210.255761 264.873135 
L 212.106494 264.873135 
L 212.106494 263.615666 
L 212.706575 263.615666 
L 212.71475 261.100726 
L 213.466435 261.100726 
L 213.466435 259.843256 
L 213.724165 259.843256 
L 213.724165 258.585787 
L 215.810969 258.585787 
L 215.810969 257.328317 
L 216.303207 257.328317 
L 216.376648 254.813377 
L 216.551459 254.813377 
L 216.605414 252.298438 
L 216.899704 252.298438 
L 216.899704 251.040968 
L 217.031778 251.040968 
L 217.031778 249.783498 
L 219.475447 249.783498 
L 219.475447 248.526029 
L 219.867926 248.526029 
L 219.867926 247.268559 
L 221.011183 247.268559 
L 221.011183 246.011089 
L 222.572742 246.011089 
L 222.572742 244.753619 
L 223.801633 244.753619 
L 223.801633 243.49615 
L 224.410726 243.49615 
L 224.410726 242.23868 
L 226.221743 242.23868 
L 226.22389 239.72374 
L 226.49604 239.72374 
L 226.49604 238.466271 
L 227.63848 238.466271 
L 227.63848 237.208801 
L 228.910142 237.208801 
L 228.910142 235.951331 
L 229.900792 235.951331 
L 229.900792 234.693861 
L 231.406447 234.693861 
L 231.406447 233.436392 
L 235.008135 233.436392 
L 235.008135 232.178922 
L 237.03593 232.178922 
L 237.03593 230.921452 
L 237.406384 230.921452 
L 237.406384 229.663982 
L 237.938461 229.663982 
L 237.938461 228.406513 
L 238.250869 228.406513 
L 238.250869 227.149043 
L 239.380694 227.149043 
L 239.380694 225.891573 
L 239.953047 225.891573 
L 239.953047 224.634103 
L 240.344451 224.634103 
L 240.344451 223.376634 
L 240.564143 223.376634 
L 240.576262 220.861694 
L 240.800238 220.861694 
L 240.800238 219.604224 
L 241.54665 219.604224 
L 241.54665 218.346755 
L 242.375603 218.346755 
L 242.375603 217.089285 
L 244.109023 217.089285 
L 244.109023 215.831815 
L 244.814129 215.831815 
L 244.814129 214.574345 
L 245.002014 214.574345 
L 245.002014 213.316876 
L 246.311446 213.316876 
L 246.311446 212.059406 
L 247.986482 212.059406 
L 247.986482 210.801936 
L 248.945823 210.801936 
L 248.945823 209.544466 
L 249.27415 209.544466 
L 249.27415 208.286997 
L 250.003501 208.286997 
L 250.003501 207.029527 
L 250.365994 207.029527 
L 250.365994 205.772057 
L 250.851594 205.772057 
L 250.851594 204.514587 
L 251.31535 204.514587 
L 251.31535 203.257118 
L 252.740446 203.257118 
L 252.740446 201.999648 
L 253.296782 201.999648 
L 253.30552 199.484708 
L 253.905325 199.484708 
L 253.905325 198.227239 
L 254.257431 198.227239 
L 254.257431 196.969769 
L 254.468248 196.969769 
L 254.468248 195.712299 
L 254.80448 195.712299 
L 254.80448 194.454829 
L 254.979999 194.454829 
L 254.979999 193.19736 
L 255.608168 193.19736 
L 255.608168 191.93989 
L 255.925285 191.93989 
L 255.925285 190.68242 
L 256.09096 190.68242 
L 256.09096 189.42495 
L 256.283989 189.42495 
L 256.336336 185.652541 
L 257.231913 185.652541 
L 257.231913 184.395072 
L 257.441385 184.395072 
L 257.441385 183.137602 
L 257.711763 183.137602 
L 257.711763 181.880132 
L 258.633119 181.880132 
L 258.633119 180.622662 
L 259.298696 180.622662 
L 259.298696 179.365193 
L 259.655289 179.365193 
L 259.655289 178.107723 
L 261.394459 178.107723 
L 261.394459 176.850253 
L 261.545344 176.850253 
L 261.545344 175.592783 
L 262.10527 175.592783 
L 262.10527 174.335314 
L 262.429049 174.335314 
L 262.429049 173.077844 
L 263.010342 173.077844 
L 263.010342 171.820374 
L 264.254756 171.820374 
L 264.254756 170.562904 
L 265.286208 170.562904 
L 265.286208 169.305435 
L 265.596662 169.305435 
L 265.596662 168.047965 
L 266.14731 168.047965 
L 266.14731 166.790495 
L 266.693895 166.790495 
L 266.693895 165.533025 
L 267.333676 165.533025 
L 267.333676 164.275556 
L 267.455131 164.275556 
L 267.455131 163.018086 
L 268.606429 163.018086 
L 268.674751 160.503146 
L 269.288562 160.503146 
L 269.333137 157.988207 
L 269.492431 157.988207 
L 269.492431 156.730737 
L 269.61833 156.730737 
L 269.61833 155.473267 
L 271.128169 155.473267 
L 271.128169 154.215798 
L 271.467297 154.215798 
L 271.467297 152.958328 
L 272.37442 152.958328 
L 272.37442 151.700858 
L 272.954646 151.700858 
L 273.052671 149.185919 
L 273.155424 149.185919 
L 273.155424 147.928449 
L 273.564867 147.928449 
L 273.564867 146.670979 
L 275.393427 146.670979 
L 275.393427 145.413509 
L 276.932475 145.413509 
L 276.932475 144.15604 
L 277.236154 144.15604 
L 277.236154 142.89857 
L 278.031116 142.89857 
L 278.031116 141.6411 
L 278.648493 141.6411 
L 278.648493 140.38363 
L 284.075736 140.38363 
L 284.075736 139.126161 
L 284.232745 139.126161 
L 284.243245 136.611221 
L 285.448139 136.611221 
L 285.448139 135.353751 
L 286.275056 135.353751 
L 286.275056 134.096282 
L 288.25195 134.096282 
L 288.25195 132.838812 
L 290.046548 132.838812 
L 290.046548 131.581342 
L 292.082116 131.581342 
L 292.082116 130.323872 
L 292.749016 130.323872 
L 292.749016 129.066403 
L 292.987235 129.066403 
L 292.987235 127.808933 
L 294.046158 127.808933 
L 294.046158 126.551463 
L 294.244571 126.551463 
L 294.244571 125.293993 
L 295.673867 125.293993 
L 295.673867 124.036524 
L 297.136505 124.036524 
L 297.136505 122.779054 
L 297.936382 122.779054 
L 297.958752 120.264114 
L 299.387708 120.264114 
L 299.387708 119.006645 
L 299.724137 119.006645 
L 299.724137 117.749175 
L 301.065614 117.749175 
L 301.065614 116.491705 
L 303.006562 116.491705 
L 303.006562 115.234235 
L 303.780034 115.234235 
L 303.780034 113.976766 
L 305.080427 113.976766 
L 305.080427 112.719296 
L 305.396905 112.719296 
L 305.396905 111.461826 
L 307.131832 111.461826 
L 307.131832 110.204356 
L 307.666536 110.204356 
L 307.666536 108.946887 
L 308.145126 108.946887 
L 308.145126 107.689417 
L 308.45402 107.689417 
L 308.502281 105.174477 
L 308.640595 105.174477 
L 308.640595 103.917008 
L 309.47192 103.917008 
L 309.47192 102.659538 
L 309.736159 102.659538 
L 309.753045 100.144598 
L 311.117456 100.144598 
L 311.117456 98.887129 
L 311.979576 98.887129 
L 311.979576 97.629659 
L 312.267111 97.629659 
L 312.267111 96.372189 
L 315.823667 96.372189 
L 315.823667 95.114719 
L 316.359151 95.114719 
L 316.359151 93.85725 
L 318.448728 93.85725 
L 318.448728 92.59978 
L 318.865419 92.59978 
L 318.865419 91.34231 
L 319.311697 91.34231 
L 319.311697 90.08484 
L 320.372347 90.08484 
L 320.372347 88.827371 
L 320.855811 88.827371 
L 320.855811 87.569901 
L 323.742507 87.569901 
L 323.742507 86.312431 
L 324.166838 86.312431 
L 324.166838 85.054961 
L 324.757896 85.054961 
L 324.757896 83.797492 
L 326.313053 83.797492 
L 326.313053 82.540022 
L 327.006136 82.540022 
L 327.006136 81.282552 
L 327.189593 81.282552 
L 327.189593 80.025083 
L 329.735084 80.025083 
L 329.735084 78.767613 
L 330.885372 78.767613 
L 330.885372 77.510143 
L 333.382686 77.510143 
L 333.382686 76.252673 
L 333.833664 76.252673 
L 333.833664 74.995204 
L 333.968309 74.995204 
L 333.968309 73.737734 
L 334.500741 73.737734 
L 334.500741 72.480264 
L 336.10328 72.480264 
L 336.10328 71.222794 
L 336.689001 71.222794 
L 336.689001 69.965325 
L 336.961547 69.965325 
L 336.961547 68.707855 
L 338.990997 68.707855 
L 339.068683 66.192915 
L 339.196398 66.192915 
L 339.196398 64.935446 
L 339.869346 64.935446 
L 339.869346 63.677976 
L 341.145554 63.677976 
L 341.145554 62.420506 
L 341.515436 62.420506 
L 341.515436 61.163036 
L 342.113352 61.163036 
L 342.150118 58.648097 
L 342.793596 58.648097 
L 342.793596 57.390627 
L 344.74429 57.390627 
L 344.74429 56.133157 
L 346.260775 56.133157 
L 346.260775 54.875688 
L 349.566585 54.875688 
L 349.566585 53.618218 
L 352.22689 53.618218 
L 352.22689 52.360748 
L 353.124009 52.360748 
L 353.124009 51.103278 
L 353.247479 51.103278 
L 353.247479 49.845809 
L 353.96917 49.845809 
L 353.96917 48.588339 
L 354.363599 48.588339 
L 354.363599 47.330869 
L 354.818082 47.330869 
L 354.818082 46.073399 
L 355.392363 46.073399 
L 355.392363 44.81593 
L 355.603188 44.81593 
L 355.603188 43.55846 
L 355.858809 43.55846 
L 355.858809 42.30099 
L 356.177714 42.30099 
L 356.177714 41.04352 
L 357.141879 41.04352 
L 357.141879 39.786051 
L 358.529488 39.786051 
L 358.614653 37.271111 
L 359.303763 37.271111 
L 359.303763 36.013641 
L 359.822118 36.013641 
L 359.841997 33.498702 
L 361.456776 33.498702 
L 361.456776 32.241232 
L 361.753111 32.241232 
L 361.753111 30.983762 
L 362.248159 30.983762 
L 362.248159 29.726293 
L 362.790423 29.726293 
L 362.790423 28.468823 
L 362.974415 28.468823 
L 362.974415 27.211353 
L 363.181257 27.211353 
L 363.181257 25.953883 
L 366.012513 25.953883 
L 366.012513 24.696414 
L 367.091739 24.696414 
L 367.118455 22.181474 
L 368.604376 22.181474 
L 368.604376 20.924004 
L 370.560565 20.924004 
L 370.560565 19.666535 
L 371.59093 19.666535 
L 371.59093 18.409065 
L 372.843011 18.409065 
L 372.918127 15.894125 
L 373.843353 15.894125 
L 373.843353 14.636656 
L 374.262696 14.636656 
L 374.262696 13.379186 
L 378.743767 13.379186 
L 378.743767 12.121716 
L 378.991658 12.121716 
L 378.991658 10.864246 
L 379.635579 10.864246 
L 379.635579 9.606777 
L 381.229768 9.606777 
L 381.229768 8.349307 
L 381.229768 8.349307 
L 450.672 8.349307 
L 450.672 8.349307 
" style="fill:none;stroke:#bf00bf;stroke-linecap:square;stroke-width:1.5;"/>
   </g>
   <g id="line2d_29">
    <path clip-path="url(#p9b362014d3)" d="M 132.836668 291.28 
L 132.836668 290.02253 
L 158.367351 290.02253 
L 158.367351 288.765061 
L 162.927405 288.765061 
L 162.927405 287.507591 
L 170.599596 287.507591 
L 170.599596 286.250121 
L 170.765903 286.250121 
L 170.765903 284.992651 
L 172.259899 284.992651 
L 172.259899 283.735182 
L 182.666373 283.735182 
L 182.666373 282.477712 
L 184.523553 282.477712 
L 184.523553 281.220242 
L 186.779522 281.220242 
L 186.779522 279.962772 
L 188.926617 279.962772 
L 188.926617 278.705303 
L 190.689197 278.705303 
L 190.689197 277.447833 
L 194.110901 277.447833 
L 194.110901 276.190363 
L 196.889961 276.190363 
L 196.889961 274.932893 
L 197.676239 274.932893 
L 197.676239 273.675424 
L 198.742128 273.675424 
L 198.742128 272.417954 
L 199.454327 272.417954 
L 199.454327 271.160484 
L 201.286878 271.160484 
L 201.286878 269.903014 
L 201.408919 269.903014 
L 201.408919 268.645545 
L 203.306705 268.645545 
L 203.306705 267.388075 
L 207.403064 267.388075 
L 207.403064 266.130605 
L 207.53997 266.130605 
L 207.53997 264.873135 
L 209.554829 264.873135 
L 209.554829 263.615666 
L 210.182054 263.615666 
L 210.182054 262.358196 
L 212.106494 262.358196 
L 212.106494 261.100726 
L 212.369834 261.100726 
L 212.369834 259.843256 
L 213.213213 259.843256 
L 213.213213 258.585787 
L 213.533452 258.585787 
L 213.533452 257.328317 
L 214.278122 257.328317 
L 214.278122 256.070847 
L 214.448876 256.070847 
L 214.448876 254.813377 
L 215.083922 254.813377 
L 215.083922 253.555908 
L 215.810969 253.555908 
L 215.810969 252.298438 
L 216.605414 252.298438 
L 216.605414 251.040968 
L 217.031778 251.040968 
L 217.031778 249.783498 
L 219.238547 249.783498 
L 219.238547 248.526029 
L 219.475447 248.526029 
L 219.475447 247.268559 
L 219.867926 247.268559 
L 219.867926 246.011089 
L 221.011183 246.011089 
L 221.011183 244.753619 
L 222.572742 244.753619 
L 222.572742 243.49615 
L 223.454135 243.49615 
L 223.454135 242.23868 
L 223.801633 242.23868 
L 223.801633 240.98121 
L 224.410726 240.98121 
L 224.410726 239.72374 
L 224.599576 239.72374 
L 224.599576 238.466271 
L 226.221743 238.466271 
L 226.221743 237.208801 
L 226.49604 237.208801 
L 226.49604 235.951331 
L 227.63848 235.951331 
L 227.63848 234.693861 
L 228.816964 234.693861 
L 228.910142 232.178922 
L 229.365509 232.178922 
L 229.365509 230.921452 
L 229.900792 230.921452 
L 229.905918 228.406513 
L 230.012165 228.406513 
L 230.012165 227.149043 
L 230.613476 227.149043 
L 230.613476 225.891573 
L 233.069643 225.891573 
L 233.069643 224.634103 
L 233.296497 224.634103 
L 233.296497 223.376634 
L 234.373274 223.376634 
L 234.373274 222.119164 
L 234.704087 222.119164 
L 234.704087 220.861694 
L 235.28223 220.861694 
L 235.28223 219.604224 
L 235.49747 219.604224 
L 235.49747 218.346755 
L 236.332075 218.346755 
L 236.332075 217.089285 
L 237.167655 217.089285 
L 237.167655 215.831815 
L 237.406384 215.831815 
L 237.406384 214.574345 
L 237.876854 214.574345 
L 237.876854 213.316876 
L 239.074458 213.316876 
L 239.074458 212.059406 
L 239.760147 212.059406 
L 239.760147 210.801936 
L 240.141515 210.801936 
L 240.250872 208.286997 
L 240.457638 208.286997 
L 240.457638 207.029527 
L 241.373391 207.029527 
L 241.373391 205.772057 
L 242.056003 205.772057 
L 242.056003 204.514587 
L 242.90163 204.514587 
L 242.911571 201.999648 
L 243.724681 201.999648 
L 243.724681 200.742178 
L 244.275629 200.742178 
L 244.275629 199.484708 
L 244.76231 199.484708 
L 244.76231 198.227239 
L 245.56291 198.227239 
L 245.56291 196.969769 
L 245.749246 196.969769 
L 245.749246 195.712299 
L 246.059335 195.712299 
L 246.059335 194.454829 
L 246.336037 194.454829 
L 246.336037 193.19736 
L 246.464407 193.19736 
L 246.464407 191.93989 
L 247.088052 191.93989 
L 247.155538 189.42495 
L 247.218929 189.42495 
L 247.218929 188.167481 
L 247.649486 188.167481 
L 247.649486 186.910011 
L 248.926624 186.910011 
L 248.952202 184.395072 
L 249.935825 184.395072 
L 249.935825 183.137602 
L 250.943942 183.137602 
L 251.034866 180.622662 
L 251.801168 180.622662 
L 251.85225 178.107723 
L 251.917168 178.107723 
L 251.917168 176.850253 
L 252.288749 176.850253 
L 252.288749 175.592783 
L 254.271501 175.592783 
L 254.271501 174.335314 
L 254.884167 174.335314 
L 254.884167 173.077844 
L 257.231913 173.077844 
L 257.231913 171.820374 
L 257.894357 171.820374 
L 257.894357 170.562904 
L 259.090195 170.562904 
L 259.090195 169.305435 
L 259.522306 169.305435 
L 259.522306 168.047965 
L 261.394459 168.047965 
L 261.394459 166.790495 
L 261.545344 166.790495 
L 261.545344 165.533025 
L 261.918316 165.533025 
L 261.918316 164.275556 
L 262.381391 164.275556 
L 262.381391 163.018086 
L 264.441735 163.018086 
L 264.441735 161.760616 
L 265.596662 161.760616 
L 265.596662 160.503146 
L 266.413555 160.503146 
L 266.413555 159.245677 
L 266.539412 159.245677 
L 266.539412 157.988207 
L 266.693895 157.988207 
L 266.717446 155.473267 
L 267.333676 155.473267 
L 267.333676 154.215798 
L 267.465796 154.215798 
L 267.465796 152.958328 
L 268.606429 152.958328 
L 268.606429 151.700858 
L 268.846981 151.700858 
L 268.846981 150.443388 
L 269.016744 150.443388 
L 269.016744 149.185919 
L 269.288562 149.185919 
L 269.288562 147.928449 
L 269.61833 147.928449 
L 269.61833 146.670979 
L 270.079313 146.670979 
L 270.079313 145.413509 
L 270.228817 145.413509 
L 270.228817 144.15604 
L 271.150185 144.15604 
L 271.150185 142.89857 
L 272.920768 142.89857 
L 272.954646 140.38363 
L 273.052671 140.38363 
L 273.155424 137.868691 
L 273.471245 137.868691 
L 273.564867 135.353751 
L 275.393427 135.353751 
L 275.393427 134.096282 
L 275.582682 134.096282 
L 275.582682 132.838812 
L 277.236154 132.838812 
L 277.236154 131.581342 
L 278.031116 131.581342 
L 278.031116 130.323872 
L 282.563762 130.323872 
L 282.563762 129.066403 
L 284.075736 129.066403 
L 284.075736 127.808933 
L 286.449195 127.808933 
L 286.449195 126.551463 
L 288.072558 126.551463 
L 288.079836 124.036524 
L 288.25195 124.036524 
L 288.25195 122.779054 
L 292.082116 122.779054 
L 292.082116 121.521584 
L 294.244571 121.521584 
L 294.244571 120.264114 
L 294.805856 120.264114 
L 294.805856 119.006645 
L 295.673867 119.006645 
L 295.673867 117.749175 
L 297.936382 117.749175 
L 297.936382 116.491705 
L 299.387708 116.491705 
L 299.418519 113.976766 
L 299.556974 113.976766 
L 299.556974 112.719296 
L 301.009519 112.719296 
L 301.065614 110.204356 
L 301.803733 110.204356 
L 301.803733 108.946887 
L 302.5826 108.946887 
L 302.5826 107.689417 
L 303.66738 107.689417 
L 303.66738 106.431947 
L 303.780034 106.431947 
L 303.780034 105.174477 
L 305.164495 105.174477 
L 305.164495 103.917008 
L 305.396905 103.917008 
L 305.396905 102.659538 
L 306.659037 102.659538 
L 306.659037 101.402068 
L 306.990847 101.402068 
L 306.990847 100.144598 
L 307.853164 100.144598 
L 307.853164 98.887129 
L 308.145126 98.887129 
L 308.145126 97.629659 
L 308.361979 97.629659 
L 308.361979 96.372189 
L 308.857742 96.372189 
L 308.857742 95.114719 
L 309.47192 95.114719 
L 309.47192 93.85725 
L 309.753045 93.85725 
L 309.753045 92.59978 
L 311.869358 92.59978 
L 311.869358 91.34231 
L 315.950202 91.34231 
L 315.950202 90.08484 
L 316.359151 90.08484 
L 316.359151 88.827371 
L 317.384992 88.827371 
L 317.384992 87.569901 
L 318.021782 87.569901 
L 318.021782 86.312431 
L 318.800063 86.312431 
L 318.865419 83.797492 
L 319.030455 83.797492 
L 319.030455 82.540022 
L 320.559998 82.540022 
L 320.559998 81.282552 
L 324.757896 81.282552 
L 324.757896 80.025083 
L 326.313053 80.025083 
L 326.313053 78.767613 
L 327.189593 78.767613 
L 327.189593 77.510143 
L 329.263055 77.510143 
L 329.263055 76.252673 
L 329.611973 76.252673 
L 329.611973 74.995204 
L 329.735084 74.995204 
L 329.735084 73.737734 
L 330.885372 73.737734 
L 330.885372 72.480264 
L 331.433677 72.480264 
L 331.433677 71.222794 
L 332.980492 71.222794 
L 332.980492 69.965325 
L 333.218401 69.965325 
L 333.218401 68.707855 
L 333.833664 68.707855 
L 333.833664 67.450385 
L 334.500741 67.450385 
L 334.500741 66.192915 
L 336.10328 66.192915 
L 336.10328 64.935446 
L 336.604992 64.935446 
L 336.689001 62.420506 
L 338.154189 62.420506 
L 338.154189 61.163036 
L 338.990997 61.163036 
L 339.068683 58.648097 
L 340.692261 58.648097 
L 340.692261 57.390627 
L 342.034492 57.390627 
L 342.034492 56.133157 
L 342.150118 56.133157 
L 342.150118 54.875688 
L 342.793596 54.875688 
L 342.822772 52.360748 
L 344.134641 52.360748 
L 344.134641 51.103278 
L 346.53365 51.103278 
L 346.564091 48.588339 
L 346.814435 48.588339 
L 346.814435 47.330869 
L 350.882568 47.330869 
L 350.882568 46.073399 
L 351.343907 46.073399 
L 351.343907 44.81593 
L 353.243084 44.81593 
L 353.243084 43.55846 
L 354.233589 43.55846 
L 354.233589 42.30099 
L 355.640499 42.30099 
L 355.640499 41.04352 
L 355.75475 41.04352 
L 355.75475 39.786051 
L 356.177714 39.786051 
L 356.273178 37.271111 
L 356.506291 37.271111 
L 356.506291 36.013641 
L 357.755121 36.013641 
L 357.755121 34.756172 
L 357.919948 34.756172 
L 357.919948 33.498702 
L 358.529488 33.498702 
L 358.559773 30.983762 
L 359.822118 30.983762 
L 359.822118 29.726293 
L 360.662451 29.726293 
L 360.662451 28.468823 
L 360.992229 28.468823 
L 360.992229 27.211353 
L 361.753111 27.211353 
L 361.753111 25.953883 
L 362.081059 25.953883 
L 362.081059 24.696414 
L 362.248159 24.696414 
L 362.248159 23.438944 
L 367.091739 23.438944 
L 367.091739 22.181474 
L 368.604376 22.181474 
L 368.604376 20.924004 
L 369.329606 20.924004 
L 369.329606 19.666535 
L 369.466915 19.666535 
L 369.466915 18.409065 
L 370.560565 18.409065 
L 370.560565 17.151595 
L 371.59093 17.151595 
L 371.59093 15.894125 
L 373.843353 15.894125 
L 373.843353 14.636656 
L 374.262696 14.636656 
L 374.262696 13.379186 
L 378.743767 13.379186 
L 378.743767 12.121716 
L 378.991658 12.121716 
L 378.991658 10.864246 
L 379.635579 10.864246 
L 379.635579 9.606777 
L 381.229768 9.606777 
L 381.229768 8.349307 
L 381.229768 8.349307 
L 450.672 8.349307 
L 450.672 8.349307 
" style="fill:none;stroke:#000000;stroke-linecap:square;stroke-width:1.5;"/>
   </g>
   <g id="patch_3">
    <path d="M 5.52 291.28 
L 5.52 5.52 
" style="fill:none;stroke:#000000;stroke-linecap:square;stroke-linejoin:miter;stroke-width:0.8;"/>
   </g>
   <g id="patch_4">
    <path d="M 450.672 291.28 
L 450.672 5.52 
" style="fill:none;stroke:#000000;stroke-linecap:square;stroke-linejoin:miter;stroke-width:0.8;"/>
   </g>
   <g id="patch_5">
    <path d="M 5.52 291.28 
L 450.672 291.28 
" style="fill:none;stroke:#000000;stroke-linecap:square;stroke-linejoin:miter;stroke-width:0.8;"/>
   </g>
   <g id="patch_6">
    <path d="M 5.52 5.52 
L 450.672 5.52 
" style="fill:none;stroke:#000000;stroke-linecap:square;stroke-linejoin:miter;stroke-width:0.8;"/>
   </g>
   <g id="text_6">
    <!-- {f10-f14}, 5-D -->
    <defs>
     <path d="M 51.125 -9.28125 
L 51.125 -16.3125 
L 48.09375 -16.3125 
Q 35.9375 -16.3125 31.8125 -12.6875 
Q 27.6875 -9.078125 27.6875 1.703125 
L 27.6875 13.375 
Q 27.6875 20.75 25.046875 23.578125 
Q 22.40625 26.421875 15.484375 26.421875 
L 12.5 26.421875 
L 12.5 33.40625 
L 15.484375 33.40625 
Q 22.46875 33.40625 25.078125 36.203125 
Q 27.6875 39.015625 27.6875 46.296875 
L 27.6875 58.015625 
Q 27.6875 68.796875 31.8125 72.390625 
Q 35.9375 75.984375 48.09375 75.984375 
L 51.125 75.984375 
L 51.125 69 
L 47.796875 69 
Q 40.921875 69 38.8125 66.84375 
Q 36.71875 64.703125 36.71875 57.8125 
L 36.71875 45.703125 
Q 36.71875 38.03125 34.5 34.5625 
Q 32.28125 31.109375 26.90625 29.890625 
Q 32.328125 28.5625 34.515625 25.09375 
Q 36.71875 21.625 36.71875 14.015625 
L 36.71875 1.90625 
Q 36.71875 -4.984375 38.8125 -7.125 
Q 40.921875 -9.28125 47.796875 -9.28125 
z
" id="DejaVuSans-7b"/>
     <path d="M 12.5 -9.28125 
L 15.921875 -9.28125 
Q 22.75 -9.28125 24.828125 -7.171875 
Q 26.90625 -5.078125 26.90625 1.90625 
L 26.90625 14.015625 
Q 26.90625 21.625 29.09375 25.09375 
Q 31.296875 28.5625 36.71875 29.890625 
Q 31.296875 31.109375 29.09375 34.5625 
Q 26.90625 38.03125 26.90625 45.703125 
L 26.90625 57.8125 
Q 26.90625 64.75 24.828125 66.875 
Q 22.75 69 15.921875 69 
L 12.5 69 
L 12.5 75.984375 
L 15.578125 75.984375 
Q 27.734375 75.984375 31.8125 72.390625 
Q 35.890625 68.796875 35.890625 58.015625 
L 35.890625 46.296875 
Q 35.890625 39.015625 38.515625 36.203125 
Q 41.15625 33.40625 48.09375 33.40625 
L 51.125 33.40625 
L 51.125 26.421875 
L 48.09375 26.421875 
Q 41.15625 26.421875 38.515625 23.578125 
Q 35.890625 20.75 35.890625 13.375 
L 35.890625 1.703125 
Q 35.890625 -9.078125 31.8125 -12.6875 
Q 27.734375 -16.3125 15.578125 -16.3125 
L 12.5 -16.3125 
z
" id="DejaVuSans-7d"/>
     <path d="M 11.71875 12.40625 
L 22.015625 12.40625 
L 22.015625 4 
L 14.015625 -11.625 
L 7.71875 -11.625 
L 11.71875 4 
z
" id="DejaVuSans-2c"/>
     <path d="M 10.796875 72.90625 
L 49.515625 72.90625 
L 49.515625 64.59375 
L 19.828125 64.59375 
L 19.828125 46.734375 
Q 21.96875 47.46875 24.109375 47.828125 
Q 26.265625 48.1875 28.421875 48.1875 
Q 40.625 48.1875 47.75 41.5 
Q 54.890625 34.8125 54.890625 23.390625 
Q 54.890625 11.625 47.5625 5.09375 
Q 40.234375 -1.421875 26.90625 -1.421875 
Q 22.3125 -1.421875 17.546875 -0.640625 
Q 12.796875 0.140625 7.71875 1.703125 
L 7.71875 11.625 
Q 12.109375 9.234375 16.796875 8.0625 
Q 21.484375 6.890625 26.703125 6.890625 
Q 35.15625 6.890625 40.078125 11.328125 
Q 45.015625 15.765625 45.015625 23.390625 
Q 45.015625 31 40.078125 35.4375 
Q 35.15625 39.890625 26.703125 39.890625 
Q 22.75 39.890625 18.8125 39.015625 
Q 14.890625 38.140625 10.796875 36.28125 
z
" id="DejaVuSans-35"/>
    </defs>
    <g transform="translate(296.06896 285.5648)scale(0.2 -0.2)">
     <use xlink:href="#DejaVuSans-7b"/>
     <use x="63.623047" xlink:href="#DejaVuSans-66"/>
     <use x="98.828125" xlink:href="#DejaVuSans-31"/>
     <use x="162.451172" xlink:href="#DejaVuSans-30"/>
     <use x="226.074219" xlink:href="#DejaVuSans-2d"/>
     <use x="262.158203" xlink:href="#DejaVuSans-66"/>
     <use x="297.363281" xlink:href="#DejaVuSans-31"/>
     <use x="360.986328" xlink:href="#DejaVuSans-34"/>
     <use x="424.609375" xlink:href="#DejaVuSans-7d"/>
     <use x="488.232422" xlink:href="#DejaVuSans-2c"/>
     <use x="520.019531" xlink:href="#DejaVuSans-20"/>
     <use x="551.806641" xlink:href="#DejaVuSans-35"/>
     <use x="615.429688" xlink:href="#DejaVuSans-2d"/>
     <use x="651.513672" xlink:href="#DejaVuSans-44"/>
    </g>
   </g>
   <g id="text_7">
    <!-- v2.2.1.10 -->
    <defs>
     <path d="M 2.984375 54.6875 
L 12.5 54.6875 
L 29.59375 8.796875 
L 46.6875 54.6875 
L 56.203125 54.6875 
L 35.6875 0 
L 23.484375 0 
z
" id="DejaVuSans-76"/>
     <path d="M 19.1875 8.296875 
L 53.609375 8.296875 
L 53.609375 0 
L 7.328125 0 
L 7.328125 8.296875 
Q 12.9375 14.109375 22.625 23.890625 
Q 32.328125 33.6875 34.8125 36.53125 
Q 39.546875 41.84375 41.421875 45.53125 
Q 43.3125 49.21875 43.3125 52.78125 
Q 43.3125 58.59375 39.234375 62.25 
Q 35.15625 65.921875 28.609375 65.921875 
Q 23.96875 65.921875 18.8125 64.3125 
Q 13.671875 62.703125 7.8125 59.421875 
L 7.8125 69.390625 
Q 13.765625 71.78125 18.9375 73 
Q 24.125 74.21875 28.421875 74.21875 
Q 39.75 74.21875 46.484375 68.546875 
Q 53.21875 62.890625 53.21875 53.421875 
Q 53.21875 48.921875 51.53125 44.890625 
Q 49.859375 40.875 45.40625 35.40625 
Q 44.1875 33.984375 37.640625 27.21875 
Q 31.109375 20.453125 19.1875 8.296875 
z
" id="DejaVuSans-32"/>
     <path d="M 10.6875 12.40625 
L 21 12.40625 
L 21 0 
L 10.6875 0 
z
" id="DejaVuSans-2e"/>
    </defs>
    <g style="fill:#808080;" transform="translate(204.463188 286.342713)scale(0.1 -0.1)">
     <use xlink:href="#DejaVuSans-76"/>
     <use x="59.179688" xlink:href="#DejaVuSans-32"/>
     <use x="122.802734" xlink:href="#DejaVuSans-2e"/>
     <use x="154.589844" xlink:href="#DejaVuSans-32"/>
     <use x="218.212891" xlink:href="#DejaVuSans-2e"/>
     <use x="250" xlink:href="#DejaVuSans-31"/>
     <use x="313.623047" xlink:href="#DejaVuSans-2e"/>
     <use x="345.410156" xlink:href="#DejaVuSans-31"/>
     <use x="409.033203" xlink:href="#DejaVuSans-30"/>
    </g>
   </g>
  </g>
 </g>
 <defs>
  <clipPath id="p9b362014d3">
   <rect height="285.76" width="445.152" x="5.52" y="5.52"/>
  </clipPath>
 </defs>
</svg>
