<?xml version="1.0" encoding="utf-8" standalone="no"?>
<!DOCTYPE svg PUBLIC "-//W3C//DTD SVG 1.1//EN"
  "http://www.w3.org/Graphics/SVG/1.1/DTD/svg11.dtd">
<!-- Created with matplotlib (http://matplotlib.org/) -->
<svg height="345.6pt" version="1.1" viewBox="0 0 460.8 345.6" width="460.8pt" xmlns="http://www.w3.org/2000/svg" xmlns:xlink="http://www.w3.org/1999/xlink">
 <defs>
  <style type="text/css">
*{stroke-linecap:butt;stroke-linejoin:round;}
  </style>
 </defs>
 <g id="figure_1">
  <g id="patch_1">
   <path d="M 0 345.6 
L 460.8 345.6 
L 460.8 0 
L 0 0 
z
" style="fill:#ffffff;"/>
  </g>
  <g id="axes_1">
   <g id="patch_2">
    <path d="M 5.52 291.28 
L 450.672 291.28 
L 450.672 5.52 
L 5.52 5.52 
z
" style="fill:#ffffff;"/>
   </g>
   <g id="matplotlib.axis_1">
    <g id="xtick_1">
     <g id="line2d_1">
      <path clip-path="url(#p3c86ac8d84)" d="M 5.410932 291.28 
L 5.410932 5.52 
" style="fill:none;stroke:#b0b0b0;stroke-linecap:square;stroke-width:0.8;"/>
     </g>
     <g id="line2d_2">
      <defs>
       <path d="M 0 0 
L 0 3.5 
" id="m948dccd57d" style="stroke:#000000;stroke-width:0.8;"/>
      </defs>
      <g>
       <use style="stroke:#000000;stroke-width:0.8;" x="5.410932" xlink:href="#m948dccd57d" y="291.28"/>
      </g>
     </g>
    </g>
    <g id="xtick_2">
     <g id="line2d_3">
      <path clip-path="url(#p3c86ac8d84)" d="M 106.367335 291.28 
L 106.367335 5.52 
" style="fill:none;stroke:#b0b0b0;stroke-linecap:square;stroke-width:0.8;"/>
     </g>
     <g id="line2d_4">
      <g>
       <use style="stroke:#000000;stroke-width:0.8;" x="106.367335" xlink:href="#m948dccd57d" y="291.28"/>
      </g>
     </g>
     <g id="text_1">
      <!-- -4 -->
      <defs>
       <path d="M 4.890625 31.390625 
L 31.203125 31.390625 
L 31.203125 23.390625 
L 4.890625 23.390625 
z
" id="DejaVuSans-2d"/>
       <path d="M 37.796875 64.3125 
L 12.890625 25.390625 
L 37.796875 25.390625 
z
M 35.203125 72.90625 
L 47.609375 72.90625 
L 47.609375 25.390625 
L 58.015625 25.390625 
L 58.015625 17.1875 
L 47.609375 17.1875 
L 47.609375 0 
L 37.796875 0 
L 37.796875 17.1875 
L 4.890625 17.1875 
L 4.890625 26.703125 
z
" id="DejaVuSans-34"/>
      </defs>
      <g transform="translate(96.397023 313.476875)scale(0.2 -0.2)">
       <use xlink:href="#DejaVuSans-2d"/>
       <use x="36.083984" xlink:href="#DejaVuSans-34"/>
      </g>
     </g>
    </g>
    <g id="xtick_3">
     <g id="line2d_5">
      <path clip-path="url(#p3c86ac8d84)" d="M 207.323738 291.28 
L 207.323738 5.52 
" style="fill:none;stroke:#b0b0b0;stroke-linecap:square;stroke-width:0.8;"/>
     </g>
     <g id="line2d_6">
      <g>
       <use style="stroke:#000000;stroke-width:0.8;" x="207.323738" xlink:href="#m948dccd57d" y="291.28"/>
      </g>
     </g>
     <g id="text_2">
      <!-- 0 -->
      <defs>
       <path d="M 31.78125 66.40625 
Q 24.171875 66.40625 20.328125 58.90625 
Q 16.5 51.421875 16.5 36.375 
Q 16.5 21.390625 20.328125 13.890625 
Q 24.171875 6.390625 31.78125 6.390625 
Q 39.453125 6.390625 43.28125 13.890625 
Q 47.125 21.390625 47.125 36.375 
Q 47.125 51.421875 43.28125 58.90625 
Q 39.453125 66.40625 31.78125 66.40625 
z
M 31.78125 74.21875 
Q 44.046875 74.21875 50.515625 64.515625 
Q 56.984375 54.828125 56.984375 36.375 
Q 56.984375 17.96875 50.515625 8.265625 
Q 44.046875 -1.421875 31.78125 -1.421875 
Q 19.53125 -1.421875 13.0625 8.265625 
Q 6.59375 17.96875 6.59375 36.375 
Q 6.59375 54.828125 13.0625 64.515625 
Q 19.53125 74.21875 31.78125 74.21875 
z
" id="DejaVuSans-30"/>
      </defs>
      <g transform="translate(200.961238 313.476875)scale(0.2 -0.2)">
       <use xlink:href="#DejaVuSans-30"/>
      </g>
     </g>
    </g>
    <g id="xtick_4">
     <g id="line2d_7">
      <path clip-path="url(#p3c86ac8d84)" d="M 308.280141 291.28 
L 308.280141 5.52 
" style="fill:none;stroke:#b0b0b0;stroke-linecap:square;stroke-width:0.8;"/>
     </g>
     <g id="line2d_8">
      <g>
       <use style="stroke:#000000;stroke-width:0.8;" x="308.280141" xlink:href="#m948dccd57d" y="291.28"/>
      </g>
     </g>
     <g id="text_3">
      <!-- 4 -->
      <g transform="translate(301.917641 313.476875)scale(0.2 -0.2)">
       <use xlink:href="#DejaVuSans-34"/>
      </g>
     </g>
    </g>
    <g id="xtick_5">
     <g id="line2d_9">
      <path clip-path="url(#p3c86ac8d84)" d="M 409.236544 291.28 
L 409.236544 5.52 
" style="fill:none;stroke:#b0b0b0;stroke-linecap:square;stroke-width:0.8;"/>
     </g>
     <g id="line2d_10">
      <g>
       <use style="stroke:#000000;stroke-width:0.8;" x="409.236544" xlink:href="#m948dccd57d" y="291.28"/>
      </g>
     </g>
     <g id="text_4">
      <!-- 8 -->
      <defs>
       <path d="M 31.78125 34.625 
Q 24.75 34.625 20.71875 30.859375 
Q 16.703125 27.09375 16.703125 20.515625 
Q 16.703125 13.921875 20.71875 10.15625 
Q 24.75 6.390625 31.78125 6.390625 
Q 38.8125 6.390625 42.859375 10.171875 
Q 46.921875 13.96875 46.921875 20.515625 
Q 46.921875 27.09375 42.890625 30.859375 
Q 38.875 34.625 31.78125 34.625 
z
M 21.921875 38.8125 
Q 15.578125 40.375 12.03125 44.71875 
Q 8.5 49.078125 8.5 55.328125 
Q 8.5 64.0625 14.71875 69.140625 
Q 20.953125 74.21875 31.78125 74.21875 
Q 42.671875 74.21875 48.875 69.140625 
Q 55.078125 64.0625 55.078125 55.328125 
Q 55.078125 49.078125 51.53125 44.71875 
Q 48 40.375 41.703125 38.8125 
Q 48.828125 37.15625 52.796875 32.3125 
Q 56.78125 27.484375 56.78125 20.515625 
Q 56.78125 9.90625 50.3125 4.234375 
Q 43.84375 -1.421875 31.78125 -1.421875 
Q 19.734375 -1.421875 13.25 4.234375 
Q 6.78125 9.90625 6.78125 20.515625 
Q 6.78125 27.484375 10.78125 32.3125 
Q 14.796875 37.15625 21.921875 38.8125 
z
M 18.3125 54.390625 
Q 18.3125 48.734375 21.84375 45.5625 
Q 25.390625 42.390625 31.78125 42.390625 
Q 38.140625 42.390625 41.71875 45.5625 
Q 45.3125 48.734375 45.3125 54.390625 
Q 45.3125 60.0625 41.71875 63.234375 
Q 38.140625 66.40625 31.78125 66.40625 
Q 25.390625 66.40625 21.84375 63.234375 
Q 18.3125 60.0625 18.3125 54.390625 
z
" id="DejaVuSans-38"/>
      </defs>
      <g transform="translate(402.874044 313.476875)scale(0.2 -0.2)">
       <use xlink:href="#DejaVuSans-38"/>
      </g>
     </g>
    </g>
    <g id="text_5">
     <!-- log10 of Df -->
     <defs>
      <path d="M 9.421875 75.984375 
L 18.40625 75.984375 
L 18.40625 0 
L 9.421875 0 
z
" id="DejaVuSans-6c"/>
      <path d="M 30.609375 48.390625 
Q 23.390625 48.390625 19.1875 42.75 
Q 14.984375 37.109375 14.984375 27.296875 
Q 14.984375 17.484375 19.15625 11.84375 
Q 23.34375 6.203125 30.609375 6.203125 
Q 37.796875 6.203125 41.984375 11.859375 
Q 46.1875 17.53125 46.1875 27.296875 
Q 46.1875 37.015625 41.984375 42.703125 
Q 37.796875 48.390625 30.609375 48.390625 
z
M 30.609375 56 
Q 42.328125 56 49.015625 48.375 
Q 55.71875 40.765625 55.71875 27.296875 
Q 55.71875 13.875 49.015625 6.21875 
Q 42.328125 -1.421875 30.609375 -1.421875 
Q 18.84375 -1.421875 12.171875 6.21875 
Q 5.515625 13.875 5.515625 27.296875 
Q 5.515625 40.765625 12.171875 48.375 
Q 18.84375 56 30.609375 56 
z
" id="DejaVuSans-6f"/>
      <path d="M 45.40625 27.984375 
Q 45.40625 37.75 41.375 43.109375 
Q 37.359375 48.484375 30.078125 48.484375 
Q 22.859375 48.484375 18.828125 43.109375 
Q 14.796875 37.75 14.796875 27.984375 
Q 14.796875 18.265625 18.828125 12.890625 
Q 22.859375 7.515625 30.078125 7.515625 
Q 37.359375 7.515625 41.375 12.890625 
Q 45.40625 18.265625 45.40625 27.984375 
z
M 54.390625 6.78125 
Q 54.390625 -7.171875 48.1875 -13.984375 
Q 42 -20.796875 29.203125 -20.796875 
Q 24.46875 -20.796875 20.265625 -20.09375 
Q 16.0625 -19.390625 12.109375 -17.921875 
L 12.109375 -9.1875 
Q 16.0625 -11.328125 19.921875 -12.34375 
Q 23.78125 -13.375 27.78125 -13.375 
Q 36.625 -13.375 41.015625 -8.765625 
Q 45.40625 -4.15625 45.40625 5.171875 
L 45.40625 9.625 
Q 42.625 4.78125 38.28125 2.390625 
Q 33.9375 0 27.875 0 
Q 17.828125 0 11.671875 7.65625 
Q 5.515625 15.328125 5.515625 27.984375 
Q 5.515625 40.671875 11.671875 48.328125 
Q 17.828125 56 27.875 56 
Q 33.9375 56 38.28125 53.609375 
Q 42.625 51.21875 45.40625 46.390625 
L 45.40625 54.6875 
L 54.390625 54.6875 
z
" id="DejaVuSans-67"/>
      <path d="M 12.40625 8.296875 
L 28.515625 8.296875 
L 28.515625 63.921875 
L 10.984375 60.40625 
L 10.984375 69.390625 
L 28.421875 72.90625 
L 38.28125 72.90625 
L 38.28125 8.296875 
L 54.390625 8.296875 
L 54.390625 0 
L 12.40625 0 
z
" id="DejaVuSans-31"/>
      <path id="DejaVuSans-20"/>
      <path d="M 37.109375 75.984375 
L 37.109375 68.5 
L 28.515625 68.5 
Q 23.6875 68.5 21.796875 66.546875 
Q 19.921875 64.59375 19.921875 59.515625 
L 19.921875 54.6875 
L 34.71875 54.6875 
L 34.71875 47.703125 
L 19.921875 47.703125 
L 19.921875 0 
L 10.890625 0 
L 10.890625 47.703125 
L 2.296875 47.703125 
L 2.296875 54.6875 
L 10.890625 54.6875 
L 10.890625 58.5 
Q 10.890625 67.625 15.140625 71.796875 
Q 19.390625 75.984375 28.609375 75.984375 
z
" id="DejaVuSans-66"/>
      <path d="M 19.671875 64.796875 
L 19.671875 8.109375 
L 31.59375 8.109375 
Q 46.6875 8.109375 53.6875 14.9375 
Q 60.6875 21.78125 60.6875 36.53125 
Q 60.6875 51.171875 53.6875 57.984375 
Q 46.6875 64.796875 31.59375 64.796875 
z
M 9.8125 72.90625 
L 30.078125 72.90625 
Q 51.265625 72.90625 61.171875 64.09375 
Q 71.09375 55.28125 71.09375 36.53125 
Q 71.09375 17.671875 61.125 8.828125 
Q 51.171875 0 30.078125 0 
L 9.8125 0 
z
" id="DejaVuSans-44"/>
     </defs>
     <g transform="translate(172.910063 336.833125)scale(0.2 -0.2)">
      <use xlink:href="#DejaVuSans-6c"/>
      <use x="27.783203" xlink:href="#DejaVuSans-6f"/>
      <use x="88.964844" xlink:href="#DejaVuSans-67"/>
      <use x="152.441406" xlink:href="#DejaVuSans-31"/>
      <use x="216.064453" xlink:href="#DejaVuSans-30"/>
      <use x="279.6875" xlink:href="#DejaVuSans-20"/>
      <use x="311.474609" xlink:href="#DejaVuSans-6f"/>
      <use x="372.65625" xlink:href="#DejaVuSans-66"/>
      <use x="407.861328" xlink:href="#DejaVuSans-20"/>
      <use x="439.648438" xlink:href="#DejaVuSans-44"/>
      <use x="516.650391" xlink:href="#DejaVuSans-66"/>
     </g>
    </g>
   </g>
   <g id="matplotlib.axis_2">
    <g id="ytick_1">
     <g id="line2d_11">
      <path clip-path="url(#p3c86ac8d84)" d="M 5.52 291.28 
L 450.672 291.28 
" style="fill:none;stroke:#b0b0b0;stroke-linecap:square;stroke-width:0.8;"/>
     </g>
     <g id="line2d_12">
      <defs>
       <path d="M 0 0 
L -3.5 0 
" id="mf2455a84a4" style="stroke:#000000;stroke-width:0.8;"/>
      </defs>
      <g>
       <use style="stroke:#000000;stroke-width:0.8;" x="5.52" xlink:href="#mf2455a84a4" y="291.28"/>
      </g>
     </g>
    </g>
    <g id="ytick_2">
     <g id="line2d_13">
      <path clip-path="url(#p3c86ac8d84)" d="M 5.52 234.693861 
L 450.672 234.693861 
" style="fill:none;stroke:#b0b0b0;stroke-linecap:square;stroke-width:0.8;"/>
     </g>
     <g id="line2d_14">
      <g>
       <use style="stroke:#000000;stroke-width:0.8;" x="5.52" xlink:href="#mf2455a84a4" y="234.693861"/>
      </g>
     </g>
    </g>
    <g id="ytick_3">
     <g id="line2d_15">
      <path clip-path="url(#p3c86ac8d84)" d="M 5.52 178.107723 
L 450.672 178.107723 
" style="fill:none;stroke:#b0b0b0;stroke-linecap:square;stroke-width:0.8;"/>
     </g>
     <g id="line2d_16">
      <g>
       <use style="stroke:#000000;stroke-width:0.8;" x="5.52" xlink:href="#mf2455a84a4" y="178.107723"/>
      </g>
     </g>
    </g>
    <g id="ytick_4">
     <g id="line2d_17">
      <path clip-path="url(#p3c86ac8d84)" d="M 5.52 121.521584 
L 450.672 121.521584 
" style="fill:none;stroke:#b0b0b0;stroke-linecap:square;stroke-width:0.8;"/>
     </g>
     <g id="line2d_18">
      <g>
       <use style="stroke:#000000;stroke-width:0.8;" x="5.52" xlink:href="#mf2455a84a4" y="121.521584"/>
      </g>
     </g>
    </g>
    <g id="ytick_5">
     <g id="line2d_19">
      <path clip-path="url(#p3c86ac8d84)" d="M 5.52 64.935446 
L 450.672 64.935446 
" style="fill:none;stroke:#b0b0b0;stroke-linecap:square;stroke-width:0.8;"/>
     </g>
     <g id="line2d_20">
      <g>
       <use style="stroke:#000000;stroke-width:0.8;" x="5.52" xlink:href="#mf2455a84a4" y="64.935446"/>
      </g>
     </g>
    </g>
    <g id="ytick_6">
     <g id="line2d_21">
      <path clip-path="url(#p3c86ac8d84)" d="M 5.52 8.349307 
L 450.672 8.349307 
" style="fill:none;stroke:#b0b0b0;stroke-linecap:square;stroke-width:0.8;"/>
     </g>
     <g id="line2d_22">
      <g>
       <use style="stroke:#000000;stroke-width:0.8;" x="5.52" xlink:href="#mf2455a84a4" y="8.349307"/>
      </g>
     </g>
    </g>
   </g>
   <g id="line2d_23">
    <path clip-path="url(#p3c86ac8d84)" d="M 221.313537 291.28 
L 221.313537 290.02253 
L 221.722104 290.02253 
L 221.722104 288.765061 
L 223.902931 288.765061 
L 223.902931 287.507591 
L 224.44494 287.507591 
L 224.44494 286.250121 
L 226.47072 286.250121 
L 226.47072 284.992651 
L 226.646735 284.992651 
L 226.646735 283.735182 
L 227.015373 283.735182 
L 227.047306 281.220242 
L 227.338731 281.220242 
L 227.338731 279.962772 
L 227.709677 279.962772 
L 227.709677 278.705303 
L 227.881793 278.705303 
L 227.881793 277.447833 
L 228.626707 277.447833 
L 228.626707 276.190363 
L 229.94488 276.190363 
L 230.048114 272.417954 
L 230.313572 272.417954 
L 230.313572 271.160484 
L 231.422268 271.160484 
L 231.422268 269.903014 
L 233.168764 269.903014 
L 233.168764 268.645545 
L 233.344123 268.645545 
L 233.344123 267.388075 
L 233.597196 267.388075 
L 233.597196 266.130605 
L 233.89413 266.130605 
L 233.975736 263.615666 
L 234.046305 263.615666 
L 234.046305 262.358196 
L 234.182376 262.358196 
L 234.182376 261.100726 
L 234.833028 261.100726 
L 234.833028 259.843256 
L 235.775678 259.843256 
L 235.775678 258.585787 
L 236.091371 258.585787 
L 236.091371 257.328317 
L 236.32731 257.328317 
L 236.32731 256.070847 
L 237.031068 256.070847 
L 237.031068 254.813377 
L 237.29598 254.813377 
L 237.29598 253.555908 
L 241.717957 253.555908 
L 241.717957 252.298438 
L 243.144788 252.298438 
L 243.144788 251.040968 
L 243.501953 251.040968 
L 243.501953 249.783498 
L 244.627686 249.783498 
L 244.627686 248.526029 
L 245.696903 248.526029 
L 245.696903 247.268559 
L 246.944182 247.268559 
L 246.955233 243.49615 
L 247.198847 243.49615 
L 247.198847 242.23868 
L 247.523851 242.23868 
L 247.523851 240.98121 
L 248.365323 240.98121 
L 248.365323 239.72374 
L 248.503849 239.72374 
L 248.503849 238.466271 
L 249.727222 238.466271 
L 249.727222 237.208801 
L 249.900398 237.208801 
L 249.900398 235.951331 
L 252.177297 235.951331 
L 252.177297 234.693861 
L 256.293913 234.693861 
L 256.293913 233.436392 
L 259.526162 233.436392 
L 259.526162 232.178922 
L 260.496797 232.178922 
L 260.520109 229.663982 
L 260.633157 229.663982 
L 260.633157 228.406513 
L 261.079091 228.406513 
L 261.131558 225.891573 
L 261.862163 225.891573 
L 261.910585 223.376634 
L 262.181871 223.376634 
L 262.182616 220.861694 
L 262.459446 220.861694 
L 262.459446 219.604224 
L 262.779055 219.604224 
L 262.779055 218.346755 
L 263.849448 218.346755 
L 263.849448 217.089285 
L 264.08522 217.089285 
L 264.142279 214.574345 
L 264.473943 214.574345 
L 264.473943 213.316876 
L 264.624824 213.316876 
L 264.624824 212.059406 
L 264.821028 212.059406 
L 264.821028 210.801936 
L 265.204931 210.801936 
L 265.228816 208.286997 
L 265.623657 208.286997 
L 265.623657 207.029527 
L 265.977046 207.029527 
L 265.977046 205.772057 
L 266.136926 205.772057 
L 266.136926 204.514587 
L 266.281498 204.514587 
L 266.295065 201.999648 
L 266.6418 201.999648 
L 266.6418 200.742178 
L 266.865474 200.742178 
L 266.865474 199.484708 
L 267.050023 199.484708 
L 267.050023 198.227239 
L 267.170072 198.227239 
L 267.170072 196.969769 
L 267.669727 196.969769 
L 267.669727 195.712299 
L 267.802878 195.712299 
L 267.802878 194.454829 
L 267.973375 194.454829 
L 267.973375 193.19736 
L 268.444498 193.19736 
L 268.444498 191.93989 
L 269.034431 191.93989 
L 269.034431 190.68242 
L 270.246679 190.68242 
L 270.246679 189.42495 
L 275.291439 189.42495 
L 275.291439 188.167481 
L 275.981234 188.167481 
L 275.981234 186.910011 
L 276.591643 186.910011 
L 276.591643 185.652541 
L 278.212477 185.652541 
L 278.308756 183.137602 
L 278.590896 183.137602 
L 278.590896 181.880132 
L 279.434329 181.880132 
L 279.497957 179.365193 
L 280.032397 179.365193 
L 280.032397 178.107723 
L 280.547917 178.107723 
L 280.547917 176.850253 
L 280.911674 176.850253 
L 280.911674 175.592783 
L 281.029456 175.592783 
L 281.029456 174.335314 
L 281.178491 174.335314 
L 281.178491 173.077844 
L 281.790732 173.077844 
L 281.790732 171.820374 
L 282.066143 171.820374 
L 282.127493 168.047965 
L 282.608694 168.047965 
L 282.608694 166.790495 
L 282.738813 166.790495 
L 282.749866 163.018086 
L 282.876929 163.018086 
L 282.876929 161.760616 
L 282.997169 161.760616 
L 282.997169 160.503146 
L 283.206088 160.503146 
L 283.298295 157.988207 
L 283.853588 157.988207 
L 283.875902 155.473267 
L 284.090548 155.473267 
L 284.118384 152.958328 
L 284.374584 152.958328 
L 284.425489 150.443388 
L 286.216807 150.443388 
L 286.281112 147.928449 
L 286.529037 147.928449 
L 286.637252 144.15604 
L 286.801133 144.15604 
L 286.801133 142.89857 
L 287.93006 142.89857 
L 287.93006 141.6411 
L 288.824335 141.6411 
L 288.824335 140.38363 
L 289.609664 140.38363 
L 289.705828 137.868691 
L 289.748509 137.868691 
L 289.748509 136.611221 
L 290.064152 136.611221 
L 290.064152 135.353751 
L 290.216003 135.353751 
L 290.216003 134.096282 
L 290.330118 134.096282 
L 290.370703 131.581342 
L 290.664958 131.581342 
L 290.664958 130.323872 
L 290.952691 130.323872 
L 291.017684 127.808933 
L 291.090149 127.808933 
L 291.090149 126.551463 
L 291.274571 126.551463 
L 291.274571 125.293993 
L 291.700791 125.293993 
L 291.700791 124.036524 
L 296.564758 124.036524 
L 296.564758 122.779054 
L 297.269803 122.779054 
L 297.269803 121.521584 
L 319.991745 121.521584 
L 319.991745 120.264114 
L 329.956207 120.264114 
L 329.956207 119.006645 
L 331.452409 119.006645 
L 331.452409 117.749175 
L 333.045495 117.749175 
L 333.131101 115.234235 
L 335.071505 115.234235 
L 335.071505 113.976766 
L 337.009831 113.976766 
L 337.009831 112.719296 
L 337.240595 112.719296 
L 337.240595 111.461826 
L 337.901424 111.461826 
L 337.901424 110.204356 
L 338.281864 110.204356 
L 338.281864 108.946887 
L 339.094904 108.946887 
L 339.094904 107.689417 
L 339.375539 107.689417 
L 339.375539 106.431947 
L 341.020592 106.431947 
L 341.020592 105.174477 
L 341.616286 105.174477 
L 341.626936 102.659538 
L 343.871316 102.659538 
L 343.871316 101.402068 
L 346.620084 101.402068 
L 346.697186 97.629659 
L 347.892011 97.629659 
L 347.892011 96.372189 
L 348.859939 96.372189 
L 348.859939 95.114719 
L 349.225229 95.114719 
L 349.225229 93.85725 
L 349.700484 93.85725 
L 349.700484 92.59978 
L 350.363481 92.59978 
L 350.428283 90.08484 
L 350.770725 90.08484 
L 350.770725 88.827371 
L 351.351156 88.827371 
L 351.351156 87.569901 
L 352.067533 87.569901 
L 352.067533 86.312431 
L 352.381088 86.312431 
L 352.381088 85.054961 
L 353.478688 85.054961 
L 353.478688 83.797492 
L 357.502228 83.797492 
L 357.502228 82.540022 
L 358.200352 82.540022 
L 358.200352 81.282552 
L 358.529572 81.282552 
L 358.529572 80.025083 
L 359.537599 80.025083 
L 359.537599 78.767613 
L 360.119014 78.767613 
L 360.119014 77.510143 
L 363.995971 77.510143 
L 364.056592 74.995204 
L 364.150717 74.995204 
L 364.150717 73.737734 
L 364.951991 73.737734 
L 364.951991 72.480264 
L 366.625148 72.480264 
L 366.679627 69.965325 
L 369.625838 69.965325 
L 369.625838 68.707855 
L 370.1648 68.707855 
L 370.1648 67.450385 
L 371.16208 67.450385 
L 371.16208 66.192915 
L 371.560262 66.192915 
L 371.560262 64.935446 
L 381.33549 64.935446 
L 381.33549 63.677976 
L 384.433749 63.677976 
L 384.433749 62.420506 
L 384.78163 62.420506 
L 384.78163 61.163036 
L 385.850312 61.163036 
L 385.850312 59.905567 
L 389.065183 59.905567 
L 389.068596 57.390627 
L 391.680149 57.390627 
L 391.680149 56.133157 
L 393.351006 56.133157 
L 393.351006 54.875688 
L 393.826425 54.875688 
L 393.826425 53.618218 
L 395.454201 53.618218 
L 395.454201 52.360748 
L 396.169 52.360748 
L 396.169 51.103278 
L 397.179773 51.103278 
L 397.179773 49.845809 
L 397.512588 49.845809 
L 397.512588 48.588339 
L 398.451507 48.588339 
L 398.451507 47.330869 
L 398.866244 47.330869 
L 398.866244 46.073399 
L 399.155405 46.073399 
L 399.203398 43.55846 
L 399.91105 43.55846 
L 399.91105 42.30099 
L 400.409781 42.30099 
L 400.409781 41.04352 
L 400.68966 41.04352 
L 400.736044 38.528581 
L 401.159059 38.528581 
L 401.159059 37.271111 
L 401.574707 37.271111 
L 401.574707 36.013641 
L 402.490724 36.013641 
L 402.490724 34.756172 
L 403.53657 34.756172 
L 403.53657 33.498702 
L 403.856345 33.498702 
L 403.856345 32.241232 
L 404.503937 32.241232 
L 404.503937 30.983762 
L 405.075438 30.983762 
L 405.075438 29.726293 
L 406.920856 29.726293 
L 406.920856 28.468823 
L 407.369797 28.468823 
L 407.369797 27.211353 
L 409.522594 27.211353 
L 409.522594 25.953883 
L 409.801293 25.953883 
L 409.801293 24.696414 
L 410.723889 24.696414 
L 410.723889 23.438944 
L 412.229828 23.438944 
L 412.229828 22.181474 
L 412.614079 22.181474 
L 412.614079 20.924004 
L 412.9755 20.924004 
L 412.9755 19.666535 
L 413.134435 19.666535 
L 413.134435 18.409065 
L 413.885811 18.409065 
L 413.885811 17.151595 
L 414.22504 17.151595 
L 414.22504 15.894125 
L 415.275182 15.894125 
L 415.275182 14.636656 
L 417.040569 14.636656 
L 417.040569 13.379186 
L 417.993064 13.379186 
L 418.092208 10.864246 
L 418.759575 10.864246 
L 418.759575 9.606777 
L 419.952033 9.606777 
L 419.952033 8.349307 
L 419.952033 8.349307 
L 450.672 8.349307 
L 450.672 8.349307 
" style="fill:none;stroke:#ff0000;stroke-linecap:square;stroke-width:3;"/>
   </g>
   <g id="line2d_24">
    <path clip-path="url(#p3c86ac8d84)" d="M 241.717957 291.28 
L 241.717957 290.02253 
L 243.067358 290.02253 
L 243.067358 288.765061 
L 243.995237 288.765061 
L 243.995237 287.507591 
L 245.179303 287.507591 
L 245.272239 284.992651 
L 245.383417 284.992651 
L 245.383417 283.735182 
L 245.642474 283.735182 
L 245.696903 281.220242 
L 246.00429 281.220242 
L 246.00429 279.962772 
L 247.644457 279.962772 
L 247.644457 278.705303 
L 248.191846 278.705303 
L 248.191846 277.447833 
L 248.449715 277.447833 
L 248.449715 276.190363 
L 248.984512 276.190363 
L 249.024317 273.675424 
L 249.296514 273.675424 
L 249.296514 272.417954 
L 249.651873 272.417954 
L 249.727222 269.903014 
L 249.855788 269.903014 
L 249.957845 267.388075 
L 250.067019 267.388075 
L 250.06948 264.873135 
L 250.453164 264.873135 
L 250.515068 262.358196 
L 250.885319 262.358196 
L 250.885319 261.100726 
L 251.263371 261.100726 
L 251.263371 259.843256 
L 251.474328 259.843256 
L 251.576645 256.070847 
L 251.614815 256.070847 
L 251.614815 254.813377 
L 252.303323 254.813377 
L 252.303323 253.555908 
L 252.63718 253.555908 
L 252.63718 252.298438 
L 253.103292 252.298438 
L 253.124843 249.783498 
L 253.60946 249.783498 
L 253.626947 247.268559 
L 254.242317 247.268559 
L 254.242317 246.011089 
L 256.400998 246.011089 
L 256.400998 244.753619 
L 256.575385 244.753619 
L 256.575385 243.49615 
L 256.716901 243.49615 
L 256.716901 242.23868 
L 257.332773 242.23868 
L 257.377142 239.72374 
L 257.916119 239.72374 
L 257.916119 238.466271 
L 258.155684 238.466271 
L 258.155684 237.208801 
L 260.818849 237.208801 
L 260.818849 235.951331 
L 262.276282 235.951331 
L 262.276282 234.693861 
L 266.295065 234.693861 
L 266.295065 233.436392 
L 270.246679 233.436392 
L 270.246679 232.178922 
L 271.511743 232.178922 
L 271.511743 230.921452 
L 288.290481 230.921452 
L 288.290481 229.663982 
L 289.310585 229.663982 
L 289.310585 228.406513 
L 290.179713 228.406513 
L 290.179713 227.149043 
L 290.35098 227.149043 
L 290.35098 225.891573 
L 290.5018 225.891573 
L 290.5018 224.634103 
L 290.629991 224.634103 
L 290.666815 222.119164 
L 290.748803 222.119164 
L 290.847073 218.346755 
L 290.944045 218.346755 
L 291.01873 215.831815 
L 291.103943 215.831815 
L 291.103943 214.574345 
L 291.310906 214.574345 
L 291.310906 213.316876 
L 291.429935 213.316876 
L 291.511104 210.801936 
L 291.551547 210.801936 
L 291.551547 209.544466 
L 291.88172 209.544466 
L 291.951045 207.029527 
L 292.047229 207.029527 
L 292.09041 203.257118 
L 292.192472 203.257118 
L 292.284812 200.742178 
L 292.390388 200.742178 
L 292.499252 198.227239 
L 292.714595 198.227239 
L 292.768736 195.712299 
L 292.884375 195.712299 
L 292.991022 191.93989 
L 293.010647 191.93989 
L 293.076968 186.910011 
L 293.229212 186.910011 
L 293.311678 184.395072 
L 293.514398 184.395072 
L 293.603632 181.880132 
L 293.737722 181.880132 
L 293.763698 179.365193 
L 293.900481 179.365193 
L 293.900481 178.107723 
L 294.130277 178.107723 
L 294.130277 176.850253 
L 294.268795 176.850253 
L 294.268795 175.592783 
L 294.982843 175.592783 
L 294.982843 174.335314 
L 298.197129 174.335314 
L 298.197129 173.077844 
L 302.568752 173.077844 
L 302.573441 170.562904 
L 312.05912 170.562904 
L 312.05912 169.305435 
L 313.260056 169.305435 
L 313.260056 168.047965 
L 314.977388 168.047965 
L 314.977388 166.790495 
L 316.118686 166.790495 
L 316.118686 165.533025 
L 318.923801 165.533025 
L 318.923801 164.275556 
L 320.086926 164.275556 
L 320.086926 163.018086 
L 322.525388 163.018086 
L 322.525388 161.760616 
L 322.839425 161.760616 
L 322.839425 160.503146 
L 327.630887 160.503146 
L 327.630887 159.245677 
L 329.747457 159.245677 
L 329.747457 157.988207 
L 332.436936 157.988207 
L 332.436936 156.730737 
L 333.445858 156.730737 
L 333.445858 155.473267 
L 334.522714 155.473267 
L 334.522714 154.215798 
L 334.760434 154.215798 
L 334.760434 152.958328 
L 335.456778 152.958328 
L 335.456778 151.700858 
L 335.823715 151.700858 
L 335.823715 150.443388 
L 336.217907 150.443388 
L 336.217907 149.185919 
L 338.247039 149.185919 
L 338.247039 147.928449 
L 338.862134 147.928449 
L 338.862134 146.670979 
L 339.059036 146.670979 
L 339.059036 145.413509 
L 341.591504 145.413509 
L 341.591504 144.15604 
L 341.924796 144.15604 
L 341.924796 142.89857 
L 342.280031 142.89857 
L 342.280031 141.6411 
L 343.79614 141.6411 
L 343.79614 140.38363 
L 344.22108 140.38363 
L 344.22108 139.126161 
L 348.814607 139.126161 
L 348.814607 137.868691 
L 349.700484 137.868691 
L 349.700484 136.611221 
L 350.658391 136.611221 
L 350.658391 135.353751 
L 350.868759 135.353751 
L 350.868759 134.096282 
L 351.648646 134.096282 
L 351.648646 132.838812 
L 355.282017 132.838812 
L 355.282017 131.581342 
L 355.938857 131.581342 
L 355.938857 130.323872 
L 356.549694 130.323872 
L 356.549694 129.066403 
L 358.584699 129.066403 
L 358.584699 127.808933 
L 359.930669 127.808933 
L 359.930669 126.551463 
L 361.651819 126.551463 
L 361.651819 125.293993 
L 362.872426 125.293993 
L 362.872426 124.036524 
L 363.794646 124.036524 
L 363.892524 121.521584 
L 365.058841 121.521584 
L 365.058841 120.264114 
L 365.417801 120.264114 
L 365.417801 119.006645 
L 366.416389 119.006645 
L 366.480497 116.491705 
L 366.625148 116.491705 
L 366.625148 115.234235 
L 366.989626 115.234235 
L 366.989626 113.976766 
L 369.688629 113.976766 
L 369.688629 112.719296 
L 370.011954 112.719296 
L 370.011954 111.461826 
L 370.201118 111.461826 
L 370.201118 110.204356 
L 370.330215 110.204356 
L 370.330215 108.946887 
L 371.349918 108.946887 
L 371.381911 106.431947 
L 371.840222 106.431947 
L 371.840222 105.174477 
L 372.13505 105.174477 
L 372.13505 103.917008 
L 372.450116 103.917008 
L 372.450116 102.659538 
L 372.61905 102.659538 
L 372.61905 101.402068 
L 373.808099 101.402068 
L 373.808099 100.144598 
L 374.235585 100.144598 
L 374.235585 98.887129 
L 374.556328 98.887129 
L 374.556328 97.629659 
L 374.683412 97.629659 
L 374.779627 93.85725 
L 376.023532 93.85725 
L 376.023532 92.59978 
L 376.377969 92.59978 
L 376.377969 91.34231 
L 377.412372 91.34231 
L 377.412372 90.08484 
L 377.535673 90.08484 
L 377.55245 87.569901 
L 378.259102 87.569901 
L 378.259102 86.312431 
L 379.47928 86.312431 
L 379.47928 85.054961 
L 379.756192 85.054961 
L 379.756192 83.797492 
L 380.11649 83.797492 
L 380.11649 82.540022 
L 380.890192 82.540022 
L 380.890192 81.282552 
L 381.457577 81.282552 
L 381.496247 78.767613 
L 381.79374 78.767613 
L 381.79374 77.510143 
L 382.055955 77.510143 
L 382.126329 74.995204 
L 382.271494 74.995204 
L 382.327522 72.480264 
L 382.591016 72.480264 
L 382.69557 69.965325 
L 382.970525 69.965325 
L 382.970525 68.707855 
L 385.766083 68.707855 
L 385.766083 67.450385 
L 386.866602 67.450385 
L 386.866602 66.192915 
L 387.017375 66.192915 
L 387.017375 64.935446 
L 412.823033 64.935446 
L 412.823033 63.677976 
L 413.952179 63.677976 
L 413.952179 62.420506 
L 414.249966 62.420506 
L 414.249966 61.163036 
L 414.4593 61.163036 
L 414.4593 59.905567 
L 414.595448 59.905567 
L 414.698964 57.390627 
L 414.726373 57.390627 
L 414.726373 56.133157 
L 415.273606 56.133157 
L 415.273606 54.875688 
L 415.729241 54.875688 
L 415.729241 53.618218 
L 416.377342 53.618218 
L 416.377342 52.360748 
L 417.115197 52.360748 
L 417.120066 48.588339 
L 417.465468 48.588339 
L 417.465468 47.330869 
L 417.64383 47.330869 
L 417.733477 44.81593 
L 417.795239 44.81593 
L 417.795239 43.55846 
L 418.122998 43.55846 
L 418.210213 39.786051 
L 418.466446 39.786051 
L 418.466446 38.528581 
L 419.308417 38.528581 
L 419.39729 36.013641 
L 420.664793 36.013641 
L 420.692638 33.498702 
L 421.837672 33.498702 
L 421.837672 32.241232 
L 422.397849 32.241232 
L 422.438546 29.726293 
L 423.053058 29.726293 
L 423.053058 28.468823 
L 423.281824 28.468823 
L 423.281824 27.211353 
L 423.451061 27.211353 
L 423.451061 25.953883 
L 423.889788 25.953883 
L 423.889788 24.696414 
L 425.009911 24.696414 
L 425.009911 23.438944 
L 425.352452 23.438944 
L 425.352452 22.181474 
L 425.873183 22.181474 
L 425.873183 20.924004 
L 426.517951 20.924004 
L 426.517951 19.666535 
L 427.148529 19.666535 
L 427.21945 17.151595 
L 428.374942 17.151595 
L 428.374942 15.894125 
L 430.464079 15.894125 
L 430.56604 13.379186 
L 431.644963 13.379186 
L 431.644963 12.121716 
L 433.545445 12.121716 
L 433.545445 10.864246 
L 438.293264 10.864246 
L 438.388733 8.349307 
L 438.388733 8.349307 
L 450.672 8.349307 
L 450.672 8.349307 
" style="fill:none;stroke:#00bfbf;stroke-linecap:square;stroke-width:1.5;"/>
   </g>
   <g id="line2d_25">
    <path clip-path="url(#p3c86ac8d84)" d="M 241.717957 291.28 
L 241.717957 290.02253 
L 242.904289 290.02253 
L 242.904289 288.765061 
L 243.067358 288.765061 
L 243.067358 287.507591 
L 243.905942 287.507591 
L 243.995237 284.992651 
L 244.60633 284.992651 
L 244.60633 283.735182 
L 245.179303 283.735182 
L 245.272239 281.220242 
L 245.383417 281.220242 
L 245.474473 278.705303 
L 245.678072 278.705303 
L 245.696903 276.190363 
L 245.827813 276.190363 
L 245.903487 273.675424 
L 246.00429 273.675424 
L 246.00429 272.417954 
L 246.362889 272.417954 
L 246.362889 271.160484 
L 246.689553 271.160484 
L 246.689553 269.903014 
L 247.101644 269.903014 
L 247.101644 268.645545 
L 247.451271 268.645545 
L 247.523851 266.130605 
L 247.919597 266.130605 
L 247.919597 264.873135 
L 248.068437 264.873135 
L 248.068437 263.615666 
L 248.503849 263.615666 
L 248.566065 261.100726 
L 248.651567 261.100726 
L 248.651567 259.843256 
L 248.913282 259.843256 
L 249.024317 257.328317 
L 249.310067 257.328317 
L 249.310067 256.070847 
L 249.651873 256.070847 
L 249.727222 251.040968 
L 249.764463 251.040968 
L 249.764463 249.783498 
L 250.061352 249.783498 
L 250.061352 248.526029 
L 250.438889 248.526029 
L 250.515068 246.011089 
L 250.628657 246.011089 
L 250.628657 244.753619 
L 251.062343 244.753619 
L 251.062343 243.49615 
L 251.177044 243.49615 
L 251.177044 242.23868 
L 251.474328 242.23868 
L 251.474328 240.98121 
L 252.341262 240.98121 
L 252.341262 239.72374 
L 253.60946 239.72374 
L 253.60946 238.466271 
L 255.282264 238.466271 
L 255.282264 237.208801 
L 256.593552 237.208801 
L 256.593552 235.951331 
L 258.155684 235.951331 
L 258.155684 234.693861 
L 261.387246 234.693861 
L 261.387246 233.436392 
L 266.295065 233.436392 
L 266.295065 232.178922 
L 268.895312 232.178922 
L 268.895312 230.921452 
L 270.246679 230.921452 
L 270.246679 229.663982 
L 281.866474 229.663982 
L 281.866474 228.406513 
L 286.433265 228.406513 
L 286.433265 227.149043 
L 287.93006 227.149043 
L 287.931323 223.376634 
L 288.199349 223.376634 
L 288.290481 220.861694 
L 288.44758 220.861694 
L 288.44758 219.604224 
L 289.30733 219.604224 
L 289.310585 217.089285 
L 289.799201 217.089285 
L 289.799201 215.831815 
L 290.17298 215.831815 
L 290.17298 214.574345 
L 290.5018 214.574345 
L 290.5018 213.316876 
L 290.666815 213.316876 
L 290.772071 208.286997 
L 290.799972 208.286997 
L 290.799972 207.029527 
L 290.975295 207.029527 
L 291.01873 204.514587 
L 291.103943 204.514587 
L 291.103943 203.257118 
L 291.310906 203.257118 
L 291.356759 200.742178 
L 291.429935 200.742178 
L 291.52784 198.227239 
L 291.544977 198.227239 
L 291.551547 195.712299 
L 291.805442 195.712299 
L 291.805442 194.454829 
L 292.047229 194.454829 
L 292.09041 189.42495 
L 292.192472 189.42495 
L 292.192472 188.167481 
L 292.318095 188.167481 
L 292.390388 184.395072 
L 292.460306 184.395072 
L 292.570512 180.622662 
L 292.714595 180.622662 
L 292.714595 179.365193 
L 292.884749 179.365193 
L 292.890213 176.850253 
L 293.229212 176.850253 
L 293.229212 175.592783 
L 293.514398 175.592783 
L 293.519489 173.077844 
L 293.720557 173.077844 
L 293.720557 171.820374 
L 294.172856 171.820374 
L 294.268795 169.305435 
L 294.629166 169.305435 
L 294.629166 168.047965 
L 297.269803 168.047965 
L 297.269803 166.790495 
L 297.697347 166.790495 
L 297.697347 165.533025 
L 298.197129 165.533025 
L 298.197129 164.275556 
L 298.643104 164.275556 
L 298.643104 163.018086 
L 302.568752 163.018086 
L 302.568752 161.760616 
L 304.452789 161.760616 
L 304.452789 160.503146 
L 307.442156 160.503146 
L 307.442156 159.245677 
L 310.437989 159.245677 
L 310.437989 157.988207 
L 310.723759 157.988207 
L 310.723759 156.730737 
L 312.05912 156.730737 
L 312.05912 155.473267 
L 313.260056 155.473267 
L 313.260056 154.215798 
L 313.525607 154.215798 
L 313.525607 152.958328 
L 314.977388 152.958328 
L 314.977388 151.700858 
L 318.923801 151.700858 
L 318.923801 150.443388 
L 322.525388 150.443388 
L 322.525388 149.185919 
L 323.469996 149.185919 
L 323.469996 147.928449 
L 324.962591 147.928449 
L 324.962591 146.670979 
L 325.216911 146.670979 
L 325.216911 145.413509 
L 326.800803 145.413509 
L 326.800803 144.15604 
L 327.630887 144.15604 
L 327.630887 142.89857 
L 329.753816 142.89857 
L 329.753816 141.6411 
L 330.069108 141.6411 
L 330.069108 140.38363 
L 330.541923 140.38363 
L 330.541923 139.126161 
L 332.391161 139.126161 
L 332.391161 137.868691 
L 333.795941 137.868691 
L 333.795941 136.611221 
L 334.760434 136.611221 
L 334.842445 134.096282 
L 335.456778 134.096282 
L 335.456778 132.838812 
L 335.823715 132.838812 
L 335.823715 131.581342 
L 336.217907 131.581342 
L 336.217907 130.323872 
L 337.12795 130.323872 
L 337.12795 129.066403 
L 337.482915 129.066403 
L 337.482915 127.808933 
L 338.247039 127.808933 
L 338.247039 126.551463 
L 339.059036 126.551463 
L 339.059036 125.293993 
L 341.673459 125.293993 
L 341.673459 124.036524 
L 344.22108 124.036524 
L 344.22108 122.779054 
L 349.700484 122.779054 
L 349.700484 121.521584 
L 355.938857 121.521584 
L 355.938857 120.264114 
L 361.651819 120.264114 
L 361.651819 119.006645 
L 363.16486 119.006645 
L 363.16486 117.749175 
L 363.579444 117.749175 
L 363.579444 116.491705 
L 363.892524 116.491705 
L 363.892524 115.234235 
L 365.058841 115.234235 
L 365.058841 113.976766 
L 365.417801 113.976766 
L 365.417801 112.719296 
L 365.699853 112.719296 
L 365.699853 111.461826 
L 366.037796 111.461826 
L 366.037796 110.204356 
L 366.480497 110.204356 
L 366.480497 108.946887 
L 366.625148 108.946887 
L 366.625148 107.689417 
L 366.989626 107.689417 
L 366.989626 106.431947 
L 368.450403 106.431947 
L 368.450403 105.174477 
L 368.7435 105.174477 
L 368.7435 103.917008 
L 369.107836 103.917008 
L 369.107836 102.659538 
L 369.630723 102.659538 
L 369.688629 100.144598 
L 370.011954 100.144598 
L 370.011954 98.887129 
L 370.330215 98.887129 
L 370.330215 97.629659 
L 371.260375 97.629659 
L 371.349918 95.114719 
L 371.630472 95.114719 
L 371.630472 93.85725 
L 371.840222 93.85725 
L 371.840222 92.59978 
L 372.519508 92.59978 
L 372.519508 91.34231 
L 372.996564 91.34231 
L 373.096904 88.827371 
L 373.165828 88.827371 
L 373.201375 86.312431 
L 373.583856 86.312431 
L 373.583856 85.054961 
L 374.235585 85.054961 
L 374.235585 83.797492 
L 374.556328 83.797492 
L 374.556328 82.540022 
L 374.757742 82.540022 
L 374.779627 80.025083 
L 375.37053 80.025083 
L 375.37053 78.767613 
L 376.299525 78.767613 
L 376.377969 76.252673 
L 377.200122 76.252673 
L 377.205592 73.737734 
L 377.759695 73.737734 
L 377.783544 71.222794 
L 378.259102 71.222794 
L 378.259102 69.965325 
L 378.842329 69.965325 
L 378.842329 68.707855 
L 379.377112 68.707855 
L 379.377112 67.450385 
L 380.001732 67.450385 
L 380.001732 66.192915 
L 382.271494 66.192915 
L 382.271494 64.935446 
L 402.085993 64.935446 
L 402.085993 63.677976 
L 412.359338 63.677976 
L 412.359338 62.420506 
L 412.996132 62.420506 
L 412.996132 61.163036 
L 413.175414 61.163036 
L 413.175414 59.905567 
L 413.952179 59.905567 
L 413.952179 58.648097 
L 414.249966 58.648097 
L 414.249966 57.390627 
L 414.494447 57.390627 
L 414.595448 54.875688 
L 414.694325 54.875688 
L 414.726373 51.103278 
L 414.924699 51.103278 
L 414.931448 48.588339 
L 415.729241 48.588339 
L 415.729241 47.330869 
L 416.377342 47.330869 
L 416.377342 46.073399 
L 417.040569 46.073399 
L 417.120066 41.04352 
L 417.465468 41.04352 
L 417.465468 39.786051 
L 417.64383 39.786051 
L 417.733477 37.271111 
L 417.795239 37.271111 
L 417.795239 36.013641 
L 418.122998 36.013641 
L 418.210213 32.241232 
L 418.466446 32.241232 
L 418.466446 30.983762 
L 418.602185 30.983762 
L 418.665086 28.468823 
L 419.39729 28.468823 
L 419.39729 27.211353 
L 420.692638 27.211353 
L 420.796179 24.696414 
L 421.404857 24.696414 
L 421.404857 23.438944 
L 421.604997 23.438944 
L 421.604997 22.181474 
L 421.837672 22.181474 
L 421.837672 20.924004 
L 422.438546 20.924004 
L 422.438546 19.666535 
L 423.451061 19.666535 
L 423.451061 18.409065 
L 425.001185 18.409065 
L 425.001185 17.151595 
L 426.517951 17.151595 
L 426.517951 15.894125 
L 426.982317 15.894125 
L 426.982317 14.636656 
L 428.374942 14.636656 
L 428.374942 13.379186 
L 430.052262 13.379186 
L 430.052262 12.121716 
L 430.464079 12.121716 
L 430.464079 10.864246 
L 431.644963 10.864246 
L 431.644963 9.606777 
L 433.545445 9.606777 
L 433.545445 8.349307 
L 433.545445 8.349307 
L 450.672 8.349307 
L 450.672 8.349307 
" style="fill:none;stroke:#bf00bf;stroke-linecap:square;stroke-width:1.5;"/>
   </g>
   <g id="line2d_26">
    <path clip-path="url(#p3c86ac8d84)" d="M 239.524712 291.28 
L 239.524712 290.02253 
L 240.231211 290.02253 
L 240.231211 288.765061 
L 241.56948 288.765061 
L 241.56948 287.507591 
L 241.717957 287.507591 
L 241.717957 286.250121 
L 241.852639 286.250121 
L 241.852639 284.992651 
L 242.652733 284.992651 
L 242.652733 283.735182 
L 242.901213 283.735182 
L 242.901213 282.477712 
L 243.067358 282.477712 
L 243.067358 281.220242 
L 243.351218 281.220242 
L 243.404516 278.705303 
L 243.757236 278.705303 
L 243.757236 277.447833 
L 243.994885 277.447833 
L 243.994885 276.190363 
L 244.209168 276.190363 
L 244.222211 273.675424 
L 244.627686 273.675424 
L 244.627686 272.417954 
L 245.179303 272.417954 
L 245.272239 268.645545 
L 245.363698 268.645545 
L 245.455307 264.873135 
L 245.652666 264.873135 
L 245.696903 259.843256 
L 245.827813 259.843256 
L 245.827813 258.585787 
L 246.426429 258.585787 
L 246.426429 257.328317 
L 246.620964 257.328317 
L 246.69965 254.813377 
L 246.937094 254.813377 
L 246.937094 253.555908 
L 247.101644 253.555908 
L 247.198847 251.040968 
L 247.411898 251.040968 
L 247.411898 249.783498 
L 247.523851 249.783498 
L 247.523851 248.526029 
L 247.868151 248.526029 
L 247.919597 244.753619 
L 248.503849 244.753619 
L 248.503849 243.49615 
L 249.651873 243.49615 
L 249.727222 240.98121 
L 249.764463 240.98121 
L 249.764463 239.72374 
L 250.515068 239.72374 
L 250.515068 238.466271 
L 250.628657 238.466271 
L 250.628657 237.208801 
L 252.177297 237.208801 
L 252.177297 235.951331 
L 252.341262 235.951331 
L 252.341262 234.693861 
L 261.387246 234.693861 
L 261.387246 233.436392 
L 264.469776 233.436392 
L 264.469776 232.178922 
L 265.62378 232.178922 
L 265.62378 230.921452 
L 266.208319 230.921452 
L 266.295065 228.406513 
L 268.895312 228.406513 
L 268.895312 227.149043 
L 269.776413 227.149043 
L 269.776413 225.891573 
L 270.246679 225.891573 
L 270.246679 224.634103 
L 270.721546 224.634103 
L 270.721546 223.376634 
L 274.392495 223.376634 
L 274.392495 222.119164 
L 274.662989 222.119164 
L 274.662989 220.861694 
L 275.024428 220.861694 
L 275.024428 219.604224 
L 275.981234 219.604224 
L 275.981234 218.346755 
L 281.866474 218.346755 
L 281.866474 217.089285 
L 283.004965 217.089285 
L 283.004965 215.831815 
L 283.808033 215.831815 
L 283.808033 214.574345 
L 286.433265 214.574345 
L 286.433265 213.316876 
L 287.263332 213.316876 
L 287.263332 212.059406 
L 287.387979 212.059406 
L 287.387979 210.801936 
L 287.613341 210.801936 
L 287.613341 209.544466 
L 287.93006 209.544466 
L 287.931323 205.772057 
L 288.199349 205.772057 
L 288.287472 203.257118 
L 288.405798 203.257118 
L 288.44758 200.742178 
L 288.990411 200.742178 
L 288.990411 199.484708 
L 289.192681 199.484708 
L 289.192681 198.227239 
L 289.30733 198.227239 
L 289.312369 195.712299 
L 289.497745 195.712299 
L 289.556459 193.19736 
L 289.609664 193.19736 
L 289.686141 190.68242 
L 289.962457 190.68242 
L 290.028432 188.167481 
L 290.17298 188.167481 
L 290.276702 181.880132 
L 290.5018 181.880132 
L 290.5018 180.622662 
L 290.666815 180.622662 
L 290.687816 178.107723 
L 290.799972 178.107723 
L 290.799972 176.850253 
L 290.913139 176.850253 
L 290.913139 175.592783 
L 291.103943 175.592783 
L 291.103943 174.335314 
L 291.273223 174.335314 
L 291.355076 171.820374 
L 291.401544 171.820374 
L 291.458128 169.305435 
L 291.542773 169.305435 
L 291.542773 168.047965 
L 291.81734 168.047965 
L 291.81734 166.790495 
L 292.045631 166.790495 
L 292.04824 163.018086 
L 292.162991 163.018086 
L 292.192472 160.503146 
L 292.364116 160.503146 
L 292.470098 157.988207 
L 292.714595 157.988207 
L 292.714595 156.730737 
L 292.940373 156.730737 
L 292.940373 155.473267 
L 293.519489 155.473267 
L 293.519489 154.215798 
L 293.857952 154.215798 
L 293.857952 152.958328 
L 294.334005 152.958328 
L 294.334005 151.700858 
L 295.710734 151.700858 
L 295.710734 150.443388 
L 296.137379 150.443388 
L 296.137379 149.185919 
L 296.586863 149.185919 
L 296.637584 146.670979 
L 297.269803 146.670979 
L 297.269803 145.413509 
L 297.697347 145.413509 
L 297.697347 144.15604 
L 297.849441 144.15604 
L 297.849441 142.89857 
L 298.643104 142.89857 
L 298.643104 141.6411 
L 304.452789 141.6411 
L 304.452789 140.38363 
L 307.442156 140.38363 
L 307.442156 139.126161 
L 308.296667 139.126161 
L 308.296667 137.868691 
L 310.697411 137.868691 
L 310.697411 136.611221 
L 313.260056 136.611221 
L 313.260056 135.353751 
L 314.628776 135.353751 
L 314.628776 134.096282 
L 318.979172 134.096282 
L 319.0706 131.581342 
L 323.469996 131.581342 
L 323.469996 130.323872 
L 324.797218 130.323872 
L 324.797218 129.066403 
L 324.962591 129.066403 
L 324.962591 127.808933 
L 325.119952 127.808933 
L 325.119952 126.551463 
L 325.725911 126.551463 
L 325.725911 125.293993 
L 330.069108 125.293993 
L 330.069108 124.036524 
L 335.405978 124.036524 
L 335.405978 122.779054 
L 344.22108 122.779054 
L 344.22108 121.521584 
L 349.700484 121.521584 
L 349.700484 120.264114 
L 354.013428 120.264114 
L 354.013428 119.006645 
L 357.029116 119.006645 
L 357.029116 117.749175 
L 358.58723 117.749175 
L 358.58723 116.491705 
L 359.504533 116.491705 
L 359.504533 115.234235 
L 361.247205 115.234235 
L 361.247205 113.976766 
L 361.596525 113.976766 
L 361.651819 111.461826 
L 363.116037 111.461826 
L 363.116037 110.204356 
L 363.515834 110.204356 
L 363.579444 107.689417 
L 363.892524 107.689417 
L 363.892524 106.431947 
L 364.2433 106.431947 
L 364.2433 105.174477 
L 365.230923 105.174477 
L 365.230923 103.917008 
L 365.605525 103.917008 
L 365.605525 102.659538 
L 366.016836 102.659538 
L 366.037796 100.144598 
L 366.144512 100.144598 
L 366.144512 98.887129 
L 366.480497 98.887129 
L 366.480497 97.629659 
L 366.625148 97.629659 
L 366.625148 96.372189 
L 367.399502 96.372189 
L 367.399502 95.114719 
L 368.215316 95.114719 
L 368.215316 93.85725 
L 368.450403 93.85725 
L 368.450403 92.59978 
L 368.689132 92.59978 
L 368.689132 91.34231 
L 369.428166 91.34231 
L 369.428166 90.08484 
L 369.630723 90.08484 
L 369.630723 88.827371 
L 369.824558 88.827371 
L 369.824558 87.569901 
L 370.011954 87.569901 
L 370.011954 86.312431 
L 370.1648 86.312431 
L 370.1648 85.054961 
L 370.727732 85.054961 
L 370.727732 83.797492 
L 371.515582 83.797492 
L 371.560262 81.282552 
L 372.091211 81.282552 
L 372.091211 80.025083 
L 372.644518 80.025083 
L 372.644518 78.767613 
L 373.201375 78.767613 
L 373.201375 77.510143 
L 373.583856 77.510143 
L 373.6518 74.995204 
L 374.062082 74.995204 
L 374.062082 73.737734 
L 374.295951 73.737734 
L 374.295951 72.480264 
L 375.321423 72.480264 
L 375.321423 71.222794 
L 376.157753 71.222794 
L 376.157753 69.965325 
L 376.377969 69.965325 
L 376.38069 67.450385 
L 377.783544 67.450385 
L 377.783544 66.192915 
L 380.001732 66.192915 
L 380.001732 64.935446 
L 402.085993 64.935446 
L 402.085993 63.677976 
L 405.25445 63.677976 
L 405.25445 62.420506 
L 405.912529 62.420506 
L 405.912529 61.163036 
L 406.42452 61.163036 
L 406.42452 59.905567 
L 408.092319 59.905567 
L 408.202384 57.390627 
L 409.522594 57.390627 
L 409.522594 56.133157 
L 409.801293 56.133157 
L 409.801293 54.875688 
L 410.568346 54.875688 
L 410.568346 53.618218 
L 412.096245 53.618218 
L 412.096245 52.360748 
L 412.247508 52.360748 
L 412.247508 51.103278 
L 412.359338 51.103278 
L 412.359338 49.845809 
L 412.614079 49.845809 
L 412.699465 47.330869 
L 412.969288 47.330869 
L 412.969288 46.073399 
L 413.693497 46.073399 
L 413.693497 44.81593 
L 413.952179 44.81593 
L 413.952179 43.55846 
L 414.218332 43.55846 
L 414.266942 39.786051 
L 414.494447 39.786051 
L 414.494447 38.528581 
L 414.641278 38.528581 
L 414.694325 36.013641 
L 414.899502 36.013641 
L 414.924699 33.498702 
L 415.059797 33.498702 
L 415.059797 32.241232 
L 416.605437 32.241232 
L 416.716319 28.468823 
L 416.868181 28.468823 
L 416.868181 27.211353 
L 417.040569 27.211353 
L 417.120066 23.438944 
L 417.580633 23.438944 
L 417.580633 22.181474 
L 418.147467 22.181474 
L 418.147467 20.924004 
L 419.052045 20.924004 
L 419.052045 19.666535 
L 419.39729 19.666535 
L 419.39729 18.409065 
L 419.812267 18.409065 
L 419.812267 17.151595 
L 419.952033 17.151595 
L 419.952033 15.894125 
L 420.796179 15.894125 
L 420.796179 14.636656 
L 421.753373 14.636656 
L 421.753373 13.379186 
L 423.451061 13.379186 
L 423.451061 12.121716 
L 424.560969 12.121716 
L 424.560969 10.864246 
L 426.456073 10.864246 
L 426.456073 9.606777 
L 428.374942 9.606777 
L 428.374942 8.349307 
L 428.374942 8.349307 
L 450.672 8.349307 
L 450.672 8.349307 
" style="fill:none;stroke:#000000;stroke-linecap:square;stroke-width:1.5;"/>
   </g>
   <g id="line2d_27">
    <path clip-path="url(#p3c86ac8d84)" d="M 228.974778 291.28 
L 228.974778 290.02253 
L 233.861366 290.02253 
L 233.861366 288.765061 
L 235.378404 288.765061 
L 235.391931 286.250121 
L 236.136281 286.250121 
L 236.136281 284.992651 
L 236.597248 284.992651 
L 236.597248 283.735182 
L 236.926494 283.735182 
L 236.931261 281.220242 
L 237.33467 281.220242 
L 237.33467 279.962772 
L 237.494011 279.962772 
L 237.494011 278.705303 
L 238.040721 278.705303 
L 238.139696 276.190363 
L 238.369721 276.190363 
L 238.369721 274.932893 
L 238.599483 274.932893 
L 238.599483 273.675424 
L 238.766784 273.675424 
L 238.796627 271.160484 
L 239.737987 271.160484 
L 239.737987 269.903014 
L 240.108589 269.903014 
L 240.108589 268.645545 
L 240.551547 268.645545 
L 240.638872 266.130605 
L 240.774565 266.130605 
L 240.774565 264.873135 
L 240.999683 264.873135 
L 240.999683 263.615666 
L 241.162842 263.615666 
L 241.162842 262.358196 
L 241.275404 262.358196 
L 241.275404 261.100726 
L 241.717957 261.100726 
L 241.717957 259.843256 
L 242.187937 259.843256 
L 242.187937 258.585787 
L 242.299939 258.585787 
L 242.299939 257.328317 
L 242.782822 257.328317 
L 242.782822 256.070847 
L 243.144788 256.070847 
L 243.144788 254.813377 
L 243.376568 254.813377 
L 243.376568 253.555908 
L 243.501953 253.555908 
L 243.501953 252.298438 
L 244.126781 252.298438 
L 244.126781 251.040968 
L 244.627686 251.040968 
L 244.627686 249.783498 
L 245.696903 249.783498 
L 245.696903 248.526029 
L 246.421955 248.526029 
L 246.421955 247.268559 
L 246.944182 247.268559 
L 246.955233 243.49615 
L 247.198847 243.49615 
L 247.198847 242.23868 
L 247.523851 242.23868 
L 247.523851 240.98121 
L 248.365323 240.98121 
L 248.365323 239.72374 
L 248.503849 239.72374 
L 248.503849 238.466271 
L 249.727222 238.466271 
L 249.727222 237.208801 
L 249.900398 237.208801 
L 249.900398 235.951331 
L 252.177297 235.951331 
L 252.177297 234.693861 
L 261.377632 234.693861 
L 261.377632 233.436392 
L 262.031453 233.436392 
L 262.031453 232.178922 
L 262.826711 232.178922 
L 262.826711 230.921452 
L 263.137824 230.921452 
L 263.247526 228.406513 
L 264.371631 228.406513 
L 264.371631 227.149043 
L 265.204931 227.149043 
L 265.204931 225.891573 
L 266.185703 225.891573 
L 266.295065 223.376634 
L 266.6418 223.376634 
L 266.6418 222.119164 
L 266.936662 222.119164 
L 266.936662 220.861694 
L 267.050023 220.861694 
L 267.050023 219.604224 
L 267.802878 219.604224 
L 267.802878 218.346755 
L 268.332923 218.346755 
L 268.332923 217.089285 
L 269.255694 217.089285 
L 269.281992 214.574345 
L 269.693345 214.574345 
L 269.693345 213.316876 
L 270.246679 213.316876 
L 270.353611 210.801936 
L 270.741263 210.801936 
L 270.741263 209.544466 
L 273.912881 209.544466 
L 273.912881 208.286997 
L 274.451952 208.286997 
L 274.451952 207.029527 
L 275.981234 207.029527 
L 275.981234 205.772057 
L 276.591643 205.772057 
L 276.591643 204.514587 
L 278.13135 204.514587 
L 278.13135 203.257118 
L 278.308756 203.257118 
L 278.308756 201.999648 
L 278.590896 201.999648 
L 278.590896 200.742178 
L 279.325352 200.742178 
L 279.325352 199.484708 
L 281.790732 199.484708 
L 281.790732 198.227239 
L 281.945828 198.227239 
L 281.945828 196.969769 
L 283.532905 196.969769 
L 283.532905 195.712299 
L 283.757025 195.712299 
L 283.757025 194.454829 
L 283.91433 194.454829 
L 283.91433 193.19736 
L 284.306071 193.19736 
L 284.374584 189.42495 
L 284.851626 189.42495 
L 284.851626 188.167481 
L 285.023959 188.167481 
L 285.023959 186.910011 
L 285.306232 186.910011 
L 285.335668 184.395072 
L 285.651437 184.395072 
L 285.651437 183.137602 
L 285.774197 183.137602 
L 285.774197 181.880132 
L 286.008168 181.880132 
L 286.080205 179.365193 
L 286.380681 179.365193 
L 286.380681 178.107723 
L 286.637252 178.107723 
L 286.658581 175.592783 
L 286.788303 175.592783 
L 286.864331 173.077844 
L 287.218549 173.077844 
L 287.320478 169.305435 
L 287.3781 169.305435 
L 287.462855 165.533025 
L 287.552263 165.533025 
L 287.552263 164.275556 
L 287.851805 164.275556 
L 287.942225 159.245677 
L 288.050557 159.245677 
L 288.050557 157.988207 
L 288.173252 157.988207 
L 288.173252 156.730737 
L 288.617921 156.730737 
L 288.617921 155.473267 
L 288.824335 155.473267 
L 288.824335 154.215798 
L 289.07905 154.215798 
L 289.07905 152.958328 
L 289.59559 152.958328 
L 289.705828 149.185919 
L 289.748509 149.185919 
L 289.748509 147.928449 
L 289.969723 147.928449 
L 290.064152 145.413509 
L 290.216003 145.413509 
L 290.216003 144.15604 
L 290.330118 144.15604 
L 290.370703 141.6411 
L 290.664958 141.6411 
L 290.664958 140.38363 
L 290.865406 140.38363 
L 290.952691 137.868691 
L 291.017684 137.868691 
L 291.090149 135.353751 
L 291.274571 135.353751 
L 291.274571 134.096282 
L 291.426627 134.096282 
L 291.426627 132.838812 
L 291.700791 132.838812 
L 291.700791 131.581342 
L 293.499682 131.581342 
L 293.499682 130.323872 
L 294.725451 130.323872 
L 294.725451 129.066403 
L 296.564758 129.066403 
L 296.564758 127.808933 
L 297.269803 127.808933 
L 297.269803 126.551463 
L 297.451715 126.551463 
L 297.451715 125.293993 
L 301.121479 125.293993 
L 301.121479 124.036524 
L 310.570934 124.036524 
L 310.570934 122.779054 
L 315.482689 122.779054 
L 315.482689 121.521584 
L 347.939046 121.521584 
L 347.939046 120.264114 
L 349.700484 120.264114 
L 349.700484 119.006645 
L 350.06955 119.006645 
L 350.06955 117.749175 
L 352.673972 117.749175 
L 352.673972 116.491705 
L 353.661097 116.491705 
L 353.661097 115.234235 
L 355.831928 115.234235 
L 355.831928 113.976766 
L 357.364971 113.976766 
L 357.364971 112.719296 
L 357.502228 112.719296 
L 357.502228 111.461826 
L 358.200352 111.461826 
L 358.200352 110.204356 
L 358.902553 110.204356 
L 358.902553 108.946887 
L 359.089974 108.946887 
L 359.089974 107.689417 
L 359.537599 107.689417 
L 359.537599 106.431947 
L 360.119014 106.431947 
L 360.227633 103.917008 
L 360.723192 103.917008 
L 360.78213 101.402068 
L 361.649713 101.402068 
L 361.649713 100.144598 
L 361.922696 100.144598 
L 361.922696 98.887129 
L 362.123772 98.887129 
L 362.123772 97.629659 
L 362.331789 97.629659 
L 362.331789 96.372189 
L 362.782347 96.372189 
L 362.820639 93.85725 
L 362.92854 93.85725 
L 362.92854 92.59978 
L 363.510877 92.59978 
L 363.510877 91.34231 
L 363.890244 91.34231 
L 363.995971 88.827371 
L 364.056592 88.827371 
L 364.150717 86.312431 
L 364.765556 86.312431 
L 364.834553 83.797492 
L 364.951991 83.797492 
L 365.025987 81.282552 
L 365.618456 81.282552 
L 365.618456 80.025083 
L 366.625148 80.025083 
L 366.686957 76.252673 
L 366.907558 76.252673 
L 366.907558 74.995204 
L 367.08782 74.995204 
L 367.08782 73.737734 
L 367.695542 73.737734 
L 367.695542 72.480264 
L 367.857756 72.480264 
L 367.857756 71.222794 
L 369.625838 71.222794 
L 369.625838 69.965325 
L 370.1648 69.965325 
L 370.1648 68.707855 
L 370.63696 68.707855 
L 370.63696 67.450385 
L 371.16208 67.450385 
L 371.16208 66.192915 
L 371.560262 66.192915 
L 371.560262 64.935446 
L 398.795961 64.935446 
L 398.795961 63.677976 
L 399.037999 63.677976 
L 399.037999 62.420506 
L 399.655752 62.420506 
L 399.655752 61.163036 
L 400.774091 61.163036 
L 400.774091 59.905567 
L 401.102136 59.905567 
L 401.102136 58.648097 
L 402.081589 58.648097 
L 402.081589 57.390627 
L 402.287781 57.390627 
L 402.287781 56.133157 
L 403.046991 56.133157 
L 403.046991 54.875688 
L 403.680472 54.875688 
L 403.680472 53.618218 
L 404.856868 53.618218 
L 404.856868 52.360748 
L 407.0708 52.360748 
L 407.0708 51.103278 
L 407.236696 51.103278 
L 407.236696 49.845809 
L 407.891459 49.845809 
L 407.99959 46.073399 
L 408.395974 46.073399 
L 408.395974 44.81593 
L 409.004659 44.81593 
L 409.004659 43.55846 
L 409.34253 43.55846 
L 409.34253 42.30099 
L 409.522594 42.30099 
L 409.522594 41.04352 
L 409.683081 41.04352 
L 409.683081 39.786051 
L 409.801293 39.786051 
L 409.801293 38.528581 
L 410.222372 38.528581 
L 410.222372 37.271111 
L 410.723889 37.271111 
L 410.825591 32.241232 
L 411.009132 32.241232 
L 411.009132 30.983762 
L 411.233586 30.983762 
L 411.233586 29.726293 
L 411.996884 29.726293 
L 411.996884 28.468823 
L 412.229828 28.468823 
L 412.229828 27.211353 
L 412.614079 27.211353 
L 412.614079 25.953883 
L 412.9755 25.953883 
L 412.9755 24.696414 
L 413.134435 24.696414 
L 413.134435 23.438944 
L 413.309689 23.438944 
L 413.309689 22.181474 
L 413.820659 22.181474 
L 413.885811 18.409065 
L 414.22504 18.409065 
L 414.22504 17.151595 
L 415.275182 17.151595 
L 415.275182 15.894125 
L 417.040569 15.894125 
L 417.040569 14.636656 
L 417.742279 14.636656 
L 417.742279 13.379186 
L 417.993064 13.379186 
L 418.092208 10.864246 
L 418.759575 10.864246 
L 418.759575 9.606777 
L 419.952033 9.606777 
L 419.952033 8.349307 
L 419.952033 8.349307 
L 450.672 8.349307 
L 450.672 8.349307 
" style="fill:none;stroke:#00bfbf;stroke-linecap:square;stroke-width:1.5;"/>
   </g>
   <g id="line2d_28">
    <path clip-path="url(#p3c86ac8d84)" d="M 222.888109 291.28 
L 222.888109 290.02253 
L 224.947182 290.02253 
L 224.947182 288.765061 
L 225.399873 288.765061 
L 225.399873 287.507591 
L 227.049895 287.507591 
L 227.049895 286.250121 
L 227.223216 286.250121 
L 227.223216 284.992651 
L 227.629418 284.992651 
L 227.629418 283.735182 
L 228.156472 283.735182 
L 228.156472 282.477712 
L 228.442866 282.477712 
L 228.442866 281.220242 
L 230.942997 281.220242 
L 230.942997 279.962772 
L 232.211497 279.962772 
L 232.211497 278.705303 
L 232.405817 278.705303 
L 232.405817 277.447833 
L 232.588885 277.447833 
L 232.588885 276.190363 
L 232.741718 276.190363 
L 232.741718 274.932893 
L 233.417745 274.932893 
L 233.450436 272.417954 
L 233.812489 272.417954 
L 233.812489 271.160484 
L 234.137552 271.160484 
L 234.137552 269.903014 
L 234.393415 269.903014 
L 234.494988 267.388075 
L 234.579113 267.388075 
L 234.579113 266.130605 
L 235.466112 266.130605 
L 235.532606 263.615666 
L 236.980138 263.615666 
L 236.980138 262.358196 
L 237.466223 262.358196 
L 237.466223 261.100726 
L 238.512885 261.100726 
L 238.512885 259.843256 
L 238.979095 259.843256 
L 238.979095 258.585787 
L 239.91859 258.585787 
L 239.987917 256.070847 
L 240.122113 256.070847 
L 240.122113 254.813377 
L 241.340482 254.813377 
L 241.340482 253.555908 
L 241.717957 253.555908 
L 241.717957 252.298438 
L 243.144788 252.298438 
L 243.144788 251.040968 
L 243.501953 251.040968 
L 243.501953 249.783498 
L 244.627686 249.783498 
L 244.627686 248.526029 
L 245.696903 248.526029 
L 245.696903 247.268559 
L 246.944182 247.268559 
L 246.955233 243.49615 
L 247.198847 243.49615 
L 247.198847 242.23868 
L 247.523851 242.23868 
L 247.523851 240.98121 
L 248.365323 240.98121 
L 248.365323 239.72374 
L 248.503849 239.72374 
L 248.503849 238.466271 
L 249.727222 238.466271 
L 249.727222 237.208801 
L 249.900398 237.208801 
L 249.900398 235.951331 
L 252.177297 235.951331 
L 252.177297 234.693861 
L 256.535822 234.693861 
L 256.535822 233.436392 
L 260.268655 233.436392 
L 260.268655 232.178922 
L 260.720297 232.178922 
L 260.754635 229.663982 
L 261.178382 229.663982 
L 261.178382 228.406513 
L 261.744425 228.406513 
L 261.844726 225.891573 
L 262.115041 225.891573 
L 262.115041 224.634103 
L 262.367617 224.634103 
L 262.367617 223.376634 
L 262.636198 223.376634 
L 262.636198 222.119164 
L 262.95543 222.119164 
L 262.994127 219.604224 
L 263.107489 219.604224 
L 263.107489 218.346755 
L 264.32302 218.346755 
L 264.32302 217.089285 
L 264.759498 217.089285 
L 264.759498 215.831815 
L 265.0002 215.831815 
L 265.099897 212.059406 
L 265.204931 212.059406 
L 265.204931 210.801936 
L 265.429399 210.801936 
L 265.429399 209.544466 
L 266.147583 209.544466 
L 266.147583 208.286997 
L 266.295065 208.286997 
L 266.295065 207.029527 
L 266.408207 207.029527 
L 266.486317 204.514587 
L 266.6418 204.514587 
L 266.6418 203.257118 
L 267.050023 203.257118 
L 267.099882 200.742178 
L 267.374284 200.742178 
L 267.432966 198.227239 
L 267.802878 198.227239 
L 267.802878 196.969769 
L 268.577943 196.969769 
L 268.577943 195.712299 
L 269.552701 195.712299 
L 269.552701 194.454829 
L 270.246679 194.454829 
L 270.246679 193.19736 
L 271.165203 193.19736 
L 271.165203 191.93989 
L 275.981234 191.93989 
L 275.981234 190.68242 
L 276.591643 190.68242 
L 276.591643 189.42495 
L 278.30455 189.42495 
L 278.308756 186.910011 
L 278.590896 186.910011 
L 278.590896 185.652541 
L 280.023641 185.652541 
L 280.023641 184.395072 
L 280.870165 184.395072 
L 280.870165 183.137602 
L 281.077917 183.137602 
L 281.077917 181.880132 
L 281.451326 181.880132 
L 281.451326 180.622662 
L 281.790732 180.622662 
L 281.790732 179.365193 
L 282.498839 179.365193 
L 282.559426 175.592783 
L 283.121591 175.592783 
L 283.121591 174.335314 
L 283.330562 174.335314 
L 283.372904 171.820374 
L 283.514933 171.820374 
L 283.514933 170.562904 
L 283.99565 170.562904 
L 283.99565 169.305435 
L 284.206707 169.305435 
L 284.308274 166.790495 
L 284.374584 166.790495 
L 284.37592 164.275556 
L 284.513709 164.275556 
L 284.513709 163.018086 
L 284.667186 163.018086 
L 284.667186 161.760616 
L 284.813058 161.760616 
L 284.813058 160.503146 
L 285.029547 160.503146 
L 285.029547 159.245677 
L 285.557012 159.245677 
L 285.557012 157.988207 
L 285.794438 157.988207 
L 285.902581 154.215798 
L 286.039839 154.215798 
L 286.055462 151.700858 
L 286.574497 151.700858 
L 286.637252 149.185919 
L 286.874418 149.185919 
L 286.878101 146.670979 
L 287.191051 146.670979 
L 287.191051 145.413509 
L 287.93006 145.413509 
L 287.93006 144.15604 
L 288.824335 144.15604 
L 288.912527 141.6411 
L 289.028627 141.6411 
L 289.028627 140.38363 
L 289.609664 140.38363 
L 289.705828 137.868691 
L 289.748509 137.868691 
L 289.748509 136.611221 
L 290.064152 136.611221 
L 290.064152 135.353751 
L 290.216003 135.353751 
L 290.216003 134.096282 
L 290.330118 134.096282 
L 290.370703 131.581342 
L 290.664958 131.581342 
L 290.664958 130.323872 
L 290.952691 130.323872 
L 291.017684 127.808933 
L 291.090149 127.808933 
L 291.090149 126.551463 
L 291.274571 126.551463 
L 291.274571 125.293993 
L 291.700791 125.293993 
L 291.700791 124.036524 
L 296.564758 124.036524 
L 296.564758 122.779054 
L 297.269803 122.779054 
L 297.269803 121.521584 
L 334.954909 121.521584 
L 334.954909 120.264114 
L 336.521686 120.264114 
L 336.521686 119.006645 
L 339.019499 119.006645 
L 339.019499 117.749175 
L 339.919638 117.749175 
L 339.919638 116.491705 
L 340.129057 116.491705 
L 340.129057 115.234235 
L 340.878745 115.234235 
L 340.878745 113.976766 
L 341.089564 113.976766 
L 341.089564 112.719296 
L 342.484234 112.719296 
L 342.492276 110.204356 
L 342.775909 110.204356 
L 342.775909 108.946887 
L 345.734882 108.946887 
L 345.734882 107.689417 
L 347.274723 107.689417 
L 347.274723 106.431947 
L 347.425158 106.431947 
L 347.425158 105.174477 
L 348.615716 105.174477 
L 348.615716 103.917008 
L 349.136661 103.917008 
L 349.136661 102.659538 
L 349.700484 102.659538 
L 349.700484 101.402068 
L 350.896348 101.402068 
L 350.896348 100.144598 
L 351.40943 100.144598 
L 351.40943 98.887129 
L 351.527826 98.887129 
L 351.527826 97.629659 
L 352.565201 97.629659 
L 352.565201 96.372189 
L 355.373487 96.372189 
L 355.373487 95.114719 
L 357.399584 95.114719 
L 357.502228 92.59978 
L 358.200352 92.59978 
L 358.200352 91.34231 
L 358.91003 91.34231 
L 358.91003 90.08484 
L 359.522547 90.08484 
L 359.537599 87.569901 
L 359.975705 87.569901 
L 359.975705 86.312431 
L 360.119014 86.312431 
L 360.119014 85.054961 
L 361.071192 85.054961 
L 361.071192 83.797492 
L 361.914093 83.797492 
L 361.914093 82.540022 
L 362.153559 82.540022 
L 362.153559 81.282552 
L 362.280696 81.282552 
L 362.280696 80.025083 
L 363.995971 80.025083 
L 364.056592 77.510143 
L 364.150717 77.510143 
L 364.153337 74.995204 
L 364.951991 74.995204 
L 364.951991 73.737734 
L 366.625148 73.737734 
L 366.718735 69.965325 
L 369.625838 69.965325 
L 369.625838 68.707855 
L 370.1648 68.707855 
L 370.1648 67.450385 
L 371.16208 67.450385 
L 371.16208 66.192915 
L 371.560262 66.192915 
L 371.560262 64.935446 
L 386.154051 64.935446 
L 386.154051 63.677976 
L 390.133546 63.677976 
L 390.133546 62.420506 
L 392.649386 62.420506 
L 392.649386 61.163036 
L 392.826433 61.163036 
L 392.826433 59.905567 
L 393.770958 59.905567 
L 393.770958 58.648097 
L 395.288234 58.648097 
L 395.288234 57.390627 
L 396.273803 57.390627 
L 396.273803 56.133157 
L 396.78224 56.133157 
L 396.78224 54.875688 
L 396.967168 54.875688 
L 396.967168 53.618218 
L 398.099081 53.618218 
L 398.099081 52.360748 
L 398.4596 52.360748 
L 398.4596 51.103278 
L 399.559868 51.103278 
L 399.559868 49.845809 
L 399.853918 49.845809 
L 399.938193 47.330869 
L 400.589252 47.330869 
L 400.640074 44.81593 
L 401.927924 44.81593 
L 401.927924 43.55846 
L 404.11802 43.55846 
L 404.11802 42.30099 
L 404.52375 42.30099 
L 404.52375 41.04352 
L 405.09029 41.04352 
L 405.09029 39.786051 
L 405.520065 39.786051 
L 405.573984 37.271111 
L 405.953343 37.271111 
L 405.953343 36.013641 
L 407.330679 36.013641 
L 407.330679 34.756172 
L 407.641287 34.756172 
L 407.641287 33.498702 
L 408.029734 33.498702 
L 408.029734 32.241232 
L 408.356059 32.241232 
L 408.356059 30.983762 
L 409.389863 30.983762 
L 409.389863 29.726293 
L 409.522594 29.726293 
L 409.522594 28.468823 
L 409.801293 28.468823 
L 409.801293 27.211353 
L 410.380737 27.211353 
L 410.380737 25.953883 
L 410.723889 25.953883 
L 410.723889 24.696414 
L 412.174887 24.696414 
L 412.229828 22.181474 
L 412.614079 22.181474 
L 412.614079 20.924004 
L 412.9755 20.924004 
L 412.9755 19.666535 
L 413.134435 19.666535 
L 413.134435 18.409065 
L 413.885811 18.409065 
L 413.885811 17.151595 
L 414.22504 17.151595 
L 414.22504 15.894125 
L 415.275182 15.894125 
L 415.275182 14.636656 
L 417.040569 14.636656 
L 417.040569 13.379186 
L 417.993064 13.379186 
L 418.092208 10.864246 
L 418.759575 10.864246 
L 418.759575 9.606777 
L 419.952033 9.606777 
L 419.952033 8.349307 
L 419.952033 8.349307 
L 450.672 8.349307 
L 450.672 8.349307 
" style="fill:none;stroke:#bf00bf;stroke-linecap:square;stroke-width:1.5;"/>
   </g>
   <g id="line2d_29">
    <path clip-path="url(#p3c86ac8d84)" d="M 221.313537 291.28 
L 221.313537 290.02253 
L 221.727308 290.02253 
L 221.727308 288.765061 
L 223.907294 288.765061 
L 223.907294 287.507591 
L 224.449895 287.507591 
L 224.449895 286.250121 
L 226.472277 286.250121 
L 226.472277 284.992651 
L 226.646735 284.992651 
L 226.646735 283.735182 
L 227.015373 283.735182 
L 227.050217 281.220242 
L 227.344813 281.220242 
L 227.344813 279.962772 
L 227.713397 279.962772 
L 227.713397 278.705303 
L 227.881793 278.705303 
L 227.881793 277.447833 
L 228.626707 277.447833 
L 228.626707 276.190363 
L 229.94488 276.190363 
L 230.048114 272.417954 
L 230.315821 272.417954 
L 230.315821 271.160484 
L 231.426882 271.160484 
L 231.426882 269.903014 
L 233.168764 269.903014 
L 233.168764 268.645545 
L 233.344123 268.645545 
L 233.344123 267.388075 
L 233.600377 267.388075 
L 233.600377 266.130605 
L 233.896324 266.130605 
L 233.97764 263.615666 
L 234.050455 263.615666 
L 234.050455 262.358196 
L 234.182376 262.358196 
L 234.182376 261.100726 
L 234.835486 261.100726 
L 234.835486 259.843256 
L 235.775678 259.843256 
L 235.775678 258.585787 
L 236.094944 258.585787 
L 236.094944 257.328317 
L 236.32731 257.328317 
L 236.32731 256.070847 
L 237.031068 256.070847 
L 237.031068 254.813377 
L 237.29598 254.813377 
L 237.29598 253.555908 
L 241.717957 253.555908 
L 241.717957 252.298438 
L 243.144788 252.298438 
L 243.144788 251.040968 
L 243.501953 251.040968 
L 243.501953 249.783498 
L 244.627686 249.783498 
L 244.627686 248.526029 
L 245.696903 248.526029 
L 245.696903 247.268559 
L 246.944182 247.268559 
L 246.955233 243.49615 
L 247.198847 243.49615 
L 247.198847 242.23868 
L 247.523851 242.23868 
L 247.523851 240.98121 
L 248.365323 240.98121 
L 248.365323 239.72374 
L 248.503849 239.72374 
L 248.503849 238.466271 
L 249.727222 238.466271 
L 249.727222 237.208801 
L 249.900398 237.208801 
L 249.900398 235.951331 
L 252.177297 235.951331 
L 252.177297 234.693861 
L 256.294798 234.693861 
L 256.294798 233.436392 
L 259.526162 233.436392 
L 259.526162 232.178922 
L 260.49759 232.178922 
L 260.521171 229.663982 
L 260.633157 229.663982 
L 260.633157 228.406513 
L 261.079091 228.406513 
L 261.131558 225.891573 
L 261.862163 225.891573 
L 261.911487 223.376634 
L 262.181871 223.376634 
L 262.182871 220.861694 
L 262.459446 220.861694 
L 262.459446 219.604224 
L 262.781286 219.604224 
L 262.781286 218.346755 
L 263.851685 218.346755 
L 263.851685 217.089285 
L 264.08522 217.089285 
L 264.143273 214.574345 
L 264.473943 214.574345 
L 264.473943 213.316876 
L 264.624824 213.316876 
L 264.624824 212.059406 
L 264.822875 212.059406 
L 264.822875 210.801936 
L 265.204931 210.801936 
L 265.230014 208.286997 
L 265.623657 208.286997 
L 265.623657 207.029527 
L 265.977502 207.029527 
L 265.977502 205.772057 
L 266.136926 205.772057 
L 266.136926 204.514587 
L 266.282486 204.514587 
L 266.295065 201.999648 
L 266.6418 201.999648 
L 266.6418 200.742178 
L 266.865474 200.742178 
L 266.865474 199.484708 
L 267.050023 199.484708 
L 267.050023 198.227239 
L 267.170752 198.227239 
L 267.170752 196.969769 
L 267.670317 196.969769 
L 267.670317 195.712299 
L 267.802878 195.712299 
L 267.802878 194.454829 
L 267.973375 194.454829 
L 267.973375 193.19736 
L 268.444498 193.19736 
L 268.444498 191.93989 
L 269.034431 191.93989 
L 269.034431 190.68242 
L 270.246679 190.68242 
L 270.246679 189.42495 
L 275.291439 189.42495 
L 275.291439 188.167481 
L 275.981234 188.167481 
L 275.981234 186.910011 
L 276.591643 186.910011 
L 276.591643 185.652541 
L 278.212477 185.652541 
L 278.308756 183.137602 
L 278.590896 183.137602 
L 278.590896 181.880132 
L 279.435728 181.880132 
L 279.497957 179.365193 
L 280.032397 179.365193 
L 280.032397 178.107723 
L 280.550425 178.107723 
L 280.550425 176.850253 
L 280.915497 176.850253 
L 280.915497 175.592783 
L 281.029456 175.592783 
L 281.029456 174.335314 
L 281.178491 174.335314 
L 281.178491 173.077844 
L 281.790732 173.077844 
L 281.790732 171.820374 
L 282.068701 171.820374 
L 282.12984 168.047965 
L 282.608694 168.047965 
L 282.608694 166.790495 
L 282.738813 166.790495 
L 282.75149 163.018086 
L 282.879582 163.018086 
L 282.879582 161.760616 
L 283.00056 161.760616 
L 283.00056 160.503146 
L 283.206088 160.503146 
L 283.298295 157.988207 
L 283.856204 157.988207 
L 283.877891 155.473267 
L 284.090548 155.473267 
L 284.120112 152.958328 
L 284.374584 152.958328 
L 284.427543 150.443388 
L 286.216807 150.443388 
L 286.282655 147.928449 
L 286.529037 147.928449 
L 286.637252 144.15604 
L 286.802989 144.15604 
L 286.802989 142.89857 
L 287.93006 142.89857 
L 287.93006 141.6411 
L 288.824335 141.6411 
L 288.824335 140.38363 
L 289.609664 140.38363 
L 289.705828 137.868691 
L 289.748509 137.868691 
L 289.748509 136.611221 
L 290.064152 136.611221 
L 290.064152 135.353751 
L 290.216003 135.353751 
L 290.216003 134.096282 
L 290.330118 134.096282 
L 290.370703 131.581342 
L 290.664958 131.581342 
L 290.664958 130.323872 
L 290.952691 130.323872 
L 291.017684 127.808933 
L 291.090149 127.808933 
L 291.090149 126.551463 
L 291.274571 126.551463 
L 291.274571 125.293993 
L 291.700791 125.293993 
L 291.700791 124.036524 
L 296.564758 124.036524 
L 296.564758 122.779054 
L 297.269803 122.779054 
L 297.269803 121.521584 
L 319.991745 121.521584 
L 319.991745 120.264114 
L 329.956207 120.264114 
L 329.956207 119.006645 
L 331.467971 119.006645 
L 331.467971 117.749175 
L 333.045495 117.749175 
L 333.131101 115.234235 
L 335.076913 115.234235 
L 335.076913 113.976766 
L 337.032228 113.976766 
L 337.032228 112.719296 
L 337.245792 112.719296 
L 337.245792 111.461826 
L 337.901424 111.461826 
L 337.901424 110.204356 
L 338.293204 110.204356 
L 338.293204 108.946887 
L 339.099985 108.946887 
L 339.099985 107.689417 
L 339.384264 107.689417 
L 339.384264 106.431947 
L 341.03728 106.431947 
L 341.03728 105.174477 
L 341.616286 105.174477 
L 341.626936 102.659538 
L 343.882592 102.659538 
L 343.882592 101.402068 
L 346.620084 101.402068 
L 346.703697 97.629659 
L 347.907336 97.629659 
L 347.907336 96.372189 
L 348.859939 96.372189 
L 348.859939 95.114719 
L 349.248521 95.114719 
L 349.248521 93.85725 
L 349.700484 93.85725 
L 349.700484 92.59978 
L 350.369409 92.59978 
L 350.428283 90.08484 
L 350.770725 90.08484 
L 350.770725 88.827371 
L 351.358499 88.827371 
L 351.358499 87.569901 
L 352.067533 87.569901 
L 352.067533 86.312431 
L 352.381088 86.312431 
L 352.381088 85.054961 
L 353.478688 85.054961 
L 353.478688 83.797492 
L 357.502228 83.797492 
L 357.502228 82.540022 
L 358.200352 82.540022 
L 358.200352 81.282552 
L 358.534111 81.282552 
L 358.534111 80.025083 
L 359.537599 80.025083 
L 359.537599 78.767613 
L 360.119014 78.767613 
L 360.119014 77.510143 
L 363.995971 77.510143 
L 364.056592 74.995204 
L 364.150717 74.995204 
L 364.150717 73.737734 
L 364.951991 73.737734 
L 364.951991 72.480264 
L 366.625148 72.480264 
L 366.679627 69.965325 
L 369.625838 69.965325 
L 369.625838 68.707855 
L 370.1648 68.707855 
L 370.1648 67.450385 
L 371.16208 67.450385 
L 371.16208 66.192915 
L 371.560262 66.192915 
L 371.560262 64.935446 
L 381.33549 64.935446 
L 381.33549 63.677976 
L 384.433749 63.677976 
L 384.433749 62.420506 
L 384.790445 62.420506 
L 384.790445 61.163036 
L 385.850312 61.163036 
L 385.850312 59.905567 
L 389.065183 59.905567 
L 389.072297 57.390627 
L 391.687666 57.390627 
L 391.687666 56.133157 
L 393.351006 56.133157 
L 393.351006 54.875688 
L 393.826425 54.875688 
L 393.826425 53.618218 
L 395.459544 53.618218 
L 395.459544 52.360748 
L 396.173998 52.360748 
L 396.173998 51.103278 
L 397.184133 51.103278 
L 397.184133 49.845809 
L 397.518619 49.845809 
L 397.518619 48.588339 
L 398.459384 48.588339 
L 398.459384 47.330869 
L 398.866244 47.330869 
L 398.866244 46.073399 
L 399.159529 46.073399 
L 399.203398 43.55846 
L 399.914398 43.55846 
L 399.914398 42.30099 
L 400.409781 42.30099 
L 400.409781 41.04352 
L 400.68966 41.04352 
L 400.736044 38.528581 
L 401.164615 38.528581 
L 401.164615 37.271111 
L 401.574707 37.271111 
L 401.574707 36.013641 
L 402.490724 36.013641 
L 402.490724 34.756172 
L 403.539793 34.756172 
L 403.539793 33.498702 
L 403.860779 33.498702 
L 403.860779 32.241232 
L 404.508086 32.241232 
L 404.508086 30.983762 
L 405.075438 30.983762 
L 405.075438 29.726293 
L 406.923556 29.726293 
L 406.923556 28.468823 
L 407.369797 28.468823 
L 407.369797 27.211353 
L 409.522594 27.211353 
L 409.522594 25.953883 
L 409.801293 25.953883 
L 409.801293 24.696414 
L 410.723889 24.696414 
L 410.723889 23.438944 
L 412.229828 23.438944 
L 412.229828 22.181474 
L 412.614079 22.181474 
L 412.614079 20.924004 
L 412.9755 20.924004 
L 412.9755 19.666535 
L 413.134435 19.666535 
L 413.134435 18.409065 
L 413.885811 18.409065 
L 413.885811 17.151595 
L 414.22504 17.151595 
L 414.22504 15.894125 
L 415.275182 15.894125 
L 415.275182 14.636656 
L 417.040569 14.636656 
L 417.040569 13.379186 
L 417.993064 13.379186 
L 418.092208 10.864246 
L 418.759575 10.864246 
L 418.759575 9.606777 
L 419.952033 9.606777 
L 419.952033 8.349307 
L 419.952033 8.349307 
L 450.672 8.349307 
L 450.672 8.349307 
" style="fill:none;stroke:#000000;stroke-linecap:square;stroke-width:1.5;"/>
   </g>
   <g id="patch_3">
    <path d="M 5.52 291.28 
L 5.52 5.52 
" style="fill:none;stroke:#000000;stroke-linecap:square;stroke-linejoin:miter;stroke-width:0.8;"/>
   </g>
   <g id="patch_4">
    <path d="M 450.672 291.28 
L 450.672 5.52 
" style="fill:none;stroke:#000000;stroke-linecap:square;stroke-linejoin:miter;stroke-width:0.8;"/>
   </g>
   <g id="patch_5">
    <path d="M 5.52 291.28 
L 450.672 291.28 
" style="fill:none;stroke:#000000;stroke-linecap:square;stroke-linejoin:miter;stroke-width:0.8;"/>
   </g>
   <g id="patch_6">
    <path d="M 5.52 5.52 
L 450.672 5.52 
" style="fill:none;stroke:#000000;stroke-linecap:square;stroke-linejoin:miter;stroke-width:0.8;"/>
   </g>
   <g id="text_6">
    <!-- {f10-f14}, 20-D -->
    <defs>
     <path d="M 51.125 -9.28125 
L 51.125 -16.3125 
L 48.09375 -16.3125 
Q 35.9375 -16.3125 31.8125 -12.6875 
Q 27.6875 -9.078125 27.6875 1.703125 
L 27.6875 13.375 
Q 27.6875 20.75 25.046875 23.578125 
Q 22.40625 26.421875 15.484375 26.421875 
L 12.5 26.421875 
L 12.5 33.40625 
L 15.484375 33.40625 
Q 22.46875 33.40625 25.078125 36.203125 
Q 27.6875 39.015625 27.6875 46.296875 
L 27.6875 58.015625 
Q 27.6875 68.796875 31.8125 72.390625 
Q 35.9375 75.984375 48.09375 75.984375 
L 51.125 75.984375 
L 51.125 69 
L 47.796875 69 
Q 40.921875 69 38.8125 66.84375 
Q 36.71875 64.703125 36.71875 57.8125 
L 36.71875 45.703125 
Q 36.71875 38.03125 34.5 34.5625 
Q 32.28125 31.109375 26.90625 29.890625 
Q 32.328125 28.5625 34.515625 25.09375 
Q 36.71875 21.625 36.71875 14.015625 
L 36.71875 1.90625 
Q 36.71875 -4.984375 38.8125 -7.125 
Q 40.921875 -9.28125 47.796875 -9.28125 
z
" id="DejaVuSans-7b"/>
     <path d="M 12.5 -9.28125 
L 15.921875 -9.28125 
Q 22.75 -9.28125 24.828125 -7.171875 
Q 26.90625 -5.078125 26.90625 1.90625 
L 26.90625 14.015625 
Q 26.90625 21.625 29.09375 25.09375 
Q 31.296875 28.5625 36.71875 29.890625 
Q 31.296875 31.109375 29.09375 34.5625 
Q 26.90625 38.03125 26.90625 45.703125 
L 26.90625 57.8125 
Q 26.90625 64.75 24.828125 66.875 
Q 22.75 69 15.921875 69 
L 12.5 69 
L 12.5 75.984375 
L 15.578125 75.984375 
Q 27.734375 75.984375 31.8125 72.390625 
Q 35.890625 68.796875 35.890625 58.015625 
L 35.890625 46.296875 
Q 35.890625 39.015625 38.515625 36.203125 
Q 41.15625 33.40625 48.09375 33.40625 
L 51.125 33.40625 
L 51.125 26.421875 
L 48.09375 26.421875 
Q 41.15625 26.421875 38.515625 23.578125 
Q 35.890625 20.75 35.890625 13.375 
L 35.890625 1.703125 
Q 35.890625 -9.078125 31.8125 -12.6875 
Q 27.734375 -16.3125 15.578125 -16.3125 
L 12.5 -16.3125 
z
" id="DejaVuSans-7d"/>
     <path d="M 11.71875 12.40625 
L 22.015625 12.40625 
L 22.015625 4 
L 14.015625 -11.625 
L 7.71875 -11.625 
L 11.71875 4 
z
" id="DejaVuSans-2c"/>
     <path d="M 19.1875 8.296875 
L 53.609375 8.296875 
L 53.609375 0 
L 7.328125 0 
L 7.328125 8.296875 
Q 12.9375 14.109375 22.625 23.890625 
Q 32.328125 33.6875 34.8125 36.53125 
Q 39.546875 41.84375 41.421875 45.53125 
Q 43.3125 49.21875 43.3125 52.78125 
Q 43.3125 58.59375 39.234375 62.25 
Q 35.15625 65.921875 28.609375 65.921875 
Q 23.96875 65.921875 18.8125 64.3125 
Q 13.671875 62.703125 7.8125 59.421875 
L 7.8125 69.390625 
Q 13.765625 71.78125 18.9375 73 
Q 24.125 74.21875 28.421875 74.21875 
Q 39.75 74.21875 46.484375 68.546875 
Q 53.21875 62.890625 53.21875 53.421875 
Q 53.21875 48.921875 51.53125 44.890625 
Q 49.859375 40.875 45.40625 35.40625 
Q 44.1875 33.984375 37.640625 27.21875 
Q 31.109375 20.453125 19.1875 8.296875 
z
" id="DejaVuSans-32"/>
    </defs>
    <g transform="translate(283.34396 285.5648)scale(0.2 -0.2)">
     <use xlink:href="#DejaVuSans-7b"/>
     <use x="63.623047" xlink:href="#DejaVuSans-66"/>
     <use x="98.828125" xlink:href="#DejaVuSans-31"/>
     <use x="162.451172" xlink:href="#DejaVuSans-30"/>
     <use x="226.074219" xlink:href="#DejaVuSans-2d"/>
     <use x="262.158203" xlink:href="#DejaVuSans-66"/>
     <use x="297.363281" xlink:href="#DejaVuSans-31"/>
     <use x="360.986328" xlink:href="#DejaVuSans-34"/>
     <use x="424.609375" xlink:href="#DejaVuSans-7d"/>
     <use x="488.232422" xlink:href="#DejaVuSans-2c"/>
     <use x="520.019531" xlink:href="#DejaVuSans-20"/>
     <use x="551.806641" xlink:href="#DejaVuSans-32"/>
     <use x="615.429688" xlink:href="#DejaVuSans-30"/>
     <use x="679.052734" xlink:href="#DejaVuSans-2d"/>
     <use x="715.136719" xlink:href="#DejaVuSans-44"/>
    </g>
   </g>
   <g id="text_7">
    <!-- v2.2.1.10 -->
    <defs>
     <path d="M 2.984375 54.6875 
L 12.5 54.6875 
L 29.59375 8.796875 
L 46.6875 54.6875 
L 56.203125 54.6875 
L 35.6875 0 
L 23.484375 0 
z
" id="DejaVuSans-76"/>
     <path d="M 10.6875 12.40625 
L 21 12.40625 
L 21 0 
L 10.6875 0 
z
" id="DejaVuSans-2e"/>
    </defs>
    <g style="fill:#808080;" transform="translate(204.463188 286.342713)scale(0.1 -0.1)">
     <use xlink:href="#DejaVuSans-76"/>
     <use x="59.179688" xlink:href="#DejaVuSans-32"/>
     <use x="122.802734" xlink:href="#DejaVuSans-2e"/>
     <use x="154.589844" xlink:href="#DejaVuSans-32"/>
     <use x="218.212891" xlink:href="#DejaVuSans-2e"/>
     <use x="250" xlink:href="#DejaVuSans-31"/>
     <use x="313.623047" xlink:href="#DejaVuSans-2e"/>
     <use x="345.410156" xlink:href="#DejaVuSans-31"/>
     <use x="409.033203" xlink:href="#DejaVuSans-30"/>
    </g>
   </g>
  </g>
 </g>
 <defs>
  <clipPath id="p3c86ac8d84">
   <rect height="285.76" width="445.152" x="5.52" y="5.52"/>
  </clipPath>
 </defs>
</svg>
